<svg xmlns="http://www.w3.org/2000/svg" width="1240" height="88" viewBox="0 0 1240 88">
  <g id="Grupo_1034553" data-name="Grupo 1034553" transform="translate(9726 4848.775)">
    <path id="Rectángulo_349432" data-name="Rectángulo 349432" d="M20,0H295a0,0,0,0,1,0,0V88a0,0,0,0,1,0,0H20A20,20,0,0,1,0,68V20A20,20,0,0,1,20,0Z" transform="translate(-9726 -4848.775)" fill="#9cc214"/>
    <path id="Rectángulo_349433" data-name="Rectángulo 349433" d="M20,0H945a0,0,0,0,1,0,0V88a0,0,0,0,1,0,0H20A20,20,0,0,1,0,68V20A20,20,0,0,1,20,0Z" transform="translate(-8486 -4760.775) rotate(180)" fill="#f6f6f6"/>
    <path id="Polígono_75" data-name="Polígono 75" d="M23,0,46,40H0Z" transform="translate(-9460 -4777.775) rotate(-90)" fill="#f6f6f6"/>
  </g>
</svg>
