<svg xmlns="http://www.w3.org/2000/svg" width="1070" height="137" viewBox="0 0 1070 137">
  <g id="Grupo_1034565" data-name="Grupo 1034565" transform="translate(6675.51 2087.318)">
    <g id="Grupo_1034563" data-name="Grupo 1034563" transform="translate(-6940.51 -13021.318)">
      <path id="Rectángulo_330114" data-name="Rectángulo 330114" d="M20,0H295a0,0,0,0,1,0,0V137a0,0,0,0,1,0,0H20A20,20,0,0,1,0,117V20A20,20,0,0,1,20,0Z" transform="translate(265 10934)" fill="#fecc7b"/>
      <path id="Rectángulo_330115" data-name="Rectángulo 330115" d="M20,0H775a0,0,0,0,1,0,0V137a0,0,0,0,1,0,0H20A20,20,0,0,1,0,117V20A20,20,0,0,1,20,0Z" transform="translate(1335 11071) rotate(180)" fill="#f6f6f6"/>
      <path id="Polígono_66" data-name="Polígono 66" d="M23,0,46,40H0Z" transform="translate(531 11026) rotate(-90)" fill="#f6f6f6"/>
    </g>
  </g>
</svg>
