<svg xmlns="http://www.w3.org/2000/svg" width="1240" height="88" viewBox="0 0 1240 88">
  <g id="Grupo_1034550" data-name="Grupo 1034550" transform="translate(9739 5236.177)">
    <path id="Rectángulo_349426" data-name="Rectángulo 349426" d="M20,0H295a0,0,0,0,1,0,0V88a0,0,0,0,1,0,0H20A20,20,0,0,1,0,68V20A20,20,0,0,1,20,0Z" transform="translate(-9739 -5236.177)" fill="#d5f563"/>
    <path id="Rectángulo_349427" data-name="Rectángulo 349427" d="M20,0H945a0,0,0,0,1,0,0V88a0,0,0,0,1,0,0H20A20,20,0,0,1,0,68V20A20,20,0,0,1,20,0Z" transform="translate(-8499 -5148.177) rotate(180)" fill="#f6f6f6"/>
    <path id="Polígono_72" data-name="Polígono 72" d="M23,0,46,40H0Z" transform="translate(-9473 -5169.177) rotate(-90)" fill="#f6f6f6"/>
  </g>
</svg>
