<svg xmlns="http://www.w3.org/2000/svg" width="1070" height="137" viewBox="0 0 1070 137">
  <g id="Grupo_1034561" data-name="Grupo 1034561" transform="translate(-265 -10797)">
    <path id="Rectángulo_330116" data-name="Rectángulo 330116" d="M20,0H295a0,0,0,0,1,0,0V137a0,0,0,0,1,0,0H20A20,20,0,0,1,0,117V20A20,20,0,0,1,20,0Z" transform="translate(265 10797)" fill="#ffb338"/>
    <path id="Rectángulo_330117" data-name="Rectángulo 330117" d="M20,0H775a0,0,0,0,1,0,0V137a0,0,0,0,1,0,0H20A20,20,0,0,1,0,117V20A20,20,0,0,1,20,0Z" transform="translate(1335 10934) rotate(180)" fill="#f6f6f6"/>
    <path id="Polígono_67" data-name="Polígono 67" d="M23,0,46,40H0Z" transform="translate(531 10889) rotate(-90)" fill="#f6f6f6"/>
  </g>
</svg>
