<svg xmlns="http://www.w3.org/2000/svg" width="1070" height="182" viewBox="0 0 1070 182">
  <g id="Grupo_1034566" data-name="Grupo 1034566" transform="translate(6675.51 1945.318)">
    <g id="Grupo_1034562" data-name="Grupo 1034562" transform="translate(-6940.51 -13016.318)">
      <path id="Rectángulo_330112" data-name="Rectángulo 330112" d="M20,0H295a0,0,0,0,1,0,0V182a0,0,0,0,1,0,0H20A20,20,0,0,1,0,162V20A20,20,0,0,1,20,0Z" transform="translate(265 11071)" fill="#ceed65"/>
      <path id="Rectángulo_330113" data-name="Rectángulo 330113" d="M20,0H775a0,0,0,0,1,0,0V182a0,0,0,0,1,0,0H20A20,20,0,0,1,0,162V20A20,20,0,0,1,20,0Z" transform="translate(1335 11253) rotate(180)" fill="#f6f6f6"/>
      <path id="Polígono_65" data-name="Polígono 65" d="M23,0,46,40H0Z" transform="translate(531 11185) rotate(-90)" fill="#f6f6f6"/>
    </g>
  </g>
</svg>
