<svg xmlns="http://www.w3.org/2000/svg" width="1240" height="88" viewBox="0 0 1240 88">
  <g id="Grupo_1034548" data-name="Grupo 1034548" transform="translate(9722 5507.078)">
    <path id="Rectángulo_349422" data-name="Rectángulo 349422" d="M20,0H295a0,0,0,0,1,0,0V88a0,0,0,0,1,0,0H20A20,20,0,0,1,0,68V20A20,20,0,0,1,20,0Z" transform="translate(-9722 -5507.078)" fill="#f3ffca"/>
    <path id="Rectángulo_349423" data-name="Rectángulo 349423" d="M20,0H945a0,0,0,0,1,0,0V88a0,0,0,0,1,0,0H20A20,20,0,0,1,0,68V20A20,20,0,0,1,20,0Z" transform="translate(-8482 -5419.078) rotate(180)" fill="#f6f6f6"/>
    <path id="Polígono_70" data-name="Polígono 70" d="M23,0,46,40H0Z" transform="translate(-9456 -5440.078) rotate(-90)" fill="#f6f6f6"/>
  </g>
</svg>
