<svg xmlns="http://www.w3.org/2000/svg" width="1240" height="88" viewBox="0 0 1240 88">
  <g id="Grupo_1034552" data-name="Grupo 1034552" transform="translate(9741 4975.078)">
    <path id="Rectángulo_349430" data-name="Rectángulo 349430" d="M20,0H295a0,0,0,0,1,0,0V88a0,0,0,0,1,0,0H20A20,20,0,0,1,0,68V20A20,20,0,0,1,20,0Z" transform="translate(-9741 -4975.078)" fill="#abd70f"/>
    <path id="Rectángulo_349431" data-name="Rectángulo 349431" d="M20,0H945a0,0,0,0,1,0,0V88a0,0,0,0,1,0,0H20A20,20,0,0,1,0,68V20A20,20,0,0,1,20,0Z" transform="translate(-8501 -4887.078) rotate(180)" fill="#f6f6f6"/>
    <path id="Polígono_74" data-name="Polígono 74" d="M23,0,46,40H0Z" transform="translate(-9475 -4906.078) rotate(-90)" fill="#f6f6f6"/>
  </g>
</svg>
