<svg xmlns="http://www.w3.org/2000/svg" width="1240" height="88" viewBox="0 0 1240 88">
  <g id="Grupo_1034554" data-name="Grupo 1034554" transform="translate(9735 4701.594)">
    <path id="Rectángulo_349434" data-name="Rectángulo 349434" d="M20,0H295a0,0,0,0,1,0,0V88a0,0,0,0,1,0,0H20A20,20,0,0,1,0,68V20A20,20,0,0,1,20,0Z" transform="translate(-9735 -4701.594)" fill="#88aa13"/>
    <path id="Rectángulo_349435" data-name="Rectángulo 349435" d="M20,0H945a0,0,0,0,1,0,0V88a0,0,0,0,1,0,0H20A20,20,0,0,1,0,68V20A20,20,0,0,1,20,0Z" transform="translate(-8495 -4613.594) rotate(180)" fill="#f6f6f6"/>
    <path id="Polígono_76" data-name="Polígono 76" d="M23,0,46,40H0Z" transform="translate(-9469 -4634.594) rotate(-90)" fill="#f6f6f6"/>
  </g>
</svg>
