<svg xmlns="http://www.w3.org/2000/svg" width="1240" height="88" viewBox="0 0 1240 88">
  <g id="Grupo_1034551" data-name="Grupo 1034551" transform="translate(9762 5109.078)">
    <path id="Rectángulo_349428" data-name="Rectángulo 349428" d="M20,0H295a0,0,0,0,1,0,0V88a0,0,0,0,1,0,0H20A20,20,0,0,1,0,68V20A20,20,0,0,1,20,0Z" transform="translate(-9762 -5109.078)" fill="#b9e813"/>
    <path id="Rectángulo_349429" data-name="Rectángulo 349429" d="M20,0H945a0,0,0,0,1,0,0V88a0,0,0,0,1,0,0H20A20,20,0,0,1,0,68V20A20,20,0,0,1,20,0Z" transform="translate(-8522 -5021.078) rotate(180)" fill="#f6f6f6"/>
    <path id="Polígono_73" data-name="Polígono 73" d="M23,0,46,40H0Z" transform="translate(-9496 -5042.078) rotate(-90)" fill="#f6f6f6"/>
  </g>
</svg>
