<svg xmlns="http://www.w3.org/2000/svg" width="1240" height="88" viewBox="0 0 1240 88">
  <g id="Grupo_1034549" data-name="Grupo 1034549" transform="translate(9708 5390.078)">
    <path id="Rectángulo_349424" data-name="Rectángulo 349424" d="M20,0H295a0,0,0,0,1,0,0V88a0,0,0,0,1,0,0H20A20,20,0,0,1,0,68V20A20,20,0,0,1,20,0Z" transform="translate(-9708 -5390.078)" fill="#e4f7a0"/>
    <path id="Rectángulo_349425" data-name="Rectángulo 349425" d="M20,0H945a0,0,0,0,1,0,0V88a0,0,0,0,1,0,0H20A20,20,0,0,1,0,68V20A20,20,0,0,1,20,0Z" transform="translate(-8468 -5302.078) rotate(180)" fill="#f6f6f6"/>
    <path id="Polígono_71" data-name="Polígono 71" d="M23,0,46,40H0Z" transform="translate(-9442 -5323.078) rotate(-90)" fill="#f6f6f6"/>
  </g>
</svg>
