<svg xmlns="http://www.w3.org/2000/svg" width="1070" height="137" viewBox="0 0 1070 137">
  <g id="Grupo_1034567" data-name="Grupo 1034567" transform="translate(6675.51 1758.318)">
    <g id="Grupo_1034564" data-name="Grupo 1034564" transform="translate(-6940.51 -13017.318)">
      <path id="Trazado_645899" data-name="Trazado 645899" d="M20,0H295V137H20A20,20,0,0,1,0,117V20A20,20,0,0,1,20,0Z" transform="translate(265 11259)" fill="#a8d11d"/>
      <path id="Rectángulo_330118" data-name="Rectángulo 330118" d="M20,0H775a0,0,0,0,1,0,0V137a0,0,0,0,1,0,0H20A20,20,0,0,1,0,117V20A20,20,0,0,1,20,0Z" transform="translate(1335 11396) rotate(180)" fill="#f6f6f6"/>
      <path id="Polígono_68" data-name="Polígono 68" d="M23,0,46,40H0Z" transform="translate(531 11351) rotate(-90)" fill="#f6f6f6"/>
    </g>
  </g>
</svg>
