<svg xmlns="http://www.w3.org/2000/svg" xmlns:xlink="http://www.w3.org/1999/xlink" width="610" height="477" viewBox="0 0 610 477">
  <defs>
    <clipPath id="clip-path">
      <rect id="Rectángulo_331323" data-name="Rectángulo 331323" width="516.828" height="476.319" fill="none"/>
    </clipPath>
    <clipPath id="clip-path-3">
      <rect id="Rectángulo_331302" data-name="Rectángulo 331302" width="0.094" height="0.049" fill="none"/>
    </clipPath>
    <clipPath id="clip-path-7">
      <rect id="Rectángulo_331306" data-name="Rectángulo 331306" width="78.172" height="78.172" fill="none"/>
    </clipPath>
    <clipPath id="clip-path-8">
      <rect id="Rectángulo_331307" data-name="Rectángulo 331307" width="30.446" height="26.719" fill="none"/>
    </clipPath>
    <clipPath id="clip-path-10">
      <rect id="Rectángulo_331309" data-name="Rectángulo 331309" width="212.52" height="194.932" fill="none"/>
    </clipPath>
    <clipPath id="clip-path-11">
      <rect id="Rectángulo_331310" data-name="Rectángulo 331310" width="61.228" height="155.513" fill="none"/>
    </clipPath>
    <clipPath id="clip-path-12">
      <rect id="Rectángulo_331311" data-name="Rectángulo 331311" width="43.249" height="23.841" fill="none"/>
    </clipPath>
    <clipPath id="clip-path-15">
      <rect id="Rectángulo_331314" data-name="Rectángulo 331314" width="42.104" height="39.081" fill="none"/>
    </clipPath>
    <clipPath id="clip-path-18">
      <rect id="Rectángulo_331317" data-name="Rectángulo 331317" width="70.476" height="42.388" fill="none"/>
    </clipPath>
    <clipPath id="clip-path-20">
      <rect id="Rectángulo_331319" data-name="Rectángulo 331319" width="108.101" height="65.017" fill="none"/>
    </clipPath>
    <clipPath id="clip-path-21">
      <rect id="Rectángulo_331320" data-name="Rectángulo 331320" width="87.29" height="47.532" fill="none"/>
    </clipPath>
  </defs>
  <g id="Grupo_1034306" data-name="Grupo 1034306" transform="translate(-810 -416)">
    <g id="Grupo_883900" data-name="Grupo 883900" transform="translate(847.997 416.295)">
      <g id="Grupo_883899" data-name="Grupo 883899" clip-path="url(#clip-path)">
        <g id="Grupo_883851" data-name="Grupo 883851">
          <g id="Grupo_883850" data-name="Grupo 883850" clip-path="url(#clip-path)">
            <path id="Trazado_643660" data-name="Trazado 643660" d="M282.151,106.148c.164.01.278.653.257,1.434S282.233,109,282.07,109s-.28-.641-.257-1.434.175-1.427.338-1.417" transform="translate(39.705 14.955)" fill="#e0e0e0"/>
            <path id="Trazado_643661" data-name="Trazado 643661" d="M284.211,96.442a8.579,8.579,0,0,1-.562,2.778,8.432,8.432,0,0,1-.925,2.679,5.992,5.992,0,0,1,.353-2.835,5.922,5.922,0,0,1,1.135-2.622" transform="translate(39.823 13.588)" fill="#e0e0e0"/>
            <path id="Trazado_643662" data-name="Trazado 643662" d="M289.283,87.85a8.748,8.748,0,0,1-1.456,2.43c-.877,1.274-1.6,2.313-1.743,2.232a5.847,5.847,0,0,1,1.254-2.568c.893-1.3,1.823-2.2,1.945-2.094" transform="translate(40.304 12.376)" fill="#e0e0e0"/>
            <path id="Trazado_643663" data-name="Trazado 643663" d="M296.833,81.283c.09.14-.9.933-2.13,1.872a8.419,8.419,0,0,1-2.368,1.556c-.11-.12.752-1.076,2.009-2.03a6.084,6.084,0,0,1,2.489-1.4" transform="translate(41.186 11.449)" fill="#e0e0e0"/>
            <path id="Trazado_643664" data-name="Trazado 643664" d="M305.748,76.8a13.648,13.648,0,0,1-5.175,2.294,13.648,13.648,0,0,1,5.175-2.294" transform="translate(42.348 10.815)" fill="#e0e0e0"/>
            <path id="Trazado_643665" data-name="Trazado 643665" d="M315.269,73.9a13.636,13.636,0,0,1-5.466,1.467,13.649,13.649,0,0,1,5.466-1.467" transform="translate(43.649 10.404)" fill="#e0e0e0"/>
            <path id="Trazado_643666" data-name="Trazado 643666" d="M325.03,72.061a13.64,13.64,0,0,1-5.582.934,13.64,13.64,0,0,1,5.582-.934" transform="translate(45.008 10.141)" fill="#e0e0e0"/>
            <path id="Trazado_643667" data-name="Trazado 643667" d="M334.907,71.089a13.62,13.62,0,0,1-5.649.356,13.623,13.623,0,0,1,5.649-.356" transform="translate(46.39 9.992)" fill="#e0e0e0"/>
            <path id="Trazado_643668" data-name="Trazado 643668" d="M344.794,71.814a13.642,13.642,0,0,1-5.626-.617,13.642,13.642,0,0,1,5.626.617" transform="translate(47.786 10.014)" fill="#e0e0e0"/>
            <path id="Trazado_643669" data-name="Trazado 643669" d="M354.391,74.3a13.612,13.612,0,0,1-5.427-1.6,13.612,13.612,0,0,1,5.427,1.6" transform="translate(49.166 10.236)" fill="#e0e0e0"/>
            <path id="Trazado_643670" data-name="Trazado 643670" d="M363.344,78.549a13.579,13.579,0,0,1-5.018-2.6,6.918,6.918,0,0,1,2.646,1.039c1.394.723,2.456,1.425,2.372,1.565" transform="translate(50.485 10.696)" fill="#e0e0e0"/>
            <path id="Trazado_643671" data-name="Trazado 643671" d="M371.233,84.552c-.114.121-1.123-.643-2.321-1.63s-2.14-1.833-2.043-1.969a6.238,6.238,0,0,1,2.421,1.511c1.215,1,2.055,1.971,1.943,2.089" transform="translate(51.688 11.403)" fill="#e0e0e0"/>
            <path id="Trazado_643672" data-name="Trazado 643672" d="M377.544,92.19c-.139.091-.941-.889-1.879-2.125a8.059,8.059,0,0,1-1.535-2.386c.122-.106,1.06.77,2.009,2.027a6.19,6.19,0,0,1,1.4,2.484" transform="translate(52.71 12.352)" fill="#e0e0e0"/>
            <path id="Trazado_643673" data-name="Trazado 643673" d="M381.957,101.065a8.038,8.038,0,0,1-1.353-2.493,8.032,8.032,0,0,1-.957-2.671,6.2,6.2,0,0,1,1.5,2.428,6.2,6.2,0,0,1,.811,2.736" transform="translate(53.486 13.511)" fill="#e0e0e0"/>
            <path id="Trazado_643674" data-name="Trazado 643674" d="M384.242,110.709a8.125,8.125,0,0,1-.744-2.737,8.1,8.1,0,0,1-.325-2.818,6.161,6.161,0,0,1,.909,2.706,6.157,6.157,0,0,1,.16,2.849" transform="translate(53.978 14.815)" fill="#e0e0e0"/>
            <path id="Trazado_643675" data-name="Trazado 643675" d="M384.153,120.617a8.253,8.253,0,0,1-.031-2.835,8.222,8.222,0,0,1,.374-2.81,6.079,6.079,0,0,1,.218,2.847,6.077,6.077,0,0,1-.561,2.8" transform="translate(54.109 16.199)" fill="#e0e0e0"/>
            <path id="Trazado_643676" data-name="Trazado 643676" d="M381.508,130.109a7.005,7.005,0,0,1,.763-2.729,7.481,7.481,0,0,1,1.135-2.6,6.554,6.554,0,0,1-.576,2.8,6.966,6.966,0,0,1-1.322,2.531" transform="translate(53.747 17.581)" fill="#e0e0e0"/>
            <path id="Trazado_643677" data-name="Trazado 643677" d="M376.11,138.287c-.123-.113.633-1.127,1.574-2.356s1.73-2.218,1.871-2.129a5.969,5.969,0,0,1-1.4,2.491c-.961,1.254-1.928,2.1-2.046,1.994" transform="translate(52.989 18.851)" fill="#e0e0e0"/>
            <path id="Trazado_643678" data-name="Trazado 643678" d="M368.365,144.246c-.076-.148.979-.841,2.267-1.7a8.785,8.785,0,0,1,2.453-1.416c.1.123-.8,1.04-2.125,1.912a5.764,5.764,0,0,1-2.594,1.2" transform="translate(51.899 19.883)" fill="#e0e0e0"/>
            <path id="Trazado_643679" data-name="Trazado 643679" d="M358.9,146.7a9.628,9.628,0,0,1,2.76-.61,9.414,9.414,0,0,1,2.807-.343,8.9,8.9,0,0,1-5.566.954" transform="translate(50.567 20.527)" fill="#e0e0e0"/>
            <path id="Trazado_643680" data-name="Trazado 643680" d="M349.331,144.457a9.854,9.854,0,0,1,2.688.874,10.128,10.128,0,0,1,2.607,1.09,5.387,5.387,0,0,1-2.815-.533,5.459,5.459,0,0,1-2.48-1.431" transform="translate(49.218 20.349)" fill="#e0e0e0"/>
            <path id="Trazado_643681" data-name="Trazado 643681" d="M341.918,137.99c.138-.095.955.865,1.994,2s1.911,2.051,1.8,2.18-1.175-.6-2.242-1.781a5.5,5.5,0,0,1-1.555-2.4" transform="translate(48.171 19.441)" fill="#e0e0e0"/>
            <path id="Trazado_643682" data-name="Trazado 643682" d="M338.638,128.772a11.422,11.422,0,0,1,.629,2.748,10.763,10.763,0,0,1,.485,2.779,5.229,5.229,0,0,1-1.067-2.661,5.1,5.1,0,0,1-.047-2.867" transform="translate(47.689 18.143)" fill="#e0e0e0"/>
            <path id="Trazado_643683" data-name="Trazado 643683" d="M341.9,119.5a10.914,10.914,0,0,1-1.226,2.538,11.079,11.079,0,0,1-1.359,2.47,5.139,5.139,0,0,1,.832-2.743c.73-1.419,1.63-2.364,1.754-2.266" transform="translate(47.801 16.835)" fill="#e0e0e0"/>
            <path id="Trazado_643684" data-name="Trazado 643684" d="M349.817,113.327c.073.152-1.007.808-2.317,1.623a9.452,9.452,0,0,1-2.473,1.372c-.1-.123.811-1.043,2.16-1.877a5.72,5.72,0,0,1,2.631-1.119" transform="translate(48.611 15.963)" fill="#e0e0e0"/>
            <path id="Trazado_643685" data-name="Trazado 643685" d="M359.365,110.466a8.323,8.323,0,0,1-2.72.8,8.437,8.437,0,0,1-2.8.42,10.236,10.236,0,0,1,5.523-1.221" transform="translate(49.854 15.551)" fill="#e0e0e0"/>
            <path id="Trazado_643686" data-name="Trazado 643686" d="M369.284,110.294a13.634,13.634,0,0,1-5.655-.2,13.636,13.636,0,0,1,5.655.2" transform="translate(51.233 15.481)" fill="#e0e0e0"/>
            <path id="Trazado_643687" data-name="Trazado 643687" d="M378.97,112.384a18.561,18.561,0,0,1-5.475-1.424,10.791,10.791,0,0,1,5.475,1.424" transform="translate(52.623 15.624)" fill="#e0e0e0"/>
            <path id="Trazado_643688" data-name="Trazado 643688" d="M387.89,116.686A19.422,19.422,0,0,1,382.915,114a6.1,6.1,0,0,1,2.671,1c1.387.746,2.391,1.548,2.3,1.684" transform="translate(53.95 16.058)" fill="#e0e0e0"/>
            <path id="Trazado_643689" data-name="Trazado 643689" d="M395.356,123.19c-.123.108-1.111-.693-2.206-1.788-1.067-1.126-1.978-2-1.863-2.14a5.62,5.62,0,0,1,2.276,1.714c1.115,1.115,1.917,2.106,1.793,2.214" transform="translate(55.128 16.801)" fill="#e0e0e0"/>
            <path id="Trazado_643690" data-name="Trazado 643690" d="M400.741,131.5c-.149.073-.817-1-1.6-2.34a8.278,8.278,0,0,1-1.245-2.545c.133-.092.969.883,1.758,2.246a6.09,6.09,0,0,1,1.083,2.639" transform="translate(56.059 17.838)" fill="#e0e0e0"/>
            <path id="Trazado_643691" data-name="Trazado 643691" d="M403.9,140.888a7.981,7.981,0,0,1-1-2.654,8.036,8.036,0,0,1-.58-2.777,10.827,10.827,0,0,1,1.578,5.431" transform="translate(56.678 19.085)" fill="#e0e0e0"/>
            <path id="Trazado_643692" data-name="Trazado 643692" d="M405.017,150.743a13.6,13.6,0,0,1-.434-5.642,13.6,13.6,0,0,1,.434,5.642" transform="translate(56.982 20.444)" fill="#e0e0e0"/>
            <path id="Trazado_643693" data-name="Trazado 643693" d="M404.377,160.635a13.647,13.647,0,0,1,.578-5.629,13.6,13.6,0,0,1-.578,5.629" transform="translate(56.956 21.839)" fill="#e0e0e0"/>
            <path id="Trazado_643694" data-name="Trazado 643694" d="M402.125,170.269a13.622,13.622,0,0,1,1.508-5.455,13.622,13.622,0,0,1-1.508,5.455" transform="translate(56.649 23.221)" fill="#e0e0e0"/>
            <path id="Trazado_643695" data-name="Trazado 643695" d="M398.31,179.377a7,7,0,0,1,.961-2.674c.678-1.4,1.265-2.521,1.43-2.454a6.4,6.4,0,0,1-.891,2.706,6.983,6.983,0,0,1-1.5,2.422" transform="translate(56.115 24.55)" fill="#e0e0e0"/>
            <path id="Trazado_643696" data-name="Trazado 643696" d="M393.266,187.87a7.038,7.038,0,0,1,1.261-2.55c.833-1.315,1.622-2.315,1.764-2.233a6.964,6.964,0,0,1-1.261,2.55c-.839,1.326-1.628,2.325-1.764,2.233" transform="translate(55.405 25.795)" fill="#e0e0e0"/>
            <path id="Trazado_643697" data-name="Trazado 643697" d="M387.316,195.764a7.008,7.008,0,0,1,1.519-2.4c.965-1.224,1.854-2.136,1.985-2.039s-.548,1.175-1.519,2.406-1.86,2.143-1.985,2.038" transform="translate(54.568 26.955)" fill="#e0e0e0"/>
            <path id="Trazado_643698" data-name="Trazado 643698" d="M380.711,203.127c-.119-.114.645-1.134,1.7-2.277s2.018-1.984,2.14-1.874-.64,1.128-1.7,2.277-2.023,1.989-2.14,1.874" transform="translate(53.638 28.033)" fill="#e0e0e0"/>
            <path id="Trazado_643699" data-name="Trazado 643699" d="M373.66,210.081c-.113-.12.706-1.1,1.83-2.18s2.127-1.869,2.242-1.752-.7,1.092-1.83,2.18-2.129,1.872-2.242,1.752" transform="translate(52.645 29.043)" fill="#e0e0e0"/>
            <path id="Trazado_643700" data-name="Trazado 643700" d="M366.343,216.762c-.11-.122.743-1.07,1.9-2.116s2.189-1.8,2.3-1.675-.74,1.068-1.9,2.116-2.191,1.8-2.3,1.675" transform="translate(51.614 30.004)" fill="#e0e0e0"/>
            <path id="Trazado_643701" data-name="Trazado 643701" d="M360.752,221.47c-.108-.123.284-.646.876-1.166s1.16-.844,1.269-.721-.284.646-.876,1.167-1.16.843-1.269.72" transform="translate(50.825 30.934)" fill="#e0e0e0"/>
            <path id="Trazado_643702" data-name="Trazado 643702" d="M72.456,200.325c.139-.087.6.38,1.02,1.04s.656,1.271.519,1.361-.593-.375-1.02-1.04-.658-1.274-.519-1.361" transform="translate(10.203 28.223)" fill="#e0e0e0"/>
            <path id="Trazado_643703" data-name="Trazado 643703" d="M67.58,191.571a7.179,7.179,0,0,1,1.592,2.392,7.187,7.187,0,0,1,1.066,2.67c-.144.08-.856-.99-1.592-2.394a7.1,7.1,0,0,1-1.066-2.669" transform="translate(9.518 26.991)" fill="#e0e0e0"/>
            <path id="Trazado_643704" data-name="Trazado 643704" d="M63.594,182.38a13.922,13.922,0,0,1,2.145,5.3,13.923,13.923,0,0,1-2.145-5.3" transform="translate(8.955 25.696)" fill="#e0e0e0"/>
            <path id="Trazado_643705" data-name="Trazado 643705" d="M60.541,172.838a13.891,13.891,0,0,1,1.606,5.487,13.905,13.905,0,0,1-1.606-5.487" transform="translate(8.523 24.352)" fill="#e0e0e0"/>
            <path id="Trazado_643706" data-name="Trazado 643706" d="M58.474,163.036a13.882,13.882,0,0,1,1.037,5.622,13.882,13.882,0,0,1-1.037-5.622" transform="translate(8.228 22.971)" fill="#e0e0e0"/>
            <path id="Trazado_643707" data-name="Trazado 643707" d="M57.453,153.071a13.9,13.9,0,0,1,.435,5.7,13.9,13.9,0,0,1-.435-5.7" transform="translate(8.073 21.567)" fill="#e0e0e0"/>
            <path id="Trazado_643708" data-name="Trazado 643708" d="M57.554,143.049a13.862,13.862,0,0,1-.2,5.714,13.914,13.914,0,0,1,.2-5.714" transform="translate(8.051 20.155)" fill="#e0e0e0"/>
            <path id="Trazado_643709" data-name="Trazado 643709" d="M58.842,133.108a7.2,7.2,0,0,1-.138,2.87,7.163,7.163,0,0,1-.726,2.78,7.08,7.08,0,0,1,.138-2.87,7.094,7.094,0,0,1,.726-2.78" transform="translate(8.156 18.754)" fill="#e0e0e0"/>
            <path id="Trazado_643710" data-name="Trazado 643710" d="M61.339,123.386a7.177,7.177,0,0,1-.489,2.832,7.158,7.158,0,0,1-1.061,2.672,7.132,7.132,0,0,1,.489-2.833,7.1,7.1,0,0,1,1.061-2.671" transform="translate(8.416 17.384)" fill="#e0e0e0"/>
            <path id="Trazado_643711" data-name="Trazado 643711" d="M65,114.029a7.232,7.232,0,0,1-.829,2.753,7.2,7.2,0,0,1-1.377,2.524,7.113,7.113,0,0,1,.829-2.753A7.05,7.05,0,0,1,65,114.029" transform="translate(8.843 16.065)" fill="#e0e0e0"/>
            <path id="Trazado_643712" data-name="Trazado 643712" d="M69.759,105.172a7.187,7.187,0,0,1-1.153,2.632,7.2,7.2,0,0,1-1.669,2.34,7.085,7.085,0,0,1,1.152-2.633c.783-1.377,1.531-2.424,1.67-2.339" transform="translate(9.427 14.817)" fill="#e0e0e0"/>
            <path id="Trazado_643713" data-name="Trazado 643713" d="M75.541,96.951a7.168,7.168,0,0,1-1.462,2.471c-.936,1.263-1.8,2.211-1.938,2.119A7.042,7.042,0,0,1,73.6,99.068c.942-1.272,1.811-2.22,1.938-2.118" transform="translate(10.162 13.659)" fill="#e0e0e0"/>
            <path id="Trazado_643714" data-name="Trazado 643714" d="M82.291,89.49c.114.118-.672,1.135-1.758,2.274s-2.065,1.971-2.187,1.863S79.01,92.5,80.1,91.353s2.073-1.981,2.187-1.863" transform="translate(11.037 12.607)" fill="#e0e0e0"/>
            <path id="Trazado_643715" data-name="Trazado 643715" d="M89.929,82.939c.1.131-.812,1.04-2.034,2.03a7.2,7.2,0,0,1-2.41,1.568c-.107-.123.8-1.033,2.035-2.03s2.31-1.7,2.408-1.568" transform="translate(12.043 11.683)" fill="#e0e0e0"/>
            <path id="Trazado_643716" data-name="Trazado 643716" d="M98.352,77.448c.08.144-.944.922-2.285,1.739a7.17,7.17,0,0,1-2.593,1.231c-.091-.136.932-.915,2.285-1.739a7.052,7.052,0,0,1,2.593-1.231" transform="translate(13.169 10.909)" fill="#e0e0e0"/>
            <path id="Trazado_643717" data-name="Trazado 643717" d="M107.449,73.164a7.209,7.209,0,0,1-2.508,1.4,7.191,7.191,0,0,1-2.743.859,7.083,7.083,0,0,1,2.508-1.4,7.085,7.085,0,0,1,2.743-.858" transform="translate(14.399 10.304)" fill="#e0e0e0"/>
            <path id="Trazado_643718" data-name="Trazado 643718" d="M117.039,70.171a7.175,7.175,0,0,1-2.675,1.048,7.2,7.2,0,0,1-2.834.476,7.093,7.093,0,0,1,2.675-1.048,7.1,7.1,0,0,1,2.834-.476" transform="translate(15.713 9.879)" fill="#e0e0e0"/>
            <path id="Trazado_643719" data-name="Trazado 643719" d="M126.923,68.478a7.184,7.184,0,0,1-2.787.686,7.158,7.158,0,0,1-2.87.1,7.107,7.107,0,0,1,2.788-.686,7.078,7.078,0,0,1,2.869-.1" transform="translate(17.085 9.634)" fill="#e0e0e0"/>
            <path id="Trazado_643720" data-name="Trazado 643720" d="M136.937,68.1a7.191,7.191,0,0,1-2.856.317,7.184,7.184,0,0,1-2.861-.278,7.1,7.1,0,0,1,2.857-.316,7.07,7.07,0,0,1,2.86.277" transform="translate(18.488 9.556)" fill="#e0e0e0"/>
            <path id="Trazado_643721" data-name="Trazado 643721" d="M146.9,69.092a13.888,13.888,0,0,1-5.67-.715,13.881,13.881,0,0,1,5.67.715" transform="translate(19.899 9.619)" fill="#e0e0e0"/>
            <path id="Trazado_643722" data-name="Trazado 643722" d="M156.639,71.441a13.909,13.909,0,0,1-5.522-1.482,13.9,13.9,0,0,1,5.522,1.482" transform="translate(21.291 9.849)" fill="#e0e0e0"/>
            <path id="Trazado_643723" data-name="Trazado 643723" d="M165.945,75.149a13.882,13.882,0,0,1-5.253-2.256,13.882,13.882,0,0,1,5.253,2.256" transform="translate(22.64 10.265)" fill="#e0e0e0"/>
            <path id="Trazado_643724" data-name="Trazado 643724" d="M174.6,80.193a7.2,7.2,0,0,1-2.584-1.255,7.637,7.637,0,0,1-2.277-1.752c.088-.156,1.241.412,2.59,1.247s2.364,1.625,2.272,1.76" transform="translate(23.915 10.871)" fill="#e0e0e0"/>
            <path id="Trazado_643725" data-name="Trazado 643725" d="M182.482,86.381a7.193,7.193,0,0,1-2.395-1.589c-1.213-1-2.116-1.917-2.016-2.047s1.171.581,2.394,1.588,2.127,1.925,2.017,2.048" transform="translate(25.088 11.656)" fill="#e0e0e0"/>
            <path id="Trazado_643726" data-name="Trazado 643726" d="M189.54,93.493c-.122.11-1.1-.726-2.186-1.864s-1.872-2.159-1.757-2.275,1.094.718,2.187,1.864,1.878,2.165,1.756,2.275" transform="translate(26.148 12.588)" fill="#e0e0e0"/>
            <path id="Trazado_643727" data-name="Trazado 643727" d="M195.8,101.318c-.132.1-1.02-.836-1.981-2.082a7.177,7.177,0,0,1-1.511-2.445c.127-.1,1.014.828,1.981,2.082a7.093,7.093,0,0,1,1.511,2.445" transform="translate(27.093 13.636)" fill="#e0e0e0"/>
            <path id="Trazado_643728" data-name="Trazado 643728" d="M201.316,109.684c-.14.084-.941-.923-1.788-2.25a7.15,7.15,0,0,1-1.286-2.57c.136-.091.936.916,1.787,2.251a7.106,7.106,0,0,1,1.287,2.569" transform="translate(27.928 14.774)" fill="#e0e0e0"/>
            <path id="Trazado_643729" data-name="Trazado 643729" d="M206.16,118.456a7.154,7.154,0,0,1-1.612-2.38,7.157,7.157,0,0,1-1.087-2.661c.143-.08.865.985,1.611,2.38a7.167,7.167,0,0,1,1.088,2.661" transform="translate(28.663 15.979)" fill="#e0e0e0"/>
            <path id="Trazado_643730" data-name="Trazado 643730" d="M209.247,124.93c-.149.067-.538-.456-.868-1.169s-.478-1.349-.33-1.419.537.453.868,1.169.479,1.352.33,1.419" transform="translate(29.304 17.236)" fill="#e0e0e0"/>
            <path id="Trazado_643731" data-name="Trazado 643731" d="M86.518,245.786c-.073-.147.453-.532,1.176-.859s1.36-.47,1.422-.317-.464.536-1.176.858-1.349.464-1.422.318" transform="translate(12.189 34.455)" fill="#e0e0e0"/>
            <path id="Trazado_643732" data-name="Trazado 643732" d="M78.367,251.454c-.107-.122.756-1.053,2-1.991a6,6,0,0,1,2.459-1.382c.091.14-.878.929-2.1,1.855s-2.246,1.643-2.356,1.517" transform="translate(11.04 34.95)" fill="#e0e0e0"/>
            <path id="Trazado_643733" data-name="Trazado 643733" d="M71.717,258.743c-.135-.1.561-1.145,1.552-2.343s1.892-2.078,2.01-1.966a6.906,6.906,0,0,1-1.553,2.345c-.977,1.181-1.877,2.06-2.009,1.965" transform="translate(10.102 35.847)" fill="#e0e0e0"/>
            <path id="Trazado_643734" data-name="Trazado 643734" d="M66.765,267.266a6.785,6.785,0,0,1,1.022-2.618c.715-1.379,1.41-2.429,1.55-2.345a6.893,6.893,0,0,1-1.022,2.618,6.938,6.938,0,0,1-1.55,2.345" transform="translate(9.403 36.956)" fill="#e0e0e0"/>
            <path id="Trazado_643735" data-name="Trazado 643735" d="M63.645,276.594a13.289,13.289,0,0,1,1.511-5.384,13.337,13.337,0,0,1-1.511,5.384" transform="translate(8.959 38.211)" fill="#e0e0e0"/>
            <path id="Trazado_643736" data-name="Trazado 643736" d="M62.513,286.34a13.3,13.3,0,0,1,.358-5.581,13.3,13.3,0,0,1-.358,5.581" transform="translate(8.784 39.557)" fill="#e0e0e0"/>
            <path id="Trazado_643737" data-name="Trazado 643737" d="M63.631,296.06a10.5,10.5,0,0,1-.9-5.518,18.28,18.28,0,0,1,.9,5.518" transform="translate(8.822 40.935)" fill="#e0e0e0"/>
            <path id="Trazado_643738" data-name="Trazado 643738" d="M67.061,305.233a10.5,10.5,0,0,1-2.185-5.144,7.873,7.873,0,0,1,1.291,2.487,7.88,7.88,0,0,1,.893,2.657" transform="translate(9.135 42.28)" fill="#e0e0e0"/>
            <path id="Trazado_643739" data-name="Trazado 643739" d="M72.475,313.394c-.127.1-.967-.833-1.877-2.094a6.758,6.758,0,0,1-1.394-2.44c.138-.088.979.849,1.877,2.094a6.929,6.929,0,0,1,1.394,2.44" transform="translate(9.748 43.515)" fill="#e0e0e0"/>
            <path id="Trazado_643740" data-name="Trazado 643740" d="M79.465,320.26c-.1.128-1.117-.618-2.264-1.667s-1.982-1.991-1.863-2.106,1.131.632,2.264,1.668,1.967,1.977,1.863,2.1" transform="translate(10.613 44.589)" fill="#e0e0e0"/>
            <path id="Trazado_643741" data-name="Trazado 643741" d="M87.65,325.648a6.757,6.757,0,0,1-2.542-1.2c-1.326-.809-2.325-1.576-2.232-1.71a6.93,6.93,0,0,1,2.542,1.2c1.31.8,2.309,1.565,2.232,1.71" transform="translate(11.676 45.468)" fill="#e0e0e0"/>
            <path id="Trazado_643742" data-name="Trazado 643742" d="M96.7,329.405a6.765,6.765,0,0,1-2.721-.705,6.751,6.751,0,0,1-2.513-1.261,6.909,6.909,0,0,1,2.722.705,6.919,6.919,0,0,1,2.512,1.261" transform="translate(12.886 46.129)" fill="#e0e0e0"/>
            <path id="Trazado_643743" data-name="Trazado 643743" d="M106.3,331.359a6.756,6.756,0,0,1-2.805-.164,6.76,6.76,0,0,1-2.708-.751,6.916,6.916,0,0,1,2.805.164,6.913,6.913,0,0,1,2.708.751" transform="translate(14.2 46.545)" fill="#e0e0e0"/>
            <path id="Trazado_643744" data-name="Trazado 643744" d="M116.1,331.349a6.752,6.752,0,0,1-2.778.42,6.758,6.758,0,0,1-2.805-.173,6.909,6.909,0,0,1,2.779-.42,6.924,6.924,0,0,1,2.8.173" transform="translate(15.57 46.657)" fill="#e0e0e0"/>
            <path id="Trazado_643745" data-name="Trazado 643745" d="M125.662,329.353a6.749,6.749,0,0,1-2.63.993,6.772,6.772,0,0,1-2.78.419,6.923,6.923,0,0,1,2.63-.994,6.915,6.915,0,0,1,2.78-.418" transform="translate(16.943 46.396)" fill="#e0e0e0"/>
            <path id="Trazado_643746" data-name="Trazado 643746" d="M134.624,325.514c.08.144-.989.809-2.388,1.484a6.755,6.755,0,0,1-2.646.949,13.305,13.305,0,0,1,5.034-2.434" transform="translate(18.258 45.859)" fill="#e0e0e0"/>
            <path id="Trazado_643747" data-name="Trazado 643747" d="M142.71,320.084c.1.128-.827.974-2.08,1.893a6.783,6.783,0,0,1-2.43,1.412c-.09-.137.841-.985,2.08-1.892a6.907,6.907,0,0,1,2.43-1.414" transform="translate(19.471 45.095)" fill="#e0e0e0"/>
            <path id="Trazado_643748" data-name="Trazado 643748" d="M149.706,313.317c.124.107-.647,1.1-1.722,2.224s-2.038,1.932-2.149,1.812.657-1.115,1.72-2.224,2.026-1.919,2.151-1.812" transform="translate(20.546 44.143)" fill="#e0e0e0"/>
            <path id="Trazado_643749" data-name="Trazado 643749" d="M155.43,305.429a6.805,6.805,0,0,1-1.314,2.487c-.868,1.29-1.677,2.256-1.808,2.157a6.921,6.921,0,0,1,1.314-2.488c.858-1.276,1.668-2.241,1.808-2.156" transform="translate(21.456 43.032)" fill="#e0e0e0"/>
            <path id="Trazado_643750" data-name="Trazado 643750" d="M159.662,296.647a13.3,13.3,0,0,1-2.249,5.119,13.3,13.3,0,0,1,2.249-5.119" transform="translate(22.174 41.795)" fill="#e0e0e0"/>
            <path id="Trazado_643751" data-name="Trazado 643751" d="M161.637,289.584c.16.035.132.688-.063,1.456s-.481,1.354-.64,1.309-.129-.7.064-1.456.479-1.344.639-1.309" transform="translate(22.66 40.8)" fill="#e0e0e0"/>
            <path id="Trazado_643752" data-name="Trazado 643752" d="M281.574,42.572l-51.012,13.7a3.708,3.708,0,0,1-4.544-2.621l-9.475-35.28a3.709,3.709,0,0,1,2.621-4.544L270.175.128a3.709,3.709,0,0,1,4.544,2.619l9.475,35.281a3.71,3.71,0,0,1-2.621,4.544" transform="translate(30.491 0)" fill="#f5f5f5"/>
            <path id="Trazado_643753" data-name="Trazado 643753" d="M272.1,4.06a3.1,3.1,0,0,1-.371.591c-.3.423-.685.962-1.157,1.625-1.072,1.458-2.544,3.461-4.343,5.91l-6.5,8.719c-1.23,1.638-2.519,3.357-3.856,5.136q-1,1.335-2.043,2.714a5.71,5.71,0,0,1-6.616,1.87q-1.593-.676-3.136-1.334l-5.9-2.535-9.979-4.326-6.708-2.963-1.812-.834a3.036,3.036,0,0,1-.616-.327,3.152,3.152,0,0,1,.663.218l1.856.73,6.781,2.791,10.03,4.208,5.916,2.5,3.121,1.318a5.13,5.13,0,0,0,5.931-1.677q1.04-1.374,2.05-2.707c1.346-1.772,2.645-3.483,3.884-5.115l6.6-8.642,4.494-5.8,1.246-1.557a3.074,3.074,0,0,1,.467-.519" transform="translate(30.864 0.572)" fill="#e0e0e0"/>
            <path id="Trazado_643754" data-name="Trazado 643754" d="M241.1,25.247c.14.086-2.713,5.019-6.371,11.018s-6.739,10.794-6.878,10.708,2.712-5.018,6.371-11.018,6.738-10.794,6.878-10.708" transform="translate(32.101 3.557)" fill="#e0e0e0"/>
            <path id="Trazado_643755" data-name="Trazado 643755" d="M252.079,21.859c.086-.14,5.019,2.713,11.018,6.371s10.794,6.739,10.708,6.878-5.018-2.712-11.019-6.371S251.994,22,252.079,21.859" transform="translate(35.516 3.079)" fill="#e0e0e0"/>
            <path id="Trazado_643756" data-name="Trazado 643756" d="M428.063,132.46h0a28.212,28.212,0,1,1,28.212-28.212,28.212,28.212,0,0,1-28.212,28.212" transform="translate(56.336 10.713)" fill="#b6e1fd"/>
            <path id="Trazado_643757" data-name="Trazado 643757" d="M421.252,119.923h6.867v-17.2h4.792l.511-5.758h-5.3v-3.28c0-1.358.273-1.894,1.586-1.894h3.717V85.817h-4.755c-5.11,0-7.415,2.251-7.415,6.559v4.591H417.68v5.83h3.572Z" transform="translate(58.848 12.091)" fill="#fff"/>
            <path id="Trazado_643758" data-name="Trazado 643758" d="M117.609,391.813a6.286,6.286,0,1,1-7.533-4.722,6.286,6.286,0,0,1,7.533,4.722" transform="translate(14.821 54.516)" fill="#ebebeb"/>
            <path id="Trazado_643759" data-name="Trazado 643759" d="M90.074,403.179l47.118-10.824-4.1-2.988a13.047,13.047,0,0,1-5.037-7.626l-2.934-12.778a17.616,17.616,0,0,0-34.339,7.888L93.6,389.143a13.052,13.052,0,0,1-.909,8.473Z" transform="translate(12.691 50.057)" fill="#ebebeb"/>
            <path id="Trazado_643760" data-name="Trazado 643760" d="M103.522,360.7l-.6.138a2.065,2.065,0,0,1-2.473-1.549l-1.333-5.8a2.064,2.064,0,0,1,1.549-2.473l.6-.138a2.063,2.063,0,0,1,2.473,1.549l1.333,5.8a2.063,2.063,0,0,1-1.549,2.473" transform="translate(13.957 49.429)" fill="#ebebeb"/>
            <path id="Trazado_643761" data-name="Trazado 643761" d="M137.18,387.869c.023.1-10.437,2.58-23.359,5.544S90.4,398.7,90.379,398.6s10.435-2.58,23.361-5.545,23.417-5.287,23.44-5.19" transform="translate(12.734 54.648)" fill="#e0e0e0"/>
            <path id="Trazado_643762" data-name="Trazado 643762" d="M105.377,394.185a10.5,10.5,0,0,0,6.414.756,10.081,10.081,0,0,0,5.836-3.566Z" transform="translate(14.847 55.142)" fill="#e0e0e0"/>
            <path id="Trazado_643763" data-name="Trazado 643763" d="M120.528,366.039a3.556,3.556,0,0,0-.705-1.506,1.231,1.231,0,0,0-1.514-.293,1.32,1.32,0,0,0-.743,1.5c.459,2.021,1.46,6.489,1.958,9.168.41,2.207.633,4.609-.389,6.608a7.508,7.508,0,0,1-3.885,3.3,28.04,28.04,0,0,1-5.019,1.342,26.713,26.713,0,0,0-6.254,1.991,3.244,3.244,0,0,0-1.376,1.061,1.281,1.281,0,0,0,.11,1.611,1.929,1.929,0,0,0,1.545.227,80.515,80.515,0,0,0,16.194-3.479,5.569,5.569,0,0,0,2.864-1.815,5.663,5.663,0,0,0,.556-3.789,90.508,90.508,0,0,0-3.341-15.922" transform="translate(14.423 51.297)" fill="#e0e0e0"/>
            <g id="Grupo_883849" data-name="Grupo 883849" transform="translate(112.231 409.851)" opacity="0.2">
              <g id="Grupo_883848" data-name="Grupo 883848">
                <g id="Grupo_883847" data-name="Grupo 883847" clip-path="url(#clip-path-3)">
                  <path id="Trazado_643764" data-name="Trazado 643764" d="M98.371,359.286l.039-.017.056-.032Z" transform="translate(-98.371 -359.237)" fill="#fff"/>
                </g>
              </g>
            </g>
            <path id="Trazado_643765" data-name="Trazado 643765" d="M113.972,356.553c-.026.07-1.064-.376-2.831-.732a18.86,18.86,0,0,0-3.135-.347,19.206,19.206,0,0,0-7.558,1.352,18.7,18.7,0,0,0-2.823,1.409c-1.536.944-2.357,1.718-2.405,1.662a3.244,3.244,0,0,1,.556-.564,6.829,6.829,0,0,1,.711-.6,11.4,11.4,0,0,1,1-.718,17.1,17.1,0,0,1,2.834-1.5,18.267,18.267,0,0,1,7.694-1.376,16.976,16.976,0,0,1,3.179.431,10.963,10.963,0,0,1,1.188.329,6.578,6.578,0,0,1,.874.316,3.333,3.333,0,0,1,.715.338" transform="translate(13.416 50.035)" fill="#e0e0e0"/>
            <path id="Trazado_643766" data-name="Trazado 643766" d="M93.326,392.413c-.1-.041.5-1.516.724-3.443.24-1.925,0-3.5.108-3.517a9.459,9.459,0,0,1-.833,6.961" transform="translate(13.147 54.307)" fill="#fff"/>
            <path id="Trazado_643767" data-name="Trazado 643767" d="M113.086,396.816c.021.038-.316.273-.948.453a4.815,4.815,0,0,1-4.731-1.293c-.453-.476-.623-.849-.586-.872s.287.281.762.686a5.347,5.347,0,0,0,4.5,1.229,7.11,7.11,0,0,1,1.005-.2" transform="translate(15.05 55.667)" fill="#fff"/>
            <path id="Trazado_643768" data-name="Trazado 643768" d="M100.334,351.591a4.809,4.809,0,0,0-.227,3.458,2.533,2.533,0,0,1,.227-3.458" transform="translate(14.023 49.536)" fill="#fff"/>
            <path id="Trazado_643769" data-name="Trazado 643769" d="M17.066,123.785A16.836,16.836,0,0,1,21.179,122l.848-4.072,6.878-.12.989,4.038a16.864,16.864,0,0,1,4.175,1.643l3.476-2.28,4.949,4.779-2.155,3.554a16.88,16.88,0,0,1,1.788,4.113l4.071.848.121,6.878-4.039.99a16.89,16.89,0,0,1-1.642,4.172l2.278,3.477-4.778,4.949-3.554-2.155A16.822,16.822,0,0,1,30.47,154.6l-.848,4.072-6.877.121-.99-4.039a16.84,16.84,0,0,1-4.173-1.643l-3.476,2.279-4.949-4.779,2.155-3.553a16.844,16.844,0,0,1-1.788-4.114L5.453,142.1l-.121-6.877,4.039-.99a16.836,16.836,0,0,1,1.642-4.173l-2.278-3.476,4.778-4.949Zm3.667,9.163a7.38,7.38,0,1,0,10.435-.184,7.38,7.38,0,0,0-10.435.184" transform="translate(0.751 16.598)" fill="#ebebeb"/>
            <path id="Trazado_643770" data-name="Trazado 643770" d="M424.628,268.229a16.353,16.353,0,0,1,3.993-1.735l.823-3.952,6.678-.118.961,3.92a16.354,16.354,0,0,1,4.051,1.6l3.376-2.212,4.8,4.639-2.092,3.45a16.35,16.35,0,0,1,1.735,3.993l3.952.823.117,6.678-3.92.962a16.391,16.391,0,0,1-1.595,4.051l2.212,3.375-4.639,4.8-3.45-2.091a16.393,16.393,0,0,1-3.993,1.734l-.823,3.953-6.678.116-.961-3.92a16.354,16.354,0,0,1-4.051-1.6l-3.375,2.213-4.805-4.64,2.092-3.449a16.364,16.364,0,0,1-1.736-3.994l-3.951-.823-.117-6.678,3.92-.961a16.356,16.356,0,0,1,1.595-4.051l-2.212-3.375,4.638-4.805Zm3.56,8.9a7.165,7.165,0,1,0,10.13-.178,7.165,7.165,0,0,0-10.13.178" transform="translate(58.222 36.974)" fill="#ebebeb"/>
          </g>
        </g>
        <g id="Grupo_883853" data-name="Grupo 883853">
          <g id="Grupo_883852" data-name="Grupo 883852" clip-path="url(#clip-path)">
            <path id="Trazado_643771" data-name="Trazado 643771" d="M509.477,417.274c0,.164-112.636.3-251.546.3-138.96,0-251.571-.132-251.571-.3s112.612-.3,251.571-.3c138.911,0,251.546.132,251.546.3" transform="translate(0.896 58.749)" fill="#263238"/>
          </g>
        </g>
        <g id="Grupo_883855" data-name="Grupo 883855">
          <g id="Grupo_883854" data-name="Grupo 883854" clip-path="url(#clip-path)">
            <path id="Trazado_643772" data-name="Trazado 643772" d="M310.083,107.055,118.766,124.309c-25.5,2.3-44.175,26.263-41.717,53.525l10.082,111.8c2.459,27.262,25.121,47.5,50.619,45.2l74.262-6.7a6.769,6.769,0,0,1,5.914,2.641l21,26.735a6.634,6.634,0,0,0,11.261-1.015l15.88-30.06a6.762,6.762,0,0,1,5.346-3.657l57.654-5.2c25.5-2.3,44.175-26.263,41.717-53.525L360.7,152.254c-2.459-27.263-25.122-47.5-50.62-45.2" transform="translate(10.825 15.058)" fill="#fff"/>
            <path id="Trazado_643773" data-name="Trazado 643773" d="M310.115,107.058s.825-.05,2.438-.119l1.358-.056a10.226,10.226,0,0,1,1.647.009c1.193.09,2.583.155,4.151.3l2.465.437a20.457,20.457,0,0,1,2.719.575l2.937.847c1.03.27,2.027.777,3.107,1.181a46.829,46.829,0,0,1,13.408,8.447A49.68,49.68,0,0,1,356.1,134.645q.56,1.248,1.131,2.524c.4.842.631,1.763.959,2.655.3.9.633,1.806.906,2.736q.337,1.417.679,2.861a88.572,88.572,0,0,1,1.613,12.2c1.538,16.921,3.29,36.187,5.228,57.483q1.45,15.974,3.035,33.43.4,4.359.8,8.805.2,2.223.405,4.468l.2,2.25.1,2.278a52.228,52.228,0,0,1-2.35,18.359,49.8,49.8,0,0,1-9.162,16.81A46.367,46.367,0,0,1,344.1,313.677a44.515,44.515,0,0,1-9.6,3.311,20.21,20.21,0,0,1-2.527.441l-2.55.37c-1.7.187-3.412.318-5.127.48l-20.852,1.887L282.074,322.1l-10.864.991a6.421,6.421,0,0,0-4.368,2.682,25.942,25.942,0,0,0-1.328,2.379l-1.295,2.451-10.472,19.833-2.651,5.02a13.219,13.219,0,0,1-1.5,2.48,7.2,7.2,0,0,1-2.313,1.838,6.9,6.9,0,0,1-5.793.087,7.075,7.075,0,0,1-2.391-1.763c-.669-.745-1.207-1.507-1.819-2.26q-7.128-9.074-14.38-18.3l-3.633-4.623c-.606-.761-1.214-1.568-1.821-2.294a6.835,6.835,0,0,0-2.262-1.665,6.355,6.355,0,0,0-2.75-.545c-.95.062-1.959.17-2.937.253l-5.924.534-48.127,4.342-12.154,1.1a74.684,74.684,0,0,1-12.141.53c-1.01-.083-2.025-.121-3.029-.243l-2.987-.539c-.5-.1-1-.164-1.488-.284l-1.454-.422-2.9-.853-2.8-1.135-1.4-.569-1.331-.7-2.659-1.4-2.505-1.652a49.132,49.132,0,0,1-15.7-17.569c-.235-.431-.5-.85-.71-1.293l-.6-1.345-1.2-2.687c-.358-.91-.639-1.851-.962-2.772a28.184,28.184,0,0,1-.875-2.794,66.4,66.4,0,0,1-1.885-11.471c-2.758-30.651-5.418-60.217-7.953-88.383q-.95-10.561-1.874-20.856a52.686,52.686,0,0,1,1.984-20.263c3.874-12.908,12.926-23.756,24.283-29.355l2.121-1.05,2.206-.825c.735-.268,1.461-.561,2.2-.808l2.261-.581c.753-.188,1.5-.4,2.253-.567l2.291-.331,2.28-.329,2.27-.206q9.065-.813,17.787-1.595l33.434-3,100.9-9.005,27.435-2.418,7.135-.615c1.609-.135,2.434-.188,2.434-.188s-.821.095-2.428.25l-7.131.672-27.424,2.529L172.252,119.7l-33.43,3.035-17.784,1.612-2.27.209-2.254.329-2.265.329c-.745.17-1.484.376-2.228.564l-2.236.575c-.731.244-1.449.535-2.176.8l-2.181.818-2.1,1.039c-11.224,5.546-20.176,16.286-24,29.067a52.159,52.159,0,0,0-1.952,20.064q.933,10.29,1.887,20.854l7.987,88.379a65.714,65.714,0,0,0,1.87,11.369,27.563,27.563,0,0,0,.866,2.763c.319.912.6,1.84.951,2.742l1.185,2.656.593,1.33c.211.437.47.85.7,1.277a48.561,48.561,0,0,0,15.514,17.358l2.473,1.63,2.625,1.387,1.314.695,1.378.56,2.76,1.122,2.862.841,1.434.418c.484.117.979.185,1.468.28l2.946.531c.99.121,1.992.157,2.988.24a74.138,74.138,0,0,0,12.051-.529l12.154-1.1,48.129-4.339,5.922-.534c.994-.083,1.952-.188,2.972-.254a6.93,6.93,0,0,1,3.007.6,7.432,7.432,0,0,1,2.462,1.811c.655.784,1.228,1.549,1.845,2.324l3.631,4.623q7.248,9.229,14.376,18.3c.6.74,1.175,1.548,1.79,2.23a6.509,6.509,0,0,0,2.2,1.624,6.332,6.332,0,0,0,5.3-.078,6.615,6.615,0,0,0,2.121-1.687,12.7,12.7,0,0,0,1.44-2.38l2.653-5.02,10.48-19.83,1.295-2.449a26.663,26.663,0,0,1,1.368-2.443,6.993,6.993,0,0,1,4.755-2.912l10.888-.989,21.378-1.922,20.853-1.874c1.712-.162,3.427-.292,5.124-.478l2.519-.364a19.51,19.51,0,0,0,2.5-.434,44.04,44.04,0,0,0,9.484-3.265,45.875,45.875,0,0,0,15.37-12.031,49.322,49.322,0,0,0,9.085-16.634,51.76,51.76,0,0,0,2.343-18.188l-.095-2.257-.2-2.25q-.2-2.245-.4-4.469-.4-4.446-.789-8.807-1.563-17.439-3-33.433l-5.14-57.492a88.606,88.606,0,0,0-1.582-12.158q-.339-1.438-.669-2.847c-.269-.925-.6-1.823-.9-2.722-.325-.888-.55-1.8-.948-2.641q-.566-1.272-1.118-2.513a49.5,49.5,0,0,0-11.653-15.909,46.757,46.757,0,0,0-13.321-8.456c-1.074-.406-2.064-.916-3.09-1.19l-2.922-.857a20.576,20.576,0,0,0-2.706-.588l-2.457-.45c-1.562-.159-2.947-.234-4.137-.333a10.3,10.3,0,0,0-1.645-.024l-1.355.041c-1.612.049-2.44.058-2.44.058" transform="translate(10.793 15.055)" fill="#263238"/>
          </g>
        </g>
        <g id="Grupo_883863" data-name="Grupo 883863">
          <g id="Grupo_883862" data-name="Grupo 883862" clip-path="url(#clip-path)">
            <path id="Trazado_643774" data-name="Trazado 643774" d="M378.587,71.818a39.085,39.085,0,1,1-38.1-40.049,39.086,39.086,0,0,1,38.1,40.049" transform="translate(42.328 4.474)" fill="#2b95f9"/>
            <g id="Grupo_883858" data-name="Grupo 883858" transform="translate(342.756 37.231)" opacity="0.3">
              <g id="Grupo_883857" data-name="Grupo 883857" transform="translate(0 -1)">
                <g id="Grupo_883856" data-name="Grupo 883856" clip-path="url(#clip-path-7)">
                  <path id="Trazado_643775" data-name="Trazado 643775" d="M378.587,71.818a39.085,39.085,0,1,1-38.1-40.049,39.086,39.086,0,0,1,38.1,40.049" transform="translate(-300.428 -31.756)"/>
                </g>
              </g>
            </g>
            <path id="Trazado_643776" data-name="Trazado 643776" d="M378.682,68.035a39.085,39.085,0,1,1-38.1-40.05,39.085,39.085,0,0,1,38.1,40.05" transform="translate(42.342 3.941)" fill="#2b95f9"/>
            <path id="Trazado_643777" data-name="Trazado 643777" d="M364.187,66.12a26.18,26.18,0,1,1-25.518-26.826A26.182,26.182,0,0,1,364.187,66.12" transform="translate(43.935 5.535)" fill="#fff"/>
            <path id="Trazado_643778" data-name="Trazado 643778" d="M349.172,64.135a12.812,12.812,0,1,1-12.488-13.128,12.811,12.811,0,0,1,12.488,13.128" transform="translate(45.586 7.186)" fill="#2b95f9"/>
            <path id="Trazado_643779" data-name="Trazado 643779" d="M359.384,39.884l-.853-8.363,8.712-8.869.386,9.011Z" transform="translate(50.514 3.192)" fill="#455a64"/>
            <path id="Trazado_643780" data-name="Trazado 643780" d="M377.539,32.454l-8.591-.916-8.836,8.086,8.608,1.139Z" transform="translate(50.737 4.443)" fill="#455a64"/>
            <g id="Grupo_883861" data-name="Grupo 883861" transform="translate(383.666 44.138)" opacity="0.3">
              <g id="Grupo_883860" data-name="Grupo 883860">
                <g id="Grupo_883859" data-name="Grupo 883859" clip-path="url(#clip-path-8)">
                  <path id="Trazado_643781" data-name="Trazado 643781" d="M336.286,65.406l30.446-22.063a36.194,36.194,0,0,0-3.625-4.656L336.336,63.374Z" transform="translate(-336.286 -38.687)"/>
                </g>
              </g>
            </g>
            <path id="Trazado_643782" data-name="Trazado 643782" d="M371.442,29.508,358.974,41.371,339.2,60.19l-4.548,4.326a1.545,1.545,0,0,0,2.143,2.224l12.468-11.863,19.78-18.82q2.273-2.161,4.546-4.325a1.545,1.545,0,0,0-2.143-2.224" transform="translate(47.082 4.097)" fill="#263238"/>
          </g>
        </g>
        <g id="Grupo_883874" data-name="Grupo 883874">
          <g id="Grupo_883873" data-name="Grupo 883873" clip-path="url(#clip-path)">
            <g id="Grupo_883866" data-name="Grupo 883866" transform="translate(132.663 122.068)" opacity="0.2">
              <g id="Grupo_883865" data-name="Grupo 883865">
                <g id="Grupo_883864" data-name="Grupo 883864" clip-path="url(#clip-path-10)">
                  <path id="Trazado_643783" data-name="Trazado 643783" d="M328.674,201.5c-.493-11.254-2.538-22.484-5.031-33.677q-.875-3.72-1.742-7.419c-.61-2.455-1.305-4.874-1.951-7.3-1.26-4.865-2.689-9.63-4.148-14.347-2.8-9.476-7.1-20.946-10.409-29.877-5.808-2.081-13.225-2.388-22.014-1.185L219.2,116.961a331.9,331.9,0,0,1-35.346,30.282c-.133-.885-.276-1.766-.4-2.656L128.4,169.666c-10.347,6.457-15.677,19.871-9.472,35.346l6.1,16.859,4.225,8.665c4.9,10.06,14.7,15.137,23.863,13.105l-.568.227c.233-.084.459-.169.69-.253a18.99,18.99,0,0,0,4.731-1.751q1.67-.626,3.319-1.252l45.251,58.2a7.737,7.737,0,0,0,12.587-.262l14.569-20.3a9.024,9.024,0,0,0-1.574-12.168c-9.442-7.534-26.284-21.986-32.434-33.694-.225-.5-2.014-4.486-2.2-6.351q4.316-1.782,8.862-3.644,5.011-1.04,10.277-2a212.5,212.5,0,0,1,22.848-2.946,127.825,127.825,0,0,1,24.74,1.082c17.056,2.107,34.825,6.549,53.588,10.838l.91.159,1.053-.047a6.626,6.626,0,0,0,1.957-.648c.538-.422,1.11-.82,1.611-1.287l1.3-1.613a23.306,23.306,0,0,0,2.971-7.727,64.209,64.209,0,0,0,1.08-16.711" transform="translate(-116.28 -106.993)"/>
                </g>
              </g>
            </g>
            <path id="Trazado_643784" data-name="Trazado 643784" d="M138.112,168.887s23.036-8.762,58.8-39.024c26.155-22.132,46.049-47.74,54.851-59.9a12.487,12.487,0,0,1,17.824-2.881c8.755,6.713,21.379,24.19,36.9,69.714,27.356,80.265,12.674,96.854,6,96.059s-51.05-12.84-79.68-12.208-71.542,12.386-71.542,12.386Z" transform="translate(19.459 9.092)" fill="#e0e0e0"/>
            <path id="Trazado_643785" data-name="Trazado 643785" d="M138.112,168.919s.151.379.421,1.11.672,1.827,1.2,3.253c1.047,2.869,2.591,7.1,4.593,12.587,3.987,10.977,9.8,26.979,17.121,47.129l-.229-.12c12.535-3.326,26.85-6.665,42.754-9.354a226.907,226.907,0,0,1,25.056-2.933,153.791,153.791,0,0,1,27.128,1.318c9.288,1.167,18.791,2.858,28.492,4.807,4.851.974,9.749,2.03,14.7,3.125l7.464,1.643c1.25.278,2.507.533,3.766.785.63.125,1.258.212,1.888.321a4.184,4.184,0,0,0,1.788-.2,6.9,6.9,0,0,0,3.007-2.14,15.478,15.478,0,0,0,2.034-3.237,29.944,29.944,0,0,0,2.147-7.483,71.984,71.984,0,0,0,.487-15.889,191.785,191.785,0,0,0-5.46-32.232c-2.358-9.653-5.191-19.065-8.188-28.269s-6.212-18.192-9.667-26.9a250.434,250.434,0,0,0-11.4-25.1,129.339,129.339,0,0,0-6.843-11.463,60.282,60.282,0,0,0-8.27-10.027c-.763-.753-1.582-1.433-2.407-2.1-.4-.35-.855-.607-1.278-.916-.456-.252-.9-.524-1.379-.731a11.785,11.785,0,0,0-6.043-1,12.2,12.2,0,0,0-5.7,2.054l-.626.43-.581.488A11.269,11.269,0,0,0,253,68.92a26.724,26.724,0,0,0-1.873,2.394c-4.831,6.591-9.743,12.822-14.67,18.7a347.312,347.312,0,0,1-29.263,31.012,325.428,325.428,0,0,1-49.021,37.429c-6.23,3.791-11.247,6.432-14.7,8.1-1.724.845-3.067,1.431-3.971,1.816s-1.384.545-1.384.545l1.36-.6c.9-.4,2.229-1.006,3.943-1.868,3.434-1.7,8.428-4.376,14.633-8.193s13.605-8.8,21.872-15.029c2.058-1.568,4.206-3.165,6.356-4.9,2.167-1.715,4.4-3.48,6.647-5.374,4.553-3.7,9.2-7.808,13.98-12.235a348.582,348.582,0,0,0,29.17-31.02c4.912-5.876,9.812-12.1,14.626-18.691a27.233,27.233,0,0,1,1.909-2.443,12.05,12.05,0,0,1,1.134-1.091l.606-.508.65-.451a12.753,12.753,0,0,1,5.942-2.146,12.319,12.319,0,0,1,6.318,1.043c.5.217.966.5,1.442.763.439.317.921.6,1.327.949.841.678,1.674,1.369,2.447,2.13a60.867,60.867,0,0,1,8.357,10.111,129.848,129.848,0,0,1,6.882,11.51,250.826,250.826,0,0,1,11.436,25.152c3.464,8.723,6.674,17.721,9.687,26.933s5.84,18.639,8.2,28.311a192.073,192.073,0,0,1,5.472,32.336,72.433,72.433,0,0,1-.5,16.023,30.529,30.529,0,0,1-2.2,7.634,16.02,16.02,0,0,1-2.123,3.371,7.466,7.466,0,0,1-3.267,2.31,4.753,4.753,0,0,1-2.036.218c-.642-.11-1.294-.2-1.927-.327-1.266-.254-2.528-.51-3.78-.79l-7.465-1.647c-4.947-1.1-9.84-2.155-14.686-3.133-9.691-1.954-19.18-3.65-28.447-4.824a153.6,153.6,0,0,0-27.037-1.345,226.751,226.751,0,0,0-25,2.891c-15.885,2.659-30.2,5.969-42.73,9.259l-.171.044-.059-.164-16.963-47.306c-1.958-5.485-3.467-9.711-4.491-12.579q-.755-2.127-1.147-3.234c-.254-.724-.372-1.088-.372-1.088" transform="translate(19.459 9.059)" fill="#263238"/>
            <g id="Grupo_883869" data-name="Grupo 883869" transform="translate(274.131 78.821)" opacity="0.3">
              <g id="Grupo_883868" data-name="Grupo 883868">
                <g id="Grupo_883867" data-name="Grupo 883867" clip-path="url(#clip-path-11)">
                  <path id="Trazado_643786" data-name="Trazado 643786" d="M287.25,140.883c14.29,42.815,18.549,80.192,9.515,83.484s-27.942-28.749-42.231-71.565S235.985,72.61,245.018,69.32s27.942,28.748,42.231,71.564" transform="translate(-240.278 -69.087)"/>
                </g>
              </g>
            </g>
            <path id="Trazado_643787" data-name="Trazado 643787" d="M246.175,120.626s21.494-11.346,30.309,18.8-13.052,32.827-13.052,32.827a202.765,202.765,0,0,1-17.257-51.624" transform="translate(34.684 16.701)" fill="#fff"/>
            <path id="Trazado_643788" data-name="Trazado 643788" d="M119.12,186.7l8.845,30.855A8.628,8.628,0,0,0,137,223.774a8.624,8.624,0,0,1,7.372,3.077l50.714,60.95a8.626,8.626,0,0,0,13.472-.262l15.591-20.3a8.618,8.618,0,0,0-1.685-12.168c-11.456-8.543-33.1-25.978-36.7-38.224-2.29-7.8-2-11.615-1.034-13.471a9.061,9.061,0,0,0,.515-7.784L177.414,177.3a8.625,8.625,0,0,0-8.671-5.2l-42.073,3.63a8.625,8.625,0,0,0-7.55,10.971" transform="translate(16.735 24.243)" fill="#ffb338"/>
            <g id="Grupo_883872" data-name="Grupo 883872" transform="translate(161.265 238.758)" opacity="0.3">
              <g id="Grupo_883871" data-name="Grupo 883871">
                <g id="Grupo_883870" data-name="Grupo 883870" clip-path="url(#clip-path-12)">
                  <path id="Trazado_643789" data-name="Trazado 643789" d="M141.35,221.8l9.417,11.316L184.6,216.189s-2.613-5.318-2.4-6.916Z" transform="translate(-141.35 -209.273)"/>
                </g>
              </g>
            </g>
            <path id="Trazado_643790" data-name="Trazado 643790" d="M103.832,198.75l6.522,16.859,4.522,8.665c6.2,11.886,19.721,16.857,30.773,11.311l58.175-21.906c-17.4-21.7-26.776-47.266-30.932-75.354L113.969,163.4c-11.073,6.457-16.778,19.871-10.137,35.346" transform="translate(14.23 19.489)" fill="#ffb338"/>
            <path id="Trazado_643791" data-name="Trazado 643791" d="M165.348,161.734c.176.411-10.537,5.476-23.925,11.313s-24.388,10.238-24.562,9.828,10.535-5.474,23.927-11.313,24.384-10.237,24.56-9.828" transform="translate(16.465 22.783)" fill="#263238"/>
            <path id="Trazado_643792" data-name="Trazado 643792" d="M168.538,169.405c.176.411-10.537,5.475-23.925,11.312s-24.388,10.238-24.562,9.828,10.535-5.474,23.927-11.312,24.384-10.237,24.56-9.828" transform="translate(16.914 23.864)" fill="#263238"/>
            <path id="Trazado_643793" data-name="Trazado 643793" d="M171.729,177.075c.175.41-10.537,5.476-23.926,11.312s-24.387,10.238-24.561,9.829,10.535-5.474,23.927-11.313,24.384-10.237,24.56-9.828" transform="translate(17.364 24.945)" fill="#263238"/>
            <path id="Trazado_643794" data-name="Trazado 643794" d="M174.919,184.746c.176.411-10.537,5.476-23.926,11.313s-24.385,10.238-24.562,9.828,10.536-5.474,23.928-11.313,24.384-10.237,24.56-9.828" transform="translate(17.813 26.026)" fill="#263238"/>
            <path id="Trazado_643795" data-name="Trazado 643795" d="M199.033,204.373a3.063,3.063,0,0,1-.628.3l-1.841.76-6.808,2.7c-5.755,2.261-13.706,5.386-22.521,8.755s-16.849,6.3-22.7,8.313c-2.923,1.01-5.3,1.806-6.945,2.331l-1.9.594a3.034,3.034,0,0,1-.677.169,3.121,3.121,0,0,1,.638-.282l1.864-.7,6.88-2.508c5.809-2.116,13.812-5.1,22.626-8.473l22.584-8.592,6.875-2.527,1.881-.656a3.051,3.051,0,0,1,.67-.191" transform="translate(19.023 28.794)" fill="#263238"/>
            <path id="Trazado_643796" data-name="Trazado 643796" d="M286.336,216.254a1.514,1.514,0,0,1-.211-.283l-.57-.863-2.141-3.346c-1.829-2.926-4.416-7.2-7.436-12.581a299.2,299.2,0,0,1-20.082-43.8c-3.213-8.859-5.813-17.463-7.836-25.37-.533-1.97-.982-3.91-1.418-5.793s-.849-3.712-1.254-5.481c-.793-3.538-1.546-6.833-2.183-9.852-1.286-6.038-2.087-10.975-2.475-14.406-.205-1.714-.323-3.05-.384-3.955-.027-.427-.048-.767-.064-1.033a1.56,1.56,0,0,1,0-.353,1.606,1.606,0,0,1,.063.348c.031.264.072.6.122,1.026.1.9.254,2.232.5,3.937.457,3.416,1.32,8.33,2.656,14.347l2.252,9.831q.621,2.647,1.282,5.471c.444,1.878.9,3.812,1.439,5.776,2.049,7.885,4.659,16.463,7.865,25.3a314.666,314.666,0,0,0,19.89,43.8c2.969,5.4,5.5,9.7,7.266,12.664l2.046,3.4c.216.369.387.663.52.893a1.535,1.535,0,0,1,.16.315" transform="translate(33.853 12.559)" fill="#263238"/>
          </g>
        </g>
        <g id="Grupo_883876" data-name="Grupo 883876">
          <g id="Grupo_883875" data-name="Grupo 883875" clip-path="url(#clip-path)">
            <path id="Trazado_643797" data-name="Trazado 643797" d="M177.885,90.521h0a29.644,29.644,0,1,1,29.644-29.644,29.644,29.644,0,0,1-29.644,29.644" transform="translate(20.886 4.401)" fill="#fd4c1b"/>
            <path id="Trazado_643798" data-name="Trazado 643798" d="M176.231,45.9c4.34,0,4.855.017,6.568.095a9.015,9.015,0,0,1,3.018.56,5.389,5.389,0,0,1,3.085,3.084,9,9,0,0,1,.559,3.019c.079,1.714.1,2.228.1,6.568s-.017,4.853-.1,6.568a8.994,8.994,0,0,1-.559,3.018,5.381,5.381,0,0,1-3.085,3.084,8.956,8.956,0,0,1-3.018.56c-1.714.078-2.228.095-6.568.095s-4.855-.017-6.568-.095a8.949,8.949,0,0,1-3.018-.56,5.381,5.381,0,0,1-3.085-3.084,9.015,9.015,0,0,1-.56-3.018c-.078-1.715-.095-2.228-.095-6.568s.017-4.854.095-6.568a9.017,9.017,0,0,1,.56-3.019,5.389,5.389,0,0,1,3.085-3.084,9.008,9.008,0,0,1,3.018-.56c1.714-.078,2.228-.095,6.568-.095m0-2.929c-4.414,0-4.967.019-6.7.1a11.93,11.93,0,0,0-3.945.755,8.308,8.308,0,0,0-4.753,4.754,11.892,11.892,0,0,0-.756,3.945c-.079,1.733-.1,2.287-.1,6.7s.018,4.967.1,6.7a11.9,11.9,0,0,0,.756,3.945,8.31,8.31,0,0,0,4.753,4.753,11.956,11.956,0,0,0,3.945.756c1.734.079,2.287.1,6.7.1s4.967-.018,6.7-.1a11.956,11.956,0,0,0,3.945-.756,8.317,8.317,0,0,0,4.754-4.753,11.966,11.966,0,0,0,.755-3.945c.079-1.734.1-2.287.1-6.7s-.018-4.969-.1-6.7a11.953,11.953,0,0,0-.755-3.945,8.314,8.314,0,0,0-4.754-4.754,11.93,11.93,0,0,0-3.945-.755c-1.734-.079-2.288-.1-6.7-.1" transform="translate(22.54 6.054)" fill="#fff"/>
            <path id="Trazado_643799" data-name="Trazado 643799" d="M175.255,49.9a8.347,8.347,0,1,0,8.347,8.347,8.348,8.348,0,0,0-8.347-8.347m0,13.765a5.418,5.418,0,1,1,5.418-5.418,5.418,5.418,0,0,1-5.418,5.418" transform="translate(23.516 7.031)" fill="#fff"/>
            <path id="Trazado_643800" data-name="Trazado 643800" d="M184.02,49.852a1.95,1.95,0,1,1-1.95-1.951,1.951,1.951,0,0,1,1.95,1.951" transform="translate(25.377 6.749)" fill="#fff"/>
          </g>
        </g>
        <g id="Grupo_883881" data-name="Grupo 883881">
          <g id="Grupo_883880" data-name="Grupo 883880" clip-path="url(#clip-path)">
            <g id="Grupo_883879" data-name="Grupo 883879" transform="translate(295.725 280.211)" opacity="0.1">
              <g id="Grupo_883878" data-name="Grupo 883878">
                <g id="Grupo_883877" data-name="Grupo 883877" clip-path="url(#clip-path-15)">
                  <path id="Trazado_643801" data-name="Trazado 643801" d="M266.747,266.85l-7.161-15.484a4.057,4.057,0,0,1,4.048-5.742l16.99,1.54,16.99,1.541a4.056,4.056,0,0,1,2.949,6.375l-9.83,13.944L280.9,282.969a4.055,4.055,0,0,1-7-.634Z" transform="translate(-259.205 -245.607)"/>
                </g>
              </g>
            </g>
            <path id="Trazado_643802" data-name="Trazado 643802" d="M258.917,259.022l-7.161-15.484A4.057,4.057,0,0,1,255.8,237.8l16.99,1.54,16.99,1.541a4.056,4.056,0,0,1,2.949,6.375L282.9,261.2l-9.829,13.944a4.055,4.055,0,0,1-7-.634Z" transform="translate(35.417 33.501)" fill="#eb6f2d"/>
          </g>
        </g>
        <g id="Grupo_883883" data-name="Grupo 883883">
          <g id="Grupo_883882" data-name="Grupo 883882" clip-path="url(#clip-path)">
            <path id="Trazado_643803" data-name="Trazado 643803" d="M69.362,256.124,2.79,239.076a3.709,3.709,0,0,1-2.673-4.513l11.941-46.627a3.71,3.71,0,0,1,4.513-2.673l66.572,17.048a3.709,3.709,0,0,1,2.673,4.513L73.875,253.451a3.71,3.71,0,0,1-4.513,2.673" transform="translate(0 26.086)" fill="#f9d9a2"/>
            <path id="Trazado_643804" data-name="Trazado 643804" d="M80.118,207.7a4.917,4.917,0,0,1-.782.406l-2.289,1.058-8.459,3.791-12.576,5.552-7.434,3.26-3.936,1.719a7.14,7.14,0,0,1-8.355-2.023l-2.625-3.411-4.93-6.452-8.319-10.945-5.569-7.41q-.929-1.27-1.49-2.033a4.9,4.9,0,0,1-.487-.734,4.873,4.873,0,0,1,.582.661l1.579,1.965,5.718,7.3,8.421,10.867,4.957,6.43,2.619,3.391a6.542,6.542,0,0,0,3.522,2.208c2.88.821,5.479-1.082,8.08-2.063l7.448-3.228,12.627-5.435,8.534-3.617L79.289,208a4.9,4.9,0,0,1,.829-.3" transform="translate(1.813 26.837)" fill="#263238"/>
            <path id="Trazado_643805" data-name="Trazado 643805" d="M33.4,212.721c.08.144-6.139,3.775-13.889,8.112s-14.1,7.736-14.181,7.594,6.138-3.775,13.892-8.113,14.1-7.735,14.179-7.593" transform="translate(0.751 29.97)" fill="#263238"/>
            <path id="Trazado_643806" data-name="Trazado 643806" d="M45.937,216.818c.144-.08,3.775,6.139,8.112,13.889s7.736,14.1,7.594,14.181S57.867,238.751,53.529,231s-7.735-14.1-7.593-14.179" transform="translate(6.472 30.548)" fill="#263238"/>
          </g>
        </g>
        <path id="Trazado_643807" data-name="Trazado 643807" d="M419.116,245.924,462.362,181.5l-79.581,2.244L395.31,204.91l-3.424,15.064,14.142,3.911Z" transform="translate(53.931 25.572)" fill="#fff"/>
        <g id="Grupo_883888" data-name="Grupo 883888">
          <g id="Grupo_883887" data-name="Grupo 883887" clip-path="url(#clip-path)">
            <g id="Grupo_883886" data-name="Grupo 883886" transform="translate(445.816 207.07)" opacity="0.3">
              <g id="Grupo_883885" data-name="Grupo 883885">
                <g id="Grupo_883884" data-name="Grupo 883884" clip-path="url(#clip-path-18)">
                  <path id="Trazado_643808" data-name="Trazado 643808" d="M394.185,204.911,461.238,181.5,404.9,223.886l-14.142-3.912Z" transform="translate(-390.761 -181.498)"/>
                </g>
              </g>
            </g>
          </g>
        </g>
        <line id="Línea_2567" data-name="Línea 2567" x1="70.476" y2="38.477" transform="translate(445.817 207.07)"/>
        <g id="Grupo_883896" data-name="Grupo 883896">
          <g id="Grupo_883895" data-name="Grupo 883895" clip-path="url(#clip-path)">
            <path id="Trazado_643809" data-name="Trazado 643809" d="M390.761,219.975c-.079-.144,15.636-8.875,35.094-19.5s35.3-19.123,35.382-18.979-15.632,8.873-35.1,19.5-35.3,19.12-35.379,18.976" transform="translate(55.055 25.572)" fill="#263238"/>
            <path id="Trazado_643810" data-name="Trazado 643810" d="M404.482,223.9a1.683,1.683,0,0,1,.27-.242c.211-.17.485-.388.828-.663l3.222-2.5,11.917-9.116,39.476-29.917.277.518-.237.082L413.27,198.346l-14.254,4.87-3.885,1.3-1.015.322a1.559,1.559,0,0,1-.353.091,1.742,1.742,0,0,1,.332-.148l1-.378,3.849-1.4,14.192-5.048L460.039,181.5c.082-.027.163-.056.237-.082a.3.3,0,0,1,.277.517l-39.581,29.777-12.031,8.966-3.289,2.413-.864.615a1.656,1.656,0,0,1-.307.194" transform="translate(55.478 25.558)" fill="#263238"/>
            <path id="Trazado_643811" data-name="Trazado 643811" d="M419.176,245.96c0,.009-.076-.111-.226-.351-.161-.265-.38-.623-.664-1.088l-2.589-4.278-9.766-16.226.108.082-14.153-3.873-.205-.057.048-.208,3.4-15.069.029.184c-3.832-6.459-8.073-13.605-12.553-21.153l-.243-.411.478-.014,38.406-1.1,41.174-1.143.542-.015-.3.448c-12.716,18.834-23.589,34.938-31.3,46.356l-8.974,13.239-2.383,3.5-.613.89a3.444,3.444,0,0,1-.208.286c0-.008.071-.12.209-.333l.613-.937c.553-.835,1.349-2.038,2.375-3.589l8.9-13.39,30.918-46.333.24.434-41.173,1.18-38.408,1.067.234-.423c4.462,7.558,8.686,14.715,12.5,21.183l.051.087-.022.1c-1.233,5.379-2.4,10.457-3.452,15.058l-.157-.264,14.132,3.949.072.021.038.063,9.5,16.225c1.1,1.889,1.953,3.353,2.544,4.366.281.487.5.863.657,1.139.148.258.224.4.224.4" transform="translate(53.871 25.536)" fill="#263238"/>
            <path id="Trazado_643812" data-name="Trazado 643812" d="M93.178,173.086,26.845,74.266l122.064,3.443-19.216,32.469,5.253,23.105-21.693,6Z" transform="translate(3.782 10.463)" fill="#fff"/>
            <g id="Grupo_883891" data-name="Grupo 883891" transform="translate(30.627 84.73)" opacity="0.3">
              <g id="Grupo_883890" data-name="Grupo 883890">
                <g id="Grupo_883889" data-name="Grupo 883889" clip-path="url(#clip-path-20)">
                  <path id="Trazado_643813" data-name="Trazado 643813" d="M129.693,110.178,26.845,74.266l86.407,65.017,21.693-6Z" transform="translate(-26.845 -74.266)"/>
                </g>
              </g>
            </g>
            <line id="Línea_2568" data-name="Línea 2568" x2="108.101" y2="59.017" transform="translate(30.627 84.729)"/>
            <path id="Trazado_643814" data-name="Trazado 643814" d="M134.945,133.283c-.079.144-24.343-12.951-54.19-29.246S26.765,74.411,26.844,74.266s24.339,12.949,54.2,29.249,53.984,29.624,53.9,29.768" transform="translate(3.782 10.463)" fill="#263238"/>
            <path id="Trazado_643815" data-name="Trazado 643815" d="M113.2,139.285s-.162-.1-.461-.31l-1.315-.956c-1.171-.868-2.86-2.121-5.027-3.725L87.979,120.5C72.437,108.793,50.994,92.643,27.3,74.79a.3.3,0,0,1,.276-.517l.364.127L99.9,99.585l21.785,7.7L127.6,109.4l1.532.565c.345.131.516.212.516.212s-.185-.042-.536-.154l-1.552-.51-5.95-2.016L99.762,99.982,27.741,74.961l-.364-.128.276-.517,60.579,45.849,18.309,13.943,4.959,3.814,1.28,1c.286.229.424.358.424.358" transform="translate(3.829 10.462)" fill="#263238"/>
            <path id="Trazado_643816" data-name="Trazado 643816" d="M93.245,173.123s.115-.212.341-.6.572-.979,1.013-1.733c.9-1.53,2.209-3.77,3.913-6.673,3.416-5.8,8.386-14.249,14.647-24.886l.039-.064.071-.019,21.684-6.038-.157.264c-1.613-7.055-3.394-14.845-5.28-23.1l-.024-.1.051-.087c5.86-9.917,12.341-20.892,19.19-32.483l.234.423L90.055,76.381,26.9,74.582l.24-.435c19.316,28.887,35.83,53.584,47.524,71.074,5.845,8.763,10.485,15.717,13.672,20.5,1.585,2.384,2.808,4.222,3.645,5.482.41.617.72,1.091.94,1.424s.321.5.321.5-.107-.144-.319-.451c-.219-.323-.532-.78-.94-1.378-.84-1.238-2.064-3.047-3.652-5.392-3.207-4.746-7.87-11.65-13.748-20.348-11.788-17.5-28.434-42.2-47.906-71.1l-.3-.45.542.015,63.152,1.763,58.911,1.678.477.014-.243.41c-6.867,11.582-13.366,22.546-19.24,32.455l.029-.184c1.865,8.257,3.628,16.051,5.223,23.111l.047.208-.2.056-21.7,5.962.107-.083c-6.374,10.64-11.432,19.086-14.91,24.89-1.722,2.865-3.05,5.074-3.959,6.584-.442.731-.78,1.29-1.018,1.683-.227.375-.343.553-.343.553" transform="translate(3.716 10.427)" fill="#263238"/>
            <path id="Trazado_643817" data-name="Trazado 643817" d="M62.893,276.9,6.778,351.795l95.989,2.272L89,327.787l5.066-17.929-16.789-5.595Z" transform="translate(0.955 39.013)" fill="#fff"/>
            <g id="Grupo_883894" data-name="Grupo 883894" transform="translate(7.733 343.276)" opacity="0.3">
              <g id="Grupo_883893" data-name="Grupo 883893">
                <g id="Grupo_883892" data-name="Grupo 883892" clip-path="url(#clip-path-21)">
                  <path id="Trazado_643818" data-name="Trazado 643818" d="M89,324.408,6.778,348.416l70.5-47.532,16.789,5.595Z" transform="translate(-6.778 -300.884)"/>
                </g>
              </g>
            </g>
            <line id="Línea_2569" data-name="Línea 2569" y1="41.937" x2="87.29" transform="translate(7.733 348.871)"/>
            <path id="Trazado_643819" data-name="Trazado 643819" d="M94.068,305.788c.071.148-19.413,9.657-43.514,21.235s-43.705,20.85-43.776,20.7,19.409-9.654,43.518-21.238,43.7-20.848,43.771-20.7" transform="translate(0.955 43.083)" fill="#263238"/>
            <path id="Trazado_643820" data-name="Trazado 643820" d="M77.247,300.884a2.447,2.447,0,0,1-.343.269c-.259.184-.6.429-1.043.742l-4.043,2.8L56.883,314.916,7.456,348.466l-.249-.532.29-.084,57.579-16.695,17.468-4.994,4.758-1.329,1.241-.331a2.459,2.459,0,0,1,.428-.094,2.246,2.246,0,0,1-.411.152l-1.225.388-4.727,1.436-17.415,5.174L7.664,348.421l-.291.084a.3.3,0,0,1-.25-.532l49.525-33.4c6.33-4.236,11.461-7.669,15.04-10.063,1.76-1.163,3.137-2.073,4.1-2.711l1.076-.693a2.353,2.353,0,0,1,.378-.219" transform="translate(0.985 42.392)" fill="#263238"/>
            <path id="Trazado_643821" data-name="Trazado 643821" d="M62.961,276.9s.084.141.249.443l.731,1.358c.657,1.228,1.61,3.012,2.845,5.322,2.5,4.706,6.143,11.545,10.722,20.154l-.1-.089,16.8,5.558.2.067-.057.2c-1.539,5.48-3.239,11.529-5.038,17.937l-.019-.185c4.211,8.018,8.87,16.892,13.791,26.264l.222.423-.478-.011L56.5,353.267,6.839,352.073l-.542-.013.326-.432L47.18,297.752l11.629-15.4c1.341-1.767,2.375-3.133,3.09-4.075.341-.447.6-.789.794-1.038.178-.232.268-.337.268-.337s-.092.137-.272.383l-.8,1.085c-.714.963-1.747,2.358-3.086,4.165-2.7,3.634-6.624,8.91-11.564,15.555-9.889,13.262-23.848,31.98-40.174,53.872l-.216-.445,49.663,1.157,46.326,1.111-.256.412L88.847,327.9l-.047-.089.027-.1L93.922,309.8l.143.272-16.777-5.633-.071-.024-.034-.065c-4.469-8.6-8.018-15.434-10.46-20.137-1.215-2.348-2.152-4.161-2.8-5.408L63.2,277.4c-.162-.318-.244-.494-.244-.494" transform="translate(0.887 39.013)" fill="#263238"/>
          </g>
        </g>
        <g id="Grupo_883898" data-name="Grupo 883898">
          <g id="Grupo_883897" data-name="Grupo 883897" clip-path="url(#clip-path)">
            <path id="Trazado_643822" data-name="Trazado 643822" d="M299.818,314.359l-7.056.3-25.4,55.146-40.179,20.03,1.913,20.683s49.469-9.125,61.8-16.03,28.058-51.754,28.058-51.754c.08.318-16.713-28.38-16.713-28.38" transform="translate(32.008 44.291)" fill="#ffc09d"/>
            <path id="Trazado_643823" data-name="Trazado 643823" d="M234.391,359.326l-5.149-5.414a5.829,5.829,0,0,0-3.333-.925l-16.319.5a10.218,10.218,0,0,0-7.549,4.572l-5.934,10.1s-3.989,6.909-3.48,8.589a2.984,2.984,0,0,0,3.442,2.018s.565,3.193,1.635,3.843a5,5,0,0,0,3.963.256,3.366,3.366,0,0,0,3.213,1.944,3.928,3.928,0,0,0,.848-.156c1.937-.586,2.81-4.338,2.81-4.338l8.274-1.532s11.882,7.945,16.071,13.15,15.158,1.226,15.158,1.226l4.1-19.623Z" transform="translate(27.134 49.733)" fill="#ffc09d"/>
            <path id="Trazado_643824" data-name="Trazado 643824" d="M221.93,360.606a12.987,12.987,0,0,1-3.569.594c-2.25.25-5.434.341-9.016.805l.387-.285a34.358,34.358,0,0,1-2.12,3.908,43.611,43.611,0,0,1-7.845,9.281c-2.339,2.067-4.025,3.028-4.094,2.925-.094-.13,1.425-1.289,3.6-3.456a53.787,53.787,0,0,0,7.471-9.3,38.415,38.415,0,0,0,2.089-3.779l.122-.256.266-.03c3.683-.415,6.856-.373,9.107-.45a17.593,17.593,0,0,1,3.606.036" transform="translate(27.568 50.795)" fill="#ff9b6c"/>
            <path id="Trazado_643825" data-name="Trazado 643825" d="M221.649,367.485a7.887,7.887,0,0,1-3.075.819,23.45,23.45,0,0,1-7.982-.278l.581-.33a26.646,26.646,0,0,1-1.192,2.958,24.909,24.909,0,0,1-6.133,8.058c-1.982,1.694-3.442,2.4-3.5,2.3-.091-.136,1.21-1.051,3.01-2.832a28.859,28.859,0,0,0,5.7-7.968,29.911,29.911,0,0,0,1.169-2.836l.153-.426.429.1c6.107,1.362,10.819.139,10.845.44" transform="translate(28.226 51.7)" fill="#ff9b6c"/>
            <path id="Trazado_643826" data-name="Trazado 643826" d="M241.69,372.017l-14.553-6.765a15.256,15.256,0,0,0-6.338-1.884c-2.391.011-4.618,1.137-6.743,2.237l-7.831,4.054a1.881,1.881,0,0,0-1.038.938,1.758,1.758,0,0,0,.674,1.651,11.529,11.529,0,0,0,15.162.619c1.256,3.418,2.557,6.913,4.909,9.692s6.009,4.746,9.59,4.088" transform="translate(28.902 51.196)" fill="#ffc09d"/>
            <path id="Trazado_643827" data-name="Trazado 643827" d="M235.587,386.7c0,.024-.128.067-.391.128a5.681,5.681,0,0,1-1.185.135,9.266,9.266,0,0,1-4.382-1.063,13.693,13.693,0,0,1-5.158-4.7,37.978,37.978,0,0,1-3.812-8.119l.728.188a11.593,11.593,0,0,1-8.475,2.65,12.3,12.3,0,0,1-4.724-1.321,11.324,11.324,0,0,1-2.1-1.455,6.223,6.223,0,0,1-.94-.961,1.923,1.923,0,0,1-.414-1.585,1.841,1.841,0,0,1,.869-1.087c.347-.215.645-.348.948-.511l1.815-.938q1.8-.928,3.55-1.829c2.329-1.155,4.533-2.505,7.015-3.058a10.755,10.755,0,0,1,6.906,1.046c1.969.9,3.741,1.772,5.39,2.554,3.145,1.537,5.754,2.81,7.747,3.782a18.6,18.6,0,0,1,2.78,1.514,18.8,18.8,0,0,1-2.95-1.151l-7.884-3.484-5.419-2.431a9.955,9.955,0,0,0-6.364-.9c-2.245.515-4.421,1.846-6.758,3.028l-3.542,1.843-1.813.941c-.618.315-1.263.623-1.293.933-.124.378.437,1.046,1.036,1.528a10.3,10.3,0,0,0,1.9,1.321,11.372,11.372,0,0,0,4.324,1.229,10.731,10.731,0,0,0,7.8-2.348l.505-.434.221.623a38.932,38.932,0,0,0,3.584,8.018,13.5,13.5,0,0,0,4.78,4.639,10.477,10.477,0,0,0,5.707,1.28" transform="translate(28.839 51.139)" fill="#ff9b6c"/>
            <path id="Trazado_643828" data-name="Trazado 643828" d="M413.008,218.5c.885-11.07,3.379-22,3.707-33.1s-1.8-22.833-8.991-31.3-20.4-12.409-29.87-6.614l-2.5,9.3c.659,42.965-2.772,86.348-2.114,129.312.087,5.644,4.3,11.035,6.508,16.227s7.053,9.684,12.7,9.722c7.385.047,12.718-7.082,15.48-13.931,10.014-24.829,2.946-52.936,5.079-79.624" transform="translate(52.576 20.394)" fill="#263238"/>
            <path id="Trazado_643829" data-name="Trazado 643829" d="M390.3,158.888a30.955,30.955,0,0,0-5.115-8.018c-2.224-2.277-5.363-3.886-8.525-3.5a4.386,4.386,0,0,0-3.627,2.29c-.59,1.378.338,3.335,1.836,3.313l.3.293q4.677,4.74,9.54,9.293a8.676,8.676,0,0,0,2.708,1.94,3.01,3.01,0,0,0,3.142-.448c1.315-1.3.567-3.5-.259-5.157" transform="translate(52.533 20.755)" fill="#038a7b"/>
            <path id="Trazado_643830" data-name="Trazado 643830" d="M404.668,170.415c-10.125-14.245-24.428-23.022-41.843-24.494-9.825-.831-14.034.938-21.248,2.368s-13.863,4.8-18.5,10.508c-5.5,6.784-10.26,14.476-11.8,23.073A74.961,74.961,0,0,0,311,206.746c1.463,8.852,6.538,22.578,11.3,30.181l14.973,2.859c12.516,1.279,25.2,2.553,37.62.52s24.736-7.8,32.007-18.066c10.1-14.262,7.893-37.58-2.234-51.825" transform="translate(43.69 20.529)" fill="#263238"/>
            <path id="Trazado_643831" data-name="Trazado 643831" d="M384.083,167.771,354.619,153.68l-7.973.382c-17.8-1.145-31.411,17.652-32.506,32.059-1.216,16.008-2.071,35.6-.326,47.575,3.506,24.084,23.63,27.435,23.63,27.435s-1.273,12.622-1.966,20.582l46.585-.2,9.472-105.069a8.455,8.455,0,0,0-7.452-8.672" transform="translate(44.075 21.652)" fill="#ffc09d"/>
            <path id="Trazado_643832" data-name="Trazado 643832" d="M346.572,221.648a5.068,5.068,0,0,0-1.536-3.236,5.177,5.177,0,0,0-6.241-.783,6.936,6.936,0,0,0-3.068,6.315,6.3,6.3,0,0,0,4.323,2.916,7.723,7.723,0,0,0,.843.084A5.663,5.663,0,0,0,344.8,225.7a5.046,5.046,0,0,0,1.771-4.049" transform="translate(47.299 30.563)" fill="#ff9b6c"/>
            <path id="Trazado_643833" data-name="Trazado 643833" d="M318.375,201.635a3.082,3.082,0,0,0,2.932,3.149,2.949,2.949,0,0,0,3.214-2.738,3.084,3.084,0,0,0-2.929-3.15,2.95,2.95,0,0,0-3.217,2.739" transform="translate(44.856 28.022)" fill="#263238"/>
            <path id="Trazado_643834" data-name="Trazado 643834" d="M318.264,189.847c.378.407,2.735-1.29,6.052-1.239,3.313,0,5.726,1.742,6.091,1.339.179-.177-.2-.907-1.25-1.693a8.467,8.467,0,0,0-4.87-1.57,8.128,8.128,0,0,0-4.824,1.488c-1.029.77-1.385,1.492-1.2,1.675" transform="translate(44.834 26.302)" fill="#263238"/>
            <path id="Trazado_643835" data-name="Trazado 643835" d="M336.371,216.847c.017-.188-2.04-.57-5.376-1.042-.845-.1-1.645-.277-1.78-.857a4.308,4.308,0,0,1,.6-2.5q1.234-3.06,2.59-6.418c3.595-9.137,6.212-16.656,5.842-16.8s-3.585,7.15-7.182,16.287c-.866,2.254-1.694,4.4-2.484,6.457a4.913,4.913,0,0,0-.483,3.319,2.13,2.13,0,0,0,1.377,1.256,5.778,5.778,0,0,0,1.436.219c3.361.224,5.447.266,5.461.078" transform="translate(46.206 26.661)" fill="#263238"/>
            <path id="Trazado_643836" data-name="Trazado 643836" d="M334.436,248.846a61.152,61.152,0,0,0,32.3-8.17s-8.791,16.549-32.818,13.988Z" transform="translate(47.047 33.91)" fill="#ff9b6c"/>
            <path id="Trazado_643837" data-name="Trazado 643837" d="M345.181,215.558c-.54-.039-.593,3.562-3.708,6.078s-6.942,2.071-6.977,2.573c-.054.226.845.711,2.464.776a8.966,8.966,0,0,0,5.821-1.944,7.811,7.811,0,0,0,2.878-5.1c.156-1.5-.234-2.4-.479-2.383" transform="translate(47.128 30.371)" fill="#263238"/>
            <path id="Trazado_643838" data-name="Trazado 643838" d="M319.941,179.723c.546.817,3.094.308,6.058.593,2.973.191,5.414,1.1,6.075.378.3-.353-.019-1.145-1.037-1.974a9.431,9.431,0,0,0-9.776-.783c-1.129.656-1.557,1.39-1.32,1.786" transform="translate(45.068 24.928)" fill="#263238"/>
            <path id="Trazado_643839" data-name="Trazado 643839" d="M348.8,202.439a3.081,3.081,0,0,1-3.125,2.956,2.947,2.947,0,0,1-3.035-2.934,3.084,3.084,0,0,1,3.123-2.958,2.949,2.949,0,0,1,3.037,2.937" transform="translate(48.276 28.108)" fill="#263238"/>
            <path id="Trazado_643840" data-name="Trazado 643840" d="M359.036,191.434c-.4.382-2.648-1.461-5.961-1.62-3.307-.205-5.825,1.377-6.164.953-.168-.188.259-.893,1.355-1.611a8.472,8.472,0,0,1,4.959-1.26,8.134,8.134,0,0,1,4.72,1.79c.979.834,1.288,1.577,1.091,1.748" transform="translate(48.872 26.471)" fill="#263238"/>
            <path id="Trazado_643841" data-name="Trazado 643841" d="M357.979,182.063c-.69.719-3.207-.191-6.278-.382-3.066-.288-5.7.219-6.261-.6-.244-.395.2-1.128,1.377-1.783a9.5,9.5,0,0,1,5.169-.975,9.374,9.374,0,0,1,4.934,1.765c1.047.828,1.365,1.621,1.059,1.974" transform="translate(48.661 25.12)" fill="#263238"/>
            <path id="Trazado_643842" data-name="Trazado 643842" d="M375.817,209.453c.027-1.79,2.151-5.983,3.922-6.236,4.73-.674,13.233-.186,13.158,11.8-.1,16.388-16.537,12.9-16.563,12.433-.021-.367-.612-11.821-.517-18" transform="translate(52.948 28.605)" fill="#ffc09d"/>
            <path id="Trazado_643843" data-name="Trazado 643843" d="M380.268,220.813c.072-.052.284.2.764.426a2.859,2.859,0,0,0,2.136.058c1.735-.625,3.209-3.364,3.307-6.318a9.413,9.413,0,0,0-.772-4.094,3.3,3.3,0,0,0-2.133-2.2,1.455,1.455,0,0,0-1.691.771c-.222.457-.12.785-.206.812-.047.041-.35-.276-.215-.952a1.818,1.818,0,0,1,.653-1.025,2.163,2.163,0,0,1,1.581-.407,4.019,4.019,0,0,1,2.966,2.561,9.694,9.694,0,0,1,.96,4.574c-.126,3.3-1.836,6.381-4.21,7.052a3.062,3.062,0,0,1-2.608-.452c-.505-.406-.589-.775-.532-.8" transform="translate(53.575 29.287)" fill="#ff9b6c"/>
            <path id="Trazado_643844" data-name="Trazado 643844" d="M386.2,210.579l-4.439,4.019c-16.744-18.355-48.827-63.646-47.046-60.957,0,0,12.609-4.212,25.77-1.04S398.452,164.151,397,179.83s-10.8,30.749-10.8,30.749" transform="translate(47.149 21.334)" fill="#263238"/>
            <path id="Trazado_643845" data-name="Trazado 643845" d="M409.763,208.75a4.252,4.252,0,0,0-.186-.961,16.621,16.621,0,0,0-.938-2.649,23.82,23.82,0,0,0-6.3-8.138c-3.28-2.923-7.933-5.443-13.285-7.537-5.338-2.149-11.4-3.947-17.264-6.951a80.167,80.167,0,0,1-15.512-10.125,83.781,83.781,0,0,1-10.706-10.722,89.278,89.278,0,0,1-6.051-8.257c-.6-.963-1.1-1.746-1.484-2.362a4.357,4.357,0,0,0-.562-.8,4.249,4.249,0,0,0,.416.884c.3.562.731,1.406,1.353,2.449a75.173,75.173,0,0,0,5.87,8.46,79.932,79.932,0,0,0,10.668,10.94,78.551,78.551,0,0,0,15.634,10.283c5.942,3.042,12.047,4.826,17.355,6.92a45.388,45.388,0,0,1,13.184,7.271,24.608,24.608,0,0,1,6.389,7.827c1.055,2.165,1.331,3.5,1.418,3.469" transform="translate(47.547 21.169)" fill="#455a64"/>
            <path id="Trazado_643846" data-name="Trazado 643846" d="M404.777,210.56a8.6,8.6,0,0,0-.391-3.61,16.708,16.708,0,0,0-5.611-8.1c-3.236-2.777-7.993-4.68-13.257-6.264a80.7,80.7,0,0,1-16.559-6.519A71.867,71.867,0,0,1,354.5,175.729a73.918,73.918,0,0,1-9.653-10.869,78.243,78.243,0,0,1-5.229-8.318c-.5-.966-.906-1.754-1.229-2.379a4.022,4.022,0,0,0-.48-.809,3.95,3.95,0,0,0,.327.88l1.091,2.457a66.881,66.881,0,0,0,5.036,8.512,70.448,70.448,0,0,0,24.194,21.6,78.855,78.855,0,0,0,16.734,6.52c5.258,1.539,9.921,3.347,13.107,5.984a16.9,16.9,0,0,1,5.675,7.738,19.43,19.43,0,0,1,.7,3.514" transform="translate(47.609 21.606)" fill="#455a64"/>
            <path id="Trazado_643847" data-name="Trazado 643847" d="M377.72,237.237c-.009-.111,1.4-.2,3.861-.665a23.426,23.426,0,0,0,9.481-4.485,32.884,32.884,0,0,0,9.364-12.406,57.342,57.342,0,0,0,4.818-18.589,44.3,44.3,0,0,0-2.224-18.98,47.365,47.365,0,0,0-7.562-13.741c-5.623-7.058-10.5-10.078-10.307-10.293a3.591,3.591,0,0,1,.874.531c.54.392,1.378.92,2.357,1.73a50.056,50.056,0,0,1,7.671,7.556,46.6,46.6,0,0,1,7.905,13.888,44.455,44.455,0,0,1,2.358,19.408,56.815,56.815,0,0,1-4.991,18.913c-2.594,5.464-6.06,9.889-9.8,12.59a22.711,22.711,0,0,1-9.864,4.292,20.475,20.475,0,0,1-2.922.264,3.581,3.581,0,0,1-1.019-.011" transform="translate(53.218 22.272)" fill="#455a64"/>
            <path id="Trazado_643848" data-name="Trazado 643848" d="M334.465,261.573,380.7,256.58l8.46,7.7-33.007,19.4-14.56,7.541-14.382-4.366-4.556-8.572Z" transform="translate(45.46 36.15)" fill="#ffc09d"/>
            <path id="Trazado_643849" data-name="Trazado 643849" d="M278.38,317.845s14.493-27.814,18.081-33.89c6.116-10.358,17.53-16.228,17.53-16.228l26.712-6.179s-2.771,13.384,13.852,14.308c21.141,1.176,34.274-19.1,34.274-19.1s24.123,2.481,30.784,5.28,25.5,10.681,28.268,35.736l6.455,40.9-50.964,3.884.705,54.45,25.072,42.9h-123c1.924.516,8.7-28.13,4.257-50.772l-8.394-20.38a78.984,78.984,0,0,1-5.943-25.611c-.325-5.8-.167-10.185-.167-10.185s-13.072-4.494-17.52-15.12" transform="translate(39.222 36.175)" fill="#617a0b"/>
            <path id="Trazado_643850" data-name="Trazado 643850" d="M313.856,405.969,399.3,380.323l-.6-47.949,43.511-3.315s-3.472,24.846-3.981,37.586c-.732,18.323-9.546,43.93-15.441,49.366s-111.2,11.345-111.2,11.345Z" transform="translate(43.9 46.362)" fill="#ffc09d"/>
            <path id="Trazado_643851" data-name="Trazado 643851" d="M272.3,413.745a3.366,3.366,0,0,0,3.382,1.635,3.98,3.98,0,0,0,.828-.236c1.875-.766,1.391-4.665,1.391-4.665l9.094-2.217s12.575,6.8,17.232,11.585,15.207-.2,15.207-.2l2.248-19.922-18.139-14.017s1.111.833-.28-1.944-6.634-1.28-6.634-1.28c-.939-1.354-4.457-1.593-4.457-1.593l-14.737,2.865a10.222,10.222,0,0,0-7.088,5.258l-5.517,10.441s-2.766,7.423-2.1,9.047a2.985,2.985,0,0,0,3.617,1.687s1.1,4.654,2.346,4.722a10.183,10.183,0,0,0,3.612-1.167" transform="translate(37.001 53.665)" fill="#ffc09d"/>
            <path id="Trazado_643852" data-name="Trazado 643852" d="M301.331,395.212c0,.157-2,.128-5.16.511a45.224,45.224,0,0,0-11.959,3.21,43.3,43.3,0,0,0-6.05,3.16c-1.718,1.15-3.529,2.127-4,3.481a1.815,1.815,0,0,0,.3,1.759,2.536,2.536,0,0,0,1.2.861,3.956,3.956,0,0,0,1.319.09c.039.018-.429.445-1.412.268a2.793,2.793,0,0,1-1.512-.881,2.382,2.382,0,0,1-.531-2.3,4.759,4.759,0,0,1,1.689-2.233c.768-.593,1.574-1.2,2.48-1.783a39.038,39.038,0,0,1,18.417-6.3,17.131,17.131,0,0,1,5.226.157" transform="translate(38.522 55.649)" fill="#ff9b6c"/>
            <path id="Trazado_643853" data-name="Trazado 643853" d="M302.756,403.447c0,.283-6.066.5-13.467,1.511-7.407.985-13.316,2.383-13.386,2.11a14.893,14.893,0,0,1,3.8-1.24,87.249,87.249,0,0,1,19.063-2.569,14.9,14.9,0,0,1,3.992.189" transform="translate(38.873 56.815)" fill="#ff9b6c"/>
            <path id="Trazado_643854" data-name="Trazado 643854" d="M271.232,412.368a6.818,6.818,0,0,1-.309-1.57,34.644,34.644,0,0,1-.347-4.354,18.431,18.431,0,0,1,.181-3.047,9.237,9.237,0,0,1,1.209-3.353,20.372,20.372,0,0,1,5.131-6.138,28.071,28.071,0,0,1,6.834-4.145,25.672,25.672,0,0,1,6.347-1.475c1.835-.208,3.319-.282,4.343-.323a5.234,5.234,0,0,1,1.6.039c.018.152-2.25.4-5.852.949a27.968,27.968,0,0,0-6.115,1.623,29.254,29.254,0,0,0-6.56,4.071,20.456,20.456,0,0,0-4.971,5.837,11.343,11.343,0,0,0-1.477,5.969c-.079,3.628.189,5.906-.016,5.917" transform="translate(38.122 54.658)" fill="#ff9b6c"/>
            <path id="Trazado_643855" data-name="Trazado 643855" d="M291.248,384.259c.013.141-2.21.373-5.731,1.056-3.382.789-8.836,1.464-11.589,6.422-3.045,4.55-5.6,8.824-6.6,12.245-1.076,3.4-.781,5.677-.978,5.676a4.122,4.122,0,0,1-.208-1.571,14.891,14.891,0,0,1,.537-4.29c.87-3.595,3.4-8.019,6.462-12.6a16.339,16.339,0,0,1,2.665-3.145,10.558,10.558,0,0,1,3.37-1.913,31.952,31.952,0,0,1,6.226-1.49c3.591-.52,5.839-.513,5.846-.394" transform="translate(37.496 54.13)" fill="#ff9b6c"/>
            <path id="Trazado_643856" data-name="Trazado 643856" d="M300.782,416.983a5.351,5.351,0,0,1-.935-.606L297.2,414.57a103.98,103.98,0,0,0-10.294-5.975l.214.025-9.078,2.278.284-.413a10.147,10.147,0,0,1,0,2.264,4.188,4.188,0,0,1-.873,2.294,2.289,2.289,0,0,1-1.179.656,3.248,3.248,0,0,1-1.289.177,3.779,3.779,0,0,1-2.388-1.091,4.037,4.037,0,0,1-.443-.513l-.1-.141-.047-.071-.023-.035,0-.006c-.122-.035,1.056.294.556.156l-.01,0-.018.01-.282.141c-.376.184-.761.354-1.157.512a10.141,10.141,0,0,1-1.237.412,4.475,4.475,0,0,1-.679.128,1.566,1.566,0,0,1-.865-.1,2.754,2.754,0,0,1-1-1.148,10.266,10.266,0,0,1-.554-1.231,21.987,21.987,0,0,1-.793-2.56l.566.331a3.506,3.506,0,0,1-3.521-.9,2.848,2.848,0,0,1-.777-1.8,8.32,8.32,0,0,1,.188-1.806,49.721,49.721,0,0,1,2.026-6.818l.01-.026.015-.031,2.941-5.57,1.866-3.53a18.3,18.3,0,0,1,2.08-3.44,9.946,9.946,0,0,1,3.166-2.476,12.967,12.967,0,0,1,3.732-1.082l13.894-2.661.06-.011.049,0a13.038,13.038,0,0,1,2.509.456,4.194,4.194,0,0,1,2.251,1.328l-.528-.121a5.155,5.155,0,0,1,4.8-.1,6.026,6.026,0,0,1,2.654,3.582l-.128-.186,12.5,9.6,3.371,2.656a8.331,8.331,0,0,1,1.135.981,8.192,8.192,0,0,1-1.257-.819q-1.314-.943-3.485-2.505c-3.086-2.274-7.4-5.455-12.684-9.351l-.086-.063-.042-.123a5.335,5.335,0,0,0-2.337-3.108,4.4,4.4,0,0,0-4.04.137l-.315.162-.213-.283a3.537,3.537,0,0,0-1.821-.994,12.432,12.432,0,0,0-2.335-.406l.109-.007-13.88,2.738a12.067,12.067,0,0,0-3.492,1.013,9.009,9.009,0,0,0-2.86,2.246,17.476,17.476,0,0,0-1.961,3.274l-1.865,3.53L265.3,399.73l.024-.056a49.581,49.581,0,0,0-2,6.664,7.6,7.6,0,0,0-.178,1.594,1.931,1.931,0,0,0,.536,1.228,2.6,2.6,0,0,0,2.584.65l.457-.112.11.443a21.594,21.594,0,0,0,.745,2.449,4.507,4.507,0,0,0,1.117,1.916.879.879,0,0,0,.378.011,3.74,3.74,0,0,0,.558-.1,9.576,9.576,0,0,0,1.133-.371c.373-.146.742-.307,1.1-.478l.266-.131.015-.008.007,0c-.5-.14.685.188.564.156v0l.019.029.037.056.074.112a3.11,3.11,0,0,0,.346.407,2.948,2.948,0,0,0,1.853.869,2.452,2.452,0,0,0,1.009-.137,1.5,1.5,0,0,0,.813-.418c.805-.981.805-2.623.71-3.924l-.024-.34.309-.073,9.11-2.155.116-.027.1.051A89.166,89.166,0,0,1,297.4,414.29c1.136.819,1.992,1.481,2.557,1.948a5.34,5.34,0,0,1,.829.746" transform="translate(36.945 53.612)" fill="#ff9b6c"/>
            <path id="Trazado_643857" data-name="Trazado 643857" d="M181.286,425.832l-32.3-84.814a4.878,4.878,0,0,1,4.558-6.613H257.255a4.878,4.878,0,0,1,4.416,2.809l31.057,80.9,65.146,1.106a4.877,4.877,0,0,1,0,9.754H185.844a4.876,4.876,0,0,1-4.558-3.141" transform="translate(20.946 47.115)" fill="#455a64"/>
            <path id="Trazado_643858" data-name="Trazado 643858" d="M217.417,376.689a6.8,6.8,0,1,1-6.8-6.8,6.8,6.8,0,0,1,6.8,6.8" transform="translate(28.715 52.114)" fill="#fff"/>
            <path id="Trazado_643859" data-name="Trazado 643859" d="M307.04,283.374c.147.082-1.238,2.675-3.181,6.993a120.826,120.826,0,0,0-9.893,35.462c-.572,4.7-.73,7.635-.9,7.629a8.075,8.075,0,0,1-.1-2.071c-.009-1.331.079-3.258.275-5.634a100.531,100.531,0,0,1,9.958-35.7c1.061-2.133,1.984-3.827,2.681-4.963a8.1,8.1,0,0,1,1.158-1.719" transform="translate(41.277 39.925)" fill="#263238"/>
            <path id="Trazado_643860" data-name="Trazado 643860" d="M439.693,337.746a4.828,4.828,0,0,1-1.055.164l-3.06.3-11.423.956L385.1,342.11l-.5.038-.032-.5c-.327-5.186-.673-10.664-1.028-16.3-.555-9.806-1.028-19.15-1.179-27.669a39.208,39.208,0,0,1,5.011-21.939,27.067,27.067,0,0,1,10.949-10.525,21.943,21.943,0,0,1,3.878-1.507,7.607,7.607,0,0,1,1.408-.343c.047.14-1.937.542-5.1,2.205a27.358,27.358,0,0,0-10.507,10.536,38.9,38.9,0,0,0-4.691,21.555c.2,8.491.7,17.83,1.257,27.628.346,5.628.682,11.1,1,16.286l-.535-.465,39.085-2.584,11.442-.662,3.072-.132a4.813,4.813,0,0,1,1.068.014" transform="translate(53.863 37.105)" fill="#263238"/>
            <path id="Trazado_643861" data-name="Trazado 643861" d="M351.319,362.382a6.148,6.148,0,0,1-1.708-.628,13.788,13.788,0,0,1-1.909-.956,23.3,23.3,0,0,1-2.414-1.481,34.719,34.719,0,0,1-5.626-4.773,37.279,37.279,0,0,1-8.874-15.606,34.771,34.771,0,0,1-1.225-7.275,23.3,23.3,0,0,1-.039-2.833,13.816,13.816,0,0,1,.155-2.129,6.226,6.226,0,0,1,.333-1.788c.2.018-.13,2.59.276,6.69a38.445,38.445,0,0,0,1.41,7.069,39.2,39.2,0,0,0,8.657,15.225,38.465,38.465,0,0,0,5.354,4.827c3.317,2.445,5.7,3.474,5.609,3.658" transform="translate(46.424 45.778)" fill="#263238"/>
          </g>
        </g>
      </g>
    </g>
    <rect id="Rectángulo_349405" data-name="Rectángulo 349405" width="610" height="477" transform="translate(810 416)" fill="none"/>
  </g>
</svg>
