<svg id="Grupo_881278" data-name="Grupo 881278" xmlns="http://www.w3.org/2000/svg" xmlns:xlink="http://www.w3.org/1999/xlink" width="574.792" height="356.08" viewBox="0 0 574.792 356.08">
  <defs>
    <clipPath id="clip-path">
      <rect id="Rectángulo_329839" data-name="Rectángulo 329839" width="574.792" height="356.08" fill="none"/>
    </clipPath>
    <clipPath id="clip-path-6">
      <rect id="Rectángulo_329819" data-name="Rectángulo 329819" width="48.239" height="63.317" fill="none"/>
    </clipPath>
    <clipPath id="clip-path-7">
      <rect id="Rectángulo_329820" data-name="Rectángulo 329820" width="55.328" height="81.541" fill="none"/>
    </clipPath>
    <clipPath id="clip-path-8">
      <rect id="Rectángulo_329821" data-name="Rectángulo 329821" width="35.233" height="47.349" fill="none"/>
    </clipPath>
    <clipPath id="clip-path-9">
      <rect id="Rectángulo_329822" data-name="Rectángulo 329822" width="19.578" height="41.889" fill="none"/>
    </clipPath>
    <clipPath id="clip-path-11">
      <rect id="Rectángulo_329826" data-name="Rectángulo 329826" width="49.229" height="30.739" fill="none"/>
    </clipPath>
    <clipPath id="clip-path-12">
      <rect id="Rectángulo_329827" data-name="Rectángulo 329827" width="44.674" height="33.23" fill="none"/>
    </clipPath>
    <clipPath id="clip-path-14">
      <rect id="Rectángulo_329832" data-name="Rectángulo 329832" width="12.54" height="36.623" fill="none"/>
    </clipPath>
  </defs>
  <g id="Grupo_881277" data-name="Grupo 881277" clip-path="url(#clip-path)">
    <g id="Grupo_881241" data-name="Grupo 881241">
      <g id="Grupo_881240" data-name="Grupo 881240" clip-path="url(#clip-path)">
        <path id="Trazado_634734" data-name="Trazado 634734" d="M610.122,137.024l-159.03-30.445a6.487,6.487,0,0,1-5.152-7.591L463.882,5.269A6.489,6.489,0,0,1,471.474.116L630.5,30.561a6.489,6.489,0,0,1,5.153,7.592l-17.941,93.718a6.488,6.488,0,0,1-7.592,5.152" transform="translate(-78.151 0)" fill="#f5f5f5"/>
        <path id="Trazado_634735" data-name="Trazado 634735" d="M570.9,84.573a13.323,13.323,0,1,1-10.58-15.59,13.323,13.323,0,0,1,10.58,15.59" transform="translate(-95.447 -12.05)" fill="#ebebeb"/>
        <path id="Trazado_634736" data-name="Trazado 634736" d="M555.936,87.082l1.478-7.721a.5.5,0,0,1,.815-.288l6.156,5.211a.5.5,0,0,1-.167.857l-7.633,2.51a.5.5,0,0,1-.648-.569" transform="translate(-97.452 -13.84)" fill="#fff"/>
        <path id="Trazado_634737" data-name="Trazado 634737" d="M458.947,114.852l-.053.276-1.294-.248.041-.218.824-.529c.2-.131.252-.228.271-.325.031-.161-.063-.275-.278-.316a.5.5,0,0,0-.446.1l-.195-.219a.824.824,0,0,1,.722-.163c.382.073.591.313.531.623a.717.717,0,0,1-.4.5l-.555.357Z" transform="translate(-80.216 -19.843)" fill="#fff"/>
        <path id="Trazado_634738" data-name="Trazado 634738" d="M459.606,114.152a.21.21,0,1,1,.167.248.209.209,0,0,1-.167-.248m-.183.956a.21.21,0,1,1,.167.247.206.206,0,0,1-.167-.247" transform="translate(-80.535 -19.98)" fill="#fff"/>
        <path id="Trazado_634739" data-name="Trazado 634739" d="M461.116,113.707l-.336,1.755-.325-.062.284-1.482-.372-.071.053-.274Z" transform="translate(-80.701 -19.909)" fill="#fff"/>
        <path id="Trazado_634740" data-name="Trazado 634740" d="M462.94,115.506l-.311-.059-.076.4-.317-.061.077-.4-.963-.184.043-.226,1.081-.965.349.067L461.8,115l.574.11.068-.353.306.059-.068.353.311.059Z" transform="translate(-80.873 -19.986)" fill="#fff"/>
        <rect id="Rectángulo_329812" data-name="Rectángulo 329812" width="0.717" height="135.451" transform="translate(384.939 96.024) rotate(-79.162)" fill="#fff"/>
        <rect id="Rectángulo_329813" data-name="Rectángulo 329813" width="1.912" height="42.329" transform="translate(384.755 96.444) rotate(-79.162)" fill="#ebebeb"/>
        <path id="Trazado_634741" data-name="Trazado 634741" d="M517.891,125.427a2.061,2.061,0,1,1-1.637-2.411,2.061,2.061,0,0,1,1.637,2.411" transform="translate(-90.068 -21.558)" fill="#ebebeb"/>
        <path id="Trazado_634742" data-name="Trazado 634742" d="M631.933,147.355a.6.6,0,0,1-.75.445c-.479-.092-.7-.454-.594-1.018a.847.847,0,0,1,1.039-.768.891.891,0,0,1,.44.2l-.167.223a.6.6,0,0,0-.318-.149c-.331-.064-.577.1-.654.5v0a.6.6,0,0,1,.5-.092.557.557,0,0,1,.5.655m-.319-.046c.035-.183-.081-.324-.294-.365a.325.325,0,0,0-.413.233c-.031.165.073.321.308.365a.309.309,0,0,0,.4-.233" transform="translate(-110.535 -25.592)" fill="#fff"/>
        <path id="Trazado_634743" data-name="Trazado 634743" d="M632.513,146.912a.21.21,0,1,1,.167.248.209.209,0,0,1-.167-.248m-.183.956a.21.21,0,1,1,.167.247.206.206,0,0,1-.167-.247" transform="translate(-110.845 -25.723)" fill="#fff"/>
        <path id="Trazado_634744" data-name="Trazado 634744" d="M633.239,147.255c.11-.577.489-.842.906-.763s.672.467.562,1.043-.489.842-.907.762-.671-.466-.56-1.042m1.139.218c.081-.424-.048-.651-.288-.7s-.441.118-.522.542.047.651.285.7.444-.117.525-.541" transform="translate(-111 -25.677)" fill="#fff"/>
        <path id="Trazado_634745" data-name="Trazado 634745" d="M635.279,147.646c.111-.577.489-.842.906-.763s.672.467.562,1.043-.489.842-.907.762-.671-.466-.56-1.042m1.139.218c.081-.424-.047-.651-.288-.7s-.441.118-.522.542.047.651.285.7.444-.117.524-.541" transform="translate(-111.358 -25.746)" fill="#fff"/>
        <path id="Trazado_634746" data-name="Trazado 634746" d="M640.432,148.277l-.7-.134.344-1.8,1.794.343-.134.7-1.089-.209Z" transform="translate(-112.142 -25.654)" fill="#fff"/>
        <path id="Trazado_634747" data-name="Trazado 634747" d="M640.982,151.314l-1.8-.344.344-1.794.7.134-.209,1.089,1.093.209Z" transform="translate(-112.047 -26.15)" fill="#fff"/>
        <path id="Trazado_634748" data-name="Trazado 634748" d="M644.419,152.015l-1.794-.343.134-.7,1.089.208.21-1.093.7.134Z" transform="translate(-112.65 -26.309)" fill="#fff"/>
        <path id="Trazado_634749" data-name="Trazado 634749" d="M645.007,149.141l-.7-.134.209-1.09-1.093-.209.135-.7,1.8.344Z" transform="translate(-112.789 -25.769)" fill="#fff"/>
        <path id="Trazado_634750" data-name="Trazado 634750" d="M636.824,43.808a28.615,28.615,0,0,1,3.656.5l.2.034-.037.2c-.248,1.373-.529,2.927-.832,4.6l-.108.6-.341-.5-.391-.573-.99-1.468.328.072-2.249,1.324-.425.25.1-.478c.293-1.418.566-2.587.759-3.379a5.711,5.711,0,0,1,.335-1.178,9.549,9.549,0,0,1-.15,1.355c-.116.821-.282,1.951-.516,3.283l-.326-.227c.693-.429,1.437-.887,2.221-1.369l.2-.121.132.193,1,1.461c.134.2.266.392.389.576l-.449.092c.338-1.671.651-3.22.927-4.589l.159.235a35.977,35.977,0,0,1-3.581-.89" transform="translate(-111.424 -7.677)" fill="#fff"/>
        <path id="Trazado_634751" data-name="Trazado 634751" d="M651.855,47.3a12.521,12.521,0,0,1-1.09.952c-.735.622-1.835,1.551-3.154,2.568l-.492.379.115-.614c.134-.719.277-1.485.425-2.28l.043-.223.041.19-1.3-1.866-.34-.487.578.119c1.586.326,2.936.67,3.836.9a12.7,12.7,0,0,1,1.343.364c-.052.012-.651-.082-1.6-.216s-2.214-.309-3.673-.585l.238-.368,1.326,1.852.061.085-.02.106-.043.223c-.156.793-.306,1.558-.447,2.278l-.378-.234c1.228-.916,2.322-1.652,3.145-2.211s1.334-.917,1.387-.93" transform="translate(-113.259 -8.049)" fill="#fff"/>
        <path id="Trazado_634752" data-name="Trazado 634752" d="M652.248,47.581c.029.134-.824.429-1.9.657a4.225,4.225,0,0,1-2.006.17c-.028-.134.824-.429,1.9-.657a4.225,4.225,0,0,1,2.006-.17" transform="translate(-113.651 -8.329)" fill="#fff"/>
        <path id="Trazado_634753" data-name="Trazado 634753" d="M660.371,48.376c0-.026.245-.038.651.112a2.6,2.6,0,0,1,1.35,1.211,2.772,2.772,0,0,1-.054,2.689,2.825,2.825,0,0,1-5.237-1,2.771,2.771,0,0,1,.943-2.52,2.6,2.6,0,0,1,1.7-.627c.433.011.653.111.647.136-.007.042-.238.009-.635.057a2.61,2.61,0,0,0-1.478.7,2.446,2.446,0,0,0-.725,2.185,2.386,2.386,0,0,0,4.389.84,2.446,2.446,0,0,0,.134-2.3,2.616,2.616,0,0,0-1.117-1.193c-.351-.192-.578-.247-.569-.288" transform="translate(-115.178 -8.456)" fill="#fff"/>
        <path id="Trazado_634754" data-name="Trazado 634754" d="M661.042,52.427c-.113.077-.6-.442-1.089-1.16l-.058-.085.019-.1,0-.015c.165-.861.407-1.538.543-1.512s.111.744-.054,1.6l0,.015-.038-.186c.487.72.789,1.363.676,1.44" transform="translate(-115.677 -8.686)" fill="#fff"/>
        <path id="Trazado_634755" data-name="Trazado 634755" d="M568.063,34.978c-.026.135-17.7-3.135-39.473-7.3s-39.408-7.658-39.382-7.793,17.7,3.135,39.476,7.3,39.4,7.657,39.379,7.792" transform="translate(-85.756 -3.485)" fill="#fff"/>
        <path id="Trazado_634756" data-name="Trazado 634756" d="M483.36,18.219a3.166,3.166,0,1,1-2.514-3.7,3.167,3.167,0,0,1,2.514,3.7" transform="translate(-83.631 -2.534)" fill="#fff"/>
        <path id="Trazado_634757" data-name="Trazado 634757" d="M82.716,345.055a4.928,4.928,0,0,0,2.108-1.414,4.521,4.521,0,0,0,1.027-2.84,7.362,7.362,0,0,0-.337-1.944l-.559-2.223c-1.569-6.335-3.821-15.425-6.6-26.64l-2.17-8.831q-.564-2.3-1.152-4.7a13.782,13.782,0,0,0-.668-2.315,4.106,4.106,0,0,0-1.544-1.705,3.873,3.873,0,0,0-2.254-.558,20.505,20.505,0,0,0-2.482.572l-5.19,1.349L52.06,296.62,3.807,309.09a4.062,4.062,0,0,0-2.895,4.6q.76,3.167,1.508,6.293l2.991,12.359c1.956,8.1,3.843,15.921,5.642,23.37q.336,1.4.669,2.774a4.266,4.266,0,0,0,1.207,2.256,3.889,3.889,0,0,0,2.246,1.068,6.77,6.77,0,0,0,2.555-.389l10.23-2.616,18.365-4.679,26.607-6.718,7.245-1.785,1.889-.444a3.963,3.963,0,0,1,.651-.124,3.662,3.662,0,0,1-.629.208l-1.868.525-7.205,1.94-26.54,6.979-18.339,4.781q-4.946,1.287-10.219,2.656a7.414,7.414,0,0,1-2.827.419,4.649,4.649,0,0,1-2.69-1.267,5.044,5.044,0,0,1-1.429-2.627q-.336-1.377-.677-2.773c-1.814-7.443-3.717-15.256-5.69-23.356l-3-12.357q-.756-3.156-1.524-6.356a4.912,4.912,0,0,1,3.52-5.558l48.271-12.408,10.843-2.776,5.195-1.328a19.592,19.592,0,0,1,2.618-.583,4.576,4.576,0,0,1,2.666.67,4.806,4.806,0,0,1,1.8,2.006,14,14,0,0,1,.706,2.455q.574,2.4,1.127,4.7,1.1,4.611,2.116,8.844c2.668,11.24,4.83,20.352,6.337,26.7q.276,1.183.522,2.232A7.5,7.5,0,0,1,86.1,340.8a4.671,4.671,0,0,1-1.15,2.949,4.256,4.256,0,0,1-1.6,1.123,2.437,2.437,0,0,1-.64.179" transform="translate(0 -51.04)" fill="#e0e0e0"/>
        <path id="Trazado_634758" data-name="Trazado 634758" d="M52.169,327.436l10.345,3.124-7.757,7.717L47,345.993l-2.588-10.841-2.589-10.841Z" transform="translate(-7.332 -56.851)" fill="#e0e0e0"/>
        <path id="Trazado_634759" data-name="Trazado 634759" d="M28.479,44.461a9.022,9.022,0,0,1-.12-1.7c-.026-1.209-.059-2.764-.1-4.628-.055-3.909-.09-9.308-.09-15.272,0-.265,0-.527,0-.771v-.308h.307c5.792,0,11,.038,14.758.094l4.445.1a8.374,8.374,0,0,1,1.625.118,8.513,8.513,0,0,1-1.625.117l-4.445.1c-3.759.055-8.966.091-14.758.094l.307-.307v.771c0,5.963-.034,11.363-.09,15.272-.039,1.865-.072,3.419-.1,4.628a9.111,9.111,0,0,1-.12,1.7" transform="translate(-4.938 -3.819)" fill="#e0e0e0"/>
        <path id="Trazado_634760" data-name="Trazado 634760" d="M79.632,77.654a13.353,13.353,0,0,1-.218-2.864c-.055-1.769-.09-4.213-.09-6.913,0-.12,0-.239,0-.35V67.22h.307c2.622,0,4.979.038,6.681.093a12.588,12.588,0,0,1,2.748.214,12.524,12.524,0,0,1-2.748.214c-1.7.055-4.059.091-6.681.093l.307-.307c0,.111,0,.23,0,.35,0,2.7-.035,5.144-.09,6.913a13.352,13.352,0,0,1-.218,2.864" transform="translate(-13.905 -11.783)" fill="#e0e0e0"/>
        <path id="Trazado_634761" data-name="Trazado 634761" d="M89.335,100.461a13.352,13.352,0,0,1-2.864.218c-1.769.055-4.213.09-6.913.09H78.9v-.307c0-2.622.038-4.979.093-6.681a12.523,12.523,0,0,1,.214-2.748,12.525,12.525,0,0,1,.214,2.748c.055,1.7.091,4.059.093,6.681l-.307-.307h.35c2.7,0,5.144.035,6.913.091a13.327,13.327,0,0,1,2.864.217" transform="translate(-13.831 -15.958)" fill="#e0e0e0"/>
        <path id="Trazado_634762" data-name="Trazado 634762" d="M124.179,90.609a13.353,13.353,0,0,1,.218,2.864c.055,1.769.09,4.213.09,6.913,0,.12,0,.239,0,.35v.308h-.307c-2.622,0-4.979-.038-6.681-.093a12.524,12.524,0,0,1-2.748-.214,12.525,12.525,0,0,1,2.748-.214c1.7-.055,4.059-.091,6.681-.093l-.307.307v-.35c0-2.7.034-5.144.09-6.913a13.327,13.327,0,0,1,.217-2.864" transform="translate(-20.115 -15.883)" fill="#e0e0e0"/>
        <path id="Trazado_634763" data-name="Trazado 634763" d="M114.327,67.528a13.324,13.324,0,0,1,2.864-.217c1.769-.056,4.213-.091,6.913-.091h.656v.307c0,2.622-.038,4.979-.093,6.681a12.524,12.524,0,0,1-.214,2.748,12.586,12.586,0,0,1-.214-2.748c-.055-1.7-.091-4.059-.093-6.681l.307.307H124.1c-2.7,0-5.145-.035-6.913-.091a13.327,13.327,0,0,1-2.864-.217" transform="translate(-20.041 -11.783)" fill="#e0e0e0"/>
        <path id="Trazado_634764" data-name="Trazado 634764" d="M49.914,143.219a9.105,9.105,0,0,1-1.7.12l-4.629.1c-3.909.056-9.308.091-15.272.091H27.237v-.307c0-5.792.038-11,.093-14.758.039-1.79.072-3.282.1-4.445a8.514,8.514,0,0,1,.117-1.625,8.375,8.375,0,0,1,.118,1.625c.025,1.163.057,2.655.1,4.445.055,3.759.091,8.966.094,14.758l-.308-.307h.772c5.963,0,11.363.035,15.272.091l4.629.1a9.015,9.015,0,0,1,1.7.12" transform="translate(-4.775 -21.455)" fill="#e0e0e0"/>
        <path id="Trazado_634765" data-name="Trazado 634765" d="M171.662,120.521a9.256,9.256,0,0,1,.119,1.7c.026,1.21.059,2.764.1,4.629.055,3.909.09,9.308.09,15.272,0,.264,0,.527,0,.771v.308h-.306c-5.793,0-11-.038-14.759-.094l-4.445-.1a8.513,8.513,0,0,1-1.625-.117,8.375,8.375,0,0,1,1.625-.118l4.445-.1c3.759-.055,8.966-.09,14.759-.093l-.308.307c0-.244,0-.507,0-.771,0-5.963.035-11.363.09-15.272.04-1.865.073-3.419.1-4.629a8.878,8.878,0,0,1,.12-1.7" transform="translate(-26.44 -21.127)" fill="#e0e0e0"/>
        <path id="Trazado_634766" data-name="Trazado 634766" d="M149.9,22.091a9.017,9.017,0,0,1,1.7-.12l4.629-.1c3.908-.055,9.308-.09,15.272-.09h1.079v.307c0,5.792-.038,11-.094,14.758-.039,1.79-.071,3.282-.1,4.445a8.345,8.345,0,0,1-.117,1.625,8.513,8.513,0,0,1-.117-1.625c-.025-1.163-.057-2.655-.1-4.445-.055-3.759-.09-8.966-.093-14.758l.307.307H171.5c-5.963,0-11.364-.035-15.272-.091l-4.629-.1a9.107,9.107,0,0,1-1.7-.12" transform="translate(-26.277 -3.818)" fill="#e0e0e0"/>
        <path id="Trazado_634767" data-name="Trazado 634767" d="M166.454,31.819a2.081,2.081,0,1,1-2.081-2.081,2.081,2.081,0,0,1,2.081,2.081" transform="translate(-28.449 -5.213)" fill="#e0e0e0"/>
        <path id="Trazado_634768" data-name="Trazado 634768" d="M43.862,33.9H34.919a.407.407,0,0,1-.407-.407V30.145a.407.407,0,0,1,.407-.407h8.943a.407.407,0,0,1,.407.407v3.347a.407.407,0,0,1-.407.407" transform="translate(-6.05 -5.213)" fill="#e0e0e0"/>
        <rect id="Rectángulo_329814" data-name="Rectángulo 329814" width="1.71" height="1.872" transform="translate(38.837 25.67)" fill="#e0e0e0"/>
      </g>
    </g>
    <g id="Grupo_881243" data-name="Grupo 881243">
      <g id="Grupo_881242" data-name="Grupo 881242" clip-path="url(#clip-path)">
        <path id="Trazado_634769" data-name="Trazado 634769" d="M560.273,431.46c0,.119-120,.214-267.985.214-148.04,0-268.01-.1-268.01-.214s119.97-.214,268.01-.214c147.989,0,267.985.1,267.985.214" transform="translate(-4.256 -75.596)" fill="#263238"/>
      </g>
    </g>
    <g id="Grupo_881245" data-name="Grupo 881245">
      <g id="Grupo_881244" data-name="Grupo 881244" clip-path="url(#clip-path)">
        <path id="Trazado_634770" data-name="Trazado 634770" d="M494.8,99.027v263a9.524,9.524,0,0,1-9.525,9.524H99.558a9.524,9.524,0,0,1-9.525-9.524v-263A9.525,9.525,0,0,1,99.558,89.5H485.277a9.525,9.525,0,0,1,9.525,9.525" transform="translate(-15.782 -15.689)" fill="#263238"/>
        <rect id="Rectángulo_329817" data-name="Rectángulo 329817" width="338.031" height="264.264" transform="translate(101.942 82.708)" fill="#ebebeb"/>
        <path id="Trazado_634771" data-name="Trazado 634771" d="M553.875,247.382A10.822,10.822,0,1,1,543.052,258.2a10.822,10.822,0,0,1,10.823-10.822" transform="translate(-95.195 -43.365)" fill="#455a64"/>
        <path id="Trazado_634772" data-name="Trazado 634772" d="M108.64,210v82.945a1,1,0,0,1-1,1h-2.467a1,1,0,0,1-1-1V210a1,1,0,0,1,1-1h2.467a1,1,0,0,1,1,1" transform="translate(-18.26 -36.637)" fill="#455a64"/>
      </g>
    </g>
    <g id="Grupo_881259" data-name="Grupo 881259">
      <g id="Grupo_881258" data-name="Grupo 881258" clip-path="url(#clip-path)">
        <path id="Trazado_634773" data-name="Trazado 634773" d="M258.96,164.021c-1.287,9.214-.308,16.936-5.8,24.194-2.156,2.851-5.121,5.279-6.1,8.717-.683,2.4-.288,5.008-.934,7.422-1.527,5.714-7.94,8.282-12.6,11.929-5.908,4.628-9.432,11.769-11.093,19.088s-1.635,14.9-1.6,22.407c.015,3.2.277,6.909,2.887,8.764,1.791,1.272,4.166,1.25,6.362,1.178l42.362-1.4a3.824,3.824,0,0,0,4.66-3.947q5.495-35.478,10.989-70.954Z" transform="translate(-38.711 -28.752)" fill="#263238"/>
        <path id="Trazado_634774" data-name="Trazado 634774" d="M393.8,170.369c-5.507-22.669,4.609-19.795,1.64-42.933-.744-5.8-5.271-32.495-7.442-37.919-5.65-14.115-29.108-42.467-57.4-22.7-1.433,3.761,1.935,16.57,4.872,19.324s16.217-6.288,18.7-3.121c1.945,2.482,3.043,5.512,4.693,8.2,1.515,2.469,3.5,4.648,4.8,7.233a29.557,29.557,0,0,1,2.477,9.741c1.347,10.663,1.745,21.606-.765,32.057-2.873,11.966-9.417,22.751-12.868,34.564a69.98,69.98,0,0,0-1.19,34.377,16.775,16.775,0,0,0,2.539,6.5c3.035,4.108,9.015,5.093,13.913,3.644s8.957-4.832,12.791-8.207c3.351-2.95,6.7-6.021,8.98-9.859,2.487-4.185,3.56-9.035,4.6-13.792a37.781,37.781,0,0,0,1.146-7.923,38.894,38.894,0,0,0-1.49-9.193" transform="translate(-57.892 -10.524)" fill="#263238"/>
        <path id="Trazado_634775" data-name="Trazado 634775" d="M349.61,192.343h0c.082-8.712-.006-10.731,0-10.65,0,0,18.37-3.092,22.124-27.077,1.867-11.929,1.225-31.477.183-47.456-.938-14.383-10.508-32.01-24.837-30.462L302.351,88.108a8.434,8.434,0,0,0-7.526,8.57l5.01,96.151a6.95,6.95,0,0,0,1.37,2.279c10.3,13.552,27.668,20.878,41.582,11.074a22.554,22.554,0,0,0,6.824-13.839" transform="translate(-51.681 -13.428)" fill="#ffbe9d"/>
        <path id="Trazado_634776" data-name="Trazado 634776" d="M375.823,132.814a3.075,3.075,0,0,1-2.958,3.109,2.941,2.941,0,0,1-3.176-2.765,3.076,3.076,0,0,1,2.955-3.111,2.943,2.943,0,0,1,3.179,2.767" transform="translate(-64.805 -22.796)" fill="#263238"/>
        <path id="Trazado_634777" data-name="Trazado 634777" d="M337.8,133.638a3.075,3.075,0,0,1-2.958,3.109,2.941,2.941,0,0,1-3.175-2.765,3.075,3.075,0,0,1,2.955-3.111,2.941,2.941,0,0,1,3.178,2.767" transform="translate(-58.139 -22.94)" fill="#263238"/>
        <path id="Trazado_634778" data-name="Trazado 634778" d="M339.867,127.828c-.514.146-2.7-1.749-6.345-2.8-3.636-1.08-6.7-.717-7-1.1-.153-.176.435-.537,1.78-.713a14.577,14.577,0,0,1,5.719.55,13.194,13.194,0,0,1,4.935,2.561c.943.844,1.16,1.44.915,1.5" transform="translate(-57.233 -21.584)" fill="#263238"/>
        <path id="Trazado_634779" data-name="Trazado 634779" d="M380.106,123.645c-.34.411-3.211.082-6.814,1.282-3.609,1.167-5.93,3.2-6.4,3.056-.226-.059.054-.689,1.064-1.595a14.58,14.58,0,0,1,5.027-2.783,13.174,13.174,0,0,1,5.518-.68c1.255.164,1.772.532,1.6.721" transform="translate(-64.302 -21.536)" fill="#263238"/>
        <path id="Trazado_634780" data-name="Trazado 634780" d="M358.036,150.7c-.016-.188,2.04-.548,5.372-.981.844-.089,1.644-.259,1.785-.835a4.3,4.3,0,0,0-.57-2.5q-1.2-3.064-2.513-6.428c-3.49-9.153-6.019-16.68-5.649-16.817s3.5,7.17,6.989,16.323q1.259,3.385,2.408,6.467a4.89,4.89,0,0,1,.445,3.315,2.123,2.123,0,0,1-1.386,1.239,5.706,5.706,0,0,1-1.434.2c-3.354.188-5.436.208-5.448.02" transform="translate(-62.48 -21.584)" fill="#263238"/>
        <path id="Trazado_634781" data-name="Trazado 634781" d="M354.424,202.224a61,61,0,0,1-32.13-8.494s8.111,16.58,32.1,14.283Z" transform="translate(-56.497 -33.96)" fill="#eb996e"/>
        <path id="Trazado_634782" data-name="Trazado 634782" d="M340.592,116.768c-.324.9-3.629.481-7.51.957-3.891.4-7.018,1.542-7.536.736-.23-.385.313-1.233,1.578-2.107a13.163,13.163,0,0,1,11.463-1.291c1.427.572,2.145,1.277,2.006,1.7" transform="translate(-57.058 -20.037)" fill="#263238"/>
        <path id="Trazado_634783" data-name="Trazado 634783" d="M382.449,116.136c-.7.753-3.471-.021-6.8-.05-3.324-.125-6.139.519-6.789-.266-.285-.381.157-1.134,1.385-1.849a10.936,10.936,0,0,1,5.522-1.244,10.733,10.733,0,0,1,5.423,1.5c1.177.769,1.564,1.543,1.254,1.91" transform="translate(-64.646 -19.76)" fill="#263238"/>
        <path id="Trazado_634784" data-name="Trazado 634784" d="M329.417,74.49a4.128,4.128,0,0,0-1.078-1.273c-7.1-6.235-17.687-7.773-26.652-4.788S286.46,82.752,282.221,91.2c-3.428,6.829-7.167,16.766-7.327,24.429-1.126,6.91-1.359,7.232-3.559,13.871-2.533,7.644-6.164,15.318-5.421,23.337.492,5.3,2.9,10.455,2.241,15.735-.666,5.373-4.4,9.915-5.54,15.206-.737,3.411-.365,6.977-.051,10.418a91.26,91.26,0,0,0,2.108,13.359,3.723,3.723,0,0,0,.845,1.765,4.572,4.572,0,0,0,1.918,1c11.5,3.8,23.527,7.654,35.5,5.831a4.419,4.419,0,0,0,2.37-.886,1.036,1.036,0,0,0,.24-.339c3.351-7.326-9.247-16.844-9.614-24.989-.36-8-1.036-16.839,4.312-22.8,4.585-5.109,5.657-10.985.829-24.685a28.959,28.959,0,0,1-1.714-8.76c-.011-.381-.011-.76,0-1.136.33-9.063,8.577-15.414,14.751-22.058A59.833,59.833,0,0,0,329.6,76.862a4.373,4.373,0,0,0-.184-2.372" transform="translate(-45.96 -11.738)" fill="#263238"/>
        <path id="Trazado_634785" data-name="Trazado 634785" d="M342.953,76.668c2.19,4.38,7.337,6.208,11.891,8.012a93.115,93.115,0,0,1,14.2,7.086,22.727,22.727,0,0,1,5.449,4.251c2.233,2.563,3.361,5.884,4.368,9.132q1.972,6.368,3.583,12.841c3.146-8.339,4.032-17.681,1.512-26.231s-8.659-16.172-16.9-19.578S348.6,70.063,342.046,76.1" transform="translate(-59.959 -12.329)" fill="#263238"/>
        <path id="Trazado_634786" data-name="Trazado 634786" d="M268.918,153.241a24.869,24.869,0,0,1-.259-4.041,33.473,33.473,0,0,1,10.984-24.388c4.592-4.2,10.671-7.37,16.76-10.983a58.928,58.928,0,0,0,15.364-12.612,62.863,62.863,0,0,0,5.163-7.014,59.99,59.99,0,0,0,3.587-6.691,55.71,55.71,0,0,0,3.6-10.385c.336-1.257.495-2.256.639-2.926.068-.317.12-.568.162-.764a1.215,1.215,0,0,1,.069-.257,1.231,1.231,0,0,1-.026.265l-.12.771c-.117.676-.25,1.682-.562,2.949A53.244,53.244,0,0,1,320.8,87.638a59.106,59.106,0,0,1-3.562,6.753,62.216,62.216,0,0,1-5.165,7.083,55.684,55.684,0,0,1-6.9,6.8,64.366,64.366,0,0,1-8.545,5.924c-6.11,3.623-12.161,6.767-16.717,10.908a33.079,33.079,0,0,0-9.017,13.35,34.118,34.118,0,0,0-2.065,10.748c-.023,1.3,0,2.309.051,2.992.017.323.031.58.041.779a1.247,1.247,0,0,1,0,.267" transform="translate(-47.095 -12.828)" fill="#455a64"/>
        <path id="Trazado_634787" data-name="Trazado 634787" d="M269.4,167.2a1.484,1.484,0,0,1-.054-.287c-.029-.212-.067-.492-.115-.847-.107-.744-.211-1.848-.306-3.273a42.412,42.412,0,0,1,.933-12.036,30.717,30.717,0,0,1,2.975-7.812,28.881,28.881,0,0,1,5.973-7.5,75.509,75.509,0,0,1,8.353-6.522c3.007-2.105,6.177-4.2,9.2-6.638a80.149,80.149,0,0,0,14.808-16.018,137.791,137.791,0,0,0,9.327-15.255c2.4-4.5,4.207-8.207,5.452-10.771l1.435-2.954.381-.764a1.48,1.48,0,0,1,.143-.255,1.371,1.371,0,0,1-.1.273c-.087.2-.2.455-.343.783l-1.362,2.989c-1.2,2.588-2.967,6.32-5.335,10.842a133.643,133.643,0,0,1-9.272,15.343,79.647,79.647,0,0,1-14.861,16.124c-3.039,2.453-6.218,4.551-9.223,6.648a76.071,76.071,0,0,0-8.325,6.467,28.666,28.666,0,0,0-5.931,7.383,30.622,30.622,0,0,0-2.99,7.709,43.614,43.614,0,0,0-1.061,11.957c.069,1.422.145,2.526.224,3.272.031.356.055.637.073.851a1.5,1.5,0,0,1,.011.292" transform="translate(-47.126 -13.369)" fill="#455a64"/>
        <path id="Trazado_634788" data-name="Trazado 634788" d="M383.857,120.078a.744.744,0,0,1,.077-.193l.262-.544c.111-.241.28-.524.422-.883s.291-.785.464-1.252a16.876,16.876,0,0,0,.366-8.391A24.191,24.191,0,0,0,379.854,97.7c-3.135-3.57-7.59-6.484-12.5-8.908-4.935-2.422-9.858-4.263-14.213-6.241A59.524,59.524,0,0,1,342.1,76.288a30.368,30.368,0,0,1-6.128-5.97l-.78-1.1c-.219-.322-.379-.612-.519-.838l-.307-.522a.721.721,0,0,1-.092-.186.828.828,0,0,1,.129.163l.342.5c.152.218.322.5.551.811l.807,1.067a31.616,31.616,0,0,0,6.175,5.827A60.86,60.86,0,0,0,353.3,82.189c4.346,1.951,9.277,3.782,14.24,6.217,4.94,2.439,9.435,5.389,12.607,9.032a24.262,24.262,0,0,1,5.595,11.319,16.675,16.675,0,0,1-.506,8.5q-.283.7-.506,1.251c-.157.356-.339.636-.463.872l-.3.525a.709.709,0,0,1-.115.172" transform="translate(-58.597 -11.863)" fill="#455a64"/>
        <path id="Trazado_634789" data-name="Trazado 634789" d="M354.232,164.016l-5.026-1.639a1.575,1.575,0,0,0-1-.093,1.438,1.438,0,0,0-.711.8,11.68,11.68,0,0,0-1.307,3.819,4.635,4.635,0,0,0,1.081,3.719,3.593,3.593,0,0,0,3.884.874,4.629,4.629,0,0,0,2.336-3.129,24.975,24.975,0,0,1,1.257-3.719Z" transform="translate(-60.678 -28.439)" fill="#eb996e"/>
        <path id="Trazado_634790" data-name="Trazado 634790" d="M351.058,171.38c.026.04-.193.275-.727.468a3.6,3.6,0,0,1-2.373-.046,4.38,4.38,0,0,1-2.515-2.486,6.088,6.088,0,0,1-.078-4.3A8.632,8.632,0,0,1,346.34,163a2.9,2.9,0,0,1,1.773-1.367,3.463,3.463,0,0,1,1.955.331l1.435.633a11.238,11.238,0,0,1,2.753,1.437,11.25,11.25,0,0,1-2.98-.873l-1.464-.532a2.886,2.886,0,0,0-1.536-.221,2.168,2.168,0,0,0-1.231,1.053,8.335,8.335,0,0,0-.862,1.817,5.53,5.53,0,0,0-.006,3.738,3.9,3.9,0,0,0,2.006,2.218,3.715,3.715,0,0,0,2.066.286c.5-.077.776-.205.809-.144" transform="translate(-60.479 -28.328)" fill="#263238"/>
        <path id="Trazado_634791" data-name="Trazado 634791" d="M361.861,128.132a10.419,10.419,0,0,1-1.357-.53,7.451,7.451,0,0,0-3.376-.426,6.2,6.2,0,0,0-3.106,1.319c-.685.558-1.027,1.009-1.087.962a3.077,3.077,0,0,1,.887-1.191,5.781,5.781,0,0,1,3.253-1.517,6.707,6.707,0,0,1,3.543.572,3.371,3.371,0,0,1,1.242.812" transform="translate(-61.868 -22.211)" fill="#455a64"/>
        <path id="Trazado_634792" data-name="Trazado 634792" d="M346.7,130.31a1.1,1.1,0,0,1-.035-.248c-.015-.188-.034-.427-.058-.727a7.759,7.759,0,0,0-.14-1.175,11.327,11.327,0,0,0-.329-1.578,14.676,14.676,0,0,0-1.712-4.051,15.194,15.194,0,0,0-18.245-6.456,14.265,14.265,0,0,0-3.832,2.066,13.874,13.874,0,0,0-3.2,3.218,15.081,15.081,0,0,0,0,17.9,13.881,13.881,0,0,0,3.2,3.219,14.232,14.232,0,0,0,3.832,2.067,15.238,15.238,0,0,0,18.246-6.457,14.671,14.671,0,0,0,1.711-4.051,11.181,11.181,0,0,0,.329-1.578,7.75,7.75,0,0,0,.14-1.174c.024-.3.043-.539.058-.727a1.1,1.1,0,0,1,.035-.248,1.046,1.046,0,0,1,.009.249c0,.189-.009.43-.016.732a7.015,7.015,0,0,1-.1,1.187,10.786,10.786,0,0,1-.293,1.6,14.514,14.514,0,0,1-1.667,4.133,15.482,15.482,0,0,1-10.421,7.356,15.551,15.551,0,0,1-8.165-.65,14.581,14.581,0,0,1-3.943-2.109,14.244,14.244,0,0,1-3.3-3.3,15.465,15.465,0,0,1,0-18.4,14.259,14.259,0,0,1,3.3-3.3,14.6,14.6,0,0,1,3.942-2.108,15.556,15.556,0,0,1,8.165-.651,15.482,15.482,0,0,1,10.421,7.356,14.545,14.545,0,0,1,1.668,4.133,10.8,10.8,0,0,1,.293,1.6,7,7,0,0,1,.1,1.187c.007.3.012.543.016.732a1.046,1.046,0,0,1-.009.249" transform="translate(-55.355 -20.122)" fill="#455a64"/>
        <path id="Trazado_634793" data-name="Trazado 634793" d="M325.791,144.666a2.2,2.2,0,0,1-.712-.19,10.6,10.6,0,0,1-1.811-.865,12.34,12.34,0,0,1-6.048-11.164,10.648,10.648,0,0,1,.264-1.99,2.167,2.167,0,0,1,.231-.7c.077.016-.191,1.031-.191,2.7a12.859,12.859,0,0,0,5.9,10.9c1.394.909,2.391,1.239,2.362,1.312" transform="translate(-55.605 -22.746)" fill="#fff"/>
        <path id="Trazado_634794" data-name="Trazado 634794" d="M331.616,149.278c-.015.118-.239.186-.5.154s-.463-.155-.448-.273.239-.186.5-.153.463.154.448.272" transform="translate(-57.965 -26.119)" fill="#fff"/>
        <path id="Trazado_634795" data-name="Trazado 634795" d="M393.694,130.31a1.1,1.1,0,0,1-.035-.248c-.015-.188-.034-.427-.058-.727a7.768,7.768,0,0,0-.14-1.175,11.309,11.309,0,0,0-.329-1.578,14.7,14.7,0,0,0-1.712-4.051,15.194,15.194,0,0,0-18.245-6.456,14.264,14.264,0,0,0-3.832,2.066,13.874,13.874,0,0,0-3.2,3.218,15.081,15.081,0,0,0,0,17.9,13.881,13.881,0,0,0,3.2,3.219,14.232,14.232,0,0,0,3.832,2.067,15.238,15.238,0,0,0,18.246-6.457,14.667,14.667,0,0,0,1.711-4.051,11.286,11.286,0,0,0,.329-1.578,7.759,7.759,0,0,0,.14-1.174c.024-.3.043-.539.058-.727a1.1,1.1,0,0,1,.035-.248,1.043,1.043,0,0,1,.009.249c0,.189-.009.43-.016.732a7.021,7.021,0,0,1-.1,1.187,10.786,10.786,0,0,1-.293,1.6,14.515,14.515,0,0,1-1.668,4.133,15.481,15.481,0,0,1-10.421,7.356,15.554,15.554,0,0,1-8.166-.65,14.59,14.59,0,0,1-3.942-2.109,14.243,14.243,0,0,1-3.3-3.3,15.465,15.465,0,0,1,0-18.4,14.262,14.262,0,0,1,3.3-3.3,14.6,14.6,0,0,1,3.941-2.108,15.56,15.56,0,0,1,8.165-.651,15.482,15.482,0,0,1,10.421,7.356,14.544,14.544,0,0,1,1.668,4.133,10.8,10.8,0,0,1,.293,1.6,7.008,7.008,0,0,1,.1,1.187c.007.3.012.543.016.732a1.044,1.044,0,0,1-.009.249" transform="translate(-63.592 -20.122)" fill="#455a64"/>
        <path id="Trazado_634796" data-name="Trazado 634796" d="M367.538,140.008a2.364,2.364,0,0,1-.474-.6,12.737,12.737,0,0,1-1-1.814,14.954,14.954,0,0,1,.423-13.266,12.666,12.666,0,0,1,1.117-1.746c.3-.387.49-.581.511-.564.062.045-.607.9-1.358,2.447a15.845,15.845,0,0,0-.415,13.009c.651,1.6,1.264,2.489,1.2,2.529" transform="translate(-63.933 -21.39)" fill="#fff"/>
        <path id="Trazado_634797" data-name="Trazado 634797" d="M370.128,146.11c-.089.078-.347-.071-.577-.333s-.343-.539-.253-.616.347.071.576.333.343.538.254.616" transform="translate(-64.731 -25.442)" fill="#fff"/>
        <path id="Trazado_634798" data-name="Trazado 634798" d="M271.667,217.079l22.515-6.1s8.806,21.092,28.6,20.895c21.7-.217,19.562-19.719,19.562-19.719l40.015,6.469,5.658,68.5s-3.353,60.978-9.4,74.66l9.4,22.172H255.376l-2.13-157.473Z" transform="translate(-44.393 -36.983)" fill="#ffb338"/>
        <path id="Trazado_634799" data-name="Trazado 634799" d="M366.019,329.471c1.2-.729,2.5-.976,3.456-1.513s2.448-.316,2.753.733c.347,1.191-1,2.132-2.13,2.643,2.6,1.249,6.142-1.5,8.381.313,1.463,1.185,1.117,3.681-.236,4.99s-3.329,1.711-5.2,1.931a14.585,14.585,0,0,0-5.469,1.251c-.863.479-1.682,1.412-1.381,2.35.514,1.593,3.48,1.25,3.846,2.884.247,1.1-.978,1.925-2.01,2.39l-11.259,5.074a6.278,6.278,0,0,1-3.129.8,2.163,2.163,0,0,1-2.057-2.1c.11-1.064,1.254-1.717,2.313-1.874a21,21,0,0,0,3.186-.321c1.023-.317,1.956-1.385,1.582-2.387-.467-1.247-2.247-1.139-3.534-.8l-11.952,3.17a5.073,5.073,0,0,1-2.679.213,1.746,1.746,0,0,1-1.314-2.045,2.4,2.4,0,0,1,.92-1.046,24.136,24.136,0,0,1,9.652-4.328,12.713,12.713,0,0,0,3.867-1.1,3.224,3.224,0,0,0,1.771-3.321,34.478,34.478,0,0,1-7.63,1.817c-.929.112-2.145.008-2.412-.888-.275-.924.746-1.676,1.611-2.1l13.909-6.854c1.183-.582,2.532-1.177,3.771-.727Z" transform="translate(-59.446 -57.44)" fill="#fff"/>
        <path id="Trazado_634800" data-name="Trazado 634800" d="M300.452,383.14c1.2-.728,2.5-.975,3.455-1.513s2.448-.316,2.753.732c.347,1.192-1,2.133-2.13,2.644,2.6,1.249,6.142-1.5,8.381.313,1.463,1.187,1.117,3.681-.236,4.991a8.768,8.768,0,0,1-5.2,1.931,14.586,14.586,0,0,0-5.469,1.25c-.863.48-1.682,1.413-1.381,2.351.514,1.592,3.48,1.25,3.846,2.883.247,1.1-.978,1.925-2.01,2.39L291.2,406.188a6.278,6.278,0,0,1-3.129.8,2.162,2.162,0,0,1-2.057-2.1c.11-1.064,1.255-1.717,2.313-1.874a21.01,21.01,0,0,0,3.186-.321c1.023-.317,1.956-1.385,1.582-2.387-.467-1.247-2.247-1.139-3.534-.8l-11.952,3.17a5.074,5.074,0,0,1-2.679.213,1.746,1.746,0,0,1-1.314-2.044,2.4,2.4,0,0,1,.92-1.047,24.134,24.134,0,0,1,9.652-4.327,12.738,12.738,0,0,0,3.867-1.1,3.224,3.224,0,0,0,1.771-3.32,34.571,34.571,0,0,1-7.63,1.816c-.929.111-2.145.007-2.412-.888-.275-.925.746-1.677,1.611-2.1l13.909-6.854c1.183-.583,2.532-1.177,3.771-.727Z" transform="translate(-47.953 -66.848)" fill="#fff"/>
        <path id="Trazado_634801" data-name="Trazado 634801" d="M375.887,390.448c1.2-.729,2.5-.976,3.456-1.513s2.448-.316,2.753.733c.347,1.191-1,2.132-2.13,2.643,2.6,1.249,6.142-1.5,8.381.313,1.463,1.185,1.117,3.682-.236,4.99s-3.329,1.711-5.2,1.931a14.586,14.586,0,0,0-5.469,1.251c-.863.479-1.682,1.412-1.381,2.35.514,1.593,3.48,1.25,3.846,2.884.247,1.1-.978,1.925-2.01,2.39L366.638,413.5a6.28,6.28,0,0,1-3.129.8,2.163,2.163,0,0,1-2.057-2.1c.11-1.064,1.254-1.717,2.313-1.874a21.012,21.012,0,0,0,3.186-.321c1.023-.317,1.956-1.385,1.582-2.387-.467-1.247-2.247-1.139-3.534-.8l-11.952,3.17a5.074,5.074,0,0,1-2.679.213,1.746,1.746,0,0,1-1.314-2.045,2.4,2.4,0,0,1,.92-1.046,24.136,24.136,0,0,1,9.652-4.328,12.737,12.737,0,0,0,3.867-1.1,3.224,3.224,0,0,0,1.771-3.321,34.52,34.52,0,0,1-7.63,1.817c-.929.112-2.145.008-2.412-.888-.275-.924.745-1.676,1.611-2.1l13.909-6.854c1.183-.582,2.532-1.177,3.771-.727Z" transform="translate(-61.176 -68.129)" fill="#fff"/>
        <path id="Trazado_634802" data-name="Trazado 634802" d="M310.751,295.344c1.2-.729,2.5-.976,3.456-1.513s2.448-.316,2.753.733c.347,1.191-1,2.132-2.13,2.643,2.6,1.249,6.142-1.5,8.381.313,1.463,1.185,1.117,3.681-.236,4.99s-3.329,1.711-5.2,1.931a14.585,14.585,0,0,0-5.469,1.251c-.863.479-1.682,1.412-1.381,2.35.514,1.593,3.48,1.25,3.846,2.884.247,1.1-.978,1.925-2.01,2.39L301.5,318.391a6.278,6.278,0,0,1-3.129.8,2.163,2.163,0,0,1-2.057-2.1c.11-1.064,1.254-1.717,2.313-1.874a21.1,21.1,0,0,0,3.186-.321c1.023-.317,1.956-1.385,1.582-2.387-.467-1.247-2.247-1.139-3.534-.8l-11.952,3.17a5.073,5.073,0,0,1-2.679.213,1.746,1.746,0,0,1-1.314-2.045,2.4,2.4,0,0,1,.92-1.046,24.135,24.135,0,0,1,9.652-4.328,12.735,12.735,0,0,0,3.867-1.1,3.223,3.223,0,0,0,1.771-3.321,34.524,34.524,0,0,1-7.63,1.817c-.929.112-2.145.008-2.412-.888-.275-.924.746-1.676,1.611-2.1l13.909-6.854c1.183-.582,2.532-1.177,3.771-.727Z" transform="translate(-49.758 -51.458)" fill="#fff"/>
        <g id="Grupo_881248" data-name="Grupo 881248" transform="translate(287.944 259.271)" opacity="0.2">
          <g id="Grupo_881247" data-name="Grupo 881247">
            <g id="Grupo_881246" data-name="Grupo 881246" clip-path="url(#clip-path-6)">
              <path id="Trazado_634803" data-name="Trazado 634803" d="M397.231,371.441a23.9,23.9,0,0,0-2.439-5.535c-2.265-4.49-3.415-9.466-5.573-14.007-3.949-8.306-11.025-14.68-18.35-20.238s-15.143-10.593-21.456-17.28l-.264.155c6.851,11.075,13.975,22.743,21.1,33.644l15.6,23.878a15.239,15.239,0,0,0,3.993,4.611c1.706,1.133,4.109,1.48,5.764.273,1.634-1.193,2.052-3.522,1.625-5.5" transform="translate(-349.148 -314.381)"/>
            </g>
          </g>
        </g>
        <path id="Trazado_634804" data-name="Trazado 634804" d="M459.446,331.332c-4.67-16.525-15.448-42.567-19.759-52.539s-19.908-40.252-19.908-40.252-7.862-15.942-22.233-18.586l-5.28,61.082L377.2,266.8s-29.4,21.219-28.905,29.763L384,334.206s7.186,15.807,21.555,26.585,15.448,17.962,27.663,17.244,9.7,3.592,17.245-8.263,13.651-21.915,8.981-38.44" transform="translate(-61.054 -38.557)" fill="#ffb338"/>
        <path id="Trazado_634805" data-name="Trazado 634805" d="M369.6,329.8c-.067.042-.738-1.079-2.1-2.675a77.254,77.254,0,0,0-5.735-5.87,53.643,53.643,0,0,1-5.594-6.064c-.647-.835-1.139-1.536-1.466-2.028a3.549,3.549,0,0,1-.463-.794,4.077,4.077,0,0,1,.6.7c.367.461.893,1.13,1.566,1.936a68.993,68.993,0,0,0,5.657,5.945,58.651,58.651,0,0,1,5.672,5.988,21.437,21.437,0,0,1,1.44,2.051,3.749,3.749,0,0,1,.426.816" transform="translate(-62.098 -54.758)" fill="#263238"/>
        <path id="Trazado_634806" data-name="Trazado 634806" d="M378.168,327.656a4.763,4.763,0,0,1-.8-.653c-.5-.44-1.2-1.094-2.057-1.921-1.71-1.651-4-4.007-6.391-6.736s-4.423-5.314-5.833-7.227c-.706-.957-1.263-1.74-1.632-2.293a4.816,4.816,0,0,1-.541-.882,4.811,4.811,0,0,1,.675.783l1.738,2.207c1.47,1.862,3.533,4.406,5.915,7.129s4.632,5.1,6.283,6.8l1.958,2.015a4.762,4.762,0,0,1,.687.774" transform="translate(-63.266 -53.981)" fill="#263238"/>
        <path id="Trazado_634807" data-name="Trazado 634807" d="M386.282,323.192a5.115,5.115,0,0,1-.841-.66c-.523-.445-1.267-1.1-2.176-1.928-1.819-1.649-4.289-3.974-6.948-6.613s-5-5.1-6.664-6.9c-.831-.9-1.5-1.642-1.944-2.162a5.132,5.132,0,0,1-.666-.836,5.1,5.1,0,0,1,.788.722l2.041,2.067c1.717,1.752,4.091,4.168,6.747,6.805s5.089,4.992,6.853,6.7l2.082,2.027a5.1,5.1,0,0,1,.727.783" transform="translate(-64.341 -53.306)" fill="#263238"/>
        <path id="Trazado_634808" data-name="Trazado 634808" d="M390.689,314.378a3.7,3.7,0,0,1-.687-.6l-1.764-1.738-5.784-5.762-5.821-5.727-1.755-1.746a3.79,3.79,0,0,1-.606-.681,3.725,3.725,0,0,1,.721.559c.445.379,1.077.943,1.849,1.648,1.545,1.41,3.645,3.4,5.914,5.642s4.274,4.326,5.7,5.856c.713.765,1.282,1.392,1.667,1.833a3.722,3.722,0,0,1,.567.714" transform="translate(-65.608 -52.26)" fill="#263238"/>
        <path id="Trazado_634809" data-name="Trazado 634809" d="M393.2,305.438a2.369,2.369,0,0,1,.2.66l.07.294-.2-.237c-.964-1.15-3.507-4.412-6.7-8.071-2.024-2.33-3.919-4.382-5.3-5.858l-1.636-1.751a3.482,3.482,0,0,1-.565-.679,3.506,3.506,0,0,1,.683.56c.421.379,1.015.945,1.736,1.658,1.442,1.424,3.378,3.451,5.408,5.787a93.917,93.917,0,0,1,6.49,8.267l-.129.057a2.38,2.38,0,0,1-.056-.687" transform="translate(-66.449 -50.8)" fill="#263238"/>
        <path id="Trazado_634810" data-name="Trazado 634810" d="M399.584,301.525a4.663,4.663,0,0,1-.613-.818c-.366-.543-.906-1.322-1.588-2.273a71.579,71.579,0,0,0-12.391-13.364c-.9-.752-1.632-1.35-2.147-1.756a4.677,4.677,0,0,1-.769-.672,4.617,4.617,0,0,1,.868.538c.546.366,1.313.929,2.238,1.654a59.264,59.264,0,0,1,12.449,13.427c.653.978,1.157,1.785,1.481,2.357a4.639,4.639,0,0,1,.471.907" transform="translate(-66.977 -49.546)" fill="#263238"/>
        <path id="Trazado_634811" data-name="Trazado 634811" d="M446.644,331.336c1.2-.729,2.5-.976,3.456-1.513s2.448-.316,2.753.733c.346,1.191-1,2.132-2.13,2.643,2.6,1.249,6.142-1.5,8.381.313,1.463,1.185,1.117,3.681-.236,4.99s-3.329,1.711-5.2,1.931a14.585,14.585,0,0,0-5.469,1.251c-.863.479-1.682,1.412-1.381,2.35.514,1.593,3.48,1.25,3.846,2.884.247,1.1-.978,1.925-2.01,2.39L437.4,354.383a6.278,6.278,0,0,1-3.129.8,2.163,2.163,0,0,1-2.057-2.1c.109-1.064,1.254-1.717,2.313-1.874a21.006,21.006,0,0,0,3.186-.321c1.023-.317,1.956-1.385,1.582-2.387-.467-1.247-2.247-1.139-3.535-.8L423.8,350.87a5.073,5.073,0,0,1-2.679.213,1.746,1.746,0,0,1-1.314-2.044,2.4,2.4,0,0,1,.92-1.047,24.136,24.136,0,0,1,9.652-4.328,12.734,12.734,0,0,0,3.867-1.1,3.224,3.224,0,0,0,1.771-3.321,34.524,34.524,0,0,1-7.63,1.817c-.929.112-2.145.008-2.412-.888-.275-.924.746-1.676,1.611-2.1l13.909-6.854c1.182-.582,2.532-1.177,3.771-.727Z" transform="translate(-73.58 -57.767)" fill="#fff"/>
        <path id="Trazado_634812" data-name="Trazado 634812" d="M423.349,386.231s-.288-.219-.828-.663l-2.383-1.977-9.031-7.564-6.452-5.422a92.045,92.045,0,0,1-7.4-6.662,73.961,73.961,0,0,1-7.228-8.752,75.48,75.48,0,0,1-6.451-10.846l.035.051-36.779-38.011-.079-.082.022-.1a16.374,16.374,0,0,1,3.361-6.248,59.453,59.453,0,0,1,4.92-5.422c3.465-3.418,7.116-6.536,10.771-9.493s7.334-5.737,11-8.342l.14-.1.124.119c5.05,4.822,9.891,9.53,14.61,13.967,1.18,1.107,2.35,2.2,3.537,3.242a25.4,25.4,0,0,1,3.305,3.357c.261.281.525.558.8.814s.572.464.884.709a17.488,17.488,0,0,1,1.715,1.533c1.066,1.085,2.011,2.246,2.938,3.385s1.842,2.255,2.833,3.266a16.567,16.567,0,0,0,3.255,2.59c1.17.718,2.388,1.329,3.537,2.032a19.109,19.109,0,0,1,3.152,2.406c.954.88,1.83,1.8,2.7,2.684s1.707,1.774,2.49,2.679a20.645,20.645,0,0,1,3.672,5.777,30.283,30.283,0,0,1,1.93,11.474c-.015,3.423-.266,6.343-.383,8.722-.133,2.379-.158,4.219-.139,5.463.017.614.031,1.083.041,1.413s.008.481.008.481-.078-.646-.125-1.891-.04-3.09.07-5.473c.094-2.382.322-5.3.316-8.714a30.172,30.172,0,0,0-1.967-11.371c-1.6-4.063-5.181-7.425-8.828-11.009a18.783,18.783,0,0,0-3.108-2.359c-1.135-.691-2.354-1.3-3.543-2.023a16.923,16.923,0,0,1-3.328-2.635c-1.009-1.024-1.935-2.148-2.863-3.284s-1.869-2.287-2.92-3.352a17.1,17.1,0,0,0-1.682-1.5c-.288-.227-.618-.455-.91-.728s-.557-.549-.823-.835a25.051,25.051,0,0,0-3.279-3.321c-1.2-1.046-2.37-2.14-3.554-3.247-4.728-4.433-9.578-9.139-14.626-13.952l.264.019c-3.648,2.6-7.317,5.385-10.969,8.33s-7.289,6.065-10.737,9.467a59.237,59.237,0,0,0-4.885,5.381,16.037,16.037,0,0,0-3.277,6.059l-.057-.186,36.733,38.057.02.021.015.03A75.373,75.373,0,0,0,390.3,355a73.87,73.87,0,0,0,7.169,8.739,92.807,92.807,0,0,0,7.351,6.673l6.424,5.455,8.969,7.64,2.347,2.018c.529.459.792.706.792.706" transform="translate(-60.785 -48.486)" fill="#263238"/>
        <path id="Trazado_634813" data-name="Trazado 634813" d="M461.636,364.857a8.592,8.592,0,0,1-.232-1.369c-.122-.957-.283-2.222-.477-3.749-.189-1.608-.409-3.49-.652-5.567-.125-1.048-.22-2.152-.431-3.264a8.506,8.506,0,0,0-1.226-3.218c-1.342-1.983-3.4-3.189-5.151-4.32-1.782-1.124-3.411-2.1-4.789-2.9l-3.282-1.868a9.1,9.1,0,0,1-1.19-.713,8.166,8.166,0,0,1,1.268.565c.8.393,1.952.984,3.352,1.752s3.051,1.718,4.849,2.827c1.764,1.117,3.874,2.322,5.3,4.417a8.82,8.82,0,0,1,1.282,3.378c.211,1.146.3,2.252.411,3.3.209,2.081.4,3.965.561,5.577.139,1.534.253,2.8.341,3.764a8.554,8.554,0,0,1,.067,1.387" transform="translate(-77.867 -59.231)" fill="#263238"/>
        <path id="Trazado_634814" data-name="Trazado 634814" d="M442.213,297.474a4.019,4.019,0,0,1-.572.759c-.391.469-.972,1.135-1.711,1.938a84.439,84.439,0,0,1-6.105,5.957,81.032,81.032,0,0,1-6.674,5.322,6.439,6.439,0,0,1-2.367,1.1,3.081,3.081,0,0,1-.712.059c-.162-.013-.247-.027-.247-.042,0-.041.343-.016.92-.179a7.006,7.006,0,0,0,2.231-1.181c1.726-1.311,4.075-3.2,6.563-5.4s4.639-4.3,6.17-5.845l1.807-1.841a4.061,4.061,0,0,1,.7-.647" transform="translate(-74.295 -52.146)" fill="#263238"/>
        <path id="Trazado_634815" data-name="Trazado 634815" d="M425.773,263.065a1.605,1.605,0,0,1-.078.418c-.067.271-.166.669-.309,1.177-.279,1.019-.715,2.483-1.276,4.285-1.1,3.608-2.815,8.541-4.113,14.134a58.02,58.02,0,0,0-1.333,14.592,42.388,42.388,0,0,0,.4,4.434,15.648,15.648,0,0,1,.227,1.623,1.6,1.6,0,0,1-.126-.407c-.062-.271-.178-.667-.266-1.188a34.092,34.092,0,0,1-.539-4.447,54.231,54.231,0,0,1,1.217-14.7c1.306-5.631,3.071-10.55,4.242-14.133l1.405-4.241.386-1.152a1.626,1.626,0,0,1,.162-.394" transform="translate(-73.322 -46.114)" fill="#263238"/>
        <path id="Trazado_634816" data-name="Trazado 634816" d="M261.484,218.376s-20.8,6.254-29.286,15.787c-6.4,7.2-15.252,41.364-15.252,41.364s-22.326,84.4-21.781,90.936,11.98,17.588,20.148,21.781,21.781,8.712,37.573-10.89c8.776-10.894,17.323-21.2,21.446-30.669a41.028,41.028,0,0,0,3.057-15.617l26.7-30.673L276.3,270.626l-24.5,31.583Z" transform="translate(-34.21 -38.281)" fill="#ffb338"/>
        <path id="Trazado_634817" data-name="Trazado 634817" d="M292.679,291.3a5.417,5.417,0,0,1-.687.862c-.467.531-1.128,1.312-1.937,2.283-1.623,1.938-3.763,4.7-6.161,7.729a85.461,85.461,0,0,1-6.514,7.462c-.9.893-1.656,1.592-2.2,2.043a5.454,5.454,0,0,1-.871.676,5.394,5.394,0,0,1,.758-.8c.511-.487,1.23-1.216,2.1-2.131,1.745-1.826,4-4.49,6.4-7.517s4.579-5.766,6.266-7.66c.841-.948,1.54-1.7,2.045-2.2a5.4,5.4,0,0,1,.81-.748" transform="translate(-48.085 -51.064)" fill="#263238"/>
        <path id="Trazado_634818" data-name="Trazado 634818" d="M295.808,297.943a4.367,4.367,0,0,1-.512.832c-.349.52-.878,1.259-1.546,2.158-1.334,1.8-3.253,4.235-5.449,6.857s-4.234,4.952-5.72,6.627l-1.777,1.97a4.3,4.3,0,0,1-.7.685,4.262,4.262,0,0,1,.568-.793c.387-.493.96-1.2,1.674-2.059l5.623-6.7c2.191-2.619,4.143-5.016,5.536-6.767l1.654-2.073a4.21,4.21,0,0,1,.646-.732" transform="translate(-49.102 -52.228)" fill="#263238"/>
        <path id="Trazado_634819" data-name="Trazado 634819" d="M301.107,305.015a3.69,3.69,0,0,1-.533.732l-1.545,1.912c-1.3,1.614-3.061,3.877-5,6.381s-3.743,4.744-5.11,6.312c-.682.785-1.246,1.41-1.651,1.828a3.642,3.642,0,0,1-.659.622,3.694,3.694,0,0,1,.533-.732l1.545-1.912c1.3-1.614,3.061-3.876,5-6.382s3.742-4.743,5.109-6.312c.682-.785,1.246-1.409,1.651-1.827a3.678,3.678,0,0,1,.659-.622" transform="translate(-50.241 -53.468)" fill="#263238"/>
        <path id="Trazado_634820" data-name="Trazado 634820" d="M307.865,312.846a2.88,2.88,0,0,1-.456.653c-.314.4-.785.972-1.377,1.666-1.183,1.39-2.87,3.263-4.756,5.309l-4.828,5.236a22.345,22.345,0,0,1-2.049,2.128,2.8,2.8,0,0,1,.453-.655c.312-.4.78-.976,1.368-1.674,1.177-1.395,2.853-3.279,4.74-5.325l4.845-5.22a22.26,22.26,0,0,1,2.06-2.117" transform="translate(-51.607 -54.84)" fill="#263238"/>
        <path id="Trazado_634821" data-name="Trazado 634821" d="M312.889,316.639a15.738,15.738,0,0,1-1.587,2.254c-1.033,1.353-2.512,3.178-4.156,5.182s-3.126,3.824-4.184,5.152a20.937,20.937,0,0,1-1.759,2.118,14.94,14.94,0,0,1,1.517-2.3c1-1.379,2.446-3.234,4.093-5.24l4.252-5.1a19.677,19.677,0,0,1,1.823-2.064" transform="translate(-52.799 -55.505)" fill="#263238"/>
        <path id="Trazado_634822" data-name="Trazado 634822" d="M257.6,311.136c-.044.008-.142-.527-.439-1.447a13.972,13.972,0,0,0-1.9-3.615,24.65,24.65,0,0,0-4.173-4.413,43.309,43.309,0,0,0-6.147-4.239,90.112,90.112,0,0,0-12.347-5.714c-1.631-.617-2.968-1.073-3.892-1.388a11.305,11.305,0,0,1-1.427-.52,1.391,1.391,0,0,1,.388.071c.25.062.619.154,1.088.29.941.266,2.3.68,3.946,1.262a79.435,79.435,0,0,1,12.457,5.627,41.458,41.458,0,0,1,6.189,4.309,23.8,23.8,0,0,1,4.166,4.542,12.96,12.96,0,0,1,1.813,3.738,7.641,7.641,0,0,1,.238,1.106,1.338,1.338,0,0,1,.042.392" transform="translate(-39.84 -50.8)" fill="#263238"/>
        <path id="Trazado_634823" data-name="Trazado 634823" d="M260.632,250.585c1.2-.728,2.5-.975,3.456-1.512s2.448-.316,2.753.732c.347,1.191-1,2.133-2.13,2.644,2.6,1.249,6.142-1.5,8.381.313,1.463,1.185,1.117,3.681-.236,4.99s-3.329,1.71-5.2,1.931a14.6,14.6,0,0,0-5.469,1.252c-.863.479-1.682,1.412-1.38,2.35.513,1.593,3.479,1.25,3.845,2.884.247,1.1-.978,1.925-2.01,2.39l-11.259,5.073a6.27,6.27,0,0,1-3.129.8,2.163,2.163,0,0,1-2.057-2.1c.11-1.064,1.255-1.718,2.313-1.874a21,21,0,0,0,3.186-.321c1.023-.317,1.956-1.385,1.582-2.387-.467-1.247-2.247-1.139-3.534-.8q-5.976,1.583-11.952,3.17a5.073,5.073,0,0,1-2.679.212,1.746,1.746,0,0,1-1.314-2.044,2.408,2.408,0,0,1,.92-1.047,24.134,24.134,0,0,1,9.652-4.327,12.734,12.734,0,0,0,3.867-1.1,3.223,3.223,0,0,0,1.771-3.321,34.525,34.525,0,0,1-7.63,1.817c-.929.112-2.145.008-2.412-.888-.275-.924.746-1.677,1.611-2.1l13.909-6.854c1.183-.582,2.532-1.177,3.771-.727Z" transform="translate(-40.972 -43.612)" fill="#fff"/>
        <path id="Trazado_634824" data-name="Trazado 634824" d="M234.05,353c1.2-.729,2.5-.976,3.455-1.513s2.448-.316,2.753.733c.347,1.191-1,2.132-2.13,2.643,2.6,1.249,6.142-1.5,8.38.313,1.464,1.185,1.118,3.681-.235,4.99s-3.329,1.711-5.2,1.931a14.584,14.584,0,0,0-5.469,1.251c-.863.479-1.682,1.412-1.381,2.35.514,1.593,3.48,1.25,3.846,2.884.247,1.1-.978,1.925-2.01,2.39L224.8,376.046a6.28,6.28,0,0,1-3.129.8,2.163,2.163,0,0,1-2.057-2.1c.11-1.064,1.254-1.717,2.313-1.874a21.007,21.007,0,0,0,3.186-.321c1.023-.317,1.956-1.385,1.582-2.387-.467-1.247-2.247-1.139-3.534-.8l-11.953,3.17a5.069,5.069,0,0,1-2.678.213,1.746,1.746,0,0,1-1.314-2.045,2.4,2.4,0,0,1,.92-1.046,24.135,24.135,0,0,1,9.652-4.328,12.735,12.735,0,0,0,3.867-1.1,3.224,3.224,0,0,0,1.771-3.321,34.524,34.524,0,0,1-7.63,1.817c-.929.112-2.145.008-2.412-.888-.275-.924.746-1.676,1.611-2.1l13.909-6.854c1.182-.582,2.532-1.177,3.771-.727Z" transform="translate(-36.313 -61.565)" fill="#fff"/>
        <path id="Trazado_634825" data-name="Trazado 634825" d="M261.565,306.636a2.613,2.613,0,0,1-.157-.522c-.094-.39-.216-.893-.367-1.516-.32-1.37-.764-3.264-1.306-5.583-1.106-4.713-2.681-11.212-4.562-18.353s-3.719-13.575-5.081-18.22c-.671-2.284-1.221-4.152-1.617-5.5-.176-.616-.318-1.113-.427-1.5a2.572,2.572,0,0,1-.122-.532,2.563,2.563,0,0,1,.2.506c.129.38.3.869.5,1.476.431,1.283,1.03,3.15,1.748,5.463,1.437,4.625,3.319,11.049,5.205,18.2s3.413,13.663,4.444,18.4c.516,2.367.915,4.285,1.173,5.615l.289,1.533a2.573,2.573,0,0,1,.072.54" transform="translate(-43.46 -44.685)" fill="#263238"/>
        <path id="Trazado_634826" data-name="Trazado 634826" d="M220.833,361.4s.045-.163.149-.477.27-.787.476-1.391c.43-1.221,1.06-3.027,2.007-5.317a41.777,41.777,0,0,1,4.268-7.98c2.031-2.932,5.03-5.708,8.348-8.715,3.363-2.971,6.4-6.884,9.675-11.072,3.261-4.206,6.674-8.788,10.29-13.632s7.431-9.957,11.491-15.23,8.355-10.715,13.107-16.065l.154-.173.158.171L296.18,297.96l12.188,13.167.133.144-.132.144c-5.011,5.476-9.8,10.859-14.3,16.125-2.244,2.637-4.415,5.244-6.455,7.854-.515.648-1.011,1.3-1.5,1.962a21.085,21.085,0,0,0-1.364,2,20.753,20.753,0,0,0-1.876,4.354c-.934,3-1.439,6.031-2.169,8.925a34.353,34.353,0,0,1-1.322,4.21c-.539,1.353-1.187,2.607-1.766,3.876a117.481,117.481,0,0,1-7.6,13.432,94.244,94.244,0,0,1-14.206,16.93l-1.345,1.251-1.216,1.056c-.75.658-1.392,1.2-1.929,1.621l-1.207.963c-.273.215-.419.317-.419.317s.129-.123.393-.348l1.183-.993c.529-.427,1.162-.981,1.9-1.647l1.2-1.068,1.33-1.263A95.96,95.96,0,0,0,269.782,374a118.257,118.257,0,0,0,7.536-13.422c.572-1.263,1.223-2.532,1.746-3.859a34.226,34.226,0,0,0,1.3-4.17c.719-2.877,1.218-5.917,2.156-8.951a19.112,19.112,0,0,1,3.286-6.472c.487-.661.985-1.32,1.5-1.972,2.041-2.62,4.212-5.234,6.455-7.876,4.5-5.277,9.286-10.666,14.3-16.149v.289l-12.192-13.165-15.22-16.442.312,0c-4.742,5.331-9.031,10.772-13.1,16.028s-7.885,10.369-11.512,15.206-7.051,9.411-10.328,13.613c-3.29,4.177-6.352,8.1-9.747,11.073-3.334,3-6.327,5.741-8.359,8.637a42.238,42.238,0,0,0-4.306,7.913c-.966,2.275-1.618,4.073-2.072,5.285l-.512,1.378c-.117.309-.186.464-.186.464" transform="translate(-38.711 -49.32)" fill="#263238"/>
        <path id="Trazado_634827" data-name="Trazado 634827" d="M297.383,217.216a1.7,1.7,0,0,1,.148.334c.1.252.22.578.376.986a19.669,19.669,0,0,0,2.051,3.427,47.823,47.823,0,0,0,10.329,9.79l-.044-.023c2.683.931,5.637,1.863,8.818,2.639a48.441,48.441,0,0,0,10.153,1.489,32.34,32.34,0,0,0,14.754-3.081,23.154,23.154,0,0,0,9.265-8.031,20.158,20.158,0,0,0,3.116-7.712,12.138,12.138,0,0,0,.181-1.3c.045-.379.073-.7.078-.962.012-.24.023-.435.032-.595a.7.7,0,0,1,.026-.2,13.6,13.6,0,0,1-.15,3.091,19.771,19.771,0,0,1-3.027,7.852,23.268,23.268,0,0,1-9.344,8.22,32.458,32.458,0,0,1-14.94,3.155,48.213,48.213,0,0,1-10.241-1.517c-3.2-.789-6.158-1.739-8.843-2.69l-.026-.009-.019-.014a46.377,46.377,0,0,1-10.293-9.968,18.2,18.2,0,0,1-1.98-3.51c-.134-.42-.242-.755-.325-1.014a1.691,1.691,0,0,1-.092-.351" transform="translate(-52.13 -37.508)" fill="#263238"/>
        <path id="Trazado_634828" data-name="Trazado 634828" d="M339.614,274.526a6.074,6.074,0,0,0,.516,6.625,41.124,41.124,0,0,0,6.717-5.967l.522-.537,1.721-4.909-4.6-2.466-4.261-.561Z" transform="translate(-59.402 -46.754)" fill="#eb996e"/>
        <path id="Trazado_634829" data-name="Trazado 634829" d="M347.894,272.462a20.2,20.2,0,0,0-2.32,5.84,10.881,10.881,0,0,0,.437,6.205.95.95,0,0,0,.291.44,1,1,0,0,0,.377.135l2.248.477a18.729,18.729,0,0,0,1.307-3.113" transform="translate(-60.534 -47.762)" fill="#eb996e"/>
        <path id="Trazado_634830" data-name="Trazado 634830" d="M305.352,297.685s5.944-8.762,7.6-10.587a8.14,8.14,0,0,1,3.484-2.322s8.79-5.141,11.61-8.625,7.132-9.786,7.132-9.786l2.157-.664,2.156,2.157s-.829,9.952,3.484,11.113l2.322-.663V259.233l-13.933-9.454-10.947-5.805s-7.962,14.264-10.284,16.421-15.03,15.552-16.406,17.045c0,0,.916,7.86,11.623,20.246" transform="translate(-51.49 -42.768)" fill="#ffbe9d"/>
        <path id="Trazado_634831" data-name="Trazado 634831" d="M310.723,236.084l18.909-7.451,23.539,8.975s9.822,24.217,11.008,26.08,6.435,7.638,6.435,7.638a15.8,15.8,0,0,1-3.242,6.829c-2.33,2.9-4.776,6.137-6.919,7.637,0,0-9.835-4.662-11.007-9.4s-5.281-15.242-5.281-15.242l-3.5-6.6-6.739-4.572-7.177,1.016s-.95,4.572-4.454,3.387l-3.5-1.863,3.961-4.911s-4.987,5.927-8.2,3.048l-1.18-1.355,3.9-3.387s-3.726,2.71-4.911.678l3.725-6.774s-5.81.169-5.361-3.726" transform="translate(-54.464 -40.079)" fill="#ffbe9d"/>
        <path id="Trazado_634832" data-name="Trazado 634832" d="M370.572,271.281s-.171-.162-.482-.495-.771-.845-1.361-1.489-1.32-1.475-2.161-2.452c-.418-.49-.87-1.016-1.336-1.592a12.7,12.7,0,0,1-1.377-1.931c-1.47-3.007-3.013-6.757-4.843-11.072-1.81-4.321-3.84-9.226-6.043-14.624l.1.1-23.55-8.946.146,0-18.9,7.462.134-.173a2.892,2.892,0,0,0,.284,1.621,3.065,3.065,0,0,0,1.268,1.137,8.129,8.129,0,0,0,3.591.728l.367,0-.173.315-2.19,3.982q-.772,1.4-1.536,2.792l0-.212a1.285,1.285,0,0,0,.963.623,3.075,3.075,0,0,0,1.266-.148,9.255,9.255,0,0,0,2.37-1.217l.266.335-3.9,3.385.021-.3,1.18,1.355-.018-.019a2.9,2.9,0,0,0,2.106.713,5.167,5.167,0,0,0,2.2-.72,14.53,14.53,0,0,0,3.592-3.016l.319.263-3.964,4.909-.063-.307,3.5,1.866-.03-.013a3.126,3.126,0,0,0,1.508.136,2.638,2.638,0,0,0,1.3-.7,5.688,5.688,0,0,0,1.395-2.674l.034-.134.129-.017,7.177-1.008.071-.01.059.04,6.732,4.582.035.025.02.037q1.832,3.475,3.484,6.612l0,.008,0,.008c1.714,4.462,3.192,8.527,4.348,12.15.281.908.552,1.785.772,2.643a10.565,10.565,0,0,0,.388,1.221,9.249,9.249,0,0,0,.586,1.074,15.517,15.517,0,0,0,3.056,3.171,39.372,39.372,0,0,0,5.111,3.409c.61.35,1.084.6,1.4.772s.478.264.478.264-.174-.066-.5-.223-.807-.4-1.426-.734a37.159,37.159,0,0,1-5.175-3.351,15.569,15.569,0,0,1-3.125-3.189,9.3,9.3,0,0,1-.614-1.105,11.037,11.037,0,0,1-.407-1.249c-.224-.85-.5-1.724-.786-2.627-1.174-3.606-2.673-7.662-4.4-12.111l.007.016-3.509-6.6.055.062-6.746-4.562.129.03-7.175,1.025.162-.152a6.052,6.052,0,0,1-1.5,2.877,3.024,3.024,0,0,1-1.5.807,3.512,3.512,0,0,1-1.711-.147l-.011,0-.019-.01-3.506-1.86-.217-.115.154-.191,3.957-4.914.32.263a14.864,14.864,0,0,1-3.705,3.116,5.574,5.574,0,0,1-2.38.775,3.331,3.331,0,0,1-2.414-.818l-.009-.008-.009-.011-1.181-1.354-.14-.16.161-.14,3.893-3.388.266.335a9.659,9.659,0,0,1-2.495,1.28,3.488,3.488,0,0,1-1.453.164,1.724,1.724,0,0,1-1.274-.831l-.061-.106.059-.106,1.535-2.792,2.19-3.983.195.318a8.52,8.52,0,0,1-3.8-.777,3.482,3.482,0,0,1-1.444-1.309,3.307,3.307,0,0,1-.335-1.879l.007-.124.126-.05,18.913-7.44.073-.029.073.028,23.529,9,.07.026.028.069,5.981,14.647c1.8,4.318,3.329,8.093,4.759,11.084a12.569,12.569,0,0,0,1.34,1.917c.459.579.9,1.11,1.316,1.6l2.122,2.481,1.324,1.522c.3.345.443.529.443.529" transform="translate(-54.422 -40.032)" fill="#eb996e"/>
        <path id="Trazado_634833" data-name="Trazado 634833" d="M316.881,240.3a2.172,2.172,0,0,1,.417-.7,7.676,7.676,0,0,1,1.579-1.547c1.522-1.08,3.678-2.421,6.056-3.94,2.4-1.494,4.516-2.878,6.167-3.777a2.7,2.7,0,0,1,2.208-.191c.5.216.652.511.633.515a3.255,3.255,0,0,0-.69-.358,2.631,2.631,0,0,0-2.016.305c-1.554.934-3.687,2.38-6.072,3.868l-6.108,3.824a13.034,13.034,0,0,0-2.173,2" transform="translate(-55.548 -40.318)" fill="#eb996e"/>
        <path id="Trazado_634834" data-name="Trazado 634834" d="M345.186,241.293a7.194,7.194,0,0,1-1.3-.242c-.829-.191-2.023-.495-3.48-.932s-3.178-1.011-5.055-1.741a5.688,5.688,0,0,0-2.935-.665,22.015,22.015,0,0,0-3.262.708,10.19,10.19,0,0,0-2.976,1.423,19.61,19.61,0,0,0-2.312,2.086c-1.415,1.421-2.689,2.711-3.8,3.752s-2.044,1.847-2.721,2.366c-.34.257-.609.451-.8.57a1.074,1.074,0,0,1-.3.167,12.157,12.157,0,0,1,.995-.867c.639-.554,1.542-1.384,2.615-2.454s2.324-2.373,3.728-3.813a19.249,19.249,0,0,1,2.346-2.148,10.435,10.435,0,0,1,3.1-1.492,21.472,21.472,0,0,1,3.343-.717,3.9,3.9,0,0,1,1.671.157c.521.162.99.376,1.456.557,1.858.746,3.56,1.348,5,1.819s2.618.821,3.432,1.061a8.349,8.349,0,0,1,1.258.4" transform="translate(-55.437 -41.592)" fill="#eb996e"/>
        <path id="Trazado_634835" data-name="Trazado 634835" d="M349.117,250.392a4.745,4.745,0,0,1-1-.252l-2.689-.839-3.969-1.3-2.34-.779a20.909,20.909,0,0,0-2.506-.749,8.176,8.176,0,0,0-4.824.9c-1.452.641-2.821,1.03-3.887,1.52a10.284,10.284,0,0,0-3.054,2.227c-.012-.009.036-.088.139-.232a5.56,5.56,0,0,1,.488-.6,7.614,7.614,0,0,1,2.3-1.672c1.081-.539,2.439-.957,3.856-1.607a13.837,13.837,0,0,1,2.349-.856,6.262,6.262,0,0,1,2.715-.1,19.973,19.973,0,0,1,2.561.773l2.332.8,3.94,1.383,2.645.968a4.78,4.78,0,0,1,.951.411" transform="translate(-56.944 -43.114)" fill="#eb996e"/>
        <path id="Trazado_634836" data-name="Trazado 634836" d="M320.952,311.338a1.8,1.8,0,0,1-.447.064c-.294.028-.728.054-1.289.063a23.935,23.935,0,0,1-4.735-.382,15.747,15.747,0,0,1-3.169-.916,10.6,10.6,0,0,1-3.159-2.1,40.38,40.38,0,0,1-5.652-6.515c-1.8-2.467-3.5-4.832-4.882-7.1a33.007,33.007,0,0,1-3.083-6.336,18.2,18.2,0,0,1-.99-4.646,10.267,10.267,0,0,1-.035-1.291,1.76,1.76,0,0,1,.028-.449c.044,0,.046.619.174,1.724a19.83,19.83,0,0,0,1.109,4.561,34.365,34.365,0,0,0,3.134,6.229c1.39,2.237,3.1,4.587,4.891,7.052a41.668,41.668,0,0,0,5.568,6.475,11.633,11.633,0,0,0,6.123,3.01,26.972,26.972,0,0,0,4.677.513c1.115.03,1.734.006,1.735.04" transform="translate(-51.451 -49.387)" fill="#263238"/>
        <path id="Trazado_634837" data-name="Trazado 634837" d="M377.2,276.809a1.74,1.74,0,0,1,.109.435,6.737,6.737,0,0,1,.125,1.279,10.744,10.744,0,0,1-1.089,4.583,26.7,26.7,0,0,1-3.886,5.812c-1.669,2.03-3.612,4.174-5.761,6.315s-4.317,4.06-6.359,5.715a43.3,43.3,0,0,1-5.672,4.083,10.8,10.8,0,0,1-4.467,1.494,6.545,6.545,0,0,1-1.287-.028,1.746,1.746,0,0,1-.44-.087c0-.047.618.066,1.71-.052a11.2,11.2,0,0,0,4.332-1.592,46.085,46.085,0,0,0,5.571-4.125c2.02-1.664,4.161-3.591,6.308-5.714s4.081-4.255,5.761-6.263a27.492,27.492,0,0,0,3.914-5.688,11.126,11.126,0,0,0,1.2-4.455c.027-1.1-.117-1.7-.068-1.712" transform="translate(-61.086 -48.524)" fill="#263238"/>
        <g id="Grupo_881251" data-name="Grupo 881251" transform="translate(213.357 263.488)" opacity="0.2">
          <g id="Grupo_881250" data-name="Grupo 881250">
            <g id="Grupo_881249" data-name="Grupo 881249" clip-path="url(#clip-path-7)">
              <path id="Trazado_634838" data-name="Trazado 634838" d="M297.394,338.258c-3.611,4.211-6.636,6.356-8.056,11.717-1.2,4.514-2.5,12.585-7.177,21.092-6.708,12.213-14.544,23.115-23.455,29.968,15.457-2.841,28.2-14.992,33.154-29.909,2.59-7.8,2.969-16.23,5.809-23.945,2.406-6.534,6.5-12.331,11.167-17.5,2.69-2.984,5.005-6.172,5.2-10.185-5.092,5-11.138,12.347-16.641,18.764" transform="translate(-258.707 -319.494)"/>
            </g>
          </g>
        </g>
        <g id="Grupo_881254" data-name="Grupo 881254" transform="translate(174.594 273.788)" opacity="0.2">
          <g id="Grupo_881253" data-name="Grupo 881253">
            <g id="Grupo_881252" data-name="Grupo 881252" clip-path="url(#clip-path-8)">
              <path id="Trazado_634839" data-name="Trazado 634839" d="M220.7,366.533a45,45,0,0,1-6.836,12.8,8.73,8.73,0,0,1-2.021-7.493,20.3,20.3,0,0,1,3.147-7.355c8.073-12.921,19.8-23.3,31.95-32.5a168.356,168.356,0,0,1-12.158,14.331c-5.507,5.722-11.43,11.82-14.082,20.219" transform="translate(-211.705 -331.983)"/>
            </g>
          </g>
        </g>
        <path id="Trazado_634840" data-name="Trazado 634840" d="M342.921,333.161a2,2,0,0,1-.207.436l-.668,1.209c-.581,1.051-1.48,2.538-2.643,4.341s-2.619,3.907-4.322,6.179c-1.719,2.258-3.69,4.682-5.878,7.121s-4.408,4.641-6.476,6.587c-2.083,1.929-4.02,3.6-5.7,4.94s-3.059,2.391-4.044,3.078l-1.133.789a2.059,2.059,0,0,1-.412.252,2.01,2.01,0,0,1,.361-.322l1.085-.854c.952-.727,2.307-1.809,3.951-3.178s3.558-3.055,5.619-4.994,4.236-4.165,6.429-6.585,4.151-4.837,5.883-7.074c1.714-2.251,3.2-4.324,4.383-6.106s2.129-3.237,2.752-4.259l.737-1.168a2.02,2.02,0,0,1,.282-.393" transform="translate(-54.594 -58.402)" fill="#263238"/>
        <g id="Grupo_881257" data-name="Grupo 881257" transform="translate(351.855 262.118)" opacity="0.2">
          <g id="Grupo_881256" data-name="Grupo 881256">
            <g id="Grupo_881255" data-name="Grupo 881255" clip-path="url(#clip-path-9)">
              <path id="Trazado_634841" data-name="Trazado 634841" d="M441.845,357.173l1.868,2.549a33.613,33.613,0,0,0,.211-24.953c-3.136-7.93-9.51-13.425-17.28-16.936,3.441,2.008,5.7,4.365,8.431,6.934,6.8,6.405,8.586,14.606,6.77,32.406" transform="translate(-426.644 -317.833)"/>
            </g>
          </g>
        </g>
        <path id="Trazado_634842" data-name="Trazado 634842" d="M402.729,235.031c1.2-.729,2.5-.976,3.455-1.513s2.448-.316,2.753.733c.347,1.191-1,2.132-2.13,2.643,2.6,1.249,6.142-1.5,8.381.313,1.463,1.185,1.118,3.681-.236,4.99s-3.329,1.71-5.2,1.931a14.6,14.6,0,0,0-5.469,1.252c-.863.479-1.682,1.412-1.38,2.35.514,1.593,3.48,1.25,3.846,2.884.247,1.1-.978,1.925-2.01,2.39l-11.259,5.074a6.28,6.28,0,0,1-3.129.8,2.163,2.163,0,0,1-2.057-2.1c.11-1.064,1.254-1.718,2.313-1.874a21.01,21.01,0,0,0,3.186-.321c1.023-.317,1.956-1.385,1.582-2.387-.467-1.247-2.247-1.139-3.534-.8l-11.952,3.17a5.074,5.074,0,0,1-2.679.213,1.746,1.746,0,0,1-1.314-2.045,2.4,2.4,0,0,1,.919-1.046,24.136,24.136,0,0,1,9.652-4.328,12.737,12.737,0,0,0,3.867-1.1,3.225,3.225,0,0,0,1.771-3.321,34.524,34.524,0,0,1-7.63,1.817c-.929.112-2.145.008-2.412-.888-.275-.924.746-1.676,1.611-2.1l13.909-6.854c1.183-.582,2.532-1.177,3.771-.727Z" transform="translate(-65.882 -40.885)" fill="#fff"/>
        <path id="Trazado_634843" data-name="Trazado 634843" d="M141,391.412v.845h-3.96v-.668l2.134-2.026c.522-.5.614-.813.614-1.113,0-.491-.338-.775-1-.775a1.515,1.515,0,0,0-1.258.56l-.7-.537a2.482,2.482,0,0,1,2.041-.891c1.167,0,1.919.591,1.919,1.543a2.153,2.153,0,0,1-.891,1.7l-1.435,1.366Z" transform="translate(-23.986 -67.806)" fill="#263238"/>
        <path id="Trazado_634844" data-name="Trazado 634844" d="M142.539,389.026a.629.629,0,1,1,1.258,0,.629.629,0,1,1-1.258,0m0,2.924a.629.629,0,1,1,1.258,0,.629.629,0,1,1-1.258,0" transform="translate(-24.987 -68.083)" fill="#263238"/>
        <path id="Trazado_634845" data-name="Trazado 634845" d="M146.642,386.9v5.374h-1v-4.537h-1.136V386.9Z" transform="translate(-25.332 -67.822)" fill="#263238"/>
        <path id="Trazado_634846" data-name="Trazado 634846" d="M153.16,391.053h-.953v1.22h-.967v-1.22h-2.947v-.692l2.647-3.462h1.067l-2.495,3.31h1.758v-1.083h.936v1.083h.953Z" transform="translate(-25.995 -67.822)" fill="#263238"/>
        <rect id="Rectángulo_329823" data-name="Rectángulo 329823" width="261.024" height="1.32" transform="translate(134.921 322.13)" fill="#fff"/>
        <rect id="Rectángulo_329824" data-name="Rectángulo 329824" width="90.439" height="3.518" transform="translate(131.716 320.709)" fill="#fd4c1b"/>
        <path id="Trazado_634847" data-name="Trazado 634847" d="M274.667,390.466a4.4,4.4,0,1,1-4.4-4.4,4.4,4.4,0,0,1,4.4,4.4" transform="translate(-46.604 -67.675)" fill="#fd4c1b"/>
        <path id="Trazado_634848" data-name="Trazado 634848" d="M487.952,391.048a1.85,1.85,0,0,1-2.03,1.8c-1.513,0-2.4-.974-2.4-2.759a2.627,2.627,0,0,1,2.719-2.948,2.789,2.789,0,0,1,1.458.355l-.38.778a1.88,1.88,0,0,0-1.054-.27c-1.046,0-1.7.651-1.7,1.91v.009a1.894,1.894,0,0,1,1.482-.579,1.733,1.733,0,0,1,1.911,1.7m-1,.048c0-.579-.436-.943-1.109-.943a1.009,1.009,0,0,0-1.126.951c0,.523.411.935,1.149.935a.964.964,0,0,0,1.086-.943" transform="translate(-84.76 -67.864)" fill="#263238"/>
        <path id="Trazado_634849" data-name="Trazado 634849" d="M489.5,389.432a.65.65,0,1,1,1.3,0,.65.65,0,1,1-1.3,0m0,3.02a.65.65,0,1,1,1.3,0,.65.65,0,1,1-1.3,0" transform="translate(-85.808 -68.151)" fill="#263238"/>
        <path id="Trazado_634850" data-name="Trazado 634850" d="M491.882,389.995c0-1.823,1-2.854,2.314-2.854s2.322,1.03,2.322,2.854-1,2.853-2.322,2.853-2.314-1.032-2.314-2.853m3.6,0c0-1.339-.522-1.958-1.284-1.958s-1.276.618-1.276,1.958.523,1.957,1.276,1.957,1.284-.618,1.284-1.957" transform="translate(-86.225 -67.864)" fill="#263238"/>
        <path id="Trazado_634851" data-name="Trazado 634851" d="M498.342,389.995c0-1.823,1-2.854,2.313-2.854s2.323,1.03,2.323,2.854-1,2.853-2.323,2.853-2.313-1.032-2.313-2.853m3.6,0c0-1.339-.523-1.958-1.286-1.958s-1.274.618-1.274,1.958.523,1.957,1.274,1.957,1.286-.618,1.286-1.957" transform="translate(-87.358 -67.864)" fill="#263238"/>
        <path id="Trazado_634852" data-name="Trazado 634852" d="M514.767,389.337h-1.1v-3.179h3.173v1.1h-2.07Z" transform="translate(-90.043 -67.692)" fill="#263238"/>
        <path id="Trazado_634853" data-name="Trazado 634853" d="M516.838,394.369H513.66V391.2h1.1v2.07h2.076Z" transform="translate(-90.043 -68.575)" fill="#263238"/>
        <path id="Trazado_634854" data-name="Trazado 634854" d="M522.978,394.368H519.8v-1.1h2.071v-2.077h1.1Z" transform="translate(-91.12 -68.574)" fill="#263238"/>
        <path id="Trazado_634855" data-name="Trazado 634855" d="M522.981,389.331h-1.1v-2.07H519.8v-1.1h3.179Z" transform="translate(-91.119 -67.692)" fill="#263238"/>
        <path id="Trazado_634856" data-name="Trazado 634856" d="M161.483,129.229a6.765,6.765,0,1,1-6.764-6.764,6.764,6.764,0,0,1,6.764,6.764" transform="translate(-25.936 -21.468)" fill="#e0e0e0"/>
        <path id="Trazado_634857" data-name="Trazado 634857" d="M161.438,129.191c-.051,0-.021-.6-.293-1.631a6.748,6.748,0,0,0-2.471-3.625,6.593,6.593,0,0,0-6.238-.911,6.586,6.586,0,0,0-3.041,2.294,6.537,6.537,0,0,0,0,7.747,6.594,6.594,0,0,0,3.042,2.293,6.593,6.593,0,0,0,6.238-.911,6.739,6.739,0,0,0,2.471-3.625c.272-1.028.242-1.635.293-1.631a1.659,1.659,0,0,1,.021.434,5.419,5.419,0,0,1-.152,1.238,6.734,6.734,0,0,1-2.449,3.826,6.832,6.832,0,0,1-2.9,1.322,6.935,6.935,0,0,1-3.653-.28,6.86,6.86,0,0,1-3.246-2.416,6.922,6.922,0,0,1,0-8.246,6.942,6.942,0,0,1,3.245-2.416,6.933,6.933,0,0,1,3.653-.28,6.826,6.826,0,0,1,2.9,1.322,6.736,6.736,0,0,1,2.449,3.826,5.414,5.414,0,0,1,.152,1.238,1.659,1.659,0,0,1-.021.434" transform="translate(-25.89 -21.43)" fill="#263238"/>
        <path id="Trazado_634858" data-name="Trazado 634858" d="M275.61,129.441c0,.119-22.795.214-50.908.214s-50.912-.1-50.912-.214,22.791-.214,50.912-.214,50.908.1,50.908.214" transform="translate(-30.465 -22.653)" fill="#263238"/>
        <path id="Trazado_634859" data-name="Trazado 634859" d="M452.362,127.363a6.925,6.925,0,1,1-6.925-6.925,6.925,6.925,0,0,1,6.925,6.925" transform="translate(-76.87 -21.112)" fill="#e0e0e0"/>
        <path id="Trazado_634860" data-name="Trazado 634860" d="M478,127.363a6.925,6.925,0,1,1-6.925-6.925A6.925,6.925,0,0,1,478,127.363" transform="translate(-81.364 -21.112)" fill="#e0e0e0"/>
        <path id="Trazado_634861" data-name="Trazado 634861" d="M503.638,127.363a6.925,6.925,0,1,1-6.925-6.925,6.925,6.925,0,0,1,6.925,6.925" transform="translate(-85.858 -21.112)" fill="#e0e0e0"/>
      </g>
    </g>
    <g id="Grupo_881267" data-name="Grupo 881267">
      <g id="Grupo_881266" data-name="Grupo 881266" clip-path="url(#clip-path)">
        <path id="Trazado_634862" data-name="Trazado 634862" d="M167.851,315.351c1.226-4.248,3.851-8.355,7.912-10.105,4.223-1.821,9.116-.784,13.439.786s8.568,3.672,13.158,3.956,9.772-1.894,11.147-6.283c1.292-4.126-1.2-8.527-4.311-11.525a27.2,27.2,0,0,0-44.569,10.7" transform="translate(-28.858 -49.891)" fill="#5f914e"/>
        <g id="Grupo_881262" data-name="Grupo 881262" transform="translate(135.768 234.721)" opacity="0.3">
          <g id="Grupo_881261" data-name="Grupo 881261">
            <g id="Grupo_881260" data-name="Grupo 881260" clip-path="url(#clip-path-11)">
              <path id="Trazado_634863" data-name="Trazado 634863" d="M209.2,292.179a27.2,27.2,0,0,0-44.569,10.7l3.225,12.472c1.226-4.249,3.851-8.356,7.912-10.106,4.223-1.82,9.116-.783,13.439.787s8.568,3.672,13.159,3.955,9.771-1.893,11.146-6.283c1.292-4.126-1.2-8.527-4.311-11.525" transform="translate(-164.626 -284.612)"/>
            </g>
          </g>
        </g>
        <path id="Trazado_634864" data-name="Trazado 634864" d="M123.294,333.033c-6.735-6.4-6.4-17.536-3.039-26.2s10.692-15.311,18.882-19.694a59.8,59.8,0,0,1,52.118-1.689,24.74,24.74,0,0,0-20,11.744c-3.691,6.13-4.511,13.57-7.56,20.043a31.552,31.552,0,0,1-40.4,15.794" transform="translate(-20.671 -49.133)" fill="#5f914e"/>
        <path id="Trazado_634865" data-name="Trazado 634865" d="M118.334,274.065c-7.456-8.8-8.449-22.932-7.351-34.415s3.761-23.041,1.949-34.434c-1.073-6.749-3.691-13.194-4.576-19.97s.369-14.441,5.62-18.815c6.035-5.027,15.539-3.841,21.817.879s9.916,12.136,12.574,19.528c5.84,16.239,7.984,34.247,3.186,50.824s-16.055,31.4-32.57,36.4" transform="translate(-18.949 -28.604)" fill="#5f914e"/>
        <path id="Trazado_634866" data-name="Trazado 634866" d="M116.165,368.049a6.189,6.189,0,0,1-.028-1.014c.009-.665,0-1.646.055-2.909.095-2.524.338-6.176.9-10.66a142.182,142.182,0,0,1,2.865-15.611,71.985,71.985,0,0,1,7.124-18.075,75.335,75.335,0,0,1,11.642-15.562,74.1,74.1,0,0,1,12.2-10.149c1.862-1.289,3.664-2.265,5.215-3.172,1.591-.835,2.979-1.52,4.116-2.069l2.683-1.128a6.279,6.279,0,0,1,.951-.354,6.3,6.3,0,0,1-.9.468l-2.629,1.23c-1.117.581-2.484,1.295-4.051,2.153-1.527.931-3.3,1.928-5.14,3.233a76.721,76.721,0,0,0-23.551,25.651c-6.855,11.993-8.733,24.6-10.094,33.442-.619,4.463-.928,8.1-1.1,10.616q-.106,1.822-.17,2.9a6.3,6.3,0,0,1-.1,1.011" transform="translate(-20.358 -50.37)" fill="#263238"/>
        <path id="Trazado_634867" data-name="Trazado 634867" d="M35.5,255.53c-13.8,8.325-13.753,15.9-11.449,23.053s10.771,12.119,17.791,9.441c3.968-1.513,6.843-4.963,9.3-8.428s4.762-7.176,8.2-9.665,8.429-3.442,11.886-.974" transform="translate(-4.015 -44.794)" fill="#5f914e"/>
        <g id="Grupo_881265" data-name="Grupo 881265" transform="translate(18.889 210.736)" opacity="0.3">
          <g id="Grupo_881264" data-name="Grupo 881264">
            <g id="Grupo_881263" data-name="Grupo 881263" clip-path="url(#clip-path-12)">
              <path id="Trazado_634868" data-name="Trazado 634868" d="M35.5,255.53c-13.8,8.325-13.754,15.9-11.449,23.053s10.771,12.119,17.791,9.441c3.968-1.513,6.843-4.963,9.3-8.428s4.762-7.176,8.2-9.665a12.121,12.121,0,0,1,8.23-2.348Z" transform="translate(-22.904 -255.53)"/>
            </g>
          </g>
        </g>
        <path id="Trazado_634869" data-name="Trazado 634869" d="M77.073,270.145l3.656,1.374a7.793,7.793,0,0,0-3.656-1.374" transform="translate(-13.511 -47.355)"/>
        <path id="Trazado_634870" data-name="Trazado 634870" d="M25.659,262.622c3.606-4.985,12.519-6.428,18.146-3.941s9.75,7.42,13.439,12.343,7.28,10.123,12.391,13.549,12.25,4.666,17.344,1.215c3.345-2.266,5.285-6.207,5.892-10.2a33.951,33.951,0,0,0-.811-12.029c-1.217-5.786-3.2-11.829-7.835-15.505-5.161-4.1-12.321-4.291-18.907-4.076-7.557.247-15.226.815-22.319,3.434s-14.329,8.276-17.34,15.212" transform="translate(-4.498 -42.758)" fill="#5f914e"/>
        <path id="Trazado_634871" data-name="Trazado 634871" d="M94.711,349.713a1.123,1.123,0,0,1-.037-.3c-.012-.237-.027-.529-.047-.891q-.043-1.248-.119-3.424c-.087-3.025-.21-7.314-.361-12.593-.167-5.315-.384-11.644-.768-18.663s-.914-14.733-1.978-22.764a73.375,73.375,0,0,0-2.285-11.561A60.059,60.059,0,0,0,84.887,269.4a58.284,58.284,0,0,0-5.334-8.372,54.565,54.565,0,0,0-5.824-6.395A42.809,42.809,0,0,0,63.4,247.59c-.674-.308-1.261-.611-1.79-.826l-1.348-.523-.826-.334a1.09,1.09,0,0,1-.275-.134,1.112,1.112,0,0,1,.3.074l.848.277,1.374.469c.539.2,1.136.485,1.823.779a41.3,41.3,0,0,1,10.518,6.935,53.728,53.728,0,0,1,5.935,6.4,57.956,57.956,0,0,1,5.431,8.419,59.868,59.868,0,0,1,4.3,10.2,73.04,73.04,0,0,1,2.32,11.658c1.069,8.063,1.572,15.791,1.935,22.818s.525,13.363.636,18.682.15,9.624.165,12.6c0,1.449,0,2.594,0,3.427-.006.361-.011.654-.014.891a1.147,1.147,0,0,1-.026.3" transform="translate(-10.371 -43.083)" fill="#263238"/>
        <path id="Trazado_634872" data-name="Trazado 634872" d="M107.772,347.008a39.584,39.584,0,0,1-1.511-5.925,62.169,62.169,0,0,1-.633-16.645,110.652,110.652,0,0,1,5.257-24.151c2.831-8.875,6.675-18.368,9.958-28.57a131.273,131.273,0,0,0,3.962-15.117,134.754,134.754,0,0,0,1.957-14.423,211.118,211.118,0,0,0,.44-24.664c-.238-7.026-.612-12.707-.845-16.633-.114-1.934-.2-3.45-.266-4.523-.023-.491-.041-.879-.055-1.177a1.99,1.99,0,0,1,0-.4,1.913,1.913,0,0,1,.061.4c.029.3.068.684.115,1.173.091,1.071.219,2.585.383,4.514.307,3.922.746,9.6,1.041,16.634a203.559,203.559,0,0,1-.308,24.728,132.926,132.926,0,0,1-1.931,14.492,130.034,130.034,0,0,1-3.967,15.189c-3.295,10.235-7.153,19.716-10.005,28.558a112.377,112.377,0,0,0-5.364,24.015,64.207,64.207,0,0,0,.435,16.564c.338,1.932.648,3.427.921,4.425.115.477.208.855.278,1.145a1.927,1.927,0,0,1,.075.4" transform="translate(-18.468 -34.144)" fill="#263238"/>
        <path id="Trazado_634873" data-name="Trazado 634873" d="M135.676,384.275H70.9l-1.479-12.469h66.258Z" transform="translate(-12.169 -65.176)" fill="#455a64"/>
        <path id="Trazado_634874" data-name="Trazado 634874" d="M79.64,385.2l8.1,37.4h35.2l7.577-37.4Z" transform="translate(-13.961 -67.525)" fill="#455a64"/>
        <path id="Trazado_634875" data-name="Trazado 634875" d="M136.237,386.838c0,.171-14.243.269-31.807.219s-31.809-.227-31.809-.4,14.24-.269,31.81-.219,31.806.228,31.806.4" transform="translate(-12.73 -67.739)" fill="#455a64"/>
        <path id="Trazado_634876" data-name="Trazado 634876" d="M127.146,408.2a26.723,26.723,0,0,0-5.7-3.269,20.146,20.146,0,0,0-6.938-1.394,24.374,24.374,0,0,0-8.528,1.566c-2.953,1-5.71,2.159-8.4,2.8a20,20,0,0,1-7.257.219,14.943,14.943,0,0,1-4.663-1.477,9.061,9.061,0,0,1-1.125-.714c-.242-.183-.364-.286-.35-.3.034-.05.553.321,1.582.8a16.328,16.328,0,0,0,4.618,1.26,20.366,20.366,0,0,0,7.068-.341c2.593-.647,5.35-1.823,8.325-2.83a24.231,24.231,0,0,1,8.741-1.548,19.812,19.812,0,0,1,7.088,1.556,18.379,18.379,0,0,1,4.222,2.463,10.875,10.875,0,0,1,1.006.868c.219.21.327.328.313.344" transform="translate(-14.757 -70.636)" fill="#263238"/>
        <path id="Trazado_634877" data-name="Trazado 634877" d="M126.865,411.238a28.192,28.192,0,0,0-5.479-3.226,18.562,18.562,0,0,0-6.69-1.379,24.1,24.1,0,0,0-8.25,1.484c-2.854.954-5.531,2.061-8.09,2.75a20.818,20.818,0,0,1-6.973.783,11.816,11.816,0,0,1-4.571-1.223,8.273,8.273,0,0,1-1.089-.689c-.235-.178-.351-.279-.339-.3.035-.051.535.311,1.532.769a12.575,12.575,0,0,0,4.494,1,21.3,21.3,0,0,0,6.793-.9c2.5-.7,5.162-1.821,8.047-2.787a23.905,23.905,0,0,1,8.459-1.467,18.3,18.3,0,0,1,6.846,1.546,18.091,18.091,0,0,1,4.044,2.447,11.417,11.417,0,0,1,.965.846c.21.2.313.319.3.335" transform="translate(-14.967 -71.179)" fill="#fff"/>
        <path id="Trazado_634878" data-name="Trazado 634878" d="M127.639,405.077a30.715,30.715,0,0,0-5.858-3.452,21.561,21.561,0,0,0-7.111-1.71,22.99,22.99,0,0,0-8.8,1.551,79.356,79.356,0,0,1-8.692,2.839,22.116,22.116,0,0,1-7.493.012,16.832,16.832,0,0,1-4.813-1.523,8.866,8.866,0,0,1-1.169-.726c-.252-.187-.378-.294-.365-.311.035-.05.569.333,1.637.821a18.569,18.569,0,0,0,4.777,1.308,22.623,22.623,0,0,0,7.318-.139,88.019,88.019,0,0,0,8.6-2.865,22.952,22.952,0,0,1,9.033-1.534,21.8,21.8,0,0,1,11.573,4.48,11.849,11.849,0,0,1,1.038.9c.226.217.337.338.323.354" transform="translate(-14.609 -69.997)" fill="#fff"/>
        <path id="Trazado_634879" data-name="Trazado 634879" d="M136.619,386.924c0,.171-14.572.308-32.544.308s-32.546-.138-32.546-.308,14.568-.308,32.546-.308,32.544.138,32.544.308" transform="translate(-12.539 -67.772)" fill="#263238"/>
      </g>
    </g>
    <rect id="Rectángulo_329829" data-name="Rectángulo 329829" width="7.288" height="5.274" transform="translate(501.369 168.129)" fill="#455a64"/>
    <rect id="Rectángulo_329830" data-name="Rectángulo 329830" width="12.54" height="36.623" transform="translate(434.961 125.352)" fill="#0082ff"/>
    <g id="Grupo_881272" data-name="Grupo 881272" transform="translate(0 -4.637)">
      <g id="Grupo_881271" data-name="Grupo 881271" clip-path="url(#clip-path)">
        <g id="Grupo_881270" data-name="Grupo 881270" transform="translate(434.961 130.352)" opacity="0.3">
          <g id="Grupo_881269" data-name="Grupo 881269">
            <g id="Grupo_881268" data-name="Grupo 881268" clip-path="url(#clip-path-14)">
              <rect id="Rectángulo_329831" data-name="Rectángulo 329831" width="12.54" height="36.623"/>
            </g>
          </g>
        </g>
      </g>
    </g>
    <path id="Trazado_634880" data-name="Trazado 634880" d="M542.62,148.369v42.18h35.91l8.55-5.13V154.354l-8.692-5.985Z" transform="translate(-95.119 -26.009)" fill="#0082ff"/>
    <rect id="Rectángulo_329834" data-name="Rectángulo 329834" width="2.74" height="42.18" transform="translate(458.577 122.36)" fill="#455a64"/>
    <g id="Grupo_881274" data-name="Grupo 881274">
      <g id="Grupo_881273" data-name="Grupo 881273" clip-path="url(#clip-path)">
        <path id="Trazado_634881" data-name="Trazado 634881" d="M578.033,190.241c-.1,0-.186-9.308-.186-20.789s.083-20.791.186-20.791.186,9.307.186,20.791-.083,20.789-.186,20.789" transform="translate(-101.294 -26.06)" fill="#263238"/>
        <path id="Trazado_634882" data-name="Trazado 634882" d="M574.49,189.443c0,.1-3.385.186-7.558.186s-7.56-.083-7.56-.186,3.385-.186,7.56-.186,7.558.083,7.558.186" transform="translate(-98.056 -33.176)" fill="#263238"/>
        <path id="Trazado_634883" data-name="Trazado 634883" d="M574.49,186.613c0,.1-3.385.186-7.558.186s-7.56-.083-7.56-.186,3.385-.186,7.56-.186,7.558.083,7.558.186" transform="translate(-98.056 -32.68)" fill="#263238"/>
        <path id="Trazado_634884" data-name="Trazado 634884" d="M574.49,183.783c0,.1-3.385.186-7.558.186s-7.56-.083-7.56-.186,3.385-.186,7.56-.186,7.558.083,7.558.186" transform="translate(-98.056 -32.184)" fill="#263238"/>
        <path id="Trazado_634885" data-name="Trazado 634885" d="M574.49,180.954c0,.1-3.385.186-7.558.186s-7.56-.083-7.56-.186,3.385-.186,7.56-.186,7.558.083,7.558.186" transform="translate(-98.056 -31.688)" fill="#263238"/>
        <path id="Trazado_634886" data-name="Trazado 634886" d="M574.49,178.124c0,.1-3.385.186-7.558.186s-7.56-.083-7.56-.186,3.385-.186,7.56-.186,7.558.083,7.558.186" transform="translate(-98.056 -31.192)" fill="#263238"/>
        <path id="Trazado_634887" data-name="Trazado 634887" d="M574.49,175.294c0,.1-3.385.186-7.558.186s-7.56-.083-7.56-.186,3.385-.186,7.56-.186,7.558.083,7.558.186" transform="translate(-98.056 -30.696)" fill="#263238"/>
        <path id="Trazado_634888" data-name="Trazado 634888" d="M574.49,172.465c0,.1-3.385.186-7.558.186s-7.56-.083-7.56-.186,3.385-.186,7.56-.186,7.558.083,7.558.186" transform="translate(-98.056 -30.2)" fill="#263238"/>
        <path id="Trazado_634889" data-name="Trazado 634889" d="M574.49,169.635c0,.1-3.385.186-7.558.186s-7.56-.083-7.56-.186,3.385-.186,7.56-.186,7.558.083,7.558.186" transform="translate(-98.056 -29.704)" fill="#263238"/>
        <path id="Trazado_634890" data-name="Trazado 634890" d="M574.49,166.805c0,.1-3.385.186-7.558.186s-7.56-.083-7.56-.186,3.385-.186,7.56-.186,7.558.083,7.558.186" transform="translate(-98.056 -29.208)" fill="#263238"/>
        <path id="Trazado_634891" data-name="Trazado 634891" d="M574.49,163.976c0,.1-3.385.186-7.558.186s-7.56-.083-7.56-.186,3.385-.186,7.56-.186,7.558.083,7.558.186" transform="translate(-98.056 -28.712)" fill="#263238"/>
        <path id="Trazado_634892" data-name="Trazado 634892" d="M574.49,161.146c0,.1-3.385.186-7.558.186s-7.56-.083-7.56-.186,3.385-.186,7.56-.186,7.558.083,7.558.186" transform="translate(-98.056 -28.216)" fill="#263238"/>
        <path id="Trazado_634893" data-name="Trazado 634893" d="M574.49,158.316c0,.1-3.385.186-7.558.186s-7.56-.083-7.56-.186,3.385-.186,7.56-.186,7.558.083,7.558.186" transform="translate(-98.056 -27.72)" fill="#263238"/>
        <path id="Trazado_634894" data-name="Trazado 634894" d="M574.49,155.486c0,.1-3.385.186-7.558.186s-7.56-.083-7.56-.186,3.385-.186,7.56-.186,7.558.083,7.558.186" transform="translate(-98.056 -27.224)" fill="#263238"/>
        <path id="Trazado_634895" data-name="Trazado 634895" d="M574.49,152.657c0,.1-3.385.186-7.558.186s-7.56-.083-7.56-.186,3.385-.186,7.56-.186,7.558.083,7.558.186" transform="translate(-98.056 -26.728)" fill="#263238"/>
        <path id="Trazado_634896" data-name="Trazado 634896" d="M574.49,149.827c0,.1-3.385.186-7.558.186s-7.56-.083-7.56-.186,3.385-.186,7.56-.186,7.558.083,7.558.186" transform="translate(-98.056 -26.232)" fill="#263238"/>
        <path id="Trazado_634897" data-name="Trazado 634897" d="M574.49,192.642c0,.1-3.385.186-7.558.186s-7.56-.083-7.56-.186,3.385-.186,7.56-.186,7.558.083,7.558.186" transform="translate(-98.056 -33.737)" fill="#263238"/>
        <path id="Trazado_634898" data-name="Trazado 634898" d="M574.49,195.84c0,.1-3.385.186-7.558.186s-7.56-.083-7.56-.186,3.385-.186,7.56-.186,7.558.083,7.558.186" transform="translate(-98.056 -34.297)" fill="#263238"/>
        <path id="Trazado_634899" data-name="Trazado 634899" d="M588.767,138.87v1.937a2.378,2.378,0,0,0,1.268,2.1l5.135,2.711v43.158h5.437a3.542,3.542,0,0,0,3.542-3.542h21a6.167,6.167,0,0,0,6.166-6.166V141.518a2.131,2.131,0,0,0-2.131-2.131h-2.708V137.03l-4.59-4.342-19.229.745-12.112,3.136a2.377,2.377,0,0,0-1.781,2.3" transform="translate(-103.209 -23.26)" fill="#0082ff"/>
        <path id="Trazado_634900" data-name="Trazado 634900" d="M631.315,143.459c-.007.1-9.54-.548-21.288-1.453s-21.27-1.722-21.263-1.824,9.539.548,21.291,1.453,21.268,1.722,21.26,1.824" transform="translate(-103.208 -24.572)" fill="#263238"/>
        <path id="Trazado_634901" data-name="Trazado 634901" d="M607.312,153.379c.1,0,.186,7.952.186,17.759s-.083,17.761-.186,17.761-.186-7.951-.186-17.761.083-17.759.186-17.759" transform="translate(-106.427 -26.887)" fill="#263238"/>
        <path id="Trazado_634902" data-name="Trazado 634902" d="M616.068,142.146a54.328,54.328,0,0,1-4.222,4.759,54.6,54.6,0,0,1-4.5,4.5,54.636,54.636,0,0,1,4.223-4.76,54.585,54.585,0,0,1,4.495-4.5" transform="translate(-106.466 -24.917)" fill="#263238"/>
        <path id="Trazado_634903" data-name="Trazado 634903" d="M601.77,143.59a1.639,1.639,0,0,0-1.625,1.385,1.525,1.525,0,0,0,3.026.382c.006-1.02-.436-1.767-1.4-1.767" transform="translate(-105.202 -25.171)" fill="#263238"/>
        <path id="Trazado_634904" data-name="Trazado 634904" d="M596.491,191.535c-.1,0-.186-9.651-.186-21.554s.083-21.558.186-21.558.186,9.651.186,21.558-.083,21.554-.186,21.554" transform="translate(-104.53 -26.018)" fill="#263238"/>
        <path id="Trazado_634905" data-name="Trazado 634905" d="M586.106,190.549c-.1,0-.219-9.443-.257-21.088s.012-21.091.115-21.092.219,9.44.257,21.091-.011,21.089-.115,21.089" transform="translate(-102.695 -26.009)" fill="#263238"/>
        <path id="Trazado_634906" data-name="Trazado 634906" d="M581.54,152.628a1.05,1.05,0,1,1-.282.1" transform="translate(-101.804 -26.752)" fill="#263238"/>
        <path id="Trazado_634907" data-name="Trazado 634907" d="M628.088,200.905H607.352V196.05h22.407v3.183a1.672,1.672,0,0,1-1.672,1.673" transform="translate(-106.467 -34.367)" fill="#263238"/>
        <path id="Trazado_634908" data-name="Trazado 634908" d="M616.264,204.023H605.371a.446.446,0,0,1-.445-.445v-1.195a.446.446,0,0,1,.445-.445h10.893a.445.445,0,0,1,.445.445v1.195a.445.445,0,0,1-.445.445" transform="translate(-106.041 -35.399)" fill="#263238"/>
        <path id="Trazado_634909" data-name="Trazado 634909" d="M625.405,214.244H595.361a.85.85,0,0,1-.849-.85V211.11a.849.849,0,0,1,.849-.849h30.044a.85.85,0,0,1,.85.849v2.284a.85.85,0,0,1-.85.85" transform="translate(-104.216 -36.858)" fill="#263238"/>
        <path id="Trazado_634910" data-name="Trazado 634910" d="M640.5,215.693H630.55a1.635,1.635,0,0,1-1.635-1.635v-4.393a1.635,1.635,0,0,1,1.635-1.635H640.5a1.635,1.635,0,0,1,1.635,1.635v4.393a1.634,1.634,0,0,1-1.635,1.635" transform="translate(-110.247 -36.467)" fill="#263238"/>
        <rect id="Rectángulo_329835" data-name="Rectángulo 329835" width="11.306" height="38.974" transform="translate(498.698 177.387)" fill="#263238"/>
        <path id="Trazado_634911" data-name="Trazado 634911" d="M613.64,401.5h-6.63a2.467,2.467,0,0,1-2.468-2.467V260.33h11.564v138.7a2.467,2.467,0,0,1-2.467,2.467" transform="translate(-105.974 -45.635)" fill="#263238"/>
        <path id="Trazado_634912" data-name="Trazado 634912" d="M616.726,402.078h-14.9a1.971,1.971,0,0,1-1.97-1.97v-9.216a1.971,1.971,0,0,1,1.97-1.97h14.9a1.971,1.971,0,0,1,1.97,1.971v9.215a1.971,1.971,0,0,1-1.97,1.97" transform="translate(-105.153 -68.177)" fill="#455a64"/>
        <path id="Trazado_634913" data-name="Trazado 634913" d="M629.441,400.483H622.7v-9.1h6.741a1.942,1.942,0,0,1,1.942,1.941v5.22a1.942,1.942,0,0,1-1.942,1.942" transform="translate(-109.157 -68.608)" fill="#455a64"/>
        <path id="Trazado_634914" data-name="Trazado 634914" d="M591.272,391.38h6.741v9.1h-6.741a1.942,1.942,0,0,1-1.942-1.941v-5.22a1.942,1.942,0,0,1,1.942-1.942" transform="translate(-103.307 -68.608)" fill="#455a64"/>
        <path id="Trazado_634915" data-name="Trazado 634915" d="M622.686,266.779H593.352a1.964,1.964,0,0,1-1.964-1.964v-5.279a1.964,1.964,0,0,1,1.964-1.964h29.334a1.964,1.964,0,0,1,1.964,1.964v5.279a1.964,1.964,0,0,1-1.964,1.964" transform="translate(-103.668 -45.151)" fill="#263238"/>
        <path id="Trazado_634916" data-name="Trazado 634916" d="M642.675,418.978H564.168a3.183,3.183,0,0,0-3.183,3.183v3.965a3.184,3.184,0,0,0,3.183,3.184h78.507a3.184,3.184,0,0,0,3.183-3.184v-3.965a3.183,3.183,0,0,0-3.183-3.183" transform="translate(-98.339 -73.445)" fill="#455a64"/>
        <rect id="Rectángulo_329836" data-name="Rectángulo 329836" width="41.023" height="3.637" transform="translate(519.646 215.205)" fill="#263238"/>
        <path id="Trazado_634917" data-name="Trazado 634917" d="M690.652,267.732H677.668a2.5,2.5,0,0,1-2.5-2.5V258.53a2.5,2.5,0,0,1,2.5-2.5h12.984a2.5,2.5,0,0,1,2.5,2.5v6.707a2.5,2.5,0,0,1-2.5,2.5" transform="translate(-118.355 -44.882)" fill="#263238"/>
        <path id="Trazado_634918" data-name="Trazado 634918" d="M521.588,149.418l.5,39.507,5.3,2.4V147.213c-.378.126-5.806,2.205-5.806,2.205" transform="translate(-91.433 -25.806)" fill="#0082ff"/>
        <path id="Trazado_634919" data-name="Trazado 634919" d="M552.231,190.952c-.1,0-.186-9.681-.186-21.62s.083-21.622.186-21.622.186,9.679.186,21.622-.083,21.62-.186,21.62" transform="translate(-96.772 -25.893)" fill="#263238"/>
        <path id="Trazado_634920" data-name="Trazado 634920" d="M525.394,189.7c-.1,0-.186-9.261-.186-20.684s.083-20.685.186-20.685.186,9.259.186,20.685-.083,20.684-.186,20.684" transform="translate(-92.067 -26.001)" fill="#263238"/>
        <path id="Trazado_634921" data-name="Trazado 634921" d="M539.328,175.124a72.435,72.435,0,0,1-10.385,0,72.435,72.435,0,0,1,10.385,0" transform="translate(-92.722 -30.666)" fill="#263238"/>
        <path id="Trazado_634922" data-name="Trazado 634922" d="M628.6,185.745c-.1,0-.186-9.44-.186-21.081s.083-21.083.186-21.083.186,9.437.186,21.083-.083,21.081-.186,21.081" transform="translate(-110.159 -25.169)" fill="#263238"/>
      </g>
    </g>
    <g id="Grupo_881276" data-name="Grupo 881276">
      <g id="Grupo_881275" data-name="Grupo 881275" clip-path="url(#clip-path)">
        <path id="Trazado_634923" data-name="Trazado 634923" d="M248.174,97.406l-9.2-16.216a43.45,43.45,0,1,0-10.407,11.576l-.015.019Z" transform="translate(-27.81 -2.647)" fill="#fafafa"/>
        <path id="Trazado_634924" data-name="Trazado 634924" d="M248.126,97.362l-19.654-4.491-.2-.046.126-.165.015-.02.187.187a44.456,44.456,0,0,1-8.922,5.38,43.546,43.546,0,0,1-11.9,3.4,39.068,39.068,0,0,1-6.87.347c-1.182-.067-2.385-.1-3.6-.2l-3.667-.553a43.787,43.787,0,0,1-27.115-17.406A43.276,43.276,0,0,1,159.2,67.031a44.24,44.24,0,0,1,.512-19.3,42.807,42.807,0,0,1,9.3-17.845l1.772-1.95c.583-.656,1.277-1.2,1.908-1.8.661-.569,1.257-1.213,1.967-1.716l2.082-1.557a18.469,18.469,0,0,1,2.157-1.426l2.2-1.337,2.3-1.119a20.368,20.368,0,0,1,2.327-1.034,44.279,44.279,0,0,1,19.45-2.989,42.8,42.8,0,0,1,17.852,5.276,44.018,44.018,0,0,1,20.6,25.344,46.885,46.885,0,0,1,1.885,14.112,43.151,43.151,0,0,1-2.124,12.184,43.992,43.992,0,0,1-4.353,9.337l0-.131,9.09,16.28-9.313-16.153-.037-.065.04-.066a43.967,43.967,0,0,0,4.27-9.3,42.975,42.975,0,0,0,2.056-12.1A46.65,46.65,0,0,0,243.227,45.7a43.638,43.638,0,0,0-20.434-25.036,42.353,42.353,0,0,0-17.652-5.192,43.8,43.8,0,0,0-19.215,2.966,20,20,0,0,0-2.3,1.023l-2.276,1.106-2.174,1.321A17.916,17.916,0,0,0,177.05,23.3l-2.057,1.538c-.7.5-1.29,1.134-1.942,1.7-.623.594-1.31,1.127-1.885,1.776l-1.751,1.926a42.325,42.325,0,0,0-9.19,17.624,43.774,43.774,0,0,0-.52,19.071,42.817,42.817,0,0,0,7.228,16.577,43.394,43.394,0,0,0,26.795,17.278l3.63.56c1.2.1,2.393.135,3.564.206a38.835,38.835,0,0,0,6.81-.321,43.352,43.352,0,0,0,11.816-3.32,44.443,44.443,0,0,0,8.891-5.294l.808-.618-.62.8-.015.019-.075-.21,19.592,4.75" transform="translate(-27.762 -2.602)" fill="#263238"/>
        <path id="Trazado_634925" data-name="Trazado 634925" d="M194.546,66.74a4.406,4.406,0,1,1-4.406-4.406,4.406,4.406,0,0,1,4.406,4.406" transform="translate(-32.558 -10.927)" fill="#263238"/>
        <path id="Trazado_634926" data-name="Trazado 634926" d="M215.927,66.74a4.406,4.406,0,1,1-4.406-4.406,4.406,4.406,0,0,1,4.406,4.406" transform="translate(-36.306 -10.927)" fill="#263238"/>
        <path id="Trazado_634927" data-name="Trazado 634927" d="M237.379,64.537a4.406,4.406,0,1,1-6.02-1.613,4.406,4.406,0,0,1,6.02,1.613" transform="translate(-40.17 -10.927)" fill="#263238"/>
      </g>
    </g>
  </g>
</svg>
