<svg id="Grupo_881542" data-name="Grupo 881542" xmlns="http://www.w3.org/2000/svg" xmlns:xlink="http://www.w3.org/1999/xlink" width="416.474" height="388.823" viewBox="0 0 416.474 388.823">
  <defs>
    <clipPath id="clip-path">
      <rect id="Rectángulo_330022" data-name="Rectángulo 330022" width="416.474" height="388.823" fill="none"/>
    </clipPath>
    <clipPath id="clip-path-6">
      <rect id="Rectángulo_330018" data-name="Rectángulo 330018" width="71.571" height="37.283" fill="none"/>
    </clipPath>
  </defs>
  <g id="Grupo_881541" data-name="Grupo 881541" clip-path="url(#clip-path)">
    <g id="Grupo_881527" data-name="Grupo 881527">
      <g id="Grupo_881526" data-name="Grupo 881526" clip-path="url(#clip-path)">
        <path id="Trazado_635641" data-name="Trazado 635641" d="M397.35,389.559h3.093l6.749-9.406v-6.173s4.781-.295,4.219,7.789.045,6.026.045,6.026,10.151.039,10.994.921c.614.641.892,10.724,1,16.192a5.922,5.922,0,0,1-4.2,5.964,4.453,4.453,0,0,1-1.092.147c-2.532,0-15.467-2.058-15.467-2.058H397.35Z" transform="translate(-37.243 -35.052)" fill="#e0e0e0"/>
        <path id="Trazado_635642" data-name="Trazado 635642" d="M387.58,389.3l1.9,21.154h5.3V389.725Z" transform="translate(-36.327 -36.488)" fill="#e0e0e0"/>
        <path id="Trazado_635643" data-name="Trazado 635643" d="M222.838,40.1l13.323,19.05a3.593,3.593,0,0,0,5.956-.1l12.9-19.812Z" transform="translate(-20.886 -3.677)" fill="#e0e0e0"/>
        <path id="Trazado_635644" data-name="Trazado 635644" d="M255.165,47.428H217.771a10.479,10.479,0,0,1-10.479-10.48V15.471A10.479,10.479,0,0,1,217.771,4.992h37.394a10.481,10.481,0,0,1,10.48,10.479V36.948a10.481,10.481,0,0,1-10.48,10.48" transform="translate(-19.429 -0.468)" fill="#e0e0e0"/>
        <path id="Trazado_635645" data-name="Trazado 635645" d="M249.852,23.741c-1.871-3.418-4.972-3.95-7.057-3.171a7.19,7.19,0,0,0-3.442,3.171,7.194,7.194,0,0,0-3.443-3.171c-2.085-.778-5.187-.247-7.057,3.171-3.9,7.134,10.5,16.423,10.5,16.423s14.4-9.288,10.5-16.423" transform="translate(-21.387 -1.899)" fill="#fff"/>
        <path id="Trazado_635646" data-name="Trazado 635646" d="M60.151,367.856H90.88a12.372,12.372,0,0,1,12.372,12.372v15.6A12.372,12.372,0,0,1,90.88,408.2h-8.03l-5.658,8.089a3.416,3.416,0,0,1-5.662-.094l-5.2-8H60.151a12.372,12.372,0,0,1-12.372-12.372v-15.6a12.372,12.372,0,0,1,12.372-12.372" transform="translate(-4.478 -34.478)" fill="#e0e0e0"/>
        <path id="Trazado_635647" data-name="Trazado 635647" d="M76,381.53v15.915l-11.392-7.958Z" transform="translate(-6.055 -35.76)" fill="#fff"/>
        <path id="Trazado_635648" data-name="Trazado 635648" d="M92.386,399.29s-.754-11.308-9.8-11.475h-5.78v4.859l5.7.083s5.963-.139,9.884,6.533" transform="translate(-7.199 -36.349)" fill="#fff"/>
        <path id="Trazado_635649" data-name="Trazado 635649" d="M80.428,181.12a8.148,8.148,0,1,1-8.147-8.147,8.147,8.147,0,0,1,8.147,8.147" transform="translate(-6.011 -16.212)" fill="#e0e0e0"/>
        <path id="Trazado_635650" data-name="Trazado 635650" d="M71.683,189.86a13.929,13.929,0,0,0-13.929,13.929H85.611A13.929,13.929,0,0,0,71.683,189.86" transform="translate(-5.413 -17.795)" fill="#e0e0e0"/>
        <path id="Trazado_635651" data-name="Trazado 635651" d="M323.709,12.48a5.666,5.666,0,1,1-5.666-5.666,5.666,5.666,0,0,1,5.666,5.666" transform="translate(-29.278 -0.639)" fill="#e0e0e0"/>
        <path id="Trazado_635652" data-name="Trazado 635652" d="M341.049,27.108a5.666,5.666,0,1,1-5.666-5.666,5.666,5.666,0,0,1,5.666,5.666" transform="translate(-30.904 -2.01)" fill="#e0e0e0"/>
        <path id="Trazado_635653" data-name="Trazado 635653" d="M323.806,42.027a5.666,5.666,0,1,1-5.667-5.666,5.667,5.667,0,0,1,5.667,5.666" transform="translate(-29.287 -3.408)" fill="#e0e0e0"/>
        <path id="Trazado_635654" data-name="Trazado 635654" d="M318.629,13.066l15.716,13.257L318.717,39.844" transform="translate(-29.864 -1.225)" fill="none" stroke="#e0e0e0" stroke-miterlimit="10" stroke-width="1"/>
        <path id="Trazado_635655" data-name="Trazado 635655" d="M429.8,159.219c-2.446-4.47-6.5-5.165-9.229-4.146a9.406,9.406,0,0,0-4.5,4.146,9.4,9.4,0,0,0-4.5-4.146c-2.726-1.019-6.783-.324-9.229,4.146-5.106,9.331,13.731,21.478,13.731,21.478S434.9,168.55,429.8,159.219" transform="translate(-37.627 -14.496)" fill="#e0e0e0"/>
        <path id="Trazado_635656" data-name="Trazado 635656" d="M406.056,207.355c-1.743-3.186-4.633-3.68-6.575-2.954a6.7,6.7,0,0,0-3.208,2.954,6.7,6.7,0,0,0-3.207-2.954c-1.943-.726-4.832-.231-6.575,2.954-3.638,6.648,9.782,15.3,9.782,15.3s13.42-8.654,9.783-15.3" transform="translate(-36.166 -19.131)" fill="#e0e0e0"/>
      </g>
    </g>
    <g id="Grupo_881529" data-name="Grupo 881529">
      <g id="Grupo_881528" data-name="Grupo 881528" clip-path="url(#clip-path)">
        <path id="Trazado_635657" data-name="Trazado 635657" d="M416.739,37.292H356.306A13.416,13.416,0,0,0,342.89,50.708v36.63a13.416,13.416,0,0,0,13.416,13.416h18.678l10.471,14.973a3.524,3.524,0,0,0,5.841-.1l9.682-14.876h15.761a13.416,13.416,0,0,0,13.416-13.416V50.708a13.416,13.416,0,0,0-13.416-13.416" transform="translate(-32.138 -3.495)" fill="#fff"/>
        <path id="Trazado_635658" data-name="Trazado 635658" d="M416.716,37.272s.152,0,.452,0a9.6,9.6,0,0,1,1.332.091,12.58,12.58,0,0,1,4.907,1.62,13.453,13.453,0,0,1,6.817,11.157c.06,1.873.025,3.846.043,5.935.014,8.353.031,18.434.051,29.894a18.412,18.412,0,0,1-.346,4.378,13.02,13.02,0,0,1-1.731,4.185,13.63,13.63,0,0,1-7.3,5.727,15.028,15.028,0,0,1-4.832.68l-4.947,0-10.2.007.185-.1-5.541,8.524-2.857,4.394c-.493.741-.936,1.477-1.476,2.232a3.74,3.74,0,0,1-5.136.729,3.966,3.966,0,0,1-.985-1.034l-.782-1.117L381.2,110.07q-3.178-4.543-6.436-9.2l.193.1H357.145a16.9,16.9,0,0,1-3.791-.323,14.66,14.66,0,0,1-3.555-1.314,13.725,13.725,0,0,1-7.164-12.246c0-9.613.009-18.886.014-27.719q0-3.313,0-6.541c.007-1.078-.022-2.138.057-3.221.02-.539.146-1.066.214-1.6.128-.518.246-1.04.41-1.544a13.967,13.967,0,0,1,3.236-5.315,13.623,13.623,0,0,1,5.077-3.247,10.032,10.032,0,0,1,1.424-.428,11.028,11.028,0,0,1,1.448-.268,21.589,21.589,0,0,1,2.887-.124l5.578.007,10.487.015,31.642.075,8.6.043,2.238.024c.5.008.762.024.762.024s-.258.016-.762.024l-2.238.023-8.6.044-31.642.075-10.487.015-5.578.007a21.166,21.166,0,0,0-2.838.127,10.675,10.675,0,0,0-1.407.264,9.536,9.536,0,0,0-1.381.419,13.224,13.224,0,0,0-4.923,3.162,13.544,13.544,0,0,0-3.129,5.161c-.159.488-.272,1-.4,1.5-.064.515-.187,1.025-.2,1.547-.076,1.036-.046,2.114-.051,3.188q0,3.227,0,6.541c0,8.833.009,18.106.014,27.719a13.261,13.261,0,0,0,6.925,11.833,14.188,14.188,0,0,0,3.433,1.268,16.414,16.414,0,0,0,3.69.311h17.938l.071.1,6.433,9.2,3.155,4.513.782,1.118a3.529,3.529,0,0,0,.875.925,3.307,3.307,0,0,0,2.392.587,3.271,3.271,0,0,0,2.113-1.224c.5-.69.972-1.472,1.455-2.2l2.861-4.391,5.551-8.517.065-.1h.119l10.2.007,4.947,0a14.618,14.618,0,0,0,4.705-.652,13.237,13.237,0,0,0,7.1-5.545,12.671,12.671,0,0,0,1.69-4.062,18.06,18.06,0,0,0,.347-4.294c.019-11.46.036-21.541.05-29.894-.007-2.084.037-4.071-.012-5.925a13.31,13.31,0,0,0-6.649-11.042,12.761,12.761,0,0,0-4.845-1.673,11.061,11.061,0,0,0-1.324-.126c-.3-.022-.451-.042-.451-.042" transform="translate(-32.114 -3.476)" fill="#263238"/>
        <path id="Trazado_635659" data-name="Trazado 635659" d="M392.936,58.8V83.837l17.92-12.517Z" transform="translate(-36.829 -5.511)" fill="#0082ff"/>
        <path id="Trazado_635660" data-name="Trazado 635660" d="M366.475,86.74s1.186-17.788,15.417-18.052h9.092v7.643l-8.96.131s-9.38-.218-15.548,10.278" transform="translate(-34.349 -6.438)" fill="#0082ff"/>
      </g>
    </g>
    <g id="Grupo_881531" data-name="Grupo 881531">
      <g id="Grupo_881530" data-name="Grupo 881530" clip-path="url(#clip-path)">
        <path id="Trazado_635661" data-name="Trazado 635661" d="M28.549,122.057h124.68a12.693,12.693,0,0,0,12.693-12.692V12.905A12.693,12.693,0,0,0,153.229.213H28.549A12.692,12.692,0,0,0,15.857,12.905v96.459a12.692,12.692,0,0,0,12.692,12.692" transform="translate(-1.486 -0.02)" fill="#fff"/>
        <path id="Trazado_635662" data-name="Trazado 635662" d="M88.759,130.543c-1.54,3.73-31.305,31.7-31.305,31.7v-31.7Z" transform="translate(-5.385 -12.235)" fill="#455a64"/>
        <path id="Trazado_635663" data-name="Trazado 635663" d="M129.693,54.957c.076-6.356,1.078-12.69.834-19.042s-1.915-12.967-6.347-17.523-12.127-6.295-17.312-2.618l-1.064,5.409,6.123,73.52c.268,3.22.562,6.532,2.026,9.412s4.4,5.255,7.626,5.058c4.219-.259,6.987-4.536,8.3-8.554,4.755-14.566-.37-30.34-.186-45.662" transform="translate(-9.917 -1.292)" fill="#263238"/>
        <path id="Trazado_635664" data-name="Trazado 635664" d="M114.234,22.22A17.73,17.73,0,0,0,111,17.84a6.06,6.06,0,0,0-5-1.671,2.51,2.51,0,0,0-1.982,1.448c-.284.809.322,1.891,1.176,1.821l.182.156q2.855,2.526,5.807,4.936a4.972,4.972,0,0,0,1.621,1,1.721,1.721,0,0,0,1.776-.378c.7-.791.189-2.023-.347-2.935" transform="translate(-9.743 -1.508)" fill="#ff725e"/>
        <path id="Trazado_635665" data-name="Trazado 635665" d="M113.7,28.459c-6.334-7.742-14.84-12.2-24.841-12.363C83.22,16,80.884,17.174,76.821,18.271a17.808,17.808,0,0,0-10.153,6.716c-2.879,4.086-5.3,8.663-5.843,13.632a83.714,83.714,0,0,0-.734,15.363,28.059,28.059,0,0,0,4.791,14.434l13.029,2.264c7.2.246,14.49.481,21.5-1.16s13.822-5.413,17.576-11.558c5.216-8.535,3.05-21.762-3.284-29.5" transform="translate(-5.62 -1.508)" fill="#263238"/>
        <path id="Trazado_635666" data-name="Trazado 635666" d="M78.161,94.365c.087-4.572.241-10.3.241-10.283,0,0-10.624-1.17-13.56-14.786-1.459-6.772-1.731-17.991-1.657-27.178.067-8.269,7.109-19.529,17.318-19.566l4.538-.527,17.37,6.9A4.839,4.839,0,0,1,107,33.593l.656,59.877-11.13,18.589L76.615,96.63Z" transform="translate(-5.921 -2.064)" fill="#b56760"/>
        <path id="Trazado_635667" data-name="Trazado 635667" d="M86.916,70.41a2.9,2.9,0,0,0-1-1.788,2.961,2.961,0,0,0-3.593-.2,3.967,3.967,0,0,0-1.507,3.725,3.6,3.6,0,0,0,2.581,1.5,4.328,4.328,0,0,0,.485.015,3.236,3.236,0,0,0,2.183-.865,2.886,2.886,0,0,0,.854-2.38" transform="translate(-7.571 -6.365)" fill="#8a4a43"/>
        <path id="Trazado_635668" data-name="Trazado 635668" d="M69.233,55.734a1.764,1.764,0,0,0,1.8,1.684,1.687,1.687,0,0,0,1.729-1.687,1.764,1.764,0,0,0-1.794-1.685,1.688,1.688,0,0,0-1.731,1.688" transform="translate(-6.489 -5.066)" fill="#263238"/>
        <path id="Trazado_635669" data-name="Trazado 635669" d="M66.618,49.052c.231.218,1.512-.843,3.408-.943,1.892-.126,3.337.773,3.53.529.1-.108-.15-.51-.779-.918a4.84,4.84,0,0,0-2.842-.708,4.643,4.643,0,0,0-2.7,1.037c-.558.479-.733.905-.62,1" transform="translate(-6.241 -4.406)" fill="#263238"/>
        <path id="Trazado_635670" data-name="Trazado 635670" d="M79.555,64.031a12.587,12.587,0,0,0-3.109-.387c-.487-.024-.95-.094-1.049-.42a2.465,2.465,0,0,1,.244-1.453l1.23-3.765c1.7-5.357,2.9-9.751,2.685-9.818s-1.77,4.221-3.47,9.578q-.61,1.981-1.167,3.784a2.8,2.8,0,0,0-.147,1.913,1.218,1.218,0,0,0,.835.664,3.261,3.261,0,0,0,.828.069,12.359,12.359,0,0,0,3.121-.167" transform="translate(-6.996 -4.517)" fill="#263238"/>
        <path id="Trazado_635671" data-name="Trazado 635671" d="M79.97,89.888A34.994,34.994,0,0,0,98.1,83.971s-4.378,9.79-18.2,9.259Z" transform="translate(-7.489 -7.87)" fill="#8a4a43"/>
        <path id="Trazado_635672" data-name="Trazado 635672" d="M85.7,66.778c-.309,0-.2,2.056-1.881,3.614s-3.883,1.451-3.883,1.739c-.022.131.51.373,1.436.347a5.128,5.128,0,0,0,3.249-1.336,4.464,4.464,0,0,0,1.446-3.022c.032-.865-.226-1.362-.366-1.342" transform="translate(-7.492 -6.259)" fill="#263238"/>
        <path id="Trazado_635673" data-name="Trazado 635673" d="M67.328,41.75c.344.445,1.779.056,3.482.1,1.706-.007,3.134.417,3.484-.02.155-.213-.055-.653-.669-1.088a5.4,5.4,0,0,0-5.613-.068c-.619.419-.835.855-.684,1.071" transform="translate(-6.306 -3.742)" fill="#263238"/>
        <path id="Trazado_635674" data-name="Trazado 635674" d="M92.671,55.238A1.764,1.764,0,0,1,91,57.047a1.687,1.687,0,0,1-1.846-1.558,1.766,1.766,0,0,1,1.668-1.811,1.689,1.689,0,0,1,1.848,1.56" transform="translate(-8.356 -5.031)" fill="#263238"/>
        <path id="Trazado_635675" data-name="Trazado 635675" d="M94.207,48.269c-.215.234-1.568-.731-3.466-.694-1.9.011-3.273,1.012-3.483.783-.1-.1.113-.52.711-.972a4.85,4.85,0,0,1,2.783-.912,4.649,4.649,0,0,1,2.764.84c.592.438.8.85.691.955" transform="translate(-8.176 -4.356)" fill="#263238"/>
        <path id="Trazado_635676" data-name="Trazado 635676" d="M92.922,41.556c-.367.437-1.84.015-3.6.025-1.762-.045-3.247.346-3.6-.1-.155-.217.073-.653.718-1.072a5.424,5.424,0,0,1,2.913-.757,5.36,5.36,0,0,1,2.886.817c.63.432.842.873.682,1.086" transform="translate(-8.03 -3.717)" fill="#263238"/>
        <path id="Trazado_635677" data-name="Trazado 635677" d="M108.932,59.851c-.053-1.023,1-3.5,2-3.712,2.675-.569,7.549-.62,7.971,6.229.575,9.363-8.942,8.01-8.976,7.741-.025-.208-.807-6.725-.992-10.258" transform="translate(-10.21 -5.24)" fill="#b56760"/>
        <path id="Trazado_635678" data-name="Trazado 635678" d="M112.644,66.852c.039-.033.17.1.453.214a1.635,1.635,0,0,0,1.221-.05c.967-.424,1.7-2.045,1.645-3.736a5.4,5.4,0,0,0-.6-2.307,1.886,1.886,0,0,0-1.3-1.176.833.833,0,0,0-.935.506c-.11.27-.038.453-.087.472-.024.025-.21-.144-.159-.536a1.043,1.043,0,0,1,.333-.61,1.239,1.239,0,0,1,.887-.294,2.3,2.3,0,0,1,1.793,1.347,5.551,5.551,0,0,1,.726,2.575c.056,1.89-.8,3.715-2.131,4.19a1.753,1.753,0,0,1-1.507-.156c-.3-.213-.366-.42-.334-.439" transform="translate(-10.557 -5.561)" fill="#8a4a43"/>
        <path id="Trazado_635679" data-name="Trazado 635679" d="M108.285,52.837,105.906,55.3C95.634,45.472,75.56,20.854,76.68,22.321a29.9,29.9,0,0,1,14.675-1.593c7.637,1.3,22.124,5.124,21.9,14.132s-4.973,17.976-4.973,17.976" transform="translate(-7.183 -1.911)" fill="#263238"/>
        <path id="Trazado_635680" data-name="Trazado 635680" d="M122.065,50.746a2.472,2.472,0,0,0-.143-.542,9.508,9.508,0,0,0-.639-1.475,13.622,13.622,0,0,0-3.912-4.4,25.572,25.572,0,0,0-7.877-3.789c-3.131-1.02-6.662-1.812-10.127-3.3a45.866,45.866,0,0,1-9.25-5.181,47.912,47.912,0,0,1-6.528-5.707,50.975,50.975,0,0,1-3.775-4.48l-.94-1.291a2.466,2.466,0,0,0-.352-.435,2.4,2.4,0,0,0,.271.488c.2.309.472.774.868,1.346a43.153,43.153,0,0,0,3.679,4.6,45.826,45.826,0,0,0,6.515,5.833,44.96,44.96,0,0,0,9.326,5.265,103.166,103.166,0,0,0,10.177,3.279,25.945,25.945,0,0,1,7.81,3.64,14.1,14.1,0,0,1,3.951,4.221c.686,1.2.9,1.945.944,1.927" transform="translate(-7.36 -1.888)" fill="#455a64"/>
        <path id="Trazado_635681" data-name="Trazado 635681" d="M119.383,52.428a4.931,4.931,0,0,0-.363-2.046,9.561,9.561,0,0,0-3.518-4.407,21.2,21.2,0,0,0-7.812-3.063,46.188,46.188,0,0,1-9.708-3.08,41.112,41.112,0,0,1-8.654-5.342,42.281,42.281,0,0,1-5.934-5.832,45.026,45.026,0,0,1-3.308-4.547L79.292,22.8a2.315,2.315,0,0,0-.305-.442,2.173,2.173,0,0,0,.22.488l.719,1.361a38.054,38.054,0,0,0,3.205,4.665,40.538,40.538,0,0,0,5.918,5.961,40.381,40.381,0,0,0,8.733,5.436,45.147,45.147,0,0,0,9.808,3.075,21.371,21.371,0,0,1,7.716,2.908,9.67,9.67,0,0,1,3.54,4.2,11.106,11.106,0,0,1,.537,1.979" transform="translate(-7.403 -2.095)" fill="#455a64"/>
        <path id="Trazado_635682" data-name="Trazado 635682" d="M111.217,68.977c-.009-.063.793-.167,2.18-.529a13.42,13.42,0,0,0,5.239-2.928,18.826,18.826,0,0,0,4.867-7.447,32.821,32.821,0,0,0,2.03-10.8,27.734,27.734,0,0,0-.452-5.678,27.645,27.645,0,0,0-1.552-5.073,27.127,27.127,0,0,0-4.85-7.553,44,44,0,0,0-6.284-5.478,2.065,2.065,0,0,1,.518.27c.324.2.824.471,1.415.9A28.608,28.608,0,0,1,119,28.673a26.676,26.676,0,0,1,5.052,7.624,27.639,27.639,0,0,1,1.623,5.182,27.738,27.738,0,0,1,.476,5.808,32.525,32.525,0,0,1-2.117,10.992,18.862,18.862,0,0,1-5.109,7.569,12.983,12.983,0,0,1-5.466,2.832,11.64,11.64,0,0,1-1.658.265,2.1,2.1,0,0,1-.583.033" transform="translate(-10.424 -2.201)" fill="#455a64"/>
        <path id="Trazado_635683" data-name="Trazado 635683" d="M45.88,116.671l.235-.3c10.314-10.914,29.3-14.569,29.3-14.569s1.161,7.146,11.8,7.944,18.461-10.043,18.461-10.043l14.2,1.988s7.147.843,11.6,3.46c10.022,5.9,15.34,26.228,15.34,26.228l-109.493.441Z" transform="translate(-3.498 -9.345)" fill="#455a64"/>
        <path id="Trazado_635684" data-name="Trazado 635684" d="M33.836.193s-.258.024-.765.056l-.945.056c-.375.034-.807.122-1.3.195a17.753,17.753,0,0,0-7.944,3.518,17.944,17.944,0,0,0-6.789,11.927,34.063,34.063,0,0,0-.149,4.306q0,2.239.008,4.627.007,4.776.014,10.129c.015,14.268.031,31.531.05,51.218q.005,7.384.011,15.214c.007,1.3-.026,2.624.069,3.923a18.763,18.763,0,0,0,.711,3.875,17.888,17.888,0,0,0,4,6.9,18.713,18.713,0,0,0,3.1,2.67,18.476,18.476,0,0,0,3.687,1.877l.981.355,1.014.26a15.944,15.944,0,0,0,2.065.383c.7.109,1.4.091,2.109.143l2.151,0,17.622-.007h.215v.215c0,8.839.006,18.288.01,27.974l-.378-.163q6.944-6.55,14.112-13.522c4.747-4.657,9.607-9.393,14.239-14.444l.071-.077h.1l46.258,0H145.9c1.175.009,2.345.005,3.491-.075a17.747,17.747,0,0,0,15.3-11.934,19.41,19.41,0,0,0,.972-6.644q0-3.4,0-6.773c0-17.98.009-35.324.014-51.846q.005-12.391.01-24.142a28.786,28.786,0,0,0-.356-5.764,18.655,18.655,0,0,0-2.007-5.279,17.129,17.129,0,0,0-3.49-4.329A17.043,17.043,0,0,0,155.276,2,17.534,17.534,0,0,0,150.1.535a49.226,49.226,0,0,0-5.336-.152L134.331.375,114.72.36,55.536.285,39.446.24,35.261.218C34.319.209,33.836.193,33.836.193s.483-.016,1.426-.024L39.446.146,55.536.1,114.72.026,134.331.011,144.764,0a49.342,49.342,0,0,1,5.383.15,17.924,17.924,0,0,1,5.291,1.492,17.472,17.472,0,0,1,4.67,3.076,17.535,17.535,0,0,1,3.573,4.423,19.083,19.083,0,0,1,2.059,5.4,29.218,29.218,0,0,1,.37,5.845q.005,11.74.01,24.142c0,16.522.009,33.866.014,51.846q0,3.371,0,6.773a19.88,19.88,0,0,1-1,6.8,18.217,18.217,0,0,1-15.7,12.252c-1.188.082-2.36.086-3.531.077H128.164l-46.258,0,.172-.077c-4.652,5.071-9.512,9.8-14.265,14.46q-7.156,6.963-14.125,13.522l-.378.356v-.52c0-9.686.006-19.135.009-27.974l.215.215-17.622-.007-2.152-.005c-.72-.053-1.446-.035-2.157-.147a16.526,16.526,0,0,1-2.113-.394l-1.038-.268-1-.364a18.877,18.877,0,0,1-3.768-1.923,19.113,19.113,0,0,1-3.164-2.732,18.3,18.3,0,0,1-4.082-7.06,19.155,19.155,0,0,1-.722-3.96c-.1-1.339-.059-2.646-.065-3.951q.005-7.825.011-15.214c.019-19.687.035-36.95.049-51.218q.008-5.351.015-10.129,0-2.387.007-4.627a33.881,33.881,0,0,1,.165-4.33,18.07,18.07,0,0,1,6.9-12.01A17.664,17.664,0,0,1,30.814.43c.5-.067.929-.149,1.306-.178l.949-.039c.508-.02.767-.021.767-.021" transform="translate(-1.466 0)" fill="#263238"/>
      </g>
    </g>
    <g id="Grupo_881536" data-name="Grupo 881536">
      <g id="Grupo_881535" data-name="Grupo 881535" clip-path="url(#clip-path)">
        <path id="Trazado_635685" data-name="Trazado 635685" d="M276.4,396.235l-113.075-.064c-13.6-.006-24.62-10.516-24.617-23.476l.055-270.144c0-12.967,11.038-23.475,24.646-23.468l113.076.063c13.6.008,24.618,10.517,24.616,23.477l-.056,270.144c0,12.967-11.038,23.476-24.645,23.468" transform="translate(-13.001 -7.412)" fill="#263238"/>
        <path id="Trazado_635686" data-name="Trazado 635686" d="M277.138,89.689l-21.924-.012a5.311,5.311,0,0,0-5.324,5.3v3.79a5.311,5.311,0,0,1-5.324,5.3l-42.733-.024a5.317,5.317,0,0,1-5.323-5.306v-3.79a5.316,5.316,0,0,0-5.323-5.306l-7.711,0-19.188-.011c-9.529,0-17.259,7.354-17.261,16.436l-.053,263.679c0,9.077,7.715,16.437,17.24,16.443l112.849.063c9.529.006,17.257-7.353,17.26-16.435l.054-263.68c0-9.076-7.716-16.436-17.24-16.442" transform="translate(-13.776 -8.4)" fill="#fff"/>
        <path id="Trazado_635687" data-name="Trazado 635687" d="M220.233,159.227a6.436,6.436,0,0,0,.322-12.8,6.694,6.694,0,0,0-7.855-9.989,8.013,8.013,0,0,0-13.1-4.176,9.01,9.01,0,0,0-10.937,1.868,6.407,6.407,0,0,0-3.51,11.74" transform="translate(-17.088 -12.21)" fill="#263238"/>
        <path id="Trazado_635688" data-name="Trazado 635688" d="M220.184,160.932a27.3,27.3,0,0,0-31.434-19.576l-1.389.265c-14.81,3.726-19.92,18.386-15.785,33.088L181.94,228.09l30.512,23.55,7.9-19.661-3.109-17.766s13.972-4.98,11.409-19.41c-1.238-6.968-4.955-21.112-8.466-33.872" transform="translate(-15.952 -13.203)" fill="#c17560"/>
        <path id="Trazado_635689" data-name="Trazado 635689" d="M220.174,221.552a35.55,35.55,0,0,1-19.914-1.929s6.239,9.832,20.357,5.8Z" transform="translate(-18.77 -20.585)" fill="#7c4236"/>
        <path id="Trazado_635690" data-name="Trazado 635690" d="M223.512,178.091a2.092,2.092,0,0,1-1.587,2.451,2,2,0,0,1-2.472-1.45,2.094,2.094,0,0,1,1.585-2.452,2,2,0,0,1,2.474,1.451" transform="translate(-20.564 -16.55)" fill="#263238"/>
        <path id="Trazado_635691" data-name="Trazado 635691" d="M222.575,171.274c-.2.316-1.98-.54-4.192-.112-2.215.394-3.621,1.842-3.913,1.617-.14-.1.027-.632.635-1.281a5.742,5.742,0,0,1,3.07-1.626,5.512,5.512,0,0,1,3.4.424c.78.392,1.1.834,1,.978" transform="translate(-20.097 -15.913)" fill="#263238"/>
        <path id="Trazado_635692" data-name="Trazado 635692" d="M201.367,182.776a2.092,2.092,0,0,1-1.588,2.451,2,2,0,0,1-2.472-1.45,2.094,2.094,0,0,1,1.586-2.451,2,2,0,0,1,2.474,1.451" transform="translate(-18.489 -16.989)" fill="#263238"/>
        <path id="Trazado_635693" data-name="Trazado 635693" d="M198.668,176.3c-.2.316-1.983-.538-4.192-.111-2.214.394-3.621,1.842-3.913,1.616-.14-.1.024-.63.636-1.28a5.739,5.739,0,0,1,3.07-1.626,5.515,5.515,0,0,1,3.4.424c.778.392,1.1.834,1,.977" transform="translate(-17.857 -16.384)" fill="#263238"/>
        <path id="Trazado_635694" data-name="Trazado 635694" d="M211.347,190.981a14.848,14.848,0,0,1,3.469-1.332c.554-.166,1.068-.38,1.089-.784a2.93,2.93,0,0,0-.7-1.6q-1.187-1.9-2.49-3.984c-3.486-5.682-6.124-10.4-5.893-10.537s3.242,4.356,6.727,10.039q1.27,2.106,2.424,4.022a3.325,3.325,0,0,1,.715,2.161,1.444,1.444,0,0,1-.771,1,3.939,3.939,0,0,1-.934.315,14.724,14.724,0,0,1-3.641.7" transform="translate(-19.384 -16.19)" fill="#263238"/>
        <path id="Trazado_635695" data-name="Trazado 635695" d="M197.723,167.835c-.185.616-2.2.37-4.545.739-2.357.315-4.24,1.13-4.565.587-.144-.26.174-.843.93-1.452a7.129,7.129,0,0,1,3.362-1.4,6.87,6.87,0,0,1,3.577.393c.874.372,1.32.844,1.241,1.136" transform="translate(-17.675 -15.58)" fill="#263238"/>
        <path id="Trazado_635696" data-name="Trazado 635696" d="M221.128,162.57c-.371.591-2.3.417-4.5.81-2.211.33-3.99,1.11-4.518.666-.237-.219-.04-.779.682-1.409a7.269,7.269,0,0,1,3.491-1.518,7.153,7.153,0,0,1,3.772.329c.874.369,1.228.837,1.068,1.122" transform="translate(-19.872 -15.091)" fill="#263238"/>
        <path id="Trazado_635697" data-name="Trazado 635697" d="M176.247,192.861a3.977,3.977,0,0,0-4.936-2.963c-2.636.767-5.334,2.86-4.1,8.374,2.189,9.782,11.558,5.567,11.511,5.284-.031-.193-1.523-6.609-2.475-10.695" transform="translate(-15.643 -17.784)" fill="#c17560"/>
        <path id="Trazado_635698" data-name="Trazado 635698" d="M176.137,200.687c-.05-.022-.144.158-.4.354a1.745,1.745,0,0,1-1.268.311c-1.118-.148-2.355-1.594-2.8-3.347a5.768,5.768,0,0,1-.069-2.547,2.016,2.016,0,0,1,.989-1.594.889.889,0,0,1,1.11.242c.192.245.174.453.229.459.034.019.174-.211,0-.6a1.114,1.114,0,0,0-.522-.527,1.315,1.315,0,0,0-1-.038,2.453,2.453,0,0,0-1.441,1.914,5.938,5.938,0,0,0,.019,2.858c.5,1.958,1.925,3.576,3.431,3.669a1.869,1.869,0,0,0,1.5-.607c.249-.31.252-.54.214-.55" transform="translate(-16.009 -18.12)" fill="#7c4236"/>
        <path id="Trazado_635699" data-name="Trazado 635699" d="M207.276,141.475a3.7,3.7,0,0,0-.478-.636,6.455,6.455,0,0,0-5.43-1.859,24.838,24.838,0,0,0-3.726-.792,8.725,8.725,0,0,0-14.667,2.157c-.392.134-.783.279-1.174.428a8.91,8.91,0,0,0-12.586,6.3,6.469,6.469,0,0,0-5.406,10.608,6.146,6.146,0,0,0-2.405,5.439c.331,1.923,2.444,3.471,4.246,2.892.55,4.781,2.115,10.24,3.3,15.089.83,3.415,5.608,4.627,6.354,6.909,3.808,11.651,6.454,4.306,3.248-20.7.212-.239.424-.491.636-.771a13.856,13.856,0,0,0,.788-1.794c.417-.733,1.446-.724,2.287-.794a6.4,6.4,0,0,0,5.663-5.745c.938.953,2.632.582,3.6-.341a14.372,14.372,0,0,0,2.134-3.377,4.123,4.123,0,0,1,3.057-2.334,9.872,9.872,0,0,0,2.23.064c1.271-.361,1.613-1.995,1.564-3.314a6.11,6.11,0,0,1,.411-3.275,7.4,7.4,0,0,1,2.365-1.19c.5-.038,1.015-.033,1.505-.053a4.633,4.633,0,0,0,.7-.09,7.247,7.247,0,0,1,.962.189c4.748,1.276,10.262,9.568,10.262,9.568-.784-5.768-4.8-9.939-9.437-12.577" transform="translate(-15.122 -12.662)" fill="#263238"/>
        <path id="Trazado_635700" data-name="Trazado 635700" d="M162.764,159.262c-.007,0,.014-.058.064-.16a4.685,4.685,0,0,1,.24-.446,5.492,5.492,0,0,1,1.324-1.409,6.357,6.357,0,0,1,2.795-1.18,5.854,5.854,0,0,1,3.913.671l-.25.132a7.919,7.919,0,0,1,3.132-5.7,10,10,0,0,1,3.326-1.75,12.165,12.165,0,0,1,3.938-.464,20.015,20.015,0,0,1,7.182,1.844l-.272.143a8.929,8.929,0,0,1,3.554-5.5,8.635,8.635,0,0,1,8.273-.914,6.043,6.043,0,0,1,.814.4,1.083,1.083,0,0,1,.26.177c-.015.028-.386-.189-1.121-.459a8.968,8.968,0,0,0-3.289-.535,8.4,8.4,0,0,0-4.743,1.6,8.65,8.65,0,0,0-3.364,5.3l-.046.241-.226-.1a19.9,19.9,0,0,0-7.04-1.79,11.833,11.833,0,0,0-3.8.441,9.666,9.666,0,0,0-3.2,1.665,7.62,7.62,0,0,0-3.046,5.411l-.014.274-.237-.14a5.617,5.617,0,0,0-3.7-.691A6.315,6.315,0,0,0,164.5,157.4a6.759,6.759,0,0,0-1.738,1.863" transform="translate(-15.255 -13.485)" fill="#455a64"/>
        <path id="Trazado_635701" data-name="Trazado 635701" d="M200.89,145.995a2.308,2.308,0,0,1-.1.413,8.378,8.378,0,0,0-.156,1.207c-.034.532-.035,1.187-.061,1.958a6.211,6.211,0,0,1-.5,2.606,2.071,2.071,0,0,1-1.243,1,7.414,7.414,0,0,1-1.693.21,3.363,3.363,0,0,0-1.649.44,4.522,4.522,0,0,0-1.222,1.383c-.347.55-.655,1.16-.992,1.771a7.042,7.042,0,0,1-1.175,1.852,4.679,4.679,0,0,1-2.019,1.133,3.714,3.714,0,0,1-1.205.15,1.712,1.712,0,0,1-1.189-.516l.349-.127a6.1,6.1,0,0,1-.341,1.784,5.963,5.963,0,0,1-.933,1.619,6.916,6.916,0,0,1-3.173,2.106,8.32,8.32,0,0,1-1.565.356,3.387,3.387,0,0,0-1.43.274,2.057,2.057,0,0,0-.9,1.037,10.018,10.018,0,0,1-.793,1.3,7.862,7.862,0,0,1-4.615,3.336,7.216,7.216,0,0,1-4.994-1.1,7.459,7.459,0,0,1-2.864-3.337l.186.074a3.945,3.945,0,0,1-3.347-.159,3.8,3.8,0,0,1-1.976-3.447,2.752,2.752,0,0,1,.046-.411q.027-.137.038-.136a4.342,4.342,0,0,0,.346,2.052,3.58,3.58,0,0,0,1.648,1.745,3.723,3.723,0,0,0,3.131.1l.13-.056.057.13a7.217,7.217,0,0,0,2.784,3.163,6.908,6.908,0,0,0,4.743,1.016,7.525,7.525,0,0,0,4.358-3.2,9.871,9.871,0,0,0,.759-1.253,2.464,2.464,0,0,1,1.066-1.212,2.249,2.249,0,0,1,.8-.256l.772-.066a7.955,7.955,0,0,0,1.485-.338,6.529,6.529,0,0,0,2.987-1.975,5.61,5.61,0,0,0,.869-1.5,5.739,5.739,0,0,0,.321-1.655l.029-.476.321.349a2.018,2.018,0,0,0,1.991.256,4.313,4.313,0,0,0,1.86-1.027,6.811,6.811,0,0,0,1.12-1.755c.343-.61.655-1.216,1.02-1.784a4.81,4.81,0,0,1,1.335-1.472,3.672,3.672,0,0,1,1.808-.469,7.253,7.253,0,0,0,1.63-.175,1.8,1.8,0,0,0,1.1-.856,6.137,6.137,0,0,0,.527-2.49c.044-.764.067-1.424.123-1.958a6.717,6.717,0,0,1,.223-1.214,1.718,1.718,0,0,1,.165-.4" transform="translate(-15.117 -13.684)" fill="#455a64"/>
        <path id="Trazado_635702" data-name="Trazado 635702" d="M205.011,198.582a5.5,5.5,0,0,0,3.319,6.256,3.955,3.955,0,0,0,4.955-2.623,7.125,7.125,0,0,0,.061-3.4c-2.345-.136-5.989-.1-8.334-.234" transform="translate(-19.208 -18.613)" fill="#7c4236"/>
        <path id="Trazado_635703" data-name="Trazado 635703" d="M212.8,203.268c.013.01-.021.074-.1.191a2.493,2.493,0,0,1-.394.472,3.755,3.755,0,0,1-2.028,1,4.852,4.852,0,0,1-3.3-.666,5.113,5.113,0,0,1-2.217-3.452,5.253,5.253,0,0,1-.056-1.109,2.358,2.358,0,0,1,.285-1.1.964.964,0,0,1,.5-.4,1.73,1.73,0,0,1,.559-.072l.961.029c1.248.061,2.359.186,3.291.279,1.861.2,3.016.257,3.017.324a13.02,13.02,0,0,1-3.043.008c-.937-.052-2.049-.14-3.281-.178l-.943-.013c-.32,0-.548.052-.677.269a1.979,1.979,0,0,0-.2.877,4.865,4.865,0,0,0,.053,1,4.772,4.772,0,0,0,1.988,3.164,4.645,4.645,0,0,0,3.012.7,3.867,3.867,0,0,0,1.954-.812c.406-.315.576-.557.615-.526" transform="translate(-19.186 -18.571)" fill="#263238"/>
        <path id="Trazado_635704" data-name="Trazado 635704" d="M274.023,164.313s11.482-1.427,28.743-15.156,26.6-33.239,28.531-32.958,10.757-2.849,23.548,33.664,5.688,44.043,2.492,43.676-24.362-8.474-38.086-8.21-31.843,5.7-31.843,5.7Z" transform="translate(-25.683 -10.891)" fill="#eb6f2d"/>
        <path id="Trazado_635705" data-name="Trazado 635705" d="M250.986,198.407l6.136-1.31-3.32-8.069-5.187,2.585Z" transform="translate(-23.302 -17.717)" fill="#455a64"/>
        <path id="Trazado_635706" data-name="Trazado 635706" d="M251.952,186.414l2.268,6.816,1.411,3.43a9.564,9.564,0,0,0,12.014,5.386l24.9-7-10.7-31.527-24.735,10.43a9.566,9.566,0,0,0-5.159,12.464" transform="translate(-23.547 -15.326)" fill="#263238"/>
        <path id="Trazado_635707" data-name="Trazado 635707" d="M261.874,199.692l8.34,14.789,3.811-1.231,26.029,19.433,6.463-14.068s-15.146-5.79-18.118-10.981.158-6.527.158-6.527l-7.334-7.666Z" transform="translate(-24.545 -18.131)" fill="#263238"/>
        <path id="Trazado_635708" data-name="Trazado 635708" d="M359.383,150.479c6.776,19.765,8.748,36.995,4.405,38.484s-13.357-13.328-20.133-33.093-8.747-36.994-4.405-38.483,13.357,13.327,20.133,33.092" transform="translate(-31.581 -10.993)" fill="#263238"/>
        <path id="Trazado_635709" data-name="Trazado 635709" d="M342.88,147.347s10.347-5.14,14.451,8.571-6.386,14.914-6.386,14.914a88.363,88.363,0,0,1-8.065-23.484" transform="translate(-32.137 -13.722)" fill="#fafafa"/>
        <path id="Trazado_635710" data-name="Trazado 635710" d="M333.043,129a14.829,14.829,0,0,0,.145,2.559c.158,1.643.374,4.027.73,6.963.28,1.455.586,3.045.914,4.749q.249,1.281.517,2.645.135.682.272,1.384c.1.465.253.925.38,1.4.533,1.884,1.091,3.86,1.671,5.907q.219.768.441,1.549c.142.523.366,1.023.547,1.542q.579,1.544,1.171,3.133t1.175,3.132c.2.51.364,1.035.6,1.523s.459.977.685,1.459l2.62,5.554c.215.44.4.884.632,1.3l.705,1.224q.7,1.2,1.349,2.339l2.433,4.185c1.656,2.441,3.054,4.375,4.015,5.718a14.942,14.942,0,0,0,1.572,2.027,15.007,15.007,0,0,0-1.3-2.211c-.919-1.421-2.209-3.416-3.792-5.866L348.2,177l-1.3-2.338q-.337-.6-.682-1.221c-.219-.418-.4-.864-.612-1.3-.816-1.765-1.671-3.618-2.558-5.536q-.333-.72-.673-1.452c-.231-.485-.389-1.007-.589-1.514l-1.163-3.111q-.59-1.576-1.166-3.109c-.181-.515-.406-1.01-.549-1.529l-.445-1.536c-.592-2.029-1.164-3.987-1.707-5.854-.131-.468-.285-.923-.393-1.384s-.193-.92-.288-1.37q-.285-1.35-.555-2.621l-1.01-4.7c-.414-2.882-.751-5.228-.991-6.9a15.113,15.113,0,0,0-.472-2.526" transform="translate(-31.213 -12.09)" fill="#263238"/>
        <path id="Trazado_635711" data-name="Trazado 635711" d="M293.835,198.306a5.569,5.569,0,0,1-1.12.354l-3.088.809c-2.609.674-6.207,1.627-10.17,2.721s-7.554,2.094-10.174,2.743c-1.309.326-2.374.571-3.112.724a5.643,5.643,0,0,1-1.159.19,5.567,5.567,0,0,1,1.115-.368l3.07-.869,10.135-2.876c3.967-1.095,7.585-2,10.216-2.59,1.316-.3,2.384-.524,3.126-.664a5.647,5.647,0,0,1,1.161-.175" transform="translate(-24.839 -18.586)" fill="#455a64"/>
        <path id="Trazado_635712" data-name="Trazado 635712" d="M278.886,192.626a13.557,13.557,0,0,1-2.432,1.036c-1.527.572-3.66,1.3-6.046,2.015s-4.571,1.271-6.162,1.63a13.486,13.486,0,0,1-2.6.467,15.985,15.985,0,0,1,2.519-.79c1.567-.441,3.73-1.049,6.109-1.759s4.521-1.388,6.073-1.879a15.952,15.952,0,0,1,2.54-.72" transform="translate(-24.523 -18.054)" fill="#455a64"/>
        <path id="Trazado_635713" data-name="Trazado 635713" d="M274.7,184.682a69.563,69.563,0,0,1-7.68,2.567,69.354,69.354,0,0,1-7.817,2.116,69.691,69.691,0,0,1,7.681-2.567,69.546,69.546,0,0,1,7.816-2.116" transform="translate(-24.295 -17.309)" fill="#455a64"/>
        <path id="Trazado_635714" data-name="Trazado 635714" d="M270.674,177.029a55.813,55.813,0,0,1-6.54,3.12,55.709,55.709,0,0,1-6.73,2.688,55.7,55.7,0,0,1,6.541-3.12,55.67,55.67,0,0,1,6.729-2.688" transform="translate(-24.126 -16.592)" fill="#455a64"/>
        <path id="Trazado_635715" data-name="Trazado 635715" d="M234.029,260.292l-15.123-25.5-39.085-1.615.041,3.554s-10.737,10.8-14.195,25.509c-2.618,11.137,8.4,53.641,11.5,68.374,3.812,18.115,9.1,41.042,9.1,41.042-.784,4.059-6,7.345-5.637,12.768l86.876-.953-4.463-17.607Z" transform="translate(-15.49 -21.855)" fill="#ffb338"/>
        <path id="Trazado_635716" data-name="Trazado 635716" d="M266.406,387c0,.13-17.288.236-38.608.236s-38.612-.105-38.612-.236,17.284-.236,38.612-.236,38.608.105,38.608.236" transform="translate(-17.732 -36.251)" fill="#fff"/>
        <path id="Trazado_635717" data-name="Trazado 635717" d="M259.854,362.954c0,.13-17.131.236-38.258.236s-38.262-.105-38.262-.236,17.128-.236,38.262-.236,38.258.105,38.258.236" transform="translate(-17.183 -33.997)" fill="#fff"/>
        <path id="Trazado_635718" data-name="Trazado 635718" d="M253.519,336.807c0,.131-16.765.236-37.442.236s-37.445-.105-37.445-.236,16.762-.236,37.445-.236,37.442.105,37.442.236" transform="translate(-16.743 -31.546)" fill="#fff"/>
        <path id="Trazado_635719" data-name="Trazado 635719" d="M248.738,310.5c0,.13-17.269.236-38.566.236s-38.569-.105-38.569-.236,17.264-.236,38.569-.236,38.566.105,38.566.236" transform="translate(-16.084 -29.08)" fill="#fff"/>
        <path id="Trazado_635720" data-name="Trazado 635720" d="M239.1,277.855c0,.13-16.34.236-36.493.236s-36.5-.105-36.5-.236,16.336-.236,36.5-.236,36.493.105,36.493.236" transform="translate(-15.569 -26.021)" fill="#fff"/>
        <path id="Trazado_635721" data-name="Trazado 635721" d="M227.344,247.958c0,.13-12.07.236-26.955.236s-26.957-.105-26.957-.236,12.067-.236,26.957-.236,26.955.105,26.955.236" transform="translate(-16.255 -23.218)" fill="#fff"/>
        <g id="Grupo_881534" data-name="Grupo 881534" transform="translate(161.255 254.163)" opacity="0.3">
          <g id="Grupo_881533" data-name="Grupo 881533">
            <g id="Grupo_881532" data-name="Grupo 881532" clip-path="url(#clip-path-6)">
              <path id="Trazado_635722" data-name="Trazado 635722" d="M177.932,280.449a69.732,69.732,0,0,0,14.259,17c8.728,7.243,35.286,20.243,35.286,20.243l2.212-4.586,19.814,4.626-3.67-12.192Z" transform="translate(-177.932 -280.449)"/>
            </g>
          </g>
        </g>
        <path id="Trazado_635723" data-name="Trazado 635723" d="M272.945,244.3l-6.908,37.553L206.8,253.694l-9.545,33.4c23.279,11.385,70.41,30.338,76.478,29.79,8.624-.779,14.584-5.931,17.27-18.567,1.662-7.819.876-60.269.876-60.269Z" transform="translate(-18.488 -22.312)" fill="#c17560"/>
        <path id="Trazado_635724" data-name="Trazado 635724" d="M208.508,249.21s-22.156-13.686-31.818,3.561c-6.906,16.819.737,30.252,17.792,38.594,8.224,4.022,19.423,8.988,30.738,13.706L241.7,268.49Z" transform="translate(-16.323 -22.875)" fill="#ffb338"/>
        <path id="Trazado_635725" data-name="Trazado 635725" d="M208.489,249.2s.212.1.61.322l1.757.989,6.689,3.827,24.232,13.98.146.083-.069.155-16.443,36.6-.092.2-.208-.086c-5.8-2.416-11.782-4.983-17.864-7.706q-4.043-1.812-7.967-3.648c-2.614-1.225-5.184-2.452-7.663-3.8-1.221-.7-2.42-1.424-3.578-2.186-1.125-.813-2.286-1.558-3.31-2.465a33.709,33.709,0,0,1-5.609-5.737l-1.126-1.609a16.89,16.89,0,0,1-.985-1.673,26.132,26.132,0,0,1-1.608-3.461c-.217-.59-.365-1.2-.549-1.794l-.261-.892c-.074-.3-.111-.606-.169-.908q-.156-.907-.311-1.8c-.054-.6-.075-1.2-.114-1.8a25.045,25.045,0,0,1,.069-3.525c.091-1.154.336-2.273.494-3.383.286-1.083.553-2.154.852-3.2q.555-1.525,1.09-3l0-.008.007-.012a18.113,18.113,0,0,1,5.241-5.933,16.034,16.034,0,0,1,6.586-2.594,26.093,26.093,0,0,1,11.27,1.1,41.233,41.233,0,0,1,6.687,2.708c.735.378,1.285.688,1.651.9s.541.347.541.347-.195-.1-.567-.3-.932-.493-1.673-.855a43.4,43.4,0,0,0-6.7-2.607,26.073,26.073,0,0,0-11.166-1.006,15.762,15.762,0,0,0-6.443,2.577,17.813,17.813,0,0,0-5.112,5.84l.009-.019q-.525,1.459-1.068,2.973c-.291,1.03-.551,2.09-.83,3.161-.151,1.1-.391,2.2-.477,3.339a24.7,24.7,0,0,0-.057,3.47c.04.585.062,1.178.116,1.77q.154.88.311,1.77c.056.3.093.6.167.892l.26.875c.182.583.328,1.182.542,1.762a25.971,25.971,0,0,0,1.588,3.4,16.534,16.534,0,0,0,.972,1.643l1.111,1.581a33.325,33.325,0,0,0,5.545,5.651c1.012.9,2.163,1.632,3.277,2.436,1.147.753,2.337,1.469,3.548,2.162,2.453,1.331,5.025,2.558,7.637,3.78s5.267,2.436,7.96,3.643c6.078,2.721,12.056,5.289,17.849,7.709l-.3.119c6.156-13.621,11.8-26.12,16.523-36.562l.077.238-24.152-14.121L210.8,250.6l-1.729-1.036c-.389-.237-.581-.37-.581-.37" transform="translate(-16.304 -22.862)" fill="#263238"/>
        <path id="Trazado_635726" data-name="Trazado 635726" d="M279.391,247.4l1.336-13.992s-5.346-10.768-5.243-11.846.418-7.011.418-7.011l13.368-12.033s4.329,0,4.439,4.284c0,0,4.167-.877,4.222,4.113,0,0,4.509.166,4.627,3.814,0,0,2.719-.359,2.624,3.452-.068,2.741-1.265,13.245-1.265,13.245l-5.591,9.723-.46,9.724Z" transform="translate(-25.82 -18.981)" fill="#c17560"/>
        <path id="Trazado_635727" data-name="Trazado 635727" d="M280.556,300.108c-.154.052-1.138-3.345-3.164-7.157s-4.366-6.469-4.243-6.568a8.949,8.949,0,0,1,1.581,1.687,29.756,29.756,0,0,1,3.078,4.659,32.409,32.409,0,0,1,2.181,5.138,9.326,9.326,0,0,1,.567,2.241" transform="translate(-25.601 -26.842)" fill="#7c4236"/>
        <path id="Trazado_635728" data-name="Trazado 635728" d="M195.449,244.617a7.873,7.873,0,0,1-.589,1.271c-.4.8-1.012,1.958-1.778,3.375-1.529,2.835-3.709,6.713-6.154,10.973l-6.274,10.9-1.909,3.3a7.846,7.846,0,0,1-.749,1.183,7.948,7.948,0,0,1,.588-1.272c.405-.8,1.013-1.958,1.779-3.374,1.529-2.835,3.709-6.714,6.155-10.975,2.428-4.22,4.626-8.04,6.272-10.9.773-1.338,1.415-2.448,1.909-3.3a7.9,7.9,0,0,1,.749-1.184" transform="translate(-16.683 -22.927)" fill="#fff"/>
        <path id="Trazado_635729" data-name="Trazado 635729" d="M215.1,253.346a1.54,1.54,0,0,1-.145.409l-.5,1.133c-.44.981-1.1,2.388-1.935,4.118-1.668,3.461-4.058,8.2-6.846,13.358s-5.45,9.753-7.433,13.043c-.991,1.646-1.808,2.968-2.388,3.873-.268.411-.49.753-.676,1.037a1.527,1.527,0,0,1-.263.344,1.509,1.509,0,0,1,.183-.394c.162-.3.361-.652.6-1.081.572-1,1.333-2.33,2.258-3.947,1.909-3.331,4.518-7.947,7.306-13.1s5.219-9.861,6.962-13.281c.847-1.659,1.546-3.026,2.068-4.049.23-.434.42-.795.577-1.094a1.465,1.465,0,0,1,.231-.368" transform="translate(-18.269 -23.745)" fill="#fff"/>
        <path id="Trazado_635730" data-name="Trazado 635730" d="M237.446,265.825a10.348,10.348,0,0,1-.545,1.5c-.376.955-.956,2.322-1.7,4-1.491,3.352-3.7,7.918-6.427,12.81s-5.452,9.174-7.519,12.2c-1.033,1.515-1.891,2.727-2.5,3.548a10.231,10.231,0,0,1-.989,1.252,10.413,10.413,0,0,1,.837-1.357l2.378-3.628c1.993-3.072,4.662-7.371,7.385-12.249s4.971-9.41,6.536-12.72l1.837-3.93a10.277,10.277,0,0,1,.713-1.426" transform="translate(-20.41 -24.915)" fill="#fff"/>
        <path id="Trazado_635731" data-name="Trazado 635731" d="M181.373,416.732l1.889-16.777,82.876-.908,2.114,17.685Z" transform="translate(-17 -37.402)" fill="#263238"/>
        <path id="Trazado_635732" data-name="Trazado 635732" d="M282.83,416.9c0,.13-25.532.237-57.02.237s-57.025-.106-57.025-.237,25.527-.236,57.025-.236,57.02.105,57.02.236" transform="translate(-15.82 -39.053)" fill="#455a64"/>
        <path id="Trazado_635733" data-name="Trazado 635733" d="M240.287,98.987H209.455a1.845,1.845,0,0,1-1.845-1.844V95.8a1.846,1.846,0,0,1,1.845-1.845h30.832a1.845,1.845,0,0,1,1.844,1.845v1.341a1.844,1.844,0,0,1-1.844,1.844" transform="translate(-19.459 -8.806)" fill="#455a64"/>
        <path id="Trazado_635734" data-name="Trazado 635734" d="M254.414,96.472a2.515,2.515,0,1,1-2.515-2.515,2.514,2.514,0,0,1,2.515,2.515" transform="translate(-23.374 -8.806)" fill="#455a64"/>
        <path id="Trazado_635735" data-name="Trazado 635735" d="M141.165,179.09h-2.043a5.619,5.619,0,0,1-5.619-5.619V142.654a5.619,5.619,0,0,1,5.619-5.619h2.043Z" transform="translate(-12.513 -12.844)" fill="#263238"/>
        <path id="Trazado_635736" data-name="Trazado 635736" d="M140.607,246.513h-2.043a5.619,5.619,0,0,1-5.619-5.619V210.077a5.619,5.619,0,0,1,5.619-5.619h2.043Z" transform="translate(-12.461 -19.163)" fill="#263238"/>
        <line id="Línea_2545" data-name="Línea 2545" y2="136.348" transform="translate(126.247 111.27)" fill="#ff725e"/>
        <path id="Trazado_635737" data-name="Trazado 635737" d="M139.279,259.125c-.13,0-.236-30.525-.236-68.171s.105-68.177.236-68.177.236,30.519.236,68.177-.105,68.171-.236,68.171" transform="translate(-13.032 -11.508)" fill="#455a64"/>
      </g>
    </g>
    <g id="Grupo_881538" data-name="Grupo 881538">
      <g id="Grupo_881537" data-name="Grupo 881537" clip-path="url(#clip-path)">
        <path id="Trazado_635738" data-name="Trazado 635738" d="M97.947,318.183H10.6a10.34,10.34,0,0,1-10.34-10.34V240.81A10.34,10.34,0,0,1,10.6,230.47h87.35a10.34,10.34,0,0,1,10.34,10.34v67.033a10.34,10.34,0,0,1-10.34,10.34" transform="translate(-0.024 -21.601)" fill="#fff"/>
        <path id="Trazado_635739" data-name="Trazado 635739" d="M64.647,324.291c1.108,2.685,22.536,22.824,22.536,22.824V324.291Z" transform="translate(-6.059 -30.395)" fill="#5f914e"/>
        <path id="Trazado_635740" data-name="Trazado 635740" d="M77.237,250.967a13.52,13.52,0,0,0-6.708-8.008A17.074,17.074,0,0,0,59.024,241.9,36.165,36.165,0,0,0,48.307,246.7a17.714,17.714,0,0,0-5.067,4.191c-2.413,3.222-4.741,8.465-4.868,12.488-.1,3.254,1.374,11.348,2.83,14.258a7.307,7.307,0,0,0,3.195,2.723,27.643,27.643,0,0,0,6.1,7.614l2.072-6.607Z" transform="translate(-3.596 -22.624)" fill="#263238"/>
        <path id="Trazado_635741" data-name="Trazado 635741" d="M78.4,247.5l-6.434-.962C75.7,254.772,77.2,273.8,79.45,282.556c2.261-3.491,7.443-14.074,7.032-18.213s-.5-17.767-8.081-16.842" transform="translate(-6.745 -23.107)" fill="#263238"/>
        <path id="Trazado_635742" data-name="Trazado 635742" d="M46.013,262.355a10.937,10.937,0,0,1,7.937-10.3l14.634-4.181c6.35-.87,10.828,6.845,11.428,13.226.666,7.091,1.165,14.578.487,19.905-1.365,10.71-9.492,12.318-9.492,12.318,0-.016.143,5.072.227,8.185l-2.384,13.951L49.554,298.987l-3.574-36.5c-.01-.182.024.112.034-.13" transform="translate(-4.309 -23.226)" fill="#ffc09d"/>
        <path id="Trazado_635743" data-name="Trazado 635743" d="M79.7,272.137a1.368,1.368,0,0,1-1.276,1.42,1.308,1.308,0,0,1-1.446-1.189,1.368,1.368,0,0,1,1.274-1.42,1.308,1.308,0,0,1,1.448,1.189" transform="translate(-7.214 -25.395)" fill="#263238"/>
        <path id="Trazado_635744" data-name="Trazado 635744" d="M81.339,266.992c-.164.184-1.223-.551-2.694-.5-1.47.028-2.526.818-2.691.643-.081-.078.082-.405.541-.761a3.753,3.753,0,0,1,2.148-.735,3.6,3.6,0,0,1,2.151.622c.464.334.626.651.546.733" transform="translate(-7.117 -24.897)" fill="#263238"/>
        <path id="Trazado_635745" data-name="Trazado 635745" d="M65.078,272.136a1.367,1.367,0,0,1-1.276,1.419,1.308,1.308,0,0,1-1.446-1.189,1.368,1.368,0,0,1,1.274-1.42,1.308,1.308,0,0,1,1.448,1.19" transform="translate(-5.844 -25.395)" fill="#263238"/>
        <path id="Trazado_635746" data-name="Trazado 635746" d="M65.924,267.433c-.165.183-1.225-.551-2.7-.5-1.469.028-2.526.818-2.691.643-.081-.077.081-.4.542-.76a3.75,3.75,0,0,1,2.147-.736,3.609,3.609,0,0,1,2.151.623c.462.333.626.651.546.733" transform="translate(-5.672 -24.939)" fill="#263238"/>
        <path id="Trazado_635747" data-name="Trazado 635747" d="M71.811,278.911a9.774,9.774,0,0,1,2.376-.5c.374-.05.727-.135.783-.393a1.914,1.914,0,0,0-.285-1.106q-.571-1.347-1.2-2.827c-1.668-4.024-2.887-7.338-2.724-7.4s1.647,3.143,3.314,7.168q.6,1.49,1.153,2.845a2.179,2.179,0,0,1,.24,1.468.945.945,0,0,1-.6.568,2.532,2.532,0,0,1-.635.108,9.536,9.536,0,0,1-2.422.078" transform="translate(-6.631 -24.995)" fill="#263238"/>
        <path id="Trazado_635748" data-name="Trazado 635748" d="M57.876,294.289s3.678,7.223,14.315,5.9l-.068-2.508a26.859,26.859,0,0,1-14.247-3.389" transform="translate(-5.425 -27.583)" fill="#ff9b6c"/>
        <path id="Trazado_635749" data-name="Trazado 635749" d="M65.114,261.617c-.132.4-1.608.26-3.326.521-1.726.227-3.1.774-3.341.422-.107-.168.124-.552.674-.956a5.852,5.852,0,0,1,5.08-.72c.642.237.97.54.914.732" transform="translate(-5.476 -24.425)" fill="#263238"/>
        <path id="Trazado_635750" data-name="Trazado 635750" d="M80.708,262.033c-.249.342-1.273.026-2.491.047-1.22-.022-2.244.294-2.491-.048-.111-.167.042-.506.483-.836a3.606,3.606,0,0,1,4.015,0c.441.33.593.67.485.836" transform="translate(-7.094 -24.424)" fill="#263238"/>
        <path id="Trazado_635751" data-name="Trazado 635751" d="M76.582,251.031a4.693,4.693,0,0,0-4.217-2.537,9.107,9.107,0,0,0-4.876,1.574c-6.243,3.851-9.253,12.807-15.418,16.782-1.516.978-3.549.179-4.826,1.454s-2.071,3.275-1.3,4.9a14.925,14.925,0,0,1-2.281-3.619,5.039,5.039,0,0,1,.057-4.16c.517-.955,1.455-1.7,1.687-2.761a14.282,14.282,0,0,0-.176-2.848,6.228,6.228,0,0,1,.9-2.748,27.68,27.68,0,0,1,9.884-11.01,18.046,18.046,0,0,1,9.286-2.686,13.8,13.8,0,0,1,9,3.279c1.44,1.268,2.954,2.579,2.277,4.375" transform="translate(-4.053 -22.811)" fill="#263238"/>
        <path id="Trazado_635752" data-name="Trazado 635752" d="M47.288,272.283c-.121-.3-5.739-2.151-5.643,3.761.092,5.744,5.853,4.449,5.86,4.283s-.217-8.044-.217-8.044" transform="translate(-3.903 -25.473)" fill="#ffc09d"/>
        <path id="Trazado_635753" data-name="Trazado 635753" d="M45.841,278.381c-.025-.017-.1.073-.266.153a1,1,0,0,1-.748.029,2.474,2.474,0,0,1-1.188-2.2,3.306,3.306,0,0,1,.253-1.438,1.156,1.156,0,0,1,.738-.782.508.508,0,0,1,.6.263c.081.16.046.275.077.284s.121-.1.071-.334a.641.641,0,0,0-.233-.356.759.759,0,0,0-.556-.135,1.405,1.405,0,0,0-1.028.91,3.393,3.393,0,0,0-.316,1.608,2.6,2.6,0,0,0,1.507,2.452,1.071,1.071,0,0,0,.912-.169c.176-.145.2-.275.183-.285" transform="translate(-4.052 -25.668)" fill="#ff9b6c"/>
        <path id="Trazado_635754" data-name="Trazado 635754" d="M45.258,267.079a2.29,2.29,0,0,0,.341-.2c.216-.146.549-.342.945-.64a19.7,19.7,0,0,0,3.02-2.91,55.345,55.345,0,0,0,3.65-5.033,45.216,45.216,0,0,1,4.57-6.035,18.016,18.016,0,0,1,2.988-2.5,14.882,14.882,0,0,1,3.261-1.593,16.371,16.371,0,0,1,6.06-.921,15.7,15.7,0,0,1,4.1.682c.476.13.829.279,1.075.364a2.149,2.149,0,0,0,.379.121,2.3,2.3,0,0,0-.359-.17,9.769,9.769,0,0,0-1.064-.412,14.859,14.859,0,0,0-4.12-.77,16.245,16.245,0,0,0-6.148.877,14.934,14.934,0,0,0-3.32,1.606,18.029,18.029,0,0,0-3.039,2.538,43.871,43.871,0,0,0-4.581,6.082,58.988,58.988,0,0,1-3.592,5.048,21.289,21.289,0,0,1-2.94,2.948c-.383.308-.706.517-.912.676a2.419,2.419,0,0,0-.312.247" transform="translate(-4.242 -23.154)" fill="#fff"/>
        <path id="Trazado_635755" data-name="Trazado 635755" d="M46.9,270.034a8.852,8.852,0,0,0,.694,4.6c.764,1.373,2.618,2.269,3.96,1.451,1.094-.668,1.386-2.1,1.538-3.374.44-3.672.584-7.376,1.056-11.045Z" transform="translate(-4.394 -24.525)" fill="#263238"/>
        <path id="Trazado_635756" data-name="Trazado 635756" d="M75.447,248.832c-.005.034-.51-.082-1.431-.084a9.838,9.838,0,0,0-3.78.8,12.493,12.493,0,0,0-2.345,1.294,25.684,25.684,0,0,0-2.4,1.945,29.527,29.527,0,0,0-4.66,5.32c-.7,1.045-1.316,2.116-1.988,3.111a14.64,14.64,0,0,1-2.228,2.654,25.59,25.59,0,0,1-4.76,3.384c-1.446.818-2.659,1.4-3.5,1.8l-.97.446a1.609,1.609,0,0,1-.348.135,1.605,1.605,0,0,1,.319-.193l.943-.5c.818-.434,2.014-1.044,3.437-1.883a26.468,26.468,0,0,0,4.671-3.4,14.568,14.568,0,0,0,2.169-2.613c.66-.984,1.274-2.057,1.982-3.115a28.987,28.987,0,0,1,4.729-5.362,25.018,25.018,0,0,1,2.45-1.945,12.442,12.442,0,0,1,2.411-1.284,9.479,9.479,0,0,1,3.868-.717,6.786,6.786,0,0,1,1.067.117,1.618,1.618,0,0,1,.363.092" transform="translate(-4.409 -23.302)" fill="#455a64"/>
        <path id="Trazado_635757" data-name="Trazado 635757" d="M45.95,266.237a2.53,2.53,0,0,1-.5.357l-1.43.895-.482.3a1.534,1.534,0,0,1-.622.226.609.609,0,0,1-.392-.08.5.5,0,0,1-.226-.373,1.283,1.283,0,0,1,.251-.733l1.61-2.751.234.2a6.008,6.008,0,0,1-3.867,1.273,1.7,1.7,0,0,1-.524-.074.7.7,0,0,1-.457-.375.627.627,0,0,1,.08-.583,2.437,2.437,0,0,1,.317-.369,12.1,12.1,0,0,0,1.885-2.522A20.6,20.6,0,0,0,43,258.949a3.03,3.03,0,0,1-.16.778,10.731,10.731,0,0,1-.808,2.01,11.542,11.542,0,0,1-1.871,2.62c-.208.208-.414.449-.326.626s.4.259.7.253A5.8,5.8,0,0,0,44.2,264.03l.672-.521-.438.726c-.587.975-1.141,1.893-1.646,2.73a1.086,1.086,0,0,0-.227.567.273.273,0,0,0,.337.236,2.94,2.94,0,0,0,1.02-.455L45.4,266.5a2.532,2.532,0,0,1,.555-.261" transform="translate(-3.703 -24.271)" fill="#fff"/>
        <path id="Trazado_635758" data-name="Trazado 635758" d="M65.83,283.188a1.92,1.92,0,0,1,1.942-1.513,2.007,2.007,0,0,1,1.574,1.053,2.467,2.467,0,0,1,.142,1.917l-.027.139a2.185,2.185,0,0,1-2.445.594,2.043,2.043,0,0,1-1.186-2.189" transform="translate(-6.167 -26.4)" fill="#ff9b6c"/>
        <path id="Trazado_635759" data-name="Trazado 635759" d="M70.583,284.684c0-.224-1.49-.11-2.644-1.3s-1.116-2.782-1.324-2.778c-.094-.014-.26.375-.227,1.045a3.716,3.716,0,0,0,1.02,2.326,3.231,3.231,0,0,0,2.21.993c.625.008.981-.187.963-.287" transform="translate(-6.222 -26.301)" fill="#263238"/>
        <path id="Trazado_635760" data-name="Trazado 635760" d="M89.694,314.3l-.169-.214C82.1,306.234,68.433,303.6,68.433,303.6s-.836,5.144-8.5,5.719-13.29-7.229-13.29-7.229l-10.221,1.431s-5.145.607-8.348,2.491c-7.215,4.243-11.044,18.88-11.044,18.88l78.821.317Z" transform="translate(-1.597 -28.314)" fill="#5f914e"/>
        <path id="Trazado_635761" data-name="Trazado 635761" d="M95.305,230.45s.186,0,.552.01a9.829,9.829,0,0,1,1.625.151,12.713,12.713,0,0,1,5.781,2.5,13.024,13.024,0,0,1,4.985,8.658,24.617,24.617,0,0,1,.121,3.12q0,1.612.007,3.331.007,3.438.014,7.292c.015,10.274.031,22.7.05,36.872q.005,5.315.011,10.951c0,.94.023,1.879-.047,2.848a13.839,13.839,0,0,1-.521,2.863,13.215,13.215,0,0,1-2.95,5.1,12.8,12.8,0,0,1-5.011,3.367l-.726.264-.75.194a11.835,11.835,0,0,1-1.527.285,25.172,25.172,0,0,1-3.109.111l-12.685.007.214-.215c0,6.363.006,13.165.01,20.138v.519l-.378-.356q-5.005-4.716-10.17-9.734c-3.422-3.354-6.921-6.758-10.273-10.411l.172.077-33.3,0H14.63c-.842.006-1.686,0-2.547-.056A13.174,13.174,0,0,1,.721,309.478,14.385,14.385,0,0,1,0,304.565q0-2.448,0-4.875c.005-12.944.01-25.429.015-37.323q0-8.92.01-17.38a21.055,21.055,0,0,1,.267-4.22,13.8,13.8,0,0,1,1.49-3.9,13.259,13.259,0,0,1,5.96-5.42,12.964,12.964,0,0,1,3.825-1.078,35.67,35.67,0,0,1,3.882-.107l7.51.007,14.118.015,42.6.075,11.584.044,3.012.024c.678.008,1.026.024,1.026.024s-.348.016-1.026.024l-3.012.023-11.584.044-42.6.075-14.118.015-7.51.007a35.1,35.1,0,0,0-3.834.111A12.55,12.55,0,0,0,7.906,231.8a12.865,12.865,0,0,0-5.773,5.265A13.4,13.4,0,0,0,.7,240.851a20.607,20.607,0,0,0-.254,4.137q0,8.451.009,17.38c0,11.894.009,24.379.015,37.323q0,2.427,0,4.875a13.908,13.908,0,0,0,.7,4.762,12.713,12.713,0,0,0,10.96,8.547c.819.057,1.661.061,2.508.053H27.4l33.3,0h.1l.071.077c3.331,3.634,6.831,7.043,10.247,10.4s6.825,6.591,10.158,9.734l-.378.164c0-6.974.006-13.775.01-20.138v-.215h.215l12.685.007a24.73,24.73,0,0,0,3.06-.1,11.416,11.416,0,0,0,1.48-.275l.727-.186.7-.255a12.408,12.408,0,0,0,4.863-3.258,12.817,12.817,0,0,0,2.869-4.946,13.388,13.388,0,0,0,.51-2.778c.069-.93.045-1.883.051-2.82q.005-5.633.01-10.951c.02-14.172.036-26.6.05-36.872q.008-3.851.015-7.292,0-1.718.007-3.331a24.3,24.3,0,0,0-.1-3.1,12.924,12.924,0,0,0-10.58-11.113,10.712,10.712,0,0,0-1.615-.185c-.364-.024-.55-.045-.55-.045" transform="translate(0 -21.581)" fill="#263238"/>
      </g>
    </g>
    <g id="Grupo_881540" data-name="Grupo 881540">
      <g id="Grupo_881539" data-name="Grupo 881539" clip-path="url(#clip-path)">
        <path id="Trazado_635762" data-name="Trazado 635762" d="M333.168,341.4h102.94a10.386,10.386,0,0,0,10.387-10.386V251.339a10.386,10.386,0,0,0-10.387-10.386H333.168a10.386,10.386,0,0,0-10.386,10.386v79.675A10.386,10.386,0,0,0,333.168,341.4" transform="translate(-30.254 -22.584)" fill="#fff"/>
        <path id="Trazado_635763" data-name="Trazado 635763" d="M382.882,348.395c-1.27,3.075-25.808,26.137-25.808,26.137V348.395Z" transform="translate(-33.468 -32.654)" fill="#455a64"/>
        <path id="Trazado_635764" data-name="Trazado 635764" d="M373.854,318.713c0-3.172,0-5.818-.019-6.144,0,0-10.728-1.015-11.5-11.634-.372-5.132-.277-15.764-.081-25.382A19.833,19.833,0,0,1,380.9,256.176l1.025-.062c11.1-.018,17.309,9.4,17.02,20.486l-.389,41.631-17.951,14.412-1.3-.115Z" transform="translate(-33.937 -24.005)" fill="#ffc09d"/>
        <path id="Trazado_635765" data-name="Trazado 635765" d="M375.051,317.9a25.71,25.71,0,0,0,13.59-4.922s-2.91,7.965-13.571,7.644Z" transform="translate(-35.153 -29.335)" fill="#ff9b6c"/>
        <path id="Trazado_635766" data-name="Trazado 635766" d="M382.221,282.429c.208.218,1.445-.753,3.224-.778,1.775-.052,3.093.865,3.283.638.092-.1-.121-.5-.7-.91a4.441,4.441,0,0,0-2.632-.784,4.3,4.3,0,0,0-2.562.895c-.54.44-.72.842-.617.939" transform="translate(-35.822 -26.299)" fill="#263238"/>
        <path id="Trazado_635767" data-name="Trazado 635767" d="M383.673,287.838a1.438,1.438,0,0,0,1.471,1.365,1.375,1.375,0,0,0,1.4-1.383,1.437,1.437,0,0,0-1.47-1.366,1.376,1.376,0,0,0-1.4,1.384" transform="translate(-35.961 -26.849)" fill="#263238"/>
        <path id="Trazado_635768" data-name="Trazado 635768" d="M376.7,294.785a10.816,10.816,0,0,0-2.681-.319c-.42-.018-.819-.077-.906-.358a2.12,2.12,0,0,1,.2-1.253q.5-1.548,1.042-3.25c1.441-4.624,2.458-8.416,2.271-8.472s-1.506,3.646-2.947,8.27q-.518,1.709-.991,3.265a2.423,2.423,0,0,0-.118,1.649,1.05,1.05,0,0,0,.722.568,2.812,2.812,0,0,0,.714.056,10.619,10.619,0,0,0,2.689-.158" transform="translate(-34.91 -26.35)" fill="#263238"/>
        <path id="Trazado_635769" data-name="Trazado 635769" d="M383.2,276.193c.167.4,1.593.118,3.3.227,1.7.073,3.1.5,3.3.127.09-.179-.17-.546-.745-.905a5.579,5.579,0,0,0-5.025-.27c-.605.3-.9.633-.826.821" transform="translate(-35.915 -25.766)" fill="#263238"/>
        <path id="Trazado_635770" data-name="Trazado 635770" d="M364.8,277.3c.182.324,1.573-.015,3.254-.045,1.682-.061,3.073.2,3.255-.13.08-.16-.193-.45-.776-.713a5.867,5.867,0,0,0-2.48-.443,6.057,6.057,0,0,0-2.479.576c-.583.295-.855.6-.775.756" transform="translate(-34.191 -25.866)" fill="#263238"/>
        <path id="Trazado_635771" data-name="Trazado 635771" d="M402.324,287.408c.177-.089,7.172-2.6,7.376,4.681s-7.146,5.983-7.164,5.775-.212-10.456-.212-10.456" transform="translate(-37.709 -26.892)" fill="#ffc09d"/>
        <path id="Trazado_635772" data-name="Trazado 635772" d="M404.925,295.284c.032-.024.13.085.346.178a1.268,1.268,0,0,0,.949-.007,3.139,3.139,0,0,0,1.373-2.856,4.188,4.188,0,0,0-.406-1.805,1.466,1.466,0,0,0-.981-.947.647.647,0,0,0-.739.369c-.092.206-.042.35-.08.363-.02.019-.16-.117-.109-.42a.805.805,0,0,1,.273-.464.959.959,0,0,1,.7-.2,1.782,1.782,0,0,1,1.357,1.091,4.3,4.3,0,0,1,.5,2.016c-.005,1.468-.718,2.862-1.762,3.2a1.357,1.357,0,0,1-1.165-.16c-.231-.173-.274-.335-.249-.349" transform="translate(-37.952 -27.133)" fill="#ff9b6c"/>
        <path id="Trazado_635773" data-name="Trazado 635773" d="M379.626,302.545c-.077-.185,1.354-.594,2.373-1.918a8.089,8.089,0,0,0,1.031-1.887c.219-.526.384-.855.463-.829s.051.382-.073.954a5.389,5.389,0,0,1-.964,2.116,4.349,4.349,0,0,1-1.877,1.4c-.558.218-.934.227-.952.165" transform="translate(-35.581 -27.922)" fill="#263238"/>
        <path id="Trazado_635774" data-name="Trazado 635774" d="M407.8,272.207c-1.483-2.586-1.8-5.652-2.588-8.525s-2.348-5.861-5.142-6.9l-.063.027c-2.509-1.046-5.615-1.1-7.708.622-.464-3.787-3.74-6.824-7.419-7.841s-9.606-.515-13.164.865c-2.751,1.066-5.426,3.289-8.684,6.562a35.677,35.677,0,0,0-3.77,4.451l-3.338,9.869,2.683,5.232c.16.356.325.711.527,1.065l0-.024,2.338,10.984c.195-2.984.111-13.377.307-16.362a16.656,16.656,0,0,0,11.941-5.329c1.655-1.785,2.966-4.033,5.162-5.084,2.83-1.356,6.171-.3,9.122.768l-.124-.115a13.313,13.313,0,0,1,4.071,3.019,41.418,41.418,0,0,0,1.566,17.547c.268.851,1,2.606,1.832,2.937,1.626.652,2.087-1.005,3.082-1.876a4.323,4.323,0,0,1,2.981-.693,65.339,65.339,0,0,0,2.094-7.524,6.644,6.644,0,0,0,3.051.244q-.454-1.131-.91-2.262a3.478,3.478,0,0,0,1.3.608,1.183,1.183,0,0,0,1.246-.523c.285-.556-.084-1.2-.394-1.744" transform="translate(-33.36 -23.343)" fill="#263238"/>
        <path id="Trazado_635775" data-name="Trazado 635775" d="M392.359,259.6a9.178,9.178,0,0,1,1.052.987,7.617,7.617,0,0,1,1.583,3.544,13.4,13.4,0,0,1,.236,2.7c-.008.978-.1,2.023-.189,3.125a27.99,27.99,0,0,0-.124,3.478,12.149,12.149,0,0,0,.216,1.839,3.834,3.834,0,0,0,.726,1.791,1.6,1.6,0,0,0,1.491.522,2.384,2.384,0,0,0,1.357-.743,5.5,5.5,0,0,0,1.058-2.685l-.223.024a8.9,8.9,0,0,0,1.262,2.239,3.161,3.161,0,0,0,2.049,1.151,2.044,2.044,0,0,0,1.1-.178,1.77,1.77,0,0,0,.753-.722,1.823,1.823,0,0,0,.237-.938,1.322,1.322,0,0,0-.33-.83l-.114.1a6.84,6.84,0,0,0,2.258,1.739,6.062,6.062,0,0,0,.7.284,1.224,1.224,0,0,0,.253.066,1.3,1.3,0,0,0-.238-.105c-.157-.067-.39-.165-.681-.317a7.037,7.037,0,0,1-2.178-1.764l-.114.1a1.361,1.361,0,0,1,.051,1.578,1.6,1.6,0,0,1-.681.639,1.85,1.85,0,0,1-.994.149,2.965,2.965,0,0,1-1.9-1.092,8.788,8.788,0,0,1-1.214-2.191l-.149-.343-.074.366a5.325,5.325,0,0,1-1.008,2.566,2.143,2.143,0,0,1-1.214.665,1.352,1.352,0,0,1-1.267-.443,3.613,3.613,0,0,1-.67-1.675,12.051,12.051,0,0,1-.215-1.8,28.262,28.262,0,0,1,.11-3.45c.082-1.1.168-2.151.167-3.141a13.254,13.254,0,0,0-.27-2.736,7.5,7.5,0,0,0-1.682-3.573,4.318,4.318,0,0,0-1.125-.923" transform="translate(-36.775 -24.331)" fill="#455a64"/>
        <path id="Trazado_635776" data-name="Trazado 635776" d="M355.991,268.872s.026.028.084.073l.263.2a3.5,3.5,0,0,0,.445.295,5.9,5.9,0,0,0,.642.348,9.4,9.4,0,0,0,4.531.875,12.021,12.021,0,0,0,6.435-2.282,20.835,20.835,0,0,0,5.584-6.271c.788-1.274,1.434-2.584,2.143-3.791a14.077,14.077,0,0,1,2.412-3.2,7.253,7.253,0,0,1,3.082-1.816,5.2,5.2,0,0,1,1.614-.165,5.7,5.7,0,0,1,1.473.3,6.141,6.141,0,0,1,3.372,2.929,7.311,7.311,0,0,1,.527,1.6.359.359,0,0,0-.007-.111c-.013-.089-.027-.2-.046-.326a5.3,5.3,0,0,0-.387-1.2,6.032,6.032,0,0,0-1.167-1.627,6.222,6.222,0,0,0-2.233-1.426,5.805,5.805,0,0,0-1.519-.329,5.38,5.38,0,0,0-1.679.157,7.42,7.42,0,0,0-3.186,1.85,14.169,14.169,0,0,0-2.465,3.243c-.718,1.216-1.364,2.522-2.146,3.785a20.826,20.826,0,0,1-5.5,6.213,11.958,11.958,0,0,1-6.311,2.294,9.554,9.554,0,0,1-4.482-.788,14.871,14.871,0,0,1-1.475-.825" transform="translate(-33.366 -23.707)" fill="#455a64"/>
        <path id="Trazado_635777" data-name="Trazado 635777" d="M364.334,282.937c.208.217,1.445-.753,3.224-.778,1.775-.052,3.094.864,3.283.638.093-.1-.121-.5-.7-.91a4.446,4.446,0,0,0-2.633-.784,4.3,4.3,0,0,0-2.562.894c-.54.44-.72.842-.617.939" transform="translate(-34.146 -26.347)" fill="#263238"/>
        <path id="Trazado_635778" data-name="Trazado 635778" d="M367.335,288.073a1.438,1.438,0,0,0,1.471,1.365,1.375,1.375,0,0,0,1.4-1.383,1.437,1.437,0,0,0-1.47-1.366,1.376,1.376,0,0,0-1.4,1.384" transform="translate(-34.429 -26.871)" fill="#263238"/>
        <path id="Trazado_635779" data-name="Trazado 635779" d="M359.626,261.417c-.9,1.193-2.294,2.278-3.782,2.119a11.291,11.291,0,0,1-1.582-.465c-.519.314-.4,2.094-.039,2.584a9.42,9.42,0,0,0,1.114,1.155c-1.745.936-3.334.474-5.194-.207a9.126,9.126,0,0,0,5.415,7.315,3.2,3.2,0,0,0,2.931.058,3.689,3.689,0,0,0,1.287-2.284,39.935,39.935,0,0,0,1.308-9.756Z" transform="translate(-32.818 -24.502)" fill="#263238"/>
        <path id="Trazado_635780" data-name="Trazado 635780" d="M347.532,336.96l.193-.245c8.5-9,24.155-12.011,24.155-12.011s.957,5.891,9.73,6.549,15.219-8.279,15.219-8.279l11.7,1.639s5.892.7,9.56,2.853c8.262,4.859,12.646,21.622,12.646,21.622l-90.265.363Z" transform="translate(-31.912 -30.272)" fill="#455a64"/>
        <path id="Trazado_635781" data-name="Trazado 635781" d="M337.6,240.933s-.213.023-.631.05l-.779.048c-.31.028-.665.1-1.07.161a14.637,14.637,0,0,0-6.543,2.9,14.769,14.769,0,0,0-5.586,9.824,27.8,27.8,0,0,0-.121,3.548q0,1.845.007,3.814.007,3.937.015,8.35c.014,11.763.031,25.995.05,42.224q0,6.087.01,12.542c.006,1.073-.021,2.164.058,3.232a15.365,15.365,0,0,0,.585,3.186,14.7,14.7,0,0,0,3.292,5.677,14.222,14.222,0,0,0,5.579,3.738l.807.293.835.214a13.009,13.009,0,0,0,1.7.315,28.564,28.564,0,0,0,3.506.12l14.528-.008h.215v.215c0,7.287.006,15.077.01,23.062l-.378-.163q5.723-5.4,11.633-11.149c3.913-3.839,7.92-7.742,11.736-11.906l.071-.076h.1l38.134,0h14.625c.97.007,1.934,0,2.876-.063a14.591,14.591,0,0,0,12.58-9.81,15.944,15.944,0,0,0,.8-5.464q0-2.8,0-5.583c.005-14.823.01-29.12.014-42.742q0-10.215.009-19.9a23.693,23.693,0,0,0-.292-4.744,15.354,15.354,0,0,0-1.651-4.342,14.744,14.744,0,0,0-6.624-6.04,14.408,14.408,0,0,0-4.257-1.206,40.356,40.356,0,0,0-4.394-.126l-8.6-.007L404.28,241.1l-48.79-.075-13.265-.044-3.449-.024c-.778-.008-1.175-.024-1.175-.024s.4-.016,1.175-.024l3.449-.023,13.265-.044,48.79-.075,16.168-.015,8.6-.007a40.7,40.7,0,0,1,4.441.123,14.772,14.772,0,0,1,4.372,1.232,15.155,15.155,0,0,1,6.812,6.2,15.807,15.807,0,0,1,1.7,4.462,24.115,24.115,0,0,1,.305,4.826q.005,9.678.01,19.9c0,13.621.009,27.919.014,42.742q0,2.779,0,5.583a16.442,16.442,0,0,1-.823,5.615A15.061,15.061,0,0,1,432.9,341.552c-.983.068-1.949.071-2.915.063H415.362l-38.134,0,.172-.077c-3.836,4.182-7.843,8.081-11.762,11.923s-7.825,7.547-11.646,11.146l-.378.356v-.519c0-7.985.006-15.775.009-23.062l.215.215-14.528-.007a28.838,28.838,0,0,1-3.556-.126,13.6,13.6,0,0,1-1.746-.326l-.857-.221-.829-.3a14.654,14.654,0,0,1-5.729-3.848,15.109,15.109,0,0,1-3.371-5.835,15.758,15.758,0,0,1-.6-3.272c-.08-1.108-.049-2.184-.053-3.26q.005-6.452.01-12.542c.019-16.23.036-30.461.05-42.224q.007-4.41.014-8.35,0-1.968.007-3.814a27.806,27.806,0,0,1,.138-3.573,14.906,14.906,0,0,1,5.7-9.908,14.548,14.548,0,0,1,6.616-2.865c.409-.055.766-.122,1.077-.145l.783-.031c.419-.015.632-.014.632-.014" transform="translate(-30.234 -22.564)" fill="#263238"/>
      </g>
    </g>
  </g>
</svg>
