<svg id="Grupo_881713" data-name="Grupo 881713" xmlns="http://www.w3.org/2000/svg" width="84.349" height="84.349" viewBox="0 0 84.349 84.349">
  <path id="Trazado_636275" data-name="Trazado 636275" d="M84.435,53.6H12.466a4.952,4.952,0,0,0-4.952,4.952V96.522H89.387V58.557A4.952,4.952,0,0,0,84.435,53.6Z" transform="translate(-6.276 -44.774)" fill="#90caf9"/>
  <path id="Trazado_636276" data-name="Trazado 636276" d="M99.63,89.92v-17.5H95.669V53.6H39.546v2.971h-17V86.288h17v6.933H76.851v3.3H78.48l8.127-6.6Z" transform="translate(-18.83 -44.774)" fill="#64b5f6"/>
  <rect id="Rectángulo_330123" data-name="Rectángulo 330123" width="36.315" height="43.908" transform="translate(24.017 1.238)" fill="#ffb338"/>
  <path id="Trazado_636277" data-name="Trazado 636277" d="M182.1,59.791V17.534h-9.9v8.914H145.785V59.791H182.1Zm-6.6-3.3h-2.806V43.945H175.5Z" transform="translate(-121.768 -14.645)" fill="#f5b21b"/>
  <rect id="Rectángulo_330124" data-name="Rectángulo 330124" width="40.606" height="23.109" transform="translate(7.015 15.104)" fill="#1bb9db"/>
  <path id="Trazado_636278" data-name="Trazado 636278" d="M7.515,324.018a4.952,4.952,0,0,0,4.952,4.952H84.436a4.952,4.952,0,0,0,4.952-4.952v-9.9H7.515Z" transform="translate(-6.277 -262.366)" fill="#b0bec5"/>
  <path id="Trazado_636279" data-name="Trazado 636279" d="M172.08,464.407H139.066a3.3,3.3,0,0,0-3.3,3.3v3.3h39.616v-3.3A3.3,3.3,0,0,0,172.08,464.407Z" transform="translate(-113.398 -387.899)" fill="#e0e0e0"/>
  <rect id="Rectángulo_330125" data-name="Rectángulo 330125" width="23.109" height="9.904" transform="translate(30.62 66.604)" fill="#b0bec5"/>
  <rect id="Rectángulo_330126" data-name="Rectángulo 330126" width="4.952" height="4.952" transform="translate(39.699 56.7)" fill="#fff"/>
  <rect id="Rectángulo_330127" data-name="Rectángulo 330127" width="40.606" height="3.301" transform="translate(7.015 34.912)" fill="#077fa6"/>
  <path id="Trazado_636280" data-name="Trazado 636280" d="M81.962,125.746l-9.9,10.6-7.271-7.129L50.6,143.243H89.885V132.514Z" transform="translate(-42.263 -105.03)" fill="#9ccc65"/>
  <path id="Trazado_636281" data-name="Trazado 636281" d="M68.7,181.938l3.363-3.6-2.358-2.312-5.522,5.912H53.939l-3.34,3.3H89.885v-3.3Z" transform="translate(-42.263 -147.027)" fill="#7cb342"/>
  <path id="Trazado_636291" data-name="Trazado 636291" d="M0,0H19.808V19.808H0Z" transform="translate(53.729 6.19)" fill="#fd4c1b"/>
  <path id="Trazado_636282" data-name="Trazado 636282" d="M372.818,76.769l-6.6,4.127V72.642Z" transform="translate(-305.883 -60.675)" fill="#fff"/>
  <path id="Trazado_636283" data-name="Trazado 636283" d="M366.644,187.867H346.176v10.894h4.292v4.292l5.282-4.292h10.894Z" transform="translate(-289.146 -156.917)" fill="#febbac"/>
  <rect id="Rectángulo_330129" data-name="Rectángulo 330129" width="39.616" height="3.301" transform="translate(22.367 79.81)" fill="#bdbdbd"/>
  <rect id="Rectángulo_330130" data-name="Rectángulo 330130" width="23.109" height="3.301" transform="translate(30.62 66.604)" fill="#90a4ae"/>
  <path id="Trazado_636284" data-name="Trazado 636284" d="M78.159,7.593H74.775V4.952H61.57V0H22.779V7.593H6.19A6.2,6.2,0,0,0,0,13.783V61.652a6.2,6.2,0,0,0,6.19,6.19H29.382V75.27H25.668a4.544,4.544,0,0,0-4.539,4.539v4.539H63.221V79.81a4.544,4.544,0,0,0-4.539-4.539H54.967V67.842H78.159a6.2,6.2,0,0,0,6.19-6.19V13.783A6.2,6.2,0,0,0,78.159,7.593ZM72.3,7.428V24.76H54.967V7.428ZM46.384,16.342V24.8L39.6,19.005,29.764,29.539l-7.236-7.094L8.253,36.554V16.342Zm-6.589,6.085,6.589,5.628v8.921H26.207ZM22.819,36.975H11.35L22.535,25.919l5.538,5.43ZM58.681,77.746a2.066,2.066,0,0,1,2.063,2.063v2.063H23.6V79.81a2.066,2.066,0,0,1,2.063-2.063ZM31.858,75.27V67.842H52.491V75.27ZM81.873,61.652a3.718,3.718,0,0,1-3.714,3.714H6.19a3.718,3.718,0,0,1-3.714-3.714V52.986h79.4v8.666Zm0-11.142H2.476V13.783A3.718,3.718,0,0,1,6.19,10.069H22.779v3.8h-17V39.451h17v4.457H19.065v2.476H53.234V43.908H25.255V39.451h23.6V13.866h-23.6V2.476H59.094V4.952h-6.6V27.236h6.6v2.476h-3.3v13.37h4.292v5.655l6.96-5.655H78.737V29.712H61.57V27.236H74.775V10.069h3.384a3.718,3.718,0,0,1,3.714,3.714Zm-23.6-9.9V32.188H76.261v8.418h-10.1l-3.6,2.929V40.606H58.269Z"/>
  <path id="Trazado_636285" data-name="Trazado 636285" d="M240.884,336.658h-7.428v7.428h7.428Zm-2.476,4.952h-2.476v-2.476h2.476Z" transform="translate(-194.995 -281.196)"/>
  <path id="Trazado_636286" data-name="Trazado 636286" d="M358.7,59.083V71.8l10.177-6.36Zm2.476,4.467,3.029,1.893-3.029,1.893Z" transform="translate(-299.607 -49.349)"/>
  <g id="Grupo_881712" data-name="Grupo 881712" transform="translate(10.812 7.593)">
    <rect id="Rectángulo_330131" data-name="Rectángulo 330131" width="2.476" height="2.476" transform="translate(3.301 36.315)" fill="#fff"/>
    <path id="Trazado_636287" data-name="Trazado 636287" d="M207.687,48.566H202.9V46.09h4.787Zm-7.263,0H188.869V46.09h11.555Z" transform="translate(-168.566 -46.09)" fill="#fff"/>
    <path id="Trazado_636288" data-name="Trazado 636288" d="M73.881,116.7h-3.3v-2.476h3.3Zm-5.777,0H65.628v-2.476H68.1V116.7Z" transform="translate(-65.628 -102.998)" fill="#fff"/>
    <path id="Trazado_636289" data-name="Trazado 636289" d="M202.558,165.9l-1.81-1.69,1.69-1.809,1.81,1.69Zm3.38-3.619-1.81-1.69,3.553-3.8,1.81,1.69Z" transform="translate(-178.488 -138.548)" fill="#fff"/>
    <path id="Trazado_636290" data-name="Trazado 636290" d="M381.424,215.893h-2.476v-2.476h2.476Zm-4.952,0h-8.253v-2.476h8.253Z" transform="translate(-318.369 -185.851)" fill="#fff"/>
  </g>
</svg>
