<svg xmlns="http://www.w3.org/2000/svg" width="1151.74" height="265.272" viewBox="0 0 1151.74 265.272">
  <g id="Grupo_1034547" data-name="Grupo 1034547" transform="translate(6698 -1405.568)">
    <path id="Trazado_646255" data-name="Trazado 646255" d="M-39-17.062V-5.895a6.419,6.419,0,0,1-.809,3.287,5.238,5.238,0,0,1-2.32,2.115A8.174,8.174,0,0,1-45.7.234a7.062,7.062,0,0,1-4.91-1.617,5.768,5.768,0,0,1-1.828-4.43v-11.25H-48.3V-5.73q.07,2.8,2.6,2.8a2.518,2.518,0,0,0,1.934-.7,3.286,3.286,0,0,0,.656-2.285V-17.062ZM-24.844-6.234a7.728,7.728,0,0,1-1.289,4.793A4.318,4.318,0,0,1-29.766.234,3.747,3.747,0,0,1-32.883-1.3L-33.047,0h-3.539V-18h3.949v6.34a3.615,3.615,0,0,1,2.848-1.254,4.319,4.319,0,0,1,3.656,1.7,7.768,7.768,0,0,1,1.289,4.781ZM-28.8-6.486a5.155,5.155,0,0,0-.486-2.6,1.639,1.639,0,0,0-1.494-.778,1.891,1.891,0,0,0-1.852,1.018v5.031a1.9,1.9,0,0,0,1.875,1.006,1.677,1.677,0,0,0,1.77-1.357A9.745,9.745,0,0,0-28.8-6.486ZM-18.937,0H-22.9V-12.68h3.961Zm-4.2-15.961a1.778,1.778,0,0,1,.609-1.391,2.29,2.29,0,0,1,1.582-.542,2.29,2.29,0,0,1,1.582.542,1.778,1.778,0,0,1,.609,1.391,1.778,1.778,0,0,1-.609,1.391,2.29,2.29,0,0,1-1.582.542,2.29,2.29,0,0,1-1.582-.542A1.778,1.778,0,0,1-23.133-15.961ZM-11.145-2.812a1.756,1.756,0,0,0,1.289-.451,1.654,1.654,0,0,0,.445-1.26h3.7A4.384,4.384,0,0,1-7.2-1.1,5.558,5.558,0,0,1-11.051.234,5.627,5.627,0,0,1-15.41-1.5,6.834,6.834,0,0,1-17-6.3v-.164a7.723,7.723,0,0,1,.709-3.393,5.162,5.162,0,0,1,2.045-2.262,6.1,6.1,0,0,1,3.164-.791A5.488,5.488,0,0,1-7.16-11.543,4.863,4.863,0,0,1-5.707-7.828h-3.7a2.168,2.168,0,0,0-.48-1.512,1.658,1.658,0,0,0-1.289-.527q-1.535,0-1.793,1.957A13.809,13.809,0,0,0-13.055-6.2,5.424,5.424,0,0,0-12.6-3.551,1.582,1.582,0,0,0-11.145-2.812ZM3.105,0A4.459,4.459,0,0,1,2.73-1.137,3.672,3.672,0,0,1-.316.234,4.5,4.5,0,0,1-3.363-.85,3.45,3.45,0,0,1-4.617-3.574,3.546,3.546,0,0,1-3.094-6.691a7.761,7.761,0,0,1,4.43-1.055H2.555v-.671q0-1.755-1.512-1.755A1.236,1.236,0,0,0-.363-8.782H-4.312a3.54,3.54,0,0,1,1.564-2.985,6.575,6.575,0,0,1,3.99-1.147A5.764,5.764,0,0,1,5.074-11.73,4.115,4.115,0,0,1,6.516-8.484v5.613A5.748,5.748,0,0,0,7.055-.2V0ZM.633-2.578a2.2,2.2,0,0,0,1.225-.316,1.983,1.983,0,0,0,.7-.715V-5.637H1.406q-2.062,0-2.062,1.852a1.131,1.131,0,0,0,.363.873A1.315,1.315,0,0,0,.633-2.578Zm13.43-.234a1.756,1.756,0,0,0,1.289-.451,1.654,1.654,0,0,0,.445-1.26h3.7A4.384,4.384,0,0,1,18.006-1.1,5.558,5.558,0,0,1,14.156.234,5.627,5.627,0,0,1,9.8-1.5,6.834,6.834,0,0,1,8.2-6.3v-.164a7.723,7.723,0,0,1,.709-3.393,5.162,5.162,0,0,1,2.045-2.262,6.1,6.1,0,0,1,3.164-.791,5.488,5.488,0,0,1,3.926,1.371A4.863,4.863,0,0,1,19.5-7.828H15.8a2.168,2.168,0,0,0-.48-1.512,1.658,1.658,0,0,0-1.289-.527q-1.535,0-1.793,1.957A13.809,13.809,0,0,0,12.152-6.2a5.424,5.424,0,0,0,.457,2.648A1.582,1.582,0,0,0,14.063-2.812ZM25.336,0H21.375V-12.68h3.961Zm-4.2-15.961a1.778,1.778,0,0,1,.609-1.391,2.29,2.29,0,0,1,1.582-.542,2.29,2.29,0,0,1,1.582.542,1.778,1.778,0,0,1,.609,1.391,1.778,1.778,0,0,1-.609,1.391,2.29,2.29,0,0,1-1.582.542,2.29,2.29,0,0,1-1.582-.542A1.778,1.778,0,0,1,21.141-15.961Zm6.129,9.5a7.484,7.484,0,0,1,.738-3.381,5.28,5.28,0,0,1,2.121-2.279,6.388,6.388,0,0,1,3.246-.8,5.83,5.83,0,0,1,4.488,1.764,6.768,6.768,0,0,1,1.641,4.8v.141a6.566,6.566,0,0,1-1.646,4.705A5.846,5.846,0,0,1,33.4.234a5.912,5.912,0,0,1-4.348-1.623,6.348,6.348,0,0,1-1.77-4.4Zm3.949.246a4.718,4.718,0,0,0,.551,2.578,1.835,1.835,0,0,0,1.629.82q2.109,0,2.156-3.246v-.4q0-3.41-2.18-3.41-1.98,0-2.145,2.941ZM33.914-18h4.172l-3.258,3.68-3.223-.006Zm10.957,5.32L45-11.191a4.3,4.3,0,0,1,3.621-1.723A3.618,3.618,0,0,1,51.58-11.73a5.635,5.635,0,0,1,1.014,3.563V0H48.633V-8a2.14,2.14,0,0,0-.387-1.412,1.789,1.789,0,0,0-1.406-.451,1.883,1.883,0,0,0-1.723.914V0H41.168V-12.68Z" transform="translate(-6275 1665.848)" fill="#12263f"/>
    <path id="Trazado_646256" data-name="Trazado 646256" d="M-14.6-7.242H-21.07v4.078h7.641V0H-25.184V-17.062h11.777v3.176H-21.07v3.6H-14.6Zm1.945.809a7.746,7.746,0,0,1,1.3-4.746,4.282,4.282,0,0,1,3.633-1.734,3.641,3.641,0,0,1,2.859,1.336V-18H-.9V0H-4.453l-.2-1.359A3.739,3.739,0,0,1-7.746.234,4.274,4.274,0,0,1-11.332-1.5,7.991,7.991,0,0,1-12.656-6.434Zm3.949.246q0,3.375,1.969,3.375a1.944,1.944,0,0,0,1.875-1.1V-8.742A1.892,1.892,0,0,0-6.715-9.867q-1.828,0-1.98,2.953ZM8.484,0a4.459,4.459,0,0,1-.375-1.137A3.672,3.672,0,0,1,5.063.234,4.5,4.5,0,0,1,2.016-.85,3.45,3.45,0,0,1,.762-3.574,3.546,3.546,0,0,1,2.285-6.691a7.761,7.761,0,0,1,4.43-1.055H7.934v-.671q0-1.755-1.512-1.755a1.236,1.236,0,0,0-1.406,1.39H1.066a3.54,3.54,0,0,1,1.564-2.985,6.575,6.575,0,0,1,3.99-1.147,5.764,5.764,0,0,1,3.832,1.184,4.115,4.115,0,0,1,1.441,3.246v5.613A5.748,5.748,0,0,0,12.434-.2V0ZM6.012-2.578a2.2,2.2,0,0,0,1.225-.316,1.983,1.983,0,0,0,.7-.715V-5.637H6.785q-2.062,0-2.062,1.852a1.131,1.131,0,0,0,.363.873A1.315,1.315,0,0,0,6.012-2.578Zm7.57-3.855a7.746,7.746,0,0,1,1.3-4.746,4.282,4.282,0,0,1,3.633-1.734,3.641,3.641,0,0,1,2.859,1.336V-18h3.961V0H21.785l-.2-1.359A3.739,3.739,0,0,1,18.492.234,4.274,4.274,0,0,1,14.906-1.5,7.991,7.991,0,0,1,13.582-6.434Zm3.949.246q0,3.375,1.969,3.375a1.944,1.944,0,0,0,1.875-1.1V-8.742a1.892,1.892,0,0,0-1.852-1.125q-1.828,0-1.98,2.953Z" transform="translate(-5967 1665.848)" fill="#12263f"/>
    <path id="Trazado_646257" data-name="Trazado 646257" d="M-41.619,0h-4.1V-17.062h4.1Zm6.3-12.68.129,1.488a4.3,4.3,0,0,1,3.621-1.723,3.618,3.618,0,0,1,2.959,1.184,5.635,5.635,0,0,1,1.014,3.563V0h-3.961V-8a2.14,2.14,0,0,0-.387-1.412,1.789,1.789,0,0,0-1.406-.451,1.883,1.883,0,0,0-1.723.914V0h-3.949V-12.68Zm9.445,6.246a8.561,8.561,0,0,1,.633-3.4,5.094,5.094,0,0,1,1.816-2.279,4.788,4.788,0,0,1,2.754-.8,3.807,3.807,0,0,1,3.094,1.336l.141-1.1h3.586V-.48a5.346,5.346,0,0,1-.779,2.912,5,5,0,0,1-2.256,1.9,8.292,8.292,0,0,1-3.422.662A7.153,7.153,0,0,1-23,4.465a4.876,4.876,0,0,1-2-1.371L-23.35.773a3.621,3.621,0,0,0,2.906,1.3q2.625,0,2.625-2.7v-.4A3.708,3.708,0,0,1-20.689.234a4.583,4.583,0,0,1-3.75-1.775,7.356,7.356,0,0,1-1.43-4.752Zm3.961.246a4.511,4.511,0,0,0,.586,2.467,1.849,1.849,0,0,0,1.641.908,2.1,2.1,0,0,0,1.863-.855V-9a2.045,2.045,0,0,0-1.84-.867,1.861,1.861,0,0,0-1.652.943A5.144,5.144,0,0,0-21.908-6.187ZM-3.932-9.105l-1.3-.094A2.336,2.336,0,0,0-7.623-8.027V0h-3.949V-12.68h3.7l.129,1.629a3.058,3.058,0,0,1,2.777-1.863,3.851,3.851,0,0,1,1.1.141ZM3.4.234a6.518,6.518,0,0,1-4.723-1.74,6.009,6.009,0,0,1-1.8-4.529v-.328A7.787,7.787,0,0,1-2.4-9.8,5.274,5.274,0,0,1-.3-12.1a6.35,6.35,0,0,1,3.281-.814A5.489,5.489,0,0,1,7.2-11.256,6.516,6.516,0,0,1,8.748-6.633V-5.1H.9a2.846,2.846,0,0,0,.926,1.676,2.755,2.755,0,0,0,1.852.609A3.549,3.549,0,0,0,6.6-4.125l1.8,2.133A5.045,5.045,0,0,1,6.316-.369,7.069,7.069,0,0,1,3.4.234Zm-.445-10.1Q1.225-9.867.9-7.57H4.881v-.3A1.956,1.956,0,0,0,4.4-9.346,1.912,1.912,0,0,0,2.959-9.867Zm14.016,6.3a.912.912,0,0,0-.527-.809,8.021,8.021,0,0,0-2-.633,9.138,9.138,0,0,1-2.437-.861A4.083,4.083,0,0,1,10.541-7.16a3.092,3.092,0,0,1-.5-1.746,3.5,3.5,0,0,1,1.441-2.877,5.938,5.938,0,0,1,3.773-1.131,6.579,6.579,0,0,1,4.031,1.137,3.555,3.555,0,0,1,1.523,2.988H16.846q0-1.523-1.605-1.523a1.591,1.591,0,0,0-1.043.346,1.07,1.07,0,0,0-.422.861.982.982,0,0,0,.516.855,4.872,4.872,0,0,0,1.646.539,14.228,14.228,0,0,1,1.986.5q2.859.984,2.859,3.527A3.321,3.321,0,0,1,19.242-.855a6.758,6.758,0,0,1-3.99,1.09,6.9,6.9,0,0,1-2.906-.586,4.86,4.86,0,0,1-1.992-1.594,3.609,3.609,0,0,1-.715-2.121H13.33a1.526,1.526,0,0,0,.586,1.283,2.41,2.41,0,0,0,1.441.4,1.9,1.9,0,0,0,1.213-.328A1.05,1.05,0,0,0,16.975-3.562Zm5.156-2.895a7.484,7.484,0,0,1,.738-3.381,5.28,5.28,0,0,1,2.121-2.279,6.388,6.388,0,0,1,3.246-.8,5.83,5.83,0,0,1,4.488,1.764,6.768,6.768,0,0,1,1.641,4.8v.141a6.566,6.566,0,0,1-1.646,4.705A5.846,5.846,0,0,1,28.26.234a5.912,5.912,0,0,1-4.348-1.623,6.348,6.348,0,0,1-1.77-4.4Zm3.949.246a4.718,4.718,0,0,0,.551,2.578,1.835,1.835,0,0,0,1.629.82q2.109,0,2.156-3.246v-.4q0-3.41-2.18-3.41-1.98,0-2.145,2.941ZM42.744-3.562a.912.912,0,0,0-.527-.809,8.021,8.021,0,0,0-2-.633,9.138,9.138,0,0,1-2.437-.861A4.083,4.083,0,0,1,36.311-7.16a3.092,3.092,0,0,1-.5-1.746,3.5,3.5,0,0,1,1.441-2.877,5.938,5.938,0,0,1,3.773-1.131,6.579,6.579,0,0,1,4.031,1.137,3.555,3.555,0,0,1,1.523,2.988H42.615q0-1.523-1.605-1.523a1.591,1.591,0,0,0-1.043.346,1.07,1.07,0,0,0-.422.861.982.982,0,0,0,.516.855,4.872,4.872,0,0,0,1.646.539,14.228,14.228,0,0,1,1.986.5q2.859.984,2.859,3.527A3.321,3.321,0,0,1,45.012-.855a6.758,6.758,0,0,1-3.99,1.09,6.9,6.9,0,0,1-2.906-.586,4.86,4.86,0,0,1-1.992-1.594,3.609,3.609,0,0,1-.715-2.121H39.1a1.526,1.526,0,0,0,.586,1.283,2.41,2.41,0,0,0,1.441.4,1.9,1.9,0,0,0,1.213-.328A1.05,1.05,0,0,0,42.744-3.562Z" transform="translate(-5668 1665.848)" fill="#12263f"/>
    <path id="Trazado_636566" data-name="Trazado 636566" d="M0,0H242.5V228.619H0Z" transform="translate(-6698 1405.568)" fill="#f6f6f6"/>
    <path id="Trazado_636567" data-name="Trazado 636567" d="M0,0H242.5V228.619H0Z" transform="translate(-6396.723 1405.568)" fill="#f6f6f6"/>
    <path id="Trazado_636568" data-name="Trazado 636568" d="M0,0H242.5V228.619H0Z" transform="translate(-6091.04 1405.568)" fill="#f6f6f6"/>
    <path id="Trazado_636569" data-name="Trazado 636569" d="M0,0H242.5V228.619H0Z" transform="translate(-5788.76 1405.568)" fill="#f6f6f6"/>
    <g id="Grupo_881901" data-name="Grupo 881901" transform="translate(-6664.086 1439.848)">
      <path id="Trazado_636512" data-name="Trazado 636512" d="M0,0H27.714V34.05H0Z" transform="translate(152.556 167.059) rotate(180)" fill="#ffcebf"/>
      <path id="Trazado_636513" data-name="Trazado 636513" d="M430.7,401.674h9.934v34.05H430.7Z" transform="translate(-288.081 -268.665)" fill="#ffb09e"/>
      <path id="Trazado_636514" data-name="Trazado 636514" d="M51.3,401.674H79.011v34.05H51.3Z" transform="translate(-34.311 -268.665)" fill="#ffcebf"/>
      <path id="Trazado_636515" data-name="Trazado 636515" d="M104.989,401.674h9.934v34.05h-9.934Z" transform="translate(-70.223 -268.665)" fill="#ffb09e"/>
      <path id="Trazado_636516" data-name="Trazado 636516" d="M7.5,12.8V132.575a5.3,5.3,0,0,0,5.3,5.3H166.777a5.3,5.3,0,0,0,5.3-5.3V12.8a5.3,5.3,0,0,0-5.3-5.3H12.8A5.3,5.3,0,0,0,7.5,12.8Z" transform="translate(-5.016 -5.016)" fill="#fff7f3"/>
      <path id="Trazado_636517" data-name="Trazado 636517" d="M468.434,7.5H458.5a5.3,5.3,0,0,1,5.3,5.3V132.575a5.3,5.3,0,0,1-5.3,5.3h9.934a5.3,5.3,0,0,0,5.3-5.3V12.8A5.3,5.3,0,0,0,468.434,7.5Z" transform="translate(-306.673 -5.016)" fill="#ffeee7"/>
      <path id="Trazado_636518" data-name="Trazado 636518" d="M80.2,367.656a26.614,26.614,0,0,1,13.2-11.1c9.048-3.367,4.735-18.36,10.574-19.57s5.208,10.469,4.051,20.937-6.108,21.569-16.682,21.569c0,0-5.842.3-8.185-2.651S80.2,367.656,80.2,367.656Z" transform="translate(-53.642 -225.34)" fill="#ffcebf"/>
      <path id="Trazado_636519" data-name="Trazado 636519" d="M374.039,367.656a26.614,26.614,0,0,0-13.2-11.1c-9.048-3.367-4.735-18.36-10.574-19.57s-5.208,10.469-4.051,20.937,6.108,21.569,16.682,21.569c0,0,5.842.3,8.185-2.651S374.039,367.656,374.039,367.656Z" transform="translate(-231.053 -225.34)" fill="#ffcebf"/>
      <path id="Trazado_636520" data-name="Trazado 636520" d="M343.645,82.047a26.947,26.947,0,1,0-31.914,26.488v9.551h-7.66a4.967,4.967,0,1,0,0,9.934h7.66v7.216a4.967,4.967,0,1,0,9.934,0V128.02h7.66a4.967,4.967,0,1,0,0-9.934h-7.66v-9.551A26.992,26.992,0,0,0,343.645,82.047Zm-43.96,0A17.013,17.013,0,1,1,316.7,99.06,17.032,17.032,0,0,1,299.684,82.047Z" transform="translate(-193.803 -36.854)" fill="#fd4c1b"/>
      <path id="Trazado_636521" data-name="Trazado 636521" d="M101.318,99.4a28.946,28.946,0,0,0-16.76,5.322L73.281,93.446h5.662a4.967,4.967,0,0,0,0-9.934H61.289a4.967,4.967,0,0,0-4.967,4.967v17.74a4.967,4.967,0,0,0,9.934,0v-5.749l11.278,11.278A29.1,29.1,0,1,0,101.318,99.4Zm0,48.277a19.172,19.172,0,1,1,19.172-19.172A19.193,19.193,0,0,1,101.318,147.679Z" transform="translate(-37.672 -55.858)" fill="#2b95f9"/>
      <g id="Grupo_881890" data-name="Grupo 881890" transform="translate(0 0)">
        <path id="Trazado_636522" data-name="Trazado 636522" d="M167.059,120.292a2.483,2.483,0,0,0-2.484,2.484v4.782a2.818,2.818,0,0,1-2.815,2.815H133.934a26.863,26.863,0,0,0-3.287-1.484c-3.384-1.259-4.264-4.937-5.138-9.995-.712-4.121-1.519-8.793-5.8-9.679a5.329,5.329,0,0,0-4.877,1.234c-3.222,2.932-3.374,10.056-2.405,19.924H57.113c.969-9.868.816-16.992-2.405-19.924a5.327,5.327,0,0,0-4.877-1.234c-4.279.886-5.086,5.557-5.8,9.679-.874,5.058-1.754,8.735-5.138,9.995a26.912,26.912,0,0,0-3.287,1.484H7.782a2.818,2.818,0,0,1-2.815-2.815V7.782A2.818,2.818,0,0,1,7.782,4.967H36.111a2.484,2.484,0,0,0,0-4.967H7.782A7.791,7.791,0,0,0,0,7.782V127.558a7.791,7.791,0,0,0,7.782,7.782H14.5v31.719a2.483,2.483,0,0,0,2.484,2.484H44.7a2.483,2.483,0,0,0,2.484-2.484V153.511c5.192-3.926,8.136-11.018,9.325-18.171h56.526c1.188,7.153,4.133,14.246,9.325,18.171v13.548a2.483,2.483,0,0,0,2.484,2.484h27.714a2.483,2.483,0,0,0,2.484-2.484V135.34h6.721a7.791,7.791,0,0,0,7.782-7.782v-4.782A2.483,2.483,0,0,0,167.059,120.292ZM51.917,132.311c-1.035,9.358-5.312,19.358-14.213,19.358a2.484,2.484,0,1,0,0,4.967,16.16,16.16,0,0,0,4.513-.626v8.565H19.47V135.34h9.438a27,27,0,0,0-4.539,5.8,2.483,2.483,0,0,0,4.375,2.351,24.074,24.074,0,0,1,11.883-9.948c9.776-3.582,7.114-17.353,10.212-19.465.389-.08.469-.009.526.044.194.176,1.166,1.3,1.291,6.189a94.971,94.971,0,0,1-.739,12Zm98.156,32.264H127.326v-8.565a16.16,16.16,0,0,0,4.513.626,2.484,2.484,0,1,0,0-4.967c-8.9,0-13.179-10-14.213-19.358a95.035,95.035,0,0,1-.739-12c.125-4.886,1.1-6.013,1.291-6.189.058-.053.137-.125.526-.044,3.092,2.1.443,15.895,10.212,19.465A24.364,24.364,0,0,1,140.8,143.5a2.483,2.483,0,0,0,4.372-2.357,27,27,0,0,0-4.539-5.8h9.438Z" transform="translate(0 0)"/>
        <path id="Trazado_636523" data-name="Trazado 636523" d="M253.32,0H139.353a2.484,2.484,0,0,0,0,4.967H253.32a2.818,2.818,0,0,1,2.815,2.815V111.56a2.484,2.484,0,0,0,4.967,0V7.782A7.791,7.791,0,0,0,253.32,0Z" transform="translate(-91.559 0)"/>
        <path id="Trazado_636524" data-name="Trazado 636524" d="M341.37,77.03A29.464,29.464,0,0,0,311.939,47.6c-34.5.831-40.494,48.476-7.451,57.906v5.08h-5.177c-9.887.411-9.879,14.494,0,14.9h5.177v4.732c.411,9.887,14.494,9.879,14.9,0v-4.732h5.177c9.887-.411,9.879-14.494,0-14.9H319.39v-5.08A29.444,29.444,0,0,0,341.37,77.03Zm-24.464,38.523h7.66a2.484,2.484,0,0,1,0,4.967h-7.66A2.483,2.483,0,0,0,314.423,123v7.215a2.484,2.484,0,0,1-4.967,0V123a2.483,2.483,0,0,0-2.484-2.484h-7.66a2.484,2.484,0,0,1,0-4.967h7.66a2.483,2.483,0,0,0,2.484-2.484v-9.551a2.484,2.484,0,0,0-2.027-2.441A24.469,24.469,0,0,1,287.475,77.03c1.343-32.452,47.588-32.446,48.928,0a24.47,24.47,0,0,1-19.953,24.047,2.484,2.484,0,0,0-2.027,2.441v9.551A2.483,2.483,0,0,0,316.906,115.553Z" transform="translate(-189.045 -31.838)"/>
        <path id="Trazado_636525" data-name="Trazado 636525" d="M351.447,97.1a19.519,19.519,0,0,0-19.5-19.5c-25.865,1.071-25.858,37.926,0,38.993A19.519,19.519,0,0,0,351.447,97.1Zm-19.5,14.529A14.546,14.546,0,0,1,317.421,97.1c.8-19.275,28.264-19.27,29.059,0A14.546,14.546,0,0,1,331.95,111.625Z" transform="translate(-209.056 -51.903)"/>
        <path id="Trazado_636526" data-name="Trazado 636526" d="M81.376,83.464a7.459,7.459,0,0,0-7.451-7.451H56.272a7.459,7.459,0,0,0-7.451,7.451V101.2c.382,9.74,14.21,9.941,14.9.243l5.611,5.611C56.44,127.7,71.935,155.3,96.3,155.081a31.624,31.624,0,0,0,31.589-31.589c.219-24.364-27.378-39.862-48.023-26.971l-5.614-5.614A7.46,7.46,0,0,0,81.376,83.464Zm-7.451,2.484H68.263a2.484,2.484,0,0,0-1.756,4.24l11.277,11.278a2.483,2.483,0,0,0,3.19.272c17.293-12.464,42.134.432,41.948,21.756A26.652,26.652,0,0,1,96.3,150.114c-21.323.182-34.22-24.655-21.756-41.949a2.484,2.484,0,0,0-.272-3.19L63,93.7a2.484,2.484,0,0,0-4.24,1.756V101.2a2.484,2.484,0,0,1-4.967,0V83.464a2.486,2.486,0,0,1,2.484-2.484H73.925A2.484,2.484,0,0,1,73.925,85.947Z" transform="translate(-32.655 -50.842)"/>
        <path id="Trazado_636527" data-name="Trazado 636527" d="M148.463,197.534a21.679,21.679,0,0,0,21.655-21.655c-1.189-28.729-42.125-28.72-43.31,0a21.68,21.68,0,0,0,21.655,21.655Zm0-38.343a16.707,16.707,0,0,1,16.688,16.688c-.917,22.139-32.463,22.132-33.376,0A16.707,16.707,0,0,1,148.463,159.191Z" transform="translate(-84.817 -103.229)"/>
      </g>
    </g>
    <path id="Trazado_646254" data-name="Trazado 646254" d="M-23.83-2.109a6.614,6.614,0,0,1-2.777,1.7,11.979,11.979,0,0,1-4.008.645,7.146,7.146,0,0,1-5.355-2.051,8.3,8.3,0,0,1-2.145-5.707L-38.127-9a10.182,10.182,0,0,1,.891-4.4,6.614,6.614,0,0,1,2.549-2.895,7.21,7.21,0,0,1,3.838-1.014A7.559,7.559,0,0,1-25.9-15.85,6.182,6.182,0,0,1-23.842-11.5H-27.8a3.235,3.235,0,0,0-.914-2.039,2.949,2.949,0,0,0-1.992-.609A2.684,2.684,0,0,0-33.1-12.832a7.008,7.008,0,0,0-.855,3.75v1.031a6.86,6.86,0,0,0,.873,3.838A3.088,3.088,0,0,0-30.334-2.93a3.456,3.456,0,0,0,2.391-.715V-6.293H-30.8V-9.117h6.973ZM-15.486.234a6.518,6.518,0,0,1-4.723-1.74,6.009,6.009,0,0,1-1.8-4.529v-.328A7.787,7.787,0,0,1-21.293-9.8a5.274,5.274,0,0,1,2.1-2.3,6.35,6.35,0,0,1,3.281-.814,5.489,5.489,0,0,1,4.219,1.658,6.516,6.516,0,0,1,1.547,4.623V-5.1h-7.852a2.846,2.846,0,0,0,.926,1.676,2.755,2.755,0,0,0,1.852.609,3.549,3.549,0,0,0,2.93-1.312l1.8,2.133A5.045,5.045,0,0,1-12.574-.369,7.069,7.069,0,0,1-15.486.234Zm-.445-10.1q-1.734,0-2.062,2.3h3.984v-.3a1.956,1.956,0,0,0-.48-1.471A1.912,1.912,0,0,0-15.932-9.867Zm-.047-8.145h4.172l-3.258,3.68-3.223-.006ZM-4.928-12.68l.129,1.488a4.3,4.3,0,0,1,3.621-1.723A3.618,3.618,0,0,1,1.781-11.73,5.635,5.635,0,0,1,2.795-8.168V0H-1.166V-8a2.14,2.14,0,0,0-.387-1.412,1.789,1.789,0,0,0-1.406-.451,1.883,1.883,0,0,0-1.723.914V0H-8.631V-12.68ZM11.115.234a6.518,6.518,0,0,1-4.723-1.74,6.009,6.009,0,0,1-1.8-4.529v-.328A7.787,7.787,0,0,1,5.309-9.8a5.274,5.274,0,0,1,2.1-2.3,6.35,6.35,0,0,1,3.281-.814,5.489,5.489,0,0,1,4.219,1.658,6.516,6.516,0,0,1,1.547,4.623V-5.1H8.607a2.846,2.846,0,0,0,.926,1.676,2.755,2.755,0,0,0,1.852.609,3.549,3.549,0,0,0,2.93-1.312l1.8,2.133A5.045,5.045,0,0,1,14.027-.369,7.069,7.069,0,0,1,11.115.234Zm-.445-10.1q-1.734,0-2.062,2.3h3.984v-.3a1.956,1.956,0,0,0-.48-1.471A1.912,1.912,0,0,0,10.67-9.867Zm15.047.762-1.3-.094a2.336,2.336,0,0,0-2.391,1.172V0H18.076V-12.68h3.7l.129,1.629a3.058,3.058,0,0,1,2.777-1.863,3.851,3.851,0,0,1,1.1.141Zm.5,2.648a7.484,7.484,0,0,1,.738-3.381,5.28,5.28,0,0,1,2.121-2.279,6.388,6.388,0,0,1,3.246-.8,5.83,5.83,0,0,1,4.488,1.764,6.768,6.768,0,0,1,1.641,4.8v.141a6.566,6.566,0,0,1-1.646,4.705A5.846,5.846,0,0,1,32.35.234,5.912,5.912,0,0,1,28-1.389a6.348,6.348,0,0,1-1.77-4.4Zm3.949.246a4.718,4.718,0,0,0,.551,2.578,1.835,1.835,0,0,0,1.629.82q2.109,0,2.156-3.246v-.4q0-3.41-2.18-3.41-1.98,0-2.145,2.941Z" transform="translate(-6579 1665.848)" fill="#12263f"/>
    <g id="Grupo_881902" data-name="Grupo 881902" transform="translate(-6362.086 1436.848)">
      <path id="Trazado_636528" data-name="Trazado 636528" d="M175.643,386.249H7.478L32.449,325.8H150.673Z" transform="translate(-4.948 -215.572)" fill="#b6e1fd"/>
      <path id="Trazado_636529" data-name="Trazado 636529" d="M412.9,325.8H403.8l24.971,60.448h9.108Z" transform="translate(-267.18 -215.572)" fill="#7ee5f2"/>
      <path id="Trazado_636530" data-name="Trazado 636530" d="M186.186,359.544l-5.551-13.438H114.9L91.681,325.8H76.726l-8.388,20.305h-22.7l-5.551,13.438h22.7l-11.031,26.7H66.711l18.6-45.024,52.929,45.024H160.8l-30.536-26.7Z" transform="translate(-26.521 -215.572)" fill="#ffb338"/>
      <path id="Trazado_636531" data-name="Trazado 636531" d="M434.14,399.255h9.108L437.7,385.817h-9.108Z" transform="translate(-283.584 -255.283)" fill="#ffbb24"/>
      <g id="Grupo_881892" data-name="Grupo 881892" transform="translate(19.113 110.229)">
        <path id="Trazado_636532" data-name="Trazado 636532" d="M79.195,346.106h-22.7L64.879,325.8h22.7Z" transform="translate(-56.491 -325.801)" fill="#617a0b"/>
        <path id="Trazado_636533" data-name="Trazado 636533" d="M281.544,346.106H215.809L192.59,325.8h80.566Z" transform="translate(-146.543 -325.801)" fill="#617a0b"/>
      </g>
      <path id="Trazado_636534" data-name="Trazado 636534" d="M421.293,346.106,412.9,325.8H403.8l8.388,20.305Z" transform="translate(-267.18 -215.572)" fill="#44c868"/>
      <path id="Trazado_636535" data-name="Trazado 636535" d="M137.385,371.389l-18.6,45.024h71.528Z" transform="translate(-78.597 -245.737)" fill="#617a0b"/>
      <path id="Trazado_636536" data-name="Trazado 636536" d="M154.077,7.534a52.313,52.313,0,0,0-52.116,52.508c0,44.161,52.116,84.793,52.116,84.793s52.116-40.632,52.116-84.793A52.313,52.313,0,0,0,154.077,7.534Zm0,73.451a20.943,20.943,0,1,1,20.786-20.943A20.865,20.865,0,0,1,154.077,80.985Z" transform="translate(-67.464 -4.985)" fill="#fd4c1b"/>
      <path id="Trazado_636537" data-name="Trazado 636537" d="M247.094,7.534c-1.535,0-3.053.071-4.554.2A52.357,52.357,0,0,1,290.1,60.042c0,36.126-34.87,69.884-47.562,80.975,2.823,2.467,4.554,3.818,4.554,3.818S299.21,104.2,299.21,60.042A52.313,52.313,0,0,0,247.094,7.534Z" transform="translate(-160.481 -4.985)" fill="#e7343f"/>
      <path id="Trazado_636538" data-name="Trazado 636538" d="M210.4,140.281a23.493,23.493,0,0,0,0-46.984,23.067,23.067,0,0,0-13.2,4.127,2.561,2.561,0,0,0-.65,3.545,2.519,2.519,0,0,0,3.519.655A18.053,18.053,0,0,1,210.4,98.4a18.341,18.341,0,1,1-16.207,9.916,2.558,2.558,0,0,0-1.077-3.438,2.521,2.521,0,0,0-3.412,1.085,23.7,23.7,0,0,0-2.621,10.83A23.431,23.431,0,0,0,210.4,140.281Z" transform="translate(-123.787 -61.732)"/>
      <path id="Trazado_636539" data-name="Trazado 636539" d="M173.032,169.7l-24.97-60.448h0a2.529,2.529,0,0,0-2.336-1.57H120.843A129.025,129.025,0,0,0,132.857,88.06c5.576-11.434,8.4-22.537,8.4-33C141.259,24.7,116.745,0,86.613,0S31.967,24.7,31.967,55.057c0,10.466,2.827,21.57,8.4,33a128.955,128.955,0,0,0,12.014,19.619H27.5a2.529,2.529,0,0,0-2.336,1.57L8.15,150.439a2.555,2.555,0,0,0,1.363,3.333,2.517,2.517,0,0,0,3.308-1.374l2.428-5.878H32.472l-8.925,21.607H6.324l2.587-6.264a2.555,2.555,0,0,0-1.363-3.333A2.522,2.522,0,0,0,4.24,159.9L.195,169.7a2.564,2.564,0,0,0,.231,2.394,2.524,2.524,0,0,0,2.1,1.135H170.7a2.526,2.526,0,0,0,2.1-1.135A2.566,2.566,0,0,0,173.032,169.7Zm-136-114.64C37.027,27.509,59.271,5.1,86.613,5.1S136.2,27.51,136.2,55.057c0,11.552-3.984,30.011-22.413,53.534-.019.022-.035.045-.053.068q-1.412,1.8-2.937,3.639a194.65,194.65,0,0,1-24.184,24.276,194.35,194.35,0,0,1-24.117-24.2q-1.565-1.883-3.007-3.725c-.016-.02-.03-.04-.046-.059C41.014,85.072,37.027,66.613,37.027,55.057Zm-7.839,57.721H46.411l-6.282,15.207H22.906Zm14.795,55.35L59.8,129.846l45,38.281Zm68.66,0L60.421,123.7a2.521,2.521,0,0,0-3.968.968L38.5,168.127H29.027L38.6,144.951a2.564,2.564,0,0,0-.231-2.394,2.525,2.525,0,0,0-2.1-1.135H17.355l3.445-8.34H41.817a2.529,2.529,0,0,0,2.335-1.57l7.74-18.736h4.391q1.143,1.436,2.332,2.873a190.883,190.883,0,0,0,26.45,26.216,2.516,2.516,0,0,0,3.1,0c.3-.232,4.316-3.386,10.039-8.783h28.65a2.549,2.549,0,0,0,0-5.1H103.415c3.508-3.553,7.342-7.7,11.2-12.335q1.193-1.436,2.332-2.873h27.095l6.282,15.207h-13.35a2.549,2.549,0,0,0,0,5.1h15.455l3.445,8.34H103.744a2.531,2.531,0,0,0-2.37,1.657,2.562,2.562,0,0,0,.712,2.817l25.42,22.231Zm22.582,0-24.706-21.606h47.459l8.926,21.606Z" transform="translate(0)"/>
    </g>
    <g id="Grupo_881903" data-name="Grupo 881903" transform="translate(-6057.086 1421.676)">
      <g id="Grupo_881894" data-name="Grupo 881894" transform="translate(2.646 26.818)">
        <path id="Trazado_636540" data-name="Trazado 636540" d="M57.68,265.806a21.168,21.168,0,0,0-21.168-21.168H28.668A21.168,21.168,0,0,0,7.5,265.806v16.918a7.056,7.056,0,0,0,7.056,7.056h.9v38.447H47.211V289.779h3.413a7.056,7.056,0,0,0,7.056-7.056Z" transform="translate(-7.5 -169.505)" fill="#eb6f2d"/>
        <path id="Trazado_636541" data-name="Trazado 636541" d="M76.792,244.637H69.736A21.168,21.168,0,0,1,90.9,265.8v16.918H80.435v45.5h7.056V289.779H90.9a7.056,7.056,0,0,0,7.056-7.056V265.8A21.168,21.168,0,0,0,76.792,244.637Z" transform="translate(-47.779 -169.504)" fill="#f93a79"/>
        <circle id="Elipse_6904" data-name="Elipse 6904" cx="17.995" cy="17.995" r="17.995" transform="translate(7.053 38.808)" fill="#eb6f2d"/>
        <path id="Trazado_636542" data-name="Trazado 636542" d="M72.028,141.673a18.075,18.075,0,0,0-3.528.348,18,18,0,0,1,0,35.3,18,18,0,1,0,3.528-35.643Z" transform="translate(-46.979 -102.865)" fill="#f93a79"/>
        <path id="Trazado_636543" data-name="Trazado 636543" d="M235.417,215.806a21.168,21.168,0,0,0-21.168-21.168H206.4a21.168,21.168,0,0,0-21.168,21.168v26.443a7.056,7.056,0,0,0,7.056,7.056h1.68v46.561h31.752V249.3h2.636a7.056,7.056,0,0,0,7.056-7.056Z" transform="translate(-122.532 -137.145)" fill="#ffb338"/>
        <path id="Trazado_636544" data-name="Trazado 636544" d="M254.529,194.637h-7.056A21.168,21.168,0,0,1,268.641,215.8v26.444h-9.692v53.617H266V249.3h2.636a7.056,7.056,0,0,0,7.056-7.056V215.8A21.168,21.168,0,0,0,254.529,194.637Z" transform="translate(-162.811 -137.144)" fill="#ffc472"/>
        <circle id="Elipse_6905" data-name="Elipse 6905" cx="17.995" cy="17.995" r="17.995" transform="translate(69.758 21.168)" fill="#ffb338"/>
        <path id="Trazado_636545" data-name="Trazado 636545" d="M249.764,91.673a18.076,18.076,0,0,0-3.528.348,18,18,0,0,1,0,35.3,18,18,0,1,0,3.528-35.643Z" transform="translate(-162.011 -70.505)" fill="#ffc472"/>
        <path id="Trazado_636546" data-name="Trazado 636546" d="M413.686,155.806a21.168,21.168,0,0,0-21.168-21.168h-7.845a21.168,21.168,0,0,0-21.168,21.168v37.733a7.056,7.056,0,0,0,7.056,7.056h2.269v56.44h31.752v-56.44h2.048a7.056,7.056,0,0,0,7.056-7.056V155.806Z" transform="translate(-237.908 -98.312)" fill="#2b95f9"/>
        <path id="Trazado_636547" data-name="Trazado 636547" d="M432.8,134.637h-7.056A21.168,21.168,0,0,1,446.91,155.8v37.733h-9.1v63.5h7.056v-56.44h2.048a7.056,7.056,0,0,0,7.056-7.056V155.8A21.168,21.168,0,0,0,432.8,134.637Z" transform="translate(-278.188 -98.312)" fill="#69bdc6"/>
        <circle id="Elipse_6906" data-name="Elipse 6906" cx="17.995" cy="17.995" r="17.995" transform="translate(132.65 0)" fill="#2b95f9"/>
        <path id="Trazado_636548" data-name="Trazado 636548" d="M428.033,31.673a18.076,18.076,0,0,0-3.528.348,18,18,0,0,1,0,35.3,18,18,0,1,0,3.528-35.643Z" transform="translate(-277.387 -31.673)" fill="#69bdc6"/>
      </g>
      <g id="Grupo_881895" data-name="Grupo 881895" transform="translate(0 24.172)">
        <path id="Trazado_636549" data-name="Trazado 636549" d="M395.411,61.8a20.636,20.636,0,0,0,6.708-26.31l-4.72,2.394a15.18,15.18,0,0,1,1.65,6.932,15.35,15.35,0,1,1-4.384-10.741l3.781-3.7a20.637,20.637,0,1,0-26.43,31.448,23.85,23.85,0,0,0-16.01,22.494v37.733a9.714,9.714,0,0,0,9.325,9.695v56.447h37.044V131.728a9.714,9.714,0,0,0,9.1-9.684V84.312A23.851,23.851,0,0,0,395.411,61.8Zm10.775,60.246a4.415,4.415,0,0,1-4.41,4.41h-4.694v56.44H386.388V135.95H381.1v46.944H370.623v-56.44h-4.915a4.415,4.415,0,0,1-4.41-4.41V84.312A18.543,18.543,0,0,1,379.819,65.79h7.845a18.543,18.543,0,0,1,18.522,18.522v37.733Z" transform="translate(-230.408 -24.172)"/>
        <path id="Trazado_636550" data-name="Trazado 636550" d="M217.142,121.8a20.641,20.641,0,1,0-23.395.019,23.85,23.85,0,0,0-16.01,22.494v26.443a9.716,9.716,0,0,0,8.737,9.654v46.609h37.044V180.457a9.713,9.713,0,0,0,9.692-9.7V155.574h-5.292v15.182a4.415,4.415,0,0,1-4.41,4.41h-5.283v46.561H207.619v-36.36h-5.292v36.36H191.765V175.166h-4.327a4.415,4.415,0,0,1-4.41-4.41V144.312A18.543,18.543,0,0,1,201.55,125.79H209.4a18.543,18.543,0,0,1,18.522,18.522V150.3h5.292v-5.992A23.849,23.849,0,0,0,217.142,121.8Zm-27.061-16.985a15.349,15.349,0,1,1,15.349,15.349A15.367,15.367,0,0,1,190.082,104.814Z" transform="translate(-115.032 -63.005)"/>
        <path id="Trazado_636551" data-name="Trazado 636551" d="M39.405,171.8a20.641,20.641,0,1,0-23.4.018A23.868,23.868,0,0,0,3.034,182.673l4.615,2.59a18.561,18.561,0,0,1,16.165-9.472h7.845A18.543,18.543,0,0,1,50.18,194.312V211.23a4.415,4.415,0,0,1-4.41,4.41H39.711v38.447H29.128V225H23.836v29.087H13.252V215.64H9.7a4.415,4.415,0,0,1-4.41-4.41V194.312a18.584,18.584,0,0,1,.622-4.778L.8,188.173a23.876,23.876,0,0,0-.8,6.14V211.23a9.719,9.719,0,0,0,7.96,9.545v38.6H45V220.932h.767a9.713,9.713,0,0,0,9.7-9.7V194.312A23.85,23.85,0,0,0,39.405,171.8ZM12.345,154.814a15.349,15.349,0,1,1,15.35,15.349,15.367,15.367,0,0,1-15.35-15.349Z" transform="translate(0 -95.365)"/>
        <path id="Trazado_636552" data-name="Trazado 636552" d="M67.562,316.559h5.292v5.314H67.562Z" transform="translate(-43.726 -213.406)"/>
        <path id="Trazado_636553" data-name="Trazado 636553" d="M67.562,286.621h5.292v5.292H67.562Z" transform="translate(-43.726 -194.03)"/>
        <path id="Trazado_636554" data-name="Trazado 636554" d="M247.5,241.621h5.292v5.292H247.5Z" transform="translate(-160.183 -164.906)"/>
        <path id="Trazado_636555" data-name="Trazado 636555" d="M247.5,271.621h5.292v5.292H247.5Z" transform="translate(-160.183 -184.322)"/>
        <path id="Trazado_636556" data-name="Trazado 636556" d="M432.3,208.122H427v-5.27H432.3Zm0-10.562H427v-5.292H432.3Zm0-10.584H427v-5.292H432.3Z" transform="translate(-276.359 -126.114)" fill="#fff"/>
      </g>
    </g>
    <g id="Grupo_881904" data-name="Grupo 881904" transform="translate(-5744.086 1456.848)">
      <path id="Trazado_636565" data-name="Trazado 636565" d="M29.405,0A29.405,29.405,0,1,1,0,29.405,29.405,29.405,0,0,1,29.405,0Z" transform="translate(2.859 5.309)" fill="#ffb338"/>
      <path id="Trazado_636557" data-name="Trazado 636557" d="M37.642,131.172A29.631,29.631,0,0,1,8.124,104c-.067.818-.124,1.635-.124,2.47a29.642,29.642,0,0,0,59.285,0c0-.835-.057-1.653-.124-2.47A29.631,29.631,0,0,1,37.642,131.172Z" transform="translate(-5.53 -71.888)" fill="#ff8031"/>
      <rect id="Rectángulo_330199" data-name="Rectángulo 330199" width="40.024" height="69.429" transform="translate(100.876 81.273)" fill="#fea82f"/>
      <g id="Grupo_881897" data-name="Grupo 881897" transform="translate(100.876 91.074)">
        <rect id="Rectángulo_330200" data-name="Rectángulo 330200" width="40.024" height="9.802" transform="translate(0 40.024)" fill="#ff8031"/>
        <rect id="Rectángulo_330201" data-name="Rectángulo 330201" width="40.024" height="9.802" transform="translate(0 20.42)" fill="#ff8031"/>
        <rect id="Rectángulo_330202" data-name="Rectángulo 330202" width="40.024" height="9.802" transform="translate(0 0)" fill="#ff8031"/>
      </g>
      <g id="Grupo_881898" data-name="Grupo 881898" transform="translate(2.859 100.876)">
        <rect id="Rectángulo_330203" data-name="Rectángulo 330203" width="39.207" height="49.825" transform="translate(49.009 0)" fill="#fea82f"/>
        <rect id="Rectángulo_330204" data-name="Rectángulo 330204" width="39.207" height="29.405" transform="translate(0 20.42)" fill="#fea82f"/>
      </g>
      <path id="Trazado_636558" data-name="Trazado 636558" d="M15.411,111.748l61.755-49.4L99.4,74.7l46.934-46.934V42.583a4.939,4.939,0,0,0,4.94,4.94h0a4.939,4.939,0,0,0,4.94-4.94V8H121.629a4.939,4.939,0,0,0-4.94,4.94h0a4.939,4.939,0,0,0,4.94,4.94H138.92L96.927,59.874,77.165,47.523,8,101.852Z" transform="translate(-5.53 -5.53)" fill="#fcd770"/>
      <g id="Grupo_881899" data-name="Grupo 881899" transform="translate(2.859 111.494)">
        <rect id="Rectángulo_330205" data-name="Rectángulo 330205" width="39.207" height="9.802" transform="translate(49.009 19.603)" fill="#ff8031"/>
        <rect id="Rectángulo_330206" data-name="Rectángulo 330206" width="39.207" height="9.802" transform="translate(0 19.603)" fill="#ff8031"/>
        <rect id="Rectángulo_330207" data-name="Rectángulo 330207" width="39.207" height="9.802" transform="translate(49.009 0)" fill="#ff8031"/>
      </g>
      <path id="Trazado_636559" data-name="Trazado 636559" d="M22.821,274.248,8,285.89l7.411,9.9,7.411-5.928Z" transform="translate(-5.53 -189.567)" fill="#ffc729"/>
      <path id="Trazado_636560" data-name="Trazado 636560" d="M81.881,49.881a4.945,4.945,0,0,1,4.94,4.94h4.94a9.87,9.87,0,0,0-7.411-9.53V40h-4.94v5.291A9.86,9.86,0,0,0,81.881,64.7a4.94,4.94,0,1,1-4.94,4.94H72a9.87,9.87,0,0,0,7.411,9.53v5.291h4.94V79.172a9.86,9.86,0,0,0-2.47-19.411,4.94,4.94,0,0,1,0-9.881Z" transform="translate(-49.768 -27.649)"/>
      <path id="Trazado_636561" data-name="Trazado 636561" d="M0,393.881v24.7H44.463V384H0Zm39.523,19.762H4.94V408.7H39.523Zm0-9.881H4.94v-4.94H39.523ZM4.94,388.94H39.523v4.94H4.94Z" transform="translate(0 -265.431)"/>
      <path id="Trazado_636562" data-name="Trazado 636562" d="M160,329.881v44.463h44.463V320H160Zm39.523,29.642h-24.7v4.94h24.7v4.94H164.94v-4.94h4.94v-4.94h-4.94v-4.94h34.583Zm0-9.881H164.94V344.7h34.583Zm0-9.881H164.94v-4.94h34.583ZM164.94,324.94h34.583v4.94H164.94Z" transform="translate(-110.596 -221.192)"/>
      <path id="Trazado_636563" data-name="Trazado 636563" d="M320,265.881v64.225h44.463V256H320Zm39.523,59.285H324.94v-4.94h34.583Zm0-9.881H324.94v-4.94h34.583Zm0-9.881H324.94v-4.94h34.583Zm0-9.881H324.94v-4.94h34.583Zm0-19.762h-4.94v4.94h4.94v4.94H324.94V280.7h24.7v-4.94h-24.7v-4.94h34.583ZM324.94,260.94h34.583v4.94H324.94Z" transform="translate(-221.192 -176.954)"/>
      <path id="Trazado_636564" data-name="Trazado 636564" d="M116.1,0a7.411,7.411,0,1,0,0,14.821h11.328L91.041,51.207,71.475,38.977,61.91,46.489A32.1,32.1,0,1,0,32.112,66.7a31.872,31.872,0,0,0,4.53-.358L.944,94.379,4,98.264,71.8,45.007,91.753,57.479l47.6-47.6H116.1a2.47,2.47,0,1,1,0-4.94h32.112V37.053a2.47,2.47,0,1,1-4.94,0V16.269L93.437,66.1,71.386,53.85,8.337,104.289l3.088,3.858,60.46-48.369L94.3,72.231l44.034-44.036v8.858a7.411,7.411,0,1,0,14.821,0V0ZM4.94,34.583A27.172,27.172,0,1,1,32.112,61.755,27.2,27.2,0,0,1,4.94,34.583Z"/>
      <rect id="Rectángulo_330208" data-name="Rectángulo 330208" width="4.901" height="4.901" transform="translate(10.21 32.264)"/>
      <rect id="Rectángulo_330209" data-name="Rectángulo 330209" width="4.901" height="4.901" transform="translate(49.417 32.264)"/>
    </g>
  </g>
</svg>
