<svg xmlns="http://www.w3.org/2000/svg" width="106.038" height="106.038" viewBox="0 0 106.038 106.038">
  <g id="Filled_outline" data-name="Filled outline" transform="translate(-16 -16)">
    <rect id="Rectángulo_331301" data-name="Rectángulo 331301" width="53" height="95" rx="26.5" transform="translate(43 25)" fill="#e0e0de"/>
    <path id="Trazado_643632" data-name="Trazado 643632" d="M136,104h53.019v70.692H136Z" transform="translate(-93.49 -68.56)" fill="#2b95f9"/>
    <path id="Trazado_643633" data-name="Trazado 643633" d="M160.231,437.9a7.006,7.006,0,0,0,1.716.234h38.881a7.069,7.069,0,0,0,7.069-7.069V424H166.136Z" transform="translate(-112.369 -317.868)" fill="#d6d6d4"/>
    <path id="Trazado_643634" data-name="Trazado 643634" d="M327.522,56h-.169l-4.5,10.6h11.742V63.069A7.069,7.069,0,0,0,327.522,56Z" transform="translate(-239.062 -31.163)" fill="#d6d6d4"/>
    <path id="Trazado_643635" data-name="Trazado 643635" d="M186.959,174.692h41.762V104H216.979Z" transform="translate(-133.192 -68.56)" fill="#3086cd"/>
    <path id="Trazado_643636" data-name="Trazado 643636" d="M157.208,288.742v-10.6a7.069,7.069,0,0,0-7.069-7.069H146.6L148.371,264,136,271.069v24.742h14.138A7.069,7.069,0,0,0,157.208,288.742Z" transform="translate(-93.49 -193.214)" fill="#3086cd"/>
    <path id="Trazado_643637" data-name="Trazado 643637" d="M321.869,230.952,310.335,216v28.277l-7.953-7.953a6.248,6.248,0,1,0-8.836,8.837l11.487,11.487-.792,1.188a15.476,15.476,0,0,0,.792,18.252h21.208v-33.5a17.673,17.673,0,0,0-4.372-11.636Z" transform="translate(-214.807 -155.817)" fill="#fec9a3"/>
    <path id="Trazado_643638" data-name="Trazado 643638" d="M62.881,59.346H48.742l1.767,8.837L38.138,59.346H31.069A7.069,7.069,0,0,1,24,52.277V31.069A7.069,7.069,0,0,1,31.069,24H62.881a7.069,7.069,0,0,1,7.069,7.069V52.277A7.069,7.069,0,0,1,62.881,59.346Z" transform="translate(-6.233 -6.233)" fill="#ffb338"/>
    <path id="Trazado_643639" data-name="Trazado 643639" d="M139.535,125.208h14.138a7.069,7.069,0,0,0,7.069-7.069V104H136v26.257l5.3,3.787Z" transform="translate(-93.49 -68.56)" fill="#3086cd"/>
    <path id="Trazado_643640" data-name="Trazado 643640" d="M59.346,255.069H55.811L57.579,248l-12.371,7.069H31.069A7.069,7.069,0,0,0,24,262.138v10.6a7.069,7.069,0,0,0,7.069,7.069H59.346a7.069,7.069,0,0,0,7.069-7.069v-10.6A7.069,7.069,0,0,0,59.346,255.069Z" transform="translate(-6.233 -180.748)" fill="#b6e1fd"/>
    <path id="Trazado_643641" data-name="Trazado 643641" d="M93.828,280h-.34c-7.23,10.881-17.4,19.305-25.228,24.742H93.828a7.069,7.069,0,0,0,7.069-7.069v-10.6A7.069,7.069,0,0,0,93.828,280Z" transform="translate(-40.715 -205.679)" fill="#b6e1fd"/>
    <path id="Trazado_643642" data-name="Trazado 643642" d="M376.837,346.6a1.761,1.761,0,0,1-1.25-.518l-7.069-7.069a1.767,1.767,0,1,1,2.5-2.5l7.069,7.069a1.767,1.767,0,0,1-1.249,3.017Z" transform="translate(-274.239 -249.308)" fill="#f7a468"/>
    <path id="Trazado_643643" data-name="Trazado 643643" d="M73.881,31.894C61.643,47.17,44.536,56.66,32.212,63.115A7.023,7.023,0,0,0,37.467,65.5h7.069l12.371,8.837L55.14,65.5H69.279a7.069,7.069,0,0,0,7.069-7.069V37.219A7.021,7.021,0,0,0,73.881,31.894Z" transform="translate(-12.631 -12.383)" fill="#ffa912"/>
    <path id="Trazado_643644" data-name="Trazado 643644" d="M80,96H94.138v10.6H80Z" transform="translate(-49.862 -62.327)" fill="#f35244"/>
    <g id="Grupo_883846" data-name="Grupo 883846" transform="translate(28.371 24.837)">
      <circle id="Elipse_6996" data-name="Elipse 6996" cx="4.5" cy="4.5" r="4.5" transform="translate(-0.371 0.164)" fill="#de4132"/>
      <circle id="Elipse_6997" data-name="Elipse 6997" cx="4.5" cy="4.5" r="4.5" transform="translate(8.629 0.164)" fill="#de4132"/>
      <path id="Trazado_643645" data-name="Trazado 643645" d="M144,99.535,151.069,96v10.6L144,103.069Z" transform="translate(-128.094 -87.163)" fill="#de4132"/>
    </g>
    <path id="Trazado_643646" data-name="Trazado 643646" d="M376,216v18.489l8.951-6.885Z" transform="translate(-280.471 -155.817)" fill="#fec093"/>
    <path id="Trazado_643647" data-name="Trazado 643647" d="M313.484,95.069v21.208a7.069,7.069,0,0,1-7.069,7.069h-8.836l-12.371,8.837,1.767-8.837H271.069A7.065,7.065,0,0,1,264,116.277V95.069A7.069,7.069,0,0,1,271.069,88h35.346a7.063,7.063,0,0,1,7.069,7.069Z" transform="translate(-193.214 -56.094)" fill="#b6e1fd"/>
    <path id="Trazado_643648" data-name="Trazado 643648" d="M326.1,98.365v21.208a7.069,7.069,0,0,1-7.069,7.069h-8.837l-12.371,8.837,1.767-8.837H283.683a7.047,7.047,0,0,1-3.493-.921C296.7,117.9,311.533,107,322.546,92.23A7.069,7.069,0,0,1,326.1,98.365Z" transform="translate(-205.827 -59.39)" fill="#b6e1fd"/>
    <ellipse id="Elipse_6998" data-name="Elipse 6998" cx="5" cy="5.5" rx="5" ry="5.5" transform="translate(94 39)" fill="#f35244"/>
    <path id="Trazado_643649" data-name="Trazado 643649" d="M313.484,178.6a7.069,7.069,0,0,1-7.069,7.069h-8.836l-12.371,8.837,1.767-8.837H271.069A7.065,7.065,0,0,1,264,178.6L278.138,168l8.037,6.027,6.1,4.577,10.6-7.069Z" transform="translate(-193.214 -118.421)" fill="#7eb457"/>
    <path id="Trazado_643650" data-name="Trazado 643650" d="M326.1,191.069a7.069,7.069,0,0,1-7.069,7.069h-8.837l-12.371,8.837,1.767-8.837H283.683a7.047,7.047,0,0,1-3.493-.921,128.456,128.456,0,0,0,18.6-10.725l6.1,4.577,10.6-7.069Z" transform="translate(-205.827 -130.887)" fill="#77ad50"/>
    <path id="Trazado_643651" data-name="Trazado 643651" d="M248,448h3.535v3.535H248Z" transform="translate(-180.748 -336.566)"/>
    <path id="Trazado_643652" data-name="Trazado 643652" d="M24.837,54.881h6.5l11.91,8.508A1.767,1.767,0,0,0,46.01,61.6l-1.344-6.722H56.648a8.847,8.847,0,0,0,8.837-8.837V24.837A8.847,8.847,0,0,0,56.648,16H24.837A8.847,8.847,0,0,0,16,24.837V46.044a8.847,8.847,0,0,0,8.837,8.837Zm-5.3-30.044a5.308,5.308,0,0,1,5.3-5.3H56.648a5.308,5.308,0,0,1,5.3,5.3V46.044a5.308,5.308,0,0,1-5.3,5.3H42.51a1.767,1.767,0,0,0-1.733,2.114l.891,4.454-8.735-6.239a1.767,1.767,0,0,0-1.027-.329H24.837a5.308,5.308,0,0,1-5.3-5.3Z" transform="translate(0)"/>
    <path id="Trazado_643653" data-name="Trazado 643653" d="M65.826,58.669v10.6a1.767,1.767,0,0,0,1.767,1.767H81.732A1.767,1.767,0,0,0,83.5,69.273V68.6l4.511,2.256a1.767,1.767,0,0,0,2.558-1.581v-10.6a1.767,1.767,0,0,0-2.558-1.581L83.5,59.344v-.675c0-.029-.015-.054-.017-.083a6.177,6.177,0,1,0-8.82-8.651,6.177,6.177,0,1,0-8.82,8.651C65.842,58.615,65.826,58.639,65.826,58.669Zm14.138,8.837h-10.6V60.436h10.6Zm7.069-5.977v4.884L83.5,64.646V63.3ZM79.081,51.6A2.651,2.651,0,1,1,76.43,54.25,2.651,2.651,0,0,1,79.081,51.6Zm-8.837,0a2.651,2.651,0,1,1-2.651,2.651A2.651,2.651,0,0,1,70.245,51.6Z" transform="translate(-37.455 -24.996)"/>
    <path id="Trazado_643654" data-name="Trazado 643654" d="M200.459,55.069H184.375A8.851,8.851,0,0,0,175.717,48h-19.44v3.535h19.44a5.293,5.293,0,0,1,4.976,3.535h-15.58a8.847,8.847,0,0,0-8.837,8.837V85.113a8.847,8.847,0,0,0,8.837,8.837h13.75l-1.344,6.722a1.767,1.767,0,0,0,2.76,1.785l.74-.529v7.2l-4.936-4.936a8.015,8.015,0,0,0-11.335,11.335l10.459,10.459a16.605,16.605,0,0,0-1.66,3.314H128v8.837a8.847,8.847,0,0,0,8.837,8.837h61.856a1.767,1.767,0,0,0,1.767-1.767V111.694a19.352,19.352,0,0,0-4.732-12.708l-3.76-4.876.222-.159h8.271a8.847,8.847,0,0,0,8.837-8.837V63.906A8.847,8.847,0,0,0,200.459,55.069ZM165.113,58.6h35.346a5.308,5.308,0,0,1,5.3,5.3V81.811l-7.856-5.237a1.77,1.77,0,0,0-1.961,0l-9.563,6.375L173.243,73.1a1.766,1.766,0,0,0-2.119,0l-11.312,8.483V63.906A5.308,5.308,0,0,1,165.113,58.6Zm-33.579,79.529v-5.3h41.027a17.215,17.215,0,0,0,1.724,10.6h-37.45A5.308,5.308,0,0,1,131.535,138.132ZM193,101.227a15.906,15.906,0,0,1,3.928,10.467v31.741H178.377a13.693,13.693,0,0,1-1.919-11.869,13.259,13.259,0,0,1,1.7-3.635l.8-1.184a1.767,1.767,0,0,0-.218-2.235l-11.487-11.487a4.481,4.481,0,0,1,6.338-6.337l15.022,15.022,2.5-2.5-6.551-6.552V99.4l4.535-3.239Zm7.463-10.812h-8.837a1.767,1.767,0,0,0-1.027.329l-8.735,6.239.891-4.454a1.767,1.767,0,0,0-1.733-2.114H165.113a5.3,5.3,0,0,1-5.219-4.481l12.288-9.215,13.078,9.809a1.765,1.765,0,0,0,2.04.057l9.624-6.416L205.673,86a5.3,5.3,0,0,1-5.214,4.415Z" transform="translate(-87.258 -24.931)"/>
    <path id="Trazado_643655" data-name="Trazado 643655" d="M367.069,126.138A7.069,7.069,0,1,0,360,119.069,7.069,7.069,0,0,0,367.069,126.138Zm0-10.6a3.535,3.535,0,1,1-3.535,3.535A3.535,3.535,0,0,1,367.069,115.535Z" transform="translate(-268.006 -74.792)"/>
    <path id="Trazado_643656" data-name="Trazado 643656" d="M24.837,275.348H53.113a8.847,8.847,0,0,0,8.837-8.837v-10.6a8.847,8.847,0,0,0-8.837-8.837h-1.27L53.06,242.2a1.767,1.767,0,0,0-2.591-1.963l-11.964,6.836H24.837A8.847,8.847,0,0,0,16,255.908v10.6A8.847,8.847,0,0,0,24.837,275.348Zm-5.3-19.44a5.308,5.308,0,0,1,5.3-5.3H38.975a1.767,1.767,0,0,0,.876-.233l8.776-5.015-.763,3.051a1.767,1.767,0,0,0,1.714,2.2h3.535a5.308,5.308,0,0,1,5.3,5.3v10.6a5.308,5.308,0,0,1-5.3,5.3H24.837a5.308,5.308,0,0,1-5.3-5.3Z" transform="translate(0 -174.518)"/>
    <path id="Trazado_643657" data-name="Trazado 643657" d="M48,312H67.44v3.535H48Z" transform="translate(-24.931 -230.61)"/>
    <path id="Trazado_643658" data-name="Trazado 643658" d="M152,312h8.837v3.535H152Z" transform="translate(-105.956 -230.61)"/>
    <path id="Trazado_643659" data-name="Trazado 643659" d="M48,344H79.811v3.535H48Z" transform="translate(-24.931 -255.541)"/>
  </g>
</svg>
