<svg xmlns="http://www.w3.org/2000/svg" xmlns:xlink="http://www.w3.org/1999/xlink" width="610" height="495.274" viewBox="0 0 610 495.274">
  <defs>
    <clipPath id="clip-path">
      <rect id="Rectángulo_331131" data-name="Rectángulo 331131" width="499.94" height="495.19" fill="none"/>
    </clipPath>
    <clipPath id="clip-path-2">
      <rect id="Rectángulo_331116" data-name="Rectángulo 331116" width="499.94" height="495.191" fill="none"/>
    </clipPath>
    <clipPath id="clip-path-6">
      <rect id="Rectángulo_331119" data-name="Rectángulo 331119" width="21.296" height="21.297" fill="none"/>
    </clipPath>
    <clipPath id="clip-path-7">
      <rect id="Rectángulo_331120" data-name="Rectángulo 331120" width="21.296" height="21.295" fill="none"/>
    </clipPath>
  </defs>
  <g id="Grupo_1034507" data-name="Grupo 1034507" transform="translate(-180 -2049)">
    <g id="Grupo_883521" data-name="Grupo 883521" transform="translate(235.03 2049.084)">
      <g id="Grupo_883520" data-name="Grupo 883520" clip-path="url(#clip-path)">
        <g id="Grupo_883501" data-name="Grupo 883501" transform="translate(0 -0.001)">
          <g id="Grupo_883500" data-name="Grupo 883500" clip-path="url(#clip-path-2)">
            <path id="Trazado_642718" data-name="Trazado 642718" d="M239.086,258.289a31.925,31.925,0,0,1,7.522-3.952l1.032-7.813,12.981-1.189,2.434,7.493a31.916,31.916,0,0,1,8.117,2.52l6.251-4.792,10.02,8.338-3.575,7.016a31.9,31.9,0,0,1,3.952,7.525l7.812,1.031,1.19,12.981-7.494,2.436A31.979,31.979,0,0,1,286.812,298l4.792,6.251-8.338,10.022-7.018-3.576a31.89,31.89,0,0,1-7.523,3.952l-1.031,7.813-12.981,1.189-2.436-7.494a31.972,31.972,0,0,1-8.117-2.518l-6.251,4.792-10.02-8.338,3.576-7.018a31.871,31.871,0,0,1-3.953-7.523l-7.812-1.031-1.19-12.981L226,279.1a31.953,31.953,0,0,1,2.52-8.116l-4.792-6.251,8.337-10.022Zm8.21,16.8a13.984,13.984,0,1,0,19.694-1.806,13.982,13.982,0,0,0-19.694,1.806" transform="translate(29.373 32.98)" fill="#f5f5f5"/>
            <path id="Trazado_642719" data-name="Trazado 642719" d="M213.327,189.075a21.783,21.783,0,0,1,5.13-2.7l.7-5.327,8.853-.811,1.661,5.109a21.8,21.8,0,0,1,5.535,1.719l4.262-3.268,6.834,5.686-2.438,4.785a21.754,21.754,0,0,1,2.7,5.132l5.327.7.811,8.852-5.111,1.661a21.754,21.754,0,0,1-1.718,5.535l3.267,4.263-5.685,6.834-4.786-2.439a21.683,21.683,0,0,1-5.131,2.7l-.7,5.328-8.852.811-1.662-5.111a21.792,21.792,0,0,1-5.534-1.719l-4.263,3.268L205.69,224.4l2.438-4.785a21.811,21.811,0,0,1-2.7-5.131l-5.327-.7-.811-8.853,5.111-1.661a21.8,21.8,0,0,1,1.718-5.535l-3.267-4.262,5.686-6.834Zm5.6,11.459a9.536,9.536,0,1,0,13.43-1.231,9.536,9.536,0,0,0-13.43,1.231" transform="translate(26.79 24.23)" fill="#f5f5f5"/>
            <path id="Trazado_642720" data-name="Trazado 642720" d="M154.888,239.571a14.342,14.342,0,0,1,3.375-1.774l.463-3.5,5.823-.533,1.092,3.361a14.359,14.359,0,0,1,3.642,1.13l2.8-2.15,4.5,3.74-1.6,3.148a14.276,14.276,0,0,1,1.773,3.375l3.5.464.534,5.823-3.361,1.092a14.365,14.365,0,0,1-1.13,3.64l2.149,2.8-3.74,4.495-3.147-1.6a14.345,14.345,0,0,1-3.376,1.773l-.463,3.5-5.823.533-1.092-3.361a14.35,14.35,0,0,1-3.64-1.13l-2.8,2.15-4.495-3.741,1.6-3.147a14.338,14.338,0,0,1-1.773-3.375l-3.5-.463L145.658,250l3.361-1.092a14.365,14.365,0,0,1,1.13-3.64l-2.15-2.8,3.74-4.495Zm3.683,7.537a6.273,6.273,0,1,0,8.835-.81,6.274,6.274,0,0,0-8.835.81" transform="translate(19.58 31.424)" fill="#ebebeb"/>
            <path id="Trazado_642721" data-name="Trazado 642721" d="M414.237,244.028A167.918,167.918,0,0,1,116.776,350.906a167,167,0,0,1-37.891-93.781,169.456,169.456,0,0,1,4.271-53A167.838,167.838,0,0,1,226.881,77.2a169.962,169.962,0,0,1,53.024,2.258A167.939,167.939,0,0,1,412.278,218.206a169.054,169.054,0,0,1,1.959,25.822c0,2.737,4.258,2.742,4.254,0A172.091,172.091,0,1,0,280.809,412.744a171.2,171.2,0,0,0,49.158-18.19A172.9,172.9,0,0,0,400.5,320.721a171,171,0,0,0,15.948-50.2,176.873,176.873,0,0,0,2.04-26.491c0-2.737-4.251-2.742-4.254,0" transform="translate(9.965 9.659)" fill="#e0e0e0"/>
            <path id="Trazado_642722" data-name="Trazado 642722" d="M401.868,128.19l1.322,2.678a1.245,1.245,0,0,0,.938.681l2.955.43a1.245,1.245,0,0,1,.69,2.124l-2.138,2.085a1.243,1.243,0,0,0-.358,1.1l.5,2.944a1.245,1.245,0,0,1-1.806,1.313l-2.643-1.39a1.247,1.247,0,0,0-1.159,0l-2.643,1.39a1.245,1.245,0,0,1-1.807-1.313l.5-2.944a1.243,1.243,0,0,0-.358-1.1L393.73,134.1a1.245,1.245,0,0,1,.691-2.124l2.955-.43a1.245,1.245,0,0,0,.937-.681l1.322-2.678a1.245,1.245,0,0,1,2.234,0" transform="translate(52.876 17.14)" fill="#ebebeb"/>
            <path id="Trazado_642723" data-name="Trazado 642723" d="M419.45,128.19l1.322,2.678a1.245,1.245,0,0,0,.938.681l2.955.43a1.245,1.245,0,0,1,.69,2.124l-2.138,2.085a1.243,1.243,0,0,0-.358,1.1l.5,2.944a1.245,1.245,0,0,1-1.806,1.313l-2.644-1.39a1.245,1.245,0,0,0-1.158,0l-2.643,1.39a1.245,1.245,0,0,1-1.807-1.313l.5-2.944a1.243,1.243,0,0,0-.358-1.1l-2.138-2.085a1.245,1.245,0,0,1,.691-2.124l2.955-.43a1.245,1.245,0,0,0,.937-.681l1.322-2.678a1.245,1.245,0,0,1,2.234,0" transform="translate(55.24 17.14)" fill="#ebebeb"/>
            <path id="Trazado_642724" data-name="Trazado 642724" d="M384.285,128.19l1.322,2.678a1.245,1.245,0,0,0,.938.681l2.955.43a1.245,1.245,0,0,1,.69,2.124l-2.138,2.085a1.243,1.243,0,0,0-.358,1.1l.5,2.944a1.245,1.245,0,0,1-1.806,1.313l-2.644-1.39a1.245,1.245,0,0,0-1.158,0l-2.643,1.39a1.245,1.245,0,0,1-1.807-1.313l.5-2.944a1.243,1.243,0,0,0-.358-1.1l-2.138-2.085a1.245,1.245,0,0,1,.691-2.124l2.955-.43a1.245,1.245,0,0,0,.937-.681l1.322-2.678a1.245,1.245,0,0,1,2.234,0" transform="translate(50.513 17.14)" fill="#ebebeb"/>
            <path id="Trazado_642725" data-name="Trazado 642725" d="M428,154.058c0-.045.69-.018,1.974-.217a13.606,13.606,0,0,0,5.274-1.97,13.793,13.793,0,0,0,5.573-6.786,14.5,14.5,0,0,0,.909-5.465q-.012-3-.026-6.322a14,14,0,0,0-1.736-6.552,13.83,13.83,0,0,0-5.154-5.2,14.118,14.118,0,0,0-7.627-1.816l-8.565.012-38.137.024a13.723,13.723,0,0,0-8.977,3.387,13.443,13.443,0,0,0-4.484,8.178,32.2,32.2,0,0,0-.175,4.687c.01,1.561-.03,3.128.022,4.64a13.594,13.594,0,0,0,9.966,12.635,14.3,14.3,0,0,0,3.987.514l3.975.008,14.5.036,21,.094,5.708.056,1.485.028a3.209,3.209,0,0,1,.506.031,3.2,3.2,0,0,1-.506.031l-1.485.03-5.708.054-21,.094-14.5.036-3.975.008a14.916,14.916,0,0,1-4.126-.518,14.122,14.122,0,0,1-10.391-13.116c-.054-1.554-.017-3.09-.031-4.66a32.66,32.66,0,0,1,.176-4.775,14.015,14.015,0,0,1,4.668-8.532,14.3,14.3,0,0,1,9.365-3.537l38.137.023,8.565.012a14.613,14.613,0,0,1,7.871,1.911,14.1,14.1,0,0,1,7.064,12.176q-.009,3.325-.017,6.326a14.78,14.78,0,0,1-.976,5.584,13.957,13.957,0,0,1-5.762,6.862,13.324,13.324,0,0,1-5.377,1.893,9.667,9.667,0,0,1-1.485.1,3.216,3.216,0,0,1-.506,0" transform="translate(49.236 16.021)" fill="#ebebeb"/>
            <path id="Trazado_642726" data-name="Trazado 642726" d="M166.3,54.131l.556-7.191a27.5,27.5,0,1,1,7.15,6.78l.011.011Z" transform="translate(21.719 0.442)" fill="#fff"/>
            <path id="Trazado_642727" data-name="Trazado 642727" d="M166.324,54.156s.155,0,.483-.006l1.468-.051,5.771-.236a.106.106,0,0,0,.074-.177l-.01-.011-.137.16a27.358,27.358,0,0,0,12.516,4.442,28.279,28.279,0,0,0,8.766-.559,27.619,27.619,0,0,0,9.166-3.957,28.2,28.2,0,0,0,7.753-7.848,27.055,27.055,0,0,0,4.28-11.133,28.315,28.315,0,0,0-1.075-12.642,27.11,27.11,0,0,0-7.062-11.261,28.409,28.409,0,0,0-5.446-4.14c-1-.522-2-1.058-3.028-1.5l-1.567-.594-.78-.292-.8-.212a28.221,28.221,0,0,0-12.8-.582,26.993,26.993,0,0,0-11.033,4.815,28.249,28.249,0,0,0-7.519,8.192,27.717,27.717,0,0,0-3.519,9.41q-.15,1.178-.293,2.318c-.078.761-.058,1.516-.091,2.253a24.986,24.986,0,0,0,.29,4.245A27.338,27.338,0,0,0,166.8,47.025l-.019-.068-.355,5.374c-.035.585-.061,1.04-.082,1.373a3.894,3.894,0,0,0-.016.453s.025-.172.057-.489c.032-.337.075-.8.132-1.394.109-1.234.267-3.014.47-5.3a.105.105,0,0,0-.019-.069,27.405,27.405,0,0,1-4.908-12.159,24.7,24.7,0,0,1-.259-4.194c.036-.727.02-1.471.1-2.221q.148-1.123.3-2.284a27.427,27.427,0,0,1,3.509-9.254,27.9,27.9,0,0,1,7.425-8.035,26.57,26.57,0,0,1,10.849-4.7,27.766,27.766,0,0,1,12.566.588l.79.209.766.287,1.537.584c1.009.43,1.985.957,2.969,1.469a27.943,27.943,0,0,1,5.344,4.062A26.635,26.635,0,0,1,214.886,22.3a27.856,27.856,0,0,1,1.073,12.408,26.624,26.624,0,0,1-4.181,10.946,27.835,27.835,0,0,1-7.6,7.746,27.3,27.3,0,0,1-9.011,3.938,28.067,28.067,0,0,1-8.647.6,27.414,27.414,0,0,1-12.43-4.284.106.106,0,0,0-.147.029.109.109,0,0,0,.01.13l.01.011.074-.177-5.7.356-1.492.1c-.338.025-.521.047-.521.047" transform="translate(21.7 0.416)" fill="#e0e0e0"/>
            <path id="Trazado_642728" data-name="Trazado 642728" d="M192.783,27.9a3.5,3.5,0,1,0,3.5-3.5,3.5,3.5,0,0,0-3.5,3.5" transform="translate(25.915 3.282)" fill="#e0e0e0"/>
            <path id="Trazado_642729" data-name="Trazado 642729" d="M182.414,27.9a3.5,3.5,0,1,0,3.5-3.5,3.5,3.5,0,0,0-3.5,3.5" transform="translate(24.521 3.282)" fill="#e0e0e0"/>
            <path id="Trazado_642730" data-name="Trazado 642730" d="M172.044,27.9a3.5,3.5,0,1,0,3.5-3.5,3.5,3.5,0,0,0-3.5,3.5" transform="translate(23.127 3.282)" fill="#e0e0e0"/>
            <path id="Trazado_642731" data-name="Trazado 642731" d="M8.225,244.155a4.5,4.5,0,0,1,.917-2.545,4.324,4.324,0,0,1,2.111-1.6,3.494,3.494,0,0,1,4,1.42,3.517,3.517,0,0,1,.927-1.219,3.553,3.553,0,0,1,2.665-.793,4.327,4.327,0,0,1,2.377,1.166,4.5,4.5,0,0,1,1.384,2.323,5.476,5.476,0,0,1-.356,3.419,7.751,7.751,0,0,1-2.419,2.745c-1.636,1.213-3.8,2.743-3.8,2.743s-2.071-1.26-3.909-2.14a7.749,7.749,0,0,1-2.9-2.235,5.477,5.477,0,0,1-1-3.29" transform="translate(1.106 32.182)" fill="#ebebeb"/>
            <path id="Trazado_642732" data-name="Trazado 642732" d="M19.3,223.558a11,11,0,0,1,2.242-6.223,10.584,10.584,0,0,1,5.166-3.907,8.54,8.54,0,0,1,9.779,3.476,8.533,8.533,0,0,1,8.786-4.923,10.571,10.571,0,0,1,5.815,2.852,11.009,11.009,0,0,1,3.385,5.683,13.4,13.4,0,0,1-.87,8.365,18.985,18.985,0,0,1-5.918,6.717c-4,2.967-9.289,6.709-9.289,6.709s-5.067-3.082-9.562-5.234a18.936,18.936,0,0,1-7.087-5.467,13.393,13.393,0,0,1-2.447-8.048" transform="translate(2.594 28.489)" fill="#ebebeb"/>
            <path id="Trazado_642733" data-name="Trazado 642733" d="M438.965,304.624A32.825,32.825,0,1,1,406.141,271.8a32.825,32.825,0,0,1,32.825,32.825" transform="translate(50.183 36.538)" fill="#e0e0e0"/>
            <path id="Trazado_642734" data-name="Trazado 642734" d="M438.965,301.429A32.825,32.825,0,1,1,406.141,268.6a32.825,32.825,0,0,1,32.825,32.825" transform="translate(50.183 36.108)" fill="#f5f5f5"/>
            <path id="Trazado_642735" data-name="Trazado 642735" d="M426.843,300.144a21.986,21.986,0,1,1-21.986-21.986,21.986,21.986,0,0,1,21.986,21.986" transform="translate(51.467 37.392)" fill="#fff"/>
            <path id="Trazado_642736" data-name="Trazado 642736" d="M414.286,298.814a10.759,10.759,0,1,1-10.759-10.759,10.759,10.759,0,0,1,10.759,10.759" transform="translate(52.798 38.723)" fill="#ebebeb"/>
            <path id="Trazado_642737" data-name="Trazado 642737" d="M422.524,278.09l-.892-7,7.128-7.629.514,7.558Z" transform="translate(56.678 35.416)" fill="#ebebeb"/>
            <path id="Trazado_642738" data-name="Trazado 642738" d="M437.622,271.513l-7.232-.589-7.249,6.973,7.251.775Z" transform="translate(56.881 36.42)" fill="#ebebeb"/>
            <path id="Trazado_642739" data-name="Trazado 642739" d="M432.245,269.232l-10.219,10.221q-8.1,8.107-16.211,16.214L402.09,299.4a1.3,1.3,0,0,0,1.845,1.821L414.153,291q8.1-8.108,16.211-16.214l3.725-3.728c1.182-1.181-.663-3-1.845-1.822" transform="translate(54 36.141)" fill="#e0e0e0"/>
            <path id="Trazado_642740" data-name="Trazado 642740" d="M425.924,44.452h-3.841L413.7,32.771V25.1s-5.938-.365-5.239,9.674-.057,7.485-.057,7.485-12.608.049-13.655,1.145c-.762.8-1.107,13.318-1.239,20.111a7.352,7.352,0,0,0,5.211,7.406,5.484,5.484,0,0,0,1.356.184c3.145,0,19.212-2.557,19.212-2.557h6.635Z" transform="translate(52.897 3.375)" fill="#f5f5f5"/>
            <path id="Trazado_642741" data-name="Trazado 642741" d="M432.836,40.3l-2.363,26.273h-6.579V40.833Z" transform="translate(56.982 5.419)" fill="#f5f5f5"/>
            <path id="Trazado_642742" data-name="Trazado 642742" d="M381.369,28.815l1.573-1.605,8.315,1.284,3.2,3.141s2.585-2.331-1.9-6.153-3.1-3.089-3.1-3.089,5.145-5.288,5.116-6.174c-.02-.644-5.112-5.919-7.9-8.757a4.3,4.3,0,0,0-5.23-.856,3.215,3.215,0,0,0-.632.491c-1.288,1.314-6.8,9.074-6.8,9.074L371.3,18.943Z" transform="translate(49.912 0.816)" fill="#f5f5f5"/>
            <path id="Trazado_642743" data-name="Trazado 642743" d="M378.166,32.647,368.157,20.9l2.694-2.748,10.757,10.546Z" transform="translate(49.489 2.441)" fill="#f5f5f5"/>
          </g>
        </g>
        <g id="Grupo_883503" data-name="Grupo 883503" transform="translate(0 -0.001)">
          <g id="Grupo_883502" data-name="Grupo 883502" clip-path="url(#clip-path-2)">
            <path id="Trazado_642744" data-name="Trazado 642744" d="M329.77,214.871c-4.2,3.749-4.617,7.113-4.624,8.9,0,.522.151,1.171.661,1.284a1.255,1.255,0,0,0,.734-.142l14.676-6.086" transform="translate(43.708 28.885)" fill="#263238"/>
            <path id="Trazado_642745" data-name="Trazado 642745" d="M371.453,269.028c2.8-6.439,5.585-12.93,7.239-19.756s2.141-14.06.338-20.847c-.272-1.029-2.776-8-3.841-7.994-.761,0,.577,6.4.133,7.023-4.241,5.894-5.956,13.31-6.07,20.572a95.127,95.127,0,0,0,2.2,21" transform="translate(49.635 29.632)" fill="#263238"/>
            <path id="Trazado_642746" data-name="Trazado 642746" d="M374.589,308.4l6.8-64.4c2.262-17.468-6.017-33.343-23.539-35.121l-1.629-.07a31.487,31.487,0,0,0-32.6,27.58c-1.876,15.15-3.756,31.915-4,40.075C319.1,293.349,335.88,296.7,335.88,296.7c.037,0-1.394,17.132-1.82,22.074l25.483.725,6.11-.053Z" transform="translate(42.963 28.065)" fill="#ffc09d"/>
            <path id="Trazado_642747" data-name="Trazado 642747" d="M333.994,286.937a40.824,40.824,0,0,0,22.263-5.556s-5.833,12.466-22.616,10.226Z" transform="translate(44.85 37.826)" fill="#ff9b6c"/>
            <path id="Trazado_642748" data-name="Trazado 642748" d="M327.731,247.062a2.414,2.414,0,0,0,2.221,2.532,2.307,2.307,0,0,0,2.577-2.068,2.413,2.413,0,0,0-2.218-2.533,2.311,2.311,0,0,0-2.581,2.069" transform="translate(44.054 32.933)" fill="#263238"/>
            <path id="Trazado_642749" data-name="Trazado 642749" d="M326.036,240.1c.286.327,2.17-.947,4.765-.828,2.593.079,4.44,1.5,4.735,1.191.144-.135-.136-.716-.939-1.356a6.626,6.626,0,0,0-3.774-1.342,6.357,6.357,0,0,0-3.809,1.053c-.824.577-1.118,1.134-.977,1.282" transform="translate(43.823 31.962)" fill="#263238"/>
            <path id="Trazado_642750" data-name="Trazado 642750" d="M347.008,248.257a2.413,2.413,0,0,0,2.221,2.532,2.307,2.307,0,0,0,2.579-2.067,2.416,2.416,0,0,0-2.219-2.534,2.311,2.311,0,0,0-2.581,2.069" transform="translate(46.645 33.093)" fill="#263238"/>
            <path id="Trazado_642751" data-name="Trazado 642751" d="M348.434,241.586c.286.327,2.172-.946,4.766-.828,2.592.081,4.44,1.5,4.735,1.191.144-.135-.133-.715-.94-1.355a6.622,6.622,0,0,0-3.773-1.343,6.381,6.381,0,0,0-3.809,1.052c-.822.579-1.119,1.137-.978,1.283" transform="translate(46.834 32.162)" fill="#263238"/>
            <path id="Trazado_642752" data-name="Trazado 642752" d="M340.246,261.089c.018-.147-1.583-.495-4.181-.94-.66-.1-1.282-.255-1.374-.712a3.384,3.384,0,0,1,.526-1.945q1.038-2.365,2.176-4.961c3.029-7.067,5.251-12.888,4.965-13.008s-2.972,5.511-6,12.578c-.731,1.744-1.429,3.4-2.094,4.995a3.838,3.838,0,0,0-.455,2.585,1.667,1.667,0,0,0,1.048,1.015,4.531,4.531,0,0,0,1.119.205c2.624.254,4.254.336,4.271.188" transform="translate(44.859 32.198)" fill="#263238"/>
            <path id="Trazado_642753" data-name="Trazado 642753" d="M348,234.417c.324.677,2.871.088,5.94.154,3.07,0,5.6.649,5.942-.02.15-.319-.341-.938-1.4-1.52a10.328,10.328,0,0,0-9.053-.1c-1.069.558-1.575,1.166-1.432,1.488" transform="translate(46.776 31.179)" fill="#263238"/>
            <path id="Trazado_642754" data-name="Trazado 642754" d="M325.692,233.885c.5.619,2.651.13,5.192.248,2.542.043,4.665.667,5.195.079.234-.287-.069-.9-.977-1.508a8.174,8.174,0,0,0-4.162-1.208,8.06,8.06,0,0,0-4.208.944c-.931.554-1.261,1.144-1.04,1.444" transform="translate(43.772 31.12)" fill="#263238"/>
            <path id="Trazado_642755" data-name="Trazado 642755" d="M372.546,250.832c.293-.112,11.748-2.934,10.885,8.594s-12.259,8.281-12.254,7.95,1.369-16.544,1.369-16.544" transform="translate(49.895 33.668)" fill="#ffc09d"/>
            <path id="Trazado_642756" data-name="Trazado 642756" d="M374.572,262.816c.053-.033.191.155.518.336a2.011,2.011,0,0,0,1.5.144c1.251-.356,2.421-2.213,2.633-4.287a6.652,6.652,0,0,0-.347-2.917,2.328,2.328,0,0,0-1.4-1.654,1.025,1.025,0,0,0-1.226.462c-.178.311-.122.546-.185.562-.035.026-.234-.212-.1-.682a1.28,1.28,0,0,1,.507-.687,1.52,1.52,0,0,1,1.132-.211,2.833,2.833,0,0,1,1.965,1.944,6.835,6.835,0,0,1,.455,3.265c-.247,2.318-1.6,4.4-3.3,4.759a2.153,2.153,0,0,1-1.814-.442c-.336-.312-.378-.573-.336-.591" transform="translate(50.35 34.125)" fill="#ff9b6c"/>
            <path id="Trazado_642757" data-name="Trazado 642757" d="M331.164,218.145c-1.778-1.184,4.322-6.754,9.078-8.449,7.188-2.562,17.923-3.611,24.156-1.266,7.5,2.824,13.57,7.183,16.843,14.5s4.041,15.592,3.148,23.56c-.272,2.431-.737,4.951-2.212,6.9-1.822,2.412-4.228,3.478-5.2,7.282-.32,1.249-.533,2.554-1.491,3.417-2.3,2.066-4.7-.256-5.706-2.469C367.624,256.9,367.793,251.49,368,246.3c.15-3.688.315-7.453,1.646-10.9.725-1.873,1.782-3.611,2.4-5.521a6.946,6.946,0,0,0-.335-5.82,7.275,7.275,0,0,0-.856-1.026,12.056,12.056,0,0,0-11.729-3.266c-6.678,1.752-18.044,4.252-20.753,1.808-3.9-3.516-4.719-5.664-4.719-5.664Z" transform="translate(44.474 27.844)" fill="#263238"/>
            <path id="Trazado_642758" data-name="Trazado 642758" d="M386.652,257.611c.234-.179.564-.192.786-.371,14.687-11.813,4.921-25.177,5.066-29.032.2-5.342,6.178-5.218,4.659-11.526-1.024-4.25-4.974-7.483-16.826-12.492-4.964-2.1-17.441-3.655-28.611-2.27-9.968,1.237-17.082,7.649-21.233,12.689,0,0-2.379.92-3.012,1.892-1.984,3.048-1.315,4.423-1.315,4.423s22.583-9.44,39.487,6.855,12.568,28.763,17.341,29.32Z" transform="translate(43.83 27.073)" fill="#3d672f"/>
            <path id="Trazado_642759" data-name="Trazado 642759" d="M383.592,222.17a32.574,32.574,0,0,1,2.1,3.614c.282.524.484,1.024.682,1.454s.354.808.473,1.12a6.085,6.085,0,0,0,.415.953,6.165,6.165,0,0,0-.293-1c-.1-.32-.235-.708-.422-1.146s-.371-.951-.642-1.486A29.53,29.53,0,0,0,383.85,222a30.555,30.555,0,0,0-7.005-7.537,29.649,29.649,0,0,0-3.521-2.316c-.514-.31-1.01-.534-1.435-.749s-.8-.38-1.113-.5a6.033,6.033,0,0,0-.974-.365,6.255,6.255,0,0,0,.921.483c.3.142.668.32,1.081.554s.9.466,1.4.786a32.671,32.671,0,0,1,3.451,2.355,35.332,35.332,0,0,1,3.765,3.455" transform="translate(49.71 28.301)" fill="#263238"/>
            <path id="Trazado_642760" data-name="Trazado 642760" d="M329.429,213.615a.96.96,0,0,0,.209-.054l.6-.191c.524-.179,1.3-.413,2.311-.711,1.012-.275,2.252-.61,3.715-.891a38.669,38.669,0,0,1,5.007-.684,39.5,39.5,0,0,1,13.032,1.237,40.635,40.635,0,0,1,14.364,7.028,39.144,39.144,0,0,1,6.018,5.741,41.047,41.047,0,0,1,4.371,6.4,56.818,56.818,0,0,1,4.867,12.2c1,3.617,1.579,6.6,1.969,8.666.183,1.016.327,1.815.428,2.38.048.258.086.462.116.618a.108.108,0,1,0,.033,0c-.02-.159-.048-.364-.082-.624-.074-.549-.192-1.357-.366-2.393-.351-2.071-.894-5.071-1.869-8.706a55.986,55.986,0,0,0-4.824-12.289,41.031,41.031,0,0,0-4.39-6.463,39.188,39.188,0,0,0-6.066-5.8,40.574,40.574,0,0,0-14.49-7.06,39.256,39.256,0,0,0-13.129-1.175,38.056,38.056,0,0,0-5.027.737c-1.466.3-2.706.655-3.715.948-1,.319-1.779.573-2.295.774l-.59.222a1.079,1.079,0,0,0-.2.086" transform="translate(44.283 28.327)" fill="#263238"/>
            <path id="Trazado_642761" data-name="Trazado 642761" d="M337.937,217.4a7.683,7.683,0,0,1,2.322-6.372,2.264,2.264,0,0,0-.851.631,6.1,6.1,0,0,0-1.716,4.71,2.247,2.247,0,0,0,.245,1.031" transform="translate(45.391 28.368)" fill="#263238"/>
            <path id="Trazado_642762" data-name="Trazado 642762" d="M329.414,218.591a21.549,21.549,0,0,1-.068-2.732,21.623,21.623,0,0,1,.606-2.665,5.784,5.784,0,0,0-.538,5.4" transform="translate(44.223 28.659)" fill="#263238"/>
            <path id="Trazado_642763" data-name="Trazado 642763" d="M324.161,207.782c2.787-3.005,7.663-3.53,11.343-1.725a13.888,13.888,0,0,1,7.028,9.584,6.025,6.025,0,0,1,7.3,2.832l4.854,1.374a20.28,20.28,0,0,1-2.918,5.575,6.849,6.849,0,0,1-5.444,2.724c-2.1-.121-4.133-1.921-4.027-4.024-1.528,3.374-5.565,4.9-9.267,5.013-2.894.09-5.989-.574-8.008-2.648s-2.446-5.813-.327-7.784c-3.24-2.509-3.32-7.913-.534-10.919" transform="translate(43.307 27.56)" fill="#263238"/>
            <path id="Trazado_642764" data-name="Trazado 642764" d="M337.477,263.407l.456-.285,6.777-.219a2.053,2.053,0,0,1,1.075.161,1.7,1.7,0,0,1,.7,1.086,4.8,4.8,0,1,1-9.01-.743" transform="translate(45.31 35.341)" fill="#ff9b6c"/>
            <path id="Trazado_642765" data-name="Trazado 642765" d="M242.188,355.724l7.7,3.521L242.1,375.129l-6.143-6.963Z" transform="translate(31.718 47.819)" fill="#ffc09d"/>
            <path id="Trazado_642766" data-name="Trazado 642766" d="M247.137,355.314c-.163-.284-7.256-11.547-11.266-15.768s-4.117-8.835-6.967-9.221-3.377,3.627-2.006,7.742,5.066,6.227,4.011,7.705-23.9-2.378-23.9-2.378-2.956-3.019-5.277-.486c0,0-3.683-.877-3.4,1.984.3,3.062,6.99,3.188,6.99,3.188l3.315,5.925,7.71,2.849a10.582,10.582,0,0,0,2.768,5.488,21.33,21.33,0,0,0,4.3,3.53c.316.058,7.176,4.28,10.66,5.124s8.127,1.584,8.127,1.584l6.332-12.666a8.924,8.924,0,0,0-1.4-4.6" transform="translate(26.658 44.402)" fill="#ffc09d"/>
            <path id="Trazado_642767" data-name="Trazado 642767" d="M214.39,356.318a12.949,12.949,0,0,1-.866-5.278c.276-2.42,2.558-13.139,3.6-13.346s2.836-.829,3.319,2.075-1.175,9.772-1.175,9.934a15.139,15.139,0,0,1,1.264,4.657" transform="translate(28.697 45.368)" fill="#ffc09d"/>
            <path id="Trazado_642768" data-name="Trazado 642768" d="M220.553,354.4c-.054.006-.1-.54-.343-1.486a14.9,14.9,0,0,0-.535-1.688c-.124-.322-.267-.661-.43-1.022l-.125-.285a.656.656,0,0,1-.008-.42c.04-.208.081-.418.123-.634a61.166,61.166,0,0,0,.926-6.077,10.207,10.207,0,0,0-.145-3.509,1.914,1.914,0,0,0-.925-1.3,2.911,2.911,0,0,0-1.755.049c-.121-.054-.27.259-.408.531s-.248.583-.355.886c-.216.606-.4,1.218-.574,1.823-.347,1.209-.643,2.391-.914,3.518-.533,2.256-.981,4.309-1.267,6.027a10.922,10.922,0,0,0,.256,4.058,13.68,13.68,0,0,1,.343,1.49,4.626,4.626,0,0,1-.588-1.423,10.132,10.132,0,0,1-.469-4.188c.234-1.761.634-3.82,1.138-6.1.258-1.139.542-2.33.885-3.558.172-.614.357-1.238.577-1.866.11-.314.23-.63.378-.947a3.237,3.237,0,0,1,.268-.483,1.316,1.316,0,0,1,.227-.26.868.868,0,0,1,.25-.123l.12-.025a3.444,3.444,0,0,1,2.151,0,2.521,2.521,0,0,1,1.277,1.714,10.54,10.54,0,0,1,.129,3.745,51.983,51.983,0,0,1-1.073,6.117c-.049.213-.1.422-.144.626-.022.142-.052.125-.022.184l.107.271c.15.368.281.726.391,1.061a12.3,12.3,0,0,1,.44,1.76,4.358,4.358,0,0,1,.094,1.537" transform="translate(28.673 45.33)" fill="#ff9b6c"/>
            <path id="Trazado_642769" data-name="Trazado 642769" d="M238.06,357.8a26.514,26.514,0,0,0-3.507-.892,9.667,9.667,0,0,0-3.986.363,10.171,10.171,0,0,0-4.3,2.665l-.546.567.011-.773c.029-2.041.062-4.261.1-6.582v-.007l0-.026c.018-.226.039-.469.059-.712a10.518,10.518,0,0,0-.356-3.93,2.129,2.129,0,0,0-2.644-1.432,1.453,1.453,0,0,0-.617.4,1.508,1.508,0,0,0-.263.684c-.124.548-.214,1.1-.305,1.634-.161,1.058-.313,2.052-.455,2.976-.253,1.722-.466,3.17-.636,4.32a6.384,6.384,0,0,1-.329,1.573,9.484,9.484,0,0,1,.077-1.6c.084-1.029.225-2.515.431-4.349.1-.918.225-1.922.378-3,.079-.54.159-1.095.279-1.676.026-.143.073-.3.11-.449a1.482,1.482,0,0,1,.261-.486,2.038,2.038,0,0,1,.867-.591,2.6,2.6,0,0,1,2.062.151,2.947,2.947,0,0,1,1.383,1.62,10.91,10.91,0,0,1,.411,4.2c-.023.258-.044.513-.064.751l0-.033c-.049,2.32-.1,4.539-.14,6.581l-.534-.206a10.436,10.436,0,0,1,4.61-2.756,9.662,9.662,0,0,1,4.184-.242,8.146,8.146,0,0,1,1.521.375,5.921,5.921,0,0,1,1.082.42,3.526,3.526,0,0,1,.852.466" transform="translate(29.61 46.557)" fill="#ff9b6c"/>
            <path id="Trazado_642770" data-name="Trazado 642770" d="M215.157,348.67a29.521,29.521,0,0,1-4.546-1.577l-.077-.031-.057-.092a18.652,18.652,0,0,0-1.926-2.455,25.313,25.313,0,0,0-2.577-2.557,4.554,4.554,0,0,0-2.368-1.072,2.448,2.448,0,0,0-2,.853l0-.332c1.047,1.558,1.912,2.874,2.5,3.809a6.569,6.569,0,0,1,.852,1.527,6.556,6.556,0,0,1-1.133-1.332c-.67-.879-1.6-2.149-2.693-3.674l-.123-.171.125-.162a3,3,0,0,1,2.506-1.15,5.062,5.062,0,0,1,2.735,1.19,22.853,22.853,0,0,1,2.641,2.662,16.719,16.719,0,0,1,1.929,2.622l-.134-.122a29.478,29.478,0,0,1,4.346,2.065" transform="translate(27.021 45.739)" fill="#ff9b6c"/>
            <path id="Trazado_642771" data-name="Trazado 642771" d="M306.074,339.841l-1.921.294-5.567,1.1-9.842,34.228-39-14.08L237,371.3s60.836,40.531,69.788,33.551,16-44.5,16-44.5c.1.244-16.717-20.506-16.717-20.506" transform="translate(31.859 45.684)" fill="#ffc09d"/>
            <path id="Trazado_642772" data-name="Trazado 642772" d="M288.806,340.679c5-16.189,7.8-27.623,12.854-32.4,6.811-6.448,38.971-15.758,38.971-15.758s.893,8.8,16.34,9.415,23.054-13.562,23.054-13.562,16.632,4.208,27.844,7.426c11.047,3.171,18.11,6.818,22.777,14.121,6.033,9.443,15.5,53.014,15.5,53.014l-38.457,11.892,2.32,35.3,1.52,45.543-109.713.437c0-8,7.146-86.156,7.146-86.156l-27.072-6.4s2.487-8.523,6.92-22.867" transform="translate(37.892 38.765)" fill="#617a0b"/>
            <path id="Trazado_642773" data-name="Trazado 642773" d="M308.12,320.926a2.221,2.221,0,0,0-.082.452c-.042.336-.1.768-.165,1.3-.138,1.133-.3,2.776-.484,4.809-.36,4.066-.715,9.695-.914,15.918s-.239,11.863-.233,15.943c.016,2.007.028,3.646.037,4.832.012.54.024.976.032,1.314a2.215,2.215,0,0,0,.035.457,2.2,2.2,0,0,0,.037-.457c.009-.338.022-.774.036-1.314.019-1.184.045-2.824.077-4.83.058-4.078.137-9.713.338-15.933s.514-11.842.809-15.909c.153-2,.279-3.635.369-4.816.04-.539.073-.973.1-1.31a2.181,2.181,0,0,0,.009-.459" transform="translate(41.166 43.142)" fill="#263238"/>
            <path id="Trazado_642774" data-name="Trazado 642774" d="M351.138,415.159,399.2,389.206l-.821-23.537,30.337-9.221s2.785,35.3-1.665,50.617-72.686,23.242-72.686,23.242Z" transform="translate(47.202 47.917)" fill="#ffc09d"/>
            <path id="Trazado_642775" data-name="Trazado 642775" d="M346.163,402.439l-4.665-2.786a4.245,4.245,0,0,0-2.515,0l-11.334,3.537a7.431,7.431,0,0,0-4.395,4.677l-2.183,8.234s-1.443,5.62-.759,6.7a2.171,2.171,0,0,0,2.805.742s1.02,2.126,1.9,2.371a3.636,3.636,0,0,0,2.826-.6,2.448,2.448,0,0,0,2.631.734,2.856,2.856,0,0,0,.563-.275c1.243-.79,1.121-3.588,1.121-3.588l5.5-2.69s9.876,3.242,13.826,6.069,10.858-2.1,10.858-2.1l-.96-14.548Z" transform="translate(43.033 53.699)" fill="#ffc09d"/>
            <path id="Trazado_642776" data-name="Trazado 642776" d="M403.64,394.644c-.18.109-1.523-2.821-4.361-5.429s-5.874-3.7-5.778-3.889a5.747,5.747,0,0,1,1.975.667,16.1,16.1,0,0,1,7.335,6.737,5.79,5.79,0,0,1,.828,1.914" transform="translate(52.896 51.797)" fill="#ff9b6c"/>
            <path id="Trazado_642777" data-name="Trazado 642777" d="M431.714,356.9a3.88,3.88,0,0,1-.729.289l-2.127.721L421,360.463l-25.985,8.193-2.341.729-.357.111-.024-.375c-.326-5.014-.961-9.754-1.437-14.054-.5-4.3-.9-8.163-1.164-11.405s-.4-5.863-.455-7.671c-.027-.9-.028-1.605-.03-2.081a3.56,3.56,0,0,1,.03-.724,3.363,3.363,0,0,1,.085.72c.035.532.081,1.22.136,2.074.126,1.8.318,4.413.636,7.644s.763,7.084,1.29,11.379c.509,4.3,1.164,9.032,1.5,14.084l-.381-.264,2.34-.731,26.037-8.027,7.911-2.369,2.161-.616a3.967,3.967,0,0,1,.765-.176" transform="translate(52.319 44.79)" fill="#263238"/>
            <path id="Trazado_642778" data-name="Trazado 642778" d="M338.783,269.83a7.319,7.319,0,0,0,3.109.37,5.031,5.031,0,0,0,2.936-1.471,5.242,5.242,0,0,0,1.453-3.694,2.385,2.385,0,0,0-.608-1.8c-.433-.334-1.164-.168-1.817-.12l-3.5.311a17.662,17.662,0,0,1-3.24.138,17.581,17.581,0,0,1,3.2-.554l3.485-.437c.33-.035.656-.088,1.031-.105a1.837,1.837,0,0,1,1.188.3,2.856,2.856,0,0,1,.854,2.254,5.662,5.662,0,0,1-1.655,4.087,5.288,5.288,0,0,1-3.275,1.5,5.182,5.182,0,0,1-2.4-.335c-.531-.219-.778-.422-.761-.45" transform="translate(45.317 35.283)" fill="#263238"/>
            <path id="Trazado_642779" data-name="Trazado 642779" d="M338.418,411.821c.008.1-1.062.153-2.682.643a13.34,13.34,0,0,0-8.981,8.866c-.513,1.613-.577,2.682-.678,2.673a6.6,6.6,0,0,1,.277-2.788,12.616,12.616,0,0,1,9.273-9.153,6.605,6.605,0,0,1,2.792-.24" transform="translate(43.826 55.352)" fill="#ff9b6c"/>
            <path id="Trazado_642780" data-name="Trazado 642780" d="M335.338,406.054a12.074,12.074,0,0,0-3.194.762,10.078,10.078,0,0,0-2.923,1.969,13.837,13.837,0,0,0-2.567,3.5,49.207,49.207,0,0,0-2.837,7.5,13.469,13.469,0,0,1-1.263,3.112,31.09,31.09,0,0,1,.863-3.234A38.258,38.258,0,0,1,326.132,412a13.487,13.487,0,0,1,2.716-3.614,9.77,9.77,0,0,1,3.14-1.96,7.309,7.309,0,0,1,2.444-.482,2.092,2.092,0,0,1,.906.108" transform="translate(43.358 54.57)" fill="#ff9b6c"/>
            <path id="Trazado_642781" data-name="Trazado 642781" d="M250.863,443.341l-28.485-74.81a4.3,4.3,0,0,1,4.02-5.832H317.87a4.3,4.3,0,0,1,3.9,2.478l26.978,74.339,57.437.556c2.375,0,4.741,0,4.741,2.38s-1.925,3.66-4.3,3.66H254.883a4.3,4.3,0,0,1-4.019-2.77" transform="translate(29.855 48.757)" fill="#455a64"/>
            <path id="Trazado_642782" data-name="Trazado 642782" d="M283.008,400.174a6,6,0,1,1-6-6,6,6,0,0,1,6,6" transform="translate(36.43 52.988)" fill="#fff"/>
            <path id="Trazado_642783" data-name="Trazado 642783" d="M432.681,436.287c0,.163-44.534.295-99.456.295-54.94,0-99.464-.132-99.464-.295s44.524-.295,99.464-.295c54.922,0,99.456.132,99.456.295" transform="translate(31.423 58.609)" fill="#263238"/>
          </g>
        </g>
        <g id="Grupo_883505" data-name="Grupo 883505" transform="translate(0 -0.001)">
          <g id="Grupo_883504" data-name="Grupo 883504" clip-path="url(#clip-path-2)">
            <path id="Trazado_642784" data-name="Trazado 642784" d="M228.549,94.619a90.109,90.109,0,1,0,99.389-79.757,90.109,90.109,0,0,0-99.389,79.757" transform="translate(30.65 1.926)" fill="#f5f5f5"/>
            <path id="Trazado_642785" data-name="Trazado 642785" d="M280.872,14.552a5.051,5.051,0,0,0-2.534,4.723,4.226,4.226,0,0,0-4.859.606,5.119,5.119,0,0,0-1.41,4.807,6.525,6.525,0,0,0,3.064,4.078,2.764,2.764,0,0,0-2.222,2.086,4.856,4.856,0,0,0,.385,3.157,8.164,8.164,0,0,0,8.846,4.569l6.523-22.743Z" transform="translate(36.556 1.957)" fill="#263238"/>
            <path id="Trazado_642786" data-name="Trazado 642786" d="M296.258,104.02l.177-7.925S280.2,94.486,279.112,78.408c-.528-7.766-.312-23.844.052-38.393A30.025,30.025,0,0,1,307.52,10.787l1.553-.086c16.794.049,26.134,14.339,25.621,31.125l-2.2,67.434-28.774,10.706Z" transform="translate(37.477 1.44)" fill="#ae7461"/>
            <path id="Trazado_642787" data-name="Trazado 642787" d="M294.345,86.643a44.221,44.221,0,0,0,20.734-5.623s-.6,11.375-20.4,10.813Z" transform="translate(39.567 10.892)" fill="#6f4439"/>
            <path id="Trazado_642788" data-name="Trazado 642788" d="M284.819,51.541a2.3,2.3,0,0,0,2.344,2.2,2.2,2.2,0,0,0,2.254-2.2,2.3,2.3,0,0,0-2.341-2.2,2.2,2.2,0,0,0-2.256,2.2" transform="translate(38.287 6.633)" fill="#263238"/>
            <path id="Trazado_642789" data-name="Trazado 642789" d="M282.56,43.628c.3.284,1.97-1.1,4.444-1.232,2.469-.166,4.354,1.005,4.6.689.125-.142-.2-.667-1.018-1.2a6.312,6.312,0,0,0-3.707-.921,6.064,6.064,0,0,0-3.516,1.354c-.728.625-.955,1.182-.808,1.308" transform="translate(37.977 5.506)" fill="#263238"/>
            <path id="Trazado_642790" data-name="Trazado 642790" d="M303.965,50.806a2.3,2.3,0,0,0,2.344,2.2,2.2,2.2,0,0,0,2.254-2.2,2.3,2.3,0,0,0-2.343-2.2,2.2,2.2,0,0,0-2.255,2.2" transform="translate(40.86 6.534)" fill="#263238"/>
            <path id="Trazado_642791" data-name="Trazado 642791" d="M304.006,42.846c.3.284,1.467-1.274,3.938-1.406,2.467-.166,4.86,1.18,5.112.862.124-.142-.193-.666-1.019-1.2a6.311,6.311,0,0,0-3.706-.921,6.071,6.071,0,0,0-3.517,1.355c-.726.625-.954,1.182-.808,1.308" transform="translate(40.86 5.401)" fill="#263238"/>
            <path id="Trazado_642792" data-name="Trazado 642792" d="M297.747,61.581c0-.142-1.548-.322-4.056-.5-.635-.029-1.24-.121-1.37-.548a3.232,3.232,0,0,1,.318-1.894q.764-2.34,1.6-4.911c2.213-6.989,3.778-12.721,3.5-12.808s-2.305,5.508-4.517,12.5q-.8,2.583-1.521,4.936a3.665,3.665,0,0,0-.189,2.5,1.585,1.585,0,0,0,1.089.866,4.285,4.285,0,0,0,1.081.09c2.514,0,4.069-.079,4.07-.22" transform="translate(39.164 5.501)" fill="#263238"/>
            <path id="Trazado_642793" data-name="Trazado 642793" d="M302.6,36.556c.34.631,2.74-.048,5.664-.127,2.923-.14,5.366.358,5.658-.295.128-.312-.369-.878-1.4-1.384a9.853,9.853,0,0,0-8.626.322c-.992.581-1.445,1.183-1.294,1.484" transform="translate(40.673 4.559)" fill="#263238"/>
            <path id="Trazado_642794" data-name="Trazado 642794" d="M282.148,38.421c.547.5,2.361-.3,4.623-.6,2.252-.368,4.227-.121,4.6-.758.159-.307-.209-.832-1.109-1.26a7.384,7.384,0,0,0-7.43,1.094c-.732.668-.926,1.275-.682,1.522" transform="translate(37.914 4.74)" fill="#263238"/>
            <path id="Trazado_642795" data-name="Trazado 642795" d="M326.556,52.6a4.373,4.373,0,0,1,4.482-4.47c3.016.118,6.45,1.637,6.6,7.848.259,11.02-10.859,9.007-10.885,8.692-.018-.216-.126-7.458-.194-12.07" transform="translate(43.897 6.47)" fill="#ae7461"/>
            <path id="Trazado_642796" data-name="Trazado 642796" d="M328.756,60.043c.048-.036.2.13.523.271a1.919,1.919,0,0,0,1.436,0c1.154-.455,2.091-2.326,2.1-4.313a6.34,6.34,0,0,0-.6-2.736,2.215,2.215,0,0,0-1.478-1.438.978.978,0,0,0-1.121.552c-.141.312-.066.53-.124.55-.03.028-.241-.179-.162-.636a1.222,1.222,0,0,1,.418-.7,1.443,1.443,0,0,1,1.055-.306,2.7,2.7,0,0,1,2.045,1.662A6.512,6.512,0,0,1,333.581,56c-.018,2.222-1.106,4.327-2.689,4.825a2.054,2.054,0,0,1-1.762-.251c-.348-.264-.412-.509-.374-.53" transform="translate(44.192 6.894)" fill="#6f4439"/>
            <path id="Trazado_642797" data-name="Trazado 642797" d="M293.331,27.436c-.027,0-.051.011-.077.014-.066.009-.133.012-.2.024Z" transform="translate(39.394 3.689)" fill="#ff725e"/>
            <path id="Trazado_642798" data-name="Trazado 642798" d="M344.831,38.76a3.759,3.759,0,0,0-1.809-2.271,5.056,5.056,0,0,0,1.041-2.053,5.336,5.336,0,0,0-2.395-5.638A7.358,7.358,0,0,0,337.5,16.49a9.494,9.494,0,0,0-14.314-8.111c-2.524-5.123-9.847-7.124-14.625-4C305.181,2.239,301.557.023,297.549,0s-8.305,3.153-7.907,7.14a17.468,17.468,0,0,0-8.785.066,9.208,9.208,0,0,0-6.216,5.842c-.832,2.842.447,6.316,3.173,7.475a7.434,7.434,0,0,0,.365,9.784,6.737,6.737,0,0,0,2.63,1.569,16,16,0,0,0,.085,2.112s.268-.743.74-1.864a7.357,7.357,0,0,0,6.332-1.519,7.834,7.834,0,0,0,13.286-5.089,6.662,6.662,0,0,0,10.665-3,9.246,9.246,0,0,0,9.923,1.993,7.778,7.778,0,0,0,3.044,5.385,45.575,45.575,0,0,0,.07,6.525c3.176,28.855,8.917,36.747,9.663,23.031.081-1.462,3.931-2.856,4.386-8.768a6.459,6.459,0,0,0,1.754-.652,4.889,4.889,0,0,0,2.41-3.038,3.68,3.68,0,0,0-1.107-3.623,3.914,3.914,0,0,0,2.771-4.608" transform="translate(36.885 0.001)" fill="#263238"/>
            <path id="Trazado_642799" data-name="Trazado 642799" d="M316.756,23.623c-.04.011-.009.345.231.9a5.381,5.381,0,0,0,1.6,2.036,5.489,5.489,0,0,0,3.749,1.187,5.913,5.913,0,0,0,4.341-2.328l-.639,0a6.8,6.8,0,0,0,2.219,1.951,7.036,7.036,0,0,0,5.892.44,6.68,6.68,0,0,0,3.505-3.327,6.556,6.556,0,0,0,.666-3.179,2.312,2.312,0,0,0-.263-1.156,8.612,8.612,0,0,1-.905,4.075,6.292,6.292,0,0,1-3.267,2.9,6.434,6.434,0,0,1-5.242-.454,6.151,6.151,0,0,1-1.965-1.707l-.322-.434-.314.432a5.318,5.318,0,0,1-3.758,2.1,5.106,5.106,0,0,1-3.391-.912,7.9,7.9,0,0,1-2.141-2.529" transform="translate(42.578 2.71)" fill="#455a64"/>
            <path id="Trazado_642800" data-name="Trazado 642800" d="M296.518,65.6c.053.223,1.828-.007,3.992-.358s3.921-.7,3.9-.931-1.834-.241-4.032.12-3.912.952-3.859,1.17" transform="translate(39.859 8.624)" fill="#263238"/>
            <path id="Trazado_642801" data-name="Trazado 642801" d="M270,98.8s-3.5.216-10.718,5.617-23.508,27.545-23.508,27.545c7.255,15.241,12.559,23.781,25.7,32.819L276.72,149.2s8.819-42.459,7.774-42.315S270,98.8,270,98.8" transform="translate(31.694 13.282)" fill="#2b95f9"/>
            <path id="Trazado_642802" data-name="Trazado 642802" d="M372.054,94.448c-10.22-4.526-36.772-7.379-36.772-7.379s-5.518,14.226-21.553,14.98c-9.868.464-17.057-9.86-17.057-9.86s-26.387,6.461-31.9,8.718c-4.281,30.434-5.268,37.68-1.366,68.617a89.277,89.277,0,0,0,41.335,14.8c28.6,2.463,58.942-8.53,77.831-32.242Z" transform="translate(35.079 11.705)" fill="#2b95f9"/>
            <path id="Trazado_642803" data-name="Trazado 642803" d="M258.44,115.861a12.534,12.534,0,0,1,.219,1.96c.1,1.361.244,3.166.413,5.351.347,4.518.872,10.754,1.6,17.628s1.535,13.083,2.147,17.573l.723,5.318a12.663,12.663,0,0,1,.2,1.961,12.362,12.362,0,0,1-.427-1.925c-.239-1.246-.551-3.054-.91-5.293-.718-4.479-1.586-10.687-2.321-17.572s-1.191-13.133-1.432-17.663c-.121-2.264-.2-4.1-.227-5.367a12.5,12.5,0,0,1,.011-1.972" transform="translate(34.736 15.576)" fill="#263238"/>
            <path id="Trazado_642804" data-name="Trazado 642804" d="M308.348,110.832a123.4,123.4,0,0,1,.723-14.655c.926-5.749,10.8-19.631,10.8-19.631s-.227-5.243-5.891-1.653c-6.706,4.253-9.452,10.121-11.426,9.308s-14.989-10.6-18.011-9.77a3.276,3.276,0,0,0-1.944,5.187c1.1,1.3,2.588,3.182,2.588,3.182s-6.588-1.149-4.245,5.794c0,0-8.118-3.511-5.921,6.152,0,0-3.058,2.093-1.3,5.289a84.29,84.29,0,0,0,7.1,9.761c2.037,2.469,5.746,11.488,5.746,11.488l3.725,15.188,24.755-9.1Z" transform="translate(36.721 9.9)" fill="#ae7461"/>
            <path id="Trazado_642805" data-name="Trazado 642805" d="M283.652,81.721a37.192,37.192,0,0,0,3.592,2.463,37.359,37.359,0,0,0,3.654,2.371,27.835,27.835,0,0,0-7.246-4.834" transform="translate(38.13 10.986)" fill="#6f4439"/>
            <path id="Trazado_642806" data-name="Trazado 642806" d="M279.723,86.441a10.811,10.811,0,0,0,4.788,4.564c.062-.1-1.166-.936-2.479-2.194s-2.213-2.438-2.31-2.37" transform="translate(37.601 11.621)" fill="#6f4439"/>
            <path id="Trazado_642807" data-name="Trazado 642807" d="M274.492,91.917a8.889,8.889,0,0,0,1.7,2.019,8.874,8.874,0,0,0,1.983,1.742,17.508,17.508,0,0,0-3.682-3.762" transform="translate(36.898 12.356)" fill="#6f4439"/>
            <path id="Trazado_642808" data-name="Trazado 642808" d="M355.184,128.934,328.593,155.65l-22.227-48.632-21.39,9.779s16.067,68.368,24.035,78.2,12.48,10.107,23.214,5.161,43.828-44.77,43.828-44.77Z" transform="translate(38.308 14.387)" fill="#ae7461"/>
            <path id="Trazado_642809" data-name="Trazado 642809" d="M366.374,169.393s12.734-24.063,13.74-45.776A32.92,32.92,0,0,0,370.124,98c-2.482-2.331-5.345-4.272-8.356-4.85a61.455,61.455,0,0,1-7.887,15.734c-5.257,7.251-25.135,38.279-25.135,38.279Z" transform="translate(44.192 12.523)" fill="#2b95f9"/>
            <path id="Trazado_642810" data-name="Trazado 642810" d="M286.591,121.306a3.41,3.41,0,0,1-.25-.5l-.676-1.488c-.6-1.3-1.459-3.227-2.682-5.623a24.62,24.62,0,0,0-2.289-3.792q-1.569-1.882-3.3-4.142c-1.142-1.511-2.35-3.131-3.478-4.96a4.25,4.25,0,0,1,.99-6.23l-.1.254a16.538,16.538,0,0,1-.374-2.805,9.04,9.04,0,0,1,.1-1.484,4.347,4.347,0,0,1,.591-1.443,3.282,3.282,0,0,1,2.811-1.353,8.443,8.443,0,0,1,3.134.632l-.363.334q-.155-.548-.311-1.1c-.092-.374-.125-.769-.189-1.157a4.226,4.226,0,0,1,.472-2.4,3.277,3.277,0,0,1,2.079-1.4,6.678,6.678,0,0,1,2.5-.1l-.263.465-1.49-1.826-.754-.926a4.445,4.445,0,0,1-.71-1.032,3.759,3.759,0,0,1-.259-2.565,3.374,3.374,0,0,1,1.631-2.054,4.533,4.533,0,0,1,1.258-.463,3.375,3.375,0,0,1,1.358.134,13.852,13.852,0,0,1,2.4.943c1.54.749,3.029,1.617,4.507,2.521,2.728,1.671,5.33,3.448,7.9,5.121a12.767,12.767,0,0,0,1.914,1.1c.525.154,1.184-.337,1.707-.818,1.079-1,2.057-2.137,3.087-3.187A32.8,32.8,0,0,1,314.19,74.5a7.659,7.659,0,0,1,1.935-.855,3.328,3.328,0,0,1,2.138.024,3,3,0,0,1,1.548,1.435,5.415,5.415,0,0,1,.59,1.943l.011.093-.062.084a121.551,121.551,0,0,0-8.329,12.526,27.233,27.233,0,0,0-2.552,5.687,29.388,29.388,0,0,0-.608,5.271c-.161,3.223-.2,5.765-.269,7.5-.035.867-.069,1.53-.116,1.978a4.352,4.352,0,0,1-.1.674,6.5,6.5,0,0,1,.019-.68c.01-.483.023-1.14.039-1.977.023-1.732.008-4.273.125-7.508a29.175,29.175,0,0,1,.556-5.349,27.311,27.311,0,0,1,2.537-5.8,118.883,118.883,0,0,1,8.288-12.633l-.051.176a3.452,3.452,0,0,0-1.814-2.923c-1.137-.416-2.479.14-3.608.807a32.436,32.436,0,0,0-6.5,5.389c-1.023,1.045-1.981,2.174-3.112,3.222a6.112,6.112,0,0,1-.948.72,1.671,1.671,0,0,1-1.315.222,12.541,12.541,0,0,1-2.061-1.168c-2.588-1.68-5.18-3.449-7.9-5.111-1.468-.9-2.945-1.759-4.453-2.493a13.378,13.378,0,0,0-2.3-.905,2.862,2.862,0,0,0-1.115-.124,4.059,4.059,0,0,0-1.065.395,2.783,2.783,0,0,0-1.357,1.695,3.188,3.188,0,0,0,.218,2.166,4.055,4.055,0,0,0,.648.933l.745.918,1.469,1.811.455.562-.718-.1c-1.469-.2-3.247.011-4.009,1.234-.7,1.249-.37,2.843.068,4.193l.179.552-.542-.218a7.957,7.957,0,0,0-2.911-.6,2.759,2.759,0,0,0-2.4,1.12,3.854,3.854,0,0,0-.516,1.249,8.639,8.639,0,0,0-.1,1.377,16.193,16.193,0,0,0,.346,2.7l.028.159-.127.1a4.24,4.24,0,0,0-1.711,2.664,4.288,4.288,0,0,0,.825,2.939c1.1,1.807,2.288,3.435,3.412,4.951s2.219,2.9,3.246,4.163a24.238,24.238,0,0,1,2.277,3.882c1.191,2.423,2.014,4.366,2.568,5.69l.61,1.518a3.2,3.2,0,0,1,.182.531" transform="translate(36.694 9.878)" fill="#6f4439"/>
            <path id="Trazado_642811" data-name="Trazado 642811" d="M331.252,164.512c-.16.068-1.758-3.453-4.081-7.606s-4.463-7.373-4.32-7.472a9.82,9.82,0,0,1,1.589,1.984,61.682,61.682,0,0,1,5.96,10.7,9.821,9.821,0,0,1,.851,2.4" transform="translate(43.398 20.088)" fill="#6f4439"/>
            <path id="Trazado_642812" data-name="Trazado 642812" d="M346.478,117.2a2.743,2.743,0,0,1-.3.558l-.943,1.548L341.653,125c-3.123,4.861-7.413,11.539-12.264,19.092l-.093-.41,4.484,2.732c8.733,5.367,16.628,10.234,22.425,13.618L363.094,164l1.879,1.07a3.7,3.7,0,0,1,.638.407,3.566,3.566,0,0,1-.693-.3l-1.933-.973c-1.668-.867-4.062-2.154-6.987-3.808-5.856-3.3-13.795-8.11-22.525-13.476l-4.48-2.735-.259-.158.166-.252c4.915-7.51,9.264-14.151,12.428-18.986,1.555-2.33,2.818-4.222,3.735-5.594l1.029-1.494a2.738,2.738,0,0,1,.388-.5" transform="translate(44.19 15.755)" fill="#263238"/>
            <path id="Trazado_642813" data-name="Trazado 642813" d="M343.71,109.6a19.742,19.742,0,0,1-1.327,2.653,63.376,63.376,0,0,0-5.156,13.253,19.572,19.572,0,0,1-.814,2.853,11.923,11.923,0,0,1,.408-2.951,44.836,44.836,0,0,1,5.2-13.358,11.952,11.952,0,0,1,1.693-2.451" transform="translate(45.219 14.734)" fill="#263238"/>
          </g>
        </g>
        <g id="Grupo_883513" data-name="Grupo 883513" transform="translate(0 -0.001)">
          <g id="Grupo_883512" data-name="Grupo 883512" clip-path="url(#clip-path-2)">
            <path id="Trazado_642814" data-name="Trazado 642814" d="M191.677,352.072c.351,53.538-42.338,96.695-95.7,95.7-52.845-.984-95.7-42.846-95.7-95.7a95.7,95.7,0,0,1,95.7-95.7c52.855,0,95.356,42.848,95.7,95.7" transform="translate(0.037 34.464)" fill="#f5f5f5"/>
            <path id="Trazado_642815" data-name="Trazado 642815" d="M24.39,341.351A10.654,10.654,0,0,1,25.4,321.04a11.7,11.7,0,0,1,5.219-21.247c-3.4-2.142-4.9-6.619-4.141-10.566a15.671,15.671,0,0,1,6.782-9.6c9.036-6.208,22.858-3.786,29.244,5.124l12.811,87.573c-3.161,4.234-10.516,10.215-15.783,9.809a16.045,16.045,0,0,1-12.7-8.327c-3.278.172-6.623.338-9.792-.521s-6.191-2.934-7.328-6.012.218-7.114,3.316-8.2c-3.871-1.595-7.956-3.358-10.339-6.8s-2.058-9.085,1.7-10.92" transform="translate(2.342 37.125)" fill="#263238"/>
            <path id="Trazado_642816" data-name="Trazado 642816" d="M40.541,317.057a10.786,10.786,0,0,1-1.057-13.789c-2.311-2.165-2.164-6.047-.539-8.762s4.366-4.54,7.016-6.271c.507-7.4,7.815-13.623,15.2-12.948,2.913-6.008,10.7-8.027,17.318-7.111a17.108,17.108,0,0,0,4.861.337,27.8,27.8,0,0,0,3.442-1c6.324-1.815,13.4,1.786,16.794,7.421a12.061,12.061,0,0,0,1.781,2.593,16.351,16.351,0,0,0,3.562,2.079,10.415,10.415,0,0,1,5.066,7.039c.473,2.49.066,5.267,1.455,7.387.7,1.063,1.788,1.844,2.374,2.971,1.7,3.267-1.6,7.347-.369,10.817.251.708.68,1.339.987,2.025a6.423,6.423,0,0,1,.265,4.5c-.354,1.131-1.033,2.22-.93,3.4a10.416,10.416,0,0,0,.9,2.53c.75,2.07-2.647,10.973-4.319,12.4l-55.02,8.584a10.405,10.405,0,0,1-9.268-7.695,3.809,3.809,0,0,0-.811-1.95,4.451,4.451,0,0,0-1.647-.757c-3.828-1.384-4.971-6.192-5.187-10.255a4.912,4.912,0,0,0-.278-1.677,6.214,6.214,0,0,0-1.6-1.874" transform="translate(5.038 35.897)" fill="#263238"/>
            <path id="Trazado_642817" data-name="Trazado 642817" d="M42.645,297.487c6.13-11.961,16.044-20.222,29.135-23.269,7.386-1.718,10.785-.838,16.433-.547a23.932,23.932,0,0,1,15.239,5.951c4.938,4.554,9.409,9.881,11.53,16.255a57.622,57.622,0,0,1,2.968,18.9A75.9,75.9,0,0,1,112.685,339l-11.079,3.832c-9.383,2.357-18.9,4.731-28.573,4.557s-19.688-3.2-26.357-10.21c-9.266-9.737-10.162-27.727-4.032-39.688" transform="translate(5.207 36.724)" fill="#263238"/>
            <path id="Trazado_642818" data-name="Trazado 642818" d="M56.156,293.392,77.02,279.409l6.11-.591c13.423-2.841,25.858,9.96,28.285,20.8,2.7,12.048,5.513,26.862,5.511,36.17,0,18.717-14.949,23.493-14.949,23.493l2,10.794c-1.427,10.132-21.019,15.019-31.737,6.109l-20.8-75.371a6.5,6.5,0,0,1,4.712-7.425" transform="translate(6.901 37.427)" fill="#ae7461"/>
            <path id="Trazado_642819" data-name="Trazado 642819" d="M84.709,330.9a3.891,3.891,0,0,1,.811-2.633,3.98,3.98,0,0,1,4.662-1.285,5.334,5.334,0,0,1,3.033,4.467,4.846,4.846,0,0,1-2.968,2.7,6.062,6.062,0,0,1-.632.158,4.352,4.352,0,0,1-3.113-.518,3.877,3.877,0,0,1-1.795-2.885" transform="translate(11.385 43.915)" fill="#6f4439"/>
            <path id="Trazado_642820" data-name="Trazado 642820" d="M103.146,310.48a2.37,2.37,0,0,1-1.883,2.72,2.267,2.267,0,0,1-2.749-1.728,2.372,2.372,0,0,1,1.881-2.721,2.269,2.269,0,0,1,2.751,1.729" transform="translate(13.237 41.498)" fill="#263238"/>
            <path id="Trazado_642821" data-name="Trazado 642821" d="M102.937,303.418c-.242.352-2.223-.68-4.743-.273-2.522.369-4.166,1.959-4.488,1.694-.155-.116.053-.714.765-1.428A6.513,6.513,0,0,1,98,301.677a6.254,6.254,0,0,1,3.835.6c.869.471,1.22.982,1.1,1.141" transform="translate(12.59 40.544)" fill="#263238"/>
            <path id="Trazado_642822" data-name="Trazado 642822" d="M91.971,325.923c-.035-.141,1.487-.66,3.974-1.387.633-.169,1.222-.392,1.26-.849a3.3,3.3,0,0,0-.732-1.839l-2.68-4.6c-3.747-6.557-6.571-11.99-6.305-12.137s3.519,5.045,7.267,11.6q1.363,2.43,2.6,4.64a3.766,3.766,0,0,1,.734,2.472,1.637,1.637,0,0,1-.909,1.109,4.427,4.427,0,0,1-1.069.324c-2.532.542-4.115.805-4.146.664" transform="translate(11.758 41.016)" fill="#263238"/>
            <path id="Trazado_642823" data-name="Trazado 642823" d="M99.018,349.993a47.027,47.027,0,0,1-25.486-2.645s8.358,12.137,26.362,7.531Z" transform="translate(9.885 46.693)" fill="#6f4439"/>
            <path id="Trazado_642824" data-name="Trazado 642824" d="M85.174,326.029c.4-.088.845,2.645,3.494,4.216s5.511.808,5.594,1.187c.065.167-.565.635-1.79.862a6.887,6.887,0,0,1-4.645-.836,6,6,0,0,1-2.754-3.562c-.285-1.127-.087-1.853.1-1.866" transform="translate(11.417 43.827)" fill="#263238"/>
            <path id="Trazado_642825" data-name="Trazado 642825" d="M100.53,295.865c-.326.684-2.321.579-4.546,1.123-2.24.473-4,1.434-4.581.959-.263-.235-.112-.873.571-1.617a7.253,7.253,0,0,1,7.353-1.677c.933.374,1.34.885,1.2,1.212" transform="translate(12.27 39.558)" fill="#263238"/>
            <path id="Trazado_642826" data-name="Trazado 642826" d="M78.432,314.9a2.37,2.37,0,0,0,2.706,1.9,2.267,2.267,0,0,0,1.984-2.569,2.37,2.37,0,0,0-2.7-1.906,2.268,2.268,0,0,0-1.986,2.571" transform="translate(10.54 41.983)" fill="#263238"/>
            <path id="Trazado_642827" data-name="Trazado 642827" d="M71.955,309.162c.348.246,1.854-1.4,4.357-1.892,2.495-.522,4.585.4,4.8.043.107-.162-.295-.651-1.209-1.077a6.516,6.516,0,0,0-3.914-.41,6.26,6.26,0,0,0-3.394,1.884c-.652.743-.805,1.343-.636,1.451" transform="translate(9.664 41.094)" fill="#263238"/>
            <path id="Trazado_642828" data-name="Trazado 642828" d="M71.768,301.873c.6.471,2.419-.5,4.735-.985,2.3-.558,4.364-.464,4.7-1.148.142-.328-.279-.836-1.246-1.2a7.293,7.293,0,0,0-4.041-.17,7.2,7.2,0,0,0-3.56,1.889c-.707.745-.861,1.384-.588,1.619" transform="translate(9.63 40.082)" fill="#263238"/>
            <path id="Trazado_642829" data-name="Trazado 642829" d="M115.843,301.6c-2.758-1.241-4.674-3.18-4.926-6.194-1.615.733-3.622-1.2-4.8-2.527s-2.487-1.894-2.651-3.661a1.987,1.987,0,0,0-.265-1,2.146,2.146,0,0,0-1.483-.614,8.505,8.505,0,0,1-6.348-5.1,17.968,17.968,0,0,1-8.423,2.6,6.873,6.873,0,0,1-11.594,1.073,6.156,6.156,0,0,1-3.676,3.571,18.229,18.229,0,0,1-5.176,1,7.279,7.279,0,0,1-3.631,8.816c-.428.2-.927.4-1.075.853-.154.466.15.944.386,1.375a5.73,5.73,0,0,1-2.815,7.747,4.272,4.272,0,0,1,.524,6.684c-.419.339-.971.753-.828,1.273a1.213,1.213,0,0,0,.349.5,8.322,8.322,0,0,1,2.551,3.884c.326,1.538-.486,3.424-2.032,3.705a4.063,4.063,0,0,1,1.974,2.535c.169,1.09-.785,2.355-1.858,2.1-.457-.108-6.887-.483-7.214-.82-4.218-4.344-.472-10.292-.938-16.329s-3.463-12.6-1.182-18.211c.957-2.353,6.392-4.17,7.933-6.189a38.3,38.3,0,0,1,6.219-6.036c2.908-2.411,5.9-4.83,9.43-6.187,6.567-2.529,13.955-1.027,20.684,1.032a29.873,29.873,0,0,1,7.381,3.094,27.036,27.036,0,0,1,6.783,6.729,33.637,33.637,0,0,1,6.311,12.252" transform="translate(6.702 36.983)" fill="#263238"/>
            <path id="Trazado_642830" data-name="Trazado 642830" d="M117.832,297.021a4.872,4.872,0,0,0-.863-1.256c-.323-.382-.767-.817-1.209-1.392a5.89,5.89,0,0,1-1.028-2.252,18.567,18.567,0,0,1-.374-3.117,13.928,13.928,0,0,0-.613-3.72,10.6,10.6,0,0,0-2.2-3.732,10.371,10.371,0,0,0-1.792-1.567,15.487,15.487,0,0,0-2.189-1.2,7.866,7.866,0,0,1-2.137-1.385,10.238,10.238,0,0,1-1.518-2.2,17.032,17.032,0,0,0-9.113-7.514,15.053,15.053,0,0,0-3.184-.72,13.649,13.649,0,0,0-3.356.082,15.586,15.586,0,0,0-1.676.369c-.55.165-1.088.36-1.63.535a8.183,8.183,0,0,1-3.36.467c-1.156-.067-2.315-.32-3.517-.449a22.319,22.319,0,0,0-7.341.337,19.281,19.281,0,0,0-3.594,1.189,12.513,12.513,0,0,0-5.753,5.05l-.38.684.189-.108a14.727,14.727,0,0,0-15.4,13.126l.082-.14a40.374,40.374,0,0,0-4.086,2.936,13.4,13.4,0,0,0-3.153,3.715,8.7,8.7,0,0,0-1.036,4.566,5.99,5.99,0,0,0,1.789,4.084l-.018-.211a10.5,10.5,0,0,0-2,6.854,10.771,10.771,0,0,0,2.171,6.067,10.365,10.365,0,0,0,1.007,1.129,13.592,13.592,0,0,1,1.021,1,2.718,2.718,0,0,1,.618,1.171,7.812,7.812,0,0,1,.145,1.31,20.826,20.826,0,0,0,.793,4.753,10.074,10.074,0,0,0,1.74,3.46,6.2,6.2,0,0,0,2.237,1.769c.709.339,1.306.425,1.657.615a2.957,2.957,0,0,1,.509.317,1.471,1.471,0,0,0-.489-.36c-.351-.206-.951-.311-1.637-.657a6.208,6.208,0,0,1-2.168-1.771,10,10,0,0,1-1.674-3.425,20.757,20.757,0,0,1-.748-4.714,7.962,7.962,0,0,0-.142-1.351,2.949,2.949,0,0,0-.659-1.273,13.8,13.8,0,0,0-1.033-1.028,10.147,10.147,0,0,1-.973-1.1,10.52,10.52,0,0,1-2.087-5.924,10.222,10.222,0,0,1,1.966-6.649l.087-.115-.106-.1a5.675,5.675,0,0,1-1.674-3.872,8.37,8.37,0,0,1,1.007-4.382,13.083,13.083,0,0,1,3.08-3.61,40.253,40.253,0,0,1,4.056-2.9l.076-.05.006-.091a14.365,14.365,0,0,1,15-12.77l.124.011.066-.118c.123-.218.245-.439.369-.66a12.14,12.14,0,0,1,5.579-4.9,18.965,18.965,0,0,1,3.517-1.165,21.923,21.923,0,0,1,7.215-.338c1.18.124,2.348.377,3.539.445a8.7,8.7,0,0,0,1.786-.061,10.47,10.47,0,0,0,1.707-.429c.55-.179,1.085-.374,1.622-.537a15.441,15.441,0,0,1,1.627-.361,13.308,13.308,0,0,1,3.266-.087,14.788,14.788,0,0,1,3.111.7,16.748,16.748,0,0,1,8.966,7.347,10.524,10.524,0,0,0,1.573,2.254,8.12,8.12,0,0,0,2.218,1.427,15.214,15.214,0,0,1,2.163,1.173,10.178,10.178,0,0,1,1.757,1.518,10.35,10.35,0,0,1,2.176,3.638,13.791,13.791,0,0,1,.634,3.663,18.424,18.424,0,0,0,.411,3.141,5.993,5.993,0,0,0,1.083,2.285c.458.577.91,1,1.241,1.374a7.4,7.4,0,0,1,.709.881c.143.211.2.328.212.323" transform="translate(5.022 35.878)" fill="#455a64"/>
            <path id="Trazado_642831" data-name="Trazado 642831" d="M63.221,271.436c.023.025.305-.236.875-.621a8.51,8.51,0,0,1,2.63-1.18,8.02,8.02,0,0,1,4.216.028,8.278,8.278,0,0,1,4.234,2.884A7.035,7.035,0,0,1,76,273.884a1.582,1.582,0,0,1,.092,1.336l-.247.471.488-.214a5.247,5.247,0,0,1,3.951-.076,5.055,5.055,0,0,1,2.455,2.031,5.536,5.536,0,0,1,.778,2c.087.5.086.784.115.783.011,0,.022-.069.031-.2a3.542,3.542,0,0,0-.017-.6A5.3,5.3,0,0,0,80.4,275.1a5.527,5.527,0,0,0-4.22.036l.239.256a1.938,1.938,0,0,0-.074-1.661,7.254,7.254,0,0,0-.867-1.417,8.5,8.5,0,0,0-4.442-2.99,8.092,8.092,0,0,0-4.382.05,7.924,7.924,0,0,0-2.644,1.319,5.629,5.629,0,0,0-.607.527c-.128.132-.191.2-.182.214" transform="translate(8.498 36.168)" fill="#455a64"/>
            <path id="Trazado_642832" data-name="Trazado 642832" d="M42.576,297.751c-.012,0,.009.082.062.227a2.155,2.155,0,0,0,.365.569,3.382,3.382,0,0,0,2.212,1.065,6.459,6.459,0,0,0,3.536-.888,20.739,20.739,0,0,0,1.876-1.057,3.477,3.477,0,0,0,1.517-1.824l.05-.212-.284.13a14.531,14.531,0,0,0,4.04,1.722,6.549,6.549,0,0,0,3.581-.126,4.713,4.713,0,0,0,2.037-1.291,2.882,2.882,0,0,0,.39-.529c.074-.13.107-.2.1-.209-.029-.019-.193.25-.591.635a4.922,4.922,0,0,1-2.014,1.138,6.461,6.461,0,0,1-3.421.04,14.888,14.888,0,0,1-3.926-1.711l-.222-.129-.062.26c-.012.057-.027.117-.042.178a3.139,3.139,0,0,1-1.359,1.617c-.6.4-1.234.735-1.825,1.055a6.389,6.389,0,0,1-3.352.932,3.367,3.367,0,0,1-2.128-.9,5.488,5.488,0,0,1-.535-.694" transform="translate(5.723 39.697)" fill="#455a64"/>
            <path id="Trazado_642833" data-name="Trazado 642833" d="M61.408,324.814c-.219-1.359-2.3-4.315-3.674-4.312-3.674.009-10.092,1.322-8.708,10.438,1.891,12.461,14.012,7.992,13.98,7.631-.025-.283-.842-9.064-1.6-13.757" transform="translate(6.564 43.084)" fill="#ae7461"/>
            <path id="Trazado_642834" data-name="Trazado 642834" d="M58.44,334.006c-.06-.032-.194.185-.535.408a2.194,2.194,0,0,1-1.618.28c-1.39-.284-2.816-2.205-3.217-4.442a7.255,7.255,0,0,1,.136-3.2,2.534,2.534,0,0,1,1.379-1.914,1.118,1.118,0,0,1,1.372.4c.22.323.179.585.247.6.04.026.237-.248.058-.748a1.394,1.394,0,0,0-.609-.708,1.659,1.659,0,0,0-1.249-.134,3.085,3.085,0,0,0-1.974,2.276,7.47,7.47,0,0,0-.225,3.588c.461,2.5,2.1,4.653,3.984,4.9a2.35,2.35,0,0,0,1.934-.632c.34-.365.363-.655.317-.67" transform="translate(7.001 43.619)" fill="#6f4439"/>
            <g id="Grupo_883508" data-name="Grupo 883508" transform="translate(78.261 344.105)" opacity="0.3">
              <g id="Grupo_883507" data-name="Grupo 883507">
                <g id="Grupo_883506" data-name="Grupo 883506" clip-path="url(#clip-path-6)">
                  <path id="Trazado_642835" data-name="Trazado 642835" d="M90.171,312.446A10.647,10.647,0,1,1,78.1,303.441a10.646,10.646,0,0,1,12.067,9.005" transform="translate(-68.987 -303.329)" fill="#fff"/>
                </g>
              </g>
            </g>
            <g id="Grupo_883511" data-name="Grupo 883511" transform="translate(104.219 340.754)" opacity="0.3">
              <g id="Grupo_883510" data-name="Grupo 883510">
                <g id="Grupo_883509" data-name="Grupo 883509" clip-path="url(#clip-path-7)">
                  <path id="Trazado_642836" data-name="Trazado 642836" d="M113.053,309.491a10.647,10.647,0,1,1-12.067-9.005,10.646,10.646,0,0,1,12.067,9.005" transform="translate(-91.87 -300.375)" fill="#fff"/>
                </g>
              </g>
            </g>
            <path id="Trazado_642837" data-name="Trazado 642837" d="M91.948,309.854a8.764,8.764,0,0,0-2.107-.053,8.743,8.743,0,0,0-1.926.858c-.049-.037.051-.288.356-.59a3.047,3.047,0,0,1,3.122-.622c.4.161.585.355.555.407" transform="translate(11.816 41.573)" fill="#455a64"/>
            <path id="Trazado_642838" data-name="Trazado 642838" d="M71.452,313.583a11.284,11.284,0,0,1-1.989,1.294c-1.259.745-3.015,1.745-4.969,2.821s-3.738,2.028-5.04,2.7a7.156,7.156,0,0,1-1.617.681c-.412.094-.648.066-.649.036s.22-.075.592-.219a10.262,10.262,0,0,0,1.505-.8c1.259-.744,3.015-1.744,4.97-2.821s3.737-2.028,5.039-2.694a11.323,11.323,0,0,1,2.157-.99" transform="translate(7.688 42.154)" fill="#455a64"/>
            <path id="Trazado_642839" data-name="Trazado 642839" d="M43.5,421.11s16.527,13.7,51.126,13.5c32.392-.186,52.621-17.712,52.621-17.712,6.885-14.482-.95-24.434-4.617-43.053,0,0-10.841-16.846-14.2-16.988-7.468-.315-21.078,2.091-21.834,1.31-4.9,8.428-11.286,17.089-34.363.508l-27.18,7.054c-3.94,1.658-10.113,5.924-9.719,10.18Z" transform="translate(4.747 47.968)" fill="#fd4c1b"/>
            <path id="Trazado_642840" data-name="Trazado 642840" d="M24.341,404.387s4.689-29.576,18.575-37.881c11.487-6.871,26.45,40.907,26.45,40.907l-12.541,19.01c-13.322-5.94-20.041-10.132-32.484-22.036" transform="translate(3.272 49.178)" fill="#fd4c1b"/>
            <path id="Trazado_642841" data-name="Trazado 642841" d="M162.831,338.654,146.1,344.271l13.64,46.123-22.19-20.645-15.7,31.393s32.353,22.626,45.214,24.387,23.079-4.284,20.234-19.16c-1.136-5.944-24.459-67.714-24.459-67.714" transform="translate(16.379 45.525)" fill="#ae7461"/>
            <path id="Trazado_642842" data-name="Trazado 642842" d="M142.545,327.255s-4.524-5.05-6.785-3.9-4.944,4.126-4.836,6.184,1.095,3.682,1.982,3.378,3.081-2.74,3.081-2.74l4.18,3.521.044,5.8-2.769,2.465-2.82-3.334-.23-2.851a2.044,2.044,0,0,0-2.828-1.763,2.493,2.493,0,0,0-1.254,2.272c-.32,3.756.877,10.644,5.112,12.744a106.087,106.087,0,0,0,11.84,4.48l15.322-5.381-1.013-19.418s4.613-7.977,4.344-10.67-1.978-10.729-1.978-10.729a1.945,1.945,0,0,0-2.756,1.562c-.515,2.478.091,9.151.091,9.151l-4.084,5.4-3.148-20.8a1.588,1.588,0,0,0-1.975-1.3c-1.249.338-2.7,1.394-2.685,4.486.024,5.413,1.808,17.05,1.172,17.213s-.869-.181-1.758-2.857c-.7-2.1-4.061-12.479-5.275-16.227a1.226,1.226,0,0,0-1.948-.562,5.084,5.084,0,0,0-1.713,4.482c.218,4.4,3.632,15.347,3.815,16.369s-1.126,3.024-1.126,3.024" transform="translate(17.51 40.5)" fill="#ae7461"/>
            <path id="Trazado_642843" data-name="Trazado 642843" d="M150.672,340.723c-.109.062-.506-.532-1.3-1.32a10.69,10.69,0,0,0-7.86-3.1c-1.117.035-1.814.2-1.851.081-.031-.081.624-.442,1.8-.626a9.232,9.232,0,0,1,8.315,3.276c.737.94.97,1.649.892,1.688" transform="translate(18.774 45.124)" fill="#6f4439"/>
            <path id="Trazado_642844" data-name="Trazado 642844" d="M144.918,417.583,161.955,386.9S149.931,372.921,139.739,364c-11.226-9.826-21.77-8.7-36.867-5.471,0,0,7.778,35.772,22.858,46.258,2.8,1.948,19.189,12.8,19.189,12.8" transform="translate(13.829 47.886)" fill="#fd4c1b"/>
            <path id="Trazado_642845" data-name="Trazado 642845" d="M56.353,422.884a3.766,3.766,0,0,1-.423-1.15,27.831,27.831,0,0,1-.6-3.279c-.374-2.786-.674-6.648-1.027-10.9s-.716-8.105-1.035-10.885a44.922,44.922,0,0,1-.467-4.51,4.806,4.806,0,0,1,.306,1.183c.167.767.358,1.885.575,3.272.425,2.774.864,6.627,1.209,10.892s.586,8.122.853,10.9c.134,1.39.272,2.511.407,3.276a6.877,6.877,0,0,1,.2,1.2" transform="translate(7.095 52.717)" fill="#263238"/>
            <path id="Trazado_642846" data-name="Trazado 642846" d="M118.165,374.294a10.541,10.541,0,0,1,1.438,1.128c.9.758,2.186,1.868,3.728,3.3,3.028,2.87,7.312,7.032,10.122,12.914a29.563,29.563,0,0,1,2.53,8.723,52.215,52.215,0,0,1,.453,7.391c-.007,2.105-.092,3.8-.159,4.978a10.633,10.633,0,0,1-.171,1.82,11.069,11.069,0,0,1-.059-1.826c0-1.174.017-2.872-.028-4.968a57.484,57.484,0,0,0-.574-7.315,30.024,30.024,0,0,0-2.525-8.55c-2.746-5.757-6.931-9.928-9.876-12.864l-3.593-3.432a11.054,11.054,0,0,1-1.285-1.3" transform="translate(15.884 50.315)" fill="#263238"/>
            <path id="Trazado_642847" data-name="Trazado 642847" d="M158.268,398.856a7.22,7.22,0,0,1-.995-2,34.538,34.538,0,0,1-2.336-10.5,7.247,7.247,0,0,1,.052-2.237c.179-.008.365,3.385,1.281,7.451.894,4.07,2.163,7.223,2,7.291" transform="translate(20.823 51.636)" fill="#263238"/>
          </g>
        </g>
        <g id="Grupo_883515" data-name="Grupo 883515" transform="translate(0 -0.001)">
          <g id="Grupo_883514" data-name="Grupo 883514" clip-path="url(#clip-path-2)">
            <path id="Trazado_642848" data-name="Trazado 642848" d="M195.275,113.231a92.887,92.887,0,1,1-92.887-92.887,92.887,92.887,0,0,1,92.887,92.887" transform="translate(1.277 2.736)" fill="#f5f5f5"/>
            <path id="Trazado_642849" data-name="Trazado 642849" d="M110.513,20.715a13.271,13.271,0,0,0-7.764-8.4c-5.3-1.879-11.848.7-14.668,5.073s-2.3,9.967.345,14.392,7.146,7.807,12.021,10.416l4.581-.5a20.1,20.1,0,0,0,5.485-20.977" transform="translate(11.586 1.572)" fill="#263238"/>
            <path id="Trazado_642850" data-name="Trazado 642850" d="M158.084,52.54,91.874,37.507A103.67,103.67,0,0,0,66.3,94.206c25.023,13.475,60.794,23.677,89.067,26.561,6.077-21.695,1.37-45.735,2.716-68.227" transform="translate(8.912 5.043)" fill="#263238"/>
            <path id="Trazado_642851" data-name="Trazado 642851" d="M93.731,36.073c9.15-8.421,20.4-12.419,32.752-10.875,6.967.872,9.638,2.724,14.451,4.784A22.166,22.166,0,0,1,152.27,40.026c2.835,5.533,5.015,11.588,4.82,17.8-.2,6.381-.407,12.8-1.774,19.039S151.337,89.2,146.9,93.79l-16.441.508c-8.906-.956-17.933-1.942-26.28-5.188s-16.08-9.08-19.633-17.3c-4.937-11.417.036-27.319,9.188-35.74" transform="translate(11.103 3.345)" fill="#263238"/>
            <path id="Trazado_642852" data-name="Trazado 642852" d="M133.774,32.573l-5.5-1.443-22.6,5.461a6.017,6.017,0,0,0-6.47,4.937l-6.862,68.223,28.9,13.1,3.166-14.4s14.51.638,20.5-15.609c2.978-8.078,5.268-21.84,6.778-33.16,1.359-10.189-5.351-25.28-17.919-27.109" transform="translate(12.414 4.186)" fill="#ffc09d"/>
            <path id="Trazado_642853" data-name="Trazado 642853" d="M116.962,79.381a3.6,3.6,0,0,1,1.546-2.026,3.688,3.688,0,0,1,4.462.377,4.934,4.934,0,0,1,1.207,4.849,4.481,4.481,0,0,1-3.441,1.391,5.31,5.31,0,0,1-.6-.066,4.031,4.031,0,0,1-2.539-1.445,3.589,3.589,0,0,1-.636-3.079" transform="translate(15.707 10.322)" fill="#ff9b6c"/>
            <path id="Trazado_642854" data-name="Trazado 642854" d="M138.324,68a2.194,2.194,0,0,1-2.506,1.759,2.1,2.1,0,0,1-1.835-2.38,2.195,2.195,0,0,1,2.5-1.761A2.1,2.1,0,0,1,138.324,68" transform="translate(18.007 8.818)" fill="#263238"/>
            <path id="Trazado_642855" data-name="Trazado 642855" d="M141.53,61.331c-.322.228-1.714-1.3-4.033-1.756-2.309-.486-4.245.369-4.44.035-.1-.151.275-.6,1.121-.995a6.034,6.034,0,0,1,3.623-.374,5.794,5.794,0,0,1,3.14,1.748c.6.687.745,1.242.589,1.342" transform="translate(17.884 7.814)" fill="#263238"/>
            <path id="Trazado_642856" data-name="Trazado 642856" d="M125.013,77.513a15.645,15.645,0,0,1,3.9.068c.6.056,1.188.05,1.367-.334a3.077,3.077,0,0,0-.048-1.831q-.41-2.311-.858-4.849c-1.159-6.889-1.875-12.509-1.6-12.552s1.444,5.505,2.6,12.4q.407,2.544.778,4.86A3.486,3.486,0,0,1,131,77.653a1.511,1.511,0,0,1-1.144.672,4.057,4.057,0,0,1-1.032-.06,15.41,15.41,0,0,1-3.815-.751" transform="translate(16.805 7.8)" fill="#263238"/>
            <path id="Trazado_642857" data-name="Trazado 642857" d="M123.112,100.662a43.57,43.57,0,0,1-21.294-10.451s2.935,13.552,20.048,15.315Z" transform="translate(13.687 12.128)" fill="#ff9b6c"/>
            <path id="Trazado_642858" data-name="Trazado 642858" d="M118.807,75.422c.381.053-.112,2.566,1.688,4.777s4.53,2.465,4.48,2.82c0,.164-.694.37-1.831.176a6.384,6.384,0,0,1-3.769-2.212,5.553,5.553,0,0,1-1.254-3.973c.112-1.07.516-1.637.685-1.588" transform="translate(15.875 10.139)" fill="#263238"/>
            <path id="Trazado_642859" data-name="Trazado 642859" d="M141.866,53.993c-.5.488-2.2-.242-4.307-.481-2.1-.306-3.932-.034-4.287-.633-.154-.289.182-.8,1.013-1.222a6.717,6.717,0,0,1,6.925.9c.691.623.88,1.2.657,1.437" transform="translate(17.91 6.867)" fill="#263238"/>
            <path id="Trazado_642860" data-name="Trazado 642860" d="M116.026,64.174a2.192,2.192,0,0,0,1.74,2.518,2.1,2.1,0,0,0,2.546-1.6,2.194,2.194,0,0,0-1.739-2.52,2.1,2.1,0,0,0-2.547,1.6" transform="translate(15.592 8.406)" fill="#263238"/>
            <path id="Trazado_642861" data-name="Trazado 642861" d="M112.786,56.4c.222.326,2.058-.626,4.39-.248,2.334.345,3.854,1.818,4.153,1.572.144-.106-.049-.659-.708-1.32a6.032,6.032,0,0,0-3.268-1.609,5.789,5.789,0,0,0-3.551.55c-.805.436-1.13.906-1.016,1.055" transform="translate(15.158 7.357)" fill="#263238"/>
            <path id="Trazado_642862" data-name="Trazado 642862" d="M114.958,50c.374.6,2.262.34,4.43.66,2.177.252,3.939.994,4.449.508.228-.239.024-.816-.7-1.445a6.763,6.763,0,0,0-3.457-1.441,6.674,6.674,0,0,0-3.7.5c-.851.421-1.189.927-1.028,1.217" transform="translate(15.448 6.482)" fill="#263238"/>
            <path id="Trazado_642863" data-name="Trazado 642863" d="M95.725,65.818l2.5,3.453c14.365-10.305,43.382-37.095,41.746-35.485a37.228,37.228,0,0,0-17.8-4.526c-9.635.265-28.144,2.438-29.441,13.563s2.991,22.995,2.991,22.995" transform="translate(12.433 3.933)" fill="#263238"/>
            <path id="Trazado_642864" data-name="Trazado 642864" d="M98.9,66.523c.245-1.249-.617-4.481-1.814-4.919-3.195-1.167-9.19-2.082-10.9,6.273C83.845,79.3,95.8,79.3,95.891,78.975c.068-.253,2.167-8.137,3.011-12.453" transform="translate(11.545 8.182)" fill="#ffc09d"/>
            <path id="Trazado_642865" data-name="Trazado 642865" d="M93.2,73.707c-.043-.047-.228.1-.6.184a2.037,2.037,0,0,1-1.5-.276c-1.117-.69-1.741-2.815-1.374-4.885A6.716,6.716,0,0,1,90.874,66a2.348,2.348,0,0,1,1.812-1.22,1.035,1.035,0,0,1,1.063.786c.088.352-.032.565.025.6.026.035.285-.142.289-.632a1.292,1.292,0,0,0-.3-.808,1.543,1.543,0,0,0-1.043-.517,2.856,2.856,0,0,0-2.442,1.344,6.882,6.882,0,0,0-1.342,3.043c-.4,2.316.338,4.711,1.893,5.528a2.179,2.179,0,0,0,1.883.071c.412-.209.524-.453.489-.481" transform="translate(11.94 8.63)" fill="#ff9b6c"/>
            <path id="Trazado_642866" data-name="Trazado 642866" d="M81.292,35.551A7.725,7.725,0,0,0,88.6,39.08a15.462,15.462,0,0,1-11.147,2.33A13.824,13.824,0,0,0,93,43.561l4.763-11.5a16.605,16.605,0,0,1-16.471,3.491" transform="translate(10.412 4.311)" fill="#263238"/>
            <path id="Trazado_642867" data-name="Trazado 642867" d="M124.312,108.816,94.295,97.925H86.24l19.991,22.09,8.476,7.411,10.305-.56,4.439-4.971Z" transform="translate(11.593 13.165)" fill="#ffc09d"/>
            <path id="Trazado_642868" data-name="Trazado 642868" d="M160.981,131.888c-2.474-8.205-13.371-14.409-13.371-14.409l-18.065-9.125s-1.341,6.839-13,4.659A24.783,24.783,0,0,1,97.687,97.191s-27.551-.175-32.634.631L54.5,197.03l77.857,1.148,6.4-8.755a56.3,56.3,0,0,0,8.458-16.713c1.208-3.956,1.843-7.019,1.843-7.019s14.693-1.173,19.573-7.772c0,0-6.2-21.216-7.649-26.031" transform="translate(7.326 13.064)" fill="#038a7b"/>
            <path id="Trazado_642869" data-name="Trazado 642869" d="M136.341,127.934c-.116.032.4,2.061,1.015,5.378a86.164,86.164,0,0,1,.827,26.217c-.4,3.35-.791,5.407-.674,5.432a5.67,5.67,0,0,0,.421-1.416c.233-.92.5-2.269.766-3.944a71.643,71.643,0,0,0-.833-26.391c-.372-1.656-.723-2.985-1.013-3.889a5.688,5.688,0,0,0-.509-1.386" transform="translate(18.325 17.199)" fill="#263238"/>
            <path id="Trazado_642870" data-name="Trazado 642870" d="M93.5,174.946a4.372,4.372,0,0,0,1.289-.145,9.876,9.876,0,0,0,1.483-.337,16.546,16.546,0,0,0,1.922-.615,24.742,24.742,0,0,0,4.7-2.349,26.526,26.526,0,0,0,8.788-9.292,24.68,24.68,0,0,0,2.083-4.827,16.292,16.292,0,0,0,.507-1.952,9.776,9.776,0,0,0,.254-1.5,4.34,4.34,0,0,0,.073-1.294c-.143-.022-.349,1.814-1.326,4.583a27.367,27.367,0,0,1-2.175,4.652,27.929,27.929,0,0,1-8.574,9.065A27.362,27.362,0,0,1,98,173.367c-2.709,1.129-4.531,1.437-4.5,1.579" transform="translate(12.568 20.519)" fill="#263238"/>
            <path id="Trazado_642871" data-name="Trazado 642871" d="M79.889,97.274l-12.838.332a21.512,21.512,0,0,0-6.473,1.176L28.96,109.744l17.981,18.138,24.219,5.677Z" transform="translate(3.893 13.077)" fill="#038a7b"/>
            <path id="Trazado_642872" data-name="Trazado 642872" d="M61.747,111.109c.12,0,.389,4.944.6,11.052s.289,11.062.169,11.066-.389-4.943-.6-11.052-.288-11.062-.169-11.066" transform="translate(8.293 14.937)" fill="#263238"/>
            <path id="Trazado_642873" data-name="Trazado 642873" d="M188.594,193.114H26.2A25.946,25.946,0,0,1,.258,167.167V165.34A25.946,25.946,0,0,1,26.2,139.393H188.594a25.946,25.946,0,0,1,25.947,25.947v1.828a25.946,25.946,0,0,1-25.947,25.947" transform="translate(0.035 18.739)" fill="#fff"/>
            <path id="Trazado_642874" data-name="Trazado 642874" d="M188.629,193.149s.429-.042,1.266-.094c.417-.034.939-.04,1.555-.111l2.129-.339c.8-.155,1.677-.425,2.652-.669.478-.158.969-.354,1.485-.541a12.168,12.168,0,0,0,1.587-.659,25.019,25.019,0,0,0,6.808-4.555,26.053,26.053,0,0,0,5.984-8.288,25.2,25.2,0,0,0,1.049-2.681c.306-.93.517-1.913.767-2.9.124-1.011.369-2.029.4-3.089.051-1.058.121-2.132.1-3.24,0-1.1-.088-2.213-.154-3.345a28.165,28.165,0,0,0-.623-3.4,25.585,25.585,0,0,0-7.449-12.661,24.306,24.306,0,0,0-6.659-4.495,25.943,25.943,0,0,0-8.107-2.279c-2.866-.242-5.858-.123-8.887-.147l-18.914.017-41.735.027-95.63.023a26.411,26.411,0,0,0-12.016,2.988,26.347,26.347,0,0,0-9.125,8.129A25.845,25.845,0,0,0,.818,162.09a36.123,36.123,0,0,0-.188,6.017L.7,169.6c.029.5.137.984.2,1.476.083.489.132.985.242,1.468l.369,1.437a25.777,25.777,0,0,0,14.841,16.907A27.455,27.455,0,0,0,27.4,192.871l11.158.006,78.105.064,52.655.094,14.315.056,3.723.028c.838.01,1.268.031,1.268.031s-.43.02-1.268.031l-3.723.029-14.315.054-52.655.094-78.105.064-11.158.006a28.057,28.057,0,0,1-11.264-2.017A26.347,26.347,0,0,1,.959,174.134l-.378-1.47c-.112-.493-.163-1-.247-1.5-.067-.5-.177-1-.208-1.51L.05,168.128a36.288,36.288,0,0,1,.191-6.111,26.4,26.4,0,0,1,4.387-11.51,26.912,26.912,0,0,1,9.332-8.316,27,27,0,0,1,12.293-3.058l95.63.024,41.735.027,18.914.017c3.036.032,6-.083,8.934.169A26.382,26.382,0,0,1,199.7,141.7a24.706,24.706,0,0,1,6.753,4.583,25.933,25.933,0,0,1,7.52,12.868,28.24,28.24,0,0,1,.621,3.446c.064,1.145.147,2.279.144,3.382.022,1.1-.053,2.194-.109,3.264-.039,1.072-.289,2.1-.419,3.126-.256,1-.474,1.99-.788,2.929a25.4,25.4,0,0,1-1.072,2.707,26.223,26.223,0,0,1-6.085,8.34,25.053,25.053,0,0,1-6.891,4.546,12.015,12.015,0,0,1-1.6.65c-.523.185-1.018.378-1.5.532-.985.235-1.867.5-2.674.644l-2.143.312c-.618.061-1.143.058-1.562.082-.839.033-1.268.034-1.268.034" transform="translate(0 18.704)" fill="#263238"/>
            <path id="Trazado_642875" data-name="Trazado 642875" d="M33.018,150.419l3.122,6.327a1.682,1.682,0,0,0,1.265.918l6.981,1.015a1.678,1.678,0,0,1,.93,2.863l-5.052,4.925a1.68,1.68,0,0,0-.483,1.486l1.193,6.953a1.68,1.68,0,0,1-2.437,1.771l-6.244-3.283a1.678,1.678,0,0,0-1.563,0l-6.244,3.283a1.68,1.68,0,0,1-2.437-1.771l1.192-6.953a1.676,1.676,0,0,0-.482-1.486l-5.053-4.925a1.679,1.679,0,0,1,.931-2.863l6.981-1.015a1.678,1.678,0,0,0,1.264-.918l3.123-6.327a1.679,1.679,0,0,1,3.011,0" transform="translate(2.312 20.095)" fill="#ffb338"/>
            <path id="Trazado_642876" data-name="Trazado 642876" d="M66.094,150.419l3.122,6.327a1.682,1.682,0,0,0,1.265.918l6.981,1.015a1.678,1.678,0,0,1,.93,2.863l-5.052,4.925a1.68,1.68,0,0,0-.483,1.486l1.193,6.953a1.68,1.68,0,0,1-2.437,1.771l-6.245-3.283a1.676,1.676,0,0,0-1.562,0l-6.245,3.283a1.68,1.68,0,0,1-2.436-1.771l1.192-6.953a1.676,1.676,0,0,0-.482-1.486l-5.053-4.925a1.679,1.679,0,0,1,.931-2.863l6.981-1.015a1.678,1.678,0,0,0,1.264-.918l3.122-6.327a1.68,1.68,0,0,1,3.012,0" transform="translate(6.758 20.095)" fill="#ffb338"/>
            <path id="Trazado_642877" data-name="Trazado 642877" d="M99.405,150.419l3.122,6.327a1.682,1.682,0,0,0,1.265.918l6.981,1.015a1.678,1.678,0,0,1,.93,2.863l-5.052,4.925a1.68,1.68,0,0,0-.483,1.486l1.193,6.953a1.68,1.68,0,0,1-2.437,1.771l-6.245-3.283a1.676,1.676,0,0,0-1.562,0l-6.244,3.283a1.68,1.68,0,0,1-2.437-1.771l1.192-6.953a1.676,1.676,0,0,0-.482-1.486L84.1,161.542a1.679,1.679,0,0,1,.931-2.863l6.981-1.015a1.678,1.678,0,0,0,1.264-.918l3.123-6.327a1.679,1.679,0,0,1,3.011,0" transform="translate(11.236 20.095)" fill="#ffb338"/>
            <path id="Trazado_642878" data-name="Trazado 642878" d="M129.8,150.419l3.122,6.327a1.682,1.682,0,0,0,1.265.918l6.981,1.015a1.678,1.678,0,0,1,.93,2.863l-5.052,4.925a1.68,1.68,0,0,0-.483,1.486l1.192,6.953a1.679,1.679,0,0,1-2.436,1.771l-6.245-3.283a1.676,1.676,0,0,0-1.562,0l-6.245,3.283a1.68,1.68,0,0,1-2.436-1.771l1.192-6.953a1.679,1.679,0,0,0-.482-1.486l-5.053-4.925a1.679,1.679,0,0,1,.931-2.863l6.981-1.015a1.679,1.679,0,0,0,1.264-.918l3.123-6.327a1.679,1.679,0,0,1,3.011,0" transform="translate(15.323 20.095)" fill="#ffb338"/>
            <path id="Trazado_642879" data-name="Trazado 642879" d="M162.516,151.34l3.122,6.327a1.68,1.68,0,0,0,1.265.918l6.981,1.015a1.678,1.678,0,0,1,.93,2.863l-5.052,4.925a1.68,1.68,0,0,0-.483,1.486l1.193,6.953a1.68,1.68,0,0,1-2.437,1.771l-6.245-3.283a1.676,1.676,0,0,0-1.562,0l-6.244,3.283a1.68,1.68,0,0,1-2.437-1.771l1.192-6.953a1.676,1.676,0,0,0-.482-1.486l-5.053-4.925a1.679,1.679,0,0,1,.931-2.863l6.981-1.015a1.676,1.676,0,0,0,1.264-.918l3.123-6.327a1.679,1.679,0,0,1,3.011,0" transform="translate(19.72 20.219)" fill="#e0e0e0"/>
            <path id="Trazado_642880" data-name="Trazado 642880" d="M98.454,150.742l3.952-16.87-53.9-9.342-15.947-15.2S19.416,114.17,13.377,121c-8.765,9.915-1.3,21.547,4.827,23.18s80.25,6.562,80.25,6.562" transform="translate(1.26 14.698)" fill="#ffc09d"/>
            <path id="Trazado_642881" data-name="Trazado 642881" d="M25.285,120.489a3.359,3.359,0,0,1,.859-.1c.555-.035,1.357-.059,2.349-.061a66.864,66.864,0,0,1,7.742.442,57.15,57.15,0,0,1,7.631,1.4c.961.25,1.732.478,2.256.659a3.32,3.32,0,0,1,.8.32c-.02.065-1.2-.259-3.132-.681s-4.616-.915-7.61-1.264-5.722-.5-7.7-.566a31.459,31.459,0,0,1-3.2-.149" transform="translate(3.399 16.177)" fill="#ff9b6c"/>
            <path id="Trazado_642882" data-name="Trazado 642882" d="M84.684,129.976c2.7-.269,12.371,1.266,16.445,2.849,6.6,2.565,9.389,5.427,14.37,6.192s10.867-.085,10.726,2.638-11.007,4.134-11.007,4.134S128.437,161.1,126.786,163.3c-.554.74-2.724,1.285-4.313-.355-3.527-3.64-8.335-8.672-8.335-8.672s.674,12.137-1.74,14.554-4.6.551-4.6.551a3.526,3.526,0,0,1-3.919,1.423c-1.626-.456-2.183-2.712-2.183-2.712s-2.79.648-3.742-2.744c-.9-3.2-2.372-13.208-2.372-13.208s-8.042-4.438-8.377-4.071l-10.046-.936-1.229-14.9Z" transform="translate(10.206 17.469)" fill="#ffc09d"/>
            <path id="Trazado_642883" data-name="Trazado 642883" d="M104.858,149.934a11.352,11.352,0,0,1,.32,2.451,50.776,50.776,0,0,1,.051,5.966,49.611,49.611,0,0,1-.63,5.933,11.2,11.2,0,0,1-.562,2.407,18.418,18.418,0,0,1,.259-2.452c.184-1.508.387-3.6.5-5.91s.11-4.411.076-5.93a18.168,18.168,0,0,1-.014-2.466" transform="translate(13.983 20.156)" fill="#ff9b6c"/>
            <path id="Trazado_642884" data-name="Trazado 642884" d="M98.453,150.117a9.417,9.417,0,0,1,.564,2.22,33.155,33.155,0,0,1,.106,11.021,9.42,9.42,0,0,1-.521,2.23,16.473,16.473,0,0,1,.217-2.271,45.278,45.278,0,0,0-.1-10.934,16.434,16.434,0,0,1-.261-2.267" transform="translate(13.232 20.181)" fill="#ff9b6c"/>
            <path id="Trazado_642885" data-name="Trazado 642885" d="M107.4,139.971a15.5,15.5,0,0,1,4.18,5.164,19.114,19.114,0,0,1-2.147-2.535,19.076,19.076,0,0,1-2.033-2.628" transform="translate(14.437 18.816)" fill="#ff9b6c"/>
            <path id="Trazado_642886" data-name="Trazado 642886" d="M171.635,151.021a7.83,7.83,0,0,0,.793-3.315,38.965,38.965,0,0,1,.463-4.408l.316-7.311a3.274,3.274,0,0,0-6.028-.353c-.4-1.024-.3-1.636-1.18-2.292a3.5,3.5,0,0,0-3.112-.613,2.5,2.5,0,0,0-1.738,2.5,4.069,4.069,0,0,0-6.843.213,4.264,4.264,0,0,0-.554,1.408,1.69,1.69,0,0,0-.073.572.69.69,0,0,0,.1.244c.213.354.482.661.674,1.032.071.14.138.282.2.427a7.725,7.725,0,0,1,.534,2.068,6.722,6.722,0,0,0,.1,1.005,3.792,3.792,0,0,0,.309.58,10.141,10.141,0,0,1,.586,4.143,7.975,7.975,0,0,0,1,4.419c.867,1.264,2.767,1.941,3.98,1a2.006,2.006,0,0,0,1.613,2.108,2.9,2.9,0,0,0,2.626-.968,5.389,5.389,0,0,0,1.2-2.627,2.216,2.216,0,0,0,2.315,2.024,3.412,3.412,0,0,0,2.709-1.863" transform="translate(20.658 17.824)" fill="#ffc09d"/>
            <path id="Trazado_642887" data-name="Trazado 642887" d="M150.586,135.748a3.292,3.292,0,0,0-2.556,1,5.392,5.392,0,0,0-.624,3.648c1.322.178,2,.193,3.322.371.278.037.506-.044.742.107.626.4.6,1.845.884,2.531A2.519,2.519,0,0,0,155.6,144.6a3.378,3.378,0,0,0,1.881-3.114,5.221,5.221,0,0,0-1.512-3.449,7.3,7.3,0,0,0-5.385-2.287" transform="translate(19.807 18.249)" fill="#ffc09d"/>
            <path id="Trazado_642888" data-name="Trazado 642888" d="M160.313,134.585c.246,0,.449,3.915.455,8.743s-.188,8.744-.433,8.744-.449-3.914-.456-8.743.188-8.744.434-8.744" transform="translate(21.492 18.093)" fill="#ff9b6c"/>
            <path id="Trazado_642889" data-name="Trazado 642889" d="M165.673,135.039c.234-.023.74,3.525.585,7.926s-.885,7.908-1.116,7.869c-.254-.037.088-3.555.227-7.9s.049-7.875.3-7.9" transform="translate(22.187 18.154)" fill="#ff9b6c"/>
            <path id="Trazado_642890" data-name="Trazado 642890" d="M151.893,136.216c-.012-.105.615-.279,1.541.087a4.922,4.922,0,0,1,2.552,2.687,9.879,9.879,0,0,1,.786,3.57c-.051,1.089-.82,1.445-.846,1.306-.074-.1.332-.491.218-1.292a17.811,17.811,0,0,0-.971-3.226,5.345,5.345,0,0,0-2.021-2.483c-.706-.444-1.264-.513-1.258-.649" transform="translate(20.418 18.294)" fill="#ff9b6c"/>
          </g>
        </g>
        <g id="Grupo_883517" data-name="Grupo 883517" transform="translate(0 -0.001)">
          <g id="Grupo_883516" data-name="Grupo 883516" clip-path="url(#clip-path-2)">
            <path id="Trazado_642891" data-name="Trazado 642891" d="M392.611,246.751l6.774,1.5a26.457,26.457,0,1,0-4.239-8.479l-.008-.012Z" transform="translate(52.777 27.688)" fill="#fff"/>
            <path id="Trazado_642892" data-name="Trazado 642892" d="M392.611,246.778s.04-.145.141-.444c.11-.321.262-.765.457-1.336.425-1.216,1.039-2.974,1.832-5.246a.1.1,0,0,1,.129-.062.112.112,0,0,1,.054.044l.008.012-.186.082a26.316,26.316,0,0,1-.585-12.761,27.2,27.2,0,0,1,2.966-7.91,26.559,26.559,0,0,1,6.206-7.327,27.129,27.129,0,0,1,9.392-4.939,26.031,26.031,0,0,1,11.444-.824,27.205,27.205,0,0,1,11.333,4.527,26.076,26.076,0,0,1,8.388,9.649,27.373,27.373,0,0,1,2.286,6.171c.2,1.069.414,2.135.529,3.2l.108,1.609.05.8-.029.8a27.136,27.136,0,0,1-3.047,11.945,25.96,25.96,0,0,1-7.518,8.807,27.18,27.18,0,0,1-9.643,4.626,26.652,26.652,0,0,1-9.645.606l-2.214-.379c-.723-.142-1.411-.371-2.1-.548a23.854,23.854,0,0,1-3.825-1.454,26.3,26.3,0,0,1-9.838-8.091l.058.037-5.045-1.178-1.286-.309a3.714,3.714,0,0,1-.421-.112s.166.025.465.085l1.32.269,5.01,1.05a.1.1,0,0,1,.058.037,26.361,26.361,0,0,0,9.816,7.918,23.8,23.8,0,0,0,3.787,1.412c.68.169,1.36.393,2.074.528l2.185.362a26.381,26.381,0,0,0,9.5-.64,26.81,26.81,0,0,0,9.472-4.584,25.56,25.56,0,0,0,7.366-8.667,26.713,26.713,0,0,0,2.976-11.73l.028-.784-.05-.785-.108-1.578c-.112-1.049-.324-2.1-.521-3.143a26.9,26.9,0,0,0-2.243-6.056A25.644,25.644,0,0,0,435.518,211a26.8,26.8,0,0,0-11.12-4.459,25.625,25.625,0,0,0-11.244.785,26.77,26.77,0,0,0-9.255,4.828,26.26,26.26,0,0,0-6.145,7.189,26.979,26.979,0,0,0-2.974,7.789,26.377,26.377,0,0,0,.463,12.639.1.1,0,0,1-.068.127.1.1,0,0,1-.117-.045l-.008-.012.184-.018c-.833,2.227-1.478,3.952-1.923,5.145-.219.575-.389,1.021-.512,1.344-.117.3-.188.466-.188.466" transform="translate(52.777 27.661)" fill="#263238"/>
            <path id="Trazado_642893" data-name="Trazado 642893" d="M411.3,229.651a3.362,3.362,0,1,1-3.362-3.362,3.362,3.362,0,0,1,3.362,3.362" transform="translate(54.385 30.42)" fill="#263238"/>
            <path id="Trazado_642894" data-name="Trazado 642894" d="M421.272,229.651a3.362,3.362,0,1,1-3.362-3.362,3.362,3.362,0,0,1,3.362,3.362" transform="translate(55.725 30.42)" fill="#263238"/>
            <path id="Trazado_642895" data-name="Trazado 642895" d="M431.246,229.651a3.362,3.362,0,1,1-3.362-3.362,3.362,3.362,0,0,1,3.362,3.362" transform="translate(57.066 30.42)" fill="#263238"/>
          </g>
        </g>
        <rect id="Rectángulo_331124" data-name="Rectángulo 331124" width="105.281" height="89.207" transform="translate(194.442 235.041)" fill="#fff"/>
        <rect id="Rectángulo_331125" data-name="Rectángulo 331125" width="105.281" height="9.803" transform="translate(194.442 235.043)" fill="#e0e0e0"/>
        <g id="Grupo_883519" data-name="Grupo 883519" transform="translate(0 -0.001)">
          <g id="Grupo_883518" data-name="Grupo 883518" clip-path="url(#clip-path-2)">
            <path id="Trazado_642896" data-name="Trazado 642896" d="M178.8,211.917a2.155,2.155,0,1,1-2.155-2.155,2.156,2.156,0,0,1,2.155,2.155" transform="translate(23.456 28.198)" fill="#fff"/>
            <path id="Trazado_642897" data-name="Trazado 642897" d="M183.915,211.917a2.155,2.155,0,1,1-2.155-2.155,2.156,2.156,0,0,1,2.155,2.155" transform="translate(24.143 28.198)" fill="#fff"/>
            <path id="Trazado_642898" data-name="Trazado 642898" d="M189.026,211.917a2.155,2.155,0,1,1-2.155-2.155,2.156,2.156,0,0,1,2.155,2.155" transform="translate(24.83 28.198)" fill="#fff"/>
            <rect id="Rectángulo_331126" data-name="Rectángulo 331126" width="105.281" height="30.629" transform="translate(194.442 252.12)" fill="#ffb338"/>
            <rect id="Rectángulo_331127" data-name="Rectángulo 331127" width="16.142" height="16.142" transform="translate(202.71 293.827)" fill="#455a64"/>
            <path id="Trazado_642899" data-name="Trazado 642899" d="M205.566,261.868h-8.7a1.429,1.429,0,1,1,0-2.859h8.7a1.429,1.429,0,1,1,0,2.859" transform="translate(26.271 34.818)" fill="#e0e0e0"/>
            <path id="Trazado_642900" data-name="Trazado 642900" d="M202.265,272.022h-4.6a1.429,1.429,0,0,1,0-2.859h4.6a1.429,1.429,0,1,1,0,2.859" transform="translate(26.379 36.183)" fill="#ffb338"/>
            <path id="Trazado_642901" data-name="Trazado 642901" d="M215.136,266.462H197.018a1.429,1.429,0,1,1,0-2.859h18.118a1.429,1.429,0,1,1,0,2.859" transform="translate(26.292 35.436)" fill="#e0e0e0"/>
            <rect id="Rectángulo_331128" data-name="Rectángulo 331128" width="16.141" height="16.142" transform="translate(252.787 293.827)" fill="#455a64"/>
            <path id="Trazado_642902" data-name="Trazado 642902" d="M249.708,261.868H241a1.429,1.429,0,1,1,0-2.859h8.7a1.429,1.429,0,1,1,0,2.859" transform="translate(32.205 34.818)" fill="#e0e0e0"/>
            <path id="Trazado_642903" data-name="Trazado 642903" d="M246.407,272.022h-4.6a1.429,1.429,0,1,1,0-2.859h4.6a1.429,1.429,0,0,1,0,2.859" transform="translate(32.313 36.183)" fill="#ffb338"/>
            <path id="Trazado_642904" data-name="Trazado 642904" d="M259.278,266.462H241.16a1.429,1.429,0,0,1,0-2.859h18.118a1.429,1.429,0,0,1,0,2.859" transform="translate(32.226 35.436)" fill="#e0e0e0"/>
            <rect id="Rectángulo_331129" data-name="Rectángulo 331129" width="105.281" height="4.315" transform="translate(194.442 319.934)" fill="#e0e0e0"/>
            <path id="Trazado_642905" data-name="Trazado 642905" d="M224.208,233.29H182.26a1.854,1.854,0,0,1,0-3.708h41.949a1.854,1.854,0,0,1,0,3.708" transform="translate(24.251 30.863)" fill="#fff"/>
            <path id="Trazado_642906" data-name="Trazado 642906" d="M193.253,239.391H182.792a1.854,1.854,0,1,1,0-3.707h10.462a1.854,1.854,0,1,1,0,3.707" transform="translate(24.323 31.683)" fill="#fff"/>
            <path id="Trazado_642907" data-name="Trazado 642907" d="M260.135,229.668h-1.116a1.854,1.854,0,0,1,0-3.708h1.116a1.854,1.854,0,1,1,0,3.708" transform="translate(34.569 30.376)" fill="#fff"/>
            <path id="Trazado_642908" data-name="Trazado 642908" d="M253.754,229.668h-1.115a1.854,1.854,0,1,1,0-3.708h1.115a1.854,1.854,0,1,1,0,3.708" transform="translate(33.712 30.376)" fill="#fff"/>
            <path id="Trazado_642909" data-name="Trazado 642909" d="M276.718,296.433s-.018-.573-.027-1.655-.016-2.694-.028-4.775c-.015-4.186-.037-10.3-.065-18.1-.031-15.579-.075-37.847-.128-64.682l.248.248-105.272.048h-.009l.295-.3c-.011,32.342-.023,62.837-.033,89.207l-.262-.262,76.088.132,21.512.069,5.7.031,1.471.016c.332,0,.508.015.508.015s-.157.01-.478.015l-1.443.015-5.651.032-21.453.069-76.257.132h-.262v-.262c-.01-26.37-.022-56.864-.034-89.207v-.295h.305l105.272.047h.248v.248c-.053,26.9-.1,49.222-.128,64.838-.028,7.768-.05,13.866-.065,18.04-.013,2.06-.022,3.643-.028,4.727-.009,1.066-.027,1.6-.027,1.6" transform="translate(23.005 27.818)" fill="#263238"/>
          </g>
        </g>
      </g>
    </g>
    <rect id="Rectángulo_349418" data-name="Rectángulo 349418" width="610" height="495" transform="translate(180 2049)" fill="none"/>
  </g>
</svg>
