<svg xmlns="http://www.w3.org/2000/svg" xmlns:xlink="http://www.w3.org/1999/xlink" width="820" height="347" viewBox="0 0 820 347">
  <defs>
    <clipPath id="clip-path">
      <rect id="Rectángulo_331142" data-name="Rectángulo 331142" width="649.831" height="209.887" fill="none"/>
    </clipPath>
    <clipPath id="clip-path-2">
      <rect id="Rectángulo_331137" data-name="Rectángulo 331137" width="177.268" height="177.268" fill="none"/>
    </clipPath>
    <clipPath id="clip-path-3">
      <path id="Trazado_642914" data-name="Trazado 642914" d="M183.488,104.174A88.634,88.634,0,1,1,94.855,15.539a88.634,88.634,0,0,1,88.633,88.635" transform="translate(-6.22 -15.539)" fill="none"/>
    </clipPath>
    <radialGradient id="radial-gradient" cx="0.5" cy="0.5" r="0.5" gradientTransform="matrix(1, 0, 0, -1, 0, 2.033)" gradientUnits="objectBoundingBox">
      <stop offset="0" stop-color="#acc2d4"/>
      <stop offset="0.684" stop-color="#acc2d4"/>
      <stop offset="0.725" stop-color="#baccdb"/>
      <stop offset="0.844" stop-color="#dfe8ee"/>
      <stop offset="0.94" stop-color="#f6f8fa"/>
      <stop offset="1" stop-color="#fff"/>
    </radialGradient>
    <clipPath id="clip-path-5">
      <path id="Trazado_642920" data-name="Trazado 642920" d="M300.39,104.174a88.634,88.634,0,1,1-88.635-88.635,88.634,88.634,0,0,1,88.635,88.635" transform="translate(-123.122 -15.539)" fill="none"/>
    </clipPath>
    <radialGradient id="radial-gradient-2" xlink:href="#radial-gradient"/>
    <clipPath id="clip-path-6">
      <rect id="Rectángulo_331141" data-name="Rectángulo 331141" width="177.266" height="177.268" fill="none"/>
    </clipPath>
    <clipPath id="clip-path-7">
      <path id="Trazado_642926" data-name="Trazado 642926" d="M417.29,104.174a88.633,88.633,0,1,1-88.633-88.635,88.633,88.633,0,0,1,88.633,88.635" transform="translate(-240.024 -15.539)" fill="none"/>
    </clipPath>
    <radialGradient id="radial-gradient-3" xlink:href="#radial-gradient"/>
  </defs>
  <g id="Grupo_1034547" data-name="Grupo 1034547" transform="translate(-390 -4036.516)">
    <path id="Trazado_646255" data-name="Trazado 646255" d="M89.984,11.148a4.154,4.154,0,0,1-.641,2.1,3.866,3.866,0,0,1-1.645,1.41,5.6,5.6,0,0,1-2.418.5A4.467,4.467,0,0,1,81.75,13.7,6.032,6.032,0,0,1,80.461,9.57V9.008a6.885,6.885,0,0,1,.582-2.926,4.41,4.41,0,0,1,1.676-1.937,4.676,4.676,0,0,1,2.531-.684,4.9,4.9,0,0,1,3.328,1.09,4.306,4.306,0,0,1,1.43,3H87.273a2.037,2.037,0,0,0-.523-1.492,2.153,2.153,0,0,0-1.5-.453,1.638,1.638,0,0,0-1.5.766,4.921,4.921,0,0,0-.5,2.445v.8a5.445,5.445,0,0,0,.457,2.6,1.672,1.672,0,0,0,1.574.781,2.106,2.106,0,0,0,1.445-.445,1.89,1.89,0,0,0,.531-1.414ZM95.922,15a2.973,2.973,0,0,1-.25-.758,2.448,2.448,0,0,1-2.031.914,3,3,0,0,1-2.031-.723,2.3,2.3,0,0,1-.836-1.816,2.364,2.364,0,0,1,1.016-2.078,5.174,5.174,0,0,1,2.953-.7h.813V9.388q0-1.17-1.008-1.17a.824.824,0,0,0-.937.926H90.977a2.36,2.36,0,0,1,1.043-1.99,4.383,4.383,0,0,1,2.66-.765,3.843,3.843,0,0,1,2.555.789A2.743,2.743,0,0,1,98.2,9.344v3.742a3.832,3.832,0,0,0,.359,1.781V15Zm-1.648-1.719a1.469,1.469,0,0,0,.816-.211,1.322,1.322,0,0,0,.465-.477V11.242h-.766q-1.375,0-1.375,1.234a.754.754,0,0,0,.242.582A.876.876,0,0,0,94.273,13.281Zm7.8-6.734.086.992a2.867,2.867,0,0,1,2.414-1.148,2.412,2.412,0,0,1,1.973.789,3.757,3.757,0,0,1,.676,2.375V15h-2.641V9.664a1.426,1.426,0,0,0-.258-.941,1.193,1.193,0,0,0-.937-.3,1.256,1.256,0,0,0-1.148.609V15H99.6V6.547ZM113.438,15a2.973,2.973,0,0,1-.25-.758,2.448,2.448,0,0,1-2.031.914,3,3,0,0,1-2.031-.723,2.3,2.3,0,0,1-.836-1.816,2.364,2.364,0,0,1,1.016-2.078,5.174,5.174,0,0,1,2.953-.7h.813V9.388q0-1.17-1.008-1.17a.824.824,0,0,0-.937.926h-2.633a2.36,2.36,0,0,1,1.043-1.99,4.383,4.383,0,0,1,2.66-.765,3.843,3.843,0,0,1,2.555.789,2.743,2.743,0,0,1,.961,2.164v3.742a3.832,3.832,0,0,0,.359,1.781V15Zm-1.648-1.719a1.469,1.469,0,0,0,.816-.211,1.322,1.322,0,0,0,.465-.477V11.242H112.3q-1.375,0-1.375,1.234a.754.754,0,0,0,.242.582A.876.876,0,0,0,111.789,13.281ZM119.945,15H117.3V3h2.641Zm5.711.156A4.345,4.345,0,0,1,122.508,14a4.006,4.006,0,0,1-1.2-3.02v-.219a5.191,5.191,0,0,1,.48-2.289,3.516,3.516,0,0,1,1.4-1.535,4.233,4.233,0,0,1,2.188-.543A3.659,3.659,0,0,1,128.188,7.5a4.344,4.344,0,0,1,1.031,3.082V11.6h-5.234a1.9,1.9,0,0,0,.617,1.117,1.836,1.836,0,0,0,1.234.406,2.366,2.366,0,0,0,1.953-.875l1.2,1.422a3.363,3.363,0,0,1-1.395,1.082A4.713,4.713,0,0,1,125.656,15.156Zm-.3-6.734q-1.156,0-1.375,1.531h2.656v-.2a1.3,1.3,0,0,0-.32-.98A1.275,1.275,0,0,0,125.359,8.422Zm9.344,4.2a.608.608,0,0,0-.352-.539,5.348,5.348,0,0,0-1.336-.422,6.092,6.092,0,0,1-1.625-.574,2.722,2.722,0,0,1-.977-.863,2.061,2.061,0,0,1-.336-1.164,2.336,2.336,0,0,1,.961-1.918,3.958,3.958,0,0,1,2.516-.754,4.386,4.386,0,0,1,2.688.758,2.37,2.37,0,0,1,1.016,1.992h-2.641q0-1.016-1.07-1.016a1.061,1.061,0,0,0-.7.23.714.714,0,0,0-.281.574.655.655,0,0,0,.344.57,3.248,3.248,0,0,0,1.1.359,9.485,9.485,0,0,1,1.324.336,2.406,2.406,0,0,1,1.906,2.352,2.214,2.214,0,0,1-1.027,1.883,4.505,4.505,0,0,1-2.66.727,4.6,4.6,0,0,1-1.937-.391,3.24,3.24,0,0,1-1.328-1.062,2.406,2.406,0,0,1-.477-1.414h2.461a1.017,1.017,0,0,0,.391.855,1.607,1.607,0,0,0,.961.27,1.264,1.264,0,0,0,.809-.219A.7.7,0,0,0,134.7,12.625Zm15.6-1.789a5.1,5.1,0,0,1-.887,3.145,2.843,2.843,0,0,1-2.395,1.176,2.437,2.437,0,0,1-1.914-.852V18.25h-2.633V6.547h2.461l.078.781a2.437,2.437,0,0,1,1.992-.937,2.866,2.866,0,0,1,2.43,1.152,5.16,5.16,0,0,1,.867,3.168Zm-2.633-.164q0-2.25-1.312-2.25a1.239,1.239,0,0,0-1.25.672v3.328a1.279,1.279,0,0,0,1.266.7q1.258,0,1.3-2.172Zm8.906-1.742-.867-.062a1.558,1.558,0,0,0-1.594.781V15h-2.633V6.547h2.469l.086,1.086a2.039,2.039,0,0,1,1.852-1.242,2.567,2.567,0,0,1,.734.094Zm.336,1.766a4.989,4.989,0,0,1,.492-2.254,3.52,3.52,0,0,1,1.414-1.52,4.259,4.259,0,0,1,2.164-.531,3.887,3.887,0,0,1,2.992,1.176,4.512,4.512,0,0,1,1.094,3.2v.094a4.378,4.378,0,0,1-1.1,3.137A3.9,3.9,0,0,1,161,15.156a3.942,3.942,0,0,1-2.9-1.082,4.232,4.232,0,0,1-1.18-2.934Zm2.633.164a3.145,3.145,0,0,0,.367,1.719,1.223,1.223,0,0,0,1.086.547q1.406,0,1.438-2.164V10.7q0-2.273-1.453-2.273-1.32,0-1.43,1.961Zm14.531-.023a5.1,5.1,0,0,1-.887,3.145,2.843,2.843,0,0,1-2.395,1.176,2.437,2.437,0,0,1-1.914-.852V18.25H166.25V6.547h2.461l.078.781a2.437,2.437,0,0,1,1.992-.937,2.866,2.866,0,0,1,2.43,1.152,5.16,5.16,0,0,1,.867,3.168Zm-2.633-.164q0-2.25-1.312-2.25a1.239,1.239,0,0,0-1.25.672v3.328a1.279,1.279,0,0,0,1.266.7q1.258,0,1.3-2.172ZM178.016,15h-2.641V6.547h2.641Zm-2.8-10.641a1.186,1.186,0,0,1,.406-.927,1.719,1.719,0,0,1,2.109,0,1.186,1.186,0,0,1,.406.927,1.186,1.186,0,0,1-.406.927,1.719,1.719,0,0,1-2.109,0A1.186,1.186,0,0,1,175.219,4.359ZM179.3,10.7a4.989,4.989,0,0,1,.492-2.254,3.52,3.52,0,0,1,1.414-1.52,4.259,4.259,0,0,1,2.164-.531,3.887,3.887,0,0,1,2.992,1.176,4.512,4.512,0,0,1,1.094,3.2v.094a4.378,4.378,0,0,1-1.1,3.137,3.9,3.9,0,0,1-2.973,1.16,3.942,3.942,0,0,1-2.9-1.082,4.232,4.232,0,0,1-1.18-2.934Zm2.633.164a3.145,3.145,0,0,0,.367,1.719,1.223,1.223,0,0,0,1.086.547q1.406,0,1.438-2.164V10.7q0-2.273-1.453-2.273-1.32,0-1.43,1.961Zm11.109,1.766a.608.608,0,0,0-.352-.539,5.348,5.348,0,0,0-1.336-.422,6.092,6.092,0,0,1-1.625-.574,2.722,2.722,0,0,1-.977-.863,2.061,2.061,0,0,1-.336-1.164,2.336,2.336,0,0,1,.961-1.918,3.958,3.958,0,0,1,2.516-.754,4.386,4.386,0,0,1,2.688.758A2.37,2.37,0,0,1,195.6,9.141h-2.641q0-1.016-1.07-1.016a1.061,1.061,0,0,0-.7.23.714.714,0,0,0-.281.574.655.655,0,0,0,.344.57,3.248,3.248,0,0,0,1.1.359,9.485,9.485,0,0,1,1.324.336,2.406,2.406,0,0,1,1.906,2.352,2.214,2.214,0,0,1-1.027,1.883,4.505,4.505,0,0,1-2.66.727,4.6,4.6,0,0,1-1.937-.391,3.24,3.24,0,0,1-1.328-1.062,2.406,2.406,0,0,1-.477-1.414h2.461a1.017,1.017,0,0,0,.391.855,1.607,1.607,0,0,0,.961.27,1.264,1.264,0,0,0,.809-.219A.7.7,0,0,0,193.047,12.625Z" transform="translate(450 4036.731)" fill="#12263f"/>
    <path id="Trazado_646256" data-name="Trazado 646256" d="M95.223,11.148a4.154,4.154,0,0,1-.641,2.1,3.866,3.866,0,0,1-1.645,1.41,5.6,5.6,0,0,1-2.418.5A4.467,4.467,0,0,1,86.988,13.7,6.032,6.032,0,0,1,85.7,9.57V9.008a6.885,6.885,0,0,1,.582-2.926,4.41,4.41,0,0,1,1.676-1.937,4.676,4.676,0,0,1,2.531-.684,4.9,4.9,0,0,1,3.328,1.09,4.306,4.306,0,0,1,1.43,3H92.512a2.037,2.037,0,0,0-.523-1.492,2.153,2.153,0,0,0-1.5-.453,1.638,1.638,0,0,0-1.5.766,4.921,4.921,0,0,0-.5,2.445v.8a5.445,5.445,0,0,0,.457,2.6,1.672,1.672,0,0,0,1.574.781,2.106,2.106,0,0,0,1.445-.445,1.89,1.89,0,0,0,.531-1.414ZM101.16,15a2.973,2.973,0,0,1-.25-.758,2.448,2.448,0,0,1-2.031.914,3,3,0,0,1-2.031-.723,2.3,2.3,0,0,1-.836-1.816,2.364,2.364,0,0,1,1.016-2.078,5.174,5.174,0,0,1,2.953-.7h.813V9.388q0-1.17-1.008-1.17a.824.824,0,0,0-.937.926H96.215a2.36,2.36,0,0,1,1.043-1.99,4.383,4.383,0,0,1,2.66-.765,3.843,3.843,0,0,1,2.555.789,2.743,2.743,0,0,1,.961,2.164v3.742a3.832,3.832,0,0,0,.359,1.781V15Zm-1.648-1.719a1.469,1.469,0,0,0,.816-.211,1.322,1.322,0,0,0,.465-.477V11.242h-.766q-1.375,0-1.375,1.234a.754.754,0,0,0,.242.582A.876.876,0,0,0,99.512,13.281Zm7.8-6.734.086.992a2.867,2.867,0,0,1,2.414-1.148,2.412,2.412,0,0,1,1.973.789,3.757,3.757,0,0,1,.676,2.375V15h-2.641V9.664a1.426,1.426,0,0,0-.258-.941,1.193,1.193,0,0,0-.937-.3,1.256,1.256,0,0,0-1.148.609V15H104.84V6.547ZM118.676,15a2.973,2.973,0,0,1-.25-.758,2.448,2.448,0,0,1-2.031.914,3,3,0,0,1-2.031-.723,2.3,2.3,0,0,1-.836-1.816,2.364,2.364,0,0,1,1.016-2.078,5.174,5.174,0,0,1,2.953-.7h.813V9.388q0-1.17-1.008-1.17a.824.824,0,0,0-.937.926H113.73a2.36,2.36,0,0,1,1.043-1.99,4.383,4.383,0,0,1,2.66-.765,3.843,3.843,0,0,1,2.555.789,2.743,2.743,0,0,1,.961,2.164v3.742a3.832,3.832,0,0,0,.359,1.781V15Zm-1.648-1.719a1.469,1.469,0,0,0,.816-.211,1.322,1.322,0,0,0,.465-.477V11.242h-.766q-1.375,0-1.375,1.234a.754.754,0,0,0,.242.582A.876.876,0,0,0,117.027,13.281ZM125.184,15h-2.641V3h2.641Zm5.711.156A4.345,4.345,0,0,1,127.746,14a4.006,4.006,0,0,1-1.2-3.02v-.219a5.191,5.191,0,0,1,.48-2.289,3.516,3.516,0,0,1,1.4-1.535,4.233,4.233,0,0,1,2.188-.543A3.659,3.659,0,0,1,133.426,7.5a4.344,4.344,0,0,1,1.031,3.082V11.6h-5.234a1.9,1.9,0,0,0,.617,1.117,1.836,1.836,0,0,0,1.234.406,2.366,2.366,0,0,0,1.953-.875l1.2,1.422a3.363,3.363,0,0,1-1.395,1.082A4.713,4.713,0,0,1,130.895,15.156Zm-.3-6.734q-1.156,0-1.375,1.531h2.656v-.2a1.3,1.3,0,0,0-.32-.98A1.275,1.275,0,0,0,130.6,8.422Zm9.344,4.2a.608.608,0,0,0-.352-.539,5.348,5.348,0,0,0-1.336-.422,6.092,6.092,0,0,1-1.625-.574,2.722,2.722,0,0,1-.977-.863,2.061,2.061,0,0,1-.336-1.164,2.336,2.336,0,0,1,.961-1.918,3.958,3.958,0,0,1,2.516-.754,4.386,4.386,0,0,1,2.688.758A2.37,2.37,0,0,1,142.5,9.141h-2.641q0-1.016-1.07-1.016a1.061,1.061,0,0,0-.7.23.714.714,0,0,0-.281.574.655.655,0,0,0,.344.57,3.248,3.248,0,0,0,1.1.359,9.485,9.485,0,0,1,1.324.336,2.406,2.406,0,0,1,1.906,2.352,2.214,2.214,0,0,1-1.027,1.883,4.505,4.505,0,0,1-2.66.727,4.6,4.6,0,0,1-1.937-.391,3.24,3.24,0,0,1-1.328-1.062,2.406,2.406,0,0,1-.477-1.414h2.461a1.017,1.017,0,0,0,.391.855,1.607,1.607,0,0,0,.961.27,1.264,1.264,0,0,0,.809-.219A.7.7,0,0,0,139.941,12.625Zm15.6-1.789a5.1,5.1,0,0,1-.887,3.145,2.843,2.843,0,0,1-2.395,1.176,2.437,2.437,0,0,1-1.914-.852V18.25h-2.633V6.547h2.461l.078.781a2.437,2.437,0,0,1,1.992-.937,2.866,2.866,0,0,1,2.43,1.152,5.16,5.16,0,0,1,.867,3.168Zm-2.633-.164q0-2.25-1.312-2.25a1.239,1.239,0,0,0-1.25.672v3.328a1.279,1.279,0,0,0,1.266.7q1.258,0,1.3-2.172ZM161.465,15a2.973,2.973,0,0,1-.25-.758,2.448,2.448,0,0,1-2.031.914,3,3,0,0,1-2.031-.723,2.3,2.3,0,0,1-.836-1.816,2.364,2.364,0,0,1,1.016-2.078,5.174,5.174,0,0,1,2.953-.7h.813V9.388q0-1.17-1.008-1.17a.824.824,0,0,0-.937.926H156.52a2.36,2.36,0,0,1,1.043-1.99,4.383,4.383,0,0,1,2.66-.765,3.843,3.843,0,0,1,2.555.789,2.743,2.743,0,0,1,.961,2.164v3.742a3.832,3.832,0,0,0,.359,1.781V15Zm-1.648-1.719a1.469,1.469,0,0,0,.816-.211,1.322,1.322,0,0,0,.465-.477V11.242h-.766q-1.375,0-1.375,1.234a.754.754,0,0,0,.242.582A.876.876,0,0,0,159.816,13.281Zm5.07-2.57a5.708,5.708,0,0,1,.422-2.266,3.4,3.4,0,0,1,1.211-1.52,3.192,3.192,0,0,1,1.836-.535,2.538,2.538,0,0,1,2.063.891l.094-.734H172.9V14.68a3.564,3.564,0,0,1-.52,1.941,3.334,3.334,0,0,1-1.5,1.266,5.528,5.528,0,0,1-2.281.441,4.769,4.769,0,0,1-1.8-.352,3.251,3.251,0,0,1-1.332-.914l1.1-1.547a2.414,2.414,0,0,0,1.938.867,1.568,1.568,0,0,0,1.75-1.8V14.32a2.472,2.472,0,0,1-1.914.836,3.055,3.055,0,0,1-2.5-1.184,4.9,4.9,0,0,1-.953-3.168Zm2.641.164a3.007,3.007,0,0,0,.391,1.645,1.232,1.232,0,0,0,1.094.605,1.4,1.4,0,0,0,1.242-.57V9a1.363,1.363,0,0,0-1.227-.578,1.241,1.241,0,0,0-1.1.629A3.429,3.429,0,0,0,167.527,10.875Zm6.539-.18a4.989,4.989,0,0,1,.492-2.254,3.52,3.52,0,0,1,1.414-1.52,4.259,4.259,0,0,1,2.164-.531,3.887,3.887,0,0,1,2.992,1.176,4.512,4.512,0,0,1,1.094,3.2v.094a4.378,4.378,0,0,1-1.1,3.137,3.9,3.9,0,0,1-2.973,1.16,3.942,3.942,0,0,1-2.9-1.082,4.232,4.232,0,0,1-1.18-2.934Zm2.633.164a3.145,3.145,0,0,0,.367,1.719,1.223,1.223,0,0,0,1.086.547q1.406,0,1.438-2.164V10.7q0-2.273-1.453-2.273-1.32,0-1.43,1.961Zm11.109,1.766a.608.608,0,0,0-.352-.539,5.348,5.348,0,0,0-1.336-.422,6.092,6.092,0,0,1-1.625-.574,2.722,2.722,0,0,1-.977-.863,2.061,2.061,0,0,1-.336-1.164,2.336,2.336,0,0,1,.961-1.918,3.958,3.958,0,0,1,2.516-.754,4.386,4.386,0,0,1,2.688.758,2.37,2.37,0,0,1,1.016,1.992h-2.641q0-1.016-1.07-1.016a1.061,1.061,0,0,0-.7.23.714.714,0,0,0-.281.574.655.655,0,0,0,.344.57,3.248,3.248,0,0,0,1.1.359,9.485,9.485,0,0,1,1.324.336,2.406,2.406,0,0,1,1.906,2.352,2.214,2.214,0,0,1-1.027,1.883,4.505,4.505,0,0,1-2.66.727,4.6,4.6,0,0,1-1.937-.391,3.24,3.24,0,0,1-1.328-1.062,2.406,2.406,0,0,1-.477-1.414h2.461a1.017,1.017,0,0,0,.391.855,1.607,1.607,0,0,0,.961.27,1.264,1.264,0,0,0,.809-.219A.7.7,0,0,0,187.809,12.625Z" transform="translate(672 4357.731)" fill="#12263f"/>
    <path id="Trazado_646257" data-name="Trazado 646257" d="M86.469,11.148a4.154,4.154,0,0,1-.641,2.1,3.866,3.866,0,0,1-1.645,1.41,5.6,5.6,0,0,1-2.418.5A4.467,4.467,0,0,1,78.234,13.7,6.032,6.032,0,0,1,76.945,9.57V9.008a6.885,6.885,0,0,1,.582-2.926A4.41,4.41,0,0,1,79.2,4.145a4.676,4.676,0,0,1,2.531-.684,4.9,4.9,0,0,1,3.328,1.09,4.306,4.306,0,0,1,1.43,3H83.758a2.037,2.037,0,0,0-.523-1.492,2.153,2.153,0,0,0-1.5-.453,1.638,1.638,0,0,0-1.5.766,4.921,4.921,0,0,0-.5,2.445v.8a5.445,5.445,0,0,0,.457,2.6,1.672,1.672,0,0,0,1.574.781,2.106,2.106,0,0,0,1.445-.445,1.89,1.89,0,0,0,.531-1.414ZM92.406,15a2.973,2.973,0,0,1-.25-.758,2.448,2.448,0,0,1-2.031.914,3,3,0,0,1-2.031-.723,2.3,2.3,0,0,1-.836-1.816,2.364,2.364,0,0,1,1.016-2.078,5.174,5.174,0,0,1,2.953-.7h.813V9.388q0-1.17-1.008-1.17a.824.824,0,0,0-.937.926H87.461A2.36,2.36,0,0,1,88.5,7.155a4.383,4.383,0,0,1,2.66-.765,3.843,3.843,0,0,1,2.555.789,2.743,2.743,0,0,1,.961,2.164v3.742a3.832,3.832,0,0,0,.359,1.781V15Zm-1.648-1.719a1.469,1.469,0,0,0,.816-.211,1.322,1.322,0,0,0,.465-.477V11.242h-.766q-1.375,0-1.375,1.234a.754.754,0,0,0,.242.582A.876.876,0,0,0,90.758,13.281Zm7.8-6.734.086.992a2.867,2.867,0,0,1,2.414-1.148,2.412,2.412,0,0,1,1.973.789,3.757,3.757,0,0,1,.676,2.375V15h-2.641V9.664a1.426,1.426,0,0,0-.258-.941,1.193,1.193,0,0,0-.937-.3,1.256,1.256,0,0,0-1.148.609V15H96.086V6.547ZM109.922,15a2.973,2.973,0,0,1-.25-.758,2.448,2.448,0,0,1-2.031.914,3,3,0,0,1-2.031-.723,2.3,2.3,0,0,1-.836-1.816,2.364,2.364,0,0,1,1.016-2.078,5.174,5.174,0,0,1,2.953-.7h.813V9.388q0-1.17-1.008-1.17a.824.824,0,0,0-.937.926h-2.633a2.36,2.36,0,0,1,1.043-1.99,4.383,4.383,0,0,1,2.66-.765,3.843,3.843,0,0,1,2.555.789,2.743,2.743,0,0,1,.961,2.164v3.742a3.832,3.832,0,0,0,.359,1.781V15Zm-1.648-1.719a1.469,1.469,0,0,0,.816-.211,1.322,1.322,0,0,0,.465-.477V11.242h-.766q-1.375,0-1.375,1.234a.754.754,0,0,0,.242.582A.876.876,0,0,0,108.273,13.281ZM116.43,15h-2.641V3h2.641Zm5.711.156A4.345,4.345,0,0,1,118.992,14a4.006,4.006,0,0,1-1.2-3.02v-.219a5.191,5.191,0,0,1,.48-2.289,3.516,3.516,0,0,1,1.4-1.535,4.233,4.233,0,0,1,2.188-.543A3.659,3.659,0,0,1,124.672,7.5a4.344,4.344,0,0,1,1.031,3.082V11.6h-5.234a1.9,1.9,0,0,0,.617,1.117,1.836,1.836,0,0,0,1.234.406,2.366,2.366,0,0,0,1.953-.875l1.2,1.422a3.363,3.363,0,0,1-1.395,1.082A4.713,4.713,0,0,1,122.141,15.156Zm-.3-6.734q-1.156,0-1.375,1.531h2.656v-.2a1.3,1.3,0,0,0-.32-.98A1.275,1.275,0,0,0,121.844,8.422Zm9.344,4.2a.608.608,0,0,0-.352-.539,5.348,5.348,0,0,0-1.336-.422,6.092,6.092,0,0,1-1.625-.574,2.722,2.722,0,0,1-.977-.863,2.061,2.061,0,0,1-.336-1.164,2.336,2.336,0,0,1,.961-1.918,3.958,3.958,0,0,1,2.516-.754,4.386,4.386,0,0,1,2.688.758,2.37,2.37,0,0,1,1.016,1.992H131.1q0-1.016-1.07-1.016a1.061,1.061,0,0,0-.7.23.714.714,0,0,0-.281.574.655.655,0,0,0,.344.57,3.248,3.248,0,0,0,1.1.359,9.485,9.485,0,0,1,1.324.336,2.406,2.406,0,0,1,1.906,2.352A2.214,2.214,0,0,1,132.7,14.43a4.505,4.505,0,0,1-2.66.727,4.6,4.6,0,0,1-1.937-.391,3.24,3.24,0,0,1-1.328-1.062,2.406,2.406,0,0,1-.477-1.414h2.461a1.017,1.017,0,0,0,.391.855,1.607,1.607,0,0,0,.961.27,1.264,1.264,0,0,0,.809-.219A.7.7,0,0,0,131.188,12.625Zm7.445-1.914a5.708,5.708,0,0,1,.422-2.266,3.4,3.4,0,0,1,1.211-1.52,3.192,3.192,0,0,1,1.836-.535,2.538,2.538,0,0,1,2.063.891l.094-.734h2.391V14.68a3.564,3.564,0,0,1-.52,1.941,3.334,3.334,0,0,1-1.5,1.266,5.528,5.528,0,0,1-2.281.441,4.769,4.769,0,0,1-1.8-.352,3.251,3.251,0,0,1-1.332-.914l1.1-1.547a2.414,2.414,0,0,0,1.938.867,1.568,1.568,0,0,0,1.75-1.8V14.32a2.472,2.472,0,0,1-1.914.836,3.055,3.055,0,0,1-2.5-1.184,4.9,4.9,0,0,1-.953-3.168Zm2.641.164a3.007,3.007,0,0,0,.391,1.645,1.232,1.232,0,0,0,1.094.605,1.4,1.4,0,0,0,1.242-.57V9a1.363,1.363,0,0,0-1.227-.578,1.241,1.241,0,0,0-1.1.629A3.429,3.429,0,0,0,141.273,10.875ZM152.906,15a2.973,2.973,0,0,1-.25-.758,2.448,2.448,0,0,1-2.031.914,3,3,0,0,1-2.031-.723,2.3,2.3,0,0,1-.836-1.816,2.364,2.364,0,0,1,1.016-2.078,5.174,5.174,0,0,1,2.953-.7h.813V9.388q0-1.17-1.008-1.17a.824.824,0,0,0-.937.926h-2.633A2.36,2.36,0,0,1,149,7.155a4.383,4.383,0,0,1,2.66-.765,3.843,3.843,0,0,1,2.555.789,2.743,2.743,0,0,1,.961,2.164v3.742a3.832,3.832,0,0,0,.359,1.781V15Zm-1.648-1.719a1.469,1.469,0,0,0,.816-.211,1.322,1.322,0,0,0,.465-.477V11.242h-.766q-1.375,0-1.375,1.234a.754.754,0,0,0,.242.582A.876.876,0,0,0,151.258,13.281Zm7.8-6.734.086.992a2.867,2.867,0,0,1,2.414-1.148,2.412,2.412,0,0,1,1.973.789,3.757,3.757,0,0,1,.676,2.375V15h-2.641V9.664a1.426,1.426,0,0,0-.258-.941,1.193,1.193,0,0,0-.937-.3,1.256,1.256,0,0,0-1.148.609V15h-2.633V6.547ZM170.422,15a2.973,2.973,0,0,1-.25-.758,2.448,2.448,0,0,1-2.031.914,3,3,0,0,1-2.031-.723,2.3,2.3,0,0,1-.836-1.816,2.364,2.364,0,0,1,1.016-2.078,5.174,5.174,0,0,1,2.953-.7h.813V9.388q0-1.17-1.008-1.17a.824.824,0,0,0-.937.926h-2.633a2.36,2.36,0,0,1,1.043-1.99,4.383,4.383,0,0,1,2.66-.765,3.843,3.843,0,0,1,2.555.789,2.743,2.743,0,0,1,.961,2.164v3.742a3.832,3.832,0,0,0,.359,1.781V15Zm-1.648-1.719a1.469,1.469,0,0,0,.816-.211,1.322,1.322,0,0,0,.465-.477V11.242h-.766q-1.375,0-1.375,1.234a.754.754,0,0,0,.242.582A.876.876,0,0,0,168.773,13.281Zm5.047-2.57a5.164,5.164,0,0,1,.867-3.164,2.854,2.854,0,0,1,2.422-1.156,2.428,2.428,0,0,1,1.906.891V3h2.641V15h-2.367l-.133-.906a2.493,2.493,0,0,1-2.062,1.063A2.849,2.849,0,0,1,174.7,14,5.327,5.327,0,0,1,173.82,10.711Zm2.633.164q0,2.25,1.313,2.25a1.3,1.3,0,0,0,1.25-.734V9.172a1.261,1.261,0,0,0-1.234-.75q-1.219,0-1.32,1.969Zm6.367-.18a4.989,4.989,0,0,1,.492-2.254,3.52,3.52,0,0,1,1.414-1.52,4.259,4.259,0,0,1,2.164-.531,3.887,3.887,0,0,1,2.992,1.176,4.512,4.512,0,0,1,1.094,3.2v.094a4.378,4.378,0,0,1-1.1,3.137,3.9,3.9,0,0,1-2.973,1.16,3.942,3.942,0,0,1-2.9-1.082,4.232,4.232,0,0,1-1.18-2.934Zm2.633.164a3.145,3.145,0,0,0,.367,1.719,1.223,1.223,0,0,0,1.086.547q1.406,0,1.438-2.164V10.7q0-2.273-1.453-2.273-1.32,0-1.43,1.961Zm11.109,1.766a.608.608,0,0,0-.352-.539,5.348,5.348,0,0,0-1.336-.422,6.092,6.092,0,0,1-1.625-.574,2.722,2.722,0,0,1-.977-.863,2.061,2.061,0,0,1-.336-1.164,2.336,2.336,0,0,1,.961-1.918,3.958,3.958,0,0,1,2.516-.754,4.386,4.386,0,0,1,2.688.758,2.37,2.37,0,0,1,1.016,1.992h-2.641q0-1.016-1.07-1.016a1.061,1.061,0,0,0-.7.23.714.714,0,0,0-.281.574.655.655,0,0,0,.344.57,3.248,3.248,0,0,0,1.1.359,9.485,9.485,0,0,1,1.324.336,2.406,2.406,0,0,1,1.906,2.352,2.214,2.214,0,0,1-1.027,1.883,4.505,4.505,0,0,1-2.66.727,4.6,4.6,0,0,1-1.937-.391,3.24,3.24,0,0,1-1.328-1.062,2.406,2.406,0,0,1-.477-1.414h2.461a1.017,1.017,0,0,0,.391.855,1.607,1.607,0,0,0,.961.27,1.264,1.264,0,0,0,.809-.219A.7.7,0,0,0,196.563,12.625Z" transform="translate(893 4036.731)" fill="#12263f"/>
    <g id="Grupo_883557" data-name="Grupo 883557" transform="translate(485.085 4095.205)">
      <g id="Grupo_883556" data-name="Grupo 883556" clip-path="url(#clip-path)">
        <g id="Grupo_883545" data-name="Grupo 883545" transform="translate(11.883 29.685)" style="mix-blend-mode: multiply;isolation: isolate">
          <g id="Grupo_883544" data-name="Grupo 883544">
            <g id="Grupo_883543" data-name="Grupo 883543" clip-path="url(#clip-path-2)">
              <g id="Grupo_883542" data-name="Grupo 883542" transform="translate(-0.001 0)">
                <g id="Grupo_883541" data-name="Grupo 883541" clip-path="url(#clip-path-3)">
                  <rect id="Rectángulo_331136" data-name="Rectángulo 331136" width="177.268" height="177.268" transform="translate(0 0)" fill="url(#radial-gradient)"/>
                </g>
              </g>
            </g>
          </g>
        </g>
        <path id="Trazado_642915" data-name="Trazado 642915" d="M167.612,91.863a77.5,77.5,0,1,1-77.5-77.5,77.5,77.5,0,0,1,77.5,77.5" transform="translate(11.482 13.075)" fill="#fff"/>
        <path id="Trazado_642916" data-name="Trazado 642916" d="M156.3,88.211A69.837,69.837,0,1,1,86.461,18.374,69.838,69.838,0,0,1,156.3,88.211" transform="translate(15.133 16.726)" fill="#2b95f9"/>
        <path id="Trazado_642917" data-name="Trazado 642917" d="M4.182,96.751c-.038,0-.075,0-.113,0A1.739,1.739,0,0,1,2.446,94.9,97.134,97.134,0,0,1,196.3,94.894a1.738,1.738,0,1,1-3.469.224,93.657,93.657,0,0,0-186.917.006,1.739,1.739,0,0,1-1.733,1.628" transform="translate(2.223 3.72)" fill="#2b95f9"/>
        <path id="Trazado_642918" data-name="Trazado 642918" d="M13.059,54.958a6.534,6.534,0,1,1-6.2-6.854,6.533,6.533,0,0,1,6.2,6.854" transform="translate(0 43.782)" fill="#2b95f9"/>
        <path id="Trazado_642919" data-name="Trazado 642919" d="M99.533,54.958a6.534,6.534,0,1,0,6.2-6.854,6.533,6.533,0,0,0-6.2,6.854" transform="translate(90.599 43.782)" fill="#2b95f9"/>
        <g id="Grupo_883550" data-name="Grupo 883550" transform="translate(235.202 29.685)" style="mix-blend-mode: multiply;isolation: isolate">
          <g id="Grupo_883549" data-name="Grupo 883549">
            <g id="Grupo_883548" data-name="Grupo 883548" clip-path="url(#clip-path-2)">
              <g id="Grupo_883547" data-name="Grupo 883547" transform="translate(0 0)">
                <g id="Grupo_883546" data-name="Grupo 883546" clip-path="url(#clip-path-5)">
                  <rect id="Rectángulo_331138" data-name="Rectángulo 331138" width="177.268" height="177.268" transform="translate(0 0)" fill="url(#radial-gradient-2)"/>
                </g>
              </g>
            </g>
          </g>
        </g>
        <path id="Trazado_642921" data-name="Trazado 642921" d="M284.513,91.863a77.5,77.5,0,1,1-77.5-77.5,77.5,77.5,0,0,1,77.5,77.5" transform="translate(117.901 13.075)" fill="#fff"/>
        <path id="Trazado_642922" data-name="Trazado 642922" d="M273.2,88.211a69.837,69.837,0,1,1-69.837-69.837A69.837,69.837,0,0,1,273.2,88.211" transform="translate(121.551 16.726)" fill="#617a0b"/>
        <path id="Trazado_642923" data-name="Trazado 642923" d="M216.273,149.933a97.286,97.286,0,0,1-96.926-90.809,1.738,1.738,0,0,1,1.622-1.847,1.759,1.759,0,0,1,1.845,1.624,93.657,93.657,0,0,0,186.917,0,1.738,1.738,0,1,1,3.469.223,97.287,97.287,0,0,1-96.928,90.813" transform="translate(108.641 59.954)" fill="#617a0b"/>
        <path id="Trazado_642924" data-name="Trazado 642924" d="M216.435,61.131a6.534,6.534,0,1,1,6.2,6.854,6.533,6.533,0,0,1-6.2-6.854" transform="translate(197.017 57.82)" fill="#617a0b"/>
        <path id="Trazado_642925" data-name="Trazado 642925" d="M129.961,61.131a6.534,6.534,0,1,0-6.2,6.854,6.533,6.533,0,0,0,6.2-6.854" transform="translate(106.418 57.82)" fill="#617a0b"/>
        <g id="Grupo_883555" data-name="Grupo 883555" transform="translate(458.522 29.685)" style="mix-blend-mode: multiply;isolation: isolate">
          <g id="Grupo_883554" data-name="Grupo 883554">
            <g id="Grupo_883553" data-name="Grupo 883553" clip-path="url(#clip-path-6)">
              <g id="Grupo_883552" data-name="Grupo 883552" transform="translate(0 0)">
                <g id="Grupo_883551" data-name="Grupo 883551" clip-path="url(#clip-path-7)">
                  <rect id="Rectángulo_331140" data-name="Rectángulo 331140" width="177.266" height="177.268" transform="translate(0 0)" fill="url(#radial-gradient-3)"/>
                </g>
              </g>
            </g>
          </g>
        </g>
        <path id="Trazado_642927" data-name="Trazado 642927" d="M401.415,91.863a77.5,77.5,0,1,1-77.5-77.5,77.5,77.5,0,0,1,77.5,77.5" transform="translate(224.319 13.075)" fill="#fff"/>
        <path id="Trazado_642928" data-name="Trazado 642928" d="M390.1,88.211a69.837,69.837,0,1,1-69.837-69.837A69.837,69.837,0,0,1,390.1,88.211" transform="translate(227.969 16.726)" fill="#ffb338"/>
        <path id="Trazado_642929" data-name="Trazado 642929" d="M237.985,96.751c-.038,0-.075,0-.113,0a1.739,1.739,0,0,1-1.624-1.847A97.134,97.134,0,0,1,430.1,94.894a1.738,1.738,0,1,1-3.469.224,93.657,93.657,0,0,0-186.917.006,1.738,1.738,0,0,1-1.733,1.628" transform="translate(215.058 3.72)" fill="#ffb338"/>
        <path id="Trazado_642930" data-name="Trazado 642930" d="M246.863,54.958a6.534,6.534,0,1,1-6.2-6.854,6.533,6.533,0,0,1,6.2,6.854" transform="translate(212.836 43.782)" fill="#ffb338"/>
        <path id="Trazado_642931" data-name="Trazado 642931" d="M333.336,54.958a6.534,6.534,0,1,0,6.2-6.854,6.533,6.533,0,0,0-6.2,6.854" transform="translate(303.434 43.782)" fill="#ffb338"/>
        <path id="Trazado_642932" data-name="Trazado 642932" d="M64.164,8.729A7.82,7.82,0,1,1,56.345.91a7.821,7.821,0,0,1,7.819,7.819" transform="translate(44.172 0.828)" fill="#fff"/>
        <path id="Trazado_642933" data-name="Trazado 642933" d="M57.172,19.117A9.558,9.558,0,1,1,66.73,9.557a9.57,9.57,0,0,1-9.557,9.559m0-15.64a6.081,6.081,0,1,0,6.082,6.081,6.088,6.088,0,0,0-6.082-6.081" transform="translate(43.345 0)" fill="#2b95f9"/>
        <path id="Trazado_642934" data-name="Trazado 642934" d="M298.548,8.729A7.821,7.821,0,1,1,290.725.91a7.823,7.823,0,0,1,7.823,7.819" transform="translate(257.534 0.828)" fill="#fff"/>
        <path id="Trazado_642935" data-name="Trazado 642935" d="M291.554,19.117a9.558,9.558,0,1,1,9.557-9.559,9.57,9.57,0,0,1-9.557,9.559m0-15.64a6.081,6.081,0,1,0,6.082,6.081,6.088,6.088,0,0,0-6.082-6.081" transform="translate(256.707 0)" fill="#ffb338"/>
        <path id="Trazado_642936" data-name="Trazado 642936" d="M181.63,108.594a7.82,7.82,0,1,1-7.821-7.821,7.819,7.819,0,0,1,7.821,7.821" transform="translate(151.104 91.735)" fill="#fff"/>
        <path id="Trazado_642937" data-name="Trazado 642937" d="M174.637,118.979a9.557,9.557,0,1,1,9.557-9.555,9.567,9.567,0,0,1-9.557,9.555m0-15.638a6.081,6.081,0,1,0,6.082,6.082,6.089,6.089,0,0,0-6.082-6.082" transform="translate(150.275 90.908)" fill="#617a0b"/>
      </g>
    </g>
    <path id="Trazado_646258" data-name="Trazado 646258" d="M0,0H649.831V209.887H0Z" transform="translate(485.085 4095.205)" fill="none"/>
    <path id="Trazado_642938" data-name="Trazado 642938" d="M64.994,0A32.679,32.679,0,0,0,33.6,41.7a1.941,1.941,0,1,0,3.73-1.073,28.715,28.715,0,0,1-1.051-6.018H51.665c.052,2.3.2,4.566.431,6.767a1.94,1.94,0,0,0,3.859-.413c-.221-2.066-.357-4.2-.409-6.355H74.441c-.052,2.159-.188,4.289-.409,6.355a1.94,1.94,0,1,0,3.859.413c.235-2.2.379-4.47.431-6.767H93.712a28.715,28.715,0,0,1-1.053,6.025A1.94,1.94,0,1,0,96.388,41.7,32.679,32.679,0,0,0,64.994,0Zm9.889,10.261a26.618,26.618,0,0,0-2.7-5.473,28.773,28.773,0,0,1,12.543,6.934,36.978,36.978,0,0,1-8.243,3.857A46.463,46.463,0,0,0,74.882,10.261Zm-3.638,1.352a42.794,42.794,0,0,1,1.487,4.972,37.1,37.1,0,0,1-15.473-.013,42.785,42.785,0,0,1,1.484-4.959c1.8-4.841,4.135-7.732,6.25-7.732S69.445,6.771,71.244,11.613ZM55.105,10.261a46.4,46.4,0,0,0-1.593,5.3A36.97,36.97,0,0,1,45.292,11.7a28.772,28.772,0,0,1,12.517-6.91A26.619,26.619,0,0,0,55.105,10.261Zm-2.378,9.124a77.253,77.253,0,0,0-1.064,11.34H36.275A28.628,28.628,0,0,1,42.61,14.587a40.856,40.856,0,0,0,10.118,4.8Zm3.765.992a40.964,40.964,0,0,0,17,.013,73.612,73.612,0,0,1,.945,10.335h-18.9A73.607,73.607,0,0,1,56.493,20.377ZM77.263,19.4A40.857,40.857,0,0,0,87.4,14.616a28.628,28.628,0,0,1,6.311,16.109H78.323A77.225,77.225,0,0,0,77.263,19.4Z" transform="translate(520.006 4157.338)" fill="#fff"/>
    <g id="Grupo_883572" data-name="Grupo 883572" transform="translate(552.339 4204.017)">
      <path id="Trazado_642939" data-name="Trazado 642939" d="M91.386,317.764H38.652a6.3,6.3,0,0,1-6.294-6.294V294.95a6.3,6.3,0,0,1,6.294-6.294H91.386a6.3,6.3,0,0,1,6.294,6.294v16.52A6.3,6.3,0,0,1,91.386,317.764ZM38.652,292.537a2.416,2.416,0,0,0-2.413,2.413v16.52a2.416,2.416,0,0,0,2.413,2.413H91.386A2.416,2.416,0,0,0,93.8,311.47V294.95a2.416,2.416,0,0,0-2.413-2.413Z" transform="translate(-32.358 -288.656)" fill="#fff"/>
    </g>
    <path id="Trazado_642940" data-name="Trazado 642940" d="M94.514,354.1c-.032-.137-1.388-5.837-1.388-5.837H90.8l-1.559,5.927-1.382-5.927H85.18l2.781,11h2.313s1.556-5.669,1.581-5.758l1.4,5.758h2.314l3.107-11H96.026s-1.492,5.756-1.512,5.837Z" transform="translate(475.701 3865.391)" fill="#fff"/>
    <path id="Trazado_642941" data-name="Trazado 642941" d="M201.99,354.1c-.033-.14-1.388-5.838-1.388-5.838h-2.324l-1.559,5.928c-.039-.171-1.382-5.928-1.382-5.928h-2.68l2.782,11h2.313s1.556-5.669,1.581-5.758l1.4,5.758h2.314l3.107-11H203.5S202.011,354.023,201.99,354.1Z" transform="translate(385.605 3865.39)" fill="#fff"/>
    <path id="Trazado_642942" data-name="Trazado 642942" d="M310.98,348.267s-1.494,5.763-1.512,5.837c-.032-.137-1.388-5.837-1.388-5.837h-2.324L304.2,354.2l-1.382-5.935h-2.68l2.782,11h2.313s1.556-5.669,1.581-5.758c.02.084,1.4,5.758,1.4,5.758h2.314l3.106-11Z" transform="translate(295.508 3865.39)" fill="#fff"/>
    <path id="Trazado_642943" data-name="Trazado 642943" d="M53.97,47.565h.014a1.54,1.54,0,1,0-.014,0Zm0,0" transform="translate(730.365 4127.243)" fill="#fff"/>
    <path id="Trazado_642944" data-name="Trazado 642944" d="M99.471,47.565h.014a1.54,1.54,0,1,0-.014,0Zm0,0" transform="translate(691.838 4127.243)" fill="#fff"/>
    <path id="Trazado_642945" data-name="Trazado 642945" d="M144.974,47.565h.014a1.54,1.54,0,1,0-.014,0Zm0,0" transform="translate(653.309 4127.243)" fill="#fff"/>
    <path id="Trazado_642946" data-name="Trazado 642946" d="M223.279,47.564h21.339a1.532,1.532,0,1,0,0-3.064H223.279a1.532,1.532,0,1,0,0,3.064Zm0,0" transform="translate(587.004 4127.243)" fill="#fff"/>
    <path id="Trazado_642947" data-name="Trazado 642947" d="M415.517,268.492a1.534,1.534,0,1,0,1.083.449A1.542,1.542,0,0,0,415.517,268.492Zm0,0" transform="translate(424.228 3937.579)" fill="#fff"/>
    <path id="Trazado_642948" data-name="Trazado 642948" d="M195.633,176.492h-1.908a1.532,1.532,0,0,0-1.533,1.533v11.034a1.532,1.532,0,0,0,1.533,1.533h1.908a7.049,7.049,0,0,0,0-14.1Zm0,11.034h-.376v-7.969h.376a3.984,3.984,0,0,1,0,7.969Zm0,0" transform="translate(612.029 4015.479)" fill="#fff"/>
    <path id="Trazado_642949" data-name="Trazado 642949" d="M110.04,177.537a1.532,1.532,0,0,0-2.9,0l-3.713,11.034a1.532,1.532,0,1,0,2.9.978l.113-.336h4.295l.113.336a1.532,1.532,0,1,0,2.9-.978Zm-2.569,8.611,1.116-3.317,1.116,3.317Zm0,0" transform="translate(687.263 4015.479)" fill="#fff"/>
    <path id="Trazado_642950" data-name="Trazado 642950" d="M78.017,65.969,67.6,55.549l3.673-3.672a1.533,1.533,0,0,0-.66-2.556L48.427,42.932V22.875a1.532,1.532,0,0,0-1.533-1.532H8.888a1.532,1.532,0,0,0-1.532,1.532V46.169A1.532,1.532,0,0,0,8.888,47.7H42.082L44.73,56.9H4.6a1.534,1.534,0,0,1-1.533-1.533V17.052h60.38V36.974a1.533,1.533,0,0,0,3.065,0V5.1a4.6,4.6,0,0,0-4.6-4.6H4.6A4.6,4.6,0,0,0,0,5.1V55.363a4.6,4.6,0,0,0,4.6,4.6H45.612l3.21,11.147a1.533,1.533,0,0,0,2.556.66L55.051,68.1l10.42,10.42a1.533,1.533,0,0,0,2.167,0L78.017,68.136a1.532,1.532,0,0,0,0-2.167ZM4.6,3.566H61.912A1.534,1.534,0,0,1,63.445,5.1v8.888H3.065V5.1A1.534,1.534,0,0,1,4.6,3.566Zm5.823,41.07V24.407H45.362V42.049l-2.687-.774a1.533,1.533,0,0,0-1.9,1.9l.422,1.464ZM66.554,75.264,56.135,64.844a1.533,1.533,0,0,0-2.168,0l-2.918,2.919L44.489,44.988l22.776,6.559-2.918,2.919a1.532,1.532,0,0,0,0,2.167l10.42,10.419Zm0,0" transform="translate(774.767 4164.499)" fill="#fff"/>
    <path id="Trazado_642951" data-name="Trazado 642951" d="M61.432,331.552a1.532,1.532,0,1,0,0-3.064H50.959a1.532,1.532,0,1,0,0,3.064Zm0,0" transform="translate(732.915 3886.777)" fill="#fff"/>
    <path id="Trazado_642952" data-name="Trazado 642952" d="M159.881,331.1a1.531,1.531,0,1,0-1.084.449A1.545,1.545,0,0,0,159.881,331.1Zm0,0" transform="translate(641.603 3886.776)" fill="#fff"/>
    <path id="_x31_1" d="M33.992,83.243a1.4,1.4,0,1,1,2.806,0V95.392a4.281,4.281,0,0,1-1.266,3.043.682.682,0,0,1-.091.084A4.293,4.293,0,0,1,32.49,99.7H4.33A4.321,4.321,0,0,1,.021,95.392V73.941a4.322,4.322,0,0,1,4.309-4.31H21.322a1.4,1.4,0,1,1,0,2.807H4.33a1.5,1.5,0,0,0-1.061.441,1.515,1.515,0,0,0-.441,1.062V95.392a1.515,1.515,0,0,0,.441,1.061A1.5,1.5,0,0,0,4.33,96.9H32.49A1.509,1.509,0,0,0,33.5,96.5a.427.427,0,0,1,.048-.051,1.506,1.506,0,0,0,.444-1.062Z" transform="translate(989.058 4130.47)" fill="#fff"/>
    <path id="_x31_0" d="M29.276,34.277a1.4,1.4,0,1,1,0,2.806,5.062,5.062,0,0,1-5.055-5.055V5.055A5.062,5.062,0,0,1,29.276,0h45.76a5.062,5.062,0,0,1,5.055,5.055V32.029a5.062,5.062,0,0,1-5.055,5.055,1.4,1.4,0,1,1,0-2.806,2.259,2.259,0,0,0,2.247-2.249V5.055a2.259,2.259,0,0,0-2.247-2.248H29.276a2.259,2.259,0,0,0-2.248,2.248V32.029a2.259,2.259,0,0,0,2.248,2.249Z" transform="translate(981.844 4151.228)" fill="#fff"/>
    <path id="_x39_" d="M39.165,8.048A5.55,5.55,0,0,1,43.1,9.677a1.109,1.109,0,0,1,.081.091,5.559,5.559,0,0,1-7.947,7.775l0,0a5.56,5.56,0,0,1,0-7.866l0,0a5.557,5.557,0,0,1,3.936-1.629Zm1.951,3.615a2.757,2.757,0,0,0-3.9,0l0,0,0,0a2.763,2.763,0,0,0,.006,3.9h0l0,0a2.76,2.76,0,0,0,3.961-3.844c-.022-.02-.041-.039-.061-.059Z" transform="translate(979.047 4148.828)" fill="#fff"/>
    <path id="_x38_" d="M60.983,41.469a14.99,14.99,0,0,1,5.19,3l3.869-1.408a1.4,1.4,0,0,1,1.686.616l0,0L73.068,46l.043.077,1.3,2.245a1.4,1.4,0,0,1-.313,1.769v0l-3.147,2.641c.067.34.126.688.171,1.042a14.675,14.675,0,0,1,0,3.917c-.044.354-.1.7-.171,1.038L74.1,61.373a1.4,1.4,0,0,1,.288,1.821L73.07,65.468l-1.336,2.317a1.4,1.4,0,0,1-1.733.6l-3.826-1.392a15.084,15.084,0,0,1-2.449,1.765A14.807,14.807,0,0,1,60.984,70l-.714,4.046A1.4,1.4,0,0,1,58.891,75.2H53.534a1.406,1.406,0,0,1-1.391-1.217L51.442,70A14.828,14.828,0,0,1,48.7,68.758a15.03,15.03,0,0,1-2.449-1.765L42.383,68.4a1.4,1.4,0,0,1-1.69-.617l-1.337-2.317-1.339-2.32a1.4,1.4,0,0,1,.314-1.775h0l3.15-2.645c-.068-.34-.126-.685-.171-1.038a14.52,14.52,0,0,1,0-3.917c.045-.354.1-.7.171-1.042l-3.15-2.641a1.406,1.406,0,0,1-.285-1.821L39.357,46l1.336-2.32a1.4,1.4,0,0,1,1.729-.6l3.829,1.391a15.206,15.206,0,0,1,2.45-1.765,14.869,14.869,0,0,1,2.742-1.236l.71-4.047a1.407,1.407,0,0,1,1.383-1.161h5.356a1.4,1.4,0,0,1,1.389,1.216Zm1.341,3.66a12.144,12.144,0,0,0-2.881-1.2,1.4,1.4,0,0,1-1.07-1.126l-.658-3.734h-3L54.053,42.8a1.4,1.4,0,0,1-1.019,1.113A12.243,12.243,0,0,0,50.1,45.129a12.433,12.433,0,0,0-2.509,1.918A1.4,1.4,0,0,1,46.1,47.4l-3.573-1.3-.752,1.3-.75,1.3,2.908,2.44a1.4,1.4,0,0,1,.453,1.43,12.5,12.5,0,0,0-.311,1.567,13.076,13.076,0,0,0,0,3.189,12.863,12.863,0,0,0,.295,1.508,1.4,1.4,0,0,1-.437,1.489l-2.908,2.441.75,1.3.752,1.3,3.573-1.3a1.393,1.393,0,0,1,1.463.325A12.487,12.487,0,0,0,50.1,66.333a12.3,12.3,0,0,0,2.881,1.2,1.4,1.4,0,0,1,1.07,1.126l.658,3.735h3l.656-3.735h0a1.4,1.4,0,0,1,1.018-1.112,12.112,12.112,0,0,0,2.931-1.214,12.237,12.237,0,0,0,2.511-1.92,1.406,1.406,0,0,1,1.489-.347l3.573,1.3.752-1.3.748-1.3-2.907-2.441a1.4,1.4,0,0,1-.454-1.43,12.2,12.2,0,0,0,.312-1.565,13.1,13.1,0,0,0,0-3.192,12.225,12.225,0,0,0-.3-1.512,1.4,1.4,0,0,1,.441-1.486L71.4,48.7l-.708-1.223c-.015-.022-.029-.048-.044-.072l-.752-1.3L66.32,47.4a1.4,1.4,0,0,1-1.463-.325,12.383,12.383,0,0,0-2.532-1.944Zm-6.113,2a8.6,8.6,0,1,1-6.077,2.518A8.582,8.582,0,0,1,56.211,47.134Zm4.1,4.5A5.785,5.785,0,1,0,62,55.729,5.778,5.778,0,0,0,60.306,51.637Z" transform="translate(977.787 4140.418)" fill="#fff"/>
    <path id="_x37_" d="M72.911,83.731a1.4,1.4,0,0,1,1.92,2.04,41.42,41.42,0,0,1-56.844,0,1.4,1.4,0,0,1,1.921-2.04,38.6,38.6,0,0,0,53,0ZM7.8,57.429a1.4,1.4,0,1,1-2.8.12c-.016-.3-.026-.616-.036-.974-.01-.46-.016-.8-.016-.982a41.349,41.349,0,0,1,14-31.052,1.4,1.4,0,1,1,1.854,2.093A38.576,38.576,0,0,0,7.76,55.6c0,.451,0,.748.006.918.006.274.019.581.035.916Zm64.216-30.8A1.4,1.4,0,1,1,73.87,24.54a41.35,41.35,0,0,1,14,31.052c0,.185-.007.521-.015.983-.011.357-.023.678-.036.974a1.4,1.4,0,1,1-2.8-.12c.015-.335.03-.643.037-.919,0-.168.006-.467.006-.919A38.561,38.561,0,0,0,72.017,26.634Z" transform="translate(987.588 4144.017)" fill="#fff"/>
    <path id="_x36_" d="M100.15,83.313a1.4,1.4,0,1,1,0-2.807h10.4a1.4,1.4,0,1,1,0,2.807Z" transform="translate(959.627 4127.228)" fill="#fff"/>
    <path id="_x35_" d="M89.158,91.939a1.4,1.4,0,0,1,0-2.807h18.118a1.4,1.4,0,1,1,0,2.807Z" transform="translate(962.902 4124.656)" fill="#fff"/>
    <path id="_x34_" d="M89.158,100.564a1.4,1.4,0,0,1,0-2.81h18.118a1.4,1.4,0,1,1,0,2.81Z" transform="translate(962.902 4122.086)" fill="#fff"/>
    <path id="_x33_" d="M18.928,78.226l12.745,7.726a1.4,1.4,0,0,1-.022,2.4l-12.839,7.78a1.394,1.394,0,0,1-2.118-1.194h-.006V79.35a1.4,1.4,0,0,1,1.4-1.4A1.414,1.414,0,0,1,18.928,78.226Zm9.325,8.92-8.76-5.308V92.456Z" transform="translate(984.089 4127.99)" fill="#fff"/>
    <path id="_x32_" d="M79.6,27.916a1.4,1.4,0,0,1-1.581,2.313L57.679,16.278,26.805,36.842a1.4,1.4,0,1,1-1.548-2.337L56.887,13.438a1.411,1.411,0,0,1,1.594-.006Z" transform="translate(981.722 4147.296)" fill="#fff"/>
    <path id="_x31_" d="M75.622,83.243a1.4,1.4,0,1,1,2.806,0V95.392a1.515,1.515,0,0,0,.441,1.061.363.363,0,0,1,.052.052,1.5,1.5,0,0,0,1.009.39h28.16a1.515,1.515,0,0,0,1.5-1.5V73.941a1.513,1.513,0,0,0-1.5-1.5H91.1a1.4,1.4,0,1,1,0-2.808h16.992a4.323,4.323,0,0,1,4.31,4.31V95.392a4.322,4.322,0,0,1-4.31,4.309H79.932a4.293,4.293,0,0,1-2.953-1.181.642.642,0,0,1-.091-.084,4.284,4.284,0,0,1-1.266-3.043Z" transform="translate(966.521 4130.47)" fill="#fff"/>
    <path id="Trazado_646254" data-name="Trazado 646254" d="M0,0H820V347H0Z" transform="translate(390 4036.516)" fill="none"/>
  </g>
</svg>
