<svg xmlns="http://www.w3.org/2000/svg" xmlns:xlink="http://www.w3.org/1999/xlink" width="150" height="150" viewBox="0 0 150 150">
  <defs>
    <filter id="Trazado_646172" x="0" y="0" width="150" height="150" filterUnits="userSpaceOnUse">
      <feOffset dy="3" input="SourceAlpha"/>
      <feGaussianBlur stdDeviation="3" result="blur"/>
      <feFlood flood-opacity="0.161"/>
      <feComposite operator="in" in2="blur"/>
      <feComposite in="SourceGraphic"/>
    </filter>
  </defs>
  <g id="Grupo_1034473" data-name="Grupo 1034473" transform="translate(-382.07 -3910.254)">
    <g transform="matrix(1, 0, 0, 1, 382.07, 3910.25)" filter="url(#Trazado_646172)">
      <path id="Trazado_646172-2" data-name="Trazado 646172" d="M66,0A66,66,0,1,1,0,66,66,66,0,0,1,66,0Z" transform="translate(9 6)" fill="#b6e1fd"/>
    </g>
    <g id="Grupo_882854" data-name="Grupo 882854" transform="translate(426.273 3947.55)">
      <path id="Trazado_640129" data-name="Trazado 640129" d="M62.494,25.126a1.347,1.347,0,1,1-1.347,1.347A1.347,1.347,0,0,1,62.494,25.126Zm-6.1,0a2.743,2.743,0,1,0,2.743,2.743A2.742,2.742,0,0,0,56.394,25.128Zm2.746-3.661a1.828,1.828,0,1,0,1.828-1.828A1.829,1.829,0,0,0,59.14,21.467Zm18.021,6.14a1.75,1.75,0,0,1-2.46,0l-.848-.853L51.317,49.294,39.746,29.825,58.333,11.231l-.853-.848a1.739,1.739,0,0,1,2.46-2.46l17.22,17.223A1.736,1.736,0,0,1,77.161,27.606Zm-5.9-3.435L60.921,13.824,46.54,28.28l-2.892,2.892H64.307Zm-44,18.385a2.871,2.871,0,1,0,2.871-2.871A2.87,2.87,0,0,0,27.266,42.556ZM21.919,38.2a2.8,2.8,0,1,0,2.8,2.8A2.8,2.8,0,0,0,21.919,38.2Zm7.887-2.135a2.052,2.052,0,1,0-2.052,2.052A2.051,2.051,0,0,0,29.807,36.066Zm21.82,18.822c1.745,5.167-.174,9.96-5.737,9.96H6.361C.8,64.847-1.118,60.1.619,54.929c0,0,6.855-12.773,18.026-31.106V13.205h-.692a1.807,1.807,0,1,1,0-3.615h2.876L19.121,3.053H33.008l-1.714,6.54H34.3a1.806,1.806,0,1,1,0,3.612h-.689V23.823C44.777,42.158,51.627,54.89,51.627,54.888Zm-8.36-6.938c-.77-1.5-10.03-17.566-12.864-22.21l-.439-.723H22.286l-.437.723C18.963,30.48,10.189,45.812,9.211,47.463c-.073.143-.156.309-.242.484v0Z" transform="translate(0 0)" fill="#12263f"/>
    </g>
  </g>
</svg>
