<svg xmlns="http://www.w3.org/2000/svg" xmlns:xlink="http://www.w3.org/1999/xlink" width="150" height="150" viewBox="0 0 150 150">
  <defs>
    <filter id="Elipse_6935" x="0" y="0" width="150" height="150" filterUnits="userSpaceOnUse">
      <feOffset dy="3" input="SourceAlpha"/>
      <feGaussianBlur stdDeviation="3" result="blur"/>
      <feFlood flood-opacity="0.161"/>
      <feComposite operator="in" in2="blur"/>
      <feComposite in="SourceGraphic"/>
    </filter>
  </defs>
  <g id="Grupo_1034470" data-name="Grupo 1034470" transform="translate(-1080.257 -3910.289)">
    <g transform="matrix(1, 0, 0, 1, 1080.26, 3910.29)" filter="url(#Elipse_6935)">
      <circle id="Elipse_6935-2" data-name="Elipse 6935" cx="66" cy="66" r="66" transform="translate(9 6)" fill="#b6e1fd"/>
    </g>
    <g id="Icons" transform="translate(1119.969 3945.554)">
      <path id="Trazado_640136" data-name="Trazado 640136" d="M44.842,52.359l1.091,1.521L41.35,58.457l-3.313-3.313A13,13,0,0,0,44.842,52.359Zm-7.776,7.812H33.515l-1.028-1.543,2.8-2.8,2.8,2.8Zm-7.835-1.714-4.576-4.576,1.091-1.522a12.984,12.984,0,0,0,6.8,2.787Zm-6-2.576,4.29,4.29a2.424,2.424,0,0,0,3.205.181l.9,1.346-.747,8.168H25.9L20.931,59.094Zm10.746,6.714h2.635l.664,7.271H33.309Zm4.987-.9.9-1.346a2.4,2.4,0,0,0,3.205-.181l4.293-4.293,2.3,3.215L44.683,69.866H39.707Zm15.721-16.07H36.5V39.416a4.936,4.936,0,0,0,2.241.046,4.848,4.848,0,0,0,2.694-7.848A4.928,4.928,0,0,0,36.5,30.026v-5h5.77a1.878,1.878,0,0,0,1.709-2.656,2.391,2.391,0,0,1-.207-.979,2.424,2.424,0,0,1,4.791-.536,2.458,2.458,0,0,1-.158,1.532,1.846,1.846,0,0,0,.128,1.772,1.88,1.88,0,0,0,1.588.868H57.1V43.2A2.424,2.424,0,0,1,54.681,45.628ZM57.1,4.424V22.6H50.893a4.953,4.953,0,0,0,.046-2.241A4.834,4.834,0,0,0,47.1,16.624,4.851,4.851,0,0,0,41.5,22.6h-5V15.62a1.88,1.88,0,0,0-.868-1.588,1.851,1.851,0,0,0-1.771-.13A2.424,2.424,0,0,1,31,10.146a2.472,2.472,0,0,1,2.842-.663A1.878,1.878,0,0,0,36.5,7.77V2H54.681A2.424,2.424,0,0,1,57.1,4.424ZM15.9,2H34.079V7a4.931,4.931,0,0,0-4.935,1.588,4.848,4.848,0,0,0,2.694,7.848,4.953,4.953,0,0,0,2.241-.046V22.6H27.1a1.88,1.88,0,0,0-1.588.868,1.847,1.847,0,0,0-.13,1.771,2.454,2.454,0,0,1,.159,1.533,2.424,2.424,0,1,1-4.583-1.515A1.878,1.878,0,0,0,19.247,22.6h-5.77V4.424A2.424,2.424,0,0,1,15.9,2ZM13.477,43.2V25.026h5a4.848,4.848,0,0,0,4.7,6.059,5.1,5.1,0,0,0,.9-.08,4.834,4.834,0,0,0,3.838-3.737,4.954,4.954,0,0,0-.046-2.242h6.212V30.8A1.878,1.878,0,0,0,36.735,32.5a2.47,2.47,0,0,1,2.842.663,2.424,2.424,0,0,1-2.859,3.763,1.842,1.842,0,0,0-1.772.128,1.88,1.88,0,0,0-.868,1.588v6.982H15.9A2.424,2.424,0,0,1,13.477,43.2Zm29.262,4.848c.294.837.59,1.6.836,2.2-.892.869-3.316,2.646-8.285,2.646s-7.4-1.783-8.285-2.644c.242-.6.542-1.365.836-2.2ZM9.486,58.6c2.151-2.151,8.573-4.525,13.071-5.956l-3.591,5.032a2.424,2.424,0,0,0-.242,2.424l4.5,9.763H5.031C5.3,65.474,7.026,61.064,9.486,58.6ZM47.353,69.866l4.5-9.762a2.424,2.424,0,0,0-.242-2.424l-3.6-5.038c4.5,1.431,10.919,3.805,13.07,5.956,2.46,2.46,4.181,6.87,4.455,11.262Z" transform="translate(0 0)" fill="#12263f"/>
    </g>
  </g>
</svg>
