<svg xmlns="http://www.w3.org/2000/svg" xmlns:xlink="http://www.w3.org/1999/xlink" width="150" height="150" viewBox="0 0 150 150">
  <defs>
    <filter id="Elipse_6941" x="0" y="0" width="150" height="150" filterUnits="userSpaceOnUse">
      <feOffset dy="3" input="SourceAlpha"/>
      <feGaussianBlur stdDeviation="3" result="blur"/>
      <feFlood flood-opacity="0.161"/>
      <feComposite operator="in" in2="blur"/>
      <feComposite in="SourceGraphic"/>
    </filter>
  </defs>
  <g id="Grupo_1034465" data-name="Grupo 1034465" transform="translate(-3342.217 7272.184)">
    <g transform="matrix(1, 0, 0, 1, 3342.22, -7272.18)" filter="url(#Elipse_6941)">
      <circle id="Elipse_6941-2" data-name="Elipse 6941" cx="66" cy="66" r="66" transform="translate(9 6)" fill="#b6e1fd"/>
    </g>
    <g id="_x34_1" transform="translate(3380.072 -7237.806)">
      <path id="Trazado_640163" data-name="Trazado 640163" d="M69.819,34.174H67.107a30.158,30.158,0,0,0-26.992-27V4.47a2.97,2.97,0,1,0-5.941,0v2.7h-.008a30.158,30.158,0,0,0-27,27H4.47a2.97,2.97,0,0,0,0,5.941H7.165a30.158,30.158,0,0,0,27,27h.008v2.7a2.97,2.97,0,0,0,5.941,0v-2.7a30.158,30.158,0,0,0,26.992-27h2.711a2.97,2.97,0,0,0,0-5.941ZM37.136,55.383A18.238,18.238,0,1,1,55.374,37.145,18.261,18.261,0,0,1,37.136,55.383Z" transform="translate(0)" fill="#12263f"/>
      <path id="Trazado_640164" data-name="Trazado 640164" d="M23.225,12.036,17.4,17.858l-1.842-1.842A2.962,2.962,0,0,0,11.374,20.2l3.951,3.95a2.976,2.976,0,0,0,4.188,0l7.931-7.931a2.958,2.958,0,0,0,0-4.188,2.994,2.994,0,0,0-4.218,0Z" transform="translate(17.743 19.049)" fill="#12263f"/>
    </g>
  </g>
</svg>
