<svg xmlns="http://www.w3.org/2000/svg" xmlns:xlink="http://www.w3.org/1999/xlink" width="150" height="150" viewBox="0 0 150 150">
  <defs>
    <filter id="Elipse_6942" x="0" y="0" width="150" height="150" filterUnits="userSpaceOnUse">
      <feOffset dy="3" input="SourceAlpha"/>
      <feGaussianBlur stdDeviation="3" result="blur"/>
      <feFlood flood-opacity="0.161"/>
      <feComposite operator="in" in2="blur"/>
      <feComposite in="SourceGraphic"/>
    </filter>
  </defs>
  <g id="Grupo_1034464" data-name="Grupo 1034464" transform="translate(-2640.703 6910.184)">
    <g transform="matrix(1, 0, 0, 1, 2640.7, -6910.18)" filter="url(#Elipse_6942)">
      <circle id="Elipse_6942-2" data-name="Elipse 6942" cx="66" cy="66" r="66" transform="translate(9 6)" fill="#b6e1fd"/>
    </g>
    <g id="_x32_3_Market_Prediction" transform="translate(2655.924 -6961.294)">
      <g id="Grupo_882861" data-name="Grupo 882861" transform="translate(8.451 82.041)">
        <path id="Trazado_640165" data-name="Trazado 640165" d="M206.782,92.275h-6.865V83.6a1.555,1.555,0,1,0-3.111,0v8.679h-6.875a6.689,6.689,0,0,0-6.647,6.719v38.242a6.689,6.689,0,0,0,6.647,6.719h6.875v8.669a1.555,1.555,0,0,0,3.111,0v-8.668h6.865a6.7,6.7,0,0,0,6.657-6.719V98.995a6.7,6.7,0,0,0-6.657-6.719Zm-6.865,36.054a1.555,1.555,0,0,1-3.111,0v-1.1a1.555,1.555,0,0,1,3.111,0Zm.456-9.384a.658.658,0,0,0-.456.6v2.738a1.555,1.555,0,1,1-3.111,0v-2.738a3.75,3.75,0,0,1,2.561-3.536,3.386,3.386,0,0,0,2.115-4,3.254,3.254,0,0,0-2.343-2.457,3.288,3.288,0,0,0-4,3.266,1.555,1.555,0,0,1-3.111,0,6.323,6.323,0,0,1,12.505-1.473,6.5,6.5,0,0,1-4.159,7.6Z" transform="translate(-147.034 -82.041)" fill="#12263f"/>
        <path id="Trazado_640166" data-name="Trazado 640166" d="M406.991,167.746H402.1v-6.284a1.555,1.555,0,0,0-3.111,0v6.284h-4.9a5.485,5.485,0,0,0-5.454,5.506v29.3a5.494,5.494,0,0,0,5.454,5.516h4.9v6.273a1.555,1.555,0,0,0,3.111,0v-6.273h4.894a5.5,5.5,0,0,0,5.465-5.516v-29.3A5.487,5.487,0,0,0,406.991,167.746Zm2.354,34.81a2.383,2.383,0,0,1-2.354,2.406h-12.91a2.375,2.375,0,0,1-2.343-2.406v-29.3a2.372,2.372,0,0,1,2.343-2.4h12.91a2.381,2.381,0,0,1,2.354,2.4Z" transform="translate(-309.8 -143.762)" fill="#12263f"/>
        <path id="Trazado_640167" data-name="Trazado 640167" d="M422.484,256.569a1.556,1.556,0,0,0,1.555-1.555,2.149,2.149,0,0,1,2.616-2.149,2.126,2.126,0,0,1,1.527,1.606,2.234,2.234,0,0,1-1.389,2.644,3.249,3.249,0,0,0-2.209,3.06v2.093a1.555,1.555,0,0,0,3.111,0v-2.093c0-.077.09-.111.108-.118a5.344,5.344,0,0,0,3.419-6.25,5.207,5.207,0,0,0-5.081-4.116,5.274,5.274,0,0,0-5.212,5.322A1.556,1.556,0,0,0,422.484,256.569Z" transform="translate(-335.403 -214.93)" fill="#12263f"/>
        <path id="Trazado_640168" data-name="Trazado 640168" d="M440.125,327.674a1.556,1.556,0,0,0-1.555,1.555v.843a1.555,1.555,0,1,0,3.111,0v-.843A1.555,1.555,0,0,0,440.125,327.674Z" transform="translate(-349.387 -276.743)" fill="#12263f"/>
        <path id="Trazado_640169" data-name="Trazado 640169" d="M26.815,167.746H21.921v-6.284a1.555,1.555,0,0,0-3.111,0v6.284h-4.9a5.485,5.485,0,0,0-5.454,5.506v29.3a5.494,5.494,0,0,0,5.454,5.516h4.9v6.273a1.555,1.555,0,0,0,3.111,0v-6.273h4.894a5.5,5.5,0,0,0,5.465-5.516v-29.3a5.487,5.487,0,0,0-5.465-5.506Zm2.354,34.81a2.383,2.383,0,0,1-2.354,2.406H13.905a2.375,2.375,0,0,1-2.343-2.406v-29.3a2.372,2.372,0,0,1,2.343-2.4h12.91a2.381,2.381,0,0,1,2.354,2.4Z" transform="translate(-8.451 -143.762)" fill="#12263f"/>
        <path id="Trazado_640170" data-name="Trazado 640170" d="M42.323,256.57a1.555,1.555,0,0,0,1.555-1.555,2.095,2.095,0,0,1,4.143-.543,2.235,2.235,0,0,1-1.391,2.644,3.249,3.249,0,0,0-2.208,3.06v2.093a1.555,1.555,0,1,0,3.111,0v-2.093c0-.077.09-.111.107-.118a5.345,5.345,0,0,0,3.42-6.251,5.2,5.2,0,0,0-10.293,1.207A1.556,1.556,0,0,0,42.323,256.57Z" transform="translate(-34.066 -214.931)" fill="#12263f"/>
        <path id="Trazado_640171" data-name="Trazado 640171" d="M59.959,327.674a1.555,1.555,0,0,0-1.555,1.555v.843a1.555,1.555,0,1,0,3.111,0v-.843A1.555,1.555,0,0,0,59.959,327.674Z" transform="translate(-48.047 -276.743)" fill="#12263f"/>
      </g>
    </g>
  </g>
</svg>
