<svg xmlns="http://www.w3.org/2000/svg" xmlns:xlink="http://www.w3.org/1999/xlink" width="150" height="150" viewBox="0 0 150 150">
  <defs>
    <filter id="Elipse_6939" x="0" y="0" width="150" height="150" filterUnits="userSpaceOnUse">
      <feOffset dy="3" input="SourceAlpha"/>
      <feGaussianBlur stdDeviation="3" result="blur"/>
      <feFlood flood-opacity="0.161"/>
      <feComposite operator="in" in2="blur"/>
      <feComposite in="SourceGraphic"/>
    </filter>
  </defs>
  <g id="Grupo_1034469" data-name="Grupo 1034469" transform="translate(-2640.703 7272.184)">
    <g transform="matrix(1, 0, 0, 1, 2640.7, -7272.18)" filter="url(#Elipse_6939)">
      <circle id="Elipse_6939-2" data-name="Elipse 6939" cx="66" cy="66" r="66" transform="translate(9 6)" fill="#b6e1fd"/>
    </g>
    <g id="Layer_2" data-name="Layer 2" transform="translate(2671.385 -7230.945)">
      <path id="Trazado_640158" data-name="Trazado 640158" d="M34.261,4.75A26.011,26.011,0,1,0,60.272,30.761,26.011,26.011,0,0,0,34.261,4.75Zm8.18,34.191a2.691,2.691,0,0,1-3.8,0l-6.171-6.279a2.691,2.691,0,0,1-.789-1.9V20a2.691,2.691,0,0,1,5.382,0v9.651l5.489,5.489a2.691,2.691,0,0,1-.108,3.8Z" transform="translate(18.114)" fill="#12263f"/>
      <path id="Trazado_640159" data-name="Trazado 640159" d="M20.086,16.632H3.941a2.691,2.691,0,1,1,0-5.382H20.086a2.691,2.691,0,1,1,0,5.382Z" transform="translate(0 16.82)" fill="#12263f"/>
      <path id="Trazado_640160" data-name="Trazado 640160" d="M15.91,12.632H6.941a2.691,2.691,0,1,1,0-5.382H15.91a2.691,2.691,0,1,1,0,5.382Z" transform="translate(7.763 6.469)" fill="#12263f"/>
      <path id="Trazado_640161" data-name="Trazado 640161" d="M15.91,20.632H6.941a2.691,2.691,0,0,1,0-5.382H15.91a2.691,2.691,0,0,1,0,5.382Z" transform="translate(7.763 27.171)" fill="#12263f"/>
    </g>
  </g>
</svg>
