<svg xmlns="http://www.w3.org/2000/svg" xmlns:xlink="http://www.w3.org/1999/xlink" width="150" height="150" viewBox="0 0 150 150">
  <defs>
    <filter id="Elipse_6937" x="0" y="0" width="150" height="150" filterUnits="userSpaceOnUse">
      <feOffset dy="3" input="SourceAlpha"/>
      <feGaussianBlur stdDeviation="3" result="blur"/>
      <feFlood flood-opacity="0.161"/>
      <feComposite operator="in" in2="blur"/>
      <feComposite in="SourceGraphic"/>
    </filter>
  </defs>
  <g id="Grupo_1034467" data-name="Grupo 1034467" transform="translate(-2991.46 7634.184)">
    <g transform="matrix(1, 0, 0, 1, 2991.46, -7634.18)" filter="url(#Elipse_6937)">
      <circle id="Elipse_6937-2" data-name="Elipse 6937" cx="66" cy="66" r="66" transform="translate(9 6)" fill="#b6e1fd"/>
    </g>
    <g id="Grupo_882859" data-name="Grupo 882859" transform="translate(3032.46 -7596.184)">
      <g id="Grupo_882858" data-name="Grupo 882858">
        <path id="Trazado_640150" data-name="Trazado 640150" d="M19.331,61.588H6.422V48.553a2.207,2.207,0,0,0-2.434-2.195,2.293,2.293,0,0,0-1.978,2.321V61.588A4.413,4.413,0,0,0,6.422,66H19.457a2.207,2.207,0,0,0,2.195-2.434,2.293,2.293,0,0,0-2.321-1.979Z" fill="#12263f"/>
        <path id="Trazado_640151" data-name="Trazado 640151" d="M64.012,46.358a2.207,2.207,0,0,0-2.434,2.195V61.588H48.669a2.293,2.293,0,0,0-2.321,1.979A2.207,2.207,0,0,0,48.543,66H61.578a4.413,4.413,0,0,0,4.412-4.412V48.679A2.293,2.293,0,0,0,64.012,46.358Z" fill="#12263f"/>
        <path id="Trazado_640152" data-name="Trazado 640152" d="M61.578,2H48.543a2.207,2.207,0,0,0-2.195,2.434,2.293,2.293,0,0,0,2.321,1.978H61.578V19.447a2.207,2.207,0,0,0,2.434,2.195,2.293,2.293,0,0,0,1.979-2.321V6.412A4.412,4.412,0,0,0,61.578,2Z" fill="#12263f"/>
        <path id="Trazado_640153" data-name="Trazado 640153" d="M3.988,21.642a2.207,2.207,0,0,0,2.434-2.195V6.413H19.331a2.293,2.293,0,0,0,2.321-1.978A2.207,2.207,0,0,0,19.457,2H6.422A4.413,4.413,0,0,0,2.009,6.413V19.322a2.293,2.293,0,0,0,1.979,2.321Z" fill="#12263f"/>
        <path id="Trazado_640154" data-name="Trazado 640154" d="M62.96,31.878A59.282,59.282,0,0,0,52.044,23.45c-.819-.485-1.669-.917-2.526-1.332L48.1,21.43a36.249,36.249,0,0,0-5.257-2.109A30.443,30.443,0,0,0,34,17.952c-13.226,0-24.513,9.577-28.962,13.926a2.951,2.951,0,0,0,0,4.229C9.486,40.465,20.763,50.043,34,50.043S58.512,40.465,62.96,36.107a2.951,2.951,0,0,0,0-4.229ZM33.869,44.424a10.6,10.6,0,1,1,10.6-10.6A10.6,10.6,0,0,1,33.869,44.424Z" fill="#12263f"/>
        <path id="Trazado_640155" data-name="Trazado 640155" d="M34,29.319c-.14,0-.28.01-.41.02a2.361,2.361,0,0,1,.58,1.559,2.4,2.4,0,0,1-2.4,2.4,2.369,2.369,0,0,1-2.059-1.18,4.56,4.56,0,0,0-.4,1.88A4.689,4.689,0,1,0,34,29.319Z" fill="#12263f"/>
      </g>
    </g>
  </g>
</svg>
