<svg id="Grupo_881054" data-name="Grupo 881054" xmlns="http://www.w3.org/2000/svg" xmlns:xlink="http://www.w3.org/1999/xlink" width="505" height="344.984" viewBox="0 0 505 344.984">
  <defs>
    <clipPath id="clip-path">
      <rect id="Rectángulo_329733" data-name="Rectángulo 329733" width="505" height="344.984" fill="none"/>
    </clipPath>
    <clipPath id="clip-path-6">
      <rect id="Rectángulo_329689" data-name="Rectángulo 329689" width="92.827" height="86.865" fill="#eb6f2d"/>
    </clipPath>
    <clipPath id="clip-path-7">
      <rect id="Rectángulo_329691" data-name="Rectángulo 329691" width="8.83" height="16.257" fill="none"/>
    </clipPath>
    <clipPath id="clip-path-8">
      <rect id="Rectángulo_329692" data-name="Rectángulo 329692" width="25.5" height="5.206" fill="none"/>
    </clipPath>
    <clipPath id="clip-path-12">
      <rect id="Rectángulo_329718" data-name="Rectángulo 329718" width="25.784" height="73.784" fill="none"/>
    </clipPath>
    <clipPath id="clip-path-18">
      <rect id="Rectángulo_329728" data-name="Rectángulo 329728" width="61.587" height="61.587" fill="none"/>
    </clipPath>
    <clipPath id="clip-path-19">
      <rect id="Rectángulo_329729" data-name="Rectángulo 329729" width="77.678" height="6.115" fill="none"/>
    </clipPath>
    <clipPath id="clip-path-21">
      <rect id="Rectángulo_329731" data-name="Rectángulo 329731" width="2.081" height="2.11" fill="none"/>
    </clipPath>
  </defs>
  <g id="Grupo_881053" data-name="Grupo 881053" clip-path="url(#clip-path)">
    <g id="Grupo_881007" data-name="Grupo 881007">
      <g id="Grupo_881006" data-name="Grupo 881006" clip-path="url(#clip-path)">
        <path id="Trazado_634253" data-name="Trazado 634253" d="M437.651,427.25H408.174a9.849,9.849,0,0,1-9.849-9.849V394.159a9.849,9.849,0,0,1,9.849-9.849h29.477a3.615,3.615,0,0,1,3.615,3.615v35.711a3.615,3.615,0,0,1-3.615,3.615" transform="translate(-103.538 -99.895)" fill="#e0e0e0"/>
        <path id="Trazado_634254" data-name="Trazado 634254" d="M427.848,427.25H390.906a3,3,0,0,1-3-3V387.31a3,3,0,0,1,3-3h36.941a3,3,0,0,1,3,3v36.941a3,3,0,0,1-3,3" transform="translate(-100.83 -99.895)" fill="#ebebeb"/>
        <path id="Trazado_634255" data-name="Trazado 634255" d="M414.857,420.383l-13.009-8.7,3.036-4.54,8.723,5.835,10.855-14.364,4.357,3.293Z" transform="translate(-104.453 -103.613)" fill="#e0e0e0"/>
        <path id="Trazado_634256" data-name="Trazado 634256" d="M216.109,387.48a29.964,29.964,0,1,1-30.44-29.614,30.073,30.073,0,0,1,30.44,29.614m-44.284.715a14.327,14.327,0,1,0,14.095-14.622A14.373,14.373,0,0,0,171.825,388.2" transform="translate(-40.598 -93.02)" fill="#ebebeb"/>
        <path id="Trazado_634257" data-name="Trazado 634257" d="M226.464,387.48a30.072,30.072,0,0,1-29.478,30.581l-.252-15.706a14.393,14.393,0,0,0-.46-28.782l-.251-15.706a30.061,30.061,0,0,1,30.44,29.614" transform="translate(-50.953 -93.02)" fill="#e0e0e0"/>
        <path id="Trazado_634258" data-name="Trazado 634258" d="M188.647,430.387a34.235,34.235,0,0,1-35.055-34.1l18.291-.3c.149,9.283,7.212,15.128,16.453,14.979Z" transform="translate(-39.924 -102.931)" fill="#f5f5f5"/>
        <path id="Trazado_634259" data-name="Trazado 634259" d="M653.217,38.01a23.4,23.4,0,1,1-23.769-23.123A23.481,23.481,0,0,1,653.217,38.01m-34.578.558a11.187,11.187,0,1,0,11.006-11.417,11.223,11.223,0,0,0-11.006,11.417" transform="translate(-157.63 -3.869)" fill="#ebebeb"/>
        <path id="Trazado_634260" data-name="Trazado 634260" d="M661.3,38.01a23.481,23.481,0,0,1-23.017,23.878l-.2-12.264a11.238,11.238,0,0,0-.36-22.473l-.2-12.264A23.472,23.472,0,0,1,661.3,38.01" transform="translate(-165.716 -3.869)" fill="#e0e0e0"/>
        <path id="Trazado_634261" data-name="Trazado 634261" d="M631.773,71.514A26.732,26.732,0,0,1,604.4,44.885l14.283-.23c.115,7.248,5.631,11.812,12.846,11.7Z" transform="translate(-157.104 -11.607)" fill="#f5f5f5"/>
        <path id="Trazado_634262" data-name="Trazado 634262" d="M25.852,187.9H31.33V174.183H35.15l.408-4.593H31.33v-2.615c0-1.083.218-1.51,1.265-1.51h2.964V160.7H31.765c-4.076,0-5.913,1.8-5.913,5.231v3.661H23v4.65h2.849Z" transform="translate(-5.979 -41.771)" fill="#ebebeb"/>
        <path id="Trazado_634263" data-name="Trazado 634263" d="M170.815,28.072,192.853,24.7a22.3,22.3,0,1,1-19.59-18.791Z" transform="translate(-38.606 -1.502)" fill="#f5f5f5"/>
        <path id="Trazado_634264" data-name="Trazado 634264" d="M187.367,6.056l-2.675,17.083L201.46,19.99s-2.466-9.574-14.093-13.934" transform="translate(-48.007 -1.574)" fill="#e0e0e0"/>
        <path id="Trazado_634265" data-name="Trazado 634265" d="M61.952,254H13.264A12.941,12.941,0,0,0,.323,266.942v29.419A12.941,12.941,0,0,0,13.264,309.3H31.119l6.489,9.346L44.1,309.3H61.952a12.941,12.941,0,0,0,12.941-12.941V266.942A12.941,12.941,0,0,0,61.952,254" transform="translate(-0.084 -66.023)" fill="#fff"/>
        <path id="Trazado_634266" data-name="Trazado 634266" d="M61.868,253.927a11.475,11.475,0,0,1,1.682.078,12.391,12.391,0,0,1,4.634,1.476,14.07,14.07,0,0,1,2.862,2.123,13.51,13.51,0,0,1,2.505,3.448,12.91,12.91,0,0,1,1.342,4.742c.114,1.764.041,3.6.071,5.553.01,3.9.019,8.2.03,12.848q.007,3.49.014,7.24,0,1.874.006,3.809a16.658,16.658,0,0,1-.327,3.951,13.143,13.143,0,0,1-12.219,10.235c-5.915.066-12.065.028-18.455.045l.2-.107-6.484,9.35-.209.3-.209-.3-6.492-9.344.212.111-12.96,0H14.883a31.131,31.131,0,0,1-3.2-.09,13.455,13.455,0,0,1-5.946-2.21,13.679,13.679,0,0,1-4.183-4.648A13.444,13.444,0,0,1,0,296.588V273.371q0-2.773.005-5.477a14.786,14.786,0,0,1,.738-5.325,13.146,13.146,0,0,1,11.449-8.8c1.615-.1,3.152-.022,4.685-.042l8.78.017,26.5.083,7.2.048,1.874.026c.422.009.638.027.638.027s-.216.018-.638.027l-1.874.026-7.2.049-26.5.082-8.78.017c-1.519.024-3.1-.044-4.654.056a12.722,12.722,0,0,0-11.048,8.534,14.321,14.321,0,0,0-.7,5.175q0,2.7.005,5.477c.01,7.4.02,15.157.03,23.2a12.959,12.959,0,0,0,1.5,5.72,13.175,13.175,0,0,0,4.023,4.465,12.952,12.952,0,0,0,5.712,2.121,30.946,30.946,0,0,0,3.139.087h3.192l12.96,0h.135l.077.111,6.486,9.349h-.418l6.495-9.343.074-.107h.13c6.381-.009,12.56.039,18.434-.014A12.705,12.705,0,0,0,74.273,299.1a16.237,16.237,0,0,0,.329-3.858q0-1.936.006-3.809.008-3.748.014-7.24c.011-4.651.021-8.948.03-12.848-.019-1.943.064-3.811-.036-5.53a12.713,12.713,0,0,0-1.282-4.656,13.393,13.393,0,0,0-2.433-3.411,14.02,14.02,0,0,0-2.8-2.122,12.636,12.636,0,0,0-4.565-1.537,11.815,11.815,0,0,0-1.246-.121c-.281-.021-.425-.043-.425-.043" transform="translate(0 -65.95)" fill="#e0e0e0"/>
        <path id="Trazado_634267" data-name="Trazado 634267" d="M34.2,290.91a4.188,4.188,0,1,1-4.188-4.188A4.188,4.188,0,0,1,34.2,290.91" transform="translate(-6.713 -74.528)" fill="#e0e0e0"/>
        <path id="Trazado_634268" data-name="Trazado 634268" d="M52.825,290.91a4.188,4.188,0,1,1-4.188-4.188,4.188,4.188,0,0,1,4.188,4.188" transform="translate(-11.554 -74.528)" fill="#e0e0e0"/>
        <path id="Trazado_634269" data-name="Trazado 634269" d="M71.446,290.91a4.188,4.188,0,1,1-4.188-4.188,4.188,4.188,0,0,1,4.188,4.188" transform="translate(-16.394 -74.528)" fill="#e0e0e0"/>
        <path id="Trazado_634270" data-name="Trazado 634270" d="M579.349,97.442H540.761A10.256,10.256,0,0,0,530.505,107.7v23.317a10.256,10.256,0,0,0,10.256,10.256h14.151l5.143,7.407,5.143-7.407h14.151A10.256,10.256,0,0,0,589.6,131.014V107.7a10.256,10.256,0,0,0-10.256-10.256" transform="translate(-137.896 -25.328)" fill="#fff"/>
        <path id="Trazado_634271" data-name="Trazado 634271" d="M579.282,97.384a8.962,8.962,0,0,1,1.333.062,9.812,9.812,0,0,1,3.674,1.17,11.134,11.134,0,0,1,2.268,1.682,10.718,10.718,0,0,1,1.985,2.733,10.229,10.229,0,0,1,1.063,3.758c.09,1.4.033,2.852.056,4.4.007,3.091.016,6.5.024,10.183q.006,2.765.01,5.737,0,1.485.005,3.019a13.183,13.183,0,0,1-.26,3.132,10.416,10.416,0,0,1-9.684,8.112c-4.688.052-9.562.021-14.627.036l.162-.084-5.14,7.41-.165.238-.166-.238-5.146-7.406.168.088h-12.8a24.921,24.921,0,0,1-2.534-.072,10.667,10.667,0,0,1-4.712-1.752,10.832,10.832,0,0,1-3.315-3.683,10.657,10.657,0,0,1-1.234-4.717v-18.4q0-2.2,0-4.341a11.726,11.726,0,0,1,.585-4.22,10.421,10.421,0,0,1,9.074-6.975c1.28-.076,2.5-.018,3.713-.033l6.959.013,21,.066,5.709.038,1.485.021c.334.007.505.021.505.021s-.172.014-.505.021l-1.485.02-5.709.038-21,.066-6.959.013c-1.2.019-2.457-.034-3.689.045a10.082,10.082,0,0,0-8.756,6.763,11.356,11.356,0,0,0-.555,4.1q0,2.142,0,4.341c.007,5.861.016,12.013.024,18.391a10.258,10.258,0,0,0,1.189,4.533,10.442,10.442,0,0,0,3.188,3.539,10.257,10.257,0,0,0,4.527,1.681,24.427,24.427,0,0,0,2.488.069h12.908l.061.087c1.768,2.548,3.512,5.061,5.141,7.41h-.331l5.147-7.405.058-.084h.1c5.058-.007,9.955.03,14.61-.011a10.07,10.07,0,0,0,9.372-7.817,12.858,12.858,0,0,0,.26-3.058q0-1.534.005-3.019.005-2.969.011-5.737c.009-3.686.016-7.092.024-10.183-.014-1.54.051-3.02-.029-4.383a10.069,10.069,0,0,0-1.015-3.69,10.615,10.615,0,0,0-1.929-2.7,11.1,11.1,0,0,0-2.217-1.682,10.013,10.013,0,0,0-3.617-1.218,9.314,9.314,0,0,0-.988-.1c-.223-.017-.337-.034-.337-.034" transform="translate(-137.829 -25.27)" fill="#e0e0e0"/>
        <path id="Trazado_634272" data-name="Trazado 634272" d="M557.356,126.694a3.32,3.32,0,1,1-3.32-3.319,3.32,3.32,0,0,1,3.32,3.319" transform="translate(-143.149 -32.069)" fill="#e0e0e0"/>
        <path id="Trazado_634273" data-name="Trazado 634273" d="M572.114,126.694a3.319,3.319,0,1,1-3.319-3.319,3.319,3.319,0,0,1,3.319,3.319" transform="translate(-146.986 -32.069)" fill="#e0e0e0"/>
        <path id="Trazado_634274" data-name="Trazado 634274" d="M586.872,126.694a3.319,3.319,0,1,1-3.319-3.319,3.319,3.319,0,0,1,3.319,3.319" transform="translate(-150.822 -32.069)" fill="#e0e0e0"/>
        <path id="Trazado_634275" data-name="Trazado 634275" d="M647.151,140.692a13.829,13.829,0,0,0,21.274-12.279,9.872,9.872,0,0,0,2.427-2.518,9.7,9.7,0,0,1-2.793.765,4.866,4.866,0,0,0,2.137-2.689,9.745,9.745,0,0,1-3.087,1.18,4.866,4.866,0,0,0-8.286,4.435A13.8,13.8,0,0,1,648.8,124.5a4.869,4.869,0,0,0,1.5,6.493,4.855,4.855,0,0,1-2.2-.608,4.87,4.87,0,0,0,3.9,4.83,4.884,4.884,0,0,1-2.2.083,4.866,4.866,0,0,0,4.542,3.377,9.773,9.773,0,0,1-7.2,2.013" transform="translate(-168.216 -32.132)" fill="#ebebeb"/>
      </g>
    </g>
    <g id="Grupo_881009" data-name="Grupo 881009">
      <g id="Grupo_881008" data-name="Grupo 881008" clip-path="url(#clip-path)">
        <path id="Trazado_634276" data-name="Trazado 634276" d="M512.521,442.55s-.423.008-1.249,0l-3.665-.024-14.089-.134-51.817-.406c-21.878-.148-47.927-.221-76.854-.281l-94.106.049-170.99.608-51.817.176-14.087.024-3.664,0c-.825,0-1.248-.014-1.248-.014s.423-.015,1.248-.025l3.663-.035,14.088-.1,51.815-.3c43.756-.238,104.207-.569,170.99-.721,33.38-.069,65.181-.072,94.108-.019,28.926.079,54.977.18,76.854.363l29.525.265,22.292.263,14.089.206,3.663.063c.826.016,1.249.035,1.249.035" transform="translate(-7.521 -114.713)" fill="#263238"/>
      </g>
    </g>
    <g id="Grupo_881011" data-name="Grupo 881011">
      <g id="Grupo_881010" data-name="Grupo 881010" clip-path="url(#clip-path)">
        <path id="Trazado_634277" data-name="Trazado 634277" d="M69.2,92.633l-1.775-5.94A20.678,20.678,0,1,0,62.47,92.2l-.007.009Z" transform="translate(-7.588 -14.358)" fill="#fafafa"/>
        <path id="Trazado_634278" data-name="Trazado 634278" d="M69.129,92.566s-.134,0-.417-.012l-1.276-.059-5.048-.26a.089.089,0,0,1-.084-.093.1.1,0,0,1,.019-.051l.007-.009.126.126a20.663,20.663,0,0,1-9.31,4.113,20.367,20.367,0,0,1-6.635.017,20.658,20.658,0,0,1-13.3-7.905,20.762,20.762,0,0,1,.86-26.321,20.591,20.591,0,0,1,8.243-5.752,21.18,21.18,0,0,1,9.512-1.284A20.833,20.833,0,0,1,70.509,77.016a20.544,20.544,0,0,1-3.082,9.656l.009-.07,1.278,4.461c.136.484.241.858.318,1.131.07.252.1.377.1.372s-.051-.139-.134-.4c-.087-.275-.206-.654-.361-1.143L67.27,86.651a.089.089,0,0,1,.01-.07A20.55,20.55,0,0,0,51.79,55.471a20.815,20.815,0,0,0-9.326,1.271,20.223,20.223,0,0,0-8.077,5.642A20.444,20.444,0,0,0,46.559,96.025a20.2,20.2,0,0,0,6.542.024,20.692,20.692,0,0,0,9.244-3.983.089.089,0,0,1,.126.015.09.09,0,0,1,0,.11l-.007.009-.065-.144,4.978.366,1.3.1c.294.024.453.043.453.043" transform="translate(-7.518 -14.291)" fill="#263238"/>
        <path id="Trazado_634279" data-name="Trazado 634279" d="M47.752,82.386a2.1,2.1,0,1,1-2.1-2.1,2.1,2.1,0,0,1,2.1,2.1" transform="translate(-11.322 -20.87)" fill="#263238"/>
        <path id="Trazado_634280" data-name="Trazado 634280" d="M59.092,82.386a2.1,2.1,0,1,1-2.1-2.1,2.1,2.1,0,0,1,2.1,2.1" transform="translate(-14.27 -20.87)" fill="#263238"/>
        <path id="Trazado_634281" data-name="Trazado 634281" d="M70.5,81.338a2.1,2.1,0,1,1-2.865-.767,2.1,2.1,0,0,1,2.865.767" transform="translate(-17.309 -20.87)" fill="#263238"/>
      </g>
    </g>
    <g id="Grupo_881022" data-name="Grupo 881022">
      <g id="Grupo_881021" data-name="Grupo 881021" clip-path="url(#clip-path)">
        <path id="Trazado_634282" data-name="Trazado 634282" d="M314.686,358.623h0c-.017,0-.035,1.109-.053,3.056a13.36,13.36,0,0,0-4.586-2.722h.019s-9.249-5.728-13.471-13.026a39.192,39.192,0,0,1-4.093-11.714c0-.318-.033-3.132-.061-5.434a3.522,3.522,0,0,0-3.417-3.468c-3.966-.141-14.53.232-15.276,7.558-1.113,10.932,7.013,20.578,7.678,23.722.125.594.227,1.075.309,1.467-3.122,0-5.534.039-5.535.091l0,0-20.516-.033s-6.881-.457-7.561,6.646,7.313,7.561,7.313,7.561-3.553.66-3.121,6.877,7.314,6.674,7.314,6.674-4,.659-3.785,6.21c.206,5.4,7.358,7.031,7.739,7.114a13.144,13.144,0,0,0-1.619.068,8.886,8.886,0,0,0,1.259.067c-2.909,1.078-2.517,4.748-2.517,4.748-.236,7.771,5.758,8,5.758,8l37.458.069a20.985,20.985,0,0,0,10.623-2.87c.01,1.593.023,2.489.039,2.49l26.163.048c.057,0,.124-11.9.152-26.577s0-26.579-.054-26.579Z" transform="translate(-64.486 -84.554)" fill="#ff725e"/>
        <g id="Grupo_881014" data-name="Grupo 881014" transform="translate(183.601 240.739)" opacity="0.3">
          <g id="Grupo_881013" data-name="Grupo 881013">
            <g id="Grupo_881012" data-name="Grupo 881012" clip-path="url(#clip-path-6)">
              <path id="Trazado_634283" data-name="Trazado 634283" d="M314.686,358.623h0c-.017,0-.035,1.109-.053,3.056a13.36,13.36,0,0,0-4.586-2.722h.019s-9.249-5.728-13.471-13.026a39.192,39.192,0,0,1-4.093-11.714c0-.318-.033-3.132-.061-5.434a3.522,3.522,0,0,0-3.417-3.468c-3.966-.141-14.53.232-15.276,7.558-1.113,10.932,7.013,20.578,7.678,23.722.125.594.227,1.075.309,1.467-3.122,0-5.534.039-5.535.091l0,0-20.516-.033s-6.881-.457-7.561,6.646,7.313,7.561,7.313,7.561-3.553.66-3.121,6.877,7.314,6.674,7.314,6.674-4,.659-3.785,6.21c.206,5.4,7.358,7.031,7.739,7.114a13.144,13.144,0,0,0-1.619.068,8.886,8.886,0,0,0,1.259.067c-2.909,1.078-2.517,4.748-2.517,4.748-.236,7.771,5.758,8,5.758,8l37.458.069a20.985,20.985,0,0,0,10.623-2.87c.01,1.593.023,2.489.039,2.49l26.163.048c.057,0,.124-11.9.152-26.577s0-26.579-.054-26.579Z" transform="translate(-248.087 -325.294)" fill="#eb6f2d"/>
            </g>
          </g>
        </g>
        <path id="Trazado_634284" data-name="Trazado 634284" d="M309.228,378.389l1.229,3.115-.065,35.813a21,21,0,0,1-15.305,6.579l-37.458-.069s-5.995-.232-5.758-8c0,0-.437-4,2.9-4.879,0,0-7.546-1.568-7.757-7.119s3.785-6.21,3.785-6.21-6.882-.456-7.314-6.673,3.121-6.877,3.121-6.877-7.992-.459-7.313-7.562,7.561-6.647,7.561-6.647l26.642.043,23.354.043a13.339,13.339,0,0,1,12.384,8.444" transform="translate(-62.188 -96.137)" fill="#ffb338"/>
        <path id="Trazado_634285" data-name="Trazado 634285" d="M311.663,359.172s-9.249-5.728-13.471-13.027a39.184,39.184,0,0,1-4.093-11.714c0-.317-.033-3.131-.061-5.434a3.522,3.522,0,0,0-3.417-3.468c-3.966-.141-10.274,3.274-11.02,10.6-1.113,10.931,2.756,17.535,3.421,20.68l.665,3.145Z" transform="translate(-72.626 -84.615)" fill="#ffb338"/>
        <rect id="Rectángulo_329690" data-name="Rectángulo 329690" width="53.156" height="26.163" transform="translate(243.56 327.38) rotate(-89.895)" fill="#ffb338"/>
        <path id="Trazado_634286" data-name="Trazado 634286" d="M329.082,423.7c-.057,0-.081-11.9-.054-26.577s.095-26.58.152-26.58.081,11.9.053,26.58-.095,26.577-.151,26.577" transform="translate(-85.522 -96.315)" fill="#263238"/>
        <path id="Trazado_634287" data-name="Trazado 634287" d="M364.434,423.76c-.056,0-.081-11.9-.054-26.577s.095-26.579.152-26.579.081,11.9.053,26.58-.094,26.577-.151,26.577" transform="translate(-94.712 -96.332)" fill="#263238"/>
        <path id="Trazado_634288" data-name="Trazado 634288" d="M341.686,385.287a4.9,4.9,0,1,0,4.9-4.887,4.895,4.895,0,0,0-4.9,4.887" transform="translate(-88.815 -98.878)" fill="#fff"/>
        <path id="Trazado_634289" data-name="Trazado 634289" d="M277.234,369.872c0-.057,2.853-.1,6.371-.091s6.371.058,6.371.115-2.852.1-6.371.09-6.371-.058-6.371-.114" transform="translate(-72.062 -96.118)" fill="#263238"/>
        <path id="Trazado_634290" data-name="Trazado 634290" d="M254.132,407.676a81.216,81.216,0,0,1,8.144.015,40.474,40.474,0,0,1-4.073.1c-2.248,0-4.072-.054-4.072-.11" transform="translate(-66.057 -105.944)" fill="#263238"/>
        <path id="Trazado_634291" data-name="Trazado 634291" d="M248.486,388.852c0-.056,2.588-.1,5.78-.092s5.78.056,5.78.113-2.588.1-5.781.092-5.779-.056-5.779-.113" transform="translate(-64.59 -101.051)" fill="#263238"/>
        <path id="Trazado_634292" data-name="Trazado 634292" d="M258,425.433c0-.057,2.588-.1,5.78-.092s5.78.056,5.78.113-2.588.1-5.781.092-5.779-.057-5.779-.113" transform="translate(-67.064 -110.56)" fill="#263238"/>
        <g id="Grupo_881017" data-name="Grupo 881017" transform="translate(211.334 243.006)" opacity="0.3">
          <g id="Grupo_881016" data-name="Grupo 881016">
            <g id="Grupo_881015" data-name="Grupo 881015" clip-path="url(#clip-path-7)">
              <path id="Trazado_634293" data-name="Trazado 634293" d="M292.59,328.813a3.025,3.025,0,0,1,1.253,2.823,19.374,19.374,0,0,1-.694,3.173,11.031,11.031,0,0,0,.751,7.023c.309.664.69,1.427.372,2.086-.451.934-1.832.793-2.776.361a10.416,10.416,0,0,1-5.932-9.434,7.323,7.323,0,0,1,1.571-4.613,4.334,4.334,0,0,1,5.455-1.419" transform="translate(-285.561 -328.357)" fill="#fff"/>
            </g>
          </g>
        </g>
        <g id="Grupo_881020" data-name="Grupo 881020" transform="translate(181.146 274.794)" opacity="0.3">
          <g id="Grupo_881019" data-name="Grupo 881019">
            <g id="Grupo_881018" data-name="Grupo 881018" clip-path="url(#clip-path-8)">
              <path id="Trazado_634294" data-name="Trazado 634294" d="M246.162,371.654a6.259,6.259,0,0,1,2.687-.337l15.882.335c1.731.037,4.886-.3,5.3,1.357a2.036,2.036,0,0,1-.722,2.606,5.432,5.432,0,0,1-2.843.771c-2.08.144-4.168.135-6.254.121a78.842,78.842,0,0,1-12.532-.779,5.613,5.613,0,0,1-1.782-.522,2.087,2.087,0,0,1-1.112-1.419,2.142,2.142,0,0,1,1.373-2.134" transform="translate(-244.77 -371.309)" fill="#fff"/>
            </g>
          </g>
        </g>
        <path id="Trazado_634295" data-name="Trazado 634295" d="M337.57,372.559c0-.057,3.656-.1,8.165-.087s8.165.061,8.165.117-3.655.1-8.166.088-8.164-.061-8.164-.118" transform="translate(-87.745 -96.817)" fill="#fff"/>
        <path id="Trazado_634296" data-name="Trazado 634296" d="M248.613,398.648c-.013.007-.071-.09-.166-.271a4.556,4.556,0,0,1-.321-.8,6.149,6.149,0,0,1-.245-1.263,6.573,6.573,0,0,1,.48-3.1,6.079,6.079,0,0,1,.616-1.13,4.5,4.5,0,0,1,.549-.669c.146-.144.23-.218.241-.208.028.027-.288.349-.668.956a6.95,6.95,0,0,0-.562,1.121,7.009,7.009,0,0,0-.466,3.012,6.9,6.9,0,0,0,.2,1.239c.178.694.383,1.1.348,1.113" transform="translate(-64.427 -101.687)" fill="#fff"/>
        <path id="Trazado_634297" data-name="Trazado 634297" d="M243.155,381.251a1.887,1.887,0,0,1-.622-.559,4.05,4.05,0,0,1-.632-3.862,1.894,1.894,0,0,1,.411-.728c.032.019-.131.293-.274.774a4.385,4.385,0,0,0,.611,3.728c.289.41.531.619.506.646" transform="translate(-62.817 -97.761)" fill="#fff"/>
        <path id="Trazado_634298" data-name="Trazado 634298" d="M254.377,418.778a2,2,0,0,1-.821-.5,3.483,3.483,0,0,1-.725-4.312,2,2,0,0,1,.611-.745c.028.024-.229.289-.482.811a3.567,3.567,0,0,0,.7,4.14c.409.411.739.577.72.609" transform="translate(-65.604 -107.409)" fill="#fff"/>
        <path id="Trazado_634299" data-name="Trazado 634299" d="M261.7,435.916a2.1,2.1,0,0,1-.614-.6,4.592,4.592,0,0,1-.742-3.978,2.094,2.094,0,0,1,.356-.783c.033.016-.1.313-.215.818a5.053,5.053,0,0,0,.719,3.859c.286.431.52.66.5.686" transform="translate(-67.629 -111.915)" fill="#fff"/>
        <path id="Trazado_634300" data-name="Trazado 634300" d="M282.356,350.751a3.492,3.492,0,0,1-.281-.54c-.087-.176-.187-.394-.286-.654s-.229-.551-.334-.887a18.177,18.177,0,0,1-.645-2.379,18.8,18.8,0,0,1-.218-6.016,18.126,18.126,0,0,1,.469-2.42c.08-.342.187-.642.269-.908s.165-.491.238-.673a3.514,3.514,0,0,1,.241-.559,3.445,3.445,0,0,1-.166.585c-.062.185-.135.412-.2.68s-.167.568-.238.91a20.453,20.453,0,0,0-.423,2.407,20.012,20.012,0,0,0,.217,5.958,20.2,20.2,0,0,0,.6,2.37c.095.335.212.628.3.89s.178.483.253.664a3.513,3.513,0,0,1,.208.571" transform="translate(-72.898 -87.263)" fill="#fff"/>
      </g>
    </g>
    <g id="Grupo_881024" data-name="Grupo 881024">
      <g id="Grupo_881023" data-name="Grupo 881023" clip-path="url(#clip-path)">
        <path id="Trazado_634301" data-name="Trazado 634301" d="M399.948,241.833H190.5a11.849,11.849,0,0,1-11.849-11.849V59.563A11.85,11.85,0,0,1,190.5,47.713H399.948a11.85,11.85,0,0,1,11.85,11.85V229.984a11.85,11.85,0,0,1-11.85,11.849" transform="translate(-46.436 -12.402)" fill="#fff"/>
        <path id="Trazado_634302" data-name="Trazado 634302" d="M399.818,242.073H190.365a12.233,12.233,0,0,1-12.219-12.219V59.433a12.233,12.233,0,0,1,12.219-12.22H399.818a12.233,12.233,0,0,1,12.219,12.22V229.854a12.233,12.233,0,0,1-12.219,12.219M190.365,47.953a11.492,11.492,0,0,0-11.479,11.48V229.854a11.492,11.492,0,0,0,11.479,11.479H399.818A11.493,11.493,0,0,0,411.3,229.854V59.433a11.493,11.493,0,0,0-11.479-11.48Z" transform="translate(-46.306 -12.272)" fill="#263238"/>
        <rect id="Rectángulo_329694" data-name="Rectángulo 329694" width="4.927" height="34.142" transform="translate(169.113 179.583)" fill="#3d672f"/>
        <rect id="Rectángulo_329695" data-name="Rectángulo 329695" width="4.927" height="8.535" transform="translate(159.774 205.19)" fill="#3d672f"/>
        <rect id="Rectángulo_329696" data-name="Rectángulo 329696" width="4.928" height="17.071" transform="translate(177.639 196.654)" fill="#3d672f"/>
        <rect id="Rectángulo_329697" data-name="Rectángulo 329697" width="4.927" height="27.014" transform="translate(186.026 186.711)" fill="#3d672f"/>
        <rect id="Rectángulo_329698" data-name="Rectángulo 329698" width="4.928" height="7.221" transform="translate(195.689 206.504)" fill="#3d672f"/>
        <path id="Trazado_634303" data-name="Trazado 634303" d="M473.19,277.36a1.389,1.389,0,0,1,0-1.656.908.908,0,0,1,.721-.316.922.922,0,0,1,.725.313,1.386,1.386,0,0,1,0,1.662.921.921,0,0,1-.725.312.909.909,0,0,1-.721-.315m1.1-.292a1.135,1.135,0,0,0,0-1.072.462.462,0,0,0-.75,0,1.083,1.083,0,0,0,0,1.067.463.463,0,0,0,.75,0m2.125-1.638H477l-2.848,4.17h-.583Zm-.489,3.9a1.389,1.389,0,0,1,0-1.656.984.984,0,0,1,1.445,0,1.371,1.371,0,0,1,0,1.656.985.985,0,0,1-1.445,0m1.1-.3a1.107,1.107,0,0,0,0-1.066.462.462,0,0,0-.75,0,1.119,1.119,0,0,0,0,1.072.462.462,0,0,0,.75,0" transform="translate(-122.926 -71.582)" fill="#3d672f"/>
        <path id="Trazado_634304" data-name="Trazado 634304" d="M440.22,246.395h16.267a.757.757,0,0,0,.541-1.287l-8.133-8.307a.758.758,0,0,0-1.082,0l-8.133,8.307a.757.757,0,0,0,.541,1.287" transform="translate(-114.23 -61.493)" fill="#ebebeb"/>
        <rect id="Rectángulo_329699" data-name="Rectángulo 329699" width="10.431" height="16.538" transform="translate(329.134 183.352)" fill="#ebebeb"/>
        <path id="Trazado_634305" data-name="Trazado 634305" d="M450.229,285.385v3.373H439.891v-2.672l4.662-4.312a3.859,3.859,0,0,0,.81-.977,1.77,1.77,0,0,0,.2-.793.917.917,0,0,0-.322-.746,1.425,1.425,0,0,0-.931-.267,2.1,2.1,0,0,0-1.106.313,2.054,2.054,0,0,0-.793.885l-3.279-1.64a5.382,5.382,0,0,1,2.156-2.185,7.686,7.686,0,0,1,6.136-.3,4.241,4.241,0,0,1,1.843,1.419,3.531,3.531,0,0,1,.664,2.12,4.532,4.532,0,0,1-.452,2,7.492,7.492,0,0,1-1.76,2.109l-1.843,1.677Z" transform="translate(-114.146 -71.628)" fill="#3d672f"/>
        <path id="Trazado_634306" data-name="Trazado 634306" d="M458.13,288.251a5.441,5.441,0,0,1-2.064-2.322,9.153,9.153,0,0,1,0-7.242,5.445,5.445,0,0,1,2.064-2.322,6.133,6.133,0,0,1,6.063,0,5.454,5.454,0,0,1,2.064,2.322,9.17,9.17,0,0,1,0,7.242,5.45,5.45,0,0,1-2.064,2.322,6.133,6.133,0,0,1-6.063,0m4.506-5.943q0-3.261-1.474-3.262t-1.475,3.262q0,3.261,1.475,3.261t1.474-3.261" transform="translate(-118.352 -71.628)" fill="#3d672f"/>
        <path id="Trazado_634307" data-name="Trazado 634307" d="M243.365,151.57a1.389,1.389,0,0,1,0-1.656.908.908,0,0,1,.721-.316.922.922,0,0,1,.725.313,1.386,1.386,0,0,1,0,1.662.922.922,0,0,1-.725.312.909.909,0,0,1-.721-.315m1.1-.292a1.134,1.134,0,0,0,0-1.072.463.463,0,0,0-.751,0,1.088,1.088,0,0,0,0,1.067.44.44,0,0,0,.373.193.435.435,0,0,0,.378-.191m2.125-1.638h.583l-2.848,4.17h-.583Zm-.489,3.9a1.389,1.389,0,0,1,0-1.656.984.984,0,0,1,1.445,0,1.371,1.371,0,0,1,0,1.656.985.985,0,0,1-1.445,0m1.1-.3a1.107,1.107,0,0,0,0-1.066.463.463,0,0,0-.751,0,1.118,1.118,0,0,0,0,1.072.463.463,0,0,0,.751,0" transform="translate(-63.187 -38.885)" fill="#3d672f"/>
        <path id="Trazado_634308" data-name="Trazado 634308" d="M189.166,147.758H204.05a.693.693,0,0,0,.5-1.177l-7.441-7.6a.694.694,0,0,0-.991,0l-7.441,7.6a.693.693,0,0,0,.5,1.177" transform="translate(-48.99 -36.071)" fill="#ebebeb"/>
        <rect id="Rectángulo_329700" data-name="Rectángulo 329700" width="9.544" height="15.131" transform="translate(143.054 110.269)" fill="#ebebeb"/>
        <path id="Trazado_634309" data-name="Trazado 634309" d="M221.358,150.391v12.9h-4.349v-9.619H214.8v-3.28Z" transform="translate(-55.833 -39.091)" fill="#3d672f"/>
        <path id="Trazado_634310" data-name="Trazado 634310" d="M228.613,162.679a5.442,5.442,0,0,1-2.063-2.322,9.153,9.153,0,0,1,0-7.242,5.443,5.443,0,0,1,2.063-2.322,6.133,6.133,0,0,1,6.063,0,5.444,5.444,0,0,1,2.064,2.322,9.162,9.162,0,0,1,0,7.242,5.444,5.444,0,0,1-2.064,2.322,6.133,6.133,0,0,1-6.063,0m4.506-5.943q0-3.261-1.474-3.261t-1.474,3.261q0,3.261,1.474,3.261t1.474-3.261" transform="translate(-58.694 -38.988)" fill="#3d672f"/>
        <path id="Trazado_634311" data-name="Trazado 634311" d="M259.058,288.945c0,.107-10.035.192-22.412.192s-22.414-.086-22.414-.192,10.033-.192,22.414-.192,22.412.086,22.412.192" transform="translate(-55.686 -75.056)" fill="#263238"/>
      </g>
    </g>
    <g id="Grupo_881026" data-name="Grupo 881026">
      <g id="Grupo_881025" data-name="Grupo 881025" clip-path="url(#clip-path)">
        <path id="Trazado_634312" data-name="Trazado 634312" d="M484.323,65.137H385a6.022,6.022,0,0,1-6.022-6.022V6.282A6.022,6.022,0,0,1,385,.26h99.324a6.022,6.022,0,0,1,6.022,6.022V59.115a6.022,6.022,0,0,1-6.022,6.022" transform="translate(-98.509 -0.068)" fill="#fff"/>
        <path id="Trazado_634313" data-name="Trazado 634313" d="M484.254,65.069c0-.018.3,0,.877-.091a6,6,0,0,0,4.833-4.207,8.325,8.325,0,0,0,.246-2.648q0-1.44-.008-3.063c-.015-8.665-.036-21.188-.061-36.662q-.006-5.8-.013-12.148a5.915,5.915,0,0,0-3.045-5.175A6.094,6.094,0,0,0,483.959.35l-3.383,0L451.519.37,384.938.386a5.846,5.846,0,0,0-5.8,5.191c-.073,2.872-.021,5.8-.038,8.667q0,8.628,0,16.988t0,16.4q0,4.019,0,7.95c.009,1.3-.023,2.627.02,3.894a5.784,5.784,0,0,0,1.408,3.4,5.842,5.842,0,0,0,3.119,1.873,7.766,7.766,0,0,0,1.838.149h1.876l7.376,0,14.106.01,25.318.024,36.661.061,9.966.036,2.592.019c.584.007.883.02.883.02s-.3.013-.883.02l-2.592.019-9.966.036-36.661.061-25.318.024-14.106.01-7.376,0h-1.876a8.111,8.111,0,0,1-1.916-.156,6.2,6.2,0,0,1-4.808-5.59c-.045-1.32-.013-2.6-.024-3.92q0-3.931,0-7.95,0-8.036,0-16.4t0-16.988c.017-2.884-.039-5.753.038-8.708A6.232,6.232,0,0,1,384.938,0l66.581.015,29.057.018,3.383,0A6.415,6.415,0,0,1,487.232.8a6.219,6.219,0,0,1,3.193,5.445q-.007,6.336-.013,12.148c-.026,15.474-.047,28-.061,36.662q0,1.623-.008,3.063a8.424,8.424,0,0,1-.269,2.681,6.072,6.072,0,0,1-2.512,3.318,5.932,5.932,0,0,1-2.424.895,4.335,4.335,0,0,1-.659.05c-.148,0-.223,0-.223,0" transform="translate(-98.44 0)" fill="#263238"/>
        <rect id="Rectángulo_329702" data-name="Rectángulo 329702" width="3.193" height="11.598" transform="translate(294.727 41.232)" fill="#ffb338"/>
        <rect id="Rectángulo_329703" data-name="Rectángulo 329703" width="3.193" height="20.978" transform="translate(306.107 31.852)" fill="#ffb338"/>
        <rect id="Rectángulo_329704" data-name="Rectángulo 329704" width="3.945" height="34.735" transform="translate(300.041 18.095)" fill="#3d672f"/>
        <rect id="Rectángulo_329705" data-name="Rectángulo 329705" width="3.193" height="7.936" transform="translate(317.487 44.893)" fill="#ffb338"/>
        <rect id="Rectángulo_329706" data-name="Rectángulo 329706" width="3.193" height="7.936" transform="translate(311.797 44.893)" fill="#3d672f"/>
        <rect id="Rectángulo_329707" data-name="Rectángulo 329707" width="3.193" height="12.998" transform="translate(328.866 39.832)" fill="#ffb338"/>
        <rect id="Rectángulo_329708" data-name="Rectángulo 329708" width="3.193" height="24.282" transform="translate(323.176 28.548)" fill="#3d672f"/>
        <rect id="Rectángulo_329709" data-name="Rectángulo 329709" width="3.193" height="24.282" transform="translate(345.936 28.548)" fill="#3d672f"/>
        <rect id="Rectángulo_329710" data-name="Rectángulo 329710" width="3.193" height="36.573" transform="translate(334.556 16.256)" fill="#3d672f"/>
        <rect id="Rectángulo_329711" data-name="Rectángulo 329711" width="3.193" height="9.058" transform="translate(340.245 43.772)" fill="#ffb338"/>
        <rect id="Rectángulo_329712" data-name="Rectángulo 329712" width="3.193" height="6.651" transform="translate(368.694 46.179)" fill="#3d672f"/>
        <rect id="Rectángulo_329713" data-name="Rectángulo 329713" width="3.193" height="35.881" transform="translate(357.315 16.948)" fill="#3d672f"/>
        <rect id="Rectángulo_329714" data-name="Rectángulo 329714" width="3.193" height="28.542" transform="translate(363.005 24.288)" fill="#ffb338"/>
        <rect id="Rectángulo_329715" data-name="Rectángulo 329715" width="3.193" height="29.578" transform="translate(351.625 23.251)" fill="#ffb338"/>
        <rect id="Rectángulo_329716" data-name="Rectángulo 329716" width="3.193" height="24.282" transform="translate(374.384 28.548)" fill="#ffb338"/>
        <path id="Trazado_634314" data-name="Trazado 634314" d="M405.413,77.353h-6.6a.452.452,0,0,1-.452-.451v-.416a.452.452,0,0,1,.452-.451h6.6a.451.451,0,0,1,.451.451V76.9a.451.451,0,0,1-.451.451" transform="translate(-103.546 -19.764)" fill="#e0e0e0"/>
        <path id="Trazado_634315" data-name="Trazado 634315" d="M434.8,77.353h-6.6a.452.452,0,0,1-.452-.451v-.416a.452.452,0,0,1,.452-.451h6.6a.451.451,0,0,1,.451.451V76.9a.451.451,0,0,1-.451.451" transform="translate(-111.185 -19.764)" fill="#e0e0e0"/>
        <path id="Trazado_634316" data-name="Trazado 634316" d="M460.743,77.353h-6.6a.452.452,0,0,1-.452-.451v-.416a.452.452,0,0,1,.452-.451h6.6a.451.451,0,0,1,.451.451V76.9a.451.451,0,0,1-.451.451" transform="translate(-117.928 -19.764)" fill="#e0e0e0"/>
        <path id="Trazado_634317" data-name="Trazado 634317" d="M487.462,77.353h-6.6a.452.452,0,0,1-.452-.451v-.416a.452.452,0,0,1,.452-.451h6.6a.451.451,0,0,1,.451.451V76.9a.451.451,0,0,1-.451.451" transform="translate(-124.873 -19.764)" fill="#e0e0e0"/>
        <path id="Trazado_634318" data-name="Trazado 634318" d="M510.1,77.353h-6.6a.452.452,0,0,1-.452-.451v-.416a.452.452,0,0,1,.452-.451h6.6a.451.451,0,0,1,.451.451V76.9a.451.451,0,0,1-.451.451" transform="translate(-130.759 -19.764)" fill="#e0e0e0"/>
        <path id="Trazado_634319" data-name="Trazado 634319" d="M483.471,71.317c0,.107-20.555.192-45.9.192s-45.909-.086-45.909-.192,20.55-.192,45.909-.192,45.9.086,45.9.192" transform="translate(-101.805 -18.488)" fill="#263238"/>
        <path id="Trazado_634320" data-name="Trazado 634320" d="M394.483,12.04a1.754,1.754,0,1,1-1.754-1.754,1.754,1.754,0,0,1,1.754,1.754" transform="translate(-101.627 -2.674)" fill="#e0e0e0"/>
        <path id="Trazado_634321" data-name="Trazado 634321" d="M400.924,12.04a1.754,1.754,0,1,1-1.754-1.754,1.754,1.754,0,0,1,1.754,1.754" transform="translate(-103.301 -2.674)" fill="#e0e0e0"/>
        <path id="Trazado_634322" data-name="Trazado 634322" d="M407.3,12.04a1.754,1.754,0,1,1-1.754-1.754A1.754,1.754,0,0,1,407.3,12.04" transform="translate(-104.959 -2.674)" fill="#e0e0e0"/>
      </g>
    </g>
    <g id="Grupo_881031" data-name="Grupo 881031" transform="translate(0 0.765)">
      <g id="Grupo_881030" data-name="Grupo 881030" clip-path="url(#clip-path)">
        <path id="Trazado_634323" data-name="Trazado 634323" d="M278.425,201.08l10.9,22.733,5.7-1.482,36.442,31.247,10.752-20.308s-21.7-9.986-25.6-17.969-.234-7.752-.234-7.752L307.38,193.56Z" transform="translate(-72.372 -51.077)" fill="#263238"/>
        <path id="Trazado_634324" data-name="Trazado 634324" d="M297.471,147.087s11.433-3.358,29.718-16.311a168.012,168.012,0,0,0,28.48-26.133,6.229,6.229,0,0,1,8.72-.787c4.021,3.39,9.567,11.9,15.609,33.535,10.651,38.141,3.01,45.394-.195,44.818s-24.293-7.547-38.17-8.14-35.026,3.539-35.026,3.539Z" transform="translate(-77.322 -27.389)" fill="#e0e0e0"/>
        <path id="Trazado_634325" data-name="Trazado 634325" d="M297.47,146.963a3.918,3.918,0,0,0,.126.506l.43,1.527,1.725,5.972,6.62,22.587.062.212.22-.04c6.016-1.1,12.9-2.162,20.5-2.894,3.8-.352,7.789-.631,11.93-.612a73.884,73.884,0,0,1,12.779,1.323c8.768,1.544,17.828,4.2,27.408,6.812l.466.1.548.013a3.715,3.715,0,0,0,1.034-.235c.292-.179.6-.345.876-.545l.724-.707a10.29,10.29,0,0,0,1.789-3.492,26.939,26.939,0,0,0,1.1-7.729,81.889,81.889,0,0,0-1.52-15.814q-.332-1.757-.663-3.5c-.237-1.161-.519-2.308-.775-3.456-.5-2.3-1.082-4.564-1.686-6.8-1.146-4.5-2.473-8.871-3.9-13.13a109.115,109.115,0,0,0-4.884-12.292,38.042,38.042,0,0,0-6.974-10.6,7.634,7.634,0,0,0-2.612-1.785,6.437,6.437,0,0,0-3.111-.379,6.64,6.64,0,0,0-2.9,1.077,10.861,10.861,0,0,0-2.154,2.1c-2.557,2.914-5.139,5.654-7.709,8.228a167.116,167.116,0,0,1-15.091,13.443,161.923,161.923,0,0,1-24.578,15.763c-3.074,1.566-5.525,2.645-7.2,3.332-.839.347-1.487.588-1.921.753a6.387,6.387,0,0,0-.656.257,3.971,3.971,0,0,0,.682-.181c.444-.141,1.1-.358,1.952-.682,1.7-.641,4.18-1.678,7.281-3.205a156.087,156.087,0,0,0,24.778-15.6,165.19,165.19,0,0,0,15.208-13.42c2.589-2.573,5.19-5.314,7.767-8.233a10.263,10.263,0,0,1,2.024-1.98,5.926,5.926,0,0,1,7.751,1.027,37.441,37.441,0,0,1,6.8,10.4,108.979,108.979,0,0,1,4.833,12.213c1.414,4.24,2.734,8.6,3.873,13.084.6,2.232,1.184,4.486,1.677,6.777.254,1.144.535,2.286.77,3.441l.659,3.486a81.48,81.48,0,0,1,1.513,15.654,26.248,26.248,0,0,1-1.055,7.506,9.533,9.533,0,0,1-1.636,3.23l-.62.608c-.229.164-.476.292-.71.446a2.344,2.344,0,0,1-1.587.075c-9.492-2.579-18.648-5.238-27.446-6.761a74.156,74.156,0,0,0-12.9-1.292c-4.175,0-8.178.292-11.991.663-7.629.77-14.509,1.875-20.538,3.019l.282.172-6.836-22.363-1.856-5.992c-.209-.659-.372-1.174-.492-1.554a5.382,5.382,0,0,0-.187-.539" transform="translate(-77.322 -27.265)" fill="#263238"/>
        <path id="Trazado_634326" data-name="Trazado 634326" d="M256.06,202.549l7.424-1.135-4.266-9.856-6.245,3.333Z" transform="translate(-65.756 -50.557)" fill="#ffb338"/>
        <path id="Trazado_634327" data-name="Trazado 634327" d="M259.8,180.273l3.324,7.677,1.814,4.19a11.6,11.6,0,0,0,14.781,6.3l30.153-8.256-12.25-38.211L267.1,163.251a13.7,13.7,0,0,0-7.3,17.022" transform="translate(-67.329 -40.268)" fill="#ffb338"/>
        <g id="Grupo_881029" data-name="Grupo 881029" transform="translate(279.179 77.42)" opacity="0.3">
          <g id="Grupo_881028" data-name="Grupo 881028">
            <g id="Grupo_881027" data-name="Grupo 881027" clip-path="url(#clip-path-12)">
              <path id="Trazado_634328" data-name="Trazado 634328" d="M398.236,140.275c5.535,20.336,6.39,37.834,1.912,39.084s-12.6-14.223-18.132-34.559-6.39-37.834-1.912-39.084,12.6,14.223,18.131,34.559" transform="translate(-377.234 -105.645)"/>
            </g>
          </g>
        </g>
        <path id="Trazado_634329" data-name="Trazado 634329" d="M379.872,142.16s10.769-4.606,14.063,9.673-7.376,14.848-7.376,14.848a91.407,91.407,0,0,1-6.687-24.521" transform="translate(-98.741 -37.533)" fill="#fff"/>
        <path id="Trazado_634330" data-name="Trazado 634330" d="M294.824,172.055c.065.2-5.111,2.112-11.558,4.275s-11.729,3.758-11.794,3.56,5.109-2.11,11.56-4.275,11.728-3.757,11.792-3.56" transform="translate(-70.564 -45.483)" fill="#263238"/>
        <path id="Trazado_634331" data-name="Trazado 634331" d="M296.625,177.741c.064.2-5.111,2.111-11.558,4.275s-11.729,3.757-11.794,3.56,5.109-2.111,11.56-4.275,11.728-3.757,11.792-3.56" transform="translate(-71.032 -46.961)" fill="#263238"/>
        <path id="Trazado_634332" data-name="Trazado 634332" d="M298.426,183.427c.064.2-5.111,2.111-11.558,4.275s-11.729,3.758-11.794,3.56,5.109-2.111,11.56-4.275,11.728-3.757,11.792-3.56" transform="translate(-71.501 -48.439)" fill="#263238"/>
        <path id="Trazado_634333" data-name="Trazado 634333" d="M300.226,189.112c.064.2-5.111,2.112-11.558,4.275s-11.729,3.758-11.794,3.56,5.11-2.111,11.559-4.275,11.729-3.758,11.793-3.56" transform="translate(-71.968 -49.917)" fill="#263238"/>
        <path id="Trazado_634334" data-name="Trazado 634334" d="M431.519,167.093c-.044.129,6.177,2.422,13.892,5.122s14.009,4.785,14.052,4.656-6.174-2.422-13.893-5.123-14.007-4.784-14.052-4.655" transform="translate(-112.166 -44.196)" fill="#263238"/>
        <path id="Trazado_634335" data-name="Trazado 634335" d="M428.127,145.022c.02.135,9.947-1.249,22.17-3.092s22.121-3.446,22.1-3.58-9.945,1.248-22.172,3.092-22.118,3.446-22.1,3.58" transform="translate(-111.284 -36.724)" fill="#263238"/>
        <path id="Trazado_634336" data-name="Trazado 634336" d="M425.141,122.127c.092.1,3.57-3,7.768-6.934s7.528-7.2,7.436-7.3-3.569,3-7.768,6.934-7.528,7.2-7.436,7.3" transform="translate(-110.508 -28.809)" fill="#263238"/>
        <path id="Trazado_634337" data-name="Trazado 634337" d="M378.078,108.725a2.691,2.691,0,0,0-.107.736c-.041.577-.093,1.277-.155,2.123-.068.923-.128,2.053-.13,3.367s-.067,2.811.011,4.464A110.383,110.383,0,0,0,378.589,131a122.687,122.687,0,0,0,2.72,13.967,122.556,122.556,0,0,0,4.454,13.506A109.791,109.791,0,0,0,390.643,169c.74,1.476,1.52,2.749,2.17,3.886s1.246,2.094,1.755,2.862c.467.7.854,1.288,1.172,1.768a2.647,2.647,0,0,0,.452.586,2.732,2.732,0,0,0-.32-.672l-1.046-1.842c-.469-.79-1.032-1.762-1.637-2.92s-1.355-2.439-2.06-3.925c-1.5-2.923-3.1-6.495-4.7-10.532a131.937,131.937,0,0,1-4.367-13.439,132.252,132.252,0,0,1-2.762-13.864c-.578-4.311-.926-8.218-1.051-11.509-.113-1.644-.094-3.134-.125-4.443s-.024-2.436,0-3.358c0-.847.007-1.548.01-2.125a2.729,2.729,0,0,0-.049-.745" transform="translate(-98.165 -29.026)" fill="#263238"/>
      </g>
    </g>
    <g id="Grupo_881033" data-name="Grupo 881033">
      <g id="Grupo_881032" data-name="Grupo 881032" clip-path="url(#clip-path)">
        <path id="Trazado_634338" data-name="Trazado 634338" d="M503.931,218.207h0A26.172,26.172,0,1,1,530.1,192.035a26.172,26.172,0,0,1-26.173,26.172" transform="translate(-124.185 -43.113)" fill="#fd4c1b"/>
        <path id="Trazado_634339" data-name="Trazado 634339" d="M521.148,191.365a9.163,9.163,0,0,0-.58-3.03,6.383,6.383,0,0,0-3.651-3.651,9.162,9.162,0,0,0-3.03-.58c-1.332-.061-1.757-.075-5.146-.075s-3.815.014-5.147.075a9.163,9.163,0,0,0-3.03.58,6.379,6.379,0,0,0-3.65,3.651,9.142,9.142,0,0,0-.581,3.03c-.061,1.331-.075,1.757-.075,5.146s.014,3.816.075,5.147a9.142,9.142,0,0,0,.581,3.03,6.385,6.385,0,0,0,3.65,3.651,9.163,9.163,0,0,0,3.03.58c1.332.061,1.757.075,5.147.075s3.814-.014,5.146-.075a9.162,9.162,0,0,0,3.03-.58,6.388,6.388,0,0,0,3.651-3.651,9.163,9.163,0,0,0,.58-3.03c.061-1.331.075-1.757.075-5.147s-.014-3.815-.075-5.146M518.9,201.555a6.9,6.9,0,0,1-.43,2.318,4.132,4.132,0,0,1-2.369,2.369,6.906,6.906,0,0,1-2.318.43c-1.316.06-1.71.073-5.043.073s-3.728-.013-5.044-.073a6.91,6.91,0,0,1-2.318-.43,4.137,4.137,0,0,1-2.369-2.369,6.9,6.9,0,0,1-.43-2.318c-.06-1.316-.073-1.711-.073-5.044s.013-3.728.073-5.044a6.9,6.9,0,0,1,.43-2.318,4.137,4.137,0,0,1,2.369-2.369,6.91,6.91,0,0,1,2.318-.43c1.316-.06,1.711-.073,5.044-.073l5.043.073a6.907,6.907,0,0,1,2.318.43,4.132,4.132,0,0,1,2.369,2.369,6.9,6.9,0,0,1,.43,2.318c.06,1.316.072,1.711.072,5.044s-.013,3.728-.072,5.044" transform="translate(-128.994 -47.835)" fill="#fff"/>
        <path id="Trazado_634340" data-name="Trazado 634340" d="M510.874,192.235a6.41,6.41,0,1,0,6.409,6.41,6.409,6.409,0,0,0-6.409-6.41m0,10.57a4.161,4.161,0,1,1,4.16-4.161,4.161,4.161,0,0,1-4.16,4.161" transform="translate(-131.127 -49.968)" fill="#fff"/>
        <path id="Trazado_634341" data-name="Trazado 634341" d="M521.6,189.868a1.5,1.5,0,1,0,1.5,1.5,1.5,1.5,0,0,0-1.5-1.5" transform="translate(-135.192 -49.353)" fill="#fff"/>
        <rect id="Rectángulo_329720" data-name="Rectángulo 329720" width="0.74" height="34.73" transform="translate(321.957 149.787) rotate(-89.193)" fill="#fd4c1b"/>
        <path id="Trazado_634342" data-name="Trazado 634342" d="M435.652,199.1a2.428,2.428,0,1,1-3.4.48,2.427,2.427,0,0,1,3.4-.48" transform="translate(-112.23 -51.627)" fill="#fd4c1b"/>
      </g>
    </g>
    <g id="Grupo_881035" data-name="Grupo 881035">
      <g id="Grupo_881034" data-name="Grupo 881034" clip-path="url(#clip-path)">
        <path id="Trazado_634343" data-name="Trazado 634343" d="M388.8,316.491h0a26.172,26.172,0,1,1,26.172-26.173A26.172,26.172,0,0,1,388.8,316.491" transform="translate(-94.259 -68.66)" fill="#2b95f9"/>
        <path id="Trazado_634344" data-name="Trazado 634344" d="M381.983,305.883A13.829,13.829,0,0,0,403.258,293.6a9.871,9.871,0,0,0,2.426-2.518,9.73,9.73,0,0,1-2.793.766,4.871,4.871,0,0,0,2.137-2.69,9.743,9.743,0,0,1-3.087,1.18,4.865,4.865,0,0,0-8.286,4.435,13.8,13.8,0,0,1-10.022-5.081,4.868,4.868,0,0,0,1.505,6.493,4.857,4.857,0,0,1-2.2-.608,4.87,4.87,0,0,0,3.9,4.83,4.883,4.883,0,0,1-2.2.083,4.866,4.866,0,0,0,4.542,3.377,9.773,9.773,0,0,1-7.2,2.013" transform="translate(-99.29 -75.07)" fill="#fff"/>
        <rect id="Rectángulo_329722" data-name="Rectángulo 329722" width="0.74" height="24.448" transform="matrix(0.959, -0.283, 0.283, 0.959, 284.766, 176.543)" fill="#2b95f9"/>
        <path id="Trazado_634345" data-name="Trazado 634345" d="M386.839,236.863a2.428,2.428,0,1,1-2.428-2.428,2.428,2.428,0,0,1,2.428,2.428" transform="translate(-99.29 -60.937)" fill="#2b95f9"/>
      </g>
    </g>
    <g id="Grupo_881037" data-name="Grupo 881037">
      <g id="Grupo_881036" data-name="Grupo 881036" clip-path="url(#clip-path)">
        <path id="Trazado_634346" data-name="Trazado 634346" d="M301.385,63.769h0a26.811,26.811,0,0,1-26.811-26.81h0a26.811,26.811,0,0,1,53.622,0h0a26.811,26.811,0,0,1-26.811,26.81" transform="translate(-71.371 -2.638)" fill="#2b95f9"/>
        <path id="Trazado_634347" data-name="Trazado 634347" d="M305.168,53.006h5.477V39.291h3.821l.408-4.593h-4.229V32.083c0-1.083.218-1.51,1.264-1.51h2.965V25.806h-3.793c-4.076,0-5.913,1.8-5.913,5.231V34.7h-2.849v4.65h2.849Z" transform="translate(-78.583 -6.708)" fill="#fff"/>
        <rect id="Rectángulo_329724" data-name="Rectángulo 329724" width="0.74" height="31.407" transform="translate(230.246 56.29)" fill="#2b95f9"/>
        <path id="Trazado_634348" data-name="Trazado 634348" d="M308.238,118.658a2.428,2.428,0,1,1,1.747,2.955,2.428,2.428,0,0,1-1.747-2.955" transform="translate(-80.101 -30.369)" fill="#2b95f9"/>
      </g>
    </g>
    <g id="Grupo_881039" data-name="Grupo 881039">
      <g id="Grupo_881038" data-name="Grupo 881038" clip-path="url(#clip-path)">
        <path id="Trazado_634349" data-name="Trazado 634349" d="M216.828,122.4h0A26.172,26.172,0,1,1,243,96.225,26.172,26.172,0,0,1,216.828,122.4" transform="translate(-49.558 -18.209)" fill="#617a0b"/>
        <path id="Trazado_634350" data-name="Trazado 634350" d="M235.358,99.187a14.1,14.1,0,0,0-28.17-.257c-.007.2-.013.409-.013.614a13.88,13.88,0,0,0,2.019,7.225l-1.579,4.664a1.516,1.516,0,0,0,1.9,1.931l4.949-1.573a14.113,14.113,0,0,0,20.9-12.247c0-.119,0-.238-.006-.357M221.27,111.3a11.8,11.8,0,0,1-6.519-1.946l-4.553,1.451,1.478-4.369a11.639,11.639,0,0,1-2.257-6.9,11.054,11.054,0,0,1,.059-1.142,11.856,11.856,0,0,1,23.6.224c.027.3.04.608.04.918A11.819,11.819,0,0,1,221.27,111.3" transform="translate(-53.852 -22.238)" fill="#fff" fill-rule="evenodd"/>
        <path id="Trazado_634351" data-name="Trazado 634351" d="M230.266,105.038c-.349-.171-2.046-1-2.362-1.115s-.548-.171-.779.172-.9,1.115-1.1,1.34-.4.258-.752.086a9.344,9.344,0,0,1-2.778-1.7,10.261,10.261,0,0,1-1.92-2.368c-.2-.343-.019-.528.152-.7s.343-.4.521-.6c.047-.059.086-.112.125-.165a3.807,3.807,0,0,0,.218-.409.617.617,0,0,0-.026-.6c-.086-.172-.779-1.861-1.069-2.547s-.574-.568-.779-.568-.429-.033-.659-.033a1.28,1.28,0,0,0-.924.428,3.843,3.843,0,0,0-1.207,2.864,4.352,4.352,0,0,0,.178,1.169,7.8,7.8,0,0,0,1.234,2.376c.171.223,2.389,3.8,5.9,5.18s3.517.91,4.151.851a3.449,3.449,0,0,0,2.329-1.63,2.824,2.824,0,0,0,.2-1.63c-.086-.138-.317-.224-.659-.4" transform="translate(-56.387 -24.908)" fill="#fff" fill-rule="evenodd"/>
        <rect id="Rectángulo_329726" data-name="Rectángulo 329726" width="0.74" height="24.448" transform="translate(178.2 92.001) rotate(-40.892)" fill="#617a0b"/>
        <path id="Trazado_634352" data-name="Trazado 634352" d="M260.018,149.744a2.428,2.428,0,1,1,3.216,1.2,2.428,2.428,0,0,1-3.216-1.2" transform="translate(-67.53 -38.031)" fill="#617a0b"/>
      </g>
    </g>
    <g id="Grupo_881047" data-name="Grupo 881047">
      <g id="Grupo_881046" data-name="Grupo 881046" clip-path="url(#clip-path)">
        <path id="Trazado_634353" data-name="Trazado 634353" d="M607.713,419.449H559.589a9.848,9.848,0,0,1-9.848-9.849V367.711a9.848,9.848,0,0,1,9.848-9.848h48.124a3.614,3.614,0,0,1,3.614,3.614v54.357a3.615,3.615,0,0,1-3.614,3.615" transform="translate(-142.896 -93.02)" fill="#455a64"/>
        <g id="Grupo_881042" data-name="Grupo 881042" transform="translate(406.845 264.842)" opacity="0.3">
          <g id="Grupo_881041" data-name="Grupo 881041">
            <g id="Grupo_881040" data-name="Grupo 881040" clip-path="url(#clip-path-18)">
              <path id="Trazado_634354" data-name="Trazado 634354" d="M607.713,419.449H559.589a9.848,9.848,0,0,1-9.848-9.849V367.711a9.848,9.848,0,0,1,9.848-9.848h48.124a3.614,3.614,0,0,1,3.614,3.614v54.357a3.615,3.615,0,0,1-3.614,3.615" transform="translate(-549.74 -357.862)"/>
            </g>
          </g>
        </g>
        <path id="Trazado_634355" data-name="Trazado 634355" d="M590.153,419.449H537.8a3,3,0,0,1-3-3V360.862a3,3,0,0,1,3-3h52.355a3,3,0,0,1,3,3V416.45a3,3,0,0,1-3,3" transform="translate(-139.012 -93.02)" fill="#455a64"/>
        <path id="Trazado_634356" data-name="Trazado 634356" d="M514.049,254.3s-6.5-5.659-8.241-6.634-4.715-.389-7.347-.792-6.374-2.176-7.321-1.661c-1.123.611.05,3.161,4.079,4.745l-1.173-.105-2.866.229s-1.059-1.561-1.963-1.549c-1.292.016-1.254,1.079-1.254,1.079s-1.958-2.307-2.606.187c0,0-2.3-.87-2.461.872,0,0-.511,1.4,4.418,1.779,0,0,4.19,3.936,5.217,4.336s4.591-.15,4.591-.15,1.041,1.5,2.135,1.559c2.082.119,7.42-.242,7.42-.242l2.1,2.51Z" transform="translate(-125.517 -63.715)" fill="#ffc09d"/>
        <path id="Trazado_634357" data-name="Trazado 634357" d="M501.668,257.622a6.068,6.068,0,0,0-.505-.828,6.033,6.033,0,0,1-.984-2.377,4.729,4.729,0,0,1,1.252-3.481c.227-.283.474-.565.734-.847a6.227,6.227,0,0,1,.81-.8.672.672,0,0,1,.9-.005,1.221,1.221,0,0,1,.346,1,3.667,3.667,0,0,1-1.433,2.7l-.18.134.17.144a7.681,7.681,0,0,1,1.367,1.513l.094.137.135-.092a12.689,12.689,0,0,1,4.535-1.9c1.186-.241,1.894-.246,1.892-.294a1.759,1.759,0,0,0-.507-.03,10.207,10.207,0,0,0-1.419.129,12.034,12.034,0,0,0-4.685,1.822l.229.045a7.779,7.779,0,0,0-1.411-1.6l-.009.278a3.988,3.988,0,0,0,1.59-2.975,1.581,1.581,0,0,0-.474-1.293,1,1,0,0,0-.688-.259,1.217,1.217,0,0,0-.659.246,6.374,6.374,0,0,0-.864.861c-.26.289-.51.579-.74.875a4.932,4.932,0,0,0-1.244,3.727,5.74,5.74,0,0,0,1.123,2.422,4.16,4.16,0,0,0,.625.747" transform="translate(-129.934 -64.656)" fill="#ff9b6c"/>
        <path id="Trazado_634358" data-name="Trazado 634358" d="M493.6,251.351a14.6,14.6,0,0,0,1.959,2.615c.3.342.552.674.856.962a1.838,1.838,0,0,0,1,.483,1.68,1.68,0,0,0,.731-.088c.159-.053.243-.1.238-.122s-.1-.028-.265-.019a2.195,2.195,0,0,1-.658-.028,1.724,1.724,0,0,1-.809-.471c-.252-.261-.517-.615-.809-.954a14.6,14.6,0,0,0-2.242-2.378" transform="translate(-128.302 -65.334)" fill="#ff9b6c"/>
        <path id="Trazado_634359" data-name="Trazado 634359" d="M494.492,257.736c.078-.077-1.216-1.468-2.567-3.368s-2.258-3.569-2.355-3.519a18.18,18.18,0,0,0,4.922,6.887" transform="translate(-127.253 -65.203)" fill="#ff9b6c"/>
        <path id="Trazado_634360" data-name="Trazado 634360" d="M489.469,255.265a20.145,20.145,0,0,0-1.674-2.078A13.046,13.046,0,0,0,486,251.2a7.92,7.92,0,0,0,1.508,2.224,6.545,6.545,0,0,0,1.957,1.841" transform="translate(-126.326 -65.294)" fill="#ff9b6c"/>
        <path id="Trazado_634361" data-name="Trazado 634361" d="M500.2,251.8c.013-.1-.584-.224-1.334-.274s-1.36-.008-1.363.094.594.224,1.334.274,1.351.007,1.364-.094" transform="translate(-129.316 -65.374)" fill="#ff9b6c"/>
        <path id="Trazado_634362" data-name="Trazado 634362" d="M558.919,234.033s-6.925-.515-10.946,7.557c-2.658,5.337-10.744,19.728-10.744,19.728l-15.9-13.358L512,258.042s15.918,18.959,22.1,20.4,13.471-2.76,15.753-5.994,9.88-11.128,9.88-11.128Z" transform="translate(-133.086 -60.831)" fill="#2b95f9"/>
        <path id="Trazado_634363" data-name="Trazado 634363" d="M578.005,235.12l1.1-17.874c.033-13.876-1.4-29.929.3-34.466C582.547,174.4,593.8,172.6,593.8,172.6c15.186-1.549,18.257,10.063,20.116,20.668.315,1.8,1.18,4.987,2.268,8.669,2.487,7.662,5.557,15.512,11.344,20.6a13.847,13.847,0,0,1,4.312,7.6c.576,2.883-.859,6.422-3.743,6.994a6.739,6.739,0,0,1-.746,10.616c-2.393,1.6-5.5,1.517-8.374,1.274-2.851-.242-5.844-.637-8.136-2.35s-3.528-4.488-4.483-7.192a65.691,65.691,0,0,1-2.66-10Z" transform="translate(-150.242 -44.828)" fill="#263238"/>
        <path id="Trazado_634364" data-name="Trazado 634364" d="M593.265,177.689l1.081-.752,9.539,5.672a2.872,2.872,0,0,1,2.256,3.163l-6.28,32.887c-.334,2.25-.015,4.373-1.649,5.955l-11.182,10.5c-3.922,3.8-2.159-5.625-4.006-10.763-.129-.359.842-1.472.824-1.716a6.852,6.852,0,0,1-.037-.764c.109-2.714.449-5.029.449-5.029.272-2.956.4-4.167.392-4.139,0,0-6.12-1.678-6.569-9.937-.223-4.107.78-9.556,1.848-14.9,1.477-7.4,7.343-11.108,13.333-10.174" transform="translate(-150.255 -45.992)" fill="#ffc09d"/>
        <path id="Trazado_634365" data-name="Trazado 634365" d="M595.412,200.841a1.048,1.048,0,0,0,.9,1.155,1,1,0,0,0,1.171-.828,1.049,1.049,0,0,0-.895-1.156,1,1,0,0,0-1.173.829" transform="translate(-154.765 -51.986)" fill="#263238"/>
        <path id="Trazado_634366" data-name="Trazado 634366" d="M581.668,198.673a1.047,1.047,0,0,0,.9,1.155,1,1,0,0,0,1.171-.828,1.048,1.048,0,0,0-.895-1.156,1,1,0,0,0-1.172.829" transform="translate(-151.192 -51.423)" fill="#263238"/>
        <path id="Trazado_634367" data-name="Trazado 634367" d="M581.527,195.008c.115.149.965-.353,2.086-.235s1.884.765,2.02.641c.066-.055-.041-.314-.372-.612a2.882,2.882,0,0,0-1.6-.681,2.764,2.764,0,0,0-1.678.357c-.372.229-.515.463-.457.53" transform="translate(-151.155 -50.455)" fill="#263238"/>
        <path id="Trazado_634368" data-name="Trazado 634368" d="M596.16,196.929c.13.137.925-.451,2.051-.447,1.126-.013,1.953.567,2.075.429.06-.061-.071-.308-.432-.57a2.867,2.867,0,0,0-1.661-.513,2.763,2.763,0,0,0-1.633.526c-.346.266-.464.514-.4.574" transform="translate(-154.957 -50.902)" fill="#263238"/>
        <path id="Trazado_634369" data-name="Trazado 634369" d="M588.9,204.185a7.511,7.511,0,0,0-1.787-.517c-.283-.059-.548-.144-.577-.344a1.46,1.46,0,0,1,.28-.829q.511-1,1.072-2.093a37.653,37.653,0,0,0,2.492-5.506,37.774,37.774,0,0,0-2.929,5.293q-.544,1.1-1.038,2.109a1.662,1.662,0,0,0-.265,1.108.722.722,0,0,0,.428.468,1.92,1.92,0,0,0,.479.118,7.309,7.309,0,0,0,1.846.194" transform="translate(-152.352 -50.659)" fill="#263238"/>
        <path id="Trazado_634370" data-name="Trazado 634370" d="M586.905,224.644a20.782,20.782,0,0,0,11.182-1.775s-3.318,5.341-11.371,3.739Z" transform="translate(-152.507 -57.931)" fill="#ff9b6c"/>
        <path id="Trazado_634371" data-name="Trazado 634371" d="M596.334,190.846c.1.309,1.231.2,2.548.4,1.322.172,2.376.59,2.56.32.082-.129-.095-.423-.517-.732a4.484,4.484,0,0,0-3.892-.545c-.491.181-.742.414-.7.562" transform="translate(-155.006 -49.403)" fill="#263238"/>
        <path id="Trazado_634372" data-name="Trazado 634372" d="M582.5,188.994c.166.3.361.217,1.439.473,1.085.225,2.706.717,2.981.509.124-.1.042-.388-.3-.722a3.58,3.58,0,0,0-1.684-.853,3.522,3.522,0,0,0-1.878.062c-.443.16-.632.385-.562.531" transform="translate(-151.406 -48.947)" fill="#263238"/>
        <path id="Trazado_634373" data-name="Trazado 634373" d="M608.832,199.7s-5.006.913-9.616-12.942a39.486,39.486,0,0,1-1.624-10.291l1.892-.264s10.749,4.9,10.916,5.072,1.937,6.251,1.937,6.251Z" transform="translate(-155.333 -45.8)" fill="#263238"/>
        <path id="Trazado_634374" data-name="Trazado 634374" d="M610.86,206.244c.064-.6.911-1.959,1.519-1.99,1.621-.084,4.484.342,4.091,4.4-.537,5.543-5.992,3.861-5.986,3.7,0-.124.155-4.019.377-6.108" transform="translate(-158.685 -53.09)" fill="#ffc09d"/>
        <path id="Trazado_634375" data-name="Trazado 634375" d="M613.045,211.078c.026-.016.09.077.246.168a.97.97,0,0,0,.721.084,2.4,2.4,0,0,0,1.314-2.037,3.211,3.211,0,0,0-.136-1.409,1.12,1.12,0,0,0-.655-.811.494.494,0,0,0-.6.209c-.09.148-.064.263-.095.269s-.11-.1-.044-.329a.622.622,0,0,1,.252-.326.731.731,0,0,1,.548-.09,1.363,1.363,0,0,1,.925.958,3.287,3.287,0,0,1,.185,1.577,2.519,2.519,0,0,1-1.641,2.258,1.039,1.039,0,0,1-.869-.232c-.158-.153-.175-.28-.156-.289" transform="translate(-159.349 -53.751)" fill="#ff9b6c"/>
        <path id="Trazado_634376" data-name="Trazado 634376" d="M613.349,215.51A1.428,1.428,0,1,1,611.9,214.1a1.428,1.428,0,0,1,1.445,1.411" transform="translate(-158.687 -55.651)" fill="#455a64"/>
        <path id="Trazado_634377" data-name="Trazado 634377" d="M633.437,180.243a6.741,6.741,0,0,0-6.573-2.234,7.1,7.1,0,0,0-5.119,4.648l-.673,13.951a2.537,2.537,0,0,0,3.353-3.313,3.19,3.19,0,0,0,3.261,1.462,2.881,2.881,0,0,0,2.26-2.7,2.675,2.675,0,0,0-1.628-2.4,5.669,5.669,0,0,0,5.638-2.575,6.127,6.127,0,0,0-.52-6.843" transform="translate(-161.437 -46.231)" fill="#263238"/>
        <path id="Trazado_634378" data-name="Trazado 634378" d="M617.548,193.638a.994.994,0,0,1-.255.156,6.658,6.658,0,0,1-.771.372,10.332,10.332,0,0,1-3.057.747,12.5,12.5,0,0,1-4.647-.455,13.415,13.415,0,0,1-5.026-2.718,15.2,15.2,0,0,1-3.481-4.536,17.361,17.361,0,0,1-1.532-4.409,17.662,17.662,0,0,1-.368-3.122c-.018-.371,0-.659.005-.855a1.051,1.051,0,0,1,.029-.3,9.6,9.6,0,0,1,.1,1.144,20.821,20.821,0,0,0,.469,3.079,17.968,17.968,0,0,0,1.576,4.318,15.279,15.279,0,0,0,3.427,4.423,13.392,13.392,0,0,0,4.892,2.675,12.667,12.667,0,0,0,4.54.515,13.481,13.481,0,0,0,4.1-1.036" transform="translate(-155.545 -46.403)" fill="#455a64"/>
        <path id="Trazado_634379" data-name="Trazado 634379" d="M622.663,201.34c.034.021-.115.359-.487.822a5.93,5.93,0,0,1-4,2.116,1.974,1.974,0,0,1-.953-.061,8.061,8.061,0,0,0,5.444-2.877" transform="translate(-160.435 -52.334)" fill="#455a64"/>
        <path id="Trazado_634380" data-name="Trazado 634380" d="M625.233,196.322a13.392,13.392,0,0,1-.4-1.885c-.221-1.166-.554-2.771-1.009-4.522s-.949-3.313-1.325-4.44a13.369,13.369,0,0,1-.573-1.838,9.2,9.2,0,0,1,.8,1.758,41.144,41.144,0,0,1,2.345,9,9.223,9.223,0,0,1,.161,1.924" transform="translate(-161.659 -47.733)" fill="#455a64"/>
        <path id="Trazado_634381" data-name="Trazado 634381" d="M592.774,211.752a1.66,1.66,0,0,0-.429-1.094,1.7,1.7,0,0,0-2.025-.4,2.277,2.277,0,0,0-1.148,2,2.069,2.069,0,0,0,1.349,1.052,2.649,2.649,0,0,0,.274.047,1.857,1.857,0,0,0,1.308-.32,1.653,1.653,0,0,0,.671-1.285" transform="translate(-153.145 -54.608)" fill="#ff9b6c"/>
        <path id="Trazado_634382" data-name="Trazado 634382" d="M592.242,209.512c-.175-.024-.275,1.152-1.351,1.906s-2.319.52-2.342.684c-.022.073.261.252.79.309a2.942,2.942,0,0,0,1.949-.5,2.563,2.563,0,0,0,1.057-1.6c.086-.488-.021-.791-.1-.791" transform="translate(-152.983 -54.459)" fill="#263238"/>
        <path id="Trazado_634383" data-name="Trazado 634383" d="M569.544,233.522s-8.545,11.535-9.25,15.534,1.28,29.846,2.3,34.315l-6.616,14.881,11.312,2.649,37.593-.642L603.3,275.516l3.807-16.443.389-21.631-13.372-4.447c-3.506,7.084-15.054,4.76-15.673-.907Z" transform="translate(-144.517 -60.327)" fill="#2b95f9"/>
        <path id="Trazado_634384" data-name="Trazado 634384" d="M619.662,239.322a14.469,14.469,0,0,1,7.246,6.966c2.129,4.277,7.971,22.8,9.421,27.491,1.6,5.169,2.11,9.558-.807,13.115-.841,1.024-.982,2.256-7.133,4.822-6.088,2.54-22.238,7.431-22.238,7.431l-3.366-8.357,19.839-12.171-5.732-15.444Z" transform="translate(-156.683 -62.208)" fill="#2b95f9"/>
        <path id="Trazado_634385" data-name="Trazado 634385" d="M625.59,260.737c.1.026-1.1,4.981-2.678,11.065s-2.94,11-3.039,10.973,1.1-4.98,2.677-11.067,2.94-11,3.039-10.972" transform="translate(-161.124 -67.774)" fill="#263238"/>
        <path id="Trazado_634386" data-name="Trazado 634386" d="M579.1,309.8l1.615-.762-.6.736a2.091,2.091,0,0,0-.54,1.744c.241.915,1.919,1.112,1.919,1.112a2.616,2.616,0,0,0,.482,1.8c.587.782,2.829.21,2.829.21l-.309.669c-.38.714.534,1.6.958,1.708a5.985,5.985,0,0,0,2.808-.842c.741-.487,3.466-.269,3.466-.269s3.413,1.089,4.865.569a3.137,3.137,0,0,0,1.872-1.576s-.242-6.387-2.333-7.4c-1.066-.517-7.269-2.9-9.116-3.685a2.619,2.619,0,0,0-1.958-.042,43.275,43.275,0,0,0-6.561,2.97s-1.592,1-1.273,1.956a1.532,1.532,0,0,0,1.879,1.1" transform="translate(-150.028 -78.916)" fill="#ffc09d"/>
        <path id="Trazado_634387" data-name="Trazado 634387" d="M584.955,308.039a27.087,27.087,0,0,1-3.322,2.393,13.706,13.706,0,0,1,1.616-1.26,13.551,13.551,0,0,1,1.706-1.134" transform="translate(-151.186 -80.069)" fill="#ff9b6c"/>
        <path id="Trazado_634388" data-name="Trazado 634388" d="M586.957,312.805c.019.044-.912.452-2,1.072s-1.93,1.183-1.958,1.143a2.767,2.767,0,0,1,.524-.414c.336-.236.81-.551,1.357-.864a13.893,13.893,0,0,1,1.441-.717,2.589,2.589,0,0,1,.631-.221" transform="translate(-151.542 -81.308)" fill="#ff9b6c"/>
        <path id="Trazado_634389" data-name="Trazado 634389" d="M590.35,316.279a20.951,20.951,0,0,1-3.147,1.753,20.967,20.967,0,0,1,3.147-1.753" transform="translate(-152.633 -82.211)" fill="#ff9b6c"/>
        <path id="Trazado_634390" data-name="Trazado 634390" d="M563.586,246.009a1.347,1.347,0,0,1-.015.369c-.032.283-.07.628-.117,1.045-.115.9-.263,2.217-.423,3.838a116.932,116.932,0,0,0,.238,25.417c.19,1.619.363,2.927.494,3.83l.137,1.042a1.361,1.361,0,0,1,.022.368,1.308,1.308,0,0,1-.1-.354c-.057-.28-.125-.62-.209-1.031-.178-.9-.391-2.2-.616-3.82a100.871,100.871,0,0,1-.239-25.48c.2-1.622.385-2.931.545-3.831l.189-1.035a1.319,1.319,0,0,1,.092-.357" transform="translate(-146.1 -63.946)" fill="#263238"/>
        <path id="Trazado_634391" data-name="Trazado 634391" d="M539.78,425.776l8.324,12.7s-9.682,12.705-8.364,15.2l24.381-15.219-12.186-20.312Z" transform="translate(-140.264 -108.689)" fill="#455a64"/>
        <path id="Trazado_634392" data-name="Trazado 634392" d="M560.1,437.764a1.189,1.189,0,0,1,1.4.745,1.143,1.143,0,0,1-.687,1.414,1.255,1.255,0,0,1-1.479-.8,1.177,1.177,0,0,1,.875-1.388" transform="translate(-145.383 -113.779)" fill="#e0e0e0"/>
        <path id="Trazado_634393" data-name="Trazado 634393" d="M564.084,444.885l-1.306-2-22.887,15.34s-.789,1.166-.187,1.879Z" transform="translate(-140.228 -115.12)" fill="#263238"/>
        <path id="Trazado_634394" data-name="Trazado 634394" d="M550.443,445.538c.078.121.707-.2,1.533-.165.826.007,1.451.352,1.531.235.1-.092-.529-.716-1.528-.735s-1.631.568-1.536.665" transform="translate(-143.076 -115.637)" fill="#fff"/>
        <path id="Trazado_634395" data-name="Trazado 634395" d="M547.884,449.3c.045.136.688.024,1.408.292.727.246,1.171.745,1.286.666.124-.05-.232-.822-1.132-1.138s-1.63.061-1.562.181" transform="translate(-142.412 -116.707)" fill="#fff"/>
        <path id="Trazado_634396" data-name="Trazado 634396" d="M547.736,454.337c.124-.041-.083-.759-.8-1.243s-1.433-.4-1.422-.269c-.006.144.574.279,1.155.685s.938.889,1.064.827" transform="translate(-141.798 -117.677)" fill="#fff"/>
        <path id="Trazado_634397" data-name="Trazado 634397" d="M548.294,441.032c.118.081.561-.43,1.263-.8.694-.388,1.36-.481,1.357-.625.015-.132-.773-.269-1.593.183s-1.144,1.185-1.027,1.245" transform="translate(-142.513 -114.234)" fill="#fff"/>
        <path id="Trazado_634398" data-name="Trazado 634398" d="M555.958,324.2s-40.05,13.352-46.633,18.67c-5.3,4.282-4.6,16.565-1.525,21.467,1.253,2,28.914,48.4,28.914,48.4l13.734-7.507-18.5-45.312s45.183-8.773,53.542-12.537c10.35-4.66,7.036-15.406,7.036-15.406l-1.812-7.774Z" transform="translate(-131.373 -84.27)" fill="#263238"/>
        <path id="Trazado_634399" data-name="Trazado 634399" d="M553.578,408.756l8.324,12.7s-9.682,12.706-8.364,15.2l24.38-15.22-12.184-20.313Z" transform="translate(-143.851 -104.265)" fill="#455a64"/>
        <path id="Trazado_634400" data-name="Trazado 634400" d="M573.9,420.744a1.189,1.189,0,0,1,1.4.745,1.143,1.143,0,0,1-.687,1.414,1.255,1.255,0,0,1-1.479-.8,1.177,1.177,0,0,1,.875-1.388" transform="translate(-148.97 -109.355)" fill="#e0e0e0"/>
        <path id="Trazado_634401" data-name="Trazado 634401" d="M577.881,427.866l-1.306-2-22.887,15.34s-.789,1.166-.187,1.879Z" transform="translate(-143.814 -110.697)" fill="#263238"/>
        <path id="Trazado_634402" data-name="Trazado 634402" d="M564.867,428.518c.078.121.708-.2,1.533-.165.826.007,1.451.352,1.531.235.1-.093-.528-.716-1.528-.735s-1.63.568-1.536.665" transform="translate(-146.825 -111.213)" fill="#fff"/>
        <path id="Trazado_634403" data-name="Trazado 634403" d="M562.272,432.373c.045.136.688.024,1.407.292.728.246,1.171.745,1.286.666.124-.05-.232-.822-1.132-1.138s-1.63.061-1.562.181" transform="translate(-146.152 -112.308)" fill="#fff"/>
        <path id="Trazado_634404" data-name="Trazado 634404" d="M562.123,437.488c.124-.041-.083-.759-.8-1.243s-1.434-.4-1.422-.269c-.006.143.574.279,1.155.685s.938.89,1.064.827" transform="translate(-145.537 -113.298)" fill="#fff"/>
        <path id="Trazado_634405" data-name="Trazado 634405" d="M563.095,425.07c.118.081.561-.43,1.263-.8.694-.388,1.359-.481,1.357-.625.015-.132-.773-.269-1.593.183s-1.144,1.185-1.027,1.245" transform="translate(-146.361 -110.085)" fill="#fff"/>
        <path id="Trazado_634406" data-name="Trazado 634406" d="M514.129,323.528c-2.3,2.123-5.821,9.076-2.073,17.243,2.376,5.178,35.147,55.845,35.147,55.845l13.3-8.756s-11.393-23.884-15.193-35.068c-2.89-8.506-9.316-21.62-9.732-22.478l20.653-7.586s-22.073-7.009-30.109-5.292-11.99,6.092-11.99,6.092" transform="translate(-132.673 -82.442)" fill="#263238"/>
        <path id="Trazado_634407" data-name="Trazado 634407" d="M514.1,323.5a6.4,6.4,0,0,1,.556-.57,18.007,18.007,0,0,1,1.812-1.465,25.435,25.435,0,0,1,8.047-3.759l1.445-.357c.5-.093,1.025-.148,1.557-.226a24.206,24.206,0,0,1,3.364-.018,58.582,58.582,0,0,1,7.532.97,164.508,164.508,0,0,1,17.829,4.485l.417.128-.411.151-20.646,7.606.094-.232q2.395,4.909,4.77,10.2c1.569,3.528,3.135,7.173,4.521,10.985,1.313,3.832,2.82,7.67,4.46,11.544s3.358,7.786,5.14,11.734c2.014,4.454,4.035,8.827,6.049,13.075l.07.146-.135.089-13.3,8.752-.152.1-.1-.153c-6.608-10.241-12.74-19.815-18.207-28.425s-10.279-16.248-14.152-22.679c-.959-1.614-1.881-3.136-2.648-4.645a19.254,19.254,0,0,1-1.451-4.516,17.8,17.8,0,0,1-.213-4.1,16.9,16.9,0,0,1,.625-3.375,14.032,14.032,0,0,1,2.042-4.231A6.759,6.759,0,0,1,514.1,323.5s-.09.107-.277.306a8.261,8.261,0,0,0-.753.947,14.32,14.32,0,0,0-1.975,4.229,16.925,16.925,0,0,0-.592,3.352,17.708,17.708,0,0,0,.238,4.056,19.155,19.155,0,0,0,1.46,4.461c.763,1.484,1.695,3.007,2.659,4.613,3.9,6.41,8.735,14.032,14.217,22.631s11.632,18.161,18.249,28.4l-.251-.053,13.294-8.76-.066.235c-2.018-4.251-4.04-8.624-6.055-13.081-1.783-3.951-3.509-7.865-5.141-11.744s-3.153-7.736-4.461-11.564c-1.377-3.8-2.938-7.439-4.5-10.964s-3.162-6.926-4.752-10.2l-.082-.169.176-.064,20.661-7.565.006.279a166.263,166.263,0,0,0-17.783-4.533,58.869,58.869,0,0,0-7.5-1,24.017,24.017,0,0,0-3.337,0c-.524.075-1.039.125-1.536.214l-1.439.347a25.777,25.777,0,0,0-8.042,3.668,20.11,20.11,0,0,0-1.832,1.427l-.585.537" transform="translate(-132.648 -82.412)" fill="#455a64"/>
        <path id="Trazado_634408" data-name="Trazado 634408" d="M537.871,328.3a13.036,13.036,0,0,1,4.919,5.155c-.093.061-1.014-1.247-2.37-2.662s-2.613-2.4-2.548-2.493" transform="translate(-139.81 -85.335)" fill="#455a64"/>
        <path id="Trazado_634409" data-name="Trazado 634409" d="M553.514,408.689a1.268,1.268,0,0,1,.193-.138l.605-.4,2.376-1.532,8.908-5.682.115-.074.073.119c3.257,5.4,7.484,12.415,12.23,20.285l.095.158-.158.1-9.97,6.23-14.413,8.984-.175.109-.082-.178a2.107,2.107,0,0,1-.062-1.343,7.762,7.762,0,0,1,.366-1.2,20.955,20.955,0,0,1,1.029-2.194c.75-1.4,1.559-2.7,2.363-3.945,1.617-2.478,3.217-4.7,4.719-6.686l-.007.159c-2.545-3.939-4.609-7.134-6.052-9.366-.693-1.084-1.234-1.933-1.618-2.532-.172-.274-.309-.49-.411-.654a1.391,1.391,0,0,1-.127-.22,2.542,2.542,0,0,1,.166.228c.114.165.263.383.45.659l1.693,2.52,6.131,9.212.053.081-.058.079c-1.482,1.986-3.066,4.219-4.665,6.7-.794,1.24-1.594,2.543-2.33,3.931a20.374,20.374,0,0,0-1,2.159,7.345,7.345,0,0,0-.346,1.145,1.8,1.8,0,0,0,.031,1.1l-.256-.069,14.4-9,9.976-6.22-.062.255-12.141-20.34.188.045-8.916,5.514-2.438,1.492-.643.386a2.214,2.214,0,0,1-.23.129" transform="translate(-143.787 -104.198)" fill="#263238"/>
        <g id="Grupo_881045" data-name="Grupo 881045" transform="translate(382.728 238.39)" opacity="0.3">
          <g id="Grupo_881044" data-name="Grupo 881044">
            <g id="Grupo_881043" data-name="Grupo 881043" clip-path="url(#clip-path-19)">
              <path id="Trazado_634410" data-name="Trazado 634410" d="M517.153,323.66l30.421,1.417,47.258,3.157-1.066-4.574h1.027l-.1-1.541h-75.37Z" transform="translate(-517.153 -322.119)"/>
            </g>
          </g>
        </g>
        <path id="Trazado_634411" data-name="Trazado 634411" d="M619.491,279.741a3.5,3.5,0,0,1,.311.672q.3.751.766,1.917c.656,1.715,1.542,4.033,2.573,6.734l.053.136-.127.078-5.144,3.173c-3.779,2.319-7.212,4.4-9.707,5.89l-2.965,1.746a7.809,7.809,0,0,1-1.115.6,7.913,7.913,0,0,1,1.036-.723l2.9-1.852c2.458-1.549,5.868-3.666,9.648-5.986l5.159-3.148-.074.214-2.442-6.781q-.409-1.188-.671-1.953a3.517,3.517,0,0,1-.2-.712" transform="translate(-157.035 -72.714)" fill="#263238"/>
        <path id="Trazado_634412" data-name="Trazado 634412" d="M508.665,274.185l40.34,2a2.534,2.534,0,0,1,2.676,2.037l3.19,29.595,20.786.863a1.213,1.213,0,1,1-.1,2.423l-20.423-.847-3.876-.161-42.088-1.747-3.248-31.23a2.65,2.65,0,0,1,2.744-2.936" transform="translate(-131.501 -71.269)" fill="#e0e0e0"/>
        <path id="Trazado_634413" data-name="Trazado 634413" d="M508.649,274.183a2.139,2.139,0,0,0-.639.033,2.67,2.67,0,0,0-2.137,2.225,7.526,7.526,0,0,0,.079,1.666c.121,1.2.258,2.573.412,4.121.633,6.2,1.544,15.143,2.663,26.134l.012.107.108.005,64.4,2.711,1.733.072a1.683,1.683,0,0,0,.924-.136,1.376,1.376,0,0,0,.094-2.4,1.679,1.679,0,0,0-.9-.209l-.854-.035-6.745-.279-12.94-.533.149.141c-1.15-10.6-2.222-20.487-3.186-29.357a2.288,2.288,0,0,0-.682-1.567,3.007,3.007,0,0,0-1.515-.745,13.326,13.326,0,0,0-1.624-.125l-1.584-.076-6.074-.293-10.793-.517-15.368-.716-4.112-.178-1.062-.039c-.239-.007-.36,0-.36,0s.121.016.36.032l1.06.067,4.11.229,15.364.809,10.792.555,6.073.31,1.584.081a13.209,13.209,0,0,1,1.585.124,2.747,2.747,0,0,1,1.382.679,2.017,2.017,0,0,1,.6,1.4c.949,8.872,2.007,18.761,3.142,29.361l.016.135.135.006,12.94.541,6.745.281.854.036a1.357,1.357,0,0,1,.746.161,1.05,1.05,0,0,1-.071,1.835,1.354,1.354,0,0,1-.764.1l-1.732-.073-64.407-2.634.118.112c-1.166-10.986-2.115-19.923-2.772-26.123-.168-1.547-.316-2.922-.445-4.117a7.594,7.594,0,0,1-.1-1.641,2.6,2.6,0,0,1,.52-1.236,2.649,2.649,0,0,1,1.534-.967,5.183,5.183,0,0,1,.632-.07" transform="translate(-131.485 -71.267)" fill="#263238"/>
        <path id="Trazado_634414" data-name="Trazado 634414" d="M537.5,297.054a2.529,2.529,0,1,1-2.422-2.631,2.528,2.528,0,0,1,2.422,2.631" transform="translate(-138.4 -76.53)" fill="#fff"/>
        <path id="Trazado_634415" data-name="Trazado 634415" d="M568.282,310.609c-.058.007-1.031-7.535-2.174-16.845s-2.024-16.865-1.967-16.872,1.031,7.534,2.175,16.846,2.023,16.864,1.966,16.871" transform="translate(-146.638 -71.973)" fill="#263238"/>
      </g>
    </g>
    <g id="Grupo_881052" data-name="Grupo 881052">
      <g id="Grupo_881051" data-name="Grupo 881051" clip-path="url(#clip-path)">
        <path id="Trazado_634416" data-name="Trazado 634416" d="M129.64,411.727l-.568,14.928s14.983,5.59,15.147,8.359l-28.984-.061-.07-23.3Z" transform="translate(-29.935 -107.003)" fill="#263238"/>
        <path id="Trazado_634417" data-name="Trazado 634417" d="M121.554,430.183a1.184,1.184,0,0,0-.821,1.349,1.138,1.138,0,0,0,1.33.826,1.249,1.249,0,0,0,.862-1.433,1.179,1.179,0,0,0-1.479-.705" transform="translate(-31.376 -111.806)" fill="#e0e0e0"/>
        <path id="Trazado_634418" data-name="Trazado 634418" d="M115.26,442.31l.085-2.348,27.758.936s1.289.564,1.141,1.473Z" transform="translate(-29.96 -114.361)" fill="#455a64"/>
        <path id="Trazado_634419" data-name="Trazado 634419" d="M133.664,431.678c-.005.141-.713.2-1.41.658-.71.435-1.07,1.048-1.2.991-.13-.027.082-.873.936-1.408s1.7-.371,1.673-.241" transform="translate(-34.056 -112.173)" fill="#fff"/>
        <path id="Trazado_634420" data-name="Trazado 634420" d="M138.021,433.412c.032.137-.582.377-1.064.974-.5.584-.622,1.231-.763,1.224-.133.022-.229-.807.384-1.539s1.439-.794,1.442-.659" transform="translate(-35.376 -112.643)" fill="#fff"/>
        <path id="Trazado_634421" data-name="Trazado 634421" d="M140.96,437.5c-.13.03-.325-.678.04-1.452s1.028-1.081,1.087-.964c.08.117-.351.531-.64,1.172-.306.633-.347,1.23-.487,1.243" transform="translate(-36.596 -113.085)" fill="#fff"/>
        <path id="Trazado_634422" data-name="Trazado 634422" d="M133.2,426.928c-.06.129-.708-.068-1.508-.015-.8.036-1.425.3-1.5.182-.082-.1.527-.625,1.471-.674s1.605.4,1.536.507" transform="translate(-33.839 -110.84)" fill="#fff"/>
        <path id="Trazado_634423" data-name="Trazado 634423" d="M81.96,409.007l-1.569,18.005,2.865,14.6a1.852,1.852,0,0,1-3.178,1.613C77.495,440.408,68.043,430,68.232,428.689c.219-1.519.394-19.1.394-19.1Z" transform="translate(-17.735 -106.314)" fill="#263238"/>
        <path id="Trazado_634424" data-name="Trazado 634424" d="M81.68,450.291l-13.36-16.333-.05.764a2.787,2.787,0,0,0,.544,1.846c1.059,1.419,4.069,5.275,11.218,13.139a1.851,1.851,0,0,0,1.647.584" transform="translate(-17.744 -112.8)" fill="#455a64"/>
        <g id="Grupo_881050" data-name="Grupo 881050" transform="translate(52.971 315.365)" opacity="0.6">
          <g id="Grupo_881049" data-name="Grupo 881049">
            <g id="Grupo_881048" data-name="Grupo 881048" clip-path="url(#clip-path-21)">
              <path id="Trazado_634425" data-name="Trazado 634425" d="M73.255,426.342a1.12,1.12,0,0,1,.212,1.48,1.077,1.077,0,0,1-1.465.223,1.181,1.181,0,0,1-.216-1.568,1.117,1.117,0,0,1,1.55-.063" transform="translate(-71.576 -426.13)" fill="#fff"/>
            </g>
          </g>
        </g>
        <path id="Trazado_634426" data-name="Trazado 634426" d="M81.5,444.355a4,4,0,0,1,3.774-1.565c.019-.044-.2-.2-.619-.285a2.953,2.953,0,0,0-2.919,1.211c-.234.357-.279.622-.235.639" transform="translate(-21.18 -115.009)" fill="#fff"/>
        <path id="Trazado_634427" data-name="Trazado 634427" d="M83.028,448a15.109,15.109,0,0,1,1.647-.673,15.288,15.288,0,0,1,1.776-.115,2.056,2.056,0,0,0-1.865-.272c-1.082.243-1.649,1.005-1.559,1.06" transform="translate(-21.579 -116.153)" fill="#fff"/>
        <path id="Trazado_634428" data-name="Trazado 634428" d="M78.539,439.979a18.514,18.514,0,0,1,2.472-1.211,18.454,18.454,0,0,1,2.716-.451,5.064,5.064,0,0,0-5.188,1.662" transform="translate(-20.413 -113.881)" fill="#fff"/>
        <path id="Trazado_634429" data-name="Trazado 634429" d="M78.567,432.97c.041.111,1.064-.241,2.364-.205,1.3.018,2.308.414,2.353.3a4.6,4.6,0,0,0-4.717-.1" transform="translate(-20.422 -112.386)" fill="#fff"/>
        <path id="Trazado_634430" data-name="Trazado 634430" d="M79.009,425.782a9.067,9.067,0,0,1,2.456-.279,9.116,9.116,0,0,1,2.353.754c.032-.036-.15-.275-.551-.542a4.039,4.039,0,0,0-3.612-.357c-.445.184-.671.382-.646.423" transform="translate(-20.537 -110.495)" fill="#fff"/>
        <path id="Trazado_634431" data-name="Trazado 634431" d="M81.534,423a1.561,1.561,0,0,0,.068-.681,4.745,4.745,0,0,0-.427-1.821,2.112,2.112,0,0,0-.837-1.061.744.744,0,0,0-.847.112,1.209,1.209,0,0,0-.338.8,2.616,2.616,0,0,0,2.134,2.564,3.036,3.036,0,0,0,3.078-1.394,1.054,1.054,0,0,0,.106-.872.731.731,0,0,0-.738-.434,2.591,2.591,0,0,0-1.228.542,5.29,5.29,0,0,0-1.321,1.322,1.618,1.618,0,0,0-.317.605,8.422,8.422,0,0,1,1.793-1.695,2.42,2.42,0,0,1,1.082-.445.388.388,0,0,1,.4.235.721.721,0,0,1-.1.568,2.708,2.708,0,0,1-2.682,1.177,2.273,2.273,0,0,1-1.843-2.15.877.877,0,0,1,.212-.565.4.4,0,0,1,.467-.068,1.9,1.9,0,0,1,.725.885A7.021,7.021,0,0,1,81.534,423" transform="translate(-20.574 -109.004)" fill="#fff"/>
        <path id="Trazado_634432" data-name="Trazado 634432" d="M131.209,240.3a64.179,64.179,0,0,1,1.4,18.875c-.309,4.011-13.844,114.976-13.844,114.976H100.49l5.137-104.292-1.5.325s-9.976,44.48-10.79,51.682c-.732,6.473-9.145,53.5-9.145,53.5l-16.709.192,5.336-62.2,6.211-59.686L81.369,236.3Z" transform="translate(-17.542 -61.421)" fill="#263238"/>
        <path id="Trazado_634433" data-name="Trazado 634433" d="M119.678,267.423c-.007.01.032.052.118.124a1.26,1.26,0,0,0,.446.211,2.09,2.09,0,0,0,1.733-.41,3.432,3.432,0,0,0,1.183-2.362c.131-.994.15-2.061.224-3.191.123-2.257.215-4.3.263-5.782a16.055,16.055,0,0,0,0-2.4,16.116,16.116,0,0,0-.256,2.386c-.112,1.478-.243,3.52-.366,5.777-.073,1.124-.086,2.214-.194,3.165a3.244,3.244,0,0,1-1.012,2.208,2.019,2.019,0,0,1-1.55.474,3.409,3.409,0,0,1-.593-.2" transform="translate(-31.108 -65.922)" fill="#455a64"/>
        <path id="Trazado_634434" data-name="Trazado 634434" d="M83.35,256.1a1.486,1.486,0,0,0,.512.184,8.678,8.678,0,0,0,1.46.246,10.515,10.515,0,0,0,8.794-3.533A8.781,8.781,0,0,0,95,251.806a1.5,1.5,0,0,0,.242-.488c-.052-.034-.458.622-1.312,1.5a11.218,11.218,0,0,1-8.594,3.452c-1.226-.047-1.975-.238-1.988-.178" transform="translate(-21.665 -65.326)" fill="#455a64"/>
        <path id="Trazado_634435" data-name="Trazado 634435" d="M145.3,251.5a6,6,0,0,0,.278,1.835,13.727,13.727,0,0,0,4.895,7.366,6.014,6.014,0,0,0,1.584.966A16.64,16.64,0,0,1,145.3,251.5" transform="translate(-37.765 -65.374)" fill="#455a64"/>
        <path id="Trazado_634436" data-name="Trazado 634436" d="M134.931,85.772a3.377,3.377,0,0,0,1.095-6.63,3.513,3.513,0,0,0-3.358-5.76,4.2,4.2,0,0,0-6.506-3.119,4.727,4.727,0,0,0-5.818.178,3.362,3.362,0,0,0-2.675,5.847" transform="translate(-30.297 -18.026)" fill="#263238"/>
        <path id="Trazado_634437" data-name="Trazado 634437" d="M117.133,75.354l.741-.037a14.326,14.326,0,0,1,14.918,12.45c.9,6.886,1.808,14.5,1.947,18.215.286,7.685-7.336,9.26-7.336,9.26l1.108,9.194-18.667.349-3.311-33.379c-1.083-7.94,2.633-15.188,10.6-16.052" transform="translate(-27.644 -19.573)" fill="#ae7461"/>
        <path id="Trazado_634438" data-name="Trazado 634438" d="M131.3,128.393a18.648,18.648,0,0,1-10.209-2.445s2.76,5.55,10.388,4.477Z" transform="translate(-31.475 -32.738)" fill="#6f4439"/>
        <path id="Trazado_634439" data-name="Trazado 634439" d="M139.121,101.728a1.1,1.1,0,0,1-1,1.159,1.05,1.05,0,0,1-1.179-.932,1.1,1.1,0,0,1,1-1.16,1.052,1.052,0,0,1,1.182.933" transform="translate(-35.594 -26.198)" fill="#263238"/>
        <path id="Trazado_634440" data-name="Trazado 634440" d="M138.577,96.964c-.129.15-.99-.424-2.17-.362-1.18.044-2.016.695-2.151.557-.067-.061.059-.326.423-.619a3.016,3.016,0,0,1,1.713-.622,2.891,2.891,0,0,1,1.736.467c.377.261.512.513.449.58" transform="translate(-34.893 -24.931)" fill="#263238"/>
        <path id="Trazado_634441" data-name="Trazado 634441" d="M125.025,102.353a1.1,1.1,0,0,1-1,1.159,1.051,1.051,0,0,1-1.18-.932,1.1,1.1,0,0,1,1-1.16,1.051,1.051,0,0,1,1.18.933" transform="translate(-31.93 -26.361)" fill="#263238"/>
        <path id="Trazado_634442" data-name="Trazado 634442" d="M123.654,98.04c-.129.149-.992-.423-2.171-.362-1.179.045-2.015.695-2.151.557-.066-.061.058-.326.423-.619a3.013,3.013,0,0,1,1.713-.623,2.9,2.9,0,0,1,1.737.467c.375.261.512.513.448.58" transform="translate(-31.014 -25.211)" fill="#263238"/>
        <path id="Trazado_634443" data-name="Trazado 634443" d="M130.451,106.5a7.827,7.827,0,0,1,1.9-.441c.3-.046.582-.12.623-.329a1.537,1.537,0,0,0-.246-.883q-.48-1.072-1.005-2.251a39.584,39.584,0,0,1-2.3-5.9,39.492,39.492,0,0,1,2.769,5.7c.338.791.662,1.545.969,2.266a1.745,1.745,0,0,1,.215,1.175.756.756,0,0,1-.473.465,2.04,2.04,0,0,1-.508.1,7.713,7.713,0,0,1-1.943.1" transform="translate(-33.638 -25.135)" fill="#263238"/>
        <path id="Trazado_634444" data-name="Trazado 634444" d="M123.819,91.8c-.141.307-1.169.033-2.416.055-1.248-.007-2.285.28-2.415-.025-.056-.146.152-.426.588-.688a3.75,3.75,0,0,1,1.849-.485,3.606,3.606,0,0,1,1.83.463c.427.257.625.534.562.68" transform="translate(-30.927 -23.565)" fill="#263238"/>
        <path id="Trazado_634445" data-name="Trazado 634445" d="M138.156,90.366c-.235.28-1.223.05-2.395.1-1.173.011-2.154.288-2.4.018-.107-.131.036-.407.457-.682a3.813,3.813,0,0,1,1.924-.536,3.752,3.752,0,0,1,1.937.444c.427.255.577.524.474.66" transform="translate(-34.657 -23.202)" fill="#263238"/>
        <path id="Trazado_634446" data-name="Trazado 634446" d="M131.216,83.935s-2.265-4.708-4.639-5.716c-2.874-1.219-3.93,1.922-6.643,1.307s-5.457-1.785-8.089.419c-2.88,2.413-1.4,3.931-1.414,7.347-.064,13.852-2.392,17.884-3.433,11.413-.114-.709-2.12-1.177-2.564-4.175-.574-3.887-.96-8.622-.226-11.437a10.946,10.946,0,0,1,4.17-5.951c3.631-3,8.808-3.314,12.342-3.135s10.517,3.89,10.5,9.927" transform="translate(-26.982 -19.227)" fill="#263238"/>
        <path id="Trazado_634447" data-name="Trazado 634447" d="M106.971,106.405a2.087,2.087,0,0,0-2.35-1.9c-1.425.207-2.979,1.1-2.738,4.054.428,5.243,5.6,3.731,5.6,3.58,0-.1-.313-3.545-.512-5.737" transform="translate(-26.476 -27.16)" fill="#ae7461"/>
        <path id="Trazado_634448" data-name="Trazado 634448" d="M106.818,110.863c-.024-.015-.087.072-.235.155a.912.912,0,0,1-.682.07,2.265,2.265,0,0,1-1.211-1.941,3.033,3.033,0,0,1,.149-1.328,1.059,1.059,0,0,1,.63-.757.466.466,0,0,1,.56.206c.082.141.058.248.086.255s.105-.1.046-.31a.589.589,0,0,0-.233-.312.694.694,0,0,0-.517-.092,1.288,1.288,0,0,0-.887.89,3.116,3.116,0,0,0-.2,1.487,2.378,2.378,0,0,0,1.517,2.155.981.981,0,0,0,.824-.207c.152-.143.169-.262.151-.27" transform="translate(-27.113 -27.759)" fill="#6f4439"/>
        <path id="Trazado_634449" data-name="Trazado 634449" d="M106.377,87.666a4.992,4.992,0,0,0,2.275.916,1.715,1.715,0,0,0,1.84-1.3c.044-.369-.067-.788.16-1.083.27-.351.8-.272,1.246-.247,1.535.087,3.234-1.688,3.549-3.193a1.372,1.372,0,0,0,1.85.289,4.929,4.929,0,0,0,1.209-1.188,2.162,2.162,0,0,1,1.757-.991,5.211,5.211,0,0,0,1.154.195c.687-.1.983-.919,1.053-1.609s.112-1.492.677-1.893a2.751,2.751,0,0,1,1.875-.145c.639.062,1.452-.128,1.583-.756a1.246,1.246,0,0,0-.282-.941,3.4,3.4,0,0,0-4.078-1.088,4.614,4.614,0,0,0-8.512-.472,4.682,4.682,0,0,0-7.392,2.077,3.394,3.394,0,0,0-3.577,5.121,3.223,3.223,0,0,0-1.644,2.652,1.845,1.845,0,0,0,2.181,1.78,1.88,1.88,0,0,0,3.341,1.711" transform="translate(-26.284 -18.597)" fill="#263238"/>
        <path id="Trazado_634450" data-name="Trazado 634450" d="M122.889,77.779a.282.282,0,0,1,0,.1c0,.064,0,.159-.019.282a3.3,3.3,0,0,1-.332,1.031,3.76,3.76,0,0,1-1.1,1.3,3.5,3.5,0,0,1-2.12.72l.083-.121a1.9,1.9,0,0,1-.033,1.455,5.445,5.445,0,0,1-.834,1.336,3.922,3.922,0,0,1-.558.631,1.825,1.825,0,0,1-.816.35,1.918,1.918,0,0,1-1.72-.521l.193-.066a3.94,3.94,0,0,1-1.535,2.807,2.878,2.878,0,0,1-1.7.651,5.218,5.218,0,0,1-1.718-.289l.138-.069a4.14,4.14,0,0,1-1.162,1.682,2.206,2.206,0,0,1-1.8.589,2.9,2.9,0,0,1-2.339-2.153l.121.05a2.708,2.708,0,0,1-1.791.354,2.941,2.941,0,0,1-1.286-.5,2.556,2.556,0,0,1-.618-.613,1.286,1.286,0,0,1-.147-.265,3.165,3.165,0,0,0,.815.8,2.915,2.915,0,0,0,1.253.446,2.588,2.588,0,0,0,1.688-.364l.1-.061.027.11a2.73,2.73,0,0,0,2.211,1.992,2,2,0,0,0,1.637-.554,3.949,3.949,0,0,0,1.091-1.6l.037-.1.1.03a5,5,0,0,0,1.642.275,2.653,2.653,0,0,0,1.566-.605,3.727,3.727,0,0,0,1.452-2.646l.021-.25.173.184a1.7,1.7,0,0,0,1.519.46,1.638,1.638,0,0,0,.725-.3,3.825,3.825,0,0,0,.525-.592,5.317,5.317,0,0,0,.818-1.28,1.727,1.727,0,0,0,.049-1.317l-.05-.124.132,0a3.377,3.377,0,0,0,2.034-.658,3.744,3.744,0,0,0,1.1-1.232,4.048,4.048,0,0,0,.434-1.362" transform="translate(-26.46 -20.217)" fill="#455a64"/>
        <path id="Trazado_634451" data-name="Trazado 634451" d="M129.26,114.393c-.039-.195-1.317.14-2.513-.715s-1.412-2.251-1.593-2.214c-.085,0-.168.369-.033.947a3.291,3.291,0,0,0,1.258,1.868,2.866,2.866,0,0,0,2.085.517c.548-.092.826-.317.8-.4" transform="translate(-32.505 -28.973)" fill="#263238"/>
        <path id="Trazado_634452" data-name="Trazado 634452" d="M186.653,213.417H189.9c.8-1.217,1.617-1.447,3.307-2.446,4.3-2.546,10.043-4.6,11.265-3.623s-.282,2.057-.753,2.35-4.608,1.9-4.42,3.253,13.7,3.78,14.3,5.069c.805,1.734-.628,2.441-6.365,1.462l-1.63-.287a2.01,2.01,0,0,1-.094,2.447c-1.035,1.078-1.881.588-1.881.588a1.968,1.968,0,0,1-1.223,1.861c-1.317.588-1.878,0-1.878,0s.312,3.233-2.543,2.741c-2.572-.443-4.333-.443-6.869-.971a8.313,8.313,0,0,1-2.122-.793l-3.215-1.227c-.525-2.312.628-9.8.874-10.424" transform="translate(-48.255 -53.832)" fill="#ae7461"/>
        <path id="Trazado_634453" data-name="Trazado 634453" d="M208.355,225.691a6.433,6.433,0,0,0-1.519-1.237c-.521-.316-1.189-.627-1.875-1.109a2.956,2.956,0,0,1-.951-.957,1.452,1.452,0,0,1-.178-.744,1.154,1.154,0,0,1,.323-.742,1.757,1.757,0,0,1,1.4-.485,6.547,6.547,0,0,1,1.292.252,8.671,8.671,0,0,1,2.031.84,6.2,6.2,0,0,1,1.189.881c.252.242.363.4.349.417a19.758,19.758,0,0,0-1.664-1.068,9.567,9.567,0,0,0-1.994-.74,6.6,6.6,0,0,0-1.22-.218,1.412,1.412,0,0,0-1.117.376.888.888,0,0,0-.092,1.063,2.721,2.721,0,0,0,.83.85c.639.473,1.3.812,1.814,1.163a4.628,4.628,0,0,1,1.116.981c.213.283.28.468.263.478" transform="translate(-52.982 -57.292)" fill="#6f4439"/>
        <path id="Trazado_634454" data-name="Trazado 634454" d="M200.75,216.21a3.031,3.031,0,0,1-.278,1.231,8.676,8.676,0,0,1-3.918,4.551,3.045,3.045,0,0,1-1.176.457,11.567,11.567,0,0,0,5.371-6.239" transform="translate(-50.785 -56.2)" fill="#6f4439"/>
        <path id="Trazado_634455" data-name="Trazado 634455" d="M204.673,228.336a2.811,2.811,0,0,1-1.04-.511,8.632,8.632,0,0,1-1.015-.752,2.825,2.825,0,0,1-.918-1.305,1.971,1.971,0,0,1,.139-1.618,1.536,1.536,0,0,1,1.127-.709c.792-.082,1.156.353,1.113.364a2.261,2.261,0,0,0-1.069-.105,1.309,1.309,0,0,0-.876.624,1.7,1.7,0,0,0-.079,1.333,2.645,2.645,0,0,0,.795,1.163c.332.314.659.574.935.79a5.1,5.1,0,0,1,.889.725" transform="translate(-52.4 -58.077)" fill="#6f4439"/>
        <path id="Trazado_634456" data-name="Trazado 634456" d="M202.2,231.568c-.032.04-.36-.152-.868-.5a3.855,3.855,0,0,1-1.647-1.789,1.962,1.962,0,0,1,.011-1.408,1.359,1.359,0,0,1,.847-.791,1.124,1.124,0,0,1,.773.011c.17.074.235.157.222.175a1.636,1.636,0,0,0-.9.059,1.142,1.142,0,0,0-.622.672,1.722,1.722,0,0,0,.021,1.156,4.3,4.3,0,0,0,1.465,1.713c.462.393.733.657.7.7" transform="translate(-51.872 -59.01)" fill="#6f4439"/>
        <path id="Trazado_634457" data-name="Trazado 634457" d="M163.905,191.252l-1.408-.945-4.983-34.942c-.436-3.057-5.078-11.072-14.21-14.15l1.846,19.774,7.613,42.28a65.671,65.671,0,0,0,7.5,3.069,138.853,138.853,0,0,0,14.6,3.571L178,195.41Z" transform="translate(-37.249 -36.706)" fill="#e0e0e0"/>
        <path id="Trazado_634458" data-name="Trazado 634458" d="M87.719,140.061l13.471-5.588,1.595-6.138,16.613,7.854,2.781-4.438,2.156,4.927,3.64,1.19,8.509,14.965-.026,31.888,1.721,27.506-1.845,4.342-15.242,2.249a17.34,17.34,0,0,1-5.027.005l-30.939-5.058-.8-9.087,3.3-25.049Z" transform="translate(-21.92 -33.358)" fill="#e0e0e0"/>
        <path id="Trazado_634459" data-name="Trazado 634459" d="M130.332,174.9c-.266-7.01.839-24.894.839-24.894l2.311-.372a261,261,0,0,1,5.926,38.688c.652,8.621.652,18.608.652,18.608l-4.64,9.959L130.291,207s.365-23.577.041-32.1" transform="translate(-33.867 -38.896)" fill="#ffb338"/>
        <path id="Trazado_634460" data-name="Trazado 634460" d="M130.162,141.785l1.935-.755,1.852,2.459-.637,4.478-2.31.372-2.281-2.821Z" transform="translate(-33.458 -36.658)" fill="#ffb338"/>
        <path id="Trazado_634461" data-name="Trazado 634461" d="M83.621,144.18s-8.825,2.287-11.344,10.983c-.636,2.2-3.98,34.722-4.494,38.938s-2.045,10.441,3.1,14.743c3.182,2.662,29.815,5.43,29.815,5.43l5.406-12.847-21.054-8.2,3.226-28.06Z" transform="translate(-17.459 -37.477)" fill="#e0e0e0"/>
        <path id="Trazado_634462" data-name="Trazado 634462" d="M140.5,234.161l-13.955-14a.868.868,0,0,1,1.23-1.226l13.954,14a.868.868,0,1,1-1.229,1.226" transform="translate(-32.827 -56.843)" fill="#263238"/>
        <path id="Trazado_634463" data-name="Trazado 634463" d="M117.223,221.456c.091.067,6.143.291,8.013.693s6.305,1.521,7.724,2.527,4.277,4.657,3.557,5.19a1.639,1.639,0,0,1-2.063,0c-.391-.366-3.868-3.02-3.868-3.02s-2.087-.7-2.151-.163,5.181,3.384,4.343,4.659-3.094.94-3.094.94.645,2.042-.065,3.068a5.457,5.457,0,0,1-2.482,1.563,1.945,1.945,0,0,1-1.146,2.438c-1.249.505-3.132-.76-3.132-.76l-8.067-4.094-2.321-.137Z" transform="translate(-29.235 -57.564)" fill="#ae7461"/>
        <path id="Trazado_634464" data-name="Trazado 634464" d="M77.289,218.331a.394.394,0,0,1,.126.008l.366.051,1.421.227,5.349.91,18.807,3.305-.2.115c1.453-4.2,3.053-8.822,4.736-13.686l.112.241-3.909-1.518L86.812,201.25l-.131-.051.021-.138c1.159-7.745,2.141-14.309,2.838-18.966l.837-5.394.236-1.428.068-.366a.438.438,0,0,1,.032-.122.4.4,0,0,1,0,.127c-.01.1-.024.221-.039.37q-.067.525-.182,1.436c-.175,1.28-.425,3.108-.739,5.408-.663,4.661-1.6,11.232-2.7,18.985l-.11-.189,17.3,6.7,3.908,1.519.172.067-.061.175c-1.695,4.86-3.306,9.482-4.768,13.675l-.05.142-.147-.027-18.781-3.443-5.332-1.007-1.411-.281-.362-.079a.438.438,0,0,1-.121-.036" transform="translate(-20.09 -45.432)" fill="#263238"/>
        <path id="Trazado_634465" data-name="Trazado 634465" d="M87.5,210.377a18.925,18.925,0,0,0-4.063,1.414,18.914,18.914,0,0,0-3.417,2.615,8.987,8.987,0,0,1,7.48-4.029" transform="translate(-20.798 -54.674)" fill="#263238"/>
        <path id="Trazado_634466" data-name="Trazado 634466" d="M93.062,158.679c-.065-.007-.006-.7-.075-1.8a14.166,14.166,0,0,0-3.035-7.919c-.687-.867-1.192-1.34-1.148-1.389a5.357,5.357,0,0,1,1.357,1.214,12.449,12.449,0,0,1,3.1,8.085,5.361,5.361,0,0,1-.2,1.809" transform="translate(-23.082 -38.358)" fill="#263238"/>
        <path id="Trazado_634467" data-name="Trazado 634467" d="M155.649,164.09c.107,0,.192,11.1.192,24.789s-.086,24.792-.192,24.792-.192-11.1-.192-24.792.086-24.789.192-24.789" transform="translate(-40.408 -42.652)" fill="#263238"/>
        <path id="Trazado_634468" data-name="Trazado 634468" d="M130.256,138.832a6.253,6.253,0,0,1-.451.964L128.44,142.4l-.089.17-.119-.155-3.049-3.973.295-.041-2.547,6.564-.078.2-.192-.1-.724-.383c-4.12-2.179-7.839-4.17-10.522-5.628l-3.168-1.744a8.673,8.673,0,0,1-1.137-.687,8.9,8.9,0,0,1,1.207.554l3.225,1.636c2.715,1.4,6.455,3.35,10.574,5.529l.724.383-.269.1,2.588-6.547.113-.286.181.246,2.975,4.028-.208.015,1.464-2.553a6.348,6.348,0,0,1,.57-.9" transform="translate(-27.842 -35.513)" fill="#263238"/>
      </g>
    </g>
  </g>
</svg>
