<svg xmlns="http://www.w3.org/2000/svg" width="109.213" height="85.079" viewBox="0 0 109.213 85.079">
  <g id="Grupo_883312" data-name="Grupo 883312" transform="translate(0 -56.571)">
    <g id="Grupo_883304" data-name="Grupo 883304" transform="translate(13.666 58.17)">
      <circle id="Elipse_6973" data-name="Elipse 6973" cx="40.94" cy="40.94" r="40.94" fill="#b6e1fd"/>
    </g>
    <g id="Grupo_883305" data-name="Grupo 883305" transform="translate(22.415 66.919)">
      <path id="Trazado_642213" data-name="Trazado 642213" d="M162.571,105.082a40.942,40.942,0,0,1-57.488,57.488,40.941,40.941,0,1,0,57.488-57.488Z" transform="translate(-105.083 -105.082)" fill="#2b95f9"/>
    </g>
    <g id="Grupo_883310" data-name="Grupo 883310" transform="translate(1.6 87.69)">
      <g id="Grupo_883306" data-name="Grupo 883306">
        <path id="Trazado_642214" data-name="Trazado 642214" d="M7.5,202.461H90.673V225.3H7.5Z" transform="translate(-7.5 -202.461)" fill="#f4fbff"/>
      </g>
      <g id="Grupo_883307" data-name="Grupo 883307" transform="translate(0 18.962)">
        <path id="Trazado_642215" data-name="Trazado 642215" d="M7.5,291.355H90.673v3.879H7.5Z" transform="translate(-7.5 -291.355)" fill="#e4f6ff"/>
      </g>
      <g id="Grupo_883308" data-name="Grupo 883308" transform="translate(83.173)">
        <path id="Trazado_642216" data-name="Trazado 642216" d="M397.423,202.461h22.84V225.3h-22.84Z" transform="translate(-397.423 -202.461)" fill="#95d6a4"/>
      </g>
      <g id="Grupo_883309" data-name="Grupo 883309" transform="translate(83.173)">
        <path id="Trazado_642217" data-name="Trazado 642217" d="M416.169,202.461V220.13a1.293,1.293,0,0,1-1.293,1.293H397.423V225.3h22.84v-22.84Z" transform="translate(-397.423 -202.461)" fill="#038a7b"/>
      </g>
    </g>
    <g id="Grupo_883311" data-name="Grupo 883311" transform="translate(0 56.571)">
      <path id="Trazado_642218" data-name="Trazado 642218" d="M422.248,232.765A5.476,5.476,0,0,0,430.3,237.6l1.468,1.468a1.6,1.6,0,1,0,2.262-2.262l-1.468-1.468a5.478,5.478,0,1,0-10.313-2.573Zm7.757,0a2.267,2.267,0,0,1-.609,1.545c-.022.02-.045.038-.066.06s-.04.044-.06.066a2.275,2.275,0,1,1,.734-1.67Z" transform="translate(-332.18 -190.872)"/>
      <path id="Trazado_642219" data-name="Trazado 642219" d="M107.613,86.09h-4.379a1.6,1.6,0,1,0,0,3.2h2.779v19.641H86.372V89.29h9.4a1.6,1.6,0,0,0,0-3.2h-.655a42.9,42.9,0,0,0-14.646-20.76,42.152,42.152,0,0,0-25.6-8.758c-.182,0,0,0-.512,0a42.5,42.5,0,0,0-21.6,6.032A1.6,1.6,0,0,0,34.4,65.349a39.1,39.1,0,0,1,9.541-4.108,34.976,34.976,0,0,0-8.1,12.783H24.306a39.584,39.584,0,0,1,4.31-4.444,1.6,1.6,0,1,0-2.114-2.4A42.444,42.444,0,0,0,14.1,86.09H1.6A1.6,1.6,0,0,0,0,87.69v22.841a1.6,1.6,0,0,0,1.6,1.6H14.1a42.9,42.9,0,0,0,14.646,20.76,42.151,42.151,0,0,0,25.6,8.757c.083,0,.124,0,.512,0a42.152,42.152,0,0,0,25.6-8.757,42.9,42.9,0,0,0,14.646-20.76h12.5a1.6,1.6,0,0,0,1.6-1.6V87.69A1.6,1.6,0,0,0,107.613,86.09Zm-22.841,0H76.664a64.932,64.932,0,0,0-2.148-8.867H87.278a38.838,38.838,0,0,1,4.46,8.867Zm-48.974,0a60,60,0,0,1,2.282-8.867H53.007V86.09Zm20.408-8.867H71.133a60.032,60.032,0,0,1,2.282,8.867H56.206Zm0-17.321c5.369.876,10.3,6.13,13.7,14.122h-13.7ZM84.872,74.024H73.378a35.048,35.048,0,0,0-8.064-12.747A39.821,39.821,0,0,1,84.872,74.024ZM53.007,59.9v14.12h-13.7C42.7,66.038,47.634,60.786,53.007,59.9ZM21.914,77.224H34.7a64.923,64.923,0,0,0-2.148,8.867H17.478A39.117,39.117,0,0,1,21.914,77.224Zm-2.746,31.708H3.2V89.29H83.172v19.641H26.633a1.6,1.6,0,1,0,0,3.2h5.916A64.93,64.93,0,0,0,34.7,121H21.935a38.839,38.839,0,0,1-4.46-8.867h1.693a1.6,1.6,0,0,0,0-3.2ZM53.007,124.2v14.122c-5.369-.876-10.3-6.13-13.7-14.122ZM38.08,121a60.032,60.032,0,0,1-2.282-8.867H53.007V121Zm18.126,17.32V124.2h13.7C66.511,132.183,61.579,137.435,56.206,138.317Zm0-17.32v-8.867H73.415A60,60,0,0,1,71.133,121H56.206Zm-31.865,3.2H35.835A35.048,35.048,0,0,0,43.9,136.944,39.821,39.821,0,0,1,24.341,124.2Zm40.968,12.749A35.032,35.032,0,0,0,73.377,124.2H84.872A39.82,39.82,0,0,1,65.309,136.946ZM87.278,121H74.516a64.923,64.923,0,0,0,2.148-8.867H91.738A38.844,38.844,0,0,1,87.278,121Z" transform="translate(0 -56.571)"/>
    </g>
  </g>
</svg>
