<svg xmlns="http://www.w3.org/2000/svg" xmlns:xlink="http://www.w3.org/1999/xlink" width="150" height="150" viewBox="0 0 150 150">
  <defs>
    <filter id="Elipse_6987" x="0" y="0" width="150" height="150" filterUnits="userSpaceOnUse">
      <feOffset dy="3" input="SourceAlpha"/>
      <feGaussianBlur stdDeviation="3" result="blur"/>
      <feFlood flood-opacity="0.161"/>
      <feComposite operator="in" in2="blur"/>
      <feComposite in="SourceGraphic"/>
    </filter>
  </defs>
  <g id="Grupo_1034500" data-name="Grupo 1034500" transform="translate(-1070.257 -3954.854)">
    <g transform="matrix(1, 0, 0, 1, 1070.26, 3954.85)" filter="url(#Elipse_6987)">
      <circle id="Elipse_6987-2" data-name="Elipse 6987" cx="66" cy="66" r="66" transform="translate(9 6)" fill="#b6e1fd"/>
    </g>
    <g id="Grupo_883437" data-name="Grupo 883437" transform="translate(1106.514 3949.072)">
      <path id="Trazado_642508" data-name="Trazado 642508" d="M211,61.891A15.891,15.891,0,1,0,226.891,46,15.91,15.91,0,0,0,211,61.891Zm9.746-1.605a2.269,2.269,0,0,1,3.21,0L226.6,62.93l4.119-5.764a2.269,2.269,0,1,1,3.693,2.638l-5.675,7.945a2.269,2.269,0,0,1-3.452.286l-4.54-4.54A2.269,2.269,0,0,1,220.746,60.286Z" transform="translate(-179.067)" fill="#12263f"/>
      <path id="Trazado_642509" data-name="Trazado 642509" d="M2.27,308.7H11.5a2.27,2.27,0,0,0,2.27-2.27V286H2.27A2.27,2.27,0,0,0,0,288.27v18.161A2.27,2.27,0,0,0,2.27,308.7Z" transform="translate(0 -203.678)" fill="#12263f"/>
      <path id="Trazado_642510" data-name="Trazado 642510" d="M448.992,279.52a2.272,2.272,0,0,0-.933-3.5,8.729,8.729,0,0,0-9.737,2.238,8.8,8.8,0,0,1,4.295,7.718,7.922,7.922,0,0,1-.175,1.706C444.464,285.259,446.6,282.579,448.992,279.52Z" transform="translate(-371.986 -194.665)" fill="#12263f"/>
      <path id="Trazado_642511" data-name="Trazado 642511" d="M146.653,269.955c4.1,1.644,16.875,3.021,18.04,2.633A4.382,4.382,0,0,0,168.779,268a4.231,4.231,0,0,0-4.4-4.449c-5.066,0-10.594-.653-15.225-2.815-2.851-1.223-6.129-3.818-8.717-4.994a13.025,13.025,0,0,0-6.583-1.544c-3.28,0-7.3.987-12.849,3.476v19.873a36.736,36.736,0,0,1,11.668,3.439c6.719,3.4,12.122,5.267,16.753,5.267,6.538,0,11.82-3.451,17.359-9.171q-1.566.136-3.133.136a67.214,67.214,0,0,1-18.539-3,2.271,2.271,0,0,1,1.544-4.268Z" transform="translate(-102.689 -176.692)" fill="#12263f"/>
    </g>
  </g>
</svg>
