<svg xmlns="http://www.w3.org/2000/svg" xmlns:xlink="http://www.w3.org/1999/xlink" width="150" height="150" viewBox="0 0 150 150">
  <defs>
    <filter id="Elipse_6986" x="0" y="0" width="150" height="150" filterUnits="userSpaceOnUse">
      <feOffset dy="3" input="SourceAlpha"/>
      <feGaussianBlur stdDeviation="3" result="blur"/>
      <feFlood flood-opacity="0.161"/>
      <feComposite operator="in" in2="blur"/>
      <feComposite in="SourceGraphic"/>
    </filter>
  </defs>
  <g id="Grupo_1034501" data-name="Grupo 1034501" transform="translate(-719.5 -3954.854)">
    <g transform="matrix(1, 0, 0, 1, 719.5, 3954.85)" filter="url(#Elipse_6986)">
      <circle id="Elipse_6986-2" data-name="Elipse 6986" cx="66" cy="66" r="66" transform="translate(9 6)" fill="#b6e1fd"/>
    </g>
    <g id="_19-Yellow_Card" data-name="19-Yellow Card" transform="translate(759.249 3990.118)">
      <path id="Trazado_642507" data-name="Trazado 642507" d="M28.55,64.619h11.7a17.13,17.13,0,0,1-3.432,7.99v3.281a1.256,1.256,0,0,1-1.252,1.252H6.759a1.246,1.246,0,0,1-1.039-.564A20.364,20.364,0,0,1,3,65.872V49.979A11.239,11.239,0,0,1,6.3,42.014l9.23-9.23V46.61l-4.646,4.7a1.253,1.253,0,1,0,1.778,1.766L23.616,42a3.92,3.92,0,0,1,2.818-1.177h.013a3.952,3.952,0,0,1,2.805,1.165l.1.1a4.142,4.142,0,0,1,1.215,2.931,4.1,4.1,0,0,1-1.215,2.88c-4.383,4.346-10.958,10.908-10.958,10.908a1.268,1.268,0,0,0-.225,1.365,1.319,1.319,0,0,0,1.2.776A7.435,7.435,0,0,1,26.8,68.376a1.252,1.252,0,1,0,2.5,0,9.627,9.627,0,0,0-.751-3.757ZM39.321,17.029a3.776,3.776,0,0,0-3.695,4.6L38.269,33.71a1.076,1.076,0,0,0,2.1,0l2.643-12.085a3.776,3.776,0,0,0-3.695-4.6ZM60.611,8.262V55.852a6.264,6.264,0,0,1-6.262,6.262H27.06A10.057,10.057,0,0,0,21.95,58.8c2.267-2.254,6.212-6.187,9.167-9.117a6.591,6.591,0,0,0,0-9.368l-.1-.1a6.433,6.433,0,0,0-4.571-1.891h-.025a6.455,6.455,0,0,0-4.584,1.916L18.03,44.08V8.262A6.264,6.264,0,0,1,24.292,2H54.349a6.264,6.264,0,0,1,6.262,6.262ZM44.33,44.581a5.01,5.01,0,1,0-5.01,5.01A5.01,5.01,0,0,0,44.33,44.581Zm-.113-27.715a6.294,6.294,0,0,0-11.046,5.3l2.643,12.085a3.591,3.591,0,0,0,7.013,0L45.47,22.163a6.266,6.266,0,0,0-1.252-5.3Zm-4.9,25.21a2.5,2.5,0,1,0,2.5,2.5,2.5,2.5,0,0,0-2.5-2.5ZM4.254,20.786h7.514a1.252,1.252,0,0,0,0-2.5H4.254a1.252,1.252,0,0,0,0,2.5Zm6.87,3.936L4.862,28.479a1.252,1.252,0,1,0,1.289,2.148l6.262-3.757a1.252,1.252,0,1,0-1.289-2.148ZM4.862,10.588l6.262,3.757A1.252,1.252,0,1,0,12.413,12.2L6.151,8.441a1.252,1.252,0,1,0-1.289,2.148Zm69.526,7.693H66.873a1.252,1.252,0,1,0,0,2.5h7.514a1.252,1.252,0,1,0,0-2.5Zm-.608,10.2-6.262-3.757a1.252,1.252,0,1,0-1.289,2.148l6.262,3.757a1.252,1.252,0,1,0,1.289-2.148ZM66.874,14.524a1.245,1.245,0,0,0,.643-.179l6.262-3.757A1.252,1.252,0,1,0,72.49,8.44L66.228,12.2a1.252,1.252,0,0,0,.646,2.326Z" transform="translate(0)" fill="#12263f"/>
    </g>
  </g>
</svg>
