<svg xmlns="http://www.w3.org/2000/svg" xmlns:xlink="http://www.w3.org/1999/xlink" width="150" height="150" viewBox="0 0 150 150">
  <defs>
    <filter id="Elipse_6984" x="0" y="0" width="150" height="150" filterUnits="userSpaceOnUse">
      <feOffset dy="3" input="SourceAlpha"/>
      <feGaussianBlur stdDeviation="3" result="blur"/>
      <feFlood flood-opacity="0.161"/>
      <feComposite operator="in" in2="blur"/>
      <feComposite in="SourceGraphic"/>
    </filter>
  </defs>
  <g id="Grupo_1034498" data-name="Grupo 1034498" transform="translate(-368.743 -3576.854)">
    <g transform="matrix(1, 0, 0, 1, 368.74, 3576.85)" filter="url(#Elipse_6984)">
      <circle id="Elipse_6984-2" data-name="Elipse 6984" cx="66" cy="66" r="66" transform="translate(9 6)" fill="#b6e1fd"/>
    </g>
    <g id="Grupo_883433" data-name="Grupo 883433" transform="translate(375.715 3605.905)">
      <g id="Grupo_883420" data-name="Grupo 883420" transform="translate(61.345 0.688)">
        <g id="Grupo_883419" data-name="Grupo 883419">
          <path id="Trazado_642481" data-name="Trazado 642481" d="M258.257,39.076,224.756,5.57a5.035,5.035,0,1,0-7.122,7.119l33.506,33.5a5.033,5.033,0,1,0,7.117-7.117Z" transform="translate(-216.163 -4.1)" fill="#12263f"/>
        </g>
      </g>
      <g id="Grupo_883422" data-name="Grupo 883422" transform="translate(48.147 13.909)">
        <g id="Grupo_883421" data-name="Grupo 883421" transform="translate(0)">
          <path id="Trazado_642482" data-name="Trazado 642482" d="M149.677,82.9l-.252,1.264a54.1,54.1,0,0,1-11.931,24.166l18.227,18.227a53.918,53.918,0,0,1,24.049-12.048l1.266-.252Z" transform="translate(-137.494 -82.905)" fill="#12263f"/>
        </g>
      </g>
      <g id="Grupo_883424" data-name="Grupo 883424" transform="translate(30.136 43.114)">
        <g id="Grupo_883423" data-name="Grupo 883423" transform="translate(0)">
          <path id="Trazado_642483" data-name="Trazado 642483" d="M44.805,256.989,32.348,269.444a7.549,7.549,0,0,0,0,10.678l7.117,7.117a7.549,7.549,0,0,0,10.678,0L62.6,274.783Zm1.779,19.574A2.516,2.516,0,1,1,43.026,273l3.559-3.559A2.516,2.516,0,0,1,50.143,273Z" transform="translate(-30.136 -256.989)" fill="#12263f"/>
        </g>
      </g>
      <g id="Grupo_883426" data-name="Grupo 883426" transform="translate(57.26 58.06)">
        <g id="Grupo_883425" data-name="Grupo 883425">
          <path id="Trazado_642484" data-name="Trazado 642484" d="M207.659,362.718l3.423-3.423a7.543,7.543,0,0,0,0-10.675l-2.543-2.545a47.663,47.663,0,0,0-4.052,3.064l3.037,3.041a2.511,2.511,0,0,1,0,3.556l-3.48,3.48-5.114-4.955-7.117,7.117,11.418,11.064a5.033,5.033,0,0,0,7.115-7.122Z" transform="translate(-191.813 -346.075)" fill="#12263f"/>
        </g>
      </g>
      <g id="Grupo_883428" data-name="Grupo 883428" transform="translate(80.756)">
        <g id="Grupo_883427" data-name="Grupo 883427" transform="translate(0)">
          <path id="Trazado_642485" data-name="Trazado 642485" d="M334.381,0a2.515,2.515,0,0,0-2.517,2.517V7.55a2.517,2.517,0,1,0,5.033,0V2.517A2.515,2.515,0,0,0,334.381,0Z" transform="translate(-331.864)" fill="#12263f"/>
        </g>
      </g>
      <g id="Grupo_883430" data-name="Grupo 883430" transform="translate(95.855 20.132)">
        <g id="Grupo_883429" data-name="Grupo 883429">
          <path id="Trazado_642486" data-name="Trazado 642486" d="M429.414,120h-5.033a2.517,2.517,0,0,0,0,5.033h5.033a2.517,2.517,0,1,0,0-5.033Z" transform="translate(-421.864 -120)" fill="#12263f"/>
        </g>
      </g>
      <g id="Grupo_883432" data-name="Grupo 883432" transform="translate(90.822 5.033)">
        <g id="Grupo_883431" data-name="Grupo 883431">
          <path id="Trazado_642487" data-name="Trazado 642487" d="M401.193,30.737a2.516,2.516,0,0,0-3.559,0L392.6,35.77a2.516,2.516,0,0,0,3.559,3.559l5.033-5.033A2.516,2.516,0,0,0,401.193,30.737Z" transform="translate(-391.864 -30)" fill="#12263f"/>
        </g>
      </g>
    </g>
  </g>
</svg>
