<svg xmlns="http://www.w3.org/2000/svg" xmlns:xlink="http://www.w3.org/1999/xlink" width="150" height="150" viewBox="0 0 150 150">
  <defs>
    <filter id="Elipse_6992" x="0" y="0" width="150" height="150" filterUnits="userSpaceOnUse">
      <feOffset dy="3" input="SourceAlpha"/>
      <feGaussianBlur stdDeviation="3" result="blur"/>
      <feFlood flood-opacity="0.161"/>
      <feComposite operator="in" in2="blur"/>
      <feComposite in="SourceGraphic"/>
    </filter>
  </defs>
  <g id="Grupo_1034489" data-name="Grupo 1034489" transform="translate(-719.5 -4691.854)">
    <g transform="matrix(1, 0, 0, 1, 719.5, 4691.85)" filter="url(#Elipse_6992)">
      <circle id="Elipse_6992-2" data-name="Elipse 6992" cx="66" cy="66" r="66" transform="translate(9 6)" fill="#b6e1fd"/>
    </g>
    <g id="Grupo_883450" data-name="Grupo 883450" transform="translate(763.824 4738.939)">
      <path id="Trazado_642517" data-name="Trazado 642517" d="M59.555,0H1.8A1.8,1.8,0,0,0,0,1.8v4.8H61.353V1.8A1.8,1.8,0,0,0,59.555,0Z" fill="#12263f"/>
      <g id="Grupo_883449" data-name="Grupo 883449" transform="translate(0 10.188)">
        <path id="Trazado_642518" data-name="Trazado 642518" d="M0,85.017v34.76a1.8,1.8,0,0,0,1.8,1.8H28.881l-1.168-3.058a4.789,4.789,0,0,1,6.188-6.188l14.906,5.7a4.775,4.775,0,0,1,2.977,3.477c.005.024.009.049.014.073h7.757a1.8,1.8,0,0,0,1.8-1.8V85.017Zm8.988,4.436H30.675a1.8,1.8,0,0,1,0,3.595H8.988a1.8,1.8,0,0,1,0-3.595Zm0,7.192H30.675a1.8,1.8,0,1,1,0,3.595H8.988a1.8,1.8,0,1,1,0-3.595Zm10.844,17.978H8.988a1.8,1.8,0,1,1,0-3.595H19.831a1.8,1.8,0,1,1,0,3.595Zm32.535-7.192H8.988a1.8,1.8,0,0,1,0-3.595H52.366a1.8,1.8,0,0,1,0,3.595Zm1.8-8.871a1.8,1.8,0,0,1-1.8,1.8H38.428a1.8,1.8,0,0,1-1.8-1.8V90.612a1.8,1.8,0,0,1,1.8-1.8H52.366a1.8,1.8,0,0,1,1.8,1.8V98.56Z" transform="translate(0 -85.017)" fill="#12263f"/>
      </g>
      <path id="Trazado_642519" data-name="Trazado 642519" d="M278.835,355.425l-5.331-5.332,2.064-2.065a1.2,1.2,0,0,0-.42-1.966l-14.906-5.7a1.2,1.2,0,0,0-1.547,1.547l5.694,14.91a1.2,1.2,0,0,0,1.967.42l2.064-2.064,5.33,5.331a1.2,1.2,0,0,0,1.695,0l3.39-3.39A1.2,1.2,0,0,0,278.835,355.425Z" transform="translate(-227.624 -299.509)" fill="#12263f"/>
    </g>
  </g>
</svg>
