<svg id="Grupo_883370" data-name="Grupo 883370" xmlns="http://www.w3.org/2000/svg" xmlns:xlink="http://www.w3.org/1999/xlink" width="554.88" height="329.658" viewBox="0 0 554.88 329.658">
  <defs>
    <clipPath id="clip-path">
      <rect id="Rectángulo_331093" data-name="Rectángulo 331093" width="554.88" height="329.658" fill="none"/>
    </clipPath>
    <clipPath id="clip-path-8">
      <rect id="Rectángulo_331082" data-name="Rectángulo 331082" width="40.294" height="42.379" fill="none"/>
    </clipPath>
    <clipPath id="clip-path-9">
      <rect id="Rectángulo_331083" data-name="Rectángulo 331083" width="45.791" height="9.493" fill="none"/>
    </clipPath>
    <clipPath id="clip-path-10">
      <rect id="Rectángulo_331084" data-name="Rectángulo 331084" width="43.57" height="4.576" fill="none"/>
    </clipPath>
    <clipPath id="clip-path-12">
      <rect id="Rectángulo_331086" data-name="Rectángulo 331086" width="52.558" height="25.215" fill="none"/>
    </clipPath>
    <clipPath id="clip-path-13">
      <rect id="Rectángulo_331087" data-name="Rectángulo 331087" width="10.64" height="10.64" fill="none"/>
    </clipPath>
    <clipPath id="clip-path-15">
      <rect id="Rectángulo_331089" data-name="Rectángulo 331089" width="22.737" height="9.877" fill="none"/>
    </clipPath>
    <clipPath id="clip-path-16">
      <rect id="Rectángulo_331090" data-name="Rectángulo 331090" width="26.582" height="15.352" fill="none"/>
    </clipPath>
    <clipPath id="clip-path-17">
      <rect id="Rectángulo_331091" data-name="Rectángulo 331091" width="25.817" height="32.236" fill="none"/>
    </clipPath>
  </defs>
  <g id="Grupo_883369" data-name="Grupo 883369" clip-path="url(#clip-path)">
    <g id="Grupo_883330" data-name="Grupo 883330">
      <g id="Grupo_883329" data-name="Grupo 883329" clip-path="url(#clip-path)">
        <path id="Trazado_642220" data-name="Trazado 642220" d="M3.084,318.444s-4.207,1.7.646,10.636A117.593,117.593,0,0,0,11.9,342.41s.874,2.08-.886,2.452-5.672-.148-6.4,2.038c-.759,2.266.927,4.341,4.281,6.113s10.561,5.924,11.211,6.3,1.294,1.333.136,1.778-9.9,1.587-9.106,5.7,10.946,7.515,12.049,7.908,1.376.849,1.3,1.451-3.047.709-5.518,1.135-5.263,1.355-4.609,3.689,6.742,7.119,21.25,8.163l6.754.043,3.525-5.8c6.787-12.865,5.946-20.561,4.311-22.352s-3.9.088-5.568,1.96-3.332,4.339-3.881,4.083-.793-.729-.543-1.874,2.734-11.562-.339-14.408-8.663,3.966-9.654,4.713-1.461-.317-1.438-1.055.31-9.065.58-12.848-.6-6.313-2.925-6.866c-2.242-.534-3.869,3.06-5.115,4.357s-2.551-.545-2.551-.545a117.686,117.686,0,0,0-6.993-13.982C6.751,315.729,3,318.484,3,318.484" transform="translate(-0.268 -61.313)" fill="#ebebeb"/>
        <path id="Trazado_642221" data-name="Trazado 642221" d="M44.186,392.761c-3.657-6.509-9.962-18.185-15.428-28.182S18.34,345.542,14.716,339.015l-4.3-7.724-1.167-2.1-.3-.549c-.066-.124-.1-.191-.1-.191s.041.059.114.18l.317.538,1.2,2.082c1.042,1.809,2.531,4.438,4.357,7.693,3.658,6.508,8.633,15.541,14.1,25.535s11.75,21.685,15.374,28.211" transform="translate(-1.707 -63.313)" fill="#e0e0e0"/>
        <path id="Trazado_642222" data-name="Trazado 642222" d="M12.117,354.955a2.173,2.173,0,0,1,.474.119c.3.089.734.229,1.266.408,1.063.359,2.519.893,4.115,1.51l4.08,1.6,1.238.475a2.2,2.2,0,0,1,.449.193,2.223,2.223,0,0,1-.475-.115c-.3-.089-.734-.229-1.264-.413-1.06-.371-2.508-.923-4.1-1.54l-4.089-1.566-1.242-.47a2.167,2.167,0,0,1-.447-.2" transform="translate(-2.336 -68.421)" fill="#e0e0e0"/>
        <path id="Trazado_642223" data-name="Trazado 642223" d="M27.071,356.5c-.055-.019.913-3.068,2.161-6.812s2.305-6.764,2.36-6.746-.913,3.068-2.162,6.813-2.3,6.764-2.36,6.745" transform="translate(-5.218 -66.105)" fill="#e0e0e0"/>
        <path id="Trazado_642224" data-name="Trazado 642224" d="M36.61,376.667a2.332,2.332,0,0,1,.263-.424l.772-1.115c.649-.941,1.541-2.247,2.472-3.721s1.735-2.837,2.305-3.829L43.1,366.4a2.278,2.278,0,0,1,.27-.42,2.255,2.255,0,0,1-.2.459c-.14.288-.35.7-.62,1.207-.538,1.011-1.32,2.391-2.257,3.869s-1.848,2.775-2.529,3.7c-.343.459-.624.828-.827,1.077a2.245,2.245,0,0,1-.329.375" transform="translate(-7.057 -70.548)" fill="#e0e0e0"/>
        <path id="Trazado_642225" data-name="Trazado 642225" d="M22.131,377.87a1.933,1.933,0,0,1,.461,0l1.252.067c1.056.065,2.514.17,4.123.3s3.065.257,4.119.361l1.246.132a1.973,1.973,0,0,1,.455.077,1.938,1.938,0,0,1-.462,0l-1.251-.066c-1.056-.065-2.514-.17-4.123-.3s-3.064-.257-4.118-.36l-1.246-.133a1.955,1.955,0,0,1-.454-.078" transform="translate(-4.266 -72.837)" fill="#e0e0e0"/>
        <path id="Trazado_642226" data-name="Trazado 642226" d="M28.367,396.141a3.123,3.123,0,0,1,.589,0l1.6.079c1.355.077,3.223.2,5.287.341s3.933.289,5.284.4l1.6.146a3.209,3.209,0,0,1,.584.082,3.131,3.131,0,0,1-.59,0l-1.6-.079c-1.355-.077-3.223-.2-5.289-.342s-3.931-.288-5.282-.4l-1.6-.146a3.193,3.193,0,0,1-.584-.082" transform="translate(-5.468 -76.359)" fill="#e0e0e0"/>
        <path id="Trazado_642227" data-name="Trazado 642227" d="M46.451,394a3.457,3.457,0,0,1,.32-.545c.238-.374.551-.861.926-1.449.781-1.224,1.853-2.918,2.984-4.822s2.117-3.652,2.817-4.923l.831-1.506a3.48,3.48,0,0,1,.328-.541,3.713,3.713,0,0,1-.255.579c-.176.366-.438.893-.773,1.538-.669,1.29-1.631,3.054-2.766,4.96s-2.228,3.591-3.042,4.8c-.408.6-.744,1.084-.982,1.413a3.821,3.821,0,0,1-.387.5" transform="translate(-8.954 -73.291)" fill="#e0e0e0"/>
        <path id="Trazado_642228" data-name="Trazado 642228" d="M100.463,68H44.637a4.769,4.769,0,0,1-4.769-4.769V13.26a4.769,4.769,0,0,1,4.769-4.769h55.825a4.769,4.769,0,0,1,4.769,4.769V63.228A4.769,4.769,0,0,1,100.463,68" transform="translate(-7.685 -1.637)" fill="#fff"/>
        <path id="Trazado_642229" data-name="Trazado 642229" d="M105.232,18.618H39.868V13.391a4.9,4.9,0,0,1,4.9-4.9h55.95A4.513,4.513,0,0,1,105.232,13Z" transform="translate(-7.685 -1.637)" fill="#ebebeb"/>
        <path id="Trazado_642230" data-name="Trazado 642230" d="M50.762,15.629a1.6,1.6,0,1,1-1.6-1.508,1.557,1.557,0,0,1,1.6,1.508" transform="translate(-9.167 -2.722)" fill="#fff"/>
        <path id="Trazado_642231" data-name="Trazado 642231" d="M56.171,15.629a1.6,1.6,0,1,1-1.6-1.508,1.557,1.557,0,0,1,1.6,1.508" transform="translate(-10.21 -2.722)" fill="#fff"/>
        <path id="Trazado_642232" data-name="Trazado 642232" d="M61.581,15.629a1.6,1.6,0,1,1-1.6-1.508,1.557,1.557,0,0,1,1.6,1.508" transform="translate(-11.253 -2.722)" fill="#fff"/>
        <path id="Trazado_642233" data-name="Trazado 642233" d="M100.412,67.947c0-.013.212-.011.618-.066a4.6,4.6,0,0,0,1.707-.591,4.717,4.717,0,0,0,2.364-3.954c.012-.672,0-1.4,0-2.16-.016-6.125-.039-14.963-.067-25.883-.008-5.464-.016-11.449-.026-17.873q0-1.2,0-2.43c-.02-.807.044-1.663-.057-2.442a4.592,4.592,0,0,0-4.1-3.9c-.407-.03-.847-.02-1.279-.021l-2.622,0-5.35,0-47,.016A4.578,4.578,0,0,0,40.195,12a4.921,4.921,0,0,0-.167,1.47v1.536q0,1.534,0,3.057,0,6.091,0,11.993c0,7.863-.008,15.447-.012,22.673q0,5.416,0,10.553a4.6,4.6,0,0,0,2.433,3.949,4.718,4.718,0,0,0,2.3.537l2.43,0,17.874.026,25.882.067,7.037.04,1.83.02c.412.007.623.022.623.022s-.212.015-.623.022l-1.83.02-7.037.04L65.041,68.1l-17.874.026-2.43,0a5.064,5.064,0,0,1-2.465-.573,4.967,4.967,0,0,1-2.634-4.257q-.007-5.136-.015-10.562c0-7.226-.008-14.81-.012-22.673q0-5.9,0-11.993,0-1.523,0-3.057V13.472a5.381,5.381,0,0,1,.182-1.581,5,5,0,0,1,4.8-3.66l47,.016,5.35,0,2.622,0c.435,0,.861-.008,1.314.025A4.961,4.961,0,0,1,105.3,12.5a24.521,24.521,0,0,1,.054,2.493q0,1.225,0,2.43c-.009,6.424-.018,12.409-.026,17.873-.028,10.92-.051,19.759-.067,25.883-.006.765,0,1.483-.018,2.165a4.807,4.807,0,0,1-2.466,4.023,4.5,4.5,0,0,1-1.743.559,3.821,3.821,0,0,1-.624.023" transform="translate(-7.635 -1.587)" fill="#ebebeb"/>
        <path id="Trazado_642234" data-name="Trazado 642234" d="M97.85,66.29H49.371a3.6,3.6,0,0,1-3.6-3.6V30.286a3.6,3.6,0,0,1,3.6-3.6H97.85a3.6,3.6,0,0,1,3.6,3.6V62.693a3.6,3.6,0,0,1-3.6,3.6" transform="translate(-8.823 -5.145)" fill="#f5f5f5"/>
        <path id="Trazado_642235" data-name="Trazado 642235" d="M51.5,67.9l13.59-19.341a1.538,1.538,0,0,1,2.456-.082l9.338,11.58a1.54,1.54,0,0,0,2.264.144l5.47-5.253a1.539,1.539,0,0,1,2.243.119L97.582,67.8a1.538,1.538,0,0,1-1.176,2.53H52.757A1.539,1.539,0,0,1,51.5,67.9" transform="translate(-9.872 -9.235)" fill="#ebebeb"/>
        <path id="Trazado_642236" data-name="Trazado 642236" d="M87.716,40.675a4.733,4.733,0,1,1-3.925-3.926,4.736,4.736,0,0,1,3.925,3.926" transform="translate(-15.096 -7.073)" fill="#ebebeb"/>
        <path id="Trazado_642237" data-name="Trazado 642237" d="M671.55,235.833H635.7a4.769,4.769,0,0,1-4.769-4.769V199.279a4.769,4.769,0,0,1,4.769-4.769H671.55a4.769,4.769,0,0,1,4.769,4.769v31.784a4.769,4.769,0,0,1-4.769,4.769" transform="translate(-121.619 -37.494)" fill="#fff"/>
        <path id="Trazado_642238" data-name="Trazado 642238" d="M676.319,201.543h-45.39v-2.132a4.9,4.9,0,0,1,4.9-4.9h35.977a4.513,4.513,0,0,1,4.513,4.513Z" transform="translate(-121.619 -37.494)" fill="#e0e0e0"/>
        <path id="Trazado_642239" data-name="Trazado 642239" d="M638.494,199.467a1.115,1.115,0,1,1-1.112-1.047,1.081,1.081,0,0,1,1.112,1.047" transform="translate(-122.648 -38.248)" fill="#fff"/>
        <path id="Trazado_642240" data-name="Trazado 642240" d="M642.251,199.467a1.114,1.114,0,1,1-1.112-1.047,1.082,1.082,0,0,1,1.112,1.047" transform="translate(-123.373 -38.248)" fill="#fff"/>
        <path id="Trazado_642241" data-name="Trazado 642241" d="M646.006,199.467a1.115,1.115,0,1,1-1.112-1.047,1.081,1.081,0,0,1,1.112,1.047" transform="translate(-124.096 -38.248)" fill="#fff"/>
        <path id="Trazado_642242" data-name="Trazado 642242" d="M671.5,235.782a5.741,5.741,0,0,0,1.628-.337,4.721,4.721,0,0,0,2.957-3.46,7.755,7.755,0,0,0,.093-1.631q0-.871-.009-1.824-.009-1.909-.018-4.138c-.009-2.972-.019-6.353-.031-10.088s-.017-7.833-.026-12.226c-.014-1.091.022-2.236-.031-3.332a4.609,4.609,0,0,0-1.477-2.9c-1.7-1.709-4.362-1.077-6.781-1.193l-32.154.016a4.552,4.552,0,0,0-4.43,3.484,8.275,8.275,0,0,0-.134,2.03q0,4.167,0,8.2c0,5.379-.008,10.567-.012,15.509q0,3.7,0,7.218a4.534,4.534,0,0,0,1.218,3.015,4.585,4.585,0,0,0,2.812,1.442c4.351.079,8.478.036,12.2.061l17.7.067,4.814.04c.537.01.953.015,1.252.02.282.007.426.022.426.022s-.145.015-.426.022l-1.252.02-4.814.04-17.7.067c-3.746-.007-7.812.057-12.246-.013a4.95,4.95,0,0,1-4.358-4.794q-.007-3.515-.014-7.226c0-4.943-.007-10.131-.012-15.509q0-4.035,0-8.2a8.636,8.636,0,0,1,.144-2.129,4.972,4.972,0,0,1,4.838-3.806l32.154.017,3.659,0a4.967,4.967,0,0,1,4.956,4.438c.054,1.171.012,2.264.023,3.37-.01,4.393-.018,8.487-.026,12.226s-.022,7.116-.031,10.088q-.01,2.226-.018,4.138,0,.953-.009,1.824a7.873,7.873,0,0,1-.115,1.665,4.794,4.794,0,0,1-3.088,3.506,4.48,4.48,0,0,1-1.229.257c-.283.007-.428,0-.428,0" transform="translate(-121.569 -37.444)" fill="#e0e0e0"/>
        <path id="Trazado_642243" data-name="Trazado 642243" d="M670.094,234.647H638.628a3.6,3.6,0,0,1-3.6-3.6V210.744a3.6,3.6,0,0,1,3.6-3.6h31.466a3.6,3.6,0,0,1,3.6,3.6V231.05a3.6,3.6,0,0,1-3.6,3.6" transform="translate(-122.41 -39.93)" fill="#f5f5f5"/>
        <path id="Trazado_642244" data-name="Trazado 642244" d="M639.005,235.767l9.437-13.431a1.068,1.068,0,0,1,1.706-.057l6.485,8.041a1.069,1.069,0,0,0,1.572.1l3.8-3.648a1.068,1.068,0,0,1,1.557.082l7.447,8.838a1.069,1.069,0,0,1-.817,1.757H639.879a1.069,1.069,0,0,1-.874-1.683" transform="translate(-123.138 -42.77)" fill="#ebebeb"/>
        <path id="Trazado_642245" data-name="Trazado 642245" d="M664.157,216.86a3.286,3.286,0,1,1-2.726-2.726,3.288,3.288,0,0,1,2.726,2.726" transform="translate(-126.765 -41.269)" fill="#ebebeb"/>
        <path id="Trazado_642246" data-name="Trazado 642246" d="M54.175,266.975H5.029A4.769,4.769,0,0,1,.26,262.205V207.854a4.769,4.769,0,0,1,4.769-4.769H54.175a4.769,4.769,0,0,1,4.769,4.769v54.351a4.769,4.769,0,0,1-4.769,4.769" transform="translate(-0.05 -39.147)" fill="#fff"/>
        <path id="Trazado_642247" data-name="Trazado 642247" d="M58.944,213.957H.26v-5.973a4.9,4.9,0,0,1,4.9-4.9H54.431a4.513,4.513,0,0,1,4.513,4.513Z" transform="translate(-0.05 -39.147)" fill="#e0e0e0"/>
        <path id="Trazado_642248" data-name="Trazado 642248" d="M11.955,210.748a1.723,1.723,0,1,1-1.72-1.619,1.672,1.672,0,0,1,1.72,1.619" transform="translate(-1.641 -40.312)" fill="#fff"/>
        <path id="Trazado_642249" data-name="Trazado 642249" d="M17.763,210.748a1.723,1.723,0,1,1-1.72-1.619,1.672,1.672,0,0,1,1.72,1.619" transform="translate(-2.761 -40.312)" fill="#fff"/>
        <path id="Trazado_642250" data-name="Trazado 642250" d="M23.571,210.748a1.723,1.723,0,1,1-1.72-1.619,1.672,1.672,0,0,1,1.72,1.619" transform="translate(-3.88 -40.312)" fill="#fff"/>
        <path id="Trazado_642251" data-name="Trazado 642251" d="M54.125,266.924c0-.013.208-.013.607-.065a4.738,4.738,0,0,0,3.62-2.645,4.666,4.666,0,0,0,.455-1.765c.027-.655,0-1.37.006-2.117-.016-6.008-.039-14.68-.067-25.391-.008-5.361-.017-11.232-.026-17.534q-.008-4.724-.019-9.761a4.578,4.578,0,0,0-2.523-3.934,4.886,4.886,0,0,0-2.442-.488l-2.64,0-46.111.016a4.592,4.592,0,0,0-4.37,3.242,10.848,10.848,0,0,0-.2,2.939v3q0,5.974,0,11.766c0,7.713-.008,15.153-.012,22.241q0,5.316-.009,10.358,0,2.517-.006,4.961a4.687,4.687,0,0,0,1.821,4.066,4.46,4.46,0,0,0,2.054.876,19.4,19.4,0,0,0,2.272.064l4.476.006,8.413.014,25.389.067,6.9.04,1.794.02c.4.007.612.022.612.022s-.207.015-.612.022l-1.794.021-6.9.039-25.389.067-8.413.014-4.476.006a19.353,19.353,0,0,1-2.325-.063A4.8,4.8,0,0,1,2,266.094,5.043,5.043,0,0,1,.03,261.75q0-2.442,0-4.961,0-5.037-.009-10.358C.012,239.344.008,231.9,0,224.19q0-5.785,0-11.766,0-1.494,0-3v-1.507a5.453,5.453,0,0,1,.212-1.553,5.012,5.012,0,0,1,4.772-3.541l46.111.016,2.64,0a5.256,5.256,0,0,1,2.611.533,4.953,4.953,0,0,1,2.723,4.259q0,5.04,0,9.774c-.01,6.3-.018,12.173-.026,17.534-.028,10.711-.051,19.383-.067,25.391-.01.751.009,1.452-.024,2.125a4.818,4.818,0,0,1-2.5,3.906,4.581,4.581,0,0,1-1.714.537,4.017,4.017,0,0,1-.613.022" transform="translate(0 -39.097)" fill="#e0e0e0"/>
        <path id="Trazado_642252" data-name="Trazado 642252" d="M28.994,243.557,14.242,228.579a21.022,21.022,0,1,1-5.314,21.247Z" transform="translate(-1.721 -42.9)" fill="#f5f5f5"/>
        <path id="Trazado_642253" data-name="Trazado 642253" d="M25.206,244.616,7.694,249.865a18.277,18.277,0,0,1,4.511-18.1Z" transform="translate(-1.335 -44.675)" fill="#f5f5f5"/>
        <path id="Trazado_642254" data-name="Trazado 642254" d="M426.193,46.876H390.814a5.748,5.748,0,0,1-5.748-5.748V5.748A5.748,5.748,0,0,1,390.814,0h35.379a5.748,5.748,0,0,1,5.748,5.748V41.127a5.748,5.748,0,0,1-5.748,5.748" transform="translate(-74.226 0)" fill="#f5f5f5"/>
        <path id="Trazado_642255" data-name="Trazado 642255" d="M394.051,27.031l4.722-4.722,9.106,8.094,15.208-15.265,4.384,4.722L407.2,39.51Z" transform="translate(-75.958 -2.918)" fill="#fff"/>
        <path id="Trazado_642256" data-name="Trazado 642256" d="M582.05,37.7l-.567-32.037q.284,0,.567,0a32.042,32.042,0,1,1-30.584,41.6Z" transform="translate(-106.302 -1.09)" fill="#ebebeb"/>
        <path id="Trazado_642257" data-name="Trazado 642257" d="M578.314,35.592,550.864,44.3A27.864,27.864,0,0,1,576.956,6.659q.368,0,.735.01Z" transform="translate(-105.844 -1.284)" fill="#ebebeb"/>
      </g>
    </g>
    <g id="Grupo_883332" data-name="Grupo 883332">
      <g id="Grupo_883331" data-name="Grupo 883331" clip-path="url(#clip-path)">
        <path id="Trazado_642258" data-name="Trazado 642258" d="M544.32,408.068c0,.116-118.963.21-265.677.21-146.765,0-265.7-.094-265.7-.21s118.937-.21,265.7-.21c146.714,0,265.677.094,265.677.21" transform="translate(-2.495 -78.619)" fill="#263238"/>
      </g>
    </g>
    <g id="Grupo_883334" data-name="Grupo 883334">
      <g id="Grupo_883333" data-name="Grupo 883333" clip-path="url(#clip-path)">
        <path id="Trazado_642259" data-name="Trazado 642259" d="M229.642,100.816H156.415a4.769,4.769,0,0,1-4.768-4.769V30.237a4.769,4.769,0,0,1,4.768-4.769h73.226a4.769,4.769,0,0,1,4.769,4.769V96.046a4.769,4.769,0,0,1-4.769,4.769" transform="translate(-29.232 -4.909)" fill="#fff"/>
        <path id="Trazado_642260" data-name="Trazado 642260" d="M234.411,38.291H151.647V30.369a4.9,4.9,0,0,1,4.9-4.9H229.9a4.513,4.513,0,0,1,4.513,4.513Z" transform="translate(-29.232 -4.909)" fill="#e0e0e0"/>
        <path id="Trazado_642261" data-name="Trazado 642261" d="M165.44,34.507a2.032,2.032,0,1,1-2.029-1.91,1.972,1.972,0,0,1,2.029,1.91" transform="translate(-31.108 -6.283)" fill="#fff"/>
        <path id="Trazado_642262" data-name="Trazado 642262" d="M172.289,34.507a2.032,2.032,0,1,1-2.029-1.91,1.972,1.972,0,0,1,2.029,1.91" transform="translate(-32.429 -6.283)" fill="#fff"/>
        <path id="Trazado_642263" data-name="Trazado 642263" d="M179.139,34.507a2.032,2.032,0,1,1-2.029-1.91,1.972,1.972,0,0,1,2.029,1.91" transform="translate(-33.749 -6.283)" fill="#fff"/>
        <path id="Trazado_642264" data-name="Trazado 642264" d="M162.922,49.73V95.819c0-.427,66.526,0,66.526,0" transform="translate(-31.405 -9.586)" fill="#fff"/>
        <path id="Trazado_642265" data-name="Trazado 642265" d="M229.4,95.819a1.491,1.491,0,0,1-.291.019l-.854.016-3.281.019-12.068,0-39.815-.027-5.756.036-2.816.043c-.463.013-.931.023-1.38.055l-.156.017-.02,0,0,0c.479-.012-.374-.241-.3-.185V94.695c0-3.666.008-7.2.012-10.572.017-6.732.032-12.8.045-17.9.028-5.077.051-9.193.067-12.067.017-1.405.03-2.506.04-3.281.009-.358.015-.639.021-.853a1.465,1.465,0,0,1,.021-.291,1.5,1.5,0,0,1,.022.291c0,.214.012.5.021.853.009.776.023,1.876.04,3.281.015,2.875.039,6.991.066,12.067.013,5.1.028,11.168.045,17.9,0,3.369.008,6.906.012,10.572v1.121c.07.077-.76-.184-.273-.2l.044-.014a.549.549,0,0,1,.065-.013l.189-.021c.474-.035.935-.044,1.4-.057l2.821-.047,5.76-.037c15.55-.034,29.626.069,39.817.15l12.068.132,3.281.059.853.026a1.471,1.471,0,0,1,.291.023" transform="translate(-31.352 -9.586)" fill="#263238"/>
        <rect id="Rectángulo_331076" data-name="Rectángulo 331076" width="14.194" height="18.488" transform="translate(138.293 62.569)" fill="#455a64"/>
        <rect id="Rectángulo_331077" data-name="Rectángulo 331077" width="14.194" height="28.378" transform="translate(157.571 52.68)" fill="#455a64"/>
        <rect id="Rectángulo_331078" data-name="Rectángulo 331078" width="14.194" height="36.661" transform="translate(176.85 44.396)" fill="#455a64"/>
        <path id="Trazado_642266" data-name="Trazado 642266" d="M229.589,100.766c0-.021.272,0,.788-.092a4.752,4.752,0,0,0,3.883-4.121c.065-1.483.007-3.227.017-5.17-.016-7.8-.039-19.078-.067-33.007-.008-6.969-.017-14.6-.026-22.793q0-1.537,0-3.1,0-.781,0-1.568a8.243,8.243,0,0,0-.078-1.544,4.6,4.6,0,0,0-4.333-3.759H216.313l-59.942.016A4.557,4.557,0,0,0,153,27.123a4.7,4.7,0,0,0-1.191,3.5q0,3.937,0,7.823,0,7.768,0,15.294c0,10.028-.009,19.7-.013,28.914q0,6.907,0,13.459a4.583,4.583,0,0,0,3.694,4.391,7.764,7.764,0,0,0,1.542.089l1.568,0,3.1,0,22.794.026,33,.067,8.973.039,2.334.021c.525.007.8.022.8.022s-.27.015-.8.022l-2.334.02-8.973.04-33,.067-22.794.026-3.1,0-1.568,0a8.1,8.1,0,0,1-1.61-.093,4.947,4.947,0,0,1-4-4.735q-.007-6.55-.015-13.468c0-9.215-.008-18.886-.013-28.914q0-7.521,0-15.294,0-3.884,0-7.823a5.131,5.131,0,0,1,1.3-3.779,4.976,4.976,0,0,1,3.686-1.631l59.942.016q6.913.01,13.469.019a4.96,4.96,0,0,1,4.673,4.064,8.511,8.511,0,0,1,.082,1.608q0,.788,0,1.568,0,1.563,0,3.1c-.01,8.193-.018,15.824-.026,22.793-.028,13.929-.051,25.2-.067,33.007-.023,1.951.024,3.673-.056,5.185a4.818,4.818,0,0,1-1.862,3.237,4.646,4.646,0,0,1-2.138.911,3.54,3.54,0,0,1-.593.051c-.134,0-.2,0-.2,0" transform="translate(-29.179 -4.859)" fill="#263238"/>
      </g>
    </g>
    <g id="Grupo_883336" data-name="Grupo 883336">
      <g id="Grupo_883335" data-name="Grupo 883335" clip-path="url(#clip-path)">
        <path id="Trazado_642267" data-name="Trazado 642267" d="M634.913,152.245l-1.063-7.361a24.808,24.808,0,1,1,7.552,4.684l.01.009Z" transform="translate(-120.614 -19.616)" fill="#fff"/>
        <path id="Trazado_642268" data-name="Trazado 642268" d="M640.061,129.456l3.733-3.733,7.2,6.4,12.024-12.07,3.467,3.733-16.024,15.537Z" transform="translate(-123.379 -23.142)" fill="#2b95f9"/>
        <path id="Trazado_642269" data-name="Trazado 642269" d="M634.875,152.2s.151-.073.434-.2l1.25-.538,4.779-2.025-.021.17-.011-.008a.1.1,0,0,1,.094-.171,24.534,24.534,0,0,0,15.566.764c.637-.168,1.258-.426,1.905-.64a13.621,13.621,0,0,0,1.917-.8,24.368,24.368,0,0,0,7.262-5.167,24.481,24.481,0,0,0,3.464-29.594,24.935,24.935,0,0,0-3.58-4.69,25.435,25.435,0,0,0-10.161-6.211,24.715,24.715,0,0,0-5.755-1.054,24.276,24.276,0,0,0-11.054,1.834,24.641,24.641,0,0,0-7.056,40.916c.317,2.381.562,4.219.731,5.487.078.61.139,1.083.182,1.425.04.323.055.5.055.5s-.032-.145-.083-.454l-.224-1.392c-.2-1.272-.485-3.115-.856-5.5l.032.06a24.65,24.65,0,0,1-6.761-10.013,24.987,24.987,0,0,1,13.8-31.456,24.719,24.719,0,0,1,11.265-1.884,25.169,25.169,0,0,1,5.869,1.071,24.674,24.674,0,0,1,14.01,11.118,24.98,24.98,0,0,1-3.586,30.122,24.674,24.674,0,0,1-7.4,5.214,13.851,13.851,0,0,1-1.95.8c-.658.213-1.289.47-1.937.637a25.217,25.217,0,0,1-3.784.727,24.827,24.827,0,0,1-11.944-1.636l.094-.171.011.008a.1.1,0,0,1,.023.137.11.11,0,0,1-.044.034l-4.884,1.941-1.243.486c-.277.107-.415.157-.411.15" transform="translate(-120.575 -19.566)" fill="#263238"/>
      </g>
    </g>
    <g id="Grupo_883338" data-name="Grupo 883338">
      <g id="Grupo_883337" data-name="Grupo 883337" clip-path="url(#clip-path)">
        <path id="Trazado_642270" data-name="Trazado 642270" d="M44.836,165.6l.178-7.357c6.388-7.339,8.595-18.676,2.118-30.874-22.605-23.939-56.652.436-41.271,29.552,10.324,10.97,22.986,11.836,32.284,6.813l-.01.009Z" transform="translate(-0.386 -22.682)" fill="#fff"/>
        <path id="Trazado_642271" data-name="Trazado 642271" d="M44.785,165.551s-.157-.055-.45-.142l-1.292-.381L38.11,163.6l.041.165.01-.009a.1.1,0,0,0,0-.138.1.1,0,0,0-.118-.019,24.257,24.257,0,0,1-15.2,2.583c-.645-.09-1.287-.27-1.947-.4a13.423,13.423,0,0,1-1.978-.56,24.106,24.106,0,0,1-7.743-4.222,24.225,24.225,0,0,1-6.886-28.667A24.694,24.694,0,0,1,7.257,127.3,25.16,25.16,0,0,1,16.51,120a24.46,24.46,0,0,1,5.53-1.713,24.027,24.027,0,0,1,11.076.5,24.383,24.383,0,0,1,11.749,39.367c-.031,2.376-.056,4.211-.073,5.476,0,.609-.009,1.08-.011,1.422,0,.322,0,.5,0,.5s.015-.147.028-.457c.014-.334.032-.8.057-1.394.045-1.273.11-3.118.193-5.5l-.024.063A24.391,24.391,0,0,0,50.5,147.625a24.722,24.722,0,0,0-17.26-29.279,24.44,24.44,0,0,0-11.289-.526,24.92,24.92,0,0,0-5.64,1.743A24.419,24.419,0,0,0,3.857,132.136a24.715,24.715,0,0,0,7.068,29.17,24.4,24.4,0,0,0,7.884,4.253,13.72,13.72,0,0,0,2.009.557c.672.132,1.322.311,1.977.4a24.936,24.936,0,0,0,3.8.27,24.575,24.575,0,0,0,11.543-3.013l-.114-.157-.01.009a.1.1,0,0,0-.006.137.1.1,0,0,0,.046.028l5.027,1.333,1.279.331a4.092,4.092,0,0,0,.421.1" transform="translate(-0.334 -22.63)" fill="#263238"/>
        <path id="Trazado_642272" data-name="Trazado 642272" d="M42.3,145.586c-2.431,3.193,1.178,6.8,4.37,4.37,2.433-3.193-1.177-6.8-4.37-4.37" transform="translate(-8.001 -27.91)" fill="#263238"/>
        <path id="Trazado_642273" data-name="Trazado 642273" d="M29.444,145.586c-2.431,3.193,1.178,6.8,4.37,4.37,2.433-3.193-1.177-6.8-4.37-4.37" transform="translate(-5.522 -27.91)" fill="#263238"/>
        <path id="Trazado_642274" data-name="Trazado 642274" d="M16.583,145.586c-2.432,3.193,1.178,6.8,4.37,4.371,2.432-3.193-1.177-6.8-4.37-4.371" transform="translate(-3.043 -27.91)" fill="#263238"/>
      </g>
    </g>
    <g id="Grupo_883349" data-name="Grupo 883349">
      <g id="Grupo_883348" data-name="Grupo 883348" clip-path="url(#clip-path)">
        <path id="Trazado_642275" data-name="Trazado 642275" d="M183.3,250.664l-15.794-4.258L164.364,260.7l-7.885-21.557c-3.676-10.306-8.706-13.856-12.176-14.817l-1.254,1.633,3.323,57.019,10.53,13.1c4.924,6.125,14.859,4.92,17.706-2.4,5.913-15.216,7.921-38.373,8.692-43.006" transform="translate(-27.574 -43.241)" fill="#617a0b"/>
        <path id="Trazado_642276" data-name="Trazado 642276" d="M55.1,393.434h79.019l-8.282-56.73L75.472,333.1s-8.687,8.515-11.564,18.512S55.1,393.434,55.1,393.434" transform="translate(-10.621 -64.209)" fill="#263238"/>
        <path id="Trazado_642277" data-name="Trazado 642277" d="M68.685,166.483c1.866-16.829,5.535-35.36,29.525-34.434,0,0,18.068.63,23.819,13.473,3.114,6.953,2.237,33.368,3.663,55.145l3.506,27.945L56.648,217.4s10.877-40.455,12.037-50.92" transform="translate(-10.92 -25.448)" fill="#263238"/>
        <path id="Trazado_642278" data-name="Trazado 642278" d="M107.189,139.984l-1.544-1.378-15.967,7.053a4.519,4.519,0,0,0-4.121,4.512l3.651,53.55c.1,3.576-.862,5.815,1.39,8.593l15.474,18.511c5.406,6.671,4.433-8.374,8.288-16.046.269-.536-1.036-2.458-.962-2.835a10.7,10.7,0,0,0,.2-1.187c.342-4.257.249-7.936.249-7.936.136-4.667.168-6.581.17-6.537,0,0,9.873-1.465,12.134-14.274,1.124-6.371.587-15.066-.069-23.621-.908-11.838-9.366-18.73-18.9-18.405" transform="translate(-16.492 -26.718)" fill="#ffc09d"/>
        <path id="Trazado_642279" data-name="Trazado 642279" d="M111.714,174.834a1.648,1.648,0,0,1-1.617,1.635,1.576,1.576,0,0,1-1.673-1.515,1.648,1.648,0,0,1,1.615-1.635,1.577,1.577,0,0,1,1.674,1.515" transform="translate(-20.9 -33.409)" fill="#263238"/>
        <path id="Trazado_642280" data-name="Trazado 642280" d="M131.378,174.635a1.648,1.648,0,0,1-1.617,1.635,1.576,1.576,0,0,1-1.673-1.514,1.649,1.649,0,0,1,1.615-1.635,1.576,1.576,0,0,1,1.674,1.515" transform="translate(-24.691 -33.371)" fill="#263238"/>
        <path id="Trazado_642281" data-name="Trazado 642281" d="M132.249,166.953c-.208.211-1.44-.734-3.213-.76-1.77-.052-3.087.838-3.275.618-.094-.1.122-.482.7-.885a4.532,4.532,0,0,1,2.627-.76,4.343,4.343,0,0,1,2.552.873c.538.428.716.819.614.914" transform="translate(-24.238 -31.837)" fill="#263238"/>
        <path id="Trazado_642282" data-name="Trazado 642282" d="M110.022,167.827c-.229.189-1.359-.878-3.118-1.086-1.756-.233-3.157.517-3.322.278-.082-.107.169-.467.783-.809a4.526,4.526,0,0,1,2.691-.487,4.348,4.348,0,0,1,2.45,1.131c.489.48.627.889.517.972" transform="translate(-19.964 -31.939)" fill="#263238"/>
        <path id="Trazado_642283" data-name="Trazado 642283" d="M119.609,180.515a11.751,11.751,0,0,1,2.887-.47c.454-.039.884-.121.965-.429a2.3,2.3,0,0,0-.279-1.347q-.61-1.654-1.279-3.469c-1.774-4.939-3.051-9-2.851-9.068s1.8,3.878,3.574,8.817q.639,1.827,1.222,3.49a2.62,2.62,0,0,1,.2,1.781,1.139,1.139,0,0,1-.756.649,3.1,3.1,0,0,1-.771.094,11.529,11.529,0,0,1-2.918-.047" transform="translate(-22.945 -31.947)" fill="#263238"/>
        <path id="Trazado_642284" data-name="Trazado 642284" d="M116.726,208.889A32.688,32.688,0,0,1,99.6,204s4.172,8.966,17.049,7.986Z" transform="translate(-19.2 -39.324)" fill="#ff9b6c"/>
        <path id="Trazado_642285" data-name="Trazado 642285" d="M111.44,159.3c-.231.458-1.962.02-4.056.022-2.1-.04-3.834.365-4.056-.1-.1-.22.246-.635.976-1.018a7.059,7.059,0,0,1,6.18.057c.721.4,1.057.819.956,1.036" transform="translate(-19.915 -30.364)" fill="#263238"/>
        <path id="Trazado_642286" data-name="Trazado 642286" d="M131.738,157.52c-.319.4-1.533-.042-3-.087-1.467-.1-2.717.224-3-.2-.122-.207.081-.607.63-.978a4.348,4.348,0,0,1,4.831.232c.512.423.676.84.534,1.035" transform="translate(-24.232 -29.999)" fill="#263238"/>
        <path id="Trazado_642287" data-name="Trazado 642287" d="M86.116,172.453s9.157,2.523,13.551-20.015c1.5-7.708,8.39-14.135,8.39-14.135l-2.9-.77s-17.709,5.622-18,5.857-4.206,9.393-4.206,9.393Z" transform="translate(-15.989 -26.511)" fill="#263238"/>
        <path id="Trazado_642288" data-name="Trazado 642288" d="M87.4,178.823c.015-.957-1.053-3.231-1.995-3.394-2.516-.437-7.067-.312-7.219,6.093-.209,8.757,8.625,7.16,8.647,6.909.017-.2.517-6.3.567-9.608" transform="translate(-15.072 -33.787)" fill="#ffc09d"/>
        <path id="Trazado_642289" data-name="Trazado 642289" d="M84.774,185.719c-.038-.029-.155.1-.416.216a1.527,1.527,0,0,1-1.141,0c-.917-.362-1.661-1.849-1.666-3.428a5.033,5.033,0,0,1,.479-2.174,1.759,1.759,0,0,1,1.175-1.143.777.777,0,0,1,.89.439c.111.248.052.421.1.437.023.023.191-.141.129-.5a.972.972,0,0,0-.332-.558,1.153,1.153,0,0,0-.838-.243,2.147,2.147,0,0,0-1.626,1.32,5.177,5.177,0,0,0-.587,2.428c.014,1.766.877,3.439,2.135,3.834a1.633,1.633,0,0,0,1.4-.2c.277-.209.327-.4.3-.421" transform="translate(-15.602 -34.456)" fill="#ff9b6c"/>
        <path id="Trazado_642290" data-name="Trazado 642290" d="M94.315,168.362a12.759,12.759,0,0,0,1.3-.308,7.9,7.9,0,0,0,3.054-1.908,10.8,10.8,0,0,0,1.56-1.954,14.62,14.62,0,0,0,1.237-2.6,54.7,54.7,0,0,0,1.674-6.418c.539-2.3,1.134-4.475,1.8-6.413a36.576,36.576,0,0,1,2.116-5.013,26.2,26.2,0,0,1,1.9-3.136c.246-.357.463-.615.6-.8a2.014,2.014,0,0,1,.224-.266,1.944,1.944,0,0,1-.186.293c-.125.191-.33.457-.564.819a29.954,29.954,0,0,0-1.829,3.16,38.344,38.344,0,0,0-2.058,5.007c-.654,1.933-1.241,4.1-1.778,6.4a52.576,52.576,0,0,1-1.7,6.44,14.607,14.607,0,0,1-1.274,2.626,10.834,10.834,0,0,1-1.61,1.97,7.756,7.756,0,0,1-3.14,1.877,4.863,4.863,0,0,1-1.328.22" transform="translate(-18.18 -26.9)" fill="#263238"/>
        <path id="Trazado_642291" data-name="Trazado 642291" d="M79.813,205.334a2.465,2.465,0,0,1-.108-.419c-.065-.306-.152-.715-.262-1.236-.223-1.116-.54-2.7-.942-4.719l.21-.037c.054.316.115.666.178,1.028l-.01-.032.2.387-.216.087a84.3,84.3,0,0,1-3.265-13.978,85.453,85.453,0,0,1-.833-9.084,41.685,41.685,0,0,1,.537-10.006,15.712,15.712,0,0,1,1.459-4.02,21.671,21.671,0,0,1,2.306-3.445c1.71-2.112,3.566-3.94,5.258-5.751l9.081-9.541,6.146-6.408,1.686-1.728.446-.442a.85.85,0,0,1,.162-.141.9.9,0,0,1-.132.169l-.417.47-1.632,1.78-6.054,6.5-9.018,9.6c-1.684,1.818-3.536,3.655-5.22,5.743a17.248,17.248,0,0,0-3.681,7.307,41.74,41.74,0,0,0-.539,9.906,87.132,87.132,0,0,0,.8,9.048,88.093,88.093,0,0,0,3.138,13.957l-.217.088c-.067-.136-.133-.272-.19-.389L78.665,200l0-.016c-.057-.362-.112-.714-.162-1.03l.21-.037c.361,2.024.644,3.618.844,4.738.086.525.155.938.207,1.246a2.446,2.446,0,0,1,.052.43" transform="translate(-14.399 -26.186)" fill="#455a64"/>
        <path id="Trazado_642292" data-name="Trazado 642292" d="M81.16,193.37a3.6,3.6,0,1,0,3.481-3.717,3.6,3.6,0,0,0-3.481,3.717" transform="translate(-15.644 -36.557)" fill="#455a64"/>
        <path id="Trazado_642293" data-name="Trazado 642293" d="M146.62,241.514a4.136,4.136,0,0,1,.133.827c.065.611.15,1.4.255,2.383.227,2.07.435,5.075.63,8.792.382,7.436.373,17.729,0,29.073s-.674,21.612-.573,29.044c.04,3.715.111,6.723.206,8.8.031.986.057,1.78.076,2.393a4.051,4.051,0,0,1-.017.838,4.032,4.032,0,0,1-.113-.829c-.051-.613-.116-1.4-.2-2.389-.173-2.074-.313-5.084-.412-8.8-.22-7.443.014-17.729.383-29.071s.454-21.607.19-29.035c-.136-3.712-.274-6.718-.423-8.791-.056-.985-.1-1.778-.134-2.392a4,4,0,0,1,0-.838" transform="translate(-28.244 -46.555)" fill="#263238"/>
        <path id="Trazado_642294" data-name="Trazado 642294" d="M73.185,240.266l8.832,69.808,47.772,3.423,3.093,1.577-3.153-57.68-16.586-39.435-1.666-1.015s-1.391,11.657-5.88,11.461c-3.059-.134-14.619-5.622-17.161-7.328l-2.551-7.423Z" transform="translate(-14.107 -41.184)" fill="#fff"/>
        <path id="Trazado_642295" data-name="Trazado 642295" d="M57.452,323.128l10.159-23.3L57.77,225.255l17.132-7.18,5.613-6.055S85.723,231.258,87.348,238s6.276,21.553,8.352,34.834-.612,38.428-2.674,46.926-10.41,50.561-10.41,50.561H44.266s6.2-32.444,13.186-47.19" transform="translate(-8.533 -40.869)" fill="#617a0b"/>
        <path id="Trazado_642296" data-name="Trazado 642296" d="M120.775,212.6l4.064,4.142,15.139,5.323s4.458,17.462,4.635,22.842-.082,65.1.01,67.906,10.73,55.024,9.871,57.394H144.115s-5.575-42.909-5.944-54.137-1.744-38.818-4.529-52.311S120.6,217.083,120.6,217.083Z" transform="translate(-23.248 -40.981)" fill="#617a0b"/>
        <path id="Trazado_642297" data-name="Trazado 642297" d="M139.64,323.32a1,1,0,0,1-.031-.279c-.008-.22-.018-.489-.03-.819-.015-.77-.034-1.823-.059-3.152-.028-2.79-.068-6.736-.117-11.592-.092-9.787-.141-23.311-.388-38.238-.044-1.866-.078-3.71-.154-5.521-.048-1.8-.308-3.571-.5-5.325-.4-3.5-.787-6.871-1.221-10.074s-.9-6.239-1.475-9.049a38.786,38.786,0,0,0-2.432-7.562,99.005,99.005,0,0,0-5.245-10.3l-1.6-2.715-.417-.706a1.04,1.04,0,0,1-.127-.25.959.959,0,0,1,.178.217l.467.675c.4.6.982,1.49,1.694,2.661a88.687,88.687,0,0,1,5.434,10.255,38.591,38.591,0,0,1,2.529,7.628c.6,2.825,1.087,5.869,1.535,9.077s.852,6.584,1.257,10.082c.2,1.745.459,3.524.513,5.366.077,1.823.113,3.668.157,5.537.247,14.937.229,28.459.213,38.249-.03,4.856-.055,8.8-.073,11.593-.023,1.33-.04,2.382-.054,3.152-.012.33-.021.6-.029.819a1,1,0,0,1-.031.279" transform="translate(-24.259 -41.97)" fill="#263238"/>
        <path id="Trazado_642298" data-name="Trazado 642298" d="M102.4,302.837a4.19,4.19,0,0,1-.159-.836c-.079-.551-.18-1.367-.286-2.418-.206-2.1-.44-5.159-.5-8.942-.032-1.891-.018-3.964.059-6.187a26.894,26.894,0,0,0-1.105-6.912,114.036,114.036,0,0,0-5.886-15.159c-2.426-5.261-4.923-10.193-7.233-14.662a60.327,60.327,0,0,1-3.095-6.458,55.224,55.224,0,0,1-1.723-5.971c-.873-3.689-1.38-6.711-1.715-8.8-.163-1.045-.276-1.858-.343-2.41a4.3,4.3,0,0,1-.069-.848,4.705,4.705,0,0,1,.189.83l.454,2.391c.405,2.073.975,5.079,1.9,8.742a57.4,57.4,0,0,0,1.779,5.9,61.958,61.958,0,0,0,3.122,6.382c2.338,4.458,4.855,9.392,7.288,14.666a110.067,110.067,0,0,1,5.87,15.254,26.909,26.909,0,0,1,1.068,7.066c-.1,2.216-.136,4.28-.132,6.166,0,3.771.174,6.822.308,8.928.073,1.009.131,1.815.174,2.424a4.975,4.975,0,0,1,.039.849" transform="translate(-15.486 -43.031)" fill="#263238"/>
        <path id="Trazado_642299" data-name="Trazado 642299" d="M147.721,237.455a4.14,4.14,0,0,1,.418.711c.269.471.611,1.191,1.035,2.128a42.831,42.831,0,0,1,2.59,8.3,63.177,63.177,0,0,1,1.25,12.839c-.018,4.862-.4,10.186-.882,15.757-1.032,11.139-1.683,21.233-1.9,28.557-.129,3.661-.2,6.624-.246,8.673-.03.976-.053,1.759-.071,2.359a4.163,4.163,0,0,1-.066.823,4.281,4.281,0,0,1-.056-.823c-.01-.6-.024-1.384-.042-2.36-.028-2.05-.02-5.017.054-8.683.111-7.331.7-17.459,1.727-28.6.485-5.567.88-10.877.928-15.707a65.433,65.433,0,0,0-1.112-12.754,46.893,46.893,0,0,0-2.389-8.3c-.389-.944-.7-1.677-.928-2.163a4.262,4.262,0,0,1-.309-.765" transform="translate(-28.475 -45.772)" fill="#263238"/>
        <path id="Trazado_642300" data-name="Trazado 642300" d="M112.169,187.922a5.148,5.148,0,0,0-.547,2.988,2.458,2.458,0,0,0,.6,1.618,2.092,2.092,0,0,0,1.53.564,4.179,4.179,0,0,0,1.611-.417,5.709,5.709,0,0,0,2.178-2.786c-1.409-.488-3.889-1.5-5.372-1.968" transform="translate(-21.514 -36.224)" fill="#ff9b6c"/>
        <path id="Trazado_642301" data-name="Trazado 642301" d="M115.587,192.465a2.252,2.252,0,0,1-1.963.7,2.837,2.837,0,0,1-1.063-.3,2.068,2.068,0,0,1-.9-.926,2.844,2.844,0,0,1-.294-1.377,7.845,7.845,0,0,1,.161-1.453,5.872,5.872,0,0,1,.41-1.343l.079-.168.168.063c1.531.57,2.866,1.087,3.816,1.474a7.245,7.245,0,0,1,1.494.691,7.188,7.188,0,0,1-1.581-.436c-.971-.317-2.322-.785-3.854-1.336l.247-.1a5.84,5.84,0,0,0-.368,1.242,4.255,4.255,0,0,0,.067,2.574,2.03,2.03,0,0,0,1.648,1.1,3.081,3.081,0,0,0,1.426-.189,4.778,4.778,0,0,1,.506-.216" transform="translate(-21.467 -36.162)" fill="#263238"/>
        <path id="Trazado_642302" data-name="Trazado 642302" d="M430.865,358.436H180.973a12.349,12.349,0,0,1-12.349-12.349V162.729a12.349,12.349,0,0,1,12.349-12.349H430.865a12.349,12.349,0,0,1,12.349,12.349V346.087a12.349,12.349,0,0,1-12.349,12.349" transform="translate(-32.504 -28.987)" fill="#fff"/>
        <path id="Trazado_642303" data-name="Trazado 642303" d="M443.32,178.466h-274.7V162.548a12.168,12.168,0,0,1,12.169-12.168H430.6A12.723,12.723,0,0,1,443.32,163.1Z" transform="translate(-32.504 -28.987)" fill="#e0e0e0"/>
        <path id="Trazado_642304" data-name="Trazado 642304" d="M430.815,358.386s.206-.018.613-.042c.2-.017.458-.015.759-.055l1.046-.165c.392-.092.829-.207,1.309-.342a13.317,13.317,0,0,0,1.522-.614,11.951,11.951,0,0,0,3.377-2.358,12.074,12.074,0,0,0,2.844-4.364c.082-.227.166-.457.251-.689s.126-.481.191-.725a11.293,11.293,0,0,0,.284-1.522,29.794,29.794,0,0,0,.092-3.3c-.006-4.6-.012-9.9-.019-15.874-.016-23.89-.039-58.454-.067-101.162q-.006-16.017-.014-33.521,0-8.742-.006-17.832,0-4.543,0-9.17c-.016-1.538.033-3.1-.036-4.638a12.142,12.142,0,0,0-7.78-10.684,12.654,12.654,0,0,0-4.641-.819l-4.847,0-19.766,0-41.26.009-183.718.017a12.125,12.125,0,0,0-10.136,5.431,12.363,12.363,0,0,0-1.967,5.563c-.07.983-.06,2-.058,3v3.02q0,12.071,0,23.977,0,23.807,0,46.876c0,30.732-.008,60.377-.012,88.615q0,5.3,0,10.523,0,2.614,0,5.212a40.138,40.138,0,0,0,.157,5.139,12.1,12.1,0,0,0,9.873,10.1,30.992,30.992,0,0,0,4.99.2l38.921.01,69.861.026,101.157.067,27.5.039,7.152.021c1.611.007,2.437.022,2.437.022s-.826.015-2.437.022l-7.152.02-27.5.04-101.157.067-69.861.026-38.921.01a31.22,31.22,0,0,1-5.055-.2,12.479,12.479,0,0,1-10.183-10.412,40.423,40.423,0,0,1-.163-5.2q0-2.6,0-5.212,0-5.228,0-10.523c0-28.239-.008-57.883-.012-88.615q0-23.05,0-46.876,0-11.9,0-23.977v-3.02c0-1.007-.014-2.012.06-3.042a12.785,12.785,0,0,1,2.035-5.757,12.551,12.551,0,0,1,10.487-5.619l183.718.016,41.26.009,19.766.006h4.847a13.034,13.034,0,0,1,4.768.844,12.495,12.495,0,0,1,8,11c.068,1.573.018,3.11.032,4.656q0,4.627,0,9.17,0,9.088-.006,17.832-.007,17.484-.014,33.521c-.028,42.709-.051,77.272-.066,101.162-.007,5.972-.014,11.276-.019,15.874a29.9,29.9,0,0,1-.1,3.318,11.587,11.587,0,0,1-.291,1.535c-.067.246-.121.493-.2.731s-.171.465-.256.693a12.122,12.122,0,0,1-2.883,4.387,11.94,11.94,0,0,1-3.408,2.355,13.166,13.166,0,0,1-1.533.609c-.483.132-.923.244-1.316.333l-1.051.155c-.3.036-.558.031-.761.044-.408.017-.614.02-.614.02" transform="translate(-32.454 -28.937)" fill="#263238"/>
        <path id="Trazado_642305" data-name="Trazado 642305" d="M189.4,169.1a3.217,3.217,0,1,1-3.217-3.217A3.217,3.217,0,0,1,189.4,169.1" transform="translate(-35.268 -31.975)" fill="#fff"/>
        <path id="Trazado_642306" data-name="Trazado 642306" d="M201.348,169.1a3.217,3.217,0,1,1-3.217-3.217,3.217,3.217,0,0,1,3.217,3.217" transform="translate(-37.572 -31.975)" fill="#fff"/>
        <path id="Trazado_642307" data-name="Trazado 642307" d="M213.3,169.1a3.217,3.217,0,1,1-3.217-3.217A3.217,3.217,0,0,1,213.3,169.1" transform="translate(-39.876 -31.975)" fill="#fff"/>
        <path id="Trazado_642308" data-name="Trazado 642308" d="M202.562,225.474a18.136,18.136,0,0,1,4.421-1.921l.911-4.378,7.4-.129,1.064,4.341a18.126,18.126,0,0,1,4.487,1.765l3.737-2.45,5.321,5.138-2.317,3.82a18.132,18.132,0,0,1,1.922,4.423l4.376.911.13,7.394-4.341,1.065a18.152,18.152,0,0,1-1.765,4.487l2.449,3.738L225.217,259l-3.821-2.317a18.1,18.1,0,0,1-4.422,1.921l-.911,4.377-7.394.13-1.065-4.342A18.131,18.131,0,0,1,203.116,257l-3.738,2.45-5.32-5.137,2.316-3.821a18.1,18.1,0,0,1-1.921-4.422l-4.377-.911-.13-7.4,4.342-1.064a18.108,18.108,0,0,1,1.765-4.487l-2.45-3.738,5.137-5.321Zm3.942,9.852a7.934,7.934,0,1,0,11.219-.2,7.935,7.935,0,0,0-11.219.2" transform="translate(-36.614 -42.224)" fill="#ebebeb"/>
        <path id="Trazado_642309" data-name="Trazado 642309" d="M460.481,329.38a10.937,10.937,0,0,1,2.671-1.161l.551-2.645,4.467-.078.643,2.623a10.957,10.957,0,0,1,2.711,1.066l2.258-1.48,3.214,3.1-1.4,2.308a10.912,10.912,0,0,1,1.161,2.672l2.644.55.078,4.467-2.623.643a10.9,10.9,0,0,1-1.066,2.71l1.48,2.258-3.1,3.214-2.308-1.4a10.924,10.924,0,0,1-2.672,1.161l-.55,2.645-4.467.078-.643-2.623a10.959,10.959,0,0,1-2.71-1.066l-2.258,1.48-3.214-3.1,1.4-2.308a10.939,10.939,0,0,1-1.162-2.671l-2.644-.551-.078-4.467,2.623-.643a10.967,10.967,0,0,1,1.066-2.71l-1.48-2.258,3.1-3.214Zm2.381,5.951a4.793,4.793,0,1,0,6.778-.119,4.792,4.792,0,0,0-6.778.119" transform="translate(-87.294 -62.743)" fill="#ebebeb"/>
        <path id="Trazado_642310" data-name="Trazado 642310" d="M314.483,326.989a18.137,18.137,0,0,1,4.421-1.921l.911-4.378,7.4-.129,1.064,4.342a18.072,18.072,0,0,1,4.487,1.765l3.738-2.45,5.321,5.138-2.317,3.82a18.126,18.126,0,0,1,1.922,4.424l4.376.911.13,7.394-4.341,1.065a18.154,18.154,0,0,1-1.765,4.487l2.449,3.738-5.136,5.321-3.821-2.317a18.1,18.1,0,0,1-4.422,1.921l-.911,4.377-7.394.13-1.065-4.342a18.122,18.122,0,0,1-4.487-1.765l-3.738,2.45-5.32-5.137,2.316-3.821a18.094,18.094,0,0,1-1.921-4.422L302,346.677l-.13-7.4,4.342-1.064a18.121,18.121,0,0,1,1.765-4.487l-2.45-3.738,5.137-5.321Zm3.942,9.852a7.934,7.934,0,1,0,11.219-.2,7.935,7.935,0,0,0-11.219.2" transform="translate(-58.188 -61.792)" fill="#e0e0e0"/>
        <path id="Trazado_642311" data-name="Trazado 642311" d="M366.527,361.771a10.4,10.4,0,0,1,2.536-1.1l.522-2.511,4.242-.074.611,2.491a10.384,10.384,0,0,1,2.573,1.012l2.144-1.405,3.052,2.947-1.329,2.192a10.388,10.388,0,0,1,1.1,2.537l2.51.522.074,4.242-2.49.611a10.388,10.388,0,0,1-1.013,2.573l1.405,2.144L379.522,381l-2.192-1.329a10.367,10.367,0,0,1-2.536,1.1l-.523,2.511-4.242.074-.61-2.491a10.4,10.4,0,0,1-2.574-1.012l-2.143,1.405-3.053-2.947,1.33-2.192a10.376,10.376,0,0,1-1.1-2.537l-2.511-.522-.075-4.242,2.491-.611a10.415,10.415,0,0,1,1.012-2.573l-1.4-2.144,2.946-3.052Zm2.261,5.651a4.551,4.551,0,1,0,6.436-.113,4.552,4.552,0,0,0-6.436.113" transform="translate(-69.257 -69.025)" fill="#ebebeb"/>
        <path id="Trazado_642312" data-name="Trazado 642312" d="M253.167,360.384a6.517,6.517,0,0,1,1.6-.7l.329-1.584,2.675-.047.385,1.571a6.527,6.527,0,0,1,1.622.639l1.352-.886,1.924,1.858-.838,1.382a6.539,6.539,0,0,1,.7,1.6l1.583.329.048,2.675-1.571.385a6.573,6.573,0,0,1-.638,1.623l.885,1.352-1.857,1.924-1.382-.838a6.536,6.536,0,0,1-1.6.7l-.329,1.583-2.675.047-.385-1.57a6.588,6.588,0,0,1-1.623-.639l-1.352.886-1.924-1.858.838-1.382a6.517,6.517,0,0,1-.7-1.6l-1.583-.329-.048-2.675,1.571-.385a6.559,6.559,0,0,1,.639-1.623l-.886-1.352,1.858-1.924Zm1.426,3.563a2.87,2.87,0,1,0,4.058-.071,2.87,2.87,0,0,0-4.058.071" transform="translate(-47.921 -69.02)" fill="#f5f5f5"/>
        <path id="Trazado_642313" data-name="Trazado 642313" d="M412.943,222.752a18.138,18.138,0,0,1,4.421-1.921l.911-4.378,7.4-.129,1.064,4.341a18.126,18.126,0,0,1,4.487,1.765l3.737-2.45,5.321,5.138-2.317,3.82a18.133,18.133,0,0,1,1.922,4.423l4.376.911.13,7.394-4.341,1.065a18.153,18.153,0,0,1-1.765,4.487l2.449,3.738-5.136,5.321-3.821-2.317a18.1,18.1,0,0,1-4.422,1.921l-.911,4.377-7.394.13-1.065-4.342a18.135,18.135,0,0,1-4.487-1.765l-3.738,2.45-5.32-5.137,2.316-3.821a18.128,18.128,0,0,1-1.921-4.422l-4.377-.911-.13-7.4,4.342-1.064a18.107,18.107,0,0,1,1.765-4.487l-2.45-3.738,5.137-5.321Zm3.942,9.852a7.934,7.934,0,1,0,11.219-.2,7.935,7.935,0,0,0-11.219.2" transform="translate(-77.168 -41.699)" fill="#ebebeb"/>
        <path id="Trazado_642314" data-name="Trazado 642314" d="M219.674,341.791a9.491,9.491,0,0,1,2.315-1.007l.477-2.291,3.872-.069.557,2.273a9.485,9.485,0,0,1,2.349.924l1.958-1.283,2.785,2.69-1.212,2a9.464,9.464,0,0,1,1.006,2.316l2.292.477.068,3.872-2.273.557a9.5,9.5,0,0,1-.924,2.349l1.283,1.957-2.69,2.786-2-1.212a9.489,9.489,0,0,1-2.315,1.006l-.477,2.291-3.872.069-.558-2.274a9.487,9.487,0,0,1-2.348-.923l-1.957,1.282-2.786-2.689,1.212-2a9.463,9.463,0,0,1-1.006-2.316l-2.292-.476-.068-3.872,2.273-.557a9.5,9.5,0,0,1,.924-2.349l-1.283-1.957,2.69-2.786Zm2.064,5.157a4.154,4.154,0,1,0,5.873-.1,4.153,4.153,0,0,0-5.873.1" transform="translate(-41.072 -65.235)" fill="#f5f5f5"/>
        <path id="Trazado_642315" data-name="Trazado 642315" d="M212.573,330.53a48.457,48.457,0,0,1-14.7-5.865l8.243-19.214a51.59,51.59,0,0,0,12.149,5.194,46.188,46.188,0,0,0,12.908,1.955q5.313,0,7.593-1.061a3.4,3.4,0,0,0,2.278-3.184q0-2.456-2.983-3.687a62.884,62.884,0,0,0-9.817-2.681,108.729,108.729,0,0,1-14.643-4.077,24.918,24.918,0,0,1-10.2-7.15q-4.34-4.968-4.339-13.461a23.668,23.668,0,0,1,4.014-13.405,26.634,26.634,0,0,1,11.986-9.5q7.972-3.461,19.362-3.463a68.391,68.391,0,0,1,15.348,1.732,47.272,47.272,0,0,1,13.288,5.083l-7.7,19.1q-11.174-5.807-21.152-5.809-9.871,0-9.87,4.914,0,2.347,2.929,3.52a60.483,60.483,0,0,0,9.654,2.513,97.094,97.094,0,0,1,14.643,3.854,25.449,25.449,0,0,1,10.358,7.094q4.393,4.916,4.393,13.4a23.42,23.42,0,0,1-4.014,13.349,27.13,27.13,0,0,1-11.986,9.5q-7.972,3.518-19.362,3.518a77.456,77.456,0,0,1-18.386-2.178" transform="translate(-38.143 -48.371)" fill="#ffb338"/>
        <path id="Trazado_642316" data-name="Trazado 642316" d="M355.2,311.463v19.885H292.07v-78.2h61.719v19.885H317.235v9.16h32.108v18.991H317.235v10.276Z" transform="translate(-56.3 -48.798)" fill="#ffb338"/>
        <path id="Trazado_642317" data-name="Trazado 642317" d="M422.355,290.915,394.08,261.349a40.277,40.277,0,0,1,11.687-8.252c20.145-9.372,44.21-.011,53.31,20.736s.01,45.53-20.135,54.9-44.21.01-53.31-20.736a42.281,42.281,0,0,1-1.739-4.707Z" transform="translate(-74 -48.085)" fill="#ffb338"/>
        <path id="Trazado_642318" data-name="Trazado 642318" d="M421.917,293.736l-38.462,12.377a42.661,42.661,0,0,1-1.834-12.377,42.126,42.126,0,0,1,12.456-30Z" transform="translate(-73.562 -50.838)" fill="#ffb338"/>
        <g id="Grupo_883341" data-name="Grupo 883341" transform="translate(308.06 212.896)" opacity="0.3">
          <g id="Grupo_883340" data-name="Grupo 883340">
            <g id="Grupo_883339" data-name="Grupo 883339" clip-path="url(#clip-path-8)">
              <path id="Trazado_642319" data-name="Trazado 642319" d="M421.917,293.736l-38.462,12.377a42.661,42.661,0,0,1-1.834-12.377,42.126,42.126,0,0,1,12.456-30Z" transform="translate(-381.622 -263.734)"/>
            </g>
          </g>
        </g>
        <path id="Trazado_642320" data-name="Trazado 642320" d="M422.355,300.9l-29.829,27.8a41.977,41.977,0,0,1-8.633-15.42Z" transform="translate(-74 -58.002)" fill="#e0e0e0"/>
        <path id="Trazado_642321" data-name="Trazado 642321" d="M283.368,206.046a9.49,9.49,0,0,1,2.315-1.007l.477-2.291,3.872-.068.557,2.272a9.485,9.485,0,0,1,2.349.924l1.958-1.283,2.785,2.69-1.212,2a9.464,9.464,0,0,1,1.006,2.316l2.292.477.068,3.872-2.273.557a9.5,9.5,0,0,1-.924,2.349l1.283,1.957-2.69,2.786-2-1.212a9.489,9.489,0,0,1-2.315,1.006l-.477,2.292-3.871.068-.558-2.274a9.489,9.489,0,0,1-2.348-.923l-1.957,1.282-2.786-2.689,1.212-2a9.461,9.461,0,0,1-1.006-2.316l-2.292-.476-.068-3.872,2.273-.557a9.494,9.494,0,0,1,.924-2.349l-1.283-1.957,2.69-2.786Zm2.064,5.157a4.154,4.154,0,1,0,5.873-.1,4.153,4.153,0,0,0-5.873.1" transform="translate(-53.349 -39.069)" fill="#ebebeb"/>
        <path id="Trazado_642322" data-name="Trazado 642322" d="M162.451,300.882s2.408-2.647-1.492-3.4-23.695-.408-30.732,1.873l-9.549,1.623,1.675,15.69,5.963-1.374,14.228,2.154c1.635.248,6.635-1.84,2.681-4.445,0,0,4.7-2.3,1.144-5.348,0,0,3.454-1.819.653-5.422Z" transform="translate(-23.262 -57.273)" fill="#ffc09d"/>
        <path id="Trazado_642323" data-name="Trazado 642323" d="M118.587,301.114l3.7-.3-.413,16.831-3.608.746Z" transform="translate(-22.798 -57.986)" fill="#ebebeb"/>
        <path id="Trazado_642324" data-name="Trazado 642324" d="M58.621,227.941s-9.036,3.108-10.912,15.5c-2.044,13.5,3.284,37.041,3.507,45.578.165,6.305,4.3,20.838,17.761,20.337a210.668,210.668,0,0,0,36.14-4.819l-.061-17.674-32.006.022-3.177-29.994" transform="translate(-9.107 -43.938)" fill="#617a0b"/>
        <path id="Trazado_642325" data-name="Trazado 642325" d="M69.84,256.895s.033.176.077.521c.044.361.1.873.184,1.539.154,1.37.379,3.365.669,5.936.565,5.18,1.381,12.673,2.4,21.982l-.149-.134,32.005-.068h.195v.195c.023,5.609.048,11.534.073,17.674v.167l-.161.035a216.018,216.018,0,0,1-25.878,4.129c-3.651.343-7.259.6-10.838.7a15.688,15.688,0,0,1-5.287-.83,14.573,14.573,0,0,1-4.571-2.623,20.7,20.7,0,0,1-5.711-8.4,28.027,28.027,0,0,1-1.911-9.569c-.192-3.15-.647-6.215-1.047-9.19s-.811-5.868-1.2-8.662c-.733-5.595-1.322-10.827-1.526-15.628a52.9,52.9,0,0,1,.721-12.926,11.061,11.061,0,0,1,.346-1.367c.133-.442.245-.882.389-1.3a23.154,23.154,0,0,1,.99-2.365,19.4,19.4,0,0,1,2.381-3.789,17.579,17.579,0,0,1,4.651-4.051,12.207,12.207,0,0,1,1.431-.736,4,4,0,0,1,.514-.191s-.17.074-.5.23a14.026,14.026,0,0,0-1.4.771,17.913,17.913,0,0,0-4.567,4.081A19.387,19.387,0,0,0,49.8,236.8a23.143,23.143,0,0,0-.963,2.348c-.14.417-.248.854-.378,1.293a11.19,11.19,0,0,0-.334,1.355,53.107,53.107,0,0,0-.652,12.862c.223,4.786.828,10.007,1.577,15.6q.59,4.19,1.219,8.657c.406,2.979.868,6.04,1.068,9.223a27.64,27.64,0,0,0,1.9,9.44,20.311,20.311,0,0,0,5.6,8.231,14.171,14.171,0,0,0,4.439,2.544,15.3,15.3,0,0,0,5.145.8c3.547-.107,7.162-.362,10.8-.7a217.807,217.807,0,0,0,25.823-4.106l-.16.2c-.017-6.14-.033-12.064-.048-17.674l.2.195-32.005-.024h-.135l-.014-.133c-.958-9.315-1.73-16.812-2.263-22-.256-2.575-.454-4.573-.59-5.945-.062-.668-.109-1.181-.143-1.543s-.034-.526-.034-.526" transform="translate(-9.075 -43.938)" fill="#263238"/>
        <path id="Trazado_642326" data-name="Trazado 642326" d="M75.056,309.427a10.055,10.055,0,0,1,3.336-8.463,16.047,16.047,0,0,0-3.336,8.463" transform="translate(-14.449 -58.014)" fill="#263238"/>
        <path id="Trazado_642327" data-name="Trazado 642327" d="M69.575,249.136a17.073,17.073,0,0,1-.576-2.13,33.978,33.978,0,0,0-4.2-9.676,16.915,16.915,0,0,1-1.164-1.874,8.51,8.51,0,0,1,1.417,1.706,26.466,26.466,0,0,1,4.248,9.774,8.5,8.5,0,0,1,.281,2.2" transform="translate(-12.265 -45.386)" fill="#263238"/>
        <path id="Trazado_642328" data-name="Trazado 642328" d="M357.119,104.88l-13.2-48.354c-2.892-12.135-12.365-20.567-24.416-17.339l-1.1.363a22.3,22.3,0,0,0-14.655,26.458c2.565,10.5,5.534,22.077,7.422,27.544,3.905,11.316,15.856,9.317,15.856,9.317.026-.007,2.073,6.975,3.034,10.354l-.444,8.662,8.8-5.012Z" transform="translate(-58.428 -7.42)" fill="#ae7461"/>
        <path id="Trazado_642329" data-name="Trazado 642329" d="M332.74,116.025a28.919,28.919,0,0,0,13.344-9.277s-.728,9.722-12.406,12.456Z" transform="translate(-64.14 -20.577)" fill="#6f4439"/>
        <path id="Trazado_642330" data-name="Trazado 642330" d="M313.332,84.253a1.71,1.71,0,0,0,2.107,1.119,1.634,1.634,0,0,0,1.187-2.017,1.709,1.709,0,0,0-2.105-1.12,1.637,1.637,0,0,0-1.189,2.019" transform="translate(-60.386 -15.839)" fill="#263238"/>
        <path id="Trazado_642331" data-name="Trazado 642331" d="M308.942,77.086c.271.144,1.2-1.172,2.947-1.746,1.737-.6,3.316-.125,3.435-.4.061-.125-.27-.44-.962-.661a4.7,4.7,0,0,0-2.837.06,4.511,4.511,0,0,0-2.258,1.655c-.4.589-.455,1.032-.325,1.095" transform="translate(-59.54 -14.281)" fill="#263238"/>
        <path id="Trazado_642332" data-name="Trazado 642332" d="M331.475,78.393a1.709,1.709,0,0,0,2.107,1.118,1.634,1.634,0,0,0,1.188-2.016,1.71,1.71,0,0,0-2.106-1.12,1.636,1.636,0,0,0-1.189,2.019" transform="translate(-63.883 -14.71)" fill="#263238"/>
        <path id="Trazado_642333" data-name="Trazado 642333" d="M330.311,70.56c.272.145,1.2-1.172,2.948-1.746,1.736-.6,3.316-.125,3.435-.4.061-.125-.268-.439-.963-.66a4.689,4.689,0,0,0-2.837.06,4.513,4.513,0,0,0-2.258,1.654c-.4.589-.455,1.033-.325,1.095" transform="translate(-63.659 -13.023)" fill="#263238"/>
        <path id="Trazado_642334" data-name="Trazado 642334" d="M326.887,86.932a12.2,12.2,0,0,0-3.005.428c-.462.1-.913.153-1.089-.126a2.4,2.4,0,0,1-.14-1.421q.093-1.826.194-3.832c.229-5.441.237-9.855.019-9.862s-.583,4.4-.812,9.837c-.046,1.339-.091,2.615-.132,3.834a2.726,2.726,0,0,0,.349,1.827,1.178,1.178,0,0,0,.949.409,3.188,3.188,0,0,0,.793-.146,11.939,11.939,0,0,0,2.875-.949" transform="translate(-62.052 -13.902)" fill="#263238"/>
        <path id="Trazado_642335" data-name="Trazado 642335" d="M327.369,63.881c.385.367,1.924-.664,3.972-1.391,2.034-.769,3.874-.978,3.93-1.507.019-.249-.463-.535-1.308-.655a7.316,7.316,0,0,0-6.02,2.208c-.568.639-.75,1.168-.574,1.346" transform="translate(-63.092 -11.619)" fill="#263238"/>
        <path id="Trazado_642336" data-name="Trazado 642336" d="M306.721,70.7c.49.283,1.789-.58,3.5-1.141,1.694-.61,3.256-.731,3.461-1.254.082-.248-.272-.576-1.026-.752a5.8,5.8,0,0,0-3.06.246,5.7,5.7,0,0,0-2.548,1.683c-.478.6-.548,1.074-.326,1.217" transform="translate(-59.101 -13.001)" fill="#263238"/>
        <path id="Trazado_642337" data-name="Trazado 642337" d="M355.966,71.263c.165-.148,7.042-4.9,9.368,2.954s-6.035,8.566-6.116,8.345-3.252-11.3-3.252-11.3" transform="translate(-68.617 -13.437)" fill="#ae7461"/>
        <path id="Trazado_642338" data-name="Trazado 642338" d="M361.612,79.468c.027-.036.165.055.428.093a1.43,1.43,0,0,0,1.028-.282c.739-.551,1.047-2.074.666-3.5a4.7,4.7,0,0,0-.963-1.845,1.645,1.645,0,0,0-1.339-.745.725.725,0,0,0-.7.614c-.04.25.057.392.019.418-.016.026-.207-.082-.241-.425a.913.913,0,0,1,.164-.584,1.074,1.074,0,0,1,.7-.424,2.007,2.007,0,0,1,1.79.794,4.846,4.846,0,0,1,1.122,2.048c.418,1.6.048,3.317-.99,3.981a1.528,1.528,0,0,1-1.312.163c-.3-.122-.395-.285-.371-.308" transform="translate(-69.493 -14.026)" fill="#6f4439"/>
        <path id="Trazado_642339" data-name="Trazado 642339" d="M334.366,89.856c-.276.061.23,1.871-.958,3.591s-3.17,2.063-3.113,2.321c.007.12.529.231,1.35.024a4.686,4.686,0,0,0,2.628-1.835,4.079,4.079,0,0,0,.687-2.979c-.144-.777-.472-1.168-.593-1.123" transform="translate(-63.668 -17.32)" fill="#263238"/>
        <path id="Trazado_642340" data-name="Trazado 642340" d="M280.551,58.374a1.942,1.942,0,0,1,.549-1.346,5.978,5.978,0,0,1,2.792-1.352,17.24,17.24,0,0,0,6.641-3.946,8.553,8.553,0,0,1-2.553-.852A5.138,5.138,0,0,1,285.1,46.4a1.138,1.138,0,0,1,.391-.934c.463-.309,1.059.059,1.533.35a4.423,4.423,0,0,0,4.495.5,7.261,7.261,0,0,0,2.72-1.773c.023-.045.042-.094.065-.139.283-.542.561-1.064.837-1.57l0,0v0c2.078-3.809,4.011-6.6,6.31-8.427,3.37-2.686,9.59-5.223,13.9-5.367s8.861,2.025,10.638,5.952c1.674-2.562,5.042-3.55,8.1-3.268l.06-.051c3.361.176,6.045,2.871,7.867,5.7.1.155.193.314.29.471a12.583,12.583,0,0,0,5.281,2.773c.345.083.743.192.881.519a1.025,1.025,0,0,1-.28.965,6.325,6.325,0,0,1-2.154,1.755,14.152,14.152,0,0,0,1.644,1.834c.517.479,1.132,1.053,1.012,1.746a1.337,1.337,0,0,1-1.167.985,3.912,3.912,0,0,1-1.6-.218l1.743,2.131a7.5,7.5,0,0,1-3.37.766c.219,3.089,1.336,8.6,1.175,10.786-2.071.658-2.644.583-3.591,1.245-1.224.856.012,3.107-1.96,2.951-1-.079-3.4-3.078-3.979-3.9a46.762,46.762,0,0,1-7.6-18.385,15.042,15.042,0,0,0-5.4-1.882L323.1,42c-3.541-.157-7.5-.17-10.091,2.245-2.012,1.873-2.669,4.737-3.85,7.219A17.138,17.138,0,0,1,298.8,60.975c.584,3.6,2.142,9.3,2.938,12.585l-4.692-5.646.006.027c-.336-.312-.634-.64-.926-.969l-.1-.1,0-.015a21.111,21.111,0,0,0-1.458-1.567l-.023.036a2.107,2.107,0,0,1-3.756-1.82,4.76,4.76,0,0,1,.683-1.273,3.333,3.333,0,0,1-2.808,1.7,2.615,2.615,0,0,1-2.512-1.949,2.224,2.224,0,0,1,.76-2.089,7.513,7.513,0,0,1-4.364.32c-.945-.22-1.966-.742-1.995-1.841" transform="translate(-54.079 -5.597)" fill="#263238"/>
        <path id="Trazado_642341" data-name="Trazado 642341" d="M332.849,39.385a10.432,10.432,0,0,1,1.466.71,8.594,8.594,0,0,1,2.9,3.286,15.1,15.1,0,0,1,1.165,2.831c.32,1.056.573,2.213.848,3.432a31.6,31.6,0,0,0,1.038,3.791,13.73,13.73,0,0,0,.852,1.909,4.311,4.311,0,0,0,1.386,1.685,1.806,1.806,0,0,0,1.782.061A2.686,2.686,0,0,0,345.5,55.83a6.208,6.208,0,0,0,.235-3.25l-.233.1a10.048,10.048,0,0,0,2.115,1.989,3.574,3.574,0,0,0,2.6.55,2.3,2.3,0,0,0,1.121-.561,2,2,0,0,0,.568-1.032,2.045,2.045,0,0,0-.061-1.091,1.49,1.49,0,0,0-.634-.783l-.09.145a7.715,7.715,0,0,0,3.019,1.114,7.025,7.025,0,0,0,.853.069,1.3,1.3,0,0,0,.294-.015,1.528,1.528,0,0,0-.292-.033c-.191-.019-.476-.046-.84-.112a7.958,7.958,0,0,1-2.942-1.167l-.089.145a1.537,1.537,0,0,1,.585,1.683,1.788,1.788,0,0,1-.518.919,2.089,2.089,0,0,1-1.02.495,3.342,3.342,0,0,1-2.418-.537,9.878,9.878,0,0,1-2.048-1.953l-.275-.318.043.42a6,6,0,0,1-.221,3.1,2.416,2.416,0,0,1-1.085,1.126,1.523,1.523,0,0,1-1.515-.05,4.089,4.089,0,0,1-1.287-1.579,13.7,13.7,0,0,1-.838-1.87,32.1,32.1,0,0,1-1.044-3.754c-.282-1.215-.544-2.376-.878-3.442a15.039,15.039,0,0,0-1.213-2.858A8.472,8.472,0,0,0,334.372,40a4.86,4.86,0,0,0-1.523-.617" transform="translate(-64.16 -7.592)" fill="#455a64"/>
        <path id="Trazado_642342" data-name="Trazado 642342" d="M292.976,60.03a.432.432,0,0,0,.115.051l.35.124a4,4,0,0,0,.58.167,6.485,6.485,0,0,0,.808.159,10.632,10.632,0,0,0,5.179-.583,13.58,13.58,0,0,0,6.166-4.628,23.525,23.525,0,0,0,3.905-8.639c.42-1.64.675-3.269,1.032-4.809a15.9,15.9,0,0,1,1.522-4.261,8.185,8.185,0,0,1,2.709-3,5.869,5.869,0,0,1,1.685-.722,6.456,6.456,0,0,1,1.689-.17,6.942,6.942,0,0,1,4.623,2.021,8.245,8.245,0,0,1,1.106,1.545.382.382,0,0,0-.045-.118l-.159-.336a6,6,0,0,0-.823-1.166,6.822,6.822,0,0,0-1.806-1.359,7.012,7.012,0,0,0-2.887-.785,6.627,6.627,0,0,0-1.748.158,6.039,6.039,0,0,0-1.757.735,8.367,8.367,0,0,0-2.812,3.066,16.01,16.01,0,0,0-1.564,4.326c-.364,1.552-.62,3.178-1.037,4.8a23.542,23.542,0,0,1-3.838,8.551,13.494,13.494,0,0,1-6.029,4.6,10.794,10.794,0,0,1-5.1.661,16.87,16.87,0,0,1-1.867-.392" transform="translate(-56.475 -6.461)" fill="#455a64"/>
        <path id="Trazado_642343" data-name="Trazado 642343" d="M289.816,59.722a1.818,1.818,0,0,0,.5.164,9.217,9.217,0,0,0,1.4.255,12.363,12.363,0,0,0,2.12.058,13.032,13.032,0,0,0,5-1.32,12.422,12.422,0,0,0,1.815-1.1,9.2,9.2,0,0,0,1.095-.915c.24-.237.366-.374.352-.388-.035-.039-.572.477-1.56,1.141a14.108,14.108,0,0,1-1.814,1.026,13.965,13.965,0,0,1-4.907,1.3,14.221,14.221,0,0,1-2.084,0c-1.186-.09-1.908-.273-1.92-.222" transform="translate(-55.865 -10.887)" fill="#455a64"/>
        <path id="Trazado_642344" data-name="Trazado 642344" d="M295.063,143.35s-1.167-3.3,2.8-7.749,28.9-13.831,28.9-13.831,9.249,9.006,19.715,3.312c8.145-4.433,7.515-11.379,7.515-11.379l31.684,5.3,1.078,23.94-11.352.066Z" transform="translate(-56.846 -21.918)" fill="#fd4c1b"/>
        <path id="Trazado_642345" data-name="Trazado 642345" d="M363.426,190.465l39.082-12.255-12.766-30.926,24.644.471s17.783,34.7,11.057,44.825c-6.127,9.224-56.566,11.084-56.566,11.084Z" transform="translate(-70.055 -28.391)" fill="#ae7461"/>
        <path id="Trazado_642346" data-name="Trazado 642346" d="M366.423,224.349l-.165,2.108c-.148,1.882-2.43,3.178-4.58,2.667l-40.023-4.053.736-6.335,40.408,1.392c2.686-.022,3.813,1.8,3.624,4.22" transform="translate(-62.003 -42.164)" fill="#455a64"/>
        <path id="Trazado_642347" data-name="Trazado 642347" d="M295.19,236.824a24.579,24.579,0,1,1,14.872-16.857,24.448,24.448,0,0,1-14.872,16.857m-17.335-44.241a22.924,22.924,0,1,0,13.994-.888,22.93,22.93,0,0,0-13.994.888" transform="translate(-50.431 -36.498)" fill="#263238"/>
        <path id="Trazado_642348" data-name="Trazado 642348" d="M295.016,235.011a24.578,24.578,0,1,1,14.872-16.857,24.448,24.448,0,0,1-14.872,16.857M277.682,190.77a22.924,22.924,0,1,0,13.994-.888,22.929,22.929,0,0,0-13.994.888" transform="translate(-50.397 -36.149)" fill="#455a64"/>
        <path id="Trazado_642349" data-name="Trazado 642349" d="M300.4,197.488a2.361,2.361,0,0,1-.329-.236c-.217-.151-.5-.421-.925-.69a17.6,17.6,0,0,0-3.735-1.985,21.966,21.966,0,0,0-2.788-.877,23.753,23.753,0,0,0-3.313-.525,22.772,22.772,0,0,0-3.7-.034,21.782,21.782,0,0,0-3.927.613,20.224,20.224,0,0,0-3.733,1.354,21.869,21.869,0,0,0-3.165,1.919,20.844,20.844,0,0,0-4.416,4.434,19.966,19.966,0,0,0-2.134,3.657c-.224.45-.339.823-.45,1.064a2.458,2.458,0,0,1-.166.369,2.23,2.23,0,0,1,.117-.387c.094-.247.195-.628.4-1.087a18.657,18.657,0,0,1,2.077-3.725,20.553,20.553,0,0,1,4.422-4.52,21.669,21.669,0,0,1,3.2-1.956,20.234,20.234,0,0,1,3.782-1.378,21.738,21.738,0,0,1,3.973-.614,22.487,22.487,0,0,1,3.744.05,23.435,23.435,0,0,1,3.343.554,21.568,21.568,0,0,1,2.806.917,16.577,16.577,0,0,1,3.725,2.075,10.515,10.515,0,0,1,.9.733,2.249,2.249,0,0,1,.3.276" transform="translate(-51.586 -37.17)" fill="#fff"/>
        <path id="Trazado_642350" data-name="Trazado 642350" d="M307.434,234.532c-.036-.052,1-.66,2.39-1.966l.539-.521c.185-.182.357-.393.546-.6.388-.406.743-.89,1.131-1.387a19.086,19.086,0,0,0,3.312-7.436c.11-.621.233-1.208.274-1.769.026-.279.068-.548.079-.808s.019-.509.027-.748c.038-1.912-.2-3.084-.137-3.093a5.3,5.3,0,0,1,.159.82,7.26,7.26,0,0,1,.112.974,11.852,11.852,0,0,1,.052,1.3q0,.363-.01.757c-.006.264-.044.536-.065.819a17.328,17.328,0,0,1-.253,1.8,18.5,18.5,0,0,1-3.355,7.532,17.687,17.687,0,0,1-1.164,1.389c-.2.206-.374.415-.565.6l-.556.514a11.859,11.859,0,0,1-1,.831,7.26,7.26,0,0,1-.8.568,5.106,5.106,0,0,1-.716.43" transform="translate(-59.261 -41.676)" fill="#fff"/>
        <path id="Trazado_642351" data-name="Trazado 642351" d="M300.687,210.337c.006.073-4.5.538-10.075,1.038s-10.093.848-10.1.776,4.5-.537,10.076-1.038,10.092-.848,10.1-.776" transform="translate(-54.072 -40.543)" fill="#fff"/>
        <path id="Trazado_642352" data-name="Trazado 642352" d="M301.116,219a1.548,1.548,0,0,1-.324.038l-.932.056-3.424.171c-2.892.141-6.886.347-11.294.623s-8.4.571-11.284.792l-3.419.258-.931.061a1.565,1.565,0,0,1-.326,0,1.529,1.529,0,0,1,.321-.057l.926-.109c.806-.09,1.971-.207,3.413-.341,2.883-.269,6.872-.593,11.284-.869s8.408-.453,11.3-.546c1.447-.047,2.619-.076,3.429-.087l.932-.006a1.5,1.5,0,0,1,.326.015" transform="translate(-51.888 -42.213)" fill="#fff"/>
        <g id="Grupo_883344" data-name="Grupo 883344" transform="translate(212.807 170.61)" opacity="0.3">
          <g id="Grupo_883343" data-name="Grupo 883343">
            <g id="Grupo_883342" data-name="Grupo 883342" clip-path="url(#clip-path-9)">
              <path id="Trazado_642353" data-name="Trazado 642353" d="M264.028,214.106l44.493-2.756a23.823,23.823,0,0,1,.855,6.728l-45.49,2.766a17.621,17.621,0,0,1,.142-6.738" transform="translate(-263.623 -211.35)" fill="#fff"/>
            </g>
          </g>
        </g>
        <g id="Grupo_883347" data-name="Grupo 883347" transform="translate(214.369 181.6)" opacity="0.3">
          <g id="Grupo_883346" data-name="Grupo 883346">
            <g id="Grupo_883345" data-name="Grupo 883345" clip-path="url(#clip-path-10)">
              <path id="Trazado_642354" data-name="Trazado 642354" d="M265.559,227.867l43.525-2.9s.29-.119-.6,1.8l-42.2,2.779a4.078,4.078,0,0,1-.729-1.673" transform="translate(-265.559 -224.965)" fill="#fff"/>
            </g>
          </g>
        </g>
        <path id="Trazado_642355" data-name="Trazado 642355" d="M355.619,200.776s-22.414,6.506-23.052,6.873-9.466,6.652-9.633,8.922S325.744,229,325.744,229s3.024.433,3.248-4.994l.223-5.428,3.72-3.331s-1.372,6.279-1.025,8.053,3.3,6.26,4.945,5.9a4.8,4.8,0,0,0,2.555-1.476s1.444,4,5.655,1.646c0,0,2.758,1.157,4.925.059s4.124-4.6,4.124-4.6a1.88,1.88,0,0,0-2.11-2.059,8.619,8.619,0,0,0-4.325,1.691l-.212-2.277a26.219,26.219,0,0,1,5.522-4.988c1.77-1.062,9.109-1.234,11.389-3.553,1.932-1.966-1.716-6.3-4.139-7.611a4.184,4.184,0,0,0-1.164-.422Z" transform="translate(-62.248 -38.702)" fill="#ae7461"/>
        <path id="Trazado_642356" data-name="Trazado 642356" d="M347.408,223.176a1.631,1.631,0,0,0-.245.4,7.25,7.25,0,0,0-.476,1.183,8.2,8.2,0,0,0,1.738,7.9,7.192,7.192,0,0,0,.929.874,1.615,1.615,0,0,0,.389.258c.028-.034-.513-.425-1.194-1.239a8.526,8.526,0,0,1-1.7-7.751c.275-1.024.6-1.607.563-1.626" transform="translate(-66.758 -43.02)" fill="#6f4439"/>
        <path id="Trazado_642357" data-name="Trazado 642357" d="M342.1,219.2a2.076,2.076,0,0,0-.257.429,4.581,4.581,0,0,0-.254.529,7.728,7.728,0,0,0-.287.723,11.465,11.465,0,0,0-.5,1.962,12.009,12.009,0,0,0,.225,4.933,11.405,11.405,0,0,0,.678,1.909c.111.266.245.492.351.693a4.767,4.767,0,0,0,.3.5,2.057,2.057,0,0,0,.3.4c.04-.024-.355-.618-.8-1.667a12.7,12.7,0,0,1-.622-1.895,13.883,13.883,0,0,1-.345-2.414,16.378,16.378,0,0,1,.039-2.6,9.931,9.931,0,0,1,.531-1.78c.346-1.085.684-1.712.643-1.732" transform="translate(-65.663 -42.254)" fill="#6f4439"/>
        <path id="Trazado_642358" data-name="Trazado 642358" d="M336.6,213.986c-.017-.019-.236.127-.5.456a3.64,3.64,0,0,0-.689,1.485,3.059,3.059,0,0,0,.027,1.637,1.334,1.334,0,0,0,.272.62,4.625,4.625,0,0,1,.89-4.2" transform="translate(-64.636 -41.248)" fill="#6f4439"/>
        <path id="Trazado_642359" data-name="Trazado 642359" d="M424.865,191.46c-.069.035-.464-.885-1.451-2.124a12.167,12.167,0,0,0-4.861-3.658,10.369,10.369,0,0,0-6.028-.464c-1.552.32-2.469.714-2.5.645a2.09,2.09,0,0,1,.62-.328,11.706,11.706,0,0,1,1.811-.605,10.009,10.009,0,0,1,6.25.366,11.542,11.542,0,0,1,4.939,3.865,9.824,9.824,0,0,1,.978,1.643,2.046,2.046,0,0,1,.238.66" transform="translate(-79.038 -35.582)" fill="#6f4439"/>
        <path id="Trazado_642360" data-name="Trazado 642360" d="M389.157,134.023c-.388-13.056,16.632-18.864,24.262-8.263.044.061.086.121.129.182,7.192,10.244,15.883,34.465,15.883,34.465l-30.79,4.782-7.684-21.021a39.165,39.165,0,0,1-1.8-10.145" transform="translate(-75.013 -23.182)" fill="#fd4c1b"/>
        <path id="Trazado_642361" data-name="Trazado 642361" d="M270.129,147.625c.049.11.094.221.136.335a5.892,5.892,0,0,1,.326,1.6,5.361,5.361,0,0,0,.036.774,2.952,2.952,0,0,0,.214.455,7.775,7.775,0,0,1,.283,3.2,6.132,6.132,0,0,0,.591,3.425,2.259,2.259,0,0,0,3.009.928,1.539,1.539,0,0,0,1.151,1.679,2.223,2.223,0,0,0,2.05-.636,4.142,4.142,0,0,0,1.028-1.963,1.7,1.7,0,0,0,1.692,1.642,2.618,2.618,0,0,0,2.15-1.317,6.016,6.016,0,0,0,.74-2.507,29.864,29.864,0,0,1,.531-3.357s1.1.177,1.606.225l.148.015a20.456,20.456,0,0,0,1.056-1.832c.7-1.447,1.239-2.364,1.777-3.678.4-.984.664-1.966.056-2.607-1.464-1.542-4.328,1.593-4.328,1.593-.4-1.091-3.733-1.269-4.381.185-.263-.8-.163-1.264-.811-1.8a2.683,2.683,0,0,0-2.359-.594,1.92,1.92,0,0,0-1.432,1.849,3.161,3.161,0,0,0-5.73.944,1.259,1.259,0,0,0-.078.435.528.528,0,0,0,.068.191c.149.279.343.526.475.818" transform="translate(-51.965 -27.625)" fill="#ae7461"/>
        <path id="Trazado_642362" data-name="Trazado 642362" d="M265.276,146.019a2.52,2.52,0,0,0-2,.664,4.128,4.128,0,0,0-.624,2.769c1,.19,1.524.228,2.528.417.212.04.389-.014.564.111.463.329.388,1.437.575,1.974A1.933,1.933,0,0,0,268.763,153a2.593,2.593,0,0,0,1.566-2.31,4.005,4.005,0,0,0-1.021-2.7,5.6,5.6,0,0,0-4.032-1.967" transform="translate(-50.627 -28.146)" fill="#ae7461"/>
        <path id="Trazado_642363" data-name="Trazado 642363" d="M276.6,145.335c.188.01.187,3.016,0,6.715s-.495,6.69-.683,6.68-.187-3.016,0-6.715.495-6.689.683-6.679" transform="translate(-53.159 -28.015)" fill="#6f4439"/>
        <path id="Trazado_642364" data-name="Trazado 642364" d="M282.258,146.124c.18-.008.425,2.729.13,6.094s-.994,6.022-1.17,5.982c-.193-.039.21-2.719.491-6.041s.353-6.031.549-6.036" transform="translate(-54.198 -28.167)" fill="#6f4439"/>
        <path id="Trazado_642365" data-name="Trazado 642365" d="M287.837,146.89c.191,0,.272,2.276-.082,5.034s-.776,4.951-.954,4.934c-.2-.019-.073-2.276.277-5.015s.573-4.954.759-4.952" transform="translate(-55.266 -28.315)" fill="#6f4439"/>
        <path id="Trazado_642366" data-name="Trazado 642366" d="M267.7,146.582c-.006-.08.482-.189,1.177.129a3.77,3.77,0,0,1,1.847,2.161,7.562,7.562,0,0,1,.458,2.765c-.082.832-.686,1.074-.7.966-.053-.076.274-.363.218-.981a13.6,13.6,0,0,0-.614-2.51,4.106,4.106,0,0,0-1.448-1.983c-.523-.368-.948-.442-.938-.547" transform="translate(-51.602 -28.239)" fill="#6f4439"/>
        <path id="Trazado_642367" data-name="Trazado 642367" d="M404.688,121.388a35.05,35.05,0,0,0-3.308,1.384,16.512,16.512,0,0,0-8.972,13.787,35.041,35.041,0,0,0,.074,3.584,3.746,3.746,0,0,1-.218-.948,14.309,14.309,0,0,1-.153-2.651,16.054,16.054,0,0,1,9.136-14.038,14.276,14.276,0,0,1,2.486-.933,3.749,3.749,0,0,1,.955-.185" transform="translate(-75.583 -23.398)" fill="#263238"/>
        <path id="Trazado_642368" data-name="Trazado 642368" d="M165.592,235.511c-.739-.261-1.172-.176-1.659-.789a2.494,2.494,0,0,1-.505-2.2,1.786,1.786,0,0,1,1.746-1.293,2.938,2.938,0,0,1,.992-5.306,1.16,1.16,0,0,1,.405-.064.472.472,0,0,1,.177.067c.256.144.482.329.751.457.1.048.2.092.308.133a5.481,5.481,0,0,0,1.485.336,4.831,4.831,0,0,1,.718.048,2.66,2.66,0,0,1,.419.207,7.238,7.238,0,0,0,2.965.326,5.688,5.688,0,0,1,3.171.618,2.1,2.1,0,0,1,.8,2.814,1.43,1.43,0,0,1,1.538,1.1,2.068,2.068,0,0,1-.632,1.893,3.856,3.856,0,0,1-1.845.915,1.579,1.579,0,0,1,1.493,1.6,2.427,2.427,0,0,1-1.267,1.97,5.568,5.568,0,0,1-2.345.639c-.813.077-3.388.447-4.181.643l-3,.04a2.421,2.421,0,0,1-2.309-3.349,1.547,1.547,0,0,1,.773-.807" transform="translate(-31.487 -43.535)" fill="#ffc09d"/>
        <path id="Trazado_642369" data-name="Trazado 642369" d="M166.129,221.83a2.344,2.344,0,0,1,.657-1.843,2.008,2.008,0,0,1,1.806-.544,15.525,15.525,0,0,0,.883,2.433,2.889,2.889,0,0,0,.326.471c.3.437,1.328.389,1.823.573a1.8,1.8,0,0,1,.922,2.289,1.652,1.652,0,0,1-1.748,1.174,5.511,5.511,0,0,1-3.113-1.053,4.424,4.424,0,0,1-1.556-3.5" transform="translate(-32.023 -42.296)" fill="#ffc09d"/>
        <path id="Trazado_642370" data-name="Trazado 642370" d="M165.278,232.415c0,.078,2.794.057,6.234-.044s6.229-.248,6.227-.325-2.793-.058-6.235.044-6.229.248-6.226.325" transform="translate(-31.859 -44.72)" fill="#ff9b6c"/>
        <path id="Trazado_642371" data-name="Trazado 642371" d="M165.895,237.669a8.326,8.326,0,0,0,1.652.136c1.023.036,2.439.03,4-.07s2.965-.278,3.974-.445a8.29,8.29,0,0,0,1.62-.348,11.457,11.457,0,0,0-1.647.152c-1.013.116-2.414.26-3.965.361s-2.959.136-3.978.152a11.387,11.387,0,0,0-1.653.062" transform="translate(-31.978 -45.671)" fill="#ff9b6c"/>
        <path id="Trazado_642372" data-name="Trazado 642372" d="M167.707,242.957a8.6,8.6,0,0,0,1.218-.027c.754-.042,1.8-.128,2.946-.25s2.185-.249,2.935-.342a10.623,10.623,0,0,0,1.212-.178,9.488,9.488,0,0,0-1.221.074c-.753.067-1.792.177-2.938.3s-2.182.224-2.933.293a11.943,11.943,0,0,0-1.218.132" transform="translate(-32.327 -46.678)" fill="#ff9b6c"/>
        <path id="Trazado_642373" data-name="Trazado 642373" d="M166.628,224.084a1.525,1.525,0,0,0,.206,1.036,3.551,3.551,0,0,0,1.928,1.656,7.44,7.44,0,0,0,1.351.383,5.471,5.471,0,0,0,1.142.137,1.211,1.211,0,0,0,.75-.266c.145-.127.177-.234.164-.241a1.355,1.355,0,0,1-.915.308,6.677,6.677,0,0,1-1.087-.192,8.716,8.716,0,0,1-1.3-.39,3.672,3.672,0,0,1-1.858-1.489,6.15,6.15,0,0,1-.38-.942" transform="translate(-32.115 -43.195)" fill="#ff9b6c"/>
      </g>
    </g>
    <g id="Grupo_883357" data-name="Grupo 883357">
      <g id="Grupo_883356" data-name="Grupo 883356" clip-path="url(#clip-path)">
        <path id="Trazado_642374" data-name="Trazado 642374" d="M516.731,149.471H452.756a4.769,4.769,0,0,1-4.769-4.769V87.314a4.769,4.769,0,0,1,4.769-4.769h63.975a4.769,4.769,0,0,1,4.769,4.769V144.7a4.769,4.769,0,0,1-4.769,4.769" transform="translate(-86.355 -15.912)" fill="#fff"/>
        <path id="Trazado_642375" data-name="Trazado 642375" d="M521.5,93.933H447.987V87.444a4.9,4.9,0,0,1,4.9-4.9h64.1a4.513,4.513,0,0,1,4.513,4.513Z" transform="translate(-86.355 -15.911)" fill="#e0e0e0"/>
        <path id="Trazado_642376" data-name="Trazado 642376" d="M460.238,90.573a1.805,1.805,0,1,1-1.8-1.7,1.751,1.751,0,0,1,1.8,1.7" transform="translate(-88.022 -17.132)" fill="#fff"/>
        <path id="Trazado_642377" data-name="Trazado 642377" d="M466.322,90.573a1.805,1.805,0,1,1-1.8-1.7,1.751,1.751,0,0,1,1.8,1.7" transform="translate(-89.194 -17.132)" fill="#fff"/>
        <path id="Trazado_642378" data-name="Trazado 642378" d="M472.407,90.573a1.805,1.805,0,1,1-1.8-1.7,1.751,1.751,0,0,1,1.8,1.7" transform="translate(-90.367 -17.132)" fill="#fff"/>
        <path id="Trazado_642379" data-name="Trazado 642379" d="M516.681,149.421c0-.017.241,0,.7-.078a4.743,4.743,0,0,0,3.817-3.368,6.861,6.861,0,0,0,.182-2.108q0-1.147-.009-2.441c-.016-6.911-.039-16.89-.067-29.22-.008-6.169-.017-12.925-.026-20.178q0-1.36,0-2.743,0-.691,0-1.388a7.86,7.86,0,0,0-.066-1.367,4.6,4.6,0,0,0-3.557-3.746,18.143,18.143,0,0,0-2.872-.1l-2.96,0-6.039,0-53.065.016a4.575,4.575,0,0,0-4.542,4.1c-.046,2.281-.013,4.621-.024,6.9q0,6.876,0,13.539c0,8.877-.008,17.439-.012,25.6q0,6.115,0,11.914a4.6,4.6,0,0,0,3.009,4.2,7.14,7.14,0,0,0,2.692.285l2.744,0,20.179.026,29.217.067,7.944.039,2.066.021c.466.007.7.022.7.022s-.238.015-.7.022l-2.066.02-7.944.04-29.217.067-20.179.026-2.744,0a7.467,7.467,0,0,1-2.815-.3,4.963,4.963,0,0,1-3.256-4.529q-.006-5.8-.015-11.923c0-8.157-.008-16.719-.012-25.6q0-6.657,0-13.539c.011-2.3-.026-4.581.024-6.945a4.995,4.995,0,0,1,4.96-4.48l53.065.016,6.039,0,2.96,0h1.464a6.831,6.831,0,0,1,1.485.114,4.969,4.969,0,0,1,3.835,4.05,8.234,8.234,0,0,1,.068,1.425q0,.7,0,1.388,0,1.383,0,2.743c-.01,7.253-.018,14.009-.026,20.178-.028,12.33-.051,22.309-.067,29.22q0,1.293-.01,2.441a6.964,6.964,0,0,1-.207,2.143,4.824,4.824,0,0,1-1.995,2.661,4.709,4.709,0,0,1-1.936.714,3.452,3.452,0,0,1-.7.036" transform="translate(-86.304 -15.861)" fill="#263238"/>
        <path id="Trazado_642380" data-name="Trazado 642380" d="M513.646,147.551h-55.42a3.6,3.6,0,0,1-3.6-3.6V106.609a3.6,3.6,0,0,1,3.6-3.6h55.42a3.6,3.6,0,0,1,3.6,3.6v37.344a3.6,3.6,0,0,1-3.6,3.6" transform="translate(-87.635 -19.857)" fill="#b6e1fd"/>
        <g id="Grupo_883352" data-name="Grupo 883352" transform="translate(371.934 102.418)" opacity="0.3">
          <g id="Grupo_883351" data-name="Grupo 883351">
            <g id="Grupo_883350" data-name="Grupo 883350" clip-path="url(#clip-path-12)">
              <path id="Trazado_642381" data-name="Trazado 642381" d="M461.066,149.364l15.284-21.753a1.73,1.73,0,0,1,2.763-.092l10.5,13.023a1.73,1.73,0,0,0,2.546.162l6.153-5.908a1.731,1.731,0,0,1,2.522.133l12.06,14.314a1.731,1.731,0,0,1-1.323,2.846H462.482a1.73,1.73,0,0,1-1.416-2.725" transform="translate(-460.749 -126.875)"/>
            </g>
          </g>
        </g>
        <g id="Grupo_883355" data-name="Grupo 883355" transform="translate(396.536 92.237)" opacity="0.3">
          <g id="Grupo_883354" data-name="Grupo 883354">
            <g id="Grupo_883353" data-name="Grupo 883353" clip-path="url(#clip-path-13)">
              <path id="Trazado_642382" data-name="Trazado 642382" d="M501.865,119.581a5.32,5.32,0,1,1-5.32-5.32,5.321,5.321,0,0,1,5.32,5.32" transform="translate(-491.225 -114.262)"/>
            </g>
          </g>
        </g>
      </g>
    </g>
    <path id="Trazado_642383" data-name="Trazado 642383" d="M542.921,399.886h88.516L621.888,366.7l-80.36-.32Z" transform="translate(-104.386 -70.624)" fill="#263238"/>
    <g id="Grupo_883368" data-name="Grupo 883368">
      <g id="Grupo_883367" data-name="Grupo 883367" clip-path="url(#clip-path)">
        <path id="Trazado_642384" data-name="Trazado 642384" d="M566.955,403.306a3.118,3.118,0,0,1-.3-.774c-.161-.509-.373-1.25-.608-2.172-.473-1.845-1.032-4.413-1.62-7.254l-1.5-7.272q-.277-1.282-.475-2.2a3.19,3.19,0,0,1-.142-.817,3.116,3.116,0,0,1,.3.774c.161.508.373,1.25.608,2.172.474,1.845,1.032,4.413,1.62,7.255l1.5,7.271q.277,1.282.476,2.2a3.206,3.206,0,0,1,.141.817" transform="translate(-108.391 -73.793)" fill="#455a64"/>
        <path id="Trazado_642385" data-name="Trazado 642385" d="M633.787,384.041c0,.013-.083.065-.258.153a8.355,8.355,0,0,1-.778.351,14.72,14.72,0,0,1-3.026.841,22.907,22.907,0,0,1-10.268-.823,57.22,57.22,0,0,1-9.5-4.04l-2.771-1.443a6.093,6.093,0,0,1-.994-.576,6.03,6.03,0,0,1,1.065.428c.674.3,1.64.758,2.83,1.325a67,67,0,0,0,9.492,3.9,23.975,23.975,0,0,0,10.1.932,25.5,25.5,0,0,0,4.109-1.051" transform="translate(-116.85 -72.961)" fill="#455a64"/>
        <path id="Trazado_642386" data-name="Trazado 642386" d="M573.307,383.261a2.621,2.621,0,1,1-2.62-2.62,2.62,2.62,0,0,1,2.62,2.62" transform="translate(-109.501 -73.373)" fill="#455a64"/>
        <path id="Trazado_642387" data-name="Trazado 642387" d="M606.919,168.685a90.693,90.693,0,0,0,4.987-14.821,31.663,31.663,0,0,0-.16-15.5c-.224-.758-2.221-5.886-3.013-5.863-.565.016.556,4.747.238,5.215-3.035,4.464-4.162,10.008-4.1,15.4a70.693,70.693,0,0,0,2.052,15.56" transform="translate(-116.595 -25.542)" fill="#263238"/>
        <path id="Trazado_642388" data-name="Trazado 642388" d="M565.835,193.281c.219-3.68.379-6.586.351-6.588,0,0-12.529-2.157-12.482-14.718.023-6.066,1.088-18.552,2.183-29.843a23.406,23.406,0,0,1,23.676-21.146l1.212.02c13.055.974,19.519,12.606,18.183,25.628l-3.222,45.7-9.6,9.943a11.822,11.822,0,0,1-20.3-8.994" transform="translate(-106.733 -23.321)" fill="#ffc09d"/>
        <path id="Trazado_642389" data-name="Trazado 642389" d="M569.115,201.293a30.344,30.344,0,0,0,16.431-4.57s-4.135,9.069-16.648,7.736Z" transform="translate(-109.662 -37.921)" fill="#ff9b6c"/>
        <path id="Trazado_642390" data-name="Trazado 642390" d="M560.088,160.519a1.794,1.794,0,0,0,1.7,1.838,1.717,1.717,0,0,0,1.875-1.588,1.794,1.794,0,0,0-1.7-1.838,1.716,1.716,0,0,0-1.877,1.588" transform="translate(-107.963 -30.635)" fill="#263238"/>
        <path id="Trazado_642391" data-name="Trazado 642391" d="M559.624,153.244c.219.237,1.593-.746,3.524-.71,1.929.009,3.329,1.024,3.541.791.1-.1-.115-.529-.724-.988a4.923,4.923,0,0,0-2.831-.923,4.724,4.724,0,0,0-2.809.857c-.6.446-.809.865-.7.972" transform="translate(-107.869 -29.187)" fill="#263238"/>
        <path id="Trazado_642392" data-name="Trazado 642392" d="M581.4,161.842a1.793,1.793,0,0,0,1.7,1.837,1.716,1.716,0,0,0,1.875-1.587,1.8,1.8,0,0,0-1.7-1.839,1.717,1.717,0,0,0-1.877,1.589" transform="translate(-112.071 -30.89)" fill="#263238"/>
        <path id="Trazado_642393" data-name="Trazado 642393" d="M581.869,154.448c.219.237,1.6-.746,3.524-.71,1.928.009,3.328,1.024,3.541.792.1-.1-.113-.529-.725-.988a4.928,4.928,0,0,0-2.83-.923,4.735,4.735,0,0,0-2.809.857c-.6.446-.808.865-.7.972" transform="translate(-112.157 -29.419)" fill="#263238"/>
        <path id="Trazado_642394" data-name="Trazado 642394" d="M572.991,169.423a12.763,12.763,0,0,0-3.126-.617c-.492-.058-.957-.164-1.034-.5a2.505,2.505,0,0,1,.353-1.456q.724-1.776,1.518-3.729c2.111-5.311,3.647-9.68,3.433-9.763s-2.1,4.153-4.211,9.463c-.509,1.31-.995,2.558-1.457,3.753a2.853,2.853,0,0,0-.287,1.93,1.233,1.233,0,0,0,.8.734,3.346,3.346,0,0,0,.836.13,12.569,12.569,0,0,0,3.177.056" transform="translate(-109.507 -29.561)" fill="#263238"/>
        <path id="Trazado_642395" data-name="Trazado 642395" d="M582.206,146.335c.268.49,2.135-.049,4.415-.123,2.279-.12,4.184.257,4.409-.253.1-.243-.291-.683-1.1-1.073a7.679,7.679,0,0,0-6.722.287c-.771.458-1.122.929-1,1.162" transform="translate(-112.223 -27.805)" fill="#263238"/>
        <path id="Trazado_642396" data-name="Trazado 642396" d="M560.465,144.863c.333.444,1.669.01,3.268.015,1.6-.052,2.947.342,3.267-.111.14-.22-.065-.663-.65-1.087a4.732,4.732,0,0,0-5.266.078c-.572.441-.765.89-.618,1.106" transform="translate(-108.027 -27.549)" fill="#263238"/>
        <path id="Trazado_642397" data-name="Trazado 642397" d="M608.143,164.175c.216-.09,8.671-2.413,8.257,6.169s-8.943,6.4-8.947,6.15.689-12.318.689-12.318" transform="translate(-117.094 -31.579)" fill="#ffc09d"/>
        <path id="Trazado_642398" data-name="Trazado 642398" d="M610.894,174.045c.038-.026.144.111.391.24a1.5,1.5,0,0,0,1.116.077c.923-.289,1.756-1.691,1.871-3.236a4.948,4.948,0,0,0-.315-2.16,1.73,1.73,0,0,0-1.07-1.2.762.762,0,0,0-.9.367c-.128.234-.081.408-.128.421-.024.021-.177-.153-.09-.5a.953.953,0,0,1,.364-.521,1.131,1.131,0,0,1,.836-.178,2.1,2.1,0,0,1,1.5,1.405,5.084,5.084,0,0,1,.4,2.417c-.138,1.727-1.1,3.3-2.36,3.6a1.6,1.6,0,0,1-1.355-.293c-.256-.224-.292-.418-.261-.433" transform="translate(-117.755 -32.255)" fill="#ff9b6c"/>
        <path id="Trazado_642399" data-name="Trazado 642399" d="M564.23,127.885c-1.345-.845,3.078-5.1,6.578-6.457,5.289-2.045,13.244-3.036,17.922-1.417,5.631,1.949,10.224,5.068,12.8,10.442a33.789,33.789,0,0,1,2.805,17.442,10.263,10.263,0,0,1-1.507,5.172c-1.306,1.828-3.673,2.892-3.721,5.513a3.6,3.6,0,0,1-1.041,2.567c-1.665,1.581-3.5-.1-4.288-1.721-1.694-3.467-1.676-7.49-1.622-11.348a25.12,25.12,0,0,1,1.007-8.127c.5-1.405,1.253-2.718,1.675-4.15a5.16,5.16,0,0,0-.364-4.316,5.313,5.313,0,0,0-.656-.745,8.959,8.959,0,0,0-8.778-2.195c-4.928,1.434-13.323,3.516-15.384,1.753-2.965-2.535-3.619-4.115-3.619-4.115Z" transform="translate(-108.714 -22.978)" fill="#263238"/>
        <path id="Trazado_642400" data-name="Trazado 642400" d="M574.591,180.531c-.009.152.425.344,1.17.322a5.113,5.113,0,0,0,4.422-3.27c.239-.706.182-1.177.035-1.212-.328-.081-.928,1.438-2.473,2.542-1.507,1.152-3.135,1.282-3.154,1.618" transform="translate(-110.759 -33.997)" fill="#263238"/>
        <path id="Trazado_642401" data-name="Trazado 642401" d="M473.737,251.446c-1.757-2.888-3.843-6.04-3.843-6.04l-1.7-2.9a3.745,3.745,0,0,0-.388.552,2.517,2.517,0,0,1-.816.962,2.006,2.006,0,0,1-2.211-.535,4.907,4.907,0,0,1-1.481-4.621,4.844,4.844,0,0,1,3.122-3.45,3.551,3.551,0,0,1,.886-1.062c2.45-1.99,6.834-.637,6.834-.637l-.455-1.1s-2.615-2.584-8.386-.561a3.76,3.76,0,0,1-2.669-.035,1.913,1.913,0,0,1-1.175-1.133c-.457-1.416.428-2.1,4.014-3.412s7.486-1.391,9.635.015a25.533,25.533,0,0,1,2.9,2.093s-3.527-10.136-3.724-10.785c-.572-1.881-.207-3.707,1.011-4.2.782-.317,2.005-.14,2.737,2.031.634,1.878,9.575,20.308,9.575,20.308l3.478,8.382,1.744,7.379-12.558,3.538-.908-.305a10.5,10.5,0,0,1-5.621-4.489" transform="translate(-88.929 -41.343)" fill="#ffc09d"/>
        <path id="Trazado_642402" data-name="Trazado 642402" d="M492.22,250.139A2.811,2.811,0,0,1,489,249.61c-.9-.753-1.51-1.784-2.349-2.6-2.508-2.436-6.642-2.63-9.031-5.182-.333-.356-.633-.9-.358-1.3.256-.368.806-.325,1.25-.241l11.373,2.136" transform="translate(-91.977 -46.308)" fill="#ffc09d"/>
        <path id="Trazado_642403" data-name="Trazado 642403" d="M489.807,242.352A4.672,4.672,0,0,0,488.6,242c-.785-.187-1.924-.438-3.336-.732l-4.961-1-1.436-.281a2.292,2.292,0,0,0-1.73.073.962.962,0,0,0-.353,1.028,2,2,0,0,0,.458.828,7.627,7.627,0,0,0,1.3,1.113c1.909,1.283,3.987,1.8,5.65,2.649a8.807,8.807,0,0,1,2.176,1.443c.593.557,1.062,1.195,1.556,1.737a4.106,4.106,0,0,0,3.031,1.653c.87-.024,1.217-.435,1.19-.442a3.358,3.358,0,0,1-1.183.186,3.978,3.978,0,0,1-2.686-1.7c-.455-.541-.9-1.2-1.53-1.825a9.074,9.074,0,0,0-2.284-1.593c-1.719-.906-3.788-1.454-5.549-2.648a7.186,7.186,0,0,1-1.175-1c-.324-.357-.442-.787-.216-.908.226-.171.749-.073,1.236.023l1.439.259,4.986.865c1.422.237,2.573.417,3.373.527a4.651,4.651,0,0,0,1.253.106" transform="translate(-91.899 -46.231)" fill="#ff9b6c"/>
        <path id="Trazado_642404" data-name="Trazado 642404" d="M474.283,237.482a4.8,4.8,0,0,0-1.33-1.736,3.714,3.714,0,0,0-2.2-.7,9.424,9.424,0,0,0-2.882.511,15,15,0,0,1-2.956.7,4.88,4.88,0,0,1-2.5-.361,1.9,1.9,0,0,1-1.083-1.313,1.1,1.1,0,0,1,0-.621c.041,0,.042.22.157.579a1.8,1.8,0,0,0,1.048,1.083,4.848,4.848,0,0,0,2.331.244,16.621,16.621,0,0,0,2.872-.714,9.15,9.15,0,0,1,3.016-.495,3.9,3.9,0,0,1,2.379.853,3.469,3.469,0,0,1,1.009,1.367,1.188,1.188,0,0,1,.136.6" transform="translate(-88.921 -45.099)" fill="#ff9b6c"/>
        <path id="Trazado_642405" data-name="Trazado 642405" d="M477.1,218.933a12.033,12.033,0,0,1,.714,2.011l1.6,4.88c.626,1.823,1.193,3.472,1.669,4.856a11.984,11.984,0,0,1,.642,2.033,9.562,9.562,0,0,1-.923-1.928c-.509-1.218-1.152-2.923-1.792-4.83s-1.153-3.654-1.481-4.931a9.536,9.536,0,0,1-.425-2.092" transform="translate(-91.965 -42.202)" fill="#ff9b6c"/>
        <path id="Trazado_642406" data-name="Trazado 642406" d="M473.847,241.924a2.6,2.6,0,0,1-.668-.034,1.976,1.976,0,0,0-1.588.442,1.046,1.046,0,0,0-.24,1.016,5.638,5.638,0,0,0,.54,1.282,2.389,2.389,0,0,1,.3,1.67,2.016,2.016,0,0,1-1.277,1.315,2.323,2.323,0,0,1-1.824-.164,2.923,2.923,0,0,1-1.231-1.165,9.388,9.388,0,0,1-.84-2.613,5.465,5.465,0,0,1-.05-1.843,1.206,1.206,0,0,1,.246-.63c.036.015-.051.235-.082.651a6.489,6.489,0,0,0,.182,1.765,10.081,10.081,0,0,0,.887,2.481,2.31,2.31,0,0,0,2.567,1.117,1.619,1.619,0,0,0,1.021-1.028,2.037,2.037,0,0,0-.25-1.392A5.688,5.688,0,0,1,471,243.41a1.362,1.362,0,0,1,.375-1.294,2.068,2.068,0,0,1,1.82-.39,1.761,1.761,0,0,1,.648.2" transform="translate(-90.002 -46.494)" fill="#ff9b6c"/>
        <path id="Trazado_642407" data-name="Trazado 642407" d="M468.417,246.985c.018-.01.147.187.138.592a1.834,1.834,0,0,1-.827,1.432,2.483,2.483,0,0,1-2.46.048,4.09,4.09,0,0,1-1.9-2.346,4.874,4.874,0,0,1-.051-3,4.634,4.634,0,0,1,1.321-2.053,4.4,4.4,0,0,1,1.4-.859,1.26,1.26,0,0,1,.586-.131,7.636,7.636,0,0,0-1.774,1.208,4.558,4.558,0,0,0-1.154,1.949,4.635,4.635,0,0,0,.077,2.751,3.8,3.8,0,0,0,1.677,2.134,2.208,2.208,0,0,0,2.12.043,1.739,1.739,0,0,0,.822-1.195c.057-.358-.009-.566.027-.575" transform="translate(-89.269 -46.39)" fill="#ff9b6c"/>
        <path id="Trazado_642408" data-name="Trazado 642408" d="M481.211,252.643a1.735,1.735,0,0,1,.976-.307,4.052,4.052,0,0,1,2.551.581l-.308.212a11.886,11.886,0,0,1-.234-1.428,9.077,9.077,0,0,1,.659-4.931,22.968,22.968,0,0,0-.236,4.891c.05.488.123.957.209,1.385l.1.475-.4-.262a4.256,4.256,0,0,0-2.317-.668c-.613,0-.976.107-.992.052" transform="translate(-92.759 -47.568)" fill="#ff9b6c"/>
        <path id="Trazado_642409" data-name="Trazado 642409" d="M473.131,232.7c.112.016-.034.874-.8,1.551s-1.631.736-1.634.623c-.027-.12.692-.34,1.348-.94s.966-1.274,1.083-1.234" transform="translate(-90.733 -44.856)" fill="#ff9b6c"/>
        <path id="Trazado_642410" data-name="Trazado 642410" d="M547.927,213.791s-6.39.772-7.088.814c-5.392.332-14.186,3.516-18.318,11.231-3.013,5.627-8.753,28.54-10.291,34.731l-2.226,7.294L496.54,246.494,477.4,257.413s19.89,48.121,32.763,48.116S529,292.677,529,292.677l-.2-28.94Z" transform="translate(-92.024 -41.211)" fill="#e0e0e0"/>
        <path id="Trazado_642411" data-name="Trazado 642411" d="M534.83,238.7a2.525,2.525,0,0,0-.056.648c-.01.5-.022,1.11-.035,1.859-.023,1.614-.006,3.95.049,6.836.1,5.771.455,13.738.947,22.526s.914,16.747,1.13,22.509c.1,2.814.186,5.124.248,6.825.032.748.06,1.362.082,1.857a2.62,2.62,0,0,0,.069.647,2.512,2.512,0,0,0,.055-.648c.01-.495.023-1.109.036-1.858.023-1.614.006-3.95-.049-6.835-.1-5.772-.456-13.739-.948-22.529s-.913-16.744-1.129-22.507c-.1-2.813-.187-5.124-.248-6.825-.033-.748-.059-1.362-.082-1.857a2.645,2.645,0,0,0-.07-.647" transform="translate(-103.075 -46.013)" fill="#263238"/>
        <path id="Trazado_642412" data-name="Trazado 642412" d="M652.424,238.766c-3.269-14.623-19.432-18.684-19.432-18.684l-5.49,52.783,3.4,8.567,28.919-6.244s-3.3-18.085-7.4-36.423" transform="translate(-120.958 -42.423)" fill="#e0e0e0"/>
        <path id="Trazado_642413" data-name="Trazado 642413" d="M622.46,276.213l10.807,10.415-3.492-19.919,21.935-6.938s5.825,27.337,6.839,33.8c1.818,11.6-.414,28.094-11.226,29.254-11.7,1.256-20.528-10.28-26.148-17.85-4.321-5.819-11.294-16-11.294-16Z" transform="translate(-117.562 -50.074)" fill="#e0e0e0"/>
        <path id="Trazado_642414" data-name="Trazado 642414" d="M619.135,299.55l-.852-24.8,1.292-57.46-23.039-10.476-3.053-9.015L567.724,209.28l-5.166-5.414-2.983,5.791-9.177,2.075-7.491,21.2-6.356,16.69s1.835,57.885,3.415,79.117c.207,2.785-3.415,4,.6,7.1,0,0,6.03,3.541,19.1,3.881,37.194.971,60.044-4.968,61.259-5.513a7.656,7.656,0,0,0,2.263-6.405c-.111-.877-.294-1.824-.464-3.021Z" transform="translate(-103.427 -38.129)" fill="#e0e0e0"/>
        <path id="Trazado_642415" data-name="Trazado 642415" d="M563.243,346.35a1.086,1.086,0,0,1-.048-.317c-.019-.255-.043-.563-.07-.936l-.2-3.6c-.141-3.2-.341-7.713-.587-13.262-.417-11.2-.948-26.688-.772-43.81.1-8.562.392-16.728,1.211-24.123.853-7.387,2.123-13.955,3.267-19.444,1.162-5.487,2.225-9.9,2.966-12.938l.879-3.5c.1-.362.179-.659.245-.9a1.121,1.121,0,0,1,.107-.3,1.075,1.075,0,0,1-.038.32c-.048.251-.107.553-.179.922q-.277,1.3-.752,3.53c-.659,3.063-1.649,7.487-2.747,12.979-1.08,5.492-2.3,12.059-3.111,19.412-.78,7.353-1.049,15.506-1.153,24.054-.175,17.1.277,32.581.568,43.785.153,5.553.278,10.07.367,13.271q.045,2.276.072,3.61c0,.376,0,.685,0,.94a1.13,1.13,0,0,1-.023.321" transform="translate(-108.241 -43.026)" fill="#263238"/>
        <path id="Trazado_642416" data-name="Trazado 642416" d="M583.76,256.42a11.691,11.691,0,0,1,1.526.045l4.453.266,16.223,1.11.307.021-.023.311c-.561,7.435-1.232,16.329-1.958,25.937l-.013.172-.138.1c-.76.551-1.581,1.108-2.424,1.656a47.492,47.492,0,0,1-4.562,2.644,13.431,13.431,0,0,1-4.945,1.591,9.849,9.849,0,0,1-4.9-1.136,21.481,21.481,0,0,1-3.967-2.653c-.6-.493-1.171-1-1.719-1.509a3.34,3.34,0,0,1-.77-.93,4.925,4.925,0,0,1-.431-1.09,16.684,16.684,0,0,1-.4-4.278,61.707,61.707,0,0,1,.685-7.576c.669-4.594,1.466-8.262,2.037-10.79.29-1.263.534-2.239.71-2.9a5.2,5.2,0,0,1,.31-1,5.693,5.693,0,0,1-.163,1.029c-.145.741-.335,1.713-.572,2.925-.483,2.541-1.2,6.221-1.8,10.8a63.312,63.312,0,0,0-.589,7.508,16.243,16.243,0,0,0,.411,4.1,3.175,3.175,0,0,0,1.024,1.7q.816.754,1.7,1.471a20.924,20.924,0,0,0,3.846,2.545,9.16,9.16,0,0,0,4.545,1.045,12.825,12.825,0,0,0,4.655-1.526,47.788,47.788,0,0,0,4.487-2.6c.831-.54,1.651-1.1,2.389-1.631l-.152.273c.773-9.605,1.489-18.5,2.088-25.927l.283.332-16.024-1.405-4.5-.432-1.2-.131a2.263,2.263,0,0,1-.429-.069" transform="translate(-111.805 -49.426)" fill="#263238"/>
        <path id="Trazado_642417" data-name="Trazado 642417" d="M606.313,266.443c-.016.207-5.281-.035-11.757-.541s-11.717-1.082-11.7-1.288,5.28.036,11.759.541,11.715,1.083,11.7,1.288" transform="translate(-112.352 -50.993)" fill="#263238"/>
        <g id="Grupo_883360" data-name="Grupo 883360" transform="translate(469.38 234.554)" opacity="0.3">
          <g id="Grupo_883359" data-name="Grupo 883359">
            <g id="Grupo_883358" data-name="Grupo 883358" clip-path="url(#clip-path-15)">
              <path id="Trazado_642418" data-name="Trazado 642418" d="M581.464,290.563c1.268,2.086,2.446,4.952,4.176,6.673a10.226,10.226,0,0,0,6.413,3.19,10.517,10.517,0,0,0,6.082-1.808c2.942-1.841,4.748-4.741,6.062-7.953.185-.235-4.209,2.7-6.6,3.968a10.753,10.753,0,0,1-6.753,1.45c-3.534-.287-6.7-3.2-9.383-5.52" transform="translate(-581.464 -290.563)"/>
            </g>
          </g>
        </g>
        <g id="Grupo_883363" data-name="Grupo 883363" transform="translate(464.733 169.544)" opacity="0.3">
          <g id="Grupo_883362" data-name="Grupo 883362">
            <g id="Grupo_883361" data-name="Grupo 883361" clip-path="url(#clip-path-16)">
              <path id="Trazado_642419" data-name="Trazado 642419" d="M575.708,213.305l.942,12.077,25.639-15.352-24.734,13.051Z" transform="translate(-575.708 -210.03)"/>
            </g>
          </g>
        </g>
        <path id="Trazado_642420" data-name="Trazado 642420" d="M566.337,232.1a413.362,413.362,0,0,0-9.385,61.265c-1.083,14.314-1.885,33.282-1.885,33.282l8.306,10.287,9.927-9.855s-2.021-41.172-1.977-54.97c.035-11.108-.416-39.779-.416-39.779Z" transform="translate(-106.996 -44.741)" fill="#038a7b"/>
        <path id="Trazado_642421" data-name="Trazado 642421" d="M630.477,254.3a6.816,6.816,0,0,1,.261,1.147l.57,3.15c.469,2.73,1.1,6.376,1.789,10.407.708,4.064,1.312,7.751,1.708,10.425.2,1.337.354,2.42.45,3.17a6.783,6.783,0,0,1,.111,1.171,6.754,6.754,0,0,1-.261-1.147c-.147-.812-.34-1.872-.572-3.15-.478-2.728-1.116-6.373-1.82-10.4-.7-4.065-1.279-7.755-1.677-10.429-.182-1.286-.332-2.352-.448-3.17a6.849,6.849,0,0,1-.111-1.171" transform="translate(-121.53 -49.02)" fill="#263238"/>
        <path id="Trazado_642422" data-name="Trazado 642422" d="M638.816,224.008c.043.055-.76.681-1.9,1.851a22.946,22.946,0,0,0-5.948,11.065c-.349,1.593-.428,2.608-.5,2.6a2.489,2.489,0,0,1-.006-.718,14.758,14.758,0,0,1,.233-1.939,20.688,20.688,0,0,1,6.024-11.206,14.755,14.755,0,0,1,1.489-1.265,2.532,2.532,0,0,1,.6-.391" transform="translate(-121.527 -43.18)" fill="#263238"/>
        <path id="Trazado_642423" data-name="Trazado 642423" d="M574.208,218.8l-2.573-.569-2.5,4.505-.1,6.694,4.571.231,2.833-5.308Z" transform="translate(-109.687 -42.067)" fill="#038a7b"/>
        <path id="Trazado_642424" data-name="Trazado 642424" d="M572.137,233.4c-.057.091-.694-.207-1.422-.667s-1.271-.906-1.213-1,.694.208,1.422.668,1.271.9,1.213,1" transform="translate(-109.777 -44.667)" fill="#263238"/>
        <path id="Trazado_642425" data-name="Trazado 642425" d="M572.775,229.626a36.9,36.9,0,0,1-3.046-6.934,36.83,36.83,0,0,1,3.046,6.934" transform="translate(-109.82 -42.926)" fill="#263238"/>
        <g id="Grupo_883366" data-name="Grupo 883366" transform="translate(491.904 243.322)" opacity="0.3">
          <g id="Grupo_883365" data-name="Grupo 883365">
            <g id="Grupo_883364" data-name="Grupo 883364" clip-path="url(#clip-path-17)">
              <path id="Trazado_642426" data-name="Trazado 642426" d="M612.174,305.1s6.3,5.967,8.953,10.593c1.87,3.263,7.158,7.62,13.127,11.434l.93,6.532c-3.308-.658-9.114-4.957-11.353-7.479a48.109,48.109,0,0,1-6.248-8.1c-3.016-5.391-7.157-10.572-8.216-16.657Z" transform="translate(-609.367 -301.425)"/>
            </g>
          </g>
        </g>
        <path id="Trazado_642427" data-name="Trazado 642427" d="M633.216,321.523a3.441,3.441,0,0,0-.557-.425c-.367-.274-.948-.622-1.641-1.155a61.3,61.3,0,0,1-5.63-4.907,165.39,165.39,0,0,1-16.472-19.409l.036.3c1.174-2.845,2.4-5.815,3.656-8.859,1.526-3.711,3-7.308,4.385-10.671l-.475.115,25.793,21.816a2.369,2.369,0,0,0-.427-.5c-.307-.3-.766-.743-1.375-1.3-1.212-1.114-3.005-2.707-5.266-4.687-4.524-3.962-10.921-9.476-18.335-15.8l-.316-.269-.158.384c-1.388,3.36-2.873,6.954-4.4,10.662l-3.645,8.864-.066.159.1.136a153.034,153.034,0,0,0,16.694,19.337,53.249,53.249,0,0,0,5.779,4.8c.717.509,1.32.831,1.707,1.076a3.305,3.305,0,0,0,.615.332" transform="translate(-117.261 -53.159)" fill="#263238"/>
        <path id="Trazado_642428" data-name="Trazado 642428" d="M530.909,252.045l9.02,34.074a4.238,4.238,0,0,0,4.18,3.153l46.707-.918a4.238,4.238,0,0,0,4.064-5.111L588,250.61a4.238,4.238,0,0,0-4.147-3.364H534.6a3.821,3.821,0,0,0-3.694,4.8" transform="translate(-102.314 -47.66)" fill="#263238"/>
        <path id="Trazado_642429" data-name="Trazado 642429" d="M592.692,286.751a.928.928,0,0,1-.069-.221c-.042-.172-.1-.389-.162-.659l-.584-2.542-2.07-9.364c-.861-3.966-1.882-8.674-3.017-13.9-.564-2.618-1.155-5.364-1.768-8.21a1.9,1.9,0,0,0-1.2-1.476,2.587,2.587,0,0,0-1.027-.118h-1.124l-4.575,0-31.644-.062-9.589-.067-2.607-.04-.678-.02a.116.116,0,1,1,0-.044l.678-.02,2.607-.04,9.589-.067,31.644-.061h5.7a2.987,2.987,0,0,1,1.172.145,2.319,2.319,0,0,1,1.462,1.778l1.744,8.216c1.1,5.232,2.093,9.946,2.929,13.918.814,3.943,1.475,7.143,1.939,9.392l.507,2.558c.05.274.09.493.121.668a.95.95,0,0,1,.027.23" transform="translate(-102.616 -48.16)" fill="#455a64"/>
        <path id="Trazado_642430" data-name="Trazado 642430" d="M569.344,261.149a2.427,2.427,0,1,1-3.175-1.625,2.526,2.526,0,0,1,3.175,1.625" transform="translate(-108.839 -50)" fill="#e0e0e0"/>
        <path id="Trazado_642431" data-name="Trazado 642431" d="M615.187,276.05l-2.218-2.073s-1.472-4.893-2.4-5.818a10.258,10.258,0,0,0-3.414-1.617l-5.577-5.122,1.016,4.569-8.091-.06a2.3,2.3,0,0,0-2.2,1.413.914.914,0,0,0-.069.443,2.957,2.957,0,0,0,1.618,2.119l1.163.548a2.746,2.746,0,0,0-1.907,1.986,2.533,2.533,0,0,0,1.685,2.728s-1.988.89-.846,3.274c0,0-1.851,2.195-.781,3.68s7.208,3.973,7.208,3.973l3.4,1.545a5.761,5.761,0,0,0,2.551.144l1.329.186,1.419,1.176s8.119-4.434,6.114-13.1" transform="translate(-114.158 -50.392)" fill="#ffc09d"/>
        <path id="Trazado_642432" data-name="Trazado 642432" d="M606.958,274.6a6.129,6.129,0,0,1-1.839.017,34.47,34.47,0,0,1-8.667-1.75,6.137,6.137,0,0,1-1.687-.728c.048-.137,2.7.735,6.062,1.405,3.359.686,6.141.911,6.132,1.056" transform="translate(-114.648 -52.456)" fill="#ff9b6c"/>
        <path id="Trazado_642433" data-name="Trazado 642433" d="M609.3,282.2a106.979,106.979,0,0,1-13.9-3.752,106.6,106.6,0,0,1,13.9,3.752" transform="translate(-114.771 -53.671)" fill="#ff9b6c"/>
        <path id="Trazado_642434" data-name="Trazado 642434" d="M608.391,287.732a8.654,8.654,0,0,1-2.243-.291,35.974,35.974,0,0,1-10.2-3.783,8.637,8.637,0,0,1-1.89-1.242,13.067,13.067,0,0,1,2.049.936c1.247.6,2.989,1.393,4.969,2.129s3.816,1.269,5.155,1.624a13.152,13.152,0,0,1,2.164.626" transform="translate(-114.511 -54.438)" fill="#ff9b6c"/>
        <path id="Trazado_642435" data-name="Trazado 642435" d="M613.526,280.406c-.134-.048.127-.95-.067-2.045-.172-1.1-.711-1.869-.6-1.956.081-.1.877.626,1.08,1.876a2.4,2.4,0,0,1-.412,2.125" transform="translate(-118.133 -53.279)" fill="#ff9b6c"/>
        <path id="Trazado_642436" data-name="Trazado 642436" d="M613.791,273.431c-.092-.1.329-.6.392-1.355.091-.75-.219-1.324-.108-1.405.05-.038.212.065.367.323a1.959,1.959,0,0,1-.226,2.195c-.2.222-.384.289-.425.242" transform="translate(-118.313 -52.174)" fill="#ff9b6c"/>
        <path id="Trazado_642437" data-name="Trazado 642437" d="M613.115,288.041c-.1-.094.214-.594.405-1.271s.208-1.266.345-1.288.357.63.121,1.426-.785,1.229-.872,1.133" transform="translate(-118.181 -55.03)" fill="#ff9b6c"/>
        <path id="Trazado_642438" data-name="Trazado 642438" d="M597.631,266.989c.009.178,2.132.2,4.732.389s4.708.454,4.741.278-2.05-.719-4.7-.9-4.788.069-4.776.234" transform="translate(-115.2 -51.407)" fill="#ff9b6c"/>
        <path id="Trazado_642439" data-name="Trazado 642439" d="M565.652,213.022a3.21,3.21,0,0,1,.229.563c.147.413.339.958.58,1.64.5,1.476,1.2,3.538,2.064,6.074l-.274-.024,4.808-9.064.248-.467.118.517,2.275,10.032c.043.187.085.375.124.547l-.3-.14,18.031-9.442,5.468-2.81,1.494-.744a3.115,3.115,0,0,1,.534-.235,3.06,3.06,0,0,1-.5.309l-1.458.813-5.406,2.928-17.972,9.554-.243.128-.06-.268c-.039-.173-.081-.359-.123-.546-.794-3.545-1.554-6.939-2.249-10.039l.366.05-4.891,9.019-.169.311-.106-.334c-.808-2.554-1.466-4.631-1.937-6.116-.21-.693-.378-1.246-.5-1.665a3.3,3.3,0,0,1-.148-.589" transform="translate(-109.036 -40.377)" fill="#263238"/>
      </g>
    </g>
  </g>
</svg>
