<svg xmlns="http://www.w3.org/2000/svg" xmlns:xlink="http://www.w3.org/1999/xlink" width="150" height="150" viewBox="0 0 150 150">
  <defs>
    <filter id="Elipse_6976" x="0" y="0" width="150" height="150" filterUnits="userSpaceOnUse">
      <feOffset dy="3" input="SourceAlpha"/>
      <feGaussianBlur stdDeviation="3" result="blur"/>
      <feFlood flood-opacity="0.161"/>
      <feComposite operator="in" in2="blur"/>
      <feComposite in="SourceGraphic"/>
    </filter>
  </defs>
  <g id="Grupo_1034495" data-name="Grupo 1034495" transform="translate(-1080.257 -2836.854)">
    <g transform="matrix(1, 0, 0, 1, 1080.26, 2836.85)" filter="url(#Elipse_6976)">
      <circle id="Elipse_6976-2" data-name="Elipse 6976" cx="66" cy="66" r="66" transform="translate(9 6)" fill="#b6e1fd"/>
    </g>
    <g id="_x32_1_seo" transform="translate(1119.002 2872.953)">
      <g id="Grupo_883416" data-name="Grupo 883416" transform="translate(0.998 1.001)">
        <path id="Trazado_642451" data-name="Trazado 642451" d="M15.606,15.055a2.527,2.527,0,1,0,0-5.054H10.553A5.059,5.059,0,0,0,5.5,15.055v2.527a5.059,5.059,0,0,0,5.054,5.054h2.527v2.527H8.026a2.527,2.527,0,0,0,0,5.054h5.054a5.059,5.059,0,0,0,5.054-5.054V22.635a5.059,5.059,0,0,0-5.054-5.054H10.553V15.055Z" transform="translate(5.874 12.74)" fill="#12263f"/>
        <path id="Trazado_642452" data-name="Trazado 642452" d="M21.606,15.055a2.527,2.527,0,1,0,0-5.054H16.553A5.059,5.059,0,0,0,11.5,15.055V25.162a5.059,5.059,0,0,0,5.054,5.054h5.054a2.527,2.527,0,0,0,0-5.054H16.553V22.635h2.527a2.527,2.527,0,0,0,0-5.054H16.553V15.055Z" transform="translate(15.035 12.74)" fill="#12263f"/>
        <path id="Trazado_642453" data-name="Trazado 642453" d="M30.133,25.162V15.055A5.059,5.059,0,0,0,25.079,10H22.553A5.059,5.059,0,0,0,17.5,15.055V25.162a5.059,5.059,0,0,0,5.054,5.054h2.527A5.059,5.059,0,0,0,30.133,25.162Zm-5.061,0H22.553V15.055h2.527Z" transform="translate(24.196 12.74)" fill="#12263f"/>
        <path id="Trazado_642454" data-name="Trazado 642454" d="M74.9,66.278,60.979,52.333a32.9,32.9,0,1,0-8.621,8.629L66.273,74.9a6.407,6.407,0,0,0,4.371,1.9c.056,0,.114,0,.172,0a5.944,5.944,0,0,0,5.991-6.183A6.417,6.417,0,0,0,74.9,66.278ZM6.054,33.849A27.795,27.795,0,1,1,33.849,61.644,27.828,27.828,0,0,1,6.054,33.849Z" transform="translate(-0.998 -1.001)" fill="#12263f"/>
      </g>
    </g>
  </g>
</svg>
