<svg id="Grupo_883102" data-name="Grupo 883102" xmlns="http://www.w3.org/2000/svg" xmlns:xlink="http://www.w3.org/1999/xlink" width="506" height="648.849" viewBox="0 0 506 648.849">
  <defs>
    <clipPath id="clip-path">
      <rect id="Rectángulo_330942" data-name="Rectángulo 330942" width="506" height="648.849" fill="none"/>
    </clipPath>
    <clipPath id="clip-path-5">
      <rect id="Rectángulo_330930" data-name="Rectángulo 330930" width="9.026" height="13.284" fill="none"/>
    </clipPath>
    <clipPath id="clip-path-6">
      <rect id="Rectángulo_330931" data-name="Rectángulo 330931" width="33.681" height="35.952" fill="none"/>
    </clipPath>
    <clipPath id="clip-path-7">
      <rect id="Rectángulo_330932" data-name="Rectángulo 330932" width="12.148" height="8.462" fill="none"/>
    </clipPath>
    <clipPath id="clip-path-8">
      <rect id="Rectángulo_330933" data-name="Rectángulo 330933" width="48.824" height="12.399" fill="none"/>
    </clipPath>
    <clipPath id="clip-path-9">
      <rect id="Rectángulo_330934" data-name="Rectángulo 330934" width="54.634" height="63.239" fill="none"/>
    </clipPath>
    <clipPath id="clip-path-10">
      <rect id="Rectángulo_330935" data-name="Rectángulo 330935" width="49.998" height="27.487" fill="none"/>
    </clipPath>
    <clipPath id="clip-path-11">
      <rect id="Rectángulo_330936" data-name="Rectángulo 330936" width="11.916" height="16.832" fill="none"/>
    </clipPath>
    <clipPath id="clip-path-12">
      <rect id="Rectángulo_330939" data-name="Rectángulo 330939" width="162.518" height="103.737" fill="none"/>
    </clipPath>
    <clipPath id="clip-path-13">
      <rect id="Rectángulo_330940" data-name="Rectángulo 330940" width="26.47" height="26.468" fill="none"/>
    </clipPath>
  </defs>
  <g id="Grupo_883101" data-name="Grupo 883101" clip-path="url(#clip-path)">
    <g id="Grupo_883057" data-name="Grupo 883057">
      <g id="Grupo_883056" data-name="Grupo 883056" clip-path="url(#clip-path)">
        <path id="Trazado_641252" data-name="Trazado 641252" d="M506,389.676c0,.221-113.281.4-252.987.4C113.256,390.077,0,389.9,0,389.676s113.256-.4,253.012-.4c139.706,0,252.987.18,252.987.4" transform="translate(0 258.772)" fill="#263238"/>
      </g>
    </g>
    <g id="Grupo_883071" data-name="Grupo 883071">
      <g id="Grupo_883070" data-name="Grupo 883070" clip-path="url(#clip-path)">
        <path id="Trazado_641253" data-name="Trazado 641253" d="M261.072,598.545l-203.082-.939a44.235,44.235,0,0,1-44.033-44.424L16.109,44.051A44.24,44.24,0,0,1,60.551,0L263.633.939a44.237,44.237,0,0,1,44.033,44.426l-2.152,509.13a44.237,44.237,0,0,1-44.441,44.051" transform="translate(9.278 0)" fill="#455a64"/>
        <path id="Trazado_641254" data-name="Trazado 641254" d="M257.96,11.493l-39.376-.181a9.782,9.782,0,0,0-9.6,9.95L208.95,28.4a9.778,9.778,0,0,1-9.6,9.952L122.6,38a9.791,9.791,0,0,1-9.519-10.04l.032-7.142a9.792,9.792,0,0,0-9.521-10.038l-13.847-.065-34.462-.158A30.984,30.984,0,0,0,24.159,41.408l-2.1,496.949A30.984,30.984,0,0,0,52.9,569.471l202.674.934a30.98,30.98,0,0,0,31.124-30.85l2.1-496.95A30.983,30.983,0,0,0,257.96,11.493" transform="translate(14.663 7.018)" fill="#fafafa"/>
        <path id="Trazado_641255" data-name="Trazado 641255" d="M55.65,45.582A3.915,3.915,0,0,0,58,41.97a3.679,3.679,0,1,0-7.342-.062,3.906,3.906,0,0,0,2.326,3.664,5.877,5.877,0,0,0-4.988,4.252,8.325,8.325,0,0,0,5.082,2.765l2.262.018a8.328,8.328,0,0,0,5.182-2.747,5.777,5.777,0,0,0-4.869-4.278" transform="translate(31.903 25.277)" fill="#455a64"/>
        <path id="Trazado_641256" data-name="Trazado 641256" d="M55.173,53.626c0-.07.744-.038,2.009-.375a8.322,8.322,0,0,0,4.46-3.037,8.132,8.132,0,0,0,1.135-7.653,7.971,7.971,0,0,0-2.8-3.737,8.022,8.022,0,0,0-9.5-.037,7.98,7.98,0,0,0-2.828,3.717,8.132,8.132,0,0,0,1.079,7.661,8.327,8.327,0,0,0,4.437,3.07c1.262.346,2.011.32,2.006.39a1.717,1.717,0,0,1-.536.035,6.426,6.426,0,0,1-1.532-.183,8.312,8.312,0,0,1-4.736-3.037,8.472,8.472,0,0,1-1.633-3.606A8.614,8.614,0,0,1,47.1,42.3a8.512,8.512,0,0,1,3.015-4.022,8.591,8.591,0,0,1,10.242.04,8.511,8.511,0,0,1,2.982,4.042,8.61,8.61,0,0,1,.328,4.536A8.467,8.467,0,0,1,62,50.491a8.317,8.317,0,0,1-4.76,3,6.483,6.483,0,0,1-1.533.171,1.723,1.723,0,0,1-.536-.04" transform="translate(30.97 24.335)" fill="#455a64"/>
        <rect id="Rectángulo_330920" data-name="Rectángulo 330920" width="3.345" height="67.095" transform="translate(106.589 72.339) rotate(-89.785)" fill="#455a64"/>
        <path id="Trazado_641257" data-name="Trazado 641257" d="M170.442,39.716a1.453,1.453,0,1,1-1.448-1.458,1.454,1.454,0,0,1,1.448,1.458" transform="translate(111.369 25.432)" fill="#455a64"/>
        <path id="Trazado_641258" data-name="Trazado 641258" d="M170.43,42.857a1.453,1.453,0,1,1-1.448-1.458,1.454,1.454,0,0,1,1.448,1.458" transform="translate(111.361 27.52)" fill="#455a64"/>
        <path id="Trazado_641259" data-name="Trazado 641259" d="M170.418,46a1.453,1.453,0,1,1-1.448-1.458A1.454,1.454,0,0,1,170.418,46" transform="translate(111.353 29.608)" fill="#455a64"/>
        <path id="Trazado_641260" data-name="Trazado 641260" d="M138.267,70.85a10.529,10.529,0,0,1-2.174.168l-5.927.138c-5.006.078-11.921.127-19.558.127s-14.555-.048-19.561-.127l-5.927-.138a10.529,10.529,0,0,1-2.174-.168,10.531,10.531,0,0,1,2.174-.168l5.927-.138c5.006-.078,11.921-.127,19.561-.127s14.552.048,19.558.127l5.927.138a10.531,10.531,0,0,1,2.174.168" transform="translate(55.139 46.81)" fill="#455a64"/>
        <path id="Trazado_641261" data-name="Trazado 641261" d="M225.218,79.025c0,.24-31.852.433-71.133.433s-71.137-.193-71.137-.433,31.843-.433,71.137-.433,71.133.193,71.133.433" transform="translate(55.14 52.244)" fill="#455a64"/>
        <path id="Trazado_641262" data-name="Trazado 641262" d="M180.758,86.715c0,.24-21.9.433-48.9.433s-48.909-.193-48.909-.433,21.893-.433,48.909-.433,48.9.193,48.9.433" transform="translate(55.139 57.356)" fill="#455a64"/>
        <path id="Trazado_641263" data-name="Trazado 641263" d="M173.541,106.675l-4.42-4.433-4.208,4.2.02-12.69,8.628.013Zm-4.418-4.986.138.138,3.892,3.9.017-11.58-7.848-.012-.017,11.357Z" transform="translate(109.626 62.319)" fill="#263238"/>
        <path id="Trazado_641264" data-name="Trazado 641264" d="M102.566,104.013l-1.56-.694a3.949,3.949,0,1,1,1.2-.864ZM98.92,95.564a4.035,4.035,0,1,0,.065,8.071,4.154,4.154,0,0,0,1.943-.613l.065-.037,1.15.514-.261-1.13.053-.058a4.031,4.031,0,0,0-3.015-6.747" transform="translate(62.899 63.33)" fill="#263238"/>
        <path id="Trazado_641265" data-name="Trazado 641265" d="M107.471,103.109l-1.788-4.365-3.353-3.055,8.131-.065Zm-4.382-7.128,2.855,2.62,1.523,3.717,2.555-6.394Z" transform="translate(68.024 63.566)" fill="#263238"/>
        <path id="Trazado_641266" data-name="Trazado 641266" d="M104.615,98.756l-.161-.25,4.433-2.883.163.25Z" transform="translate(69.436 63.566)" fill="#263238"/>
        <path id="Trazado_641267" data-name="Trazado 641267" d="M95.686,97.017a2.515,2.515,0,0,0-4.959.166,2.515,2.515,0,0,0-4.963-.087,3.4,3.4,0,0,0,.618,2.447,10.118,10.118,0,0,0,1.781,1.868c.906.8,1.743,1.553,2.649,2.354.892-.816,1.653-1.582,2.545-2.4a10.041,10.041,0,0,0,1.75-1.9,3.39,3.39,0,0,0,.579-2.457" transform="translate(56.984 63.149)" fill="#fd4c1b"/>
        <path id="Trazado_641268" data-name="Trazado 641268" d="M271.793,140.612s-.02-.488-.03-1.418-.017-2.319-.03-4.119c-.015-3.634-.038-8.973-.07-15.888-.037-13.829-.09-33.943-.156-59.172l.286.286-240.6.146h-.015l.433-.433c0,28.009-.008,55.18-.013,80.6l-.42-.419,172.155.195,50.266.118,13.491.053,3.5.027c.789.008,1.205.027,1.205.027s-.381.018-1.154.027l-3.448.027-13.4.053-50.169.118-172.445.195h-.42v-.42c0-25.417-.008-52.588-.013-80.6v-.433h.448l240.6.146h.286v.286c-.067,25.3-.12,45.473-.156,59.343-.032,6.887-.055,12.2-.07,15.823q-.02,2.667-.032,4.069c-.008.912-.028,1.362-.028,1.362" transform="translate(20.437 39.607)" fill="#263238"/>
        <rect id="Rectángulo_330921" data-name="Rectángulo 330921" width="53.286" height="66.651" transform="matrix(0.006, -1, 1, 0.006, 61.315, 166.374)" fill="#ebebeb"/>
        <path id="Trazado_641269" data-name="Trazado 641269" d="M103.96,68.467a2.128,2.128,0,0,1-.336.02l-.947.018q-1.311.007-3.641.025l-13.671.025L37.31,68.477l.388-.386c-.075,15.867-.165,34.043-.256,53.279.09.1-.809-.821-.42-.43h.128l.143,0,.29,0,.576,0,1.154.007,2.3.013c1.527.008,3.05.017,4.561.027l8.98.055,17.292.112,31.214.231-.361.358c.168-15.988.306-29.256.406-38.581.065-4.63.117-8.279.153-10.824.025-1.219.043-2.171.058-2.867.017-.654.045-1.011.045-1.011a7.807,7.807,0,0,1,.035.932c0,.681.013,1.611.025,2.8.007,2.527.018,6.148.032,10.744-.008,9.379-.02,22.726-.033,38.81l0,.36-.361,0-31.216-.123-17.29-.085-8.981-.047-4.563-.025-2.3-.013-1.154-.007-.578,0h-.29l-.145,0h-.127c.38.388-.538-.529-.443-.443.125-19.236.245-37.412.348-53.279l.005-.39.385,0,48.306.469,13.581.18,3.566.067.9.028a1.351,1.351,0,0,1,.291.023" transform="translate(24.308 45.001)" fill="#263238"/>
        <rect id="Rectángulo_330922" data-name="Rectángulo 330922" width="46.577" height="61.968" transform="translate(63.632 163.033) rotate(-89.674)" fill="#b6e1fd"/>
        <path id="Trazado_641270" data-name="Trazado 641270" d="M38.223,109.443,60.032,80.615,73.336,98.8l9.148-9.631L100.19,109.8Z" transform="translate(25.409 53.589)" fill="#2b95f9"/>
        <path id="Trazado_641271" data-name="Trazado 641271" d="M66.7,80.509A4.879,4.879,0,1,1,61.854,75.6,4.879,4.879,0,0,1,66.7,80.509" transform="translate(37.855 50.257)" fill="#2b95f9"/>
        <path id="Trazado_641274" data-name="Trazado 641274" d="M171.3,126.307a3.48,3.48,0,0,1-.9.087c-.686.022-1.537.05-2.574.082l-9.467.138-31.234.127-31.239-.127-9.467-.138c-1.037-.032-1.888-.06-2.574-.082a3.465,3.465,0,0,1-.9-.087,3.464,3.464,0,0,1,.9-.087c.686-.023,1.537-.05,2.574-.082L95.886,126l31.239-.127L158.36,126l9.467.138c1.037.032,1.888.058,2.574.082a3.479,3.479,0,0,1,.9.087" transform="translate(55.14 83.675)" fill="#455a64"/>
        <path id="Trazado_641275" data-name="Trazado 641275" d="M225.218,134.482c0,.241-31.852.435-71.133.435s-71.137-.193-71.137-.435,31.843-.433,71.137-.433,71.133.193,71.133.433" transform="translate(55.14 89.109)" fill="#455a64"/>
        <path id="Trazado_641276" data-name="Trazado 641276" d="M180.758,142.173c0,.24-21.9.433-48.9.433s-48.909-.193-48.909-.433,21.893-.433,48.909-.433,48.9.193,48.9.433" transform="translate(55.139 94.222)" fill="#455a64"/>
        <path id="Trazado_641277" data-name="Trazado 641277" d="M173.541,162.133l-4.42-4.435-4.208,4.2.02-12.69,8.628.013Zm-4.418-4.986.138.138,3.892,3.9.017-11.58-7.848-.012-.017,11.357Z" transform="translate(109.626 99.185)" fill="#263238"/>
        <path id="Trazado_641278" data-name="Trazado 641278" d="M102.566,159.471l-1.56-.694a3.949,3.949,0,1,1,1.2-.864Zm-3.646-8.449a4.035,4.035,0,1,0,.065,8.071,4.135,4.135,0,0,0,1.943-.613l.065-.037,1.15.514-.261-1.13.053-.057a4.033,4.033,0,0,0-3.015-6.749" transform="translate(62.899 100.196)" fill="#263238"/>
        <path id="Trazado_641279" data-name="Trazado 641279" d="M107.471,158.566l-1.788-4.363-3.353-3.056,8.131-.065Zm-4.382-7.128,2.855,2.62,1.523,3.717,2.555-6.393Z" transform="translate(68.024 100.432)" fill="#263238"/>
        <path id="Trazado_641280" data-name="Trazado 641280" d="M104.615,154.214l-.161-.25,4.433-2.883.163.25Z" transform="translate(69.436 100.432)" fill="#263238"/>
        <path id="Trazado_641281" data-name="Trazado 641281" d="M95.686,152.475a2.515,2.515,0,0,0-4.959.166,2.515,2.515,0,0,0-4.963-.087A3.4,3.4,0,0,0,86.381,155a10.118,10.118,0,0,0,1.781,1.868c.906.8,1.743,1.553,2.649,2.354.892-.816,1.653-1.58,2.545-2.4a10.041,10.041,0,0,0,1.75-1.9,3.39,3.39,0,0,0,.579-2.457" transform="translate(56.984 100.015)" fill="#fd4c1b"/>
        <path id="Trazado_641282" data-name="Trazado 641282" d="M271.793,196.07s-.02-.489-.03-1.418q-.01-1.418-.03-4.119c-.015-3.636-.038-8.975-.07-15.888-.037-13.829-.09-33.943-.156-59.172l.286.285c-57.893.037-144.3.09-240.6.148h-.015l.433-.433c0,28.009-.008,55.18-.013,80.6l-.42-.42,172.155.195,50.266.118,13.491.053,3.5.027c.789.008,1.205.027,1.205.027s-.381.018-1.154.027l-3.448.027-13.4.053-50.169.118-172.445.195h-.42v-.42c0-25.417-.008-52.588-.013-80.6v-.433h.448l240.6.146.286,0v.285c-.067,25.3-.12,45.473-.156,59.343-.032,6.887-.055,12.2-.07,15.823q-.02,2.667-.032,4.069c-.008.912-.028,1.362-.028,1.362" transform="translate(20.437 76.473)" fill="#263238"/>
        <rect id="Rectángulo_330925" data-name="Rectángulo 330925" width="53.286" height="66.651" transform="matrix(0.006, -1, 1, 0.006, 61.315, 258.698)" fill="#ebebeb"/>
        <path id="Trazado_641283" data-name="Trazado 641283" d="M103.96,123.925a1.9,1.9,0,0,1-.336.02l-.947.017-3.641.027-13.671.025-48.055-.078.388-.386c-.075,15.867-.165,34.043-.256,53.279.09.1-.809-.821-.42-.43h.128l.143,0,.29,0,.576,0,1.154.007,2.3.013c1.527.008,3.05.017,4.561.027l8.98.055,17.292.112,31.214.231-.361.358c.168-15.988.306-29.256.406-38.581.065-4.63.117-8.279.153-10.824.025-1.219.043-2.171.058-2.868.017-.653.045-1.009.045-1.009a7.808,7.808,0,0,1,.035.932c0,.681.013,1.61.025,2.8.007,2.527.018,6.148.032,10.744-.008,9.379-.02,22.726-.033,38.81l0,.36-.361,0-31.216-.123-17.29-.085-8.981-.047L41.6,177.29l-2.3-.013-1.154-.007-.578,0-.29,0h-.271c.38.388-.538-.528-.443-.443.125-19.236.245-37.412.348-53.279l.005-.39.385,0,48.306.469,13.581.18,3.566.067.9.028a1.352,1.352,0,0,1,.291.023" transform="translate(24.308 81.867)" fill="#263238"/>
        <rect id="Rectángulo_330926" data-name="Rectángulo 330926" width="46.577" height="61.968" transform="translate(63.632 255.356) rotate(-89.674)" fill="#b6e1fd"/>
        <path id="Trazado_641284" data-name="Trazado 641284" d="M38.223,164.9l21.808-28.828,13.3,18.189,9.148-9.631,17.706,20.623Z" transform="translate(25.409 90.455)" fill="#2b95f9"/>
        <path id="Trazado_641285" data-name="Trazado 641285" d="M66.7,135.967a4.879,4.879,0,1,1-4.851-4.906,4.879,4.879,0,0,1,4.851,4.906" transform="translate(37.855 87.123)" fill="#2b95f9"/>
        <path id="Trazado_641288" data-name="Trazado 641288" d="M129.9,183.49a3.514,3.514,0,0,1-.9.088l-2.574.08-9.467.138-31.234.127L54.487,183.8l-9.467-.138-2.574-.08a3.5,3.5,0,0,1-.9-.088,3.559,3.559,0,0,1,.9-.087c.686-.022,1.537-.05,2.574-.082l9.467-.138,31.239-.127,31.234.127,9.467.138c1.037.032,1.888.06,2.574.082a3.575,3.575,0,0,1,.9.087" transform="translate(27.62 121.688)" fill="#455a64"/>
        <path id="Trazado_641289" data-name="Trazado 641289" d="M173.541,324.148l-4.42-4.433-4.208,4.2.02-12.69,8.628.013Zm-4.418-4.986.138.138,3.892,3.9.017-11.58-7.848-.012-.017,11.357Z" transform="translate(109.626 206.885)" fill="#263238"/>
        <path id="Trazado_641290" data-name="Trazado 641290" d="M59.906,321.486l-1.56-.694a3.949,3.949,0,1,1,1.2-.864Zm-3.646-8.449a4.035,4.035,0,1,0,.065,8.071,4.135,4.135,0,0,0,1.943-.613l.065-.035,1.15.513-.261-1.13.053-.057a4.031,4.031,0,0,0-3.015-6.749" transform="translate(34.541 207.895)" fill="#263238"/>
        <path id="Trazado_641291" data-name="Trazado 641291" d="M64.81,320.581l-1.788-4.363-3.353-3.056L67.8,313.1Zm-4.382-7.128,2.855,2.62,1.523,3.717,2.555-6.394Z" transform="translate(39.665 208.131)" fill="#263238"/>
        <path id="Trazado_641292" data-name="Trazado 641292" d="M61.955,316.229l-.161-.25,4.433-2.883.163.25Z" transform="translate(41.077 208.132)" fill="#263238"/>
        <path id="Trazado_641293" data-name="Trazado 641293" d="M53.026,314.49a2.515,2.515,0,0,0-4.959.166,2.515,2.515,0,0,0-4.963-.087,3.4,3.4,0,0,0,.618,2.447,10.118,10.118,0,0,0,1.781,1.868c.906.8,1.743,1.553,2.649,2.354.892-.816,1.653-1.582,2.545-2.4a10.043,10.043,0,0,0,1.75-1.9,3.39,3.39,0,0,0,.579-2.457" transform="translate(28.626 207.715)" fill="#fd4c1b"/>
        <path id="Trazado_641294" data-name="Trazado 641294" d="M271.793,426.245s-.015-.415-.022-1.21-.012-1.984-.022-3.534c-.01-3.123-.025-7.731-.043-13.738-.023-12.02-.057-29.618-.1-51.99-.047-44.709-.113-108.49-.191-184.841l.378.378c-70.326.015-152.8.035-240.593.055h-.023l.433-.433c-.022,93.789-.043,181.488-.062,255.313l-.371-.371,174.419.19,48.861.1,12.888.043c2.92.013,4.448.042,4.448.042s-1.473.028-4.367.042c-2.913.01-7.213.023-12.817.043l-48.777.1-174.656.19H30.8v-.371c-.018-73.825-.04-161.524-.062-255.313V170.5H31.2l240.593.055h.38l0,.38c-.078,76.45-.145,140.315-.191,185.084-.043,22.336-.077,39.9-.1,51.905-.018,5.973-.033,10.556-.043,13.663q-.015,2.3-.022,3.494c-.008.781-.022,1.167-.022,1.167" transform="translate(20.437 113.338)" fill="#263238"/>
        <path id="Trazado_641295" data-name="Trazado 641295" d="M246.353,295.183c0,.24-45.528.433-101.675.433-56.167,0-101.686-.193-101.686-.433s45.519-.433,101.686-.433c56.147,0,101.675.193,101.675.433" transform="translate(28.579 195.936)" fill="#455a64"/>
        <path id="Trazado_641296" data-name="Trazado 641296" d="M153.683,304.368c0,.24-24.782.433-55.343.433s-55.348-.193-55.348-.433,24.777-.433,55.348-.433,55.343.193,55.343.433" transform="translate(28.579 202.042)" fill="#455a64"/>
        <path id="Trazado_641297" data-name="Trazado 641297" d="M153.867,283.611c0-.24,4.471-.433,9.988-.433-.867.866-.241.236-.434.429V283.1l0-.506c0-.335.005-.664.007-.992.01-.638.017-1.26.025-1.876.032-1.092.063-2.148.093-3.175a9.88,9.88,0,0,1,.308-2.925,10.105,10.105,0,0,1,.3,2.925c.03,1.027.062,2.083.093,3.175.008.616.018,1.239.025,1.876,0,.328,0,.658.007.992l0,.506v.511c-.193.195.434-.429-.431.436-5.517,0-9.988-.193-9.988-.433" transform="translate(102.284 181.891)" fill="#e0e0e0"/>
        <path id="Trazado_641298" data-name="Trazado 641298" d="M130.561,279.795c0-.24,4.343-.433,9.7-.433s9.7.193,9.7.433-4.343.433-9.7.433-9.7-.193-9.7-.433" transform="translate(86.791 185.707)" fill="#e0e0e0"/>
        <path id="Trazado_641299" data-name="Trazado 641299" d="M107.256,279.795c0-.24,4.343-.433,9.7-.433s9.7.193,9.7.433-4.342.433-9.7.433-9.7-.193-9.7-.433" transform="translate(71.299 185.707)" fill="#e0e0e0"/>
        <path id="Trazado_641300" data-name="Trazado 641300" d="M83.95,279.795c0-.24,4.343-.433,9.7-.433s9.7.193,9.7.433-4.343.433-9.7.433-9.7-.193-9.7-.433" transform="translate(55.806 185.707)" fill="#e0e0e0"/>
        <path id="Trazado_641301" data-name="Trazado 641301" d="M60.645,279.795c0-.24,4.343-.433,9.7-.433s9.7.193,9.7.433-4.343.433-9.7.433-9.7-.193-9.7-.433" transform="translate(40.314 185.707)" fill="#e0e0e0"/>
        <path id="Trazado_641302" data-name="Trazado 641302" d="M43.165,273.622c.24,0,.433,4.472.433,9.989-.866-.866-.236-.24-.43-.433h.511l.506,0,.992.007,1.876.025,3.175.093a9.986,9.986,0,0,1,2.925.306,9.994,9.994,0,0,1-2.925.306l-3.175.093-1.876.025-.992.007-.506,0h-.511c-.195-.193.43.435-.436-.433,0-5.517.193-9.989.433-9.989" transform="translate(28.406 181.891)" fill="#e0e0e0"/>
        <path id="Trazado_641303" data-name="Trazado 641303" d="M43.165,252.114c.24,0,.433,4.009.433,8.951s-.193,8.951-.433,8.951-.433-4.007-.433-8.951.193-8.951.433-8.951" transform="translate(28.406 167.594)" fill="#e0e0e0"/>
        <path id="Trazado_641304" data-name="Trazado 641304" d="M43.165,230.6c.24,0,.433,4.009.433,8.951s-.193,8.951-.433,8.951-.433-4.007-.433-8.951.193-8.951.433-8.951" transform="translate(28.406 153.295)" fill="#e0e0e0"/>
        <path id="Trazado_641305" data-name="Trazado 641305" d="M43.165,209.1c.24,0,.433,4.009.433,8.951S43.4,227,43.165,227s-.433-4.007-.433-8.951.193-8.951.433-8.951" transform="translate(28.406 138.998)" fill="#e0e0e0"/>
        <path id="Trazado_641306" data-name="Trazado 641306" d="M53.17,192.516c0,.24-4.472.433-9.989.433.866-.866.24-.236.433-.43v.511l0,.506c0,.335,0,.664-.007.992-.008.638-.017,1.26-.025,1.874-.032,1.094-.063,2.149-.093,3.176a10,10,0,0,1-.306,2.925,10,10,0,0,1-.306-2.925c-.03-1.027-.062-2.083-.093-3.176-.008-.614-.017-1.237-.025-1.874,0-.328,0-.658-.007-.992l0-.506v-.511c.193-.195-.435.43.433-.436,5.517,0,9.989.193,9.989.433" transform="translate(28.39 127.688)" fill="#e0e0e0"/>
        <path id="Trazado_641307" data-name="Trazado 641307" d="M80.044,192.516c0,.24-4.343.433-9.7.433s-9.7-.193-9.7-.433,4.343-.433,9.7-.433,9.7.193,9.7.433" transform="translate(40.314 127.688)" fill="#e0e0e0"/>
        <path id="Trazado_641308" data-name="Trazado 641308" d="M103.349,192.516c0,.24-4.343.433-9.7.433s-9.7-.193-9.7-.433,4.343-.433,9.7-.433,9.7.193,9.7.433" transform="translate(55.806 127.688)" fill="#e0e0e0"/>
        <path id="Trazado_641309" data-name="Trazado 641309" d="M126.654,192.516c0,.24-4.343.433-9.7.433s-9.7-.193-9.7-.433,4.342-.433,9.7-.433,9.7.193,9.7.433" transform="translate(71.298 127.688)" fill="#e0e0e0"/>
        <path id="Trazado_641310" data-name="Trazado 641310" d="M149.96,192.516c0,.24-4.343.433-9.7.433s-9.7-.193-9.7-.433,4.343-.433,9.7-.433,9.7.193,9.7.433" transform="translate(86.791 127.688)" fill="#e0e0e0"/>
        <path id="Trazado_641311" data-name="Trazado 641311" d="M163.855,202.521c-.24,0-.433-4.473-.433-9.989.866.866.236.24.43.433h-.511l-.506,0-.992-.007-1.876-.025-3.175-.093a9.989,9.989,0,0,1-2.925-.306,9.988,9.988,0,0,1,2.925-.306l3.175-.093,1.876-.025.992-.007.506,0h.511c.195.193-.43-.434.436.433,0,5.515-.193,9.989-.433,9.989" transform="translate(102.284 127.671)" fill="#e0e0e0"/>
        <path id="Trazado_641312" data-name="Trazado 641312" d="M160.04,227c-.24,0-.433-4.009-.433-8.951s.193-8.951.433-8.951.433,4.007.433,8.951S160.28,227,160.04,227" transform="translate(106.099 138.998)" fill="#e0e0e0"/>
        <path id="Trazado_641313" data-name="Trazado 641313" d="M160.04,248.508c-.24,0-.433-4.007-.433-8.951s.193-8.951.433-8.951.433,4.007.433,8.951-.193,8.951-.433,8.951" transform="translate(106.099 153.295)" fill="#e0e0e0"/>
        <path id="Trazado_641314" data-name="Trazado 641314" d="M160.04,270.017c-.24,0-.433-4.009-.433-8.951s.193-8.951.433-8.951.433,4.007.433,8.951-.193,8.951-.433,8.951" transform="translate(106.099 167.594)" fill="#e0e0e0"/>
        <path id="Trazado_641315" data-name="Trazado 641315" d="M100.24,333.955a4.23,4.23,0,1,1-4.167-3.613,3.918,3.918,0,0,1,4.167,3.613" transform="translate(61.075 219.596)" fill="#455a64"/>
        <path id="Trazado_641316" data-name="Trazado 641316" d="M108.024,333.99a4.23,4.23,0,1,1-4.167-3.613,3.92,3.92,0,0,1,4.167,3.613" transform="translate(66.249 219.619)" fill="#455a64"/>
        <path id="Trazado_641317" data-name="Trazado 641317" d="M115.807,334.026a4.23,4.23,0,1,1-4.167-3.612,3.918,3.918,0,0,1,4.167,3.612" transform="translate(71.423 219.643)" fill="#455a64"/>
      </g>
    </g>
    <g id="Grupo_883100" data-name="Grupo 883100">
      <g id="Grupo_883099" data-name="Grupo 883099" clip-path="url(#clip-path)">
        <path id="Trazado_641318" data-name="Trazado 641318" d="M155.384,188.033c2.174-1.225,11.007,8.1,10.553,5.232s-12.451-10.418-10.112-11.623c3.05-1.572,12.075,8.319,12.915,9.111.816.769,2.291-.13,1.485-.814-1.159-.984-13.022-11.548-10.045-13.115,1.65-.867,3.376,1.656,3.376,1.656s10.195,10.526,11.568,9.749c1.393-.789-4.333-7.125-6.453-9.156-2.094-2.006-1.76-3.6.113-3.588,1.277.008,7.949,6.106,9.987,8.152s7.5,7.736,7.643,3.22,2.391-7.919,3.811-8.494,2.97.8,2.193,2.049a13.513,13.513,0,0,0-1.227,4.437,8.659,8.659,0,0,0,.14,3.2c5.1,4.207,41.635,34.2,45.879,32.922,4.565-1.37,22.083-58.471,22.083-58.471l17.916,52.019s-12.564,37.568-35.819,37.961c-27.908.473-67.566-49.764-67.571-49.771-5.261-3.2-10.9-6.762-13.734-9.013-6.033-4.781-5.51-5.212-4.7-5.668" transform="translate(102.971 108.026)" fill="#ffbe9d"/>
        <path id="Trazado_641319" data-name="Trazado 641319" d="M308.471,343.088l8.94,7.969-1.137,1.392c-5.112,6.143-26.43,30.881-31.247,33.685-5.374,3.126,7.315-18.632,7.315-18.632l-3.666-3.456" transform="translate(188.591 228.069)" fill="#727997"/>
        <g id="Grupo_883074" data-name="Grupo 883074" transform="translate(496.652 573.363)" opacity="0.5">
          <g id="Grupo_883073" data-name="Grupo 883073">
            <g id="Grupo_883072" data-name="Grupo 883072" clip-path="url(#clip-path-5)">
              <path id="Trazado_641320" data-name="Trazado 641320" d="M300.372,357.7a10.034,10.034,0,0,1-2-6.9,9.758,9.758,0,0,1,3.067-6.383l5.922,5.5Z" transform="translate(-298.334 -344.414)" fill="#fff"/>
            </g>
          </g>
        </g>
        <g id="Grupo_883077" data-name="Grupo 883077" transform="translate(472.319 578.719)" opacity="0.5">
          <g id="Grupo_883076" data-name="Grupo 883076">
            <g id="Grupo_883075" data-name="Grupo 883075" clip-path="url(#clip-path-6)">
              <path id="Trazado_641321" data-name="Trazado 641321" d="M286.442,375.4s-4.049,8-2.277,8.177,24.25-24.007,33.233-35.544l-.5-.406-25.983,28.436s-3.27-1.848-4.468-.663" transform="translate(-283.717 -347.63)" fill="#fff"/>
            </g>
          </g>
        </g>
        <path id="Trazado_641322" data-name="Trazado 641322" d="M317.155,347.423a2.751,2.751,0,0,1-.3.4l-.909,1.1-3.413,4.005c-2.9,3.359-6.982,7.951-11.592,12.92s-8.888,9.378-12.023,12.526l-3.739,3.7c-.383.368-.722.693-1.034.989a2.7,2.7,0,0,1-.376.328,2.66,2.66,0,0,1,.326-.378c.3-.31.621-.651.987-1.035l3.659-3.779c3.088-3.19,7.33-7.623,11.941-12.589s8.712-9.529,11.663-12.845l3.5-3.931c.356-.395.671-.744.959-1.062a2.658,2.658,0,0,1,.353-.355" transform="translate(188.637 230.95)" fill="#263238"/>
        <path id="Trazado_641323" data-name="Trazado 641323" d="M290.317,365.467a7.65,7.65,0,0,0-5.2-1.047,4.671,4.671,0,0,1,5.2,1.047" transform="translate(189.531 241.99)" fill="#263238"/>
        <path id="Trazado_641324" data-name="Trazado 641324" d="M290.945,359.6a5.915,5.915,0,0,1-2.8-.519,3.052,3.052,0,0,1,1.433.087c.774.143,1.388.338,1.37.433" transform="translate(191.543 238.662)" fill="#263238"/>
        <path id="Trazado_641325" data-name="Trazado 641325" d="M291.2,357.868c.008.1-.526.223-1.192.283s-1.215.032-1.224-.065.524-.223,1.192-.283,1.215-.032,1.224.065" transform="translate(191.972 237.83)" fill="#263238"/>
        <path id="Trazado_641326" data-name="Trazado 641326" d="M290.457,356.065c.072.065-.325.619-.886,1.237s-1.075,1.064-1.147,1,.326-.618.887-1.235,1.074-1.065,1.145-1" transform="translate(191.725 236.691)" fill="#263238"/>
        <path id="Trazado_641327" data-name="Trazado 641327" d="M289.86,355.053a2.928,2.928,0,0,1-.787,1.567c-.611.771-1.3,1.192-1.353,1.115s.5-.6,1.079-1.333.971-1.392,1.062-1.348" transform="translate(191.259 236.021)" fill="#263238"/>
        <path id="Trazado_641328" data-name="Trazado 641328" d="M290.368,358.839a5.347,5.347,0,0,1-1.273,1.353,10.915,10.915,0,0,1-1.666,1.152,5.428,5.428,0,0,1-1.114.513,1.008,1.008,0,0,1-.736-.057.732.732,0,0,1-.353-.712,3.411,3.411,0,0,1,3.6-2.409,3.319,3.319,0,0,1,1.32.4c.285.161.413.29.4.306a5.274,5.274,0,0,0-1.738-.459,3.348,3.348,0,0,0-1.836.461,2.887,2.887,0,0,0-1.4,1.725c-.04.365.293.518.659.41a5.527,5.527,0,0,0,1.037-.461A12.731,12.731,0,0,0,288.94,360c.9-.681,1.387-1.2,1.428-1.16" transform="translate(189.602 238.42)" fill="#263238"/>
        <path id="Trazado_641329" data-name="Trazado 641329" d="M288.88,360.588a1.833,1.833,0,0,1-1.09-.721,3.046,3.046,0,0,1-.649-1.3,1.864,1.864,0,0,1,.36-1.778.74.74,0,0,1,1.019.165,2.043,2.043,0,0,1,.393.8,5.735,5.735,0,0,1,.226,1.408,2.7,2.7,0,0,1-.173,1.292c-.057-.007.007-.5-.075-1.274a6.4,6.4,0,0,0-.288-1.33c-.113-.454-.511-1.062-.891-.779a1.664,1.664,0,0,0-.255,1.435,3.04,3.04,0,0,0,.526,1.207,6.776,6.776,0,0,0,.9.876" transform="translate(190.83 237.086)" fill="#263238"/>
        <path id="Trazado_641330" data-name="Trazado 641330" d="M301.514,344.448c.043.048-.621.553-1.4,1.615a9.063,9.063,0,0,0-.734,9.661c.608,1.167,1.189,1.766,1.137,1.808-.015.015-.175-.12-.428-.4a7.745,7.745,0,0,1-.927-1.294,8.793,8.793,0,0,1,.754-9.929,7.636,7.636,0,0,1,1.114-1.137,1.664,1.664,0,0,1,.483-.328" transform="translate(198.08 228.971)" fill="#263238"/>
        <path id="Trazado_641331" data-name="Trazado 641331" d="M299.1,352.842a23.722,23.722,0,0,1-5.7,6.244c-.068-.075,1.3-1.38,2.868-3.1s2.745-3.2,2.827-3.141" transform="translate(195.043 234.551)" fill="#263238"/>
        <path id="Trazado_641332" data-name="Trazado 641332" d="M299.179,350.344c.1,0,.188.386.375.822s.395.774.323.844-.436-.2-.648-.709-.143-.959-.05-.957" transform="translate(198.82 232.892)" fill="#263238"/>
        <path id="Trazado_641333" data-name="Trazado 641333" d="M298.9,348.317c.1-.005.19.338.208.762s-.045.774-.142.779-.19-.338-.208-.764.045-.772.142-.777" transform="translate(198.602 231.545)" fill="#263238"/>
        <path id="Trazado_641334" data-name="Trazado 641334" d="M299.9,346.482c.058.081-.206.361-.386.774s-.221.791-.321.8-.228-.438,0-.946.661-.713.706-.631" transform="translate(198.803 230.313)" fill="#263238"/>
        <path id="Trazado_641335" data-name="Trazado 641335" d="M300.365,345.285c.09.035.085.258-.01.5s-.245.4-.335.368-.087-.258.01-.5.245-.4.335-.368" transform="translate(199.396 229.526)" fill="#263238"/>
        <path id="Trazado_641336" data-name="Trazado 641336" d="M198.845,378.275l-1.059,5.036s-25.727.534-20.138,3.553c5.013,2.707,37.931,8.1,46.012,9.286l1.818.25,2.182-12.038Z" transform="translate(117.563 251.459)" fill="#727997"/>
        <g id="Grupo_883080" data-name="Grupo 883080" transform="translate(332.589 638.977)" opacity="0.5">
          <g id="Grupo_883079" data-name="Grupo 883079">
            <g id="Grupo_883078" data-name="Grupo 883078" clip-path="url(#clip-path-7)">
              <path id="Trazado_641337" data-name="Trazado 641337" d="M199.783,390.345a10.249,10.249,0,0,1,4.951-5.422,9.962,9.962,0,0,1,7.2-.727l-1.64,8.094Z" transform="translate(-199.783 -383.827)" fill="#fff"/>
            </g>
          </g>
        </g>
        <g id="Grupo_883083" data-name="Grupo 883083" transform="translate(294.302 635.459)" opacity="0.5">
          <g id="Grupo_883082" data-name="Grupo 883082">
            <g id="Grupo_883081" data-name="Grupo 883081" clip-path="url(#clip-path-8)">
              <path id="Trazado_641338" data-name="Trazado 641338" d="M185.174,381.714s-9.128.733-8.342,2.372,33.849,8.345,48.691,10.027l.085-.656-38.631-7.495s-.132-3.836-1.8-4.248" transform="translate(-176.784 -381.714)" fill="#fff"/>
            </g>
          </g>
        </g>
        <path id="Trazado_641339" data-name="Trazado 641339" d="M226.012,392.778a2.686,2.686,0,0,1-.508-.047l-1.448-.2-5.309-.841c-4.478-.741-10.651-1.848-17.438-3.22s-12.91-2.75-17.323-3.8l-5.219-1.287L177.353,383a2.624,2.624,0,0,1-.486-.153,2.739,2.739,0,0,1,.5.083l1.428.31q2.138.477,5.244,1.175c4.427.991,10.551,2.327,17.337,3.7s12.947,2.517,17.412,3.321l5.289.954,1.435.27a2.934,2.934,0,0,1,.5.118" transform="translate(117.573 254.498)" fill="#263238"/>
        <path id="Trazado_641340" data-name="Trazado 641340" d="M183.6,386.572a7.793,7.793,0,0,0-1.86-5.091,4.77,4.77,0,0,1,1.86,5.091" transform="translate(120.81 253.587)" fill="#263238"/>
        <path id="Trazado_641341" data-name="Trazado 641341" d="M188.944,384.062c-.093.035-.4-.544-.688-1.3a3.09,3.09,0,0,1-.353-1.423c.092-.035.4.544.688,1.3a3.14,3.14,0,0,1,.353,1.423" transform="translate(124.892 253.497)" fill="#263238"/>
        <path id="Trazado_641342" data-name="Trazado 641342" d="M190.672,383.313c-.08.058-.474-.34-.882-.889s-.674-1.042-.594-1.1.474.338.882.887.674,1.042.594,1.1" transform="translate(125.759 253.482)" fill="#263238"/>
        <path id="Trazado_641343" data-name="Trazado 641343" d="M192.512,381.3a6.715,6.715,0,0,1-3.033-.579,3.49,3.49,0,0,1,1.55.113,3.53,3.53,0,0,1,1.483.466" transform="translate(125.957 253.056)" fill="#263238"/>
        <path id="Trazado_641344" data-name="Trazado 641344" d="M193.231,380.144a4.342,4.342,0,0,1-3.479-.438,9.5,9.5,0,0,1,1.738.231,9.4,9.4,0,0,1,1.741.206" transform="translate(126.137 252.394)" fill="#263238"/>
        <path id="Trazado_641345" data-name="Trazado 641345" d="M190.286,382.7a5.479,5.479,0,0,1-1.858-.39,10.991,10.991,0,0,1-1.893-.839,5.523,5.523,0,0,1-1.039-.7,1.029,1.029,0,0,1-.345-.672.747.747,0,0,1,.433-.686,3.483,3.483,0,0,1,4.019,1.855,3.4,3.4,0,0,1,.355,1.363,1.046,1.046,0,0,1-.053.513,5.441,5.441,0,0,0-.526-1.76,3.432,3.432,0,0,0-1.38-1.355,2.942,2.942,0,0,0-2.247-.3c-.341.158-.3.529-.007.792a5.621,5.621,0,0,0,.956.658,13.1,13.1,0,0,0,1.815.889c1.074.423,1.783.569,1.771.626" transform="translate(123.079 252.132)" fill="#263238"/>
        <path id="Trazado_641346" data-name="Trazado 641346" d="M187.97,382.64a1.878,1.878,0,0,1,.048-1.335,3.119,3.119,0,0,1,.782-1.257,1.909,1.909,0,0,1,1.743-.634.754.754,0,0,1,.4.976,2.071,2.071,0,0,1-.484.767,5.761,5.761,0,0,1-1.107.947,2.762,2.762,0,0,1-1.217.538c-.025-.052.438-.26,1.07-.744a6.615,6.615,0,0,0,1.005-.959c.335-.341.653-1.012.2-1.19-.456-.14-1.026.226-1.385.541a3.135,3.135,0,0,0-.772,1.1,6.874,6.874,0,0,0-.285,1.249" transform="translate(124.895 252.187)" fill="#263238"/>
        <path id="Trazado_641347" data-name="Trazado 641347" d="M211.766,384.254c-.02.063-.814-.246-2.154-.358a9.257,9.257,0,0,0-8.81,4.506c-.694,1.152-.906,1.978-.971,1.956a1.763,1.763,0,0,1,.118-.584,7.9,7.9,0,0,1,.633-1.5,8.981,8.981,0,0,1,9.056-4.633,7.782,7.782,0,0,1,1.585.365,1.7,1.7,0,0,1,.543.246" transform="translate(132.835 254.98)" fill="#263238"/>
        <path id="Trazado_641348" data-name="Trazado 641348" d="M201.324,386.261a24.261,24.261,0,0,1-8.479-1.636c.03-.1,1.9.4,4.233.847s4.253.686,4.245.789" transform="translate(128.194 255.671)" fill="#263238"/>
        <path id="Trazado_641349" data-name="Trazado 641349" d="M201.8,386.3c.057.085-.236.37-.518.764s-.464.758-.563.731-.057-.488.273-.941.759-.638.807-.554" transform="translate(133.397 256.779)" fill="#263238"/>
        <path id="Trazado_641350" data-name="Trazado 641350" d="M203.484,384.961c.053.082-.195.346-.556.589s-.7.373-.754.29.193-.345.556-.588.7-.373.754-.291" transform="translate(134.391 255.888)" fill="#263238"/>
        <path id="Trazado_641351" data-name="Trazado 641351" d="M205.647,384.71c-.04.093-.425.012-.881.077s-.807.228-.871.146.261-.433.826-.5.974.2.926.28" transform="translate(135.534 255.543)" fill="#263238"/>
        <path id="Trazado_641352" data-name="Trazado 641352" d="M206.7,384.56c.017.1-.18.213-.439.256s-.483,0-.5-.1.18-.211.439-.256.483,0,.5.1" transform="translate(136.779 255.561)" fill="#263238"/>
        <path id="Trazado_641353" data-name="Trazado 641353" d="M276.867,236.069c-1.593,2.229-14.159,95.417-14.159,95.417l84.485,82.742-19.8,20.958S228,351.413,225.972,341.819c-2.422-11.462,4.338-98.971,4.338-98.971Z" transform="translate(149.867 156.928)" fill="#eb996e"/>
        <path id="Trazado_641354" data-name="Trazado 641354" d="M262.747,281.832H244.4L268.2,244.105Z" transform="translate(162.464 162.27)" fill="#617a0b"/>
        <path id="Trazado_641355" data-name="Trazado 641355" d="M244.692,360.3c-5.589,27.012-26.075,140.3-26.075,140.3l-28.382-5.051L203.518,352.51a47.643,47.643,0,0,1,2.279-11.082L238.529,243.3l61.594-39.152c.611.032,9.972,25.284,8.624,42.821a44.848,44.848,0,0,1-7.859,21.835c-3.917,5.717-9.369,13.684-10.586,15.526-1.949,2.943-45.609,75.969-45.609,75.969" transform="translate(126.459 135.707)" fill="#ffbe9d"/>
        <path id="Trazado_641356" data-name="Trazado 641356" d="M293.425,204.147s13.263,36.911,6.023,56.2-28.436,52.35-28.436,52.35l-66.525-29.947,31.679-56.62V215.367Z" transform="translate(135.933 135.707)" fill="#617a0b"/>
        <path id="Trazado_641357" data-name="Trazado 641357" d="M241.342,309.014a5.4,5.4,0,0,0,.648-.919c.438-.7,1.006-1.6,1.708-2.724,1.463-2.377,3.544-5.842,6-10.19,4.868-8.69,11.394-21,15.659-35.714a100.11,100.11,0,0,0,3.7-21.2,78.2,78.2,0,0,0-.837-17.552,62.874,62.874,0,0,0-2.967-11.467c-.443-1.327-.931-2.3-1.2-2.987a5.405,5.405,0,0,0-.489-1.01,5.579,5.579,0,0,0,.328,1.075c.22.7.654,1.695,1.045,3.032a69.738,69.738,0,0,1,2.68,11.452,80.6,80.6,0,0,1,.646,17.4,102.284,102.284,0,0,1-3.734,21.011c-4.232,14.6-10.638,26.9-15.362,35.654-2.382,4.38-4.38,7.888-5.753,10.316-.646,1.155-1.167,2.088-1.568,2.807a5.561,5.561,0,0,0-.5,1.007" transform="translate(160.431 136.444)" fill="#263238"/>
        <path id="Trazado_641358" data-name="Trazado 641358" d="M230.664,300.439a4.571,4.571,0,0,0,.623-.831l1.641-2.47c1.408-2.158,3.423-5.3,5.84-9.219,4.8-7.849,11.357-18.855,16.5-32s7.245-25.97,7.143-35.213a67.531,67.531,0,0,0-.837-10.9c-.175-1.279-.431-2.252-.559-2.918a4.744,4.744,0,0,0-.266-1,4.616,4.616,0,0,0,.093,1.034c.073.674.275,1.653.4,2.933A77.423,77.423,0,0,1,261.8,220.7c-.057,9.171-2.219,21.845-7.338,34.9s-11.56,24.079-16.218,32l-5.6,9.356c-.614,1.047-1.112,1.895-1.5,2.559a4.631,4.631,0,0,0-.474.922" transform="translate(153.333 136.86)" fill="#263238"/>
        <path id="Trazado_641359" data-name="Trazado 641359" d="M219.276,289.595a3.571,3.571,0,0,0,.6-.683c.425-.548.949-1.227,1.592-2.058,1.38-1.788,3.266-4.46,5.489-7.834s4.716-7.495,7.292-12.179c2.534-4.7,5.137-9.98,7.561-15.654,2.4-5.69,4.378-11.229,6-16.323,1.577-5.107,2.818-9.762,3.686-13.709s1.492-7.157,1.816-9.391c.151-1.039.275-1.889.375-2.574a3.6,3.6,0,0,0,.072-.906,3.553,3.553,0,0,0-.245.877l-.533,2.542c-.426,2.212-1.127,5.4-2.083,9.311s-2.237,8.535-3.851,13.608c-1.655,5.058-3.652,10.563-6.035,16.225-2.414,5.648-4.983,10.909-7.466,15.615-2.527,4.685-4.944,8.827-7.105,12.226s-3.952,6.125-5.247,7.969l-1.457,2.151a3.608,3.608,0,0,0-.461.786" transform="translate(145.763 138.458)" fill="#263238"/>
        <path id="Trazado_641360" data-name="Trazado 641360" d="M210.82,282.9a25.822,25.822,0,0,0,1.44-2.812c.894-1.823,2.261-4.422,4.082-7.56,3.573-6.319,9.371-14.525,15.034-24.1a97.247,97.247,0,0,0,6.86-14.112,58.418,58.418,0,0,0,3.31-12.387,41.264,41.264,0,0,0,.4-8.633c-.032-1.019-.183-1.8-.238-2.336a2.884,2.884,0,0,0-.156-.806c-.077.008.018,1.13.057,3.155a46.826,46.826,0,0,1-.669,8.525,61.208,61.208,0,0,1-3.449,12.2,102.175,102.175,0,0,1-6.864,13.962c-5.63,9.522-11.365,17.81-14.82,24.235-1.76,3.191-3.051,5.847-3.854,7.72-.419.929-.688,1.675-.886,2.172a2.974,2.974,0,0,0-.248.782" transform="translate(140.14 139.696)" fill="#263238"/>
        <path id="Trazado_641361" data-name="Trazado 641361" d="M232.393,222.483,207.505,206.3s13.38-50.607,33.826-52.237l.909,18.49Z" transform="translate(137.94 102.412)" fill="#263238"/>
        <path id="Trazado_641362" data-name="Trazado 641362" d="M271.7,150.148s31.857-3.439,23.337,42.1l-8.186,47.91L229.6,251.38s-10.543-48.9-12.486-57.832c-3.8-17.473,3.2-25.825,3.2-25.825,3.448-5.842,8.733-9.313,15.389-11.022Z" transform="translate(143.574 99.772)" fill="#ffb338"/>
        <path id="Trazado_641363" data-name="Trazado 641363" d="M226.049,167.182a14.84,14.84,0,0,1-.035,6.7,27.294,27.294,0,0,1-2.8,6.777,58.034,58.034,0,0,0-4.069,8.222,26.136,26.136,0,0,0-.2,16.529,23.067,23.067,0,0,0,2.049,4.628,6.526,6.526,0,0,0,1.067,1.517,48.818,48.818,0,0,1-2.53-6.321,26.82,26.82,0,0,1,.436-16.063,63.794,63.794,0,0,1,3.957-8.137,26.034,26.034,0,0,0,2.69-7.022,12.609,12.609,0,0,0,.062-5.081,4.564,4.564,0,0,0-.626-1.753" transform="translate(144.718 111.135)" fill="#455a64"/>
        <path id="Trazado_641364" data-name="Trazado 641364" d="M232.48,189.486c-.082.225,3.423,1.688,7.824,3.266s8.036,2.674,8.117,2.449-3.423-1.688-7.824-3.266-8.037-2.674-8.117-2.449" transform="translate(154.541 125.942)" fill="#455a64"/>
        <path id="Trazado_641365" data-name="Trazado 641365" d="M235.507,111.574a18.4,18.4,0,0,0-1.924,10.333c.251,2.316.891,4.874-.4,6.816-1.566,2.356-5.239,2.554-6.774,4.931-2.216,3.429,1.688,8.259-.093,11.933-1.179,2.432-4.253,3.153-6.348,4.863a8.573,8.573,0,0,0-1.953,10.277c1.517,2.945,4.492,4.8,7.327,6.508l6.494,3.914a6.033,6.033,0,0,0,3.777,1.237c2.389-.333,3.5-3.243,5.657-4.318,2.67-1.333,5.773.521,8.752.711a7.8,7.8,0,0,0,8.275-8.289" transform="translate(144.319 74.169)" fill="#12263f"/>
        <path id="Trazado_641366" data-name="Trazado 641366" d="M236.134,181.181c.713-7.48,1.327-15.366,1.327-15.366s-9.476-2.547-10.233-15.311c-.724-12.171,3.974-39.653,3.974-39.653a36.289,36.289,0,0,1,39.265,13.158l-6.791,60.649c-.789,7.04-7.47,11.97-15,11.069-7.606-.911-13.218-7.421-12.539-14.547" transform="translate(151 72.717)" fill="#ffbe9d"/>
        <path id="Trazado_641367" data-name="Trazado 641367" d="M228.986,123.814a1.622,1.622,0,0,0,1.4,1.78,1.549,1.549,0,0,0,1.8-1.29,1.619,1.619,0,0,0-1.392-1.78,1.55,1.55,0,0,0-1.806,1.29" transform="translate(152.21 81.435)" fill="#263238"/>
        <path id="Trazado_641368" data-name="Trazado 641368" d="M228.993,122.786c.18.23,1.488-.554,3.223-.378,1.735.15,2.92,1.167,3.128.974.1-.085-.065-.484-.579-.942a4.428,4.428,0,0,0-2.479-1.04,4.265,4.265,0,0,0-2.59.564c-.574.356-.791.719-.7.822" transform="translate(152.211 80.688)" fill="#263238"/>
        <path id="Trazado_641369" data-name="Trazado 641369" d="M239.819,125.22a1.622,1.622,0,0,0,1.393,1.78,1.55,1.55,0,0,0,1.8-1.29,1.621,1.621,0,0,0-1.392-1.78,1.55,1.55,0,0,0-1.806,1.29" transform="translate(159.412 82.37)" fill="#263238"/>
        <path id="Trazado_641370" data-name="Trazado 641370" d="M239.826,124.235c.18.23,1.49-.553,3.223-.378,1.735.15,2.92,1.167,3.13.974.1-.085-.063-.484-.581-.942a4.44,4.44,0,0,0-2.477-1.04,4.268,4.268,0,0,0-2.592.564c-.573.356-.791.719-.7.822" transform="translate(159.412 81.651)" fill="#263238"/>
        <path id="Trazado_641371" data-name="Trazado 641371" d="M237,136.766a11.613,11.613,0,0,0-2.767-.786c-.438-.088-.851-.218-.9-.528a2.26,2.26,0,0,1,.426-1.284q.782-1.546,1.64-3.243c2.292-4.623,4-8.44,3.811-8.532s-2.2,3.583-4.488,8.206q-.832,1.711-1.586,3.268a2.578,2.578,0,0,0-.4,1.716,1.121,1.121,0,0,0,.664.719,3.1,3.1,0,0,0,.742.178,11.3,11.3,0,0,0,2.857.285" transform="translate(154.682 81.361)" fill="#263238"/>
        <path id="Trazado_641372" data-name="Trazado 641372" d="M233.393,144.415a32.127,32.127,0,0,0,17.272-2.833s-4.933,8.231-17.395,5.817Z" transform="translate(155.067 94.117)" fill="#eb996e"/>
        <path id="Trazado_641373" data-name="Trazado 641373" d="M235.554,133.961a3.132,3.132,0,0,1,2.915-.884,2.856,2.856,0,0,1,1.866,1.25,1.816,1.816,0,0,1-.065,2.081,2.108,2.108,0,0,1-2.331.35,6.588,6.588,0,0,1-2.086-1.54,1.954,1.954,0,0,1-.446-.563.584.584,0,0,1,.067-.644" transform="translate(156.445 88.418)" fill="#e8505b"/>
        <path id="Trazado_641374" data-name="Trazado 641374" d="M240.66,132.05c-.28-.043-.469,1.838-2.212,3.015s-3.726.774-3.767,1.035c-.037.117.413.41,1.257.516a4.707,4.707,0,0,0,3.133-.757,4.1,4.1,0,0,0,1.735-2.54c.15-.779-.015-1.267-.145-1.269" transform="translate(156.003 87.78)" fill="#263238"/>
        <path id="Trazado_641375" data-name="Trazado 641375" d="M231.8,110.387a9.178,9.178,0,0,0,3.071,10.561c3.231,2.317,7.525,2.221,11.442,2.9s8.286,3.025,8.552,6.992c.161,2.406-1.279,4.889-.411,7.138,1.016,2.629,4.6,3.4,5.873,5.918,2.036,4.044-3.278,8.479-2.525,12.942.446,2.649,2.943,4.57,3.489,7.2.777,3.741-2.485,8.167-.07,11.127,1.855,2.269,5.5,1.512,8.094.143s5.375-3.206,8.205-2.446c1.7.458,3.015,1.786,4.576,2.6a8.15,8.15,0,0,0,11.573-9.609c-.693-2.259-2.314-4.09-3.671-6.023s-2.522-4.25-2.091-6.572c.33-1.783,1.538-3.25,2.452-4.813s1.543-3.563.666-5.147c-1.537-2.78-6.165-2.013-8.149-4.495-2.729-3.409,2.126-8.677.291-12.642-2.076-4.487-10.253-2.737-12.342-7.218-.761-1.635-.375-3.564-.752-5.327-.862-4.025-5.42-6.155-9.529-6.408s-8.254.739-12.326.135c-2.229-.331-4.362-1.134-6.569-1.6a10.149,10.149,0,0,0-6.619.448c-2.016,1.012-3.459,3.4-2.793,5.557" transform="translate(153.688 70.076)" fill="#12263f"/>
        <path id="Trazado_641376" data-name="Trazado 641376" d="M237.479,118.14a15.4,15.4,0,0,1-10.37,8.733,37.443,37.443,0,0,1,.057-9.318,14.729,14.729,0,0,1,4-8.266,9.256,9.256,0,0,1,8.572-2.522" transform="translate(150.796 70.804)" fill="#12263f"/>
        <g id="Grupo_883086" data-name="Grupo 883086" transform="translate(385.572 181.841)" opacity="0.3">
          <g id="Grupo_883085" data-name="Grupo 883085">
            <g id="Grupo_883084" data-name="Grupo 883084" clip-path="url(#clip-path-9)">
              <path id="Trazado_641377" data-name="Trazado 641377" d="M285.279,172.468a2.169,2.169,0,0,0,.631-.746,2.923,2.923,0,0,0-.231-2.7,3.885,3.885,0,0,0-1.473-1.367,12.424,12.424,0,0,0-2.257-.934,12.957,12.957,0,0,1-2.635-1.084,4,4,0,0,1-2.011-2.467,5.08,5.08,0,0,1,.669-3.446c.543-1.1,1.275-2.148,1.751-3.343a8.8,8.8,0,0,0-.864-7.861,8.162,8.162,0,0,0-3.208-2.972c-1.36-.674-2.9-1.032-4.395-1.686a6.429,6.429,0,0,1-2.063-1.37,4.236,4.236,0,0,1-1.13-2.261c-.276-1.718.255-3.386.453-5.044a9.373,9.373,0,0,0-.641-4.838,12.5,12.5,0,0,0-2.657-3.984,18.5,18.5,0,0,0-7.873-4.482,68.531,68.531,0,0,0-8.137-1.808,53.182,53.182,0,0,1-7.1-1.673,20.546,20.546,0,0,1-5.417-2.627,14.757,14.757,0,0,1-3.308-3.12,10.6,10.6,0,0,1-1.443-2.484,7.259,7.259,0,0,1-.328-.947c.02-.007.127.323.395.919a11.132,11.132,0,0,0,1.488,2.426,17.579,17.579,0,0,0,8.692,5.59,53.886,53.886,0,0,0,7.079,1.621,67.494,67.494,0,0,1,8.182,1.785,18.812,18.812,0,0,1,8.027,4.551,12.877,12.877,0,0,1,2.735,4.1,9.709,9.709,0,0,1,.668,5.021c-.208,1.693-.719,3.339-.458,4.933a3.909,3.909,0,0,0,1.034,2.079,6.1,6.1,0,0,0,1.949,1.29c1.445.641,2.995,1,4.4,1.7a8.528,8.528,0,0,1,3.338,3.1A9.094,9.094,0,0,1,280,156.5c-.5,1.24-1.242,2.281-1.78,3.358a4.849,4.849,0,0,0-.671,3.261,3.778,3.778,0,0,0,1.881,2.329,12.919,12.919,0,0,0,2.582,1.09,12.1,12.1,0,0,1,2.279.976,4.013,4.013,0,0,1,1.51,1.443,2.985,2.985,0,0,1,.173,2.8,1.554,1.554,0,0,1-.7.713" transform="translate(-231.609 -109.231)" fill="#fff"/>
            </g>
          </g>
        </g>
        <g id="Grupo_883089" data-name="Grupo 883089" transform="translate(386.264 179.156)" opacity="0.3">
          <g id="Grupo_883088" data-name="Grupo 883088">
            <g id="Grupo_883087" data-name="Grupo 883087" clip-path="url(#clip-path-10)">
              <path id="Trazado_641378" data-name="Trazado 641378" d="M282.023,134.654a.5.5,0,0,1-.155.045l-.463.092c-.408.073-1.009.181-1.8.255a9.721,9.721,0,0,1-2.877-.11,5.74,5.74,0,0,1-3.253-1.956,11.093,11.093,0,0,1-2.053-4.137,48.765,48.765,0,0,0-1.5-5.034,11.855,11.855,0,0,0-3.449-4.525,18.178,18.178,0,0,0-5.4-2.967c-4.035-1.405-8.169-1.582-11.856-1.924-1.851-.161-3.614-.341-5.251-.621a28.1,28.1,0,0,1-4.475-1.12,16.984,16.984,0,0,1-5.813-3.235,10.082,10.082,0,0,1-1.655-1.8s.045.033.12.11l.32.345a13.7,13.7,0,0,0,1.307,1.237,17.431,17.431,0,0,0,5.8,3.1,28.476,28.476,0,0,0,4.443,1.067c1.625.265,3.379.433,5.229.584,3.684.326,7.841.488,11.948,1.916a18.4,18.4,0,0,1,5.51,3.035,12.124,12.124,0,0,1,3.531,4.668,47.559,47.559,0,0,1,1.48,5.079,10.916,10.916,0,0,0,1.961,4.057,5.539,5.539,0,0,0,3.1,1.923,9.853,9.853,0,0,0,2.822.168c.781-.052,1.385-.137,1.795-.186a4.188,4.188,0,0,1,.629-.065" transform="translate(-232.026 -107.617)" fill="#fff"/>
            </g>
          </g>
        </g>
        <g id="Grupo_883092" data-name="Grupo 883092" transform="translate(365.693 222.942)" opacity="0.3">
          <g id="Grupo_883091" data-name="Grupo 883091">
            <g id="Grupo_883090" data-name="Grupo 883090" clip-path="url(#clip-path-11)">
              <path id="Trazado_641379" data-name="Trazado 641379" d="M223.955,150.75c-.005.012-.09-.018-.248-.085a4.724,4.724,0,0,1-.666-.348,6.828,6.828,0,0,1-2-1.9,7.385,7.385,0,0,1-1.362-3.859,7.042,7.042,0,0,1,1.588-4.73,7.352,7.352,0,0,1,4.258-2.614,24.412,24.412,0,0,0,3.99-.566,3.079,3.079,0,0,0,1.868-1.76,2.664,2.664,0,0,0,.1-.971c.012,0,.043.082.082.251a1.836,1.836,0,0,1-.045.761,3.162,3.162,0,0,1-1.911,1.958,21.929,21.929,0,0,1-4.019.654,7.108,7.108,0,0,0-4.039,2.514,6.8,6.8,0,0,0-1.538,4.487,7.429,7.429,0,0,0,3.108,5.657c.521.371.852.514.836.549" transform="translate(-219.668 -133.919)" fill="#fff"/>
            </g>
          </g>
        </g>
        <path id="Trazado_641380" data-name="Trazado 641380" d="M252.32,115.622a11.315,11.315,0,0,1,7.2-12.617,6.886,6.886,0,0,1,5.858.38A6.592,6.592,0,0,1,268,107.292a9.677,9.677,0,0,1-12.146,11.765c-1.8-.543-3.549-1.79-3.97-3.619" transform="translate(167.437 68.161)" fill="#12263f"/>
        <path id="Trazado_641381" data-name="Trazado 641381" d="M251.866,108.205c-.226-.037-.37,2.058,1.057,4.055,1.407,2.014,3.426,2.58,3.468,2.354.108-.231-1.527-1.069-2.758-2.853-1.27-1.76-1.513-3.579-1.766-3.556" transform="translate(167.333 71.929)" fill="#455a64"/>
        <rect id="Rectángulo_330937" data-name="Rectángulo 330937" width="180.741" height="144.497" transform="translate(193.407 321.263) rotate(-14.733)" fill="#f5f5f5"/>
        <path id="Trazado_641382" data-name="Trazado 641382" d="M116.177,211.524s.295-.062.849-.2l2.454-.623,9.5-2.451,35.8-9.308c30.711-8.029,74.378-19.441,126.29-33.01l-.474-.276c10.924,41.6,23.448,89.282,36.7,139.743l0,.015.308-.529L152.835,350.922l.439.256c-11.146-42.073-20.382-76.948-26.839-101.328-3.248-12.193-5.795-21.757-7.536-28.3-.876-3.253-1.545-5.75-2-7.456-.458-1.688-.718-2.574-.718-2.574s.2.847.621,2.52l1.908,7.41c1.695,6.532,4.174,16.085,7.335,28.264,6.384,24.455,15.519,59.438,26.536,101.643l.092.35.35-.092c49.948-13.113,110.1-28.905,174.816-45.9l.42-.11-.11-.419,0-.015c-13.283-50.452-25.837-98.131-36.788-139.719l-.1-.376-.375.1-126.435,33.45-35.666,9.486-9.4,2.519-2.4.656c-.536.148-.794.231-.794.231" transform="translate(77.229 109.74)" fill="#263238"/>
        <rect id="Rectángulo_330938" data-name="Rectángulo 330938" width="168.043" height="126.304" transform="translate(201.974 328.416) rotate(-14.733)" fill="#b6e1fd"/>
        <g id="Grupo_883095" data-name="Grupo 883095" transform="translate(234.096 346.83)" opacity="0.2">
          <g id="Grupo_883094" data-name="Grupo 883094">
            <g id="Grupo_883093" data-name="Grupo 883093" clip-path="url(#clip-path-12)">
              <path id="Trazado_641383" data-name="Trazado 641383" d="M303.137,269.338l-76.73-61-22.669,56.751-30.527-19.125-32.593,66.111Z" transform="translate(-140.619 -208.337)"/>
            </g>
          </g>
        </g>
        <g id="Grupo_883098" data-name="Grupo 883098" transform="translate(266.911 334.101)" opacity="0.2">
          <g id="Grupo_883097" data-name="Grupo 883097">
            <g id="Grupo_883096" data-name="Grupo 883096" clip-path="url(#clip-path-13)">
              <path id="Trazado_641384" data-name="Trazado 641384" d="M160.769,217.29a13.231,13.231,0,1,0,9.431-16.161,13.23,13.23,0,0,0-9.431,16.161" transform="translate(-160.331 -200.691)"/>
            </g>
          </g>
        </g>
        <path id="Trazado_641385" data-name="Trazado 641385" d="M295.031,222.484c-15.757,16.183-38.892,26.163-47.221,29.408-1.277-.173-2.772-.415-4.518-.781a13.45,13.45,0,0,1-4.235-1.693,20.512,20.512,0,0,1-4.528-3.439c-1.1-1.36-3.286-.674-3.21.916s3.025,5.414,8.082,7.909-3.594,4.471-6.734,5.247-12.744,3.636-13.27,4.789c-.772,1.693.9,2.832,4.019,1.984,3.155-.861,12.647-2.735,12.977-1.057.326,1.653-15.714,5.387-15.714,5.387s-3.559.245-3.241,2.2c.571,3.521,17.33-1.7,18.913-2.241,1.1-.373,1.523,1.437.321,1.775-1.239.348-16.087,3.353-15.539,6.944.42,2.753,13.826-4.17,17.252-3.083s-10.7,4.218-10.19,6.834c.19.972.466,1.673,8.319-1.3a168.79,168.79,0,0,0,16.3-8.029l.03.08s82.875-24.485,73.692-61.384c-9.744-39.155-11.69-42.738-11.69-42.738L284.165,177.2s13.711,42.363,10.866,45.285" transform="translate(144.529 113.149)" fill="#ffbe9d"/>
        <path id="Trazado_641386" data-name="Trazado 641386" d="M297.451,193.448s-13.135-42.536-47.048-42.994v5.186l13.924,48.251Z" transform="translate(166.456 100.015)" fill="#ffb338"/>
        <path id="Trazado_641387" data-name="Trazado 641387" d="M254.623,170.212a6.016,6.016,0,0,0,.256,1.628c.23,1.039.611,2.54,1.154,4.4,1.079,3.722,2.819,8.875,5.108,14.671l.145.371.38-.126,6.066-2.028c7.353-2.474,13.994-4.76,18.788-6.454l5.662-2.051a10.685,10.685,0,0,0,2.039-.864,10.852,10.852,0,0,0-2.146.544c-1.522.473-3.448,1.074-5.748,1.788-4.843,1.547-11.515,3.739-18.868,6.213l-6.058,2.051.524.243c-2.322-5.76-4.159-10.856-5.374-14.52q-.829-2.575-1.388-4.315a8.242,8.242,0,0,0-.539-1.553" transform="translate(169.252 113.149)" fill="#455a64"/>
        <path id="Trazado_641388" data-name="Trazado 641388" d="M253.09,172.107a25.888,25.888,0,0,0-.08-3.806,21.107,21.107,0,0,1,1.4-8.828,11.4,11.4,0,0,1,6.176-6.053,14.785,14.785,0,0,1,3.657-.641c.008-.048-.343-.176-1.012-.251a7.268,7.268,0,0,0-2.842.311,11.3,11.3,0,0,0-6.774,6.288,19.081,19.081,0,0,0-1.215,9.208,12.384,12.384,0,0,0,.689,3.772" transform="translate(167.715 101.37)" fill="#455a64"/>
      </g>
    </g>
  </g>
</svg>
