<svg xmlns="http://www.w3.org/2000/svg" xmlns:xlink="http://www.w3.org/1999/xlink" width="228" height="89.256" viewBox="0 0 228 89.256">
  <defs>
    <filter id="Trazado_646263" x="0" y="30" width="228" height="59" filterUnits="userSpaceOnUse">
      <feOffset dy="3" input="SourceAlpha"/>
      <feGaussianBlur stdDeviation="3" result="blur"/>
      <feFlood flood-opacity="0.161"/>
      <feComposite operator="in" in2="blur"/>
      <feComposite in="SourceGraphic"/>
    </filter>
    <filter id="Trazado_502571" x="0" y="0" width="89.256" height="89.256" filterUnits="userSpaceOnUse">
      <feOffset dy="3" input="SourceAlpha"/>
      <feGaussianBlur stdDeviation="3" result="blur-2"/>
      <feFlood flood-opacity="0.161"/>
      <feComposite operator="in" in2="blur-2"/>
      <feComposite in="SourceGraphic"/>
    </filter>
  </defs>
  <g id="Grupo_1034555" data-name="Grupo 1034555" transform="translate(-5010.626 5590.128)">
    <g transform="matrix(1, 0, 0, 1, 5010.63, -5590.13)" filter="url(#Trazado_646263)">
      <path id="Trazado_646263-2" data-name="Trazado 646263" d="M0,0H200a10,10,0,0,1,10,10V41H0Z" transform="translate(9 36)" fill="#fff"/>
    </g>
    <g id="Grupo_734095" data-name="Grupo 734095" transform="translate(3809.566 -10941.228)">
      <g id="Grupo_734091" data-name="Grupo 734091" transform="translate(1029.935 -2175.645)">
        <text id="Imagen_" data-name="Imagen
" transform="translate(289.065 7569.643)" fill="#12263f" font-size="20" font-family="Roboto-Black, Roboto" font-weight="800"><tspan x="0" y="19">Imagen</tspan></text>
        <path id="Trazado_194609" data-name="Trazado 194609" d="M0,0,85,40H0Z" transform="translate(180.125 7563.643)" fill="#ffb338"/>
        <g id="tarea-completada" transform="translate(180.125 7532.744)">
          <path id="Trazado_203286" data-name="Trazado 203286" d="M0,20.438ZM4.438,16" transform="translate(13.875 -13.525)" fill="#ffc846"/>
          <g transform="matrix(1, 0, 0, 1, -9, -6)" filter="url(#Trazado_502571)">
            <path id="Trazado_502571-2" data-name="Trazado 502571" d="M295.256,259.628A35.628,35.628,0,1,1,259.628,224,35.629,35.629,0,0,1,295.256,259.628Zm0,0" transform="translate(-215 -218)" fill="#cee4c6"/>
          </g>
          <g id="Grupo_883131" data-name="Grupo 883131" transform="translate(9.875 8.641)">
            <g id="Grupo_883128" data-name="Grupo 883128" transform="translate(4 7.5)">
              <path id="Trazado_641410" data-name="Trazado 641410" d="M43.114,46.219H9.136A5.142,5.142,0,0,1,4,41.083V12.636A5.142,5.142,0,0,1,9.136,7.5H43.114a5.142,5.142,0,0,1,5.136,5.136V41.083A5.142,5.142,0,0,1,43.114,46.219ZM9.136,9.871a2.769,2.769,0,0,0-2.766,2.766V41.083a2.769,2.769,0,0,0,2.766,2.766H43.114a2.769,2.769,0,0,0,2.766-2.766V12.636a2.769,2.769,0,0,0-2.766-2.766Z" transform="translate(-4 -7.5)"/>
            </g>
            <g id="Grupo_883129" data-name="Grupo 883129" transform="translate(9.44 21.095)">
              <path id="Trazado_641411" data-name="Trazado 641411" d="M39.906,44.3H13.652a2.765,2.765,0,0,1-2.239-4.388L21.832,25.521a1.976,1.976,0,0,1,3.2,0l5.535,7.642,1.747-2.412a1.974,1.974,0,0,1,3.2,0l6.632,9.157a2.766,2.766,0,0,1-2.24,4.388ZM23.431,27.354,13.332,41.3a.394.394,0,0,0,.32.626H39.906a.395.395,0,0,0,.32-.627l-6.314-8.717L32.164,35a1.973,1.973,0,0,1-3.2,0Z" transform="translate(-10.884 -24.705)"/>
            </g>
            <g id="Grupo_883130" data-name="Grupo 883130" transform="translate(31.656 12.241)">
              <path id="Trazado_641412" data-name="Trazado 641412" d="M44.926,25.353a5.926,5.926,0,1,1,5.926-5.926A5.933,5.933,0,0,1,44.926,25.353Zm0-9.482a3.556,3.556,0,1,0,3.556,3.556A3.56,3.56,0,0,0,44.926,15.871Z" transform="translate(-39 -13.5)"/>
            </g>
          </g>
        </g>
      </g>
    </g>
  </g>
</svg>
