<svg xmlns="http://www.w3.org/2000/svg" xmlns:xlink="http://www.w3.org/1999/xlink" width="150" height="150" viewBox="0 0 150 150">
  <defs>
    <filter id="Elipse_6967" x="0" y="0" width="150" height="150" filterUnits="userSpaceOnUse">
      <feOffset dy="3" input="SourceAlpha"/>
      <feGaussianBlur stdDeviation="3" result="blur"/>
      <feFlood flood-opacity="0.161"/>
      <feComposite operator="in" in2="blur"/>
      <feComposite in="SourceGraphic"/>
    </filter>
  </defs>
  <g id="Grupo_1034480" data-name="Grupo 1034480" transform="translate(-378.248 -9167.254)">
    <g transform="matrix(1, 0, 0, 1, 378.25, 9167.25)" filter="url(#Elipse_6967)">
      <circle id="Elipse_6967-2" data-name="Elipse 6967" cx="66" cy="66" r="66" transform="translate(9 6)" fill="#b6e1fd"/>
    </g>
    <g id="Grupo_883290" data-name="Grupo 883290" transform="translate(416.943 9196.611)">
      <path id="Trazado_642194" data-name="Trazado 642194" d="M76.6,271.22a3.107,3.107,0,0,0-4.012-.311l-.031-.02-2.665,2.665a3.065,3.065,0,0,0-.9,2.186,3.106,3.106,0,0,0,3.092,3.092,3.249,3.249,0,0,0,2.461-1.179l2.059-2.059a3.091,3.091,0,0,0,0-4.374Z" transform="translate(-56.432 -209.766)" fill="#12263f"/>
      <path id="Trazado_642195" data-name="Trazado 642195" d="M35.823,221.441a3.1,3.1,0,0,0-4.374,0c-.281.282-2.011,2.012-2.332,2.333a3.092,3.092,0,0,0,4.372,4.374l2.333-2.333A3.094,3.094,0,0,0,35.823,221.441Z" transform="translate(-23.066 -169.046)" fill="#12263f"/>
      <path id="Trazado_642196" data-name="Trazado 642196" d="M121.192,314.025a3.075,3.075,0,0,0-2.188.906l-2.333,2.333c-.011.011-.022.022-.033.035a3.092,3.092,0,0,0,4.407,4.339l2.335-2.335a3.1,3.1,0,0,0-2.188-5.278Z" transform="translate(-94.7 -245.518)" fill="#12263f"/>
      <path id="Trazado_642197" data-name="Trazado 642197" d="M47.246,34.237A12.38,12.38,0,0,1,31.915,32.52l-5.41-5.408,6.751-6.751A19.014,19.014,0,1,0,6.394,47.174,8.566,8.566,0,0,1,19.1,55.22a8.593,8.593,0,0,1,7.41,7.889,8.6,8.6,0,0,1,8.236,6.316,8.585,8.585,0,0,1,8.6,2.625l.062-.073a3.1,3.1,0,0,0,3.968-4.66l.005-.007c-.047-.046-12.292-12.29-12.292-12.29l3.861-3.861L51.1,63.31a3.092,3.092,0,0,0,4.372-4.374L43.325,46.785l3.861-3.861L59.337,55.076A3.093,3.093,0,1,0,63.711,50.7Z" transform="translate(0 -0.056)" fill="#12263f"/>
      <path id="Trazado_642198" data-name="Trazado 642198" d="M222.52,19.423a19,19,0,0,0-26.836,0l-7.632,7.634L189.6,28.6a6.9,6.9,0,0,0,9.754,0l1.931-1.931c1.027,1.038,19.874,19.853,20.4,20.42A19.084,19.084,0,0,0,222.52,19.423Z" transform="translate(-153.824 0)" fill="#12263f"/>
      <path id="Trazado_642199" data-name="Trazado 642199" d="M180.683,348.121a3.1,3.1,0,0,0-4.374,0l-2.333,2.333a3.093,3.093,0,1,0,4.374,4.374l2.333-2.333A3.11,3.11,0,0,0,180.683,348.121Z" transform="translate(-141.573 -272.668)" fill="#12263f"/>
    </g>
  </g>
</svg>
