<svg xmlns="http://www.w3.org/2000/svg" xmlns:xlink="http://www.w3.org/1999/xlink" width="228" height="89.256" viewBox="0 0 228 89.256">
  <defs>
    <filter id="Trazado_646261" x="0" y="29.9" width="228" height="59" filterUnits="userSpaceOnUse">
      <feOffset dy="3" input="SourceAlpha"/>
      <feGaussianBlur stdDeviation="3" result="blur"/>
      <feFlood flood-opacity="0.161"/>
      <feComposite operator="in" in2="blur"/>
      <feComposite in="SourceGraphic"/>
    </filter>
    <filter id="Trazado_502571" x="0.125" y="0" width="89.256" height="89.256" filterUnits="userSpaceOnUse">
      <feOffset dy="3" input="SourceAlpha"/>
      <feGaussianBlur stdDeviation="3" result="blur-2"/>
      <feFlood flood-opacity="0.161"/>
      <feComposite operator="in" in2="blur-2"/>
      <feComposite in="SourceGraphic"/>
    </filter>
  </defs>
  <g id="Grupo_1034558" data-name="Grupo 1034558" transform="translate(-840 -6232.745)">
    <g transform="matrix(1, 0, 0, 1, 840, 6232.74)" filter="url(#Trazado_646261)">
      <path id="Trazado_646261-2" data-name="Trazado 646261" d="M0,0H200a10,10,0,0,1,10,10V41H0Z" transform="translate(9 35.9)" fill="#fff"/>
    </g>
    <g id="Grupo_734093" data-name="Grupo 734093" transform="translate(-360.935 881.646)">
      <g id="Grupo_734091" data-name="Grupo 734091" transform="translate(1029.935 -2175.645)">
        <text id="Video" transform="translate(289.065 7569.643)" fill="#12263f" font-size="20" font-family="Roboto-Black, Roboto" font-weight="800"><tspan x="0" y="19">Video</tspan></text>
        <path id="Trazado_194609" data-name="Trazado 194609" d="M0,0,85,40H0Z" transform="translate(180 7563.643)" fill="#ffb338"/>
        <g id="tarea-completada" transform="translate(180.125 7532.744)">
          <path id="Trazado_203286" data-name="Trazado 203286" d="M0,20.438ZM4.438,16" transform="translate(13.875 -13.525)" fill="#ffc846"/>
          <g transform="matrix(1, 0, 0, 1, -9.12, -6)" filter="url(#Trazado_502571)">
            <path id="Trazado_502571-2" data-name="Trazado 502571" d="M295.256,259.628A35.628,35.628,0,1,1,259.628,224,35.629,35.629,0,0,1,295.256,259.628Zm0,0" transform="translate(-214.88 -218)" fill="#cee4c6"/>
          </g>
        </g>
      </g>
      <g id="Grupo_883134" data-name="Grupo 883134" transform="translate(1220.526 5367.061)">
        <path id="Trazado_641413" data-name="Trazado 641413" d="M25.667,0A25.667,25.667,0,1,0,51.334,25.667,25.667,25.667,0,0,0,25.667,0Zm0,47.911A22.245,22.245,0,1,1,47.911,25.667,22.245,22.245,0,0,1,25.667,47.911Z"/>
        <path id="Trazado_641414" data-name="Trazado 641414" d="M206.621,141.623l-19.165-11.978a1.711,1.711,0,0,0-2.618,1.451v23.956a1.711,1.711,0,0,0,2.618,1.451l19.165-11.978a1.711,1.711,0,0,0,0-2.909v.007Zm-18.36,10.349v-17.8l14.225,8.9Z" transform="translate(-167.727 -117.407)"/>
      </g>
    </g>
  </g>
</svg>
