<svg xmlns="http://www.w3.org/2000/svg" xmlns:xlink="http://www.w3.org/1999/xlink" width="150" height="150" viewBox="0 0 150 150">
  <defs>
    <filter id="Elipse_6970" x="0" y="0" width="150" height="150" filterUnits="userSpaceOnUse">
      <feOffset dy="3" input="SourceAlpha"/>
      <feGaussianBlur stdDeviation="3" result="blur"/>
      <feFlood flood-opacity="0.161"/>
      <feComposite operator="in" in2="blur"/>
      <feComposite in="SourceGraphic"/>
    </filter>
  </defs>
  <g id="Grupo_1034476" data-name="Grupo 1034476" transform="translate(-6356.917 1932.953)">
    <g transform="matrix(1, 0, 0, 1, 6356.92, -1932.95)" filter="url(#Elipse_6970)">
      <circle id="Elipse_6970-2" data-name="Elipse 6970" cx="66" cy="66" r="66" transform="translate(9 6)" fill="#b6e1fd"/>
    </g>
    <g id="Grupo_883302" data-name="Grupo 883302" transform="translate(6397.583 -1895.322)">
      <g id="Grupo_883293" data-name="Grupo 883293" transform="translate(0 20.028)">
        <g id="Grupo_883292" data-name="Grupo 883292">
          <path id="Trazado_642206" data-name="Trazado 642206" d="M7.153,160.778v-8.583a1.431,1.431,0,0,0,0-2.861A7.161,7.161,0,0,0,0,156.486v2.861a4.3,4.3,0,0,0,4.292,4.292H7.153a1.431,1.431,0,1,0,0-2.861Z" transform="translate(0 -149.333)" fill="#12263f"/>
        </g>
      </g>
      <g id="Grupo_883295" data-name="Grupo 883295" transform="translate(60.084 20.028)">
        <g id="Grupo_883294" data-name="Grupo 883294">
          <path id="Trazado_642207" data-name="Trazado 642207" d="M449.431,149.333a1.431,1.431,0,0,0,0,2.861v8.583a1.431,1.431,0,0,0,0,2.861h2.861a4.3,4.3,0,0,0,4.292-4.292v-2.861A7.161,7.161,0,0,0,449.431,149.333Z" transform="translate(-448 -149.333)" fill="#12263f"/>
        </g>
      </g>
      <g id="Grupo_883297" data-name="Grupo 883297" transform="translate(11.444 60.084)">
        <g id="Grupo_883296" data-name="Grupo 883296">
          <path id="Trazado_642208" data-name="Trazado 642208" d="M98.207,448a1.431,1.431,0,0,0-1.431,1.431H88.193a1.431,1.431,0,0,0-2.861,0v2.861a4.3,4.3,0,0,0,4.292,4.292h5.722a4.3,4.3,0,0,0,4.292-4.292v-2.861A1.431,1.431,0,0,0,98.207,448Z" transform="translate(-85.332 -448)" fill="#12263f"/>
        </g>
      </g>
      <g id="Grupo_883299" data-name="Grupo 883299" transform="translate(42.917 60.084)">
        <g id="Grupo_883298" data-name="Grupo 883298">
          <path id="Trazado_642209" data-name="Trazado 642209" d="M332.875,448a1.431,1.431,0,0,0-1.431,1.431h-8.583a1.431,1.431,0,1,0-2.861,0v2.861a4.3,4.3,0,0,0,4.292,4.292h5.722a4.3,4.3,0,0,0,4.292-4.292v-2.861A1.431,1.431,0,0,0,332.875,448Z" transform="translate(-320 -448)" fill="#12263f"/>
        </g>
      </g>
      <g id="Grupo_883301" data-name="Grupo 883301" transform="translate(5.722)">
        <g id="Grupo_883300" data-name="Grupo 883300">
          <path id="Trazado_642210" data-name="Trazado 642210" d="M92.737,0H49.82a7.161,7.161,0,0,0-7.153,7.153v48.64a7.161,7.161,0,0,0,7.153,7.153H92.737a7.161,7.161,0,0,0,7.153-7.153V7.153A7.161,7.161,0,0,0,92.737,0ZM55.542,5.722H87.015a4.292,4.292,0,1,1,0,8.583H55.542a4.292,4.292,0,0,1,0-8.583Zm0,48.639a4.292,4.292,0,1,1,4.292-4.292A4.3,4.3,0,0,1,55.542,54.362Zm31.473,0a4.292,4.292,0,1,1,4.292-4.292A4.3,4.3,0,0,1,87.015,54.362Zm7.153-18.6a4.3,4.3,0,0,1-4.292,4.292H52.681a4.3,4.3,0,0,1-4.292-4.292V21.459a4.3,4.3,0,0,1,4.292-4.292H89.876a4.3,4.3,0,0,1,4.292,4.292V35.764Z" transform="translate(-42.667)" fill="#12263f"/>
        </g>
      </g>
    </g>
  </g>
</svg>
