<svg xmlns="http://www.w3.org/2000/svg" xmlns:xlink="http://www.w3.org/1999/xlink" width="150" height="150" viewBox="0 0 150 150">
  <defs>
    <filter id="Elipse_6972" x="0" y="0" width="150" height="150" filterUnits="userSpaceOnUse">
      <feOffset dy="3" input="SourceAlpha"/>
      <feGaussianBlur stdDeviation="3" result="blur"/>
      <feFlood flood-opacity="0.161"/>
      <feComposite operator="in" in2="blur"/>
      <feComposite in="SourceGraphic"/>
    </filter>
  </defs>
  <g id="Grupo_1034475" data-name="Grupo 1034475" transform="translate(-6006.159 1932.989)">
    <g transform="matrix(1, 0, 0, 1, 6006.16, -1932.99)" filter="url(#Elipse_6972)">
      <circle id="Elipse_6972-2" data-name="Elipse 6972" cx="66" cy="66" r="66" transform="translate(9 6)" fill="#b6e1fd"/>
    </g>
    <path id="Trazado_642205" data-name="Trazado 642205" d="M26.155,29.93,21,35.085a1.8,1.8,0,0,0-.258,2.362L24.128,42.1a1.8,1.8,0,0,1,.086,1.942A21.477,21.477,0,0,0,22.5,48.091a1.718,1.718,0,0,1-1.443,1.271l-5.661.928A1.718,1.718,0,0,0,14,52.086v5.747a1.718,1.718,0,0,0,1.435,1.778l5.661.928a1.632,1.632,0,0,1,1.426,1.314,19.837,19.837,0,0,0,1.787,4.1,1.856,1.856,0,0,1-.163,1.864L20.76,72.464a1.821,1.821,0,0,0,.258,2.371l4.055,4.055a1.718,1.718,0,0,0,2.285.172l4.682-3.3a1.667,1.667,0,0,1,1.89-.163,23.891,23.891,0,0,0,4.063,1.718,1.838,1.838,0,0,1,1.271,1.435l1.014,5.756A1.658,1.658,0,0,0,42,85.943H47.83a1.718,1.718,0,0,0,1.77-1.435l1.014-5.756A1.718,1.718,0,0,1,51.8,77.317,24.742,24.742,0,0,0,55.948,75.6a1.718,1.718,0,0,1,1.856.172l4.622,3.265a1.8,1.8,0,0,0,2.371-.172l4.055-4.055a1.916,1.916,0,0,0,.172-2.371l-3.3-4.648a1.718,1.718,0,0,1-.18-1.838,22.594,22.594,0,0,0,1.718-4.1,1.718,1.718,0,0,1,1.443-1.186l5.661-1.014a1.718,1.718,0,0,0,1.486-1.821V52.086a1.718,1.718,0,0,0-1.435-1.778l-5.747-1.014a1.89,1.89,0,0,1-1.409-1.186,17.345,17.345,0,0,0-1.718-4.055,1.976,1.976,0,0,1,.18-1.959l3.3-4.656a1.8,1.8,0,0,0-.172-2.362L63.7,29.922a1.916,1.916,0,0,0-.928,1.443,34.157,34.157,0,0,1-8.8,19.2,1.813,1.813,0,0,0-.421,1.718,9.072,9.072,0,1,1-17.336,0,1.581,1.581,0,0,0-.335-1.718,33.891,33.891,0,0,1-8.8-19.192A1.916,1.916,0,0,0,26.155,29.93ZM48.363,52.765A31.786,31.786,0,0,0,44.926,0a31.786,31.786,0,0,0-3.892,52.4A1.8,1.8,0,0,0,44,51.055V44.14a1.5,1.5,0,0,0-.507-1.1c-2.113-1.95-5.584-5.747-6.6-7.947,1.435.507,4.4,3.213,6.512,5.154.172.258.593.086.593-.249V30.068a1.323,1.323,0,0,0-.507-1.014c-2.113-1.95-5.584-5.833-6.6-7.947,1.435.421,4.484,3.213,6.512,5.154A.387.387,0,0,0,44,26c0-4.227.086-11.409.928-13.359.765,2.113.928,9.132.928,13.359a.378.378,0,0,0,.593.258c2.027-1.942,5.077-4.734,6.512-5.154-1.014,2.113-4.562,6.014-6.684,7.947a1.572,1.572,0,0,0-.421,1.014V40a.335.335,0,0,0,.593.249c2.027-1.942,5.077-4.648,6.512-5.154-1.014,2.2-4.562,6.014-6.684,7.947a1.8,1.8,0,0,0-.421,1.1v7.354a1.589,1.589,0,0,0,2.577,1.271ZM30.8,64.689c-.593-.765.679-1.606,1.186-.859A17.1,17.1,0,0,0,35.2,67.215a.773.773,0,0,1,.086,1.014.7.7,0,0,1-1.014.086,15.807,15.807,0,0,1-3.436-3.634Zm6.392,5.575a.739.739,0,1,1,.593-1.349A15.8,15.8,0,0,0,60.656,54.878a.756.756,0,0,1,.756-.765.747.747,0,0,1,.679.765A17.255,17.255,0,0,1,37.195,70.264Z" transform="translate(6036.232 -1907.913)" fill="#12263f"/>
  </g>
</svg>
