<svg xmlns="http://www.w3.org/2000/svg" width="95.861" height="92.666" viewBox="0 0 95.861 92.666">
  <g id="Grupo_883044" data-name="Grupo 883044" transform="translate(-16 -24)">
    <path id="Trazado_641249" data-name="Trazado 641249" d="M0,0H92V77H0Z" transform="translate(17.93 28.332)" fill="#ffb338"/>
    <rect id="Rectángulo_330915" data-name="Rectángulo 330915" width="80" height="7" transform="translate(23.93 92.333)" fill="#dadcde"/>
    <path id="Trazado_641237" data-name="Trazado 641237" d="M135.884,32V99.1H108.724a12.773,12.773,0,0,0-9.588,4.332c-.222.25-.434.509-.637.781l-.959,1.278-.959-1.278c-.2-.272-.415-.531-.639-.783a12.771,12.771,0,0,0-9.586-4.33H56V32H86.356a12.773,12.773,0,0,1,9.588,4.332c.222.25.434.509.637.781l.959,1.278.959-1.278c.2-.272.415-.531.639-.783A12.771,12.771,0,0,1,108.724,32Z" transform="translate(-32.012 -6.402)" fill="#e9eef2"/>
    <rect id="Rectángulo_330916" data-name="Rectángulo 330916" width="7" height="13" transform="translate(29.93 70.332)" fill="#c3c6c7"/>
    <rect id="Rectángulo_330917" data-name="Rectángulo 330917" width="9" height="7" transform="translate(84.93 41.332)" fill="#c3c6c7"/>
    <path id="Trazado_641238" data-name="Trazado 641238" d="M116.758,97.575V91.184H113.1a11.116,11.116,0,0,0-.786-1.944l2.849-2.849L110.368,81.6l-2.849,2.849a11.117,11.117,0,0,0-1.944-.786V80H99.184v3.661a11.115,11.115,0,0,0-1.944.786L94.391,81.6,89.6,86.391l2.849,2.849a11.116,11.116,0,0,0-.786,1.944H88v6.391h3.661a11.116,11.116,0,0,0,.786,1.944L89.6,102.368l4.793,4.793,2.849-2.849a11.116,11.116,0,0,0,1.944.786v3.661h6.391V105.1a11.116,11.116,0,0,0,1.944-.786l2.849,2.849,4.793-4.793-2.849-2.849a11.117,11.117,0,0,0,.786-1.944Z" transform="translate(-57.621 -44.816)" fill="#3397e8"/>
    <circle id="Elipse_6964" data-name="Elipse 6964" cx="5" cy="5" r="5" transform="translate(39.93 44.332)" fill="#e9eef2"/>
    <rect id="Rectángulo_330918" data-name="Rectángulo 330918" width="6.778" height="16.946" transform="translate(81.506 91.103) rotate(-45)" fill="#2978b8"/>
    <ellipse id="Elipse_6965" data-name="Elipse 6965" cx="22" cy="22.5" rx="22" ry="22.5" transform="translate(49.93 54.332)" fill="#3397e8"/>
    <circle id="Elipse_6966" data-name="Elipse 6966" cx="16" cy="16" r="16" transform="translate(55.93 60.332)" fill="#e9eef2"/>
    <path id="Trazado_641239" data-name="Trazado 641239" d="M409.575,401.575h0a5.455,5.455,0,0,1-3.857,1.6h0a6.117,6.117,0,0,1-4.325-1.792L392,391.988,399.988,384l9.392,9.392a6.116,6.116,0,0,1,1.792,4.325h0a5.455,5.455,0,0,1-1.6,3.857Z" transform="translate(-300.909 -288.104)" fill="#3397e8"/>
    <path id="Trazado_641240" data-name="Trazado 641240" d="M111.861,105.482V28.793a1.6,1.6,0,0,0-1.6-1.6H105.47V25.6a1.6,1.6,0,0,0-1.6-1.6H76.712a14.453,14.453,0,0,0-11.184,5.341A14.453,14.453,0,0,0,54.344,24H23.988a1.6,1.6,0,0,0-1.6,1.6v1.6H17.6a1.6,1.6,0,0,0-1.6,1.6v76.689a1.6,1.6,0,0,0,1.6,1.6H92.027l7.327,7.327a7.664,7.664,0,0,0,5.455,2.259,7.052,7.052,0,0,0,7.052-7.052,7.7,7.7,0,0,0-.567-2.912A1.594,1.594,0,0,0,111.861,105.482Zm-3.2-75.091v72.832l-3.2-3.2V30.391ZM92.689,100.027l-5.146-5.146a24.16,24.16,0,0,0,2.534-2.534l5.146,5.146ZM25.586,94.3H55.644a24.108,24.108,0,0,0,4.329,3.2H25.586ZM51.149,76.724a20.77,20.77,0,1,1,20.77,20.77,20.77,20.77,0,0,1-20.77-20.77ZM42.019,58.75a9.541,9.541,0,0,1-1.664-.673,1.6,1.6,0,0,0-1.865.289l-1.72,1.72-2.534-2.534,1.72-1.72a1.6,1.6,0,0,0,.288-1.865,9.547,9.547,0,0,1-.673-1.664,1.6,1.6,0,0,0-1.531-1.142H31.977v-3.2H34.04a1.6,1.6,0,0,0,1.531-1.142,9.547,9.547,0,0,1,.673-1.664,1.6,1.6,0,0,0-.288-1.865l-1.72-1.72,2.534-2.534,1.72,1.72a1.6,1.6,0,0,0,1.865.289,9.541,9.541,0,0,1,1.664-.673,1.6,1.6,0,0,0,1.142-1.531V36.781h3.2v2.063A1.6,1.6,0,0,0,47.5,40.376a9.541,9.541,0,0,1,1.664.673,1.6,1.6,0,0,0,1.865-.289l1.72-1.72,2.534,2.534-1.72,1.72a1.6,1.6,0,0,0-.288,1.865,9.548,9.548,0,0,1,.673,1.664,1.6,1.6,0,0,0,1.531,1.142H57.54v3.2H55.476A1.6,1.6,0,0,0,53.945,52.3a9.548,9.548,0,0,1-.673,1.664,1.6,1.6,0,0,0,.288,1.865l1.72,1.72-2.534,2.534-1.72-1.72a1.6,1.6,0,0,0-1.865-.289,9.541,9.541,0,0,1-1.664.673,1.6,1.6,0,0,0-1.142,1.531v2.063h-3.2V60.281a1.6,1.6,0,0,0-1.142-1.531ZM84.962,96.819l.674.674H83.865Q84.423,97.171,84.962,96.819ZM97.95,94.766l-.468.468-.936-.936h5.729v2.534l-2.066-2.066a1.6,1.6,0,0,0-2.26,0ZM76.712,27.2h25.563V91.1H93.351l-1.336-1.336a23.916,23.916,0,0,0-.935-27.422h3.208a1.6,1.6,0,0,0,0-3.2H88.194a24.109,24.109,0,0,0-4.329-3.2H94.287a1.6,1.6,0,0,0,0-3.2H71.919a23.98,23.98,0,0,0-4.793.482V32.521l.639-.852A11.237,11.237,0,0,1,76.712,27.2Zm-22.368,0a11.237,11.237,0,0,1,8.947,4.474l.639.852V54.13a23.89,23.89,0,0,0-5.077,2.514,1.6,1.6,0,0,0-.184-.222l-2.063-2.063v0h2.531a1.6,1.6,0,0,0,1.6-1.6V46.368a1.6,1.6,0,0,0-1.6-1.6H56.607v0L58.67,42.7a1.6,1.6,0,0,0,0-2.26l-4.793-4.793a1.6,1.6,0,0,0-2.26,0l-2.064,2.063h0V35.184a1.6,1.6,0,0,0-1.6-1.6H41.563a1.6,1.6,0,0,0-1.6,1.6v2.531h0L37.9,35.652a1.6,1.6,0,0,0-2.26,0l-4.793,4.793a1.6,1.6,0,0,0,0,2.26l2.063,2.063v0H30.379a1.6,1.6,0,0,0-1.6,1.6v6.391a1.6,1.6,0,0,0,1.6,1.6H32.91v0l-2.063,2.063a1.6,1.6,0,0,0,0,2.26l4.793,4.793a1.6,1.6,0,0,0,2.26,0l2.063-2.063h0v2.531a1.6,1.6,0,0,0,1.6,1.6h6.391a1.6,1.6,0,0,0,1.6-1.6V61.412h0l2.063,2.063a1.609,1.609,0,0,0,.222.184,23.889,23.889,0,0,0-2.514,5.077H46.356a1.6,1.6,0,0,0,0,3.2h2.08a23.888,23.888,0,0,0-.427,3.2H43.161a1.6,1.6,0,1,0,0,3.2h4.848a23.889,23.889,0,0,0,.427,3.2H43.161a1.6,1.6,0,1,0,0,3.2h6.164A23.939,23.939,0,0,0,52.76,91.1H25.586V27.2ZM19.2,103.884V30.391h3.2v68.7a1.6,1.6,0,0,0,1.6,1.6H88.832l1.6,1.6-.468.468a1.593,1.593,0,0,0-.468,1.13Zm88.341,8.456a3.831,3.831,0,0,1-2.727,1.13,4.49,4.49,0,0,1-3.2-1.323l-8.263-8.263,5.729-5.729,8.263,8.263a4.489,4.489,0,0,1,1.323,3.2,3.832,3.832,0,0,1-1.13,2.727Z"/>
    <path id="Trazado_641241" data-name="Trazado 641241" d="M81.6,263.977h6.391a1.6,1.6,0,0,0,1.6-1.6V249.6a1.6,1.6,0,0,0-1.6-1.6H81.6a1.6,1.6,0,0,0-1.6,1.6v12.781A1.6,1.6,0,0,0,81.6,263.977ZM83.2,251.2h3.2v9.586H83.2Z" transform="translate(-51.219 -179.265)"/>
    <path id="Trazado_641242" data-name="Trazado 641242" d="M305.6,75.2h3.2a1.6,1.6,0,0,0,0-3.2h-3.2a1.6,1.6,0,0,0,0,3.2Z" transform="translate(-230.483 -38.414)"/>
    <path id="Trazado_641243" data-name="Trazado 641243" d="M353.6,75.2h9.586a1.6,1.6,0,0,0,0-3.2H353.6a1.6,1.6,0,0,0,0,3.2Z" transform="translate(-268.897 -38.414)"/>
    <path id="Trazado_641244" data-name="Trazado 641244" d="M289.6,107.2h6.391a1.6,1.6,0,0,0,0-3.2H289.6a1.6,1.6,0,0,0,0,3.2Z" transform="translate(-217.679 -64.023)"/>
    <path id="Trazado_641245" data-name="Trazado 641245" d="M289.6,139.2h6.391a1.6,1.6,0,0,0,0-3.2H289.6a1.6,1.6,0,0,0,0,3.2Z" transform="translate(-217.679 -89.632)"/>
    <path id="Trazado_641246" data-name="Trazado 641246" d="M353.6,113.586h9.586a1.6,1.6,0,0,0,1.6-1.6V105.6a1.6,1.6,0,0,0-1.6-1.6H353.6a1.6,1.6,0,0,0-1.6,1.6v6.391A1.6,1.6,0,0,0,353.6,113.586Zm1.6-6.391h6.391v3.2H355.2Z" transform="translate(-268.897 -64.023)"/>
    <path id="Trazado_641247" data-name="Trazado 641247" d="M225.575,200a17.575,17.575,0,1,0,17.575,17.575A17.575,17.575,0,0,0,225.575,200Zm0,31.954a14.379,14.379,0,1,1,14.379-14.379A14.379,14.379,0,0,1,225.575,231.954Z" transform="translate(-153.656 -140.851)"/>
    <path id="Trazado_641248" data-name="Trazado 641248" d="M140.781,126.391a6.391,6.391,0,1,0-6.391,6.391A6.391,6.391,0,0,0,140.781,126.391Zm-9.586,0a3.2,3.2,0,1,1,3.2,3.2A3.2,3.2,0,0,1,131.2,126.391Z" transform="translate(-89.632 -76.828)"/>
  </g>
</svg>
