<svg xmlns="http://www.w3.org/2000/svg" width="88" height="82.091" viewBox="0 0 88 82.091">
  <g id="Grupo_882316" data-name="Grupo 882316" transform="translate(0 0.001)">
    <path id="Trazado_637868" data-name="Trazado 637868" d="M35.776,63.517a2.716,2.716,0,0,1-1.648-4.875l23.735-18.1a2.716,2.716,0,0,1,2.777-.31L82.814,50.377l22.42-18.809a2.715,2.715,0,1,1,3.491,4.161L84.99,55.641a2.715,2.715,0,0,1-2.875.389L59.86,45.846,37.421,62.961a2.7,2.7,0,0,1-1.645.557Zm0,0" transform="translate(-27.377 -25.617)" fill="#afafaf"/>
    <path id="Trazado_637869" data-name="Trazado 637869" d="M19.054,304.766H10.162A2.662,2.662,0,0,0,7.5,307.429v23.1a2.662,2.662,0,0,0,2.662,2.662h8.892a2.662,2.662,0,0,0,2.663-2.662v-23.1A2.663,2.663,0,0,0,19.054,304.766Zm0,0" transform="translate(-6.211 -252.385)" fill="#fd4c1b"/>
    <path id="Trazado_637870" data-name="Trazado 637870" d="M157.151,199.445h-8.892a2.662,2.662,0,0,0-2.662,2.663v41.2a2.662,2.662,0,0,0,2.662,2.662h8.892a2.662,2.662,0,0,0,2.662-2.662v-41.2A2.662,2.662,0,0,0,157.151,199.445Zm0,0" transform="translate(-120.573 -165.166)" fill="#2b95f9"/>
    <path id="Trazado_637871" data-name="Trazado 637871" d="M295.245,262.641h-8.892a2.662,2.662,0,0,0-2.662,2.662V295.64a2.662,2.662,0,0,0,2.662,2.662h8.892a2.662,2.662,0,0,0,2.663-2.662V265.3A2.662,2.662,0,0,0,295.245,262.641Zm0,0" transform="translate(-234.932 -217.5)" fill="#617a0b"/>
    <path id="Trazado_637872" data-name="Trazado 637872" d="M433.34,146.785h-8.892a2.663,2.663,0,0,0-2.663,2.663V199.7a2.662,2.662,0,0,0,2.663,2.662h8.892A2.662,2.662,0,0,0,436,199.7V149.447a2.662,2.662,0,0,0-2.662-2.662Zm0,0" transform="translate(-349.291 -121.557)" fill="#ffb338"/>
    <path id="Trazado_637873" data-name="Trazado 637873" d="M23.111,172.223a6.743,6.743,0,1,1-6.743-6.743A6.744,6.744,0,0,1,23.111,172.223Zm0,0" transform="translate(-7.971 -137.039)" fill="#b6e1fd"/>
    <path id="Trazado_637874" data-name="Trazado 637874" d="M19.805,178.308a6.743,6.743,0,0,1-6.166-9.472,6.743,6.743,0,1,0,8.9,8.9,6.726,6.726,0,0,1-2.729.577Zm0,0" transform="translate(-7.971 -139.817)" fill="#7ac5bf"/>
    <path id="Trazado_637875" data-name="Trazado 637875" d="M161.208,66.9a6.743,6.743,0,1,1-6.743-6.743A6.742,6.742,0,0,1,161.208,66.9Zm0,0" transform="translate(-122.333 -49.821)" fill="#b6e1fd"/>
    <path id="Trazado_637876" data-name="Trazado 637876" d="M157.9,72.987a6.743,6.743,0,0,1-6.166-9.471,6.743,6.743,0,1,0,8.895,8.895,6.715,6.715,0,0,1-2.729.577Zm0,0" transform="translate(-122.333 -52.599)" fill="#7ac5bf"/>
    <path id="Trazado_637877" data-name="Trazado 637877" d="M299.3,130.1a6.743,6.743,0,1,1-6.743-6.743A6.743,6.743,0,0,1,299.3,130.1Zm0,0" transform="translate(-236.691 -102.151)" fill="#b6e1fd"/>
    <path id="Trazado_637878" data-name="Trazado 637878" d="M296,136.182a6.743,6.743,0,0,1-6.166-9.471,6.743,6.743,0,1,0,8.9,8.895,6.729,6.729,0,0,1-2.729.577Zm0,0" transform="translate(-236.692 -104.933)" fill="#7ac5bf"/>
    <path id="Trazado_637879" data-name="Trazado 637879" d="M437.4,14.243A6.743,6.743,0,1,1,430.654,7.5,6.743,6.743,0,0,1,437.4,14.243Zm0,0" transform="translate(-351.051 -6.211)" fill="#b6e1fd"/>
    <path id="Trazado_637880" data-name="Trazado 637880" d="M434.091,20.327a6.742,6.742,0,0,1-6.166-9.472,6.743,6.743,0,1,0,8.895,8.895,6.715,6.715,0,0,1-2.729.577Zm0,0" transform="translate(-351.051 -8.99)" fill="#7ac5bf"/>
    <path id="Trazado_637881" data-name="Trazado 637881" d="M12.843,297.266H3.951A3.956,3.956,0,0,0,0,301.218v23.1a3.956,3.956,0,0,0,3.951,3.951h8.892a3.956,3.956,0,0,0,3.952-3.951v-23.1A3.956,3.956,0,0,0,12.843,297.266Zm1.374,27.047a1.375,1.375,0,0,1-1.374,1.373H3.951a1.375,1.375,0,0,1-1.373-1.373v-23.1a1.375,1.375,0,0,1,1.373-1.374h8.892a1.375,1.375,0,0,1,1.374,1.374Zm0,0" transform="translate(0 -246.174)"/>
    <path id="Trazado_637882" data-name="Trazado 637882" d="M150.94,191.945h-8.892A3.956,3.956,0,0,0,138.1,195.9v7.33a1.289,1.289,0,0,0,2.578,0V195.9a1.375,1.375,0,0,1,1.373-1.373h8.892a1.375,1.375,0,0,1,1.373,1.373v41.2a1.375,1.375,0,0,1-1.373,1.373h-8.892a1.375,1.375,0,0,1-1.373-1.373V208.382a1.289,1.289,0,0,0-2.578,0v28.713a3.956,3.956,0,0,0,3.951,3.951h8.892a3.956,3.956,0,0,0,3.951-3.951V195.9a3.956,3.956,0,0,0-3.951-3.952Zm0,0" transform="translate(-114.362 -158.955)"/>
    <path id="Trazado_637883" data-name="Trazado 637883" d="M289.034,255.141h-8.892a3.956,3.956,0,0,0-3.951,3.951v30.337a3.956,3.956,0,0,0,3.951,3.951h8.892a3.956,3.956,0,0,0,3.952-3.951V259.092A3.956,3.956,0,0,0,289.034,255.141Zm1.374,34.288a1.375,1.375,0,0,1-1.374,1.373h-8.892a1.375,1.375,0,0,1-1.373-1.373V259.092a1.374,1.374,0,0,1,1.373-1.373h8.892a1.375,1.375,0,0,1,1.374,1.373Zm0,0" transform="translate(-228.721 -211.289)"/>
    <path id="Trazado_637884" data-name="Trazado 637884" d="M427.129,139.285h-8.892a3.956,3.956,0,0,0-3.952,3.951V180.07a1.289,1.289,0,0,0,2.578,0V143.236a1.375,1.375,0,0,1,1.374-1.373h8.892a1.375,1.375,0,0,1,1.373,1.373v50.249a1.375,1.375,0,0,1-1.373,1.373h-8.892a1.375,1.375,0,0,1-1.374-1.373v-8.259a1.289,1.289,0,0,0-2.578,0v8.259a3.956,3.956,0,0,0,3.952,3.951h8.892a3.956,3.956,0,0,0,3.951-3.951V143.236A3.956,3.956,0,0,0,427.129,139.285Zm0,0" transform="translate(-343.08 -115.346)"/>
    <path id="Trazado_637885" data-name="Trazado 637885" d="M10.157,27.152a8.048,8.048,0,1,0,7.963,7l12.664-9.659a8.012,8.012,0,0,0,7.767-.869l11.079,5.07a8.031,8.031,0,1,0,15.9-2.15L78.6,15.574A8.032,8.032,0,1,0,73.33,8.031a8.08,8.08,0,0,0,.126,1.406L60.388,20.4a8.012,8.012,0,0,0-7.42,1.007l-11.079-5.07A8.031,8.031,0,1,0,25.93,18.119L13.265,27.778a7.988,7.988,0,0,0-3.108-.626ZM81.363,2.578a5.454,5.454,0,0,1,0,10.908,5.52,5.52,0,0,1-5.454-5.454A5.46,5.46,0,0,1,81.363,2.578Zm-6.972,9.44c.021.038.045.074.067.111A8.077,8.077,0,0,0,76.225,14.2L64.6,23.957c-.021-.038-.374-.6-.547-.828a8.1,8.1,0,0,0-1.287-1.358ZM52.174,27.863a5.454,5.454,0,0,1,10.907.081,5.454,5.454,0,0,1-10.907,0c0-.027,0-.054,0-.081ZM40.515,21.62a8.1,8.1,0,0,0,1.158-2.545l9.362,4.283a8.1,8.1,0,0,0-1.093,2.25q-.052.17-.1.342l-9.362-4.283.032-.048Zm-6.623-9.991a5.46,5.46,0,0,1,5.454,5.454,5.454,5.454,0,1,1-10.908,0A5.46,5.46,0,0,1,33.892,11.629Zm-7.15,9.113c.015.03.033.059.048.089a8.08,8.08,0,0,0,1.682,2.179L17.306,31.526a8.159,8.159,0,0,0-1.731-2.268ZM13.407,30.852a5.407,5.407,0,1,1-3.25-1.121,5.37,5.37,0,0,1,3.25,1.121Zm0,0" transform="translate(-1.76)"/>
  </g>
</svg>
