<svg id="Grupo_882643" data-name="Grupo 882643" xmlns="http://www.w3.org/2000/svg" width="91.045" height="91.216" viewBox="0 0 91.045 91.216">
  <g id="Grupo_882638" data-name="Grupo 882638">
    <g id="Grupo_882626" data-name="Grupo 882626" transform="translate(1.905 11.883)">
      <g id="Grupo_882625" data-name="Grupo 882625">
        <ellipse id="Elipse_6928" data-name="Elipse 6928" cx="38.761" cy="38.759" rx="38.761" ry="38.759" transform="translate(0 0.078) rotate(-0.057)" fill="#e5ecec"/>
      </g>
    </g>
    <g id="Grupo_882628" data-name="Grupo 882628" transform="translate(11.343 21.307)">
      <g id="Grupo_882627" data-name="Grupo 882627">
        <path id="Trazado_639264" data-name="Trazado 639264" d="M93.04,178.333a29.358,29.358,0,0,1-17.854-52.672q.3-.227.6-.448A29.364,29.364,0,1,1,93.04,178.333Z" transform="translate(-63.67 -119.597)" fill="#f5737f"/>
      </g>
    </g>
    <g id="Grupo_882629" data-name="Grupo 882629" transform="translate(11.343 21.307)">
      <path id="Trazado_639265" data-name="Trazado 639265" d="M83.087,121.333a29.421,29.421,0,1,1-13.779,10.348" transform="translate(-63.67 -119.597)" fill="#fd4c1b"/>
    </g>
    <g id="Grupo_882632" data-name="Grupo 882632">
      <g id="Grupo_882630" data-name="Grupo 882630">
        <path id="Trazado_639266" data-name="Trazado 639266" fill="#f5737f"/>
      </g>
      <g id="Grupo_882631" data-name="Grupo 882631" transform="translate(21.678 25.146)">
        <path id="Trazado_639267" data-name="Trazado 639267" d="M123.459,144.705a1.78,1.78,0,1,1,1.748-1.432A1.8,1.8,0,0,1,123.459,144.705Z" transform="translate(-121.681 -141.147)"/>
      </g>
    </g>
    <g id="Grupo_882634" data-name="Grupo 882634" transform="translate(20.685 30.646)">
      <g id="Grupo_882633" data-name="Grupo 882633">
        <ellipse id="Elipse_6929" data-name="Elipse 6929" cx="19.977" cy="19.978" rx="19.977" ry="19.978" transform="translate(0 39.955) rotate(-89.885)" fill="#e5ecec"/>
      </g>
    </g>
    <g id="Grupo_882636" data-name="Grupo 882636" transform="translate(54.235 61.73)">
      <g id="Grupo_882635" data-name="Grupo 882635">
        <path id="Trazado_639268" data-name="Trazado 639268" d="M306.208,350.051a1.78,1.78,0,1,1,1.759-1.5A1.8,1.8,0,0,1,306.208,350.051Z" transform="translate(-304.427 -346.494)"/>
      </g>
    </g>
    <g id="Grupo_882637" data-name="Grupo 882637" transform="translate(30.076 40.036)">
      <ellipse id="Elipse_6930" data-name="Elipse 6930" cx="10.586" cy="10.587" rx="10.586" ry="10.587" transform="translate(0 21.173) rotate(-89.771)" fill="#fd4c1b"/>
    </g>
  </g>
  <g id="Grupo_882642" data-name="Grupo 882642" transform="translate(0.17 0)">
    <g id="Grupo_882639" data-name="Grupo 882639" transform="translate(67.671 1.782)">
      <path id="Trazado_639269" data-name="Trazado 639269" d="M390.139,10l-7.763,7.763a5.4,5.4,0,0,0-1.576,3.617l.176,9.882L390.98,21.242Z" transform="translate(-380.799 -10.001)" fill="#ffb338"/>
    </g>
    <g id="Grupo_882641" data-name="Grupo 882641">
      <g id="Grupo_882640" data-name="Grupo 882640" transform="translate(67.846 13.022)">
        <path id="Trazado_639270" data-name="Trazado 639270" d="M403.032,73.938,391.79,73.1,381.785,83.118l9.866.159a5.4,5.4,0,0,0,3.617-1.576Z" transform="translate(-381.785 -73.097)" fill="#ffb338"/>
      </g>
      <path id="Trazado_639271" data-name="Trazado 639271" d="M91.719,13.244a1.781,1.781,0,0,0-1.537-1.157l-9.712-.727-.727-9.712A1.782,1.782,0,0,0,76.707.522L68.944,8.286a7.152,7.152,0,0,0-2.1,4.812c0,.032,0,.064,0,.1l.106,5.948a40.584,40.584,0,1,0,5.809,5.748l5.879.095h.094a7.154,7.154,0,0,0,4.812-2.1l7.763-7.763a1.782,1.782,0,0,0,.41-1.88ZM71.463,10.8,76.48,5.788l.49,6.554-6.461,6.471-.1-5.629A3.6,3.6,0,0,1,71.463,10.8ZM41.5,87.653a36.977,36.977,0,1,1,24.673-64.5l-4.126,4.126a31.123,31.123,0,0,0-31.1-5.914,1.782,1.782,0,1,0,1.211,3.351,27.564,27.564,0,0,1,27.37,5.087l-4.133,4.133a21.755,21.755,0,1,0-4,36.118,1.782,1.782,0,1,0-1.624-3.172A17.962,17.962,0,0,1,41.5,68.871a18.2,18.2,0,1,1,11.358-32.4L48.7,40.626A12.384,12.384,0,1,0,51.267,43.1l4.141-4.14A18.178,18.178,0,0,1,58.774,56.4a1.782,1.782,0,0,0,3.382,1.123,21.742,21.742,0,0,0-4.22-21.091L62.062,32.3a27.588,27.588,0,1,1-42.856,2.138,1.782,1.782,0,0,0-2.877-2.1,31.153,31.153,0,1,0,48.255-2.558l4.123-4.123A36.958,36.958,0,0,1,41.5,87.653ZM50.3,50.675a8.813,8.813,0,1,1-4.17-7.483l-5.683,5.682a1.782,1.782,0,1,0,2.519,2.519l5.75-5.75A8.755,8.755,0,0,1,50.3,50.675ZM81.026,20.367a3.6,3.6,0,0,1-2.381,1.054l-5.61-.091,3.423-3.422c.038-.038.074-.078.108-.118l2.925-2.929,6.552.49Z" transform="translate(-0.956 -0.001)"/>
    </g>
  </g>
</svg>
