<svg xmlns="http://www.w3.org/2000/svg" width="400" height="288.748" viewBox="0 0 400 288.748">
  <g id="Grupo_1034440" data-name="Grupo 1034440" transform="translate(-971 -7877.69)">
    <g id="Grupo_1034439" data-name="Grupo 1034439" transform="translate(888.588 7871.648)">
      <g id="Grupo_1034405" data-name="Grupo 1034405" transform="translate(82.412 46.693)">
        <ellipse id="Elipse_7007" data-name="Elipse 7007" cx="86.278" cy="12.639" rx="86.278" ry="12.639" transform="translate(0 218.772)" fill="#c4c2b7"/>
        <path id="Trazado_645915" data-name="Trazado 645915" d="M159.887,49.9s3.62-11.9,12.585-7.068,3.449,24.136,1.9,38.791,5.69,21.206,5.69,21.206-27.24,13.619-48.79,5-14.654-37.239-9.654-48.272S153.336,40.07,159.887,49.9Z" transform="translate(-71.862 -35.65)" fill="#011b4b"/>
        <path id="Trazado_645916" data-name="Trazado 645916" d="M149.657,50.278s2.759-5.632,6.321-4.482,4.713,8.734,2.759,14.6Z" transform="translate(-61.574 -34.422)" fill="#000a29"/>
        <g id="Grupo_1034375" data-name="Grupo 1034375" transform="translate(85.416 8.048)">
          <path id="Trazado_645917" data-name="Trazado 645917" d="M151.561,71.183c.089.059-.305.639-1.364.562a2.686,2.686,0,0,1-1.65-.813,3.61,3.61,0,0,1-.913-2.26,9.765,9.765,0,0,1,1.763-5.5c1.1-1.771,13.366-19.956,13.366-19.956l2.184,1.288s-4.864,6.6-10.283,14.233c-2.6,3.852-5.617,7.173-5.69,9.9a2.231,2.231,0,0,0,1.374,2.383C151.034,71.284,151.489,71.054,151.561,71.183Z" transform="translate(-147.621 -43.22)" fill="#c26c9e"/>
        </g>
        <g id="Grupo_1034386" data-name="Grupo 1034386" transform="translate(7.051 131.434)">
          <path id="Trazado_645918" data-name="Trazado 645918" d="M194.592,140.463a88.252,88.252,0,0,0-26.956-2.971c-48.819,10.4-78.111,23.135-78.111,23.135l39.9.424Z" transform="translate(-87.259 -137.416)" fill="#002729"/>
          <path id="Trazado_645919" data-name="Trazado 645919" d="M185.152,139.742c5.306,8.066,6.332,55.019,3.609,72.167-24.622,18.254-67.71,31.838-67.71,31.838l-1.061-83.416Z" transform="translate(-77.818 -136.696)" fill="#004333"/>
          <g id="Grupo_1034376" data-name="Grupo 1034376" transform="translate(42.171 3.046)">
            <path id="Trazado_645920" data-name="Trazado 645920" d="M185.152,139.742l-65.163,20.589.326,25.568c.1-.2.193-.406.295-.606a41.174,41.174,0,0,1,10.661-13.208c3.945-3.212,8.809-5.754,13.883-5.4,5.529.384,10.381,4.223,13.24,8.97s4.011,10.317,4.744,15.81a103.287,103.287,0,0,1,.764,21.084,87.614,87.614,0,0,1-2.473,15.174c9.656-4.6,19.441-9.962,27.331-15.812C191.484,194.761,190.458,147.808,185.152,139.742Z" transform="translate(-119.989 -139.742)" fill="#002729"/>
          </g>
          <path id="Trazado_645921" data-name="Trazado 645921" d="M89.8,155.136l39.9.424,1.061,83.416s-32.05-1.91-37.356-4.032C85.551,207.563,89.8,155.136,89.8,155.136Z" transform="translate(-87.53 -131.925)" fill="#005947"/>
          <g id="Grupo_1034377" data-name="Grupo 1034377" transform="translate(6.107 23.289)">
            <path id="Trazado_645922" data-name="Trazado 645922" d="M96.029,155.2a74.447,74.447,0,0,0-3.141,16.844c-.487,5.268-.82,10.656.481,15.784s4.5,10.03,9.353,12.14c7.443,3.235,16.48-1.23,20.872-8.054,2.168-3.37,3.491-7.2,5.254-10.8l-.326-25.568Z" transform="translate(-92.457 -155.196)" fill="#004333"/>
          </g>
          <path id="Trazado_645923" data-name="Trazado 645923" d="M96.069,215.005c-3.293-3.734-5.651-8.806-6.365-8.436-.855.444-.568,10.052,1.331,13.117A3.262,3.262,0,0,0,91.9,220.7a4.067,4.067,0,0,0,1.21.507c3.487,1,10.5,1.855,10.886.415S99.361,218.741,96.069,215.005Z" transform="translate(-87.345 -115.993)" fill="#ffc05e"/>
          <path id="Trazado_645924" data-name="Trazado 645924" d="M172.093,193.669c1.908-3.131,2.379-7.219,2.9-6.949.629.325,1.43,7.841.762,11.011a3.21,3.21,0,0,1-.373,1.081,2.271,2.271,0,0,1-.685.631c-2.055,1.373-6.392,3.034-6.9,1.7S169.89,197.283,172.093,193.669Z" transform="translate(-63.023 -122.142)" fill="#ff8b1e"/>
          <path id="Trazado_645925" data-name="Trazado 645925" d="M123.375,207.346c-2.2.183-1.919,7.679-5.374,11.23s-4.127,2.5-4.223,3.742,5.279,3.072,9.214,2.5,9.022-3.359,8.926-5.47S125.679,207.153,123.375,207.346Z" transform="translate(-79.744 -115.747)" fill="#ff8b1e"/>
          <g id="Grupo_1034378" data-name="Grupo 1034378" transform="translate(34.032 91.859)">
            <path id="Trazado_645926" data-name="Trazado 645926" d="M122.813,207.544c-1.615,1.335-1.687,7.756-4.813,10.969-3.455,3.551-4.127,2.5-4.223,3.742-.079,1.026,3.533,2.436,7.007,2.59a12.332,12.332,0,0,0,2.983-5.539C124.7,215.432,123.976,211.368,122.813,207.544Z" transform="translate(-113.776 -207.544)" fill="#ffc05e"/>
          </g>
          <g id="Grupo_1034379" data-name="Grupo 1034379" transform="translate(0 20.289)">
            <path id="Trazado_645927" data-name="Trazado 645927" d="M97.129,154.805c-.309-.527.177-1.179.292-1.779-2.693-.7-8.977,1.859-9.333,2.85-.348.968-.681,12.452.853,12.839s3.78-9.8,7.876-12.42c.272-.173.58-.379.62-.7A1.341,1.341,0,0,0,97.129,154.805Z" transform="translate(-87.795 -152.906)" fill="#ff8b1e"/>
          </g>
          <path id="Trazado_645928" data-name="Trazado 645928" d="M88.508,166" transform="translate(-87.574 -128.56)" fill="none" stroke="#fff" stroke-miterlimit="10" stroke-width="1"/>
          <g id="Grupo_1034380" data-name="Grupo 1034380" transform="translate(0.001 23.041)">
            <path id="Trazado_645929" data-name="Trazado 645929" d="M89.47,156.516a11.156,11.156,0,0,0-1.626,1.459c-.145,3.711-.016,9.81,1.1,10.09,1.519.383,3.744-9.617,7.773-12.339a6.731,6.731,0,0,0-2.523-.709A7.442,7.442,0,0,0,89.47,156.516Z" transform="translate(-87.796 -155.006)" fill="#ffc05e"/>
          </g>
          <path id="Trazado_645930" data-name="Trazado 645930" d="M112.669,155.741c-.825,1.016,8.123,12.039,9.832,12.467s10.045-13.75,9.689-15.175S113.595,154.6,112.669,155.741Z" transform="translate(-80.104 -132.694)" fill="#ff8b1e"/>
          <g id="Grupo_1034381" data-name="Grupo 1034381" transform="translate(32.563 23.454)">
            <path id="Trazado_645931" data-name="Trazado 645931" d="M124.341,161.887a6.955,6.955,0,0,0-2.7-5.166,9.109,9.109,0,0,0-4.384-1.267,36.99,36.99,0,0,0-4.6-.107c.554,2.266,8.259,11.641,9.835,12.035.317.079.861-.344,1.534-1.092A16.286,16.286,0,0,0,124.341,161.887Z" transform="translate(-112.654 -155.321)" fill="#ffc05e"/>
          </g>
          <g id="Grupo_1034385" data-name="Grupo 1034385" transform="translate(48.856 35.043)">
            <ellipse id="Elipse_7008" data-name="Elipse 7008" cx="8.297" cy="10.649" rx="8.297" ry="10.649" transform="matrix(0.883, -0.469, 0.469, 0.883, 0, 34.057)" fill="#007c8f"/>
            <ellipse id="Elipse_7009" data-name="Elipse 7009" cx="5.955" cy="8.158" rx="5.955" ry="8.158" transform="translate(3.236 35.159) rotate(-27.943)" fill="#9edbe8"/>
            <path id="Trazado_645932" data-name="Trazado 645932" d="M142.505,196.82a5.661,5.661,0,0,1-2.675,5.241c-2.524,1.324-5.917.014-8.151-2.966a9.886,9.886,0,0,1-.938-1.462,10.564,10.564,0,0,1-1.117-3.228,23.4,23.4,0,0,1,2.759-.786,31.163,31.163,0,0,1,6.593-.744h.758c.648.013,1.31.041,1.958.1A9.854,9.854,0,0,1,142.505,196.82Z" transform="translate(-123.688 -155.273)" fill="#52bfb3"/>
            <path id="Trazado_645933" data-name="Trazado 645933" d="M138.326,193.556a31.163,31.163,0,0,0-6.593.744,3.793,3.793,0,0,1,.621-2.607,3.291,3.291,0,0,1,4.482-.262A4.568,4.568,0,0,1,138.326,193.556Z" transform="translate(-123.039 -155.954)" fill="#ffc05e"/>
            <g id="Grupo_1034383" data-name="Grupo 1034383" transform="translate(5.762 6.978)">
              <path id="Rectángulo_349414" data-name="Rectángulo 349414" d="M2.438,0H24.915a2.438,2.438,0,0,1,2.438,2.438V7.907a2.438,2.438,0,0,1-2.438,2.438H2.437A2.437,2.437,0,0,1,0,7.907V2.438A2.438,2.438,0,0,1,2.438,0Z" transform="matrix(0.911, -0.412, 0.412, 0.911, 0, 11.262)" fill="#deddd7"/>
              <g id="Grupo_1034382" data-name="Grupo 1034382" transform="translate(2.968 3.178)">
                <path id="Trazado_645934" data-name="Trazado 645934" d="M135.562,182.861l.291.643-1.906.862-2.19-4.847.512-.231,1.9,4.2Z" transform="translate(-131.757 -169.639)" fill="#9b0000"/>
                <path id="Trazado_645935" data-name="Trazado 645935" d="M134.251,181.439c-.608-1.344-.368-2.852.806-3.382s2.459.289,3.065,1.632.372,2.859-.8,3.387S134.861,182.789,134.251,181.439Zm3.36-1.518a1.615,1.615,0,1,0-.58,2.5A1.824,1.824,0,0,0,137.611,179.921Z" transform="translate(-131.084 -170.071)" fill="#9b0000"/>
                <path id="Trazado_645936" data-name="Trazado 645936" d="M139.953,176.094l2.227,4.929-.069.031-4.036-2.286,1.505,3.33-.507.228-2.224-4.923.071-.031,4.063,2.35-1.536-3.4Z" transform="translate(-130.179 -170.629)" fill="#9b0000"/>
                <path id="Trazado_645937" data-name="Trazado 645937" d="M143.868,177.041c.608,1.344.4,2.756-.789,3.292l-.99.447-2.19-4.845.99-.448C142.075,174.95,143.265,175.7,143.868,177.041Zm-.516.234c-.448-.99-1.3-1.538-2.165-1.147l-.485.219,1.607,3.559.485-.22A1.716,1.716,0,0,0,143.352,177.275Z" transform="translate(-129.234 -170.871)" fill="#9b0000"/>
                <path id="Trazado_645938" data-name="Trazado 645938" d="M143.485,177.268c-.608-1.344-.368-2.852.806-3.383s2.459.291,3.066,1.633.371,2.858-.8,3.387S144.094,178.617,143.485,177.268Zm3.36-1.518a1.614,1.614,0,1,0-.58,2.5A1.824,1.824,0,0,0,146.845,175.749Z" transform="translate(-128.223 -171.364)" fill="#9b0000"/>
                <path id="Trazado_645939" data-name="Trazado 645939" d="M149.187,171.922l2.227,4.929-.069.031L147.31,174.6l1.5,3.331-.506.228-2.224-4.923.069-.031,4.063,2.349-1.535-3.4Z" transform="translate(-127.317 -171.922)" fill="#9b0000"/>
              </g>
            </g>
            <g id="Grupo_1034384" data-name="Grupo 1034384" transform="translate(24.079 17.12)">
              <path id="Trazado_645940" data-name="Trazado 645940" d="M160.919,185.9q.694-.753,1.4-1.485c-.161-.343-.322-.686-.481-1.032h.005q.267-1.187.559-2.371c-.595-.141-1.188-.284-1.783-.424l-.007.022q-.212-.5-.422-1.01-.819.548-1.633,1.117-.47-.859-.926-1.729-.825.568-1.644,1.155-.466-.87-.921-1.754-.827.589-1.649,1.2-.466-.884-.917-1.78-.831.609-1.657,1.238-.46-.9-.906-1.805-.462.424-.922.855l.021-.081q-.9-.189-1.8-.372-.33,1.35-.627,2.7l.065.013q-.46.458-.918.921.322,1.069.66,2.122-.717.884-1.421,1.788.356,1.055.728,2.093-.688.9-1.362,1.827.391,1.035.8,2.058-.656.922-1.3,1.863.422,1.02.862,2.024-.627.937-1.24,1.891c.189.326.377.651.568.975h-.005q-.1,1.36-.168,2.722.918.016,1.835.035v-.024q.328.521.659,1.036.694-.766,1.4-1.516.615.788,1.239,1.56.692-.745,1.392-1.474.615.776,1.24,1.535.69-.727,1.387-1.433.615.762,1.24,1.508.688-.7,1.383-1.391.615.749,1.238,1.483c.24-.3.482-.588.724-.88q.894.043,1.785.089.063-1.169.149-2.339c.251-.282.5-.562.754-.841q-.46-.894-.906-1.805.617-.808,1.246-1.6-.43-.912-.846-1.839.642-.79,1.3-1.563-.4-.925-.787-1.865.668-.772,1.348-1.529Q161.274,186.852,160.919,185.9Z" transform="translate(-143.475 -177.239)" fill="#fff"/>
              <path id="Trazado_645941" data-name="Trazado 645941" d="M157.211,197.935q-5.949-.409-11.921-.659a121.358,121.358,0,0,1,2.55-17.431q5.877,1.092,11.712,2.338A109.244,109.244,0,0,0,157.211,197.935Z" transform="translate(-142.913 -176.431)" fill="#ffc05e"/>
              <path id="Trazado_645942" data-name="Trazado 645942" d="M155.1,195.421a15.305,15.305,0,0,0-1.068-4.953,9.551,9.551,0,0,0-3.5-4.822,6.857,6.857,0,0,0-3.961-.786q-.89,5.425-1.285,10.867,4.914.206,9.816.519C155.113,195.971,155.115,195.7,155.1,195.421Z" transform="translate(-142.913 -174.882)" fill="#52dd90"/>
              <path id="Trazado_645943" data-name="Trazado 645943" d="M157.831,189.238c-.321-.121-.641-.25-.968-.343a11.5,11.5,0,0,0-8.994,1.159,13.945,13.945,0,0,0-2.339,1.721q-.136,1.417-.24,2.833,5.971.25,11.921.659Q157.437,192.254,157.831,189.238Z" transform="translate(-142.913 -173.763)" fill="#00b85b"/>
            </g>
            <path id="Trazado_645944" data-name="Trazado 645944" d="M128.307,164.169c-.6,5.331-1.784,16.673-1.358,16.718.266.029,9.254-7.288,14.127-9.9C137.045,168.59,132.487,166.3,128.307,164.169Z" transform="translate(-124.545 -164.169)" fill="#52dd90"/>
            <path id="Trazado_645945" data-name="Trazado 645945" d="M137.5,170.362c-.661.359-1.449.855-2.275,1.407-3.021,2.042-6.593,4.911-6.745,4.911-.194-.014.1-3.338.427-6.525.152-1.531.317-3.034.441-4.138C132.014,167.369,134.924,168.831,137.5,170.362Z" transform="translate(-124.061 -163.596)" fill="#1b815b"/>
            <path id="Trazado_645946" data-name="Trazado 645946" d="M135.228,170.914c-3.021,2.042-6.593,4.911-6.745,4.911-.194-.014.1-3.338.427-6.525a4.578,4.578,0,0,1,1.449-.469A5.058,5.058,0,0,1,135.228,170.914Z" transform="translate(-124.061 -162.741)" fill="#52bfb3"/>
            <path id="Trazado_645947" data-name="Trazado 645947" d="M131.193,198.165a24.291,24.291,0,0,1,6.428-1.916,21.408,21.408,0,0,1,4.4-.359,5.661,5.661,0,0,1-2.675,5.241C136.82,202.455,133.428,201.145,131.193,198.165Z" transform="translate(-123.202 -154.343)" fill="#17a999"/>
          </g>
        </g>
        <path id="Trazado_645948" data-name="Trazado 645948" d="M170.851,187.34c-7.6-.272-12.661,1.239-13.125,2.687s22.7,1.567,23.615-.68S170.851,187.34,170.851,187.34Z" transform="translate(-59.076 9.478)" fill="#428992"/>
        <path id="Trazado_645949" data-name="Trazado 645949" d="M141.8,88c-10.689-4.138-32.239-5.344-43.789,17.412s-16.034,45.859,3.1,53.1,38.962-1.206,45.686-12.241S141.8,88,141.8,88Z" transform="translate(-80.667 -22.034)" fill="#8b3278"/>
        <path id="Trazado_645950" data-name="Trazado 645950" d="M135.592,93.923S120.765,84.1,108.7,105.82s-17.343,46.575-5.913,52.855,33.325-4.41,37.807-14.41S135.592,93.923,135.592,93.923Z" transform="translate(-78.063 -20.147)" fill="#6b0057"/>
        <path id="Trazado_645951" data-name="Trazado 645951" d="M139.858,47.472c8.867-4.358,23.1-.689,27.585,7.068s8.619,34.481-.346,43.273S145.375,96.434,139.34,110.4c-4.025-.1-7.931-.483-10.344-4.31l2.759-10.173s-5.517-3.448-6.9-7.586c0,0-7.586,1.035-8.275-9.138S129.687,52.471,139.858,47.472Z" transform="translate(-71.831 -34.432)" fill="#efbe9a"/>
        <g id="Grupo_1034387" data-name="Grupo 1034387" transform="translate(44.728 11.179)">
          <path id="Trazado_645952" data-name="Trazado 645952" d="M140.172,95.315c1.713-3.345,6.686-4.684,7.136-8.415.27-2.231-1.315-4.252-3.018-5.718s-3.686-2.749-4.713-4.748c-1.669-3.247-.232-7.272,1.964-10.19,3.627-4.823,9.089-7.934,14.669-10.233,2.081-.858,4.366-1.758,5.482-3.712a5.162,5.162,0,0,0,.625-2.85c-6.312-4.016-15.867-5.219-22.459-1.978-10.171,5-23.964,21.55-23.274,31.721s8.275,9.138,8.275,9.138c1.379,4.138,6.9,7.586,6.9,7.586L129,106.088a8.525,8.525,0,0,0,5.858,3.89,22.081,22.081,0,0,0,4.3-10.083A14.5,14.5,0,0,1,140.172,95.315Z" transform="translate(-116.559 -45.61)" fill="#e9a573"/>
        </g>
        <path id="Trazado_645953" data-name="Trazado 645953" d="M121.009,69.142l5.593,8.682" transform="translate(-70.452 -27.139)" fill="none" stroke="#dc7121" stroke-miterlimit="10" stroke-width="0.5"/>
        <path id="Trazado_645954" data-name="Trazado 645954" d="M120.021,77.778a80.968,80.968,0,0,1,7.066-8.629" transform="translate(-70.758 -27.137)" fill="none" stroke="#dc7121" stroke-miterlimit="10" stroke-width="0.5"/>
        <ellipse id="Elipse_7010" data-name="Elipse 7010" cx="1.724" cy="2.241" rx="1.724" ry="2.241" transform="translate(79.751 37.349)" fill="#485e3d"/>
        <path id="Trazado_645955" data-name="Trazado 645955" d="M159.517,68.888a1.784,1.784,0,1,1-1.724-2.241A2.034,2.034,0,0,1,159.517,68.888Z" transform="translate(-59.587 -27.912)" fill="#485e3d"/>
        <path id="Trazado_645956" data-name="Trazado 645956" d="M153.3,61.454s-3.619,10.917-.862,13.917,6.035,1.637,4.311-3S153.3,61.454,153.3,61.454Z" transform="translate(-61.034 -29.522)" fill="#e49153"/>
        <g id="Grupo_1034388" data-name="Grupo 1034388" transform="translate(73.456 27.796)">
          <path id="Trazado_645957" data-name="Trazado 645957" d="M152,61.59c-.254.32-1.1.037-2.334-.219a10.672,10.672,0,0,0-8.916,1.741c-1.048.7-1.724,1.281-2.08,1.082-.327-.173-.255-1.191.646-2.491a8.427,8.427,0,0,1,11.15-2.177C151.789,60.392,152.24,61.307,152,61.59Z" transform="translate(-138.491 -58.297)" fill="#011b4b"/>
        </g>
        <g id="Grupo_1034389" data-name="Grupo 1034389" transform="translate(93.859 29.819)">
          <path id="Trazado_645958" data-name="Trazado 645958" d="M154.1,63.134c.145.32.627.037,1.332-.219a3.908,3.908,0,0,1,2.656-.126,5.946,5.946,0,0,1,2.432,1.867c.6.7.985,1.281,1.188,1.081.187-.172.145-1.189-.368-2.49A5.528,5.528,0,0,0,158.4,60a3.177,3.177,0,0,0-3.423,1.071A2.713,2.713,0,0,0,154.1,63.134Z" transform="translate(-154.066 -59.84)" fill="#011b4b"/>
        </g>
        <g id="Grupo_1034390" data-name="Grupo 1034390" transform="translate(87.314 48.762)">
          <path id="Trazado_645959" data-name="Trazado 645959" d="M155.249,75.684c.11.029.1.625-.453,1.374a3.27,3.27,0,0,1-3.3,1.219,3.119,3.119,0,0,1-1.764-1.047,2.912,2.912,0,0,1-.644-1.526c-.088-.958.312-1.454.409-1.4.136.045.022.558.249,1.269a2.57,2.57,0,0,0,1.948,1.775A3,3,0,0,0,154.3,76.6C154.875,76.1,155.115,75.634,155.249,75.684Z" transform="translate(-149.07 -74.302)" fill="#e16f43"/>
        </g>
        <path id="Trazado_645960" data-name="Trazado 645960" d="M138.859,108.893s1.795,7.926,13.162,15.255c0,0,11.964-6.132,17.648-15.106,0,0,.3-12.863,10.769-16.153s-.747,7.777-.747,7.777L177,114.875S165.331,131.327,152.17,139.4c0,0-17.948-9.423-23.632-22.436Z" transform="translate(-68.119 -19.97)" fill="#e9a573"/>
        <path id="Trazado_645961" data-name="Trazado 645961" d="M130.4,133.846s45.127-17.751,51.109-17c0,0-13.011,21.088-16,24.977s-33.5-1.645-33.5-1.645Z" transform="translate(-67.543 -12.365)" fill="#7aacb2"/>
        <path id="Trazado_645962" data-name="Trazado 645962" d="M184.145,172.725l8.974,16.6,7.329-4.487-8.226-17.649Z" transform="translate(-50.887 3.244)" fill="#efbe9a"/>
        <path id="Trazado_645963" data-name="Trazado 645963" d="M209.894,183.312q-1.324,1.261-2.814,2.524c-.084.083-.179.152-.276.234-.441.372-.855.716-1.269,1.048-.978.813-1.889,1.531-2.731,2.193-10.564,8.234-12.013,6.331-12.013,6.331l-.592-6.578s5.682-2.249,7.324-5.682c0,0,20.494-20.04,24.081-20.633C224.886,162.2,220.651,173.077,209.894,183.312Z" transform="translate(-49.011 1.861)" fill="#deddd7"/>
        <g id="Grupo_1034391" data-name="Grupo 1034391" transform="translate(153.68 182.249)">
          <path id="Trazado_645964" data-name="Trazado 645964" d="M202.594,182.581a2.867,2.867,0,0,1-.014.359c-.978.813-1.889,1.531-2.731,2.193a22.145,22.145,0,0,1-.11-2.579c.042-3.49.7-6.331,1.489-6.344S202.622,179.051,202.594,182.581Z" transform="translate(-199.736 -176.21)" fill="#464038"/>
        </g>
        <g id="Grupo_1034392" data-name="Grupo 1034392" transform="translate(158.07 179.71)">
          <path id="Trazado_645965" data-name="Trazado 645965" d="M205.9,179.734q-1.324,1.261-2.814,2.524V181.5c.055-3.986.731-7.228,1.517-7.228C205.28,174.272,205.789,176.589,205.9,179.734Z" transform="translate(-203.087 -174.272)" fill="#464038"/>
        </g>
        <path id="Trazado_645966" data-name="Trazado 645966" d="M100.9,130.839s-8.275,21.55,21.55,28.274,62.065-13.1,62.065-13.1l-5.862,64.65,14.138,1.552s16.377-72.582,14.827-79.132-66.2,1.035-66.2,1.035S116.418,138.253,100.9,130.839Z" transform="translate(-77.009 -8.152)" fill="#9fc3c7"/>
        <g id="Grupo_1034394" data-name="Grupo 1034394" transform="translate(22.838 122.687)">
          <g id="Grupo_1034393" data-name="Grupo 1034393">
            <path id="Trazado_645967" data-name="Trazado 645967" d="M167.122,144.443c-4.028,1.168-7.606,3.482-11.338,5.394a61.632,61.632,0,0,1-28.064,6.754c-6.711-.008-14.063-1.484-18.245-6.733a18.98,18.98,0,0,1-2.48-4.278,30.634,30.634,0,0,1-2.484-13.379,34.743,34.743,0,0,1-3.61-1.462s-8.275,21.55,21.55,28.274c25.027,5.642,51.742-7.4,59.7-11.751C178.948,142.43,170.866,143.357,167.122,144.443Z" transform="translate(-99.848 -130.739)" fill="#7aacb2"/>
          </g>
        </g>
        <path id="Trazado_645968" data-name="Trazado 645968" d="M185.767,160.407c-7.179,5.085-10.769,10.021-10.171,11.666s21.986-14.508,21.238-17.2S185.767,160.407,185.767,160.407Z" transform="translate(-53.556 -0.741)" fill="#428992"/>
        <path id="Trazado_645969" data-name="Trazado 645969" d="M160.88,196.559l-2.044,18.792,8.541.944,3.277-19.161Z" transform="translate(-58.73 12.345)" fill="#e9a573"/>
        <path id="Trazado_645970" data-name="Trazado 645970" d="M179.017,216.477c-.841.027-1.709.069-2.592.1-.359.013-.7.027-1.035.027-.69.028-1.352.055-2,.069-1.282.027-2.482.041-3.585.041-12.4.014-12.689-.482-12.689-.482l2.427-6.759s5.875,1.711,9.282,0c0,0,30.88-1.172,32.771,1.931C203.884,215.167,194.465,215.843,179.017,216.477Z" transform="translate(-59.263 16.278)" fill="#deddd7"/>
        <g id="Grupo_1034395" data-name="Grupo 1034395" transform="translate(110.542 227.396)">
          <path id="Trazado_645971" data-name="Trazado 645971" d="M170.388,216.23c-1.282.027-2.482.041-3.585.041.33-.469.676-.938,1.061-1.42,2.165-2.731,4.427-4.579,5.048-4.1C173.519,211.195,172.388,213.609,170.388,216.23Z" transform="translate(-166.803 -210.677)" fill="#464038"/>
        </g>
        <g id="Grupo_1034396" data-name="Grupo 1034396" transform="translate(116.127 228.094)">
          <path id="Trazado_645972" data-name="Trazado 645972" d="M174.694,215.871c-.841.027-1.709.069-2.592.1-.359.013-.7.027-1.035.027,2.469-3.076,4.951-5.2,5.572-4.717C177.121,211.65,176.295,213.54,174.694,215.871Z" transform="translate(-171.067 -211.21)" fill="#464038"/>
        </g>
        <path id="Trazado_645973" data-name="Trazado 645973" d="M119.937,88.49s-15.517,2.241-23.1,27.412" transform="translate(-77.943 -21.144)" fill="none" stroke="#6b0057" stroke-miterlimit="10" stroke-width="0.5"/>
        <path id="Trazado_645974" data-name="Trazado 645974" d="M95.786,105.325q2.721.9,5.5,1.615" transform="translate(-78.268 -15.927)" fill="none" stroke="#6b0057" stroke-miterlimit="10" stroke-width="0.5"/>
        <path id="Trazado_645975" data-name="Trazado 645975" d="M97.754,102.318a31.218,31.218,0,0,1,4.964,2.13" transform="translate(-77.658 -16.859)" fill="none" stroke="#6b0057" stroke-miterlimit="10" stroke-width="0.5"/>
        <path id="Trazado_645976" data-name="Trazado 645976" d="M99.616,98.855a29.737,29.737,0,0,0,4.113,1.776" transform="translate(-77.081 -17.932)" fill="none" stroke="#6b0057" stroke-miterlimit="10" stroke-width="0.5"/>
        <path id="Trazado_645977" data-name="Trazado 645977" d="M101.461,95.564l3.606,2.093" transform="translate(-76.509 -18.952)" fill="none" stroke="#6b0057" stroke-miterlimit="10" stroke-width="0.5"/>
        <path id="Trazado_645978" data-name="Trazado 645978" d="M103.677,93.364a29.422,29.422,0,0,0,5.5,2.625" transform="translate(-75.823 -19.633)" fill="none" stroke="#6b0057" stroke-miterlimit="10" stroke-width="0.5"/>
        <path id="Trazado_645979" data-name="Trazado 645979" d="M107.117,90.566a16.66,16.66,0,0,1,3.758,2.641" transform="translate(-74.757 -20.5)" fill="none" stroke="#6b0057" stroke-miterlimit="10" stroke-width="0.5"/>
        <path id="Trazado_645980" data-name="Trazado 645980" d="M176.669,80.039l-8.1,28.619,8.448,2.069,10.172-29.136-3.448-3.1Z" transform="translate(-55.715 -24.243)" fill="#464038"/>
        <path id="Trazado_645981" data-name="Trazado 645981" d="M181.418,79.956q-4.095,14.51-7.275,29.257" transform="translate(-53.986 -23.788)" fill="none" stroke="#726d67" stroke-miterlimit="10" stroke-width="0.5"/>
        <path id="Trazado_645982" data-name="Trazado 645982" d="M144.906,96.091s5.143,15.047,7.417,19.9c1.829,3.907-6.714,5.509-6.714,5.509l-2.884,11.37,1.234,13.631-1.982.445c-5.344,4.138-33.551,4.452-43.378-5.2,0,0,3.75-45.011,35.964-49.967C134.562,91.781,139.735,96.263,144.906,96.091Z" transform="translate(-77.396 -20.124)" fill="#52dd90"/>
        <g id="Grupo_1034397" data-name="Grupo 1034397" transform="translate(21.202 71.657)">
          <path id="Trazado_645983" data-name="Trazado 645983" d="M120.663,144.542a2.379,2.379,0,0,1,1.315-2.6,7.308,7.308,0,0,1,3.068-.63,97.342,97.342,0,0,0,18.179-2.9l-.33-3.653a38.04,38.04,0,0,1-5.082-2.2c-2.067-1.091-4.251-2.728-4.379-5.061-.117-2.157,1.564-3.92,2.768-5.715,3.838-5.724,3.18-20.6.282-28.578a20.092,20.092,0,0,1-1.92-1.416C102.348,96.736,98.6,141.748,98.6,141.748c6.421,6.308,20.687,8.358,31.3,7.868a27.264,27.264,0,0,1-7.744-3.463A3.266,3.266,0,0,1,120.663,144.542Z" transform="translate(-98.598 -91.781)" fill="#00bd5b"/>
        </g>
        <path id="Trazado_645984" data-name="Trazado 645984" d="M132.667,89.675s10,18.964-2.241,37.41-35.17,6.379-35.17,6.379l3.1-8.275s16.033,8.447,25-3.793,2.07-29.825,2.07-29.825Z" transform="translate(-78.432 -20.776)" fill="#6b0057"/>
        <path id="Trazado_645985" data-name="Trazado 645985" d="M96.157,114.024l5.862,2.931-5,12.413-3.276-.345-3.621-9.137Z" transform="translate(-80.023 -13.231)" fill="#deddd7"/>
        <path id="Trazado_645986" data-name="Trazado 645986" d="M93.984,119.31a1.206,1.206,0,1,1-1.206-1.206A1.207,1.207,0,0,1,93.984,119.31Z" transform="translate(-79.574 -11.967)" fill="#6b0057"/>
        <path id="Trazado_645987" data-name="Trazado 645987" d="M111.385,119.716s1.906,2.215,3,3.186c23.507,20.864,52.069,20.852,52.069,20.852s16.844-20.141,18.911-31.339c0,0,11.873.854,12.473-1.542a1.99,1.99,0,0,0-1.208-2.586s2.759-2.068,2.586-4.138-2.413-2.068-2.413-2.068,4.138-2.932,3.965-5.173-12.412,2.07-12.412,2.07,3.965-4.482,4.137-6.9-9.136,1.552-11.722,7.586a25.04,25.04,0,0,0-1.552,12.414s-8.965,12.585-17.585,18.964c0,0-20-.863-38.962-21.206Z" transform="translate(-73.434 -20.253)" fill="#efbe9a"/>
        <path id="Trazado_645988" data-name="Trazado 645988" d="M123.078,93.385S112.57,92,108.6,100.1s-1.206,17.241,3.449,23.274c0,0,11.206-5.862,17.068-12.757l-5.086-11.279Z" transform="translate(-74.885 -19.655)" fill="#00b85b"/>
        <g id="Grupo_1034398" data-name="Grupo 1034398" transform="translate(31.816 73.641)">
          <path id="Trazado_645989" data-name="Trazado 645989" d="M116.653,114.242a14.251,14.251,0,0,1,1.559-16.863,8.8,8.8,0,0,1,5.065-2.755l-.2-1.239S112.57,92,108.6,100.1s-1.206,17.241,3.449,23.274a85.089,85.089,0,0,0,8.354-5.171A14.1,14.1,0,0,1,116.653,114.242Z" transform="translate(-106.701 -93.295)" fill="#009a47"/>
        </g>
        <g id="Grupo_1034401" data-name="Grupo 1034401" transform="translate(20.257 128.885)">
          <path id="Trazado_645990" data-name="Trazado 645990" d="M122.011,135.473c1.048-.224,4.121,15.178,2.624,15.554-1.678-.2-22.048,8.091-22.074,8.01a72.715,72.715,0,0,1-3.17-21.269C99.4,137.808,121.06,136.375,122.011,135.473Z" transform="translate(-97.408 -135.47)" fill="#8d254f"/>
          <path id="Trazado_645991" data-name="Trazado 645991" d="M121.688,135.809c-.005-.012,2.3,15.382,3.416,15.112.876-1.019-22.082,7.986-22.074,8.01-1.745.553-6.569-20.487-4.75-20.743C106.115,137.408,114.006,137.347,121.688,135.809Z" transform="translate(-97.877 -135.365)" fill="#a13d68"/>
          <g id="Grupo_1034399" data-name="Grupo 1034399" transform="translate(15.825 3.353)">
            <path id="Trazado_645992" data-name="Trazado 645992" d="M112.59,146.71a.624.624,0,0,1,.85.472l.052.22c.263-.083.528-.164.791-.245l.064.269q-1.081.334-2.159.688l-.122-.5A.747.747,0,0,1,112.59,146.71Zm.067.279a.437.437,0,0,0-.3.542l.051.212q.4-.128.8-.253l-.05-.21A.367.367,0,0,0,112.657,146.989Z" transform="translate(-109.311 -135.352)" fill="#deddd7"/>
            <path id="Trazado_645993" data-name="Trazado 645993" d="M113.415,145.669c.064.282.131.563.2.845l.5.041.069.295q-1.2-.11-2.418-.232l-.01-.041q1-.77,2.016-1.5l.068.291Zm-.263.187q-.385.275-.769.558c.307.025.612.051.917.075C113.25,146.278,113.2,146.067,113.152,145.856Z" transform="translate(-109.401 -135.846)" fill="#deddd7"/>
            <path id="Trazado_645994" data-name="Trazado 645994" d="M113.488,145.334l-.249-.139a.6.6,0,0,0,.2-.529.305.305,0,0,0-.386-.244c-.531.135-.165,1.016-.884,1.212a.557.557,0,0,1-.7-.428.782.782,0,0,1,.181-.661l.244.124a.576.576,0,0,0-.139.456.283.283,0,0,0,.355.233c.478-.126.14-1.027.887-1.205a.582.582,0,0,1,.739.456A.8.8,0,0,1,113.488,145.334Z" transform="translate(-109.497 -136.139)" fill="#deddd7"/>
            <path id="Trazado_645995" data-name="Trazado 645995" d="M113.232,144.213l-.249-.141a.591.591,0,0,0,.2-.523.312.312,0,0,0-.388-.249c-.532.126-.17,1.007-.893,1.188a.566.566,0,0,1-.7-.437.761.761,0,0,1,.186-.654l.242.128a.567.567,0,0,0-.141.451.288.288,0,0,0,.356.237c.481-.117.145-1.018.9-1.183a.591.591,0,0,1,.739.466A.775.775,0,0,1,113.232,144.213Z" transform="translate(-109.579 -136.486)" fill="#deddd7"/>
            <path id="Trazado_645996" data-name="Trazado 645996" d="M111.521,142.043a.676.676,0,0,1,.858.517l.048.216.812-.183.06.263-2.223.508c-.038-.164-.075-.327-.111-.491A.684.684,0,0,1,111.521,142.043Zm.062.275a.4.4,0,0,0-.318.5l.047.207.821-.183-.047-.206A.4.4,0,0,0,111.582,142.318Z" transform="translate(-109.652 -136.793)" fill="#deddd7"/>
            <path id="Trazado_645997" data-name="Trazado 645997" d="M111.994,142.3a1.112,1.112,0,0,1-1.383-.789,1.052,1.052,0,0,1,.933-1.243,1.134,1.134,0,0,1,1.382.786A1.073,1.073,0,0,1,111.994,142.3Zm-.39-1.763a.785.785,0,0,0-.692.916.824.824,0,0,0,1.02.574.8.8,0,0,0,.694-.912A.845.845,0,0,0,111.6,140.536Z" transform="translate(-109.763 -137.344)" fill="#deddd7"/>
            <path id="Trazado_645998" data-name="Trazado 645998" d="M111.693,139.73l.055.25.859-.152.059.266q-1.118.2-2.24.4c-.039-.183-.08-.367-.119-.55a.63.63,0,0,1,.553-.768.721.721,0,0,1,.735.3l.8-.631.067.3Zm-.24.3-.056-.259a.405.405,0,0,0-.478-.321.357.357,0,0,0-.31.453l.056.263Z" transform="translate(-109.855 -137.777)" fill="#deddd7"/>
            <path id="Trazado_645999" data-name="Trazado 645999" d="M110.258,138.03l.106.506q.975-.136,1.945-.284l.059.269q-.971.151-1.945.293l.11.513-.3.046q-.138-.648-.276-1.3Z" transform="translate(-109.958 -138.03)" fill="#deddd7"/>
          </g>
          <g id="Grupo_1034400" data-name="Grupo 1034400" transform="translate(19.304 3.124)">
            <path id="Trazado_646000" data-name="Trazado 646000" d="M115.808,147.038a1.008,1.008,0,0,1-1.352-.665.931.931,0,0,1,.009-.489l.334-.092a.685.685,0,0,0-.058.5.754.754,0,0,0,1.006.482.846.846,0,0,0,.677-.944.621.621,0,0,0-.265-.4l.335-.089a.851.851,0,0,1,.216.417A1.134,1.134,0,0,1,115.808,147.038Z" transform="translate(-112.052 -135.537)" fill="#deddd7"/>
            <path id="Trazado_646001" data-name="Trazado 646001" d="M115.522,145.859a1.032,1.032,0,0,1-1.358-.686,1.1,1.1,0,0,1,.912-1.272,1.05,1.05,0,0,1,1.361.688A1.119,1.119,0,0,1,115.522,145.859Zm-.388-1.7a.821.821,0,0,0-.676.937.766.766,0,0,0,1,.5.83.83,0,0,0,.68-.931A.782.782,0,0,0,115.135,144.159Z" transform="translate(-112.142 -135.995)" fill="#deddd7"/>
            <path id="Trazado_646002" data-name="Trazado 646002" d="M115.486,143.883q-.731.177-1.461.358l-.059-.261q.713-.175,1.425-.346c.343-.084.487-.284.432-.525s-.27-.358-.613-.276l-1.429.335-.06-.261,1.466-.341a.691.691,0,0,1,.927.474C116.207,143.449,115.951,143.769,115.486,143.883Z" transform="translate(-112.271 -136.405)" fill="#deddd7"/>
            <path id="Trazado_646003" data-name="Trazado 646003" d="M113.382,141.428q1.13-.242,2.256-.485l.008.035q-.639.792-1.276,1.6l1.519-.343.058.253L113.7,143l-.008-.035q.65-.815,1.3-1.614l-1.555.337Z" transform="translate(-112.376 -136.898)" fill="#deddd7"/>
            <path id="Trazado_646004" data-name="Trazado 646004" d="M113.424,140.132l.106.474q.963-.195,1.924-.4l.058.255q-.961.2-1.924.4c.037.161.073.324.109.485l-.295.062c-.092-.407-.182-.815-.274-1.223Z" transform="translate(-112.455 -137.149)" fill="#deddd7"/>
            <path id="Trazado_646005" data-name="Trazado 646005" d="M114.372,139.6l.054.24.854-.17.058.257q-1.11.226-2.223.44c-.039-.174-.077-.348-.117-.524a.627.627,0,0,1,.549-.752.7.7,0,0,1,.728.267c.263-.211.528-.423.792-.633l.065.291Zm-.238.3-.055-.249a.387.387,0,0,0-.474-.295.355.355,0,0,0-.308.444l.055.25Z" transform="translate(-112.5 -137.587)" fill="#deddd7"/>
            <path id="Trazado_646006" data-name="Trazado 646006" d="M114.2,138.265l.787-.143.058.257c-.259.05-.52.1-.781.144q-.65.456-1.3.914l-.065-.3q.511-.346,1.02-.69-.619-.143-1.239-.3l-.066-.3Q113.408,138.071,114.2,138.265Z" transform="translate(-112.614 -137.855)" fill="#deddd7"/>
          </g>
          <path id="Trazado_646007" data-name="Trazado 646007" d="M102.4,146.311a4.474,4.474,0,0,0,5.674,3.38,4.558,4.558,0,0,0-2.021-8.889A4.48,4.48,0,0,0,102.4,146.311Zm3.779-4.864c.115,0,.376.288.675.863-.162.018-.322.026-.487.056s-.316.076-.474.115c.047-.646.182-.994.286-1.035Zm4.679,2.925h0c0,.1-.274.356-.85.661-.024-.151-.037-.3-.071-.449s-.086-.291-.131-.436C110.461,144.173,110.816,144.279,110.862,144.372Zm-1.565.36a5.587,5.587,0,0,1,.1.593c-.234.1-.506.2-.8.3-.045-.254-.092-.494-.139-.7s-.109-.447-.178-.7c.31-.035.6-.063.853-.075A5.434,5.434,0,0,1,109.3,144.732Zm-1.493.342c.062.269.109.517.152.76-.245.071-.5.143-.778.211s-.537.12-.789.169c-.071-.242-.139-.494-.2-.77s-.11-.532-.152-.779c.249-.067.5-.132.785-.193s.541-.106.792-.148C107.678,144.561,107.743,144.806,107.8,145.074Zm.113,3.977h0c-.114.01-.388-.246-.71-.809.16-.034.316-.056.477-.1s.309-.107.462-.161C108.126,148.627,108.016,149,107.916,149.051Zm-.389-1.546c-.211.056-.419.094-.627.128-.1-.231-.207-.5-.309-.791.266-.054.516-.11.736-.165s.466-.126.726-.206c.038.3.068.582.081.83A6.335,6.335,0,0,1,107.527,147.505Zm-4.458-1.344h0c0-.119.276-.4.87-.714.025.165.041.327.079.5s.1.321.143.481C103.491,146.4,103.118,146.268,103.07,146.162Zm1.606-.371a5.869,5.869,0,0,1-.1-.641c.24-.1.517-.2.817-.295.045.267.094.519.144.739s.115.468.19.727c-.312.045-.605.076-.865.09A6.2,6.2,0,0,1,104.676,145.791Zm1.271-1.781c-.034-.308-.056-.595-.063-.847.2-.059.406-.117.621-.157s.424-.062.634-.081c.1.231.191.5.286.783-.267.041-.52.085-.743.131S106.209,143.941,105.946,144.009Zm-.728-1.327c-.145.051-.289.106-.428.168a2.739,2.739,0,0,1,.49-.853A5.478,5.478,0,0,0,105.218,142.682Zm.009.717c.014.265.037.531.068.791-.254.077-.511.164-.762.258a5.374,5.374,0,0,1,.051-.724A5.368,5.368,0,0,1,105.227,143.4Zm-1.366,1.328a5.827,5.827,0,0,0-.62.333,2.864,2.864,0,0,1,.612-.8C103.849,144.412,103.853,144.569,103.861,144.727Zm-.161,2.345a5.75,5.75,0,0,0,.7.031c.062.147.127.289.2.427A2.833,2.833,0,0,1,103.7,147.072Zm1.429-.009c.267-.025.534-.059.8-.1.085.249.179.5.282.744a5.249,5.249,0,0,1-.72-.013A5.292,5.292,0,0,1,105.129,147.063Zm1.381,1.294a5.7,5.7,0,0,0,.351.592,2.741,2.741,0,0,1-.81-.558C106.2,148.387,106.355,148.373,106.509,148.357Zm2.292-.638c.141-.066.279-.131.411-.2a3.108,3.108,0,0,1-.443.879A6.209,6.209,0,0,0,108.8,147.719Zm-.03-.7c-.02-.254-.048-.511-.081-.76.248-.086.5-.181.741-.282a5.3,5.3,0,0,1-.039.684A6.148,6.148,0,0,1,108.772,147.023Zm1.313-1.333a6.5,6.5,0,0,0,.6-.331,3,3,0,0,1-.588.762C110.1,145.979,110.092,145.835,110.084,145.69Zm.191-2.123a6.516,6.516,0,0,0-.681-.039c-.056-.134-.114-.266-.177-.392A2.99,2.99,0,0,1,110.275,143.567Zm-1.4-.018c-.263.016-.529.039-.79.069-.077-.24-.162-.482-.255-.72a5.967,5.967,0,0,1,.715.052A5.138,5.138,0,0,1,108.879,143.548Zm-1.318-1.289a5.87,5.87,0,0,0-.32-.595,3.069,3.069,0,0,1,.778.6C107.87,142.255,107.717,142.255,107.561,142.259Zm-3.328.131a4.446,4.446,0,0,0-.282.909,4.447,4.447,0,0,0-.735.608A3.808,3.808,0,0,1,104.233,142.39Zm-.056,5.732a4.416,4.416,0,0,0,.926.229,4.492,4.492,0,0,0,.646.7A3.815,3.815,0,0,1,104.176,148.122Zm5.593-.224a4.839,4.839,0,0,0,.245-.882,5.307,5.307,0,0,0,.7-.618A4.258,4.258,0,0,1,109.77,147.9Zm.084-5.281a5.2,5.2,0,0,0-.9-.253,4.726,4.726,0,0,0-.6-.688A4.263,4.263,0,0,1,109.854,142.617Z" transform="translate(-96.511 -133.833)" fill="#deddd7"/>
          <path id="Trazado_646008" data-name="Trazado 646008" d="M100.156,138.807a.974.974,0,0,1,1,.876.913.913,0,0,1-.749,1.069.945.945,0,0,1-1.018-.868A.926.926,0,0,1,100.156,138.807Z" transform="translate(-97.41 -134.437)" fill="#deddd7"/>
        </g>
        <path id="Trazado_646009" data-name="Trazado 646009" d="M121.631,154.659A27.531,27.531,0,0,0,107.377,134.8l16.52,1.327,2.123,15.67Z" transform="translate(-74.676 -6.794)" fill="#9fc3c7"/>
        <path id="Trazado_646010" data-name="Trazado 646010" d="M132.921,79.079s3.621-22.412,14.654-25.342,15.688,1.206,18.275-3.965-10.344-20.344-33.791-7.931a46.4,46.4,0,0,0-16.22,67.942s8.237-1.91,20.866,4.64c0,0-19.128-20.515-8.784-39.48A5.9,5.9,0,0,1,132.921,79.079Z" transform="translate(-74.72 -37.076)" fill="#223963"/>
        <path id="Trazado_646011" data-name="Trazado 646011" d="M130.516,54.625c-4.816,5.522-14.541,25.943-5.346,42.494" transform="translate(-70.343 -31.638)" fill="none" stroke="#000a29" stroke-miterlimit="10" stroke-width="0.5"/>
        <path id="Trazado_646012" data-name="Trazado 646012" d="M133.045,47.061a39.282,39.282,0,0,0-14.052,19.1,51.388,51.388,0,0,0-2.135,23.778" transform="translate(-71.898 -33.982)" fill="none" stroke="#000a29" stroke-miterlimit="10" stroke-width="0.5"/>
        <path id="Trazado_646013" data-name="Trazado 646013" d="M117.907,53.672a49.519,49.519,0,0,0-5.884,23.764,42.768,42.768,0,0,0,7.2,23.305" transform="translate(-73.238 -31.933)" fill="none" stroke="#000a29" stroke-miterlimit="10" stroke-width="0.5"/>
        <path id="Trazado_646014" data-name="Trazado 646014" d="M172.316,116.837c2.842.3,28.418,56.534,28.418,56.534l-13.46,10.47s-23.184-30.212-27.221-48.608Z" transform="translate(-58.353 -12.36)" fill="#7aacb2"/>
        <path id="Trazado_646015" data-name="Trazado 646015" d="M187.274,179.489s-23.184-30.212-27.221-48.608" transform="translate(-58.353 -8.008)" fill="none" stroke="#428992" stroke-miterlimit="10" stroke-width="0.5"/>
        <path id="Trazado_646016" data-name="Trazado 646016" d="M184.107,183.611l-8.526-11.666a153.7,153.7,0,0,0,13.012-9.722c4.936-4.337,8.226-7.478,8.226-7.478s4.188,9.273,6.432,11.067S194.726,179.722,184.107,183.611Z" transform="translate(-53.541 -0.613)" fill="#9fc3c7"/>
        <path id="Trazado_646017" data-name="Trazado 646017" d="M157.436,202.1l.362-12.771a135.9,135.9,0,0,0,14.362.254c5.8-.358,9.8-.769,9.8-.769s-2.1,8.749-1.5,11.219S166.964,205.139,157.436,202.1Z" transform="translate(-59.164 9.946)" fill="#7aacb2"/>
        <path id="Trazado_646018" data-name="Trazado 646018" d="M107.377,134.8a27.531,27.531,0,0,1,14.254,19.863" transform="translate(-74.676 -6.794)" fill="none" stroke="#428992" stroke-miterlimit="10" stroke-width="0.5"/>
        <path id="Trazado_646019" data-name="Trazado 646019" d="M126.844,76.075s3.621-22.412,14.654-25.342,15.688,1.206,18.275-3.965" transform="translate(-68.644 -34.073)" fill="none" stroke="#000a29" stroke-miterlimit="10" stroke-width="0.5"/>
        <path id="Trazado_646020" data-name="Trazado 646020" d="M159.221,42.556c8.966,4.827,3.449,24.136,1.9,38.791s5.69,21.206,5.69,21.206" transform="translate(-58.611 -35.378)" fill="none" stroke="#490a00" stroke-miterlimit="10" stroke-width="0.5"/>
        <path id="Trazado_646021" data-name="Trazado 646021" d="M110.011,120.219s12.541-6.56,19.1-14.278" transform="translate(-73.86 -15.736)" fill="none" stroke="#deddd7" stroke-miterlimit="10" stroke-width="0.5"/>
        <path id="Trazado_646022" data-name="Trazado 646022" d="M113.675,117.922c23.507,20.864,52.069,20.852,52.069,20.852s16.844-20.141,18.911-31.339" transform="translate(-72.724 -15.273)" fill="none" stroke="#dc7121" stroke-miterlimit="10" stroke-width="0.5"/>
        <g id="Grupo_1034404" data-name="Grupo 1034404" transform="translate(48.341 4.443)">
          <g id="Grupo_1034402" data-name="Grupo 1034402" transform="translate(32.348)">
            <path id="Trazado_646023" data-name="Trazado 646023" d="M149.664,43.656c-.262.007-.491-.4-.854-.79a1.738,1.738,0,0,0-1.546-.5c-1.5.054-2.656,1.318-3.1,1.045-.228-.119-.227-.661.2-1.345a3.571,3.571,0,0,1,2.78-1.593,3.074,3.074,0,0,1,1.919.472,2.29,2.29,0,0,1,.96,1.354C150.215,43.179,149.91,43.663,149.664,43.656Z" transform="translate(-144.013 -40.468)" fill="#c26c9e"/>
          </g>
          <g id="Grupo_1034403" data-name="Grupo 1034403" transform="translate(0 1.192)">
            <path id="Trazado_646024" data-name="Trazado 646024" d="M123.258,69.341c.088.059-.305.639-1.365.561a2.683,2.683,0,0,1-1.649-.813,3.61,3.61,0,0,1-.914-2.258,9.761,9.761,0,0,1,1.764-5.5c1.1-1.771,13.366-19.956,13.366-19.956l1.742,2.2s-4.423,5.688-9.842,13.318c-2.6,3.852-5.615,7.174-5.689,9.9a2.23,2.23,0,0,0,1.373,2.383C122.732,69.441,123.186,69.21,123.258,69.341Z" transform="translate(-119.317 -41.378)" fill="#c26c9e"/>
          </g>
          <path id="Trazado_646025" data-name="Trazado 646025" d="M164.7,43.086l-17-.781s4.274,11.951,12.419,11.117S164.7,43.086,164.7,43.086Zm-1.272,7.179a4.248,4.248,0,0,1-3.448,1.785,6.471,6.471,0,0,1-.669.034c-4.747,0-8.01-5.329-9.461-8.3l13.822.635C164.085,45.966,164.465,48.6,163.43,50.265Z" transform="translate(-110.521 -39.899)" fill="#c26c9e"/>
          <path id="Trazado_646026" data-name="Trazado 646026" d="M149.455,42.053l-18.824-.865s4.413,15.572,16,13.97S149.455,42.053,149.455,42.053ZM151,51.3c-.541,1.313-2.075,2.152-4.557,2.5a10.723,10.723,0,0,1-1.462.1c-7.05,0-10.93-7.627-12.369-11.236l16.109.74C149.9,45.135,151.972,48.95,151,51.3Z" transform="translate(-115.811 -40.245)" fill="#c26c9e"/>
          <path id="Trazado_646027" data-name="Trazado 646027" d="M158.805,51.735a6.471,6.471,0,0,0,.669-.034,4.248,4.248,0,0,0,3.448-1.785c1.035-1.662.655-4.3.244-5.846l-13.822-.635C150.8,46.406,154.058,51.735,158.805,51.735Z" transform="translate(-110.013 -39.549)" fill="#464038" opacity="0.6" style="mix-blend-mode: multiply;isolation: isolate"/>
          <path id="Trazado_646028" data-name="Trazado 646028" d="M144.515,53.547a10.722,10.722,0,0,0,1.462-.1c2.482-.343,4.016-1.183,4.557-2.5.968-2.346-1.1-6.162-2.279-7.9l-16.109-.74C133.586,45.92,137.465,53.547,144.515,53.547Z" transform="translate(-115.342 -39.897)" fill="#464038" opacity="0.6" style="mix-blend-mode: multiply;isolation: isolate"/>
        </g>
      </g>
      <g id="Grupo_1034438" data-name="Grupo 1034438" transform="translate(248.678 6.042)">
        <ellipse id="Elipse_7011" data-name="Elipse 7011" cx="65.376" cy="12.639" rx="65.376" ry="12.639" transform="translate(102.983 263.469)" fill="#c4c2b7"/>
        <ellipse id="Elipse_7012" data-name="Elipse 7012" cx="65.376" cy="12.639" rx="65.376" ry="12.639" transform="translate(0 263.469)" fill="#c4c2b7"/>
        <path id="Trazado_646029" data-name="Trazado 646029" d="M344.886,90.488q-1.479-3.865-2.96-7.73c-9.71,7.265-21.57,12.266-33.685,11.713s-24.29-7.441-29.068-18.589L277.1,84.85c5.636,8.6,14.923,14.5,24.915,16.911s20.62,1.495,30.409-1.647a29.336,29.336,0,0,0,5.242-2.146,32.5,32.5,0,0,0,6.86-5.471,1.928,1.928,0,0,0,.541-.736A1.952,1.952,0,0,0,344.886,90.488Z" transform="translate(-188.348 15.6)" fill="#d18e5b"/>
        <path id="Trazado_646030" data-name="Trazado 646030" d="M272.344,178.122c-5.685.739-10.6,2.65-10.411,4.164s17.99,1.516,19.5-1.324S278.03,177.381,272.344,178.122Z" transform="translate(-193.049 47.199)" fill="#c92e12"/>
        <path id="Trazado_646031" data-name="Trazado 646031" d="M289.4,176.642c6.074-.313,11.544.668,11.607,2.194s-18.553,4.788-20.624,2.267S283.328,176.955,289.4,176.642Z" transform="translate(-187.477 46.805)" fill="#c92e12"/>
        <path id="Trazado_646032" data-name="Trazado 646032" d="M326.81,81.166a105.4,105.4,0,0,1-46.337,23.969,84.247,84.247,0,0,1,2.722,9.759c11.5-2.282,22.028-7.942,32.092-13.958A94.829,94.829,0,0,0,333.405,85.99Z" transform="translate(-187.302 17.237)" fill="#a65925"/>
        <path id="Trazado_646033" data-name="Trazado 646033" d="M310.52,19.213a13.5,13.5,0,0,0-4.486-5.262c-3.389-2.147-15.783-.787-18.951,4.919-3.816-1.508-12.4.1-16.122,1.826-6.779,3.133-12.973,7.836-17,14.123s-5.71,14.253-3.63,21.426c.716,2.473,1.855,4.815,2.484,7.313,2.225,8.844-2.214,17.96-7.413,25.454a50.761,50.761,0,0,0-5.2,8.373,29.639,29.639,0,0,0-2.021,7.624,34.075,34.075,0,0,0,.8,15,20.332,20.332,0,0,0,8.99,11.75,25.838,25.838,0,0,0,7.908,2.647c10.542,2.026,22.416.63,30.325-6.629,6.261-5.746,9.163-14.272,10.814-22.609s2.312-16.93,5.2-24.926c1.666-4.621,4.046-8.952,5.939-13.487A80.108,80.108,0,0,0,313.96,39.5C314.27,32.568,313.758,25.353,310.52,19.213Z" transform="translate(-200.554 -3.89)" fill="#6b0057"/>
        <path id="Trazado_646034" data-name="Trazado 646034" d="M284.762,19a45.467,45.467,0,0,1,30.594,34.3,23.518,23.518,0,0,1,.385,7.438c-1.1,8.23-8.466,14.371-16.266,17.216-3.537,1.289-7.428,2.188-10.062,4.875a16.05,16.05,0,0,0-3.319,5.828,46.945,46.945,0,0,0-2.862,14.707,26.109,26.109,0,0,1-5.491-.836,1.778,1.778,0,0,1-1.028-.548,1.846,1.846,0,0,1-.231-1.167q.21-7.889.421-15.778a36.739,36.739,0,0,1-8.361-4.074c-4.585-2.96-7.225-9.825-7.225-9.825s-7.19,1.69-7.658-2.376a27.54,27.54,0,0,1,13.116-25.777C283.936,32.157,284.762,19,284.762,19Z" transform="translate(-195.646 -2.027)" fill="#d9a278"/>
        <g id="Grupo_1034406" data-name="Grupo 1034406" transform="translate(57.902 21.698)">
          <path id="Trazado_646035" data-name="Trazado 646035" d="M281.392,82.12c.283-1.611.5-3.49-.627-4.678a5.032,5.032,0,0,0-2.115-1.141c-3.918-1.316-8.033-2.164-11.663-4.139s-6.814-5.422-7.046-9.548a14.445,14.445,0,0,1,2.188-7.531A42.573,42.573,0,0,1,268,46.818c3.066-3.376,6.673-6.256,9.5-9.835a30.131,30.131,0,0,0,6.1-14.376c-1.749,4.8-6.092,12.487-16.825,19.257a27.54,27.54,0,0,0-13.116,25.777c.468,4.066,7.658,2.376,7.658,2.376s2.641,6.865,7.225,9.825a36.74,36.74,0,0,0,8.361,4.074q-.21,7.889-.421,15.778a1.848,1.848,0,0,0,.231,1.167,1.778,1.778,0,0,0,1.028.548,25.95,25.95,0,0,0,3.923.681C279.332,96.014,280.234,88.734,281.392,82.12Z" transform="translate(-253.548 -22.607)" fill="#d18e5b"/>
        </g>
        <path id="Trazado_646036" data-name="Trazado 646036" d="M285.1,18.707c-2.7,6.635-5.549,13.494-10.807,18.359-2.32,2.147-7,5.568-9.455,7.565-6.5,5.3-9.106,11.173-10.728,19.406a36.691,36.691,0,0,0,3.729,24.385" transform="translate(-195.681 -2.118)" fill="none" stroke="#480033" stroke-miterlimit="10" stroke-width="1"/>
        <path id="Trazado_646037" data-name="Trazado 646037" d="M271.449,44.137a1.784,1.784,0,1,1-3.448,0,1.784,1.784,0,1,1,3.448,0Z" transform="translate(-191.167 5.068)" fill="#490a00"/>
        <path id="Trazado_646038" data-name="Trazado 646038" d="M293.366,38.062a1.784,1.784,0,1,1-3.448,0,1.784,1.784,0,1,1,3.448,0Z" transform="translate(-184.376 3.186)" fill="#490a00"/>
        <path id="Trazado_646039" data-name="Trazado 646039" d="M277.345,31s.829,13.4,4.695,14.7,6.074-1.481,2.324-4.71S277.345,31,277.345,31Z" transform="translate(-188.272 1.691)" fill="#e49153"/>
        <path id="Trazado_646040" data-name="Trazado 646040" d="M273.026,36.886a4.462,4.462,0,0,0-3.6-.521,7.845,7.845,0,0,0-3.22,1.851,12.8,12.8,0,0,0-3.661,5.72" transform="translate(-192.858 3.305)" fill="none" stroke="#480033" stroke-miterlimit="10" stroke-width="0.5"/>
        <path id="Trazado_646041" data-name="Trazado 646041" d="M285.423,32.324c.728-2.135,3.355-3.175,5.566-2.719a9.845,9.845,0,0,1,5.42,3.822" transform="translate(-185.768 1.227)" fill="none" stroke="#480033" stroke-miterlimit="10" stroke-width="0.5"/>
        <g id="Grupo_1034408" data-name="Grupo 1034408" transform="translate(89.741 50.957)">
          <path id="Trazado_646042" data-name="Trazado 646042" d="M287.263,44.944l-9.408,1.627s2.549,9.721,6.4,9.377S287.263,44.944,287.263,44.944Z" transform="translate(-277.855 -44.944)" fill="#602724"/>
          <g id="Grupo_1034407" data-name="Grupo 1034407" transform="translate(0 0.254)">
            <path id="Trazado_646043" data-name="Trazado 646043" d="M285.8,45.138a4.615,4.615,0,0,1-.848,1.919,4.36,4.36,0,0,1-3.3,1.673,9.143,9.143,0,0,1-2.942-.592c-.132-.042-.265-.092-.4-.135-.293-.893-.451-1.492-.451-1.492Z" transform="translate(-277.855 -45.138)" fill="#fff"/>
          </g>
        </g>
        <path id="Trazado_646044" data-name="Trazado 646044" d="M287.285,84.114l-24.606,8.3a136.709,136.709,0,0,1,5.051,31.567c10.249-.981,19.5-2.711,28.8-7.115C295.106,106.716,288.49,89.511,287.285,84.114Z" transform="translate(-192.816 18.151)" fill="#d9a278"/>
        <g id="Grupo_1034409" data-name="Grupo 1034409" transform="translate(69.863 102.265)">
          <path id="Trazado_646045" data-name="Trazado 646045" d="M287.285,84.114l-24.606,8.3a136.822,136.822,0,0,1,4.709,26.188,42.906,42.906,0,0,0,27.105-10.965C291.969,98.409,288.169,88.078,287.285,84.114Z" transform="translate(-262.679 -84.114)" fill="#d18e5b"/>
        </g>
        <path id="Trazado_646046" data-name="Trazado 646046" d="M274.258,76.063s4.713,2.717,7.736.787l2.058-.787s12.7,15.343,12.892,18.175-3.218,6.232-3.218,6.232l3.226,7.39s-14.584,9.087-32.759,5.68l-2.84-21s1.868-14.768,6.8-16.48S274.258,76.063,274.258,76.063Z" transform="translate(-193.227 15.42)" fill="#011b4b"/>
        <path id="Trazado_646047" data-name="Trazado 646047" d="M269.178,94.768a10.614,10.614,0,0,0,13.029-.541" transform="translate(-190.802 21.285)" fill="none" stroke="#374c72" stroke-miterlimit="10" stroke-width="0.5"/>
        <path id="Trazado_646048" data-name="Trazado 646048" d="M268.519,112.2s12.689,4.583,28.644-5.008c0,0,8.762,9.907,12.169,39.251s-5.68,58.118-5.68,58.118l-15.712-.946s4.733-41.459,3.217-61.526l-3.028.946s-3.589,50.736-8.326,63.609H266.359s-2.491-53.163-6.357-66.621S268.519,112.2,268.519,112.2Z" transform="translate(-193.878 25.302)" fill="#ff763f"/>
        <g id="Grupo_1034410" data-name="Grupo 1034410" transform="translate(65.376 137.502)">
          <path id="Trazado_646049" data-name="Trazado 646049" d="M279.2,149.937c-1.125-6.542-3.086-13.218-7.548-18.133a28.036,28.036,0,0,1-4.329,7.71c-2.143-1.567-2.574-4.577-2.48-7.229a31.256,31.256,0,0,1,8.606-20.319,22.1,22.1,0,0,1-4.934-.951S256.135,125.38,260,138.838s6.357,66.621,6.357,66.621h7.071c1.009-5.862,2.979-11.516,4.405-17.294A93.76,93.76,0,0,0,279.2,149.937Z" transform="translate(-259.254 -111.015)" fill="#ff6020"/>
          <path id="Trazado_646050" data-name="Trazado 646050" d="M286.569,196.251a193.356,193.356,0,0,1,2.831-22.167c2.146-12.754,6.07-29.825-.282-42.075a25.478,25.478,0,0,0-5.236,2.542l.489-.153c1.516,20.067-3.217,61.526-3.217,61.526Z" transform="translate(-252.468 -104.509)" fill="#ff6020"/>
        </g>
        <path id="Trazado_646051" data-name="Trazado 646051" d="M270.79,123.274c-.17,4.017-.667,8.182-2.793,11.6a13.586,13.586,0,0,1-4.734,4.574" transform="translate(-192.635 30.286)" fill="none" stroke="#c92e12" stroke-miterlimit="10" stroke-width="0.5"/>
        <path id="Trazado_646052" data-name="Trazado 646052" d="M274.942,199.149c4.737-12.874,8.326-63.609,8.326-63.609l10.791-4.164" transform="translate(-189.016 32.796)" fill="none" stroke="#c92e12" stroke-miterlimit="10" stroke-width="0.5"/>
        <path id="Trazado_646053" data-name="Trazado 646053" d="M282.685,113.188a146.218,146.218,0,0,1,2.419,20.383.934.934,0,0,1-.058.466.944.944,0,0,1-.506.377l-2.7,1.172" transform="translate(-186.878 27.16)" fill="none" stroke="#c92e12" stroke-miterlimit="10" stroke-width="0.5"/>
        <path id="Trazado_646054" data-name="Trazado 646054" d="M281.734,118.266l2.651-.753" transform="translate(-186.912 28.5)" fill="none" stroke="#c92e12" stroke-miterlimit="10" stroke-width="0.5"/>
        <path id="Trazado_646055" data-name="Trazado 646055" d="M281.589,121.355l3.588-.982" transform="translate(-186.957 29.387)" fill="none" stroke="#c92e12" stroke-miterlimit="10" stroke-width="0.5"/>
        <path id="Trazado_646056" data-name="Trazado 646056" d="M282.176,123.783a6.7,6.7,0,0,1,3.584-.8" transform="translate(-186.775 30.193)" fill="none" stroke="#c92e12" stroke-miterlimit="10" stroke-width="0.5"/>
        <path id="Trazado_646057" data-name="Trazado 646057" d="M283.028,126.67a14.212,14.212,0,0,1,3.036-.925" transform="translate(-186.511 31.051)" fill="none" stroke="#c92e12" stroke-miterlimit="10" stroke-width="0.5"/>
        <path id="Trazado_646058" data-name="Trazado 646058" d="M270.946,112.169q-.906,3.582-1.813,7.166" transform="translate(-190.816 26.844)" fill="none" stroke="#c92e12" stroke-miterlimit="10" stroke-width="0.5"/>
        <path id="Trazado_646059" data-name="Trazado 646059" d="M276.126,112.155a41.1,41.1,0,0,0,.148,6.437" transform="translate(-188.669 26.84)" fill="none" stroke="#c92e12" stroke-miterlimit="10" stroke-width="0.5"/>
        <path id="Trazado_646060" data-name="Trazado 646060" d="M286.006,109.14l1.933,5.477" transform="translate(-185.588 25.906)" fill="none" stroke="#c92e12" stroke-miterlimit="10" stroke-width="0.5"/>
        <path id="Trazado_646061" data-name="Trazado 646061" d="M282.18,113.549a1.527,1.527,0,1,1-1.527-1.527A1.527,1.527,0,0,1,282.18,113.549Z" transform="translate(-187.72 26.799)" fill="#c92e12"/>
        <path id="Trazado_646062" data-name="Trazado 646062" d="M266.565,185.14s-2.29,37.484-1.721,39.755,28.018,10.791,31.237,8.519-21.772-16.66-21.772-16.66L278.1,185.14Z" transform="translate(-192.174 49.457)" fill="#d9a278"/>
        <g id="Grupo_1034411" data-name="Grupo 1034411" transform="translate(72.936 234.597)">
          <path id="Trazado_646063" data-name="Trazado 646063" d="M271.388,196.985a6.656,6.656,0,0,1,2.364-1.075,17.01,17.01,0,0,0,3.144-1.443l1.119-9.326H266.48s-.927,15.2-1.455,26.825a117.326,117.326,0,0,0,4.942-12.352A5.721,5.721,0,0,1,271.388,196.985Z" transform="translate(-265.025 -185.14)" fill="#d18e5b"/>
        </g>
        <path id="Trazado_646064" data-name="Trazado 646064" d="M282.176,182.007s-.018,38.179,1.026,40.262,30.954,1.7,33.6,0-21.582-7.641-21.582-7.641l.757-29.813Z" transform="translate(-186.775 48.486)" fill="#d9a278"/>
        <g id="Grupo_1034412" data-name="Grupo 1034412" transform="translate(95.403 230.493)">
          <path id="Trazado_646065" data-name="Trazado 646065" d="M295.826,190.939l.156-6.124-13.8-2.808s0,8.113.093,17.061a16,16,0,0,1,.93-1.3C286.263,193.966,291.032,192.216,295.826,190.939Z" transform="translate(-282.177 -182.007)" fill="#d18e5b"/>
        </g>
        <path id="Trazado_646066" data-name="Trazado 646066" d="M263.675,191.931,261.932,181.9s14.961,2.37,19.5-2.79c0,0,3.691,8.848,2.411,11.121s-11.959,2.44-14.308,1.7A14.293,14.293,0,0,0,263.675,191.931Z" transform="translate(-193.048 47.587)" fill="#ff8c5e"/>
        <path id="Trazado_646067" data-name="Trazado 646067" d="M301.158,188.506l.092-10.2s-15.238,5.076-20.877.824c0,0-2.333,9.393-.6,11.4s12.929.214,15.256-.943A16.1,16.1,0,0,1,301.158,188.506Z" transform="translate(-187.718 47.338)" fill="#ff8c5e"/>
        <path id="Trazado_646068" data-name="Trazado 646068" d="M252.643,139.927q-5.877,14.08-11.193,28.385" transform="translate(-199.395 35.446)" fill="none" stroke="#bfbdb1" stroke-miterlimit="10" stroke-width="1"/>
        <path id="Trazado_646069" data-name="Trazado 646069" d="M241.882,157.253a20.363,20.363,0,0,1,14.065-2.873,15.027,15.027,0,0,1,11.124,8.632A18.5,18.5,0,0,1,268.291,169c.4,6.838-1.423,13.585-3.106,20.223Q261,205.755,257.8,222.512c-.718,3.765-1.626,7.912-4.725,10.167s-7.33,1.843-11.131,1.33l-7.985-1.081a30.338,30.338,0,0,1-7.2-1.577c-7.161-2.849-19.558-6.633,15.129-74.1" transform="translate(-206.473 39.834)" fill="#00bd5b"/>
        <g id="Grupo_1034413" data-name="Grupo 1034413" transform="translate(29.859 193.922)">
          <path id="Trazado_646070" data-name="Trazado 646070" d="M264.1,169a18.5,18.5,0,0,0-1.219-5.991,15.027,15.027,0,0,0-11.124-8.632,20.363,20.363,0,0,0-14.065,2.873c-2.007,3.9-3.848,7.582-5.55,11.07a11.925,11.925,0,0,1,5.542-.143c3.757.849,7.045,4.232,6.969,8.083,4.176-2.7,10.115-1,13.429,2.71a17.908,17.908,0,0,1,3.715,7.079C263.195,180.439,264.43,174.754,264.1,169Z" transform="translate(-232.139 -154.088)" fill="#52dd90"/>
        </g>
        <path id="Trazado_646071" data-name="Trazado 646071" d="M244.043,156.793a4.247,4.247,0,0,1,4.067,2.845,10.7,10.7,0,0,1,.344,5.26c-1.2,10.055-5.376,19.479-9.5,28.728-3.782,8.48-7.563,16.963-11.676,25.286a6.258,6.258,0,0,1-1.687,2.374,2.168,2.168,0,0,1-2.7.046" transform="translate(-205.147 40.667)" fill="none" stroke="#009a47" stroke-miterlimit="10" stroke-width="1"/>
        <path id="Trazado_646072" data-name="Trazado 646072" d="M255.133,180.569l-4.069,9.337-10.813-3.09,2.98-8.965,3.116.718a2.463,2.463,0,0,0-.068.551,2.525,2.525,0,0,0,2.524,2.524,2.5,2.5,0,0,0,2.44-1.958Z" transform="translate(-199.766 47.198)" fill="#007247"/>
        <path id="Trazado_646073" data-name="Trazado 646073" d="M244.229,212.422a7.856,7.856,0,0,0-5.929-5.295,8.366,8.366,0,0,0-7.583,2.539,8.459,8.459,0,0,0-.745.955,10.366,10.366,0,0,0-2.7,6,7.653,7.653,0,0,0,4.291,7.591c2.662,1.115,5.808.3,8.2-1.323C243.114,220.609,245.4,216.313,244.229,212.422Z" transform="translate(-203.797 56.227)" fill="#005947"/>
        <path id="Trazado_646074" data-name="Trazado 646074" d="M259.256,141.287A295.729,295.729,0,0,1,246.47,171.7" transform="translate(-197.839 35.868)" fill="none" stroke="#bfbdb1" stroke-miterlimit="10" stroke-width="1"/>
        <path id="Trazado_646075" data-name="Trazado 646075" d="M251.688,142.34c-.379-3.028.568-7,4.923-8.33s3.218,7.194,3.218,7.194,3.368,6.09-1.023,9.533-6.51-1.237-5.892-4.5S251.688,142.34,251.688,142.34Z" transform="translate(-196.246 33.569)" fill="#464038"/>
        <path id="Trazado_646076" data-name="Trazado 646076" d="M272.768,74.144c4.024.183-.46,23.49-5.241,40.521s-4.591,31.039-3.266,37.287-2.84,7.761-2.84,7.761-.35-6.37-4.7-5.044-3.816,3.152-3.437,6.18-4.164,1.7-4.354-1.324c0,0-.947,1.324-2.083-.757s.19-7.762,5.68-11.926c0,0-.947-13.1,3.975-37.5S268.59,73.955,272.768,74.144Z" transform="translate(-197.839 15.06)" fill="#d9a278"/>
        <path id="Trazado_646077" data-name="Trazado 646077" d="M280.683,51.807c0,2.168-4.031,3.926-9,3.926s-9-1.758-9-3.926,4.031-3.926,9-3.926S280.683,49.639,280.683,51.807Z" transform="translate(-192.816 6.923)" fill="#d98b78"/>
        <path id="Trazado_646078" data-name="Trazado 646078" d="M301.935,42.661c1.083,1.878-1.044,5.136-4.752,7.276s-7.595,2.355-8.678.478,1.044-5.136,4.752-7.276S300.851,40.784,301.935,42.661Z" transform="translate(-184.901 4.909)" fill="#d98b78"/>
        <path id="Trazado_646079" data-name="Trazado 646079" d="M371.458,34.305a4.059,4.059,0,0,0-.728-2.138,1.632,1.632,0,0,0-2.036-.486,12.482,12.482,0,0,0,2.076-5.03,5.513,5.513,0,0,0-1.737-4.959,3.592,3.592,0,0,0-4.916.331c1.212-2.17,1.839-4.954.579-7.1s-4.957-2.653-6.107-.448c1.377-1.488.411-4.207-1.471-4.959a5.224,5.224,0,0,0-5.5,1.586,3.236,3.236,0,0,0-2-3.948,5.278,5.278,0,0,0-4.676.762,15.594,15.594,0,0,0-3.437,3.493c.878-2.194-1.049-4.742-3.359-5.241s-4.687.515-6.636,1.851c-4.621,3.167-7.7,8.075-10.644,12.841-4.484,7.255-10.334,15.906-11.819,24.186,2.43,8.661,19.854,29.9,28.833,29.353a25.826,25.826,0,0,0,14.14-5.879A61.028,61.028,0,0,0,362.548,57.13C367.6,50.447,372.438,42.627,371.458,34.305Z" transform="translate(-178.447 -6.042)" fill="#320057"/>
        <path id="Trazado_646080" data-name="Trazado 646080" d="M334.964,98.28s1.153-15.2-7.83-19.8-21.627-4.8-20.708-26.88S323.97,12.55,327.5,12.99s7.527,5.267,10.583,5.267,10.183-4.289,15.24,2.224.46,33.446,3.218,35.149,6.206-10.491,6.206-10.491,8.995-5.046,9.669,4.839S361.9,56.9,361.9,56.9s-9.108,14.407-19.021,21.355c0,0,3.091,11.623,1.479,21.9Z" transform="translate(-179.275 -3.892)" fill="#ae6839"/>
        <g id="Grupo_1034414" data-name="Grupo 1034414" transform="translate(149.778 13.006)">
          <path id="Trazado_646081" data-name="Trazado 646081" d="M357.379,44.213S353.93,56.408,351.173,54.7s1.838-28.638-3.218-35.149a8.6,8.6,0,0,0-6.673-3.584A44.161,44.161,0,0,1,343.7,39.358a26.893,26.893,0,0,1-2.274,7.46c-2.791,5.629-8.072,9.514-12.86,13.581a14.014,14.014,0,0,0-4.336,5.216c-1.137,2.89-.346,6.211,1.109,8.954s3.525,5.106,5.17,7.739a35.347,35.347,0,0,1,4.941,16.215l3.543.706c1.612-10.279-1.479-21.9-1.479-21.9,9.913-6.946,19.021-21.354,19.021-21.354s11.188,2.964,10.513-6.92S357.379,44.213,357.379,44.213Z" transform="translate(-323.689 -15.971)" fill="#a65925"/>
        </g>
        <path id="Trazado_646082" data-name="Trazado 646082" d="M315.829,33.028a1.784,1.784,0,1,1-3.448,0,1.784,1.784,0,1,1,3.448,0Z" transform="translate(-177.415 1.626)" fill="#464038"/>
        <path id="Trazado_646083" data-name="Trazado 646083" d="M332.022,36.351a1.784,1.784,0,1,1-3.448,0,1.784,1.784,0,1,1,3.448,0Z" transform="translate(-172.397 2.655)" fill="#464038"/>
        <path id="Trazado_646084" data-name="Trazado 646084" d="M310.215,28.153a10.87,10.87,0,0,1,7.58-3.462,8.875,8.875,0,0,1,7.36,3.657" transform="translate(-178.086 -0.264)" fill="none" stroke="#23002c" stroke-miterlimit="10" stroke-width="1"/>
        <path id="Trazado_646085" data-name="Trazado 646085" d="M327.337,28.3a9.077,9.077,0,0,1,12.135,8.821" transform="translate(-172.78 0.694)" fill="none" stroke="#23002c" stroke-miterlimit="10" stroke-width="1"/>
        <path id="Trazado_646086" data-name="Trazado 646086" d="M326.052,26.189c-3.972,4.936-8.116,10.284-8.632,16.6a5.429,5.429,0,0,0,.343,2.774,2.38,2.38,0,0,0,2.227,1.446,3.163,3.163,0,0,0,1.23-.46,9.454,9.454,0,0,0,3.744-3.714,12.72,12.72,0,0,0,1.179-4.144A43.167,43.167,0,0,0,326.052,26.189Z" transform="translate(-175.864 0.201)" fill="#972f00"/>
        <path id="Trazado_646087" data-name="Trazado 646087" d="M320.98,42.492A6.929,6.929,0,0,0,323.2,44.84a3.962,3.962,0,0,0,3.188.176A5.413,5.413,0,0,0,328.927,43a6.778,6.778,0,0,0,.851-1.654" transform="translate(-174.75 4.898)" fill="none" stroke="#a62425" stroke-miterlimit="10" stroke-width="0.5"/>
        <path id="Trazado_646088" data-name="Trazado 646088" d="M356.523,39.663l-6.95,5.839" transform="translate(-165.89 4.376)" fill="none" stroke="#7c3406" stroke-miterlimit="10" stroke-width="0.5"/>
        <path id="Trazado_646089" data-name="Trazado 646089" d="M350.676,38.822c.955,3.082,3.31,5.488,5.068,8.193" transform="translate(-165.548 4.116)" fill="none" stroke="#7c3406" stroke-miterlimit="10" stroke-width="0.5"/>
        <path id="Trazado_646090" data-name="Trazado 646090" d="M338.068,203.754l-10.852,5.089-20.832,12.245c-2.436,1.432-5.021,3.026-6.156,5.613,4.368,2.347,9.719.774,14.409-.84l25.256-8.69A73.778,73.778,0,0,0,338.068,203.754Z" transform="translate(-181.181 55.225)" fill="#deddd7"/>
        <path id="Trazado_646091" data-name="Trazado 646091" d="M312.911,211.672A8.473,8.473,0,0,1,321.3,216.4" transform="translate(-177.25 57.664)" fill="none" stroke="#464038" stroke-miterlimit="10" stroke-width="0.5"/>
        <path id="Trazado_646092" data-name="Trazado 646092" d="M315.892,209.666a10.188,10.188,0,0,1,7.892,4.819" transform="translate(-176.327 57.057)" fill="none" stroke="#464038" stroke-miterlimit="10" stroke-width="0.5"/>
        <path id="Trazado_646093" data-name="Trazado 646093" d="M318.707,208.49a12.458,12.458,0,0,1,7.579,3.182" transform="translate(-175.454 56.692)" fill="none" stroke="#464038" stroke-miterlimit="10" stroke-width="0.5"/>
        <path id="Trazado_646094" data-name="Trazado 646094" d="M338.945,206.381A115.882,115.882,0,0,0,325.8,222.066a11.021,11.021,0,0,0-1.92,3.738,4,4,0,0,0,1.026,3.892c1.546,1.333,3.922.753,5.792-.065a35.049,35.049,0,0,0,19.854-24.166Z" transform="translate(-173.889 55.755)" fill="#deddd7"/>
        <path id="Trazado_646095" data-name="Trazado 646095" d="M332.075,210.685a10.671,10.671,0,0,1,9.715,1.517" transform="translate(-171.312 57.2)" fill="none" stroke="#464038" stroke-miterlimit="10" stroke-width="0.5"/>
        <path id="Trazado_646096" data-name="Trazado 646096" d="M330.407,213.533a8.352,8.352,0,0,1,9.178,1.84" transform="translate(-171.829 58.052)" fill="none" stroke="#464038" stroke-miterlimit="10" stroke-width="0.5"/>
        <path id="Trazado_646097" data-name="Trazado 646097" d="M329.075,216.24a6.97,6.97,0,0,1,7.858,1.015" transform="translate(-172.242 58.853)" fill="none" stroke="#464038" stroke-miterlimit="10" stroke-width="0.5"/>
        <path id="Trazado_646098" data-name="Trazado 646098" d="M315.859,131.376s-6.877,67.265,4.375,100.1c0,0,9.2,1.522,15.975.282l-3.539-97.113Z" transform="translate(-176.982 32.796)" fill="#ffaa26"/>
        <path id="Trazado_646099" data-name="Trazado 646099" d="M315.367,131.376s5.4,12.481,16.144,16.388c0,0,3.831,84.58,4.206,86s17.8,1.86,20.792-1.037l-5.746-98.083Z" transform="translate(-176.489 32.796)" fill="#ffc05e"/>
        <path id="Trazado_646100" data-name="Trazado 646100" d="M315.367,131.376s5.4,12.481,16.144,16.388c0,0,3.831,84.58,4.206,86" transform="translate(-176.489 32.796)" fill="none" stroke="#c97200" stroke-miterlimit="10" stroke-width="1"/>
        <path id="Trazado_646101" data-name="Trazado 646101" d="M332.838,137.779a18.844,18.844,0,0,0,13.189,10.584" transform="translate(-171.075 34.78)" fill="none" stroke="#c97200" stroke-miterlimit="10" stroke-width="0.5"/>
        <path id="Trazado_646102" data-name="Trazado 646102" d="M332.751,73.405c-1.239-4.062-22.536,12.412-22.536,12.412l5.481,14.4S337.221,88.059,332.751,73.405Z" transform="translate(-178.086 14.633)" fill="#7aacb2"/>
        <path id="Trazado_646103" data-name="Trazado 646103" d="M333.108,71.434a10.651,10.651,0,0,0,10.006,0s17.923,8.064,27.405,34.618c0,0-6.9,6.658-13.965,9.452,0,0-.173,31.183-2.07,40-25.342,6.234-44.27-5.557-44.27-5.557S312.42,98.187,333.108,71.434Z" transform="translate(-178.086 14.221)" fill="#9fc3c7"/>
        <g id="Grupo_1034415" data-name="Grupo 1034415" transform="translate(139.265 113.259)">
          <path id="Trazado_646104" data-name="Trazado 646104" d="M348.914,101.054c-2.119-2.279-4.135-4.737-6.789-6.362-4.94-3.027-11.375-2.646-16.739-.458a17.732,17.732,0,0,0-7.284,5.1,10.269,10.269,0,0,0-2.249,8.4c1.205,5.529,7.288,8.223,11.382,12.131a19.953,19.953,0,0,1-1.04,29.838,62.4,62.4,0,0,0,26.6-.72c1.9-8.821,2.07-40,2.07-40,.586-.232,1.167-.5,1.746-.775A71.825,71.825,0,0,1,348.914,101.054Z" transform="translate(-315.662 -92.507)" fill="#7aacb2"/>
        </g>
        <g id="Grupo_1034419" data-name="Grupo 1034419" transform="translate(163.167 165.625)">
          <path id="Trazado_646105" data-name="Trazado 646105" d="M357.849,213.318l-6.6,2.3a14.913,14.913,0,0,0,.63,5.829,3.4,3.4,0,0,0,1.808,2.381,2.5,2.5,0,0,0,2.6-.88,6.011,6.011,0,0,0,1.133-2.655A22.269,22.269,0,0,0,357.849,213.318Z" transform="translate(-328.556 -107.437)" fill="#464038"/>
          <path id="Trazado_646106" data-name="Trazado 646106" d="M373.332,213.334l-6.6,2.3a14.885,14.885,0,0,0,.629,5.829,3.4,3.4,0,0,0,1.809,2.381,2.5,2.5,0,0,0,2.6-.879,6.015,6.015,0,0,0,1.133-2.656A22.231,22.231,0,0,0,373.332,213.334Z" transform="translate(-323.758 -107.432)" fill="#464038"/>
          <path id="Trazado_646107" data-name="Trazado 646107" d="M363.6,136.275q-.027,17.483,1.332,34.933" transform="translate(-324.711 -131.311)" fill="none" stroke="#bfbdb1" stroke-miterlimit="10" stroke-width="1"/>
          <path id="Trazado_646108" data-name="Trazado 646108" d="M390.019,181.754c-2.68-7.521-7.2-17-13.8-19.887s-22.144-2.645-31.906,7.575-10.648,34.438-10.353,48.306a14.54,14.54,0,0,0,.834,5.488,11.42,11.42,0,0,0,3.376,4.112c7.671,6.348,18.19,7.7,28.1,8.7,2.507.254,21.36.055,25.03-11.165S394.98,195.681,390.019,181.754Z" transform="translate(-333.91 -123.873)" fill="#005947"/>
          <g id="Grupo_1034416" data-name="Grupo 1034416" transform="translate(0 62.356)">
            <path id="Trazado_646109" data-name="Trazado 646109" d="M348.1,196.377a25.7,25.7,0,0,1-11.387-15.171c-.084-.369-.136-.744-.2-1.116-2.47,10.662-2.738,23.029-2.557,31.518a14.54,14.54,0,0,0,.834,5.488,11.42,11.42,0,0,0,3.376,4.112c7.671,6.348,18.19,7.7,28.1,8.7,2.507.254,21.36.055,25.03-11.165,3.1-9.482,3.58-23.78.665-36.388C381.5,187.488,352.657,198.947,348.1,196.377Z" transform="translate(-333.91 -180.09)" fill="#004333"/>
          </g>
          <g id="Grupo_1034417" data-name="Grupo 1034417" transform="translate(14.767 38.197)">
            <path id="Trazado_646110" data-name="Trazado 646110" d="M386.525,181.33c-2.29-6.426-5.929-14.265-11.055-18.218a28.178,28.178,0,0,0-11.342-1.34c-5.6.588-11.13,3.507-13.958,8.377a26.42,26.42,0,0,0-2.707,8.239,120.019,120.019,0,0,0-2.042,30.783c.559,8.911,2.588,18.6,9.569,24.162a19.388,19.388,0,0,0,2.6,1.711c1.733.219,3.466.4,5.181.578,2.507.254,21.36.055,25.03-11.165S391.487,195.256,386.525,181.33Z" transform="translate(-345.184 -161.646)" fill="#1b815b"/>
          </g>
          <path id="Trazado_646111" data-name="Trazado 646111" d="M345.383,138.9q.721,18,3.191,35.878" transform="translate(-330.355 -130.497)" fill="none" stroke="#bfbdb1" stroke-miterlimit="10" stroke-width="1"/>
          <path id="Trazado_646112" data-name="Trazado 646112" d="M376.848,136.864a4.819,4.819,0,0,0-5.038-4.372c-8.457.423-31.007,1.85-31.886,5.077a7.75,7.75,0,0,0,2.489,8.387c1.8,1.285,7.389-6.206,15.7-6.8s12.112,1.436,15.614,2.6C375.962,142.5,377.112,139.773,376.848,136.864Z" transform="translate(-332.15 -132.485)" fill="#464038"/>
          <g id="Grupo_1034418" data-name="Grupo 1034418" transform="translate(14.788 44.387)">
            <path id="Trazado_646113" data-name="Trazado 646113" d="M373.733,171.618a15,15,0,0,0-.834,7.51,62.617,62.617,0,0,0,2.191,12.119c.846,2.975,1.927,6.011,1.543,9.08a12.561,12.561,0,0,1-2.245,5.508c-3.674,5.321-10.907,8.282-16.972,6.045a22.27,22.27,0,0,1-7.211-4.949,40.3,40.3,0,0,1-5.005-5.466c.022,2.081.084,4.164.215,6.242.559,8.911,2.588,18.6,9.569,24.162a19.388,19.388,0,0,0,2.6,1.711c1.733.219,3.466.4,5.181.578,2.507.254,21.36.055,25.03-11.165s3.687-29.2-1.275-43.126a56.369,56.369,0,0,0-6.652-13.493A10.591,10.591,0,0,0,373.733,171.618Z" transform="translate(-345.2 -166.372)" fill="#007247"/>
          </g>
          <path id="Trazado_646114" data-name="Trazado 646114" d="M351.438,169.45l3.019,47.811" transform="translate(-328.479 -121.031)" fill="none" stroke="#004333" stroke-miterlimit="10" stroke-width="1"/>
          <path id="Trazado_646115" data-name="Trazado 646115" d="M357.345,166.811q2.016,32.135,5.825,64.124" transform="translate(-326.648 -121.849)" fill="none" stroke="#004333" stroke-miterlimit="10" stroke-width="1"/>
          <path id="Trazado_646116" data-name="Trazado 646116" d="M362.4,165.4q2.018,29.84,5.612,59.543" transform="translate(-325.082 -122.287)" fill="none" stroke="#004333" stroke-miterlimit="10" stroke-width="1"/>
          <path id="Trazado_646117" data-name="Trazado 646117" d="M369.211,172.608q1.961,22.977,3.92,45.952" transform="translate(-322.971 -120.052)" fill="none" stroke="#004333" stroke-miterlimit="10" stroke-width="1"/>
        </g>
        <path id="Trazado_646118" data-name="Trazado 646118" d="M346.085,106.254a36.026,36.026,0,0,0,8.265-4.27,17.973,17.973,0,0,0,5.054-4.122" transform="translate(-166.97 22.411)" fill="none" stroke="#7aacb2" stroke-miterlimit="10" stroke-width="0.5"/>
        <g id="Grupo_1034426" data-name="Grupo 1034426" transform="translate(141.268 90.145)">
          <g id="Grupo_1034422" data-name="Grupo 1034422" transform="translate(2.066 1.59)">
            <path id="Trazado_646119" data-name="Trazado 646119" d="M341.278,109.615c-.217,1.3-22.817-2.989-22.5-4.864s4.793-28.557,4.793-28.557l22.352,5.766S341.5,108.317,341.278,109.615Z" transform="translate(-318.768 -76.039)" fill="#8d254f"/>
            <path id="Trazado_646120" data-name="Trazado 646120" d="M341.066,108.528s-22.054-5.132-22.289-3.74,4.793-28.557,4.793-28.557c.161-.96,22.45,2.781,22.289,3.741Z" transform="translate(-318.769 -76.076)" fill="#a13d68"/>
            <g id="Grupo_1034420" data-name="Grupo 1034420" transform="translate(3.919 18.894)">
              <path id="Trazado_646121" data-name="Trazado 646121" d="M323.684,91.64a.864.864,0,0,1-1.079.715l-.3-.051-.169,1-.372-.062.461-2.745.675.113A.892.892,0,0,1,323.684,91.64Zm-.381-.063a.523.523,0,0,0-.483-.6l-.287-.048-.169,1.011.287.048A.511.511,0,0,0,323.3,91.577Z" transform="translate(-321.761 -90.5)" fill="#deddd7"/>
              <path id="Trazado_646122" data-name="Trazado 646122" d="M324.826,93.12l-1.176-.2-.342.544L322.9,93.4l1.678-2.58.056.009.748,2.988-.409-.068Zm-.089-.386-.261-1.132-.617.985Z" transform="translate(-321.409 -90.402)" fill="#deddd7"/>
              <path id="Trazado_646123" data-name="Trazado 646123" d="M324.987,93.315l.313-.21a.81.81,0,0,0,.568.479.414.414,0,0,0,.52-.312c.111-.659-1.2-.686-1.052-1.585a.75.75,0,0,1,.914-.571,1.056,1.056,0,0,1,.73.525l-.284.21a.782.782,0,0,0-.5-.377.383.383,0,0,0-.482.282c-.1.6,1.216.66,1.048,1.584a.783.783,0,0,1-.98.6A1.084,1.084,0,0,1,324.987,93.315Z" transform="translate(-320.761 -90.313)" fill="#deddd7"/>
              <path id="Trazado_646124" data-name="Trazado 646124" d="M326.559,93.579l.314-.21a.808.808,0,0,0,.568.479.415.415,0,0,0,.52-.312c.11-.66-1.2-.686-1.053-1.585a.754.754,0,0,1,.916-.572,1.064,1.064,0,0,1,.73.527l-.286.21a.783.783,0,0,0-.5-.377.383.383,0,0,0-.483.282c-.1.6,1.216.66,1.049,1.584a.783.783,0,0,1-.98.6A1.084,1.084,0,0,1,326.559,93.579Z" transform="translate(-320.274 -90.231)" fill="#deddd7"/>
              <path id="Trazado_646125" data-name="Trazado 646125" d="M330.124,92.721a.862.862,0,0,1-1.079.714l-.3-.05-.168,1-.373-.062.461-2.746.675.113A.892.892,0,0,1,330.124,92.721Zm-.38-.063a.525.525,0,0,0-.483-.6l-.287-.048-.17,1.011.287.048A.513.513,0,0,0,329.744,92.658Z" transform="translate(-319.765 -90.165)" fill="#deddd7"/>
              <path id="Trazado_646126" data-name="Trazado 646126" d="M329.832,93.157A1.429,1.429,0,1,1,331,94.818,1.4,1.4,0,0,1,329.832,93.157Zm2.447.41a1.048,1.048,0,1,0-1.213.882A1.042,1.042,0,0,0,332.279,93.567Z" transform="translate(-319.267 -90.05)" fill="#deddd7"/>
              <path id="Trazado_646127" data-name="Trazado 646127" d="M333.125,94.067l-.345-.058-.178,1.054L332.23,95l.461-2.745.745.126a.857.857,0,0,1,.748,1,.824.824,0,0,1-.69.7l.481,1.217-.423-.071Zm-.284-.418.356.059a.491.491,0,1,0,.162-.964l-.358-.06Z" transform="translate(-318.517 -89.956)" fill="#deddd7"/>
              <path id="Trazado_646128" data-name="Trazado 646128" d="M335.7,93.153l-.679-.114-.4,2.38-.372-.063.4-2.38-.694-.117.062-.364,1.745.293Z" transform="translate(-317.983 -89.882)" fill="#deddd7"/>
            </g>
            <g id="Grupo_1034421" data-name="Grupo 1034421" transform="translate(3.613 23.292)">
              <path id="Trazado_646129" data-name="Trazado 646129" d="M321.549,95.064a1.443,1.443,0,0,1,2.265-.93l-.071.419a1,1,0,0,0-.608-.312,1.074,1.074,0,0,0-.356,2.118,1.009,1.009,0,0,0,.677-.1l-.071.42a1.446,1.446,0,0,1-1.836-1.619Z" transform="translate(-321.527 -93.858)" fill="#deddd7"/>
              <path id="Trazado_646130" data-name="Trazado 646130" d="M323.34,95.364a1.43,1.43,0,1,1,1.172,1.661A1.4,1.4,0,0,1,323.34,95.364Zm2.447.411a1.048,1.048,0,1,0-1.212.88A1.042,1.042,0,0,0,325.787,95.775Z" transform="translate(-320.973 -93.764)" fill="#deddd7"/>
              <path id="Trazado_646131" data-name="Trazado 646131" d="M325.81,96.275l.305-1.819.373.063-.3,1.776a.574.574,0,0,0,.472.748c.352.059.618-.126.689-.553l.3-1.778.372.063-.305,1.819a.966.966,0,1,1-1.906-.32Z" transform="translate(-320.206 -93.672)" fill="#deddd7"/>
              <path id="Trazado_646132" data-name="Trazado 646132" d="M330.286,95.161l-.469,2.791-.051-.008-1.491-2.239-.317,1.886-.368-.062.468-2.789.051.009,1.485,2.273.322-1.926Z" transform="translate(-319.649 -93.584)" fill="#deddd7"/>
              <path id="Trazado_646133" data-name="Trazado 646133" d="M331.635,95.768l-.678-.114-.4,2.38-.372-.062.4-2.38-.694-.117.06-.365,1.746.293Z" transform="translate(-318.936 -93.47)" fill="#deddd7"/>
              <path id="Trazado_646134" data-name="Trazado 646134" d="M332.1,97.192l-.346-.058-.177,1.054-.372-.062.46-2.745.745.126a.859.859,0,0,1,.749,1,.821.821,0,0,1-.69.7l.481,1.218-.423-.071Zm-.286-.418.358.059a.491.491,0,1,0,.162-.964l-.358-.06Z" transform="translate(-318.529 -93.386)" fill="#deddd7"/>
              <path id="Trazado_646135" data-name="Trazado 646135" d="M333.86,97.591l-.164.972-.372-.063.161-.964-.634-1.937.419.071.465,1.509.935-1.275.417.071Z" transform="translate(-318.018 -93.318)" fill="#deddd7"/>
            </g>
            <path id="Trazado_646136" data-name="Trazado 646136" d="M331.886,81.14a5.551,5.551,0,1,0,4.556,6.394A5.556,5.556,0,0,0,331.886,81.14Zm3.771,6.26c-.048.128-.473.3-1.258.382.046-.19.1-.372.134-.568s.041-.388.06-.582c.713.333,1.058.633,1.064.766Zm-5.474,3.906h0c-.128-.05-.3-.474-.382-1.257.19.045.371.1.569.134s.388.039.582.059C330.616,90.955,330.317,91.3,330.183,91.306ZM330.5,89.4a7.477,7.477,0,0,1-.743-.172c0-.307.009-.654.034-1.027.316.069.616.128.882.173s.57.088.891.124c-.1.36-.2.693-.3.981A7.3,7.3,0,0,1,330.5,89.4Zm.3-1.809c-.337-.056-.644-.121-.942-.186.035-.3.076-.614.132-.951s.121-.644.186-.942c.3.035.614.075.951.132s.644.119.942.185c-.035.3-.075.614-.131.951s-.121.646-.186.943C331.452,87.686,331.14,87.645,330.8,87.589Zm-4.527-1.758h0c.05-.127.474-.3,1.258-.381-.045.189-.1.371-.134.568s-.039.388-.059.582C326.627,86.266,326.281,85.966,326.276,85.831Zm1.909.317a7.389,7.389,0,0,1,.172-.743c.307,0,.654.009,1.027.033-.069.316-.128.616-.173.883s-.088.568-.124.889c-.36-.1-.693-.2-.981-.3A7.309,7.309,0,0,1,328.184,86.148Zm3.567-4.224h0c.127.05.3.474.381,1.259-.189-.046-.371-.1-.569-.134s-.388-.041-.582-.06C331.316,82.276,331.616,81.93,331.751,81.924Zm-.317,1.908a7.482,7.482,0,0,1,.743.173c0,.307-.008.654-.033,1.027-.316-.071-.617-.128-.883-.174s-.568-.086-.889-.123c.1-.362.2-.693.3-.982C330.924,83.769,331.177,83.789,331.434,83.832Zm1.413,2.188c.362.1.694.2.982.3a7.609,7.609,0,0,1-.08.758,7.433,7.433,0,0,1-.173.744c-.307,0-.654-.009-1.027-.034.071-.316.13-.616.174-.882S332.811,86.34,332.847,86.02Zm1.793-.228c0-.186,0-.369-.016-.549a3.452,3.452,0,0,1,.76.908A6.782,6.782,0,0,0,334.64,85.792Zm-.806-.3c-.3-.1-.608-.191-.912-.272.024-.313.038-.633.042-.95a6.813,6.813,0,0,1,.774.368A6.543,6.543,0,0,1,333.835,85.493Zm-.889-2.081a6.964,6.964,0,0,0-.1-.82,3.493,3.493,0,0,1,.61,1.014C333.293,83.536,333.121,83.472,332.945,83.412ZM330.5,82.2a7.033,7.033,0,0,0-.359.744c-.186,0-.369,0-.549.016A3.452,3.452,0,0,1,330.5,82.2Zm-.658,1.55c-.1.3-.191.608-.271.912-.313-.022-.634-.037-.951-.041a6.521,6.521,0,0,1,.369-.775A6.5,6.5,0,0,1,329.844,83.747Zm-2.081.889a7,7,0,0,0-.82.1,3.454,3.454,0,0,1,1.015-.61C327.887,84.288,327.824,84.461,327.762,84.636Zm-.47,2.8c0,.186,0,.369.017.549a3.452,3.452,0,0,1-.76-.908A7,7,0,0,0,327.292,87.439Zm.806.3c.3.1.609.191.912.271-.022.314-.037.634-.041.951a6.523,6.523,0,0,1-.775-.369A6.723,6.723,0,0,1,328.1,87.738Zm.891,2.081a7.3,7.3,0,0,0,.1.82,3.48,3.48,0,0,1-.609-1.015C328.64,89.7,328.813,89.759,328.988,89.82Zm2.443,1.213a7,7,0,0,0,.36-.743c.185,0,.368,0,.548-.017A3.452,3.452,0,0,1,331.431,91.032Zm.658-1.548c.1-.3.191-.608.272-.912.313.022.633.037.95.041a6.721,6.721,0,0,1-.368.775A6.546,6.546,0,0,1,332.089,89.484Zm2.081-.891a7.266,7.266,0,0,0,.82-.1,3.489,3.489,0,0,1-1.014.609C334.046,88.942,334.11,88.769,334.17,88.593Zm1.183-3.778a5.586,5.586,0,0,0-.888-.693,5.485,5.485,0,0,0-.365-1.066A4.754,4.754,0,0,1,335.353,84.816Zm-6.185-2.588a5.528,5.528,0,0,0-.694.889,5.485,5.485,0,0,0-1.066.365A4.776,4.776,0,0,1,329.168,82.227Zm-2.588,6.188a5.6,5.6,0,0,0,.889.693,5.606,5.606,0,0,0,.364,1.066A4.769,4.769,0,0,1,326.579,88.415ZM332.766,91a5.526,5.526,0,0,0,.693-.889,5.573,5.573,0,0,0,1.066-.364A4.769,4.769,0,0,1,332.766,91Z" transform="translate(-316.71 -74.53)" fill="#deddd7"/>
            <path id="Trazado_646137" data-name="Trazado 646137" d="M338.2,81.1a1.059,1.059,0,1,1-.868-1.221A1.06,1.06,0,0,1,338.2,81.1Z" transform="translate(-313.4 -74.902)" fill="#deddd7"/>
          </g>
          <g id="Grupo_1034425" data-name="Grupo 1034425">
            <path id="Trazado_646138" data-name="Trazado 646138" d="M343.576,104.335c.156,1.309-22.738,3.541-22.962,1.652s-3.421-28.753-3.421-28.753l23.071-.744S343.42,103.028,343.576,104.335Z" transform="translate(-317.192 -74.357)" fill="#8d254f"/>
            <path id="Trazado_646139" data-name="Trazado 646139" d="M343.054,103.822s-22.609,1.268-22.441,2.67-3.421-28.753-3.421-28.753c-.115-.965,22.327-3.636,22.441-2.67Z" transform="translate(-317.192 -74.862)" fill="#a13d68"/>
            <g id="Grupo_1034423" data-name="Grupo 1034423" transform="translate(4.859 18.905)">
              <path id="Trazado_646140" data-name="Trazado 646140" d="M322.625,91.583a.863.863,0,0,1-.836.988l-.3.037.121,1.011-.376.045L320.9,90.9l.68-.081A.891.891,0,0,1,322.625,91.583Zm-.384.045a.523.523,0,0,0-.633-.44l-.288.034.12,1.019.289-.035A.51.51,0,0,0,322.241,91.627Z" transform="translate(-320.901 -88.824)" fill="#deddd7"/>
              <path id="Trazado_646141" data-name="Trazado 646141" d="M324.07,92.743l-1.184.141-.176.617-.414.05.887-2.949.055-.007,1.557,2.658-.411.048Zm-.193-.346-.57-1.013-.316,1.119Z" transform="translate(-320.469 -88.891)" fill="#deddd7"/>
              <path id="Trazado_646142" data-name="Trazado 646142" d="M324.333,92.855l.242-.288a.814.814,0,0,0,.68.3.416.416,0,0,0,.413-.445c-.08-.664-1.348-.321-1.455-1.225a.752.752,0,0,1,.716-.807,1.062,1.062,0,0,1,.849.3l-.215.282a.779.779,0,0,0-.583-.223c-.253.03-.409.2-.384.406.067.6,1.352.291,1.45,1.225a.781.781,0,0,1-.771.853A1.084,1.084,0,0,1,324.333,92.855Z" transform="translate(-319.876 -88.957)" fill="#deddd7"/>
              <path id="Trazado_646143" data-name="Trazado 646143" d="M325.917,92.667l.242-.289a.807.807,0,0,0,.68.3.414.414,0,0,0,.411-.445c-.079-.663-1.348-.32-1.455-1.225a.752.752,0,0,1,.718-.806,1.055,1.055,0,0,1,.848.3l-.214.282a.785.785,0,0,0-.584-.224c-.253.03-.409.2-.384.406.067.6,1.352.292,1.451,1.225a.784.784,0,0,1-.772.854A1.083,1.083,0,0,1,325.917,92.667Z" transform="translate(-319.386 -89.015)" fill="#deddd7"/>
              <path id="Trazado_646144" data-name="Trazado 646144" d="M329.11,90.811a.864.864,0,0,1-.836.989l-.305.035.121,1.011-.375.045-.329-2.764.679-.08A.892.892,0,0,1,329.11,90.811Zm-.384.046a.525.525,0,0,0-.633-.441l-.288.035.121,1.018.288-.034A.512.512,0,0,0,328.726,90.857Z" transform="translate(-318.891 -89.063)" fill="#deddd7"/>
              <path id="Trazado_646145" data-name="Trazado 646145" d="M328.974,91.368a1.429,1.429,0,1,1,1.591,1.265A1.4,1.4,0,0,1,328.974,91.368Zm2.464-.292a1.048,1.048,0,1,0-.917,1.185A1.041,1.041,0,0,0,331.438,91.076Z" transform="translate(-318.403 -89.15)" fill="#deddd7"/>
              <path id="Trazado_646146" data-name="Trazado 646146" d="M332.368,91.262l-.348.042.127,1.062-.375.045-.329-2.764.749-.09a.859.859,0,0,1,1,.747.822.822,0,0,1-.466.865l.8,1.033-.426.051Zm-.392-.322.36-.042a.491.491,0,1,0-.115-.972l-.36.043Z" transform="translate(-317.634 -89.215)" fill="#deddd7"/>
              <path id="Trazado_646147" data-name="Trazado 646147" d="M334.67,89.662l-.684.081.286,2.4-.375.045-.286-2.4-.7.083-.043-.367,1.758-.21Z" transform="translate(-317.192 -89.294)" fill="#deddd7"/>
            </g>
            <g id="Grupo_1034424" data-name="Grupo 1034424" transform="translate(5.707 23.171)">
              <path id="Trazado_646148" data-name="Trazado 646148" d="M321.56,95.525A1.443,1.443,0,0,1,323.472,94l.05.423a1,1,0,0,0-.671-.13,1.074,1.074,0,0,0,.253,2.132,1.009,1.009,0,0,0,.624-.282l.05.422a1.416,1.416,0,0,1-.634.224A1.4,1.4,0,0,1,321.56,95.525Z" transform="translate(-321.549 -92.128)" fill="#deddd7"/>
              <path id="Trazado_646149" data-name="Trazado 646149" d="M323.364,95.31a1.429,1.429,0,1,1,1.592,1.265A1.4,1.4,0,0,1,323.364,95.31Zm2.464-.292a1.048,1.048,0,1,0-.917,1.185A1.044,1.044,0,0,0,325.828,95.018Z" transform="translate(-320.99 -92.195)" fill="#deddd7"/>
              <path id="Trazado_646150" data-name="Trazado 646150" d="M326,95.457l-.217-1.831.375-.045.214,1.788c.051.431.31.627.661.586a.571.571,0,0,0,.507-.724l-.212-1.789.375-.045.217,1.833a.966.966,0,1,1-1.919.228Z" transform="translate(-320.237 -92.289)" fill="#deddd7"/>
              <path id="Trazado_646151" data-name="Trazado 646151" d="M329.948,93.139l.335,2.811-.052.007-2.059-1.729.227,1.9-.372.045-.334-2.808.051-.005,2.064,1.764-.231-1.939Z" transform="translate(-319.645 -92.369)" fill="#deddd7"/>
              <path id="Trazado_646152" data-name="Trazado 646152" d="M331.506,93.313l-.684.081.286,2.4-.375.045-.286-2.4-.7.083-.043-.367,1.757-.21Z" transform="translate(-319.021 -92.429)" fill="#deddd7"/>
              <path id="Trazado_646153" data-name="Trazado 646153" d="M332.261,94.549l-.347.042.126,1.062-.375.045-.329-2.764.751-.089a.858.858,0,0,1,1,.745.824.824,0,0,1-.466.865l.8,1.033-.427.051Zm-.39-.321.359-.043a.491.491,0,1,0-.115-.972l-.359.043Z" transform="translate(-318.516 -92.462)" fill="#deddd7"/>
              <path id="Trazado_646154" data-name="Trazado 646154" d="M334.166,94.448l.117.978-.375.045-.115-.971L332.64,92.82l.422-.051.87,1.319.54-1.487.419-.05Z" transform="translate(-318.112 -92.551)" fill="#deddd7"/>
            </g>
            <path id="Trazado_646155" data-name="Trazado 646155" d="M327.335,79.571a5.552,5.552,0,1,0,6.168,4.857A5.559,5.559,0,0,0,327.335,79.571Zm5.378,4.949c-.01.136-.369.422-1.1.72-.01-.2-.008-.385-.031-.583s-.071-.384-.106-.575c.777.118,1.193.309,1.237.436Zm-4.158,5.287h0c-.136-.012-.421-.371-.719-1.1.2-.01.384-.008.583-.031s.384-.071.575-.106C328.875,89.348,328.684,89.763,328.556,89.807Zm-.232-1.92a7.138,7.138,0,0,1-.761.043c-.09-.292-.176-.63-.255-.994.322-.022.626-.05.895-.081s.57-.077.889-.131c.007.373,0,.72-.016,1.027A7.557,7.557,0,0,1,328.324,87.886Zm-.216-1.822c-.339.041-.652.065-.956.086-.051-.3-.1-.61-.14-.95s-.065-.652-.086-.956c.3-.051.61-.1.95-.14s.652-.067.956-.086c.051.3.1.61.141.95s.065.652.086.956C328.758,85.975,328.447,86.024,328.108,86.064Zm-4.839-.415h0c.012-.136.372-.42,1.1-.719.01.194.009.384.033.583s.069.384.1.575C323.728,85.967,323.312,85.776,323.269,85.649Zm1.92-.232a7.168,7.168,0,0,1-.043-.761c.293-.09.63-.176.994-.257.022.322.05.627.081.895s.077.571.131.889c-.373.008-.72,0-1.027-.014A7.631,7.631,0,0,1,325.189,85.417Zm2.236-5.055h0c.136.012.422.371.72,1.1-.194.01-.384.008-.583.031s-.384.071-.575.106C327.108,80.821,327.3,80.406,327.425,80.362Zm.232,1.92a7.216,7.216,0,0,1,.762-.043c.09.292.176.63.257.994-.322.022-.627.05-.9.081s-.57.077-.888.131c-.008-.373,0-.72.014-1.027A7.594,7.594,0,0,1,327.657,82.283Zm1.973,1.7c.373-.007.72,0,1.027.016a6.22,6.22,0,0,1,.179,1.513c-.292.09-.629.176-.994.257-.022-.324-.05-.627-.081-.9S329.685,84.3,329.63,83.984Zm1.656-.723c-.051-.178-.106-.354-.169-.521a3.453,3.453,0,0,1,.984.658A7.138,7.138,0,0,0,331.286,83.261Zm-.857-.06c-.317-.012-.637-.012-.951,0-.067-.308-.143-.618-.228-.923a6.326,6.326,0,0,1,.847.136A6.55,6.55,0,0,1,330.429,83.2Zm-1.438-1.747a6.928,6.928,0,0,0-.324-.76,3.478,3.478,0,0,1,.871.8C329.36,81.476,329.177,81.463,328.991,81.454Zm-2.687-.478a7.122,7.122,0,0,0-.136.815c-.178.051-.354.107-.521.169A3.452,3.452,0,0,1,326.3,80.975Zm-.2,1.671c-.01.317-.012.637,0,.951-.308.067-.618.143-.923.228a6.329,6.329,0,0,1,.136-.847A6.542,6.542,0,0,1,326.108,82.647Zm-1.746,1.438a6.956,6.956,0,0,0-.761.324,3.454,3.454,0,0,1,.8-.871C324.383,83.716,324.369,83.9,324.362,84.085Zm.335,2.823c.052.178.107.354.169.521a3.471,3.471,0,0,1-.984-.658A7.182,7.182,0,0,0,324.7,86.908Zm.857.06c.317.01.638.012.951,0,.067.308.143.618.228.923a6.36,6.36,0,0,1-.848-.136A6.54,6.54,0,0,1,325.554,86.968Zm1.438,1.747a7.2,7.2,0,0,0,.323.76,3.476,3.476,0,0,1-.87-.8C326.624,88.693,326.807,88.706,326.992,88.716Zm2.687.478a7.172,7.172,0,0,0,.136-.815c.178-.052.354-.107.521-.169A3.47,3.47,0,0,1,329.678,89.194Zm.2-1.671c.012-.317.012-.638,0-.951.308-.067.618-.143.923-.228a6.363,6.363,0,0,1-.136.847A6.54,6.54,0,0,1,329.875,87.522Zm1.747-1.438a7.2,7.2,0,0,0,.76-.324,3.474,3.474,0,0,1-.8.87C331.6,86.452,331.613,86.269,331.622,86.084Zm.075-3.958a5.6,5.6,0,0,0-1.048-.415,5.551,5.551,0,0,0-.65-.922A4.762,4.762,0,0,1,331.7,82.126Zm-6.665-.747a5.6,5.6,0,0,0-.415,1.048,5.56,5.56,0,0,0-.922.651A4.756,4.756,0,0,1,325.032,81.379Zm-.745,6.665a5.562,5.562,0,0,0,1.048.415,5.418,5.418,0,0,0,.65.921A4.759,4.759,0,0,1,324.287,88.044Zm6.663.745a5.482,5.482,0,0,0,.417-1.048,5.525,5.525,0,0,0,.919-.648A4.766,4.766,0,0,1,330.95,88.789Z" transform="translate(-315.565 -73.414)" fill="#deddd7"/>
            <path id="Trazado_646156" data-name="Trazado 646156" d="M333.64,77.418a1.059,1.059,0,1,1-1.178-.927A1.06,1.06,0,0,1,333.64,77.418Z" transform="translate(-312.749 -74.359)" fill="#deddd7"/>
          </g>
          <path id="Trazado_646157" data-name="Trazado 646157" d="M363.288,102.838s5.787,19.9-3.868,23.815-19.984-18.387-23.611-26.712c0,0-7.792,2.846-8.589.972s7.139-4.535,7.139-4.535-7.735.258-7.8-1.76,8.635-.921,8.635-.921-7.117-2.44-6-4.959,12.158,2.379,12.158,2.379,9.189,13.864,12.593,18.125Z" transform="translate(-314.289 -70.785)" fill="#ae6839"/>
          <path id="Trazado_646158" data-name="Trazado 646158" d="M337.839,89.844q1.041,1.542,2.081,3.086,2.7,4,5.393,8c4.117,6.1,6.21,10.33,11.752,15.179" transform="translate(-310.793 -70.219)" fill="none" stroke="#7c3406" stroke-miterlimit="10" stroke-width="0.5"/>
        </g>
        <path id="Trazado_646159" data-name="Trazado 646159" d="M326.969,12.123a3.011,3.011,0,0,1,5.808.238c.262,1.154-.153,2.446.382,3.5a6.594,6.594,0,0,1,12.072,1.588,5.659,5.659,0,0,1,6.752-.981,8.227,8.227,0,0,1,3.952,5.911,15.489,15.489,0,0,1-.757,7.254c2.8-.262,4.729,2.959,4.8,5.769a11.13,11.13,0,0,1-5.881,9.943" transform="translate(-172.894 -4.81)" fill="none" stroke="#502570" stroke-miterlimit="10" stroke-width="0.5"/>
        <path id="Trazado_646160" data-name="Trazado 646160" d="M345.471,30.361c.323-.587.72-1.233,1.374-1.383.9-.21,1.74.722,1.8,1.644a4.836,4.836,0,0,1-.863,2.594.713.713,0,0,1,.883-.347,1.53,1.53,0,0,1,.766.684,4.064,4.064,0,0,1-1.212,5.42" transform="translate(-167.161 1.056)" fill="none" stroke="#502570" stroke-miterlimit="10" stroke-width="0.5"/>
        <path id="Trazado_646161" data-name="Trazado 646161" d="M240.135,161.257l-18.058,39.477" transform="translate(-205.398 42.056)" fill="none" stroke="#52dd90" stroke-miterlimit="10" stroke-width="1"/>
        <path id="Trazado_646162" data-name="Trazado 646162" d="M244.137,162.56q-11.2,25.442-22.4,50.884" transform="translate(-205.502 42.46)" fill="none" stroke="#52dd90" stroke-miterlimit="10" stroke-width="1"/>
        <g id="Grupo_1034427" data-name="Grupo 1034427" transform="translate(58.626 89.202)">
          <path id="Trazado_646163" data-name="Trazado 646163" d="M270.4,74.144c-1.67-.075-3.818,1.64-6.111,5.278a46.477,46.477,0,0,1-.678,11.354c-1.115,7.473-2.329,14.976-4.759,22.13-.993,2.924-2.186,5.781-3.064,8.741a43.975,43.975,0,0,0,5.5,36.058,7.734,7.734,0,0,0,.607-5.753c-1.326-6.248-1.516-20.257,3.266-37.287S274.428,74.327,270.4,74.144Z" transform="translate(-254.101 -74.141)" fill="#d18e5b"/>
        </g>
        <g id="Grupo_1034432" data-name="Grupo 1034432" transform="translate(94.398 260.571)">
          <g id="Grupo_1034428" data-name="Grupo 1034428" transform="translate(0 2.043)">
            <path id="Trazado_646164" data-name="Trazado 646164" d="M316.7,215.064c.052,1.047-9.5,2.377-21.337,2.973-2.959.149-5.781.238-8.349.271a10.988,10.988,0,0,1-2.2-.13,4.389,4.389,0,0,1-2.464-1.227,3.427,3.427,0,0,1-.769-1.318,4.132,4.132,0,0,1-.17-1.212c.009-.7.085-1.137.131-1.637.423-3.875.946-6.266,1.47-6.256s.948,2.422,1.212,6.311c.038.47.051,1.052.109,1.411.067.4.165.44.237.472a4.753,4.753,0,0,0,2.27.1c2.56-.224,5.376-.419,8.335-.568C307.009,213.653,316.646,214.019,316.7,215.064Z" transform="translate(-281.41 -206.529)" fill="#011b4b"/>
          </g>
          <g id="Grupo_1034429" data-name="Grupo 1034429" transform="translate(0.614)">
            <path id="Trazado_646165" data-name="Trazado 646165" d="M298.94,205.807c.261,1-3.42,2.8-8.335,3.174-4.913.389-8.829-.824-8.725-1.851.1-1.058,3.877-1.564,8.432-1.931C294.869,204.859,298.682,204.776,298.94,205.807Z" transform="translate(-281.878 -204.969)" fill="#374c72"/>
          </g>
          <g id="Grupo_1034430" data-name="Grupo 1034430" transform="translate(14.991 3.162)">
            <path id="Trazado_646166" data-name="Trazado 646166" d="M293.4,215.144c-.895-.553-.635-2.59.413-4.642s2.554-3.452,3.525-3.049.98,2.577-.149,4.777S294.287,215.693,293.4,215.144Z" transform="translate(-292.855 -207.383)" fill="#374c72"/>
          </g>
          <g id="Grupo_1034431" data-name="Grupo 1034431" transform="translate(23.043 3.539)">
            <path id="Trazado_646167" data-name="Trazado 646167" d="M299.929,215.85c-1-.321-1.226-2.377-.512-4.594a7.5,7.5,0,0,1,1.443-2.667.786.786,0,0,1,.713-.347c.253.018.424-.2.582-.41.139-.2.549-.28.875.169a3.063,3.063,0,0,1,.382,1.411,7.469,7.469,0,0,1-.385,3.008C302.313,214.636,300.926,216.172,299.929,215.85Z" transform="translate(-299.002 -207.671)" fill="#374c72"/>
          </g>
        </g>
        <g id="Grupo_1034437" data-name="Grupo 1034437" transform="translate(70.404 262.218)">
          <g id="Grupo_1034433" data-name="Grupo 1034433" transform="translate(0 3.052)">
            <path id="Trazado_646168" data-name="Trazado 646168" d="M296.595,226.158c.1.536-2.383,1.385-6.4.98a78.955,78.955,0,0,1-14.829-2.975c-2.837-.84-5.495-1.785-7.87-2.748l-.443-.179c-.193-.086-.386-.166-.57-.263a6.419,6.419,0,0,1-2.556-2.41,6.015,6.015,0,0,1-.768-3.949c.672-3.787,1.35-6.1,1.872-6.056s.789,2.447.8,6.282a3.477,3.477,0,0,0,.732,2.008,3.4,3.4,0,0,0,.862.769,3.259,3.259,0,0,0,.53.271l.286.1.444.14c2.38.761,5,1.581,7.758,2.4,5.517,1.644,10.565,2.959,14.232,3.973,1.759.54,3.224.775,4.264,1.023S296.533,225.9,296.595,226.158Z" transform="translate(-263.092 -208.557)" fill="#011b4b"/>
          </g>
          <g id="Grupo_1034434" data-name="Grupo 1034434" transform="translate(1.109)">
            <path id="Trazado_646169" data-name="Trazado 646169" d="M275.868,207.123c.269,1.013-2.2,2.482-5.512,3.283s-6.179.618-6.4-.4,2.244-2.493,5.512-3.283S275.6,206.11,275.868,207.123Z" transform="translate(-263.939 -206.227)" fill="#374c72"/>
          </g>
          <g id="Grupo_1034435" data-name="Grupo 1034435" transform="translate(10.806 6.765)">
            <path id="Trazado_646170" data-name="Trazado 646170" d="M280.6,212.237c.072.532-.511,1.069-1.3,1.7s-1.818,1.4-2.858,2.33-1.891,1.88-2.6,2.616-1.3,1.254-1.819,1.129c-.493-.113-.824-.947-.62-2.244a8.141,8.141,0,0,1,7.024-6.367C279.738,211.324,280.536,211.735,280.6,212.237Z" transform="translate(-271.342 -211.392)" fill="#374c72"/>
          </g>
          <g id="Grupo_1034436" data-name="Grupo 1034436" transform="translate(19.24 11.678)">
            <path id="Trazado_646171" data-name="Trazado 646171" d="M283.7,215.767a2.06,2.06,0,0,1-.368,1.7,21.958,21.958,0,0,1-3.006,3.805,2.061,2.061,0,0,1-1.573.753c-.507-.08-.92-.655-.971-1.6a5.464,5.464,0,0,1,4.134-5.233C282.854,215.024,283.511,215.293,283.7,215.767Z" transform="translate(-277.78 -215.142)" fill="#374c72"/>
          </g>
        </g>
      </g>
    </g>
  </g>
</svg>
