<svg xmlns="http://www.w3.org/2000/svg" width="365.204" height="54.206" viewBox="0 0 365.204 54.206">
  <g id="Grupo_1034550" data-name="Grupo 1034550" transform="translate(-31.776 -148.061)">
    <path id="Trazado_646300" data-name="Trazado 646300" d="M11.934,16.156a5.127,5.127,0,0,1-.981,2.656A5.551,5.551,0,0,1,8.706,20.6a6.954,6.954,0,0,1-3.013.6A4.683,4.683,0,0,1,2.188,19.76,5.77,5.77,0,0,1,.791,16a12.245,12.245,0,0,1,.347-3.447A9.112,9.112,0,0,1,2.554,9.306a6.506,6.506,0,0,1,2.314-2.07,6.008,6.008,0,0,1,2.915-.659,5.086,5.086,0,0,1,3.677,1.4,5.467,5.467,0,0,1,1.47,3.74L9.6,11.7a2.739,2.739,0,0,0-.469-1.855,2.058,2.058,0,0,0-1.543-.6q-2.637-.088-3.213,4.1a22.537,22.537,0,0,0-.264,2.705q-.049,2.4,1.777,2.471a2.609,2.609,0,0,0,1.885-.581,2.906,2.906,0,0,0,.9-1.753Zm6.992-.186H17.07L16.191,21h-3.34L15.313,6.781l5.02.01a5.515,5.515,0,0,1,3.716,1.127A3.505,3.505,0,0,1,25.215,11a4.588,4.588,0,0,1-.889,2.551,5.231,5.231,0,0,1-2.187,1.6l1.914,5.692V21H20.488ZM17.52,13.334l1.953.02a2.461,2.461,0,0,0,1.392-.392,2.156,2.156,0,0,0,.845-1.072,2.52,2.52,0,0,0,.146-1.317,1.311,1.311,0,0,0-1.387-1.145L18.2,9.418Zm18.271.615h-8.8l.449-2.539H36.23Zm-.742,4.287h-8.8L26.7,15.7h8.789Z" transform="translate(31 157.061)" fill="#12263f"/>
    <path id="Trazado_646301" data-name="Trazado 646301" d="M6.68,11.488,9.668,6.781h3.965L8.574,13.969,11.357,21h-3.7L6.094,16.205,3.027,21H-.967l5.176-7.3-2.7-6.914H5.176ZM24.326,21H21.1L22.92,10.551l-3.311.938.449-2.607,6.289-2.1.361-.01Zm9.209.2a4.236,4.236,0,0,1-2.114-.571,3.535,3.535,0,0,1-1.392-1.592,6.024,6.024,0,0,1-.527-2.388,9.1,9.1,0,0,1,.059-1.455l.371-2.48a8.409,8.409,0,0,1,1.924-4.585,4.758,4.758,0,0,1,3.76-1.538,3.754,3.754,0,0,1,2.905,1.25,5.179,5.179,0,0,1,1.128,3.3,9.943,9.943,0,0,1-.068,1.455l-.391,2.529a8.333,8.333,0,0,1-1.938,4.58A4.76,4.76,0,0,1,33.535,21.2Zm2.9-9.043a11.225,11.225,0,0,0,.1-1.2q0-1.787-1.133-1.846-1.738-.088-2.158,2.979L32.725,15.6a11.12,11.12,0,0,0-.1,1.2q-.049,1.807,1.123,1.875,1.768.088,2.178-3.057ZM44.863,21.2a4.236,4.236,0,0,1-2.114-.571,3.535,3.535,0,0,1-1.392-1.592,6.024,6.024,0,0,1-.527-2.388,9.1,9.1,0,0,1,.059-1.455l.371-2.48a8.409,8.409,0,0,1,1.924-4.585,4.758,4.758,0,0,1,3.76-1.538,3.754,3.754,0,0,1,2.905,1.25,5.179,5.179,0,0,1,1.128,3.3,9.943,9.943,0,0,1-.068,1.455l-.391,2.529a8.333,8.333,0,0,1-1.938,4.58A4.76,4.76,0,0,1,44.863,21.2Zm2.9-9.043a11.225,11.225,0,0,0,.1-1.2q0-1.787-1.133-1.846-1.738-.088-2.158,2.979L44.053,15.6a11.12,11.12,0,0,0-.1,1.2q-.049,1.807,1.123,1.875,1.768.088,2.178-3.057Z" transform="translate(346 157.061)" fill="#12263f"/>
    <path id="Trazado_646302" data-name="Trazado 646302" d="M6.234,21.2A4.816,4.816,0,0,1,2.68,19.73a5.966,5.966,0,0,1-1.514-3.789,10.831,10.831,0,0,1,.186-2.759,9.693,9.693,0,0,1,1.006-2.925A7.361,7.361,0,0,1,4.164,8.031a6.179,6.179,0,0,1,4.18-1.445,5.141,5.141,0,0,1,2.544.669A4.666,4.666,0,0,1,12.631,9.1a6.612,6.612,0,0,1,.762,2.734,11.208,11.208,0,0,1-.132,2.466,10.162,10.162,0,0,1-.771,2.637,8.059,8.059,0,0,1-1.45,2.212,6.671,6.671,0,0,1-2.095,1.519A6.059,6.059,0,0,1,6.234,21.2ZM10.043,11.8q-.1-2.441-1.895-2.539a2.615,2.615,0,0,0-2.295,1.1,7.053,7.053,0,0,0-1.2,3.442,12.017,12.017,0,0,0-.137,2.178q.1,2.48,1.914,2.549a2.536,2.536,0,0,0,2.051-.854,5.527,5.527,0,0,0,1.24-2.656A12.76,12.76,0,0,0,10.043,11.8Zm14.1,3.936a7.657,7.657,0,0,1-1.514,4.043,3.788,3.788,0,0,1-3.184,1.426,2.8,2.8,0,0,1-2.4-1.309l-.4,1.1h-2.91L16.342,6h3.213L18.51,11.3a3.189,3.189,0,0,1,2.373-1.064A2.977,2.977,0,0,1,23.3,11.347a4.834,4.834,0,0,1,.918,2.964,10.749,10.749,0,0,1-.049,1.221Zm-3.193-.19a10.114,10.114,0,0,0,.088-1.131q0-1.57-1.123-1.638a1.924,1.924,0,0,0-1.67.848l-.762,4.212a1.292,1.292,0,0,0,1.328.829q1.572.049,1.982-2.047l.137-.868Zm9.063-5.113-1.846,10.9a4.485,4.485,0,0,1-1.426,2.935,4.337,4.337,0,0,1-3.027,1.03,10.206,10.206,0,0,1-1.611-.186l.264-2.5a4.328,4.328,0,0,0,.889.117,1.563,1.563,0,0,0,1.68-1.5l1.855-10.791ZM27.035,7.763a1.473,1.473,0,0,1,.508-1.195A1.829,1.829,0,0,1,28.8,6.1a1.777,1.777,0,0,1,1.25.416,1.48,1.48,0,0,1,.527,1.131A1.5,1.5,0,0,1,30.1,8.821a1.953,1.953,0,0,1-2.534.064A1.469,1.469,0,0,1,27.035,7.763ZM35.316,21.2a4.912,4.912,0,0,1-2.524-.669,4.215,4.215,0,0,1-1.675-1.836,4.933,4.933,0,0,1-.449-2.593l.029-.273A6.477,6.477,0,0,1,32.509,11.7a5.011,5.011,0,0,1,3.794-1.46,4.086,4.086,0,0,1,2.324.689,3.853,3.853,0,0,1,1.416,1.848,5.662,5.662,0,0,1,.293,2.646l-.186,1.34H33.861a2.06,2.06,0,0,0,.469,1.348,1.722,1.722,0,0,0,1.309.547,3.325,3.325,0,0,0,2.51-1.074L39.5,19.364a3.976,3.976,0,0,1-1.665,1.329,5.848,5.848,0,0,1-2.339.5Zm.781-8.418a1.653,1.653,0,0,0-1.187.427,3.588,3.588,0,0,0-.874,1.5H37.25l.059-.282a2.143,2.143,0,0,0,.02-.641A1.131,1.131,0,0,0,36.1,12.777ZM46.752,7.807l-.459,2.627h1.689l-.4,2.285H45.893l-.82,4.854a1.294,1.294,0,0,0,.063.752q.132.254.659.273a7.637,7.637,0,0,0,.84-.049L46.4,20.932a5.192,5.192,0,0,1-1.729.244,2.847,2.847,0,0,1-2.236-.879,3,3,0,0,1-.605-2.334l.859-5.244H41.381l.391-2.285H43.08l.459-2.627ZM50.873,21H47.65l1.836-10.566h3.223ZM49.77,7.768a1.49,1.49,0,0,1,.5-1.191A1.806,1.806,0,0,1,51.537,6.1a1.864,1.864,0,0,1,1.255.43,1.464,1.464,0,0,1,.522,1.123,1.493,1.493,0,0,1-.5,1.2,1.811,1.811,0,0,1-1.27.474A1.887,1.887,0,0,1,50.3,8.9,1.447,1.447,0,0,1,49.77,7.768Zm7.92,9.277,2.646-6.611H63.8L58.8,21H55.531L53.842,10.434h3.3Zm11.357-6.807a4.438,4.438,0,0,1,2.451.708,3.989,3.989,0,0,1,1.519,1.919,5.922,5.922,0,0,1,.347,2.734l-.02.215a6.262,6.262,0,0,1-1.807,3.926A5.083,5.083,0,0,1,67.748,21.2a4.419,4.419,0,0,1-2.432-.7A4.014,4.014,0,0,1,63.8,18.6a5.755,5.755,0,0,1-.356-2.715,6.514,6.514,0,0,1,1.782-4.141A5.052,5.052,0,0,1,69.047,10.238Zm-2.393,5.649-.029.575q-.137,2.174,1.328,2.213,1.895.059,2.2-3.071l.039-.887a2.394,2.394,0,0,0-.327-1.4,1.192,1.192,0,0,0-1.021-.541,1.68,1.68,0,0,0-1.46.726A4.753,4.753,0,0,0,66.654,15.887Zm13.184,2.085q.127-.645-1-.967l-.693-.176a5.34,5.34,0,0,1-2.49-1.26,2.494,2.494,0,0,1-.742-1.924,3.065,3.065,0,0,1,1.353-2.476,5.148,5.148,0,0,1,3.179-.933,4.769,4.769,0,0,1,3.022.947,3.09,3.09,0,0,1,1.177,2.5l-3.2-.01q.039-1.25-1.1-1.25a1.574,1.574,0,0,0-.908.288,1.119,1.119,0,0,0-.5.767q-.166.791,1.4,1.084a8.116,8.116,0,0,1,2.1.747,3.135,3.135,0,0,1,1.133,1.05,2.611,2.611,0,0,1,.361,1.5,2.824,2.824,0,0,1-.625,1.709,4.047,4.047,0,0,1-1.724,1.2,6.174,6.174,0,0,1-2.446.42A4.965,4.965,0,0,1,76,20.717a3.787,3.787,0,0,1-1.533-1.274,3.31,3.31,0,0,1-.571-1.851l2.988.02A1.234,1.234,0,0,0,78.295,19a1.846,1.846,0,0,0,1.016-.269A1.161,1.161,0,0,0,79.838,17.973Zm13.906.684a1.382,1.382,0,0,0,1.084-.383,1.907,1.907,0,0,0,.5-1.043l3.008-.01a3.954,3.954,0,0,1-.688,2.08,4.161,4.161,0,0,1-1.7,1.421,5.023,5.023,0,0,1-2.29.474A3.967,3.967,0,0,1,90.4,19.677a5.251,5.251,0,0,1-.928-3.823l.029-.234a7.079,7.079,0,0,1,.9-2.837,5.14,5.14,0,0,1,1.9-1.909,4.926,4.926,0,0,1,2.632-.635,3.929,3.929,0,0,1,2.915,1.177,4.173,4.173,0,0,1,1.03,3.071l-3.008-.01q.049-1.67-1.2-1.7-1.7-.059-1.953,2.852l-.088.993-.01.37Q92.621,18.627,93.744,18.656Zm11.445-8.418a4.438,4.438,0,0,1,2.451.708,3.989,3.989,0,0,1,1.519,1.919,5.922,5.922,0,0,1,.347,2.734l-.02.215a6.262,6.262,0,0,1-1.807,3.926,5.083,5.083,0,0,1-3.789,1.455,4.419,4.419,0,0,1-2.432-.7,4.014,4.014,0,0,1-1.519-1.9,5.755,5.755,0,0,1-.356-2.715,6.514,6.514,0,0,1,1.782-4.141A5.052,5.052,0,0,1,105.189,10.238ZM102.8,15.887l-.029.575q-.137,2.174,1.328,2.213,1.895.059,2.2-3.071l.039-.887a2.394,2.394,0,0,0-.327-1.4,1.192,1.192,0,0,0-1.021-.541,1.68,1.68,0,0,0-1.46.726A4.753,4.753,0,0,0,102.8,15.887Zm11.992-5.464-.225,1.27a3.756,3.756,0,0,1,3.057-1.465,2.523,2.523,0,0,1,2.183,1.089,4.557,4.557,0,0,1,.522,3.032L119.213,21H115.99l1.123-6.678a3.454,3.454,0,0,0,.02-.626q-.068-.929-1.094-.929a2.008,2.008,0,0,0-1.553.753L113.168,21h-3.213l1.836-10.566Zm12.227,7.549q.127-.645-1-.967l-.693-.176a5.34,5.34,0,0,1-2.49-1.26,2.494,2.494,0,0,1-.742-1.924,3.065,3.065,0,0,1,1.353-2.476,5.148,5.148,0,0,1,3.179-.933,4.769,4.769,0,0,1,3.022.947,3.09,3.09,0,0,1,1.177,2.5l-3.2-.01q.039-1.25-1.1-1.25a1.574,1.574,0,0,0-.908.288,1.119,1.119,0,0,0-.5.767q-.166.791,1.4,1.084a8.116,8.116,0,0,1,2.1.747,3.135,3.135,0,0,1,1.133,1.05,2.611,2.611,0,0,1,.361,1.5,2.824,2.824,0,0,1-.625,1.709,4.047,4.047,0,0,1-1.724,1.2,6.174,6.174,0,0,1-2.446.42,4.965,4.965,0,0,1-2.124-.479,3.787,3.787,0,0,1-1.533-1.274,3.31,3.31,0,0,1-.571-1.851l2.988.02A1.234,1.234,0,0,0,125.473,19a1.846,1.846,0,0,0,1.016-.269A1.161,1.161,0,0,0,127.016,17.973Zm9.336,3.223a4.912,4.912,0,0,1-2.524-.669,4.215,4.215,0,0,1-1.675-1.836A4.933,4.933,0,0,1,131.7,16.1l.029-.273a6.477,6.477,0,0,1,1.812-4.126,5.011,5.011,0,0,1,3.794-1.46,4.086,4.086,0,0,1,2.324.689,3.853,3.853,0,0,1,1.416,1.848,5.661,5.661,0,0,1,.293,2.646l-.186,1.34H134.9a2.06,2.06,0,0,0,.469,1.348,1.722,1.722,0,0,0,1.309.547,3.325,3.325,0,0,0,2.51-1.074l1.348,1.782a3.976,3.976,0,0,1-1.665,1.329,5.848,5.848,0,0,1-2.339.5Zm.781-8.418a1.653,1.653,0,0,0-1.187.427,3.588,3.588,0,0,0-.874,1.5h3.213l.059-.282a2.143,2.143,0,0,0,.02-.641A1.131,1.131,0,0,0,137.133,12.777Zm5.176,2.92a8.029,8.029,0,0,1,.874-2.881,5.071,5.071,0,0,1,1.724-1.948,4.15,4.15,0,0,1,2.344-.64,2.885,2.885,0,0,1,2.4,1.143l.342-.947,2.969.01L151.234,20.59a4.964,4.964,0,0,1-1.885,3.389,6,6,0,0,1-3.965,1.182,5.661,5.661,0,0,1-2.041-.42,4.4,4.4,0,0,1-1.689-1.211l1.523-1.895a2.766,2.766,0,0,0,2.207,1.1,2.582,2.582,0,0,0,2.715-2.275l.078-.322a3.3,3.3,0,0,1-2.412,1.055,3.258,3.258,0,0,1-1.787-.513,3.371,3.371,0,0,1-1.211-1.45,5.64,5.64,0,0,1-.5-2.109A9.17,9.17,0,0,1,142.309,15.7Zm3.174,1.045a2.562,2.562,0,0,0,.322,1.4,1.093,1.093,0,0,0,.938.518,2.147,2.147,0,0,0,1.65-.7l.83-4.482a1.424,1.424,0,0,0-1.309-.7,1.87,1.87,0,0,0-1.572.8,4.291,4.291,0,0,0-.8,2.144Q145.482,16.322,145.482,16.742Zm14.072,3.105a3.5,3.5,0,0,1-2.852,1.357,2.769,2.769,0,0,1-2.339-1.084,4,4,0,0,1-.61-2.852l1.143-6.836h3.213l-1.162,6.883a2.294,2.294,0,0,0,0,.518.851.851,0,0,0,.947.831,2.076,2.076,0,0,0,1.729-.8l1.309-7.431h3.232L162.328,21H159.34ZM167.445,21h-3.223l1.836-10.566h3.223Zm-1.1-13.232a1.49,1.49,0,0,1,.5-1.191,1.806,1.806,0,0,1,1.265-.479,1.864,1.864,0,0,1,1.255.43,1.464,1.464,0,0,1,.522,1.123,1.493,1.493,0,0,1-.5,1.2,1.811,1.811,0,0,1-1.27.474,1.887,1.887,0,0,1-1.245-.425A1.447,1.447,0,0,1,166.342,7.768Zm3.672,7.93a7.685,7.685,0,0,1,1.523-4,3.775,3.775,0,0,1,3.184-1.455,2.88,2.88,0,0,1,2.236,1.133L177.982,6h3.223l-2.6,15h-2.861l.137-1.143a3.3,3.3,0,0,1-2.627,1.348,2.911,2.911,0,0,1-2.388-1.128,4.974,4.974,0,0,1-.923-2.974,9.147,9.147,0,0,1,.039-1.2Zm3.2.225a7.669,7.669,0,0,0-.068,1.094q0,1.621,1.094,1.65a2.049,2.049,0,0,0,1.689-.908l.723-4.053a1.3,1.3,0,0,0-1.289-.928,1.643,1.643,0,0,0-1.45.776A5.007,5.007,0,0,0,173.217,15.922Zm13.438-5.684a4.438,4.438,0,0,1,2.451.708,3.989,3.989,0,0,1,1.519,1.919,5.922,5.922,0,0,1,.347,2.734l-.02.215a6.262,6.262,0,0,1-1.807,3.926,5.083,5.083,0,0,1-3.789,1.455,4.419,4.419,0,0,1-2.432-.7,4.014,4.014,0,0,1-1.519-1.9,5.755,5.755,0,0,1-.356-2.715,6.514,6.514,0,0,1,1.782-4.141A5.052,5.052,0,0,1,186.654,10.238Zm-2.393,5.649-.029.575q-.137,2.174,1.328,2.213,1.895.059,2.2-3.071l.039-.887a2.394,2.394,0,0,0-.327-1.4,1.192,1.192,0,0,0-1.021-.541,1.68,1.68,0,0,0-1.46.726A4.753,4.753,0,0,0,184.262,15.887Zm13.184,2.085q.127-.645-1-.967l-.693-.176a5.34,5.34,0,0,1-2.49-1.26,2.494,2.494,0,0,1-.742-1.924,3.065,3.065,0,0,1,1.353-2.476,5.148,5.148,0,0,1,3.179-.933,4.769,4.769,0,0,1,3.022.947,3.09,3.09,0,0,1,1.177,2.5l-3.2-.01q.039-1.25-1.1-1.25a1.574,1.574,0,0,0-.908.288,1.119,1.119,0,0,0-.5.767q-.166.791,1.4,1.084a8.116,8.116,0,0,1,2.1.747,3.135,3.135,0,0,1,1.133,1.05,2.611,2.611,0,0,1,.361,1.5,2.824,2.824,0,0,1-.625,1.709,4.047,4.047,0,0,1-1.724,1.2,6.174,6.174,0,0,1-2.446.42,4.965,4.965,0,0,1-2.124-.479,3.787,3.787,0,0,1-1.533-1.274,3.31,3.31,0,0,1-.571-1.851l2.988.02A1.234,1.234,0,0,0,195.9,19a1.846,1.846,0,0,0,1.016-.269A1.161,1.161,0,0,0,197.445,17.973Z" transform="translate(105 142.061)" fill="#12263f"/>
    <path id="Trazado_646303" data-name="Trazado 646303" d="M44.069,9.428H39.929L37.927,21h-3.35L36.589,9.428H32.517l.469-2.646H44.528Zm3.457.811a4.438,4.438,0,0,1,2.451.708A3.989,3.989,0,0,1,51.5,12.865a5.922,5.922,0,0,1,.347,2.734l-.02.215a6.262,6.262,0,0,1-1.807,3.926A5.083,5.083,0,0,1,46.228,21.2a4.419,4.419,0,0,1-2.432-.7,4.014,4.014,0,0,1-1.519-1.9,5.755,5.755,0,0,1-.356-2.715A6.514,6.514,0,0,1,43.7,11.742,5.052,5.052,0,0,1,47.526,10.238Zm-2.393,5.649-.029.575q-.137,2.174,1.328,2.213,1.895.059,2.2-3.071l.039-.887a2.394,2.394,0,0,0-.327-1.4,1.192,1.192,0,0,0-1.021-.541,1.68,1.68,0,0,0-1.46.726A4.753,4.753,0,0,0,45.134,15.887ZM58.386,7.807l-.459,2.627h1.689l-.4,2.285H57.526l-.82,4.854a1.294,1.294,0,0,0,.063.752q.132.254.659.273a7.637,7.637,0,0,0,.84-.049l-.234,2.383a5.192,5.192,0,0,1-1.729.244,2.847,2.847,0,0,1-2.236-.879,3,3,0,0,1-.605-2.334l.859-5.244H53.015l.391-2.285h1.309l.459-2.627ZM65.075,21a2.865,2.865,0,0,1-.137-.957A3.259,3.259,0,0,1,62.351,21.2a3.184,3.184,0,0,1-2.285-.918,2.759,2.759,0,0,1-.85-2.178,3.1,3.1,0,0,1,1.436-2.642,6.768,6.768,0,0,1,3.789-.923l1.074.02.117-.6.039-.518a.839.839,0,0,0-.889-.918,1.235,1.235,0,0,0-1.3,1.162l-3.223.01a3.06,3.06,0,0,1,.693-1.851,4.109,4.109,0,0,1,1.753-1.211,6.125,6.125,0,0,1,2.358-.4,4.723,4.723,0,0,1,2.1.5,3.133,3.133,0,0,1,1.353,1.318,3.368,3.368,0,0,1,.342,1.948l-.791,4.971-.049.605a2.669,2.669,0,0,0,.186,1.23L68.2,21Zm-1.836-2.129A2.072,2.072,0,0,0,64.968,18l.322-1.7-.83-.01a2.188,2.188,0,0,0-1.328.454,1.722,1.722,0,0,0-.654,1.187.865.865,0,0,0,.151.659A.773.773,0,0,0,63.239,18.871ZM72.9,21H69.675l2.6-15H75.5Zm7.5-5.3a7.685,7.685,0,0,1,1.523-4A3.775,3.775,0,0,1,85.1,10.238a2.88,2.88,0,0,1,2.236,1.133L88.366,6h3.223l-2.6,15H86.13l.137-1.143a3.3,3.3,0,0,1-2.627,1.348,2.911,2.911,0,0,1-2.388-1.128,4.974,4.974,0,0,1-.923-2.974,9.146,9.146,0,0,1,.039-1.2Zm3.2.225a7.669,7.669,0,0,0-.068,1.094q0,1.621,1.094,1.65a2.049,2.049,0,0,0,1.689-.908l.723-4.053a1.3,1.3,0,0,0-1.289-.928,1.643,1.643,0,0,0-1.45.776A5.008,5.008,0,0,0,83.6,15.922ZM96.13,21.2a4.912,4.912,0,0,1-2.524-.669,4.215,4.215,0,0,1-1.675-1.836,4.933,4.933,0,0,1-.449-2.593l.029-.273A6.477,6.477,0,0,1,93.322,11.7a5.011,5.011,0,0,1,3.794-1.46,4.086,4.086,0,0,1,2.324.689,3.853,3.853,0,0,1,1.416,1.848,5.662,5.662,0,0,1,.293,2.646l-.186,1.34H94.675a2.06,2.06,0,0,0,.469,1.348,1.722,1.722,0,0,0,1.309.547,3.325,3.325,0,0,0,2.51-1.074l1.348,1.782a3.976,3.976,0,0,1-1.665,1.329,5.848,5.848,0,0,1-2.339.5Zm.781-8.418a1.653,1.653,0,0,0-1.187.427,3.588,3.588,0,0,0-.874,1.5h3.213l.059-.282a2.143,2.143,0,0,0,.02-.641A1.131,1.131,0,0,0,96.911,12.777Zm14.336,4.268,2.646-6.611h3.467L112.36,21h-3.271L107.4,10.434h3.3ZM119.978,21h-3.223l1.836-10.566h3.223Zm-1.1-13.232a1.49,1.49,0,0,1,.5-1.191,1.806,1.806,0,0,1,1.265-.479,1.864,1.864,0,0,1,1.255.43,1.464,1.464,0,0,1,.522,1.123,1.493,1.493,0,0,1-.5,1.2,1.811,1.811,0,0,1-1.27.474,1.887,1.887,0,0,1-1.245-.425A1.447,1.447,0,0,1,118.874,7.768Zm9.1,10.205q.127-.645-1-.967l-.693-.176a5.34,5.34,0,0,1-2.49-1.26,2.494,2.494,0,0,1-.742-1.924,3.065,3.065,0,0,1,1.353-2.476,5.148,5.148,0,0,1,3.179-.933,4.769,4.769,0,0,1,3.022.947,3.09,3.09,0,0,1,1.177,2.5l-3.2-.01q.039-1.25-1.1-1.25a1.574,1.574,0,0,0-.908.288,1.119,1.119,0,0,0-.5.767q-.166.791,1.4,1.084a8.116,8.116,0,0,1,2.1.747,3.135,3.135,0,0,1,1.133,1.05,2.611,2.611,0,0,1,.361,1.5,2.824,2.824,0,0,1-.625,1.709,4.047,4.047,0,0,1-1.724,1.2,6.174,6.174,0,0,1-2.446.42,4.965,4.965,0,0,1-2.124-.479,3.787,3.787,0,0,1-1.533-1.274,3.31,3.31,0,0,1-.571-1.851l2.988.02A1.234,1.234,0,0,0,126.433,19a1.846,1.846,0,0,0,1.016-.269A1.161,1.161,0,0,0,127.976,17.973ZM135.446,21h-3.223l1.836-10.566h3.223Zm-1.1-13.232a1.49,1.49,0,0,1,.5-1.191A1.806,1.806,0,0,1,136.11,6.1a1.864,1.864,0,0,1,1.255.43,1.464,1.464,0,0,1,.522,1.123,1.493,1.493,0,0,1-.5,1.2,1.811,1.811,0,0,1-1.27.474,1.887,1.887,0,0,1-1.245-.425A1.447,1.447,0,0,1,134.343,7.768Zm9.17.039-.459,2.627h1.689l-.4,2.285h-1.689l-.82,4.854a1.294,1.294,0,0,0,.063.752q.132.254.659.273a7.637,7.637,0,0,0,.84-.049l-.234,2.383a5.192,5.192,0,0,1-1.729.244A2.847,2.847,0,0,1,139.2,20.3a3,3,0,0,1-.605-2.334l.859-5.244h-1.309l.391-2.285h1.309l.459-2.627ZM150.2,21a2.865,2.865,0,0,1-.137-.957,3.259,3.259,0,0,1-2.588,1.152,3.184,3.184,0,0,1-2.285-.918,2.759,2.759,0,0,1-.85-2.178,3.1,3.1,0,0,1,1.436-2.642,6.768,6.768,0,0,1,3.789-.923l1.074.02.117-.6.039-.518a.839.839,0,0,0-.889-.918,1.235,1.235,0,0,0-1.3,1.162l-3.223.01a3.06,3.06,0,0,1,.693-1.851,4.109,4.109,0,0,1,1.753-1.211,6.125,6.125,0,0,1,2.358-.4,4.723,4.723,0,0,1,2.1.5,3.133,3.133,0,0,1,1.353,1.318,3.368,3.368,0,0,1,.342,1.948l-.791,4.971-.049.605a2.669,2.669,0,0,0,.186,1.23l-.01.186Zm-1.836-2.129A2.072,2.072,0,0,0,150.095,18l.322-1.7-.83-.01a2.188,2.188,0,0,0-1.328.454,1.722,1.722,0,0,0-.654,1.187.865.865,0,0,0,.151.659A.773.773,0,0,0,148.366,18.871Zm12.227-.9q.127-.645-1-.967l-.693-.176a5.34,5.34,0,0,1-2.49-1.26,2.494,2.494,0,0,1-.742-1.924,3.065,3.065,0,0,1,1.353-2.476,5.148,5.148,0,0,1,3.179-.933,4.769,4.769,0,0,1,3.022.947,3.09,3.09,0,0,1,1.177,2.5l-3.2-.01q.039-1.25-1.1-1.25a1.574,1.574,0,0,0-.908.288,1.119,1.119,0,0,0-.5.767q-.166.791,1.4,1.084a8.116,8.116,0,0,1,2.1.747,3.135,3.135,0,0,1,1.133,1.05,2.611,2.611,0,0,1,.361,1.5,2.824,2.824,0,0,1-.625,1.709,4.047,4.047,0,0,1-1.724,1.2,6.174,6.174,0,0,1-2.446.42,4.965,4.965,0,0,1-2.124-.479,3.787,3.787,0,0,1-1.533-1.274,3.31,3.31,0,0,1-.571-1.851l2.988.02A1.234,1.234,0,0,0,159.05,19a1.846,1.846,0,0,0,1.016-.269A1.161,1.161,0,0,0,160.593,17.973Z" transform="translate(105 181.061)" fill="#12263f"/>
    <path id="Trazado_639272" data-name="Trazado 639272" d="M895.619,137.917h239.548" transform="translate(-809.167 33.915)" fill="none" stroke="#12263f" stroke-width="2"/>
  </g>
</svg>
