<svg xmlns="http://www.w3.org/2000/svg" width="96.099" height="98.876" viewBox="0 0 96.099 98.876">
  <g id="Grupo_882749" data-name="Grupo 882749" transform="translate(-7.191 -0.01)">
    <g id="Grupo_882748" data-name="Grupo 882748" transform="translate(8.735 1.555)">
      <g id="Grupo_882744" data-name="Grupo 882744" transform="translate(0)">
        <path id="Trazado_639787" data-name="Trazado 639787" d="M19.231,8.01H104.15a4.058,4.058,0,0,1,4.046,4.046V78.023a4.058,4.058,0,0,1-4.046,4.046H19.231a4.058,4.058,0,0,1-4.046-4.046V12.056A4.058,4.058,0,0,1,19.231,8.01Z" transform="translate(-15.185 -8.01)" fill="#eceff1" fill-rule="evenodd"/>
        <path id="Trazado_639788" data-name="Trazado 639788" d="M455.861,8.01h3.863a4.058,4.058,0,0,1,4.046,4.046V78.023a4.058,4.058,0,0,1-4.046,4.046h-3.863a4.058,4.058,0,0,0,4.046-4.046V12.056a4.058,4.058,0,0,0-4.046-4.046Z" transform="translate(-370.758 -8.01)" fill="#d1d1d6" fill-rule="evenodd"/>
        <path id="Trazado_639789" data-name="Trazado 639789" d="M19.231,8.01H104.15a4.058,4.058,0,0,1,4.046,4.046v10.4H15.185v-10.4A4.058,4.058,0,0,1,19.231,8.01Z" transform="translate(-15.185 -8.01)" fill="#a79ba7" fill-rule="evenodd"/>
        <path id="Trazado_639790" data-name="Trazado 639790" d="M455.861,8.01h3.863a4.058,4.058,0,0,1,4.046,4.046v10.4h-3.863v-10.4A4.058,4.058,0,0,0,455.861,8.01Z" transform="translate(-370.758 -8.01)" fill="#837683" fill-rule="evenodd"/>
        <path id="Trazado_639791" data-name="Trazado 639791" d="M62.3,37.907a2.365,2.365,0,1,0-2.365-2.365A2.369,2.369,0,0,0,62.3,37.907Z" transform="translate(-51.291 -28.318)" fill="#fe646f" fill-rule="evenodd"/>
        <path id="Trazado_639792" data-name="Trazado 639792" d="M109.3,37.907a2.365,2.365,0,1,0-2.365-2.365A2.369,2.369,0,0,0,109.3,37.907Z" transform="translate(-89.218 -28.318)" fill="#ffe177" fill-rule="evenodd"/>
        <path id="Trazado_639793" data-name="Trazado 639793" d="M156.3,37.907a2.365,2.365,0,1,0-2.365-2.365A2.369,2.369,0,0,0,156.3,37.907Z" transform="translate(-127.144 -28.318)" fill="#6cf5c2" fill-rule="evenodd"/>
      </g>
      <g id="Grupo_882745" data-name="Grupo 882745" transform="translate(7.622 18.209)">
        <circle id="Elipse_6931" data-name="Elipse 6931" cx="13.142" cy="13.142" r="13.142" transform="matrix(0.94, -0.34, 0.34, 0.94, 0, 8.936)" fill="#60b7ff"/>
        <circle id="Elipse_6932" data-name="Elipse 6932" cx="11.509" cy="11.509" r="11.509" transform="matrix(0.94, -0.34, 0.34, 0.94, 2.09, 9.916)" fill="#2b95f9"/>
        <path id="Trazado_639794" data-name="Trazado 639794" d="M141.877,189.393h13.142a13.136,13.136,0,0,1-6.57,11.383Z" transform="translate(-125.033 -172.573)" fill="#fd4755" fill-rule="evenodd"/>
        <path id="Trazado_639795" data-name="Trazado 639795" d="M141.877,189.393h11.509a11.5,11.5,0,0,1-5.754,9.968Z" transform="translate(-125.033 -172.573)" fill="#fd4c1b" fill-rule="evenodd"/>
        <path id="Trazado_639796" data-name="Trazado 639796" d="M155.018,134.485H141.876V121.343A13.142,13.142,0,0,1,155.018,134.485Z" transform="translate(-125.032 -117.665)" fill="#ffd064" fill-rule="evenodd"/>
        <path id="Trazado_639797" data-name="Trazado 639797" d="M153.385,141.307H141.876V129.8A11.509,11.509,0,0,1,153.385,141.307Z" transform="translate(-125.032 -124.487)" fill="#ffb338" fill-rule="evenodd"/>
      </g>
      <g id="Grupo_882746" data-name="Grupo 882746" transform="translate(58.854 36.447)">
        <path id="Trazado_639798" data-name="Trazado 639798" d="M320.907,246.969h2.588a.967.967,0,0,1,.966.966v15.292a.967.967,0,0,1-.966.966h-2.588a.967.967,0,0,1-.966-.966V247.935A.968.968,0,0,1,320.907,246.969Z" transform="translate(-319.941 -237.269)" fill="#ffb338" fill-rule="evenodd"/>
        <path id="Trazado_639799" data-name="Trazado 639799" d="M328.341,246.969h1.931a.967.967,0,0,1,.966.966v15.292a.967.967,0,0,1-.966.966h-1.931a.967.967,0,0,0,.966-.966V247.935A.967.967,0,0,0,328.341,246.969Z" transform="translate(-326.719 -237.269)" fill="#ffb338" fill-rule="evenodd"/>
        <path id="Trazado_639800" data-name="Trazado 639800" d="M371.246,221.854h2.588a.967.967,0,0,1,.966.966v20.142a.967.967,0,0,1-.966.966h-2.588a.967.967,0,0,1-.966-.966V222.82A.967.967,0,0,1,371.246,221.854Z" transform="translate(-360.559 -217.004)" fill="#ffb338" fill-rule="evenodd"/>
        <path id="Trazado_639801" data-name="Trazado 639801" d="M378.68,221.854h1.931a.967.967,0,0,1,.966.966v20.142a.967.967,0,0,1-.966.966H378.68a.967.967,0,0,0,.966-.966V222.82A.967.967,0,0,0,378.68,221.854Z" transform="translate(-367.336 -217.004)" fill="#ffb338" fill-rule="evenodd"/>
        <path id="Trazado_639802" data-name="Trazado 639802" d="M421.585,196.74h2.588a.967.967,0,0,1,.966.966V222.7a.967.967,0,0,1-.966.966h-2.588a.967.967,0,0,1-.966-.966V197.706A.967.967,0,0,1,421.585,196.74Z" transform="translate(-401.176 -196.74)" fill="#ffb338" fill-rule="evenodd"/>
        <path id="Trazado_639803" data-name="Trazado 639803" d="M429.019,196.74h1.931a.967.967,0,0,1,.966.966V222.7a.967.967,0,0,1-.966.966h-1.931a.967.967,0,0,0,.966-.966V197.706A.967.967,0,0,0,429.019,196.74Z" transform="translate(-407.954 -196.74)" fill="#ffb338" fill-rule="evenodd"/>
      </g>
      <g id="Grupo_882747" data-name="Grupo 882747" transform="translate(19.314 41.485)">
        <path id="Trazado_639804" data-name="Trazado 639804" d="M294.93,392.841a17.228,17.228,0,0,1-2.906,3.2l7.9,7.745,3.008-3.1Z" transform="translate(-257.875 -360.008)" fill="#a79ba7" fill-rule="evenodd"/>
        <path id="Trazado_639805" data-name="Trazado 639805" d="M303.754,392.565a1.985,1.985,0,0,1-.86,1.153l7.849,7.8.961-1.053Z" transform="translate(-266.646 -359.785)" fill="#837683" fill-rule="evenodd"/>
        <path id="Trazado_639806" data-name="Trazado 639806" d="M334.3,437.806l3.395-3.5a1.561,1.561,0,0,0-.033-2.2l-9.4-9.124a1.561,1.561,0,0,0-2.2.033l-3.395,3.5a1.561,1.561,0,0,0,.033,2.2l9.4,9.124A1.562,1.562,0,0,0,334.3,437.806Z" transform="translate(-282.243 -383.975)" fill="#f1ba84" fill-rule="evenodd"/>
        <path id="Trazado_639807" data-name="Trazado 639807" d="M344.642,422.984l9.4,9.124a1.561,1.561,0,0,1,.033,2.2l-3.395,3.5a1.544,1.544,0,0,1-.422.308,1.563,1.563,0,0,0,1.813-.308l3.395-3.5a1.561,1.561,0,0,0-.033-2.2l-9.4-9.124a1.562,1.562,0,0,0-1.779-.275A1.54,1.54,0,0,1,344.642,422.984Z" transform="translate(-300.019 -383.977)" fill="#e3a76f" fill-rule="evenodd"/>
        <ellipse id="Elipse_6933" data-name="Elipse 6933" cx="17.123" cy="17.122" rx="17.123" ry="17.122" transform="translate(0 24.211) rotate(-45)" fill="#8ac9fe"/>
        <path id="Trazado_639808" data-name="Trazado 639808" d="M237.156,259.543a17.123,17.123,0,0,1,0,34.245q-.418,0-.831-.02a17.122,17.122,0,0,0,0-34.2Q236.738,259.544,237.156,259.543Z" transform="translate(-212.933 -252.452)" fill="#60b7ff" fill-rule="evenodd"/>
        <circle id="Elipse_6934" data-name="Elipse 6934" cx="12.295" cy="12.295" r="12.295" transform="translate(8.181 17.555) rotate(-22.514)" fill="#eceff1"/>
        <path id="Trazado_639809" data-name="Trazado 639809" d="M189.258,284.541c.279,0,.556.01.831.029a12.295,12.295,0,0,0,0,24.533c-.275.018-.552.029-.831.029a12.3,12.3,0,1,1,0-24.59Z" transform="translate(-165.035 -272.623)" fill="#d1d1d6" fill-rule="evenodd"/>
      </g>
    </g>
    <path id="Trazado_639810" data-name="Trazado 639810" d="M52.273,78A10.75,10.75,0,1,1,63.022,67.254,10.763,10.763,0,0,1,52.273,78Zm0-24.59A13.84,13.84,0,1,0,66.111,67.254,13.856,13.856,0,0,0,52.273,53.413ZM74.958,31.942a1.545,1.545,0,0,1-1.545,1.545H58.327a1.544,1.544,0,1,1,0-3.089H73.413A1.545,1.545,0,0,1,74.958,31.942ZM56.782,25.413a1.545,1.545,0,0,1,1.545-1.545H88.5a1.545,1.545,0,0,1,0,3.09H58.327A1.544,1.544,0,0,1,56.782,25.413ZM90.006,63.38H88.577V39.547h1.429ZM91.55,36.458H87.032A1.544,1.544,0,0,0,85.487,38V64.925a1.545,1.545,0,0,0,1.545,1.545H91.55A1.545,1.545,0,0,0,93.1,64.925V38A1.544,1.544,0,0,0,91.55,36.458ZM80.285,63.38H78.855V44.4h1.429Zm1.545-22.073H77.31a1.546,1.546,0,0,0-1.545,1.545V64.925A1.545,1.545,0,0,0,77.31,66.47h4.519a1.544,1.544,0,0,0,1.544-1.545V42.851A1.545,1.545,0,0,0,81.829,41.307ZM26.63,64.794a1.544,1.544,0,0,1-1.544,1.544H20.06a1.545,1.545,0,1,1,0-3.089h5.026A1.544,1.544,0,0,1,26.63,64.794Zm0-6.75a1.544,1.544,0,0,1-1.544,1.545H20.06a1.544,1.544,0,1,1,0-3.089h5.026A1.544,1.544,0,0,1,26.63,58.044ZM40.353,45.7,35.9,38.129l8.791,0A11.6,11.6,0,0,1,40.353,45.7ZM21.6,36.582A11.6,11.6,0,0,0,37.694,47.273L31.87,37.367a1.546,1.546,0,0,1-.212-.784V25.092A11.614,11.614,0,0,0,21.6,36.582Zm23.087-1.539-9.946,0V25.092A11.617,11.617,0,0,1,44.692,35.044ZM33.2,21.9A14.687,14.687,0,1,0,47.889,36.582,14.7,14.7,0,0,0,33.2,21.9ZM35.531,8.78A2.365,2.365,0,1,1,37.9,11.146,2.369,2.369,0,0,1,35.531,8.78Zm-9.077,0a2.365,2.365,0,1,1,2.364,2.366A2.369,2.369,0,0,1,26.454,8.78Zm-9.078,0a2.364,2.364,0,1,1,2.365,2.366A2.369,2.369,0,0,1,17.376,8.78ZM97.7,74.069a2.5,2.5,0,0,0,2.5-2.5V17.551H10.281V71.568a2.5,2.5,0,0,0,2.5,2.5H34.893a18.559,18.559,0,0,1-1.287-6.815q0-.462.021-.916H31a1.545,1.545,0,1,1,0-3.089h3.041a18.673,18.673,0,0,1,1.212-3.66H31A1.544,1.544,0,1,1,31,56.5h6.025a18.644,18.644,0,0,1,29.021-1.835V47.7a1.545,1.545,0,0,1,1.545-1.545h4.519A1.545,1.545,0,0,1,73.653,47.7V64.925a1.545,1.545,0,0,1-1.545,1.545H70.922c.012.261.017.521.017.784a18.544,18.544,0,0,1-1.288,6.815ZM72.988,83.155l9.4,9.142-3.4,3.5h-.018l-9.4-9.141Zm-4.36.039-3-2.912c.286-.294.564-.595.831-.908l3.028,2.937ZM70.563,63.38h-.027a18.492,18.492,0,0,0-1.4-4.131v-10h1.429V63.38ZM36.7,67.254A15.577,15.577,0,1,0,52.273,51.675,15.594,15.594,0,0,0,36.7,67.254ZM12.782,3.1a2.5,2.5,0,0,0-2.5,2.5v8.86H100.2V5.6a2.5,2.5,0,0,0-2.5-2.5H12.782ZM97.7.01H12.782A5.6,5.6,0,0,0,7.191,5.6V71.568a5.6,5.6,0,0,0,5.591,5.592H36.457a18.643,18.643,0,0,0,26.829,5.156L66.673,85.6a3.106,3.106,0,0,0,.752,3.287l9.4,9.125a3.107,3.107,0,0,0,4.386-.067l3.4-3.5a3.106,3.106,0,0,0-.066-4.386l-9.4-9.125a3.1,3.1,0,0,0-3.306-.652l-3.221-3.126H97.7a5.6,5.6,0,0,0,5.591-5.592V5.6A5.6,5.6,0,0,0,97.7.01Z" fill-rule="evenodd"/>
  </g>
</svg>
