<svg id="Grupo_882450" data-name="Grupo 882450" xmlns="http://www.w3.org/2000/svg" xmlns:xlink="http://www.w3.org/1999/xlink" width="369.621" height="247.132" viewBox="0 0 369.621 247.132">
  <defs>
    <clipPath id="clip-path">
      <rect id="Rectángulo_330510" data-name="Rectángulo 330510" width="369.621" height="247.132" fill="none"/>
    </clipPath>
    <clipPath id="clip-path-3">
      <rect id="Rectángulo_330459" data-name="Rectángulo 330459" width="16.166" height="13.523" fill="none"/>
    </clipPath>
    <clipPath id="clip-path-6">
      <rect id="Rectángulo_330467" data-name="Rectángulo 330467" width="9.481" height="5.572" fill="none"/>
    </clipPath>
    <clipPath id="clip-path-7">
      <rect id="Rectángulo_330469" data-name="Rectángulo 330469" width="13.311" height="40.565" fill="none"/>
    </clipPath>
    <clipPath id="clip-path-8">
      <rect id="Rectángulo_330472" data-name="Rectángulo 330472" width="6.095" height="8.656" fill="none"/>
    </clipPath>
    <clipPath id="clip-path-11">
      <rect id="Rectángulo_330476" data-name="Rectángulo 330476" width="9.275" height="19.755" fill="#617a0b"/>
    </clipPath>
    <clipPath id="clip-path-12">
      <rect id="Rectángulo_330477" data-name="Rectángulo 330477" width="17.337" height="10.848" fill="#617a0b"/>
    </clipPath>
    <clipPath id="clip-path-14">
      <rect id="Rectángulo_330483" data-name="Rectángulo 330483" width="6.123" height="32.521" fill="none"/>
    </clipPath>
    <clipPath id="clip-path-15">
      <rect id="Rectángulo_330485" data-name="Rectángulo 330485" width="20.192" height="19.66" fill="none"/>
    </clipPath>
    <clipPath id="clip-path-16">
      <rect id="Rectángulo_330486" data-name="Rectángulo 330486" width="20.291" height="19.66" fill="none"/>
    </clipPath>
    <clipPath id="clip-path-18">
      <rect id="Rectángulo_330488" data-name="Rectángulo 330488" width="20.529" height="19.66" fill="none"/>
    </clipPath>
    <clipPath id="clip-path-21">
      <rect id="Rectángulo_330491" data-name="Rectángulo 330491" width="2.355" height="11.159" fill="none"/>
    </clipPath>
    <clipPath id="clip-path-22">
      <rect id="Rectángulo_330492" data-name="Rectángulo 330492" width="9.7" height="3.119" fill="none"/>
    </clipPath>
    <clipPath id="clip-path-23">
      <rect id="Rectángulo_330493" data-name="Rectángulo 330493" width="10.569" height="3.758" fill="none"/>
    </clipPath>
    <clipPath id="clip-path-24">
      <rect id="Rectángulo_330494" data-name="Rectángulo 330494" width="8.617" height="28.576" fill="none"/>
    </clipPath>
    <clipPath id="clip-path-26">
      <rect id="Rectángulo_330498" data-name="Rectángulo 330498" width="8.317" height="31.796" fill="none"/>
    </clipPath>
    <clipPath id="clip-path-27">
      <rect id="Rectángulo_330500" data-name="Rectángulo 330500" width="5.11" height="27.14" fill="none"/>
    </clipPath>
    <clipPath id="clip-path-28">
      <rect id="Rectángulo_330502" data-name="Rectángulo 330502" width="1.972" height="10.167" fill="none"/>
    </clipPath>
    <clipPath id="clip-path-29">
      <rect id="Rectángulo_330503" data-name="Rectángulo 330503" width="8.972" height="2.388" fill="none"/>
    </clipPath>
    <clipPath id="clip-path-30">
      <rect id="Rectángulo_330504" data-name="Rectángulo 330504" width="9.316" height="4.076" fill="none"/>
    </clipPath>
    <clipPath id="clip-path-31">
      <rect id="Rectángulo_330505" data-name="Rectángulo 330505" width="7.781" height="26.326" fill="none"/>
    </clipPath>
    <clipPath id="clip-path-32">
      <rect id="Rectángulo_330508" data-name="Rectángulo 330508" width="28.996" height="17.98" fill="none"/>
    </clipPath>
  </defs>
  <g id="Grupo_882449" data-name="Grupo 882449" clip-path="url(#clip-path)">
    <g id="Grupo_882366" data-name="Grupo 882366">
      <g id="Grupo_882365" data-name="Grupo 882365" clip-path="url(#clip-path)">
        <path id="Trazado_638033" data-name="Trazado 638033" d="M58.531,175.706l-15.567-33.56a3.663,3.663,0,0,0-2.191-1.977l-16.7-5.523a3.663,3.663,0,0,0-4.512,2.025l-6.971,16.147a3.664,3.664,0,0,0,.021,2.951l15.567,33.56a3.663,3.663,0,0,0,4.841,1.841L56.69,180.546a3.663,3.663,0,0,0,1.841-4.841M26.894,146.714a3.438,3.438,0,1,1,2.029-4.419,3.438,3.438,0,0,1-2.029,4.419" transform="translate(-5.419 -59.273)" fill="#e0e0e0"/>
        <path id="Trazado_638034" data-name="Trazado 638034" d="M29.127,180.565c-1.522-3.273-.384-6.2,2.4-7.5,2.813-1.308,5.787-.289,7.308,2.984,1.534,3.3.384,6.2-2.429,7.51-2.786,1.3-5.748.3-7.282-3m6.438-2.992c-.893-1.921-1.921-2.364-2.841-1.936-.865.4-1.244,1.5-.351,3.42s1.976,2.338,2.841,1.936c.92-.428,1.244-1.5.351-3.419m7.276-9.468,3.9-1.811-4.128,24.945-3.895,1.811Zm3.8,15.175c-1.521-3.272-.411-6.19,2.4-7.5s5.787-.289,7.308,2.984c1.534,3.3.384,6.2-2.43,7.511s-5.747.3-7.281-3m6.438-2.993c-.892-1.92-1.948-2.35-2.841-1.936s-1.244,1.5-.351,3.42,1.948,2.351,2.841,1.936,1.244-1.5.351-3.42" transform="translate(-12.541 -73.307)" fill="#fff"/>
        <path id="Trazado_638035" data-name="Trazado 638035" d="M555.678,70.139,484.8,50.5a3.421,3.421,0,0,1-2.384-4.21l12.13-43.785A3.421,3.421,0,0,1,498.757.125l70.878,19.636a3.42,3.42,0,0,1,2.384,4.209l-12.13,43.785a3.421,3.421,0,0,1-4.211,2.384" transform="translate(-212.608 0)" fill="#e0e0e0"/>
        <path id="Trazado_638036" data-name="Trazado 638036" d="M500.855,59.316l-1.192,4.3-.442-.123,1.083-3.907-1.013-.281.109-.393Z" transform="translate(-220.071 -25.971)" fill="#fff"/>
        <path id="Trazado_638037" data-name="Trazado 638037" d="M505.653,65.271l-.108.393-3.017-.835.087-.314,2.273-1.256c.618-.344.791-.607.872-.9.138-.5-.127-.9-.784-1.084a1.516,1.516,0,0,0-1.307.154l-.238-.357a2.006,2.006,0,0,1,1.694-.193c.872.242,1.3.838,1.1,1.557-.114.411-.346.744-1.079,1.15l-1.861,1.032Z" transform="translate(-221.529 -26.793)" fill="#fff"/>
        <path id="Trazado_638038" data-name="Trazado 638038" d="M513.639,66.922l-.861-.238-.313,1.131-.442-.122.313-1.131-2.427-.673.089-.319,3.07-2.219.491.136-2.969,2.167,1.868.518.276-1,.43.119-.276.995.861.239Z" transform="translate(-224.783 -27.926)" fill="#fff"/>
        <path id="Trazado_638039" data-name="Trazado 638039" d="M525.426,70.187l-.859-.238-.313,1.131-.442-.122.313-1.131-2.427-.673.088-.319,3.069-2.219.491.136-2.969,2.167,1.868.517.276-.995.43.119-.276.995.86.239Z" transform="translate(-229.979 -29.366)" fill="#fff"/>
        <path id="Trazado_638040" data-name="Trazado 638040" d="M532.545,71.667c-.2.731-.871,1.161-1.921.87a2.3,2.3,0,0,1-1.389-.98l.312-.29a1.938,1.938,0,0,0,1.183.863c.731.2,1.217-.047,1.362-.569.153-.552-.1-.992-1.189-1.3l-.916-.253.819-2.1,2.353.652-.109.394-1.967-.545-.526,1.33.553.153c1.3.359,1.646,1,1.435,1.767" transform="translate(-233.302 -29.94)" fill="#fff"/>
        <path id="Trazado_638041" data-name="Trazado 638041" d="M540.291,73.942a1.391,1.391,0,0,1-1.835.914c-1.142-.316-1.544-1.281-1.168-2.639a2.005,2.005,0,0,1,2.582-1.679,2.045,2.045,0,0,1,.955.516l-.277.307a1.564,1.564,0,0,0-.778-.434c-.928-.257-1.689.174-2.012,1.341-.027.1-.055.223-.078.355a1.426,1.426,0,0,1,1.519-.373,1.352,1.352,0,0,1,1.093,1.692m-.44-.109a.98.98,0,0,0-.824-1.227,1.033,1.033,0,0,0-1.366.634c-.131.473.138,1.03.881,1.236a.976.976,0,0,0,1.309-.642" transform="translate(-236.792 -31.055)" fill="#fff"/>
        <path id="Trazado_638042" data-name="Trazado 638042" d="M550.656,76.643c-.2.719-.874,1.128-1.912.84a2.324,2.324,0,0,1-1.4-.982l.312-.29a1.951,1.951,0,0,0,1.2.866c.712.2,1.2-.025,1.345-.559.143-.516-.125-.955-.924-1.176l-.307-.085.09-.325,1.606-1.163-2.2-.609.109-.393,2.764.766-.087.313-1.641,1.193c.908.305,1.234.918,1.043,1.605" transform="translate(-241.288 -32.077)" fill="#fff"/>
        <path id="Trazado_638043" data-name="Trazado 638043" d="M558.526,78.994a1.39,1.39,0,0,1-1.833.914c-1.143-.317-1.544-1.281-1.167-2.639a2,2,0,0,1,2.582-1.679,2.045,2.045,0,0,1,.955.516l-.277.307a1.559,1.559,0,0,0-.779-.434c-.928-.257-1.689.173-2.012,1.341-.027.1-.056.223-.079.355a1.426,1.426,0,0,1,1.519-.373,1.351,1.351,0,0,1,1.092,1.692m-.439-.109a.98.98,0,0,0-.824-1.227,1.032,1.032,0,0,0-1.366.634c-.131.473.138,1.03.881,1.236a.977.977,0,0,0,1.31-.643" transform="translate(-244.831 -33.282)" fill="#fff"/>
        <path id="Trazado_638044" data-name="Trazado 638044" d="M566.819,77.623l-.087.314-2.9,3.489-.48-.133,2.852-3.417-2.212-.613-.223.8-.436-.121.332-1.2Z" transform="translate(-248.332 -33.833)" fill="#fff"/>
        <path id="Trazado_638045" data-name="Trazado 638045" d="M577.815,80.669l-.087.314-2.9,3.489-.479-.133,2.852-3.417-2.212-.613-.223.8-.436-.121.332-1.2Z" transform="translate(-253.18 -35.176)" fill="#fff"/>
        <path id="Trazado_638046" data-name="Trazado 638046" d="M583.934,86.092c-.211.762-.986,1.056-2.012.772s-1.528-.933-1.317-1.694a1.114,1.114,0,0,1,1.122-.827,1.007,1.007,0,0,1-.414-1.133c.194-.7.911-.972,1.82-.72s1.4.857,1.2,1.557a1.011,1.011,0,0,1-.95.755,1.124,1.124,0,0,1,.548,1.29m-.452-.133c.146-.528-.217-.986-.979-1.2s-1.3,0-1.449.525.209.99.971,1.2,1.308.005,1.457-.53m-.882-1.547c.67.186,1.152-.005,1.282-.472.135-.485-.207-.9-.852-1.076s-1.145,0-1.277.48.178.882.848,1.068" transform="translate(-255.926 -36.323)" fill="#fff"/>
        <path id="Trazado_638047" data-name="Trazado 638047" d="M591.768,87.168a2.005,2.005,0,0,1-2.582,1.679,2.041,2.041,0,0,1-.955-.516l.276-.306a1.57,1.57,0,0,0,.78.433c.928.257,1.689-.173,2.012-1.341.027-.1.056-.223.079-.355a1.427,1.427,0,0,1-1.519.373,1.351,1.351,0,0,1-1.092-1.692,1.39,1.39,0,0,1,1.833-.914c1.144.317,1.544,1.281,1.168,2.639m-.372-1.023c.131-.473-.138-1.031-.881-1.236a.975.975,0,1,0-.485,1.87,1.032,1.032,0,0,0,1.365-.634" transform="translate(-259.309 -37.231)" fill="#fff"/>
        <path id="Trazado_638048" data-name="Trazado 638048" d="M602.114,87.368l-1.192,4.3-.442-.122,1.083-3.908-1.014-.281.109-.393Z" transform="translate(-264.709 -38.337)" fill="#fff"/>
        <path id="Trazado_638049" data-name="Trazado 638049" d="M606.912,93.323l-.108.393-3.017-.835.087-.314,2.273-1.256c.618-.344.791-.607.872-.9.138-.5-.128-.9-.785-1.084a1.515,1.515,0,0,0-1.306.154l-.239-.357a2.007,2.007,0,0,1,1.694-.192c.872.242,1.3.837,1.1,1.556-.114.411-.346.744-1.079,1.15l-1.861,1.032Z" transform="translate(-266.167 -39.159)" fill="#fff"/>
        <path id="Trazado_638050" data-name="Trazado 638050" d="M614.085,94.214c-.2.719-.874,1.127-1.913.839a2.319,2.319,0,0,1-1.395-.982l.312-.29a1.954,1.954,0,0,0,1.195.867c.713.2,1.2-.025,1.345-.56.144-.516-.126-.955-.924-1.176l-.307-.085.09-.325,1.605-1.163-2.2-.609.109-.393,2.765.766-.087.314-1.641,1.193c.908.3,1.234.918,1.043,1.605" transform="translate(-269.249 -39.823)" fill="#fff"/>
        <rect id="Rectángulo_330457" data-name="Rectángulo 330457" width="1.938" height="35.745" transform="translate(310.068 51.527) rotate(-74.519)" fill="#fff"/>
        <rect id="Rectángulo_330458" data-name="Rectángulo 330458" width="1.938" height="18.333" transform="translate(325.815 59.904) rotate(-74.519)" fill="#fff"/>
        <g id="Grupo_882364" data-name="Grupo 882364" transform="translate(279.827 18.753)" opacity="0.5">
          <g id="Grupo_882363" data-name="Grupo 882363">
            <g id="Grupo_882362" data-name="Grupo 882362" clip-path="url(#clip-path-3)">
              <path id="Trazado_638051" data-name="Trazado 638051" d="M511.573,46.958l-9.1-2.522a2.775,2.775,0,0,1-1.934-3.415l1.51-5.449a2.776,2.776,0,0,1,3.415-1.934l9.1,2.522a2.775,2.775,0,0,1,1.934,3.415l-1.508,5.448a2.776,2.776,0,0,1-3.417,1.934" transform="translate(-500.432 -33.537)" fill="#f5f5f5"/>
            </g>
          </g>
        </g>
        <path id="Trazado_638052" data-name="Trazado 638052" d="M500.769,42.809l.192-.692,7.442,2.062a1.616,1.616,0,1,0,.863-3.115L501.824,39l.192-.693,7.441,2.062a2.335,2.335,0,0,1-1.246,4.5Z" transform="translate(-220.754 -16.887)" fill="#e0e0e0"/>
        <rect id="Rectángulo_330460" data-name="Rectángulo 330460" width="0.719" height="5.3" transform="translate(289.889 26.605) rotate(-74.471)" fill="#e0e0e0"/>
        <rect id="Rectángulo_330461" data-name="Rectángulo 330461" width="3.31" height="38.573" transform="translate(285.463 12.891) rotate(-74.513)" fill="#fff"/>
        <path id="Trazado_638053" data-name="Trazado 638053" d="M616.273,50.824l-4.088-1.133a1.76,1.76,0,0,1-1.227-2.167l1.132-4.088a1.762,1.762,0,0,1,2.167-1.227l4.087,1.133a1.761,1.761,0,0,1,1.227,2.167L618.441,49.6a1.761,1.761,0,0,1-2.167,1.227" transform="translate(-269.3 -18.579)" fill="#fff"/>
        <path id="Trazado_638054" data-name="Trazado 638054" d="M44.306,282.087c-.034,0-.066-.462-.226-1.283a16.053,16.053,0,0,0-1.026-3.377,12.857,12.857,0,0,0-2.921-4.284,8.147,8.147,0,0,0-11.457-.038,12.812,12.812,0,0,0-2.94,4.27,16.077,16.077,0,0,0-1.038,3.373c-.163.821-.2,1.286-.23,1.283a1.327,1.327,0,0,1,.006-.339,9.459,9.459,0,0,1,.1-.965,14.624,14.624,0,0,1,.954-3.439,12.749,12.749,0,0,1,2.946-4.4,8.377,8.377,0,0,1,11.856.039,12.8,12.8,0,0,1,2.926,4.408,14.673,14.673,0,0,1,.942,3.443,9.586,9.586,0,0,1,.1.965,1.385,1.385,0,0,1,0,.339" transform="translate(-10.783 -119.224)" fill="#e0e0e0"/>
        <path id="Trazado_638055" data-name="Trazado 638055" d="M50.433,282.087c-.034,0-.066-.462-.226-1.283a16.053,16.053,0,0,0-1.026-3.377,12.857,12.857,0,0,0-2.921-4.284A8.147,8.147,0,0,0,34.8,273.1a12.82,12.82,0,0,0-2.94,4.27,16.035,16.035,0,0,0-1.038,3.373c-.163.821-.2,1.286-.231,1.283a1.327,1.327,0,0,1,.006-.339,9.46,9.46,0,0,1,.1-.965,14.624,14.624,0,0,1,.954-3.439,12.749,12.749,0,0,1,2.946-4.4,8.377,8.377,0,0,1,11.856.039,12.8,12.8,0,0,1,2.926,4.408,14.671,14.671,0,0,1,.942,3.443,9.586,9.586,0,0,1,.1.965,1.386,1.386,0,0,1,0,.339" transform="translate(-13.484 -119.224)" fill="#e0e0e0"/>
        <path id="Trazado_638056" data-name="Trazado 638056" d="M3.882,288.838l38.687-.3.844,52.735H0Z" transform="translate(0 -127.198)" fill="#ebebeb"/>
        <path id="Trazado_638057" data-name="Trazado 638057" d="M76.129,288.542h4.856l4.181,52.735H76.973Z" transform="translate(-33.56 -127.198)" fill="#e0e0e0"/>
        <rect id="Rectángulo_330462" data-name="Rectángulo 330462" width="25.327" height="4.244" transform="translate(9.043 182.106)" fill="#fff"/>
        <path id="Trazado_638058" data-name="Trazado 638058" d="M596.261,282.087c-.034,0-.066-.462-.226-1.283a16.055,16.055,0,0,0-1.026-3.377,12.863,12.863,0,0,0-2.92-4.284,8.148,8.148,0,0,0-11.458-.038,12.82,12.82,0,0,0-2.94,4.27,16.042,16.042,0,0,0-1.038,3.373c-.163.821-.2,1.286-.231,1.283a1.357,1.357,0,0,1,.006-.339,9.436,9.436,0,0,1,.1-.965,14.612,14.612,0,0,1,.954-3.439,12.749,12.749,0,0,1,2.946-4.4,8.377,8.377,0,0,1,11.856.039,12.785,12.785,0,0,1,2.926,4.408,14.67,14.67,0,0,1,.942,3.443,9.552,9.552,0,0,1,.1.965,1.383,1.383,0,0,1,0,.339" transform="translate(-254.101 -119.224)" fill="#e0e0e0"/>
        <path id="Trazado_638059" data-name="Trazado 638059" d="M602.388,282.087c-.033,0-.066-.462-.227-1.283a16.057,16.057,0,0,0-1.026-3.377,12.864,12.864,0,0,0-2.92-4.284,8.147,8.147,0,0,0-11.458-.038,12.818,12.818,0,0,0-2.94,4.27,16.035,16.035,0,0,0-1.038,3.373c-.163.821-.2,1.286-.231,1.283a1.387,1.387,0,0,1,.006-.339,9.428,9.428,0,0,1,.1-.965,14.624,14.624,0,0,1,.954-3.439,12.751,12.751,0,0,1,2.946-4.4,8.377,8.377,0,0,1,11.856.039,12.778,12.778,0,0,1,2.926,4.408,14.672,14.672,0,0,1,.942,3.443,9.574,9.574,0,0,1,.1.965,1.391,1.391,0,0,1,0,.339" transform="translate(-256.802 -119.224)" fill="#e0e0e0"/>
        <path id="Trazado_638060" data-name="Trazado 638060" d="M555.836,288.838l38.687-.3.844,52.735H551.954Z" transform="translate(-243.317 -127.198)" fill="#ebebeb"/>
        <path id="Trazado_638061" data-name="Trazado 638061" d="M628.083,288.542h4.856l4.181,52.735h-8.193Z" transform="translate(-276.877 -127.198)" fill="#e0e0e0"/>
        <rect id="Rectángulo_330463" data-name="Rectángulo 330463" width="25.327" height="4.244" transform="translate(317.68 182.106)" fill="#fff"/>
      </g>
    </g>
    <g id="Grupo_882368" data-name="Grupo 882368">
      <g id="Grupo_882367" data-name="Grupo 882367" clip-path="url(#clip-path)">
        <path id="Trazado_638062" data-name="Trazado 638062" d="M369.948,382.368c0,.081-82.656.145-184.594.145-101.974,0-184.612-.065-184.612-.145s82.638-.145,184.612-.145c101.938,0,184.594.065,184.594.145" transform="translate(-0.327 -168.495)" fill="#263238"/>
      </g>
    </g>
    <rect id="Rectángulo_330466" data-name="Rectángulo 330466" width="53.663" height="40.565" transform="translate(14.451 173.308)" fill="#ae7461"/>
    <g id="Grupo_882382" data-name="Grupo 882382">
      <g id="Grupo_882381" data-name="Grupo 882381" clip-path="url(#clip-path)">
        <g id="Grupo_882371" data-name="Grupo 882371" transform="translate(41.668 176.183)" opacity="0.3">
          <g id="Grupo_882370" data-name="Grupo 882370">
            <g id="Grupo_882369" data-name="Grupo 882369" clip-path="url(#clip-path-6)">
              <path id="Trazado_638063" data-name="Trazado 638063" d="M85.655,316.97v-1.89h3.253v1.89a1.61,1.61,0,0,1-1.42,1.58V320.2h.723c.253,0,.461.143.461.318h-2.78c0-.174.207-.318.46-.318h.724V318.55a1.61,1.61,0,0,1-1.42-1.58" transform="translate(-79.428 -315.079)" fill-rule="evenodd"/>
              <path id="Trazado_638064" data-name="Trazado 638064" d="M74.518,316.843a2.361,2.361,0,0,1,2.292-1.763h0a2.362,2.362,0,0,1,2.293,1.763H77.03v2.963a.46.46,0,0,0,.916,0h.441a.9.9,0,0,1-1.8,0v-2.963Z" transform="translate(-74.518 -315.079)" fill-rule="evenodd"/>
            </g>
          </g>
        </g>
        <g id="Grupo_882374" data-name="Grupo 882374" transform="translate(54.803 173.308)" opacity="0.3">
          <g id="Grupo_882373" data-name="Grupo 882373">
            <g id="Grupo_882372" data-name="Grupo 882372" clip-path="url(#clip-path-7)">
              <rect id="Rectángulo_330468" data-name="Rectángulo 330468" width="13.311" height="40.565" transform="translate(0)"/>
            </g>
          </g>
        </g>
        <path id="Trazado_638065" data-name="Trazado 638065" d="M97.856,350.078c-.074,0-.135-9-.135-20.09s.06-20.093.135-20.093.134,8.994.134,20.093-.06,20.09-.134,20.09" transform="translate(-43.078 -136.611)" fill="#263238"/>
        <rect id="Rectángulo_330470" data-name="Rectángulo 330470" width="4.114" height="4.558" transform="translate(59.45 204.521)" fill="#fff"/>
        <g id="Grupo_882377" data-name="Grupo 882377" transform="translate(30.822 173.413)" opacity="0.3">
          <g id="Grupo_882376" data-name="Grupo 882376">
            <g id="Grupo_882375" data-name="Grupo 882375" clip-path="url(#clip-path-8)">
              <rect id="Rectángulo_330471" data-name="Rectángulo 330471" width="6.096" height="8.656"/>
            </g>
          </g>
        </g>
        <g id="Grupo_882380" data-name="Grupo 882380" transform="translate(30.822 205.097)" opacity="0.3">
          <g id="Grupo_882379" data-name="Grupo 882379">
            <g id="Grupo_882378" data-name="Grupo 882378" clip-path="url(#clip-path-8)">
              <rect id="Rectángulo_330473" data-name="Rectángulo 330473" width="6.096" height="8.656" transform="translate(0 0)"/>
            </g>
          </g>
        </g>
        <path id="Trazado_638066" data-name="Trazado 638066" d="M26.539,309.894c0,.059,11.9.107,26.579.107s26.581-.048,26.581-.107-11.9-.107-26.581-.107-26.579.048-26.579.107" transform="translate(-11.699 -136.563)" fill="#263238"/>
        <path id="Trazado_638067" data-name="Trazado 638067" d="M61.84,345.723H52.818a.389.389,0,0,1,0-.779h8.7l.937-5.186H51.967a.389.389,0,0,1,0-.779h10.95a.389.389,0,0,1,.383.458L62.223,345.4a.389.389,0,0,1-.383.32" transform="translate(-22.737 -149.432)" fill="#e0e0e0"/>
        <path id="Trazado_638068" data-name="Trazado 638068" d="M59.147,346.557h0l-8.593-.029a.389.389,0,0,1-.385-.339l-1.214-9.272H46.536a.389.389,0,1,1,0-.778H49.3a.389.389,0,0,1,.386.339l1.215,9.273,8.252.027a.389.389,0,0,1,0,.779" transform="translate(-20.343 -148.18)" fill="#e0e0e0"/>
        <path id="Trazado_638069" data-name="Trazado 638069" d="M55.385,357.861a1.438,1.438,0,1,1,1.459-1.437,1.45,1.45,0,0,1-1.459,1.437m0-2.1a.659.659,0,1,0,.681.659.671.671,0,0,0-.681-.659" transform="translate(-23.772 -156.488)" fill="#e0e0e0"/>
        <path id="Trazado_638070" data-name="Trazado 638070" d="M65.992,357.861a1.438,1.438,0,1,1,1.459-1.437,1.45,1.45,0,0,1-1.459,1.437m0-2.1a.659.659,0,1,0,.68.659.671.671,0,0,0-.68-.659" transform="translate(-28.448 -156.488)" fill="#e0e0e0"/>
        <path id="Trazado_638071" data-name="Trazado 638071" d="M58.18,345.873a.389.389,0,0,1-.388-.365l-.367-5.772a.389.389,0,1,1,.777-.049l.367,5.772a.39.39,0,0,1-.364.413H58.18" transform="translate(-25.314 -149.582)" fill="#e0e0e0"/>
        <path id="Trazado_638072" data-name="Trazado 638072" d="M64.37,345.873h-.022a.39.39,0,0,1-.367-.411l.329-5.772a.384.384,0,0,1,.41-.367.389.389,0,0,1,.366.411l-.329,5.772a.389.389,0,0,1-.388.367" transform="translate(-28.204 -149.582)" fill="#e0e0e0"/>
        <path id="Trazado_638073" data-name="Trazado 638073" d="M52.564,345.187a.389.389,0,0,1,0-.779l10.078-.1h0a.389.389,0,0,1,0,.779l-10.078.1Z" transform="translate(-23 -151.783)" fill="#e0e0e0"/>
      </g>
    </g>
    <g id="Grupo_882390" data-name="Grupo 882390">
      <g id="Grupo_882389" data-name="Grupo 882389" clip-path="url(#clip-path)">
        <path id="Trazado_638074" data-name="Trazado 638074" d="M620.325,322.453s-2.171-14.924-1.99-23.607-.011-18.452-.011-18.452h1s-.677,17.235.06,27.63,2.678,14.429,2.678,14.429Z" transform="translate(-272.575 -123.606)" fill="#263238"/>
        <path id="Trazado_638075" data-name="Trazado 638075" d="M625.575,249.122a2.634,2.634,0,0,0-.911-1.334,2.537,2.537,0,0,0-2.175.016c-3.022,1.069-5.7,6.7-6.924,9.668l4.013,13.52c7.242-6.719,8.5-15.533,6-21.869" transform="translate(-271.359 -109.125)" fill="#617a0b"/>
        <path id="Trazado_638076" data-name="Trazado 638076" d="M627.59,248.956a.793.793,0,0,1-.058.176l-.2.493c-.176.426-.422,1.045-.717,1.812-.591,1.535-1.344,3.682-2.017,6.1s-1.132,4.647-1.416,6.268c-.143.81-.25,1.467-.319,1.922l-.085.523a.817.817,0,0,1-.041.181.79.79,0,0,1,.008-.186c.015-.139.033-.313.055-.528.049-.458.139-1.119.268-1.933a57.461,57.461,0,0,1,3.44-12.391c.31-.764.573-1.377.768-1.795l.225-.481a.8.8,0,0,1,.089-.163" transform="translate(-274.52 -109.747)" fill="#263238"/>
        <path id="Trazado_638077" data-name="Trazado 638077" d="M614.665,279.7a12.244,12.244,0,0,1-6.184-10.28,22.428,22.428,0,0,1,1.822-8.76,1.133,1.133,0,0,1,.424-.636,1.08,1.08,0,0,1,1.026.16c2.733,1.556,4.389,4.523,5.27,7.542a15.229,15.229,0,0,1,.619,6.2,10.305,10.305,0,0,1-2.976,5.772" transform="translate(-268.229 -114.591)" fill="#455a64"/>
        <path id="Trazado_638078" data-name="Trazado 638078" d="M617.449,281.436a.756.756,0,0,1-.015-.181c0-.137-.006-.309-.01-.519,0-.451-.019-1.1-.056-1.906a52.1,52.1,0,0,0-.7-6.246c-.418-2.421-.924-4.59-1.3-6.157l-.445-1.856c-.047-.205-.086-.373-.116-.506a.726.726,0,0,1-.03-.179.748.748,0,0,1,.062.171l.146.5c.124.433.295,1.063.5,1.844.4,1.561.928,3.73,1.346,6.158a45.691,45.691,0,0,1,.652,6.269c.022.807.022,1.46,0,1.911-.008.21-.016.382-.021.519a.769.769,0,0,1-.018.181" transform="translate(-271.014 -116.328)" fill="#263238"/>
        <g id="Grupo_882385" data-name="Grupo 882385" transform="translate(340.236 145.352)" opacity="0.3">
          <g id="Grupo_882384" data-name="Grupo 882384">
            <g id="Grupo_882383" data-name="Grupo 882383" clip-path="url(#clip-path-11)">
              <path id="Trazado_638079" data-name="Trazado 638079" d="M614.665,279.7a12.244,12.244,0,0,1-6.184-10.28,22.428,22.428,0,0,1,1.822-8.76,1.133,1.133,0,0,1,.424-.636,1.08,1.08,0,0,1,1.026.16c2.733,1.556,4.389,4.523,5.27,7.542a15.229,15.229,0,0,1,.619,6.2,10.305,10.305,0,0,1-2.976,5.772" transform="translate(-608.465 -259.943)" fill="#617a0b"/>
            </g>
          </g>
        </g>
        <path id="Trazado_638080" data-name="Trazado 638080" d="M627.14,335.857c3.7.813,6.75,3.424,10.321,4.694,2.363.84,5.035,1.137,6.921,2.789a5.862,5.862,0,0,0-2.568-2.555,46.041,46.041,0,0,0-9.354-4.466,8.9,8.9,0,0,0-5.215-.587" transform="translate(-276.462 -147.915)" fill="#617a0b"/>
        <path id="Trazado_638081" data-name="Trazado 638081" d="M606.429,338.15c-4.636-.075-9.517-4.022-14.131-4.257,4.828-1.559,11.743-.286,14.131,4.257" transform="translate(-261.102 -146.91)" fill="#617a0b"/>
        <path id="Trazado_638082" data-name="Trazado 638082" d="M620.808,317.668a15.094,15.094,0,0,1,7.411-.5,45.08,45.08,0,0,1,7.235,1.967c-.238-1.608-1.541-2.818-2.764-3.888a19.348,19.348,0,0,0-2.905-2.233,6.468,6.468,0,0,0-3.484-.983,5.508,5.508,0,0,0-3.845,1.938,6.383,6.383,0,0,0-1.647,3.7" transform="translate(-273.67 -137.548)" fill="#617a0b"/>
        <path id="Trazado_638083" data-name="Trazado 638083" d="M594.985,311.223c-2.918-2.492-7.338-2.248-11.174-2.161a90.974,90.974,0,0,1,17.33,10.8c.156-2.712-2.469-5.491-6.155-8.638" transform="translate(-257.361 -136.222)" fill="#455a64"/>
        <g id="Grupo_882388" data-name="Grupo 882388" transform="translate(326.449 172.79)" opacity="0.3">
          <g id="Grupo_882387" data-name="Grupo 882387">
            <g id="Grupo_882386" data-name="Grupo 882386" clip-path="url(#clip-path-12)">
              <path id="Trazado_638084" data-name="Trazado 638084" d="M594.985,311.223c-2.918-2.492-7.338-2.248-11.174-2.161a90.974,90.974,0,0,1,17.33,10.8c.156-2.712-2.469-5.491-6.155-8.638" transform="translate(-583.81 -309.012)" fill="#617a0b"/>
            </g>
          </g>
        </g>
        <path id="Trazado_638085" data-name="Trazado 638085" d="M623.144,297.364a32.506,32.506,0,0,1,4.488-2.609c1.535-.7,2.969-1.81,4.452-2.613a48.59,48.59,0,0,0,5.356-3.781,13.9,13.9,0,0,1,5.866-2.8,11.535,11.535,0,0,0-5.338.309,34.492,34.492,0,0,0-5.024,1.954,24.5,24.5,0,0,0-6.453,3.741c-1.861,1.665-3.543,3.308-3.346,5.8" transform="translate(-274.693 -125.802)" fill="#617a0b"/>
        <path id="Trazado_638086" data-name="Trazado 638086" d="M634.357,339.249a.575.575,0,0,1-.146-.063l-.4-.21c-.349-.186-.851-.461-1.481-.778-.313-.165-.659-.337-1.034-.513s-.776-.367-1.2-.552a17.649,17.649,0,0,0-2.854-.995,6.136,6.136,0,0,0-2.974-.075,8.468,8.468,0,0,0-1.26.376,6.491,6.491,0,0,0-2.295,1.578c-.269.288-.4.464-.412.455a.584.584,0,0,1,.083-.136,4.281,4.281,0,0,1,.28-.362,5.978,5.978,0,0,1,1.263-1.111,6.339,6.339,0,0,1,1.028-.551,8.366,8.366,0,0,1,1.277-.4,6.185,6.185,0,0,1,3.047.062,16.931,16.931,0,0,1,2.877,1.016c.429.19.833.378,1.2.569s.719.361,1.028.533c.626.331,1.119.622,1.459.826l.389.237a.583.583,0,0,1,.13.092" transform="translate(-273.443 -148.009)" fill="#263238"/>
        <path id="Trazado_638087" data-name="Trazado 638087" d="M611.385,337.9a1.078,1.078,0,0,1,.29.085,6.423,6.423,0,0,1,.755.328,9.177,9.177,0,0,1,3.873,3.721,6.445,6.445,0,0,1,.358.741,1.048,1.048,0,0,1,.1.287c-.027.012-.2-.381-.556-.97a10.261,10.261,0,0,0-3.827-3.677c-.6-.332-1-.489-.991-.517" transform="translate(-269.516 -148.954)" fill="#263238"/>
        <path id="Trazado_638088" data-name="Trazado 638088" d="M593.043,312.548a.97.97,0,0,1,.2.058l.556.2.877.323c.342.127.714.315,1.133.5a26.778,26.778,0,0,1,6.035,3.845,29.456,29.456,0,0,1,2.814,2.772,31,31,0,0,1,2,2.531c.529.749.93,1.374,1.206,1.806l.317.5a.919.919,0,0,1,.1.179.946.946,0,0,1-.13-.16c-.082-.108-.2-.269-.344-.48-.291-.422-.707-1.035-1.247-1.774s-1.217-1.592-2.016-2.5a30.9,30.9,0,0,0-2.808-2.747,28.265,28.265,0,0,0-5.978-3.865c-.415-.191-.782-.385-1.119-.52l-.865-.349-.545-.226a.97.97,0,0,1-.186-.09" transform="translate(-261.431 -137.78)" fill="#263238"/>
        <path id="Trazado_638089" data-name="Trazado 638089" d="M627.279,317.2a1.639,1.639,0,0,1-.37-.048l-.426-.079c-.166-.032-.359-.032-.569-.054a5.824,5.824,0,0,0-3.186.629,5.732,5.732,0,0,0-1.449,1.076,6.548,6.548,0,0,0-.932,1.152,9.459,9.459,0,0,0-.637,1.216,1.325,1.325,0,0,1,.094-.361,5.168,5.168,0,0,1,.443-.916,6.194,6.194,0,0,1,.923-1.2,5.64,5.64,0,0,1,4.754-1.714c.214.03.409.039.575.08l.424.107a1.563,1.563,0,0,1,.356.11" transform="translate(-273.185 -139.683)" fill="#263238"/>
        <path id="Trazado_638090" data-name="Trazado 638090" d="M631.772,291.611a.941.941,0,0,1-.176.108l-.517.281c-.45.242-1.1.6-1.883,1.063s-1.7,1.046-2.685,1.747a22.445,22.445,0,0,0-3,2.512,7.629,7.629,0,0,0-1.227,1.588c-.3.583-.594,1.146-.86,1.688a30.594,30.594,0,0,0-1.288,2.932,17.8,17.8,0,0,0-.627,2.064c-.119.5-.162.776-.178.773a.994.994,0,0,1,.018-.205c.017-.134.045-.33.1-.582a15.345,15.345,0,0,1,.579-2.091,28.313,28.313,0,0,1,1.261-2.96c.264-.545.552-1.111.854-1.695a7.672,7.672,0,0,1,1.252-1.628,21.723,21.723,0,0,1,3.029-2.521c.991-.7,1.922-1.266,2.715-1.724s1.453-.794,1.912-1.019l.532-.254a.936.936,0,0,1,.19-.078" transform="translate(-273.019 -128.55)" fill="#263238"/>
        <path id="Trazado_638091" data-name="Trazado 638091" d="M615.891,309.112a1.868,1.868,0,0,1-.092-.391c-.054-.286-.122-.645-.2-1.071a27.43,27.43,0,0,0-2.2-6.813l-.452-.993a1.844,1.844,0,0,1-.148-.373,1.921,1.921,0,0,1,.206.344c.123.227.3.557.5.971a22.875,22.875,0,0,1,2.21,6.843c.073.456.125.825.151,1.082a1.872,1.872,0,0,1,.029.4" transform="translate(-270.138 -132.016)" fill="#263238"/>
        <path id="Trazado_638092" data-name="Trazado 638092" d="M607.718,287.322a12.573,12.573,0,0,0-1.508-5,16.521,16.521,0,0,0-11.2-8.351l10.367,15.452,1.339,2.758a7.925,7.925,0,0,0,1-4.854" transform="translate(-262.299 -120.773)" fill="#617a0b"/>
        <rect id="Rectángulo_330478" data-name="Rectángulo 330478" width="24.106" height="4.273" transform="translate(336.183 197.001)" fill="#038a7b"/>
        <path id="Trazado_638093" data-name="Trazado 638093" d="M604.437,358.434l2.053,13.257h16l2.45-13.257Z" transform="translate(-266.453 -158.008)" fill="#038a7b"/>
        <path id="Trazado_638094" data-name="Trazado 638094" d="M625.157,359.893c0,.047-5.438.085-12.144.085s-12.145-.038-12.145-.085,5.436-.085,12.145-.085,12.144.037,12.144.085" transform="translate(-264.88 -158.614)" fill="#263238"/>
      </g>
    </g>
    <g id="Grupo_882425" data-name="Grupo 882425">
      <g id="Grupo_882424" data-name="Grupo 882424" clip-path="url(#clip-path)">
        <path id="Trazado_638095" data-name="Trazado 638095" d="M342.463,229.94h-236.4a14.148,14.148,0,0,1-14.148-14.149V53.548a10.321,10.321,0,0,1,10.321-10.321H346.859a9.753,9.753,0,0,1,9.753,9.753V215.791a14.149,14.149,0,0,1-14.149,14.149" transform="translate(-40.519 -19.056)" fill="#455a64"/>
        <path id="Trazado_638096" data-name="Trazado 638096" d="M347.608,369.341H85.8A13.678,13.678,0,0,1,72.12,355.663v-2.132a.527.527,0,0,1,.527-.527H358.371a.527.527,0,0,1,.527.527v4.52a11.289,11.289,0,0,1-11.29,11.29" transform="translate(-31.793 -155.615)" fill="#455a64"/>
        <path id="Trazado_638097" data-name="Trazado 638097" d="M347.491,369.225s.13-.012.386-.027a9.079,9.079,0,0,0,1.142-.1,11.263,11.263,0,0,0,6.766-3.573,11.215,11.215,0,0,0,2.123-3.358,11.623,11.623,0,0,0,.823-4.554q0-1.251,0-2.583,0-.666,0-1.352c0-.232.022-.46-.151-.6-.152-.161-.388-.124-.626-.126l-63.763.046-210.365.043H72.555a.411.411,0,0,0-.175.031.382.382,0,0,0-.218.252,2.827,2.827,0,0,0-.013.437v.953c-.012.638.016,1.266.053,1.891a13.031,13.031,0,0,0,.8,3.655,12.226,12.226,0,0,0,1.769,3.283,13.6,13.6,0,0,0,5.788,4.535,14.253,14.253,0,0,0,3.578.915c1.222.117,2.469.094,3.711.094h22.071l55.854.008,94.575.031,63.759.046,17.335.027,4.508.015c1.016.005,1.536.015,1.536.015s-.52.01-1.536.015l-4.508.015-17.335.027-63.759.046-94.575.031-55.854.008H87.853c-1.239,0-2.484.026-3.743-.1a14.536,14.536,0,0,1-3.655-.934,13.881,13.881,0,0,1-5.913-4.632,15.055,15.055,0,0,1-1.032-1.606,14.9,14.9,0,0,1-.776-1.747,13.313,13.313,0,0,1-.823-3.734c-.038-.641-.066-1.28-.054-1.913v-.953a2.664,2.664,0,0,1,.023-.513.675.675,0,0,1,.385-.445.714.714,0,0,1,.29-.055H83.82l210.365.043,63.763.046.357,0a.583.583,0,0,1,.523.487,3.311,3.311,0,0,1,.008.353q0,.686,0,1.352,0,1.332,0,2.583a11.705,11.705,0,0,1-.843,4.587,11.275,11.275,0,0,1-2.149,3.374,10.814,10.814,0,0,1-2.578,2.089,10.628,10.628,0,0,1-4.238,1.465,8.468,8.468,0,0,1-1.146.089c-.257.01-.387.012-.387.012" transform="translate(-31.675 -155.499)" fill="#263238"/>
        <path id="Trazado_638098" data-name="Trazado 638098" d="M350.629,216.556H114.267a2.946,2.946,0,0,1-2.946-2.946V66.556a2.946,2.946,0,0,1,2.946-2.946H350.629a2.946,2.946,0,0,1,2.946,2.946V213.61a2.946,2.946,0,0,1-2.946,2.946" transform="translate(-49.074 -28.041)" fill="#263238"/>
        <path id="Trazado_638099" data-name="Trazado 638099" d="M350.513,216.441a4.706,4.706,0,0,0,.507-.054,2.925,2.925,0,0,0,2.412-2.791q0-1.49,0-3.452c-.006-5.233-.016-12.948-.027-22.881-.011-19.873-.027-48.625-.046-84.153q0-13.324-.01-27.885,0-3.636,0-7.345V66.95a6.6,6.6,0,0,0-.032-.912,2.818,2.818,0,0,0-2.357-2.389,5.724,5.724,0,0,0-.921-.037h-.944l-15.395,0L267,63.63l-152.827.012a2.806,2.806,0,0,0-2.132.966,2.727,2.727,0,0,0-.574,1.049,3.952,3.952,0,0,0-.113,1.216v5.06q0,5.053,0,10.073,0,10.041,0,19.945,0,19.8,0,38.994,0,19.173,0,37.636,0,9.223,0,18.247,0,4.511,0,8.97,0,2.229,0,4.445v2.213a5.325,5.325,0,0,0,.217,2.124,2.809,2.809,0,0,0,2.437,1.719c.35.016.726,0,1.088.008h13l16.932,0,32.377.007,58.115.018,84.148.046,22.878.027,5.95.015c1.34.005,2.027.015,2.027.015s-.687.01-2.027.015l-5.95.015-22.878.027-84.148.046-58.115.018-32.377.007-16.932,0h-13c-.368,0-.722.008-1.1-.008a3.078,3.078,0,0,1-2.671-1.883,3.02,3.02,0,0,1-.235-1.121l0-1.107q0-1.1,0-2.213,0-2.216,0-4.445,0-4.458,0-8.97,0-9.022,0-18.247,0-18.446,0-37.636,0-19.174,0-38.994,0-9.9,0-19.945V66.872a4.249,4.249,0,0,1,.125-1.3,3.021,3.021,0,0,1,.634-1.159,3.1,3.1,0,0,1,2.352-1.067L267,63.36l66.7.013,15.395,0h.944a5.851,5.851,0,0,1,.957.041A3.049,3.049,0,0,1,353.54,66a6.766,6.766,0,0,1,.034.945v.928q0,3.709,0,7.345,0,14.545-.009,27.885c-.02,35.528-.036,64.281-.046,84.153-.012,9.934-.021,17.648-.028,22.881q-.007,1.961-.012,3.454a2.94,2.94,0,0,1-2.454,2.8,2.251,2.251,0,0,1-.381.036c-.085,0-.128,0-.128,0" transform="translate(-48.957 -27.926)" fill="#263238"/>
        <path id="Trazado_638100" data-name="Trazado 638100" d="M281.937,352.441l3.559,6.038h50.075l3.3-6.038Z" transform="translate(-124.286 -155.366)" fill="#263238"/>
        <path id="Trazado_638101" data-name="Trazado 638101" d="M328.972,52.784a1.986,1.986,0,1,1-1.986-1.986,1.986,1.986,0,0,1,1.986,1.986" transform="translate(-143.27 -22.393)" fill="#263238"/>
        <rect id="Rectángulo_330480" data-name="Rectángulo 330480" width="223.676" height="140.983" transform="translate(71.907 40.444)" fill="#fff"/>
        <rect id="Rectángulo_330481" data-name="Rectángulo 330481" width="223.676" height="14.134" transform="translate(71.907 53.357)" fill="#e0e0e0"/>
        <path id="Trazado_638102" data-name="Trazado 638102" d="M141.581,105.317a2.156,2.156,0,1,1-2.156-2.15,2.153,2.153,0,0,1,2.156,2.15" transform="translate(-60.513 -45.479)" fill="#fff"/>
        <path id="Trazado_638103" data-name="Trazado 638103" d="M152.837,105.317a2.156,2.156,0,1,1-2.156-2.15,2.153,2.153,0,0,1,2.156,2.15" transform="translate(-65.475 -45.479)" fill="#fff"/>
        <path id="Trazado_638104" data-name="Trazado 638104" d="M164.094,105.317a2.156,2.156,0,1,1-2.156-2.15,2.153,2.153,0,0,1,2.156,2.15" transform="translate(-70.437 -45.479)" fill="#fff"/>
        <path id="Trazado_638105" data-name="Trazado 638105" d="M203.656,167.269H181.682a2.149,2.149,0,0,1-2.149-2.148V143.146A2.149,2.149,0,0,1,181.682,141h21.974a2.148,2.148,0,0,1,2.148,2.148v21.974a2.148,2.148,0,0,1-2.148,2.148" transform="translate(-79.143 -62.156)" fill="#ebebeb"/>
        <path id="Trazado_638106" data-name="Trazado 638106" d="M204.718,204.31H170.963a2.382,2.382,0,0,1-2.383-2.382v-1.156a2.383,2.383,0,0,1,2.383-2.383h33.755a2.382,2.382,0,0,1,2.383,2.383v1.156a2.382,2.382,0,0,1-2.383,2.382" transform="translate(-74.315 -87.456)" fill="#ebebeb"/>
        <path id="Trazado_638107" data-name="Trazado 638107" d="M296.413,158.415H274.439a2.148,2.148,0,0,1-2.148-2.148V134.292a2.148,2.148,0,0,1,2.148-2.148h21.974a2.148,2.148,0,0,1,2.148,2.148v21.974a2.148,2.148,0,0,1-2.148,2.148" transform="translate(-120.034 -58.253)" fill="#ebebeb"/>
        <path id="Trazado_638108" data-name="Trazado 638108" d="M297.474,195.455H263.719a2.383,2.383,0,0,1-2.383-2.383v-1.156a2.383,2.383,0,0,1,2.383-2.383h33.755a2.382,2.382,0,0,1,2.383,2.383v1.156a2.382,2.382,0,0,1-2.383,2.383" transform="translate(-115.205 -83.552)" fill="#ebebeb"/>
        <path id="Trazado_638109" data-name="Trazado 638109" d="M203.452,261.054H181.478a2.148,2.148,0,0,1-2.148-2.148V236.931a2.148,2.148,0,0,1,2.148-2.148h21.974a2.148,2.148,0,0,1,2.148,2.148v21.974a2.148,2.148,0,0,1-2.148,2.148" transform="translate(-79.054 -103.499)" fill="#ebebeb"/>
        <path id="Trazado_638110" data-name="Trazado 638110" d="M204.514,298.094H170.759a2.382,2.382,0,0,1-2.383-2.382v-1.156a2.383,2.383,0,0,1,2.383-2.383h33.755a2.382,2.382,0,0,1,2.383,2.383v1.156a2.382,2.382,0,0,1-2.383,2.382" transform="translate(-74.225 -128.799)" fill="#ebebeb"/>
        <path id="Trazado_638111" data-name="Trazado 638111" d="M298.13,251.376H276.156a2.149,2.149,0,0,1-2.149-2.148V227.253a2.149,2.149,0,0,1,2.149-2.148H298.13a2.148,2.148,0,0,1,2.148,2.148v21.974a2.148,2.148,0,0,1-2.148,2.148" transform="translate(-120.79 -99.233)" fill="#ebebeb"/>
        <path id="Trazado_638112" data-name="Trazado 638112" d="M299.192,288.416H265.437a2.383,2.383,0,0,1-2.383-2.383v-1.156a2.383,2.383,0,0,1,2.383-2.383h33.755a2.383,2.383,0,0,1,2.383,2.383v1.156a2.383,2.383,0,0,1-2.383,2.383" transform="translate(-115.962 -124.532)" fill="#ebebeb"/>
        <path id="Trazado_638113" data-name="Trazado 638113" d="M441.82,159.171H415.785a2.148,2.148,0,0,1-2.148-2.149V130.988a2.148,2.148,0,0,1,2.148-2.149H441.82a2.148,2.148,0,0,1,2.148,2.149v26.034a2.148,2.148,0,0,1-2.148,2.149" transform="translate(-182.343 -56.796)" fill="#ffb338"/>
        <path id="Trazado_638114" data-name="Trazado 638114" d="M440.934,154.65H430.916a.28.28,0,0,1,0-.559H440.7l1.1-6.2H429.973a.28.28,0,0,1,0-.559h12.158a.28.28,0,0,1,.275.328l-1.2,6.758a.279.279,0,0,1-.275.231" transform="translate(-189.421 -64.949)" fill="#fff"/>
        <path id="Trazado_638115" data-name="Trazado 638115" d="M437.944,155.6h0l-9.541-.033a.28.28,0,0,1-.277-.244l-1.366-10.643h-2.819a.28.28,0,0,1,0-.559h3.065a.28.28,0,0,1,.277.244l1.366,10.644,9.3.032a.28.28,0,0,1,0,.559" transform="translate(-186.763 -63.531)" fill="#fff"/>
        <path id="Trazado_638116" data-name="Trazado 638116" d="M433.767,168.4a1.467,1.467,0,1,1,1.467-1.467,1.469,1.469,0,0,1-1.467,1.467m0-2.375a.908.908,0,1,0,.908.908.909.909,0,0,0-.908-.908" transform="translate(-190.571 -72.944)" fill="#fff"/>
        <path id="Trazado_638117" data-name="Trazado 638117" d="M445.545,168.4a1.467,1.467,0,1,1,1.467-1.467,1.469,1.469,0,0,1-1.467,1.467m0-2.375a.908.908,0,1,0,.908.908.909.909,0,0,0-.908-.908" transform="translate(-195.763 -72.944)" fill="#fff"/>
        <path id="Trazado_638118" data-name="Trazado 638118" d="M436.871,154.822a.28.28,0,0,1-.279-.262l-.408-6.539a.28.28,0,0,1,.262-.3.273.273,0,0,1,.3.262l.408,6.539a.279.279,0,0,1-.262.3h-.017" transform="translate(-192.283 -65.121)" fill="#fff"/>
        <path id="Trazado_638119" data-name="Trazado 638119" d="M443.743,154.822h-.016a.279.279,0,0,1-.263-.295l.365-6.539a.279.279,0,1,1,.558.031l-.365,6.54a.28.28,0,0,1-.279.264" transform="translate(-195.492 -65.121)" fill="#fff"/>
        <path id="Trazado_638120" data-name="Trazado 638120" d="M430.636,154.044a.28.28,0,0,1,0-.559l11.19-.109a.292.292,0,0,1,.282.277.28.28,0,0,1-.277.282l-11.19.109Z" transform="translate(-189.714 -67.613)" fill="#fff"/>
        <path id="Trazado_638121" data-name="Trazado 638121" d="M421.59,228.928H398.339a2.111,2.111,0,0,1-2.111-2.11v-2.056a2.11,2.11,0,0,1,2.111-2.11H421.59a2.11,2.11,0,0,1,2.11,2.11v2.056a2.111,2.111,0,0,1-2.11,2.11" transform="translate(-174.669 -98.152)" fill="#e0e0e0"/>
        <path id="Trazado_638122" data-name="Trazado 638122" d="M421.59,207.612H398.339a2.111,2.111,0,0,1-2.111-2.11v-2.056a2.11,2.11,0,0,1,2.111-2.11H421.59a2.11,2.11,0,0,1,2.11,2.11V205.5a2.111,2.111,0,0,1-2.11,2.11" transform="translate(-174.669 -88.755)" fill="#e0e0e0"/>
        <path id="Trazado_638123" data-name="Trazado 638123" d="M435,272.323H397.872a6.914,6.914,0,0,1-6.914-6.914v-3.353a6.914,6.914,0,0,1,6.914-6.914H435a6.914,6.914,0,0,1,6.914,6.914v3.353A6.914,6.914,0,0,1,435,272.323" transform="translate(-172.346 -112.474)" fill="#fd4c1b"/>
        <path id="Trazado_638124" data-name="Trazado 638124" d="M432.027,267.943c0,.862-.65,1.4-1.685,1.4h-.661v.991h-1.073v-3.794h1.735c1.036,0,1.685.537,1.685,1.4m-1.084,0c0-.352-.223-.559-.667-.559h-.6V268.5h.6c.444,0,.667-.206.667-.553" transform="translate(-188.943 -117.498)" fill="#fff"/>
        <path id="Trazado_638125" data-name="Trazado 638125" d="M437.5,269.6h-1.6l-.3.738H434.5l1.675-3.795h1.056l1.681,3.795H437.8Zm-.314-.791-.488-1.214-.488,1.214Z" transform="translate(-191.541 -117.498)" fill="#fff"/>
        <path id="Trazado_638126" data-name="Trazado 638126" d="M444.156,268.974v1.36h-1.073v-1.377l-1.447-2.417h1.133l.9,1.506.9-1.506h1.041Z" transform="translate(-194.686 -117.499)" fill="#fff"/>
        <path id="Trazado_638127" data-name="Trazado 638127" d="M348.59,223.1c-.081,0-.145-28.407-.145-63.441s.065-63.447.145-63.447.145,28.4.145,63.447-.065,63.441-.145,63.441" transform="translate(-153.605 -42.414)" fill="#ebebeb"/>
        <path id="Trazado_638128" data-name="Trazado 638128" d="M225.06,138.527a5.914,5.914,0,1,1-5.914-5.914,5.914,5.914,0,0,1,5.914,5.914" transform="translate(-93.999 -58.46)" fill="#fd4c1b"/>
        <path id="Trazado_638129" data-name="Trazado 638129" d="M220.8,143.693a.557.557,0,0,1-.344-.119l-2.087-1.635a.559.559,0,0,1,.689-.881l1.666,1.305,2.772-3.234a.559.559,0,1,1,.849.728l-3.121,3.641a.56.56,0,0,1-.425.2" transform="translate(-96.168 -61.246)" fill="#fff"/>
        <path id="Trazado_638130" data-name="Trazado 638130" d="M225.06,232.456a5.914,5.914,0,1,1-5.914-5.914,5.914,5.914,0,0,1,5.914,5.914" transform="translate(-93.999 -99.866)" fill="#455a64"/>
        <path id="Trazado_638131" data-name="Trazado 638131" d="M220.8,237.622a.553.553,0,0,1-.344-.119l-2.087-1.636a.559.559,0,1,1,.689-.88l1.666,1.306,2.772-3.235a.559.559,0,1,1,.849.727l-3.121,3.641a.558.558,0,0,1-.425.2" transform="translate(-96.168 -102.653)" fill="#fff"/>
        <path id="Trazado_638132" data-name="Trazado 638132" d="M472.125,207.287h-2.237a2.4,2.4,0,0,1-2.395-2.395V203.73a2.4,2.4,0,0,1,2.395-2.394h2.237a2.4,2.4,0,0,1,2.395,2.394v1.161a2.4,2.4,0,0,1-2.395,2.395" transform="translate(-206.085 -88.755)" fill="#e0e0e0"/>
        <path id="Trazado_638133" data-name="Trazado 638133" d="M472.691,229.651h-2.237a2.4,2.4,0,0,1-2.395-2.395v-1.161a2.4,2.4,0,0,1,2.395-2.395h2.237a2.4,2.4,0,0,1,2.395,2.395v1.161a2.4,2.4,0,0,1-2.395,2.395" transform="translate(-206.334 -98.614)" fill="#e0e0e0"/>
        <path id="Trazado_638134" data-name="Trazado 638134" d="M526.676,276.788c-.025,0-.05-.346-.169-.962a12.055,12.055,0,0,0-.769-2.531,9.642,9.642,0,0,0-2.189-3.21,6.106,6.106,0,0,0-8.586-.029,9.616,9.616,0,0,0-2.2,3.2,12,12,0,0,0-.778,2.527c-.122.616-.148.964-.173.961a1,1,0,0,1,0-.254,7.1,7.1,0,0,1,.078-.723,10.978,10.978,0,0,1,.715-2.577,9.559,9.559,0,0,1,2.208-3.294,6.277,6.277,0,0,1,8.884.029,9.587,9.587,0,0,1,2.193,3.3,10.987,10.987,0,0,1,.706,2.58,7.094,7.094,0,0,1,.075.723,1.007,1.007,0,0,1,0,.254" transform="translate(-225.618 -118.174)" fill="#455a64"/>
        <path id="Trazado_638135" data-name="Trazado 638135" d="M531.267,276.788c-.026,0-.05-.346-.17-.962a12.019,12.019,0,0,0-.769-2.531,9.641,9.641,0,0,0-2.189-3.21,6.106,6.106,0,0,0-8.586-.029,9.626,9.626,0,0,0-2.2,3.2,12,12,0,0,0-.777,2.527c-.122.616-.149.964-.173.961a1,1,0,0,1,0-.254,7.127,7.127,0,0,1,.079-.723,10.942,10.942,0,0,1,.714-2.577,9.559,9.559,0,0,1,2.209-3.294,6.277,6.277,0,0,1,8.884.029,9.6,9.6,0,0,1,2.193,3.3,10.993,10.993,0,0,1,.705,2.58,7.076,7.076,0,0,1,.075.723,1.108,1.108,0,0,1,0,.254" transform="translate(-227.642 -118.174)" fill="#455a64"/>
        <path id="Trazado_638136" data-name="Trazado 638136" d="M496.383,281.848l28.991-.221.632,39.519H493.473Z" transform="translate(-217.537 -124.149)" fill="#ebebeb"/>
        <path id="Trazado_638137" data-name="Trazado 638137" d="M550.523,281.626h3.639l3.134,39.519h-6.14Z" transform="translate(-242.687 -124.149)" fill="#e0e0e0"/>
        <rect id="Rectángulo_330482" data-name="Rectángulo 330482" width="18.98" height="3.18" transform="translate(282.712 173.035)" fill="#fff"/>
        <path id="Trazado_638138" data-name="Trazado 638138" d="M513.291,290.689a17.856,17.856,0,0,0-.862-3.6,10.134,10.134,0,0,0-1.978-3.308,5.028,5.028,0,0,0-7.736-.029,10.089,10.089,0,0,0-1.991,3.3,17.845,17.845,0,0,0-.873,3.6.987.987,0,0,1,0-.262c.006-.172.024-.425.067-.748a12.566,12.566,0,0,1,.641-2.668,10.083,10.083,0,0,1,2-3.414,5.2,5.2,0,0,1,8.058.03,10.129,10.129,0,0,1,1.983,3.423,12.562,12.562,0,0,1,.632,2.672c.041.323.059.576.064.748a1.013,1.013,0,0,1,0,.263" transform="translate(-220.346 -124.163)" fill="#263238"/>
        <path id="Trazado_638139" data-name="Trazado 638139" d="M517.441,290.689a17.891,17.891,0,0,0-.862-3.6,10.134,10.134,0,0,0-1.978-3.308,5.028,5.028,0,0,0-7.736-.029,10.091,10.091,0,0,0-1.991,3.3,17.8,17.8,0,0,0-.873,3.6.989.989,0,0,1,0-.262c.006-.172.024-.425.067-.748a12.571,12.571,0,0,1,.641-2.668,10.083,10.083,0,0,1,2-3.414,5.2,5.2,0,0,1,8.058.03,10.131,10.131,0,0,1,1.983,3.423,12.568,12.568,0,0,1,.632,2.672c.041.323.059.576.064.748a1.008,1.008,0,0,1,0,.263" transform="translate(-222.175 -124.163)" fill="#263238"/>
        <path id="Trazado_638140" data-name="Trazado 638140" d="M483.83,294.872l26.209-.182.572,32.521H481.2Z" transform="translate(-212.127 -129.908)" fill="#ffb338"/>
        <path id="Trazado_638141" data-name="Trazado 638141" d="M532.776,294.69h3.29l2.833,32.521h-5.551Z" transform="translate(-234.863 -129.908)" fill="#ffb338"/>
        <g id="Grupo_882393" data-name="Grupo 882393" transform="translate(298.002 164.782)" opacity="0.3">
          <g id="Grupo_882392" data-name="Grupo 882392">
            <g id="Grupo_882391" data-name="Grupo 882391" clip-path="url(#clip-path-14)">
              <path id="Trazado_638142" data-name="Trazado 638142" d="M532.776,294.69h3.29l2.833,32.521h-5.551Z" transform="translate(-532.776 -294.69)"/>
            </g>
          </g>
        </g>
        <rect id="Rectángulo_330484" data-name="Rectángulo 330484" width="17.159" height="3.286" transform="translate(276.284 175.828)" fill="#fff"/>
        <path id="Trazado_638143" data-name="Trazado 638143" d="M122.606,82.9h-3.94a8.126,8.126,0,0,1-8.126-8.126V63.237h20.192V74.772a8.126,8.126,0,0,1-8.126,8.126" transform="translate(-48.729 -27.877)" fill="#eb6f2d"/>
        <path id="Trazado_638144" data-name="Trazado 638144" d="M158.717,82.9h-3.941a8.126,8.126,0,0,1-8.126-8.126V63.237h20.193V74.772a8.126,8.126,0,0,1-8.126,8.126" transform="translate(-64.648 -27.877)" fill="#eb6f2d"/>
        <path id="Trazado_638145" data-name="Trazado 638145" d="M194.827,82.9h-3.94a8.126,8.126,0,0,1-8.126-8.126V63.237h20.192V74.772a8.126,8.126,0,0,1-8.126,8.126" transform="translate(-80.566 -27.877)" fill="#eb6f2d"/>
        <path id="Trazado_638146" data-name="Trazado 638146" d="M231.036,82.9H227a8.126,8.126,0,0,1-8.126-8.126V63.237h20.291V74.772a8.126,8.126,0,0,1-8.126,8.126" transform="translate(-96.485 -27.877)" fill="#eb6f2d"/>
        <path id="Trazado_638147" data-name="Trazado 638147" d="M267.223,82.9h-3.94a8.126,8.126,0,0,1-8.126-8.126V63.237h20.192V74.772a8.126,8.126,0,0,1-8.126,8.126" transform="translate(-112.481 -27.877)" fill="#eb6f2d"/>
        <path id="Trazado_638148" data-name="Trazado 638148" d="M303.334,82.9h-3.94a8.126,8.126,0,0,1-8.126-8.126V63.237H311.46V74.772a8.126,8.126,0,0,1-8.126,8.126" transform="translate(-128.399 -27.877)" fill="#eb6f2d"/>
        <path id="Trazado_638149" data-name="Trazado 638149" d="M339.444,82.9H335.5a8.126,8.126,0,0,1-8.126-8.126V63.237H347.57V74.772a8.126,8.126,0,0,1-8.126,8.126" transform="translate(-144.318 -27.877)" fill="#eb6f2d"/>
        <path id="Trazado_638150" data-name="Trazado 638150" d="M375.893,82.9h-4.278a8.126,8.126,0,0,1-8.125-8.126V63.237h20.529V74.772a8.126,8.126,0,0,1-8.126,8.126" transform="translate(-160.237 -27.877)" fill="#eb6f2d"/>
        <path id="Trazado_638151" data-name="Trazado 638151" d="M411.841,82.9H407.9a8.126,8.126,0,0,1-8.126-8.126V63.237h20.192V74.772a8.126,8.126,0,0,1-8.126,8.126" transform="translate(-176.233 -27.877)" fill="#eb6f2d"/>
        <path id="Trazado_638152" data-name="Trazado 638152" d="M447.951,82.9h-3.94a8.126,8.126,0,0,1-8.126-8.126V63.237h20.192V74.772a8.126,8.126,0,0,1-8.126,8.126" transform="translate(-192.151 -27.877)" fill="#eb6f2d"/>
        <path id="Trazado_638153" data-name="Trazado 638153" d="M484.061,82.9h-3.94a8.126,8.126,0,0,1-8.126-8.126V63.237h20.192V74.772a8.126,8.126,0,0,1-8.126,8.126" transform="translate(-208.069 -27.877)" fill="#eb6f2d"/>
        <path id="Trazado_638154" data-name="Trazado 638154" d="M520.172,82.9h-3.94a8.126,8.126,0,0,1-8.126-8.126V63.237H528.3V74.772a8.126,8.126,0,0,1-8.126,8.126" transform="translate(-223.988 -27.877)" fill="#eb6f2d"/>
        <g id="Grupo_882396" data-name="Grupo 882396" transform="translate(82.003 35.968)" opacity="0.3">
          <g id="Grupo_882395" data-name="Grupo 882395">
            <g id="Grupo_882394" data-name="Grupo 882394" clip-path="url(#clip-path-15)">
              <path id="Trazado_638155" data-name="Trazado 638155" d="M158.717,82.9h-3.941a8.126,8.126,0,0,1-8.126-8.126V63.237h20.193V74.772a8.126,8.126,0,0,1-8.126,8.126" transform="translate(-146.651 -63.237)" fill="#fff"/>
            </g>
          </g>
        </g>
        <g id="Grupo_882399" data-name="Grupo 882399" transform="translate(122.386 35.968)" opacity="0.3">
          <g id="Grupo_882398" data-name="Grupo 882398">
            <g id="Grupo_882397" data-name="Grupo 882397" clip-path="url(#clip-path-16)">
              <path id="Trazado_638156" data-name="Trazado 638156" d="M231.036,82.9H227a8.126,8.126,0,0,1-8.126-8.126V63.237h20.291V74.772a8.126,8.126,0,0,1-8.126,8.126" transform="translate(-218.871 -63.237)" fill="#fff"/>
            </g>
          </g>
        </g>
        <g id="Grupo_882402" data-name="Grupo 882402" transform="translate(162.869 35.968)" opacity="0.3">
          <g id="Grupo_882401" data-name="Grupo 882401">
            <g id="Grupo_882400" data-name="Grupo 882400" clip-path="url(#clip-path-15)">
              <path id="Trazado_638157" data-name="Trazado 638157" d="M303.334,82.9h-3.94a8.126,8.126,0,0,1-8.126-8.126V63.237H311.46V74.772a8.126,8.126,0,0,1-8.126,8.126" transform="translate(-291.268 -63.237)" fill="#fff"/>
            </g>
          </g>
        </g>
        <g id="Grupo_882405" data-name="Grupo 882405" transform="translate(203.252 35.968)" opacity="0.3">
          <g id="Grupo_882404" data-name="Grupo 882404">
            <g id="Grupo_882403" data-name="Grupo 882403" clip-path="url(#clip-path-18)">
              <path id="Trazado_638158" data-name="Trazado 638158" d="M375.893,82.9h-4.278a8.126,8.126,0,0,1-8.125-8.126V63.237h20.529V74.772a8.126,8.126,0,0,1-8.126,8.126" transform="translate(-363.489 -63.237)" fill="#fff"/>
            </g>
          </g>
        </g>
        <g id="Grupo_882408" data-name="Grupo 882408" transform="translate(243.734 35.968)" opacity="0.3">
          <g id="Grupo_882407" data-name="Grupo 882407">
            <g id="Grupo_882406" data-name="Grupo 882406" clip-path="url(#clip-path-15)">
              <path id="Trazado_638159" data-name="Trazado 638159" d="M447.951,82.9h-3.94a8.126,8.126,0,0,1-8.126-8.126V63.237h20.192V74.772a8.126,8.126,0,0,1-8.126,8.126" transform="translate(-435.885 -63.237)" fill="#fff"/>
            </g>
          </g>
        </g>
        <g id="Grupo_882411" data-name="Grupo 882411" transform="translate(284.118 35.968)" opacity="0.3">
          <g id="Grupo_882410" data-name="Grupo 882410">
            <g id="Grupo_882409" data-name="Grupo 882409" clip-path="url(#clip-path-15)">
              <path id="Trazado_638160" data-name="Trazado 638160" d="M520.172,82.9h-3.94a8.126,8.126,0,0,1-8.126-8.126V63.237H528.3V74.772a8.126,8.126,0,0,1-8.126,8.126" transform="translate(-508.106 -63.237)" fill="#fff"/>
            </g>
          </g>
        </g>
        <path id="Trazado_638161" data-name="Trazado 638161" d="M146.536,76.3c-.08,0-.145-2.925-.145-6.532s.065-6.533.145-6.533.145,2.924.145,6.533-.065,6.532-.145,6.532" transform="translate(-64.533 -27.877)" fill="#263238"/>
        <path id="Trazado_638162" data-name="Trazado 638162" d="M182.386,76.3c-.081,0-.145-2.925-.145-6.532s.065-6.533.145-6.533.145,2.924.145,6.533-.065,6.532-.145,6.532" transform="translate(-80.337 -27.877)" fill="#263238"/>
        <path id="Trazado_638163" data-name="Trazado 638163" d="M218.757,76.3c-.081,0-.145-2.925-.145-6.532s.065-6.533.145-6.533.145,2.924.145,6.533-.065,6.532-.145,6.532" transform="translate(-96.371 -27.877)" fill="#263238"/>
        <path id="Trazado_638164" data-name="Trazado 638164" d="M255.043,76.037c-.081,0-.145-2.925-.145-6.532s.065-6.533.145-6.533.145,2.924.145,6.533-.065,6.532-.145,6.532" transform="translate(-112.367 -27.76)" fill="#263238"/>
        <path id="Trazado_638165" data-name="Trazado 638165" d="M291.153,76.006c-.081,0-.145-2.858-.145-6.384s.065-6.385.145-6.385.145,2.858.145,6.385-.065,6.384-.145,6.384" transform="translate(-128.285 -27.877)" fill="#263238"/>
        <path id="Trazado_638166" data-name="Trazado 638166" d="M327.6,75.6c-.081,0-.145-2.858-.145-6.384s.065-6.385.145-6.385.145,2.858.145,6.385S327.68,75.6,327.6,75.6" transform="translate(-144.351 -27.697)" fill="#263238"/>
        <path id="Trazado_638167" data-name="Trazado 638167" d="M363.374,75.549c-.081,0-.145-2.756-.145-6.155s.065-6.156.145-6.156.145,2.756.145,6.156-.065,6.155-.145,6.155" transform="translate(-160.122 -27.877)" fill="#263238"/>
        <path id="Trazado_638168" data-name="Trazado 638168" d="M399.875,75.549c-.081,0-.146-2.756-.146-6.155s.065-6.156.146-6.156.145,2.756.145,6.156-.065,6.155-.145,6.155" transform="translate(-176.212 -27.877)" fill="#263238"/>
        <path id="Trazado_638169" data-name="Trazado 638169" d="M435.77,75.549c-.081,0-.145-2.756-.145-6.155s.065-6.156.145-6.156.145,2.756.145,6.156-.065,6.155-.145,6.155" transform="translate(-192.036 -27.877)" fill="#263238"/>
        <path id="Trazado_638170" data-name="Trazado 638170" d="M472.035,75.549c-.081,0-.145-2.756-.145-6.155s.065-6.156.145-6.156.145,2.756.145,6.156-.065,6.155-.145,6.155" transform="translate(-208.023 -27.877)" fill="#263238"/>
        <path id="Trazado_638171" data-name="Trazado 638171" d="M508.3,75.549c-.081,0-.145-2.756-.145-6.155s.065-6.156.145-6.156.145,2.756.145,6.156-.065,6.155-.145,6.155" transform="translate(-224.01 -27.877)" fill="#263238"/>
        <path id="Trazado_638172" data-name="Trazado 638172" d="M159.519,280.067s-7.157.414-7.734,1.664c0,0-.092,5.267,4.97,10.574l-1,2.159-.005,3.512c2.354-4.564,4.982-11.554,4.982-11.554s.117-4.911-1.215-6.354" transform="translate(-66.911 -123.462)" fill="#455a64"/>
        <g id="Grupo_882414" data-name="Grupo 882414" transform="translate(90.889 157.07)" opacity="0.3">
          <g id="Grupo_882413" data-name="Grupo 882413">
            <g id="Grupo_882412" data-name="Grupo 882412" clip-path="url(#clip-path-21)">
              <path id="Trazado_638173" data-name="Trazado 638173" d="M164.007,280.9s-2.5,6.487-.967,11.158c0,0,3.432-5.732.967-11.158" transform="translate(-162.543 -280.898)"/>
            </g>
          </g>
        </g>
        <path id="Trazado_638174" data-name="Trazado 638174" d="M164.75,290.67s-3.32-6.353-4.7-6.366c0,0-4.839,2.082-7.595,8.879l-2.378-.022a13.738,13.738,0,0,0-7.619-8.458s-3.629,6.538-3.754,6.474a12.943,12.943,0,0,0,8.17,3.424c5.128.268,12.58-.211,12.58-.211s4.524-1.913,5.293-3.721" transform="translate(-61.145 -125.33)" fill="#455a64"/>
        <g id="Grupo_882417" data-name="Grupo 882417" transform="translate(78.002 165.889)" opacity="0.3">
          <g id="Grupo_882416" data-name="Grupo 882416">
            <g id="Grupo_882415" data-name="Grupo 882415" clip-path="url(#clip-path-22)">
              <path id="Trazado_638175" data-name="Trazado 638175" d="M149.2,299.5s-5.366-3.1-9.7-2.807c0,0,5.025,4.232,9.7,2.807" transform="translate(-139.496 -296.67)"/>
            </g>
          </g>
        </g>
        <g id="Grupo_882420" data-name="Grupo 882420" transform="translate(92.508 165.299)" opacity="0.3">
          <g id="Grupo_882419" data-name="Grupo 882419">
            <g id="Grupo_882418" data-name="Grupo 882418" clip-path="url(#clip-path-23)">
              <path id="Trazado_638176" data-name="Trazado 638176" d="M176.007,295.615s-6.942.39-10.569,3.707c0,0,6.636.771,10.569-3.707" transform="translate(-165.437 -295.615)"/>
            </g>
          </g>
        </g>
        <path id="Trazado_638177" data-name="Trazado 638177" d="M167.5,301.975l-1.9,28.5-43.991-.412-.344-28.518Z" transform="translate(-53.46 -132.929)" fill="#038a7b"/>
        <g id="Grupo_882423" data-name="Grupo 882423" transform="translate(105.425 168.968)" opacity="0.3">
          <g id="Grupo_882422" data-name="Grupo 882422">
            <g id="Grupo_882421" data-name="Grupo 882421" clip-path="url(#clip-path-24)">
              <path id="Trazado_638178" data-name="Trazado 638178" d="M188.806,302.176l-.267,28.513,6.721.063,1.9-28.5Z" transform="translate(-188.539 -302.176)"/>
            </g>
          </g>
        </g>
        <path id="Trazado_638179" data-name="Trazado 638179" d="M195.737,302.241l-1.387,28.5-1.528-.014.267-28.513Z" transform="translate(-85.002 -133.226)" fill="#455a64"/>
        <rect id="Rectángulo_330495" data-name="Rectángulo 330495" width="28.514" height="3.666" transform="translate(85.01 197.29) rotate(-89.463)" fill="#455a64"/>
        <rect id="Rectángulo_330496" data-name="Rectángulo 330496" width="45.089" height="2.766" transform="translate(67.962 181.174)" fill="#455a64"/>
      </g>
    </g>
    <g id="Grupo_882448" data-name="Grupo 882448">
      <g id="Grupo_882447" data-name="Grupo 882447" clip-path="url(#clip-path)">
        <path id="Trazado_638180" data-name="Trazado 638180" d="M282.328,128.1a40.02,40.02,0,0,1-.382-6.9,13.98,13.98,0,0,1,1.889-6.579c.184-.3,1.637-2.246,1.972-2.143.239.073-.795,1.956-.714,2.193a11.863,11.863,0,0,1-.063,7.042,31.23,31.23,0,0,1-2.7,6.385" transform="translate(-124.273 -49.581)" fill="#263238"/>
        <path id="Trazado_638181" data-name="Trazado 638181" d="M278.363,138.089l3.923-20.238c.961-5.7,5.081-9.9,10.753-8.776l.518.134a10.336,10.336,0,0,1,7.6,11.782c-.861,4.937-1.875,10.382-2.578,12.968-1.456,5.354-7.044,4.8-7.044,4.8s-1.358,6.065-1.7,7.657l-7.917-2.762-1.914-.6Z" transform="translate(-122.711 -48.003)" fill="#ffc09d"/>
        <path id="Trazado_638182" data-name="Trazado 638182" d="M296.823,159.248a13.4,13.4,0,0,1-6.46-3.876s.639,4.473,6.123,5.376Z" transform="translate(-128.001 -68.493)" fill="#ff9b6c"/>
        <path id="Trazado_638183" data-name="Trazado 638183" d="M313.221,138.722a.792.792,0,0,1-.94.583.757.757,0,0,1-.612-.9.793.793,0,0,1,.939-.584.759.759,0,0,1,.612.9" transform="translate(-137.385 -60.75)" fill="#263238"/>
        <path id="Trazado_638184" data-name="Trazado 638184" d="M313.6,133.244c-.121.075-.59-.5-1.417-.716s-1.538.045-1.6-.079c-.032-.056.111-.212.424-.336a2.178,2.178,0,0,1,1.314-.06,2.089,2.089,0,0,1,1.1.694c.2.261.243.464.184.5" transform="translate(-136.912 -58.181)" fill="#263238"/>
        <path id="Trazado_638185" data-name="Trazado 638185" d="M300.007,135.763a.792.792,0,0,1-.94.583.757.757,0,0,1-.612-.9.793.793,0,0,1,.939-.583.759.759,0,0,1,.612.9" transform="translate(-131.56 -59.446)" fill="#263238"/>
        <path id="Trazado_638186" data-name="Trazado 638186" d="M299.3,130.17c-.121.075-.592-.5-1.417-.716s-1.538.045-1.6-.079c-.033-.056.11-.212.425-.335a2.171,2.171,0,0,1,1.314-.06,2.087,2.087,0,0,1,1.1.7c.2.26.243.464.185.5" transform="translate(-130.609 -56.826)" fill="#263238"/>
        <path id="Trazado_638187" data-name="Trazado 638187" d="M303.786,138.055a5.634,5.634,0,0,1,1.4.1c.217.033.427.043.5-.092a1.113,1.113,0,0,0,.021-.662q-.1-.842-.208-1.766a28.534,28.534,0,0,1-.315-4.56,28.426,28.426,0,0,1,.681,4.524q.094.926.179,1.769a1.262,1.262,0,0,1-.1.856.548.548,0,0,1-.426.219,1.49,1.49,0,0,1-.371-.043,5.549,5.549,0,0,1-1.359-.349" transform="translate(-133.918 -57.784)" fill="#263238"/>
        <path id="Trazado_638188" data-name="Trazado 638188" d="M300.908,124.392c-.167.182-.91-.247-1.88-.52-.965-.293-1.822-.333-1.864-.575-.017-.115.2-.262.584-.343a3.39,3.39,0,0,1,2.853.834c.282.277.382.517.307.6" transform="translate(-130.998 -54.178)" fill="#263238"/>
        <path id="Trazado_638189" data-name="Trazado 638189" d="M314.838,127.6c-.218.146-.845-.213-1.654-.419-.8-.23-1.529-.237-1.639-.473-.046-.112.108-.275.451-.38a2.691,2.691,0,0,1,1.423.018,2.648,2.648,0,0,1,1.231.7c.239.263.287.48.188.553" transform="translate(-137.335 -55.653)" fill="#263238"/>
        <path id="Trazado_638190" data-name="Trazado 638190" d="M280.887,131.767c-.081-.063-3.409-2.046-4.241,1.656s3.056,3.775,3.087,3.67,1.154-5.327,1.154-5.327" transform="translate(-121.902 -57.828)" fill="#ffc09d"/>
        <path id="Trazado_638191" data-name="Trazado 638191" d="M279.7,136.346c-.013-.016-.075.031-.2.056a.658.658,0,0,1-.484-.1,1.636,1.636,0,0,1-.417-1.6,2.184,2.184,0,0,1,.388-.882.766.766,0,0,1,.6-.386.337.337,0,0,1,.341.262c.026.115-.014.183,0,.195s.093-.045.1-.2a.421.421,0,0,0-.093-.264.5.5,0,0,0-.335-.174.929.929,0,0,0-.8.422,2.242,2.242,0,0,0-.456.982,1.717,1.717,0,0,0,.582,1.811.708.708,0,0,0,.612.035c.135-.066.173-.144.162-.154" transform="translate(-122.683 -58.738)" fill="#ff9b6c"/>
        <path id="Trazado_638192" data-name="Trazado 638192" d="M301.771,113.69c.672-.2-.711-2.535-2.042-3.522-2.012-1.492-5.283-2.85-7.464-2.71a9.145,9.145,0,0,0-6.678,2.942,14.923,14.923,0,0,0-3.244,7.1,4.533,4.533,0,0,0,.034,2.379c.341.932,1.224,1.663.937,2.785a1.587,1.587,0,0,0,.141,1.216c.523.869,1.5.369,2.028-.229a10.989,10.989,0,0,0,2.024-4.642,11.113,11.113,0,0,0,.526-3.579c-.048-.657-.214-1.3-.225-1.964a2.278,2.278,0,0,1,.661-1.795,2.356,2.356,0,0,1,.367-.24,3.957,3.957,0,0,1,4,.1c1.93,1.189,5.26,3.062,6.344,2.554a5.847,5.847,0,0,0,2.024-1.327Z" transform="translate(-124.403 -47.366)" fill="#263238"/>
        <path id="Trazado_638193" data-name="Trazado 638193" d="M298.712,143.47c.129.02-.048.872.554,1.631s1.53.856,1.512.977c0,.056-.237.123-.623.053a2.169,2.169,0,0,1-1.272-.767,1.894,1.894,0,0,1-.41-1.357c.043-.363.182-.555.239-.537" transform="translate(-131.571 -63.245)" fill="#263238"/>
        <path id="Trazado_638194" data-name="Trazado 638194" d="M304.449,211.988l14.016,5.716-1.722,6.57-14.4-2.957a8.618,8.618,0,0,1-6.953-5.275L290.434,204l7.938-7.547Z" transform="translate(-128.032 -86.604)" fill="#ffc09d"/>
        <path id="Trazado_638195" data-name="Trazado 638195" d="M337.318,242.225c1.444.537,3.034,1.2,3.034,1.2l1.443.513a1.7,1.7,0,0,1-.214.221,1.151,1.151,0,0,0-.361.448.916.916,0,0,0,.43.944,2.238,2.238,0,0,0,2.195.265,2.207,2.207,0,0,0,1.275-1.694,1.613,1.613,0,0,0,.4-.488c.68-1.268-.3-3.113-.3-3.113l.53.11s1.381.948.972,3.7a1.714,1.714,0,0,0,.245,1.192.872.872,0,0,0,.608.428c.673.083.9-.372,1.182-2.09s-.021-3.469-.835-4.311a11.608,11.608,0,0,0-1.186-1.117s4.839.706,5.147.739c.891.094,1.676-.226,1.793-.814.074-.377-.11-.909-1.144-1.05-.9-.122-9.912-2.539-9.912-2.539l-4.05-.835-3.452-.146-1.276,5.235.987,1.069a4.784,4.784,0,0,0,2.492,2.129" transform="translate(-147.166 -103.062)" fill="#ffc09d"/>
        <path id="Trazado_638196" data-name="Trazado 638196" d="M342.654,235.558a1.281,1.281,0,0,0,.513,1.4c.414.336.928.522,1.365.828,1.306.913,1.748,2.747,3.1,3.6.188.119.456.206.611.049s.076-.389,0-.58l-1.934-4.906" transform="translate(-151.023 -103.841)" fill="#ffc09d"/>
        <path id="Trazado_638197" data-name="Trazado 638197" d="M346.27,235.939a2.161,2.161,0,0,1,.263.509c.151.335.361.824.614,1.43l.876,2.134.249.618a1.049,1.049,0,0,1,.116.781.439.439,0,0,1-.43.246.912.912,0,0,1-.41-.134,3.478,3.478,0,0,1-.609-.484,20.415,20.415,0,0,1-1.671-2.3,4,4,0,0,0-.833-.85c-.3-.218-.626-.372-.911-.547a1.871,1.871,0,0,1-1-1.215c-.064-.391.09-.582.1-.57a1.53,1.53,0,0,0,.018.545,1.811,1.811,0,0,0,.991,1.056c.281.157.615.3.948.527a4.118,4.118,0,0,1,.909.885,23.729,23.729,0,0,0,1.662,2.256,3.248,3.248,0,0,0,.549.44c.187.114.39.13.425.018.057-.116-.032-.342-.116-.551l-.24-.622-.816-2.157c-.228-.616-.408-1.116-.526-1.464a2.1,2.1,0,0,1-.155-.551" transform="translate(-150.988 -103.84)" fill="#ff9b6c"/>
        <path id="Trazado_638198" data-name="Trazado 638198" d="M354.156,245.7a2.187,2.187,0,0,1,.891.446,1.7,1.7,0,0,1,.5.925,4.276,4.276,0,0,1,.019,1.334,6.868,6.868,0,0,0-.058,1.383,2.227,2.227,0,0,0,.376,1.086.867.867,0,0,0,.68.371.5.5,0,0,0,.277-.054c0-.019-.1,0-.272-.021a.821.821,0,0,1-.575-.376,2.207,2.207,0,0,1-.309-1.022,7.561,7.561,0,0,1,.073-1.347,4.174,4.174,0,0,0-.038-1.392,1.775,1.775,0,0,0-.587-.991,1.577,1.577,0,0,0-.7-.334.532.532,0,0,0-.282-.009" transform="translate(-156.122 -108.304)" fill="#ff9b6c"/>
        <path id="Trazado_638199" data-name="Trazado 638199" d="M361.542,242.775a5.492,5.492,0,0,0-.961-.147l-2.321-.294L355.943,242a5.418,5.418,0,0,0-.965-.112,4.365,4.365,0,0,0,.943.247c.588.122,1.406.264,2.315.386s1.735.2,2.333.239a4.357,4.357,0,0,0,.973.011" transform="translate(-156.485 -106.63)" fill="#ff9b6c"/>
        <path id="Trazado_638200" data-name="Trazado 638200" d="M350.134,247.389a1.192,1.192,0,0,0,.073.3.9.9,0,0,1-.06.749.48.48,0,0,1-.435.2,2.593,2.593,0,0,1-.62-.132,1.087,1.087,0,0,0-.773.011.917.917,0,0,0-.479.684,1.058,1.058,0,0,0,.23.8,1.332,1.332,0,0,0,.627.45,4.268,4.268,0,0,0,1.242.152,2.5,2.5,0,0,0,.829-.136c.187-.075.267-.158.261-.164s-.1.043-.285.093a2.96,2.96,0,0,1-.805.07,4.6,4.6,0,0,1-1.187-.183,1.053,1.053,0,0,1-.721-1.053.737.737,0,0,1,.372-.545.928.928,0,0,1,.645-.008,2.584,2.584,0,0,0,.665.12.619.619,0,0,0,.547-.28.942.942,0,0,0,.018-.848.794.794,0,0,0-.144-.273" transform="translate(-153.333 -109.056)" fill="#ff9b6c"/>
        <path id="Trazado_638201" data-name="Trazado 638201" d="M347.818,251.92c0-.009-.1-.05-.277-.011a.836.836,0,0,0-.57.493,1.131,1.131,0,0,0,.19,1.1,1.862,1.862,0,0,0,1.213.649,2.222,2.222,0,0,0,1.346-.235,2.1,2.1,0,0,0,.8-.768,1.984,1.984,0,0,0,.264-.7.578.578,0,0,0,.008-.273,3.473,3.473,0,0,1-.388.9,2.074,2.074,0,0,1-.773.684,2.118,2.118,0,0,1-1.238.2,1.731,1.731,0,0,1-1.1-.567,1,1,0,0,1-.2-.945.793.793,0,0,1,.464-.47c.155-.057.254-.045.255-.062" transform="translate(-152.924 -111.042)" fill="#ff9b6c"/>
        <path id="Trazado_638202" data-name="Trazado 638202" d="M342.963,243.5a.79.79,0,0,0,.054-.463,1.85,1.85,0,0,0-.48-1.091l-.069.156a5.548,5.548,0,0,0,.66-.018,4.141,4.141,0,0,0,2.15-.719,10.473,10.473,0,0,1-2.169.526c-.223.02-.438.027-.637.025h-.22l.152.158a1.935,1.935,0,0,1,.5.979c.052.275.036.446.062.448" transform="translate(-150.874 -106.398)" fill="#ff9b6c"/>
        <path id="Trazado_638203" data-name="Trazado 638203" d="M357.606,247.373c-.017-.049-.388.09-.625.49s-.189.793-.139.785.093-.339.3-.684.487-.542.459-.591" transform="translate(-157.288 -109.045)" fill="#ff9b6c"/>
        <path id="Trazado_638204" data-name="Trazado 638204" d="M297.988,174.576s-.752-4.732-.684-4.41c.337,1.616,2.708,4.013,3.285,9.27.225,2.052,3.876,15.418,3.876,15.418l-10.136,4.7-.64-11.336Z" transform="translate(-129.467 -75.007)" fill="#2b95f9"/>
        <path id="Trazado_638205" data-name="Trazado 638205" d="M419.04,298.768a17.449,17.449,0,0,0-1.1-3.438,9.892,9.892,0,0,0-2.163-3.07,4.9,4.9,0,0,0-7.519.535,9.84,9.84,0,0,0-1.694,3.349,17.389,17.389,0,0,0-.586,3.56.966.966,0,0,1-.02-.255c-.007-.168-.007-.415.011-.732a12.209,12.209,0,0,1,.428-2.639,9.825,9.825,0,0,1,1.691-3.462,5.069,5.069,0,0,1,7.831-.557,9.865,9.865,0,0,1,2.176,3.182,12.249,12.249,0,0,1,.809,2.549c.064.311.1.556.117.722a.991.991,0,0,1,.018.256" transform="translate(-178.957 -128.047)" fill="#263238"/>
        <path id="Trazado_638206" data-name="Trazado 638206" d="M423.072,298.466a17.454,17.454,0,0,0-1.1-3.438,9.891,9.891,0,0,0-2.163-3.07,4.9,4.9,0,0,0-7.519.535,9.841,9.841,0,0,0-1.694,3.349,17.389,17.389,0,0,0-.586,3.56.968.968,0,0,1-.02-.255c-.007-.168-.007-.415.011-.732a12.206,12.206,0,0,1,.428-2.639,9.825,9.825,0,0,1,1.691-3.462,5.069,5.069,0,0,1,7.831-.557,9.865,9.865,0,0,1,2.176,3.182,12.247,12.247,0,0,1,.809,2.549c.064.311.1.556.117.722a.992.992,0,0,1,.018.256" transform="translate(-180.734 -127.914)" fill="#263238"/>
        <path id="Trazado_638207" data-name="Trazado 638207" d="M392.085,303.718l25.452-2.085,2.924,31.556-28.576,2.142Z" transform="translate(-172.754 -132.969)" fill="#2b95f9"/>
        <path id="Trazado_638208" data-name="Trazado 638208" d="M437.76,301.444l3.2-.239,5.12,31.391-5.393.4Z" transform="translate(-192.977 -132.78)" fill="#2b95f9"/>
        <g id="Grupo_882428" data-name="Grupo 882428" transform="translate(244.873 168.425)" opacity="0.3">
          <g id="Grupo_882427" data-name="Grupo 882427">
            <g id="Grupo_882426" data-name="Grupo 882426" clip-path="url(#clip-path-26)">
              <path id="Trazado_638209" data-name="Trazado 638209" d="M437.76,301.444l3.2-.239,5.12,31.391-5.393.4Z" transform="translate(-437.76 -301.204)"/>
            </g>
          </g>
        </g>
        <rect id="Rectángulo_330499" data-name="Rectángulo 330499" width="16.718" height="3.202" transform="translate(224.573 180.972) rotate(-4.285)" fill="#fff"/>
        <path id="Trazado_638210" data-name="Trazado 638210" d="M362.383,266.058a14.95,14.95,0,0,0-.719-3.007,8.473,8.473,0,0,0-1.651-2.761,4.2,4.2,0,0,0-6.456-.025,8.427,8.427,0,0,0-1.662,2.752,14.914,14.914,0,0,0-.729,3,.856.856,0,0,1,0-.219c.005-.143.02-.355.056-.624a10.449,10.449,0,0,1,.535-2.227,8.4,8.4,0,0,1,1.666-2.848,4.341,4.341,0,0,1,6.725.025,8.452,8.452,0,0,1,1.655,2.857,10.491,10.491,0,0,1,.527,2.229c.035.27.049.481.054.625a.864.864,0,0,1,0,.219" transform="translate(-154.802 -113.963)" fill="#263238"/>
        <path id="Trazado_638211" data-name="Trazado 638211" d="M365.847,266.058a14.959,14.959,0,0,0-.719-3.007,8.472,8.472,0,0,0-1.651-2.761,4.2,4.2,0,0,0-6.456-.025,8.425,8.425,0,0,0-1.662,2.752,14.913,14.913,0,0,0-.729,3,.856.856,0,0,1,0-.219c.005-.143.021-.355.056-.624a10.455,10.455,0,0,1,.535-2.227,8.4,8.4,0,0,1,1.666-2.848,4.341,4.341,0,0,1,6.725.025,8.453,8.453,0,0,1,1.655,2.857,10.487,10.487,0,0,1,.527,2.229c.035.27.049.481.054.625a.867.867,0,0,1,0,.219" transform="translate(-156.329 -113.963)" fill="#263238"/>
        <path id="Trazado_638212" data-name="Trazado 638212" d="M337.8,269.548l21.872-.152.478,27.14H335.6Z" transform="translate(-147.944 -118.757)" fill="#455a64"/>
        <path id="Trazado_638213" data-name="Trazado 638213" d="M378.644,269.4h2.746l2.364,27.14h-4.632Z" transform="translate(-166.917 -118.758)" fill="#455a64"/>
        <g id="Grupo_882431" data-name="Grupo 882431" transform="translate(211.727 150.638)" opacity="0.3">
          <g id="Grupo_882430" data-name="Grupo 882430">
            <g id="Grupo_882429" data-name="Grupo 882429" clip-path="url(#clip-path-27)">
              <path id="Trazado_638214" data-name="Trazado 638214" d="M378.644,269.4h2.746l2.364,27.14h-4.632Z" transform="translate(-378.644 -269.396)"/>
            </g>
          </g>
        </g>
        <rect id="Rectángulo_330501" data-name="Rectángulo 330501" width="14.32" height="2.742" transform="translate(193.677 159.857)" fill="#fff"/>
        <path id="Trazado_638215" data-name="Trazado 638215" d="M360.584,296.017s-6.451.861-6.889,2.031c0,0,.275,4.775,5.217,9.235l-.757,2.022.234,3.179c1.821-4.291,3.726-10.8,3.726-10.8s-.227-4.453-1.531-5.67" transform="translate(-155.919 -130.493)" fill="#e0e0e0"/>
        <g id="Grupo_882434" data-name="Grupo 882434" transform="translate(203.62 165.962)" opacity="0.3">
          <g id="Grupo_882433" data-name="Grupo 882433">
            <g id="Grupo_882432" data-name="Grupo 882432" clip-path="url(#clip-path-28)">
              <path id="Trazado_638216" data-name="Trazado 638216" d="M364.992,296.8s-1.822,6.042-.119,10.167c0,0,2.718-5.422.119-10.167" transform="translate(-364.146 -296.801)"/>
            </g>
          </g>
        </g>
        <path id="Trazado_638217" data-name="Trazado 638217" d="M366.318,304.532s-3.437-5.526-4.684-5.444c0,0-4.24,2.214-6.273,8.554l-2.155.141a12.471,12.471,0,0,0-7.472-7.14s-2.842,6.165-2.959,6.116A11.745,11.745,0,0,0,350.4,309.3c4.66-.105,11.375-1.044,11.375-1.044s3.966-2.039,4.539-3.727" transform="translate(-151.105 -131.847)" fill="#e0e0e0"/>
        <g id="Grupo_882437" data-name="Grupo 882437" transform="translate(192.074 174.855)" opacity="0.3">
          <g id="Grupo_882436" data-name="Grupo 882436">
            <g id="Grupo_882435" data-name="Grupo 882435" clip-path="url(#clip-path-29)">
              <path id="Trazado_638218" data-name="Trazado 638218" d="M352.47,314.67s-5.068-2.439-8.972-1.883c0,0,4.836,3.49,8.972,1.883" transform="translate(-343.498 -312.704)"/>
            </g>
          </g>
        </g>
        <g id="Grupo_882440" data-name="Grupo 882440" transform="translate(205.416 172.684)" opacity="0.3">
          <g id="Grupo_882439" data-name="Grupo 882439">
            <g id="Grupo_882438" data-name="Grupo 882438" clip-path="url(#clip-path-30)">
              <path id="Trazado_638219" data-name="Trazado 638219" d="M376.674,308.822s-6.257.825-9.316,4.074c0,0,6.06.247,9.316-4.074" transform="translate(-367.358 -308.822)"/>
            </g>
          </g>
        </g>
        <path id="Trazado_638220" data-name="Trazado 638220" d="M369.209,313.559l.217,25.927L329.573,342.1,327.326,316.3Z" transform="translate(-144.295 -138.226)" fill="#617a0b"/>
        <g id="Grupo_882443" data-name="Grupo 882443" transform="translate(217.349 175.333)" opacity="0.3">
          <g id="Grupo_882442" data-name="Grupo 882442">
            <g id="Grupo_882441" data-name="Grupo 882441" clip-path="url(#clip-path-31)">
              <path id="Trazado_638221" data-name="Trazado 638221" d="M388.7,314.054l1.693,25.83,6.089-.4-.217-25.928Z" transform="translate(-388.699 -313.559)"/>
            </g>
          </g>
        </g>
        <path id="Trazado_638222" data-name="Trazado 638222" d="M394.978,313.91l.678,25.9-1.384.091-1.693-25.83Z" transform="translate(-173.061 -138.381)" fill="#f5f5f5"/>
        <rect id="Rectángulo_330506" data-name="Rectángulo 330506" width="3.328" height="25.886" transform="matrix(0.998, -0.065, 0.065, 0.998, 198.855, 177.041)" fill="#f5f5f5"/>
        <rect id="Rectángulo_330507" data-name="Rectángulo 330507" width="40.933" height="2.511" transform="translate(184.021 189.438) rotate(-4.286)" fill="#f5f5f5"/>
        <path id="Trazado_638223" data-name="Trazado 638223" d="M329.06,323.2a.28.28,0,0,1-.274-.225L318.53,271.559a.28.28,0,1,1,.549-.109l10.256,51.411a.279.279,0,0,1-.22.329.264.264,0,0,1-.055.006" transform="translate(-140.415 -119.564)" fill="#e0e0e0"/>
        <path id="Trazado_638224" data-name="Trazado 638224" d="M345.924,325.08a.28.28,0,0,1-.274-.228l-8.931-47.916a.28.28,0,0,1,.55-.1l8.93,47.916a.281.281,0,0,1-.275.331" transform="translate(-148.434 -121.935)" fill="#e0e0e0"/>
        <path id="Trazado_638225" data-name="Trazado 638225" d="M362.208,324.79a.28.28,0,0,1-.276-.239l-6.966-47.2a.28.28,0,1,1,.554-.082l6.966,47.2a.28.28,0,0,1-.236.318l-.041,0" transform="translate(-156.478 -122.122)" fill="#e0e0e0"/>
        <path id="Trazado_638226" data-name="Trazado 638226" d="M379,326.131a.28.28,0,0,1-.276-.239l-6.78-45.941a.28.28,0,0,1,.554-.082l6.78,45.941a.28.28,0,0,1-.236.318l-.041,0" transform="translate(-163.965 -123.27)" fill="#e0e0e0"/>
        <path id="Trazado_638227" data-name="Trazado 638227" d="M395.573,325.928a.28.28,0,0,1-.276-.239l-6.24-42.286a.28.28,0,0,1,.554-.082l6.24,42.286a.28.28,0,0,1-.236.318l-.041,0" transform="translate(-171.506 -124.792)" fill="#e0e0e0"/>
        <path id="Trazado_638228" data-name="Trazado 638228" d="M412.418,327.6a.28.28,0,0,1-.276-.239l-6.229-42.207a.28.28,0,1,1,.554-.082l6.229,42.207a.28.28,0,0,1-.236.318l-.041,0" transform="translate(-178.937 -125.565)" fill="#e0e0e0"/>
        <path id="Trazado_638229" data-name="Trazado 638229" d="M429.039,327.974a.279.279,0,0,1-.277-.251l-4.013-39.69a.279.279,0,0,1,.25-.306.283.283,0,0,1,.306.251l4.013,39.689a.279.279,0,0,1-.25.306l-.029,0" transform="translate(-187.241 -126.838)" fill="#e0e0e0"/>
        <path id="Trazado_638230" data-name="Trazado 638230" d="M443.578,329.137a.28.28,0,0,1-.28-.27l-1.344-38.214a.279.279,0,0,1,.27-.29.289.289,0,0,1,.29.27l1.344,38.214a.279.279,0,0,1-.269.29Z" transform="translate(-194.827 -128.001)" fill="#e0e0e0"/>
        <path id="Trazado_638231" data-name="Trazado 638231" d="M319.424,344.844l7.687-.383,18.455-.918,22.247-1.106,19.237-.956,6.366-.317c1-.05,2.026-.042,3.024-.15.044-.005.089,0,.133-.007.448-.022.451-.721,0-.7l-7.687.382-18.455.918-22.247,1.107-19.237.956-6.366.316c-1,.05-2.026.042-3.024.15-.044.005-.088,0-.133.007-.448.022-.45.721,0,.7" transform="translate(-140.663 -150.018)" fill="#e0e0e0"/>
        <path id="Trazado_638232" data-name="Trazado 638232" d="M315.209,323.607l7.978.167,19.084.4,23.076.483,20,.419,6.58.138c1.024.021,2.067.1,3.091.065.047,0,.094,0,.141,0a.35.35,0,0,0,0-.7l-7.978-.167-19.084-.4-23.076-.483-20-.419-6.581-.138c-1.024-.021-2.067-.1-3.091-.065-.046,0-.094,0-.141,0a.35.35,0,0,0,0,.7" transform="translate(-138.805 -142.344)" fill="#e0e0e0"/>
        <path id="Trazado_638233" data-name="Trazado 638233" d="M309.051,296.089l8.376.793,20.04,1.9,24.231,2.294,21,1.988,6.877.651c1.08.1,2.188.289,3.272.31.049,0,.1.009.146.014.448.042.445-.657,0-.7l-8.376-.793-20.04-1.9-24.231-2.294-21-1.988-6.877-.651c-1.079-.1-2.187-.29-3.272-.31-.049,0-.1-.009-.146-.014-.447-.042-.445.657,0,.7" transform="translate(-136.091 -130.216)" fill="#e0e0e0"/>
        <path id="Trazado_638234" data-name="Trazado 638234" d="M316.122,323.487a4.347,4.347,0,0,1-4.267-3.456l-10.976-51.214a1.1,1.1,0,0,1,1.245-1.32l88.222,13.526a1.1,1.1,0,0,1,.933,1.157l-2.08,33.473a4.371,4.371,0,0,1-4.126,4.094l-68.706,3.733c-.081.005-.163.007-.244.007m-12.753-53.569L314.01,319.57a2.147,2.147,0,0,0,2.237,1.711l68.706-3.733a2.168,2.168,0,0,0,2.046-2.03l2.017-32.468Z" transform="translate(-132.625 -117.915)" fill="#e0e0e0"/>
        <path id="Trazado_638235" data-name="Trazado 638235" d="M305.351,271.837s.135.016.407.055l1.217.179,4.738.711,17.779,2.688,61.527,9.36.126.019-.008.127c-.345,5.572-.7,11.381-1.074,17.364q-.278,4.487-.564,9.1-.143,2.3-.287,4.631l-.072,1.165a2.529,2.529,0,0,1-.3,1.185,2.345,2.345,0,0,1-2.055,1.2L339.17,322.2l-20.779,1.116a2.308,2.308,0,0,1-2.194-1.02,2.491,2.491,0,0,1-.267-.57c-.058-.206-.093-.4-.136-.592q-.124-.583-.247-1.16-.493-2.311-.967-4.534l-1.814-8.523-7.415-35.073,7.62,35.085,1.832,8.488.973,4.515q.123.575.249,1.156a2.819,2.819,0,0,0,.372,1.081,2.064,2.064,0,0,0,1.981.909l20.777-1.142,47.615-2.6a2.051,2.051,0,0,0,1.816-1.05,2.234,2.234,0,0,0,.262-1.062l.073-1.165q.144-2.328.288-4.632l.566-9.1c.374-5.983.736-11.791,1.084-17.363l.117.146-61.392-9.486-17.808-2.768-4.767-.746-1.234-.2c-.278-.045-.425-.072-.425-.072" transform="translate(-134.608 -119.834)" fill="#263238"/>
        <path id="Trazado_638236" data-name="Trazado 638236" d="M316.025,323.391l10.21-.6,27.847-1.56,19.23-1.062,10.713-.589c.458-.03.93-.038,1.371-.1a4.261,4.261,0,0,0,3.161-2.351,4.291,4.291,0,0,0,.385-1.322c.052-.459.065-.949.1-1.425q.089-1.438.178-2.9c.48-7.77.984-15.925,1.506-24.38q.1-1.585.2-3.185.049-.8.1-1.6a1.24,1.24,0,0,0-.08-.716.959.959,0,0,0-.5-.47,4.764,4.764,0,0,0-.759-.144l-.8-.122-1.607-.246-3.231-.5L370.9,278.108l-50.076-7.69-11.244-1.73-5.386-.829-1.321-.2-.656-.1a1.307,1.307,0,0,0-.605-.01.984.984,0,0,0-.72.832,1.778,1.778,0,0,0,.075.605l.136.636,4.019,18.837c2.447,11.514,4.429,20.832,5.8,27.279l.907,4.28a4.327,4.327,0,0,0,3.536,3.31c.437.073.668.052.667.068,0,0-.057,0-.169,0a3.223,3.223,0,0,1-.5-.039,4.284,4.284,0,0,1-1.831-.711,4.369,4.369,0,0,1-1.784-2.608l-.934-4.276c-1.392-6.442-3.4-15.754-5.89-27.26-1.239-5.756-2.6-12.061-4.053-18.829l-.137-.636a1.98,1.98,0,0,1-.08-.684,1.228,1.228,0,0,1,.9-1.041,1.548,1.548,0,0,1,.706,0l.656.1,1.321.2,5.388.822,11.246,1.718,50.079,7.667,13.151,2.017,3.231.5,1.606.247.8.122a4.692,4.692,0,0,1,.824.163,1.245,1.245,0,0,1,.65.61,1.535,1.535,0,0,1,.108.859q-.05.8-.1,1.6-.1,1.6-.2,3.184c-.528,8.455-1.038,16.61-1.524,24.379q-.091,1.457-.181,2.9c-.036.483-.047.951-.1,1.44a4.48,4.48,0,0,1-2.406,3.449,4.446,4.446,0,0,1-1.362.446c-.48.064-.935.07-1.4.1l-10.714.575-19.232,1.027L326.241,322.9l-7.574.384-1.97.093c-.444.022-.672.015-.672.015" transform="translate(-132.529 -117.819)" fill="#263238"/>
        <path id="Trazado_638237" data-name="Trazado 638237" d="M212.307,260.49a38.612,38.612,0,0,0-1.151,8.439,44.617,44.617,0,0,0,1.79,8.695l-1.416,22.771s-7.849,7.441-10.361,10.711c-2.291,2.982-17.759,20.4-17.759,20.4l11.764,9.921S214.337,322.351,218.3,318s8.441-7.342,10.1-13.223,5.384-27.412,5.384-27.412l4.441-8.055-1.117-7.371Z" transform="translate(-80.853 -114.832)" fill="#263238"/>
        <path id="Trazado_638238" data-name="Trazado 638238" d="M242.9,308.484c-.184.92-10.468,42.043-10.468,42.043l15.909,3.8c-.318-.487,3.365-15.293,6.407-27.084,2.8-10.851,4.373-14.347,5.093-18.763s4.109-30.173,3.979-31.83a11.462,11.462,0,0,1,.7-3.908l-13.525-3.267Z" transform="translate(-102.462 -118.794)" fill="#263238"/>
        <path id="Trazado_638239" data-name="Trazado 638239" d="M245.737,282a1.532,1.532,0,0,1-.14.221l-.439.634-1.735,2.45.011-.026c-.51,3.232-1.36,8.4-2.547,14.793-.6,3.2-1.27,6.7-2.114,10.41-.206.928-.436,1.865-.683,2.813-.112.476-.262.947-.4,1.425a14.362,14.362,0,0,1-.481,1.427,5.515,5.515,0,0,1-.732,1.35c-.291.42-.6.833-.916,1.234-.632.811-1.305,1.6-1.987,2.389-3.792,4.337-7.606,8.276-11.074,11.858s-6.646,6.753-9.318,9.412-4.85,4.795-6.363,6.264l-1.748,1.684-.461.432a1.252,1.252,0,0,1-.164.14,1.112,1.112,0,0,1,.143-.162l.44-.452,1.71-1.723,6.3-6.329c2.652-2.678,5.806-5.871,9.27-9.453s7.264-7.535,11.046-11.862c.68-.788,1.352-1.573,1.978-2.378a10.338,10.338,0,0,0,1.61-2.513,14.191,14.191,0,0,0,.474-1.4c.137-.473.286-.939.4-1.414.247-.943.479-1.877.686-2.8.849-3.7,1.532-7.2,2.145-10.393,1.215-6.386,2.106-11.545,2.666-14.768l0-.015.008-.011,1.783-2.415.465-.616a1.566,1.566,0,0,1,.166-.2" transform="translate(-90.127 -124.313)" fill="#455a64"/>
        <path id="Trazado_638240" data-name="Trazado 638240" d="M195.582,389.555l-7.775,8.006s5.527,10.592,4.234,12.211l-16.065-14.518,11.6-12.972Z" transform="translate(-77.575 -168.522)" fill="#263238"/>
        <path id="Trazado_638241" data-name="Trazado 638241" d="M188.409,400.266a.885.885,0,0,0-1.13.339.849.849,0,0,0,.326,1.123.933.933,0,0,0,1.195-.365.882.882,0,0,0-.469-1.131" transform="translate(-82.516 -176.412)" fill="#e0e0e0"/>
        <path id="Trazado_638242" data-name="Trazado 638242" d="M175.976,404.487l1.221-1.261,14.946,14.391s.434.958-.1,1.388Z" transform="translate(-77.575 -177.753)" fill="#455a64"/>
        <path id="Trazado_638243" data-name="Trazado 638243" d="M195.936,409.3c-.073.076-.5-.243-1.112-.339-.612-.112-1.118.048-1.162-.049-.058-.081.483-.443,1.223-.314s1.132.646,1.05.7" transform="translate(-85.37 -180.112)" fill="#fff"/>
        <path id="Trazado_638244" data-name="Trazado 638244" d="M197.944,413.556c-.051.092-.511-.082-1.078.01-.569.074-.96.372-1.035.3-.085-.054.276-.563.982-.663s1.2.278,1.131.354" transform="translate(-86.323 -182.143)" fill="#fff"/>
        <path id="Trazado_638245" data-name="Trazado 638245" d="M198.058,418.278c-.086-.048.159-.538.748-.786s1.111-.087,1.085.008-.46.12-.942.331-.807.509-.892.447" transform="translate(-87.302 -183.984)" fill="#fff"/>
        <path id="Trazado_638246" data-name="Trazado 638246" d="M199.157,405.116c-.1.042-.36-.392-.83-.762s-.942-.544-.923-.648.605-.084,1.154.361.693,1.022.6,1.049" transform="translate(-87.021 -177.944)" fill="#fff"/>
        <path id="Trazado_638247" data-name="Trazado 638247" d="M247.843,408.182l-1.851,8.66-.056,1.664s11.21,4.131,11.341,6.2l-21.653.043-.046-6.449,2.331-11.435Z" transform="translate(-103.85 -179.357)" fill="#263238"/>
        <path id="Trazado_638248" data-name="Trazado 638248" d="M241.628,426a.884.884,0,0,0-.609,1.01.85.85,0,0,0,1,.613.933.933,0,0,0,.64-1.074.882.882,0,0,0-1.107-.522" transform="translate(-106.24 -187.777)" fill="#e0e0e0"/>
        <path id="Trazado_638249" data-name="Trazado 638249" d="M235.66,437.463l.056-1.755,20.739.615s.965.418.857,1.1Z" transform="translate(-103.886 -192.073)" fill="#455a64"/>
        <path id="Trazado_638250" data-name="Trazado 638250" d="M253.174,427.409c0,.106-.532.155-1.051.5s-.8.786-.894.744c-.1-.02.059-.653.7-1.054s1.272-.283,1.249-.186" transform="translate(-110.737 -188.372)" fill="#fff"/>
        <path id="Trazado_638251" data-name="Trazado 638251" d="M257.664,429.124c.025.1-.433.283-.791.731s-.461.921-.566.917c-.1.017-.174-.6.282-1.15s1.073-.6,1.075-.5" transform="translate(-112.954 -189.152)" fill="#fff"/>
        <path id="Trazado_638252" data-name="Trazado 638252" d="M261.008,432.575c-.1.023-.244-.506.026-1.085s.764-.811.809-.723c.06.087-.261.4-.475.877s-.255.92-.36.93" transform="translate(-115.004 -189.887)" fill="#fff"/>
        <path id="Trazado_638253" data-name="Trazado 638253" d="M252.6,422.625c-.044.1-.53-.049-1.127-.007s-1.063.231-1.118.14.392-.469,1.1-.508,1.2.291,1.149.374" transform="translate(-110.363 -186.139)" fill="#fff"/>
        <path id="Trazado_638254" data-name="Trazado 638254" d="M305.317,397.987a1.054,1.054,0,0,1-.888-1.62l15.888-24.905a11.962,11.962,0,0,1,15.96-3.989l40.593,22.875c.027.016.054.032.079.049,2.441,1.675,3.778,3.477,3.976,5.359a1.054,1.054,0,0,1-2.1.221c-.129-1.232-1.15-2.515-3.034-3.815l-40.553-22.852a9.857,9.857,0,0,0-13.148,3.286L306.206,397.5a1.053,1.053,0,0,1-.889.487" transform="translate(-134.128 -161.312)" fill="#e0e0e0"/>
        <path id="Trazado_638255" data-name="Trazado 638255" d="M305.3,397.894a1.259,1.259,0,0,0,.445-.114,1.029,1.029,0,0,0,.417-.37l.422-.673,2.816-4.463,10.464-16.487,1.706-2.683a11.589,11.589,0,0,1,2.062-2.628,9.968,9.968,0,0,1,10.182-2.046,11.016,11.016,0,0,1,1.742.83l1.695.953,7.033,3.956,31.565,17.77.006,0,.006,0a11.475,11.475,0,0,1,1.852,1.556,4.421,4.421,0,0,1,1.217,2.184,1.3,1.3,0,0,0,.147.543.913.913,0,0,0,1.4.211.894.894,0,0,0,.271-.46,1.367,1.367,0,0,0-.017-.568,5.061,5.061,0,0,0-.351-1.174,9.653,9.653,0,0,0-3.447-3.762c-1.478-.862-3.008-1.7-4.493-2.548l-8.82-4.973-16.671-9.4-7.762-4.382c-1.262-.7-2.491-1.441-3.725-2.068a11.727,11.727,0,0,0-3.925-1.09,11.793,11.793,0,0,0-10.191,4.132,27.394,27.394,0,0,0-1.991,2.908l-11.79,18.4c-1.387,2.171-2.5,3.85-3.2,5a1.031,1.031,0,0,0,.019.848,1.046,1.046,0,0,0,.427.458,1.179,1.179,0,0,0,.5.142.581.581,0,0,1-.133,0,1.014,1.014,0,0,1-.379-.115,1.061,1.061,0,0,1-.453-.465,1.076,1.076,0,0,1-.033-.89c.7-1.175,1.785-2.851,3.159-5.035l11.712-18.446a27.616,27.616,0,0,1,2-2.936,12.064,12.064,0,0,1,14.388-3.128c1.266.641,2.475,1.372,3.744,2.07l7.768,4.371,16.68,9.39,8.822,4.969c1.5.849,2.994,1.67,4.516,2.56a9.918,9.918,0,0,1,3.549,3.885,5.363,5.363,0,0,1,.372,1.243,1.658,1.658,0,0,1,.013.682,1.2,1.2,0,0,1-2.2.329,1.6,1.6,0,0,1-.183-.642A4.147,4.147,0,0,0,377.5,393.7a11.226,11.226,0,0,0-1.805-1.515l.011.007-31.551-17.8-7.027-3.967-1.693-.956a10.812,10.812,0,0,0-1.706-.818,9.747,9.747,0,0,0-9.953,1.979,11.366,11.366,0,0,0-2.034,2.581l-1.714,2.677-10.539,16.439-2.86,4.435-.434.667a1.054,1.054,0,0,1-.44.372.841.841,0,0,1-.457.088" transform="translate(-134.108 -161.218)" fill="#263238"/>
        <path id="Trazado_638256" data-name="Trazado 638256" d="M305.851,429.175a4.962,4.962,0,1,1-4.962-4.962,4.962,4.962,0,0,1,4.962,4.962" transform="translate(-130.453 -187.006)" fill="#263238"/>
        <path id="Trazado_638257" data-name="Trazado 638257" d="M304.349,422.544a.712.712,0,0,0,.209-.5v-.424a.714.714,0,0,0-.714-.714h-4.6a.714.714,0,0,0-.714.714v.424a.7.7,0,0,0,.306.57l-2.181.412v1.191l2.357.844,1.349,3.341a1.046,1.046,0,0,0,1.941,0l1.35-3.386,2.357-.57V422.9Z" transform="translate(-130.774 -185.546)" fill="#e0e0e0"/>
        <path id="Trazado_638258" data-name="Trazado 638258" d="M304.236,422.448c.011,0,.172.025.46.073s.7.114,1.215.214l.052.01v.055c.006.441.014.958.023,1.538v.07l-.07.018-2.352.593.078-.068-.745,1.907-.409,1.039c-.074.181-.131.348-.221.548a1.182,1.182,0,0,1-1.754.418,1.214,1.214,0,0,1-.417-.556l-.24-.59-.989-2.444-.105-.26.086.082-2.356-.846-.1-.034v-.1q0-.606,0-1.191v-.117l.114-.021,2.182-.4-.053.238a.858.858,0,0,1-.329-.462,2.155,2.155,0,0,1-.027-.512,1,1,0,0,1,.1-.514.839.839,0,0,1,.381-.366,1,1,0,0,1,.49-.081l.436,0,.837.007,2.82.03a3.046,3.046,0,0,1,.574.034.769.769,0,0,1,.433.3.754.754,0,0,1,.139.431c0,.128-.006.246-.009.357a.635.635,0,0,1-.252.6.858.858,0,0,0,.167-.6,1.151,1.151,0,0,0-.145-.715.646.646,0,0,0-.368-.238,3.091,3.091,0,0,0-.538-.012l-2.82.03-.837.007-.436,0a.753.753,0,0,0-.384.062.623.623,0,0,0-.329.659,2.073,2.073,0,0,0,.022.441.594.594,0,0,0,.232.317l.253.18-.306.059-2.179.419.114-.138q0,.585,0,1.191l-.1-.135,2.358.842.062.022.025.061.105.26.985,2.446.237.591a.922.922,0,0,0,.32.435.908.908,0,0,0,1.346-.314c.072-.154.145-.353.216-.524l.418-1.034.771-1.9.022-.055.056-.013,2.362-.548-.068.087c.008-.58.016-1.1.023-1.538l.053.065c-.551-.127-.972-.238-1.246-.309a4.075,4.075,0,0,1-.4-.109" transform="translate(-130.661 -185.45)" fill="#263238"/>
        <path id="Trazado_638259" data-name="Trazado 638259" d="M304.919,433.017a.562.562,0,1,1-.561-.562.562.562,0,0,1,.561.562" transform="translate(-133.922 -190.639)" fill="#263238"/>
        <path id="Trazado_638260" data-name="Trazado 638260" d="M440.608,428.3a5.3,5.3,0,1,1-5.3-5.3,5.3,5.3,0,0,1,5.3,5.3" transform="translate(-189.56 -186.471)" fill="#263238"/>
        <path id="Trazado_638261" data-name="Trazado 638261" d="M439.026,421.224a.71.71,0,0,0,.2-.495v-.55a.714.714,0,0,0-.714-.714H433.5a.714.714,0,0,0-.714.714v.55a.7.7,0,0,0,.3.565l-2.3.434V423l2.518.9,1.441,3.569a1.117,1.117,0,0,0,2.073,0l1.443-3.617,2.518-.61V421.6Z" transform="translate(-189.903 -184.912)" fill="#e0e0e0"/>
        <path id="Trazado_638262" data-name="Trazado 638262" d="M438.913,421.128c.011,0,.179.026.483.078l1.284.229.052.009v.056c.007.469.014,1.022.023,1.643v.07l-.069.017-2.512.632.078-.068-.8,2.038-.437,1.111c-.08.194-.14.372-.238.585a1.247,1.247,0,0,1-.48.51,1.26,1.26,0,0,1-1.383-.075,1.294,1.294,0,0,1-.439-.592l-.256-.632-1.059-2.615-.107-.265.086.083-2.517-.9-.1-.034v-.1q0-.647,0-1.273v-.117l.114-.021,2.3-.427-.054.238a.855.855,0,0,1-.333-.507,3.776,3.776,0,0,1-.015-.54,1.1,1.1,0,0,1,.089-.547.833.833,0,0,1,.408-.391,1.131,1.131,0,0,1,.521-.072l.467,0,.9.007,3.023.031a4.483,4.483,0,0,1,.612.027.774.774,0,0,1,.6.784q-.005.2-.01.381a.852.852,0,0,1-.118.516.35.35,0,0,1-.127.132.881.881,0,0,0,.16-.648c-.025-.225.048-.531-.14-.774a.645.645,0,0,0-.4-.252,4.941,4.941,0,0,0-.583-.006l-3.023.031-.9.006-.467,0a.906.906,0,0,0-.419.056.587.587,0,0,0-.284.278.86.86,0,0,0-.059.436,4.124,4.124,0,0,0,.015.485.592.592,0,0,0,.235.347l.247.18-.3.058-2.3.442.115-.138q0,.626,0,1.273l-.1-.135,2.519.9.061.022.025.061.107.266,1.054,2.616.254.632a1,1,0,0,0,.344.473.978.978,0,0,0,1.456-.333c.078-.165.155-.377.231-.56l.447-1.107.824-2.028.022-.055.056-.013,2.524-.587-.069.087c.009-.622.017-1.174.023-1.643l.053.065c-.582-.133-1.026-.249-1.315-.322s-.436-.111-.424-.115" transform="translate(-189.79 -184.816)" fill="#263238"/>
        <path id="Trazado_638263" data-name="Trazado 638263" d="M439.613,432.407a.6.6,0,1,1-.6-.6.6.6,0,0,1,.6.6" transform="translate(-193.265 -190.353)" fill="#263238"/>
        <path id="Trazado_638264" data-name="Trazado 638264" d="M375.953,363.215a2.731,2.731,0,0,1-.461.046l-1.324.075-4.87.256c-4.113.219-9.791.566-16.061.977l-16.062,1.042-4.87.276-1.325.058a2.7,2.7,0,0,1-.463,0,2.8,2.8,0,0,1,.46-.059l1.321-.112,4.864-.369c4.108-.3,9.783-.715,16.057-1.127s11.954-.725,16.07-.892c2.058-.087,3.725-.139,4.876-.163l1.327-.021a2.785,2.785,0,0,1,.463.013" transform="translate(-145.701 -160.11)" fill="#263238"/>
        <path id="Trazado_638265" data-name="Trazado 638265" d="M257.3,158s-7.714,2.661-10.431,7.89c-1.5,2.878-5.769,19.471-5.769,19.471l-3.042,15.358L231.1,219.357s2.763,3.022,15.381,4.469a131.845,131.845,0,0,1,19.412,3.4s1.068-16.568,2.195-23.245,3.8-26.634,3.727-28.526-2.1-10.649-2.1-10.649a59.818,59.818,0,0,1-6.527-3.556A51.068,51.068,0,0,0,257.3,158" transform="translate(-101.875 -69.652)" fill="#2b95f9"/>
        <g id="Grupo_882446" data-name="Grupo 882446" transform="translate(137.617 128.243)" opacity="0.3">
          <g id="Grupo_882445" data-name="Grupo 882445">
            <g id="Grupo_882444" data-name="Grupo 882444" clip-path="url(#clip-path-32)">
              <path id="Trazado_638266" data-name="Trazado 638266" d="M246.109,229.345a31.314,31.314,0,0,0,5.647,5.423c3.5,2.609,19.362,12.557,19.362,12.557l3.987-4.23Z" transform="translate(-246.109 -229.345)"/>
            </g>
          </g>
        </g>
        <path id="Trazado_638267" data-name="Trazado 638267" d="M254.521,168.14s-9.424,27.539-8.978,30.513,15.218,9.5,24.983,14.631l4.657-5.318-16.72-12.838s9.447-21.038,10.19-24.608-2.38-8.925-4.909-9.222-9.222,6.843-9.222,6.843" transform="translate(-108.236 -71.101)" fill="#ffc09d"/>
        <path id="Trazado_638268" data-name="Trazado 638268" d="M265.3,160.555c-4.784-.459-7.9,3.41-9.875,6.956s-5.992,17.515-5.992,17.515l15.867,4.835c.412-.423,5.77-16.144,5.935-19.443s-1.151-9.4-5.935-9.863" transform="translate(-109.958 -70.761)" fill="#2b95f9"/>
        <path id="Trazado_638269" data-name="Trazado 638269" d="M265.164,160.534a.748.748,0,0,1,.163.015l.48.071a5.325,5.325,0,0,1,1.741.683,6.627,6.627,0,0,1,2.034,2.172,12.657,12.657,0,0,1,1.365,8.584c-.365,1.719-.881,3.528-1.442,5.437s-1.2,3.908-1.885,5.986c-.343,1.04-.7,2.1-1.076,3.171l-.58,1.622-.309.817a5.762,5.762,0,0,1-.388.848l-.042.068-.1-.031-7.146-2.175-8.721-2.661-.134-.041.039-.134c1.262-4.318,2.516-8.338,3.758-11.915a52.01,52.01,0,0,1,1.957-4.979,20.916,20.916,0,0,1,2.511-3.87,12.042,12.042,0,0,1,2.8-2.513,8.058,8.058,0,0,1,2.606-1.064,6.3,6.3,0,0,1,1.014-.131,4.462,4.462,0,0,1,.745-.01l.455.032a.689.689,0,0,1,.154.019,10.526,10.526,0,0,0-2.347.187,8.079,8.079,0,0,0-2.55,1.089,12.012,12.012,0,0,0-2.739,2.508,20.958,20.958,0,0,0-2.456,3.848,52.832,52.832,0,0,0-1.92,4.965c-1.223,3.576-2.464,7.6-3.717,11.913l-.1-.174,8.723,2.654,7.144,2.18-.095.085c1.613-4.34,3-8.577,4.153-12.364.569-1.9,1.093-3.707,1.466-5.411a12.581,12.581,0,0,0-1.274-8.464,6.6,6.6,0,0,0-1.962-2.162,5.558,5.558,0,0,0-1.7-.717l-.473-.1a.784.784,0,0,1-.16-.041" transform="translate(-109.82 -70.741)" fill="#263238"/>
        <path id="Trazado_638270" data-name="Trazado 638270" d="M298.626,266.392a.838.838,0,0,1-.688-.358l-3.7-5.29a.839.839,0,0,1,1.375-.961l3.7,5.291a.838.838,0,0,1-.687,1.319" transform="translate(-129.643 -114.362)" fill="#e0e0e0"/>
        <path id="Trazado_638271" data-name="Trazado 638271" d="M295.451,259.262a3.808,3.808,0,1,1-3.808-3.808,3.808,3.808,0,0,1,3.808,3.808" transform="translate(-126.886 -112.612)" fill="#455a64"/>
        <path id="Trazado_638272" data-name="Trazado 638272" d="M287.835,247.139a11.329,11.329,0,0,0,1,3.276c.612.88,1.453.459,2.37.726a1.488,1.488,0,0,1,1.262,1.223c.153.574.868,4.548,1.567,5.047a.713.713,0,0,0,1.185-.459c0-.573-.724-5.658-.724-5.658a18.367,18.367,0,0,1,1.3,3.862c.038,1.032.127,3.179,1.038,3.292.5.061.8.07.95-.807a17.84,17.84,0,0,0,.191-3.4c-.077-.688-.574-2.867-.574-2.867a16.343,16.343,0,0,1,1.377,3.365c-.039.612-.612,1.07-.229,1.529a1.184,1.184,0,0,0,1.605-.115,5.611,5.611,0,0,0,.8-2.446,28.4,28.4,0,0,0-.841-2.868,10.527,10.527,0,0,1,1.348,2.414c.115.688-.017,3.347.4,3.691s1.185.574,1.377-.344a30.677,30.677,0,0,0,.306-3.911c0-.847-2.134-4.067-2.555-4.679s-2.638-.994-3.135-1.3-4.563-2.455-4.563-2.455Z" transform="translate(-126.886 -107.673)" fill="#ffc09d"/>
        <path id="Trazado_638273" data-name="Trazado 638273" d="M299.186,170.178a1.352,1.352,0,0,1,.113.285l.278.839,1,3.159,0,.005v.005a54.1,54.1,0,0,1,.543,6.24c.015.609.023,1.237-.01,1.886q-.074.962-.15,1.969c-.117,1.34-.239,2.735-.364,4.167-.48,5.167-1.081,9.829-1.62,13.186-.264,1.679-.514,3.032-.693,3.966-.092.442-.165.8-.222,1.072a1.834,1.834,0,0,1-.1.37,1.868,1.868,0,0,1,.039-.38c.043-.277.1-.636.168-1.081l.6-3.977c.486-3.362,1.054-8.021,1.533-13.183.128-1.431.252-2.825.371-4.164q.081-1,.158-1.962c.037-.634.032-1.258.022-1.863a59.479,59.479,0,0,0-.464-6.213l0,.01-.913-3.184c-.094-.35-.171-.632-.231-.853a1.346,1.346,0,0,1-.063-.3" transform="translate(-131.349 -75.019)" fill="#263238"/>
      </g>
    </g>
  </g>
</svg>
