<svg xmlns="http://www.w3.org/2000/svg" width="304.406" height="61.017" viewBox="0 0 304.406 61.017">
  <g id="Grupo_1034550" data-name="Grupo 1034550" transform="translate(-180 -1713.145)">
    <path id="Trazado_194608" data-name="Trazado 194608" d="M0,0H304.406V36.871H0Z" transform="translate(180 1737.29)" fill="#b5ccad"/>
    <path id="Trazado_646304" data-name="Trazado 646304" d="M1.074,19V4.781h4.58a6.737,6.737,0,0,1,3.389.854,6.006,6.006,0,0,1,2.349,2.412,7.283,7.283,0,0,1,.854,3.491v.654a7.325,7.325,0,0,1-.825,3.5A6.032,6.032,0,0,1,9.1,18.116,6.589,6.589,0,0,1,5.752,19ZM4.5,7.428v8.936H5.693a2.666,2.666,0,0,0,2.266-1.05,5.145,5.145,0,0,0,.791-3.12v-.615a5.1,5.1,0,0,0-.791-3.105,2.713,2.713,0,0,0-2.3-1.045ZM18.965,19.2a5.432,5.432,0,0,1-3.936-1.45,5.008,5.008,0,0,1-1.5-3.774V13.7a6.489,6.489,0,0,1,.6-2.861,4.395,4.395,0,0,1,1.753-1.919,5.292,5.292,0,0,1,2.734-.679A4.574,4.574,0,0,1,22.129,9.62a5.43,5.43,0,0,1,1.289,3.853v1.279H16.875a2.372,2.372,0,0,0,.771,1.4,2.3,2.3,0,0,0,1.543.508,2.958,2.958,0,0,0,2.441-1.094l1.5,1.777a4.2,4.2,0,0,1-1.743,1.353A5.891,5.891,0,0,1,18.965,19.2Zm-.371-8.418q-1.445,0-1.719,1.914H20.2v-.254a1.63,1.63,0,0,0-.4-1.226A1.593,1.593,0,0,0,18.594,10.777Zm11.68,5.254a.76.76,0,0,0-.439-.674,6.685,6.685,0,0,0-1.67-.527,7.615,7.615,0,0,1-2.031-.718,3.4,3.4,0,0,1-1.221-1.079,2.577,2.577,0,0,1-.42-1.455,2.92,2.92,0,0,1,1.2-2.4,4.948,4.948,0,0,1,3.145-.942,5.482,5.482,0,0,1,3.359.947,2.962,2.962,0,0,1,1.27,2.49h-3.3q0-1.27-1.338-1.27a1.326,1.326,0,0,0-.869.288.892.892,0,0,0-.352.718.819.819,0,0,0,.43.713,4.06,4.06,0,0,0,1.372.449,11.857,11.857,0,0,1,1.655.42,3.007,3.007,0,0,1,2.383,2.939,2.767,2.767,0,0,1-1.284,2.354,5.631,5.631,0,0,1-3.325.908,5.747,5.747,0,0,1-2.422-.488,4.05,4.05,0,0,1-1.66-1.328,3.007,3.007,0,0,1-.6-1.768h3.076a1.272,1.272,0,0,0,.488,1.069,2.009,2.009,0,0,0,1.2.337,1.58,1.58,0,0,0,1.011-.273A.875.875,0,0,0,30.273,16.031ZM40.938,19a3.716,3.716,0,0,1-.312-.947A3.06,3.06,0,0,1,38.086,19.2a3.749,3.749,0,0,1-2.539-.9A2.875,2.875,0,0,1,34.5,16.021a2.955,2.955,0,0,1,1.27-2.6,6.468,6.468,0,0,1,3.691-.879h1.016v-.559q0-1.462-1.26-1.462a1.03,1.03,0,0,0-1.172,1.158H34.756a2.95,2.95,0,0,1,1.3-2.487,5.479,5.479,0,0,1,3.325-.956,4.8,4.8,0,0,1,3.193.986,3.429,3.429,0,0,1,1.2,2.705v4.678a4.79,4.79,0,0,0,.449,2.227V19Zm-2.061-2.148a1.836,1.836,0,0,0,1.021-.264,1.653,1.653,0,0,0,.581-.6V14.3h-.957q-1.719,0-1.719,1.543a.942.942,0,0,0,.3.728A1.1,1.1,0,0,0,38.877,16.852Zm13.115-5.439-1.084-.078a1.947,1.947,0,0,0-1.992.977V19H45.625V8.434h3.086l.107,1.357a2.548,2.548,0,0,1,2.314-1.553,3.209,3.209,0,0,1,.918.117Zm7.578,0-1.084-.078a1.947,1.947,0,0,0-1.992.977V19H53.2V8.434h3.086L56.4,9.791a2.548,2.548,0,0,1,2.314-1.553,3.209,3.209,0,0,1,.918.117Zm.42,2.207a6.236,6.236,0,0,1,.615-2.817,4.4,4.4,0,0,1,1.768-1.9,5.323,5.323,0,0,1,2.705-.664,4.858,4.858,0,0,1,3.74,1.47,5.64,5.64,0,0,1,1.367,4v.117a5.472,5.472,0,0,1-1.372,3.921A4.871,4.871,0,0,1,65.1,19.2a4.927,4.927,0,0,1-3.623-1.353A5.29,5.29,0,0,1,60,14.176Zm3.291.205a3.932,3.932,0,0,0,.459,2.148,1.529,1.529,0,0,0,1.357.684q1.758,0,1.8-2.705v-.332q0-2.842-1.816-2.842-1.65,0-1.787,2.451ZM75.107,19h-3.3V4h3.3Zm5.5,0H77.3V4h3.3Zm1.611-5.381a6.236,6.236,0,0,1,.615-2.817A4.4,4.4,0,0,1,84.6,8.9,5.323,5.323,0,0,1,87.3,8.238a4.858,4.858,0,0,1,3.74,1.47,5.64,5.64,0,0,1,1.367,4v.117a5.472,5.472,0,0,1-1.372,3.921,4.871,4.871,0,0,1-3.716,1.45A4.927,4.927,0,0,1,83.7,17.843a5.29,5.29,0,0,1-1.475-3.667Zm3.291.205a3.932,3.932,0,0,0,.459,2.148,1.529,1.529,0,0,0,1.357.684q1.758,0,1.8-2.705v-.332q0-2.842-1.816-2.842-1.65,0-1.787,2.451Zm12.92-.186a6.455,6.455,0,0,1,1.084-3.955,3.568,3.568,0,0,1,3.027-1.445,3.035,3.035,0,0,1,2.383,1.113V4h3.3V19h-2.959l-.166-1.133A3.116,3.116,0,0,1,102.52,19.2a3.562,3.562,0,0,1-2.988-1.445A6.659,6.659,0,0,1,98.428,13.639Zm3.291.205q0,2.813,1.641,2.813a1.62,1.62,0,0,0,1.563-.918V11.715a1.576,1.576,0,0,0-1.543-.937q-1.523,0-1.65,2.461ZM115.205,19.2a5.432,5.432,0,0,1-3.936-1.45,5.008,5.008,0,0,1-1.5-3.774V13.7a6.489,6.489,0,0,1,.6-2.861,4.395,4.395,0,0,1,1.753-1.919,5.292,5.292,0,0,1,2.734-.679,4.574,4.574,0,0,1,3.516,1.382,5.43,5.43,0,0,1,1.289,3.853v1.279h-6.543a2.372,2.372,0,0,0,.771,1.4,2.3,2.3,0,0,0,1.543.508,2.958,2.958,0,0,0,2.441-1.094l1.5,1.777a4.2,4.2,0,0,1-1.743,1.353A5.891,5.891,0,0,1,115.205,19.2Zm-.371-8.418q-1.445,0-1.719,1.914h3.32v-.254a1.63,1.63,0,0,0-.4-1.226A1.593,1.593,0,0,0,114.834,10.777Zm14.238-2.344.107,1.24A3.633,3.633,0,0,1,132.2,8.238,2.675,2.675,0,0,1,134.9,9.83a3.516,3.516,0,0,1,3.105-1.592q3.213,0,3.3,3.887V19h-3.3V12.33a2.014,2.014,0,0,0-.273-1.182,1.164,1.164,0,0,0-1-.371,1.559,1.559,0,0,0-1.455.869l.01.137V19h-3.3V12.35a2.117,2.117,0,0,0-.264-1.2,1.161,1.161,0,0,0-1.006-.371,1.578,1.578,0,0,0-1.445.869V19h-3.291V8.434ZM148.3,19.2a5.432,5.432,0,0,1-3.936-1.45,5.008,5.008,0,0,1-1.5-3.774V13.7a6.489,6.489,0,0,1,.6-2.861,4.395,4.395,0,0,1,1.753-1.919,5.292,5.292,0,0,1,2.734-.679,4.574,4.574,0,0,1,3.516,1.382,5.43,5.43,0,0,1,1.289,3.853v1.279h-6.543a2.372,2.372,0,0,0,.771,1.4,2.3,2.3,0,0,0,1.543.508,2.958,2.958,0,0,0,2.441-1.094l1.5,1.777a4.2,4.2,0,0,1-1.743,1.353A5.891,5.891,0,0,1,148.3,19.2Zm-.371-8.418q-1.445,0-1.719,1.914h3.32v-.254a1.63,1.63,0,0,0-.4-1.226A1.593,1.593,0,0,0,147.93,10.777Zm-.039-6.787h3.477l-2.715,3.066-2.686,0Zm10.02,1.816V8.434h1.738v2.285H157.91v4.834a1.234,1.234,0,0,0,.215.83,1.152,1.152,0,0,0,.85.234,4.828,4.828,0,0,0,.82-.059v2.354a6.074,6.074,0,0,1-1.855.283,3.448,3.448,0,0,1-2.51-.8,3.282,3.282,0,0,1-.811-2.432V10.719h-1.348V8.434h1.348V5.807Zm9.424,5.605-1.084-.078a1.947,1.947,0,0,0-1.992.977V19h-3.291V8.434h3.086l.107,1.357a2.548,2.548,0,0,1,2.314-1.553,3.209,3.209,0,0,1,.918.117ZM171.992,19h-3.3V8.434h3.3ZM168.5,5.7A1.482,1.482,0,0,1,169,4.54a2.149,2.149,0,0,1,2.637,0,1.482,1.482,0,0,1,.508,1.159,1.482,1.482,0,0,1-.508,1.159,2.149,2.149,0,0,1-2.637,0A1.482,1.482,0,0,1,168.5,5.7Zm9.99,10.957a1.464,1.464,0,0,0,1.074-.376,1.379,1.379,0,0,0,.371-1.05h3.086a3.653,3.653,0,0,1-1.245,2.852,4.631,4.631,0,0,1-3.208,1.113,4.689,4.689,0,0,1-3.633-1.445,5.7,5.7,0,0,1-1.328-4v-.137a6.436,6.436,0,0,1,.591-2.827A4.3,4.3,0,0,1,175.9,8.9a5.081,5.081,0,0,1,2.637-.659,4.573,4.573,0,0,1,3.271,1.143,4.053,4.053,0,0,1,1.211,3.1h-3.086a1.807,1.807,0,0,0-.4-1.26,1.382,1.382,0,0,0-1.074-.439q-1.279,0-1.494,1.631a11.507,11.507,0,0,0-.068,1.426,4.52,4.52,0,0,0,.381,2.207A1.319,1.319,0,0,0,178.486,16.656ZM190.361,19a3.716,3.716,0,0,1-.312-.947A3.06,3.06,0,0,1,187.51,19.2a3.749,3.749,0,0,1-2.539-.9,2.875,2.875,0,0,1-1.045-2.271,2.955,2.955,0,0,1,1.27-2.6,6.468,6.468,0,0,1,3.691-.879H189.9v-.559q0-1.462-1.26-1.462a1.03,1.03,0,0,0-1.172,1.158H184.18a2.95,2.95,0,0,1,1.3-2.487,5.479,5.479,0,0,1,3.325-.956A4.8,4.8,0,0,1,192,9.225a3.429,3.429,0,0,1,1.2,2.705v4.678a4.79,4.79,0,0,0,.449,2.227V19ZM188.3,16.852a1.836,1.836,0,0,0,1.021-.264,1.653,1.653,0,0,0,.581-.6V14.3h-.957q-1.719,0-1.719,1.543a.942.942,0,0,0,.3.728A1.1,1.1,0,0,0,188.3,16.852Zm12.256-.82a.76.76,0,0,0-.439-.674,6.685,6.685,0,0,0-1.67-.527,7.615,7.615,0,0,1-2.031-.718,3.4,3.4,0,0,1-1.221-1.079,2.577,2.577,0,0,1-.42-1.455,2.92,2.92,0,0,1,1.2-2.4,4.948,4.948,0,0,1,3.145-.942,5.482,5.482,0,0,1,3.359.947,2.962,2.962,0,0,1,1.27,2.49h-3.3q0-1.27-1.338-1.27a1.326,1.326,0,0,0-.869.288.892.892,0,0,0-.352.718.819.819,0,0,0,.43.713,4.06,4.06,0,0,0,1.372.449,11.857,11.857,0,0,1,1.655.42,3.007,3.007,0,0,1,2.383,2.939,2.767,2.767,0,0,1-1.284,2.354,5.632,5.632,0,0,1-3.325.908,5.747,5.747,0,0,1-2.422-.488,4.05,4.05,0,0,1-1.66-1.328,3.007,3.007,0,0,1-.6-1.768h3.076a1.272,1.272,0,0,0,.488,1.069,2.009,2.009,0,0,0,1.2.337,1.58,1.58,0,0,0,1.011-.273A.875.875,0,0,0,200.557,16.031Z" transform="translate(264.683 1742.727)" fill="#12263f"/>
    <path id="Trazado_194609" data-name="Trazado 194609" d="M0,0,78.227,36.813H0Z" transform="translate(180 1737.349)" fill="#617a0b"/>
    <g id="Grupo_883903" data-name="Grupo 883903" transform="translate(187.852 1709.225)">
      <path id="Trazado_643862" data-name="Trazado 643862" d="M9.169,9.04H61.628a4.048,4.048,0,0,1,4.048,4.048V46.319a4.048,4.048,0,0,1-4.048,4.048H9.169a4.048,4.048,0,0,1-4.048-4.048V13.088A4.048,4.048,0,0,1,9.169,9.04Z" transform="translate(-4.137 -4.136)" fill="#e2efff"/>
      <path id="Trazado_643863" data-name="Trazado 643863" d="M57.491,47.215H5.032A5.038,5.038,0,0,1,0,42.183V8.952A5.038,5.038,0,0,1,5.032,3.92H57.491a5.038,5.038,0,0,1,5.032,5.032v33.23A5.038,5.038,0,0,1,57.491,47.215ZM5.032,5.888A3.067,3.067,0,0,0,1.968,8.952v33.23a3.067,3.067,0,0,0,3.064,3.064H57.491a3.067,3.067,0,0,0,3.064-3.064V8.952a3.067,3.067,0,0,0-3.064-3.064Z" transform="translate(0 0)"/>
      <path id="Trazado_643864" data-name="Trazado 643864" d="M140.244,224.043h8.61v10.188h-8.61Z" transform="translate(-113.287 -177.812)" fill="#bfdbef"/>
      <path id="Trazado_643865" data-name="Trazado 643865" d="M144.718,231.079h-8.609a.984.984,0,0,1-.984-.984V219.906a.984.984,0,0,1,.984-.984h8.609a.984.984,0,0,1,.984.984v10.188A.984.984,0,0,1,144.718,231.079Zm-7.625-1.968h6.641v-8.22h-6.641Z" transform="translate(-109.152 -173.676)"/>
      <path id="Trazado_643866" data-name="Trazado 643866" d="M103.274,277.047H120.7a3.343,3.343,0,0,1,3.343,3.343v4.191H99.931V280.39A3.343,3.343,0,0,1,103.274,277.047Z" transform="translate(-80.723 -220.628)" fill="#e2efff"/>
      <path id="Trazado_643867" data-name="Trazado 643867" d="M119.9,281.43H95.794a.984.984,0,0,1-.984-.984v-4.191a4.332,4.332,0,0,1,4.327-4.327h17.421a4.332,4.332,0,0,1,4.327,4.327v4.191A.984.984,0,0,1,119.9,281.43Zm-23.123-1.968h22.139v-3.207a2.361,2.361,0,0,0-2.359-2.358H99.137a2.361,2.361,0,0,0-2.359,2.358Z" transform="translate(-76.586 -216.493)"/>
      <path id="Trazado_643868" data-name="Trazado 643868" d="M74.415,157.393h4.374v5.9H74.415Z" transform="translate(-60.111 -123.973)" fill="#2b95f9"/>
      <path id="Trazado_643869" data-name="Trazado 643869" d="M74.653,160.143H70.279a.984.984,0,0,1-.984-.984v-5.9a.984.984,0,0,1,.984-.984h4.374a.984.984,0,0,1,.984.984v5.9A.984.984,0,0,1,74.653,160.143Zm-3.39-1.968h2.406v-3.933H71.263Z" transform="translate(-55.976 -119.837)" fill="#282828"/>
      <path id="Trazado_643870" data-name="Trazado 643870" d="M128.38,135.062h4.374v10.194H128.38Z" transform="translate(-103.704 -105.935)" fill="#2b95f9"/>
      <path id="Trazado_643871" data-name="Trazado 643871" d="M128.618,142.1h-4.374a.984.984,0,0,1-.984-.984V130.926a.984.984,0,0,1,.984-.984h4.374a.984.984,0,0,1,.984.984V141.12A.984.984,0,0,1,128.618,142.1Zm-3.39-1.968h2.406V131.91h-2.406Z" transform="translate(-99.568 -101.799)"/>
      <path id="Trazado_643872" data-name="Trazado 643872" d="M182.345,92.725h4.374v18.332h-4.374Z" transform="translate(-147.296 -71.735)" fill="#2b95f9"/>
      <path id="Trazado_643873" data-name="Trazado 643873" d="M182.583,107.9h-4.374a.984.984,0,0,1-.984-.984V88.589a.984.984,0,0,1,.984-.984h4.374a.984.984,0,0,1,.984.984v18.331A.984.984,0,0,1,182.583,107.9Zm-3.39-1.968H181.6V89.573h-2.406Z" transform="translate(-143.159 -67.6)"/>
      <path id="Trazado_643874" data-name="Trazado 643874" d="M236.31,121.661h4.374v12.77H236.31Z" transform="translate(-190.888 -95.11)" fill="#2b95f9"/>
      <path id="Trazado_643875" data-name="Trazado 643875" d="M236.549,131.28h-4.374a.984.984,0,0,1-.984-.984V117.526a.984.984,0,0,1,.984-.984h4.374a.984.984,0,0,1,.984.984V130.3A.984.984,0,0,1,236.549,131.28Zm-3.39-1.968h2.406v-10.8h-2.406Z" transform="translate(-186.752 -90.974)"/>
      <path id="Trazado_643876" data-name="Trazado 643876" d="M83.263,69.022H36.931a.984.984,0,0,1-.984-.984V40.454a.984.984,0,0,1,1.968,0v26.6H83.262a.984.984,0,0,1,0,1.968Z" transform="translate(-29.037 -28.717)"/>
      <path id="Trazado_643877" data-name="Trazado 643877" d="M81.656,61.251a.984.984,0,0,1-.508-1.827l20.746-12.485a.981.981,0,0,1,.977-.022l10.373,5.628a.984.984,0,1,1-.939,1.73l-9.878-5.359-20.264,12.2A.98.98,0,0,1,81.656,61.251Z" transform="translate(-65.165 -34.636)"/>
      <circle id="Elipse_6999" data-name="Elipse 6999" cx="2.583" cy="2.583" r="2.583" transform="translate(34.653 10.563)" fill="#ffb338"/>
      <path id="Trazado_643878" data-name="Trazado 643878" d="M178.729,40.495a3.567,3.567,0,1,1,3.568-3.567A3.568,3.568,0,0,1,178.729,40.495Zm0-5.167a1.6,1.6,0,1,0,1.6,1.6A1.6,1.6,0,0,0,178.729,35.328Z" transform="translate(-141.493 -23.781)"/>
      <circle id="Elipse_7000" data-name="Elipse 7000" cx="2.583" cy="2.583" r="2.583" transform="translate(45.026 16.805)" fill="#ffb338"/>
      <path id="Trazado_643879" data-name="Trazado 643879" d="M232.694,72.973a3.567,3.567,0,1,1,3.568-3.567,3.568,3.568,0,0,1-3.568,3.567Zm0-5.167a1.6,1.6,0,1,0,1.6,1.6,1.6,1.6,0,0,0-1.6-1.6Z" transform="translate(-185.086 -50.017)"/>
      <circle id="Elipse_7001" data-name="Elipse 7001" cx="2.583" cy="2.583" r="2.583" transform="translate(24.28 16.805)" fill="#ffb338"/>
      <path id="Trazado_643880" data-name="Trazado 643880" d="M124.764,72.973a3.567,3.567,0,1,1,3.567-3.567A3.568,3.568,0,0,1,124.764,72.973Zm0-5.167a1.6,1.6,0,1,0,1.6,1.6A1.6,1.6,0,0,0,124.764,67.806Z" transform="translate(-97.901 -50.017)"/>
      <circle id="Elipse_7002" data-name="Elipse 7002" cx="2.583" cy="2.583" r="2.583" transform="translate(13.907 23.048)" fill="#ffb338"/>
      <path id="Trazado_643881" data-name="Trazado 643881" d="M70.8,105.45a3.567,3.567,0,1,1,3.567-3.567A3.568,3.568,0,0,1,70.8,105.45Zm0-5.167a1.6,1.6,0,1,0,1.6,1.6A1.6,1.6,0,0,0,70.8,100.283Z" transform="translate(-54.309 -76.251)"/>
    </g>
  </g>
</svg>
