<svg xmlns="http://www.w3.org/2000/svg" width="315" height="57.506" viewBox="0 0 315 57.506">
  <g id="Grupo_1034552" data-name="Grupo 1034552" transform="translate(-180 -8477.779)">
    <path id="Trazado_194608" data-name="Trazado 194608" d="M0,0H315V36.871H0Z" transform="translate(180 8498.414)" fill="#b5ccad"/>
    <path id="Trazado_646306" data-name="Trazado 646306" d="M12.236,7.428H7.969V19H4.541V7.428H.352V4.781H12.236ZM17,19H13.7V8.434H17Zm-3.5-13.3a1.482,1.482,0,0,1,.508-1.159,1.909,1.909,0,0,1,1.318-.452,1.909,1.909,0,0,1,1.318.452A1.482,1.482,0,0,1,17.158,5.7a1.482,1.482,0,0,1-.508,1.159,1.909,1.909,0,0,1-1.318.452,1.909,1.909,0,0,1-1.318-.452A1.482,1.482,0,0,1,13.506,5.7Zm15.332,8.1a6.372,6.372,0,0,1-1.108,3.931,3.554,3.554,0,0,1-2.993,1.47,3.046,3.046,0,0,1-2.393-1.064v4.932H19.053V8.434h3.076l.1.977a3.046,3.046,0,0,1,2.49-1.172,3.582,3.582,0,0,1,3.037,1.44,6.45,6.45,0,0,1,1.084,3.96Zm-3.291-.205q0-2.812-1.641-2.812a1.549,1.549,0,0,0-1.562.84v4.16a1.6,1.6,0,0,0,1.582.879q1.572,0,1.621-2.715Zm4.326.029a6.236,6.236,0,0,1,.615-2.817,4.4,4.4,0,0,1,1.768-1.9,5.323,5.323,0,0,1,2.705-.664,4.858,4.858,0,0,1,3.74,1.47,5.64,5.64,0,0,1,1.367,4v.117A5.472,5.472,0,0,1,38.7,17.745,4.871,4.871,0,0,1,34.98,19.2a4.927,4.927,0,0,1-3.623-1.353,5.29,5.29,0,0,1-1.475-3.667Zm3.291.205a3.932,3.932,0,0,0,.459,2.148,1.529,1.529,0,0,0,1.357.684q1.758,0,1.8-2.705v-.332q0-2.842-1.816-2.842-1.65,0-1.787,2.451Zm13.887,2.207a.76.76,0,0,0-.439-.674,6.685,6.685,0,0,0-1.67-.527,7.615,7.615,0,0,1-2.031-.718,3.4,3.4,0,0,1-1.221-1.079,2.577,2.577,0,0,1-.42-1.455,2.92,2.92,0,0,1,1.2-2.4,4.948,4.948,0,0,1,3.145-.942,5.482,5.482,0,0,1,3.359.947,2.962,2.962,0,0,1,1.27,2.49h-3.3q0-1.27-1.338-1.27a1.326,1.326,0,0,0-.869.288.892.892,0,0,0-.352.718.819.819,0,0,0,.43.713,4.06,4.06,0,0,0,1.372.449,11.857,11.857,0,0,1,1.655.42,3.007,3.007,0,0,1,2.383,2.939,2.767,2.767,0,0,1-1.284,2.354,5.632,5.632,0,0,1-3.325.908,5.747,5.747,0,0,1-2.422-.488,4.05,4.05,0,0,1-1.66-1.328,3.007,3.007,0,0,1-.6-1.768h3.076a1.272,1.272,0,0,0,.488,1.069,2.009,2.009,0,0,0,1.2.337,1.58,1.58,0,0,0,1.011-.273A.875.875,0,0,0,47.051,16.031Zm9.277-2.393a6.455,6.455,0,0,1,1.084-3.955,3.568,3.568,0,0,1,3.027-1.445,3.035,3.035,0,0,1,2.383,1.113V4h3.3V19H63.164L63,17.867A3.116,3.116,0,0,1,60.42,19.2a3.562,3.562,0,0,1-2.988-1.445A6.659,6.659,0,0,1,56.328,13.639Zm3.291.205q0,2.813,1.641,2.813a1.62,1.62,0,0,0,1.563-.918V11.715a1.576,1.576,0,0,0-1.543-.937q-1.523,0-1.65,2.461ZM73.105,19.2a5.432,5.432,0,0,1-3.936-1.45,5.008,5.008,0,0,1-1.5-3.774V13.7a6.489,6.489,0,0,1,.6-2.861A4.395,4.395,0,0,1,70.02,8.917a5.292,5.292,0,0,1,2.734-.679A4.574,4.574,0,0,1,76.27,9.62a5.43,5.43,0,0,1,1.289,3.853v1.279H71.016a2.372,2.372,0,0,0,.771,1.4,2.3,2.3,0,0,0,1.543.508,2.958,2.958,0,0,0,2.441-1.094l1.5,1.777a4.2,4.2,0,0,1-1.743,1.353A5.891,5.891,0,0,1,73.105,19.2Zm-.371-8.418q-1.445,0-1.719,1.914h3.32v-.254a1.63,1.63,0,0,0-.4-1.226A1.593,1.593,0,0,0,72.734,10.777Zm15.6,5.879A1.464,1.464,0,0,0,89.4,16.28a1.379,1.379,0,0,0,.371-1.05h3.086a3.653,3.653,0,0,1-1.245,2.852A4.631,4.631,0,0,1,88.408,19.2a4.689,4.689,0,0,1-3.633-1.445,5.7,5.7,0,0,1-1.328-4v-.137a6.436,6.436,0,0,1,.591-2.827,4.3,4.3,0,0,1,1.7-1.885,5.081,5.081,0,0,1,2.637-.659A4.573,4.573,0,0,1,91.65,9.381a4.053,4.053,0,0,1,1.211,3.1H89.775a1.806,1.806,0,0,0-.4-1.26,1.382,1.382,0,0,0-1.074-.439q-1.279,0-1.494,1.631a11.508,11.508,0,0,0-.068,1.426,4.52,4.52,0,0,0,.381,2.207A1.319,1.319,0,0,0,88.33,16.656Zm5.508-3.037a6.236,6.236,0,0,1,.615-2.817,4.4,4.4,0,0,1,1.768-1.9,5.323,5.323,0,0,1,2.705-.664,4.858,4.858,0,0,1,3.74,1.47,5.64,5.64,0,0,1,1.367,4v.117a5.472,5.472,0,0,1-1.372,3.921,4.871,4.871,0,0,1-3.716,1.45,4.927,4.927,0,0,1-3.623-1.353,5.29,5.29,0,0,1-1.475-3.667Zm3.291.205a3.932,3.932,0,0,0,.459,2.148,1.529,1.529,0,0,0,1.357.684q1.758,0,1.8-2.705v-.332q0-2.842-1.816-2.842-1.65,0-1.787,2.451Zm11.377-5.391.107,1.24a3.583,3.583,0,0,1,3.018-1.436,3.015,3.015,0,0,1,2.466.986,4.7,4.7,0,0,1,.845,2.969V19h-3.3V12.33a1.783,1.783,0,0,0-.322-1.177,1.491,1.491,0,0,0-1.172-.376,1.569,1.569,0,0,0-1.436.762V19H105.42V8.434Zm12.471,6.65,1.67-6.65h3.467L122.666,19h-3.359L115.859,8.434h3.477Zm11.1,4.111a5.432,5.432,0,0,1-3.936-1.45,5.008,5.008,0,0,1-1.5-3.774V13.7a6.489,6.489,0,0,1,.6-2.861,4.395,4.395,0,0,1,1.753-1.919,5.292,5.292,0,0,1,2.734-.679,4.574,4.574,0,0,1,3.516,1.382,5.43,5.43,0,0,1,1.289,3.853v1.279H129.99a2.372,2.372,0,0,0,.771,1.4,2.3,2.3,0,0,0,1.543.508,2.958,2.958,0,0,0,2.441-1.094l1.5,1.777a4.2,4.2,0,0,1-1.743,1.353A5.891,5.891,0,0,1,132.08,19.2Zm-.371-8.418q-1.445,0-1.719,1.914h3.32v-.254a1.63,1.63,0,0,0-.4-1.226A1.593,1.593,0,0,0,131.709,10.777Zm12.539.635-1.084-.078a1.947,1.947,0,0,0-1.992.977V19h-3.291V8.434h3.086l.107,1.357a2.548,2.548,0,0,1,2.314-1.553,3.209,3.209,0,0,1,.918.117Zm6.719,4.619a.76.76,0,0,0-.439-.674,6.685,6.685,0,0,0-1.67-.527,7.615,7.615,0,0,1-2.031-.718,3.4,3.4,0,0,1-1.221-1.079,2.577,2.577,0,0,1-.42-1.455,2.92,2.92,0,0,1,1.2-2.4,4.948,4.948,0,0,1,3.145-.942,5.482,5.482,0,0,1,3.359.947,2.962,2.962,0,0,1,1.27,2.49h-3.3q0-1.27-1.338-1.27a1.326,1.326,0,0,0-.869.288.892.892,0,0,0-.352.718.819.819,0,0,0,.43.713,4.06,4.06,0,0,0,1.372.449,11.857,11.857,0,0,1,1.655.42,3.007,3.007,0,0,1,2.383,2.939,2.767,2.767,0,0,1-1.284,2.354,5.632,5.632,0,0,1-3.325.908,5.747,5.747,0,0,1-2.422-.488,4.05,4.05,0,0,1-1.66-1.328,3.007,3.007,0,0,1-.6-1.768h3.076a1.272,1.272,0,0,0,.488,1.069,2.009,2.009,0,0,0,1.2.337,1.58,1.58,0,0,0,1.011-.273A.875.875,0,0,0,150.967,16.031ZM159.15,19h-3.3V8.434h3.3Zm-3.5-13.3a1.482,1.482,0,0,1,.508-1.159,2.149,2.149,0,0,1,2.637,0,1.482,1.482,0,0,1,.508,1.159,1.482,1.482,0,0,1-.508,1.159,2.149,2.149,0,0,1-2.637,0A1.482,1.482,0,0,1,155.654,5.7Zm5.107,7.92a6.236,6.236,0,0,1,.615-2.817,4.4,4.4,0,0,1,1.768-1.9,5.323,5.323,0,0,1,2.705-.664,4.858,4.858,0,0,1,3.74,1.47,5.64,5.64,0,0,1,1.367,4v.117a5.472,5.472,0,0,1-1.372,3.921,4.871,4.871,0,0,1-3.716,1.45,4.927,4.927,0,0,1-3.623-1.353,5.29,5.29,0,0,1-1.475-3.667Zm3.291.205a3.932,3.932,0,0,0,.459,2.148,1.529,1.529,0,0,0,1.357.684q1.758,0,1.8-2.705v-.332q0-2.842-1.816-2.842-1.65,0-1.787,2.451ZM175.43,8.434l.107,1.24a3.583,3.583,0,0,1,3.018-1.436,3.015,3.015,0,0,1,2.466.986,4.7,4.7,0,0,1,.845,2.969V19h-3.3V12.33a1.783,1.783,0,0,0-.322-1.177,1.491,1.491,0,0,0-1.172-.376,1.569,1.569,0,0,0-1.436.762V19h-3.291V8.434ZM188.8,19.2a5.432,5.432,0,0,1-3.936-1.45,5.008,5.008,0,0,1-1.5-3.774V13.7a6.489,6.489,0,0,1,.6-2.861,4.395,4.395,0,0,1,1.753-1.919,5.292,5.292,0,0,1,2.734-.679,4.574,4.574,0,0,1,3.516,1.382,5.43,5.43,0,0,1,1.289,3.853v1.279h-6.543a2.372,2.372,0,0,0,.771,1.4,2.3,2.3,0,0,0,1.543.508,2.958,2.958,0,0,0,2.441-1.094l1.5,1.777a4.2,4.2,0,0,1-1.743,1.353A5.891,5.891,0,0,1,188.8,19.2Zm-.371-8.418q-1.445,0-1.719,1.914h3.32v-.254a1.63,1.63,0,0,0-.4-1.226A1.593,1.593,0,0,0,188.428,10.777Zm11.68,5.254a.76.76,0,0,0-.439-.674A6.685,6.685,0,0,0,198,14.83a7.615,7.615,0,0,1-2.031-.718,3.4,3.4,0,0,1-1.221-1.079,2.577,2.577,0,0,1-.42-1.455,2.92,2.92,0,0,1,1.2-2.4,4.948,4.948,0,0,1,3.145-.942,5.482,5.482,0,0,1,3.359.947,2.962,2.962,0,0,1,1.27,2.49H200q0-1.27-1.338-1.27a1.326,1.326,0,0,0-.869.288.892.892,0,0,0-.352.718.819.819,0,0,0,.43.713,4.06,4.06,0,0,0,1.372.449,11.857,11.857,0,0,1,1.655.42,3.007,3.007,0,0,1,2.383,2.939A2.767,2.767,0,0,1,202,18.287a5.632,5.632,0,0,1-3.325.908,5.747,5.747,0,0,1-2.422-.488,4.05,4.05,0,0,1-1.66-1.328,3.007,3.007,0,0,1-.6-1.768h3.076a1.272,1.272,0,0,0,.488,1.069,2.009,2.009,0,0,0,1.2.337,1.58,1.58,0,0,0,1.011-.273A.875.875,0,0,0,200.107,16.031Z" transform="translate(264.683 8503.85)" fill="#12263f"/>
    <path id="Trazado_194609" data-name="Trazado 194609" d="M0,0,78.227,36.813H0Z" transform="translate(180 8498.473)" fill="#617a0b"/>
    <g id="Grupo_883945" data-name="Grupo 883945" transform="translate(190.306 8477.289)">
      <g id="Grupo_883943" data-name="Grupo 883943" transform="translate(0.843 1.252)">
        <path id="Trazado_643915" data-name="Trazado 643915" d="M232.454,438.42l-7.03-4.107v-4.154h7.03Z" transform="translate(-200.934 -382.636)" fill="#d9ddff"/>
        <g id="Grupo_883942" data-name="Grupo 883942" transform="translate(0 0)">
          <g id="Grupo_883934" data-name="Grupo 883934" transform="translate(45.279 6.396)">
            <path id="Trazado_643916" data-name="Trazado 643916" d="M421.067,64.181H410.418v13.8h6.656l3.994-4.076Z" transform="translate(-410.418 -64.181)" fill="#ffb338"/>
            <path id="Trazado_643917" data-name="Trazado 643917" d="M469.643,154.755v-4.076h3.994Z" transform="translate(-462.987 -140.959)" fill="#ffd54d"/>
          </g>
          <path id="Trazado_643918" data-name="Trazado 643918" d="M262.312,15.49l-.044-1.689-1.93-.755-1.252,1.269a6.389,6.389,0,0,0-1.369.045l-1.307-1.234-1.907.834.007,1.8a6.441,6.441,0,0,0-.966.976l-1.777.056L251,18.729l1.2,1.183a6.12,6.12,0,0,0,0,1.535l-1.143,1.21.823,1.9,1.66-.016a6.068,6.068,0,0,0,1.115,1.048l.044,1.689,1.93.755,1.252-1.269a6.389,6.389,0,0,0,1.369-.045l1.307,1.234,1.907-.834-.007-1.8a6.44,6.44,0,0,0,.966-.976l1.777-.056.766-1.935-1.2-1.183a6.113,6.113,0,0,0,0-1.534l1.143-1.21-.823-1.9-1.66.016A6.055,6.055,0,0,0,262.312,15.49Zm-1.143,3.831a2.848,2.848,0,1,1-3.735-1.462A2.855,2.855,0,0,1,261.169,19.321Z" transform="translate(-223.636 -12.397)" fill="#d9ddff"/>
          <g id="Grupo_883936" data-name="Grupo 883936" transform="translate(19.104 10.307)">
            <ellipse id="Elipse_7005" data-name="Elipse 7005" cx="7.19" cy="7.191" rx="7.19" ry="7.191" fill="#038a7b"/>
            <g id="Grupo_883935" data-name="Grupo 883935" transform="translate(2.1 3.977)">
              <path id="Trazado_643919" data-name="Trazado 643919" d="M201.275,144.785a7.167,7.167,0,0,0,5.109-2.132,5.4,5.4,0,0,0-3.233-3.339,2.823,2.823,0,1,0-3.751,0,5.4,5.4,0,0,0-3.208,3.267.122.122,0,0,0,.029.126A7.167,7.167,0,0,0,201.275,144.785Z" transform="translate(-196.184 -134.38)" fill="#fff"/>
            </g>
          </g>
          <path id="Trazado_643920" data-name="Trazado 643920" d="M70.01,215.563H20.922a2.384,2.384,0,0,1-2.384-2.384h0a2.384,2.384,0,0,1,2.384-2.384H70.01a2.384,2.384,0,0,1,2.384,2.384h0A2.384,2.384,0,0,1,70.01,215.563Z" transform="translate(-17.298 -187.922)" fill="#d9ddff"/>
          <path id="Trazado_643921" data-name="Trazado 643921" d="M441.058,210.794h-4.5a2.384,2.384,0,0,1,2.384,2.384h0a2.384,2.384,0,0,1-2.384,2.384h4.5a2.384,2.384,0,0,0,2.384-2.384h0A2.384,2.384,0,0,0,441.058,210.794Z" transform="translate(-388.346 -187.922)" fill="#c7cdff"/>
          <path id="Trazado_643922" data-name="Trazado 643922" d="M80.139,273.115H73.006l-19.3-19.883H99.66Z" transform="translate(-48.516 -225.591)" fill="#2b95f9"/>
          <path id="Trazado_643923" data-name="Trazado 643923" d="M268.42,253.232,248.9,273.115h4.5l19.521-19.883Z" transform="translate(-221.771 -225.591)" fill="#065caf"/>
          <g id="Grupo_883939" data-name="Grupo 883939">
            <path id="Trazado_643924" data-name="Trazado 643924" d="M7.5,93.154V97.2a2,2,0,0,0,2,2h2.826l3.279,2.441V99.2h2.369a2,2,0,0,0,2-2V93.154a2,2,0,0,0-2-2H9.5a2,2,0,0,0-2,2Z" transform="translate(-7.5 -81.728)" fill="#ffb338"/>
            <g id="Grupo_883938" data-name="Grupo 883938" transform="translate(8.071)">
              <g id="Grupo_883937" data-name="Grupo 883937">
                <ellipse id="Elipse_7006" data-name="Elipse 7006" cx="6.198" cy="6.211" rx="6.198" ry="6.211" transform="translate(0 0.161) rotate(-0.745)" fill="#ffecbe"/>
              </g>
            </g>
          </g>
          <g id="Grupo_883941" data-name="Grupo 883941" transform="translate(28.646 38.57)">
            <path id="Trazado_643925" data-name="Trazado 643925" d="M264.506,414.506a2.1,2.1,0,0,1-2.1-2.1v-7.221a2.1,2.1,0,1,1,4.2,0v7.221A2.1,2.1,0,0,1,264.506,414.506Z" transform="translate(-262.407 -397.175)" fill="#fd4c1b"/>
            <path id="Trazado_643926" data-name="Trazado 643926" d="M313.015,358.382l.006-.025a1.394,1.394,0,0,0-1.356-1.74l-1.061,0-5.026,0V351.7a1.249,1.249,0,0,0-2.324-.6l-3.609,7.379v7.251l1.011.923a4.444,4.444,0,0,0,3,1.161c2.206,0,4.18-.009,5.86,0a1.394,1.394,0,0,0,1.356-1.048l0-.016,2.142-8.366Z" transform="translate(-295.46 -350.486)" fill="#ffb338"/>
            <g id="Grupo_883940" data-name="Grupo 883940" transform="translate(7.984 6.13)">
              <path id="Trazado_643927" data-name="Trazado 643927" d="M341.673,405.039l-1.061,0-3.3,0a1.4,1.4,0,0,1,1.226,1.735l-.006.025-2.142,8.366,0,.016a1.394,1.394,0,0,1-1.356,1.048q-.749,0-1.574,0,.1,0,.209,0c2.206,0,4.18-.009,5.86,0a1.394,1.394,0,0,0,1.356-1.048l0-.016,2.142-8.366.006-.025A1.4,1.4,0,0,0,341.673,405.039Z" transform="translate(-333.452 -405.039)" fill="#f9d9a2"/>
            </g>
          </g>
        </g>
      </g>
      <g id="Grupo_883944" data-name="Grupo 883944" transform="translate(0 0.49)">
        <path id="Trazado_643928" data-name="Trazado 643928" d="M415.253,57.524a.843.843,0,0,0-.843-.843H403.761a.843.843,0,0,0-.843.843v2.814a.843.843,0,0,0,1.686,0V58.367h8.964V66.4h-3.151a.843.843,0,0,0-.843.843v3.233H404.6V64.828a.843.843,0,0,0-1.686,0V71.32a.843.843,0,0,0,.843.843h6.656a.846.846,0,0,0,.6-.253l3.994-4.076a.85.85,0,0,0,.241-.59Zm-3.994,10.563H412.4l-1.145,1.169Z" transform="translate(-357.639 -50.366)"/>
        <path id="Trazado_643929" data-name="Trazado 643929" d="M287.806,53.349a3.682,3.682,0,1,0-2.02-1.954A3.674,3.674,0,0,0,287.806,53.349Zm.574-5.26a1.986,1.986,0,0,1,1.534-.03A1.964,1.964,0,0,1,291,49.113a2.014,2.014,0,0,1-1.047,2.637,1.987,1.987,0,0,1-1.534.03,1.964,1.964,0,0,1-1.09-1.055A2.014,2.014,0,0,1,288.38,48.089Z" transform="translate(-253.402 -41.092)"/>
        <path id="Trazado_643930" data-name="Trazado 643930" d="M63.353,27.767H43.571a8.053,8.053,0,0,0,1.193-6.335l.46-.466a7.282,7.282,0,0,0,.738-.024l1.023.966a.848.848,0,0,0,.916.159l1.907-.834a.843.843,0,0,0,.505-.775l-.005-1.415a7.293,7.293,0,0,0,.523-.529l1.4-.044a.843.843,0,0,0,.757-.532L53.756,16a.843.843,0,0,0-.191-.91l-.915-.9a6.944,6.944,0,0,0,0-.915l.88-.931a.842.842,0,0,0,.161-.913l-.823-1.9a.835.835,0,0,0-.781-.508l-1.274.012a6.915,6.915,0,0,0-.661-.622L50.114,7.12a.843.843,0,0,0-.535-.763L47.649,5.6a.843.843,0,0,0-.907.193l-.989,1a7.247,7.247,0,0,0-.738.024l-1.023-.966a.842.842,0,0,0-.916-.159l-1.907.834a.843.843,0,0,0-.505.775l.005,1.415a7.287,7.287,0,0,0-.523.529l-1.4.044a.843.843,0,0,0-.757.532l-.766,1.934a.843.843,0,0,0,.191.91l.915.9a6.964,6.964,0,0,0,0,.915l-.7.744q-.342-.029-.692-.03A8.036,8.036,0,0,0,30.3,27.766H14.265a3.227,3.227,0,0,0,0,6.455h1.212l9.292,9.574a.843.843,0,0,0,1.21-1.174l-8.152-8.4h41.95l-9.918,10.1a2.12,2.12,0,0,0-3.535.23l-2.807,5.739a2.969,2.969,0,0,0-5.073,2.127H35.487l-6.364-6.557a.843.843,0,0,0-1.21,1.174L34.287,53.6v3.812a.843.843,0,0,0,.418.728l3.868,2.26a2.977,2.977,0,0,0,5.319.677,5.4,5.4,0,0,0,3.587,1.4c1.952,0,3.9-.01,5.857,0a2.321,2.321,0,0,0,2.18-1.7l2.142-8.366A2.258,2.258,0,0,0,55.5,49.6c-1.75.006-3.5.005-5.25.006V46.333l.013-.013,11.879-12.1h1.214a3.227,3.227,0,0,0,0-6.455ZM35.973,54.1h2.47v4.27l-2.47-1.443ZM41.386,60.8a1.258,1.258,0,0,1-1.257-1.257V52.318a1.25,1.25,0,0,1,2.5-.017v7.251A1.245,1.245,0,0,1,41.386,60.8ZM55.5,51.281c.423,0,.581.36.528.713l-2.142,8.367a.553.553,0,0,1-.54.43c-1.023,0-5,0-5.863,0a4.516,4.516,0,0,1-3.151-1.6V52.468l3.5-7.148a.408.408,0,0,1,.737.2v4.921a.843.843,0,0,0,.843.843l6.093-.006ZM35.62,24.326a1.981,1.981,0,1,1,2.631,0,.854.854,0,0,0,.267,1.42,4.593,4.593,0,0,1,2.37,2.021H32.98a4.531,4.531,0,0,1,2.373-2.021.854.854,0,0,0,.267-1.42Zm4.422-9.646a5.282,5.282,0,0,1,0-1.323.843.843,0,0,0-.244-.7l-.8-.792.357-.9,1.224-.039a.843.843,0,0,0,.632-.317,5.593,5.593,0,0,1,.84-.848.843.843,0,0,0,.311-.657l0-1.249.889-.389.9.851a.843.843,0,0,0,.7.222A5.561,5.561,0,0,1,46.027,8.5a.842.842,0,0,0,.662-.248l.862-.874.892.349.029,1.129a.843.843,0,0,0,.347.66,5.219,5.219,0,0,1,.96.9.846.846,0,0,0,.658.306l1.1-.01.38.879-.761.806a.843.843,0,0,0-.223.686,5.275,5.275,0,0,1,0,1.323.843.843,0,0,0,.244.7l.8.792-.357.9-1.224.039a.843.843,0,0,0-.632.317,5.606,5.606,0,0,1-.84.848.843.843,0,0,0-.311.657l0,1.249-.889.389-.9-.851a.844.844,0,0,0-.7-.222,5.547,5.547,0,0,1-1.188.039,1.05,1.05,0,0,0-.816.4,8.077,8.077,0,0,0-4.575-4.029,1.234,1.234,0,0,0,.483-.961Zm-3.107,2.207a6.351,6.351,0,0,1,5.3,9.842,6.184,6.184,0,0,0-2.111-2.077,3.668,3.668,0,0,0-2.959-5.467,3.665,3.665,0,0,0-3.421,5.466,6.2,6.2,0,0,0-2.112,2.078,6.35,6.35,0,0,1,5.3-9.843ZM63.353,32.536H14.265a1.542,1.542,0,0,1,0-3.083H63.353a1.542,1.542,0,0,1,0,3.083Z" transform="translate(-9.798 -4.976)"/>
        <path id="Trazado_643931" data-name="Trazado 643931" d="M5.388,19.562l3.055,2.274a.849.849,0,0,0,1.346-.676v-1.6h1.526a2.845,2.845,0,0,0,2.842-2.842v-2.2a7.164,7.164,0,0,0,1.125.074A7.054,7.054,0,0,0,15.192.49H15.1A7.066,7.066,0,0,0,8.528,9.836H2.842A2.845,2.845,0,0,0,0,12.678V16.72a2.845,2.845,0,0,0,2.842,2.842ZM15.121,2.176h.07a5.369,5.369,0,1,1-1.564,10.507.836.836,0,0,0-.118-.037,5.336,5.336,0,0,1-2.056-1.256,5.4,5.4,0,0,1-.863-1.092.817.817,0,0,0-.05-.085,5.375,5.375,0,0,1,4.58-8.036ZM1.686,16.72V12.678a1.158,1.158,0,0,1,1.156-1.156H9.374a7.12,7.12,0,0,0,.9,1.074,7.034,7.034,0,0,0,2.195,1.459V16.72a1.158,1.158,0,0,1-1.156,1.156H8.946a.843.843,0,0,0-.843.843v.763L6.171,18.043a.843.843,0,0,0-.5-.167H2.842A1.157,1.157,0,0,1,1.686,16.72Z" transform="translate(0 -0.49)"/>
        <path id="Trazado_643932" data-name="Trazado 643932" d="M110.679,75.883h.054A4.04,4.04,0,0,0,113.6,74.65a.843.843,0,0,0-1.209-1.175,2.377,2.377,0,0,1-3.37.044.843.843,0,0,0-1.178,1.206A4.039,4.039,0,0,0,110.679,75.883Z" transform="translate(-95.493 -65.045)"/>
        <path id="Trazado_643933" data-name="Trazado 643933" d="M110.459,45.4a.843.843,0,0,0,0-1.686A.843.843,0,0,0,110.459,45.4Z" transform="translate(-97.323 -38.859)"/>
        <path id="Trazado_643934" data-name="Trazado 643934" d="M146.71,44.934a.843.843,0,0,0,0-1.686A.843.843,0,0,0,146.71,44.934Z" transform="translate(-129.501 -38.443)"/>
      </g>
    </g>
  </g>
</svg>
