<svg xmlns="http://www.w3.org/2000/svg" xmlns:xlink="http://www.w3.org/1999/xlink" width="150" height="150" viewBox="0 0 150 150">
  <defs>
    <filter id="Elipse_6977" x="0" y="0" width="150" height="150" filterUnits="userSpaceOnUse">
      <feOffset dy="3" input="SourceAlpha"/>
      <feGaussianBlur stdDeviation="3" result="blur"/>
      <feFlood flood-opacity="0.161"/>
      <feComposite operator="in" in2="blur"/>
      <feComposite in="SourceGraphic"/>
    </filter>
  </defs>
  <g id="Grupo_1034492" data-name="Grupo 1034492" transform="translate(-372.07 -3213.818)">
    <g transform="matrix(1, 0, 0, 1, 372.07, 3213.82)" filter="url(#Elipse_6977)">
      <circle id="Elipse_6977-2" data-name="Elipse 6977" cx="66" cy="66" r="66" transform="translate(9 6)" fill="#b6e1fd"/>
    </g>
    <g id="Layer_12_x2C__web_x2C__globe_x2C__location" transform="translate(409.241 3249.197)">
      <g id="Grupo_883417" data-name="Grupo 883417" transform="translate(0 0)">
        <path id="Trazado_642455" data-name="Trazado 642455" d="M54.934,280H40.07a32.155,32.155,0,0,0,7.765,20.163,42.212,42.212,0,0,1,9.542-3.538A59.866,59.866,0,0,1,54.934,280Z" transform="translate(-33.449 -233.736)" fill="#12263f"/>
        <path id="Trazado_642456" data-name="Trazado 642456" d="M162.7,106.307a29.644,29.644,0,0,0-4.953,9.22,61.2,61.2,0,0,0,11.2,1.284,118.732,118.732,0,0,1-6.248-10.5Z" transform="translate(-131.678 -88.742)" fill="#12263f"/>
        <path id="Trazado_642457" data-name="Trazado 642457" d="M140.043,187.941h14.864V173.065a62.45,62.45,0,0,1-12.46-1.366A58.288,58.288,0,0,0,140.043,187.941Z" transform="translate(-116.904 -143.329)" fill="#12263f"/>
        <path id="Trazado_642458" data-name="Trazado 642458" d="M142.434,296.251a63.034,63.034,0,0,1,12.463-1.375V280H140.031A58.075,58.075,0,0,0,142.434,296.251Z" transform="translate(-116.894 -233.736)" fill="#12263f"/>
        <path id="Trazado_642459" data-name="Trazado 642459" d="M104.886,394.854a39.238,39.238,0,0,1-1.966-4.711,41.585,41.585,0,0,0-8.609,3.078l-.11.055-.188.1a32.289,32.289,0,0,0,16.952,9.33A22.037,22.037,0,0,1,104.886,394.854Z" transform="translate(-78.479 -325.68)" fill="#12263f"/>
        <path id="Trazado_642460" data-name="Trazado 642460" d="M159.538,385.676c2.772,5.544,6.339,8.765,10.119,9.176V380.033a61.478,61.478,0,0,0-11.944,1.3A37.468,37.468,0,0,0,159.538,385.676Z" transform="translate(-131.654 -317.24)" fill="#12263f"/>
        <path id="Trazado_642461" data-name="Trazado 642461" d="M240,173.065v14.876h14.864a58.294,58.294,0,0,0-2.4-16.242A62.466,62.466,0,0,1,240,173.065Z" transform="translate(-200.345 -143.329)" fill="#12263f"/>
        <path id="Trazado_642462" data-name="Trazado 642462" d="M287.3,89.053c-.061.133-.122.265-.185.4l-.036.078a30.557,30.557,0,0,1,5.78,10.457,41.565,41.565,0,0,0,8.62-3.083l.081-.041.208-.107a32.132,32.132,0,0,0-14.06-8.62c-.031.072-.065.148-.1.221-.059.134-.117.269-.179.406C287.391,88.86,287.346,88.957,287.3,89.053Z" transform="translate(-239.646 -73.575)" fill="#12263f"/>
        <path id="Trazado_642463" data-name="Trazado 642463" d="M14.871,7.435A7.435,7.435,0,0,0,0,7.435c0,3.181,4.949,8.252,7.435,10.47,2.486-2.219,7.436-7.293,7.436-10.47Zm-9.088,0A1.652,1.652,0,1,1,7.435,9.088,1.652,1.652,0,0,1,5.783,7.435Z" transform="translate(0 0)" fill="#12263f"/>
        <path id="Trazado_642464" data-name="Trazado 642464" d="M250.721,106.307a118.68,118.68,0,0,1-6.246,10.5q.528-.013,1.06-.031a60.723,60.723,0,0,0,10.14-1.251A29.64,29.64,0,0,0,250.721,106.307Z" transform="translate(-204.08 -88.742)" fill="#12263f"/>
        <path id="Trazado_642465" data-name="Trazado 642465" d="M94.3,96.905a41.573,41.573,0,0,0,8.62,3.083,30.552,30.552,0,0,1,5.78-10.457l-.038-.082c-.062-.133-.122-.263-.182-.393-.045-.1-.091-.2-.134-.292-.062-.137-.12-.271-.179-.406-.032-.073-.067-.149-.1-.221a32.133,32.133,0,0,0-14.06,8.62l.208.107Z" transform="translate(-78.478 -73.574)" fill="#12263f"/>
        <path id="Trazado_642466" data-name="Trazado 642466" d="M240,294.876a63.021,63.021,0,0,1,12.463,1.375,58.075,58.075,0,0,0,2.4-16.251H240Z" transform="translate(-200.345 -233.736)" fill="#12263f"/>
        <path id="Trazado_642467" data-name="Trazado 642467" d="M40.07,168.134H54.937a60.044,60.044,0,0,1,2.444-16.617,41.915,41.915,0,0,1-9.546-3.546A32.153,32.153,0,0,0,40.07,168.134Z" transform="translate(-33.449 -123.522)" fill="#12263f"/>
        <path id="Trazado_642468" data-name="Trazado 642468" d="M325.163,151.517a60.041,60.041,0,0,1,2.444,16.617h14.867a32.154,32.154,0,0,0-7.765-20.163A41.9,41.9,0,0,1,325.163,151.517Z" transform="translate(-271.436 -123.522)" fill="#12263f"/>
        <path id="Trazado_642469" data-name="Trazado 642469" d="M222.478,40a2.478,2.478,0,1,0,2.478,2.478A2.481,2.481,0,0,0,222.478,40Z" transform="translate(-183.649 -33.391)" fill="#12263f"/>
        <path id="Trazado_642470" data-name="Trazado 642470" d="M387.435,0A7.444,7.444,0,0,0,380,7.435c0,3.181,4.949,8.252,7.435,10.47,2.486-2.219,7.436-7.293,7.436-10.47A7.444,7.444,0,0,0,387.435,0Zm0,9.088a1.652,1.652,0,1,1,1.652-1.652A1.652,1.652,0,0,1,387.435,9.088Z" transform="translate(-317.212 0)" fill="#12263f"/>
        <path id="Trazado_642471" data-name="Trazado 642471" d="M325.184,296.625a42.211,42.211,0,0,1,9.542,3.538A32.155,32.155,0,0,0,342.491,280H327.627A59.878,59.878,0,0,1,325.184,296.625Z" transform="translate(-271.454 -233.736)" fill="#12263f"/>
        <path id="Trazado_642472" data-name="Trazado 642472" d="M250.118,385.677a37.443,37.443,0,0,0,1.825-4.344,61.477,61.477,0,0,0-11.944-1.3v14.819c3.78-.411,7.346-3.632,10.119-9.176Z" transform="translate(-200.344 -317.241)" fill="#12263f"/>
        <path id="Trazado_642473" data-name="Trazado 642473" d="M195.962,15.746c.323-.664.615-1.3.872-1.9q.128-.3.245-.588a12.279,12.279,0,0,0,1.1-4.169,9.088,9.088,0,1,0-18.175,0,12.286,12.286,0,0,0,1.1,4.169c.31.766.686,1.6,1.117,2.49a111.769,111.769,0,0,0,6.874,11.692,111.845,111.845,0,0,0,6.874-11.691Zm-6.874-2.528a4.131,4.131,0,1,1,4.131-4.131A4.135,4.135,0,0,1,189.088,13.218Z" transform="translate(-150.259 0)" fill="#12263f"/>
        <path id="Trazado_642474" data-name="Trazado 642474" d="M290.049,393.223a41.586,41.586,0,0,0-8.612-3.08,39.236,39.236,0,0,1-1.966,4.711,22.035,22.035,0,0,1-6.079,7.849,32.29,32.29,0,0,0,16.952-9.33l-.192-.1Z" transform="translate(-228.219 -325.68)" fill="#12263f"/>
      </g>
    </g>
  </g>
</svg>
