<svg xmlns="http://www.w3.org/2000/svg" xmlns:xlink="http://www.w3.org/1999/xlink" width="441.635" height="345.942" viewBox="0 0 441.635 345.942">
  <defs>
    <clipPath id="clip-path">
      <rect id="Rectángulo_330780" data-name="Rectángulo 330780" width="441.635" height="345.942" fill="none"/>
    </clipPath>
    <clipPath id="clip-path-3">
      <rect id="Rectángulo_330769" data-name="Rectángulo 330769" width="13.811" height="54.894" fill="none"/>
    </clipPath>
    <clipPath id="clip-path-4">
      <rect id="Rectángulo_330770" data-name="Rectángulo 330770" width="12.493" height="69.146" fill="none"/>
    </clipPath>
    <clipPath id="clip-path-5">
      <rect id="Rectángulo_330771" data-name="Rectángulo 330771" width="40.118" height="21.996" fill="none"/>
    </clipPath>
    <clipPath id="clip-path-9">
      <rect id="Rectángulo_330777" data-name="Rectángulo 330777" width="55.357" height="11.337" fill="none"/>
    </clipPath>
    <clipPath id="clip-path-10">
      <rect id="Rectángulo_330778" data-name="Rectángulo 330778" width="15.718" height="52.667" fill="none"/>
    </clipPath>
  </defs>
  <g id="Grupo_882828" data-name="Grupo 882828" clip-path="url(#clip-path)">
    <path id="Trazado_639977" data-name="Trazado 639977" d="M21.135,323.842v43.272H154.21V323.842Z" transform="translate(-1.389 -21.287)" fill="#f5f5f5"/>
    <path id="Trazado_639978" data-name="Trazado 639978" d="M15.158,310.893v12.1H158.469v-12.1H15.158Z" transform="translate(-0.996 -20.435)" fill="#e0e0e0"/>
    <path id="Trazado_639979" data-name="Trazado 639979" d="M88.867,310.893v10.979l2.793,44.392h67V322.991h4.654v-12.1Z" transform="translate(-5.841 -20.435)" fill="#e0e0e0"/>
    <rect id="Rectángulo_330767" data-name="Rectángulo 330767" width="26.987" height="6.514" transform="translate(38.357 309.533)" fill="#e0e0e0"/>
    <rect id="Rectángulo_330768" data-name="Rectángulo 330768" width="34.653" height="13.754" transform="translate(34.885 324.191)" fill="#fff"/>
    <g id="Grupo_882812" data-name="Grupo 882812">
      <g id="Grupo_882811" data-name="Grupo 882811" clip-path="url(#clip-path)">
        <path id="Trazado_639980" data-name="Trazado 639980" d="M239.253,234.5s-2.184-9.5-10.994-9.019-10.949.476-14.759,0-9.7-5.058-11.371-3.63-.735,4.525,2.36,7.278,8.41,4.626,8.41,4.626l-11.262,1.936s-10.143-5.413-12.525-4.46a3.692,3.692,0,0,0-2.192,3.588s-4.209-1.893-5.4-.225-1.481,2.779-.291,3.731c0,0-.781-.772-2.968-.127-1.869.552-1.71,4,0,4.925l.577.332s15.953,9.19,16.44,9.255c2.818.374,20.013-.358,28.865-.769a9.052,9.052,0,0,1,8.08,4.219l14.259,22.6,16.1-18.542Z" transform="translate(-11.629 -14.564)" fill="#b78876"/>
        <path id="Trazado_639981" data-name="Trazado 639981" d="M210.9,240.566a17.488,17.488,0,0,1-2.607.576c-1.647.312-3.972.725-6.674,1.185l-.069.011-.067-.031-3.6-1.652-8.6-3.984-2.6-1.238a4.365,4.365,0,0,1-.924-.515,4.5,4.5,0,0,1,1,.342l2.657,1.1,3.917,1.684,4.751,2.172,3.6,1.673-.136-.019c2.707-.429,5.041-.781,6.7-1.013a17.56,17.56,0,0,1,2.654-.289" transform="translate(-12.21 -15.441)" fill="#aa6550"/>
        <path id="Trazado_639982" data-name="Trazado 639982" d="M208,245.488a13.624,13.624,0,0,0-6.429,5.1,8.081,8.081,0,0,1,6.429-5.1" transform="translate(-13.249 -16.135)" fill="#aa6550"/>
        <path id="Trazado_639983" data-name="Trazado 639983" d="M227.275,231.255c.059-.007.1.577.411,1.515a7.858,7.858,0,0,0,2.17,3.343l.325.292-.434.082a22.863,22.863,0,0,0-4.371,1.3,23.093,23.093,0,0,0-6.136,3.765c-1.414,1.2-2.156,2.1-2.222,2.039a2.692,2.692,0,0,1,.465-.674,16.928,16.928,0,0,1,1.527-1.622,20.672,20.672,0,0,1,6.18-3.958,20.9,20.9,0,0,1,4.483-1.276l-.11.375a7.539,7.539,0,0,1-2.125-3.59,3.706,3.706,0,0,1-.163-1.588" transform="translate(-14.265 -15.201)" fill="#aa6550"/>
        <path id="Trazado_639984" data-name="Trazado 639984" d="M215.829,234.135a26.488,26.488,0,0,1-6.139,1.649c-1.727.324-3.3.543-4.448.656a6.821,6.821,0,0,1-1.866.074c-.017-.143,2.79-.559,6.224-1.208l4.39-.868a8.557,8.557,0,0,1,1.839-.3" transform="translate(-13.368 -15.389)" fill="#aa6550"/>
        <path id="Trazado_639985" data-name="Trazado 639985" d="M199.387,246.958a23,23,0,0,1-2.668-1.066c-1.634-.679-3.921-1.542-6.468-2.455s-4.851-1.77-6.487-2.469a14.129,14.129,0,0,1-2.589-1.262,20.907,20.907,0,0,1,2.715.943l6.526,2.331c2.551.915,4.834,1.834,6.442,2.6a13.238,13.238,0,0,1,2.529,1.38" transform="translate(-11.909 -15.756)" fill="#aa6550"/>
        <path id="Trazado_639986" data-name="Trazado 639986" d="M204.526,247.06a10.627,10.627,0,0,1-6.877.682c.015-.142,1.562-.058,3.447-.251s3.388-.566,3.43-.431" transform="translate(-12.992 -16.238)" fill="#aa6550"/>
        <path id="Trazado_639987" data-name="Trazado 639987" d="M296.245,188.647S282,196.84,279.02,221.877c-1.555,13.053-7.24,37.327-7.24,37.327l-11.69-13.143-17.679,20.245s19.1,40.775,29.941,51.9,32.2,14.543,32.2,14.543l4.3-68.149Z" transform="translate(-15.934 -12.4)" fill="#ffb338"/>
        <path id="Trazado_639988" data-name="Trazado 639988" d="M407.584,176.184l-32.911-5.761-41.956,2.083s-34.942,14.423-33.165,14.943l-6.808,67.456L309.623,287.5l-4.163,69.4H421.234l-6.043-48.263-7.576-58.16L421.991,295.5l2.18,61.4h32.236c3.4-26.738,4.471-63.886,4.471-63.886L434.57,207.079a50.136,50.136,0,0,0-22.283-28.571,27.59,27.59,0,0,0-4.7-2.324" transform="translate(-19.242 -11.202)" fill="#ffb338"/>
        <path id="Trazado_639989" data-name="Trazado 639989" d="M299.632,225.068a1.841,1.841,0,0,1,.08.343c.048.252.109.588.189,1.014.159.921.386,2.231.676,3.906.574,3.394,1.391,8.308,2.332,14.391s2,13.337,3.006,21.415,1.954,16.983,2.493,26.367c.05.873.1,1.742.143,2.549v.018c-.492,18.207-1.051,34.566-1.562,46.372-.258,5.9-.5,10.667-.7,13.954-.108,1.621-.193,2.889-.254,3.781-.034.412-.06.736-.08.981a1.7,1.7,0,0,1-.044.334,1.879,1.879,0,0,1,0-.336c.008-.246.02-.571.034-.984.039-.893.094-2.163.164-3.785.13-3.319.316-8.077.546-13.958.424-11.807.928-28.168,1.414-46.371v.018c-.046-.805-.094-1.673-.144-2.544-.537-9.368-1.48-18.266-2.452-26.341s-2.007-15.33-2.9-21.418c-.917-6.065-1.66-10.982-2.18-14.413-.25-1.681-.448-3-.586-3.92-.059-.43-.106-.768-.14-1.022a1.9,1.9,0,0,1-.032-.35" transform="translate(-19.695 -14.794)" fill="#263238"/>
        <path id="Trazado_639990" data-name="Trazado 639990" d="M407.681,226.377a1.488,1.488,0,0,1-.1-.429c-.057-.342-.125-.753-.206-1.248-.043-.279-.089-.58-.138-.905s-.05-.7-.078-1.086a23.636,23.636,0,0,1-.087-2.653q.017-.741.035-1.545c.017-.537.1-1.092.149-1.669a35.134,35.134,0,0,1,.56-3.656,36.946,36.946,0,0,1,7.113-15.24,34.969,34.969,0,0,1,2.443-2.777c.409-.409.782-.829,1.183-1.187l1.163-1.019a23.679,23.679,0,0,1,2.089-1.637c.317-.229.6-.453.883-.637l.782-.476,1.089-.643a1.532,1.532,0,0,1,.4-.2,1.552,1.552,0,0,1-.346.279l-1.036.717-.754.507c-.269.194-.546.427-.852.664a25.875,25.875,0,0,0-2.025,1.679l-1.13,1.031c-.39.362-.751.783-1.15,1.193-.816.807-1.564,1.779-2.381,2.774a37.963,37.963,0,0,0-7.029,15.059c-.238,1.264-.5,2.462-.6,3.605-.058.569-.149,1.116-.176,1.648s-.045,1.039-.065,1.528a25.891,25.891,0,0,0,.014,2.631c.015.387.014.749.038,1.08s.065.625.1.9c.046.5.084.912.116,1.256a1.556,1.556,0,0,1,.007.444" transform="translate(-26.756 -12.448)" fill="#263238"/>
        <path id="Trazado_639991" data-name="Trazado 639991" d="M429.755,300.406a2.831,2.831,0,0,1-.215-.557c-.136-.419-.311-.958-.528-1.622-.462-1.472-1.1-3.5-1.878-5.985-1.582-5.054-3.759-12.038-6.257-19.721s-4.82-14.63-6.687-19.571c-.97-2.456-1.915-4.381-2.494-5.748-.293-.68-.511-1.214-.65-1.578a2.688,2.688,0,0,1-.189-.566,2.789,2.789,0,0,1,.278.527l.732,1.539c.63,1.339,1.623,3.242,2.64,5.7,1.959,4.937,4.324,11.861,6.83,19.55s4.626,14.691,6.123,19.772c.749,2.541,1.336,4.6,1.731,6.031l.44,1.648a2.717,2.717,0,0,1,.121.585" transform="translate(-27.006 -16.108)" fill="#263238"/>
        <path id="Trazado_639992" data-name="Trazado 639992" d="M455.521,301.906c-.024.083-1.251-.277-3.276-.591a30.36,30.36,0,0,0-15.714,1.715c-1.91.745-3.03,1.359-3.072,1.284a3.242,3.242,0,0,1,.749-.5,19.373,19.373,0,0,1,2.192-1.1,27.22,27.22,0,0,1,15.9-1.736,19.431,19.431,0,0,1,2.379.6,3.247,3.247,0,0,1,.839.328" transform="translate(-28.492 -19.752)" fill="#263238"/>
        <path id="Trazado_639993" data-name="Trazado 639993" d="M299.3,294.762a11.418,11.418,0,0,1-.872-1.3c-.572-.826-1.414-2.011-2.543-3.41-2.23-2.821-5.508-6.562-9.15-10.677s-6.944-7.845-9.272-10.6c-1.161-1.379-2.094-2.5-2.718-3.292a9.631,9.631,0,0,1-.936-1.257,9.694,9.694,0,0,1,1.081,1.134l2.833,3.189,9.376,10.5c3.644,4.117,6.887,7.9,9.058,10.789a41.029,41.029,0,0,1,2.432,3.519c.26.434.429.791.551,1.027a1.351,1.351,0,0,1,.16.374" transform="translate(-17.998 -17.368)" fill="#263238"/>
        <g id="Grupo_882804" data-name="Grupo 882804" transform="translate(274.691 265.45)" opacity="0.3">
          <g id="Grupo_882803" data-name="Grupo 882803">
            <g id="Grupo_882802" data-name="Grupo 882802" clip-path="url(#clip-path-3)">
              <path id="Trazado_639994" data-name="Trazado 639994" d="M307.065,339.02c.531-18.868,1.508-36.264-.2-54.894-.763,16.534-6.786,35.886-12.846,51.287Z" transform="translate(-294.017 -284.126)"/>
            </g>
          </g>
        </g>
        <g id="Grupo_882807" data-name="Grupo 882807" transform="translate(383.322 227.262)" opacity="0.3">
          <g id="Grupo_882806" data-name="Grupo 882806">
            <g id="Grupo_882805" data-name="Grupo 882805" clip-path="url(#clip-path-4)">
              <path id="Trazado_639995" data-name="Trazado 639995" d="M415.342,255.264s-5.373-12.014-5.009-12.014A182.957,182.957,0,0,0,422.784,312.4Z" transform="translate(-410.291 -243.251)"/>
            </g>
          </g>
        </g>
        <path id="Trazado_639996" data-name="Trazado 639996" d="M395.436,324.31a4.434,4.434,0,0,1-.644.411l-1.889,1.1c-1.633.965-4,2.359-6.887,4.135s-6.334,3.89-10.244,6.1a90.667,90.667,0,0,1-13.214,6.245,44.533,44.533,0,0,1-14.316,2.913,21.485,21.485,0,0,1-6.346-.9,15.08,15.08,0,0,1-4.947-2.594,12.567,12.567,0,0,1-4.441-6.634,9.494,9.494,0,0,1-.289-2.177,4.485,4.485,0,0,1,.043-.763,14.081,14.081,0,0,0,.429,2.892,12.611,12.611,0,0,0,4.471,6.413,14.859,14.859,0,0,0,4.853,2.479,21.366,21.366,0,0,0,6.226.833,44.82,44.82,0,0,0,14.151-2.923,93.439,93.439,0,0,0,13.162-6.177c3.911-2.185,7.364-4.282,10.285-6.007s5.309-3.089,6.971-4.005l1.936-1.017a4.366,4.366,0,0,1,.69-.325" transform="translate(-21.837 -21.317)" fill="#263238"/>
        <path id="Trazado_639997" data-name="Trazado 639997" d="M397.907,295.025a10.826,10.826,0,0,1-.361,1.627,19.272,19.272,0,0,1-.545,1.878c-.243.722-.485,1.559-.86,2.444-.347.9-.736,1.874-1.235,2.89-.453,1.036-1.044,2.09-1.646,3.21A47.875,47.875,0,0,1,382.815,319.8c-.982.808-1.9,1.595-2.828,2.241-.9.688-1.782,1.26-2.593,1.775-.8.541-1.569.941-2.229,1.321a19.423,19.423,0,0,1-1.735.9,10.8,10.8,0,0,1-1.525.671,10.951,10.951,0,0,1,1.437-.839c.473-.249,1.046-.562,1.687-.969s1.4-.818,2.177-1.372c.793-.53,1.658-1.115,2.538-1.811.911-.655,1.811-1.446,2.775-2.256a50.047,50.047,0,0,0,10.352-12.615c.606-1.1,1.206-2.141,1.671-3.163.511-1,.916-1.961,1.28-2.842.392-.871.655-1.694.921-2.4s.469-1.331.62-1.844a10.972,10.972,0,0,1,.543-1.573" transform="translate(-24.446 -19.392)" fill="#263238"/>
        <path id="Trazado_639998" data-name="Trazado 639998" d="M299.886,248.566c-.029.132-4.9-.83-10.868-2.146s-10.795-2.49-10.766-2.622,4.895.83,10.87,2.147,10.793,2.49,10.764,2.621" transform="translate(-18.29 -16.024)" fill="#fafafa"/>
        <path id="Trazado_639999" data-name="Trazado 639999" d="M299.947,242.778a17.565,17.565,0,0,1-3.077-.347c-1.889-.289-4.487-.751-7.349-1.3L282.2,239.7a21.983,21.983,0,0,1-3.017-.686,17.58,17.58,0,0,1,3.077.347c1.889.289,4.487.751,7.35,1.3l7.318,1.435a21.978,21.978,0,0,1,3.017.686" transform="translate(-18.351 -15.71)" fill="#fafafa"/>
        <path id="Trazado_640000" data-name="Trazado 640000" d="M401.3,243.744c0,.135-21.032.085-46.968-.109s-46.97-.462-46.969-.6,21.028-.086,46.973.109,46.964.462,46.964.6" transform="translate(-20.204 -15.97)" fill="#fafafa"/>
        <path id="Trazado_640001" data-name="Trazado 640001" d="M402.78,248.885c0,.135-21.64.243-48.33.243s-48.335-.108-48.335-.243,21.637-.243,48.335-.243,48.33.108,48.33.243" transform="translate(-20.121 -16.344)" fill="#fafafa"/>
        <path id="Trazado_640002" data-name="Trazado 640002" d="M449.253,237.018c0-.009.037-.016.113-.021-.041.107-.085.034-.142.058h-.084l0-.09h.111l.3,0-.285.1c-1.726.633-8.952,3.081-17.486,6.331l-12.572,4.836-3.814,1.459a8.967,8.967,0,0,1-1.422.478,8.8,8.8,0,0,1,1.35-.654c.882-.391,2.165-.941,3.757-1.6,3.184-1.328,7.6-3.108,12.529-4.971,8.542-3.253,15.837-5.55,17.627-5.975l.013.1-.1-.011h-.006l0-.09h.016l.023,0,.044.006c.054.03.1-.039.135.072-.074-.012-.11-.023-.11-.032" transform="translate(-27.211 -15.576)" fill="#fafafa"/>
        <path id="Trazado_640003" data-name="Trazado 640003" d="M448.328,230.565c.043.127-8.16,3-18.319,6.413s-18.434,6.079-18.477,5.951,8.159-3,18.322-6.413,18.431-6.078,18.474-5.951" transform="translate(-27.051 -15.155)" fill="#fafafa"/>
        <path id="Trazado_640004" data-name="Trazado 640004" d="M380.738,171.173a4.388,4.388,0,0,1,.086.753,17.894,17.894,0,0,1,.056,2.177,23.481,23.481,0,0,1-1.656,7.817,24.131,24.131,0,0,1-6.928,9.57,23.778,23.778,0,0,1-27.408,1.675,24.136,24.136,0,0,1-8.043-8.657,23.5,23.5,0,0,1-2.594-7.556,18.112,18.112,0,0,1-.209-2.167,4.335,4.335,0,0,1-.006-.759,4.531,4.531,0,0,1,.1.751c.034.494.139,1.216.3,2.141a24.374,24.374,0,0,0,2.708,7.422,24.077,24.077,0,0,0,7.982,8.445,23.5,23.5,0,0,0,26.883-1.642,24.092,24.092,0,0,0,6.895-9.353,24.392,24.392,0,0,0,1.785-7.7c.045-.938.062-1.667.035-2.162a4.424,4.424,0,0,1,.012-.759" transform="translate(-21.956 -11.251)" fill="#fafafa"/>
        <path id="Trazado_640005" data-name="Trazado 640005" d="M261.013,252.177a4.191,4.191,0,0,1-.491.9c-.342.565-.862,1.366-1.528,2.341a91.9,91.9,0,0,1-11.915,14.059c-.853.817-1.558,1.461-2.06,1.89a4.159,4.159,0,0,1-.81.633,4.217,4.217,0,0,1,.68-.771l1.947-2c1.64-1.689,3.86-4.064,6.183-6.8s4.3-5.319,5.694-7.213q.973-1.323,1.651-2.249a4.185,4.185,0,0,1,.649-.8" transform="translate(-16.052 -16.576)" fill="#fafafa"/>
        <g id="Grupo_882810" data-name="Grupo 882810" transform="translate(328.884 286.904)" opacity="0.3">
          <g id="Grupo_882809" data-name="Grupo 882809">
            <g id="Grupo_882808" data-name="Grupo 882808" clip-path="url(#clip-path-5)">
              <path id="Trazado_640006" data-name="Trazado 640006" d="M373.647,325.818c-4.718,2.68-11.079,3.107-16.759,3.258a7.216,7.216,0,0,1-3.161-.418,2.674,2.674,0,0,1-1.7-2.492c.114-1.283,1.394-2.111,2.584-2.6,4.586-1.9,9.737-1.789,14.551-3,8.21-2.064,16.583-7.923,22.976-13.475a49.936,49.936,0,0,1-18.495,18.729" transform="translate(-352.023 -307.089)"/>
            </g>
          </g>
        </g>
        <path id="Trazado_640007" data-name="Trazado 640007" d="M353.7,187.025h0a21.083,21.083,0,0,1-19.4-21.2c.046-5.25.1-9.448.1-9.448s-16.915-2.63-17.123-19.541,2.722-55.746,2.722-55.746a58.777,58.777,0,0,1,59.061,7.424l2.506,1.929-5.152,76.977A21.081,21.081,0,0,1,353.7,187.025" transform="translate(-20.854 -5.016)" fill="#b78876"/>
        <path id="Trazado_640008" data-name="Trazado 640008" d="M335.568,161.307a39.323,39.323,0,0,0,22.048-6.266s-5.211,12.172-22.087,10.648Z" transform="translate(-22.055 -10.191)" fill="#aa6550"/>
        <path id="Trazado_640009" data-name="Trazado 640009" d="M383.808,110.147c.289-.125,11.62-3.437,11.251,8.125s-11.9,8.806-11.911,8.474.66-16.6.66-16.6" transform="translate(-25.185 -7.205)" fill="#b78876"/>
        <path id="Trazado_640010" data-name="Trazado 640010" d="M387.077,122.746c.052-.036.2.148.533.315a2.018,2.018,0,0,0,1.5.078c1.236-.409,2.326-2.315,2.449-4.4a6.657,6.657,0,0,0-.471-2.9,2.327,2.327,0,0,0-1.466-1.595,1.026,1.026,0,0,0-1.206.514c-.165.319-.1.552-.162.57-.033.028-.242-.2-.134-.676a1.29,1.29,0,0,1,.478-.71,1.522,1.522,0,0,1,1.123-.259,2.834,2.834,0,0,1,2.047,1.86,6.839,6.839,0,0,1,.6,3.245c-.149,2.327-1.411,4.47-3.1,4.9a2.161,2.161,0,0,1-1.833-.364c-.348-.3-.4-.558-.361-.577" transform="translate(-25.442 -7.471)" fill="#aa6550"/>
        <path id="Trazado_640011" data-name="Trazado 640011" d="M326.757,110.294a2.416,2.416,0,0,0,2.329,2.437,2.309,2.309,0,0,0,2.489-2.178,2.416,2.416,0,0,0-2.326-2.438,2.313,2.313,0,0,0-2.492,2.18" transform="translate(-21.478 -7.106)" fill="#263238"/>
        <path id="Trazado_640012" data-name="Trazado 640012" d="M323.609,106.71c.3.315,2.129-1.039,4.728-1.032,2.6-.03,4.5,1.307,4.785.988.138-.141-.166-.709-1-1.315a6.627,6.627,0,0,0-3.831-1.18,6.357,6.357,0,0,0-3.762,1.215c-.8.613-1.071,1.183-.923,1.324" transform="translate(-21.269 -6.847)" fill="#263238"/>
        <path id="Trazado_640013" data-name="Trazado 640013" d="M353.466,110.9a2.416,2.416,0,0,0,2.328,2.437,2.31,2.31,0,0,0,2.49-2.178,2.415,2.415,0,0,0-2.326-2.438,2.311,2.311,0,0,0-2.492,2.179" transform="translate(-23.234 -7.146)" fill="#263238"/>
        <path id="Trazado_640014" data-name="Trazado 640014" d="M350.953,107.229c.3.315,2.132-1.039,4.729-1.032,2.6-.03,4.5,1.307,4.785.988.138-.141-.164-.709-1-1.314a6.623,6.623,0,0,0-3.831-1.181,6.36,6.36,0,0,0-3.763,1.215c-.8.614-1.07,1.183-.923,1.324" transform="translate(-23.066 -6.881)" fill="#263238"/>
        <path id="Trazado_640015" data-name="Trazado 640015" d="M340.4,126.514c.012-.148-1.6-.427-4.221-.761-.664-.069-1.292-.2-1.4-.653a3.379,3.379,0,0,1,.444-1.968q.936-2.409,1.962-5.053c2.726-7.195,4.7-13.111,4.408-13.218s-2.736,5.637-5.461,12.832q-.984,2.663-1.881,5.084a3.843,3.843,0,0,0-.344,2.6,1.663,1.663,0,0,0,1.091.97,4.5,4.5,0,0,0,1.127.157c2.635.141,4.269.153,4.279.006" transform="translate(-21.939 -6.893)" fill="#263238"/>
        <path id="Trazado_640016" data-name="Trazado 640016" d="M350.237,96.369c.256.706,2.851.372,5.9.739,3.057.306,5.516,1.2,5.92.565.18-.3-.249-.968-1.243-1.652a10.34,10.34,0,0,0-9.005-.994c-1.119.451-1.683,1.006-1.572,1.342" transform="translate(-23.021 -6.206)" fill="#263238"/>
        <path id="Trazado_640017" data-name="Trazado 640017" d="M324.63,98.649c.457.59,2.247-.022,4.4-.051,2.152-.1,3.976.4,4.4-.22.184-.3-.1-.891-.9-1.45a6.373,6.373,0,0,0-7.087.22c-.76.606-1.011,1.215-.809,1.5" transform="translate(-21.334 -6.307)" fill="#263238"/>
        <path id="Trazado_640018" data-name="Trazado 640018" d="M311.366,68.99a6.241,6.241,0,0,1,2.3-5.578,4.429,4.429,0,0,1,5.738.429,5.167,5.167,0,0,1,4.441-6.267c2.759-.175,5.11,1.909,7.776,2.639a12.559,12.559,0,0,0,7.9-.911c2.5-1.008,4.842-2.4,7.376-3.325a21.627,21.627,0,0,1,27.66,12.7c3.7-1.157,7.9.721,10.182,3.855s2.866,7.247,2.412,11.1a35.21,35.21,0,0,1-1.934,7.589c0,.218.022.431.018.648-.175,9.3-1.226,20.221-5.194,20.282-6.915.106-5.267-12.923-5.267-12.923-8.487-3.279-5.325-15.994-7.447-17.923s-6.56-6.411-24.328,2.67c-6.9,3.526-16.073,3.417-21.081,2.281-.147-.032-.3-.054-.442-.09-.031-.008-.072-.014-.1-.021-.055-.014-.093-.044-.147-.059a16.011,16.011,0,0,1-4.557-1.933,9.009,9.009,0,0,1-3.755-4.175,4.933,4.933,0,0,1,.969-5.295,10.842,10.842,0,0,1-2.519-5.689" transform="translate(-20.465 -3.595)" fill="#263238"/>
        <path id="Trazado_640019" data-name="Trazado 640019" d="M338.475,136.39a11.629,11.629,0,0,0,1.507,2.954,3.927,3.927,0,0,0,2.79,1.619,3.523,3.523,0,0,0,2.978-1.625,5.619,5.619,0,0,0,.83-3.386c-.048-1.068-.537-2.342-1.6-2.468a2.67,2.67,0,0,0-1.288.286l-5.578,2.262" transform="translate(-22.225 -8.773)" fill="#aa6550"/>
        <path id="Trazado_640020" data-name="Trazado 640020" d="M340.627,140.939a8.072,8.072,0,0,0,2.975-.367,4.254,4.254,0,0,0,2.25-2.044,4.476,4.476,0,0,0,.073-3.649,3.992,3.992,0,0,0-.486-.833c-.221-.232-.18-.221-.421-.186-.227.062-.594.234-.894.35l-.916.374c-1.194.483-2.275.9-3.189,1.246a10.18,10.18,0,0,1-3.037.915,10.155,10.155,0,0,1,2.761-1.562c.878-.425,1.93-.914,3.1-1.443l.9-.4a9.863,9.863,0,0,1,1.019-.419,1.3,1.3,0,0,1,.828.023,1.527,1.527,0,0,1,.615.487,4.78,4.78,0,0,1,.628,1.058,5.227,5.227,0,0,1-.171,4.463,4.772,4.772,0,0,1-2.831,2.289,4.5,4.5,0,0,1-2.417.094c-.555-.146-.815-.335-.793-.391" transform="translate(-22.15 -8.733)" fill="#263238"/>
        <path id="Trazado_640021" data-name="Trazado 640021" d="M368.667,80.8a10.182,10.182,0,0,0,.008-2.046A7.98,7.98,0,0,0,366.032,74a10.76,10.76,0,0,0-7.613-2.514c-3.129.026-6.455,1.054-9.893,2.212-1.727.569-3.431,1.112-5.121,1.485a26.543,26.543,0,0,1-4.945.6,26.857,26.857,0,0,1-8.332-1.1,25.888,25.888,0,0,1-5.214-2.21c-.586-.324-1.02-.609-1.31-.809a2.116,2.116,0,0,1-.43-.322c.027-.044.645.362,1.831.96a28.715,28.715,0,0,0,5.221,2.043,27.363,27.363,0,0,0,8.22.975,26.64,26.64,0,0,0,4.853-.618c1.66-.374,3.346-.915,5.072-1.483,3.432-1.156,6.827-2.2,10.042-2.2a11.017,11.017,0,0,1,7.858,2.715,7.991,7.991,0,0,1,2.6,4.986,4.65,4.65,0,0,1-.2,2.068" transform="translate(-21.243 -4.669)" fill="#455a64"/>
        <path id="Trazado_640022" data-name="Trazado 640022" d="M385.2,109.756c-.016.007-.092-.115-.222-.356s-.312-.6-.526-1.078a21.741,21.741,0,0,1-1.347-4.2,23.184,23.184,0,0,1-.435-6.537,58.139,58.139,0,0,1,1.509-7.857,15.389,15.389,0,0,0,.016-7.772,7.865,7.865,0,0,0-1.621-2.946,5.923,5.923,0,0,0-2.429-1.594,5.548,5.548,0,0,0-4.174.107,8.005,8.005,0,0,0-1.3.91,3.222,3.222,0,0,1,1.21-1.082,5.61,5.61,0,0,1,4.375-.268,6.21,6.21,0,0,1,2.622,1.649,8.184,8.184,0,0,1,1.753,3.086,15.565,15.565,0,0,1,.035,8.011,62.589,62.589,0,0,0-1.54,7.794,23.919,23.919,0,0,0,.324,6.431,25.3,25.3,0,0,0,1.181,4.2,15.318,15.318,0,0,1,.569,1.507" transform="translate(-24.628 -5.046)" fill="#455a64"/>
        <path id="Trazado_640023" data-name="Trazado 640023" d="M370.164,78.685a3.5,3.5,0,0,1,.007-.678c.018-.493.042-1.137.072-1.94a22.488,22.488,0,0,0-.781-7.023,12.427,12.427,0,0,0-2.259-4.267,8.732,8.732,0,0,0-4.534-3,11.455,11.455,0,0,0-6.052.248,28.008,28.008,0,0,0-6.053,2.743,49.951,49.951,0,0,1-6,3.088,18.358,18.358,0,0,1-6.185,1.242,19.559,19.559,0,0,1-5.664-.7,21.89,21.89,0,0,1-4.595-1.894,18.763,18.763,0,0,1-5.441-4.645,11.844,11.844,0,0,1-1.1-1.606,3.421,3.421,0,0,1-.327-.6,3.624,3.624,0,0,1,.411.541,14.694,14.694,0,0,0,1.169,1.539,19.489,19.489,0,0,0,5.462,4.459,21.955,21.955,0,0,0,4.531,1.8,19.328,19.328,0,0,0,5.545.635,18.044,18.044,0,0,0,6.017-1.236,50.807,50.807,0,0,0,5.937-3.068,28.1,28.1,0,0,1,6.163-2.779,11.861,11.861,0,0,1,6.3-.221,9.117,9.117,0,0,1,4.735,3.177,12.653,12.653,0,0,1,2.277,4.427,21.454,21.454,0,0,1,.637,7.132c-.05.845-.115,1.5-.165,1.94a3.386,3.386,0,0,1-.107.67" transform="translate(-21.116 -3.922)" fill="#455a64"/>
      </g>
    </g>
    <g id="Grupo_882814" data-name="Grupo 882814">
      <g id="Grupo_882813" data-name="Grupo 882813" clip-path="url(#clip-path)">
        <path id="Trazado_640024" data-name="Trazado 640024" d="M428.2,370c0,.135-94.945.243-212.04.243C99.025,370.247,4.1,370.138,4.1,370s94.925-.243,212.059-.243c117.095,0,212.04.108,212.04.243" transform="translate(-0.269 -24.305)" fill="#263238"/>
      </g>
    </g>
    <g id="Grupo_882819" data-name="Grupo 882819">
      <g id="Grupo_882818" data-name="Grupo 882818" clip-path="url(#clip-path)">
        <path id="Trazado_640025" data-name="Trazado 640025" d="M177.584,327.1c1.8,2.546,5.278,1.68,6.882.11s2.272-3.834,2.88-5.994c1.389-4.935,2.789-10.112,1.706-15.123a8.4,8.4,0,0,0-1.954-4.1,4.386,4.386,0,0,0-4.164-1.36c-1.752.474-2.832,2.2-3.61,3.836a36.031,36.031,0,0,0-3.472,15.48,12.5,12.5,0,0,0,1.731,7.148" transform="translate(-11.559 -19.753)" fill="#3d672f"/>
        <path id="Trazado_640027" data-name="Trazado 640027" d="M184.719,342.678a15.51,15.51,0,0,1,9.615-1.225,7.993,7.993,0,0,1,4.765,2.1c1.2,1.3,1.434,3.61.077,4.744a4.555,4.555,0,0,1-2.992.778c-2.544-.016-5.368-.448-7.392,1.095-1.154.88-1.918,2.336-3.3,2.773a3.277,3.277,0,0,1-3.615-1.584,5.6,5.6,0,0,1-.432-4.13,6.312,6.312,0,0,1,3.276-4.547" transform="translate(-11.913 -22.428)" fill="#617a0b"/>
        <path id="Trazado_640028" data-name="Trazado 640028" d="M171.012,331.383a9.3,9.3,0,0,0,1.4-8.567,16.493,16.493,0,0,0-5.111-7.324,27.284,27.284,0,0,0-9.107-5.3,9.693,9.693,0,0,0-4.087-.671,4.287,4.287,0,0,0-3.414,2.093c-.945,1.827-.017,4.032.985,5.83a69.151,69.151,0,0,0,6.014,9.045c1.8,2.294,3.86,4.555,6.589,5.58s5.558.887,6.991-1.011" transform="translate(-9.879 -20.343)" fill="#617a0b"/>
        <path id="Trazado_640029" data-name="Trazado 640029" d="M177.81,368.58a5.522,5.522,0,0,0,.155-1.162l.291-3.172a45.825,45.825,0,0,1,.687-4.653,35.881,35.881,0,0,1,1.657-5.5,20.275,20.275,0,0,1,2.774-4.982,10.462,10.462,0,0,1,3.526-2.965,9.887,9.887,0,0,1,2.978-.945,5.489,5.489,0,0,0,1.156-.175,5.52,5.52,0,0,0-1.177-.011,9.039,9.039,0,0,0-3.105.828,10.437,10.437,0,0,0-3.72,2.992,19.784,19.784,0,0,0-2.875,5.081,33.545,33.545,0,0,0-1.646,5.587,39.372,39.372,0,0,0-.591,4.712c-.092,1.347-.124,2.437-.138,3.191a5.412,5.412,0,0,0,.031,1.173" transform="translate(-11.685 -22.677)" fill="#263238"/>
        <path id="Trazado_640030" data-name="Trazado 640030" d="M178.012,363.938a2.309,2.309,0,0,0,.028-.539c0-.4-.007-.915-.013-1.542-.011-1.337-.021-3.273.036-5.663.091-4.781.464-11.381,1.217-18.639s1.784-13.792,2.724-18.479c.221-1.175.446-2.233.657-3.159s.374-1.727.54-2.375c.143-.61.26-1.106.352-1.5a2.308,2.308,0,0,0,.091-.533,2.325,2.325,0,0,0-.184.506c-.116.389-.261.878-.439,1.48-.194.641-.393,1.437-.62,2.361s-.485,1.978-.729,3.15a174.985,174.985,0,0,0-2.868,18.5c-.755,7.273-1.075,13.893-1.08,18.684-.015,2.4.048,4.335.116,5.674.042.626.077,1.135.1,1.54a2.275,2.275,0,0,0,.068.534" transform="translate(-11.682 -20.476)" fill="#263238"/>
        <path id="Trazado_640031" data-name="Trazado 640031" d="M176.772,351.458a10.326,10.326,0,0,0-.021-1.61c-.065-1.034-.216-2.529-.519-4.358a57.41,57.41,0,0,0-1.455-6.347,56.461,56.461,0,0,0-2.7-7.5,40.058,40.058,0,0,0-7.874-12.106,19.862,19.862,0,0,0-1.845-1.7c-.283-.236-.533-.473-.789-.66l-.715-.487a10.309,10.309,0,0,0-1.36-.86,48.326,48.326,0,0,1,4.465,3.938,42.222,42.222,0,0,1,7.679,12.064,60.057,60.057,0,0,1,2.715,7.435,64.626,64.626,0,0,1,1.545,6.283c.343,1.812.544,3.29.666,4.314a10.459,10.459,0,0,0,.206,1.594" transform="translate(-10.484 -20.76)" fill="#263238"/>
      </g>
    </g>
    <path id="Trazado_640032" data-name="Trazado 640032" d="M194.285,211.4l-39.639-1.69V170.07h39.639Z" transform="translate(-10.165 -11.179)" fill="#2b95f9"/>
    <rect id="Rectángulo_330776" data-name="Rectángulo 330776" width="39.639" height="39.639" transform="translate(160.199 147.555)" fill="#2b95f9"/>
    <path id="Trazado_640033" data-name="Trazado 640033" d="M197.074,208.911l15.718-11.336V157.936l-15.718,11.336Z" transform="translate(-12.954 -10.381)" fill="#e8505b"/>
    <path id="Trazado_640034" data-name="Trazado 640034" d="M154.646,169.272l15.718-11.337H210l-15.718,11.337Z" transform="translate(-10.165 -10.381)" fill="#2b95f9"/>
    <path id="Trazado_640035" data-name="Trazado 640035" d="M197.074,210.6l15.718-13.027V157.935l-15.718,11.337Z" transform="translate(-12.954 -10.381)" fill="#2b95f9"/>
    <g id="Grupo_882827" data-name="Grupo 882827">
      <g id="Grupo_882826" data-name="Grupo 882826" clip-path="url(#clip-path)">
        <g id="Grupo_882822" data-name="Grupo 882822" transform="translate(143.599 147.746)" opacity="0.3">
          <g id="Grupo_882821" data-name="Grupo 882821">
            <g id="Grupo_882820" data-name="Grupo 882820" clip-path="url(#clip-path-9)">
              <path id="Trazado_640036" data-name="Trazado 640036" d="M154.646,169.272l15.718-11.337H210l-15.718,11.337Z" transform="translate(-154.646 -157.935)" fill="#fff"/>
            </g>
          </g>
        </g>
        <g id="Grupo_882825" data-name="Grupo 882825" transform="translate(184.21 147.786)" opacity="0.4">
          <g id="Grupo_882824" data-name="Grupo 882824">
            <g id="Grupo_882823" data-name="Grupo 882823" clip-path="url(#clip-path-10)">
              <path id="Trazado_640037" data-name="Trazado 640037" d="M197.074,210.6l15.718-13.027V157.935l-15.718,11.337Z" transform="translate(-197.074 -157.935)"/>
            </g>
          </g>
        </g>
        <path id="Trazado_640038" data-name="Trazado 640038" d="M219.7,201.985a5.816,5.816,0,0,1,.243,2.336c-.192.388-.053.107-.1.194h0l0,0-.007,0-.011.009-.024.018-.049.036-.094.071-.188.136-.358.254c-.231.159-.442.3-.623.406-.364.22-.609.329-.649.276s.131-.26.441-.55c.155-.145.346-.311.561-.49l.341-.276.183-.143.093-.073.049-.036.023-.018.012-.009.007,0,0,0v0h0c-.043.086.1-.194-.1.193a5.816,5.816,0,0,1,.243-2.336" transform="translate(-14.318 -13.277)" fill="#e8505b"/>
        <path id="Trazado_640039" data-name="Trazado 640039" d="M219.811,191.264a13.026,13.026,0,0,1,0,5.008,13.025,13.025,0,0,1,0-5.008" transform="translate(-14.433 -12.572)" fill="#e8505b"/>
        <path id="Trazado_640040" data-name="Trazado 640040" d="M219.811,180.543a13.026,13.026,0,0,1,0,5.008,13.025,13.025,0,0,1,0-5.008" transform="translate(-14.433 -11.867)" fill="#e8505b"/>
        <path id="Trazado_640041" data-name="Trazado 640041" d="M219.811,169.823a13.026,13.026,0,0,1,0,5.008,13.025,13.025,0,0,1,0-5.008" transform="translate(-14.433 -11.163)" fill="#e8505b"/>
        <path id="Trazado_640042" data-name="Trazado 640042" d="M219.811,159.1a13.026,13.026,0,0,1,0,5.008,13.025,13.025,0,0,1,0-5.008" transform="translate(-14.433 -10.458)" fill="#e8505b"/>
        <path id="Trazado_640043" data-name="Trazado 640043" d="M217.328,151.225a5.816,5.816,0,0,1,2.336-.243c.486.486.135.135.243.244h0v.236l0,.233c0,.138-.009.282-.014.438-.012.279-.03.532-.052.743-.044.422-.1.684-.172.684s-.128-.262-.172-.684c-.022-.211-.04-.463-.052-.743,0-.156-.009-.3-.014-.438l0-.233v-.236h0c.108.108-.243-.244.243.242a5.817,5.817,0,0,1-2.336-.243" transform="translate(-14.285 -9.924)" fill="#e8505b"/>
        <path id="Trazado_640044" data-name="Trazado 640044" d="M207.738,151.225a10.448,10.448,0,0,1,4.48,0,10.449,10.449,0,0,1-4.48,0" transform="translate(-13.655 -9.924)" fill="#e8505b"/>
        <path id="Trazado_640045" data-name="Trazado 640045" d="M198.147,151.225a10.448,10.448,0,0,1,4.48,0,10.449,10.449,0,0,1-4.48,0" transform="translate(-13.025 -9.924)" fill="#e8505b"/>
        <path id="Trazado_640046" data-name="Trazado 640046" d="M188.557,151.225a10.448,10.448,0,0,1,4.48,0,10.449,10.449,0,0,1-4.48,0" transform="translate(-12.394 -9.924)" fill="#e8505b"/>
        <path id="Trazado_640047" data-name="Trazado 640047" d="M178.966,151.225a10.448,10.448,0,0,1,4.48,0,10.449,10.449,0,0,1-4.48,0" transform="translate(-11.764 -9.924)" fill="#e8505b"/>
        <path id="Trazado_640048" data-name="Trazado 640048" d="M169.576,151.746c-.048-.058.151-.311.508-.665l.036-.035.083-.007c.382-.036.88-.056,1.424-.056a5.367,5.367,0,0,1,2.24.243,5.367,5.367,0,0,1-2.24.243c-.544,0-1.042-.021-1.424-.056l.12-.043c-.414.286-.7.435-.747.377" transform="translate(-11.146 -9.924)" fill="#e8505b"/>
        <path id="Trazado_640049" data-name="Trazado 640049" d="M162.2,157.722c-.086-.1.617-.828,1.569-1.617s1.793-1.347,1.879-1.244-.617.828-1.569,1.617-1.793,1.347-1.879,1.243" transform="translate(-10.661 -10.178)" fill="#e8505b"/>
        <path id="Trazado_640050" data-name="Trazado 640050" d="M154.815,163.847c-.086-.1.617-.828,1.569-1.618s1.793-1.346,1.879-1.243-.616.828-1.569,1.617-1.793,1.347-1.879,1.244" transform="translate(-10.176 -10.581)" fill="#e8505b"/>
        <path id="Trazado_640051" data-name="Trazado 640051" d="M149.162,170.937a5.821,5.821,0,0,1-.22-2.338c.176-.37.05-.1.089-.186h0l0,0,.006,0,.012-.01.023-.019.046-.038.092-.075.18-.146.347-.269c.223-.169.428-.316.6-.434.354-.236.593-.357.636-.3s-.119.265-.417.569c-.149.152-.331.326-.537.514l-.329.291-.176.15-.092.077-.046.038-.023.02-.011.009-.006,0,0,0h0l.088-.184a5.823,5.823,0,0,1-.266,2.333" transform="translate(-9.79 -10.984)" fill="#e8505b"/>
        <path id="Trazado_640052" data-name="Trazado 640052" d="M149.065,180.8a11.151,11.151,0,0,1,.046-4.634,11.151,11.151,0,0,1-.046,4.634" transform="translate(-9.784 -11.58)" fill="#e8505b"/>
        <path id="Trazado_640053" data-name="Trazado 640053" d="M148.968,190.719a11.172,11.172,0,0,1,.045-4.634,11.13,11.13,0,0,1-.045,4.634" transform="translate(-9.777 -12.232)" fill="#e8505b"/>
        <path id="Trazado_640054" data-name="Trazado 640054" d="M148.871,200.638a11.152,11.152,0,0,1,.046-4.634,11.151,11.151,0,0,1-.046,4.634" transform="translate(-9.771 -12.884)" fill="#e8505b"/>
        <path id="Trazado_640055" data-name="Trazado 640055" d="M148.774,210.557a11.11,11.11,0,0,1,.046-4.634,5.786,5.786,0,0,1,.22,2.32,5.724,5.724,0,0,1-.265,2.314" transform="translate(-9.765 -13.536)" fill="#e8505b"/>
        <path id="Trazado_640056" data-name="Trazado 640056" d="M151.033,218.217a5.811,5.811,0,0,1-2.339.2l-.239-.246h0v-.119l0-.119.006-.232c.006-.139.012-.282.019-.438.015-.279.036-.532.059-.743.049-.421.112-.683.179-.682s.125.263.165.686c.02.211.035.463.045.743,0,.157.007.3.009.439l0,.232v.237h0c-.107-.109.238.246-.239-.245a5.805,5.805,0,0,1,2.331.281" transform="translate(-9.757 -14.188)" fill="#e8505b"/>
        <path id="Trazado_640057" data-name="Trazado 640057" d="M160.378,218.519a10.2,10.2,0,0,1-4.425-.073,10.2,10.2,0,0,1,4.425.073" transform="translate(-10.251 -14.345)" fill="#e8505b"/>
        <path id="Trazado_640058" data-name="Trazado 640058" d="M169.851,218.675a10.16,10.16,0,0,1-4.425-.073,10.2,10.2,0,0,1,4.425.073" transform="translate(-10.874 -14.355)" fill="#e8505b"/>
        <path id="Trazado_640059" data-name="Trazado 640059" d="M179.324,218.831a10.2,10.2,0,0,1-4.425-.073,10.2,10.2,0,0,1,4.425.073" transform="translate(-11.496 -14.366)" fill="#e8505b"/>
        <path id="Trazado_640060" data-name="Trazado 640060" d="M188.8,218.986a10.2,10.2,0,0,1-4.426-.073,10.2,10.2,0,0,1,4.426.073" transform="translate(-12.119 -14.376)" fill="#e8505b"/>
        <path id="Trazado_640061" data-name="Trazado 640061" d="M198.27,219.142a10.2,10.2,0,0,1-4.425-.073,10.2,10.2,0,0,1,4.425.073" transform="translate(-12.742 -14.386)" fill="#e8505b"/>
        <path id="Trazado_640062" data-name="Trazado 640062" d="M206.254,214.57c.081.107-.644.792-1.617,1.529s-1.83,1.249-1.912,1.142.643-.791,1.617-1.529,1.83-1.249,1.912-1.142" transform="translate(-13.325 -14.103)" fill="#e8505b"/>
        <path id="Trazado_640063" data-name="Trazado 640063" d="M213.809,208.852c.081.107-.644.792-1.617,1.529s-1.83,1.249-1.912,1.142.643-.791,1.617-1.529,1.83-1.249,1.912-1.142" transform="translate(-13.822 -13.727)" fill="#e8505b"/>
        <path id="Trazado_640064" data-name="Trazado 640064" d="M208.269,147.788c.131.03.122.563-.02,1.193s-.363,1.115-.494,1.086-.122-.563.02-1.193.363-1.116.494-1.086" transform="translate(-13.65 -9.714)" fill="#e8505b"/>
        <path id="Trazado_640065" data-name="Trazado 640065" d="M210.527,137.621a12.284,12.284,0,0,1-1.072,4.75,12.32,12.32,0,0,1,1.072-4.75" transform="translate(-13.765 -9.046)" fill="#e8505b"/>
        <path id="Trazado_640066" data-name="Trazado 640066" d="M212.821,127.453a12.329,12.329,0,0,1-1.072,4.75,12.275,12.275,0,0,1,1.072-4.75" transform="translate(-13.915 -8.378)" fill="#e8505b"/>
        <path id="Trazado_640067" data-name="Trazado 640067" d="M215.116,117.286a12.285,12.285,0,0,1-1.072,4.75,12.32,12.32,0,0,1,1.072-4.75" transform="translate(-14.066 -7.709)" fill="#e8505b"/>
        <path id="Trazado_640068" data-name="Trazado 640068" d="M217.41,107.119a6.308,6.308,0,0,1-.3,2.428,6.306,6.306,0,0,1-.773,2.322,6.312,6.312,0,0,1,.3-2.429,6.3,6.3,0,0,1,.773-2.321" transform="translate(-14.217 -7.041)" fill="#e8505b"/>
        <path id="Trazado_640069" data-name="Trazado 640069" d="M219.7,96.952a6.307,6.307,0,0,1-.3,2.428,6.305,6.305,0,0,1-.773,2.322,6.313,6.313,0,0,1,.3-2.429,6.3,6.3,0,0,1,.773-2.321" transform="translate(-14.368 -6.373)" fill="#e8505b"/>
        <path id="Trazado_640070" data-name="Trazado 640070" d="M221.438,89.429c.131.03.122.563-.02,1.193s-.363,1.115-.494,1.086-.122-.563.02-1.193.363-1.116.494-1.086" transform="translate(-14.516 -5.878)" fill="#e8505b"/>
        <path id="Trazado_640071" data-name="Trazado 640071" d="M169.122,149.009c.12-.061.452.358.743.933s.428,1.092.307,1.153-.452-.358-.742-.933-.428-1.092-.308-1.153" transform="translate(-11.114 -9.794)" fill="#e8505b"/>
        <path id="Trazado_640072" data-name="Trazado 640072" d="M164.74,140.3c.12-.061.675.8,1.241,1.924a5.539,5.539,0,0,1,.807,2.143c-.121.06-.675-.8-1.242-1.925a5.544,5.544,0,0,1-.806-2.142" transform="translate(-10.827 -9.222)" fill="#e8505b"/>
        <path id="Trazado_640073" data-name="Trazado 640073" d="M160.356,131.6c.121-.061.675.8,1.241,1.924a5.538,5.538,0,0,1,.807,2.143c-.121.06-.675-.8-1.242-1.925a5.538,5.538,0,0,1-.806-2.142" transform="translate(-10.539 -8.65)" fill="#e8505b"/>
        <path id="Trazado_640074" data-name="Trazado 640074" d="M155.973,122.893c.12-.061.675.8,1.241,1.924a5.538,5.538,0,0,1,.807,2.143c-.121.06-.675-.8-1.242-1.925a5.538,5.538,0,0,1-.806-2.142" transform="translate(-10.251 -8.078)" fill="#e8505b"/>
        <path id="Trazado_640075" data-name="Trazado 640075" d="M151.59,114.187c.12-.061.675.8,1.241,1.924a5.538,5.538,0,0,1,.807,2.143c-.121.06-.675-.8-1.242-1.925a5.543,5.543,0,0,1-.806-2.142" transform="translate(-9.963 -7.505)" fill="#e8505b"/>
        <path id="Trazado_640076" data-name="Trazado 640076" d="M147.206,105.482c.12-.061.675.8,1.241,1.924a5.538,5.538,0,0,1,.807,2.143c-.121.06-.675-.8-1.242-1.925a5.544,5.544,0,0,1-.806-2.142" transform="translate(-9.675 -6.933)" fill="#e8505b"/>
        <path id="Trazado_640077" data-name="Trazado 640077" d="M142.823,96.777c.121-.061.675.8,1.241,1.924a5.538,5.538,0,0,1,.807,2.143c-.121.06-.675-.8-1.242-1.925a5.539,5.539,0,0,1-.806-2.142" transform="translate(-9.386 -6.361)" fill="#e8505b"/>
        <path id="Trazado_640078" data-name="Trazado 640078" d="M138.44,88.071c.12-.061.675.8,1.241,1.924a5.538,5.538,0,0,1,.807,2.143c-.121.06-.675-.8-1.242-1.925a5.539,5.539,0,0,1-.806-2.142" transform="translate(-9.098 -5.789)" fill="#e8505b"/>
        <path id="Trazado_640079" data-name="Trazado 640079" d="M135.123,81.486c.12-.061.452.358.743.933s.428,1.092.307,1.153-.452-.358-.742-.934-.428-1.091-.308-1.152" transform="translate(-8.879 -5.356)" fill="#e8505b"/>
        <path id="Trazado_640080" data-name="Trazado 640080" d="M90.649,164.11c-.01.134-.54.2-1.183.151s-1.157-.2-1.145-.334.54-.2,1.183-.151,1.156.2,1.145.334" transform="translate(-5.805 -10.764)" fill="#e8505b"/>
        <path id="Trazado_640081" data-name="Trazado 640081" d="M100.642,164.9a6.038,6.038,0,0,1-2.393.057,6.045,6.045,0,0,1-2.355-.429,6.064,6.064,0,0,1,2.394-.057,6.042,6.042,0,0,1,2.354.429" transform="translate(-6.303 -10.807)" fill="#e8505b"/>
        <path id="Trazado_640082" data-name="Trazado 640082" d="M110.8,165.692a6.038,6.038,0,0,1-2.393.057,6.049,6.049,0,0,1-2.355-.429,6.055,6.055,0,0,1,2.394-.056,6.032,6.032,0,0,1,2.354.428" transform="translate(-6.971 -10.859)" fill="#e8505b"/>
        <path id="Trazado_640083" data-name="Trazado 640083" d="M120.968,166.488a11.759,11.759,0,0,1-4.748-.372,11.8,11.8,0,0,1,4.748.372" transform="translate(-7.639 -10.911)" fill="#e8505b"/>
        <path id="Trazado_640084" data-name="Trazado 640084" d="M131.131,167.283a11.759,11.759,0,0,1-4.748-.372,11.8,11.8,0,0,1,4.748.372" transform="translate(-8.307 -10.964)" fill="#e8505b"/>
        <path id="Trazado_640085" data-name="Trazado 640085" d="M141.294,168.079a11.759,11.759,0,0,1-4.748-.372,11.756,11.756,0,0,1,4.748.372" transform="translate(-8.975 -11.016)" fill="#e8505b"/>
        <path id="Trazado_640086" data-name="Trazado 640086" d="M149.038,168.682c-.01.134-.54.2-1.183.151s-1.157-.2-1.145-.334.54-.2,1.183-.151,1.156.2,1.145.334" transform="translate(-9.643 -11.065)" fill="#e8505b"/>
        <path id="Trazado_640087" data-name="Trazado 640087" d="M152.668,41.348A41.136,41.136,0,1,1,111.532.212a41.136,41.136,0,0,1,41.136,41.136" transform="translate(-4.627 -0.014)" fill="#fff" fill-rule="evenodd"/>
        <path id="Trazado_640088" data-name="Trazado 640088" d="M152.651,41.334s-.028-.226-.059-.666-.069-1.105-.122-1.953l-.084-1.438c-.055-.527-.167-1.1-.26-1.718s-.2-1.289-.317-2a22.386,22.386,0,0,0-.536-2.243A39.2,39.2,0,0,0,146.719,20.4,40.869,40.869,0,0,0,136.3,8.773l-1.77-1.319c-.622-.408-1.278-.782-1.926-1.181-.661-.377-1.288-.833-2-1.155L128.479,4.1,127.4,3.585l-1.136-.413-2.3-.84c-.782-.259-1.6-.425-2.411-.646a20.618,20.618,0,0,0-2.478-.561,38.124,38.124,0,0,0-5.175-.6c-.883-.03-1.771-.116-2.668-.1l-2.708.14c-.454.032-.913.028-1.367.089l-1.365.209c-.911.151-1.837.258-2.752.448a43.363,43.363,0,0,0-5.456,1.6,42.661,42.661,0,0,0-5.335,2.345c-.864.468-1.692,1.014-2.548,1.521-.419.268-.865.5-1.264.8l-1.2.9a46.162,46.162,0,0,0-4.64,3.944l-2.079,2.29-.523.576-.47.622L78.58,17.16l-.941,1.258-.823,1.345-.822,1.355-.413.679-.349.716L73.842,25.4l-1.109,3.029a43.686,43.686,0,0,0-2.111,12.9A43.721,43.721,0,0,0,72.73,54.234l1.109,3.03,1.389,2.885.349.716.412.68.823,1.355.823,1.346.941,1.258.936,1.253.47.622.523.576,2.08,2.29a45.837,45.837,0,0,0,4.641,3.944l1.2.9c.4.3.846.531,1.264.8.856.507,1.684,1.053,2.548,1.522a42.672,42.672,0,0,0,5.336,2.345,43.376,43.376,0,0,0,5.457,1.6c.916.19,1.841.3,2.752.448l1.365.209c.454.06.914.057,1.367.089l2.708.14c.9.013,1.785-.073,2.668-.1a37.988,37.988,0,0,0,5.176-.6,20.7,20.7,0,0,0,2.478-.561c.81-.22,1.629-.387,2.411-.646l2.3-.84,1.136-.414,1.081-.513,2.126-1.019c.709-.322,1.336-.779,2-1.156.648-.4,1.3-.773,1.926-1.181l1.771-1.319a40.905,40.905,0,0,0,10.419-11.624,39.216,39.216,0,0,0,4.552-10.916,22.325,22.325,0,0,0,.536-2.243q.17-1.069.317-2c.092-.62.2-1.191.26-1.718l.084-1.438q.08-1.27.122-1.952c.031-.441.059-.666.059-.666s.006.225-.008.666q-.027.685-.075,1.958c-.019.432-.039.914-.062,1.443-.047.529-.152,1.1-.236,1.727s-.191,1.3-.3,2.013a22.134,22.134,0,0,1-.517,2.258,39.057,39.057,0,0,1-4.5,11.008A41,41,0,0,1,136.51,74.167L134.729,75.5c-.625.414-1.285.793-1.938,1.2-.665.382-1.3.845-2.011,1.173l-2.142,1.036-1.089.52-1.145.421-2.324.854c-.789.264-1.615.435-2.434.66a21.2,21.2,0,0,1-2.5.574,38.536,38.536,0,0,1-5.225.618c-.891.033-1.79.121-2.7.109l-2.736-.135c-.459-.031-.922-.028-1.382-.087l-1.379-.209c-.921-.15-1.857-.257-2.783-.447a43.634,43.634,0,0,1-5.519-1.609,43.014,43.014,0,0,1-5.4-2.364c-.874-.473-1.713-1.023-2.579-1.535-.423-.271-.875-.5-1.279-.807l-1.219-.91a46.305,46.305,0,0,1-4.7-3.985l-2.106-2.315-.53-.582-.476-.629-.948-1.267-.952-1.273-.834-1.36-.833-1.371-.418-.688-.354-.724-1.407-2.918q-.559-1.528-1.124-3.065a44.137,44.137,0,0,1-2.135-13.06,44.132,44.132,0,0,1,2.138-13.055L73.4,25.208,74.8,22.291l.354-.723.418-.687.833-1.371.834-1.36.952-1.272.948-1.267.476-.629.53-.582,2.1-2.313a46.492,46.492,0,0,1,4.7-3.984l1.219-.911c.4-.3.856-.535,1.28-.806.865-.512,1.7-1.062,2.578-1.535a43,43,0,0,1,5.4-2.363A43.506,43.506,0,0,1,102.944.88c.926-.191,1.862-.3,2.783-.448l1.379-.209c.459-.059.923-.056,1.382-.087L111.223,0c.905-.012,1.8.076,2.694.109a38.388,38.388,0,0,1,5.225.618,20.985,20.985,0,0,1,2.5.573c.817.224,1.643.4,2.433.66l2.324.854,1.145.421,1.089.52,2.142,1.036c.714.326,1.345.789,2.011,1.172.652.4,1.312.784,1.938,1.2L136.507,8.5a41,41,0,0,1,10.445,11.759,38.99,38.99,0,0,1,4.5,11.009,22.134,22.134,0,0,1,.518,2.257q.158,1.078.3,2.014c.085.624.19,1.2.237,1.727q.034.8.062,1.444c.032.849.057,1.5.075,1.957.014.441.008.667.008.667" transform="translate(-4.61 0)" fill="#e8505b"/>
        <path id="Trazado_640089" data-name="Trazado 640089" d="M116.122,28.083A1.171,1.171,0,0,1,116.5,28a4.7,4.7,0,0,1,1.115-.024,6,6,0,0,1,3.694,1.7,6.2,6.2,0,0,1-.03,8.88,6.213,6.213,0,0,1-7.339,1,6.2,6.2,0,0,1-2.4-8.552,5.992,5.992,0,0,1,3.108-2.62,4.734,4.734,0,0,1,1.08-.275,1.166,1.166,0,0,1,.388-.022c.01.051-.528.1-1.4.473a6.009,6.009,0,0,0-2.879,2.614,5.867,5.867,0,0,0-.047,5.576,5.756,5.756,0,0,0,2.371,2.388,5.777,5.777,0,0,0,6.779-.92,5.744,5.744,0,0,0,1.649-2.933,5.865,5.865,0,0,0-1.53-5.362,6.006,6.006,0,0,0-3.472-1.753c-.937-.123-1.469-.031-1.473-.083" transform="translate(-7.277 -1.838)" fill="#263238"/>
        <path id="Trazado_640090" data-name="Trazado 640090" d="M117.622,19.59a.936.936,0,0,1-.09-.19l-.242-.593q-.331-.844-.93-2.369l.083.05-5.561.8.107-.111c-.084,1.026-.178,2.165-.278,3.382l-.007.086-.08.034a13.676,13.676,0,0,0-3.121,1.84l-.076.059-.089-.04-3.1-1.4.21-.052-3.388,4.48-.006-.238,2.188,2.6.078.092-.047.113a13.651,13.651,0,0,0-.913,3.49l-.015.126-.12.045-3.177,1.194.139-.232.764,5.565-.2-.2,3.381.293.139.012.054.129a13.661,13.661,0,0,0,1.817,3.108l.088.112-.06.13c-.44.968-.92,2.025-1.406,3.091l-.072-.288,4.471,3.4-.3.007c.821-.689,1.708-1.433,2.6-2.182l.112-.1.136.057a13.6,13.6,0,0,0,3.475.917h0l.2.157v0l0,.007,0,.012.009.025.019.05.037.1.075.2.149.4.3.8q.3.8.592,1.585L115.321,50l5.567-.753-.207.217.3-3.38.012-.144.134-.056a13.5,13.5,0,0,0,3.111-1.81l.113-.088.13.06,3.088,1.411-.28.071,3.407-4.465.007.279q-1.109-1.326-2.177-2.607l-.085-.1.05-.122a13.57,13.57,0,0,0,.929-3.483l.016-.127.119-.045,3.182-1.18-.13.216c-.26-1.958-.5-3.807-.738-5.568l.167.161-3.379-.309-.106-.01-.04-.1a13.679,13.679,0,0,0-1.811-3.133l-.06-.078.041-.087,1.422-3.083.044.175L123.7,18.431l.136,0-2.622,2.157-.037.031-.043-.019a14.506,14.506,0,0,0-2.622-.825l-.669-.132a1.045,1.045,0,0,1-.22-.05,1.293,1.293,0,0,1,.227.01c.149.016.377.041.677.093a13.159,13.159,0,0,1,2.666.759l-.08.012,2.582-2.2.065-.056.071.053,4.491,3.375.092.068-.048.106c-.432.958-.888,1.971-1.394,3.1l-.02-.164a13.951,13.951,0,0,1,1.881,3.194l-.146-.107,3.382.287.148.012.021.148c.244,1.76.5,3.607.771,5.565l.021.16-.151.057-3.176,1.2.135-.171a13.966,13.966,0,0,1-.943,3.6l-.035-.222,2.185,2.6.115.136-.108.143-3.4,4.475-.112.147-.169-.077-3.091-1.4.242-.029a13.982,13.982,0,0,1-3.217,1.879l.146-.2q-.146,1.673-.3,3.381l-.017.192-.191.026-5.567.758-.192.026-.067-.182q-.3-.789-.593-1.585l-.3-.8-.149-.4-.074-.2-.037-.1-.02-.05-.009-.024,0-.013,0-.007v0c.4.312.108.087.2.156h0a14.037,14.037,0,0,1-3.6-.952l.249-.038-2.6,2.181-.149.124-.153-.118-4.468-3.4-.152-.116.079-.173c.487-1.066.97-2.121,1.412-3.089l.028.242a14.112,14.112,0,0,1-1.872-3.219l.193.141-3.38-.3-.18-.017-.024-.178c-.259-1.933-.512-3.819-.746-5.568l-.022-.172.162-.061,3.182-1.181-.135.171a13.947,13.947,0,0,1,.958-3.592l.032.206c-.76-.911-1.5-1.8-2.174-2.608l-.1-.118.092-.121,3.416-4.458.085-.111.125.058,3.084,1.421-.164.02a13.93,13.93,0,0,1,3.207-1.851l-.087.12c.114-1.216.22-2.354.317-3.379l.009-.1.1-.012,5.572-.71.063-.008.021.058q.542,1.526.842,2.368c.088.255.157.458.211.618a1.247,1.247,0,0,1,.064.22" transform="translate(-6.49 -1.073)" fill="#263238"/>
        <path id="Trazado_640091" data-name="Trazado 640091" d="M107.675,55.074a7.6,7.6,0,0,1,1.954.516l1.436-1.2,2.467,1.878-.777,1.705a7.624,7.624,0,0,1,1.018,1.746l1.866.164.417,3.073-1.755.656a7.561,7.561,0,0,1-.517,1.954l1.2,1.437-1.878,2.466-1.705-.776a7.621,7.621,0,0,1-1.746,1.017l-.164,1.866-3.073.418-.656-1.755a7.6,7.6,0,0,1-1.954-.517l-1.437,1.2-2.467-1.878.778-1.706a7.591,7.591,0,0,1-1.018-1.746L97.8,65.428l-.418-3.072,1.755-.656a7.606,7.606,0,0,1,.517-1.954l-1.2-1.436,1.877-2.467,1.706.777a7.624,7.624,0,0,1,1.746-1.018l.164-1.866,3.072-.417Zm-1.261,4.266a3.326,3.326,0,1,0,3.743,2.849,3.325,3.325,0,0,0-3.743-2.849" transform="translate(-6.401 -3.505)" fill="#eb6f2d" fill-rule="evenodd"/>
        <path id="Trazado_640092" data-name="Trazado 640092" d="M273.021,45.709A41.136,41.136,0,1,1,231.885,4.573a41.136,41.136,0,0,1,41.136,41.136" transform="translate(-12.538 -0.301)" fill="#fff" fill-rule="evenodd"/>
        <path id="Trazado_640093" data-name="Trazado 640093" d="M273,45.695s-.028-.226-.059-.666-.069-1.105-.122-1.953l-.084-1.438c-.055-.527-.167-1.1-.26-1.718s-.2-1.289-.317-2a22.394,22.394,0,0,0-.536-2.243,39.2,39.2,0,0,0-4.554-10.916,40.883,40.883,0,0,0-10.42-11.624l-1.771-1.319c-.621-.408-1.277-.782-1.926-1.181-.661-.376-1.287-.833-2-1.155l-2.126-1.02-1.081-.513-1.136-.413-2.3-.84c-.782-.259-1.6-.425-2.411-.646a20.618,20.618,0,0,0-2.478-.561,37.976,37.976,0,0,0-5.175-.6c-.883-.031-1.772-.117-2.668-.1l-2.708.14c-.454.032-.913.029-1.368.089l-1.364.209c-.911.151-1.837.258-2.752.448a43.364,43.364,0,0,0-5.456,1.6A42.661,42.661,0,0,0,212.6,9.615c-.864.468-1.692,1.014-2.548,1.521-.419.268-.865.5-1.264.8l-1.2.9a46.163,46.163,0,0,0-4.64,3.944l-2.079,2.29-.523.576-.47.622-.936,1.253-.941,1.258-.823,1.345-.823,1.355-.412.679-.349.716L194.2,29.758l-1.109,3.029a43.657,43.657,0,0,0-2.111,12.9A43.72,43.72,0,0,0,193.083,58.6q.558,1.521,1.11,3.03l1.389,2.885.349.716.412.68.823,1.355.823,1.346.941,1.258.936,1.253.47.623.523.576,2.079,2.29a45.849,45.849,0,0,0,4.641,3.944l1.2.9c.4.3.846.531,1.264.8.855.507,1.684,1.053,2.548,1.522a42.674,42.674,0,0,0,5.336,2.345,43.365,43.365,0,0,0,5.456,1.6c.917.19,1.842.3,2.753.448l1.365.209c.454.06.913.057,1.367.089l2.708.14c.9.013,1.785-.073,2.668-.1a38.006,38.006,0,0,0,5.176-.6,20.648,20.648,0,0,0,2.477-.561c.811-.22,1.629-.387,2.412-.646l2.3-.84,1.136-.413,1.081-.514,2.125-1.019c.71-.322,1.336-.779,2-1.156.648-.4,1.3-.773,1.926-1.181l1.771-1.319A40.905,40.905,0,0,0,267.074,66.63a39.216,39.216,0,0,0,4.552-10.916,22.334,22.334,0,0,0,.536-2.243q.17-1.069.317-2c.092-.62.2-1.191.26-1.718l.084-1.438q.08-1.27.122-1.952c.031-.441.059-.666.059-.666s.006.225-.008.666q-.027.685-.075,1.958c-.019.432-.039.914-.062,1.443-.048.529-.152,1.1-.237,1.727s-.19,1.3-.3,2.013a22.157,22.157,0,0,1-.518,2.258,39.024,39.024,0,0,1-4.5,11.008,41.014,41.014,0,0,1-10.444,11.759l-1.782,1.337c-.625.414-1.286.793-1.938,1.2-.665.382-1.3.846-2.011,1.173l-2.141,1.036-1.089.52-1.145.421-2.324.854c-.789.264-1.616.435-2.434.66a21.2,21.2,0,0,1-2.5.574,38.549,38.549,0,0,1-5.226.618c-.89.034-1.789.121-2.694.11l-2.736-.135c-.459-.031-.922-.028-1.382-.087l-1.379-.209c-.921-.15-1.857-.257-2.783-.447a43.631,43.631,0,0,1-5.519-1.609,42.82,42.82,0,0,1-5.4-2.364c-.874-.473-1.713-1.023-2.579-1.535-.423-.271-.876-.5-1.279-.807l-1.22-.91a46.4,46.4,0,0,1-4.7-3.985L200.5,72.626l-.53-.583-.476-.629-.948-1.267-.952-1.273-.835-1.36-.832-1.371-.418-.688-.354-.723-1.407-2.919q-.559-1.528-1.124-3.065a44.137,44.137,0,0,1-2.135-13.06,44.1,44.1,0,0,1,2.138-13.055l1.125-3.063q.7-1.466,1.406-2.919l.354-.723.418-.687.833-1.371.834-1.36.952-1.272.948-1.267.476-.629.53-.582,2.1-2.313a46.386,46.386,0,0,1,4.7-3.984l1.219-.911c.4-.3.856-.535,1.279-.806.866-.512,1.7-1.062,2.579-1.534a42.866,42.866,0,0,1,5.4-2.364A43.505,43.505,0,0,1,223.3,5.241c.926-.191,1.862-.3,2.782-.448l1.38-.209c.459-.059.923-.056,1.381-.087l2.736-.135c.905-.012,1.8.076,2.694.109a38.388,38.388,0,0,1,5.225.618,21.068,21.068,0,0,1,2.5.573c.817.225,1.643.4,2.433.66l2.324.854L247.9,7.6l1.09.52,2.141,1.036c.715.327,1.346.789,2.011,1.172.653.4,1.313.784,1.938,1.2l1.782,1.337a41,41,0,0,1,10.445,11.759,38.99,38.99,0,0,1,4.5,11.009,22.157,22.157,0,0,1,.518,2.258q.157,1.076.3,2.013c.085.624.19,1.2.237,1.727q.034.8.062,1.444.048,1.274.075,1.957c.014.441.008.667.008.667" transform="translate(-12.521 -0.287)" fill="#e8505b"/>
        <path id="Trazado_640094" data-name="Trazado 640094" d="M211.372,46.021a20.7,20.7,0,1,1,19.3,22.012,20.7,20.7,0,0,1-19.3-22.012" transform="translate(-13.891 -1.753)" fill="#f5f5f5"/>
        <path id="Trazado_640095" data-name="Trazado 640095" d="M211.369,46.008a1.746,1.746,0,0,1,.02.337c0,.246.006.572.009.984,0,.219,0,.46,0,.724s.051.555.079.87a15.109,15.109,0,0,0,.3,2.154,19.78,19.78,0,0,0,1.94,5.609,20.51,20.51,0,0,0,24.008,10.325,18.822,18.822,0,0,0,5.35-2.444,23.2,23.2,0,0,0,2.445-1.818,23.145,23.145,0,0,0,2.155-2.237,19.832,19.832,0,0,0,3.287-5.433,21.9,21.9,0,0,0,1.476-6.372,21.894,21.894,0,0,0-.629-6.513,19.828,19.828,0,0,0-2.548-5.819,18.792,18.792,0,0,0-4.031-4.623,18.84,18.84,0,0,0-4.985-3.123,20.563,20.563,0,0,0-25.152,7.1,19.783,19.783,0,0,0-2.657,5.308,15.16,15.16,0,0,0-.577,2.1c-.069.307-.146.59-.192.852s-.066.5-.1.717l-.138.974a1.731,1.731,0,0,1-.064.332,1.681,1.681,0,0,1,.014-.335c.022-.246.052-.571.091-.983q.032-.328.072-.725c.04-.264.109-.549.171-.861a14.65,14.65,0,0,1,.539-2.125,19.6,19.6,0,0,1,2.613-5.4,20.849,20.849,0,0,1,14.651-8.951,20.94,20.94,0,0,1,10.906,1.6,19.244,19.244,0,0,1,5.1,3.179,19.118,19.118,0,0,1,4.133,4.721,20.254,20.254,0,0,1,2.614,5.952,22.306,22.306,0,0,1,.647,6.667,22.324,22.324,0,0,1-1.514,6.522,20.24,20.24,0,0,1-3.371,5.558,19.126,19.126,0,0,1-4.713,4.138,19.18,19.18,0,0,1-5.477,2.484,20.938,20.938,0,0,1-11.019.158,20.856,20.856,0,0,1-13.356-10.79,19.617,19.617,0,0,1-1.884-5.7,14.732,14.732,0,0,1-.257-2.178c-.02-.317-.051-.609-.056-.876s.016-.508.022-.728c.017-.414.03-.74.039-.987a1.66,1.66,0,0,1,.03-.334" transform="translate(-13.888 -1.741)" fill="#263238"/>
        <path id="Trazado_640096" data-name="Trazado 640096" d="M242.866,48.657a4.151,4.151,0,0,1-.732.049l-2.011.04c-1.708.024-4.086.04-6.772.044h-.133v-.133c0-.43,0-.883,0-1.343,0-3,.015-5.713.039-7.678.018-.947.032-1.731.042-2.326a5.447,5.447,0,0,1,.052-.854,5.167,5.167,0,0,1,.052.854c.011.6.025,1.379.043,2.326.024,1.965.039,4.679.039,7.678,0,.46,0,.913,0,1.343l-.134-.133c2.685,0,5.064.02,6.772.044l2.011.04a4.152,4.152,0,0,1,.732.049" transform="translate(-15.33 -2.396)" fill="#263238"/>
        <path id="Trazado_640097" data-name="Trazado 640097" d="M233.42,30.316a5.771,5.771,0,0,1,.134,1.739,5.771,5.771,0,0,1-.134,1.739,5.771,5.771,0,0,1-.134-1.739,5.771,5.771,0,0,1,.134-1.739" transform="translate(-15.334 -1.993)" fill="#263238"/>
        <path id="Trazado_640098" data-name="Trazado 640098" d="M243.354,33.3a5.61,5.61,0,0,1-1.117,1.306,5.553,5.553,0,0,1-1.306,1.117,5.6,5.6,0,0,1,1.117-1.306,5.581,5.581,0,0,1,1.306-1.117" transform="translate(-15.836 -2.189)" fill="#263238"/>
        <path id="Trazado_640099" data-name="Trazado 640099" d="M249.222,39.753a7.243,7.243,0,0,1-1.427.952,7.146,7.146,0,0,1-1.5.828,7.621,7.621,0,0,1,2.929-1.78" transform="translate(-16.189 -2.612)" fill="#263238"/>
        <path id="Trazado_640100" data-name="Trazado 640100" d="M252.553,49.314a21.109,21.109,0,0,1-4.742,0,21.109,21.109,0,0,1,4.742,0" transform="translate(-16.289 -3.233)" fill="#263238"/>
        <path id="Trazado_640101" data-name="Trazado 640101" d="M217.378,48.975a18.836,18.836,0,0,1-4.479,0,18.835,18.835,0,0,1,4.479,0" transform="translate(-13.994 -3.21)" fill="#263238"/>
        <path id="Trazado_640102" data-name="Trazado 640102" d="M219.932,56.109a9.758,9.758,0,0,1-1.692,1.535,9.84,9.84,0,0,1-1.86,1.327,9.8,9.8,0,0,1,1.692-1.535,9.869,9.869,0,0,1,1.86-1.327" transform="translate(-14.223 -3.688)" fill="#263238"/>
        <path id="Trazado_640103" data-name="Trazado 640103" d="M226.155,61.618a15.186,15.186,0,0,1-1.152,2,15.213,15.213,0,0,1-1.222,1.954,7.525,7.525,0,0,1,.992-2.092,7.529,7.529,0,0,1,1.382-1.858" transform="translate(-14.709 -4.05)" fill="#263238"/>
        <path id="Trazado_640104" data-name="Trazado 640104" d="M233.42,68.391a10.634,10.634,0,0,1-.134-2.371,10.634,10.634,0,0,1,.134-2.371,10.634,10.634,0,0,1,.134,2.371,10.634,10.634,0,0,1-.134,2.371" transform="translate(-15.334 -4.184)" fill="#263238"/>
        <path id="Trazado_640105" data-name="Trazado 640105" d="M244.119,65.125a10.229,10.229,0,0,1-3.548-3.093,21.889,21.889,0,0,1,1.77,1.552,21.833,21.833,0,0,1,1.779,1.542" transform="translate(-15.813 -4.077)" fill="#263238"/>
        <path id="Trazado_640106" data-name="Trazado 640106" d="M249.3,59.605a8.243,8.243,0,0,1-1.57-1.381,8.186,8.186,0,0,1-1.38-1.57,8.261,8.261,0,0,1,1.57,1.38,8.243,8.243,0,0,1,1.381,1.571" transform="translate(-16.192 -3.724)" fill="#263238"/>
        <path id="Trazado_640107" data-name="Trazado 640107" d="M219.767,41.978a6.331,6.331,0,0,1-1.386-1.2,6.368,6.368,0,0,1-1.2-1.386,6.369,6.369,0,0,1,1.386,1.2,6.331,6.331,0,0,1,1.2,1.386" transform="translate(-14.276 -2.589)" fill="#263238"/>
        <path id="Trazado_640108" data-name="Trazado 640108" d="M226.107,35.307a6.078,6.078,0,0,1-1.362-1.167,6.087,6.087,0,0,1-1.173-1.357,6.124,6.124,0,0,1,1.362,1.167,6.086,6.086,0,0,1,1.172,1.357" transform="translate(-14.696 -2.155)" fill="#263238"/>
        <path id="Trazado_640109" data-name="Trazado 640109" d="M260.445,29.552a10.86,10.86,0,1,1-10.86-10.86,10.86,10.86,0,0,1,10.86,10.86" transform="translate(-15.692 -1.229)" fill="#fd4c1b"/>
        <path id="Trazado_640110" data-name="Trazado 640110" d="M255.192,26.691a9.766,9.766,0,0,1-1.329,1.74c-.867,1.032-2.091,2.438-3.464,3.968l-1.105,1.224-.159.176-.175-.157c-1.236-1.112-2.3-2.1-3.049-2.814a6.516,6.516,0,0,1-1.137-1.212,6.554,6.554,0,0,1,1.34.983c.8.655,1.908,1.595,3.16,2.688l-.334.019,1.1-1.23c1.373-1.531,2.637-2.9,3.57-3.873a9.827,9.827,0,0,1,1.585-1.51" transform="translate(-16.089 -1.754)" fill="#fafafa"/>
        <path id="Trazado_640111" data-name="Trazado 640111" d="M145,221.465c-.09-.1.615-.88,1.573-1.742s1.81-1.482,1.9-1.382-.615.88-1.574,1.743-1.81,1.481-1.9,1.381" transform="translate(-9.53 -14.351)" fill="#e8505b"/>
        <path id="Trazado_640112" data-name="Trazado 640112" d="M137.563,228.152c-.09-.1.615-.88,1.573-1.742s1.81-1.482,1.9-1.382-.615.88-1.573,1.743-1.81,1.481-1.9,1.381" transform="translate(-9.042 -14.791)" fill="#e8505b"/>
        <path id="Trazado_640113" data-name="Trazado 640113" d="M130.128,234.84c-.09-.1.615-.88,1.574-1.742s1.809-1.482,1.9-1.382-.615.88-1.574,1.743-1.81,1.481-1.9,1.381" transform="translate(-8.553 -15.23)" fill="#e8505b"/>
        <path id="Trazado_640114" data-name="Trazado 640114" d="M122.692,241.527c-.09-.1.615-.88,1.574-1.742s1.809-1.482,1.9-1.381-.614.879-1.573,1.742-1.81,1.481-1.9,1.381" transform="translate(-8.064 -15.67)" fill="#e8505b"/>
        <path id="Trazado_640115" data-name="Trazado 640115" d="M115.257,248.214c-.09-.1.615-.88,1.574-1.742s1.809-1.482,1.9-1.382-.615.88-1.574,1.743-1.81,1.481-1.9,1.381" transform="translate(-7.576 -16.109)" fill="#e8505b"/>
        <path id="Trazado_640116" data-name="Trazado 640116" d="M126.562,281.232A41.136,41.136,0,1,1,85.426,240.1a41.136,41.136,0,0,1,41.136,41.136" transform="translate(-2.911 -15.782)" fill="#fff" fill-rule="evenodd"/>
        <path id="Trazado_640117" data-name="Trazado 640117" d="M126.545,281.218s-.028-.226-.059-.666-.069-1.105-.122-1.953l-.084-1.438c-.055-.527-.167-1.1-.26-1.718s-.2-1.289-.317-2a22.39,22.39,0,0,0-.536-2.243,39.2,39.2,0,0,0-4.554-10.916,40.869,40.869,0,0,0-10.42-11.624l-1.77-1.319c-.622-.408-1.278-.782-1.926-1.181-.661-.376-1.288-.833-2-1.155l-2.126-1.02-1.081-.513-1.136-.413-2.3-.84c-.782-.259-1.6-.425-2.411-.646a20.8,20.8,0,0,0-2.478-.561,38.122,38.122,0,0,0-5.175-.6c-.883-.031-1.772-.117-2.668-.1l-2.708.14c-.454.032-.913.028-1.368.089l-1.364.209c-.911.151-1.837.258-2.752.448a43.362,43.362,0,0,0-5.456,1.6,42.662,42.662,0,0,0-5.335,2.345c-.864.468-1.692,1.014-2.548,1.521-.419.268-.865.5-1.264.8l-1.2.9a46.162,46.162,0,0,0-4.64,3.944l-2.079,2.29-.523.576-.47.622-.936,1.253-.941,1.258-.823,1.345L49.888,261l-.413.679-.349.716-1.389,2.884-1.109,3.029a40.513,40.513,0,0,0,0,25.808l1.109,3.03q.7,1.448,1.389,2.885l.349.716.412.679.823,1.356.823,1.346.941,1.258.936,1.253.47.622.523.576,2.08,2.29a45.735,45.735,0,0,0,4.641,3.945l1.2.9c.4.3.846.531,1.264.8.856.507,1.684,1.053,2.548,1.522a42.669,42.669,0,0,0,5.336,2.345,43.36,43.36,0,0,0,5.456,1.6c.917.19,1.842.3,2.753.448l1.365.209c.454.06.914.057,1.367.089l2.708.14c.9.013,1.785-.073,2.668-.1a37.979,37.979,0,0,0,5.176-.6,20.653,20.653,0,0,0,2.477-.562c.811-.22,1.629-.387,2.412-.646l2.3-.84,1.136-.414,1.081-.513,2.126-1.019c.709-.322,1.336-.779,2-1.156.648-.4,1.3-.773,1.926-1.181l1.771-1.319a40.906,40.906,0,0,0,10.419-11.624,39.215,39.215,0,0,0,4.552-10.916,22.336,22.336,0,0,0,.536-2.243q.17-1.069.317-2c.092-.62.2-1.191.26-1.718l.084-1.438q.08-1.27.122-1.952c.031-.44.059-.666.059-.666s.006.226-.008.666q-.027.685-.075,1.958c-.019.432-.039.914-.062,1.443-.048.529-.152,1.1-.236,1.727s-.191,1.3-.3,2.013a22.153,22.153,0,0,1-.518,2.258,39.051,39.051,0,0,1-4.5,11.008A41,41,0,0,1,110.4,314.051l-1.782,1.337c-.625.414-1.286.793-1.938,1.2-.665.382-1.3.846-2.011,1.172l-2.141,1.036-1.089.52-1.145.421-2.324.855c-.789.263-1.616.434-2.434.659a21.2,21.2,0,0,1-2.5.574,38.537,38.537,0,0,1-5.225.618c-.891.034-1.79.121-2.7.109l-2.736-.135c-.459-.031-.922-.028-1.382-.087l-1.379-.209c-.921-.15-1.857-.257-2.783-.447a43.632,43.632,0,0,1-5.519-1.609,43.022,43.022,0,0,1-5.4-2.364c-.874-.473-1.713-1.023-2.579-1.535-.423-.271-.875-.5-1.279-.807l-1.22-.91a46.4,46.4,0,0,1-4.7-3.985l-2.106-2.315-.53-.582-.476-.629-.948-1.267-.952-1.273-.834-1.361-.833-1.371-.418-.688-.354-.724-1.407-2.918q-.559-1.528-1.124-3.065a40.974,40.974,0,0,1,0-26.115l1.125-3.064,1.406-2.918.354-.723.418-.687.833-1.371.834-1.36.952-1.272.948-1.267.476-.629.53-.582,2.1-2.313a46.489,46.489,0,0,1,4.7-3.984l1.219-.911c.4-.3.856-.535,1.28-.806.865-.512,1.7-1.062,2.578-1.535a42.994,42.994,0,0,1,5.4-2.363,43.664,43.664,0,0,1,5.518-1.609c.926-.19,1.862-.3,2.783-.447L81,240.107c.459-.059.923-.056,1.382-.087l2.736-.135c.905-.012,1.8.076,2.694.109a38.387,38.387,0,0,1,5.225.618,20.989,20.989,0,0,1,2.5.573c.817.224,1.643.4,2.433.66l2.324.854,1.145.421,1.089.52,2.142,1.036c.714.326,1.345.789,2.011,1.172.653.4,1.313.784,1.939,1.2l1.781,1.337a41,41,0,0,1,10.445,11.759,38.99,38.99,0,0,1,4.5,11.009,22.2,22.2,0,0,1,.518,2.257q.157,1.078.3,2.014c.085.624.19,1.2.237,1.727q.034.8.062,1.443.048,1.275.075,1.958c.014.441.008.667.008.667" transform="translate(-2.894 -15.768)" fill="#e8505b"/>
        <path id="Trazado_640118" data-name="Trazado 640118" d="M107.505,301.222a4.562,4.562,0,0,1-.793.052l-2.276.049-8.367.082-27.607.077H66.233v-.26c.032-10.312.06-19.56.081-26.293.034-3.3.061-5.985.08-7.9.021-.891.036-1.6.048-2.14a4.112,4.112,0,0,1,.051-.746,4.074,4.074,0,0,1,.05.746c.012.537.028,1.249.048,2.14.02,1.915.048,4.6.081,7.9.021,6.733.05,15.981.08,26.293l-.26-.26h1.969l27.607.077,8.367.082,2.276.05a4.564,4.564,0,0,1,.793.052" transform="translate(-4.354 -17.363)" fill="#263238"/>
        <path id="Trazado_640119" data-name="Trazado 640119" d="M103.235,273.772a10.583,10.583,0,0,1-1.224,1.169l-3.462,3.04c-2.938,2.549-7.02,6.043-11.55,9.878l-.686.58-.177.149-.168-.157-5.138-4.773.32.007-7.544,6.222-2.189,1.751a4.813,4.813,0,0,1-.818.585,4.881,4.881,0,0,1,.717-.705l2.1-1.857,7.423-6.366.162-.139.159.147,5.162,4.747-.345-.007.686-.581c4.529-3.834,8.649-7.284,11.648-9.761l3.57-2.914a10.594,10.594,0,0,1,1.355-1.014" transform="translate(-4.641 -17.995)" fill="#263238"/>
        <path id="Trazado_640120" data-name="Trazado 640120" d="M104.85,282.332a12.846,12.846,0,0,1-.18-2.559c-.047-1.586-.077-3.785-.08-6.234l.261.26h-.443c-2.551,0-4.861-.03-6.532-.077a14.07,14.07,0,0,1-2.706-.184,13.976,13.976,0,0,1,2.706-.184c1.671-.048,3.981-.077,6.532-.077h.7v.261c0,2.45-.034,4.648-.08,6.234a12.845,12.845,0,0,1-.18,2.559" transform="translate(-6.256 -17.963)" fill="#263238"/>
        <path id="Trazado_640121" data-name="Trazado 640121" d="M82.532,157.916A41.136,41.136,0,1,1,41.4,116.78a41.136,41.136,0,0,1,41.136,41.136" transform="translate(-0.017 -7.676)" fill="#fff" fill-rule="evenodd"/>
        <path id="Trazado_640122" data-name="Trazado 640122" d="M82.515,157.9s-.028-.226-.059-.666-.069-1.105-.122-1.953l-.084-1.438c-.055-.527-.167-1.1-.26-1.719l-.317-2a22.407,22.407,0,0,0-.537-2.243,39.193,39.193,0,0,0-4.553-10.916,40.883,40.883,0,0,0-10.42-11.624l-1.771-1.319c-.621-.408-1.277-.782-1.926-1.181-.661-.376-1.287-.833-2-1.155l-2.126-1.02-1.081-.512-1.136-.414-2.3-.84c-.782-.259-1.6-.425-2.411-.646a20.8,20.8,0,0,0-2.478-.561,38.273,38.273,0,0,0-5.175-.6c-.883-.03-1.772-.116-2.668-.1l-2.708.14c-.454.032-.913.028-1.368.089l-1.364.209c-.911.151-1.837.258-2.752.448a43.364,43.364,0,0,0-5.456,1.6,42.662,42.662,0,0,0-5.335,2.345c-.864.468-1.692,1.014-2.548,1.521-.419.268-.865.5-1.264.8l-1.2.9a46.164,46.164,0,0,0-4.64,3.944l-2.079,2.29-.523.576-.47.622-.936,1.253L7.5,134.986l-.823,1.345-.823,1.355-.412.679-.349.716-1.389,2.884L2.6,144.994a40.521,40.521,0,0,0,0,25.808q.558,1.521,1.11,3.03.7,1.449,1.389,2.885l.349.716.412.68.823,1.355.823,1.345.941,1.259.936,1.253.47.622.523.576,2.079,2.29a45.939,45.939,0,0,0,4.641,3.944l1.205.9c.4.3.846.531,1.264.8.855.507,1.684,1.053,2.548,1.522a42.672,42.672,0,0,0,5.336,2.345,43.362,43.362,0,0,0,5.456,1.6c.917.19,1.842.3,2.753.448l1.365.209c.454.06.913.057,1.367.089l2.708.14c.9.013,1.785-.073,2.668-.1a38.006,38.006,0,0,0,5.176-.6,20.65,20.65,0,0,0,2.477-.561c.811-.221,1.629-.387,2.412-.646l2.3-.84,1.136-.414,1.081-.513,2.125-1.019c.71-.322,1.336-.779,2-1.156.648-.4,1.3-.773,1.926-1.181l1.771-1.319a40.918,40.918,0,0,0,10.419-11.624,39.216,39.216,0,0,0,4.552-10.916,22.331,22.331,0,0,0,.536-2.243q.17-1.069.317-2c.092-.62.2-1.191.26-1.718l.084-1.438q.08-1.27.122-1.953c.031-.439.059-.665.059-.665s.006.226-.008.666q-.027.685-.075,1.958c-.019.432-.039.914-.062,1.443-.048.529-.152,1.1-.237,1.727s-.19,1.3-.3,2.013a22.154,22.154,0,0,1-.518,2.258,39.052,39.052,0,0,1-4.5,11.008,41.014,41.014,0,0,1-10.444,11.759l-1.782,1.337c-.625.414-1.286.793-1.938,1.2-.665.382-1.3.845-2.011,1.173L58.5,195.478l-1.09.52-1.144.421-2.324.854c-.789.264-1.616.435-2.434.66a21.2,21.2,0,0,1-2.5.574,38.549,38.549,0,0,1-5.226.618c-.89.034-1.789.121-2.694.11l-2.736-.135c-.459-.031-.922-.028-1.382-.087l-1.379-.209c-.921-.15-1.857-.257-2.783-.447a43.631,43.631,0,0,1-5.519-1.609,42.956,42.956,0,0,1-5.4-2.364c-.874-.473-1.713-1.023-2.579-1.535-.423-.271-.876-.5-1.279-.807l-1.22-.91a46.4,46.4,0,0,1-4.7-3.985l-2.106-2.315-.53-.582-.476-.629-.948-1.267-.952-1.272-.835-1.361-.832-1.371-.418-.688-.354-.724-1.407-2.918q-.559-1.528-1.124-3.066a40.971,40.971,0,0,1,0-26.114l1.125-3.064q.7-1.464,1.406-2.918l.354-.723.418-.687.833-1.371.834-1.36.952-1.272.948-1.267.476-.629.53-.582,2.1-2.313a46.389,46.389,0,0,1,4.7-3.984l1.219-.911c.4-.3.856-.535,1.279-.806.866-.512,1.7-1.062,2.579-1.535a42.994,42.994,0,0,1,5.4-2.363,43.5,43.5,0,0,1,5.518-1.608c.926-.191,1.862-.3,2.782-.448l1.38-.209c.459-.059.923-.056,1.381-.087l2.736-.135c.905-.012,1.8.077,2.694.109a38.387,38.387,0,0,1,5.225.618,21.069,21.069,0,0,1,2.5.573c.817.224,1.643.4,2.433.66l2.324.854,1.144.42,1.09.521,2.141,1.036c.715.327,1.346.789,2.011,1.172.653.4,1.313.784,1.938,1.2l1.782,1.337a41.018,41.018,0,0,1,10.445,11.759,38.989,38.989,0,0,1,4.5,11.009,21.932,21.932,0,0,1,.517,2.257q.158,1.078.3,2.014c.085.624.19,1.2.237,1.727q.034.8.062,1.444.048,1.274.075,1.957c.014.441.008.667.008.667" transform="translate(0 -7.662)" fill="#e8505b"/>
        <path id="Trazado_640123" data-name="Trazado 640123" d="M44.14,141.619l4.456,9.031a1.158,1.158,0,0,0,.873.633l9.966,1.448a1.158,1.158,0,0,1,.642,1.976l-7.211,7.029a1.16,1.16,0,0,0-.334,1.026l1.7,9.926a1.158,1.158,0,0,1-1.681,1.221l-8.914-4.686a1.158,1.158,0,0,0-1.078,0l-8.914,4.686a1.158,1.158,0,0,1-1.681-1.221l1.7-9.926a1.16,1.16,0,0,0-.333-1.026l-7.212-7.029a1.158,1.158,0,0,1,.642-1.976l9.966-1.448a1.158,1.158,0,0,0,.873-.633l4.456-9.031a1.158,1.158,0,0,1,2.078,0" transform="translate(-1.694 -9.266)" fill="#fafafa"/>
        <path id="Trazado_640124" data-name="Trazado 640124" d="M44.126,141.615c-.015.008-.052-.093-.191-.238a1.125,1.125,0,0,0-1.868.362l-.867,1.807-2.395,4.946q-.352.723-.727,1.495-.191.388-.388.789a1.312,1.312,0,0,1-.774.618c-1.239.212-2.481.379-3.823.586l-4.186.624-2.21.335a.961.961,0,0,0-.524,1.532l7.242,7.04a1.436,1.436,0,0,1,.439,1.419l-.228,1.343q-.228,1.35-.464,2.73-.469,2.759-.959,5.63a.925.925,0,0,0,.405,1.024.884.884,0,0,0,.554.139,1.471,1.471,0,0,0,.592-.226l2.639-1.389,5.393-2.836.69-.362a1.39,1.39,0,0,1,.905-.107,3.35,3.35,0,0,1,.756.339l.675.355,2.679,1.41,5.223,2.744a.91.91,0,0,0,1.05-.234.881.881,0,0,0,.229-.511,2.781,2.781,0,0,0-.075-.646q-.24-1.408-.475-2.789l-.918-5.4q-.111-.66-.222-1.31a1.431,1.431,0,0,1,.5-1.365l1.844-1.79,3.527-3.421,1.679-1.627a.977.977,0,0,0-.126-1.6,3.452,3.452,0,0,0-.995-.215l-1.059-.158-2.047-.305-3.8-.571-1.75-.263a8.567,8.567,0,0,1-.855-.149,1.294,1.294,0,0,1-.7-.557c-.934-1.924-1.741-3.585-2.406-4.954-.639-1.339-1.141-2.389-1.5-3.134-.158-.341-.282-.612-.378-.82a1.424,1.424,0,0,1-.114-.287,1.485,1.485,0,0,1,.159.265l.421.8,1.577,3.093,2.468,4.9a1.018,1.018,0,0,0,.556.433c.221.061.538.083.81.128l1.752.245,3.81.536,2.049.29,1.059.15a3.628,3.628,0,0,1,1.126.25,1.339,1.339,0,0,1,.683,1.043,1.37,1.37,0,0,1-.468,1.17l-1.669,1.636-3.511,3.439-1.837,1.8a.98.98,0,0,0-.368.975q.114.65.227,1.31.457,2.635.934,5.4.238,1.38.481,2.788a3.006,3.006,0,0,1,.08.773,1.359,1.359,0,0,1-.346.78,1.389,1.389,0,0,1-1.593.354l-5.259-2.753L44.588,170l-.675-.356a3.1,3.1,0,0,0-.632-.293.911.911,0,0,0-.591.07l-.675.354-5.394,2.834-2.64,1.386a1.927,1.927,0,0,1-.78.28,1.37,1.37,0,0,1-.846-.213,1.41,1.41,0,0,1-.62-1.51q.5-2.867.972-5.628.238-1.379.472-2.729c.078-.449.155-.9.233-1.341a.975.975,0,0,0-.306-1.022l-7.242-7.107a1.357,1.357,0,0,1-.219-1.3,1.334,1.334,0,0,1,.969-.862l2.243-.327,4.191-.592,3.787-.543a1.008,1.008,0,0,0,.6-.469l.389-.771.744-1.486,2.469-4.91.906-1.787a1.225,1.225,0,0,1,1.23-.748,1.148,1.148,0,0,1,.805.419.716.716,0,0,1,.152.271" transform="translate(-1.68 -9.263)" fill="#263238"/>
        <path id="Trazado_640125" data-name="Trazado 640125" d="M82.532,157.916A41.136,41.136,0,1,1,41.4,116.78a41.136,41.136,0,0,1,41.136,41.136" transform="translate(-0.017 -7.676)" fill="#fff" fill-rule="evenodd"/>
        <path id="Trazado_640126" data-name="Trazado 640126" d="M82.515,157.9s-.028-.226-.059-.666-.069-1.105-.122-1.953l-.084-1.438c-.055-.527-.167-1.1-.26-1.719l-.317-2a22.407,22.407,0,0,0-.537-2.243,39.193,39.193,0,0,0-4.553-10.916,40.883,40.883,0,0,0-10.42-11.624l-1.771-1.319c-.621-.408-1.277-.782-1.926-1.181-.661-.376-1.287-.833-2-1.155l-2.126-1.02-1.081-.512-1.136-.414-2.3-.84c-.782-.259-1.6-.425-2.411-.646a20.8,20.8,0,0,0-2.478-.561,38.273,38.273,0,0,0-5.175-.6c-.883-.03-1.772-.116-2.668-.1l-2.708.14c-.454.032-.913.028-1.368.089l-1.364.209c-.911.151-1.837.258-2.752.448a43.364,43.364,0,0,0-5.456,1.6,42.662,42.662,0,0,0-5.335,2.345c-.864.468-1.692,1.014-2.548,1.521-.419.268-.865.5-1.264.8l-1.2.9a46.164,46.164,0,0,0-4.64,3.944l-2.079,2.29-.523.576-.47.622-.936,1.253L7.5,134.986l-.823,1.345-.823,1.355-.412.679-.349.716-1.389,2.884L2.6,144.994a40.521,40.521,0,0,0,0,25.808q.558,1.521,1.11,3.03.7,1.449,1.389,2.885l.349.716.412.68.823,1.355.823,1.345.941,1.259.936,1.253.47.622.523.576,2.079,2.29a45.939,45.939,0,0,0,4.641,3.944l1.205.9c.4.3.846.531,1.264.8.855.507,1.684,1.053,2.548,1.522a42.672,42.672,0,0,0,5.336,2.345,43.362,43.362,0,0,0,5.456,1.6c.917.19,1.842.3,2.753.448l1.365.209c.454.06.913.057,1.367.089l2.708.14c.9.013,1.785-.073,2.668-.1a38.006,38.006,0,0,0,5.176-.6,20.65,20.65,0,0,0,2.477-.561c.811-.221,1.629-.387,2.412-.646l2.3-.84,1.136-.414,1.081-.513,2.125-1.019c.71-.322,1.336-.779,2-1.156.648-.4,1.3-.773,1.926-1.181l1.771-1.319a40.918,40.918,0,0,0,10.419-11.624,39.216,39.216,0,0,0,4.552-10.916,22.331,22.331,0,0,0,.536-2.243q.17-1.069.317-2c.092-.62.2-1.191.26-1.718l.084-1.438q.08-1.27.122-1.953c.031-.439.059-.665.059-.665s.006.226-.008.666q-.027.685-.075,1.958c-.019.432-.039.914-.062,1.443-.048.529-.152,1.1-.237,1.727s-.19,1.3-.3,2.013a22.154,22.154,0,0,1-.518,2.258,39.052,39.052,0,0,1-4.5,11.008,41.014,41.014,0,0,1-10.444,11.759l-1.782,1.337c-.625.414-1.286.793-1.938,1.2-.665.382-1.3.845-2.011,1.173L58.5,195.478l-1.09.52-1.144.421-2.324.854c-.789.264-1.616.435-2.434.66a21.2,21.2,0,0,1-2.5.574,38.549,38.549,0,0,1-5.226.618c-.89.034-1.789.121-2.694.11l-2.736-.135c-.459-.031-.922-.028-1.382-.087l-1.379-.209c-.921-.15-1.857-.257-2.783-.447a43.631,43.631,0,0,1-5.519-1.609,42.956,42.956,0,0,1-5.4-2.364c-.874-.473-1.713-1.023-2.579-1.535-.423-.271-.876-.5-1.279-.807l-1.22-.91a46.4,46.4,0,0,1-4.7-3.985l-2.106-2.315-.53-.582-.476-.629-.948-1.267-.952-1.272-.835-1.361-.832-1.371-.418-.688-.354-.724-1.407-2.918q-.559-1.528-1.124-3.066a40.971,40.971,0,0,1,0-26.114l1.125-3.064q.7-1.464,1.406-2.918l.354-.723.418-.687.833-1.371.834-1.36.952-1.272.948-1.267.476-.629.53-.582,2.1-2.313a46.389,46.389,0,0,1,4.7-3.984l1.219-.911c.4-.3.856-.535,1.279-.806.866-.512,1.7-1.062,2.579-1.535a42.994,42.994,0,0,1,5.4-2.363,43.5,43.5,0,0,1,5.518-1.608c.926-.191,1.862-.3,2.782-.448l1.38-.209c.459-.059.923-.056,1.381-.087l2.736-.135c.905-.012,1.8.077,2.694.109a38.387,38.387,0,0,1,5.225.618,21.069,21.069,0,0,1,2.5.573c.817.224,1.643.4,2.433.66l2.324.854,1.144.42,1.09.521,2.141,1.036c.715.327,1.346.789,2.011,1.172.653.4,1.313.784,1.938,1.2l1.782,1.337a41.018,41.018,0,0,1,10.445,11.759,38.989,38.989,0,0,1,4.5,11.009,21.932,21.932,0,0,1,.517,2.257q.158,1.078.3,2.014c.085.624.19,1.2.237,1.727q.034.8.062,1.444.048,1.274.075,1.957c.014.441.008.667.008.667" transform="translate(0 -7.662)" fill="#e8505b"/>
        <path id="Trazado_640127" data-name="Trazado 640127" d="M44.14,141.619l4.456,9.031a1.158,1.158,0,0,0,.873.633l9.966,1.448a1.158,1.158,0,0,1,.642,1.976l-7.211,7.029a1.16,1.16,0,0,0-.334,1.026l1.7,9.926a1.158,1.158,0,0,1-1.681,1.221l-8.914-4.686a1.158,1.158,0,0,0-1.078,0l-8.914,4.686a1.158,1.158,0,0,1-1.681-1.221l1.7-9.926a1.16,1.16,0,0,0-.333-1.026l-7.212-7.029a1.158,1.158,0,0,1,.642-1.976l9.966-1.448a1.158,1.158,0,0,0,.873-.633l4.456-9.031a1.158,1.158,0,0,1,2.078,0" transform="translate(-1.694 -9.266)" fill="#fafafa"/>
        <path id="Trazado_640128" data-name="Trazado 640128" d="M44.126,141.615c-.015.008-.052-.093-.191-.238a1.125,1.125,0,0,0-1.868.362l-.867,1.807-2.395,4.946q-.352.723-.727,1.495-.191.388-.388.789a1.312,1.312,0,0,1-.774.618c-1.239.212-2.481.379-3.823.586l-4.186.624-2.21.335a.961.961,0,0,0-.524,1.532l7.242,7.04a1.436,1.436,0,0,1,.439,1.419l-.228,1.343q-.228,1.35-.464,2.73-.469,2.759-.959,5.63a.925.925,0,0,0,.405,1.024.884.884,0,0,0,.554.139,1.471,1.471,0,0,0,.592-.226l2.639-1.389,5.393-2.836.69-.362a1.39,1.39,0,0,1,.905-.107,3.35,3.35,0,0,1,.756.339l.675.355,2.679,1.41,5.223,2.744a.91.91,0,0,0,1.05-.234.881.881,0,0,0,.229-.511,2.781,2.781,0,0,0-.075-.646q-.24-1.408-.475-2.789l-.918-5.4q-.111-.66-.222-1.31a1.431,1.431,0,0,1,.5-1.365l1.844-1.79,3.527-3.421,1.679-1.627a.977.977,0,0,0-.126-1.6,3.452,3.452,0,0,0-.995-.215l-1.059-.158-2.047-.305-3.8-.571-1.75-.263a8.567,8.567,0,0,1-.855-.149,1.294,1.294,0,0,1-.7-.557c-.934-1.924-1.741-3.585-2.406-4.954-.639-1.339-1.141-2.389-1.5-3.134-.158-.341-.282-.612-.378-.82a1.424,1.424,0,0,1-.114-.287,1.485,1.485,0,0,1,.159.265l.421.8,1.577,3.093,2.468,4.9a1.018,1.018,0,0,0,.556.433c.221.061.538.083.81.128l1.752.245,3.81.536,2.049.29,1.059.15a3.628,3.628,0,0,1,1.126.25,1.339,1.339,0,0,1,.683,1.043,1.37,1.37,0,0,1-.468,1.17l-1.669,1.636-3.511,3.439-1.837,1.8a.98.98,0,0,0-.368.975q.114.65.227,1.31.457,2.635.934,5.4.238,1.38.481,2.788a3.006,3.006,0,0,1,.08.773,1.359,1.359,0,0,1-.346.78,1.389,1.389,0,0,1-1.593.354l-5.259-2.753L44.588,170l-.675-.356a3.1,3.1,0,0,0-.632-.293.911.911,0,0,0-.591.07l-.675.354-5.394,2.834-2.64,1.386a1.927,1.927,0,0,1-.78.28,1.37,1.37,0,0,1-.846-.213,1.41,1.41,0,0,1-.62-1.51q.5-2.867.972-5.628.238-1.379.472-2.729c.078-.449.155-.9.233-1.341a.975.975,0,0,0-.306-1.022l-7.242-7.107a1.357,1.357,0,0,1-.219-1.3,1.334,1.334,0,0,1,.969-.862l2.243-.327,4.191-.592,3.787-.543a1.008,1.008,0,0,0,.6-.469l.389-.771.744-1.486,2.469-4.91.906-1.787a1.225,1.225,0,0,1,1.23-.748,1.148,1.148,0,0,1,.805.419.716.716,0,0,1,.152.271" transform="translate(-1.68 -9.263)" fill="#263238"/>
      </g>
    </g>
  </g>
</svg>
