<svg xmlns="http://www.w3.org/2000/svg" xmlns:xlink="http://www.w3.org/1999/xlink" width="150" height="150" viewBox="0 0 150 150">
  <defs>
    <filter id="Elipse_6633" x="0" y="0" width="150" height="150" filterUnits="userSpaceOnUse">
      <feOffset dy="3" input="SourceAlpha"/>
      <feGaussianBlur stdDeviation="3" result="blur"/>
      <feFlood flood-opacity="0.161"/>
      <feComposite operator="in" in2="blur"/>
      <feComposite in="SourceGraphic"/>
    </filter>
  </defs>
  <g id="Grupo_1034472" data-name="Grupo 1034472" transform="translate(-732.828 -3910.289)">
    <g id="Grupo_1034471" data-name="Grupo 1034471">
      <g transform="matrix(1, 0, 0, 1, 732.83, 3910.29)" filter="url(#Elipse_6633)">
        <circle id="Elipse_6633-2" data-name="Elipse 6633" cx="66" cy="66" r="66" transform="translate(9 6)" fill="#b6e1fd"/>
      </g>
    </g>
    <g id="Grupo_882856" data-name="Grupo 882856" transform="translate(760.886 3877.296)">
      <g id="_x33_6_24_" transform="translate(0 76.191)">
        <g id="Grupo_882855" data-name="Grupo 882855" transform="translate(0 0)">
          <path id="Trazado_640130" data-name="Trazado 640130" d="M144.635,97.865h28.02a1.333,1.333,0,0,0,0-2.666h-28.02a1.333,1.333,0,1,0,0,2.666Z" transform="translate(-116.625 -91.66)" fill="#12263f"/>
          <path id="Trazado_640131" data-name="Trazado 640131" d="M10.025,167.882H38.044a1.333,1.333,0,1,0,0-2.666H10.025a1.333,1.333,0,1,0,0,2.666Z" transform="translate(-7.074 -148.643)" fill="#12263f"/>
          <path id="Trazado_640132" data-name="Trazado 640132" d="M56.258,247.387a1.333,1.333,0,0,0,1.333,1.333H85.61a1.333,1.333,0,0,0,0-2.666H57.591A1.333,1.333,0,0,0,56.258,247.387Z" transform="translate(-45.785 -214.432)" fill="#12263f"/>
          <path id="Trazado_640133" data-name="Trazado 640133" d="M26.509,336.44H1.333a1.333,1.333,0,1,0,0,2.666H26.509a1.333,1.333,0,1,0,0-2.666Z" transform="translate(0 -287.992)" fill="#12263f"/>
          <path id="Trazado_640134" data-name="Trazado 640134" d="M353.892,90.754a7.281,7.281,0,1,0-7.282-7.282A7.281,7.281,0,0,0,353.892,90.754Z" transform="translate(-282.085 -76.191)" fill="#12263f"/>
          <path id="Trazado_640135" data-name="Trazado 640135" d="M210.344,135.8c-4.181,5.856-9.78,6.535-15.8,2.958-.41-.243-2.23-1.246-2.633-1.485-9.692-5.754-19.372-3.5-25.864,5.594-2.759,3.867,3.622,7.532,6.35,3.71,3.354-4.7,7.619-6.056,12.284-4.569-2.388,4.146-4.477,8.266-7.423,14.121S167.8,166.656,161.546,163c-4.512-2.637-8.58,3.844-4.082,6.473a18.452,18.452,0,0,0,23.655-4.56,4,4,0,0,0,.57.252c4.174,1.454,9.646,5.326,11.313,6.7s4.53,8.363,6.231,11.875c2.063,4.262,8.726,1.158,6.655-3.122-1.928-3.985-5.163-11.938-7.687-13.951a63.321,63.321,0,0,0-9.289-6.321q3.383-6.553,7.076-12.937c7.88,2.414,15.37-.43,20.7-7.9C219.453,135.64,213.074,131.975,210.344,135.8Z" transform="translate(-126.559 -123.33)" fill="#12263f"/>
        </g>
      </g>
    </g>
  </g>
</svg>
