<svg xmlns="http://www.w3.org/2000/svg" width="111.478" height="113.398" viewBox="0 0 111.478 113.398">
  <g id="filled_outline" data-name="filled outline" transform="translate(-15.994 -24)">
    <path id="Trazado_642667" data-name="Trazado 642667" d="M80,32h86.49V141.554H80Z" transform="translate(-48.629 -6.078)" fill="#ebebeb"/>
    <path id="Trazado_642717" data-name="Trazado 642717" d="M15.45,0A15.45,15.45,0,1,1,0,15.45,15.45,15.45,0,0,1,15.45,0Z" transform="translate(38.574 33.509)" fill="#ffb338"/>
    <path id="Trazado_642668" data-name="Trazado 642668" d="M0,0H11.532V48.05H0Z" transform="translate(24.121 68.008) rotate(-19.268)" fill="#cdcdcd"/>
    <path id="Trazado_642669" data-name="Trazado 642669" d="M3.844,0H7.688a3.844,3.844,0,0,1,3.844,3.844v7.688H0V3.844A3.844,3.844,0,0,1,3.844,0Z" transform="translate(20.314 57.121) rotate(-19.268)" fill="#4298d1"/>
    <path id="Trazado_642670" data-name="Trazado 642670" d="M21.3,206.2a1.924,1.924,0,0,1-1.815-1.288l-3.171-9.071A5.766,5.766,0,0,1,19.86,188.5l14.514-5.075a1.923,1.923,0,0,1,1.269,3.63l-14.515,5.075a1.921,1.921,0,0,0-1.181,2.448l3.171,9.071A1.921,1.921,0,0,1,21.3,206.2Z" transform="translate(0 -121.04)" fill="#a8a8a8"/>
    <path id="Trazado_642671" data-name="Trazado 642671" d="M0,0H11.532V15.376H0Z" transform="translate(34.903 98.853) rotate(-19.268)" fill="#4298d1"/>
    <path id="Trazado_642672" data-name="Trazado 642672" d="M78.071,289.139a1.922,1.922,0,0,1-.634-3.737L88.32,281.6a1.923,1.923,0,1,1,1.269,3.63l-10.883,3.807a1.93,1.93,0,0,1-.635.107Z" transform="translate(-45.701 -195.626)" fill="#a8a8a8"/>
    <path id="Trazado_642673" data-name="Trazado 642673" d="M160.411,90.706l-3.57-1.787a1.789,1.789,0,0,1-1-1.61,1.936,1.936,0,0,1,.647-1.393,1.806,1.806,0,0,1,2.549,0l1.211,1.211a1.922,1.922,0,1,0,2.718-2.718l-1.211-1.21a5.538,5.538,0,0,0-2.07-1.3V80h-3.844v1.929a5.972,5.972,0,0,0-2.19,1.388A5.684,5.684,0,0,0,152,87.309a5.615,5.615,0,0,0,3.121,5.049l3.57,1.787a1.789,1.789,0,0,1,1,1.61,1.937,1.937,0,0,1-.647,1.395,1.806,1.806,0,0,1-2.549,0l-1.211-1.211a1.922,1.922,0,1,0-2.718,2.718l1.211,1.21a5.533,5.533,0,0,0,2.07,1.295v1.9h3.844v-1.928a5.976,5.976,0,0,0,2.19-1.388,5.684,5.684,0,0,0,1.654-3.992A5.615,5.615,0,0,0,160.411,90.706Z" transform="translate(-103.33 -42.546)" fill="#dc9315"/>
    <path id="Trazado_642674" data-name="Trazado 642674" d="M200,224h17.3v63.426H200Z" transform="translate(-139.798 -151.95)" fill="#617a0b"/>
    <path id="Trazado_642675" data-name="Trazado 642675" d="M232,256h9.61v48.05H232Z" transform="translate(-164.11 -176.262)" fill="#8bc89c"/>
    <path id="Trazado_642676" data-name="Trazado 642676" d="M200,224h17.3A17.3,17.3,0,0,1,200,241.3h0Z" transform="translate(-139.798 -151.95)" fill="#6a9876"/>
    <path id="Trazado_642677" data-name="Trazado 642677" d="M200,416a17.3,17.3,0,0,1,17.3,17.3H200Z" transform="translate(-139.798 -297.822)" fill="#6a9876"/>
    <path id="Trazado_642678" data-name="Trazado 642678" d="M232,327.688a7.688,7.688,0,0,0,7.688,7.688V320A7.688,7.688,0,0,0,232,327.688Z" transform="translate(-164.11 -224.886)" fill="#617a0b"/>
    <g id="Grupo_883494" data-name="Grupo 883494" transform="translate(50.592 37.454)">
      <path id="Trazado_642679" data-name="Trazado 642679" d="M336,80h15.376v3.844H336Z" transform="translate(-293.716 -80)" fill="#b9b9b9"/>
      <path id="Trazado_642680" data-name="Trazado 642680" d="M336,112h15.376v3.844H336Z" transform="translate(-293.716 -104.312)" fill="#b9b9b9"/>
      <path id="Trazado_642681" data-name="Trazado 642681" d="M160,224h3.844v3.844H160Z" transform="translate(-160 -189.404)" fill="#b9b9b9"/>
      <path id="Trazado_642682" data-name="Trazado 642682" d="M160,256h3.844v3.844H160Z" transform="translate(-160 -213.716)" fill="#b9b9b9"/>
      <path id="Trazado_642683" data-name="Trazado 642683" d="M160,288h3.844v7.688H160Z" transform="translate(-160 -238.028)" fill="#b9b9b9"/>
      <path id="Trazado_642684" data-name="Trazado 642684" d="M304,112h3.844v3.844H304Z" transform="translate(-269.404 -104.312)" fill="#b9b9b9"/>
      <path id="Trazado_642685" data-name="Trazado 642685" d="M304,80h3.844v3.844H304Z" transform="translate(-269.404 -80)" fill="#b9b9b9"/>
    </g>
    <path id="Trazado_642686" data-name="Trazado 642686" d="M264,168h49.972v76.88H264Z" transform="translate(-188.422 -109.404)" fill="#eb6f2d"/>
    <path id="Trazado_642687" data-name="Trazado 642687" d="M296,192h3.844v3.844H296Z" transform="translate(-212.734 -127.638)" fill="#dd7f04"/>
    <path id="Trazado_642688" data-name="Trazado 642688" d="M328,192h3.844v3.844H328Z" transform="translate(-237.046 -127.638)" fill="#dd7f04"/>
    <path id="Trazado_642689" data-name="Trazado 642689" d="M360,192h3.844v3.844H360Z" transform="translate(-261.358 -127.638)" fill="#dd7f04"/>
    <path id="Trazado_642690" data-name="Trazado 642690" d="M296,312h34.6v34.6H296Z" transform="translate(-212.734 -218.808)" fill="#fdb62f"/>
    <path id="Trazado_642691" data-name="Trazado 642691" d="M344,408h23.064v11.532H344Z" transform="translate(-249.202 -291.744)" fill="#fdb62f"/>
    <path id="Trazado_642692" data-name="Trazado 642692" d="M392,192h13.454v3.844H392Z" transform="translate(-285.67 -127.638)" fill="#dd7f04"/>
    <path id="Trazado_642693" data-name="Trazado 642693" d="M296,232h34.6v11.532H296Z" transform="translate(-212.734 -158.028)" fill="#b1e4e9"/>
    <path id="Trazado_642694" data-name="Trazado 642694" d="M296,232h32.674v9.61H296Z" transform="translate(-212.734 -158.028)" fill="#b6e1fd"/>
    <path id="Trazado_642695" data-name="Trazado 642695" d="M336,312h1.921v34.6H336Z" transform="translate(-243.128 -218.808)" fill="#ec9e15"/>
    <path id="Trazado_642696" data-name="Trazado 642696" d="M384,312h1.921v23.064H384Z" transform="translate(-279.596 -218.808)" fill="#ec9e15"/>
    <path id="Trazado_642697" data-name="Trazado 642697" d="M296,352h34.6v1.922H296Z" transform="translate(-212.734 -249.198)" fill="#ec9e15"/>
    <path id="Trazado_642698" data-name="Trazado 642698" d="M296,400h34.6v1.922H296Z" transform="translate(-212.734 -285.666)" fill="#ec9e15"/>
    <path id="Trazado_642699" data-name="Trazado 642699" d="M149.615,433.079a1.925,1.925,0,0,1-1.815-1.288l-1.361-3.892a1.923,1.923,0,1,1,3.63-1.269l1.361,3.892a1.921,1.921,0,0,1-1.815,2.556Z" transform="translate(-99.023 -304.919)" fill="#a8a8a8"/>
    <path id="Trazado_642700" data-name="Trazado 642700" d="M115.838,383.919l7.435,9.617,3.629-1.269-.178-12.155Z" transform="translate(-75.856 -270.556)" fill="#cdcdcd"/>
    <path id="Trazado_642701" data-name="Trazado 642701" d="M289.922,342.44h34.6a1.922,1.922,0,0,0,1.922-1.922v-34.6A1.922,1.922,0,0,0,324.518,304h-34.6A1.922,1.922,0,0,0,288,305.922v34.6A1.922,1.922,0,0,0,289.922,342.44Zm1.922-11.532h7.688V338.6h-7.688Zm19.22-3.844h-7.688v-7.688h7.688Zm3.844-7.688H322.6v7.688h-7.688Zm-15.376,7.688h-7.688v-7.688h7.688Zm3.844,11.532v-7.688H322.6V338.6Zm19.22-30.752v7.688h-7.688v-7.688Zm-11.532,0v7.688h-7.688v-7.688Zm-11.532,0v7.688h-7.688v-7.688Z" transform="translate(-206.656 -212.73)"/>
    <path id="Trazado_642702" data-name="Trazado 642702" d="M289.922,239.376h34.6a1.922,1.922,0,0,0,1.922-1.922V225.922A1.922,1.922,0,0,0,324.518,224h-34.6A1.922,1.922,0,0,0,288,225.922v11.532A1.922,1.922,0,0,0,289.922,239.376Zm1.922-11.532H322.6v7.688H291.844Z" transform="translate(-206.656 -151.95)"/>
    <path id="Trazado_642703" data-name="Trazado 642703" d="M125.559,56.674h-5.766V25.922A1.922,1.922,0,0,0,117.871,24H31.381a1.922,1.922,0,0,0-1.922,1.922V52.478a5.73,5.73,0,0,0-2.511.29L23.32,54.036a5.766,5.766,0,0,0-3.541,7.347l1.9,5.443-1.814.635a5.773,5.773,0,0,0-3.54,7.346L19.5,83.877a1.922,1.922,0,1,0,3.628-1.269l-3.172-9.072a1.924,1.924,0,0,1,1.181-2.448l1.814-.634,6.507,18.609v46.412a1.922,1.922,0,0,0,1.922,1.922h94.178a1.922,1.922,0,0,0,1.922-1.922V58.6A1.922,1.922,0,0,0,125.559,56.674ZM48.994,112.251l.118,8.1-1.013.354L43.143,114.3Zm-7.823-1.337-3.806-10.886,7.257-2.538,3.806,10.886Zm2.182-17.052L36.1,96.4l-1.269-3.628,7.257-2.537Zm-9.795-4.72L26.581,69.185l7.257-2.537,6.978,19.957ZM23.408,60.114a1.922,1.922,0,0,1,1.18-2.448L28.217,56.4a1.922,1.922,0,0,1,2.449,1.18l1.9,5.443-7.257,2.537ZM33.3,100.058,38.177,114a1.922,1.922,0,0,0,.3.54l7.435,9.617a1.922,1.922,0,0,0,2.155.639l.726,2.078a1.922,1.922,0,1,0,3.628-1.269l-.727-2.077a1.922,1.922,0,0,0,1.287-1.842L52.8,109.529h0a1.911,1.911,0,0,0-.106-.606L45.079,87.152,36.832,63.566l-2.538-7.259a5.738,5.738,0,0,0-.992-1.762v-26.7h82.646v28.83H75.587A1.922,1.922,0,0,0,73.665,58.6V70.128H60.211a1.922,1.922,0,0,0-1.922,1.922v61.5H33.3Zm40.362,8.18a5.766,5.766,0,0,1,0-10.871Zm0-14.852a9.572,9.572,0,0,0-3.844,1.734v-6.43a18.742,18.742,0,0,0,3.844-2.93Zm-3.844,17.1a9.571,9.571,0,0,0,3.844,1.734v9.548a18.742,18.742,0,0,0-3.844-2.93Zm-7.688,7.693V73.972H73.665v5.5A14.405,14.405,0,0,1,71.086,82.9l-.02.02a15.116,15.116,0,0,1-4.027,2.9,1.922,1.922,0,0,0-1.062,1.719v32.443a1.922,1.922,0,0,0,1.062,1.719,15.116,15.116,0,0,1,4.027,2.9l.02.02a14.4,14.4,0,0,1,2.579,3.429v5.5H62.133Zm61.5,15.376H77.509V60.518h46.128Z" transform="translate(-0.009 0)"/>
    <path id="Trazado_642704" data-name="Trazado 642704" d="M296,192h3.844v3.844H296Z" transform="translate(-212.734 -127.638)"/>
    <path id="Trazado_642705" data-name="Trazado 642705" d="M328,192h3.844v3.844H328Z" transform="translate(-237.046 -127.638)"/>
    <path id="Trazado_642706" data-name="Trazado 642706" d="M360,192h3.844v3.844H360Z" transform="translate(-261.358 -127.638)"/>
    <path id="Trazado_642707" data-name="Trazado 642707" d="M392,192h13.454v3.844H392Z" transform="translate(-285.67 -127.638)"/>
    <path id="Trazado_642708" data-name="Trazado 642708" d="M159.688,103.064v-1.887a5.6,5.6,0,0,0,2.07-1.309l.12-.12a5.646,5.646,0,0,0-1.467-9.042L156.84,88.92a1.8,1.8,0,0,1-.468-2.886l.12-.12a1.8,1.8,0,0,1,2.548,0l1.211,1.211a1.922,1.922,0,1,0,2.718-2.718L161.758,83.2a5.6,5.6,0,0,0-2.07-1.309V80h-3.844v1.887a5.6,5.6,0,0,0-2.07,1.309l-.12.12a5.646,5.646,0,0,0,1.467,9.042l3.571,1.786a1.8,1.8,0,0,1,.468,2.886l-.12.12a1.8,1.8,0,0,1-2.548,0l-1.211-1.211a1.922,1.922,0,0,0-2.718,2.718l1.211,1.211a5.6,5.6,0,0,0,2.07,1.309v1.887Z" transform="translate(-103.33 -42.546)"/>
    <path id="Trazado_642709" data-name="Trazado 642709" d="M138.6,73.3a17.3,17.3,0,1,0-17.3,17.3A17.3,17.3,0,0,0,138.6,73.3Zm-30.752,0A13.454,13.454,0,1,1,121.3,86.752,13.454,13.454,0,0,1,107.844,73.3Z" transform="translate(-66.863 -24.312)"/>
    <path id="Trazado_642710" data-name="Trazado 642710" d="M336,80h15.376v3.844H336Z" transform="translate(-243.124 -42.546)"/>
    <path id="Trazado_642711" data-name="Trazado 642711" d="M336,112h15.376v3.844H336Z" transform="translate(-243.124 -66.858)"/>
    <path id="Trazado_642712" data-name="Trazado 642712" d="M160,224h3.844v3.844H160Z" transform="translate(-109.408 -151.95)"/>
    <path id="Trazado_642713" data-name="Trazado 642713" d="M160,256h3.844v3.844H160Z" transform="translate(-109.408 -176.262)"/>
    <path id="Trazado_642714" data-name="Trazado 642714" d="M160,288h3.844v7.688H160Z" transform="translate(-109.408 -200.574)"/>
    <path id="Trazado_642715" data-name="Trazado 642715" d="M304,112h3.844v3.844H304Z" transform="translate(-218.812 -66.858)"/>
    <path id="Trazado_642716" data-name="Trazado 642716" d="M304,80h3.844v3.844H304Z" transform="translate(-218.812 -42.546)"/>
  </g>
</svg>
