<svg xmlns="http://www.w3.org/2000/svg" xmlns:xlink="http://www.w3.org/1999/xlink" width="150" height="150" viewBox="0 0 150 150">
  <defs>
    <filter id="Elipse_6985" x="0" y="0" width="150" height="150" filterUnits="userSpaceOnUse">
      <feOffset dy="3" input="SourceAlpha"/>
      <feGaussianBlur stdDeviation="3" result="blur"/>
      <feFlood flood-opacity="0.161"/>
      <feComposite operator="in" in2="blur"/>
      <feComposite in="SourceGraphic"/>
    </filter>
  </defs>
  <g id="Grupo_1034547" data-name="Grupo 1034547" transform="translate(-368.743 -4004.854)">
    <g id="Grupo_1034502" data-name="Grupo 1034502" transform="translate(0 50)">
      <g transform="matrix(1, 0, 0, 1, 368.74, 3954.85)" filter="url(#Elipse_6985)">
        <circle id="Elipse_6985-2" data-name="Elipse 6985" cx="66" cy="66" r="66" transform="translate(9 6)" fill="#b6e1fd"/>
      </g>
    </g>
    <g id="Grupo_883436" data-name="Grupo 883436" transform="translate(411.228 4044.288)">
      <path id="Trazado_642498" data-name="Trazado 642498" d="M7.256,44.8c-5.725-5.393-5.436-14.785.127-20.343L17.871,13.978a1.138,1.138,0,0,1,1.608,0L22.7,17.2a1.138,1.138,0,0,1,0,1.608L11.976,29.518a7.231,7.231,0,0,0-1.094,9.075,7.061,7.061,0,0,0,10.868,1.09l10.9-10.918a1.136,1.136,0,0,1,1.608,0l3.221,3.216a1.138,1.138,0,0,1,0,1.608L26.576,44.507a13.9,13.9,0,0,1-19.32.293Z" transform="translate(0 13.565)" fill="#12263f"/>
      <path id="Trazado_642499" data-name="Trazado 642499" d="M31.981,37.588l-3.216-3.221a1.138,1.138,0,0,1,0-1.608l10.72-10.711a7.231,7.231,0,0,0,1.094-9.075,7.061,7.061,0,0,0-10.868-1.09L18.807,22.8a1.136,1.136,0,0,1-1.608,0l-3.221-3.216a1.138,1.138,0,0,1,0-1.608L24.885,7.059a13.893,13.893,0,0,1,20.83,1.374c4.313,5.579,3.437,13.6-1.551,18.588L33.589,37.588a1.138,1.138,0,0,1-1.608,0Z" transform="translate(13.46 0)" fill="#12263f"/>
      <path id="Trazado_642500" data-name="Trazado 642500" d="M11.008,14.225,7.125,10.343a1.138,1.138,0,0,1,0-1.608L8.734,7.126a1.138,1.138,0,0,1,1.608,0l3.883,3.883a1.138,1.138,0,0,1,0,1.608l-1.608,1.608A1.138,1.138,0,0,1,11.008,14.225Z" transform="translate(4.725 4.832)" fill="#12263f"/>
      <path id="Trazado_642501" data-name="Trazado 642501" d="M26.008,29.225l-3.883-3.883a1.138,1.138,0,0,1,0-1.608l1.608-1.608a1.138,1.138,0,0,1,1.608,0l3.883,3.883a1.138,1.138,0,0,1,0,1.608l-1.608,1.608A1.138,1.138,0,0,1,26.008,29.225Z" transform="translate(23.843 23.95)" fill="#12263f"/>
      <path id="Trazado_642502" data-name="Trazado 642502" d="M10.17,16.908,5.1,14.807a1.139,1.139,0,0,1-.616-1.485l.871-2.1A1.139,1.139,0,0,1,6.838,10.6l5.072,2.1a1.139,1.139,0,0,1,.616,1.485l-.871,2.1A1.135,1.135,0,0,1,10.17,16.908Z" transform="translate(1.67 9.578)" fill="#12263f"/>
      <path id="Trazado_642503" data-name="Trazado 642503" d="M29.767,25.025l-5.072-2.1a1.139,1.139,0,0,1-.616-1.485l.871-2.1a1.139,1.139,0,0,1,1.485-.616l5.072,2.1a1.139,1.139,0,0,1,.616,1.485l-.871,2.1A1.134,1.134,0,0,1,29.767,25.025Z" transform="translate(26.647 19.923)" fill="#12263f"/>
      <path id="Trazado_642504" data-name="Trazado 642504" d="M12.707,11.911,10.6,6.838a1.134,1.134,0,0,1,.616-1.485l2.1-.871a1.134,1.134,0,0,1,1.485.616l2.1,5.072a1.134,1.134,0,0,1-.616,1.485l-2.1.871A1.138,1.138,0,0,1,12.707,11.911Z" transform="translate(9.473 1.774)" fill="#12263f"/>
      <path id="Trazado_642505" data-name="Trazado 642505" d="M20.824,31.509l-2.1-5.072a1.134,1.134,0,0,1,.616-1.485l2.1-.871a1.134,1.134,0,0,1,1.485.616l2.1,5.072a1.134,1.134,0,0,1-.616,1.485l-2.1.871A1.138,1.138,0,0,1,20.824,31.509Z" transform="translate(19.818 26.753)" fill="#12263f"/>
      <path id="Trazado_642506" data-name="Trazado 642506" d="M12.559,30.76a3.41,3.41,0,0,1,0-4.824L25.936,12.559a3.411,3.411,0,0,1,4.824,4.824L17.383,30.76a3.41,3.41,0,0,1-4.824,0Z" transform="translate(10.801 10.906)" fill="#12263f"/>
    </g>
  </g>
</svg>
