<svg id="Grupo_882570" data-name="Grupo 882570" xmlns="http://www.w3.org/2000/svg" xmlns:xlink="http://www.w3.org/1999/xlink" width="295.228" height="298.888" viewBox="0 0 295.228 298.888">
  <defs>
    <clipPath id="clip-path">
      <rect id="Rectángulo_330609" data-name="Rectángulo 330609" width="295.228" height="298.888" fill="none"/>
    </clipPath>
    <clipPath id="clip-path-6">
      <rect id="Rectángulo_330599" data-name="Rectángulo 330599" width="79.135" height="68.777" fill="none"/>
    </clipPath>
  </defs>
  <g id="Grupo_882569" data-name="Grupo 882569" clip-path="url(#clip-path)">
    <g id="Grupo_882557" data-name="Grupo 882557">
      <g id="Grupo_882556" data-name="Grupo 882556" clip-path="url(#clip-path)">
        <path id="Trazado_638874" data-name="Trazado 638874" d="M127.452,4.068C125.078.5,120.105.075,116.653,2.352s-5.158,5.1-6.037,9.483a13.62,13.62,0,0,0-5.474-9.987c-3.265-2.572-8.293-2.587-10.99.761a10.468,10.468,0,0,0-1.931,7.37,14.394,14.394,0,0,0,2.352,7.348c5.364,7.139,8.4,8.5,15.455,13.712,7.433-4.579,9.8-5.7,15.727-12.346a14.456,14.456,0,0,0,2.965-7.115,10.529,10.529,0,0,0-1.268-7.511" transform="translate(-23.963 0)" fill="#ebebeb"/>
        <path id="Trazado_638875" data-name="Trazado 638875" d="M25.393,41.461a4.459,4.459,0,0,0,.761-4.848,4.33,4.33,0,0,0-5.62-2.412,4.325,4.325,0,0,0-2.045,5.76,4.454,4.454,0,0,0,4.121,2.731c-5.494,3.489-2.4,9.768-2.4,9.768L34.16,46.37s-2.542-6.607-8.766-4.909" transform="translate(-4.704 -8.805)" fill="#f5f5f5"/>
        <path id="Trazado_638876" data-name="Trazado 638876" d="M354.243,181.571a8.756,8.756,0,0,0,7.274-6.318,8.229,8.229,0,1,0-15.746-4.667,8.743,8.743,0,0,0,2.737,9.313c-12.665-1.706-15.956,11.64-15.956,11.64l28.651,8.49s4.538-13.139-6.96-18.459" transform="translate(-86.455 -42.688)" fill="#e0e0e0"/>
        <path id="Trazado_638877" data-name="Trazado 638877" d="M171.357,315.3a5.263,5.263,0,0,0-5.27-5.255l-112.892.169a5.263,5.263,0,0,0-5.255,5.271l.053,34.711a5.262,5.262,0,0,0,5.27,5.255l98.091-.147,13,13.171-.019-13.19,1.819,0a5.263,5.263,0,0,0,5.254-5.27Z" transform="translate(-12.463 -80.605)" fill="#ebebeb"/>
        <path id="Trazado_638878" data-name="Trazado 638878" d="M74.2,364.173c.04.01.08.024.12.034l-.228-3.7Z" transform="translate(-19.263 -93.723)" fill="#f5f5f5"/>
        <path id="Trazado_638879" data-name="Trazado 638879" d="M74.181,315.282a18.886,18.886,0,0,0-10.694,34.433,91.657,91.657,0,0,1-1.48-15.746l-.1.016c.038-.309.081-.776.127-1.262v0a16.64,16.64,0,0,1,.229-1.77c2.143-9.122,9.886-10.961,11.424-10.99,1.65-.031,4.518-1.016,8.808,3.39a8.578,8.578,0,0,1,2.077,9.274l-.013-.012c.082,2.93.137,6.241.054,8.294a5.152,5.152,0,0,1-4.447,4.9s-.212,3.742-.266,6.373a18.89,18.89,0,0,0-5.718-36.9" transform="translate(-14.382 -81.965)" fill="#f5f5f5"/>
        <path id="Trazado_638880" data-name="Trazado 638880" d="M84.809,350.5a5.469,5.469,0,0,1-5.584-2.912,10.394,10.394,0,0,0,5.656,1.842,5.151,5.151,0,0,0,4.446-4.9c.084-2.054.029-5.365-.053-8.295l-.705-.644-6.236-1.527a8.178,8.178,0,0,0-.732-4.831l-.041-.038c-1.114,6.54-8.1,7.349-8.1,7.349l.468,15.83.228,3.7a18.968,18.968,0,0,0,10.457-.266c.054-2.631.266-6.373.266-6.373ZM81.52,338.149a.557.557,0,1,1,.533-.567.549.549,0,0,1-.533.567m6.291-.118a.557.557,0,1,1,.533-.567.549.549,0,0,1-.533.567m-.867-1.586a1.414,1.414,0,0,1,1.71.075c.178.155.237.295.2.327-.068.073-.476-.269-1.061-.29s-1.018.275-1.08.2c-.031-.035.04-.169.229-.308m-2.555.32a22.327,22.327,0,0,1,1.186,3.141c.141.434.277.847.406,1.243a.989.989,0,0,1,.069.63A.371.371,0,0,1,85.8,342a.9.9,0,0,1-.254.028,3.592,3.592,0,0,1-.964-.036,3.554,3.554,0,0,1,.953-.147c.149-.01.292-.037.318-.145a.875.875,0,0,0-.093-.478q-.2-.589-.425-1.235a22.453,22.453,0,0,1-.947-3.226m1.118,6.78a1.6,1.6,0,0,1-1.926.6,1.268,1.268,0,0,1-.918-1.546c-.6-.391,1.652.967,2.845.945m-5.042-6.978a1.4,1.4,0,0,1,.867-.252,1.409,1.409,0,0,1,.844.326c.177.155.237.295.2.327-.068.073-.477-.269-1.061-.29s-1.018.275-1.081.2c-.03-.035.039-.169.229-.308" transform="translate(-19.098 -85.58)" fill="#ebebeb"/>
        <path id="Trazado_638881" data-name="Trazado 638881" d="M92.636,339.631a.557.557,0,1,0,.554.547.55.55,0,0,0-.554-.547" transform="translate(-23.945 -88.295)" fill="#e0e0e0"/>
        <path id="Trazado_638882" data-name="Trazado 638882" d="M92.45,339.017c.585.021.993.363,1.061.29.034-.033-.025-.172-.2-.327a1.413,1.413,0,0,0-1.709-.075c-.189.138-.26.273-.229.308.063.08.5-.226,1.081-.2" transform="translate(-23.752 -88.041)" fill="#e0e0e0"/>
        <path id="Trazado_638883" data-name="Trazado 638883" d="M84.135,339.791a.558.558,0,1,0,.554.547.55.55,0,0,0-.554-.547" transform="translate(-21.734 -88.336)" fill="#e0e0e0"/>
        <path id="Trazado_638884" data-name="Trazado 638884" d="M83.694,339.181c.585.021.992.363,1.061.29.033-.033-.026-.172-.2-.327a1.409,1.409,0,0,0-.844-.326,1.4,1.4,0,0,0-.867.251c-.19.138-.26.273-.229.309.063.079.5-.226,1.081-.2" transform="translate(-21.475 -88.083)" fill="#e0e0e0"/>
        <path id="Trazado_638885" data-name="Trazado 638885" d="M89.6,343.887a.875.875,0,0,1,.093.478c-.027.108-.169.135-.318.145a3.554,3.554,0,0,0-.953.147,3.592,3.592,0,0,0,.964.036.9.9,0,0,0,.254-.028.371.371,0,0,0,.249-.224.989.989,0,0,0-.069-.631c-.129-.4-.264-.809-.406-1.242a22.435,22.435,0,0,0-1.186-3.141,22.453,22.453,0,0,0,.947,3.226q.223.646.425,1.235" transform="translate(-22.934 -88.242)" fill="#e0e0e0"/>
        <path id="Trazado_638886" data-name="Trazado 638886" d="M86.778,348.831a1.6,1.6,0,0,0,1.927-.6c-1.193.022-3.444-1.336-2.845-.945a1.267,1.267,0,0,0,.918,1.546" transform="translate(-22.295 -90.266)" fill="#fff"/>
        <path id="Trazado_638887" data-name="Trazado 638887" d="M81.25,354.045a5.469,5.469,0,0,0,5.584,2.912l.072-1.069a10.4,10.4,0,0,1-5.656-1.843" transform="translate(-21.123 -92.042)" fill="#e0e0e0"/>
        <path id="Trazado_638888" data-name="Trazado 638888" d="M71.061,334.525s6.983-.809,8.1-7.348l.041.037a8.184,8.184,0,0,1,.732,4.831l6.235,1.527.705.643.013.012a8.578,8.578,0,0,0-2.077-9.274c-4.29-4.406-7.158-3.42-8.808-3.389-1.537.029-9.28,1.867-11.423,10.99a16.427,16.427,0,0,0-.229,1.769v0c-.047.485-.088.952-.127,1.261l.1-.016a91.657,91.657,0,0,0,1.48,15.746,18.783,18.783,0,0,0,5.837,2.7l-.108-3.662Z" transform="translate(-16.696 -83.568)" fill="#e0e0e0"/>
        <rect id="Rectángulo_330593" data-name="Rectángulo 330593" width="59.36" height="3.272" transform="matrix(1, -0.002, 0.002, 1, 85.572, 242.862)" fill="#f5f5f5"/>
        <rect id="Rectángulo_330594" data-name="Rectángulo 330594" width="59.36" height="3.272" transform="translate(85.585 251.275) rotate(-0.086)" fill="#f5f5f5"/>
        <rect id="Rectángulo_330595" data-name="Rectángulo 330595" width="29.422" height="3.272" transform="translate(115.535 259.41) rotate(-0.086)" fill="#f5f5f5"/>
        <path id="Trazado_638889" data-name="Trazado 638889" d="M330.067,138.978a2.558,2.558,0,0,0-3.571.212,4.374,4.374,0,0,0-1.261,3.454,4.457,4.457,0,0,0-2.452-2.8,2.59,2.59,0,0,0-3.457,1.018,3.425,3.425,0,0,0-.1,2.49,4.708,4.708,0,0,0,1.269,2.182c2.216,1.9,3.281,2.123,5.9,3.292a17.225,17.225,0,0,0,4.155-5.051,4.733,4.733,0,0,0,.446-2.482,3.444,3.444,0,0,0-.934-2.31" transform="translate(-82.943 -35.966)" fill="#f5f5f5"/>
        <path id="Trazado_638890" data-name="Trazado 638890" d="M93.058,50.487l.975,1.977,2.181.317-1.578,1.538.373,2.173-1.951-1.026L91.107,56.49l.372-2.173L89.9,52.78l2.181-.317Z" transform="translate(-23.372 -13.125)" fill="#e0e0e0"/>
        <path id="Trazado_638891" data-name="Trazado 638891" d="M43.238,113.667,45,117.242l3.946.574L46.093,120.6l.674,3.93-3.529-1.855-3.529,1.855.674-3.93-2.855-2.783,3.946-.574Z" transform="translate(-9.756 -29.55)" fill="#e0e0e0"/>
        <path id="Trazado_638892" data-name="Trazado 638892" d="M78.678,116.949l.488.988,1.09.158-.789.77.186,1.086-.975-.513-.975.513.186-1.086-.79-.77,1.091-.158Z" transform="translate(-20.044 -30.404)" fill="#e0e0e0"/>
      </g>
    </g>
    <g id="Grupo_882559" data-name="Grupo 882559">
      <g id="Grupo_882558" data-name="Grupo 882558" clip-path="url(#clip-path)">
        <path id="Trazado_638893" data-name="Trazado 638893" d="M294.347,328.58c-15.243-10.65-18.7-30.417-18.1-48.186.1-2.966-.225-6.093,1.186-8.7s4.7-4.38,7.36-3.13c2.2,1.037,3.162,3.6,4.4,5.718a17.344,17.344,0,0,0,6.956,6.644c1.889.98,4.226,1.579,6.09.551,2.558-1.412,2.86-4.946,2.842-7.9q-.052-8.248-.1-16.494a27.487,27.487,0,0,1,.89-8.761c.917-2.8,2.945-5.4,5.751-6.187s6.277.833,6.87,3.72a27.326,27.326,0,0,1,.084,3.673c.082,1.225.653,2.58,1.815,2.921s2.358-.491,3.24-1.354c3.045-2.979,5.111-6.816,7.042-10.632s3.805-7.722,6.568-10.971,6.585-5.823,10.809-6.063,8.726,2.369,9.794,6.516-1.356,8.379-4,11.746a65.862,65.862,0,0,1-13.71,13.069,5.417,5.417,0,0,0-2.293,2.466c-.641,1.966,1.223,3.92,3.164,4.566,2.2.733,4.585.5,6.885.775s4.792,1.285,5.662,3.46c1.208,3.015-1.313,6.176-3.794,8.245a56.406,56.406,0,0,1-16.7,9.637c-2.17.794-4.453,1.49-6.2,3.015s-2.806,4.177-1.749,6.254,3.771,2.746,6.045,2.323,4.308-1.655,6.474-2.472c4.054-1.53,9.289-1.251,11.886,2.253a9.335,9.335,0,0,1,.993,8.255,21.513,21.513,0,0,1-4.472,7.291,56.725,56.725,0,0,1-24.22,17.021c-9.4,3.261-18.118,4.143-27.464.725" transform="translate(-71.8 -58.083)" fill="#617a0b"/>
        <path id="Trazado_638894" data-name="Trazado 638894" d="M300.413,342.627a129.559,129.559,0,0,1,4.82-24.313,264.3,264.3,0,0,1,10.493-28.459q1.587-3.706,3.133-7.319c1.035-2.4,2.06-4.779,3.207-7.045A131.891,131.891,0,0,1,329.4,262.85c2.527-3.909,5.068-7.525,7.468-10.889s4.713-6.451,6.933-9.177a104.721,104.721,0,0,1,11.424-12.074c1.455-1.315,2.617-2.3,3.414-2.953l.911-.74a2.245,2.245,0,0,1,.322-.238,2.112,2.112,0,0,1-.286.28l-.876.781c-.773.682-1.911,1.69-3.343,3.027A110.8,110.8,0,0,0,344.1,243.03c-2.195,2.734-4.476,5.83-6.864,9.2s-4.907,6.994-7.417,10.9a133.323,133.323,0,0,0-7.278,12.608c-1.137,2.255-2.151,4.615-3.186,7.021s-2.072,4.846-3.13,7.316a270.951,270.951,0,0,0-10.513,28.387,131.741,131.741,0,0,0-4.916,24.206" transform="translate(-78.099 -58.956)" fill="#263238"/>
        <path id="Trazado_638895" data-name="Trazado 638895" d="M328.364,281.174a6,6,0,0,1-.288-1.259c-.155-.815-.34-2-.548-3.471-.417-2.937-.855-7.013-1.32-11.508s-.96-8.556-1.42-11.479c-.226-1.462-.421-2.643-.567-3.458a5.86,5.86,0,0,1-.164-1.281,5.9,5.9,0,0,1,.371,1.237c.209.8.463,1.977.737,3.436.56,2.916,1.117,6.984,1.582,11.487.448,4.437.853,8.451,1.162,11.519.149,1.385.275,2.552.376,3.488a5.875,5.875,0,0,1,.079,1.289" transform="translate(-84.243 -64.66)" fill="#263238"/>
        <path id="Trazado_638896" data-name="Trazado 638896" d="M367.809,282.983a8.226,8.226,0,0,1-1.513.181c-.973.087-2.382.2-4.118.406-3.474.375-8.254,1.061-13.5,2.048s-9.945,2.1-13.324,3c-1.694.436-3.055.827-4,1.091a8.038,8.038,0,0,1-1.48.363,8.23,8.23,0,0,1,1.418-.568c.925-.326,2.273-.774,3.958-1.261,3.363-1,8.07-2.163,13.326-3.164a133.959,133.959,0,0,1,13.558-1.894c1.746-.152,3.164-.212,4.143-.232a8.021,8.021,0,0,1,1.524.032" transform="translate(-85.76 -73.558)" fill="#263238"/>
        <path id="Trazado_638897" data-name="Trazado 638897" d="M300.847,332.511a1.966,1.966,0,0,1-.26-.463l-.648-1.372c-.558-1.194-1.32-2.943-2.233-5.116-1.83-4.345-4.169-10.426-6.659-17.172s-4.771-12.843-6.507-17.22l-2.072-5.179c-.223-.565-.406-1.03-.556-1.413a1.915,1.915,0,0,1-.16-.508,2.019,2.019,0,0,1,.26.463l.649,1.371c.558,1.194,1.32,2.943,2.233,5.116,1.83,4.345,4.169,10.426,6.66,17.175s4.77,12.84,6.506,17.218c.852,2.126,1.551,3.877,2.072,5.177l.556,1.413a1.991,1.991,0,0,1,.16.508" transform="translate(-73.247 -73.85)" fill="#263238"/>
        <path id="Trazado_638898" data-name="Trazado 638898" d="M357.956,327.576a2.026,2.026,0,0,1-.5.206l-1.464.49-5.4,1.749c-4.557,1.478-10.827,3.591-17.753,5.936s-13.224,4.4-17.812,5.787c-2.294.693-4.156,1.235-5.45,1.583-.6.157-1.092.286-1.493.392a1.968,1.968,0,0,1-.531.1,2.038,2.038,0,0,1,.5-.207l1.464-.489,5.4-1.749c4.557-1.477,10.828-3.591,17.755-5.936s13.221-4.4,17.81-5.786c2.295-.693,4.156-1.235,5.452-1.583l1.493-.392a1.963,1.963,0,0,1,.531-.1" transform="translate(-79.956 -85.16)" fill="#263238"/>
      </g>
    </g>
    <g id="Grupo_882561" data-name="Grupo 882561">
      <g id="Grupo_882560" data-name="Grupo 882560" clip-path="url(#clip-path)">
        <path id="Trazado_638899" data-name="Trazado 638899" d="M377.929,24.889v9.535a3.917,3.917,0,0,1-3.917,3.917h-16.5v5.453l-2.962-5.213a3.486,3.486,0,0,1-3.227-3.476V24.889a3.917,3.917,0,0,1,3.917-3.917h18.774a3.917,3.917,0,0,1,3.917,3.917" transform="translate(-91.334 -5.452)" fill="#455a64"/>
        <path id="Trazado_638900" data-name="Trazado 638900" d="M375.125,32.83a1.613,1.613,0,1,0,1.613-1.613,1.612,1.612,0,0,0-1.613,1.613" transform="translate(-97.522 -8.116)" fill="#263238"/>
        <path id="Trazado_638901" data-name="Trazado 638901" d="M366.846,32.83a1.613,1.613,0,1,0,1.613-1.613,1.612,1.612,0,0,0-1.613,1.613" transform="translate(-95.37 -8.116)" fill="#263238"/>
        <path id="Trazado_638902" data-name="Trazado 638902" d="M358.567,32.83a1.613,1.613,0,1,0,1.612-1.613,1.612,1.612,0,0,0-1.612,1.613" transform="translate(-93.218 -8.116)" fill="#263238"/>
        <path id="Trazado_638903" data-name="Trazado 638903" d="M75.8,69.369a2.554,2.554,0,0,1-.054.31c-.047.229-.11.538-.189.932-.179.847-.434,2.058-.759,3.6-.681,3.165-1.655,7.693-2.848,13.24l-.03.141-.143-.031L66.8,86.478l.025,0c-2.179-.128-4.473-.275-6.868-.449s-4.887-.347-7.467-.7a4.956,4.956,0,0,1-3.394-2.061,6.12,6.12,0,0,1-1.088-3.955,12.014,12.014,0,0,1,.4-2.057q.25-1.009.5-2.031.518-2.038,1.046-4.117c.42-1.593.843-3.168,1.307-4.712.234-.773.47-1.537.768-2.289a5.592,5.592,0,0,1,.258-.563,1.125,1.125,0,0,1,.253-.3,1.077,1.077,0,0,1,.35-.109,6.383,6.383,0,0,1,1.217-.007,80.485,80.485,0,0,1,8.967,1.517l.13.027.011.137a.8.8,0,0,0,.016.107l.01.034c-.01,0,.024-.024-.1-.06-.116,0-.105.048-.106.03,0,0,.01-.016.017-.03.014-.029.03-.065.045-.1.057-.155.1-.328.147-.5.085-.344.158-.692.227-1.039.135-.695.255-1.387.368-2.071a34.2,34.2,0,0,1,.759-4.009,7.81,7.81,0,0,1,1.843-3.414A3.826,3.826,0,0,1,69.883,52.7l.136.032-.032.143c-.469,2.086-.9,3.989-1.29,5.74l-.007-.078,4.283,10.168-.042-.036,2.179.518.522.13a.914.914,0,0,1,.164.048,1.409,1.409,0,0,1-.189-.03l-.542-.106-2.16-.442-.03-.007-.013-.029c-.926-2.125-2.423-5.561-4.408-10.115l-.016-.037.009-.041c.382-1.753.8-3.659,1.251-5.749l.1.175a3.531,3.531,0,0,0-3.144,1,7.519,7.519,0,0,0-1.743,3.278,34.128,34.128,0,0,0-.734,3.972c-.111.687-.229,1.382-.363,2.083-.069.351-.141.7-.229,1.058a5.546,5.546,0,0,1-.158.538,1.228,1.228,0,0,1-.063.145.463.463,0,0,1-.053.086.238.238,0,0,1-.214.1c-.174-.046-.161-.121-.192-.155a.615.615,0,0,1-.031-.1,1.275,1.275,0,0,1-.024-.163l.142.164a81.3,81.3,0,0,0-8.915-1.492,6.027,6.027,0,0,0-1.133,0,.766.766,0,0,0-.213.059,1.545,1.545,0,0,0-.118.158,5.439,5.439,0,0,0-.235.517c-.286.724-.522,1.488-.753,2.256-.46,1.536-.884,3.108-1.3,4.7q-.529,2.076-1.047,4.112-.252,1.019-.5,2.028a11.522,11.522,0,0,0-.391,1.992,5.746,5.746,0,0,0,1.012,3.71,4.582,4.582,0,0,0,3.147,1.918c2.542.358,5.047.527,7.434.722l6.861.478h.013l.012,0,4.968,1.113-.172.11c1.248-5.5,2.267-9.984,2.98-13.119l.837-3.618c.1-.4.171-.717.227-.952a2.853,2.853,0,0,1,.09-.332" transform="translate(-12.477 -13.68)" fill="#263238"/>
        <path id="Trazado_638904" data-name="Trazado 638904" d="M93.2,75.149a4.448,4.448,0,0,1-.494-.053l-1.36-.186L86.4,74.193l.147-.1c-1.006,4.622-2.452,11.263-4.059,18.646l-.145.654-.146-.229,4.927,1.094-.22.127,4.441-13.7,1.34-4.048c.153-.451.276-.814.373-1.1a3.445,3.445,0,0,1,.148-.393,2.106,2.106,0,0,1-.09.358c-.082.278-.186.632-.315,1.071-.3.986-.713,2.348-1.225,4.035L87.26,94.5l-.05.164-.169-.037L82.111,93.54l-.188-.041.041-.188.145-.655c1.655-7.372,3.144-14,4.181-18.619l.027-.121.12.021,5.013.875,1.319.243a2.89,2.89,0,0,1,.434.1" transform="translate(-21.298 -19.216)" fill="#263238"/>
      </g>
    </g>
    <path id="Trazado_638905" data-name="Trazado 638905" d="M317.621,39.99l2.524,5.114,5.643.82L321.7,49.9l.964,5.621-5.048-2.654-5.048,2.654.964-5.621-4.083-3.981,5.643-.82Z" transform="translate(-80.449 -10.396)" fill="#ffb338"/>
    <path id="Trazado_638906" data-name="Trazado 638906" d="M375.836,147.251l1.262,2.557,2.822.41-2.042,1.991.483,2.811-2.524-1.327-2.524,1.327.482-2.811-2.042-1.991,2.822-.41Z" transform="translate(-96.646 -38.281)" fill="#ffb338"/>
    <path id="Trazado_638907" data-name="Trazado 638907" d="M54.279,228.605l1.262,2.557,2.822.41-2.042,1.991.482,2.811-2.524-1.327-2.524,1.327.482-2.811-2.042-1.991,2.822-.41Z" transform="translate(-13.049 -59.431)" fill="#ffb338"/>
    <g id="Grupo_882566" data-name="Grupo 882566">
      <g id="Grupo_882565" data-name="Grupo 882565" clip-path="url(#clip-path)">
        <path id="Trazado_638908" data-name="Trazado 638908" d="M235.443,306.556l-93.351.613a20.334,20.334,0,0,1-20.468-20.192l-1.63-234.031a20.335,20.335,0,0,1,20.2-20.477l93.351-.613a20.336,20.336,0,0,1,20.468,20.193l1.63,234.031a20.334,20.334,0,0,1-20.2,20.476" transform="translate(-31.195 -8.282)" fill="#263238"/>
        <path id="Trazado_638909" data-name="Trazado 638909" d="M235.68,42.772l-18.1.119a4.5,4.5,0,0,0-4.362,4.623l.022,3.283a4.5,4.5,0,0,1-4.362,4.623l-35.279.232a4.5,4.5,0,0,1-4.427-4.565L169.15,47.8a4.5,4.5,0,0,0-4.427-4.565l-6.366.041-15.841.1a14.241,14.241,0,0,0-14.147,14.341l1.59,228.431A14.242,14.242,0,0,0,144.294,300.3l93.164-.613a14.242,14.242,0,0,0,14.147-14.34l-1.59-228.431A14.243,14.243,0,0,0,235.68,42.772" transform="translate(-33.372 -11.119)" fill="#fafafa"/>
        <path id="Trazado_638910" data-name="Trazado 638910" d="M237.445,383.926q.689.1,1.31.2c0-.025,0-.051,0-.078l-1.864-.2.551.081" transform="translate(-61.586 -99.789)" fill="#b78876"/>
        <path id="Trazado_638911" data-name="Trazado 638911" d="M160.806,182.705l-3.756-4.268s.133-.133.363-.366c-2.725,2.1-4.752,3.381-4.937,2.71-3.274-11.966-2.873-27.36-2.563-33.262.314-.515.674-1.082,1.1-1.709a7.884,7.884,0,0,1,1.821-1.879,12.068,12.068,0,0,1,2.8-1.675c.956-.3,1.077-1.59.228-1.876s-3.5.475-5.927,2.622-1.55-2.811-1.265-4.624.907-7.452.417-7.966c-.717-.754-1.682-.11-1.926,1.706-.246,1.837-1.356,7.216-2.309,7.044s.643-9.376.643-9.376.657-1.922-.436-2.156c-1.971-.425-2.928,9.467-3,10.41-.047.656-1.089.506-1-.2.092-.723,1.791-9.153-.211-9.6-1.536-.347-.864,8.131-2.19,9.71s.149-6.5-1.333-6.768c-.552-.1-.98-.1-1.156,4.643a104.523,104.523,0,0,0,.733,11.414c-.943,13.03-2.377,52.89,15.557,51.021a31.576,31.576,0,0,0,16.5-6.28l-7.983-9.068Z" transform="translate(-35.399 -33.177)" fill="#b78876"/>
        <path id="Trazado_638912" data-name="Trazado 638912" d="M208.638,167.922l6.267.044c2.448.01,4.667-.013,6.271-.069.8-.027,1.452-.06,1.9-.095a2.61,2.61,0,0,0,.691-.09h0a1.408,1.408,0,0,0-.47-.05v.038l-14.347-.061-.319.01c-.8.027-1.451.06-1.9.095a2.428,2.428,0,0,0-.694.092c0,.005.017.01.036.015.173.043,1.115.058,2.562.071" transform="translate(-53.565 -43.582)" fill="#263238"/>
        <path id="Trazado_638913" data-name="Trazado 638913" d="M229.664,158.008c.443,1.685,2.277,3.127,4.925,2.817a7.166,7.166,0,0,0-.694,2.216,7.737,7.737,0,0,0,2.393,6.72,10.556,10.556,0,0,0-2.226,5.4c-.014.124-.032.249-.041.374a10.22,10.22,0,0,0,1.406,6.055c-1.149,1.428-2.347,2.982-2.361,4.734a3.261,3.261,0,0,0,.987,2.253,2.8,2.8,0,0,1,.592.417c.076.064.148.125.215.184a2.792,2.792,0,0,0,.824.289,2.61,2.61,0,0,0,1.066-.039,2.71,2.71,0,0,0,.637-.26,4.086,4.086,0,0,0,1.539-1.664,6.949,6.949,0,0,0,.353-5.886,7.809,7.809,0,0,0,2.711-4.469,8.082,8.082,0,0,0,.169-1.269c0-.047.01-.094.013-.141,0-.116,0-.232,0-.348,0-.249-.013-.5-.038-.743a8.17,8.17,0,0,0-.192-1.117,7.514,7.514,0,0,0-2.259-3.822,7.419,7.419,0,0,0,1.812-2.461,4.468,4.468,0,0,1-1.391.944,3.74,3.74,0,0,1-1.291.308,2.048,2.048,0,0,1-.36-.01c-.082-.009-.124-.02-.124-.033s.042-.028.122-.044.2-.024.344-.061a4.6,4.6,0,0,0,2.646-1.548,4.276,4.276,0,0,0,.454-.664c.046-.165.092-.329.127-.5a7.764,7.764,0,0,0,.018-3.11A4.58,4.58,0,0,0,241,161.069a8.087,8.087,0,0,0-1.441-.971c0-.013.047-.011.128,0a1.994,1.994,0,0,1,.348.095,3.738,3.738,0,0,1,1.146.669,4.247,4.247,0,0,1,.536.539,7.2,7.2,0,0,0-1.748-2.707,11.663,11.663,0,0,0-1.165-11.318c-1.178,4.769-3.734,9.329-9.142,10.628m8.487,11.923c-.027.106-.422.092-.889.131s-.855.11-.9.01.329-.353.869-.394.949.154.919.253M236.8,181.638c-.77-.116-1.413-.124-1.425-.235s.653-.27,1.482-.147,1.421.474,1.377.566-.662-.075-1.433-.185m-.422-22.453a2.3,2.3,0,0,1,1.546-.087c.006.11-.656.227-1.439.457s-1.406.48-1.459.384.518-.514,1.352-.754" transform="translate(-59.706 -38.315)" fill="#263238"/>
        <path id="Trazado_638914" data-name="Trazado 638914" d="M213.873,119.314a12.981,12.981,0,0,0,1.3,3.353,12.478,12.478,0,0,0,1.184,1.763,11.738,11.738,0,0,0,3.446,2.942,12.574,12.574,0,0,0,1.926.892,12.987,12.987,0,0,0,3.516.759c.114.008.216.01.325.015l.026-2.488s-9.986-.868-12.088-10.047c0,.115.005.246.019.4a13.444,13.444,0,0,0,.346,2.414" transform="translate(-55.507 -30.288)" fill="#b78876"/>
        <path id="Trazado_638915" data-name="Trazado 638915" d="M221.35,154.238l.168-4.372-.056.016.154-14.941-.029-.033a9.121,9.121,0,0,1,.052-2.16l.036-3.577c-.113,0-.22,0-.338,0a12.627,12.627,0,0,1-5.612-1.594,11.736,11.736,0,0,1-3.556-3.036,12.619,12.619,0,0,1-2.455-5.293,11.083,11.083,0,0,1-.229-2.469,6.133,6.133,0,0,1,.045-.673c0-.027.005-.038.008-.06s-.005-.023-.008-.035l-.058.056c-.585,1.463-1.61,4.6-.864,7.107l-9.068,2.5-1,.972c.005,4.294.067,9.147.277,12.151.447,6.375,6.722,6.99,6.722,6.99a15.237,15.237,0,0,0,8.2-2.94s-1.818,4.7-8.053,4.5l-.152-1.564s.506,6.731.458,8.427l1.009,0,14.347.06Zm-20.595-25.014a.817.817,0,1,1,.787-.824.806.806,0,0,1-.787.824m1.55-1.919c-.088.118-.737-.31-1.592-.241s-1.439.575-1.541.471c-.051-.047.03-.254.283-.488a2.07,2.07,0,0,1,2.5-.182c.283.195.392.389.349.441m1.564,7.65a.545.545,0,0,1-.374-.318,1.451,1.451,0,0,1,.073-.927q.258-.877.541-1.837a32.821,32.821,0,0,1,1.6-4.652,32.839,32.839,0,0,1-1.249,4.764q-.3.957-.569,1.828a1.277,1.277,0,0,0-.115.7c.044.158.253.19.472.2a5.31,5.31,0,0,1,1.4.174,5.209,5.209,0,0,1-1.41.094,1.369,1.369,0,0,1-.374-.03M207.213,138a2.341,2.341,0,0,1-2.848-.8c1.747-.018,4.986-2.105,4.126-1.506a1.857,1.857,0,0,1-1.278,2.3m2.76-8.87a.817.817,0,1,1,.787-.824.805.805,0,0,1-.787.824m1.826-1.921c-.088.118-.737-.31-1.592-.241s-1.438.575-1.541.471c-.05-.047.03-.254.283-.488a2.071,2.071,0,0,1,2.5-.182c.283.195.392.389.349.441" transform="translate(-51.614 -30.158)" fill="#b78876"/>
        <path id="Trazado_638916" data-name="Trazado 638916" d="M201.236,131.66a.817.817,0,1,0,.8.808.806.806,0,0,0-.8-.808" transform="translate(-52.111 -34.228)" fill="#263238"/>
        <path id="Trazado_638917" data-name="Trazado 638917" d="M202.176,130.56a2.069,2.069,0,0,0-2.5.183c-.254.234-.334.441-.283.488.1.1.685-.414,1.541-.471s1.5.36,1.592.241c.044-.053-.066-.246-.349-.441" transform="translate(-51.833 -33.855)" fill="#263238"/>
        <path id="Trazado_638918" data-name="Trazado 638918" d="M213.693,131.53a.817.817,0,1,0,.8.808.806.806,0,0,0-.8-.808" transform="translate(-55.35 -34.194)" fill="#263238"/>
        <path id="Trazado_638919" data-name="Trazado 638919" d="M215,130.426a2.071,2.071,0,0,0-2.5.182c-.253.235-.334.442-.283.488.1.1.686-.414,1.542-.471s1.5.36,1.591.241c.044-.053-.064-.246-.349-.441" transform="translate(-55.168 -33.82)" fill="#263238"/>
        <path id="Trazado_638920" data-name="Trazado 638920" d="M205.976,138.657c-.22-.01-.428-.041-.472-.2a1.28,1.28,0,0,1,.115-.7q.272-.87.569-1.827a32.866,32.866,0,0,0,1.249-4.764,32.709,32.709,0,0,0-1.6,4.652c-.189.641-.369,1.251-.541,1.836a1.454,1.454,0,0,0-.074.927.546.546,0,0,0,.374.318,1.369,1.369,0,0,0,.374.03,5.209,5.209,0,0,0,1.41-.094,5.273,5.273,0,0,0-1.4-.174" transform="translate(-53.338 -34.098)" fill="#263238"/>
        <path id="Trazado_638921" data-name="Trazado 638921" d="M206.414,144.078a2.341,2.341,0,0,0,2.848.8,1.856,1.856,0,0,0,1.278-2.3c.861-.6-2.378,1.487-4.126,1.506" transform="translate(-53.662 -37.037)" fill="#fff"/>
        <path id="Trazado_638922" data-name="Trazado 638922" d="M216.2,152.274a15.234,15.234,0,0,1-8.2,2.941l.152,1.563c6.236.2,8.053-4.5,8.053-4.5" transform="translate(-54.073 -39.587)" fill="#a36957"/>
        <path id="Trazado_638923" data-name="Trazado 638923" d="M208.259,120.2c-.746-2.509.28-5.644.864-7.106l.058-.056c0,.012.006.022.008.034.014-.105.027-.172.038-.172s.024.082.032.235c.006.073.007.165.009.27,2.1,9.179,12.088,10.047,12.088,10.047l-.026,2.488a13.383,13.383,0,0,0,2.114-.053c.289-.02.509-.066.662-.077s.235-.019.238-.005-.073.041-.222.081a6.406,6.406,0,0,1-.657.149,10.9,10.9,0,0,1-2.137.164l-.036,3.577a4.239,4.239,0,0,1,.178-.685,2.678,2.678,0,0,1,2.017-1.842,2.266,2.266,0,0,1,2.386,1.821,2.791,2.791,0,0,1-1.345,2.8,3.455,3.455,0,0,1-2.191.426c-.01.041-.026.072-.033.117a1.465,1.465,0,0,0,.207,1.035,1.469,1.469,0,0,0,2.26.307,1.465,1.465,0,0,0,.476-.942,3.188,3.188,0,0,0-.15-1.039c.019-.038.416.3.422,1.055a1.676,1.676,0,0,1-.5,1.185,1.774,1.774,0,0,1-2.807-.382,1.669,1.669,0,0,1-.17-1.276c.01-.036.023-.064.035-.1a3.983,3.983,0,0,1-.733-.209l-.07-.081-.154,14.94.056-.015.053-.015c5.407-1.3,7.963-5.858,9.142-10.628q.118-.476.218-.954c-.047.093-.093.194-.139.282a12.874,12.874,0,0,1-1.143,1.832,2.8,2.8,0,0,1-.522.595c-.059-.041.65-.923,1.422-2.548a14.923,14.923,0,0,0,.647-1.595,44,44,0,0,0,.448-8.183l-.015-.438a15.694,15.694,0,0,0-1.186-3.308c-.8-1.613-1.52-2.483-1.462-2.526a2.777,2.777,0,0,1,.531.588,12.739,12.739,0,0,1,1.172,1.814,14.229,14.229,0,0,1,.9,2.025l-.024-.71c0,.023,0,.015,0-.027v-.011l0-.016c0-.043-.013-.1-.024-.2v0a24.055,24.055,0,0,0-.411-2.583c-3.53-13.268-14.948-15.629-17.2-15.606-2.417.025-6.66-1.294-12.754,5.343a12.567,12.567,0,0,0-2.644,13.671l.019-.019,1-.972Z" transform="translate(-51.265 -27.191)" fill="#263238"/>
        <path id="Trazado_638924" data-name="Trazado 638924" d="M234.248,203.887a1.78,1.78,0,0,1-.329-.36,5.216,5.216,0,0,0-.779.119,5.365,5.365,0,0,0-.975.335,5.21,5.21,0,0,0-3.07,4.928l1.339-.539a6.856,6.856,0,0,0-.655,2.26,2.723,2.723,0,0,0,1.985-.911q-.186.864-.371,1.729a6.193,6.193,0,0,0,3.449-6.281,4.3,4.3,0,0,0-.2-.5c-.209-.423-.394-.664-.349-.705.024-.024.184.076.387.312-.012-.046-.024-.091-.038-.136a1.792,1.792,0,0,1-.387-.246" transform="translate(-59.558 -52.912)" fill="#263238"/>
        <path id="Trazado_638925" data-name="Trazado 638925" d="M235.442,203.041c-.05.038,0,.185.123.357a1.8,1.8,0,0,0,.716.605c.2.1.369.127.4.068.018-.033-.012-.087-.059-.15a2.05,2.05,0,0,0-.266-.275c-.067-.059-.138-.121-.215-.184a2.8,2.8,0,0,0-.592-.417c-.047-.017-.084-.021-.107,0" transform="translate(-61.204 -52.782)" fill="#e8505b"/>
        <path id="Trazado_638926" data-name="Trazado 638926" d="M238.863,193.143c-.828-.124-1.5.046-1.482.147s.655.118,1.425.234,1.39.286,1.433.185-.549-.447-1.377-.566" transform="translate(-61.713 -50.201)" fill="#e8505b"/>
        <path id="Trazado_638927" data-name="Trazado 638927" d="M238.716,177.9c.044.1.431.024.9-.01s.862-.025.89-.131-.38-.3-.919-.253-.914.3-.869.394" transform="translate(-62.059 -46.146)" fill="#e8505b"/>
        <path id="Trazado_638928" data-name="Trazado 638928" d="M238.369,163.641c.783-.23,1.445-.347,1.439-.457a2.3,2.3,0,0,0-1.546.087c-.834.24-1.405.667-1.353.754s.676-.159,1.46-.384" transform="translate(-61.589 -42.401)" fill="#e8505b"/>
        <path id="Trazado_638929" data-name="Trazado 638929" d="M227.658,128.958a6.4,6.4,0,0,0,.657-.149c.148-.041.224-.069.221-.082s-.084-.01-.237.006-.374.057-.663.077a13.371,13.371,0,0,1-2.113.053c-.109-.005-.212-.007-.326-.015a12.953,12.953,0,0,1-3.515-.759,12.508,12.508,0,0,1-1.927-.892,11.764,11.764,0,0,1-3.446-2.942,12.621,12.621,0,0,1-1.183-1.763,12.978,12.978,0,0,1-1.3-3.353,13.447,13.447,0,0,1-.345-2.415c-.013-.15-.017-.281-.019-.4s0-.2-.009-.269c-.007-.153-.018-.235-.032-.235s-.024.067-.037.172c0,.022-.005.034-.008.06a6.13,6.13,0,0,0-.045.673,11.082,11.082,0,0,0,.229,2.469,12.619,12.619,0,0,0,2.455,5.293,11.712,11.712,0,0,0,3.556,3.036,12.627,12.627,0,0,0,5.612,1.594c.118,0,.225,0,.338,0a10.9,10.9,0,0,0,2.137-.164" transform="translate(-55.459 -30.11)" fill="#263238"/>
        <path id="Trazado_638930" data-name="Trazado 638930" d="M240.208,125.208a2.8,2.8,0,0,0-.531-.588c-.058.043.665.912,1.462,2.526a15.714,15.714,0,0,1,1.185,3.307,15.255,15.255,0,0,1,.434,3.443,15.646,15.646,0,0,1-.867,5.179,15.174,15.174,0,0,1-.647,1.595c-.772,1.625-1.482,2.506-1.422,2.549a2.819,2.819,0,0,0,.522-.6,12.865,12.865,0,0,0,1.144-1.832c.047-.088.092-.188.138-.281A14.665,14.665,0,0,0,242.582,130c-.094-.332-.2-.647-.306-.952a14.351,14.351,0,0,0-.9-2.025,12.8,12.8,0,0,0-1.172-1.814" transform="translate(-62.309 -32.398)" fill="#263238"/>
        <path id="Trazado_638931" data-name="Trazado 638931" d="M244.225,165.33a3.738,3.738,0,0,0-1.146-.669,2,2,0,0,0-.348-.095c-.081-.015-.124-.017-.128,0a8.119,8.119,0,0,1,1.441.971A4.568,4.568,0,0,1,245.075,167c.009.019.018.034.027.053a4.135,4.135,0,0,1,.316,2.2,3.956,3.956,0,0,1-.259.882,4.524,4.524,0,0,1-.682,1.134,4.6,4.6,0,0,1-2.646,1.548c-.147.037-.265.041-.344.061s-.122.031-.122.044.042.024.124.033a1.969,1.969,0,0,0,.36.011,3.74,3.74,0,0,0,1.291-.308,4.48,4.48,0,0,0,1.391-.944c.072-.07.145-.135.215-.212.05-.055.093-.121.141-.179l.043-.055a4.362,4.362,0,0,0,.56-.939,4.171,4.171,0,0,0,.31-1.019,4.31,4.31,0,0,0-.373-2.4,4.618,4.618,0,0,0-.665-1.033,4.246,4.246,0,0,0-.536-.539" transform="translate(-62.748 -42.78)" fill="#263238"/>
        <path id="Trazado_638932" data-name="Trazado 638932" d="M236.108,204.106c-.045.041.141.282.349.705a4.172,4.172,0,0,1,.2.5,4.35,4.35,0,0,1-.053,3.044c-.086.22-.166.4-.227.517s-.082.2-.061.216.084-.03.184-.13a2.191,2.191,0,0,0,.35-.486,3.756,3.756,0,0,0-.163-3.8,2.963,2.963,0,0,0-.2-.256c-.2-.235-.364-.337-.388-.312" transform="translate(-61.38 -53.061)" fill="#263238"/>
        <path id="Trazado_638933" data-name="Trazado 638933" d="M230.5,140.218c.221-.646.645-.846.653-.807a4.617,4.617,0,0,0-.388.845,3.462,3.462,0,0,0,2.192-.426,2.792,2.792,0,0,0,1.344-2.8,2.266,2.266,0,0,0-2.385-1.821,2.677,2.677,0,0,0-2.017,1.842,4.26,4.26,0,0,0-.178.685,9.12,9.12,0,0,0-.051,2.16l.029.033.07.081a3.96,3.96,0,0,0,.732.209m1.446-3.78a1.133,1.133,0,0,1,.969.16,1.318,1.318,0,0,1,.427,1.121,1.793,1.793,0,0,1-.4,1.086,1.333,1.333,0,0,1-.833.472c-.565.071-.835-.229-.789-.265.033-.064.313.069.715-.066a1.291,1.291,0,0,0,.827-1.245.975.975,0,0,0-.226-.759.861.861,0,0,0-.631-.169c-.43.05-.73.172-.756.1-.019-.047.186-.273.7-.434" transform="translate(-59.699 -35.146)" fill="#b78876"/>
        <path id="Trazado_638934" data-name="Trazado 638934" d="M232.576,137.194a.866.866,0,0,1,.632.169.976.976,0,0,1,.226.759,1.291,1.291,0,0,1-.827,1.245c-.4.135-.682,0-.716.066-.045.036.223.337.789.265a1.328,1.328,0,0,0,.833-.472,1.789,1.789,0,0,0,.4-1.085,1.319,1.319,0,0,0-.426-1.122,1.137,1.137,0,0,0-.97-.16c-.51.161-.716.386-.7.434.027.073.327-.05.756-.1" transform="translate(-60.267 -35.569)" fill="#a36957"/>
        <path id="Trazado_638935" data-name="Trazado 638935" d="M230.776,141.7c-.011.033-.024.062-.035.1a1.675,1.675,0,0,0,.17,1.277,1.775,1.775,0,0,0,2.808.381,1.675,1.675,0,0,0,.5-1.185c-.006-.758-.4-1.092-.421-1.055a3.188,3.188,0,0,1,.149,1.039,1.473,1.473,0,0,1-.476.943,1.469,1.469,0,0,1-2.261-.307,1.471,1.471,0,0,1-.207-1.035c.007-.045.024-.075.033-.116a4.617,4.617,0,0,1,.388-.845c-.007-.039-.432.161-.653.807" transform="translate(-59.972 -36.627)" fill="#e8505b"/>
        <path id="Trazado_638936" data-name="Trazado 638936" d="M204.98,387.508c-.019-.181-.046-.374-.062-.55a28.53,28.53,0,0,1-.055-4.758,12.768,12.768,0,0,1,.152-1.285,3.5,3.5,0,0,1,.082-.413c-2.771-.3-5.268-.551-7.316-.755l-4.112-.416.647,8.246Z" transform="translate(-50.349 -98.616)" fill="#b78876"/>
        <path id="Trazado_638937" data-name="Trazado 638937" d="M215.989,381.679c-2.414-.278-4.719-.531-6.865-.761.017.138-.044.73-.066,1.705a34.251,34.251,0,0,0,.216,4.71c.021.186.053.391.078.584l23.359-.153c-.7-2.216-1.123-3.618-1.185-3.92a1.413,1.413,0,0,1-.015-.235l-1.343-.175c-3.627-.475-8.638-1.116-14.18-1.756" transform="translate(-54.347 -99.028)" fill="#b78876"/>
        <path id="Trazado_638938" data-name="Trazado 638938" d="M208.967,382.622c.021-.974.083-1.567.066-1.7l-.03,0a3.7,3.7,0,0,0-.082.414c-.051.292-.111.724-.152,1.285a28.53,28.53,0,0,0,.055,4.758c.016.175.043.369.062.55l.374,0c-.024-.193-.057-.4-.078-.585a34.124,34.124,0,0,1-.216-4.71" transform="translate(-54.255 -99.027)" fill="#a36957"/>
        <path id="Trazado_638939" data-name="Trazado 638939" d="M225.644,260.3c5.526.154,10.6.3,14.954.434.069-4.558.135-9,.2-13.279a5.946,5.946,0,0,1-.215-.617l.009-.661c-4.308-.1-9.254-.221-14.605-.358-.127,4.664-.243,9.5-.343,14.481" transform="translate(-58.661 -63.906)" fill="#2b95f9"/>
        <path id="Trazado_638940" data-name="Trazado 638940" d="M211.771,245.445c-2.952-.078-5.823-.157-8.59-.234-.171,4.668-.349,9.509-.531,14.475,2.555.066,5.2.135,7.909.207,3,.081,5.917.16,8.724.238.1-4.98.223-9.817.356-14.48-2.543-.066-5.174-.135-7.868-.206" transform="translate(-52.683 -63.748)" fill="#2b95f9"/>
        <path id="Trazado_638941" data-name="Trazado 638941" d="M239.854,346.573c-4.062-.088-9.042-.2-14.624-.343.012,1.27.024,2.517.038,3.712.058,4.106.109,7.744.153,10.872,5.544.158,10.511.306,14.584.435-.042-2.786-.107-5.945-.118-9.437-.016-1.671-.026-3.423-.033-5.239" transform="translate(-58.554 -90.01)" fill="#2b95f9"/>
        <path id="Trazado_638942" data-name="Trazado 638942" d="M245.583,373.984c.028,1.971.051,3.508.066,4.568,0,.511.006.906.008,1.188s-.011.406-.011.406,1.24-5.225,2.829-13.186q-1.4-.028-2.985-.063c.016,2.756.055,5.137.092,7.086" transform="translate(-63.821 -95.384)" fill="#2b95f9"/>
        <path id="Trazado_638943" data-name="Trazado 638943" d="M245.4,351.933c-.006,3.5.04,6.657.062,9.445l3.034.1c.846-4.247,1.786-9.256,2.691-14.657-1.6-.03-3.555-.068-5.8-.117,0,1.813,0,3.563.009,5.231" transform="translate(-63.795 -90.133)" fill="#2b95f9"/>
        <path id="Trazado_638944" data-name="Trazado 638944" d="M240.373,378.432c-.033-1.06-.078-2.6-.138-4.567-.06-1.951-.121-4.335-.158-7.094-4.072-.089-9.039-.206-14.582-.344.03,2.153.057,4.06.079,5.669.03,1.984.053,3.53.069,4.6,0,.514.006.912.008,1.2,0,.127,0,.222-.005.289,3.144.4,5.968.794,8.284,1.138l1.865.2,4.653.505s-.016-.137-.029-.4c-.011-.283-.026-.678-.046-1.188" transform="translate(-58.623 -95.261)" fill="#2b95f9"/>
        <path id="Trazado_638945" data-name="Trazado 638945" d="M252.683,261.785c-2.867-9.375-4.968-10.77-6.116-12.734-.051,4.052-.112,8.239-.179,12.535,2.325.071,4.438.138,6.3.2" transform="translate(-64.054 -64.747)" fill="#2b95f9"/>
        <path id="Trazado_638946" data-name="Trazado 638946" d="M218.637,285.8c-3.107-.079-6.36-.164-9.712-.253-2.48-.067-4.9-.132-7.256-.2-.193,4.989-.38,9.826-.561,14.472l6.6.174c3.752.1,7.377.2,10.815.3.017-4.669.052-9.51.11-14.491" transform="translate(-52.283 -74.183)" fill="#2b95f9"/>
        <path id="Trazado_638947" data-name="Trazado 638947" d="M246.15,275.627c-.027,1.795-.054,3.568-.081,5.333,3.734.115,6.877.218,9.227.3a52.335,52.335,0,0,0-1.4-10.354c-.422-1.625-.83-3.07-1.223-4.371-1.876-.038-4.015-.085-6.373-.139q-.072,4.543-.152,9.229" transform="translate(-63.971 -69.256)" fill="#2b95f9"/>
        <path id="Trazado_638948" data-name="Trazado 638948" d="M219.077,265.724c-2.808-.072-5.726-.148-8.727-.228-2.71-.073-5.356-.144-7.912-.215q-.088,2.384-.176,4.8-.191,4.916-.375,9.671c2.352.061,4.773.124,7.252.19,3.35.09,6.6.178,9.706.265q.042-3.506.1-7.089.061-3.743.136-7.4" transform="translate(-52.485 -68.966)" fill="#2b95f9"/>
        <path id="Trazado_638949" data-name="Trazado 638949" d="M240.231,286.334c-4.314-.1-9.4-.221-14.962-.362-.06,4.981-.1,9.823-.124,14.492,5.57.157,10.623.306,14.868.437.061-4.7.136-9.569.218-14.567" transform="translate(-58.532 -74.345)" fill="#2b95f9"/>
        <path id="Trazado_638950" data-name="Trazado 638950" d="M240.509,266.258c-4.355-.1-9.43-.223-14.957-.364q-.072,3.652-.134,7.392-.057,3.589-.1,7.094c5.564.155,10.648.3,14.961.437q.043-2.643.089-5.327.071-4.688.139-9.231" transform="translate(-58.577 -69.125)" fill="#2b95f9"/>
        <path id="Trazado_638951" data-name="Trazado 638951" d="M246.22,174.362c.033,1.06.078,2.6.138,4.567.021.679.041,1.43.061,2.211.024.247.036.494.038.742,3.53.1,6.768.2,9.62.289-1.658-4.769-5.353-7.853-9.339-9.817a4.333,4.333,0,0,1-.56.939c.01.272.024.624.041,1.069" transform="translate(-64 -44.807)" fill="#2b95f9"/>
        <path id="Trazado_638952" data-name="Trazado 638952" d="M245.367,174.714c0-.417,0-.753-.007-1.017-.047.058-.091.124-.141.179-.069.077-.142.143-.214.213a7.419,7.419,0,0,1-1.812,2.461,7.518,7.518,0,0,1,2.259,3.822c-.007-.371-.013-.747-.02-1.092-.028-1.971-.05-3.507-.066-4.567" transform="translate(-63.224 -45.157)" fill="#2b95f9"/>
        <path id="Trazado_638953" data-name="Trazado 638953" d="M199.664,203.255c-4.637-.128-8.979-.252-12.874-.369q-.255,2.178-.512,4.442-.229,2.016-.443,3.965a22.3,22.3,0,0,0,1.618,7.394c3.526.083,7.43.179,11.6.286.22-5.671.424-10.943.609-15.718" transform="translate(-48.312 -52.745)" fill="#2b95f9"/>
        <path id="Trazado_638954" data-name="Trazado 638954" d="M227.566,198.746l5.177.147a5.121,5.121,0,0,1,.779-.119c-.12-.172-.172-.318-.123-.357.022-.018.059-.014.106,0a3.262,3.262,0,0,1-.986-2.253c.014-1.752,1.211-3.306,2.361-4.734a10.22,10.22,0,0,1-1.406-6.055l-5.293-.137c-.149,3.223-.323,7.02-.522,11.322-.031.711-.062,1.446-.093,2.184" transform="translate(-59.161 -48.158)" fill="#2b95f9"/>
        <path id="Trazado_638955" data-name="Trazado 638955" d="M213.185,225.393c-3.193-.085-6.294-.17-9.267-.253-.168,4.589-.346,9.431-.531,14.477,2.765.07,5.636.146,8.587.224,2.694.073,5.326.144,7.869.214.145-5.057.3-9.9.472-14.475q-3.47-.09-7.129-.187" transform="translate(-52.875 -58.53)" fill="#2b95f9"/>
        <path id="Trazado_638956" data-name="Trazado 638956" d="M246.309,172.057c-.036.167-.081.332-.127.5a4.106,4.106,0,0,0,.228-.469Z" transform="translate(-64.001 -44.73)" fill="#2b95f9"/>
        <path id="Trazado_638957" data-name="Trazado 638957" d="M216.855,217.447a9.753,9.753,0,0,1-4.587-1.9,8.085,8.085,0,0,1-1.114-1.021c-.235-.267-.346-.431-.328-.448.048-.047.573.541,1.6,1.248a10.138,10.138,0,0,0,8.191,1.544c.18-4.677.366-9.048.551-13.036-2.893-.074-5.9-.152-9-.235-2.555-.068-5.05-.136-7.47-.2-.175,4.775-.369,10.047-.576,15.718,2.972.076,6.071.156,9.264.241,2.436.065,4.818.13,7.132.194.03-.793.059-1.567.089-2.344a9.8,9.8,0,0,1-3.752.243" transform="translate(-53.066 -52.877)" fill="#2b95f9"/>
        <path id="Trazado_638958" data-name="Trazado 638958" d="M246.546,185.842q.04,1.753.067,3.784c.042,2.818.11,6.027.121,9.574,0,.025,0,.053,0,.078,5.021.152,9.117.286,11.9.388-.367-2.7-.929-6.387-1.788-11.442a16.118,16.118,0,0,0-.565-2.3c-2.877-.064-6.147-.141-9.72-.227,0,.047-.01.094-.012.141" transform="translate(-64.095 -48.277)" fill="#2b95f9"/>
        <path id="Trazado_638959" data-name="Trazado 638959" d="M241.319,210.381c0-2.1,0-4.125-.007-6.044-1.774-.041-3.66-.085-5.642-.133a2.517,2.517,0,0,1-.75-.019l-.556-.013c.047.063.076.118.058.15-.03.058-.2.029-.4-.068.013.045.026.09.038.136a2.754,2.754,0,0,1,.2.256,3.756,3.756,0,0,1,.163,3.8,2.184,2.184,0,0,1-.35.485c-.1.1-.164.147-.184.131s0-.094.061-.216.141-.3.227-.517a4.352,4.352,0,0,0,.053-3.045,6.19,6.19,0,0,1-3.449,6.281q.186-.865.371-1.729a2.721,2.721,0,0,1-1.985.912,6.861,6.861,0,0,1,.656-2.261l-1.339.54a5.208,5.208,0,0,1,3.071-4.928L227.334,204c-.167,3.962-.336,8.3-.5,12.943.259-.07.506-.144.728-.223,1.177-.412,1.838-.841,1.873-.784.013.021-.137.149-.434.346a8.068,8.068,0,0,1-1.342.693,8.658,8.658,0,0,1-.836.3c-.029.81-.057,1.619-.086,2.447,5.218.144,10.07.284,14.338.411l.123-9.381h.021c-4.2-.374-7.283-.708-7.276-.8s3.14.1,7.377.432" transform="translate(-58.945 -53.033)" fill="#2b95f9"/>
        <path id="Trazado_638960" data-name="Trazado 638960" d="M246.838,210.527c.716.058,1.458.117,2.224.182,5.458.458,9.876.914,9.868,1.021a1.914,1.914,0,0,1-.56.016l.935.069s.3-.526-.584-7.1c-2.778-.047-6.883-.131-11.915-.247.017,1.923.027,3.949.033,6.06" transform="translate(-64.163 -53.156)" fill="#2b95f9"/>
        <path id="Trazado_638961" data-name="Trazado 638961" d="M204.921,198.135c2.418.062,4.912.128,7.466.2,3.1.082,6.114.165,9.009.246.035-.739.069-1.476.1-2.188.206-4.3.4-8.1.578-11.316l-3.372-.09c-4.673-.124-9.155-.248-13.314-.366-.1,2.793-.2,5.968-.323,9.476-.048,1.3-.1,2.656-.149,4.042" transform="translate(-53.274 -47.995)" fill="#2b95f9"/>
        <path id="Trazado_638962" data-name="Trazado 638962" d="M189.461,179.624c3.457.078,7.414.172,11.724.28.11-2.645.2-4.946.283-6.838.089-1.955.159-3.48.206-4.531.013-.235.024-.444.034-.631a27.584,27.584,0,0,0-11.018,2.148c-.2,1.544-.455,3.534-.76,5.9-.147,1.14-.3,2.37-.47,3.673" transform="translate(-49.255 -43.65)" fill="#2b95f9"/>
        <path id="Trazado_638963" data-name="Trazado 638963" d="M199.664,225.013c-4.1-.115-7.947-.226-11.428-.329.109.215.22.428.341.629l5.535,9.146-.9,4.883,5.893.148c.2-5.046.383-9.887.561-14.476" transform="translate(-48.936 -58.412)" fill="#2b95f9"/>
        <path id="Trazado_638964" data-name="Trazado 638964" d="M226.12,240.223c5.35.149,10.294.292,14.6.421l.19-14.544c-4.27-.1-9.125-.22-14.346-.354-.155,4.574-.306,9.418-.443,14.476" transform="translate(-58.785 -58.688)" fill="#2b95f9"/>
        <path id="Trazado_638965" data-name="Trazado 638965" d="M197.823,269.981q.093-2.419.186-4.8c-2.969-.082-5.813-.163-8.493-.241a141.354,141.354,0,0,0-3.22,14.436c3.446.083,7.2.177,11.171.279q.174-4.76.355-9.677" transform="translate(-48.432 -68.878)" fill="#2b95f9"/>
        <path id="Trazado_638966" data-name="Trazado 638966" d="M227.632,168.333a36.644,36.644,0,0,0-3.986-.595,2.6,2.6,0,0,1-.691.09c-.448.035-1.1.067-1.9.095-1.605.056-3.823.078-6.271.069l-6.267-.044c-1.447-.013-2.389-.028-2.562-.071,0,.184-.008.388-.013.619-.031,1.053-.077,2.578-.135,4.535-.064,1.892-.143,4.191-.233,6.836,4.159.1,8.64.22,13.312.344l3.382.091c.109-1.961.209-3.7.3-5.183.124-1.98.221-3.523.288-4.587.036-.512.064-.909.084-1.192s.042-.406.042-.406.005.138,0,.408-.027.681-.046,1.194c-.05,1.065-.123,2.609-.216,4.591-.068,1.49-.149,3.224-.238,5.181q2.716.074,5.317.147a10.555,10.555,0,0,1,2.225-5.4,7.734,7.734,0,0,1-2.392-6.72" transform="translate(-53.444 -43.607)" fill="#2b95f9"/>
        <path id="Trazado_638967" data-name="Trazado 638967" d="M244.785,199.7c.006-3.547-.042-6.755-.064-9.572-.005-.884-.013-1.713-.022-2.518a7.807,7.807,0,0,1-2.71,4.469,6.949,6.949,0,0,1-.354,5.886,4.091,4.091,0,0,1-1.539,1.664q2.453.071,4.688.139V199.7" transform="translate(-62.419 -48.773)" fill="#2b95f9"/>
        <path id="Trazado_638968" data-name="Trazado 638968" d="M196.937,375.878c3.647.294,8.681.768,14.228,1.408,1.847.213,3.625.431,5.321.648-.005-.068-.012-.162-.018-.287-.011-.284-.026-.681-.047-1.194-.032-1.066-.079-2.612-.14-4.595-.048-1.608-.1-3.519-.147-5.678-4.118-.1-8.545-.218-13.161-.34-2.2-.058-4.352-.117-6.452-.175-.032.758-.062,1.487-.09,2.149-.089,1.956-.159,3.48-.207,4.533-.027.506-.047.9-.062,1.178s-.036.4-.036.4-.008-.136,0-.4c.005-.281.015-.673.026-1.18.03-1.053.076-2.578.134-4.535.022-.662.048-1.391.073-2.15l-6.03-.168c.989,7.348,1.241,9.975,1.241,9.975l.784.085.263.014c1.022.06,2.5.167,4.322.314" transform="translate(-49.48 -95.018)" fill="#2b95f9"/>
        <path id="Trazado_638969" data-name="Trazado 638969" d="M199.749,245.139l-5.944-.168-2.077,11.248c-.254.8-.581,1.877-.951,3.184,2.656.064,5.472.135,8.41.21.192-4.965.38-9.807.561-14.475" transform="translate(-49.597 -63.686)" fill="#2b95f9"/>
        <path id="Trazado_638970" data-name="Trazado 638970" d="M245.468,326.624c-.046,5.225-.074,10.123-.078,14.593,2.256.073,4.218.138,5.828.195.78-4.667,1.53-9.622,2.168-14.63-2.006-.034-4.7-.087-7.918-.158" transform="translate(-63.795 -84.913)" fill="#2b95f9"/>
        <path id="Trazado_638971" data-name="Trazado 638971" d="M195.623,360.009c.127-3.716.289-8.489.482-14.146.005-.13.01-.269.015-.4-3.013-.083-5.914-.164-8.666-.243.908,6.176,1.581,10.972,2.077,14.634l6.093.155" transform="translate(-48.733 -89.748)" fill="#2b95f9"/>
        <path id="Trazado_638972" data-name="Trazado 638972" d="M239.853,326.491c-4.157-.092-9.171-.211-14.738-.35.011,5.216.041,10.073.081,14.5,5.582.159,10.563.309,14.626.437-.015-4.471,0-9.369.03-14.592" transform="translate(-58.524 -84.788)" fill="#2b95f9"/>
        <path id="Trazado_638973" data-name="Trazado 638973" d="M195.75,319.757c.167-4.549.345-9.393.531-14.472-4.386-.121-8.521-.239-12.276-.349a99.349,99.349,0,0,0,.332,14.535c3.534.085,7.369.181,11.413.286" transform="translate(-47.804 -79.275)" fill="#2b95f9"/>
        <path id="Trazado_638974" data-name="Trazado 638974" d="M195.378,339.835c.16-4.363.338-9.215.531-14.471-4.024-.11-7.841-.218-11.36-.321.133,1.28.292,2.56.487,3.84.6,3.97,1.137,7.527,1.608,10.73,2.774.069,5.7.143,8.734.222" transform="translate(-47.978 -84.502)" fill="#2b95f9"/>
        <path id="Trazado_638975" data-name="Trazado 638975" d="M206.076,325.65l-5.962-.161c-.2,5.256-.391,10.107-.561,14.47l5.311.14c4.7.126,9.213.25,13.4.369-.059-4.432-.105-9.288-.13-14.505-3.8-.1-7.849-.2-12.054-.312" transform="translate(-51.878 -84.618)" fill="#2b95f9"/>
        <path id="Trazado_638976" data-name="Trazado 638976" d="M218.048,346.048c-4.187-.1-8.7-.221-13.411-.346l-5.316-.144c0,.132-.01.272-.016.4-.234,5.656-.431,10.428-.585,14.143q3.148.081,6.446.169c4.61.123,9.031.245,13.143.362-.07-3.123-.14-6.759-.206-10.862-.019-1.2-.038-2.449-.055-3.723" transform="translate(-51.662 -89.836)" fill="#2b95f9"/>
        <path id="Trazado_638977" data-name="Trazado 638977" d="M245.986,286.473c-.076,5-.149,9.873-.22,14.57,3.83.119,6.971.224,9.206.306a131.9,131.9,0,0,0,.253-14.686c-2.352-.041-5.5-.107-9.239-.191" transform="translate(-63.893 -74.475)" fill="#2b95f9"/>
        <path id="Trazado_638978" data-name="Trazado 638978" d="M245.693,306.549c-.052,3.44-.1,6.792-.151,10.027-.016,1.547-.03,3.059-.044,4.553,3.233.1,5.93.192,7.938.266.623-4.915,1.134-9.876,1.456-14.661-2.235-.036-5.374-.1-9.2-.185" transform="translate(-63.823 -79.694)" fill="#2b95f9"/>
        <path id="Trazado_638979" data-name="Trazado 638979" d="M218.324,305.88c-3.44-.087-7.068-.181-10.823-.281l-6.609-.179c-.2,5.078-.385,9.922-.561,14.47l5.958.157c4.2.112,8.245.223,12.042.331-.02-4.584-.024-9.435-.007-14.5" transform="translate(-52.081 -79.401)" fill="#2b95f9"/>
        <path id="Trazado_638980" data-name="Trazado 638980" d="M196.345,299.7c.17-4.647.349-9.485.531-14.473-3.985-.11-7.757-.218-11.214-.319a127.96,127.96,0,0,0-1.59,14.486c3.755.09,7.888.193,12.272.306" transform="translate(-47.854 -74.068)" fill="#2b95f9"/>
        <path id="Trazado_638981" data-name="Trazado 638981" d="M240,306.412c-4.244-.095-9.3-.216-14.866-.357-.025,5.063-.03,9.914-.022,14.5,5.567.158,10.582.306,14.74.437.01-1.492.02-3,.033-4.545.03-3.237.07-6.591.115-10.033" transform="translate(-58.522 -79.566)" fill="#2b95f9"/>
        <path id="Trazado_638982" data-name="Trazado 638982" d="M185.745,180.4c.178-1.314.35-2.555.512-3.7.329-2.324.614-4.278.844-5.783a20.216,20.216,0,0,0-7.108,5.191q-1.927,2.215-3.622,4.1c2.356.041,5.549.107,9.373.193" transform="translate(-45.852 -44.433)" fill="#2b95f9"/>
        <path id="Trazado_638983" data-name="Trazado 638983" d="M181.7,207.141q.255-2.247.512-4.409c-5.063-.151-9.347-.286-12.506-.4l7.982,9.068.7.8,3.11-3.256q.1-.9.2-1.8" transform="translate(-44.12 -52.602)" fill="#2b95f9"/>
        <path id="Trazado_638984" data-name="Trazado 638984" d="M168.143,197.287c3.183.059,7.552.155,12.726.277.6-5,1.188-9.611,1.72-13.546-3.892-.12-7.126-.226-9.489-.312-4.313,4.806-7.357,7.938-8.351,8.947-.229.233-.363.366-.363.366Z" transform="translate(-42.736 -47.759)" fill="#2b95f9"/>
        <path id="Trazado_638985" data-name="Trazado 638985" d="M187.178,197.686c3.888.092,8.223.2,12.85.318.054-1.388.107-2.747.156-4.046.145-3.506.278-6.679.392-9.47-4.32-.123-8.284-.241-11.746-.346-.5,3.935-1.066,8.543-1.652,13.545" transform="translate(-48.661 -47.872)" fill="#2b95f9"/>
        <path id="Trazado_638986" data-name="Trazado 638986" d="M225.14,285.969l-.383-.01c-.058,4.981-.093,9.822-.11,14.491l.37.01c.024-4.669.064-9.511.124-14.492" transform="translate(-58.402 -74.342)" fill="#2b95f9"/>
        <path id="Trazado_638987" data-name="Trazado 638987" d="M226.367,222.023c-.03.776-.059,1.551-.089,2.344l.339.01c.029-.828.058-1.638.086-2.447-.109.033-.221.064-.336.094" transform="translate(-58.826 -57.696)" fill="#2b95f9"/>
        <path id="Trazado_638988" data-name="Trazado 638988" d="M226.094,225.735c-.168,4.573-.327,9.418-.473,14.476l.369.01c.138-5.057.288-9.9.443-14.476l-.34-.009" transform="translate(-58.655 -58.685)" fill="#2b95f9"/>
        <path id="Trazado_638989" data-name="Trazado 638989" d="M225.482,245.806c-.133,4.664-.254,9.5-.356,14.48l.383.01c.1-4.98.216-9.817.342-14.481l-.369-.01" transform="translate(-58.527 -63.903)" fill="#2b95f9"/>
        <path id="Trazado_638990" data-name="Trazado 638990" d="M228.8,170.954c.02-.513.036-.91.047-1.194s0-.408,0-.408-.021.137-.042.406l-.084,1.192c-.067,1.065-.164,2.608-.288,4.587-.092,1.487-.193,3.223-.3,5.184l.212.005c.09-1.956.17-3.691.239-5.181.093-1.981.165-3.525.215-4.591" transform="translate(-59.309 -44.027)" fill="#2b95f9"/>
        <path id="Trazado_638991" data-name="Trazado 638991" d="M227.184,198.736l.283.008c.031-.738.062-1.473.093-2.184.2-4.3.373-8.1.522-11.322l-.216-.006c-.177,3.218-.371,7.014-.578,11.316-.035.713-.069,1.449-.1,2.188" transform="translate(-59.062 -48.155)" fill="#2b95f9"/>
        <path id="Trazado_638992" data-name="Trazado 638992" d="M225.417,265.89l-.383-.009q-.074,3.654-.136,7.4-.057,3.587-.1,7.089l.384.01q.042-3.508.1-7.093.06-3.742.134-7.393" transform="translate(-58.442 -69.122)" fill="#2b95f9"/>
        <path id="Trazado_638993" data-name="Trazado 638993" d="M226.415,217.022c.115-.027.226-.056.335-.086.165-4.641.334-8.981.5-12.942l-.284-.008c-.186,3.989-.371,8.359-.551,13.036" transform="translate(-58.862 -53.031)" fill="#2b95f9"/>
        <path id="Trazado_638994" data-name="Trazado 638994" d="M225.01,306.052l-.369-.01c-.018,5.063-.014,9.914.007,14.5l.341.01c-.009-4.584,0-9.435.021-14.5" transform="translate(-58.398 -79.563)" fill="#2b95f9"/>
        <path id="Trazado_638995" data-name="Trazado 638995" d="M224.656,326.129c.024,5.216.07,10.073.13,14.505l.291.008c-.041-4.432-.07-9.288-.081-14.505l-.34-.008" transform="translate(-58.405 -84.785)" fill="#2b95f9"/>
        <path id="Trazado_638996" data-name="Trazado 638996" d="M225.567,376.692c-.016-1.066-.039-2.613-.069-4.6-.022-1.61-.05-3.517-.079-5.669l-.217-.005c.049,2.159.1,4.07.147,5.677.061,1.983.108,3.529.141,4.6l.047,1.194c.006.125.013.219.018.286l.016,0c0-.068.005-.163.005-.289q0-.426-.008-1.2" transform="translate(-58.546 -95.26)" fill="#2b95f9"/>
        <path id="Trazado_638997" data-name="Trazado 638997" d="M225.128,346.227l-.289-.007c.017,1.274.036,2.524.055,3.723.066,4.1.135,7.739.206,10.862l.22.006c-.044-3.128-.1-6.766-.153-10.872-.013-1.2-.026-2.442-.038-3.712" transform="translate(-58.452 -90.008)" fill="#2b95f9"/>
        <path id="Trazado_638998" data-name="Trazado 638998" d="M246.249,261.321c.067-4.3.127-8.483.178-12.535a5.991,5.991,0,0,1-.376-.756c-.064,4.282-.132,8.721-.2,13.279l.4.012" transform="translate(-63.915 -64.481)" fill="#2b95f9"/>
        <path id="Trazado_638999" data-name="Trazado 638999" d="M246.162,266.395l-.4-.009q-.069,4.545-.139,9.231c-.031,1.792-.061,3.565-.089,5.327l.394.013c.027-1.765.053-3.539.08-5.333q.08-4.687.152-9.229" transform="translate(-63.833 -69.253)" fill="#2b95f9"/>
        <path id="Trazado_639000" data-name="Trazado 639000" d="M246.4,199.252v.068l.273.008c0-.025,0-.053,0-.078-.011-3.548-.078-6.756-.121-9.574q-.027-2.034-.067-3.784a8.168,8.168,0,0,1-.17,1.269c.009.805.017,1.635.022,2.518.021,2.817.07,6.025.064,9.572" transform="translate(-64.036 -48.327)" fill="#2b95f9"/>
        <path id="Trazado_639001" data-name="Trazado 639001" d="M246.44,210.5l.3.024c0-2.111-.016-4.137-.033-6.061l-.275-.007c.008,1.919.01,3.939.007,6.044" transform="translate(-64.066 -53.153)" fill="#2b95f9"/>
        <path id="Trazado_639002" data-name="Trazado 639002" d="M246.206,174.692c-.017-.445-.031-.8-.041-1.069l-.042.055c0,.264,0,.6.006,1.017.016,1.06.038,2.6.066,4.567.007.345.013.72.02,1.092a7.934,7.934,0,0,1,.192,1.117c-.02-.781-.041-1.532-.061-2.211-.06-1.971-.106-3.507-.138-4.567" transform="translate(-63.985 -45.137)" fill="#2b95f9"/>
        <path id="Trazado_639003" data-name="Trazado 639003" d="M245.848,286.47l-.394-.009c-.081,5-.155,9.87-.217,14.567l.391.012c.071-4.7.144-9.57.22-14.57" transform="translate(-63.755 -74.472)" fill="#2b95f9"/>
        <path id="Trazado_639004" data-name="Trazado 639004" d="M245.574,378.551c-.016-1.06-.038-2.6-.066-4.568-.038-1.949-.076-4.331-.093-7.086l-.214,0c.037,2.759.1,5.143.157,7.094.06,1.971.107,3.507.138,4.567q.03.765.046,1.187c.013.268.029.4.029.4s.01-.138.01-.406,0-.678-.007-1.188" transform="translate(-63.746 -95.382)" fill="#2b95f9"/>
        <path id="Trazado_639005" data-name="Trazado 639005" d="M245.361,326.621l-.344-.007c-.033,5.223-.045,10.121-.03,14.592l.3.009c0-4.47.032-9.369.078-14.593" transform="translate(-63.688 -84.911)" fill="#2b95f9"/>
        <path id="Trazado_639006" data-name="Trazado 639006" d="M245.287,346.7l-.3-.007c.007,1.816.017,3.568.033,5.239.01,3.491.075,6.651.118,9.436l.217.007c-.022-2.788-.068-5.95-.063-9.444-.007-1.669-.01-3.418-.008-5.231" transform="translate(-63.691 -90.131)" fill="#2b95f9"/>
        <path id="Trazado_639007" data-name="Trazado 639007" d="M245.572,306.546l-.391-.009c-.045,3.441-.084,6.8-.115,10.033-.013,1.544-.023,3.053-.033,4.545l.344.011c.013-1.494.027-3.006.044-4.553.049-3.235.1-6.588.151-10.027" transform="translate(-63.702 -79.691)" fill="#2b95f9"/>
        <path id="Trazado_639008" data-name="Trazado 639008" d="M201.551,285.347l-.365-.01c-.183,4.989-.36,9.828-.531,14.473l.335.009c.18-4.646.368-9.484.561-14.472" transform="translate(-52.165 -74.18)" fill="#2b95f9"/>
        <path id="Trazado_639009" data-name="Trazado 639009" d="M204.542,198.126l.28.007c.051-1.386.1-2.744.149-4.042.119-3.508.227-6.684.323-9.476l-.2-.006c-.115,2.791-.247,5.964-.392,9.47-.05,1.3-.1,2.659-.157,4.046" transform="translate(-53.175 -47.993)" fill="#2b95f9"/>
        <path id="Trazado_639010" data-name="Trazado 639010" d="M202.7,245.2c-.181,4.668-.369,9.51-.561,14.475l.374.01c.182-4.966.36-9.807.531-14.475l-.345-.01" transform="translate(-52.552 -63.745)" fill="#2b95f9"/>
        <path id="Trazado_639011" data-name="Trazado 639011" d="M203.482,225.129c-.178,4.589-.366,9.43-.561,14.476l.344.009c.185-5.046.363-9.888.531-14.476l-.315-.009" transform="translate(-52.754 -58.527)" fill="#2b95f9"/>
        <path id="Trazado_639012" data-name="Trazado 639012" d="M205.586,173.067c-.078,1.892-.174,4.193-.283,6.838l.2.005c.09-2.644.168-4.945.232-6.836.058-1.957.1-3.482.135-4.534,0-.231.009-.435.013-.619-.019,0-.036-.009-.036-.015h-.021c-.01.186-.021.394-.034.631-.048,1.052-.118,2.576-.207,4.531" transform="translate(-53.373 -43.651)" fill="#2b95f9"/>
        <path id="Trazado_639013" data-name="Trazado 639013" d="M204.308,203.384c-.185,4.775-.389,10.047-.609,15.718l.314.007c.208-5.671.4-10.942.576-15.718l-.281-.007" transform="translate(-52.956 -52.874)" fill="#2b95f9"/>
        <path id="Trazado_639014" data-name="Trazado 639014" d="M202.309,265.277l-.375-.01q-.092,2.382-.186,4.8-.181,4.92-.355,9.677l.365.01q.184-4.757.375-9.671.089-2.421.176-4.8" transform="translate(-52.357 -68.962)" fill="#2b95f9"/>
        <path id="Trazado_639015" data-name="Trazado 639015" d="M199.263,345.554l-.273-.007c-.005.131-.01.27-.015.4-.192,5.657-.355,10.431-.482,14.146l.169,0c.153-3.715.351-8.487.585-14.142.005-.131.01-.27.016-.4" transform="translate(-51.603 -89.833)" fill="#2b95f9"/>
        <path id="Trazado_639016" data-name="Trazado 639016" d="M199.713,325.477c-.193,5.256-.371,10.108-.531,14.471l.274.007c.169-4.362.357-9.214.561-14.47l-.3-.008" transform="translate(-51.782 -84.615)" fill="#2b95f9"/>
        <path id="Trazado_639017" data-name="Trazado 639017" d="M200.45,305.407c-.186,5.079-.364,9.923-.531,14.472l.3.008c.176-4.549.364-9.392.561-14.471l-.335-.009" transform="translate(-51.974 -79.398)" fill="#2b95f9"/>
        <path id="Trazado_639018" data-name="Trazado 639018" d="M198.319,367.867c-.058,1.957-.1,3.482-.135,4.535-.011.506-.019.9-.026,1.18,0,.266.005.4.005.4s.018-.135.035-.4.036-.672.064-1.178c.048-1.052.118-2.577.207-4.533.027-.662.058-1.391.089-2.149l-.166-.005c-.026.759-.05,1.487-.073,2.15" transform="translate(-51.516 -95.077)" fill="#2b95f9"/>
        <path id="Trazado_639019" data-name="Trazado 639019" d="M189.038,180.372l.313.007c.165-1.3.323-2.534.469-3.673.3-2.367.562-4.357.761-5.9l-.186.08c-.23,1.505-.516,3.459-.844,5.783-.162,1.148-.334,2.388-.512,3.7" transform="translate(-49.145 -44.405)" fill="#2b95f9"/>
        <path id="Trazado_639020" data-name="Trazado 639020" d="M186.74,202.883l-.383-.012q-.258,2.162-.513,4.41-.1.908-.2,1.8l.071-.074s-.02.924.072,2.279q.214-1.949.443-3.965.256-2.262.512-4.441" transform="translate(-48.262 -52.741)" fill="#2b95f9"/>
        <path id="Trazado_639021" data-name="Trazado 639021" d="M188.7,184.137l-.315-.01c-.532,3.935-1.124,8.542-1.72,13.545l.383.009c.586-5,1.154-9.609,1.652-13.545" transform="translate(-48.527 -47.868)" fill="#2b95f9"/>
        <path id="Trazado_639022" data-name="Trazado 639022" d="M246.56,185.579c3.572.087,6.842.164,9.72.227-.032-.1-.07-.19-.1-.286-2.853-.089-6.09-.186-9.62-.289,0,.116.009.232,0,.348" transform="translate(-64.098 -48.155)" fill="#2b95f9"/>
        <path id="Trazado_639023" data-name="Trazado 639023" d="M185.652,183.956l.315.01c3.463.107,7.426.224,11.746.347l.2.006c4.16.118,8.641.241,13.315.366l3.372.09.215.005,5.293.138c.01-.125.027-.25.041-.374l-5.317-.147-.212-.005-3.382-.092c-4.673-.124-9.153-.24-13.312-.343l-.2-.005c-4.31-.107-8.267-.2-11.724-.28l-.313-.007c-3.824-.086-7.016-.152-9.373-.193l-.155.174c2.363.085,5.6.192,9.489.312" transform="translate(-45.798 -47.698)" fill="#2b95f9"/>
        <path id="Trazado_639024" data-name="Trazado 639024" d="M203.159,203.25c3.1.083,6.109.161,9,.235l.284.007,4.218.106a5.342,5.342,0,0,1,.975-.334l-5.177-.147-.283-.008c-2.895-.081-5.908-.163-9.009-.246-2.554-.068-5.048-.133-7.466-.2l-.28-.007c-4.627-.119-8.961-.226-12.85-.318l-.383-.009c-5.175-.122-9.544-.218-12.727-.277l.182.206c3.158.109,7.443.244,12.506.4l.383.012c3.895.115,8.236.24,12.874.368l.281.008c2.42.067,4.915.135,7.47.2" transform="translate(-44.056 -52.53)" fill="#2b95f9"/>
        <path id="Trazado_639025" data-name="Trazado 639025" d="M236.949,204.137l.556.013a2.807,2.807,0,0,1-.824-.289,2.018,2.018,0,0,1,.267.275" transform="translate(-61.531 -52.999)" fill="#2b95f9"/>
        <path id="Trazado_639026" data-name="Trazado 639026" d="M244.45,203.988l-4.689-.14a2.454,2.454,0,0,1-.952.317c1.982.048,3.868.092,5.642.134l.275.006c5.033.116,9.138.2,11.915.248-.008-.057-.015-.112-.023-.169-2.777-.1-6.874-.235-11.894-.388l-.273-.008" transform="translate(-62.084 -52.995)" fill="#2b95f9"/>
        <path id="Trazado_639027" data-name="Trazado 639027" d="M199.923,224.907c2.973.083,6.074.168,9.267.253q3.653.1,7.129.186l.34.009c5.222.135,10.076.255,14.346.354l0-.321c-4.268-.127-9.119-.267-14.337-.411l-.34-.009c-2.314-.064-4.7-.129-7.132-.194-3.193-.085-6.292-.166-9.264-.242l-.314-.008c-4.171-.106-8.074-.2-11.6-.285q.077.167.158.33c3.481.1,7.326.214,11.428.329l.315.009" transform="translate(-48.881 -58.296)" fill="#2b95f9"/>
        <path id="Trazado_639028" data-name="Trazado 639028" d="M201.158,245.024c2.766.077,5.638.155,8.59.234,2.694.072,5.325.141,7.868.206l.369.01c5.352.137,10.3.258,14.605.358l0-.314c-4.306-.13-9.25-.273-14.6-.422l-.369-.01c-2.543-.071-5.174-.142-7.869-.214-2.95-.079-5.821-.154-8.586-.225l-.344-.009-5.893-.148-.066.355,5.944.168.345.01" transform="translate(-50.661 -63.561)" fill="#2b95f9"/>
        <path id="Trazado_639029" data-name="Trazado 639029" d="M199.516,265.071c2.556.071,5.2.143,7.912.215,3,.08,5.919.156,8.727.228l.383.01c5.527.141,10.6.265,14.957.365l.4.009c2.358.054,4.5.1,6.373.139-.024-.082-.05-.161-.074-.243-1.857-.061-3.969-.127-6.295-.2l-.4-.013c-4.354-.132-9.428-.28-14.954-.434l-.383-.011c-2.808-.078-5.725-.158-8.724-.238-2.709-.072-5.353-.141-7.909-.207l-.375-.01c-2.939-.075-5.754-.146-8.41-.211l-.1.347c2.68.078,5.524.158,8.493.241l.375.01" transform="translate(-49.563 -68.756)" fill="#2b95f9"/>
        <path id="Trazado_639030" data-name="Trazado 639030" d="M197.8,285.117c2.353.065,4.776.131,7.256.2,3.352.09,6.6.175,9.712.254l.383.01c5.564.141,10.648.264,14.961.362l.394.009c3.74.084,6.887.149,9.239.191,0-.061,0-.123-.008-.184-2.35-.084-5.493-.186-9.227-.3l-.394-.012c-4.314-.132-9.4-.281-14.962-.437l-.383-.01c-3.105-.087-6.356-.176-9.706-.265-2.478-.067-4.9-.13-7.252-.19l-.366-.01c-3.969-.1-7.726-.2-11.171-.279-.019.112-.037.225-.056.337,3.457.1,7.229.209,11.214.319l.365.01" transform="translate(-48.412 -73.949)" fill="#2b95f9"/>
        <path id="Trazado_639031" data-name="Trazado 639031" d="M196.324,305.166l.335.009,6.609.18c3.755.1,7.383.194,10.823.281l.369.01c5.569.141,10.622.261,14.866.357l.391.008c3.824.086,6.964.149,9.2.185l.011-.164c-2.235-.083-5.376-.187-9.205-.306l-.392-.012c-4.244-.132-9.3-.28-14.867-.437l-.37-.01c-3.438-.1-7.063-.2-10.814-.3l-6.605-.174-.335-.008c-4.384-.113-8.517-.216-12.272-.306-.005.112-.013.223-.018.336,3.756.111,7.89.229,12.276.349" transform="translate(-47.848 -79.157)" fill="#2b95f9"/>
        <path id="Trazado_639032" data-name="Trazado 639032" d="M195.9,325.243l.3.008,5.962.161c4.206.112,8.254.218,12.054.313l.34.008c5.566.14,10.58.258,14.738.35l.344.008c3.222.07,5.911.124,7.918.158l.022-.169c-2.008-.074-4.705-.164-7.938-.266l-.345-.01c-4.157-.13-9.173-.279-14.739-.437l-.341-.01c-3.8-.107-7.841-.219-12.042-.331l-5.958-.157-.3-.008c-4.044-.1-7.878-.2-11.413-.286.011.115.027.23.038.346,3.52.1,7.337.211,11.36.321" transform="translate(-47.964 -84.381)" fill="#2b95f9"/>
        <path id="Trazado_639033" data-name="Trazado 639033" d="M196.1,345.335l.273.007,5.316.144c4.71.126,9.224.242,13.411.347l.289.007c5.581.139,10.562.256,14.624.344l.3.006c2.241.048,4.192.087,5.8.116l.031-.187c-1.61-.058-3.573-.123-5.828-.195l-.3-.01c-4.063-.129-9.043-.278-14.626-.437l-.291-.009c-4.183-.119-8.692-.243-13.4-.369l-5.311-.141-.274-.007c-3.037-.079-5.96-.153-8.734-.222.018.12.036.242.053.36,2.753.079,5.654.16,8.666.243" transform="translate(-48.714 -89.621)" fill="#2b95f9"/>
        <path id="Trazado_639034" data-name="Trazado 639034" d="M196.339,365.53l.166,0q3.15.087,6.451.175c4.616.124,9.045.238,13.161.34l.217.006c5.544.138,10.51.255,14.583.343l.215,0q1.59.036,2.985.064l.047-.235q-1.415-.048-3.033-.1l-.217-.007c-4.073-.129-9.04-.277-14.584-.435l-.22-.006c-4.112-.117-8.533-.239-13.143-.362q-3.293-.088-6.446-.169l-.169,0-6.093-.155c.017.122.034.248.05.366q2.92.083,6.031.169" transform="translate(-49.462 -94.889)" fill="#2b95f9"/>
        <path id="Trazado_639035" data-name="Trazado 639035" d="M219.261,220.817a10.479,10.479,0,0,1-4.478-1.741c-1.029-.707-1.553-1.294-1.6-1.248-.019.016.092.18.328.448a8.042,8.042,0,0,0,1.114,1.021,9.621,9.621,0,0,0,8.339,1.659c.115-.03.227-.061.336-.094a8.529,8.529,0,0,0,.836-.295,8.087,8.087,0,0,0,1.342-.693c.3-.2.448-.326.434-.346-.035-.058-.695.371-1.873.784-.221.078-.469.153-.728.223-.11.03-.22.058-.335.086a10.408,10.408,0,0,1-3.713.2" transform="translate(-55.421 -56.629)" fill="#2b95f9"/>
        <path id="Trazado_639036" data-name="Trazado 639036" d="M256.243,213.691c.009-.106-4.41-.563-9.868-1.021q-1.148-.1-2.223-.181l-.3-.024c-4.237-.333-7.369-.521-7.377-.431s3.079.422,7.276.8c.827.074,1.694.149,2.593.224,4.321.363,7.989.616,9.339.653a1.923,1.923,0,0,0,.561-.016" transform="translate(-61.477 -55.117)" fill="#2b95f9"/>
        <path id="Trazado_639037" data-name="Trazado 639037" d="M204.473,380.42l.029,0c2.146.229,4.451.483,6.865.761,5.542.64,10.553,1.281,14.179,1.757l1.343.174,2.953.383,1.17.137a.207.207,0,1,0,.012-.076l-1.16-.209c-.752-.13-1.757-.292-2.97-.48q-.619-.1-1.31-.2l-.551-.082c-2.316-.344-5.14-.737-8.284-1.137l-.017,0c-1.7-.216-3.474-.434-5.321-.648-5.548-.639-10.582-1.114-14.228-1.408-1.823-.147-3.3-.254-4.322-.314l-.264-.013-.912-.047a1.649,1.649,0,0,0-.412.005,1.679,1.679,0,0,0,.406.073l1.171.132.2.02,4.112.416c2.048.2,4.545.459,7.315.755" transform="translate(-49.726 -98.533)" fill="#2b95f9"/>
        <path id="Trazado_639038" data-name="Trazado 639038" d="M151.841,150.489s-10.073-1.93-24.544-15.077-21.6-30.946-23.322-30.81-9.35-3.145-22.785,28.409S73.6,171.639,76.448,171.5s22.042-6.08,34.166-5.049,27.835,6.888,27.835,6.888Z" transform="translate(-18.902 -27.183)" fill="#eb6f2d"/>
        <g id="Grupo_882564" data-name="Grupo 882564" transform="translate(53.804 77.401)" opacity="0.4">
          <g id="Grupo_882563" data-name="Grupo 882563">
            <g id="Grupo_882562" data-name="Grupo 882562" clip-path="url(#clip-path-6)">
              <path id="Trazado_639039" data-name="Trazado 639039" d="M151.841,150.489s-10.073-1.93-24.544-15.077-21.6-30.946-23.322-30.81-9.35-3.145-22.785,28.409S73.6,171.639,76.448,171.5s22.042-6.08,34.166-5.049,27.835,6.888,27.835,6.888Z" transform="translate(-72.706 -104.561)" fill="#fff"/>
            </g>
          </g>
        </g>
        <path id="Trazado_639040" data-name="Trazado 639040" d="M195.93,182.912,192.7,189.5l-1.447,2.952a8.477,8.477,0,0,1-10.94,4.066l-21.667-6.867,11.686-28.88,21.76,10.815a8.478,8.478,0,0,1,3.839,11.324" transform="translate(-41.243 -41.797)" fill="#eb6f2d"/>
        <path id="Trazado_639041" data-name="Trazado 639041" d="M179.254,203.692,172.8,217.286l-3.446-.853-21.814,18.8-6.585-12.039s13.033-6.059,15.341-10.833-.544-5.762-.544-5.762l6.01-7.233Z" transform="translate(-36.643 -51.829)" fill="#eb6f2d"/>
        <path id="Trazado_639042" data-name="Trazado 639042" d="M83.011,135.749c-7.142,17.089-9.887,32.215-6.133,33.784s12.589-11.012,19.731-28.1,9.887-32.215,6.133-33.784-12.589,11.012-19.731,28.1" transform="translate(-19.549 -27.951)" fill="#263238"/>
        <path id="Trazado_639043" data-name="Trazado 639043" d="M209.814,200.274l-5.867-1.661,3.4-6.944,4.439,2.587Z" transform="translate(-53.021 -49.829)" fill="#455a64"/>
        <path id="Trazado_639044" data-name="Trazado 639044" d="M166.283,202.712l15.911,9.523,1.841-3.875Z" transform="translate(-43.229 -52.7)" fill="#263238"/>
        <path id="Trazado_639045" data-name="Trazado 639045" d="M207.352,191.668l-3.4,6.944,1.206.342,2.731-6.976Z" transform="translate(-53.021 -49.829)" fill="#263238"/>
        <path id="Trazado_639046" data-name="Trazado 639046" d="M158.424,188.256s-4.111-1.377-3.979-1.336S167.174,163.7,167.174,163.7l1,.452-9.349,23.335" transform="translate(-40.151 -42.558)" fill="#263238"/>
        <path id="Trazado_639047" data-name="Trazado 639047" d="M198.69,192.063c-.08.192-3.014-.855-6.553-2.335s-6.346-2.836-6.267-3.026,3.013.855,6.554,2.336,6.344,2.835,6.265,3.024" transform="translate(-48.321 -48.532)" fill="#263238"/>
        <path id="Trazado_639048" data-name="Trazado 639048" d="M201.391,186.512c-.087.188-2.744-.844-5.936-2.305s-5.712-2.8-5.626-2.987,2.743.845,5.936,2.307,5.712,2.8,5.626,2.985" transform="translate(-49.35 -47.107)" fill="#263238"/>
        <path id="Trazado_639049" data-name="Trazado 639049" d="M196.2,198.122c-.028.1-.723-.04-1.835-.349-.555-.154-1.214-.351-1.943-.58s-1.479-.595-2.287-.933c-3.224-1.387-5.694-2.764-5.619-2.937.088-.206,2.717.876,5.911,2.25.8.335,1.545.709,2.245.978s1.332.505,1.858.721c1.054.433,1.7.752,1.67.851" transform="translate(-47.97 -50.252)" fill="#263238"/>
        <path id="Trazado_639050" data-name="Trazado 639050" d="M101.518,139.611s-8.854-5.148-13.281,6.742,4.782,13.562,4.782,13.562a78.332,78.332,0,0,0,8.5-20.3" transform="translate(-22.626 -36.007)" fill="#eb6f2d"/>
        <path id="Trazado_639051" data-name="Trazado 639051" d="M110.327,120.716a13.119,13.119,0,0,1-.277,2.256c-.235,1.444-.565,3.54-1.05,6.116l-1.084,4.147q-.3,1.119-.611,2.31-.158.6-.321,1.208c-.118.406-.277.8-.417,1.214l-1.821,5.128-.48,1.345c-.156.454-.384.884-.574,1.331l-1.217,2.7-1.222,2.7c-.209.44-.382.894-.618,1.312l-.69,1.251L97.3,158.5c-.215.377-.409.759-.635,1.116l-.695,1.042-1.329,1.991c-.86,1.277-1.661,2.47-2.4,3.562-1.607,2.062-2.956,3.693-3.884,4.824a13.226,13.226,0,0,1-1.509,1.7,13.25,13.25,0,0,1,1.28-1.88l3.695-4.969c.705-1.1,1.475-2.3,2.3-3.586q.623-.966,1.287-1.992l.673-1.041c.219-.357.408-.74.617-1.116l2.584-4.749.68-1.245c.233-.416.4-.868.61-1.305l1.208-2.685,1.213-2.683c.191-.444.418-.87.575-1.32s.323-.892.482-1.333l1.85-5.078c.144-.406.306-.8.428-1.2s.224-.8.334-1.2q.332-1.178.643-2.286c.419-1.472.809-2.845,1.167-4.1l1.277-6.045a13.349,13.349,0,0,1,.564-2.207" transform="translate(-22.58 -31.383)" fill="#263238"/>
        <path id="Trazado_639052" data-name="Trazado 639052" d="M214.391,212.034s-8.545,15.816-10.833,16.056c-12.674,1.321-26.244-2.839-31-4.491-.485-.551-1.037-1.211-1.652-2.021a7.744,7.744,0,0,1-1.2-2.321,12.07,12.07,0,0,1-.685-3.2.988.988,0,0,0-1.711-.785c-.547.733-.682,3.519.575,6.5s-3.175.647-4.806-.174-6.793-3.116-7.442-2.8c-.949.463-.648,1.587,1,2.368,1.668.79,6.424,3.48,5.952,4.345s-8.709-3.443-8.709-3.443-1.615-1.211-2.193-.229c-1.042,1.77,8.056,5.672,8.931,6.021.608.243.128,1.2-.511.906-.659-.306-8.125-4.481-9.2-2.689-.827,1.375,7.454,3.281,8.526,5.033s-6.13-2.1-6.868-.754c-.275.5-.411.914,4.041,2.512a92.366,92.366,0,0,0,9.924,2.488l-.016.047s42.774,19.988,54.042.15c7.352-12.943,8.046-14.584,10.652-21.9" transform="translate(-39.216 -55.123)" fill="#b78876"/>
      </g>
    </g>
    <g id="Grupo_882568" data-name="Grupo 882568">
      <g id="Grupo_882567" data-name="Grupo 882567" clip-path="url(#clip-path)">
        <path id="Trazado_639053" data-name="Trazado 639053" d="M2.12,248.567H85.452a2.119,2.119,0,0,1,2.119,2.119v16.888c.555,7.174,0,8.946-8.18,9.533v7.622l-7.5-7.5H2.12A2.119,2.119,0,0,1,0,275.113V250.686a2.119,2.119,0,0,1,2.119-2.119" transform="translate(0 -64.621)" fill="#455a64"/>
        <rect id="Rectángulo_330601" data-name="Rectángulo 330601" width="44.064" height="1.886" transform="translate(27.54 192.915)" fill="#ffb338"/>
        <rect id="Rectángulo_330602" data-name="Rectángulo 330602" width="44.064" height="1.885" transform="translate(27.54 196.877)" fill="#ffb338"/>
        <rect id="Rectángulo_330603" data-name="Rectángulo 330603" width="22.33" height="1.885" transform="translate(27.54 201.141)" fill="#ffb338"/>
        <rect id="Rectángulo_330604" data-name="Rectángulo 330604" width="12.307" height="12.307" transform="translate(11.336 192.073)" fill="#ffb338"/>
        <path id="Trazado_639054" data-name="Trazado 639054" d="M363.747,79.041a3.713,3.713,0,0,0-3.731-3.695l-92.209.453a3.714,3.714,0,0,0-3.695,3.731l.143,29.093a3.714,3.714,0,0,0,3.732,3.695l2-.01.052,10.649,10.428-10.7,79.725-.391a3.713,3.713,0,0,0,3.695-3.731Z" transform="translate(-68.662 -19.588)" fill="#ffb338"/>
        <path id="Trazado_639055" data-name="Trazado 639055" d="M358.577,99.9c-.059-1.667-.033-4.134.015-6.335l-.01.01a6.925,6.925,0,0,1,1.629-7.5c3.44-3.58,5.761-2.8,7.093-2.782,1.241.015,7.5,1.459,9.279,8.813a13.468,13.468,0,0,1,.194,1.428h0c.038.366.071.713.1.962h.007a7.721,7.721,0,0,0,4.049,6.346,15.249,15.249,0,1,0-21.683,7.066,21.777,21.777,0,0,1-.674-8.011" transform="translate(-91.434 -20.674)" fill="#e0e0e0"/>
        <path id="Trazado_639056" data-name="Trazado 639056" d="M383.847,99.762h-.007c0,.018,0,.039.007.056l-.08-.012c.026,2.925-.336,12.972-5.279,14.774a15.283,15.283,0,0,0,9.407-8.473,7.72,7.72,0,0,1-4.049-6.346" transform="translate(-98.397 -25.935)" fill="#263238"/>
        <path id="Trazado_639057" data-name="Trazado 639057" d="M360.966,107.422c-.005-.115-.01-.236-.015-.361a21.78,21.78,0,0,0,.674,8.011,15.139,15.139,0,0,0,3.2,1.429c-.057-2.124-.247-5.142-.247-5.142a4.159,4.159,0,0,1-3.615-3.936" transform="translate(-93.809 -27.833)" fill="#263238"/>
        <path id="Trazado_639058" data-name="Trazado 639058" d="M373.758,96.659s-5.641-.616-6.574-5.891l-.033.03a6.6,6.6,0,0,0-.566,3.9l-5.026,1.265-.566.523c-.047,2.2-.074,4.667-.015,6.334,0,.126.009.246.015.363a4.157,4.157,0,0,0,3.614,3.935,8.389,8.389,0,0,0,4.557-1.516,4.416,4.416,0,0,1-4.493,2.38l-.064-.864s.191,3.019.248,5.143a15.078,15.078,0,0,0,8.444.143Zm-6.928.888a.439.439,0,1,1,.433.455.444.444,0,0,1-.433-.455m-.1-.759a1.141,1.141,0,0,1,1.38-.069c.154.111.212.219.186.247-.05.064-.4-.18-.873-.152s-.8.3-.855.24c-.027-.027.02-.14.162-.266m-5.23-.065a1.14,1.14,0,0,1,1.379-.069c.154.111.212.219.187.248-.05.064-.4-.181-.874-.153s-.8.3-.855.24c-.027-.027.02-.139.163-.266m.255.761a.439.439,0,1,1,.433.455.444.444,0,0,1-.433-.455m2.077,3.652a.3.3,0,0,1-.2-.18.8.8,0,0,1,.053-.51q.152-.48.321-1a18.037,18.037,0,0,1,.941-2.542,18.1,18.1,0,0,1-.747,2.609q-.176.524-.337,1a.7.7,0,0,0-.073.386c.022.087.137.108.258.115a2.9,2.9,0,0,1,.77.114,2.883,2.883,0,0,1-.778.034.79.79,0,0,1-.206-.021m1.8,1.718a1.29,1.29,0,0,1-1.559-.475,9,9,0,0,0,2.292-.778,1.024,1.024,0,0,1-.733,1.253" transform="translate(-93.836 -23.597)" fill="#455a64"/>
        <path id="Trazado_639059" data-name="Trazado 639059" d="M362.911,99.7a.439.439,0,1,0-.444.444.444.444,0,0,0,.444-.444" transform="translate(-94.119 -25.8)" fill="#263238"/>
        <path id="Trazado_639060" data-name="Trazado 639060" d="M363.2,98.9c.024-.029-.033-.137-.186-.247a1.141,1.141,0,0,0-1.38.069c-.143.126-.189.239-.162.265.056.059.383-.22.855-.24s.824.218.874.153" transform="translate(-93.97 -25.595)" fill="#263238"/>
        <path id="Trazado_639061" data-name="Trazado 639061" d="M369.774,99.782a.439.439,0,1,0-.444.444.444.444,0,0,0,.444-.444" transform="translate(-95.903 -25.822)" fill="#263238"/>
        <path id="Trazado_639062" data-name="Trazado 639062" d="M370.264,98.986c.024-.028-.033-.137-.186-.247a1.141,1.141,0,0,0-1.38.069c-.142.126-.189.239-.162.265.056.059.383-.22.855-.24s.824.218.874.153" transform="translate(-95.807 -25.618)" fill="#263238"/>
        <path id="Trazado_639063" data-name="Trazado 639063" d="M365.744,103.275a2.92,2.92,0,0,0-.77-.113c-.121-.008-.235-.029-.258-.116a.7.7,0,0,1,.073-.386l.337-1a18.3,18.3,0,0,0,.748-2.609,17.97,17.97,0,0,0-.941,2.543c-.112.351-.22.685-.321,1a.8.8,0,0,0-.053.509.3.3,0,0,0,.2.18.754.754,0,0,0,.2.021,2.882,2.882,0,0,0,.778-.034" transform="translate(-94.769 -25.751)" fill="#263238"/>
        <path id="Trazado_639064" data-name="Trazado 639064" d="M365.171,106.163a1.29,1.29,0,0,0,1.559.475,1.024,1.024,0,0,0,.733-1.253,8.984,8.984,0,0,1-2.292.778" transform="translate(-94.935 -27.382)" fill="#fff"/>
        <path id="Trazado_639065" data-name="Trazado 639065" d="M370.451,110.818a8.4,8.4,0,0,1-4.557,1.516l.064.864a4.416,4.416,0,0,0,4.493-2.38" transform="translate(-95.123 -28.81)" fill="#263238"/>
        <path id="Trazado_639066" data-name="Trazado 639066" d="M379.051,95.842l.081.012-.007-.056c-.031-.248-.064-.6-.1-.961v0a13.318,13.318,0,0,0-.194-1.428c-1.778-7.354-8.037-8.8-9.279-8.813-1.331-.017-3.653-.8-7.093,2.783a6.924,6.924,0,0,0-1.629,7.5l.011-.01.565-.523,5.027-1.265a6.6,6.6,0,0,1,.565-3.9l.033-.03c.934,5.274,6.575,5.891,6.575,5.891l-.46,15.749c.209-.056.423-.1.628-.165,4.943-1.8,5.3-11.849,5.279-14.774" transform="translate(-93.682 -21.97)" fill="#263238"/>
        <rect id="Rectángulo_330605" data-name="Rectángulo 330605" width="47.922" height="2.641" transform="translate(206.766 66.923) rotate(-0.281)" fill="#263238"/>
        <rect id="Rectángulo_330606" data-name="Rectángulo 330606" width="47.922" height="2.641" transform="translate(206.8 73.715) rotate(-0.281)" fill="#263238"/>
        <rect id="Rectángulo_330607" data-name="Rectángulo 330607" width="23.752" height="2.642" transform="translate(206.832 80.318) rotate(-0.282)" fill="#263238"/>
      </g>
    </g>
  </g>
</svg>
