<svg xmlns="http://www.w3.org/2000/svg" xmlns:xlink="http://www.w3.org/1999/xlink" width="150" height="150" viewBox="0 0 150 150">
  <defs>
    <filter id="Elipse_6983" x="0" y="0" width="150" height="150" filterUnits="userSpaceOnUse">
      <feOffset dy="3" input="SourceAlpha"/>
      <feGaussianBlur stdDeviation="3" result="blur"/>
      <feFlood flood-opacity="0.161"/>
      <feComposite operator="in" in2="blur"/>
      <feComposite in="SourceGraphic"/>
    </filter>
  </defs>
  <g id="Grupo_1034497" data-name="Grupo 1034497" transform="translate(-719.5 -3576.854)">
    <g transform="matrix(1, 0, 0, 1, 719.5, 3576.85)" filter="url(#Elipse_6983)">
      <circle id="Elipse_6983-2" data-name="Elipse 6983" cx="66" cy="66" r="66" transform="translate(9 6)" fill="#b6e1fd"/>
    </g>
    <g id="Grupo_883434" data-name="Grupo 883434" transform="translate(760.084 3607.249)">
      <path id="Trazado_642488" data-name="Trazado 642488" d="M37.486,34.468a9.017,9.017,0,1,1-1.3-1.3l6.33-6.33a18,18,0,1,0,1.3,1.3Z" transform="translate(2.337 4.524)" fill="#12263f"/>
      <path id="Trazado_642489" data-name="Trazado 642489" d="M32.862,32.487a7.071,7.071,0,0,0-4.367-1.5,7.164,7.164,0,1,0,7.164,7.164,7.071,7.071,0,0,0-1.5-4.367L29.145,38.8a.91.91,0,0,1-.65.27.89.89,0,0,1-.65-.27.9.9,0,0,1,0-1.3Z" transform="translate(4.348 6.518)" fill="#12263f"/>
      <path id="Trazado_642490" data-name="Trazado 642490" d="M47.465,29.159a19.8,19.8,0,1,1-1.3-1.3l7.618-7.618a30.627,30.627,0,1,0,1.3,1.3Z" transform="translate(0 2.191)" fill="#12263f"/>
      <path id="Trazado_642491" data-name="Trazado 642491" d="M61.071,7.386a.92.92,0,0,0-1.3-1.3L44.24,21.617c.454.417.883.859,1.3,1.3Z" transform="translate(9.543 0.814)" fill="#12263f"/>
      <path id="Trazado_642492" data-name="Trazado 642492" d="M64.012,12.089,59.265,9.716l-9.734,9.733,6.877,1.376a.922.922,0,0,0,.832-.252l7.011-7.01a.92.92,0,0,0-.24-1.474Z" transform="translate(10.743 1.693)" fill="#12263f"/>
      <path id="Trazado_642493" data-name="Trazado 642493" d="M56.342,7.505,53.968,2.759a.92.92,0,0,0-1.474-.239l-7.011,7.01a.92.92,0,0,0-.251.831l1.376,6.879Z" transform="translate(9.764 0)" fill="#12263f"/>
    </g>
  </g>
</svg>
