<svg xmlns="http://www.w3.org/2000/svg" xmlns:xlink="http://www.w3.org/1999/xlink" width="505" height="263.159" viewBox="0 0 505 263.159">
  <defs>
    <clipPath id="clip-path">
      <rect id="Rectángulo_330636" data-name="Rectángulo 330636" width="420" height="262.768" fill="none"/>
    </clipPath>
    <clipPath id="clip-path-6">
      <rect id="Rectángulo_330618" data-name="Rectángulo 330618" width="8.037" height="42.685" fill="none"/>
    </clipPath>
    <clipPath id="clip-path-7">
      <rect id="Rectángulo_330621" data-name="Rectángulo 330621" width="420" height="262.768" fill="#eb6f2d"/>
    </clipPath>
    <clipPath id="clip-path-10">
      <rect id="Rectángulo_330625" data-name="Rectángulo 330625" width="21.02" height="41.931" fill="none"/>
    </clipPath>
    <clipPath id="clip-path-11">
      <rect id="Rectángulo_330626" data-name="Rectángulo 330626" width="15.403" height="47.208" fill="none"/>
    </clipPath>
    <clipPath id="clip-path-12">
      <rect id="Rectángulo_330627" data-name="Rectángulo 330627" width="20.576" height="35.189" fill="none"/>
    </clipPath>
    <clipPath id="clip-path-14">
      <rect id="Rectángulo_330630" data-name="Rectángulo 330630" width="16.697" height="6.801" fill="none"/>
    </clipPath>
    <clipPath id="clip-path-15">
      <rect id="Rectángulo_330631" data-name="Rectángulo 330631" width="7.285" height="43.808" fill="none"/>
    </clipPath>
    <clipPath id="clip-path-16">
      <rect id="Rectángulo_330632" data-name="Rectángulo 330632" width="39.389" height="9.24" fill="none"/>
    </clipPath>
    <clipPath id="clip-path-17">
      <rect id="Rectángulo_330633" data-name="Rectángulo 330633" width="4.205" height="22.428" fill="none"/>
    </clipPath>
  </defs>
  <g id="Grupo_1034373" data-name="Grupo 1034373" transform="translate(-810 -7499.841)">
    <g id="Grupo_882623" data-name="Grupo 882623" transform="translate(852.5 7499.841)">
      <g id="Grupo_882622" data-name="Grupo 882622" clip-path="url(#clip-path)">
        <g id="Grupo_882581" data-name="Grupo 882581">
          <g id="Grupo_882580" data-name="Grupo 882580" clip-path="url(#clip-path)">
            <path id="Trazado_639067" data-name="Trazado 639067" d="M100.925,255.621a16.382,16.382,0,0,1,4-1.737l.823-3.955,6.683-.117.962,3.924a16.372,16.372,0,0,1,4.055,1.6l3.377-2.214,4.809,4.643-2.094,3.452a16.354,16.354,0,0,1,1.737,4l3.955.823.118,6.683-3.924.962a16.367,16.367,0,0,1-1.6,4.054l2.214,3.378-4.642,4.809-3.453-2.094a16.385,16.385,0,0,1-4,1.736l-.823,3.955-6.683.117-.962-3.924a16.371,16.371,0,0,1-4.055-1.6l-3.377,2.214-4.809-4.643,2.094-3.453a16.373,16.373,0,0,1-1.737-4l-3.955-.823-.117-6.683,3.924-.962a16.389,16.389,0,0,1,1.595-4.054l-2.214-3.377,4.643-4.809Zm3.562,8.9a7.17,7.17,0,1,0,10.138-.178,7.17,7.17,0,0,0-10.138.178" transform="translate(-34.93 -97.469)" fill="#ebebeb"/>
            <path id="Trazado_639068" data-name="Trazado 639068" d="M592.93,5.062a14.27,14.27,0,0,1,3.483-1.513L597.13.1l5.824-.1.839,3.42a14.269,14.269,0,0,1,3.534,1.39l2.943-1.93,4.191,4.046-1.825,3.009a14.267,14.267,0,0,1,1.514,3.484l3.447.717.1,5.824-3.419.839a14.293,14.293,0,0,1-1.39,3.533l1.929,2.944-4.046,4.191-3.009-1.825a14.3,14.3,0,0,1-3.483,1.514l-.717,3.447-5.824.1-.839-3.42a14.281,14.281,0,0,1-3.534-1.39l-2.943,1.93-4.191-4.046,1.825-3.009a14.248,14.248,0,0,1-1.514-3.483l-3.447-.718-.1-5.824,3.419-.839a14.267,14.267,0,0,1,1.39-3.533l-1.93-2.944,4.046-4.191Zm3.1,7.759a6.249,6.249,0,1,0,8.836-.156,6.248,6.248,0,0,0-8.836.156" transform="translate(-227.467 0)" fill="#f5f5f5"/>
            <path id="Trazado_639069" data-name="Trazado 639069" d="M25.251,7.494A16.448,16.448,0,0,1,29.264,5.75l.826-3.972L36.8,1.66l.966,3.94a16.452,16.452,0,0,1,4.072,1.6L45.23,4.979l4.829,4.663-2.1,3.467A16.434,16.434,0,0,1,49.7,17.122l3.971.826.118,6.711-3.941.966a16.45,16.45,0,0,1-1.6,4.072l2.223,3.392L45.81,37.917l-3.467-2.1a16.441,16.441,0,0,1-4.013,1.744L37.5,41.531l-6.711.118-.966-3.94a16.476,16.476,0,0,1-4.072-1.6l-3.391,2.223-4.829-4.662,2.1-3.467a16.43,16.43,0,0,1-1.744-4.013L13.92,25.36,13.8,18.649l3.94-.966a16.476,16.476,0,0,1,1.6-4.072L17.121,10.22l4.662-4.829Zm3.577,8.94a7.2,7.2,0,1,0,10.181-.179,7.2,7.2,0,0,0-10.181.179" transform="translate(-5.385 -0.648)" fill="#f5f5f5"/>
            <path id="Trazado_639070" data-name="Trazado 639070" d="M78.1,343.884a15.338,15.338,0,0,1,9.245-2.534,7.907,7.907,0,0,1,4.957,1.389c1.351,1.112,1.905,3.336.734,4.636a4.51,4.51,0,0,1-2.823,1.177c-2.492.338-5.318.308-7.086,2.1-1.008,1.022-1.553,2.553-2.848,3.174a3.24,3.24,0,0,1-3.759-1.049,5.538,5.538,0,0,1-1-3.985,6.241,6.241,0,0,1,2.576-4.907" transform="translate(-29.455 -133.183)" fill="#ebebeb"/>
            <path id="Trazado_639071" data-name="Trazado 639071" d="M64,317.235c2.12,2.242,5.4.912,6.754-.848s1.692-4.07,1.988-6.27c.675-5.025,1.327-10.289-.429-15.045a8.306,8.306,0,0,0-2.482-3.741,4.34,4.34,0,0,0-4.267-.753c-1.649.706-2.467,2.544-3,4.257a35.622,35.622,0,0,0-1.25,15.64A12.357,12.357,0,0,0,64,317.235" transform="translate(-23.78 -113.267)" fill="#ebebeb"/>
            <path id="Trazado_639072" data-name="Trazado 639072" d="M46.541,341.261a8.452,8.452,0,0,0,.165-7.886,15,15,0,0,0-5.534-5.938,24.806,24.806,0,0,0-8.871-3.61,8.8,8.8,0,0,0-3.762-.082,3.893,3.893,0,0,0-2.805,2.318c-.617,1.765.5,3.63,1.63,5.12a62.8,62.8,0,0,0,6.565,7.37c1.912,1.834,4.054,3.605,6.641,4.18s5.113.089,6.16-1.8" transform="translate(-9.972 -126.249)" fill="#ebebeb"/>
            <path id="Trazado_639073" data-name="Trazado 639073" d="M74.491,372.282a5.55,5.55,0,0,0-.009-1.16c-.042-.839-.094-1.892-.156-3.146a45.277,45.277,0,0,1,.026-4.652,35.43,35.43,0,0,1,.861-5.613,19.988,19.988,0,0,1,2.024-5.262,10.346,10.346,0,0,1,3.041-3.394,9.81,9.81,0,0,1,2.784-1.34,5.507,5.507,0,0,0,1.107-.331,5.421,5.421,0,0,0-1.154.152,8.955,8.955,0,0,0-2.927,1.242,10.332,10.332,0,0,0-3.227,3.446,19.538,19.538,0,0,0-2.11,5.375,33.186,33.186,0,0,0-.836,5.7,38.775,38.775,0,0,0,.076,4.7c.1,1.332.216,2.4.307,3.143a5.4,5.4,0,0,0,.193,1.144" transform="translate(-28.823 -135.536)" fill="#e0e0e0"/>
            <path id="Trazado_639074" data-name="Trazado 639074" d="M72.72,359.045a2.272,2.272,0,0,0-.048-.532c-.059-.4-.134-.9-.226-1.507-.2-1.308-.476-3.2-.751-5.55-.574-4.694-.915-9.787-1.185-17-.249-6.781-.407-14.693-.109-19.9.054-1.181.127-2.248.206-3.184s.126-1.744.2-2.4c.056-.617.1-1.119.136-1.518a2.262,2.262,0,0,0,.015-.534,2.289,2.289,0,0,0-.11.521c-.059.4-.133.9-.224,1.509-.1.656-.186,1.462-.28,2.4s-.2,2-.276,3.186a173.034,173.034,0,0,0-.241,18.511c.271,7.226.876,13.752,1.537,18.445.318,2.348.648,4.238.9,5.539.127.607.232,1.1.314,1.493a2.285,2.285,0,0,0,.141.514" transform="translate(-27.191 -119.754)" fill="#e0e0e0"/>
            <path id="Trazado_639075" data-name="Trazado 639075" d="M58.833,361.4a9.274,9.274,0,0,0-.224-1.446c-.191-.922-.517-2.248-1.022-3.855a52.2,52.2,0,0,0-2.119-5.524,47.267,47.267,0,0,0-3.387-6.408,36.4,36.4,0,0,0-8.628-9.888,17.939,17.939,0,0,0-1.877-1.29c-.285-.177-.54-.357-.793-.493l-.706-.346a9.3,9.3,0,0,0-1.334-.6,43.56,43.56,0,0,1,4.52,2.973,38.339,38.339,0,0,1,8.447,9.875,54,54,0,0,1,3.392,6.343,58.754,58.754,0,0,1,2.192,5.456c.54,1.586.909,2.891,1.15,3.8a9.4,9.4,0,0,0,.389,1.408" transform="translate(-15.116 -129.36)" fill="#e0e0e0"/>
            <path id="Trazado_639076" data-name="Trazado 639076" d="M50.114,380.221l1.265,17.329H73.641l1.265-17.329Z" transform="translate(-19.553 -148.351)" fill="#e0e0e0"/>
            <rect id="Rectángulo_330610" data-name="Rectángulo 330610" width="29.598" height="6.83" transform="translate(28.411 225.04)" fill="#e0e0e0"/>
            <path id="Trazado_639077" data-name="Trazado 639077" d="M46.589,407.549v1.893H75.7v-1.893Z" transform="translate(-18.177 -159.014)" fill="#ebebeb"/>
            <path id="Trazado_639078" data-name="Trazado 639078" d="M50.232,413.986l-1.363-3.332H75.527l-1.59,3.332Z" transform="translate(-19.067 -160.225)" fill="#e0e0e0"/>
            <path id="Trazado_639079" data-name="Trazado 639079" d="M74.733,387.95a.735.735,0,0,1-.1.159l-.333.441L73,390.21l-.058.074-.055-.077L69.7,385.8h.184l-3.137,4.441-.1.139-.11-.131-3.72-4.426.215,0-.2.257-3.327,4.17-.11.139-.1-.145L56.15,385.8l.182.009-3.865,4.4-.069.079-.052-.088-1.21-2.033-.31-.542a.905.905,0,0,1-.1-.193.856.856,0,0,1,.13.171l.343.521,1.271,2-.121-.01,3.8-4.457.1-.113.087.121,3.167,4.421-.213-.006,3.319-4.176.2-.257.106-.133.109.131,3.71,4.435-.209.008L69.7,385.67l.093-.13.091.13L73,390.124l-.113,0,1.349-1.617.362-.418c.083-.093.129-.139.134-.135" transform="translate(-19.793 -150.417)" fill="#f5f5f5"/>
            <path id="Trazado_639080" data-name="Trazado 639080" d="M75.334,379.944c0,.077-5.578.138-12.457.138s-12.459-.062-12.459-.138,5.577-.138,12.459-.138,12.457.062,12.457.138" transform="translate(-19.672 -148.189)" fill="#f5f5f5"/>
            <path id="Trazado_639081" data-name="Trazado 639081" d="M75.795,410.871c0,.077-6.062.138-13.539.138s-13.54-.062-13.54-.138,6.061-.138,13.54-.138,13.539.062,13.539.138" transform="translate(-19.008 -160.256)" fill="#f5f5f5"/>
            <path id="Trazado_639082" data-name="Trazado 639082" d="M526.242,333.734c-.03,0-.059-.414-.2-1.152a14.436,14.436,0,0,0-.921-3.03,11.54,11.54,0,0,0-2.62-3.844,7.311,7.311,0,0,0-10.281-.034,11.49,11.49,0,0,0-2.638,3.832,14.386,14.386,0,0,0-.932,3.027c-.146.737-.177,1.154-.207,1.151a1.243,1.243,0,0,1,.005-.3,8.463,8.463,0,0,1,.093-.865,13.107,13.107,0,0,1,.856-3.086,11.429,11.429,0,0,1,2.644-3.944,7.517,7.517,0,0,1,10.638.035,11.472,11.472,0,0,1,2.626,3.957,13.156,13.156,0,0,1,.845,3.089,8.3,8.3,0,0,1,.09.866,1.227,1.227,0,0,1,0,.3" transform="translate(-198.376 -126.141)" fill="#e0e0e0"/>
            <path id="Trazado_639083" data-name="Trazado 639083" d="M531.283,333.734c-.03,0-.059-.414-.2-1.152a14.441,14.441,0,0,0-.921-3.03,11.542,11.542,0,0,0-2.62-3.844,7.311,7.311,0,0,0-10.281-.034,11.491,11.491,0,0,0-2.637,3.832,14.386,14.386,0,0,0-.932,3.027c-.146.737-.177,1.154-.207,1.151a1.243,1.243,0,0,1,.005-.3,8.47,8.47,0,0,1,.093-.865,13.108,13.108,0,0,1,.856-3.086,11.429,11.429,0,0,1,2.644-3.944,7.517,7.517,0,0,1,10.638.035,11.481,11.481,0,0,1,2.626,3.957,13.149,13.149,0,0,1,.845,3.089,8.265,8.265,0,0,1,.09.866,1.225,1.225,0,0,1,0,.3" transform="translate(-200.343 -126.141)" fill="#e0e0e0"/>
            <path id="Trazado_639084" data-name="Trazado 639084" d="M491.792,338.444l34.715-.265.757,47.321H488.309Z" transform="translate(-190.524 -131.947)" fill="#ebebeb"/>
            <path id="Trazado_639085" data-name="Trazado 639085" d="M550.946,338.179H555.3l3.752,47.321H551.7Z" transform="translate(-214.963 -131.947)" fill="#e0e0e0"/>
            <rect id="Rectángulo_330611" data-name="Rectángulo 330611" width="19.774" height="3.808" transform="translate(307.676 224.862)" fill="#fff"/>
            <path id="Trazado_639086" data-name="Trazado 639086" d="M649.462,165.49s-8.13,3.095-6.179,11.753,5.787,15.45,9.813,18.3,9.372,1.414,11.123-.6c1-1.153-1.158-7.5-4.459-7.843-1.521-.156-3.041,3.6-5.448,2.059s-5.967-9.761-5.67-11.809,3.649-1.8,4.834-2.558c2.2-1.415-.824-11.332-4.013-9.306" transform="translate(-250.872 -64.463)" fill="#e0e0e0"/>
          </g>
        </g>
        <g id="Grupo_882583" data-name="Grupo 882583">
          <g id="Grupo_882582" data-name="Grupo 882582" clip-path="url(#clip-path)">
            <path id="Trazado_639087" data-name="Trazado 639087" d="M33.414,416.017c0-.088,87.137-.159,194.6-.159,107.5,0,194.619.071,194.619.159s-87.118.159-194.619.159c-107.464,0-194.6-.071-194.6-.159" transform="translate(-13.037 -162.255)" fill="#263238"/>
          </g>
        </g>
        <g id="Grupo_882585" data-name="Grupo 882585">
          <g id="Grupo_882584" data-name="Grupo 882584" clip-path="url(#clip-path)">
            <path id="Trazado_639088" data-name="Trazado 639088" d="M384.7,255.142H225.256a7.813,7.813,0,0,1-7.813-7.813V11.708a7.813,7.813,0,0,1,7.813-7.814H384.7a7.814,7.814,0,0,1,7.814,7.814v235.62a7.814,7.814,0,0,1-7.814,7.814" transform="translate(-84.84 -1.519)" fill="#263238"/>
            <path id="Trazado_639089" data-name="Trazado 639089" d="M384.591,255.029s.183-.015.545-.037a4.587,4.587,0,0,0,.671-.081,6.439,6.439,0,0,0,.918-.2,7.824,7.824,0,0,0,4.765-3.907,8.148,8.148,0,0,0,.727-2.078,12.38,12.38,0,0,0,.145-2.448q0-2.588-.008-5.655c0-4.087-.01-8.8-.016-14.111-.013-21.237-.032-51.962-.056-89.927-.007-18.983-.013-39.777-.021-62.1q0-16.742-.009-34.6,0-8.918,0-18.092,0-4.586,0-9.233a12.2,12.2,0,0,0-.123-2.292,7.41,7.41,0,0,0-.723-2.159,7.763,7.763,0,0,0-3.156-3.243,8.354,8.354,0,0,0-2.163-.778,11.727,11.727,0,0,0-2.323-.147H369.423l-19.5,0-40.209,0-84.554,0a7.631,7.631,0,0,0-7.521,6.22,13.741,13.741,0,0,0-.138,2.657V20.9q0,10.73,0,21.314,0,21.163,0,41.669c0,27.319-.007,53.671-.01,78.774s-.011,48.957-.016,71.281q0,4.186,0,8.3,0,2.057,0,4.1a12.571,12.571,0,0,0,.091,2.008,7.607,7.607,0,0,0,6.509,6.467,13.137,13.137,0,0,0,1.953.084H231.9l29.8.012,89.922.056,24.447.034,6.358.017c1.432.006,2.166.018,2.166.018s-.734.012-2.166.018l-6.358.018-24.447.033-89.922.056-29.8.012h-5.873a13.348,13.348,0,0,1-1.991-.085,7.891,7.891,0,0,1-6.753-6.7,13,13,0,0,1-.1-2.049q0-2.038,0-4.1,0-4.113,0-8.3c0-22.324-.01-46.178-.015-71.281s-.007-51.454-.011-78.774q0-20.489,0-41.669,0-10.582,0-21.314V12.834a14,14,0,0,1,.143-2.722,7.982,7.982,0,0,1,7.867-6.507l84.554,0,40.209,0,19.5,0h14.333a12.07,12.07,0,0,1,2.386.154,8.682,8.682,0,0,1,2.255.813,8.085,8.085,0,0,1,3.289,3.381,7.732,7.732,0,0,1,.752,2.25,12.5,12.5,0,0,1,.127,2.347q0,4.647,0,9.233,0,9.172,0,18.092,0,17.836-.009,34.6c-.008,22.323-.015,43.116-.021,62.1-.024,37.966-.043,68.691-.056,89.927-.006,5.309-.012,10.024-.016,14.111q0,3.065-.008,5.655a12.479,12.479,0,0,1-.155,2.464,8.2,8.2,0,0,1-.742,2.1,7.916,7.916,0,0,1-2.416,2.762,7.83,7.83,0,0,1-2.4,1.146,6.242,6.242,0,0,1-.923.2,4.469,4.469,0,0,1-.674.073c-.363.015-.546.018-.546.018" transform="translate(-84.727 -1.407)" fill="#263238"/>
            <path id="Trazado_639090" data-name="Trazado 639090" d="M363.406,390.889a6.718,6.718,0,1,1-6.717-6.718,6.718,6.718,0,0,1,6.717,6.718" transform="translate(-136.548 -149.892)" fill="#455a64"/>
            <path id="Trazado_639091" data-name="Trazado 639091" d="M365.929,22.475H330.174a2.494,2.494,0,1,1,0-4.987h35.756a2.494,2.494,0,0,1,0,4.987" transform="translate(-127.851 -6.823)" fill="#455a64"/>
            <rect id="Rectángulo_330614" data-name="Rectángulo 330614" width="164.034" height="209.822" transform="translate(137.972 20.3)" fill="#fff"/>
            <path id="Trazado_639092" data-name="Trazado 639092" d="M322.752,216.044H278.447a3.415,3.415,0,0,1,0-6.83h44.305a3.415,3.415,0,0,1,0,6.83" transform="translate(-107.309 -81.629)" fill="#e0e0e0"/>
            <path id="Trazado_639093" data-name="Trazado 639093" d="M440.076,213.492H427a3.415,3.415,0,0,1,0-6.83h13.074a3.415,3.415,0,0,1,0,6.83" transform="translate(-165.271 -80.633)" fill="#e0e0e0"/>
            <path id="Trazado_639094" data-name="Trazado 639094" d="M337.711,239.827H278.447a3.415,3.415,0,0,1,0-6.83h59.264a3.415,3.415,0,1,1,0,6.83" transform="translate(-107.309 -90.909)" fill="#e0e0e0"/>
            <path id="Trazado_639095" data-name="Trazado 639095" d="M440.076,237.274H427a3.415,3.415,0,0,1,0-6.83h13.074a3.415,3.415,0,0,1,0,6.83" transform="translate(-165.271 -89.912)" fill="#e0e0e0"/>
            <path id="Trazado_639096" data-name="Trazado 639096" d="M302.563,263.61H278.447a3.415,3.415,0,0,1,0-6.83h24.116a3.415,3.415,0,1,1,0,6.83" transform="translate(-107.309 -100.188)" fill="#e0e0e0"/>
            <path id="Trazado_639097" data-name="Trazado 639097" d="M440.076,261.057H427a3.415,3.415,0,0,1,0-6.83h13.074a3.415,3.415,0,0,1,0,6.83" transform="translate(-165.271 -99.192)" fill="#e0e0e0"/>
            <path id="Trazado_639098" data-name="Trazado 639098" d="M440.075,283.691H427a3.415,3.415,0,1,1,0-6.83h13.074a3.415,3.415,0,1,1,0,6.83" transform="translate(-165.271 -108.023)" fill="#455a64"/>
            <path id="Trazado_639099" data-name="Trazado 639099" d="M371.222,148.865H325.99a2.343,2.343,0,0,1-2.344-2.343V101.289a2.343,2.343,0,0,1,2.344-2.343h45.233a2.343,2.343,0,0,1,2.343,2.343v45.234a2.343,2.343,0,0,1-2.343,2.343" transform="translate(-126.277 -38.606)" fill="#ffb338"/>
            <path id="Trazado_639100" data-name="Trazado 639100" d="M366.525,138.814H350.039a.229.229,0,1,1,0-.457h16.3l1.887-10.664H348.485a.229.229,0,0,1,0-.457h20.01a.229.229,0,0,1,.225.268l-1.969,11.121a.228.228,0,0,1-.225.189" transform="translate(-135.879 -49.643)" fill="#fff"/>
            <path id="Trazado_639101" data-name="Trazado 639101" d="M362.429,140.81h0l-15.7-.054a.229.229,0,0,1-.226-.2l-2.273-17.719h-4.842a.229.229,0,0,1,0-.457h5.043a.229.229,0,0,1,.227.2l2.274,17.72,15.5.053a.229.229,0,0,1,0,.457" transform="translate(-132.328 -47.749)" fill="#fff"/>
            <path id="Trazado_639102" data-name="Trazado 639102" d="M354.374,158.969a2.183,2.183,0,1,1,2.183-2.183,2.186,2.186,0,0,1-2.183,2.183m0-3.909a1.726,1.726,0,1,0,1.726,1.726,1.728,1.728,0,0,0-1.726-1.726" transform="translate(-137.415 -60.322)" fill="#fff"/>
            <path id="Trazado_639103" data-name="Trazado 639103" d="M372.146,158.969a2.183,2.183,0,1,1,2.183-2.183,2.186,2.186,0,0,1-2.183,2.183m0-3.909a1.726,1.726,0,1,0,1.726,1.726,1.728,1.728,0,0,0-1.726-1.726" transform="translate(-144.349 -60.322)" fill="#fff"/>
            <path id="Trazado_639104" data-name="Trazado 639104" d="M358.951,139.043a.228.228,0,0,1-.228-.215l-.67-10.762a.229.229,0,0,1,.214-.243.226.226,0,0,1,.242.214l.67,10.763a.229.229,0,0,1-.214.243h-.014" transform="translate(-139.701 -49.873)" fill="#fff"/>
            <path id="Trazado_639105" data-name="Trazado 639105" d="M369.265,139.043h-.012a.229.229,0,0,1-.216-.241l.6-10.762a.228.228,0,1,1,.456.026l-.6,10.762a.228.228,0,0,1-.228.216" transform="translate(-143.987 -49.873)" fill="#fff"/>
            <path id="Trazado_639106" data-name="Trazado 639106" d="M349.485,136.991a.229.229,0,0,1,0-.457l18.416-.179h0a.229.229,0,0,1,0,.457l-18.416.179Z" transform="translate(-136.269 -53.201)" fill="#fff"/>
            <path id="Trazado_639107" data-name="Trazado 639107" d="M385.065,121.187a5.388,5.388,0,1,1-5.388-5.388,5.388,5.388,0,0,1,5.388,5.388" transform="translate(-146.036 -45.181)" fill="#fff"/>
            <path id="Trazado_639108" data-name="Trazado 639108" d="M383.411,123.37a1.313,1.313,0,0,1,.339.918,1.452,1.452,0,0,1-.221.78,1.553,1.553,0,0,1-.676.572,2.591,2.591,0,0,1-1.113.215,3.809,3.809,0,0,1-1.009-.135,2.579,2.579,0,0,1-.842-.385l.437-.859a2.116,2.116,0,0,0,.641.322,2.463,2.463,0,0,0,.746.115,1.182,1.182,0,0,0,.665-.163.524.524,0,0,0,.242-.461q0-.6-.907-.6H381.2v-.742l1-1.13h-2.065v-.9h3.4v.728l-1.1,1.248a1.632,1.632,0,0,1,.978.474" transform="translate(-148.221 -47.179)" fill="#ff725e"/>
            <rect id="Rectángulo_330615" data-name="Rectángulo 330615" width="164.034" height="22.619" transform="translate(137.972 20.299)" fill="#e0e0e0"/>
            <path id="Trazado_639109" data-name="Trazado 639109" d="M245.128,50.936a2.617,2.617,0,1,1-2.617-2.617,2.617,2.617,0,0,1,2.617,2.617" transform="translate(-93.6 -18.853)" fill="#fff"/>
            <path id="Trazado_639110" data-name="Trazado 639110" d="M257.851,50.936a2.617,2.617,0,1,1-2.617-2.617,2.617,2.617,0,0,1,2.617,2.617" transform="translate(-98.564 -18.853)" fill="#fff"/>
            <path id="Trazado_639111" data-name="Trazado 639111" d="M270.574,50.936a2.617,2.617,0,1,1-2.617-2.617,2.617,2.617,0,0,1,2.617,2.617" transform="translate(-103.528 -18.853)" fill="#fff"/>
            <path id="Trazado_639112" data-name="Trazado 639112" d="M361.961,329.1H326.142a11.306,11.306,0,1,1,0-22.611h35.819a11.306,11.306,0,1,1,0,22.611" transform="translate(-122.84 -119.584)" fill="#eb6f2d"/>
            <path id="Trazado_639113" data-name="Trazado 639113" d="M355.868,323.011c0,1.02-.769,1.654-1.994,1.654h-.782v1.173h-1.27V321.35h2.052c1.225,0,1.994.635,1.994,1.661m-1.282,0c0-.417-.263-.66-.789-.66h-.706v1.315h.706c.526,0,.789-.244.789-.654" transform="translate(-137.271 -125.381)" fill="#fff"/>
            <path id="Trazado_639114" data-name="Trazado 639114" d="M361.763,324.968h-1.9l-.353.872h-1.295l1.981-4.489h1.25l1.988,4.489h-1.321Zm-.371-.937-.578-1.436-.577,1.436Z" transform="translate(-139.766 -125.382)" fill="#fff"/>
            <path id="Trazado_639115" data-name="Trazado 639115" d="M368.938,324.23v1.609h-1.27v-1.629l-1.712-2.86h1.34l1.065,1.783,1.065-1.783h1.231Z" transform="translate(-142.785 -125.381)" fill="#fff"/>
          </g>
        </g>
        <g id="Grupo_882590" data-name="Grupo 882590">
          <g id="Grupo_882589" data-name="Grupo 882589" clip-path="url(#clip-path)">
            <path id="Trazado_639116" data-name="Trazado 639116" d="M187.189,315.1c-.037,0-.073-.51-.25-1.42a17.79,17.79,0,0,0-1.135-3.735,14.234,14.234,0,0,0-3.23-4.738,9.011,9.011,0,0,0-12.673-.041,14.164,14.164,0,0,0-3.252,4.724,17.723,17.723,0,0,0-1.148,3.731c-.181.908-.218,1.422-.255,1.418a1.477,1.477,0,0,1,.006-.374,10.333,10.333,0,0,1,.115-1.067,16.159,16.159,0,0,1,1.055-3.8,14.088,14.088,0,0,1,3.259-4.862,9.266,9.266,0,0,1,13.113.043,14.156,14.156,0,0,1,3.237,4.877,16.231,16.231,0,0,1,1.041,3.808,10.506,10.506,0,0,1,.112,1.068,1.512,1.512,0,0,1,0,.374" transform="translate(-64.471 -117.923)" fill="#455a64"/>
            <path id="Trazado_639117" data-name="Trazado 639117" d="M193.4,315.1c-.037,0-.073-.51-.25-1.42a17.79,17.79,0,0,0-1.135-3.735,14.235,14.235,0,0,0-3.23-4.738,9.012,9.012,0,0,0-12.673-.041,14.164,14.164,0,0,0-3.252,4.724,17.727,17.727,0,0,0-1.148,3.731c-.18.908-.218,1.422-.255,1.418a1.479,1.479,0,0,1,.006-.374,10.509,10.509,0,0,1,.115-1.067,16.157,16.157,0,0,1,1.055-3.8,14.088,14.088,0,0,1,3.259-4.862,9.266,9.266,0,0,1,13.113.043,14.156,14.156,0,0,1,3.237,4.877,16.231,16.231,0,0,1,1.041,3.808,10.51,10.51,0,0,1,.112,1.068,1.511,1.511,0,0,1,0,.374" transform="translate(-66.895 -117.923)" fill="#455a64"/>
            <path id="Trazado_639118" data-name="Trazado 639118" d="M144.723,320.905l42.791-.326.934,58.329H140.43Z" transform="translate(-54.791 -125.08)" fill="#ebebeb"/>
            <path id="Trazado_639119" data-name="Trazado 639119" d="M217.638,320.579h5.371l4.626,58.329h-9.063Z" transform="translate(-84.916 -125.08)" fill="#e0e0e0"/>
            <rect id="Rectángulo_330617" data-name="Rectángulo 330617" width="28.014" height="4.693" transform="translate(95.64 218.463)" fill="#fff"/>
            <path id="Trazado_639120" data-name="Trazado 639120" d="M150.767,342.293a23.479,23.479,0,0,0-1.131-4.729,13.317,13.317,0,0,0-2.6-4.342,6.6,6.6,0,0,0-10.154-.038,13.238,13.238,0,0,0-2.613,4.329,23.407,23.407,0,0,0-1.146,4.724,1.314,1.314,0,0,1,0-.345c.007-.226.032-.557.087-.982a16.437,16.437,0,0,1,.841-3.5,13.232,13.232,0,0,1,2.62-4.48,6.829,6.829,0,0,1,10.577.04,13.294,13.294,0,0,1,2.6,4.493,16.515,16.515,0,0,1,.829,3.507c.055.424.077.756.085.982a1.338,1.338,0,0,1,0,.345" transform="translate(-51.938 -128.927)" fill="#263238"/>
            <path id="Trazado_639121" data-name="Trazado 639121" d="M155.762,342.293a23.481,23.481,0,0,0-1.131-4.729,13.317,13.317,0,0,0-2.6-4.342,6.6,6.6,0,0,0-10.154-.038,13.251,13.251,0,0,0-2.614,4.329,23.423,23.423,0,0,0-1.146,4.724,1.312,1.312,0,0,1,0-.345c.007-.226.032-.557.087-.982a16.437,16.437,0,0,1,.841-3.5,13.232,13.232,0,0,1,2.62-4.48,6.829,6.829,0,0,1,10.577.04,13.3,13.3,0,0,1,2.6,4.493,16.516,16.516,0,0,1,.829,3.507c.055.424.077.756.085.982a1.338,1.338,0,0,1,0,.345" transform="translate(-53.887 -128.927)" fill="#263238"/>
            <path id="Trazado_639122" data-name="Trazado 639122" d="M114.132,346.362l34.4-.239.751,42.685h-38.6Z" transform="translate(-43.184 -135.047)" fill="#fd4c1b"/>
            <path id="Trazado_639123" data-name="Trazado 639123" d="M172.751,346.123h4.318l3.719,42.685H173.5Z" transform="translate(-67.402 -135.047)" fill="#e44e00"/>
            <g id="Grupo_882588" data-name="Grupo 882588" transform="translate(105 211.076)" opacity="0.3">
              <g id="Grupo_882587" data-name="Grupo 882587">
                <g id="Grupo_882586" data-name="Grupo 882586" clip-path="url(#clip-path-6)">
                  <path id="Trazado_639124" data-name="Trazado 639124" d="M172.751,346.123h4.318l3.719,42.685H173.5Z" transform="translate(-172.751 -346.123)"/>
                </g>
              </g>
            </g>
            <rect id="Rectángulo_330619" data-name="Rectángulo 330619" width="22.522" height="4.313" transform="translate(76.96 225.575)" fill="#fff"/>
          </g>
        </g>
        <g id="Grupo_882592" data-name="Grupo 882592">
          <g id="Grupo_882591" data-name="Grupo 882591" clip-path="url(#clip-path-7)">
            <path id="Trazado_639125" data-name="Trazado 639125" d="M545.146,116.4H478.657a4.5,4.5,0,0,1-4.5-4.5V19.448a4.5,4.5,0,0,1,4.5-4.5h66.489a4.5,4.5,0,0,1,4.5,4.5V111.9a4.5,4.5,0,0,1-4.5,4.5" transform="translate(-185.002 -5.833)" fill="#fff"/>
            <path id="Trazado_639126" data-name="Trazado 639126" d="M549.645,26.839H474.157V18.707a3.758,3.758,0,0,1,3.758-3.758h67.972a3.758,3.758,0,0,1,3.758,3.758Z" transform="translate(-185.002 -5.833)" fill="#e0e0e0"/>
            <path id="Trazado_639127" data-name="Trazado 639127" d="M546.459,116.307s.073-.009.215-.02a2.757,2.757,0,0,0,.628-.125,3.163,3.163,0,0,0,1.88-1.679,3.758,3.758,0,0,0,.287-.89,5.674,5.674,0,0,0,.057-1.051q0-1.114-.006-2.435c0-1.76-.008-3.79-.012-6.075-.01-9.147-.024-22.374-.043-38.719,0-8.174-.01-17.126-.016-26.737q0-7.209-.007-14.9,0-1.92,0-3.868c-.009-.643.018-1.315-.019-1.94a3.421,3.421,0,0,0-.67-1.716,3.018,3.018,0,0,0-1.44-1.034,5.868,5.868,0,0,0-1.786-.135h-3.7L477.18,15a2.87,2.87,0,0,0-1.9.739,3.338,3.338,0,0,0-1.023,1.879,6.245,6.245,0,0,0-.055,1.131v3.474q0,4.619,0,9.176,0,9.112,0,17.941c0,11.762-.006,23.108-.008,33.916q0,8.106-.005,15.793,0,3.84,0,7.566,0,1.862,0,3.7,0,.916,0,1.825a6.323,6.323,0,0,0,.132,1.759,3.131,3.131,0,0,0,2.231,2.22,8.29,8.29,0,0,0,1.593.073h1.606l6.275,0,11.795.01,35.593.046,9.677.027,2.517.015c.567,0,.857.015.857.015s-.29.01-.857.015l-2.517.015-9.677.027-35.593.046-11.795.01-6.275,0H478.14a8.387,8.387,0,0,1-1.639-.076,3.359,3.359,0,0,1-2.4-2.38,6.565,6.565,0,0,1-.144-1.831q0-.909,0-1.825,0-1.833,0-3.7,0-3.725,0-7.566,0-7.68-.006-15.793c0-10.809-.005-22.154-.008-33.916q0-8.822,0-17.941,0-4.555,0-9.176V18.749a6.527,6.527,0,0,1,.06-1.185,3.631,3.631,0,0,1,1.115-2.048,3.128,3.128,0,0,1,2.067-.8l64.643.012h4.62a3.208,3.208,0,0,1,.937.148,3.257,3.257,0,0,1,1.556,1.119,3.69,3.69,0,0,1,.723,1.855c.04.681.011,1.313.02,1.968q0,1.947,0,3.868,0,7.678-.007,14.9c-.005,9.61-.011,18.563-.016,26.737-.018,16.345-.032,29.572-.043,38.719,0,2.285-.009,4.315-.012,6.075q0,1.32-.006,2.435a5.734,5.734,0,0,1-.065,1.064,3.8,3.8,0,0,1-.3.9,3.163,3.163,0,0,1-1.92,1.679,2.615,2.615,0,0,1-.634.112c-.144.005-.216,0-.216,0" transform="translate(-184.917 -5.74)" fill="#263238"/>
            <path id="Trazado_639128" data-name="Trazado 639128" d="M484.52,23.48a1.756,1.756,0,1,1-1.75-1.9,1.831,1.831,0,0,1,1.75,1.9" transform="translate(-187.68 -8.418)" fill="#fff"/>
            <path id="Trazado_639129" data-name="Trazado 639129" d="M492.795,23.48a1.756,1.756,0,1,1-1.75-1.9,1.831,1.831,0,0,1,1.75,1.9" transform="translate(-190.908 -8.418)" fill="#fff"/>
            <path id="Trazado_639130" data-name="Trazado 639130" d="M501.07,23.48a1.756,1.756,0,1,1-1.75-1.9,1.831,1.831,0,0,1,1.75,1.9" transform="translate(-194.137 -8.418)" fill="#fff"/>
            <path id="Trazado_639131" data-name="Trazado 639131" d="M542.192,123.939H510.986a3.1,3.1,0,0,1,0-6.192h31.206a3.1,3.1,0,0,1,0,6.192" transform="translate(-198.164 -45.941)" fill="#e0e0e0"/>
            <path id="Trazado_639132" data-name="Trazado 639132" d="M541.342,102.581H510.136a3.1,3.1,0,0,1,0-6.192h31.207a3.1,3.1,0,0,1,0,6.192" transform="translate(-197.832 -37.608)" fill="#e0e0e0"/>
            <path id="Trazado_639133" data-name="Trazado 639133" d="M541.37,61.976A10.181,10.181,0,1,1,531.188,51.8,10.181,10.181,0,0,1,541.37,61.976" transform="translate(-203.282 -20.209)" fill="#fafafa"/>
            <path id="Trazado_639134" data-name="Trazado 639134" d="M536.089,65.856a2.33,2.33,0,1,0-1.693,0c-3.582.507-3.419,4.163-3.419,4.163l8.469.037s.193-3.7-3.357-4.2" transform="translate(-207.171 -23.94)" fill="#e0e0e0"/>
            <path id="Trazado_639135" data-name="Trazado 639135" d="M541.268,61.9a16.456,16.456,0,0,0-.379-2.471,9.729,9.729,0,0,0-1.137-2.683,10.064,10.064,0,0,0-12.083-4.271,9.432,9.432,0,0,0-2.537,1.368,9.18,9.18,0,0,0-2.119,2.131,9.982,9.982,0,0,0,0,11.85,9.172,9.172,0,0,0,2.119,2.131,9.421,9.421,0,0,0,2.537,1.368,10.093,10.093,0,0,0,12.084-4.271,9.765,9.765,0,0,0,1.137-2.683,16.476,16.476,0,0,0,.378-2.47.65.65,0,0,1,.008.165c0,.127-.005.287-.009.485a4.757,4.757,0,0,1-.065.787,7.208,7.208,0,0,1-.193,1.062,9.621,9.621,0,0,1-1.1,2.744,10.269,10.269,0,0,1-6.915,4.886,10.327,10.327,0,0,1-5.421-.431,9.675,9.675,0,0,1-2.618-1.4,9.468,9.468,0,0,1-2.189-2.191,10.269,10.269,0,0,1,0-12.219,9.471,9.471,0,0,1,2.189-2.191,9.686,9.686,0,0,1,2.617-1.4,10.324,10.324,0,0,1,5.421-.431,10.266,10.266,0,0,1,6.915,4.885,9.613,9.613,0,0,1,1.1,2.744,7.222,7.222,0,0,1,.193,1.062,4.763,4.763,0,0,1,.065.788c0,.2.006.358.009.485a.65.65,0,0,1-.008.165" transform="translate(-203.18 -20.129)" fill="#263238"/>
            <path id="Trazado_639136" data-name="Trazado 639136" d="M539.953,155.532H508.684a6.04,6.04,0,1,1,0-12.08h31.269a6.04,6.04,0,1,1,0,12.08" transform="translate(-196.117 -55.971)" fill="#eb6f2d"/>
          </g>
        </g>
        <g id="Grupo_882594" data-name="Grupo 882594">
          <g id="Grupo_882593" data-name="Grupo 882593" clip-path="url(#clip-path)">
            <path id="Trazado_639137" data-name="Trazado 639137" d="M621.6,89.121l.981-4.5a17.535,17.535,0,1,1,3.878,4.943l.005.008Z" transform="translate(-242.126 -23.009)" fill="#fff"/>
            <path id="Trazado_639138" data-name="Trazado 639138" d="M621.532,89.026s.116,0,.33.019l.942.073,3.6.3-.06.1-.006-.008-.274-.407.371.324a17.347,17.347,0,0,0,10.077,4.283c.461.054.934.026,1.413.043l.725.008.735-.065a17.191,17.191,0,0,0,6.059-1.618,17.359,17.359,0,0,0,6.3-26.266l-.671-.847-.746-.775a18.278,18.278,0,0,0-1.582-1.432A17.408,17.408,0,0,0,622.568,84.5l.011.021,0,.021c-.328,1.429-.583,2.541-.76,3.31-.087.372-.156.66-.2.87s-.078.3-.078.3.013-.093.051-.285l.173-.86c.162-.782.4-1.911.7-3.363l.005.042a17.417,17.417,0,0,1-2.057-8.185,17.654,17.654,0,0,1,28.534-13.866,18.542,18.542,0,0,1,1.612,1.457l.76.789.684.862a17.645,17.645,0,0,1-6.435,26.7,17.387,17.387,0,0,1-6.154,1.615l-.745.061-.735-.011c-.485-.02-.964,0-1.431-.052a17.819,17.819,0,0,1-2.669-.443,17.535,17.535,0,0,1-7.475-3.966l.1-.084.006.009.074.113-.133-.014-3.63-.377-.924-.1c-.206-.024-.3-.04-.3-.04" transform="translate(-242.062 -22.913)" fill="#263238"/>
            <path id="Trazado_639139" data-name="Trazado 639139" d="M642.248,80.751h2.283a1.94,1.94,0,0,1,1.992-1.951,1.847,1.847,0,0,1,1.789,1.179,2.046,2.046,0,0,1-.162,1.849,2.477,2.477,0,0,1-2.774.947v5.147h2.257V84.907A4.408,4.408,0,0,0,650.8,80.6a4.1,4.1,0,0,0-4.274-4.113,3.916,3.916,0,0,0-4.275,4.264" transform="translate(-250.586 -29.843)" fill="#263238"/>
            <rect id="Rectángulo_330622" data-name="Rectángulo 330622" width="2.291" height="2.139" transform="translate(394.782 59.139)" fill="#263238"/>
          </g>
        </g>
        <g id="Grupo_882605" data-name="Grupo 882605">
          <g id="Grupo_882604" data-name="Grupo 882604" clip-path="url(#clip-path)">
            <path id="Trazado_639140" data-name="Trazado 639140" d="M533.655,193.26a18.457,18.457,0,0,0,2.526,2.708c1,.732,1.816.7,2.724,2.232s1.956,3.128,1.956,3.128a42.168,42.168,0,0,1,4.018,1.87c-.142.1-1.693,6.195-1.693,6.195l-7.258-3.7-8.665-2.42-4.545-4.58.127-.512-.611-.978s.258-1.378,1.473-.714c0,0-.523-1.427,1.261-.826s5.217,2.486,5.447,2.47,3.287.344,3.287.344l1.313-.485a3.672,3.672,0,0,1-1.758-1.429c-.559-.995-1.422-1.479-1.042-2.484a1.312,1.312,0,0,1,1.439-.82" transform="translate(-203.761 -75.399)" fill="#ffc09d"/>
            <path id="Trazado_639141" data-name="Trazado 639141" d="M538.684,205.482a2.688,2.688,0,0,1-.484-.079,7.087,7.087,0,0,0-1.335-.041,19.438,19.438,0,0,0-4.424.914l-.042.013-.039-.014-.965-.346-.479-.172-.04-.015-.021-.033-1.074-1.676a1.228,1.228,0,0,0-.6-.548.762.762,0,0,0-.69.132l.033-.1a14.022,14.022,0,0,1,.589,3.131c-.018,0-.064-.306-.2-.843s-.333-1.307-.584-2.236l-.018-.064.051-.04a.964.964,0,0,1,.889-.188,1.437,1.437,0,0,1,.732.634l1.081,1.661-.062-.047.479.172.965.348h-.081a17.289,17.289,0,0,1,4.5-.843,5.8,5.8,0,0,1,1.357.118,1.657,1.657,0,0,1,.467.166" transform="translate(-206.13 -79.296)" fill="#ff9b6c"/>
            <path id="Trazado_639142" data-name="Trazado 639142" d="M530.364,201.587a41.8,41.8,0,0,1-5.6-3.2,41.7,41.7,0,0,1,5.6,3.2" transform="translate(-204.745 -77.402)" fill="#ff9b6c"/>
            <path id="Trazado_639143" data-name="Trazado 639143" d="M526,202.753c-.027.023-.177-.112-.407-.337a6.264,6.264,0,0,0-.934-.8,2.5,2.5,0,0,0-1.117-.406c-.307-.028-.5.021-.513-.017s.174-.141.517-.159a2.166,2.166,0,0,1,1.249.372,3.943,3.943,0,0,1,.931.889c.2.259.3.432.274.454" transform="translate(-204.071 -78.438)" fill="#ff9b6c"/>
            <path id="Trazado_639144" data-name="Trazado 639144" d="M535.54,202.093a4.386,4.386,0,0,0-1.834,2.844c-.03,0-.068-.2-.028-.534a3,3,0,0,1,1.365-2.116c.284-.173.485-.222.5-.195" transform="translate(-208.218 -78.848)" fill="#ff9b6c"/>
            <path id="Trazado_639145" data-name="Trazado 639145" d="M634.082,121.514a5.941,5.941,0,0,1-1.223-1.539,4.656,4.656,0,0,1,0-2.222,5.936,5.936,0,0,0-1.879-5.24,4.091,4.091,0,0,0-5.3.033L614.4,119.82a11.159,11.159,0,0,0-2.282,8.482,5.273,5.273,0,0,0,1.542,3.28,2.633,2.633,0,0,0,3.378.169,4.919,4.919,0,0,0,8.751,2.336,3.8,3.8,0,0,0,6.714-2.061,13.052,13.052,0,0,1,.122-2.636,10.511,10.511,0,0,1,1.762-2.508,4.561,4.561,0,0,0-.3-5.367" transform="translate(-238.786 -43.527)" fill="#263238"/>
            <path id="Trazado_639146" data-name="Trazado 639146" d="M617.9,109.52a3.654,3.654,0,0,0-.167-4.771,2.445,2.445,0,0,0-.152-3.026,7.468,7.468,0,0,0-2.711-1.884,5.131,5.131,0,0,0-5.849-3.862c-1.259-1.95-4.076-2.346-6.365-1.779a6.153,6.153,0,0,1-1.7.3,9.948,9.948,0,0,1-1.249-.212,5.521,5.521,0,0,0-5.614,3.186,4.1,4.1,0,0,1-.524.957,5.772,5.772,0,0,1-1.171.849,3.578,3.578,0,0,0-1.506,2.608,6.609,6.609,0,0,1-.223,2.589,13.133,13.133,0,0,0-.718,1.11c-.47,1.186.849,2.459.552,3.7-.061.252-.187.485-.268.732a2.167,2.167,0,0,0,.083,1.554,3.154,3.154,0,0,1,.46,1.132,3.548,3.548,0,0,1-.219.9c-.183.738,1.359,3.663,2,4.09l19.676.847a3.632,3.632,0,0,0,2.958-2.992,1.289,1.289,0,0,1,.209-.7,1.576,1.576,0,0,1,.549-.322c1.291-.621,1.505-2.314,1.422-3.716a1.67,1.67,0,0,1,.032-.586,2.148,2.148,0,0,1,.49-.7" transform="translate(-230.142 -36.661)" fill="#263238"/>
            <path id="Trazado_639147" data-name="Trazado 639147" d="M624.987,153.854l-.057-.023a.032.032,0,0,1,.057.023" transform="translate(-243.829 -60.016)" fill="#ffc09d"/>
            <path id="Trazado_639148" data-name="Trazado 639148" d="M592.738,110.174c.345-3.847,4.449-7.264,5.543-7.475a8.139,8.139,0,0,1,4.676-.791,13.283,13.283,0,0,1,4.987,1.358,10.239,10.239,0,0,1,5.263,9.159l-1.017,21.121c-2.288,2.524-8.568,4.693-8.568,4.693s-4,.907-5.14-.69l.5-7.255a8.4,8.4,0,0,1-6.485-7.407c-.44-3.206-.144-8.44.24-12.714" transform="translate(-231.09 -39.732)" fill="#ffc09d"/>
            <path id="Trazado_639149" data-name="Trazado 639149" d="M595.842,123.382a.832.832,0,0,0,.793.851.8.8,0,0,0,.889-.722.832.832,0,0,0-.792-.851.8.8,0,0,0-.89.722" transform="translate(-232.479 -47.857)" fill="#263238"/>
            <path id="Trazado_639150" data-name="Trazado 639150" d="M595.4,119.083c.1.11.753-.337,1.661-.313s1.563.484,1.664.377c.05-.047-.052-.243-.337-.457a2.357,2.357,0,0,0-1.329-.435,2.266,2.266,0,0,0-1.326.383c-.284.2-.384.395-.334.444" transform="translate(-232.303 -46.14)" fill="#263238"/>
            <path id="Trazado_639151" data-name="Trazado 639151" d="M602.365,126.58a6.19,6.19,0,0,0-1.469-.3c-.232-.029-.45-.079-.485-.234a1.125,1.125,0,0,1,.172-.667l.729-1.708a29.178,29.178,0,0,0,1.654-4.471,29.3,29.3,0,0,0-2.019,4.331q-.367.9-.7,1.718a1.286,1.286,0,0,0-.143.885.579.579,0,0,0,.373.34,1.581,1.581,0,0,0,.393.063,6.015,6.015,0,0,0,1.5.038" transform="translate(-234.128 -46.51)" fill="#263238"/>
            <path id="Trazado_639152" data-name="Trazado 639152" d="M603.238,147.139a17.167,17.167,0,0,0,8.9-2.082s-2.247,4.558-8.819,3.8Z" transform="translate(-235.366 -56.597)" fill="#ff9b6c"/>
            <path id="Trazado_639153" data-name="Trazado 639153" d="M596.523,113.356c.146.22.846.092,1.657.177.814.06,1.479.31,1.662.12.082-.093,0-.307-.277-.531a2.635,2.635,0,0,0-2.675-.239c-.312.172-.431.367-.367.473" transform="translate(-232.739 -43.943)" fill="#263238"/>
            <path id="Trazado_639154" data-name="Trazado 639154" d="M611.184,124.443a.836.836,0,0,1-.865.781.8.8,0,0,1-.821-.794.837.837,0,0,1,.864-.781.8.8,0,0,1,.823.795" transform="translate(-237.807 -48.244)" fill="#263238"/>
            <path id="Trazado_639155" data-name="Trazado 639155" d="M613.645,120.049c-.111.1-.721-.4-1.628-.451s-1.6.35-1.691.235c-.046-.051.074-.238.376-.426a2.369,2.369,0,0,1,1.363-.321,2.257,2.257,0,0,1,1.287.493c.265.226.348.425.293.47" transform="translate(-238.127 -46.462)" fill="#263238"/>
            <path id="Trazado_639156" data-name="Trazado 639156" d="M613.775,114.315c-.192.19-.878-.06-1.719-.121-.839-.087-1.562.041-1.713-.179-.065-.106.06-.3.383-.472a2.654,2.654,0,0,1,1.419-.245,2.615,2.615,0,0,1,1.346.487c.284.225.368.438.284.531" transform="translate(-238.131 -44.201)" fill="#263238"/>
            <path id="Trazado_639157" data-name="Trazado 639157" d="M624.6,128.056c.013-.478.608-1.593,1.094-1.655,1.3-.165,3.625-.009,3.566,3.2-.08,4.38-4.57,3.4-4.576,3.272,0-.1-.13-3.161-.085-4.813" transform="translate(-243.698 -49.301)" fill="#ffc09d"/>
            <path id="Trazado_639158" data-name="Trazado 639158" d="M626.824,132.239c.02-.013.078.055.208.116a.8.8,0,0,0,.585.023,1.881,1.881,0,0,0,.926-1.679,2.465,2.465,0,0,0-.2-1.1.889.889,0,0,0-.577-.6.4.4,0,0,0-.465.2c-.062.121-.035.21-.059.216s-.1-.075-.055-.255a.483.483,0,0,1,.182-.272.6.6,0,0,1,.434-.1,1.09,1.09,0,0,1,.8.693,2.531,2.531,0,0,1,.249,1.226,1.978,1.978,0,0,1-1.175,1.872.854.854,0,0,1-.713-.129c-.137-.11-.159-.209-.143-.216" transform="translate(-244.566 -50.249)" fill="#ff9b6c"/>
            <path id="Trazado_639159" data-name="Trazado 639159" d="M591.4,108.9a2.543,2.543,0,0,0,1.489-2.312c.6.19,1.226-.551,1.59-1.05s.8-.745.789-1.357a.678.678,0,0,1,.054-.354c.1-.166.31-.215.5-.267a2.972,2.972,0,0,0,2.032-1.99,6.5,6.5,0,0,0,3.063.571,2.463,2.463,0,0,0,4.118-.074,2.172,2.172,0,0,0,1.431,1.085,6.6,6.6,0,0,0,1.859.145,2.5,2.5,0,0,0,1.621,2.886c.158.052.341.1.411.252s-.016.329-.082.486a1.968,1.968,0,0,0,1.292,2.55,1.453,1.453,0,0,0,.077,2.313c.16.1.371.221.341.4a.415.415,0,0,1-.1.184,2.848,2.848,0,0,0-.745,1.43,1.062,1.062,0,0,0,.859,1.193,1.4,1.4,0,0,0-.6.945c-.016.381.368.778.735.649.156-.054,2.4-.428,2.5-.556,1.313-1.651-.236-3.549-.308-5.637a13.341,13.341,0,0,0-1.787-5.964,9.964,9.964,0,0,0-1.539-2.15,13.526,13.526,0,0,0-2.422-1.833,12.479,12.479,0,0,0-3.557-1.763c-2.408-.617-4.946.18-7.231,1.143a10.609,10.609,0,0,0-2.473,1.342,9.373,9.373,0,0,0-2.122,2.567,11.447,11.447,0,0,0-1.74,4.443" transform="translate(-230.746 -38.418)" fill="#263238"/>
            <path id="Trazado_639160" data-name="Trazado 639160" d="M590.018,105.546a1.646,1.646,0,0,1,.254-.463c.1-.143.238-.31.371-.524a2,2,0,0,0,.273-.812,6.228,6.228,0,0,0,.01-1.084,4.709,4.709,0,0,1,.07-1.3,3.634,3.634,0,0,1,1.2-1.97,5.6,5.6,0,0,1,.723-.5,2.782,2.782,0,0,0,.7-.556,3.557,3.557,0,0,0,.448-.814,5.692,5.692,0,0,1,1.135-1.665,5.838,5.838,0,0,1,1.774-1.261,5.392,5.392,0,0,1,1.091-.368,4.955,4.955,0,0,1,1.183-.1,5.793,5.793,0,0,1,.6.062c.2.036.4.082.594.122a2.972,2.972,0,0,0,1.2.032c.4-.067.8-.2,1.219-.288a8.1,8.1,0,0,1,2.594-.164,7.013,7.013,0,0,1,1.31.271,4.423,4.423,0,0,1,2.219,1.514l.16.22-.071-.029a5.126,5.126,0,0,1,3.843.862A4.869,4.869,0,0,1,615,99.789l-.034-.045a14.522,14.522,0,0,1,1.551.851,4.693,4.693,0,0,1,1.253,1.154,2.954,2.954,0,0,1,.543,1.527,2.037,2.037,0,0,1-.469,1.469l0-.073a3.582,3.582,0,0,1,.972,2.275,3.645,3.645,0,0,1-.527,2.164,3.586,3.586,0,0,1-.31.426,4.722,4.722,0,0,0-.32.383.915.915,0,0,0-.171.425,2.586,2.586,0,0,0,0,.455,7.013,7.013,0,0,1-.093,1.661,3.431,3.431,0,0,1-.476,1.254,2.182,2.182,0,0,1-.718.692c-.235.143-.442.2-.558.274a1.064,1.064,0,0,0-.167.127.525.525,0,0,1,.157-.142c.116-.084.323-.143.55-.287a2.17,2.17,0,0,0,.693-.69,3.4,3.4,0,0,0,.454-1.239,7.019,7.019,0,0,0,.079-1.645,2.619,2.619,0,0,1,0-.469,1,1,0,0,1,.182-.462,4.71,4.71,0,0,1,.323-.392,3.508,3.508,0,0,0,.3-.416,3.555,3.555,0,0,0,.5-2.112,3.485,3.485,0,0,0-.951-2.206l-.035-.036.033-.038a1.927,1.927,0,0,0,.437-1.392,2.843,2.843,0,0,0-.526-1.465,4.574,4.574,0,0,0-1.223-1.121,14.32,14.32,0,0,0-1.539-.841l-.029-.014-.005-.03a4.746,4.746,0,0,0-2.033-2.969A5,5,0,0,0,609.1,96l-.043.009-.028-.038-.155-.212a4.289,4.289,0,0,0-2.152-1.467,6.794,6.794,0,0,0-1.282-.266,7.92,7.92,0,0,0-2.55.159c-.41.087-.81.219-1.227.287a3.151,3.151,0,0,1-.629.048,3.8,3.8,0,0,1-.617-.082c-.2-.04-.4-.087-.591-.122a5.49,5.49,0,0,0-.586-.062,4.823,4.823,0,0,0-1.151.095,5.3,5.3,0,0,0-1.067.357,5.748,5.748,0,0,0-1.743,1.231,5.614,5.614,0,0,0-1.122,1.631,3.6,3.6,0,0,1-.465.833,2.852,2.852,0,0,1-.724.574,5.517,5.517,0,0,0-.715.485,3.567,3.567,0,0,0-1.181,1.919,4.651,4.651,0,0,0-.079,1.281,6.2,6.2,0,0,1-.022,1.093,2.036,2.036,0,0,1-.292.826c-.138.215-.281.378-.382.518a2.566,2.566,0,0,0-.215.329c-.042.077-.059.12-.062.119" transform="translate(-230.208 -36.621)" fill="#455a64"/>
            <path id="Trazado_639161" data-name="Trazado 639161" d="M613.481,95.2c-.007.01-.117-.07-.332-.179a3.063,3.063,0,0,0-.971-.3,2.862,2.862,0,0,0-2.856,1.322,2.381,2.381,0,0,0-.237.49.535.535,0,0,0,.02.462l.106.152-.18-.054a1.9,1.9,0,0,0-1.392.124,1.77,1.77,0,0,0-.784.79,1.871,1.871,0,0,0-.2.717c-.011.175,0,.271-.01.273s-.01-.023-.019-.069a1.191,1.191,0,0,1-.017-.2,1.756,1.756,0,0,1,.165-.751,1.816,1.816,0,0,1,.807-.854,2,2,0,0,1,1.485-.148l-.074.1a.655.655,0,0,1-.039-.573,2.493,2.493,0,0,1,.249-.519,2.983,2.983,0,0,1,1.445-1.2,2.928,2.928,0,0,1,1.542-.15,2.849,2.849,0,0,1,.981.352,1.958,1.958,0,0,1,.234.158c.051.04.076.063.073.066" transform="translate(-236.683 -36.904)" fill="#455a64"/>
            <path id="Trazado_639162" data-name="Trazado 639162" d="M628.843,110.611s0,.029-.013.08a.73.73,0,0,1-.105.209,1.2,1.2,0,0,1-.736.449,2.34,2.34,0,0,1-1.278-.17,7.448,7.448,0,0,1-.7-.292,1.217,1.217,0,0,1-.6-.568l-.026-.071.1.034a5.17,5.17,0,0,1-1.353.744,2.361,2.361,0,0,1-1.264.093,1.684,1.684,0,0,1-.767-.365,1.02,1.02,0,0,1-.158-.166c-.031-.042-.045-.065-.041-.068s.077.079.232.2a1.758,1.758,0,0,0,.753.314,2.336,2.336,0,0,0,1.2-.117,5.3,5.3,0,0,0,1.314-.737l.073-.052.032.087.022.06a1.1,1.1,0,0,0,.541.5c.225.115.463.206.683.292a2.3,2.3,0,0,0,1.215.192,1.2,1.2,0,0,0,.713-.389,1.851,1.851,0,0,0,.161-.259" transform="translate(-242.647 -42.968)" fill="#e0e0e0"/>
            <path id="Trazado_639163" data-name="Trazado 639163" d="M605.435,134.442a1.532,1.532,0,0,1,1.357-.606,1.4,1.4,0,0,1,.98.492.887.887,0,0,1,.095,1.011,1.028,1.028,0,0,1-1.106.312,3.216,3.216,0,0,1-1.1-.618.933.933,0,0,1-.249-.245.285.285,0,0,1-.007-.316" transform="translate(-236.191 -52.217)" fill="#ff9b6c"/>
            <path id="Trazado_639164" data-name="Trazado 639164" d="M607.239,132.343c-.138,0-.115.918-.887,1.594s-1.756.6-1.759.731c-.012.059.224.173.638.173a2.3,2.3,0,0,0,1.471-.557,2,2,0,0,0,.684-1.336c.024-.386-.085-.612-.148-.6" transform="translate(-235.894 -51.636)" fill="#263238"/>
            <path id="Trazado_639165" data-name="Trazado 639165" d="M610.555,406.11l0,.592s-10.342,4.129-10.434,6.035l20.614-.293-.381-6.63a12.158,12.158,0,0,1-9.8.3" transform="translate(-234.151 -158.337)" fill="#263238"/>
            <path id="Trazado_639166" data-name="Trazado 639166" d="M620.734,415.666l-.091-1.595-19.724.865s-.912.4-.8,1.023Z" transform="translate(-234.145 -161.558)" fill="#455a64"/>
            <path id="Trazado_639167" data-name="Trazado 639167" d="M617.118,407.3c0,.1.509.134,1.009.44s.77.711.862.671c.093-.02-.066-.6-.679-.961s-1.215-.24-1.192-.151" transform="translate(-240.781 -158.881)" fill="#fff"/>
            <path id="Trazado_639168" data-name="Trazado 639168" d="M613.594,408.806c-.021.095.417.254.765.661s.453.841.553.835c.1.013.156-.557-.287-1.056s-1.031-.534-1.032-.441" transform="translate(-239.406 -159.488)" fill="#fff"/>
            <path id="Trazado_639169" data-name="Trazado 639169" d="M611.112,411.9c.092.02.224-.469-.042-1s-.741-.735-.782-.653.254.362.466.8.257.843.357.851" transform="translate(-238.114 -160.059)" fill="#fff"/>
            <path id="Trazado_639170" data-name="Trazado 639170" d="M637.9,399.82a19.241,19.241,0,0,0-.585-1.887l-.116-.3-.008.007-1.79-10.988-7.389.761,1.329,12.517c-.018-.017-.037-.03-.054-.048l-.511,1.51-1.918,10.6a1.378,1.378,0,0,0,.99,1.581,1.485,1.485,0,0,0,1.477-.41c1.938-2.1,9.025-9.863,8.855-10.811Z" transform="translate(-244.573 -150.862)" fill="#263238"/>
            <path id="Trazado_639171" data-name="Trazado 639171" d="M628.923,423.1l9.988-12.15.052.554a1.5,1.5,0,0,1-.405,1.271c-.784,1.222-3.015,4-8.377,9.866a1.481,1.481,0,0,1-1.259.459" transform="translate(-245.387 -160.34)" fill="#455a64"/>
            <path id="Trazado_639172" data-name="Trazado 639172" d="M631.36,420.2a4.284,4.284,0,0,0-1.313-.909,4.608,4.608,0,0,0-1.626-.146c-.015-.031.151-.148.472-.22a2.354,2.354,0,0,1,1.264.1,2.2,2.2,0,0,1,1.009.72c.187.254.228.445.194.459" transform="translate(-245.191 -163.433)" fill="#fff"/>
            <path id="Trazado_639173" data-name="Trazado 639173" d="M630.192,423.559a12,12,0,0,0-1.282-.453,12.53,12.53,0,0,0-1.371-.045,1.663,1.663,0,0,1,1.432-.238c.839.152,1.29.695,1.222.736" transform="translate(-244.846 -164.956)" fill="#fff"/>
            <path id="Trazado_639174" data-name="Trazado 639174" d="M633.332,416.288a14.6,14.6,0,0,0-1.928-.826,15.079,15.079,0,0,0-2.1-.27,3.349,3.349,0,0,1,2.188-.007,3.146,3.146,0,0,1,1.842,1.1" transform="translate(-245.535 -161.929)" fill="#fff"/>
            <path id="Trazado_639175" data-name="Trazado 639175" d="M629.643,405.512a8.89,8.89,0,0,1,.1,1.639v.006l0,.011c-.11.7-.263,1.607-.44,2.586-.21,1.159-.415,2.205-.576,2.961a5.923,5.923,0,0,1-.313,1.213,5.974,5.974,0,0,1,.132-1.244c.115-.763.29-1.815.5-2.974.177-.978.351-1.877.495-2.576v.017a8.9,8.9,0,0,1,.1-1.639" transform="translate(-245.185 -158.219)" fill="#455a64"/>
            <path id="Trazado_639176" data-name="Trazado 639176" d="M632.488,261.266c2.594-12.109-5.394-24.487-5.394-24.487l-20.783,16.372s-4.4,49-1.8,55.355,15.075,32.283,15.075,32.283l9.565-2.241s-3.544-21.131-6.384-26.493c-2.045-3.86-5.389-5.694-3.829-10.725s11.428-30.157,13.55-40.064" transform="translate(-235.542 -92.384)" fill="#263238"/>
            <path id="Trazado_639177" data-name="Trazado 639177" d="M579.831,236.978l-.02-.016a107.289,107.289,0,0,1,5.016-13.321s6.492,5.13,12.417,6.315,19.125-4.327,19.125-4.327l2.348,8.435-18.981,12.5c.707,1.414,2.305,5.463,1.245,11.634-1.335,7.777,1.336,29.293,5.236,43.062s4.151,34.209,4.151,34.209c-2.6,1.429-5.461,1.032-8.156-.439,0,0-1.918-5.125-4.513-13.7-3.555-11.739-3.962-15.573-4.222-19.28s-4.036-17.473-10.8-34.684c-6.2-15.784-3.363-28.408-2.849-30.395" transform="translate(-225.806 -87.258)" fill="#263238"/>
            <path id="Trazado_639178" data-name="Trazado 639178" d="M598.411,250.164a1.081,1.081,0,0,1,.109.134l.3.407,1.158,1.593,4.338,6.033.016.023,0,.026c-.211,2.259-.291,4.882-.436,7.8s-.3,6.137-.471,9.59c-.187,3.453-.387,7.143-.6,11.01-.238,3.866-.442,7.909-.843,12.068a48.243,48.243,0,0,0-.479,10.124,23.634,23.634,0,0,0,.34,2.408,15.446,15.446,0,0,0,.592,2.308c.566,1.467,1.224,2.887,1.847,4.268,2.525,5.525,4.889,10.463,6.858,14.615l4.688,9.827,1.268,2.674.325.7c.072.158.1.241.1.241s-.048-.076-.127-.23-.2-.392-.349-.687l-1.314-2.654-4.765-9.793c-1.99-4.144-4.373-9.073-6.911-14.6-.629-1.386-1.284-2.792-1.864-4.287a15.624,15.624,0,0,1-.6-2.338,23.8,23.8,0,0,1-.347-2.431,48.2,48.2,0,0,1,.475-10.174c.4-4.141.606-8.191.849-12.055.217-3.866.424-7.555.617-11.007s.352-6.667.505-9.587.253-5.545.481-7.805l.013.049-4.277-6.073c-.487-.7-.864-1.24-1.125-1.615l-.285-.418a1.022,1.022,0,0,1-.09-.146" transform="translate(-233.482 -97.607)" fill="#455a64"/>
            <path id="Trazado_639179" data-name="Trazado 639179" d="M585.737,279.747a2.652,2.652,0,0,1-.2-.446q-.195-.491-.515-1.3c-.44-1.135-1.06-2.784-1.787-4.835s-1.557-4.509-2.364-7.274a72.917,72.917,0,0,1-2.118-9.129,40.744,40.744,0,0,1,.934-16.915A30,30,0,0,1,581.464,235c.243-.559.49-.966.635-1.251a2.621,2.621,0,0,1,.249-.421,2.776,2.776,0,0,1-.189.452c-.126.295-.353.709-.577,1.274a33.2,33.2,0,0,0-1.669,4.854,41.739,41.739,0,0,0-.831,16.8,75.916,75.916,0,0,0,2.083,9.095c.789,2.763,1.6,5.223,2.292,7.283l1.685,4.867.457,1.325a2.653,2.653,0,0,1,.138.47" transform="translate(-225.623 -91.037)" fill="#455a64"/>
            <path id="Trazado_639180" data-name="Trazado 639180" d="M573.1,162.505s-2.527.76-4.665,5.331c-1.706,3.649-2.507,24.258-2.507,24.258l-13.746-2.826-2.159,10.338s11.551,4.616,18.882,7.029c3.321,1.093,5.937-2.772,6.313-3.775,1.207-3.217-.373-26.734-.373-26.734Z" transform="translate(-214.603 -63.405)" fill="#617a0b"/>
            <path id="Trazado_639181" data-name="Trazado 639181" d="M585.156,166.507l1.143-7.463c1.118-1.184,8.63-3.283,8.63-3.283,8.869,2.038,13.156-1.99,14.072-2.123.635-.093,7.411,2.054,7.411,2.054l3.417,19.96s-.812,14.532-.879,14.635.88,11.519.88,11.519-15.342,5.3-22.119,6.839-13.86-7.134-13.86-7.134a36.015,36.015,0,0,0,1.86-14.763Z" transform="translate(-227.802 -59.944)" fill="#617a0b"/>
            <path id="Trazado_639182" data-name="Trazado 639182" d="M606.8,191.427c.061,0,.061.676.279,1.73a10.889,10.889,0,0,0,4.568,6.78c.895.6,1.522.852,1.5.908-.009.022-.17-.027-.459-.134a6.894,6.894,0,0,1-1.166-.576,9.439,9.439,0,0,1-1.55-1.159,10.169,10.169,0,0,1-2.632-3.907,9.473,9.473,0,0,1-.492-1.871,6.923,6.923,0,0,1-.1-1.3,1.321,1.321,0,0,1,.048-.475" transform="translate(-236.734 -74.689)" fill="#263238"/>
            <path id="Trazado_639183" data-name="Trazado 639183" d="M583.35,186.122a27.564,27.564,0,0,0-.271,4.157,25.482,25.482,0,0,0,.526,4.48,54,54,0,0,0,1.439,5.356,7.389,7.389,0,0,1,.3,1.453c.068.478.113.953.146,1.42a16.354,16.354,0,0,1-.006,2.7,20.031,20.031,0,0,1-1.009,4.445,29.65,29.65,0,0,0-.777,2.952,9.1,9.1,0,0,1-.233,1.1,1,1,0,0,1,.011-.292c.021-.188.041-.471.1-.828a23.485,23.485,0,0,1,.683-2.992,20.923,20.923,0,0,0,.934-4.406,16.47,16.47,0,0,0-.013-2.656c-.034-.461-.08-.929-.149-1.4a7.174,7.174,0,0,0-.287-1.405,49.783,49.783,0,0,1-1.422-5.387,24.052,24.052,0,0,1-.463-4.534c-.02-.649.041-1.237.066-1.751.065-.512.1-.955.172-1.312.07-.324.127-.593.175-.817a1.034,1.034,0,0,1,.082-.281" transform="translate(-227.411 -72.619)" fill="#263238"/>
            <path id="Trazado_639184" data-name="Trazado 639184" d="M634.79,157.008s6.78.737,9.044,9.436c1.2,4.6,6.18,34.533,5.778,37.105s-.476,19.788-.476,19.788l-10.181-1.943.136-22.4-5.184-23.187-2.952-12.6Z" transform="translate(-246.18 -61.26)" fill="#617a0b"/>
            <path id="Trazado_639185" data-name="Trazado 639185" d="M633.236,179.778c.085-.02,1.324,4.905,2.766,11s2.543,11.055,2.458,11.075-1.324-4.9-2.767-11-2.542-11.054-2.457-11.074" transform="translate(-247.068 -70.144)" fill="#263238"/>
            <rect id="Rectángulo_330624" data-name="Rectángulo 330624" width="0.61" height="2.346" transform="translate(398.126 177.79)" fill="#e0e0e0"/>
            <path id="Trazado_639186" data-name="Trazado 639186" d="M661.513,295.693l14.842,39.836-8.965,3.415-10.357-41.4Z" transform="translate(-256.355 -115.37)" fill="#e0e0e0"/>
            <path id="Trazado_639187" data-name="Trazado 639187" d="M660.569,339.788l-19.932-7.012-1.087-34.919,10.662.535Z" transform="translate(-249.533 -116.215)" fill="#e0e0e0"/>
            <path id="Trazado_639188" data-name="Trazado 639188" d="M674.013,362.376a11.319,11.319,0,0,1,.484-1.895c.341-1.162.836-2.766,1.408-4.551l.058-.181.174.075.371.16c1.806.778,3.432,1.5,4.6,2.039a12.6,12.6,0,0,1,1.867.937,12.461,12.461,0,0,1-1.963-.713c-1.2-.481-2.838-1.168-4.643-1.947l-.371-.16.232-.105c-.576,1.783-1.109,3.375-1.509,4.518a11.282,11.282,0,0,1-.71,1.822" transform="translate(-262.977 -138.803)" fill="#263238"/>
            <path id="Trazado_639189" data-name="Trazado 639189" d="M660.82,297.149c.092-.026,2.428,8.006,5.217,17.938s4.977,18.007,4.885,18.033-2.428-8-5.218-17.939-4.976-18.005-4.885-18.031" transform="translate(-257.831 -115.939)" fill="#263238"/>
            <g id="Grupo_882597" data-name="Grupo 882597" transform="translate(390.016 181.642)" opacity="0.3">
              <g id="Grupo_882596" data-name="Grupo 882596">
                <g id="Grupo_882595" data-name="Grupo 882595" clip-path="url(#clip-path-10)">
                  <path id="Trazado_639190" data-name="Trazado 639190" d="M660.569,339.788l-19.932-7.012-1.087-34.919,10.662.535Z" transform="translate(-639.549 -297.857)"/>
                </g>
              </g>
            </g>
            <path id="Trazado_639191" data-name="Trazado 639191" d="M660.756,345.979l-12.249,3.046,3.379-44.745.965-.087Z" transform="translate(-253.029 -118.687)" fill="#455a64"/>
            <path id="Trazado_639192" data-name="Trazado 639192" d="M640.814,347.505,628.79,337.3l5.49-37,9.913,2.463Z" transform="translate(-245.335 -117.167)" fill="#455a64"/>
            <g id="Grupo_882600" data-name="Grupo 882600" transform="translate(383.454 183.13)" opacity="0.3">
              <g id="Grupo_882599" data-name="Grupo 882599">
                <g id="Grupo_882598" data-name="Grupo 882598" clip-path="url(#clip-path-11)">
                  <path id="Trazado_639193" data-name="Trazado 639193" d="M640.814,347.505,628.79,337.3l5.49-37,9.913,2.463Z" transform="translate(-628.789 -300.297)"/>
                </g>
              </g>
            </g>
            <path id="Trazado_639194" data-name="Trazado 639194" d="M648.507,372.743a2.545,2.545,0,0,1,.37-.568c.255-.352.634-.854,1.108-1.47.948-1.231,2.276-2.917,3.76-4.766l.666-.829.1-.129.132.1c1.707,1.264,3.209,2.4,4.278,3.221a14.543,14.543,0,0,1,1.678,1.378,14.566,14.566,0,0,1-1.814-1.193c-1.1-.776-2.632-1.875-4.345-3.13l.235-.031-.665.83c-1.483,1.849-2.842,3.511-3.838,4.7-.5.6-.906,1.075-1.195,1.4a2.582,2.582,0,0,1-.474.484" transform="translate(-253.028 -142.405)" fill="#263238"/>
            <path id="Trazado_639195" data-name="Trazado 639195" d="M654.732,304.376c.1-.005.673,8.316,1.291,18.586s1.041,18.6.946,18.608-.673-8.314-1.291-18.588-1.041-18.6-.946-18.607" transform="translate(-255.452 -118.758)" fill="#263238"/>
            <path id="Trazado_639196" data-name="Trazado 639196" d="M641.423,300.444l-1.845,33.741L628.063,332.7l12.5-32.48Z" transform="translate(-245.051 -117.138)" fill="#2b95f9"/>
            <path id="Trazado_639197" data-name="Trazado 639197" d="M622.892,330.968l-8.081-6.6,12.683-28.594,7.894,2.709Z" transform="translate(-239.881 -115.404)" fill="#2b95f9"/>
            <g id="Grupo_882603" data-name="Grupo 882603" transform="translate(374.669 179.478)" opacity="0.3">
              <g id="Grupo_882602" data-name="Grupo 882602">
                <g id="Grupo_882601" data-name="Grupo 882601" clip-path="url(#clip-path-12)">
                  <path id="Trazado_639198" data-name="Trazado 639198" d="M622.892,330.968l-8.081-6.6,12.683-28.594,7.894,2.709Z" transform="translate(-614.811 -295.779)"/>
                </g>
              </g>
            </g>
            <path id="Trazado_639199" data-name="Trazado 639199" d="M628.063,351.384a12.213,12.213,0,0,1,1.838-.938c1.153-.539,2.756-1.262,4.535-2.04l.58-.253.109-.048.083.084c1.259,1.282,2.367,2.436,3.153,3.277a10.359,10.359,0,0,1,1.218,1.4,10.449,10.449,0,0,1-1.384-1.237c-.83-.8-1.968-1.923-3.233-3.2l.191.037-.579.254c-1.779.778-3.4,1.465-4.576,1.947a12.175,12.175,0,0,1-1.936.714" transform="translate(-245.051 -135.821)" fill="#263238"/>
            <path id="Trazado_639200" data-name="Trazado 639200" d="M645.49,300.408c.093.019-1.155,6.592-2.789,14.68s-3.034,14.632-3.127,14.613,1.155-6.591,2.789-14.681,3.034-14.63,3.127-14.612" transform="translate(-249.541 -117.21)" fill="#263238"/>
            <path id="Trazado_639201" data-name="Trazado 639201" d="M656.475,295.444l-12.353-.389.334,1.865L652,297.3Z" transform="translate(-251.317 -115.122)" fill="#263238"/>
            <path id="Trazado_639202" data-name="Trazado 639202" d="M653.377,303.612l-3.522-.91v.362l2.556.635Z" transform="translate(-253.554 -118.105)" fill="#263238"/>
            <rect id="Rectángulo_330628" data-name="Rectángulo 330628" width="0.61" height="2.346" transform="translate(398.97 177.79)" fill="#e0e0e0"/>
            <path id="Trazado_639203" data-name="Trazado 639203" d="M647.021,264.847a4.032,4.032,0,0,1-1.08,2.4,9.613,9.613,0,0,0-1.467,3.3s-.737,4.548-.9,6.021-.152,2.82,1.01,2.526,1.5-1.189,1.645-3.891l.653-1.439.654,1.079.208,4.077s-3.088,1.387-2.864,2.2.777.663.777.663l.491.443,4.66-1.572,1.523-5.76-.678-7.346.184-3.074-5.1-.973Z" transform="translate(-251.072 -102.806)" fill="#ffc09d"/>
            <path id="Trazado_639204" data-name="Trazado 639204" d="M645.27,294.915l-.6-.11c.043-.236,1.087-5.8,3.442-6.506l.176.584c-1.66.5-2.742,4.524-3.018,6.032" transform="translate(-251.531 -112.486)" fill="#e0e0e0"/>
            <path id="Trazado_639205" data-name="Trazado 639205" d="M643.324,294.574l-.561-.238c.092-.218,2.291-5.337,4.6-6.035l.176.584c-1.695.511-3.621,4.28-4.22,5.69" transform="translate(-250.787 -112.487)" fill="#e0e0e0"/>
          </g>
        </g>
        <g id="Grupo_882619" data-name="Grupo 882619">
          <g id="Grupo_882618" data-name="Grupo 882618" clip-path="url(#clip-path)">
            <path id="Trazado_639206" data-name="Trazado 639206" d="M150.246,103.447A74.993,74.993,0,1,1,75.253,28.454a74.993,74.993,0,0,1,74.993,74.993" transform="translate(-0.101 -11.102)" fill="#f5f5f5"/>
            <path id="Trazado_639207" data-name="Trazado 639207" d="M150.144,103.365s-.021-.412-.047-1.216q-.018-.6-.046-1.5c-.015-.6-.031-1.287-.107-2.068s-.13-1.657-.207-2.622c-.1-.962-.253-2.011-.395-3.149a79.029,79.029,0,0,0-1.525-7.764,74.406,74.406,0,0,0-3.074-9.415,72.375,72.375,0,0,0-5.215-10.557A75.8,75.8,0,0,0,120.5,43.788,74.718,74.718,0,0,0,88.972,29.8a76.1,76.1,0,0,0-29.336.337,73.88,73.88,0,0,0-19.748,7.208,78.98,78.98,0,0,0-9.221,5.839,82.023,82.023,0,0,0-8.446,7.275,80.7,80.7,0,0,0-7.394,8.629,73.756,73.756,0,0,0-6.1,9.823c-.43.872-.917,1.72-1.3,2.617L6.213,74.2c-.723,1.823-1.469,3.645-2.065,5.531A72.9,72.9,0,0,0,1.3,91.309a74.692,74.692,0,0,0,0,24.093,73.009,73.009,0,0,0,2.849,11.582c.6,1.886,1.342,3.709,2.064,5.532l1.209,2.676c.386.9.873,1.745,1.3,2.618a73.73,73.73,0,0,0,6.1,9.826,80.544,80.544,0,0,0,7.394,8.632,82.051,82.051,0,0,0,8.447,7.276,74.988,74.988,0,0,0,18.963,10.2,79.873,79.873,0,0,0,10.01,2.853,76.1,76.1,0,0,0,29.34.336A74.712,74.712,0,0,0,120.5,162.938a75.8,75.8,0,0,0,19.029-21.29,72.28,72.28,0,0,0,5.215-10.556,74.381,74.381,0,0,0,3.072-9.415,79.011,79.011,0,0,0,1.525-7.763c.141-1.138.3-2.186.394-3.148q.114-1.447.207-2.621c.076-.781.092-1.472.107-2.068s.034-1.094.046-1.5c.026-.8.047-1.215.047-1.215s0,.412-.015,1.216q-.012.606-.03,1.5c-.009.6-.02,1.288-.091,2.07s-.121,1.659-.191,2.625c-.093.964-.243,2.014-.38,3.153a78.294,78.294,0,0,1-1.5,7.781,74.017,74.017,0,0,1-3.052,9.44,72.309,72.309,0,0,1-5.2,10.591,75.873,75.873,0,0,1-19.046,21.377,74.882,74.882,0,0,1-31.614,14.073,76.331,76.331,0,0,1-29.447-.314,74.136,74.136,0,0,1-19.832-7.226,79.214,79.214,0,0,1-9.263-5.86,82.282,82.282,0,0,1-8.484-7.3,80.823,80.823,0,0,1-7.427-8.665,73.934,73.934,0,0,1-6.131-9.865c-.432-.876-.922-1.727-1.309-2.628l-1.215-2.688c-.725-1.831-1.475-3.661-2.073-5.556A73.263,73.263,0,0,1,.981,115.453a74.947,74.947,0,0,1,0-24.194A73.156,73.156,0,0,1,3.848,79.631c.6-1.893,1.349-3.723,2.075-5.553l1.215-2.686c.388-.9.877-1.752,1.309-2.628A74,74,0,0,1,14.577,58.9,80.979,80.979,0,0,1,22,50.239a82.4,82.4,0,0,1,8.483-7.3A75.278,75.278,0,0,1,49.527,32.713a80.088,80.088,0,0,1,10.049-2.858,76.313,76.313,0,0,1,29.444-.316A74.889,74.889,0,0,1,120.635,43.61a75.879,75.879,0,0,1,19.047,21.376,72.361,72.361,0,0,1,5.2,10.592,74.064,74.064,0,0,1,3.052,9.441,78.358,78.358,0,0,1,1.5,7.782c.136,1.14.286,2.189.379,3.153l.192,2.625c.071.782.082,1.474.091,2.07s.022,1.1.03,1.5c.015.8.015,1.217.015,1.217" transform="translate(0 -11.02)" fill="#263238"/>
            <path id="Trazado_639208" data-name="Trazado 639208" d="M85.835,256.073a77.888,77.888,0,0,0,24.084,3.437c14.035-.444,23.164-4.062,23.164-4.062l-5.121-19.182-16.189,4.918L91.83,238.311Z" transform="translate(-33.49 -92.184)" fill="#263238"/>
            <path id="Trazado_639209" data-name="Trazado 639209" d="M123.071,128.943l-2.414-6.106-14.4-.759-5.881.758-.647,1.692-3.991,70.609s13.945,2.813,20.917,1.834a81.649,81.649,0,0,0,15.168-4.158V152.658Z" transform="translate(-37.356 -47.632)" fill="#f5f5f5"/>
            <path id="Trazado_639210" data-name="Trazado 639210" d="M105.023,137.567a.668.668,0,0,0,.1.127l.312.349c.277.3.69.738,1.23,1.275a50.355,50.355,0,0,0,4.713,4.126l.069.053.059-.065a53.211,53.211,0,0,0,4.321-5.407l.426-.62-.173,0,3.46,4.659a2.4,2.4,0,0,0,.479.487.908.908,0,0,0,.668.182,1.087,1.087,0,0,0,.58-.327,5.523,5.523,0,0,0,.4-.465l1.366-1.71,1.96-2.478.523-.678a1.628,1.628,0,0,0,.171-.245,1.665,1.665,0,0,0-.2.219l-.553.654-2.012,2.436-1.386,1.694c-.246.3-.5.657-.869.72s-.714-.266-.968-.6l-3.442-4.667-.088-.12-.085.123-.425.617a56.1,56.1,0,0,1-4.288,5.4l.127-.012a56.475,56.475,0,0,1-4.749-4.056c-.55-.524-.975-.947-1.265-1.235l-.333-.329a.669.669,0,0,0-.122-.106" transform="translate(-40.977 -53.388)" fill="#263238"/>
            <g id="Grupo_882608" data-name="Grupo 882608" transform="translate(63.797 83.919)" opacity="0.3">
              <g id="Grupo_882607" data-name="Grupo 882607">
                <g id="Grupo_882606" data-name="Grupo 882606" clip-path="url(#clip-path-14)">
                  <path id="Trazado_639211" data-name="Trazado 639211" d="M121.312,142.349s-1.825,2.248-2.338,1.684-3.216-4.751-3.54-4.925-3.592,5.695-4.874,5.284-5.854-4.981-5.854-4.981l-.09-1.8,6.661,6.061,4.73-6.023,3.979,5.177s.843.66,1.327-.477" transform="translate(-104.615 -137.611)"/>
                </g>
              </g>
            </g>
            <path id="Trazado_639212" data-name="Trazado 639212" d="M125.518,203.963a4.021,4.021,0,0,0,.006-.663q-.023-.7-.061-1.9c-.068-1.686-.165-4.057-.284-6.97-.247-5.885-.579-14.016-.89-23s-.54-17.119-.7-23.008c-.083-2.914-.151-5.287-.2-6.973q-.044-1.192-.07-1.9a4.1,4.1,0,0,0-.052-.66,4.064,4.064,0,0,0-.03.662q0,.7-.006,1.9c.017,1.687.041,4.06.07,6.976.087,5.891.271,14.029.582,23.016s.688,17.114,1.009,23c.172,2.911.312,5.281.412,6.965q.086,1.19.137,1.892a4.015,4.015,0,0,0,.075.659" transform="translate(-48.082 -54.195)" fill="#263238"/>
            <g id="Grupo_882611" data-name="Grupo 882611" transform="translate(89.331 121.267)" opacity="0.3">
              <g id="Grupo_882610" data-name="Grupo 882610">
                <g id="Grupo_882609" data-name="Grupo 882609" clip-path="url(#clip-path-15)">
                  <path id="Trazado_639213" data-name="Trazado 639213" d="M147.269,198.854c-1.158,17.361-1.327,26.648,1.554,43.808,1.292-.247,3.059-.717,4.947-1.243-2.522-16.544-3.979-26.021-6.5-42.565" transform="translate(-146.485 -198.854)"/>
                </g>
              </g>
            </g>
            <path id="Trazado_639214" data-name="Trazado 639214" d="M153.979,185.8s.117-2.078.151-2.639l.429-8.471,1.028-17.717,4.712-20.18c-.862-2.766-3.129-5.732-5.745-6.639-.206-.071-.417-.129-.629-.182l-5.759-1.445-4.457-.872-6.953-4.127s6.388,38.649,6.8,48.591,4.277,41.062,4.277,41.062a61.03,61.03,0,0,0,16.1-6.47Z" transform="translate(-53.358 -48.197)" fill="#2b95f9"/>
            <path id="Trazado_639215" data-name="Trazado 639215" d="M148.465,169.834a.431.431,0,0,0,.034-.106c.021-.084.047-.188.079-.317.068-.3.163-.7.284-1.224.221-1.068.537-2.616.826-4.546s.578-4.236.8-6.805.4-5.4.545-8.371c.049-1.11.1-2.2.146-3.264q.036-.8.069-1.575.019-.389.038-.773l.012-.384v-.2c0-.033,0-.067-.008-.1a.426.426,0,0,0-.017-.071.163.163,0,0,0-.026-.04.115.115,0,0,0-.113-.031c-.076.037-.054.043-.074.062l.145-.031-2.284-1.6-.015.165,2.484-1.163.067-.031-.018-.07c-.374-1.413-.823-2.666-1.214-3.776s-.761-2.065-1.065-2.85-.552-1.4-.724-1.812c-.083-.2-.15-.352-.2-.472a.854.854,0,0,0-.077-.158.923.923,0,0,0,.052.168c.045.121.1.281.176.481.163.437.392,1.052.679,1.829s.642,1.751,1.025,2.862.817,2.37,1.178,3.771l.048-.1-2.489,1.149-.151.07.137.1,2.278,1.6.146-.031c0,.013-.071-.053-.067-.054,0-.018,0,0-.007,0a.074.074,0,0,1-.043.024l-.032.013h0v0l0,.016.005.085v.185l-.012.378q-.02.382-.04.77-.036.778-.073,1.576c-.048,1.064-.1,2.154-.149,3.263-.139,2.97-.312,5.8-.527,8.364s-.484,4.871-.757,6.8-.562,3.479-.758,4.551c-.1.522-.185.934-.243,1.231-.025.131-.043.237-.059.321a.423.423,0,0,0-.013.111" transform="translate(-57.806 -50.838)" fill="#263238"/>
            <path id="Trazado_639216" data-name="Trazado 639216" d="M89.236,130.674l-.671-8.624c-1.911,1.709-5.495,5-5.495,5l-15.3,5.608,5.437,54.95-7.891,18.523c4.709,2.354,11.72,5.4,16.744,6.616,2.384-11.553,2.73-11.286,5.987-29.047s1.187-53.03,1.187-53.03" transform="translate(-25.485 -47.62)" fill="#2b95f9"/>
            <g id="Grupo_882614" data-name="Grupo 882614" transform="translate(43.177 141.424)" opacity="0.3">
              <g id="Grupo_882613" data-name="Grupo 882613">
                <g id="Grupo_882612" data-name="Grupo 882612" clip-path="url(#clip-path-16)">
                  <path id="Trazado_639217" data-name="Trazado 639217" d="M109.955,236.342S111,237.7,108.7,238.116s-28.327-1.506-28.327-1.506L70.8,241.146l1.243-3.425,6.766-5.814Z" transform="translate(-70.803 -231.907)"/>
                </g>
              </g>
            </g>
            <path id="Trazado_639218" data-name="Trazado 639218" d="M64.969,139.451s-4.636,2.275-5.332,8.753c-.612,5.7-1.614,40.676-1.492,43.5S60.7,202.5,65.074,202.775c6.9.438,8.795-4.884,8.795-4.884l-1.853-17.867Z" transform="translate(-22.683 -54.41)" fill="#2b95f9"/>
            <path id="Trazado_639219" data-name="Trazado 639219" d="M96.2,167.93a.4.4,0,0,0-.012-.106c-.015-.08-.033-.181-.055-.3-.057-.284-.134-.673-.232-1.167-.186-1.016-.467-2.484-.725-4.312-.546-3.652-1.011-8.735-1.279-14.365-.062-1.326-.124-2.622-.183-3.876q-.042-.94-.083-1.848-.024-.452-.048-.9c-.005-.148-.011-.293-.016-.438V140.4c0-.035,0-.07.005-.1a.305.305,0,0,1,.005-.033s0,0-.007.011,0,0-.014.015a.083.083,0,0,1-.062.021c-.024.006-.063-.029-.057-.024l0-.006.141.03,2.278-1.605.13-.091-.144-.066-2.491-1.147.045.093a29.49,29.49,0,0,0,.507-3.033c.116-.9.229-1.668.352-2.295a13.955,13.955,0,0,1,.353-1.427l.119-.365a.563.563,0,0,0,.034-.127.556.556,0,0,0-.057.119c-.032.081-.086.2-.141.359a11.552,11.552,0,0,0-.4,1.423c-.138.626-.264,1.4-.392,2.3s-.264,1.916-.535,3.011l-.016.065.061.029,2.483,1.165-.014-.158-2.286,1.594.141.031-.021-.028a.127.127,0,0,0-.079-.039.121.121,0,0,0-.074.027.1.1,0,0,0-.021.025.125.125,0,0,0-.017.036.344.344,0,0,0-.015.074c0,.041-.005.079-.007.117v.223c0,.147.01.3.015.444q.022.444.045.9.038.906.078,1.847c.058,1.254.118,2.552.179,3.878a138.027,138.027,0,0,0,1.343,14.376c.278,1.828.582,3.294.792,4.306.115.49.206.878.271,1.159.03.122.055.22.076.3a.4.4,0,0,0,.033.1" transform="translate(-36.371 -50.822)" fill="#263238"/>
            <path id="Trazado_639220" data-name="Trazado 639220" d="M82.7,168.192l32.769,1.672a1.51,1.51,0,0,1,1.429,1.423l2.175,38.87a1.509,1.509,0,0,1-1.586,1.591l-31.8-1.662A1.509,1.509,0,0,1,84.27,208.7l-3.148-38.879a1.509,1.509,0,0,1,1.581-1.629" transform="translate(-31.649 -65.623)" fill="#263238"/>
            <path id="Trazado_639221" data-name="Trazado 639221" d="M72.438,154.225a2.2,2.2,0,0,0,.053.349q.07.369.191.992c.173.881.418,2.122.718,3.646.6,3.08,1.381,7.343,2.13,12.07s1.317,9.026,1.7,12.141c.185,1.542.335,2.8.442,3.689q.078.631.124,1a2.2,2.2,0,0,0,.057.348,2.187,2.187,0,0,0-.015-.352L77.75,187.1c-.076-.874-.2-2.138-.374-3.7-.343-3.12-.89-7.423-1.637-12.156s-1.556-8.993-2.192-12.066c-.318-1.537-.587-2.778-.784-3.634q-.145-.619-.231-.984a2.152,2.152,0,0,0-.095-.34" transform="translate(-28.263 -60.174)" fill="#263238"/>
            <path id="Trazado_639222" data-name="Trazado 639222" d="M77.505,208.03s-1.887.109-3.557,2.9l-3.193,2.032s-2.794,4.391,0,8.492,6.169.617,6.169.617,3.375,1.673,4.318,1.381a67.25,67.25,0,0,0,8.274-4.521c.277-.234,2.336-2.6,2.336-2.6s2.853-.612,3.18-1.265.35-2.151-1.573-2.006c0,0,1.872-.565,2.089-1.508s-.016-2.175-3.319-1.7-9.669,2.241-10.407,2.06a.461.461,0,0,1,.073-.834c.237-.111,7.723-3.021,8.93-3.352,1.3-.356,1.486-3.253-1.2-2.563s-11.431,2.794-11.431,2.794Z" transform="translate(-27.122 -80.007)" fill="#ffc09d"/>
            <path id="Trazado_639223" data-name="Trazado 639223" d="M90.712,226.384a11.252,11.252,0,0,0,1.387-.421c.85-.277,2.026-.654,3.336-1.035s2.5-.7,3.37-.919a11.167,11.167,0,0,0,1.4-.39,1.4,1.4,0,0,0-.388.042c-.248.041-.6.109-1.042.2-.876.186-2.081.479-3.395.861s-2.486.784-3.325,1.1c-.42.157-.757.291-.987.39a1.431,1.431,0,0,0-.351.173" transform="translate(-35.393 -87.247)" fill="#ff9b6c"/>
            <path id="Trazado_639224" data-name="Trazado 639224" d="M88.949,220.792a2.189,2.189,0,0,0,.49-.033c.314-.034.767-.095,1.325-.177,1.117-.166,2.653-.434,4.338-.793s3.2-.747,4.283-1.053c.543-.152.981-.283,1.281-.381a2.187,2.187,0,0,0,.461-.171,2.165,2.165,0,0,0-.483.091l-1.3.315c-1.095.268-2.608.629-4.29.99s-3.21.649-4.318.853l-1.312.244a2.193,2.193,0,0,0-.478.114" transform="translate(-34.705 -85.128)" fill="#ff9b6c"/>
            <path id="Trazado_639225" data-name="Trazado 639225" d="M74.045,221.237a1.083,1.083,0,0,0-.006.344,5.846,5.846,0,0,0,.124.928,8.278,8.278,0,0,0,3.333,5.057,5.889,5.889,0,0,0,.8.48,1.075,1.075,0,0,0,.318.13c.018-.034-.415-.259-1.034-.731a9.067,9.067,0,0,1-3.276-4.971c-.19-.754-.226-1.24-.264-1.237" transform="translate(-28.885 -86.32)" fill="#ff9b6c"/>
            <path id="Trazado_639226" data-name="Trazado 639226" d="M70.928,227.416c.03-.027-.41-.452-.9-1.285a7.368,7.368,0,0,1-.226-7.211c.443-.862.856-1.314.823-1.339a1.45,1.45,0,0,0-.3.306,6.186,6.186,0,0,0-.656.963,7.12,7.12,0,0,0,.229,7.359,6.24,6.24,0,0,0,.715.92,1.429,1.429,0,0,0,.318.287" transform="translate(-26.825 -84.894)" fill="#263238"/>
            <path id="Trazado_639227" data-name="Trazado 639227" d="M60.215,209.5c.025.035.535-.359,1.459-.809a10.6,10.6,0,0,1,1.681-.642,10.712,10.712,0,0,1,4.365-.326,10.585,10.585,0,0,1,1.758.386c.98.308,1.543.621,1.562.583a1.853,1.853,0,0,0-.385-.235,3.851,3.851,0,0,0-.477-.232,6.662,6.662,0,0,0-.653-.259,9.641,9.641,0,0,0-1.778-.437,10.211,10.211,0,0,0-4.447.332,9.62,9.62,0,0,0-1.693.7,6.526,6.526,0,0,0-.608.353,3.9,3.9,0,0,0-.437.3,1.855,1.855,0,0,0-.346.29" transform="translate(-23.494 -80.931)" fill="#263238"/>
            <g id="Grupo_882617" data-name="Grupo 882617" transform="translate(55.224 80.14)" opacity="0.3">
              <g id="Grupo_882616" data-name="Grupo 882616">
                <g id="Grupo_882615" data-name="Grupo 882615" clip-path="url(#clip-path-17)">
                  <path id="Trazado_639228" data-name="Trazado 639228" d="M93.472,131.413s-2.763,6.442-2.379,6.979a4.432,4.432,0,0,0,1.84.92s-2.379,1.028-2.378,1.942c0,1.818,2.552,12.587,2.552,12.587l-.629-13.151,2.282-1.6-2.487-1.156Z" transform="translate(-90.557 -131.413)"/>
                </g>
              </g>
            </g>
            <path id="Trazado_639229" data-name="Trazado 639229" d="M205.32,175.632s3.924-5.121,4.9-6.922a10.236,10.236,0,0,1,3.147-3.716c1.523-1.239,5.722-4.2,7.243-4.013a64.172,64.172,0,0,0,7.517-.529l-4.522,7.105s1.364,4.962.3,6.069-.914.853-2.43,1.347-7.223.826-7.306.988-3.321,5.229-3.321,5.229Z" transform="translate(-80.11 -62.604)" fill="#ffc09d"/>
            <path id="Trazado_639230" data-name="Trazado 639230" d="M236.517,160.231l15.351-8.507.458-.918a.232.232,0,0,0-.2-.335l-.986-.052-15.351,8.507Z" transform="translate(-92 -58.689)" fill="#263238"/>
            <path id="Trazado_639231" data-name="Trazado 639231" d="M244.741,157.981s-1.22-.471-2.18,1.171a31.088,31.088,0,0,0-1.516,2.911,11.175,11.175,0,0,1-1.131.246l-1.5,2.1.454,1.334s3.08-.565,3.663-1.459a33,33,0,0,0,2.4-5.508c.081-.655-.19-.8-.19-.8" transform="translate(-93.022 -61.615)" fill="#ffc09d"/>
            <path id="Trazado_639232" data-name="Trazado 639232" d="M228.342,171.845l.613-1.126-1.066-1.122s-2.137.835-2.96-.135-.592-1.067-.592-1.067l2.814-.988-1.74-.336s-2.307.929-2.836-.426l.087-.823a21.459,21.459,0,0,1,3.2-.806,40.071,40.071,0,0,1,4.24.218l-2.963-.768a4.831,4.831,0,0,1-1.885-.06.866.866,0,0,1-.1-1.612,7.755,7.755,0,0,1,2.314-.7c1.04-.069,4.522.379,5.41,1.124s1.025,1.1.773,2.025a13.565,13.565,0,0,1-1.239,2.514,4.137,4.137,0,0,1-.474,2.006,5.346,5.346,0,0,1-1.306,4.5" transform="translate(-86.842 -63.241)" fill="#ffc09d"/>
            <path id="Trazado_639233" data-name="Trazado 639233" d="M230.531,174.155a1.4,1.4,0,0,0,.215-.248,5.779,5.779,0,0,0,.527-.793,5.837,5.837,0,0,0,.581-1.418,4.545,4.545,0,0,0,.082-2.074l-.013.087a3.942,3.942,0,0,0,.509-2.067l-.018.067c.288-.467.573-.961.842-1.5a4.193,4.193,0,0,0,.546-1.829,1.47,1.47,0,0,0-.46-.953,3.228,3.228,0,0,0-.826-.662,8.451,8.451,0,0,0-2.064-.628,19,19,0,0,0-2.231-.3,5.207,5.207,0,0,0-1.191.018,6.919,6.919,0,0,0-1.167.315q-.285.1-.567.22a2.106,2.106,0,0,0-.581.309,1.053,1.053,0,0,0-.188,1.338,1,1,0,0,0,.584.438,3.341,3.341,0,0,0,.647.113,5.525,5.525,0,0,0,1.3-.053l-.076,0,1.207.313,1.755.455.062-.349c-1.329-.116-2.62-.231-3.9-.229a7.93,7.93,0,0,0-1.871.323c-.595.158-1.17.331-1.734.514l-.1.033-.011.107c-.029.279-.056.552-.084.824l0,.041.015.035a1.266,1.266,0,0,0,.628.668,1.9,1.9,0,0,0,.85.165,4.683,4.683,0,0,0,1.566-.326l-.085.009,1.741.327-.02-.275-2.1.751-.489.176-.12.043-.06.021-.029.011-.017.006a.148.148,0,0,0-.06.046c-.1.212-.007.273.013.367a4,4,0,0,0,.571.811,1.445,1.445,0,0,0,.822.473,2.9,2.9,0,0,0,.856.04,5.642,5.642,0,0,0,1.426-.345l-.088-.02,1.085,1.1-.008-.062-.44.863a1.281,1.281,0,0,0-.126.288,1.346,1.346,0,0,0,.174-.262l.486-.838.02-.033-.027-.03-1.046-1.14-.035-.038-.053.018a5.622,5.622,0,0,1-1.384.3,1.712,1.712,0,0,1-1.486-.465,3.887,3.887,0,0,1-.523-.761.513.513,0,0,1-.032-.095c-.009-.037.019-.023-.069-.061l-.009-.009-.005-.007c-.047-.072.063.093.046.08l-.014.007.013,0,.03-.01.06-.021.12-.041.491-.168,2.1-.724.5-.172-.519-.1-1.738-.344-.041-.009-.045.016a4.4,4.4,0,0,1-1.454.292,1.143,1.143,0,0,1-1.173-.637l.01.076c.029-.271.059-.544.089-.823l-.113.14c.556-.177,1.131-.347,1.717-.5a7.666,7.666,0,0,1,1.791-.3c1.243,0,2.544.119,3.861.236l.062-.349-1.755-.456-1.207-.313-.035-.009-.041.006a5.221,5.221,0,0,1-1.209.05,2.961,2.961,0,0,1-.579-.1.647.647,0,0,1-.384-.285.7.7,0,0,1,.123-.89,1.852,1.852,0,0,1,.482-.249c.182-.077.365-.149.548-.215a6.693,6.693,0,0,1,1.106-.3,4.909,4.909,0,0,1,1.113-.02,18.768,18.768,0,0,1,2.192.287,8.2,8.2,0,0,1,1.984.584,2.941,2.941,0,0,1,.75.594,1.177,1.177,0,0,1,.389.764,4.021,4.021,0,0,1-.5,1.7c-.256.529-.534,1.026-.809,1.487l-.018.031v.037a3.783,3.783,0,0,1-.438,1.945l-.024.04.011.048a4.463,4.463,0,0,1-.04,1.977,6.033,6.033,0,0,1-.522,1.4c-.38.728-.67,1.074-.644,1.093" transform="translate(-86.736 -63.132)" fill="#ff9b6c"/>
            <path id="Trazado_639234" data-name="Trazado 639234" d="M225.37,177.7a3.447,3.447,0,0,0-1.054-.734,10.814,10.814,0,0,0-6.017-1.246,3.439,3.439,0,0,0-1.259.256,15.517,15.517,0,0,1,8.331,1.724" transform="translate(-84.682 -68.544)" fill="#ff9b6c"/>
            <path id="Trazado_639235" data-name="Trazado 639235" d="M229.674,170.557c.023.059.349-.063.879-.112a3.163,3.163,0,0,1,1.947.532,9.882,9.882,0,0,1,1.6,1.387c.387.393.64.631.678.6s-.146-.323-.49-.764a6.779,6.779,0,0,0-1.594-1.521,3.014,3.014,0,0,0-2.17-.481,1.556,1.556,0,0,0-.846.361" transform="translate(-89.612 -66.388)" fill="#ff9b6c"/>
            <path id="Trazado_639236" data-name="Trazado 639236" d="M234.7,167.183a6.47,6.47,0,0,1,1.428.975c.674.681,1,1.419,1.1,1.379a2.441,2.441,0,0,0-.847-1.629,2.655,2.655,0,0,0-1.126-.7c-.334-.095-.551-.063-.555-.02" transform="translate(-91.573 -65.214)" fill="#ff9b6c"/>
            <path id="Trazado_639237" data-name="Trazado 639237" d="M169.169,137.611l2.817,4.678,9.863,28.119,9.241-9.54,9.56,9.54s-11.669,15.687-13.677,18.2c-3.208,4.016-12.149,3.752-15.368-3.382-2.762-6.122-4.893-10.268-4.893-10.268l.527-11.857Z" transform="translate(-65.046 -53.692)" fill="#2b95f9"/>
            <path id="Trazado_639238" data-name="Trazado 639238" d="M167.282,155.593a.669.669,0,0,1,.007.171c0,.131-.007.3-.012.5-.018.462-.045,1.1-.077,1.92-.082,1.691-.2,4.1-.343,7.058-.321,5.979-.763,14.2-1.251,23.28-.194,3.436-.381,6.75-.554,9.8l-.014-.074,7.094,15.034,2.027,4.36.529,1.17a2.887,2.887,0,0,1,.167.412,2.865,2.865,0,0,1-.214-.389l-.574-1.148-2.106-4.322-7.2-14.985-.016-.035,0-.039c.168-3.05.35-6.364.539-9.8.524-9.078,1-17.3,1.345-23.274.186-2.959.337-5.363.443-7.053.058-.814.1-1.455.137-1.917.018-.2.032-.368.044-.5a.687.687,0,0,1,.026-.169" transform="translate(-64.279 -60.708)" fill="#263238"/>
            <path id="Trazado_639239" data-name="Trazado 639239" d="M189.448,200.577a5.294,5.294,0,0,1-.031-1.36c.031-.839.121-2,.294-3.266s.4-2.408.593-3.225a5.278,5.278,0,0,1,.395-1.3c.091.021-.332,2.045-.673,4.569s-.485,4.586-.577,4.582" transform="translate(-73.899 -74.688)" fill="#263238"/>
            <path id="Trazado_639240" data-name="Trazado 639240" d="M139.934,66.768s3.766,14.08,4.09,24.043l.108,3.319s-8.31,6.9-15.279,7.325L123.011,87.09Z" transform="translate(-47.995 -26.051)" fill="#263238"/>
            <path id="Trazado_639241" data-name="Trazado 639241" d="M89.775,65.963c1.589-6.867,2.2-14.86,7.909-19.338,4.238-3.323,9.066-4.249,14.447-4.024a19.062,19.062,0,0,1,7.948,2.639c3.164,1.791,4.5,5.423,6.031,8.723,3.058,6.61,2.67,15.562.6,18.05L99.086,86.6c-5.516-2.87-8.971-4.014-9.853-11.367a26.931,26.931,0,0,1,.543-9.271" transform="translate(-34.745 -16.609)" fill="#263238"/>
            <path id="Trazado_639242" data-name="Trazado 639242" d="M101.876,54.843l17.384-5.129c5.6-.816,9.612,5.961,10.189,11.59.642,6.255,1.179,13.916.62,18.624-1.124,9.466-8.286,10.947-8.286,10.947,0-.032.05,3.8.05,3.8l-7.918,8.413L101.813,95,99.047,58.316a3.311,3.311,0,0,1,2.828-3.472" transform="translate(-38.643 -19.371)" fill="#ffc09d"/>
            <path id="Trazado_639243" data-name="Trazado 639243" d="M144.674,84.038a1.207,1.207,0,0,1-1.115,1.263,1.155,1.155,0,0,1-1.287-1.039A1.209,1.209,0,0,1,143.386,83a1.156,1.156,0,0,1,1.288,1.04" transform="translate(-55.509 -32.381)" fill="#263238"/>
            <path id="Trazado_639244" data-name="Trazado 639244" d="M143.965,77.311c-.143.163-1.084-.478-2.382-.423-1.3.035-2.224.741-2.372.588-.072-.068.07-.358.473-.676a3.317,3.317,0,0,1,1.89-.665,3.181,3.181,0,0,1,1.9.533c.412.291.558.57.487.643" transform="translate(-54.309 -29.705)" fill="#263238"/>
            <path id="Trazado_639245" data-name="Trazado 639245" d="M126.406,84.038a1.208,1.208,0,0,1-1.115,1.263A1.155,1.155,0,0,1,124,84.263,1.209,1.209,0,0,1,125.119,83a1.156,1.156,0,0,1,1.287,1.04" transform="translate(-48.381 -32.381)" fill="#263238"/>
            <path id="Trazado_639246" data-name="Trazado 639246" d="M123.024,77.563c-.144.163-1.086-.477-2.383-.423-1.3.036-2.224.742-2.371.588-.072-.068.068-.357.473-.676a3.307,3.307,0,0,1,1.89-.665,3.184,3.184,0,0,1,1.9.532c.41.291.557.57.487.643" transform="translate(-46.139 -29.803)" fill="#263238"/>
            <path id="Trazado_639247" data-name="Trazado 639247" d="M133.709,85.213a8.576,8.576,0,0,1,2.094-.463c.331-.048.642-.126.689-.354a1.687,1.687,0,0,0-.26-.974q-.515-1.186-1.08-2.486a43.4,43.4,0,0,1-2.461-6.517,43.553,43.553,0,0,1,2.98,6.3q.543,1.31,1.039,2.5a1.922,1.922,0,0,1,.223,1.294.835.835,0,0,1-.526.507,2.258,2.258,0,0,1-.56.1,8.452,8.452,0,0,1-2.137.087" transform="translate(-51.767 -29.036)" fill="#263238"/>
            <path id="Trazado_639248" data-name="Trazado 639248" d="M128.249,115.42a23.946,23.946,0,0,1-12.731-2.865s3.374,6.461,12.754,5.21Z" transform="translate(-45.072 -43.916)" fill="#ff9b6c"/>
            <path id="Trazado_639249" data-name="Trazado 639249" d="M127.326,96.258a1.883,1.883,0,0,1,1.531-.914,2.448,2.448,0,0,1,2.274,1.017,1.521,1.521,0,0,1,.142,1.095c-.074.19-.015.1-.154.229a4.28,4.28,0,0,1-1.708,1.155,1.839,1.839,0,0,1-1.969-.638,1.878,1.878,0,0,1-.116-1.944" transform="translate(-49.594 -37.197)" fill="#ff9b6c"/>
            <path id="Trazado_639250" data-name="Trazado 639250" d="M127.665,93.93c.21-.021.276,1.387,1.528,2.333s2.744.723,2.763.92c.024.087-.322.289-.955.334a3.51,3.51,0,0,1-2.3-.687,3.06,3.06,0,0,1-1.19-1.96c-.08-.587.061-.943.158-.939" transform="translate(-49.74 -36.649)" fill="#263238"/>
            <path id="Trazado_639251" data-name="Trazado 639251" d="M123.141,70.042c-.093.364-1.4.323-2.9.653-1.506.3-2.686.864-2.919.568-.1-.142.077-.494.538-.882a5.169,5.169,0,0,1,4.433-.93c.579.17.885.42.847.592" transform="translate(-45.765 -27.035)" fill="#263238"/>
            <path id="Trazado_639252" data-name="Trazado 639252" d="M143.733,71.224c-.295.256-1.24-.191-2.428-.377-1.182-.224-2.226-.122-2.414-.46-.08-.163.121-.433.6-.646a3.706,3.706,0,0,1,2.047-.193,3.656,3.656,0,0,1,1.854.868c.377.361.472.681.34.808" transform="translate(-54.184 -27.112)" fill="#263238"/>
            <path id="Trazado_639253" data-name="Trazado 639253" d="M132.3,48.094c.016.068.029.137.044.2l-.033.014c0-.073-.008-.146-.012-.218" transform="translate(-51.618 -18.765)" fill="#263238"/>
            <path id="Trazado_639254" data-name="Trazado 639254" d="M99.6,92.925a1.574,1.574,0,0,0,1.973-1.244,19.374,19.374,0,0,0,.048-5.724c-.3-2.612-2.077-5.347-2.3-7.967a47.425,47.425,0,0,1,.579-12,9.973,9.973,0,0,0,6.119-3.532,27.639,27.639,0,0,0,4.139-7.6,12.732,12.732,0,0,1-2.56,7.312,3.429,3.429,0,0,0,2.932-.953,7.655,7.655,0,0,0,1.721-2.673,20.87,20.87,0,0,0,1.667-7.527A27.04,27.04,0,0,1,112.689,62a4.714,4.714,0,0,1,2.047.077,2.242,2.242,0,0,0,1.946-.413,2.452,2.452,0,0,0,.533-1.254,28.188,28.188,0,0,0,.312-9.576,29.21,29.21,0,0,1,2.158,5.306,10.284,10.284,0,0,1,.04,5.662.83.83,0,0,0,1.168-.007,1.983,1.983,0,0,0,.512-1.182,14.571,14.571,0,0,0-.31-4.766,24.157,24.157,0,0,1,1.773,5.445,8.131,8.131,0,0,0,2.95,4.782,25.092,25.092,0,0,0-.235-7.221,21.83,21.83,0,0,0-2.116-5.73,17.039,17.039,0,0,0-3.815-5.31c-2.773-2.428-3.931-1.382-5.7-.457l-.209.088c-.006-.043-.009-.087-.015-.131l-.08-.377a26.561,26.561,0,0,0-13.985.654c-3.337,1.088-3.644,8.273-4.458,4.859-.492-2.065-3.171-.18-3.2-.121-3.935,7.1-8.108,18.361-8.3,36.157Z" transform="translate(-32.658 -18.064)" fill="#263238"/>
            <path id="Trazado_639255" data-name="Trazado 639255" d="M109.235,94a10.278,10.278,0,0,0,8.635,5.216.381.381,0,0,0,0-.762,9.5,9.5,0,0,1-7.977-4.839c-.238-.429-.9-.045-.658.385" transform="translate(-42.6 -36.452)" fill="#e0e0e0"/>
            <path id="Trazado_639256" data-name="Trazado 639256" d="M123.195,103.215l-1.679-.263a1.5,1.5,0,1,1,.466-2.973l1.679.263a1.5,1.5,0,0,1-.466,2.974" transform="translate(-46.915 -39.001)" fill="#afafaf"/>
            <path id="Trazado_639257" data-name="Trazado 639257" d="M106.1,85.753a6.913,6.913,0,1,1-6.913-6.913,6.913,6.913,0,0,1,6.913,6.913" transform="translate(-36.004 -30.761)" fill="#d2e1f1"/>
            <path id="Trazado_639258" data-name="Trazado 639258" d="M100.446,65.674s-1.222-16.5,10.26-22.768l3.106-.337s-11.853,6.658-9.376,24.652Z" transform="translate(-39.176 -16.609)" fill="#d2e1f1"/>
          </g>
        </g>
        <g id="Grupo_882621" data-name="Grupo 882621">
          <g id="Grupo_882620" data-name="Grupo 882620" clip-path="url(#clip-path)">
            <path id="Trazado_639259" data-name="Trazado 639259" d="M187.185,70.7l4.958-2.484a21.147,21.147,0,1,0-6.9-3.12l-.012,0Z" transform="translate(-68.717 -10.38)" fill="#fff"/>
            <path id="Trazado_639260" data-name="Trazado 639260" d="M187.062,70.544a2.812,2.812,0,0,1-.138-.341l-.394-1.056-1.521-4.179a.1.1,0,0,1,.06-.129.1.1,0,0,1,.07,0l.011,0-.091.179a21.02,21.02,0,0,1-6.815-7.62,21.744,21.744,0,0,1-2.157-6.411,21.27,21.27,0,0,1,.151-7.688,21.719,21.719,0,0,1,3.337-7.815,20.843,20.843,0,0,1,6.694-6.3,21.8,21.8,0,0,1,9.332-2.915,21.4,21.4,0,0,1,18.278,8.092,21.749,21.749,0,0,1,4.141,8.964,20.794,20.794,0,0,1-.226,9.272,21.748,21.748,0,0,1-3.657,7.745,21.339,21.339,0,0,1-5.689,5.245l-1.568.882c-.52.276-1.065.482-1.581.719a19.126,19.126,0,0,1-3.112,1.025A21,21,0,0,1,192,68.155l.068-.007-3.732,1.806-.954.452a2.473,2.473,0,0,1-.316.138,3.607,3.607,0,0,1,.333-.187l.954-.5,3.626-1.881a.1.1,0,0,1,.068-.007,21.083,21.083,0,0,0,10.068-.051,18.981,18.981,0,0,0,3.055-1.035c.506-.238,1.04-.443,1.549-.718l1.535-.877a21.04,21.04,0,0,0,5.554-5.179,21.407,21.407,0,0,0,3.553-7.606,20.387,20.387,0,0,0,.195-9.07,21.309,21.309,0,0,0-4.061-8.754,20.951,20.951,0,0,0-17.856-7.906,21.366,21.366,0,0,0-9.125,2.834,20.433,20.433,0,0,0-6.565,6.14,21.372,21.372,0,0,0-3.3,7.645,20.977,20.977,0,0,0-.19,7.544,21.562,21.562,0,0,0,2.075,6.321,21.08,21.08,0,0,0,6.643,7.6.1.1,0,0,1,.027.14.1.1,0,0,1-.118.038l-.011,0,.129-.129c.6,1.793,1.064,3.186,1.389,4.159l.358,1.095a3.782,3.782,0,0,1,.116.389" transform="translate(-68.595 -10.227)" fill="#263238"/>
            <path id="Trazado_639261" data-name="Trazado 639261" d="M200.6,61.279a2.309,2.309,0,1,1-2.309-2.309,2.309,2.309,0,0,1,2.309,2.309" transform="translate(-76.467 -23.008)" fill="#263238"/>
            <path id="Trazado_639262" data-name="Trazado 639262" d="M213.358,61.279a2.309,2.309,0,1,1-2.309-2.309,2.309,2.309,0,0,1,2.309,2.309" transform="translate(-81.444 -23.008)" fill="#263238"/>
            <path id="Trazado_639263" data-name="Trazado 639263" d="M225.776,61.279a2.309,2.309,0,1,1-2.309-2.309,2.309,2.309,0,0,1,2.309,2.309" transform="translate(-86.289 -23.008)" fill="#263238"/>
          </g>
        </g>
      </g>
    </g>
    <rect id="Rectángulo_349413" data-name="Rectángulo 349413" width="505" height="253" transform="translate(810 7510)" fill="none"/>
  </g>
</svg>
