<svg id="Grupo_882555" data-name="Grupo 882555" xmlns="http://www.w3.org/2000/svg" xmlns:xlink="http://www.w3.org/1999/xlink" width="335.029" height="210.181" viewBox="0 0 335.029 210.181">
  <defs>
    <clipPath id="clip-path">
      <rect id="Rectángulo_330592" data-name="Rectángulo 330592" width="335.029" height="210.181" fill="none"/>
    </clipPath>
    <clipPath id="clip-path-7">
      <rect id="Rectángulo_330575" data-name="Rectángulo 330575" width="25.602" height="24.036" fill="none"/>
    </clipPath>
    <clipPath id="clip-path-9">
      <rect id="Rectángulo_330578" data-name="Rectángulo 330578" width="59.449" height="21.3" fill="none"/>
    </clipPath>
    <clipPath id="clip-path-10">
      <rect id="Rectángulo_330579" data-name="Rectángulo 330579" width="18.265" height="18.265" fill="#f9d9a2"/>
    </clipPath>
    <clipPath id="clip-path-11">
      <rect id="Rectángulo_330586" data-name="Rectángulo 330586" width="47.933" height="35.826" fill="none"/>
    </clipPath>
    <clipPath id="clip-path-12">
      <rect id="Rectángulo_330587" data-name="Rectángulo 330587" width="11.004" height="11.004" fill="none"/>
    </clipPath>
    <clipPath id="clip-path-13">
      <rect id="Rectángulo_330588" data-name="Rectángulo 330588" width="11.003" height="11.004" fill="none"/>
    </clipPath>
    <clipPath id="clip-path-15">
      <rect id="Rectángulo_330590" data-name="Rectángulo 330590" width="28.5" height="29.079" fill="none"/>
    </clipPath>
  </defs>
  <g id="Grupo_882554" data-name="Grupo 882554" clip-path="url(#clip-path)">
    <g id="Grupo_882520" data-name="Grupo 882520">
      <g id="Grupo_882519" data-name="Grupo 882519" clip-path="url(#clip-path)">
        <path id="Trazado_638690" data-name="Trazado 638690" d="M580.45,115.377a13.835,13.835,0,0,1,3.37-1.465l.695-3.336,5.636-.1.811,3.309a13.825,13.825,0,0,1,3.42,1.345l2.848-1.867,4.056,3.916-1.765,2.911a13.8,13.8,0,0,1,1.464,3.371l3.336.694.1,5.636-3.309.811a13.824,13.824,0,0,1-1.346,3.42l1.867,2.849-3.915,4.056-2.912-1.766a13.811,13.811,0,0,1-3.371,1.464l-.695,3.336-5.636.1-.811-3.309a13.833,13.833,0,0,1-3.42-1.345l-2.848,1.867-4.056-3.916,1.766-2.912a13.8,13.8,0,0,1-1.465-3.371l-3.336-.694-.1-5.637,3.309-.811a13.82,13.82,0,0,1,1.345-3.419l-1.867-2.849,3.915-4.056Zm3,7.508a6.047,6.047,0,1,0,8.55-.151,6.047,6.047,0,0,0-8.55.151" transform="translate(-291.846 -56.483)" fill="#e0e0e0"/>
        <path id="Trazado_638691" data-name="Trazado 638691" d="M341.267,73.7a12.077,12.077,0,0,1,2.938-1.277l.606-2.908,4.914-.086.707,2.885a12.067,12.067,0,0,1,2.982,1.173l2.483-1.628,3.536,3.414-1.54,2.539a12.036,12.036,0,0,1,1.277,2.939l2.908.606.086,4.914-2.885.708a12.052,12.052,0,0,1-1.173,2.981l1.628,2.484-3.413,3.536-2.539-1.54a12.015,12.015,0,0,1-2.939,1.277l-.605,2.909-4.914.086-.707-2.886a12.048,12.048,0,0,1-2.982-1.173l-2.483,1.628-3.536-3.414,1.54-2.539a12.025,12.025,0,0,1-1.277-2.939l-2.908-.606-.087-4.914,2.886-.708a12.036,12.036,0,0,1,1.173-2.981L335.313,75.7l3.414-3.536Zm2.62,6.547a5.272,5.272,0,1,0,7.455-.131,5.273,5.273,0,0,0-7.455.131" transform="translate(-170.19 -35.496)" fill="#ebebeb"/>
        <path id="Trazado_638692" data-name="Trazado 638692" d="M130.587,220.344a15.113,15.113,0,0,1,3.687-1.6l.759-3.649,6.166-.108.887,3.62a15.1,15.1,0,0,1,3.741,1.472l3.116-2.042,4.436,4.283-1.931,3.186a15.107,15.107,0,0,1,1.6,3.688l3.649.759.108,6.166-3.62.888a15.127,15.127,0,0,1-1.472,3.74l2.042,3.117-4.283,4.436-3.186-1.932a15.125,15.125,0,0,1-3.688,1.6l-.76,3.649-6.165.109-.888-3.621a15.12,15.12,0,0,1-3.741-1.472l-3.116,2.042L123.5,244.39l1.931-3.186a15.1,15.1,0,0,1-1.6-3.687l-3.649-.759-.108-6.165,3.62-.888a15.139,15.139,0,0,1,1.472-3.741l-2.042-3.116,4.283-4.436Zm3.287,8.214a6.615,6.615,0,1,0,9.353-.165,6.615,6.615,0,0,0-9.353.165" transform="translate(-61.386 -109.913)" fill="#e0e0e0"/>
        <path id="Trazado_638693" data-name="Trazado 638693" d="M591.468,339.753a15.119,15.119,0,0,1,3.687-1.6l.76-3.649,6.166-.108.887,3.62a15.094,15.094,0,0,1,3.741,1.472l3.116-2.042,4.436,4.283-1.932,3.186a15.1,15.1,0,0,1,1.6,3.688l3.649.76.108,6.165-3.62.888a15.111,15.111,0,0,1-1.472,3.74l2.042,3.117-4.283,4.436-3.186-1.931a15.124,15.124,0,0,1-3.688,1.6l-.759,3.649-6.165.108-.888-3.621a15.1,15.1,0,0,1-3.741-1.472l-3.116,2.042-4.436-4.283,1.932-3.185a15.1,15.1,0,0,1-1.6-3.688l-3.649-.759L580.949,350l3.62-.888a15.136,15.136,0,0,1,1.472-3.741L584,342.257l4.283-4.436Zm3.287,8.214a6.615,6.615,0,1,0,9.354-.165,6.615,6.615,0,0,0-9.354.165" transform="translate(-297.017 -170.962)" fill="#e0e0e0"/>
        <path id="Trazado_638694" data-name="Trazado 638694" d="M628.662,282.933a8.424,8.424,0,0,1,2.057-.893l.423-2.036,3.44-.061.495,2.02a8.431,8.431,0,0,1,2.087.821l1.738-1.139,2.475,2.389L640.3,285.81a8.409,8.409,0,0,1,.893,2.057l2.036.423.061,3.439-2.019.5a8.414,8.414,0,0,1-.821,2.087l1.139,1.738-2.389,2.475-1.777-1.077a8.435,8.435,0,0,1-2.057.893l-.424,2.036-3.439.061-.495-2.02a8.431,8.431,0,0,1-2.087-.821l-1.738,1.139-2.475-2.389,1.077-1.777a8.436,8.436,0,0,1-.894-2.057l-2.035-.424-.061-3.439,2.019-.5a8.418,8.418,0,0,1,.821-2.086L624.5,284.33l2.389-2.475Zm1.833,4.582a3.69,3.69,0,1,0,5.218-.092,3.69,3.69,0,0,0-5.218.092" transform="translate(-318.411 -143.124)" fill="#f5f5f5"/>
        <path id="Trazado_638695" data-name="Trazado 638695" d="M522.28,271.922a8.4,8.4,0,0,1,2.057-.894l.423-2.036,3.44-.061.495,2.019a8.413,8.413,0,0,1,2.087.821l1.739-1.14,2.474,2.389-1.077,1.777a8.416,8.416,0,0,1,.893,2.057l2.036.424.061,3.439-2.019.5a8.418,8.418,0,0,1-.821,2.086l1.139,1.738-2.389,2.475-1.777-1.077a8.432,8.432,0,0,1-2.057.893l-.424,2.036-3.439.061-.495-2.02a8.432,8.432,0,0,1-2.087-.821l-1.738,1.139-2.474-2.389,1.077-1.777a8.426,8.426,0,0,1-.894-2.057l-2.035-.424-.061-3.439,2.019-.5a8.416,8.416,0,0,1,.821-2.086l-1.139-1.738,2.389-2.474Zm1.833,4.581a3.69,3.69,0,1,0,5.218-.092,3.69,3.69,0,0,0-5.218.092" transform="translate(-264.022 -137.495)" fill="#f5f5f5"/>
        <path id="Trazado_638696" data-name="Trazado 638696" d="M501.147,82.407a6.944,6.944,0,0,1,1.7-.738l.349-1.68,2.839-.05.409,1.667a6.951,6.951,0,0,1,1.722.677l1.434-.94,2.043,1.972-.889,1.467a6.95,6.95,0,0,1,.738,1.7l1.68.349.051,2.839-1.668.409a6.935,6.935,0,0,1-.678,1.722l.94,1.435-1.972,2.043-1.467-.89a6.929,6.929,0,0,1-1.7.738l-.349,1.68-2.84.05-.409-1.667a6.966,6.966,0,0,1-1.722-.678l-1.435.94-2.042-1.972.89-1.467a6.967,6.967,0,0,1-.739-1.7l-1.68-.35-.05-2.839,1.667-.409A6.934,6.934,0,0,1,498.647,85l-.94-1.435,1.972-2.042Zm1.513,3.782a3.046,3.046,0,1,0,4.306-.076,3.044,3.044,0,0,0-4.306.076" transform="translate(-253.741 -40.87)" fill="#ebebeb"/>
        <path id="Trazado_638697" data-name="Trazado 638697" d="M320.42,32.8a6.955,6.955,0,0,1,1.7-.738l.349-1.68,2.839-.05L325.715,32a6.973,6.973,0,0,1,1.723.677l1.434-.94,2.043,1.973-.889,1.467a6.959,6.959,0,0,1,.738,1.7l1.68.349.05,2.839-1.667.409a6.953,6.953,0,0,1-.678,1.722l.94,1.435-1.972,2.043-1.467-.89a6.937,6.937,0,0,1-1.7.738L325.6,47.2l-2.839.049-.409-1.667a6.952,6.952,0,0,1-1.722-.678l-1.435.94-2.043-1.972.889-1.467a6.968,6.968,0,0,1-.738-1.7l-1.68-.349-.049-2.839,1.667-.409a6.959,6.959,0,0,1,.678-1.722l-.94-1.434,1.972-2.043Zm1.513,3.782a3.046,3.046,0,1,0,4.307-.076,3.046,3.046,0,0,0-4.307.076" transform="translate(-161.343 -15.509)" fill="#f5f5f5"/>
        <path id="Trazado_638698" data-name="Trazado 638698" d="M340.617,161.752a6.954,6.954,0,0,1,1.7-.738l.349-1.68,2.839-.05.409,1.667a6.973,6.973,0,0,1,1.723.677l1.434-.94,2.043,1.973-.889,1.467a6.958,6.958,0,0,1,.738,1.7l1.68.349.05,2.839-1.667.409a6.953,6.953,0,0,1-.678,1.722l.94,1.435-1.972,2.043-1.467-.889a6.938,6.938,0,0,1-1.7.737l-.349,1.68-2.839.05-.409-1.667a6.952,6.952,0,0,1-1.722-.678l-1.435.94-2.043-1.972.89-1.467a6.964,6.964,0,0,1-.738-1.7l-1.68-.35-.049-2.839,1.667-.409a6.957,6.957,0,0,1,.678-1.723l-.94-1.434,1.972-2.043Zm1.513,3.782a3.046,3.046,0,1,0,4.307-.076,3.046,3.046,0,0,0-4.307.076" transform="translate(-171.668 -81.436)" fill="#f5f5f5"/>
        <path id="Trazado_638699" data-name="Trazado 638699" d="M108.6,107.4a6.046,6.046,0,0,1,1.475-.641l.3-1.459,2.466-.043.355,1.448a6.042,6.042,0,0,1,1.5.588l1.246-.817,1.774,1.713-.772,1.274a6.063,6.063,0,0,1,.641,1.475l1.459.3.043,2.466-1.448.355a6.066,6.066,0,0,1-.588,1.5l.817,1.246-1.713,1.774-1.274-.772a6.063,6.063,0,0,1-1.475.641l-.3,1.459-2.466.043-.355-1.448a6.043,6.043,0,0,1-1.5-.589l-1.246.817-1.774-1.713.773-1.274a6.046,6.046,0,0,1-.641-1.475l-1.459-.3-.043-2.466,1.448-.355a6.048,6.048,0,0,1,.589-1.5l-.817-1.246,1.713-1.774Zm1.315,3.285a2.646,2.646,0,1,0,3.741-.066,2.645,2.645,0,0,0-3.741.066" transform="translate(-53.37 -53.815)" fill="#ebebeb"/>
        <path id="Trazado_638700" data-name="Trazado 638700" d="M48.457,111.081A12.471,12.471,0,0,1,51.5,109.76l.626-3.009,5.083-.089.732,2.985a12.467,12.467,0,0,1,3.084,1.213l2.569-1.684,3.658,3.532-1.592,2.626a12.44,12.44,0,0,1,1.321,3.04l3.008.626.089,5.083-2.985.732a12.463,12.463,0,0,1-1.213,3.084l1.684,2.569-3.531,3.658L61.4,132.534a12.457,12.457,0,0,1-3.04,1.321l-.626,3.009-5.083.089-.732-2.985a12.483,12.483,0,0,1-3.084-1.214l-2.569,1.684-3.658-3.532L44.2,128.28a12.457,12.457,0,0,1-1.322-3.04l-3.008-.626-.089-5.083,2.985-.732a12.468,12.468,0,0,1,1.214-3.084L42.3,113.146l3.531-3.658Zm2.71,6.772a5.454,5.454,0,1,0,7.712-.135,5.454,5.454,0,0,0-7.712.135" transform="translate(-20.34 -54.532)" fill="#e0e0e0"/>
      </g>
    </g>
    <g id="Grupo_882522" data-name="Grupo 882522">
      <g id="Grupo_882521" data-name="Grupo 882521" clip-path="url(#clip-path)">
        <path id="Trazado_638701" data-name="Trazado 638701" d="M335.029,429.262c0,.07-75,.127-167.507.127C74.989,429.389,0,429.332,0,429.262s74.989-.127,167.522-.127c92.5,0,167.507.057,167.507.127" transform="translate(0 -219.4)" fill="#263238"/>
      </g>
    </g>
    <g id="Grupo_882524" data-name="Grupo 882524">
      <g id="Grupo_882523" data-name="Grupo 882523" clip-path="url(#clip-path)">
        <path id="Trazado_638702" data-name="Trazado 638702" d="M506.921,32.775l5.771-.759a18.588,18.588,0,1,0-3.827-5.451l-.006-.008Z" transform="translate(-259.169 -0.118)" fill="#fff"/>
        <path id="Trazado_638703" data-name="Trazado 638703" d="M506.921,32.658s.05-.142.137-.411l.385-1.192,1.471-4.6-.1.02.006.008a.058.058,0,0,0,.082.008.06.06,0,0,0,.016-.069,18.556,18.556,0,0,1-1.632-9,18.172,18.172,0,0,1,.42-2.831,20.916,20.916,0,0,1,.944-2.91,18.431,18.431,0,0,1,35.286,4.331,18.769,18.769,0,0,1-.73,8.451,18.161,18.161,0,0,1-4.1,6.857A18.506,18.506,0,0,1,526.5,37.1l-.792.022a4.973,4.973,0,0,1-.778-.014L523.419,37a25.746,25.746,0,0,1-2.821-.576,18.5,18.5,0,0,1-7.867-4.563.055.055,0,0,0-.046-.016l-4.27.6-1.11.158c-.251.036-.384.059-.384.059s.118-.01.363-.039l1.1-.132,4.318-.533-.046-.016a18.486,18.486,0,0,0,7.9,4.649,25.61,25.61,0,0,0,2.845.595l1.531.119a5.079,5.079,0,0,0,.786.017l.8-.019a18.682,18.682,0,0,0,12.767-5.811,18.376,18.376,0,0,0,4.164-6.942,19,19,0,0,0,.749-8.567,18.566,18.566,0,0,0-3.409-8.332,8.313,8.313,0,0,0-.7-.889l-.73-.858-.8-.782a7.613,7.613,0,0,0-.829-.745l-.867-.694c-.282-.239-.61-.413-.912-.622s-.608-.412-.928-.588l-.971-.5A18.406,18.406,0,0,0,525.848,0a18.733,18.733,0,0,0-13.774,5.948,18.547,18.547,0,0,0-3.608,5.662,20.956,20.956,0,0,0-.942,2.945,18.29,18.29,0,0,0-.412,2.861,18.558,18.558,0,0,0,1.7,9.056l.1-.061L508.9,26.4a.057.057,0,0,0-.081-.008.059.059,0,0,0-.019.028l-1.415,4.659-.355,1.183c-.079.264-.113.392-.113.392" transform="translate(-259.169 0)" fill="#263238"/>
        <path id="Trazado_638704" data-name="Trazado 638704" d="M530.648,24.862h14.48l.023,4.85h-.693a4.405,4.405,0,0,0-1.95-3.521,6.005,6.005,0,0,0-2.7-.553V38.306a2.446,2.446,0,0,0,.464,1.763,2.977,2.977,0,0,0,1.931.435v.61H533.63V40.5a2.827,2.827,0,0,0,1.873-.441,2.451,2.451,0,0,0,.464-1.757V25.637a6.158,6.158,0,0,0-2.7.553,4.081,4.081,0,0,0-1.95,3.521h-.693Z" transform="translate(-271.288 -12.711)" fill="#263238"/>
      </g>
    </g>
    <g id="Grupo_882526" data-name="Grupo 882526">
      <g id="Grupo_882525" data-name="Grupo 882525" clip-path="url(#clip-path)">
        <path id="Trazado_638705" data-name="Trazado 638705" d="M144.76,48.65l-6.1.308a19.494,19.494,0,1,1,2.916-6.344l.006-.01Z" transform="translate(-52.801 -9.365)" fill="#fff"/>
        <path id="Trazado_638706" data-name="Trazado 638706" d="M144.629,48.538s-.078-.137-.219-.4l-.622-1.156L141.4,42.52h.107l-.005.009a.061.061,0,0,1-.083.024.062.062,0,0,1-.029-.068,19.454,19.454,0,0,0-.015-9.586,18.986,18.986,0,0,0-.969-2.84,21.86,21.86,0,0,0-1.523-2.823,19.323,19.323,0,0,0-35.571,11.13,19.675,19.675,0,0,0,2.349,8.578,19.037,19.037,0,0,0,5.522,6.3,19.4,19.4,0,0,0,14.088,3.578l.821-.128a5.188,5.188,0,0,0,.8-.161l1.542-.4a26.835,26.835,0,0,0,2.8-1.128,19.391,19.391,0,0,0,7.251-6.191.058.058,0,0,1,.044-.024l4.516-.192,1.175-.046c.265-.01.407-.012.407-.012s-.124.012-.382.028l-1.157.071-4.554.266.044-.024a19.38,19.38,0,0,1-7.265,6.286,26.947,26.947,0,0,1-2.822,1.151l-1.556.412a5.3,5.3,0,0,1-.808.166l-.828.132a19.583,19.583,0,0,1-14.263-3.582,19.259,19.259,0,0,1-5.605-6.373,19.913,19.913,0,0,1-2.39-8.694,19.463,19.463,0,0,1,1.942-9.237,8.7,8.7,0,0,1,.552-1.048l.59-1.023.681-.959a8.111,8.111,0,0,1,.715-.925l.763-.879c.246-.3.552-.542.824-.814s.549-.54.846-.781l.906-.7a19.3,19.3,0,0,1,8.082-3.574,19.645,19.645,0,0,1,15.328,3.534,19.455,19.455,0,0,1,4.79,5.157,21.98,21.98,0,0,1,1.528,2.859,19.2,19.2,0,0,1,.965,2.872,19.463,19.463,0,0,1-.045,9.661l-.112-.045.005-.009a.06.06,0,0,1,.082-.024.062.062,0,0,1,.025.025L143.849,47l.59,1.153c.131.258.191.384.191.384" transform="translate(-52.671 -9.253)" fill="#263238"/>
        <path id="Trazado_638707" data-name="Trazado 638707" d="M143.166,48.587a5.593,5.593,0,0,0-1.459-3.024,5.369,5.369,0,0,0-2.814-1.7,4.336,4.336,0,0,0-4.754,2.269,4.331,4.331,0,0,0-4.695-2.023,5.368,5.368,0,0,0-2.785,1.746,5.588,5.588,0,0,0-1.41,3.047,6.8,6.8,0,0,0,.88,4.178,9.634,9.634,0,0,0,3.342,3.08c2.177,1.287,5.042,2.9,5.042,2.9s2.4-1.823,4.552-3.145a9.627,9.627,0,0,0,3.29-3.133,6.8,6.8,0,0,0,.811-4.192" transform="translate(-64.015 -22.38)" fill="#fd4c1b"/>
      </g>
    </g>
    <g id="Grupo_882531" data-name="Grupo 882531">
      <g id="Grupo_882530" data-name="Grupo 882530" clip-path="url(#clip-path)">
        <path id="Trazado_638708" data-name="Trazado 638708" d="M407.9,24.386a4.25,4.25,0,0,1-4.56-3.081,4.25,4.25,0,0,1,2.607-4.847,4.386,4.386,0,0,1-.871-4.92,4.386,4.386,0,0,1,4.4-2.376,5.109,5.109,0,0,1,7.587-4.394,5.744,5.744,0,0,1,7.067-.334,4.2,4.2,0,0,1,4.423,2.012,4.2,4.2,0,0,1-.629,4.818" transform="translate(-206.158 -1.726)" fill="#263238"/>
        <path id="Trazado_638709" data-name="Trazado 638709" d="M428.68,13.772l-.9.025a17.41,17.41,0,0,0-16.9,16.5c-.44,8.428-.819,17.744-.635,22.254.38,9.337,9.763,10.525,9.763,10.525l-.472,11.244,20.738-.181,2.765-41.918c.562-9.722-4.627-18.152-14.361-18.445" transform="translate(-209.72 -7.041)" fill="#ae7461"/>
        <path id="Trazado_638710" data-name="Trazado 638710" d="M430.1,110.511a22.664,22.664,0,0,0,12.137-3.928s-2.811,6.785-12.155,6.208Z" transform="translate(-219.883 -54.492)" fill="#6f4439"/>
        <path id="Trazado_638711" data-name="Trazado 638711" d="M419.167,66.458a1.334,1.334,0,0,0,1.324,1.309,1.276,1.276,0,0,0,1.341-1.241,1.335,1.335,0,0,0-1.323-1.31,1.277,1.277,0,0,0-1.342,1.242" transform="translate(-214.304 -33.342)" fill="#263238"/>
        <path id="Trazado_638712" data-name="Trazado 638712" d="M415.946,55.264c.17.17,1.159-.607,2.595-.644,1.433-.057,2.508.651,2.658.472.075-.08-.1-.39-.571-.711a3.663,3.663,0,0,0-2.134-.592,3.516,3.516,0,0,0-2.06.73c-.432.351-.572.67-.488.745" transform="translate(-212.646 -27.499)" fill="#263238"/>
        <path id="Trazado_638713" data-name="Trazado 638713" d="M444.911,65.743a1.334,1.334,0,0,0,1.324,1.309,1.276,1.276,0,0,0,1.341-1.241,1.335,1.335,0,0,0-1.323-1.31,1.277,1.277,0,0,0-1.342,1.242" transform="translate(-227.466 -32.976)" fill="#263238"/>
        <path id="Trazado_638714" data-name="Trazado 638714" d="M444.829,54.995c.171.169,1.161-.607,2.6-.644,1.433-.057,2.507.651,2.658.471.074-.08-.1-.39-.571-.71a3.656,3.656,0,0,0-2.134-.592,3.513,3.513,0,0,0-2.06.73c-.43.351-.572.67-.489.745" transform="translate(-227.413 -27.362)" fill="#263238"/>
        <path id="Trazado_638715" data-name="Trazado 638715" d="M430.954,66.091a9.461,9.461,0,0,0-2.343-.355c-.367-.027-.716-.09-.785-.339a1.871,1.871,0,0,1,.214-1.094q.479-1.345,1-2.821c1.393-4.016,2.39-7.314,2.228-7.369s-1.423,3.157-2.816,7.173q-.5,1.485-.959,2.837a2.125,2.125,0,0,0-.15,1.444.921.921,0,0,0,.618.519,2.472,2.472,0,0,0,.625.068,9.4,9.4,0,0,0,2.363-.063" transform="translate(-218.446 -27.666)" fill="#263238"/>
        <path id="Trazado_638716" data-name="Trazado 638716" d="M441.965,43.613c.2.359,1.418-.071,2.932-.162,1.511-.127,2.8.123,2.923-.259.055-.182-.224-.5-.778-.777A4.548,4.548,0,0,0,444.756,42a4.389,4.389,0,0,0-2.174.735c-.493.351-.706.706-.617.877" transform="translate(-225.95 -21.468)" fill="#263238"/>
        <path id="Trazado_638717" data-name="Trazado 638717" d="M415.434,43.057c.311.318,1.487-.055,2.911-.111,1.422-.1,2.637.145,2.905-.2.117-.169-.082-.49-.618-.784a4.633,4.633,0,0,0-2.382-.467,4.555,4.555,0,0,0-2.3.721c-.494.349-.65.69-.512.845" transform="translate(-212.371 -21.209)" fill="#263238"/>
        <path id="Trazado_638718" data-name="Trazado 638718" d="M413.154,24.827s2.3-5.919,5.08-7.364c3.368-1.749,4.944,1.957,8.172.955s6.443-2.679,9.84-.258c3.718,2.65,2.067,4.63,2.409,8.768,1.387,16.777,4.59,21.441,5.239,13.5.071-.87,2.458-1.627,2.711-5.3.328-4.764.347-10.537-.808-13.878-.974-2.816-2.649-4.733-5.616-6.815-4.683-3.287-10.984-3.182-15.25-2.63s-12.374,5.707-11.777,13.02" transform="translate(-211.214 -5.885)" fill="#263238"/>
        <path id="Trazado_638719" data-name="Trazado 638719" d="M474.769,67.557a2.537,2.537,0,0,1,2.669-2.521c1.746.116,3.713,1.051,3.7,4.654-.023,6.391-6.435,5.05-6.445,4.866-.007-.125.044-4.325.077-7" transform="translate(-242.692 -33.248)" fill="#ae7461"/>
        <path id="Trazado_638720" data-name="Trazado 638720" d="M477.549,74.326c.028-.02.111.079.3.165a1.111,1.111,0,0,0,.832.02,2.754,2.754,0,0,0,1.284-2.467,3.676,3.676,0,0,0-.306-1.6,1.284,1.284,0,0,0-.834-.858.567.567,0,0,0-.658.3c-.087.179-.046.306-.08.317-.018.016-.137-.108-.085-.371a.711.711,0,0,1,.253-.4.841.841,0,0,1,.616-.161,1.566,1.566,0,0,1,1.16,1,3.784,3.784,0,0,1,.38,1.783,2.891,2.891,0,0,1-1.634,2.754,1.193,1.193,0,0,1-1.018-.173c-.2-.159-.23-.3-.208-.313" transform="translate(-244.15 -35.417)" fill="#6f4439"/>
        <path id="Trazado_638721" data-name="Trazado 638721" d="M447.11,25.59a6.067,6.067,0,0,1-2.669,1.325,2.084,2.084,0,0,1-2.352-1.4c-.088-.442.005-.961-.3-1.3-.36-.4-1-.254-1.534-.182-1.851.249-4.078-1.739-4.6-3.533a1.666,1.666,0,0,1-2.214.524,5.978,5.978,0,0,1-1.577-1.324,2.629,2.629,0,0,0-2.223-1.035,6.309,6.309,0,0,1-1.38.345c-.841-.05-1.278-1.021-1.428-1.85s-.277-1.8-1-2.229a3.343,3.343,0,0,0-2.285,0c-.768.135-1.771-.017-1.99-.767a1.517,1.517,0,0,1,.253-1.166,4.138,4.138,0,0,1,4.838-1.7,5.608,5.608,0,0,1,10.268-1.378,5.691,5.691,0,0,1,9.153,1.817,4.125,4.125,0,0,1,4.819,5.866,3.919,3.919,0,0,1,2.243,3.058,2.243,2.243,0,0,1-2.475,2.363,2.284,2.284,0,0,1-3.885,2.389" transform="translate(-215.508 -3.649)" fill="#263238"/>
        <path id="Trazado_638722" data-name="Trazado 638722" d="M431.151,19.529a.323.323,0,0,0,0,.117c.011.077.019.193.05.34a4.031,4.031,0,0,0,.5,1.217,4.574,4.574,0,0,0,1.459,1.47,4.255,4.255,0,0,0,2.637.672l-.112-.138a2.312,2.312,0,0,0,.178,1.759A6.607,6.607,0,0,0,437,26.5a4.758,4.758,0,0,0,.736.713,2.234,2.234,0,0,0,1.022.347,2.333,2.333,0,0,0,2.035-.795l-.241-.062a4.793,4.793,0,0,0,2.126,3.256,3.494,3.494,0,0,0,2.116.628,6.317,6.317,0,0,0,2.054-.512l-.173-.07a5.031,5.031,0,0,0,1.567,1.928,2.679,2.679,0,0,0,2.242.543,3.518,3.518,0,0,0,2.63-2.829l-.143.071a3.293,3.293,0,0,0,2.2.26,3.575,3.575,0,0,0,1.511-.726,3.089,3.089,0,0,0,.692-.8,1.488,1.488,0,0,0,.152-.335,3.837,3.837,0,0,1-.911,1.051,3.544,3.544,0,0,1-1.475.658,3.148,3.148,0,0,1-2.08-.281l-.122-.065-.022.136a3.318,3.318,0,0,1-2.491,2.623,2.434,2.434,0,0,1-2.036-.516,4.8,4.8,0,0,1-1.473-1.83l-.054-.117-.119.046a6.089,6.089,0,0,1-1.964.488,3.218,3.218,0,0,1-1.954-.585,4.534,4.534,0,0,1-2.01-3.068l-.048-.3-.192.24a2.073,2.073,0,0,1-1.8.7,1.984,1.984,0,0,1-.907-.3,4.652,4.652,0,0,1-.693-.668,6.458,6.458,0,0,1-1.111-1.473,2.1,2.1,0,0,1-.184-1.592l.048-.154-.16.016a4.11,4.11,0,0,1-2.526-.605,4.541,4.541,0,0,1-1.448-1.389,4.935,4.935,0,0,1-.654-1.61" transform="translate(-220.429 -9.984)" fill="#455a64"/>
        <path id="Trazado_638723" data-name="Trazado 638723" d="M435.734,84.534c.029-.239,1.609.044,2.976-1.1s1.5-2.861,1.721-2.833c.1,0,.239.431.13,1.145a4,4,0,0,1-1.348,2.382,3.484,3.484,0,0,1-2.477.824c-.672-.06-1.031-.307-1-.413" transform="translate(-222.774 -41.206)" fill="#263238"/>
        <path id="Trazado_638724" data-name="Trazado 638724" d="M502.869,126.142a24.989,24.989,0,0,1,10.46,4.514c4.773,3.692,16.918,27.405,16.918,27.405l-26.139,5.281Z" transform="translate(-257.098 -64.492)" fill="#2b95f9"/>
        <path id="Trazado_638725" data-name="Trazado 638725" d="M454.118,207.2,500.96,98.732l25.6,9.892L478.092,217.7a13.087,13.087,0,0,1-23.973-10.5" transform="translate(-231.623 -50.478)" fill="#455a64"/>
        <path id="Trazado_638726" data-name="Trazado 638726" d="M561.262,172.647a5.341,5.341,0,0,1,2.253.555,26.414,26.414,0,0,0,2.811,1.094l4.522,2.091a2.228,2.228,0,0,1-1.668,3.757c.5.56.9.691,1.019,1.429a2.381,2.381,0,0,1-.6,2.074,1.705,1.705,0,0,1-2.058.27,2.8,2.8,0,0,1-3.288,3.969,1.125,1.125,0,0,1-.369-.135.471.471,0,0,1-.116-.137c-.147-.239-.25-.5-.414-.73q-.093-.13-.2-.254a5.217,5.217,0,0,0-1.085-.968,4.634,4.634,0,0,1-.577-.374,2.474,2.474,0,0,1-.254-.368,6.9,6.9,0,0,0-2.323-1.647,5.434,5.434,0,0,1-2.361-1.986,2,2,0,0,1,.635-2.721,1.365,1.365,0,0,1-.772-1.633,1.973,1.973,0,0,1,1.405-1.286,3.665,3.665,0,0,1,1.965.091,1.507,1.507,0,0,1-.5-2.032,2.324,2.324,0,0,1,1.972-1.058" transform="translate(-284.412 -88.267)" fill="#ae7461"/>
        <path id="Trazado_638727" data-name="Trazado 638727" d="M566.236,202.7a2.238,2.238,0,0,1-1.4,1.234,3.661,3.661,0,0,1-2.4-.761c.3-.855.508-1.27.812-2.125.064-.18.185-.292.167-.482-.045-.5-.928-.941-1.256-1.324a1.715,1.715,0,0,1,.292-2.338,2.3,2.3,0,0,1,2.471-.167,3.557,3.557,0,0,1,1.614,1.992,4.969,4.969,0,0,1-.3,3.971" transform="translate(-287.236 -100.444)" fill="#ae7461"/>
        <path id="Trazado_638728" data-name="Trazado 638728" d="M568.714,190.217c.077-.149-2.228-1.493-5.147-3s-5.349-2.614-5.425-2.466,2.227,1.493,5.147,3,5.348,2.614,5.425,2.466" transform="translate(-285.356 -94.448)" fill="#6f4439"/>
        <path id="Trazado_638729" data-name="Trazado 638729" d="M572.833,183.287a25.256,25.256,0,0,0-9.722-4.607c-.057.165,2.178,1.056,4.85,2.327s4.78,2.428,4.872,2.28" transform="translate(-287.897 -91.341)" fill="#6f4439"/>
        <path id="Trazado_638730" data-name="Trazado 638730" d="M577.687,176.63c.085-.147-1.623-1.227-3.9-2.19a17.564,17.564,0,0,0-4.209-1.477c-.074.159,1.712,1.075,3.968,2.033a24.671,24.671,0,0,0,4.136,1.634" transform="translate(-291.205 -88.42)" fill="#6f4439"/>
        <path id="Trazado_638731" data-name="Trazado 638731" d="M567.913,201.245c.06.041.36-.284.428-.959a3.353,3.353,0,0,0-.829-2.383,6.728,6.728,0,0,0-1.914-1.589c-.675-.309-1.13.045-1.054.1.034.074.4-.047.849.272a12.01,12.01,0,0,1,1.649,1.594,3.638,3.638,0,0,1,.872,2c.048.565-.084.925,0,.964" transform="translate(-288.625 -100.304)" fill="#6f4439"/>
        <path id="Trazado_638732" data-name="Trazado 638732" d="M576.687,93.829l-3.358-21.744a2.7,2.7,0,0,0-4.3-1.74L551.085,83.937Z" transform="translate(-281.749 -35.683)" fill="#febbac"/>
        <path id="Trazado_638733" data-name="Trazado 638733" d="M461.1,339.125h0a13.086,13.086,0,0,0,16.425-5.641L453.693,323c-.008.023-.019.046-.026.07l-.031.1a13.087,13.087,0,0,0,7.465,15.954" transform="translate(-231.625 -165.139)" fill="#263238"/>
        <g id="Grupo_882529" data-name="Grupo 882529" transform="translate(269.63 34.298)" opacity="0.5">
          <g id="Grupo_882528" data-name="Grupo 882528">
            <g id="Grupo_882527" data-name="Grupo 882527" clip-path="url(#clip-path-7)">
              <path id="Trazado_638734" data-name="Trazado 638734" d="M576.687,93.829l-3.358-21.744a2.7,2.7,0,0,0-4.3-1.74L551.085,83.937Z" transform="translate(-551.085 -69.793)" fill="#fff"/>
            </g>
          </g>
        </g>
        <path id="Trazado_638735" data-name="Trazado 638735" d="M590.619,74.06l-.435-2.755a2.451,2.451,0,0,0-3.952-1.532l-2.013,1.611Z" transform="translate(-298.689 -35.397)" fill="#2b95f9"/>
        <path id="Trazado_638736" data-name="Trazado 638736" d="M445.632,155.282l-.837-32.048-15.081-2.943c-3.256,6.443-13.221,9.447-21,1.625l-15.893,2.25s-2.422,29-1.565,51.035l-2.788,30.605c14.519,9.506,33.208,13.49,48.321,10.77,6.964-1.327-.21-.216,6.068-3.462Z" transform="translate(-198.611 -61.5)" fill="#2b95f9"/>
        <path id="Trazado_638737" data-name="Trazado 638737" d="M371.863,128.219s-7.822,1.645-13.927,11.668a118.43,118.43,0,0,1-10.9,15.479l22.562,10.6Z" transform="translate(-177.424 -65.553)" fill="#2b95f9"/>
        <path id="Trazado_638738" data-name="Trazado 638738" d="M394.125,158.26c.07,0,.127,2.619.127,5.848s-.057,5.849-.127,5.849-.127-2.618-.127-5.849.057-5.848.127-5.848" transform="translate(-201.436 -80.912)" fill="#263238"/>
        <path id="Trazado_638739" data-name="Trazado 638739" d="M505.294,164.88c.07,0,.127,4.054.127,9.054s-.057,9.055-.127,9.055-.127-4.053-.127-9.055.057-9.054.127-9.054" transform="translate(-258.273 -84.297)" fill="#263238"/>
      </g>
    </g>
    <g id="Grupo_882548" data-name="Grupo 882548">
      <g id="Grupo_882547" data-name="Grupo 882547" clip-path="url(#clip-path)">
        <path id="Trazado_638740" data-name="Trazado 638740" d="M30.12,210.51A5.505,5.505,0,0,1,32.146,200.2a6.049,6.049,0,0,1,4.248-10.479,5.333,5.333,0,0,1-1.332-5.711,8.1,8.1,0,0,1,4.182-4.406A11.382,11.382,0,0,1,53.819,184.4l-1.219,47.4a8.136,8.136,0,0,1-13.415-3.018,16.091,16.091,0,0,1-4.969-.994,5.441,5.441,0,0,1-3.3-3.62,3.337,3.337,0,0,1,2.305-3.948c-1.861-1.1-3.819-2.308-4.782-4.246s-.377-4.8,1.683-5.458" transform="translate(-13.931 -91.3)" fill="#263238"/>
        <path id="Trazado_638741" data-name="Trazado 638741" d="M145.588,332.741s5.915,25.119,16.187,27.747,35.28,2.322,35.28,2.322l.623-9.8-28.767-5.683-11.331-25.163Z" transform="translate(-74.434 -164.713)" fill="#ffc09d"/>
        <path id="Trazado_638742" data-name="Trazado 638742" d="M110.233,307.644s-6.22-11.936-7.76-14.544a20.951,20.951,0,0,0-7.523-6.965l-12.541-2.9-18.388.747c-.057.023-11.795,3.413-14.216,4.434L50.833,321.9l5.919,21.309L52.59,354.668H104.4c-.719-5.318-4.639-15.179-4.307-25.173a33.891,33.891,0,0,0,2.55-10.992c.14-2.488.072-4.371.072-4.371s5.61-1.929,7.519-6.489" transform="translate(-25.463 -144.807)" fill="#ffb338"/>
        <path id="Trazado_638743" data-name="Trazado 638743" d="M145.592,296.032c-.063.035.531,1.148,1.366,3a51.881,51.881,0,0,1,4.245,15.219c.245,2.017.313,3.277.385,3.274a3.453,3.453,0,0,0,.043-.889c0-.572-.034-1.4-.118-2.418a43.177,43.177,0,0,0-4.274-15.32c-.456-.915-.851-1.642-1.15-2.129a3.453,3.453,0,0,0-.5-.738" transform="translate(-74.433 -151.35)" fill="#263238"/>
        <path id="Trazado_638744" data-name="Trazado 638744" d="M103.382,353.727a2.659,2.659,0,0,0,.733-.269,6.009,6.009,0,0,0,.819-.41,10.016,10.016,0,0,0,1.036-.636,14.9,14.9,0,0,0,2.414-2.049,15.981,15.981,0,0,0,3.808-6.7,14.846,14.846,0,0,0,.526-3.122,9.922,9.922,0,0,0,.017-1.215,5.942,5.942,0,0,0-.066-.914,2.643,2.643,0,0,0-.143-.767c-.087.008.056,1.111-.118,2.871a16.511,16.511,0,0,1-.606,3.034,16.815,16.815,0,0,1-3.715,6.533,16.443,16.443,0,0,1-2.3,2.072c-1.423,1.049-2.445,1.491-2.407,1.57" transform="translate(-52.855 -172.626)" fill="#263238"/>
        <path id="Trazado_638745" data-name="Trazado 638745" d="M286.605,184.6l3.89,12.257v-8.679l9.258-1.059s4.3,27.922-.53,33.6c-2.832,3.324-6.82,2.408-9.383.851-7.562-4.6-15.347-16.892-15.347-16.892l-.768-13.273Z" transform="translate(-139.945 -94.379)" fill="#ffc09d"/>
        <path id="Trazado_638746" data-name="Trazado 638746" d="M211.316,58.815c-6.278,12.341-6.519,27.377-1.464,40.267a5.279,5.279,0,0,0,1.789,2.66c1.218.786,2.817.5,4.21.108,4.1-1.164,7.95-3.068,12-4.4s8.472-2.08,12.555-.86Z" transform="translate(-105.478 -30.07)" fill="#263238"/>
        <path id="Trazado_638747" data-name="Trazado 638747" d="M270.775,87.94c-1.041-2.867-4.5-3.828-7.036-5.528-3.845-2.581-5.756-7.246-6.614-11.8s-1.165-10.263-2.3-14.753-3.521-12.288-7.771-14.126l-31.269,3.455c-4.634,6.869-7.954,13.83-6.1,21.906,1.164,5.054,5.212,15.6,4.973,21.162-.305,7.1-6.36,9.874-1.573,15.124,2.912,3.193,25.323-1.037,29.517,0s9.536-1.478,9.741-5.8a7,7,0,0,0,12.522-1.944c3.626-.668,7.162-4.24,5.9-7.705" transform="translate(-106.939 -21.338)" fill="#263238"/>
        <path id="Trazado_638748" data-name="Trazado 638748" d="M220.584,37.691a22.114,22.114,0,0,1,18.339-5.455c3.844.606,5.291,1.679,7.921,2.905a12.28,12.28,0,0,1,6.1,5.766,20.6,20.6,0,0,1,2.353,9.952,29.569,29.569,0,0,1-2.229,9.56,38.963,38.963,0,0,1-7.169,10.5l-6.008-.312c-4.917-.686-9.9-1.39-14.468-3.336s-8.747-5.315-10.569-9.933c-2.531-6.416.507-15.145,5.728-19.653" transform="translate(-109.384 -16.337)" fill="#263238"/>
        <path id="Trazado_638749" data-name="Trazado 638749" d="M233.284,43.632,245.9,41l3.019.9c6.931,1.235,10.38,9.718,9.445,15.342-1.038,6.249-2.552,13.838-4.346,18.265-3.607,8.9-11.635,8.294-11.635,8.294s-.7,4.957-1.181,8.073l-17.836-4.456,6.245-41.159a3.337,3.337,0,0,1,3.671-2.624" transform="translate(-114.2 -20.962)" fill="#ffc09d"/>
        <path id="Trazado_638750" data-name="Trazado 638750" d="M258.386,100.769a2,2,0,0,1,.893-1.1,2.043,2.043,0,0,1,2.465.286,2.737,2.737,0,0,1,.582,2.709,2.487,2.487,0,0,1-1.931.711,3.017,3.017,0,0,1-.331-.047,2.231,2.231,0,0,1-1.38-.846,1.989,1.989,0,0,1-.3-1.718" transform="translate(-132.062 -50.812)" fill="#ff9b6c"/>
        <path id="Trazado_638751" data-name="Trazado 638751" d="M280.872,87.13a1.216,1.216,0,0,1-1.42.931,1.163,1.163,0,0,1-.974-1.351,1.217,1.217,0,0,1,1.418-.933,1.164,1.164,0,0,1,.975,1.352" transform="translate(-142.365 -43.845)" fill="#263238"/>
        <path id="Trazado_638752" data-name="Trazado 638752" d="M284.652,77.9c-.183.121-.927-.752-2.2-1.044-1.27-.31-2.358.13-2.46-.059-.052-.085.163-.329.638-.532a3.344,3.344,0,0,1,2.014-.144,3.211,3.211,0,0,1,1.709,1.024c.322.392.391.7.3.755" transform="translate(-143.143 -38.872)" fill="#263238"/>
        <path id="Trazado_638753" data-name="Trazado 638753" d="M269,86.307a8.66,8.66,0,0,1,2.158.106c.333.042.657.048.763-.161a1.7,1.7,0,0,0,.006-1.015q-.186-1.289-.389-2.7a43.757,43.757,0,0,1-.661-6.987,43.768,43.768,0,0,1,1.222,6.918c.12.945.236,1.846.345,2.708a1.935,1.935,0,0,1-.127,1.317.84.84,0,0,1-.646.352,2.293,2.293,0,0,1-.571-.051,8.5,8.5,0,0,1-2.1-.483" transform="translate(-137.53 -38.624)" fill="#263238"/>
        <path id="Trazado_638754" data-name="Trazado 638754" d="M250.165,122.1a24.13,24.13,0,0,1-11.611-6.167s1.814,7.169,11.263,8.446Z" transform="translate(-121.964 -59.273)" fill="#ff9b6c"/>
        <path id="Trazado_638755" data-name="Trazado 638755" d="M260.453,97.589c.21.036-.108,1.421.85,2.678s2.466,1.446,2.432,1.642c0,.091-.391.193-1.018.066a3.54,3.54,0,0,1-2.048-1.293,3.082,3.082,0,0,1-.624-2.225c.082-.591.315-.9.408-.868" transform="translate(-132.939 -49.892)" fill="#263238"/>
        <path id="Trazado_638756" data-name="Trazado 638756" d="M285.272,68.69c-.286.261-1.215-.173-2.378-.342-1.157-.206-2.178-.088-2.364-.426-.08-.163.115-.437.583-.659a3.72,3.72,0,0,1,3.82.619c.371.358.466.679.338.808" transform="translate(-143.415 -34.247)" fill="#263238"/>
        <path id="Trazado_638757" data-name="Trazado 638757" d="M254.636,82.043a1.216,1.216,0,0,0,.92,1.427,1.163,1.163,0,0,0,1.439-.84,1.217,1.217,0,0,0-.918-1.427,1.164,1.164,0,0,0-1.44.84" transform="translate(-130.171 -41.496)" fill="#263238"/>
        <path id="Trazado_638758" data-name="Trazado 638758" d="M254.05,71.708c.118.184,1.151-.311,2.436-.061,1.287.232,2.1,1.075,2.273.944.082-.056-.015-.367-.368-.745a3.343,3.343,0,0,0-1.782-.949,3.211,3.211,0,0,0-1.977.242c-.454.228-.642.483-.582.567" transform="translate(-129.88 -36.218)" fill="#263238"/>
        <path id="Trazado_638759" data-name="Trazado 638759" d="M257.1,63.483c.2.341,1.247.229,2.442.444,1.2.178,2.165.62,2.456.359.13-.129.028-.452-.36-.813a3.744,3.744,0,0,0-1.889-.86,3.7,3.7,0,0,0-2.057.213c-.479.218-.675.493-.591.657" transform="translate(-131.435 -31.984)" fill="#263238"/>
        <path id="Trazado_638760" data-name="Trazado 638760" d="M226.2,81.014c.158-.689-.262-2.5-.917-2.759-1.749-.7-5.054-1.315-6.152,3.287-1.5,6.291,5.125,6.5,5.18,6.322.042-.139,1.346-4.473,1.89-6.851" transform="translate(-111.921 -39.761)" fill="#ffc09d"/>
        <path id="Trazado_638761" data-name="Trazado 638761" d="M225.067,87.34c-.023-.027-.128.05-.333.091a1.128,1.128,0,0,1-.824-.179,2.787,2.787,0,0,1-.674-2.732,3.717,3.717,0,0,1,.681-1.5,1.3,1.3,0,0,1,1.025-.644.574.574,0,0,1,.575.455c.043.2-.027.312,0,.331.014.02.16-.073.172-.345a.722.722,0,0,0-.154-.454.851.851,0,0,0-.568-.3,1.583,1.583,0,0,0-1.377.7,3.83,3.83,0,0,0-.8,1.663,2.924,2.924,0,0,0,.951,3.1,1.208,1.208,0,0,0,1.042.072c.232-.108.3-.241.28-.258" transform="translate(-113.864 -41.949)" fill="#ff9b6c"/>
        <path id="Trazado_638762" data-name="Trazado 638762" d="M229.872,57.99l1.324,1.958c8.142-5.461,24.7-19.8,23.76-18.941a20.616,20.616,0,0,0-9.779-2.821c-5.342-.022-15.636.858-16.553,7s1.248,12.8,1.248,12.8" transform="translate(-116.771 -19.523)" fill="#263238"/>
        <path id="Trazado_638763" data-name="Trazado 638763" d="M237.8,133.128,219.525,126.5h-4.9l12.173,13.451,5.161,4.512,6.274-.341,2.7-3.026Z" transform="translate(-109.727 -64.673)" fill="#ffc09d"/>
        <path id="Trazado_638764" data-name="Trazado 638764" d="M171.631,184.454l.61,14.013c8.3,6.112,23.519,10.3,37.3,10,.832-.018,2.039-12.287,6.1-21.038l5.437-7.439a33.023,33.023,0,0,0,4.963-9.808c.71-2.322,1.082-4.119,1.082-4.119s8.622-.689,11.486-4.56c0,0-3.637-12.45-4.489-15.275-1.452-4.815-7.846-8.455-7.846-8.455l-10.6-5.356s-.787,4.014-7.629,2.734a14.544,14.544,0,0,1-11.066-9.284s-16.166-.1-19.149.37Z" transform="translate(-87.748 -64.347)" fill="#eb6f2d"/>
        <path id="Trazado_638765" data-name="Trazado 638765" d="M283.09,167.753c-.067.019.236,1.21.6,3.156a50.512,50.512,0,0,1,.486,15.384c-.236,1.965-.464,3.172-.4,3.187a3.39,3.39,0,0,0,.247-.831c.136-.54.292-1.331.449-2.315a42.05,42.05,0,0,0-.489-15.487c-.218-.972-.424-1.751-.594-2.282a3.356,3.356,0,0,0-.3-.813" transform="translate(-144.728 -85.766)" fill="#263238"/>
        <path id="Trazado_638766" data-name="Trazado 638766" d="M224.749,214.489a2.563,2.563,0,0,0,.756-.085,5.745,5.745,0,0,0,.87-.2,9.55,9.55,0,0,0,1.128-.361,14.515,14.515,0,0,0,2.76-1.378,15.572,15.572,0,0,0,5.157-5.453,14.475,14.475,0,0,0,1.222-2.832,9.689,9.689,0,0,0,.3-1.146,5.726,5.726,0,0,0,.149-.88,2.555,2.555,0,0,0,.043-.759c-.084-.013-.2,1.064-.778,2.689a16.079,16.079,0,0,1-1.277,2.73,16.387,16.387,0,0,1-5.031,5.319,16.065,16.065,0,0,1-2.654,1.427c-1.59.663-2.659.843-2.642.927" transform="translate(-114.905 -102.967)" fill="#263238"/>
        <path id="Trazado_638767" data-name="Trazado 638767" d="M172.05,126.93l-6.545-.3-17.968,4.879,3.918,13.016,15.619,3.083Z" transform="translate(-75.43 -64.743)" fill="#eb6f2d"/>
        <path id="Trazado_638768" data-name="Trazado 638768" d="M181.458,144.837c.07,0,.229,2.9.354,6.485s.17,6.492.1,6.494-.229-2.9-.354-6.486-.17-6.491-.1-6.493" transform="translate(-92.756 -74.05)" fill="#263238"/>
        <rect id="Rectángulo_330577" data-name="Rectángulo 330577" width="175.906" height="106.476" transform="translate(78.358 90.226)" fill="#fff"/>
        <path id="Trazado_638769" data-name="Trazado 638769" d="M336.1,290.954c0-.8-.039-41.261-.1-106.476l.1.1-175.892.028h-.014l.127-.127c0,37.726-.006,73.721-.009,106.476l-.118-.118,175.906.118-175.906.118h-.118v-.118c0-32.755-.006-68.75-.01-106.476v-.128h.141l175.892.028h.1v.1c-.061,65.215-.1,105.674-.1,106.476" transform="translate(-81.836 -94.251)" fill="#263238"/>
        <path id="Trazado_638770" data-name="Trazado 638770" d="M240.114,214.859H203.878a1.025,1.025,0,0,1-1.025-1.025v-.793a1.025,1.025,0,0,1,1.025-1.025h36.236a1.025,1.025,0,0,1,1.025,1.025v.793a1.025,1.025,0,0,1-1.025,1.025" transform="translate(-103.711 -108.395)" fill="#e0e0e0"/>
        <path id="Trazado_638771" data-name="Trazado 638771" d="M240.114,237.155H203.878a1.025,1.025,0,0,1-1.025-1.025v-.793a1.025,1.025,0,0,1,1.025-1.025h36.236a1.025,1.025,0,0,1,1.025,1.025v.793a1.025,1.025,0,0,1-1.025,1.025" transform="translate(-103.711 -119.794)" fill="#e0e0e0"/>
        <path id="Trazado_638772" data-name="Trazado 638772" d="M217.38,225.609h-13.5a1.025,1.025,0,0,1-1.025-1.025v-.793a1.026,1.026,0,0,1,1.025-1.025h13.5a1.025,1.025,0,0,1,1.025,1.025v.793a1.025,1.025,0,0,1-1.025,1.025" transform="translate(-103.711 -113.891)" fill="#e0e0e0"/>
        <path id="Trazado_638773" data-name="Trazado 638773" d="M258.837,225.609H240.5a1.025,1.025,0,0,1-1.025-1.025v-.793a1.025,1.025,0,0,1,1.025-1.025h18.338a1.025,1.025,0,0,1,1.025,1.025v.793a1.025,1.025,0,0,1-1.025,1.025" transform="translate(-122.434 -113.891)" fill="#e0e0e0"/>
        <g id="Grupo_882534" data-name="Grupo 882534" transform="translate(121.4 103.322)" opacity="0.3">
          <g id="Grupo_882533" data-name="Grupo 882533">
            <g id="Grupo_882532" data-name="Grupo 882532" clip-path="url(#clip-path-9)">
              <path id="Trazado_638774" data-name="Trazado 638774" d="M304.887,232.706H251.352a2.957,2.957,0,0,1-2.957-2.957V214.363a2.957,2.957,0,0,1,2.957-2.957h53.535a2.957,2.957,0,0,1,2.957,2.957v15.386a2.957,2.957,0,0,1-2.957,2.957" transform="translate(-248.395 -211.406)"/>
            </g>
          </g>
        </g>
        <path id="Trazado_638775" data-name="Trazado 638775" d="M300.857,228.675H247.322a2.957,2.957,0,0,1-2.957-2.957V210.332a2.957,2.957,0,0,1,2.957-2.957h53.535a2.957,2.957,0,0,1,2.957,2.957v15.386a2.957,2.957,0,0,1-2.957,2.957" transform="translate(-124.935 -106.023)" fill="#ebebeb"/>
        <path id="Trazado_638776" data-name="Trazado 638776" d="M300.673,228.491c0-.011.138-.009.4-.048a2.839,2.839,0,0,0,1.094-.4,2.933,2.933,0,0,0,1.2-1.427,7.388,7.388,0,0,0,.194-2.583c-.008-1.983-.018-4.4-.03-7.211q-.007-2.109-.014-4.5c-.008-.791.01-1.628-.021-2.446a2.824,2.824,0,0,0-2.421-2.52,12.944,12.944,0,0,0-1.354-.029l-2.838.005-6.021.01-13.284.017-30.439.014a2.784,2.784,0,0,0-2.723,2.2,13.82,13.82,0,0,0-.062,1.952q0,.993,0,1.979,0,3.945,0,7.767,0,1.91,0,3.784a3.341,3.341,0,0,0,.3,1.738,2.789,2.789,0,0,0,1.2,1.219,3.226,3.226,0,0,0,1.7.317h1.807l3.552,0,24.86.038,16.76.056,4.557.033,1.185.018c.267.006.4.018.4.018s-.137.012-.4.018l-1.185.018-4.557.033-16.76.056-24.86.038-3.552,0h-1.807a3.572,3.572,0,0,1-1.851-.352,3.13,3.13,0,0,1-1.349-1.366,3.7,3.7,0,0,1-.338-1.891q0-1.874,0-3.784,0-3.819,0-7.767,0-.986,0-1.979v-1a4.815,4.815,0,0,1,.069-1.03,3.134,3.134,0,0,1,3.067-2.479l30.439.014,13.284.016,6.021.01,2.838.006a13.035,13.035,0,0,1,1.39.037,3.069,3.069,0,0,1,2.621,2.751c.028.864,0,1.668.009,2.469q-.007,2.391-.014,4.5c-.012,2.808-.022,5.228-.03,7.211a7.389,7.389,0,0,1-.234,2.622A2.987,2.987,0,0,1,302.2,228.1a2.764,2.764,0,0,1-1.126.376,2.123,2.123,0,0,1-.4.013" transform="translate(-124.75 -105.839)" fill="#263238"/>
        <path id="Trazado_638777" data-name="Trazado 638777" d="M263.105,229.221H249.931a2.545,2.545,0,0,1-2.545-2.545V213.5a2.545,2.545,0,0,1,2.545-2.546h13.174a2.546,2.546,0,0,1,2.545,2.546v13.174a2.546,2.546,0,0,1-2.545,2.545" transform="translate(-126.479 -107.854)" fill="#fd4c1b"/>
        <path id="Trazado_638778" data-name="Trazado 638778" d="M302.23,229.221H288.694a2.364,2.364,0,0,1-2.365-2.364V213.321a2.364,2.364,0,0,1,2.365-2.365H302.23a2.364,2.364,0,0,1,2.364,2.365v13.536a2.364,2.364,0,0,1-2.364,2.365" transform="translate(-146.389 -107.854)" fill="#ff725e"/>
        <g id="Grupo_882537" data-name="Grupo 882537" transform="translate(139.94 103.103)" opacity="0.5">
          <g id="Grupo_882536" data-name="Grupo 882536">
            <g id="Grupo_882535" data-name="Grupo 882535" clip-path="url(#clip-path-10)">
              <path id="Trazado_638779" data-name="Trazado 638779" d="M302.23,229.221H288.694a2.364,2.364,0,0,1-2.365-2.364V213.321a2.364,2.364,0,0,1,2.365-2.365H302.23a2.364,2.364,0,0,1,2.364,2.365v13.536a2.364,2.364,0,0,1-2.364,2.365" transform="translate(-286.329 -210.956)" fill="#f9d9a2"/>
            </g>
          </g>
        </g>
        <path id="Trazado_638780" data-name="Trazado 638780" d="M341.412,229.221H327.79a2.322,2.322,0,0,1-2.322-2.322V213.278a2.322,2.322,0,0,1,2.322-2.322h13.621a2.322,2.322,0,0,1,2.322,2.322V226.9a2.322,2.322,0,0,1-2.322,2.322" transform="translate(-166.4 -107.854)" fill="#3d672f"/>
        <path id="Trazado_638781" data-name="Trazado 638781" d="M226.4,288.987a6.623,6.623,0,0,1,1.286,4.141,6.119,6.119,0,0,1-2.7,5.352q-2.7,1.872-7.886,1.872H203.4V273.877h12.934q4.841,0,7.432,1.853a5.868,5.868,0,0,1,2.591,5.03,6.362,6.362,0,0,1-3.517,5.824,6.985,6.985,0,0,1,3.555,2.4m-16.905-10.5v6.24h6.089a6.15,6.15,0,0,0,3.442-.794,2.65,2.65,0,0,0,1.172-2.344,2.6,2.6,0,0,0-1.172-2.326,6.27,6.27,0,0,0-3.442-.775Zm10.8,16.452a2.721,2.721,0,0,0,1.229-2.458q0-3.291-4.879-3.291h-7.148v6.543h7.148a6.793,6.793,0,0,0,3.65-.794" transform="translate(-103.993 -140.023)" fill="#2b95f9"/>
        <path id="Trazado_638782" data-name="Trazado 638782" d="M279.472,300.352l-5.106-7.375h-5.635v7.375H262.6V273.878h11.459a14.708,14.708,0,0,1,6.108,1.173,9.078,9.078,0,0,1,3.99,3.328,9.17,9.17,0,0,1,1.4,5.106,8.623,8.623,0,0,1-5.446,8.358l5.938,8.51Zm-1.551-20.291a6.436,6.436,0,0,0-4.2-1.192h-4.992V288.1h4.992a6.362,6.362,0,0,0,4.2-1.21,4.773,4.773,0,0,0,0-6.827" transform="translate(-134.259 -140.023)" fill="#2b95f9"/>
        <path id="Trazado_638783" data-name="Trazado 638783" d="M333.275,294.679H320.983l-2.344,5.673H312.36l11.8-26.474h6.051l11.838,26.474H335.62Zm-1.929-4.652-4.2-10.135-4.2,10.135Z" transform="translate(-159.698 -140.023)" fill="#2b95f9"/>
        <path id="Trazado_638784" data-name="Trazado 638784" d="M403.035,273.877v26.474h-5.03l-13.2-16.074v16.074h-6.052V273.877h5.068l13.162,16.074V273.877Z" transform="translate(-193.643 -140.023)" fill="#2b95f9"/>
        <path id="Trazado_638785" data-name="Trazado 638785" d="M441.28,273.877h12.027a16.907,16.907,0,0,1,7.621,1.645,12.327,12.327,0,0,1,5.143,4.633,14.118,14.118,0,0,1,0,13.918,12.321,12.321,0,0,1-5.143,4.633,16.907,16.907,0,0,1-7.621,1.645H441.28ZM453,295.321a8.9,8.9,0,0,0,6.335-2.212,8.783,8.783,0,0,0,0-11.989A8.9,8.9,0,0,0,453,278.907h-5.6v16.414Z" transform="translate(-225.61 -140.023)" fill="#2b95f9"/>
        <path id="Trazado_638786" data-name="Trazado 638786" d="M344.375,303.966c0-.6-.029-15.2-.079-41.185l.079.079-146.67.048H197.7l.127-.127c0,14.192,0,28.016,0,41.185l-.124-.124,104.8.057,41.877.067-41.791.067L197.7,304.09h-.124v-.124c0-13.169,0-26.993,0-41.185v-.128h.136l146.67.048h.079v.079c-.05,25.984-.078,40.59-.079,41.185" transform="translate(-101.009 -134.285)" fill="#263238"/>
        <rect id="Rectángulo_330580" data-name="Rectángulo 330580" width="2.474" height="2.474" transform="translate(95.2 127.187)" fill="#263238"/>
        <rect id="Rectángulo_330581" data-name="Rectángulo 330581" width="2.474" height="2.474" transform="translate(242.445 148.749)" fill="#263238"/>
        <rect id="Rectángulo_330582" data-name="Rectángulo 330582" width="2.474" height="2.474" transform="translate(95.2 148.749)" fill="#263238"/>
        <rect id="Rectángulo_330583" data-name="Rectángulo 330583" width="2.474" height="2.474" transform="translate(242.129 127.187)" fill="#263238"/>
        <rect id="Rectángulo_330584" data-name="Rectángulo 330584" width="2.474" height="2.474" transform="translate(95.2 168.115)" fill="#263238"/>
        <rect id="Rectángulo_330585" data-name="Rectángulo 330585" width="2.474" height="2.474" transform="translate(242.129 168.115)" fill="#263238"/>
        <path id="Trazado_638787" data-name="Trazado 638787" d="M345.086,328.485c0,.07-32.711.127-73.052.127s-73.059-.057-73.059-.127,32.7-.127,73.059-.127,73.052.057,73.052.127" transform="translate(-101.728 -167.877)" fill="#263238"/>
        <path id="Trazado_638788" data-name="Trazado 638788" d="M353.13,361.164H231.586a1.025,1.025,0,0,1-1.025-1.025v-.793a1.025,1.025,0,0,1,1.025-1.025H353.13a1.025,1.025,0,0,1,1.025,1.025v.793a1.025,1.025,0,0,1-1.025,1.025" transform="translate(-117.877 -183.195)" fill="#e0e0e0"/>
        <path id="Trazado_638789" data-name="Trazado 638789" d="M245.088,371.913h-13.5a1.025,1.025,0,0,1-1.025-1.025v-.793a1.025,1.025,0,0,1,1.025-1.025h13.5a1.025,1.025,0,0,1,1.025,1.025v.793a1.025,1.025,0,0,1-1.025,1.025" transform="translate(-117.877 -188.691)" fill="#e0e0e0"/>
        <path id="Trazado_638790" data-name="Trazado 638790" d="M360.213,371.913H268.207a1.025,1.025,0,0,1-1.025-1.025v-.793a1.025,1.025,0,0,1,1.025-1.025h92.005a1.025,1.025,0,0,1,1.025,1.025v.793a1.025,1.025,0,0,1-1.025,1.025" transform="translate(-136.6 -188.691)" fill="#e0e0e0"/>
        <path id="Trazado_638791" data-name="Trazado 638791" d="M433.7,214.859H393.008a1.025,1.025,0,0,1-1.025-1.025v-.793a1.025,1.025,0,0,1,1.025-1.025H433.7a1.025,1.025,0,0,1,1.025,1.025v.793a1.025,1.025,0,0,1-1.025,1.025" transform="translate(-200.406 -108.395)" fill="#e0e0e0"/>
        <path id="Trazado_638792" data-name="Trazado 638792" d="M433.7,237.155H393.008a1.025,1.025,0,0,1-1.025-1.025v-.793a1.025,1.025,0,0,1,1.025-1.025H433.7a1.025,1.025,0,0,1,1.025,1.025v.793a1.025,1.025,0,0,1-1.025,1.025" transform="translate(-200.406 -119.794)" fill="#e0e0e0"/>
        <path id="Trazado_638793" data-name="Trazado 638793" d="M408.317,225.609h-15.31a1.025,1.025,0,0,1-1.025-1.025v-.793a1.025,1.025,0,0,1,1.025-1.025h15.31a1.025,1.025,0,0,1,1.025,1.025v.793a1.025,1.025,0,0,1-1.025,1.025" transform="translate(-200.405 -113.891)" fill="#e0e0e0"/>
        <path id="Trazado_638794" data-name="Trazado 638794" d="M454.6,225.609H433.887a1.025,1.025,0,0,1-1.025-1.025v-.793a1.025,1.025,0,0,1,1.025-1.025H454.6a1.025,1.025,0,0,1,1.025,1.025v.793a1.025,1.025,0,0,1-1.025,1.025" transform="translate(-221.306 -113.891)" fill="#e0e0e0"/>
        <path id="Trazado_638795" data-name="Trazado 638795" d="M438.216,250.606a38.491,38.491,0,0,1,0-6.251,38.5,38.5,0,0,1,0,6.251" transform="translate(-223.978 -124.929)" fill="#e0e0e0"/>
        <path id="Trazado_638796" data-name="Trazado 638796" d="M438.308,255.984a.876.876,0,1,1-.873-.812.844.844,0,0,1,.873.812" transform="translate(-223.197 -130.46)" fill="#e0e0e0"/>
        <path id="Trazado_638797" data-name="Trazado 638797" d="M207.73,357.391l.79,1.6a.918.918,0,0,0,.69.5l1.768.257a.916.916,0,0,1,.508,1.563l-1.279,1.247a.915.915,0,0,0-.263.811l.3,1.761a.917.917,0,0,1-1.33.966l-1.581-.831a.914.914,0,0,0-.853,0l-1.581.831a.916.916,0,0,1-1.329-.966l.3-1.761a.915.915,0,0,0-.263-.811l-1.279-1.247a.916.916,0,0,1,.508-1.563l1.768-.257a.916.916,0,0,0,.69-.5l.79-1.6a.916.916,0,0,1,1.644,0" transform="translate(-103.302 -182.459)" fill="#e0e0e0"/>
        <g id="Grupo_882540" data-name="Grupo 882540" transform="translate(26.806 162.767)" opacity="0.3">
          <g id="Grupo_882539" data-name="Grupo 882539">
            <g id="Grupo_882538" data-name="Grupo 882538" clip-path="url(#clip-path-11)">
              <path id="Trazado_638798" data-name="Trazado 638798" d="M54.847,348.318s5.618,14.6,14.537,19.43c1.687.913,6.85,1.261,8.36,1.058,11.44-1.54,25.036-35.77,25.036-35.77S77.726,353.89,72.354,349.3c-2.4-2.046-1.663-9.064-1.742-9.024l-15.765,8.04" transform="translate(-54.847 -333.036)"/>
            </g>
          </g>
        </g>
        <path id="Trazado_638799" data-name="Trazado 638799" d="M69.194,341.927l26.537-21.542,5.427,7.886S82.771,351.6,78.617,356.166s-10.624,6.752-16.306,2.36c-4.579-3.54-15.34-23.805-15.34-23.805s16.3-9.593,15.413-9.592c-.137,0,6.81,16.8,6.81,16.8" transform="translate(-24.015 -163.801)" fill="#ffc09d"/>
        <path id="Trazado_638800" data-name="Trazado 638800" d="M91.085,369.436c.014,0,.023.045.03.139l-.078,0a14.821,14.821,0,0,1,.145-2.461,10.042,10.042,0,0,1,.536-2.547,19.972,19.972,0,0,1-.283,2.579c-.146,1.142-.248,2.113-.319,2.434l-.078-.005c.019-.091.035-.134.048-.133" transform="translate(-46.538 -186.386)" fill="#ff9b6c"/>
        <path id="Trazado_638801" data-name="Trazado 638801" d="M159.384,283.279c-.965.564-4.715,3.624-4.983,3.639s2.254-3.456,2.808-4.926c.443-1.176-.023-1.653-1.132-1.477-.954.152-4.281,4.664-4.281,4.664l-1.032,1.185L148.46,289s-1.318,5.273-1.866,7.126-1.817,9.4-1.817,9.4l6.794,2.178c1.405-2.083,3.632-1.857,4.351-6.583.371-2.439,1.224-7.808,1.224-7.808,2.357-4.367,4.049-4.7,4.8-5.942.973-1.609-1.02-1.638-1.02-1.638a4.419,4.419,0,0,0,.695-1.586c.237-1.38-1.273-1.432-2.238-.868" transform="translate(-74.019 -143.398)" fill="#ffc09d"/>
        <path id="Trazado_638802" data-name="Trazado 638802" d="M152.815,297.088a5.023,5.023,0,0,1,.138-1.13c.068-.377.141-.782.219-1.214a4.976,4.976,0,0,1,.548-1.434,21.5,21.5,0,0,1,1.462-2.331,4.472,4.472,0,0,1,.717-.886c.068.046-.935,1.47-1.953,3.336a5.185,5.185,0,0,0-.544,1.365q-.145.641-.272,1.2a5.066,5.066,0,0,1-.315,1.095" transform="translate(-78.123 -148.313)" fill="#ff9b6c"/>
        <path id="Trazado_638803" data-name="Trazado 638803" d="M165.459,296.677a3.423,3.423,0,0,1,.538-1.1,10.272,10.272,0,0,1,1.967-2.191,14.055,14.055,0,0,1,2.424-1.667,4.531,4.531,0,0,1,1.112-.5,34.072,34.072,0,0,0-3.371,2.356,12.579,12.579,0,0,0-1.984,2.1c-.439.6-.648,1.012-.686.994" transform="translate(-84.592 -148.892)" fill="#ff9b6c"/>
        <path id="Trazado_638804" data-name="Trazado 638804" d="M162.336,293.651c.047.046-.6.817-1.135,1.936-.559,1.106-.818,2.081-.887,2.066a5.01,5.01,0,0,1,.658-2.179,4.533,4.533,0,0,1,1.364-1.823" transform="translate(-81.954 -150.131)" fill="#ff9b6c"/>
        <path id="Trazado_638805" data-name="Trazado 638805" d="M42.1,293.874c-5.384,2.576-7.964,7.909-6.225,16.255,1.28,6.141,5.369,20.217,5.369,20.217l20.708-8.619a96.872,96.872,0,0,0-6.754-14.357c-4.64-7.863-10.567-14.706-13.1-13.5" transform="translate(-18.064 -150.175)" fill="#ffb338"/>
        <path id="Trazado_638806" data-name="Trazado 638806" d="M47.42,342.873a2.446,2.446,0,0,1,.367-.18l1.072-.472,3.96-1.692,13.1-5.493,2.159-.9-.062.178c-1.22-2.193-2.214-4.343-3.064-6.3s-1.585-3.717-2.243-5.167-1.218-2.6-1.617-3.387l-.462-.9a1.981,1.981,0,0,1-.148-.321,1.963,1.963,0,0,1,.19.3c.116.2.291.495.5.882.424.775,1.014,1.914,1.69,3.359,1.383,2.874,2.939,7.05,5.374,11.415l.069.124-.131.055-2.159.9-13.13,5.424L48.9,342.312l-1.09.428a2.434,2.434,0,0,1-.387.133" transform="translate(-24.244 -162.703)" fill="#263238"/>
        <path id="Trazado_638807" data-name="Trazado 638807" d="M208.242,173.54a12.086,12.086,0,0,1,6.67,4.817c2.3,3.463,3.765,5.131,6.261,6.716s5.859,2.517,5.142,3.947-6.89-.376-6.89-.376,3.492,11.347,2.087,12.139a1.8,1.8,0,0,1-2.235-1.208c-1.036-2.788-2.432-6.625-2.432-6.625s-2.5,6.681-4.369,7.409a1.939,1.939,0,0,1-2.6-.789,2.071,2.071,0,0,1-2.442-.161,2.333,2.333,0,0,1-.532-1.972,1.89,1.89,0,0,1-1.364-2.358c.272-1.934,1.841-7.656,1.841-7.656s-2.843-4.408-3.109-4.29-5.967-.532-5.967-.532l3.212-10.508Z" transform="translate(-101.382 -87.985)" fill="#ffc09d"/>
        <path id="Trazado_638808" data-name="Trazado 638808" d="M159.862,166.12l2.714-9.8-31.38-6.745-3.621-11.355s-13.195,4.6-16.9,8.46c-5.372,5.608-1.267,12.6,2.284,13.7s46.9,5.735,46.9,5.735" transform="translate(-55.263 -70.667)" fill="#ffc09d"/>
        <path id="Trazado_638809" data-name="Trazado 638809" d="M130.191,157.324a1.931,1.931,0,0,1,.506-.036c.326-.008.8,0,1.379.019a39.309,39.309,0,0,1,4.529.441,33.478,33.478,0,0,1,4.442,1c.558.169,1,.321,1.308.44a1.949,1.949,0,0,1,.464.206c-.013.038-.7-.18-1.82-.473s-2.685-.645-4.433-.92-3.342-.426-4.5-.513a18.336,18.336,0,0,1-1.875-.162" transform="translate(-66.562 -80.413)" fill="#ff9b6c"/>
        <path id="Trazado_638810" data-name="Trazado 638810" d="M226.391,210.295a6.641,6.641,0,0,1-.406,1.393,29.857,29.857,0,0,1-1.38,3.217,29.208,29.208,0,0,1-1.737,3.039,6.593,6.593,0,0,1-.87,1.161,10.875,10.875,0,0,1,.717-1.257c.455-.767,1.057-1.841,1.663-3.058s1.1-2.344,1.439-3.168a10.708,10.708,0,0,1,.574-1.328" transform="translate(-113.498 -107.516)" fill="#ff9b6c"/>
        <path id="Trazado_638811" data-name="Trazado 638811" d="M219.286,207.07a5.506,5.506,0,0,1-.221,1.326,19.429,19.429,0,0,1-2.542,5.946,5.5,5.5,0,0,1-.806,1.076,9.625,9.625,0,0,1,.652-1.17,26.588,26.588,0,0,0,2.522-5.9,9.594,9.594,0,0,1,.394-1.28" transform="translate(-110.286 -105.867)" fill="#ff9b6c"/>
        <path id="Trazado_638812" data-name="Trazado 638812" d="M239.728,199.313a9.1,9.1,0,0,1,1.028,3.76,44.155,44.155,0,0,1-1.028-3.76" transform="translate(-122.558 -101.901)" fill="#ff9b6c"/>
        <path id="Trazado_638813" data-name="Trazado 638813" d="M55.611,196.4a5.574,5.574,0,0,1,.484-7.13,3.732,3.732,0,0,1,.375-4.521,10.908,10.908,0,0,1,4.054-2.686,7.5,7.5,0,0,1,8.736-5.492c1.936-2.856,6.071-3.31,9.385-2.349a8.829,8.829,0,0,0,2.461.534,14.3,14.3,0,0,0,1.835-.257c3.369-.458,6.718,1.909,8.037,5.043A6.213,6.213,0,0,0,91.7,181a8.445,8.445,0,0,0,1.667,1.328,5.384,5.384,0,0,1,2.068,3.976c.057,1.309-.358,2.7.2,3.886.277.6.777,1.075.993,1.7.626,1.8-1.365,3.638-.993,5.5.076.381.248.735.354,1.108a3.321,3.321,0,0,1-.2,2.322,4.778,4.778,0,0,0-.729,1.67,5.4,5.4,0,0,0,.275,1.362c.23,1.114-2.169,5.415-3.13,6.022l-28.775.3a5.378,5.378,0,0,1-4.168-4.624,1.966,1.966,0,0,0-.27-1.058,2.3,2.3,0,0,0-.786-.509c-1.854-.992-2.082-3.536-1.889-5.63a2.56,2.56,0,0,0-.018-.879,3.217,3.217,0,0,0-.681-1.077" transform="translate(-27.888 -88.838)" fill="#263238"/>
        <path id="Trazado_638814" data-name="Trazado 638814" d="M58.3,190.537A22.269,22.269,0,0,1,74.926,180.8c3.905-.33,5.578.372,8.444.941a12.371,12.371,0,0,1,7.351,4.176,20.746,20.746,0,0,1,4.688,9.17,29.787,29.787,0,0,1,.113,9.886,39.242,39.242,0,0,1-4.492,11.995l-5.951,1.136c-4.974.508-10.017,1.015-14.951.207s-9.83-3.1-12.72-7.18c-4.015-5.668-3.136-14.935.888-20.6" transform="translate(-28.018 -92.394)" fill="#263238"/>
        <path id="Trazado_638815" data-name="Trazado 638815" d="M75.279,193.712l11.709-5.6,3.168.152c7.075-.455,12.484,7.015,12.919,12.741.483,6.361.823,14.147.13,18.907-1.393,9.571-9.391,10.9-9.391,10.9l.22,5.668c-1.482,5.075-13.579,5.536-18.4.184l-3.32-39.509a3.36,3.36,0,0,1,2.962-3.447" transform="translate(-36.972 -96.175)" fill="#ffc09d"/>
        <path id="Trazado_638816" data-name="Trazado 638816" d="M106.256,248.661a2.012,2.012,0,0,1,.61-1.286,2.056,2.056,0,0,1,2.48-.311,2.756,2.756,0,0,1,1.219,2.51,2.5,2.5,0,0,1-1.718,1.158,2.961,2.961,0,0,1-.335.034,2.245,2.245,0,0,1-1.553-.5,2,2,0,0,1-.7-1.609" transform="translate(-54.323 -126.171)" fill="#ff9b6c"/>
        <path id="Trazado_638817" data-name="Trazado 638817" d="M128.619,231.145a1.224,1.224,0,0,1-1.165,1.251,1.172,1.172,0,0,1-1.277-1.088,1.225,1.225,0,0,1,1.164-1.252,1.172,1.172,0,0,1,1.279,1.088" transform="translate(-64.509 -117.618)" fill="#263238"/>
        <path id="Trazado_638818" data-name="Trazado 638818" d="M126.217,219.988c-.15.162-1.087-.513-2.405-.493-1.317,0-2.276.693-2.421.533-.071-.07.08-.361.5-.673a3.362,3.362,0,0,1,1.935-.624,3.233,3.233,0,0,1,1.917.591c.409.306.55.593.477.666" transform="translate(-62.054 -111.829)" fill="#263238"/>
        <path id="Trazado_638819" data-name="Trazado 638819" d="M114.651,232.068a8.739,8.739,0,0,1,2.136-.414c.336-.04.654-.11.708-.341a1.716,1.716,0,0,0-.238-.995q-.491-1.216-1.029-2.551a44.033,44.033,0,0,1-2.322-6.675,44.114,44.114,0,0,1,2.854,6.473q.516,1.343.987,2.566a1.947,1.947,0,0,1,.192,1.319.847.847,0,0,1-.547.5,2.3,2.3,0,0,1-.571.087,8.584,8.584,0,0,1-2.17.031" transform="translate(-58.229 -113.036)" fill="#263238"/>
        <path id="Trazado_638820" data-name="Trazado 638820" d="M102.906,272.068a24.3,24.3,0,0,1-12.837-3.247s3.372,6.828,12.921,5.811Z" transform="translate(-46.049 -137.438)" fill="#ff9b6c"/>
        <path id="Trazado_638821" data-name="Trazado 638821" d="M107.316,245.519c.214-.015.236,1.415,1.474,2.415s2.758.823,2.773,1.022c.021.09-.336.283-.979.308a3.564,3.564,0,0,1-2.314-.773,3.1,3.1,0,0,1-1.144-2.026c-.063-.6.092-.954.191-.947" transform="translate(-54.762 -125.524)" fill="#263238"/>
        <path id="Trazado_638822" data-name="Trazado 638822" d="M124.641,210.791c-.217.325-1.23.123-2.408.236-1.182.075-2.151.436-2.414.15-.117-.14.007-.455.412-.785a3.748,3.748,0,0,1,3.885-.311c.45.261.619.552.525.71" transform="translate(-61.237 -107.201)" fill="#263238"/>
        <path id="Trazado_638823" data-name="Trazado 638823" d="M103.653,231.79a1.225,1.225,0,0,0,1.242,1.175A1.172,1.172,0,0,0,106.1,231.8a1.226,1.226,0,0,0-1.241-1.175,1.172,1.172,0,0,0-1.207,1.167" transform="translate(-52.994 -117.909)" fill="#263238"/>
        <path id="Trazado_638824" data-name="Trazado 638824" d="M94.823,221.255c.16.152,1.052-.581,2.369-.644,1.314-.082,2.315.547,2.449.378.067-.075-.1-.355-.538-.64a3.367,3.367,0,0,0-1.971-.5,3.231,3.231,0,0,0-1.876.712c-.389.331-.512.627-.434.694" transform="translate(-48.468 -112.398)" fill="#263238"/>
        <path id="Trazado_638825" data-name="Trazado 638825" d="M95.831,212.444c.274.286,1.275-.075,2.5-.152,1.218-.114,2.266.087,2.488-.238.1-.157-.081-.448-.547-.709a3.773,3.773,0,0,0-2.055-.388,3.723,3.723,0,0,0-1.961.7c-.416.329-.543.644-.421.784" transform="translate(-48.972 -107.849)" fill="#263238"/>
        <path id="Trazado_638826" data-name="Trazado 638826" d="M102.847,199.8a3.816,3.816,0,0,1-2.059-3.534c-.881.254-1.763-.885-2.269-1.649s-1.13-1.153-1.084-2.069a1.033,1.033,0,0,0-.061-.533c-.13-.252-.442-.337-.713-.424a4.395,4.395,0,0,1-2.868-3.078,9.293,9.293,0,0,1-4.5.7,3.552,3.552,0,0,1-6.009-.313,3.184,3.184,0,0,1-2.145,1.553,9.43,9.43,0,0,1-2.722.125,3.761,3.761,0,0,1-2.512,4.238c-.234.07-.5.138-.613.357a.949.949,0,0,0,.095.732,2.961,2.961,0,0,1-2.015,3.753,2.207,2.207,0,0,1-.229,3.457c-.239.142-.552.313-.518.589a.625.625,0,0,0,.142.281,4.293,4.293,0,0,1,1.016,2.176,1.585,1.585,0,0,1-1.314,1.743,2.1,2.1,0,0,1,.821,1.443c0,.57-.577,1.146-1.107.936-.225-.089-3.486-.759-3.628-.955-1.834-2.535.523-5.3.734-8.42s-.834-6.7.75-9.4c.664-1.132,3.579-1.658,4.517-2.576a19.825,19.825,0,0,1,3.628-2.625,18.09,18.09,0,0,1,5.283-2.463c3.546-.8,7.213.512,10.5,2.065a15.409,15.409,0,0,1,3.545,2.131,13.948,13.948,0,0,1,2.968,3.946,17.375,17.375,0,0,1,2.317,6.734" transform="translate(-34.695 -93.868)" fill="#263238"/>
        <path id="Trazado_638827" data-name="Trazado 638827" d="M96.549,191.787a2.511,2.511,0,0,0-.348-.706c-.137-.219-.332-.475-.515-.8a3.055,3.055,0,0,1-.358-1.228,9.527,9.527,0,0,1,.041-1.622,7.212,7.212,0,0,0-.037-1.948,5.468,5.468,0,0,0-.847-2.073,5.361,5.361,0,0,0-.8-.934,8.005,8.005,0,0,0-1.03-.779,4.075,4.075,0,0,1-.99-.867,5.307,5.307,0,0,1-.613-1.239,8.8,8.8,0,0,0-4.1-4.521,7.831,7.831,0,0,0-1.575-.605,7.035,7.035,0,0,0-1.722-.207,8.063,8.063,0,0,0-.884.064c-.294.043-.583.1-.873.153a4.222,4.222,0,0,1-1.753-.011c-.586-.12-1.16-.336-1.766-.491A11.508,11.508,0,0,0,74.6,173.6a9.989,9.989,0,0,0-1.927.341,6.47,6.47,0,0,0-3.317,2.155l-.245.321.105-.041a7.611,7.611,0,0,0-8.851,5.568l.052-.065a20.731,20.731,0,0,0-2.308,1.2,6.908,6.908,0,0,0-1.888,1.666A4.5,4.5,0,0,0,55.349,187a3.1,3.1,0,0,0,.611,2.221l.006-.109a5.432,5.432,0,0,0-1.533,3.357,5.561,5.561,0,0,0,.66,3.264,5.326,5.326,0,0,0,.431.652,7.176,7.176,0,0,1,.448.588,1.406,1.406,0,0,1,.229.645,4.061,4.061,0,0,1-.023.681,10.73,10.73,0,0,0,.053,2.49,5.2,5.2,0,0,0,.632,1.9,3.21,3.21,0,0,0,1.013,1.071c.337.226.636.314.8.437a1.512,1.512,0,0,1,.238.2.757.757,0,0,0-.223-.22c-.165-.132-.463-.23-.789-.457a3.214,3.214,0,0,1-.977-1.067,5.189,5.189,0,0,1-.6-1.876,10.805,10.805,0,0,1-.032-2.466,4.079,4.079,0,0,0,.028-.7,1.524,1.524,0,0,0-.243-.7,7.031,7.031,0,0,0-.452-.6,5.279,5.279,0,0,1-.416-.638,5.429,5.429,0,0,1-.627-3.185,5.281,5.281,0,0,1,1.5-3.255l.053-.052-.046-.058a2.933,2.933,0,0,1-.568-2.1,4.325,4.325,0,0,1,.841-2.166,6.744,6.744,0,0,1,1.844-1.617,20.806,20.806,0,0,1,2.29-1.182l.043-.02.01-.046a7.424,7.424,0,0,1,8.621-5.416l.063.015.043-.056.237-.31a6.275,6.275,0,0,1,3.217-2.089,9.789,9.789,0,0,1,1.885-.334,11.31,11.31,0,0,1,3.715.363c.594.151,1.173.368,1.777.491a4.524,4.524,0,0,0,.917.1,5.459,5.459,0,0,0,.9-.093c.295-.051.583-.11.87-.153a7.962,7.962,0,0,1,.859-.064,6.873,6.873,0,0,1,1.677.2,7.614,7.614,0,0,1,1.539.587,8.654,8.654,0,0,1,4.039,4.423,5.424,5.424,0,0,0,.637,1.27,4.187,4.187,0,0,0,1.028.894,7.948,7.948,0,0,1,1.02.761,5.24,5.24,0,0,1,.786.907,5.36,5.36,0,0,1,.842,2.022,7.132,7.132,0,0,1,.052,1.921,9.418,9.418,0,0,0-.023,1.637,3.1,3.1,0,0,0,.384,1.249c.192.329.391.58.533.795a3.76,3.76,0,0,1,.3.5c.058.119.08.183.085.181" transform="translate(-27.816 -88.741)" fill="#455a64"/>
        <path id="Trazado_638828" data-name="Trazado 638828" d="M90.973,175.717c.01.015.174-.1.494-.253a4.414,4.414,0,0,1,1.432-.408,4.138,4.138,0,0,1,2.154.328A4.279,4.279,0,0,1,97,177.174a3.648,3.648,0,0,1,.321.744.818.818,0,0,1-.052.691l-.161.222.265-.073a2.713,2.713,0,0,1,2.027.255,2.616,2.616,0,0,1,1.1,1.221,2.87,2.87,0,0,1,.249,1.082c.007.263-.015.407,0,.409s.016-.034.031-.1a1.842,1.842,0,0,0,.035-.306,2.738,2.738,0,0,0-1.337-2.448,2.857,2.857,0,0,0-2.161-.3l.1.149a1,1,0,0,0,.086-.854,3.792,3.792,0,0,0-.338-.789,4.391,4.391,0,0,0-2.049-1.86,4.186,4.186,0,0,0-2.245-.3,4.106,4.106,0,0,0-1.451.478,2.861,2.861,0,0,0-.349.225c-.075.058-.113.09-.109.1" transform="translate(-46.511 -89.408)" fill="#455a64"/>
        <path id="Trazado_638829" data-name="Trazado 638829" d="M61.926,203.676c-.006,0,0,.043.015.121a1.116,1.116,0,0,0,.144.318,1.75,1.75,0,0,0,1.052.71,3.343,3.343,0,0,0,1.875-.192,10.709,10.709,0,0,0,1.038-.4,1.8,1.8,0,0,0,.911-.82l.042-.105-.155.046a7.505,7.505,0,0,0,1.938,1.18,3.377,3.377,0,0,0,1.841.2,2.443,2.443,0,0,0,1.138-.509,1.506,1.506,0,0,0,.238-.241c.047-.062.069-.1.065-.1s-.117.113-.349.281a2.536,2.536,0,0,1-1.114.433,3.332,3.332,0,0,1-1.753-.234A7.711,7.711,0,0,1,66.97,203.2l-.1-.083-.051.129-.035.087a1.622,1.622,0,0,1-.815.726c-.335.16-.686.284-1.012.4a3.3,3.3,0,0,1-1.783.228,1.741,1.741,0,0,1-1.021-.618,2.836,2.836,0,0,1-.222-.395" transform="translate(-31.659 -103.845)" fill="#455a64"/>
        <path id="Trazado_638830" data-name="Trazado 638830" d="M70.784,236.445c-.011-.711-.855-2.378-1.559-2.478-1.88-.268-5.259-.074-5.229,4.691.042,6.513,6.573,5.128,6.583,4.942.008-.146.243-4.7.205-7.154" transform="translate(-32.719 -119.579)" fill="#ffc09d"/>
        <path id="Trazado_638831" data-name="Trazado 638831" d="M70.7,243.528c-.029-.021-.113.08-.3.169a1.136,1.136,0,0,1-.848.023,2.807,2.807,0,0,1-1.315-2.511,3.745,3.745,0,0,1,.307-1.627,1.31,1.31,0,0,1,.848-.876.578.578,0,0,1,.672.306c.088.182.047.312.082.323.019.017.139-.109.085-.378a.723.723,0,0,0-.259-.407.855.855,0,0,0-.629-.162,1.6,1.6,0,0,0-1.179,1.018,3.855,3.855,0,0,0-.382,1.818,2.945,2.945,0,0,0,1.673,2.8,1.215,1.215,0,0,0,1.037-.179c.2-.161.234-.307.211-.319" transform="translate(-34.651 -121.876)" fill="#ff9b6c"/>
        <g id="Grupo_882543" data-name="Grupo 882543" transform="translate(44.462 106.412)" opacity="0.3">
          <g id="Grupo_882542" data-name="Grupo 882542">
            <g id="Grupo_882541" data-name="Grupo 882541" clip-path="url(#clip-path-12)">
              <path id="Trazado_638832" data-name="Trazado 638832" d="M101.976,223.232a5.5,5.5,0,1,1-5.5-5.5,5.5,5.5,0,0,1,5.5,5.5" transform="translate(-90.972 -217.73)" fill="#fff"/>
            </g>
          </g>
        </g>
        <g id="Grupo_882546" data-name="Grupo 882546" transform="translate(57.771 106.412)" opacity="0.3">
          <g id="Grupo_882545" data-name="Grupo 882545">
            <g id="Grupo_882544" data-name="Grupo 882544" clip-path="url(#clip-path-13)">
              <path id="Trazado_638833" data-name="Trazado 638833" d="M129.208,223.232a5.5,5.5,0,1,1-5.5-5.5,5.5,5.5,0,0,1,5.5,5.5" transform="translate(-118.204 -217.73)" fill="#fff"/>
            </g>
          </g>
        </g>
        <path id="Trazado_638834" data-name="Trazado 638834" d="M115.616,226.865a2.474,2.474,0,0,0-2.122.111c-.022-.022.047-.143.226-.275a1.574,1.574,0,0,1,1.643-.086c.191.112.273.225.254.249" transform="translate(-58.023 -115.762)" fill="#455a64"/>
        <path id="Trazado_638835" data-name="Trazado 638835" d="M83.2,228.085a5.864,5.864,0,0,1-1.113.514c-.7.288-1.671.668-2.751,1.074s-2.062.759-2.777,1a3.72,3.72,0,0,1-.878.228c-.217.018-.336-.015-.335-.03a1.768,1.768,0,0,1,.32-.068,5.309,5.309,0,0,0,.829-.3c.7-.287,1.671-.668,2.752-1.074s2.061-.759,2.777-1a5.886,5.886,0,0,1,1.177-.346" transform="translate(-38.523 -116.609)" fill="#455a64"/>
        <path id="Trazado_638836" data-name="Trazado 638836" d="M254.218,388.4a4.594,4.594,0,0,1,.465,1.945,22.868,22.868,0,0,0,.272,2.586l.186,4.291a1.921,1.921,0,0,1-3.537.207c-.233.6-.175.96-.692,1.345a2.052,2.052,0,0,1-1.826.359,1.47,1.47,0,0,1-1.02-1.47,2.387,2.387,0,0,1-4.015-.125,2.5,2.5,0,0,1-.325-.825.98.98,0,0,1-.043-.336.406.406,0,0,1,.06-.143c.125-.207.283-.389.395-.606.043-.082.081-.165.117-.25a4.489,4.489,0,0,0,.314-1.214,4.072,4.072,0,0,1,.058-.59,2.225,2.225,0,0,1,.181-.34,5.942,5.942,0,0,0,.344-2.431,4.683,4.683,0,0,1,.588-2.593,1.728,1.728,0,0,1,2.336-.589,1.177,1.177,0,0,1,.947-1.237,1.7,1.7,0,0,1,1.54.568,3.161,3.161,0,0,1,.707,1.541,1.3,1.3,0,0,1,1.359-1.187,2,2,0,0,1,1.589,1.093" transform="translate(-124.583 -197.529)" fill="#ffc09d"/>
        <path id="Trazado_638837" data-name="Trazado 638837" d="M236.959,402.808a1.928,1.928,0,0,1-1.5-.587,3.156,3.156,0,0,1-.366-2.141c.775-.1,1.173-.112,1.949-.217.163-.022.3.026.435-.063.367-.233.354-1.083.518-1.485a1.479,1.479,0,0,1,1.907-.7,1.985,1.985,0,0,1,1.1,1.828,3.066,3.066,0,0,1-.888,2.023,4.283,4.283,0,0,1-3.16,1.342" transform="translate(-120.176 -203.227)" fill="#ffc09d"/>
        <path id="Trazado_638838" data-name="Trazado 638838" d="M252.385,399.211a50.518,50.518,0,0,0,.012-10.262,50.613,50.613,0,0,0-.012,10.262" transform="translate(-128.904 -198.855)" fill="#ff9b6c"/>
        <path id="Trazado_638839" data-name="Trazado 638839" d="M259.539,399.631a21.784,21.784,0,0,0-.312-9.269,37.957,37.957,0,0,0,.133,4.636,37.99,37.99,0,0,0,.178,4.633" transform="translate(-132.506 -199.577)" fill="#ff9b6c"/>
        <path id="Trazado_638840" data-name="Trazado 638840" d="M266.5,400.72a10.826,10.826,0,0,0,.139-3.85,15.12,15.12,0,0,0-.531-3.808,13.574,13.574,0,0,0,.011,3.843,21.25,21.25,0,0,0,.382,3.814" transform="translate(-135.993 -200.958)" fill="#ff9b6c"/>
        <path id="Trazado_638841" data-name="Trazado 638841" d="M241.252,403.031c-.007.062.361.164.9-.051a2.888,2.888,0,0,0,1.5-1.577,5.8,5.8,0,0,0,.461-2.095c-.03-.639-.481-.848-.5-.767-.044.056.195.289.128.759a10.4,10.4,0,0,1-.57,1.893,3.128,3.128,0,0,1-1.186,1.457c-.414.261-.741.3-.738.381" transform="translate(-123.343 -203.75)" fill="#ff9b6c"/>
        <path id="Trazado_638842" data-name="Trazado 638842" d="M327.359,185.615a4.6,4.6,0,0,0,.465-1.945,22.873,22.873,0,0,1,.272-2.586l.185-4.291a1.92,1.92,0,0,0-3.537-.207c-.233-.6-.175-.96-.692-1.345a2.053,2.053,0,0,0-1.826-.359,1.47,1.47,0,0,0-1.02,1.47,2.418,2.418,0,0,0-4.34.951.98.98,0,0,0-.043.336.4.4,0,0,0,.06.144c.125.207.283.388.395.606.043.082.081.166.117.25a4.53,4.53,0,0,1,.314,1.214,4.073,4.073,0,0,0,.058.59,2.23,2.23,0,0,0,.181.34,5.942,5.942,0,0,1,.344,2.431,4.683,4.683,0,0,0,.588,2.593,1.728,1.728,0,0,0,2.336.589,1.177,1.177,0,0,0,.947,1.237,1.7,1.7,0,0,0,1.54-.568,3.164,3.164,0,0,0,.707-1.541,1.3,1.3,0,0,0,1.359,1.187,2,2,0,0,0,1.589-1.093" transform="translate(-161.977 -89.367)" fill="#ffc09d"/>
        <path id="Trazado_638843" data-name="Trazado 638843" d="M310.1,179.1a1.928,1.928,0,0,0-1.5.587,3.159,3.159,0,0,0-.366,2.141c.775.1,1.174.113,1.949.217.163.022.3-.026.435.063.367.233.354,1.083.518,1.485a1.478,1.478,0,0,0,1.906.7,1.985,1.985,0,0,0,1.1-1.828,3.066,3.066,0,0,0-.888-2.023,4.282,4.282,0,0,0-3.16-1.342" transform="translate(-157.571 -91.569)" fill="#ffc09d"/>
        <path id="Trazado_638844" data-name="Trazado 638844" d="M325.526,177.52a25.566,25.566,0,0,1,.267,5.13,25.466,25.466,0,0,1-.255,5.131,25.479,25.479,0,0,1-.267-5.131,25.382,25.382,0,0,1,.255-5.131" transform="translate(-166.299 -90.759)" fill="#ff9b6c"/>
        <path id="Trazado_638845" data-name="Trazado 638845" d="M332.68,178.139a21.785,21.785,0,0,1-.312,9.269,37.945,37.945,0,0,1,.133-4.636,37.979,37.979,0,0,1,.178-4.633" transform="translate(-169.9 -91.076)" fill="#ff9b6c"/>
        <path id="Trazado_638846" data-name="Trazado 638846" d="M339.64,178.735a10.826,10.826,0,0,1,.139,3.85,15.119,15.119,0,0,1-.531,3.808,13.574,13.574,0,0,1,.011-3.843,21.253,21.253,0,0,1,.382-3.814" transform="translate(-173.388 -91.38)" fill="#ff9b6c"/>
        <path id="Trazado_638847" data-name="Trazado 638847" d="M314.394,179.638c-.007-.062.361-.164.9.051a2.889,2.889,0,0,1,1.5,1.577,5.8,5.8,0,0,1,.461,2.095c-.03.639-.481.848-.5.767-.044-.056.195-.289.128-.759a10.349,10.349,0,0,0-.57-1.893,3.136,3.136,0,0,0-1.186-1.457c-.414-.26-.741-.3-.738-.381" transform="translate(-160.738 -91.802)" fill="#ff9b6c"/>
      </g>
    </g>
    <g id="Grupo_882553" data-name="Grupo 882553">
      <g id="Grupo_882552" data-name="Grupo 882552" clip-path="url(#clip-path)">
        <path id="Trazado_638848" data-name="Trazado 638848" d="M590.111,207.426a22.306,22.306,0,0,0-16.447-10.1c-3.9-.413-5.594.255-8.476.763a12.386,12.386,0,0,0-7.449,4.027,20.776,20.776,0,0,0-4.89,9.083,29.849,29.849,0,0,0-.323,9.9,39.309,39.309,0,0,0,4.245,12.107l5.935,1.263c4.97.614,10.009,1.228,14.967.524s9.91-2.9,12.89-6.921c4.141-5.591,3.457-14.889-.453-20.644" transform="translate(-282.348 -100.819)" fill="#263238"/>
        <path id="Trazado_638849" data-name="Trazado 638849" d="M583.176,210.414l-11.607-5.856-3.176.085c-7.075-.606-12.65,6.761-13.207,12.486-.619,6.36-1.124,14.149-.53,18.931,1.192,9.614,9.174,11.117,9.174,11.117s-.613,5.012-.955,8.174l18.542.312,4.653-41.736a3.365,3.365,0,0,0-2.893-3.514" transform="translate(-283.439 -104.583)" fill="#ffc9bb"/>
        <path id="Trazado_638850" data-name="Trazado 638850" d="M579.748,265.063a2.016,2.016,0,0,0-.584-1.3,2.06,2.06,0,0,0-2.477-.364,2.762,2.762,0,0,0-1.274,2.488,2.508,2.508,0,0,0,1.7,1.2,2.955,2.955,0,0,0,.335.041,2.252,2.252,0,0,0,1.566-.464,2.009,2.009,0,0,0,.738-1.6" transform="translate(-294.185 -134.533)" fill="#f2a191"/>
        <path id="Trazado_638851" data-name="Trazado 638851" d="M559.786,246.737a1.227,1.227,0,0,0,1.141,1.278,1.173,1.173,0,0,0,1.3-1.063,1.227,1.227,0,0,0-1.139-1.278,1.174,1.174,0,0,0-1.3,1.063" transform="translate(-286.196 -125.601)" fill="#263238"/>
        <path id="Trazado_638852" data-name="Trazado 638852" d="M559.831,235.917c.147.165,1.1-.491,2.419-.442,1.319.029,2.264.741,2.413.585.073-.069-.072-.363-.483-.684a3.368,3.368,0,0,0-1.925-.666,3.232,3.232,0,0,0-1.932.552c-.417.3-.564.582-.492.656" transform="translate(-286.211 -119.997)" fill="#263238"/>
        <path id="Trazado_638853" data-name="Trazado 638853" d="M571.755,248.314a8.756,8.756,0,0,0-2.13-.46c-.336-.046-.653-.124-.7-.356a1.712,1.712,0,0,1,.259-.991l1.084-2.533a44.189,44.189,0,0,0,2.467-6.636,44.2,44.2,0,0,0-3,6.422q-.545,1.334-1.042,2.549a1.95,1.95,0,0,0-.22,1.317.848.848,0,0,0,.537.512,2.311,2.311,0,0,0,.57.1,8.6,8.6,0,0,0,2.172.077" transform="translate(-290.614 -121.342)" fill="#263238"/>
        <path id="Trazado_638854" data-name="Trazado 638854" d="M573.406,288.619a24.345,24.345,0,0,0,12.924-2.98s-3.638,6.512-13.178,5.292Z" transform="translate(-293.03 -146.036)" fill="#f2a191"/>
        <path id="Trazado_638855" data-name="Trazado 638855" d="M559.814,227.8c.211.33,1.229.149,2.406.287,1.182.1,2.145.482,2.414.2.121-.138,0-.456-.4-.795a3.752,3.752,0,0,0-3.884-.393c-.455.252-.631.54-.541.7" transform="translate(-286.2 -115.917)" fill="#263238"/>
        <path id="Trazado_638856" data-name="Trazado 638856" d="M584.943,248.628a1.227,1.227,0,0,1-1.269,1.15,1.174,1.174,0,0,1-1.183-1.194,1.227,1.227,0,0,1,1.267-1.151,1.174,1.174,0,0,1,1.184,1.194" transform="translate(-297.805 -126.503)" fill="#263238"/>
        <path id="Trazado_638857" data-name="Trazado 638857" d="M591.251,237.85c-.163.149-1.042-.6-2.359-.695-1.315-.109-2.33.5-2.461.327-.065-.077.11-.353.553-.63a3.371,3.371,0,0,1,1.984-.459,3.238,3.238,0,0,1,1.864.752c.383.34.5.638.419.7" transform="translate(-299.813 -120.854)" fill="#263238"/>
        <path id="Trazado_638858" data-name="Trazado 638858" d="M587.506,228.28c-.276.285-1.277-.081-2.5-.163-1.22-.12-2.27.078-2.492-.248-.1-.158.084-.449.552-.708a3.778,3.778,0,0,1,2.059-.38,3.732,3.732,0,0,1,1.961.711c.415.331.541.648.418.787" transform="translate(-297.805 -115.937)" fill="#263238"/>
        <path id="Trazado_638859" data-name="Trazado 638859" d="M612.914,253.532c.026-.712.906-2.363,1.614-2.449,1.887-.229,5.268.037,5.137,4.808-.18,6.522-6.69,5-6.7,4.809,0-.147-.144-4.709-.054-7.168" transform="translate(-313.344 -128.341)" fill="#ffc9bb"/>
        <path id="Trazado_638860" data-name="Trazado 638860" d="M616.865,260.683c.029-.02.111.083.3.176a1.137,1.137,0,0,0,.849.041,2.811,2.811,0,0,0,1.37-2.486,3.765,3.765,0,0,0-.273-1.636,1.313,1.313,0,0,0-.831-.895.578.578,0,0,0-.678.292c-.093.18-.055.312-.09.322-.018.016-.137-.113-.077-.381a.726.726,0,0,1,.268-.4.858.858,0,0,1,.632-.149,1.6,1.6,0,0,1,1.159,1.044,3.857,3.857,0,0,1,.344,1.828,2.95,2.95,0,0,1-1.734,2.771,1.215,1.215,0,0,1-1.034-.2c-.2-.166-.229-.313-.205-.324" transform="translate(-315.376 -130.656)" fill="#f2a191"/>
        <path id="Trazado_638861" data-name="Trazado 638861" d="M595.4,226.276l-1.8,1.563c-10.381-6.829-20.937-25.415-18.21-24.655a20.8,20.8,0,0,1,10.265-.2c5.211,1.373,15.012,4.916,14.3,11.143s-4.556,12.147-4.556,12.147" transform="translate(-293.95 -103.491)" fill="#263238"/>
        <path id="Trazado_638862" data-name="Trazado 638862" d="M618.838,196.879c-2.527,1.477-4.779,5.783-3.745,8.522a8.586,8.586,0,0,0,10.973,9.6,8.26,8.26,0,0,0,4.654-3.589,9.934,9.934,0,0,0,1.016-6.9,10.988,10.988,0,0,0-4.568-7.219,8.117,8.117,0,0,0-8.33-.411" transform="translate(-314.342 -100.165)" fill="#263238"/>
        <path id="Trazado_638863" data-name="Trazado 638863" d="M601.29,227.067a6.253,6.253,0,0,1-1.188-.514c-.749-.364-1.819-.918-3.112-1.657a47.072,47.072,0,0,1-9.353-6.916,31.268,31.268,0,0,1-6.767-9.45,22.564,22.564,0,0,1-1.209-3.321,5.628,5.628,0,0,1-.263-1.269c.093-.028.5,1.78,1.788,4.442a33.365,33.365,0,0,0,6.795,9.244,52.7,52.7,0,0,0,9.187,6.969c1.264.774,2.3,1.373,3.024,1.788a6.76,6.76,0,0,1,1.1.684" transform="translate(-296.222 -104.267)" fill="#455a64"/>
        <path id="Trazado_638864" data-name="Trazado 638864" d="M625.407,221.985c-.089,0-.128-1.215-.492-3.13a24.715,24.715,0,0,0-7.126-13.155c-1.405-1.351-2.4-2.049-2.353-2.122a2.853,2.853,0,0,1,.744.429,15.972,15.972,0,0,1,1.846,1.436,22.454,22.454,0,0,1,7.233,13.353,15.894,15.894,0,0,1,.2,2.331,2.865,2.865,0,0,1-.047.858" transform="translate(-314.648 -104.08)" fill="#455a64"/>
        <path id="Trazado_638865" data-name="Trazado 638865" d="M616.557,269.639a2.443,2.443,0,1,1-2.443-2.443,2.443,2.443,0,0,1,2.443,2.443" transform="translate(-312.724 -136.607)" fill="#263238"/>
        <path id="Trazado_638866" data-name="Trazado 638866" d="M574.61,265.2c.027-.231,1.552.035,2.864-1.079s1.431-2.766,1.646-2.741c.1,0,.233.414.13,1.1a3.854,3.854,0,0,1-1.287,2.3,3.356,3.356,0,0,1-2.385.807c-.648-.054-1-.29-.968-.393" transform="translate(-293.775 -133.632)" fill="#263238"/>
        <path id="Trazado_638867" data-name="Trazado 638867" d="M556.583,300.268s6.82,3.521,6.22,14.761c-.614,11.5-14.86,46.463-14.86,46.463H512.97l-7.682.319,17.95-50.124,15.444-15.106Z" transform="translate(-258.335 -151.63)" fill="#617a0b"/>
        <g id="Grupo_882551" data-name="Grupo 882551" transform="translate(252.724 179.084)" opacity="0.3">
          <g id="Grupo_882550" data-name="Grupo 882550">
            <g id="Grupo_882549" data-name="Grupo 882549" clip-path="url(#clip-path-15)">
              <path id="Trazado_638868" data-name="Trazado 638868" d="M517.1,395.5s4.06.168,9.978-6.475,7.1-9.245,7.1-9.245l5.271,1.274,6.148-14.632-11.419,3.965Z" transform="translate(-517.096 -366.421)"/>
            </g>
          </g>
        </g>
        <path id="Trazado_638869" data-name="Trazado 638869" d="M511.96,331.205s12.213-22.9,16-28.665c3.443-5.244,9.476-8.734,15.718-5.57,5.353,2.714,8.806,10.492,4.862,20.575-4.127,10.554-12.08,25.2-12.08,25.2Z" transform="translate(-261.746 -151.214)" fill="#617a0b"/>
        <path id="Trazado_638870" data-name="Trazado 638870" d="M480.809,371.856l-8.277,13.161-27.668.8-.834,9.135s30.105,6.245,35.711,3.325c6.171-3.214,15.288-19.878,15.288-19.878Z" transform="translate(-227.016 -190.116)" fill="#ffc9bb"/>
        <path id="Trazado_638871" data-name="Trazado 638871" d="M432.258,392.55s-2.691-5.374-7.57-4.418c0,0-6.761-6.4-8.259-3.926-1.082,1.788.964,2.624,2.853,5.111a43.758,43.758,0,0,1,3.5,5.648l6.8,1.107Z" transform="translate(-212.751 -196.139)" fill="#ffc9bb"/>
        <path id="Trazado_638872" data-name="Trazado 638872" d="M396.921,401.809s10.181,5.932,11.948,6.019,12.188,1.975,12.188,1.975l.878-9.613-25.014.972" transform="translate(-202.931 -204.602)" fill="#ffc9bb"/>
        <path id="Trazado_638873" data-name="Trazado 638873" d="M580.906,323.839a1.039,1.039,0,0,1,.066-.256l.236-.717.909-2.624c.381-1.107.844-2.425,1.277-3.908a21.42,21.42,0,0,0,.926-4.914,16.748,16.748,0,0,0-.489-4.96,9.692,9.692,0,0,0-1.869-3.586c-.736-.9-1.419-1.564-1.874-2.036l-.524-.544a.133.133,0,1,1,.036-.037l.557.51a23.443,23.443,0,0,1,1.944,1.992,9.667,9.667,0,0,1,1.956,3.637,16.547,16.547,0,0,1,.518,5.036,20.973,20.973,0,0,1-.955,4.968c-.448,1.488-.929,2.8-1.333,3.9s-.746,1.986-.984,2.6l-.281.7a1.037,1.037,0,0,1-.114.239" transform="translate(-296.221 -153.426)" fill="#263238"/>
      </g>
    </g>
  </g>
</svg>
