<svg id="Grupo_882518" data-name="Grupo 882518" xmlns="http://www.w3.org/2000/svg" xmlns:xlink="http://www.w3.org/1999/xlink" width="363.382" height="240.879" viewBox="0 0 363.382 240.879">
  <defs>
    <clipPath id="clip-path">
      <rect id="Rectángulo_330570" data-name="Rectángulo 330570" width="363.382" height="240.879" fill="none"/>
    </clipPath>
    <clipPath id="clip-path-4">
      <rect id="Rectángulo_330550" data-name="Rectángulo 330550" width="67.076" height="111.763" fill="none"/>
    </clipPath>
    <clipPath id="clip-path-6">
      <rect id="Rectángulo_330555" data-name="Rectángulo 330555" width="59.09" height="79.029" fill="none"/>
    </clipPath>
    <clipPath id="clip-path-7">
      <rect id="Rectángulo_330559" data-name="Rectángulo 330559" width="63.352" height="53.812" fill="none"/>
    </clipPath>
    <clipPath id="clip-path-9">
      <rect id="Rectángulo_330562" data-name="Rectángulo 330562" width="55.741" height="49.836" fill="none"/>
    </clipPath>
    <clipPath id="clip-path-10">
      <rect id="Rectángulo_330563" data-name="Rectángulo 330563" width="2.298" height="2.255" fill="none"/>
    </clipPath>
    <clipPath id="clip-path-11">
      <rect id="Rectángulo_330564" data-name="Rectángulo 330564" width="7.022" height="6.559" fill="none"/>
    </clipPath>
    <clipPath id="clip-path-12">
      <rect id="Rectángulo_330565" data-name="Rectángulo 330565" width="4.176" height="26.685" fill="none"/>
    </clipPath>
    <clipPath id="clip-path-14">
      <rect id="Rectángulo_330567" data-name="Rectángulo 330567" width="26.909" height="19.091" fill="none"/>
    </clipPath>
    <clipPath id="clip-path-15">
      <rect id="Rectángulo_330568" data-name="Rectángulo 330568" width="15.623" height="19.616" fill="none"/>
    </clipPath>
  </defs>
  <g id="Grupo_882517" data-name="Grupo 882517" clip-path="url(#clip-path)">
    <g id="Grupo_882481" data-name="Grupo 882481">
      <g id="Grupo_882480" data-name="Grupo 882480" clip-path="url(#clip-path)">
        <path id="Trazado_638543" data-name="Trazado 638543" d="M496.778,81.074A33.151,33.151,0,1,1,526.7,76.188a32.987,32.987,0,0,1-29.923,4.887m19.708-60.985a30.92,30.92,0,1,0,15.364,11.03,30.93,30.93,0,0,0-15.364-11.03" transform="translate(-209.775 -7.248)" fill="#e0e0e0"/>
        <path id="Trazado_638544" data-name="Trazado 638544" d="M597.688,154.109h0a4.122,4.122,0,0,1-5.8-.578l-26.168-31.95a.708.708,0,0,1,.1-1l4.206-3.445a.708.708,0,0,1,.981.081l27.172,30.98a4.122,4.122,0,0,1-.488,5.908" transform="translate(-250.401 -51.793)" fill="#e0e0e0"/>
        <path id="Trazado_638545" data-name="Trazado 638545" d="M497.8,77.907a33.151,33.151,0,1,1,29.923-4.887A32.987,32.987,0,0,1,497.8,77.907M517.5,16.922a30.92,30.92,0,1,0,15.364,11.03A30.93,30.93,0,0,0,517.5,16.922" transform="translate(-210.226 -5.846)" fill="#ebebeb"/>
        <path id="Trazado_638546" data-name="Trazado 638546" d="M599.158,151.469l-1.179.965a2.653,2.653,0,0,1-3.733-.372L566.06,117.65l5.283-4.327,28.186,34.414a2.652,2.652,0,0,1-.372,3.732" transform="translate(-250.623 -50.174)" fill="#ebebeb"/>
        <path id="Trazado_638547" data-name="Trazado 638547" d="M488.426,48.605a6.476,6.476,0,0,1,.047-1.04,9.289,9.289,0,0,1,.146-1.213,15.37,15.37,0,0,1,.309-1.59q.11-.44.228-.916c.082-.317.2-.637.31-.974.2-.679.507-1.37.81-2.105a23.642,23.642,0,0,1,6.12-8.246c.616-.5,1.189-1,1.781-1.385.291-.2.562-.408.843-.578l.81-.483a15.276,15.276,0,0,1,1.432-.757,9.2,9.2,0,0,1,1.119-.491,6.413,6.413,0,0,1,.981-.346,6.6,6.6,0,0,1-.933.459,10.9,10.9,0,0,0-1.088.536c-.414.229-.9.458-1.4.791l-.791.5c-.274.174-.538.386-.823.587-.578.394-1.139.889-1.742,1.392a24.394,24.394,0,0,0-6.046,8.146c-.306.723-.619,1.4-.828,2.07-.11.331-.236.645-.324.958s-.167.612-.245.9c-.175.57-.254,1.1-.352,1.566a10.779,10.779,0,0,0-.2,1.2,6.538,6.538,0,0,1-.169,1.025" transform="translate(-216.247 -12.609)" fill="#e0e0e0"/>
        <path id="Trazado_638548" data-name="Trazado 638548" d="M181.988,157.827H133.656l-21.14-25.78.431-.353L133.92,157.27h48.068Z" transform="translate(-49.817 -58.308)" fill="#e0e0e0"/>
        <path id="Trazado_638549" data-name="Trazado 638549" d="M237.184,176.577a1.818,1.818,0,1,1-1.818-1.818,1.818,1.818,0,0,1,1.818,1.818" transform="translate(-103.403 -77.375)" fill="#e0e0e0"/>
        <path id="Trazado_638550" data-name="Trazado 638550" d="M37.31,74.572a27.568,27.568,0,1,1,28.007,27.246A27.669,27.669,0,0,1,37.31,74.572m40.743-.658A13.181,13.181,0,1,0,65.086,87.368,13.224,13.224,0,0,0,78.053,73.915" transform="translate(-16.517 -20.558)" fill="#f5f5f5"/>
        <path id="Trazado_638551" data-name="Trazado 638551" d="M37.311,74.575A27.667,27.667,0,0,1,64.432,46.439l.231,14.451a13.242,13.242,0,0,0,.424,26.48l.23,14.451A27.657,27.657,0,0,1,37.311,74.575" transform="translate(-16.518 -20.561)" fill="#e0e0e0"/>
        <path id="Trazado_638552" data-name="Trazado 638552" d="M81.542,42.448a31.5,31.5,0,0,1,32.251,31.376l-16.828.271c-.137-8.541-6.636-13.918-15.138-13.781Z" transform="translate(-36.103 -18.792)" fill="#ebebeb"/>
        <path id="Trazado_638553" data-name="Trazado 638553" d="M211.9,18.548A16.326,16.326,0,1,1,193.4,4.777a16.309,16.309,0,0,1,18.5,13.771" transform="translate(-79.437 -2.039)" fill="#f5f5f5"/>
        <path id="Trazado_638554" data-name="Trazado 638554" d="M211.143,22.187a12.442,12.442,0,1,1-14.1-10.495,12.428,12.428,0,0,1,14.1,10.495" transform="translate(-82.523 -5.119)" fill="#ebebeb"/>
        <path id="Trazado_638555" data-name="Trazado 638555" d="M210.905,21.428a7.4,7.4,0,0,1-.541-1.433,13.214,13.214,0,0,0-1.969-3.568,12.717,12.717,0,0,0-1.955-2,12.47,12.47,0,0,0-2.718-1.68,12.2,12.2,0,0,0-3.383-.974,12.141,12.141,0,0,0-1.861-.109,12.157,12.157,0,0,0-3.77.669,12.194,12.194,0,0,0-1.711.743,12.217,12.217,0,0,0-2.84,2.079,12.466,12.466,0,0,0-1.974,2.514,12.752,12.752,0,0,0-1.147,2.551,13.2,13.2,0,0,0-.619,4.026,7.274,7.274,0,0,1-.014,1.531,3.655,3.655,0,0,1-.357-1.511,11.514,11.514,0,0,1,.343-4.235,12.458,12.458,0,0,1,3.145-5.494,11.971,11.971,0,0,1,1.391-1.229,12.166,12.166,0,0,1,1.631-1.053,12.72,12.72,0,0,1,1.839-.815,12.768,12.768,0,0,1,4.066-.721,12.636,12.636,0,0,1,2.008.132,12.667,12.667,0,0,1,3.623,1.1,12.455,12.455,0,0,1,4.845,4.076,11.507,11.507,0,0,1,1.781,3.858,3.647,3.647,0,0,1,.186,1.542" transform="translate(-82.344 -4.744)" fill="#e0e0e0"/>
        <path id="Trazado_638556" data-name="Trazado 638556" d="M206.785,34.087l.343,2.14-1.911.305-.333-2.082a9.176,9.176,0,0,1-5-.767l.677-2.5a7.819,7.819,0,0,0,3.924.763l-.511-3.191c-2.2-.176-4.686-.5-5.123-3.236-.324-2.025.869-4,3.832-4.826l-.339-2.121,1.911-.306.333,2.083a8.753,8.753,0,0,1,4.065.544l-.579,2.5a7.94,7.94,0,0,0-3.083-.526l.52,3.249c2.2.157,4.645.491,5.076,3.185.318,1.988-.859,3.939-3.8,4.783m-3.263-8.14-.435-2.713c-.976.391-1.288,1.01-1.187,1.641.108.668.738.94,1.622,1.072m4.024,4.079c-.108-.669-.719-.943-1.587-1.1l.422,2.637c.922-.363,1.262-.927,1.165-1.538" transform="translate(-88.018 -8.087)" fill="#e0e0e0"/>
        <path id="Trazado_638557" data-name="Trazado 638557" d="M21.546,211.857a11.806,11.806,0,1,1-3.1-16.386,11.793,11.793,0,0,1,3.1,16.386" transform="translate(0 -85.631)" fill="#f5f5f5"/>
        <path id="Trazado_638558" data-name="Trazado 638558" d="M21.457,212.5a9,9,0,1,1-2.364-12.487A8.986,8.986,0,0,1,21.457,212.5" transform="translate(-2.231 -87.86)" fill="#ebebeb"/>
        <path id="Trazado_638559" data-name="Trazado 638559" d="M22.731,212.014a5.316,5.316,0,0,1,.414-1.028,9.533,9.533,0,0,0,.7-2.862,9.2,9.2,0,0,0-.061-2.022,9.005,9.005,0,0,0-.624-2.226,8.81,8.81,0,0,0-1.323-2.174,8.71,8.71,0,0,0-.937-.968,9.531,9.531,0,0,0-1.107-.838,9.646,9.646,0,0,0-1.226-.653,8.833,8.833,0,0,0-1.274-.442,8.5,8.5,0,0,0-1.281-.237,8.36,8.36,0,0,0-1.249-.048,9.027,9.027,0,0,0-2.281.372,9.248,9.248,0,0,0-1.86.8,9.544,9.544,0,0,0-2.3,1.839c-.476.518-.712.838-.757.808a2.636,2.636,0,0,1,.551-.979,8.31,8.31,0,0,1,2.256-2.086,9.011,9.011,0,0,1,4.364-1.384,8.7,8.7,0,0,1,1.342.027,8.847,8.847,0,0,1,1.383.238,9.109,9.109,0,0,1,1.378.468,9.185,9.185,0,0,1,2.517,1.607,9.2,9.2,0,0,1,1,1.053,9.2,9.2,0,0,1,1.388,2.361,9.018,9.018,0,0,1,.582,4.541,8.331,8.331,0,0,1-.941,2.925c-.353.635-.622.934-.656.912" transform="translate(-3.347 -87.607)" fill="#e0e0e0"/>
        <path id="Trazado_638560" data-name="Trazado 638560" d="M14.486,215.256l-.865,1.307-1.166-.773.843-1.272a6.626,6.626,0,0,1-2.286-2.857l1.584-1a5.664,5.664,0,0,0,1.715,2.328l1.291-1.949c-1.087-1.172-2.247-2.562-1.142-4.23.819-1.237,2.42-1.7,4.4-.692l.858-1.3,1.166.772-.843,1.272a6.326,6.326,0,0,1,1.9,2.28L20.4,210.2a5.744,5.744,0,0,0-1.383-1.789l-1.313,1.984c1.094,1.16,2.231,2.535,1.142,4.18-.8,1.213-2.386,1.676-4.364.684m2.249-5.929,1.1-1.656c-.711-.27-1.18-.094-1.435.291-.27.408-.067.862.338,1.365m.144,4.141c.27-.408.079-.854-.306-1.362l-1.067,1.61c.668.259,1.126.125,1.373-.248" transform="translate(-4.875 -90.686)" fill="#e0e0e0"/>
        <path id="Trazado_638561" data-name="Trazado 638561" d="M386.861,45.738a11.806,11.806,0,1,1-12.782-10.711,11.793,11.793,0,0,1,12.782,10.711" transform="translate(-160.848 -15.488)" fill="#f5f5f5"/>
        <path id="Trazado_638562" data-name="Trazado 638562" d="M386.295,48.208a9,9,0,1,1-9.741-8.163,8.987,8.987,0,0,1,9.741,8.163" transform="translate(-163.08 -17.715)" fill="#ebebeb"/>
        <path id="Trazado_638563" data-name="Trazado 638563" d="M386.157,47.657a5.341,5.341,0,0,1-.33-1.057,9.555,9.555,0,0,0-1.273-2.658,9.174,9.174,0,0,0-1.328-1.525,9.031,9.031,0,0,0-1.893-1.327,8.821,8.821,0,0,0-2.4-.843,8.716,8.716,0,0,0-1.339-.156,8.789,8.789,0,0,0-2.749.326,8.729,8.729,0,0,0-1.266.465,8.816,8.816,0,0,0-2.137,1.383A9,9,0,0,0,369.911,44a9.236,9.236,0,0,0-.935,1.794,9.541,9.541,0,0,0-.614,2.881,5.36,5.36,0,0,1-.074,1.105,2.632,2.632,0,0,1-.2-1.106,8.324,8.324,0,0,1,.424-3.043,9.015,9.015,0,0,1,2.5-3.836,8.632,8.632,0,0,1,1.056-.83,8.831,8.831,0,0,1,1.22-.692,9.141,9.141,0,0,1,1.362-.512,9.22,9.22,0,0,1,2.966-.352,9.279,9.279,0,0,1,1.444.179,9.159,9.159,0,0,1,2.569.947,9.006,9.006,0,0,1,3.328,3.144,8.338,8.338,0,0,1,1.125,2.859,2.647,2.647,0,0,1,.07,1.121" transform="translate(-162.969 -17.444)" fill="#e0e0e0"/>
        <path id="Trazado_638564" data-name="Trazado 638564" d="M382.853,56.4l.159,1.559-1.392.141-.154-1.517a6.637,6.637,0,0,1-3.579-.761l.593-1.777a5.659,5.659,0,0,0,2.8.714l-.236-2.325c-1.583-.218-3.362-.558-3.564-2.549-.15-1.476.793-2.851,2.967-3.325l-.157-1.546,1.392-.141.154,1.517a6.327,6.327,0,0,1,2.912.562l-.522,1.783a5.738,5.738,0,0,0-2.2-.508l.241,2.367c1.581.2,3.332.548,3.532,2.51.147,1.448-.784,2.809-2.943,3.3m-2.016-6.012-.2-1.977c-.721.242-.972.675-.926,1.135.05.487.494.709,1.127.841m2.735,3.112c-.05-.488-.48-.71-1.1-.859l.195,1.921c.68-.223.95-.617.9-1.062" transform="translate(-167.123 -19.867)" fill="#e0e0e0"/>
        <path id="Trazado_638565" data-name="Trazado 638565" d="M626.253,226.826a15.389,15.389,0,1,1-7.595-20.369,15.373,15.373,0,0,1,7.595,20.369" transform="translate(-264.267 -90.787)" fill="#f5f5f5"/>
        <path id="Trazado_638566" data-name="Trazado 638566" d="M625.833,228.206a11.728,11.728,0,1,1-5.788-15.523,11.715,11.715,0,0,1,5.788,15.523" transform="translate(-267.176 -93.691)" fill="#ebebeb"/>
        <path id="Trazado_638567" data-name="Trazado 638567" d="M626.706,227.527a6.947,6.947,0,0,1,.305-1.411,12.44,12.44,0,0,0,.268-3.831,12.021,12.021,0,0,0-.524-2.584,11.759,11.759,0,0,0-1.292-2.722,11.043,11.043,0,0,0-.976-1.3,10.9,10.9,0,0,0-1.2-1.2,11.377,11.377,0,0,0-1.417-1.039,11.478,11.478,0,0,0-3.326-1.4,11.388,11.388,0,0,0-1.734-.288,11.471,11.471,0,0,0-3.313.191,11.771,11.771,0,0,0-2.849.98,12.033,12.033,0,0,0-2.214,1.433,12.464,12.464,0,0,0-2.551,2.87c-.5.771-.729,1.234-.795,1.205a3.443,3.443,0,0,1,.492-1.379,10.852,10.852,0,0,1,2.439-3.177,11.743,11.743,0,0,1,5.3-2.739,11.906,11.906,0,0,1,3.56-.259,11.879,11.879,0,0,1,1.873.3,12.034,12.034,0,0,1,3.588,1.51,11.979,11.979,0,0,1,1.521,1.132,11.943,11.943,0,0,1,2.3,2.727,11.751,11.751,0,0,1,1.749,5.706,10.854,10.854,0,0,1-.565,3.965,3.447,3.447,0,0,1-.643,1.316" transform="translate(-267.898 -93.349)" fill="#e0e0e0"/>
        <path id="Trazado_638568" data-name="Trazado 638568" d="M617.246,233.462l-.824,1.87-1.668-.736.8-1.819a8.643,8.643,0,0,1-3.567-3.167l1.816-1.632a7.371,7.371,0,0,0,2.715,2.613l1.229-2.788c-1.654-1.267-3.452-2.8-2.4-5.184.78-1.769,2.735-2.721,5.5-1.858l.817-1.853,1.669.736-.8,1.819a8.246,8.246,0,0,1,2.939,2.512l-1.739,1.685a7.469,7.469,0,0,0-2.171-1.994l-1.251,2.838c1.661,1.25,3.425,2.766,2.388,5.119-.765,1.736-2.7,2.679-5.456,1.84m1.584-8.112,1.044-2.37c-.972-.189-1.536.14-1.779.691-.257.584.1,1.122.735,1.679m1.1,5.288c.257-.585-.087-1.114-.694-1.682l-1.016,2.3c.916.184,1.474-.087,1.71-.621" transform="translate(-270.958 -96.922)" fill="#e0e0e0"/>
        <rect id="Rectángulo_330536" data-name="Rectángulo 330536" width="15.142" height="74.033" transform="translate(141.293 166.674)" fill="#ebebeb"/>
        <rect id="Rectángulo_330537" data-name="Rectángulo 330537" width="15.142" height="74.033" transform="translate(333.055 166.847)" fill="#ebebeb"/>
        <rect id="Rectángulo_330538" data-name="Rectángulo 330538" width="15.143" height="84.759" transform="translate(14.816 155.947)" fill="#ebebeb"/>
        <rect id="Rectángulo_330539" data-name="Rectángulo 330539" width="15.142" height="122.411" transform="translate(46.436 118.295)" fill="#ebebeb"/>
        <rect id="Rectángulo_330540" data-name="Rectángulo 330540" width="15.142" height="96.807" transform="translate(78.055 143.9)" fill="#ebebeb"/>
        <rect id="Rectángulo_330541" data-name="Rectángulo 330541" width="15.142" height="129.558" transform="translate(109.674 111.149)" fill="#ebebeb"/>
        <rect id="Rectángulo_330542" data-name="Rectángulo 330542" width="15.142" height="128.926" transform="translate(172.913 111.78)" fill="#ebebeb"/>
        <rect id="Rectángulo_330543" data-name="Rectángulo 330543" width="15.142" height="86.582" transform="translate(204.533 154.125)" fill="#ebebeb"/>
        <rect id="Rectángulo_330544" data-name="Rectángulo 330544" width="15.142" height="123.247" transform="translate(236.151 117.459)" fill="#ebebeb"/>
        <rect id="Rectángulo_330545" data-name="Rectángulo 330545" width="15.142" height="151.011" transform="translate(267.771 89.696)" fill="#ebebeb"/>
        <rect id="Rectángulo_330546" data-name="Rectángulo 330546" width="15.142" height="123.879" transform="translate(299.39 116.828)" fill="#ebebeb"/>
      </g>
    </g>
    <rect id="Rectángulo_330548" data-name="Rectángulo 330548" width="67.076" height="111.763" transform="translate(135.07 128.462)" fill="#eb6f2d"/>
    <g id="Grupo_882486" data-name="Grupo 882486" transform="translate(-4)">
      <g id="Grupo_882485" data-name="Grupo 882485" clip-path="url(#clip-path)">
        <g id="Grupo_882484" data-name="Grupo 882484" transform="translate(139.07 128.462)" opacity="0.3">
          <g id="Grupo_882483" data-name="Grupo 882483">
            <g id="Grupo_882482" data-name="Grupo 882482" clip-path="url(#clip-path-4)">
              <rect id="Rectángulo_330549" data-name="Rectángulo 330549" width="67.076" height="111.763" transform="translate(0)"/>
            </g>
          </g>
        </g>
      </g>
    </g>
    <rect id="Rectángulo_330552" data-name="Rectángulo 330552" width="67.076" height="111.763" transform="translate(148.992 128.462)" fill="#eb6f2d"/>
    <g id="Grupo_882494" data-name="Grupo 882494">
      <g id="Grupo_882493" data-name="Grupo 882493" clip-path="url(#clip-path)">
        <path id="Trazado_638569" data-name="Trazado 638569" d="M256.222,328.87c.049.063-2.947,2.476-6.691,5.389s-6.821,5.223-6.87,5.16,2.947-2.475,6.692-5.389,6.82-5.223,6.869-5.159" transform="translate(-107.438 -145.607)" fill="#455a64"/>
        <path id="Trazado_638570" data-name="Trazado 638570" d="M256.222,317.564c.049.064-2.947,2.476-6.691,5.389s-6.821,5.223-6.87,5.16,2.947-2.475,6.692-5.389,6.82-5.222,6.869-5.159" transform="translate(-107.438 -140.601)" fill="#455a64"/>
        <path id="Trazado_638571" data-name="Trazado 638571" d="M256.222,306.257c.049.064-2.947,2.476-6.691,5.389s-6.821,5.223-6.87,5.16,2.947-2.475,6.692-5.389,6.82-5.223,6.869-5.16" transform="translate(-107.438 -135.595)" fill="#455a64"/>
        <path id="Trazado_638572" data-name="Trazado 638572" d="M256.222,294.951c.049.064-2.947,2.476-6.691,5.389s-6.821,5.223-6.87,5.16,2.947-2.475,6.692-5.389,6.82-5.223,6.869-5.16" transform="translate(-107.438 -130.589)" fill="#455a64"/>
        <path id="Trazado_638573" data-name="Trazado 638573" d="M256.222,283.644c.049.064-2.947,2.476-6.691,5.389s-6.821,5.223-6.87,5.16,2.947-2.475,6.692-5.389,6.82-5.223,6.869-5.16" transform="translate(-107.438 -125.583)" fill="#455a64"/>
        <path id="Trazado_638574" data-name="Trazado 638574" d="M256.222,272.337c.049.064-2.947,2.476-6.691,5.389s-6.821,5.223-6.87,5.16,2.947-2.475,6.692-5.389,6.82-5.223,6.869-5.16" transform="translate(-107.438 -120.577)" fill="#455a64"/>
        <path id="Trazado_638575" data-name="Trazado 638575" d="M256.222,261.031c.049.064-2.947,2.476-6.691,5.389s-6.821,5.223-6.87,5.16,2.947-2.475,6.692-5.389,6.82-5.223,6.869-5.16" transform="translate(-107.438 -115.571)" fill="#455a64"/>
        <path id="Trazado_638576" data-name="Trazado 638576" d="M256.222,249.724c.049.064-2.947,2.476-6.691,5.389s-6.821,5.223-6.87,5.16,2.947-2.475,6.692-5.389,6.82-5.223,6.869-5.16" transform="translate(-107.438 -110.565)" fill="#455a64"/>
        <path id="Trazado_638577" data-name="Trazado 638577" d="M256.222,238.418c.049.063-2.947,2.476-6.691,5.389s-6.821,5.223-6.87,5.16,2.947-2.475,6.692-5.389,6.82-5.223,6.869-5.16" transform="translate(-107.438 -105.559)" fill="#455a64"/>
        <path id="Trazado_638578" data-name="Trazado 638578" d="M253.47,230.952c.049.064-2.331,2-5.315,4.318s-5.445,4.153-5.494,4.09,2.33-2,5.316-4.319,5.444-4.152,5.493-4.089" transform="translate(-107.438 -102.253)" fill="#455a64"/>
        <path id="Trazado_638579" data-name="Trazado 638579" d="M245.519,230.738a11.411,11.411,0,0,1-2.86,2.225,11.351,11.351,0,0,1,2.86-2.225" transform="translate(-107.436 -102.157)" fill="#455a64"/>
        <path id="Trazado_638580" data-name="Trazado 638580" d="M242.6,353.763c-.049-.064,2.947-2.476,6.691-5.389s6.821-5.223,6.87-5.16-2.947,2.475-6.692,5.389-6.82,5.223-6.869,5.16" transform="translate(-107.41 -151.958)" fill="#455a64"/>
        <path id="Trazado_638581" data-name="Trazado 638581" d="M243.343,368.066c-.049-.063,2.947-2.476,6.691-5.389s6.821-5.223,6.87-5.16-2.947,2.475-6.692,5.389-6.82,5.223-6.869,5.16" transform="translate(-107.74 -158.291)" fill="#455a64"/>
        <path id="Trazado_638582" data-name="Trazado 638582" d="M242.662,381.2c-.049-.064,2.947-2.476,6.691-5.389s6.821-5.223,6.87-5.16-2.947,2.475-6.692,5.389-6.82,5.223-6.869,5.16" transform="translate(-107.438 -164.106)" fill="#455a64"/>
        <path id="Trazado_638583" data-name="Trazado 638583" d="M242.662,392.506c-.049-.063,2.947-2.476,6.691-5.389s6.821-5.223,6.87-5.16-2.947,2.475-6.692,5.389-6.82,5.222-6.869,5.159" transform="translate(-107.438 -169.112)" fill="#455a64"/>
        <path id="Trazado_638584" data-name="Trazado 638584" d="M242.662,403.813c-.049-.064,2.947-2.476,6.691-5.389s6.821-5.223,6.87-5.16-2.947,2.475-6.692,5.389-6.82,5.223-6.869,5.16" transform="translate(-107.438 -174.118)" fill="#455a64"/>
        <path id="Trazado_638585" data-name="Trazado 638585" d="M242.662,415.119c-.049-.064,2.947-2.476,6.691-5.389s6.821-5.223,6.87-5.16-2.947,2.475-6.692,5.389-6.82,5.222-6.869,5.159" transform="translate(-107.438 -179.124)" fill="#455a64"/>
        <path id="Trazado_638586" data-name="Trazado 638586" d="M247.6,424.285c-.049-.064,2.331-2,5.315-4.318s5.445-4.153,5.494-4.09-2.33,2-5.316,4.319-5.444,4.152-5.493,4.089" transform="translate(-109.624 -184.129)" fill="#455a64"/>
        <path id="Trazado_638587" data-name="Trazado 638587" d="M261.864,429.4a11.393,11.393,0,0,1,2.86-2.225,11.391,11.391,0,0,1-2.86,2.225" transform="translate(-115.939 -189.132)" fill="#455a64"/>
        <rect id="Rectángulo_330553" data-name="Rectángulo 330553" width="59.09" height="79.029" transform="translate(235.829 161.173)" fill="#e44e00"/>
        <g id="Grupo_882489" data-name="Grupo 882489" transform="translate(235.802 161.173)" opacity="0.3">
          <g id="Grupo_882488" data-name="Grupo 882488">
            <g id="Grupo_882487" data-name="Grupo 882487" clip-path="url(#clip-path-6)">
              <rect id="Rectángulo_330554" data-name="Rectángulo 330554" width="59.09" height="79.029" transform="translate(0)"/>
            </g>
          </g>
        </g>
        <rect id="Rectángulo_330556" data-name="Rectángulo 330556" width="59.09" height="79.029" transform="translate(247.675 161.173)" fill="#e44e00"/>
        <path id="Trazado_638588" data-name="Trazado 638588" d="M435.029,375.716c.049.063-2.568,2.182-5.846,4.73s-5.975,4.566-6.024,4.5,2.567-2.181,5.846-4.731,5.975-4.564,6.024-4.5" transform="translate(-187.354 -166.348)" fill="#455a64"/>
        <path id="Trazado_638589" data-name="Trazado 638589" d="M435.029,365.819c.049.064-2.568,2.182-5.846,4.73s-5.975,4.566-6.024,4.5,2.567-2.181,5.846-4.731,5.975-4.564,6.024-4.5" transform="translate(-187.354 -161.966)" fill="#455a64"/>
        <path id="Trazado_638590" data-name="Trazado 638590" d="M435.029,355.923c.049.063-2.568,2.182-5.846,4.73s-5.975,4.566-6.024,4.5,2.567-2.181,5.846-4.731,5.975-4.564,6.024-4.5" transform="translate(-187.354 -157.585)" fill="#455a64"/>
        <path id="Trazado_638591" data-name="Trazado 638591" d="M435.029,346.026c.049.064-2.568,2.182-5.846,4.73s-5.975,4.566-6.024,4.5,2.567-2.181,5.846-4.731,5.975-4.564,6.024-4.5" transform="translate(-187.354 -153.203)" fill="#455a64"/>
        <path id="Trazado_638592" data-name="Trazado 638592" d="M435.029,336.13c.049.063-2.568,2.182-5.846,4.731s-5.975,4.566-6.024,4.5,2.567-2.181,5.846-4.731,5.975-4.565,6.024-4.5" transform="translate(-187.354 -148.821)" fill="#455a64"/>
        <path id="Trazado_638593" data-name="Trazado 638593" d="M435.029,326.233c.049.063-2.568,2.182-5.846,4.73s-5.975,4.565-6.024,4.5,2.567-2.181,5.846-4.731,5.975-4.565,6.024-4.5" transform="translate(-187.354 -144.439)" fill="#455a64"/>
        <path id="Trazado_638594" data-name="Trazado 638594" d="M435.029,316.337c.049.063-2.568,2.182-5.846,4.73s-5.975,4.566-6.024,4.5,2.567-2.181,5.846-4.731,5.975-4.565,6.024-4.5" transform="translate(-187.354 -140.058)" fill="#455a64"/>
        <path id="Trazado_638595" data-name="Trazado 638595" d="M435.029,306.44c.049.063-2.568,2.182-5.846,4.73s-5.975,4.565-6.024,4.5,2.567-2.181,5.846-4.731,5.975-4.565,6.024-4.5" transform="translate(-187.354 -135.676)" fill="#455a64"/>
        <path id="Trazado_638596" data-name="Trazado 638596" d="M435.029,296.544c.049.063-2.568,2.182-5.846,4.73s-5.975,4.566-6.024,4.5,2.567-2.181,5.846-4.731,5.975-4.564,6.024-4.5" transform="translate(-187.354 -131.294)" fill="#455a64"/>
        <path id="Trazado_638597" data-name="Trazado 638597" d="M432.62,290.009c.049.064-2.029,1.762-4.641,3.794s-4.771,3.629-4.82,3.565,2.028-1.761,4.642-3.794,4.77-3.628,4.819-3.565" transform="translate(-187.353 -128.401)" fill="#455a64"/>
        <path id="Trazado_638598" data-name="Trazado 638598" d="M425.66,289.821c.049.063-.471.551-1.162,1.088a4.458,4.458,0,0,1-1.341.859c-.049-.064.471-.551,1.162-1.088a4.479,4.479,0,0,1,1.341-.859" transform="translate(-187.351 -128.315)" fill="#455a64"/>
        <path id="Trazado_638599" data-name="Trazado 638599" d="M435.029,414.608c.049.063-2.568,2.182-5.846,4.73s-5.975,4.566-6.024,4.5,2.567-2.181,5.846-4.731,5.975-4.565,6.024-4.5" transform="translate(-187.354 -183.567)" fill="#455a64"/>
        <path id="Trazado_638600" data-name="Trazado 638600" d="M435.029,404.711c.049.064-2.568,2.182-5.846,4.73s-5.975,4.566-6.024,4.5,2.567-2.181,5.846-4.731,5.975-4.564,6.024-4.5" transform="translate(-187.354 -179.185)" fill="#455a64"/>
        <path id="Trazado_638601" data-name="Trazado 638601" d="M435.029,394.815c.049.064-2.568,2.182-5.846,4.73s-5.975,4.566-6.024,4.5,2.567-2.181,5.846-4.731,5.975-4.564,6.024-4.5" transform="translate(-187.354 -174.804)" fill="#455a64"/>
        <path id="Trazado_638602" data-name="Trazado 638602" d="M435.029,384.919c.049.064-2.568,2.182-5.846,4.73s-5.975,4.566-6.024,4.5,2.567-2.181,5.846-4.731,5.975-4.564,6.024-4.5" transform="translate(-187.354 -170.423)" fill="#455a64"/>
        <rect id="Rectángulo_330557" data-name="Rectángulo 330557" width="63.352" height="53.812" transform="translate(45.906 186.461)" fill="#fd4c1b"/>
        <g id="Grupo_882492" data-name="Grupo 882492" transform="translate(45.903 186.461)" opacity="0.3">
          <g id="Grupo_882491" data-name="Grupo 882491">
            <g id="Grupo_882490" data-name="Grupo 882490" clip-path="url(#clip-path-7)">
              <rect id="Rectángulo_330558" data-name="Rectángulo 330558" width="63.352" height="53.812" transform="translate(0 0)"/>
            </g>
          </g>
        </g>
        <path id="Trazado_638689" data-name="Trazado 638689" d="M0,0H63.351V53.812H0Z" transform="translate(57.308 186.461)" fill="#fd4c1b"/>
        <path id="Trazado_638603" data-name="Trazado 638603" d="M93.566,415.561c.049.064-2.415,2.062-5.5,4.465s-5.634,4.3-5.683,4.237,2.415-2.062,5.505-4.466,5.633-4.3,5.682-4.236" transform="translate(-36.473 -183.989)" fill="#455a64"/>
        <path id="Trazado_638604" data-name="Trazado 638604" d="M93.566,406.233c.049.063-2.415,2.062-5.5,4.465s-5.634,4.3-5.683,4.236,2.415-2.062,5.505-4.465,5.633-4.3,5.682-4.236" transform="translate(-36.473 -179.859)" fill="#455a64"/>
        <path id="Trazado_638605" data-name="Trazado 638605" d="M93.566,396.906c.049.064-2.415,2.063-5.5,4.465s-5.634,4.3-5.683,4.237,2.415-2.062,5.505-4.466,5.633-4.3,5.682-4.236" transform="translate(-36.473 -175.73)" fill="#455a64"/>
        <path id="Trazado_638606" data-name="Trazado 638606" d="M93.566,387.579c.049.064-2.415,2.062-5.5,4.465s-5.634,4.3-5.683,4.236,2.415-2.062,5.505-4.465,5.633-4.3,5.682-4.236" transform="translate(-36.473 -171.6)" fill="#455a64"/>
        <path id="Trazado_638607" data-name="Trazado 638607" d="M93.566,378.251c.049.064-2.415,2.063-5.5,4.465s-5.634,4.3-5.683,4.237,2.415-2.062,5.505-4.466,5.633-4.3,5.682-4.236" transform="translate(-36.473 -167.47)" fill="#455a64"/>
        <path id="Trazado_638608" data-name="Trazado 638608" d="M93.566,368.924c.049.064-2.415,2.063-5.5,4.465s-5.634,4.3-5.683,4.237,2.415-2.062,5.505-4.466,5.633-4.3,5.682-4.236" transform="translate(-36.473 -163.341)" fill="#455a64"/>
        <path id="Trazado_638609" data-name="Trazado 638609" d="M93.566,359.6c.049.063-2.415,2.062-5.5,4.465s-5.634,4.3-5.683,4.236,2.415-2.062,5.505-4.465,5.633-4.3,5.682-4.236" transform="translate(-36.473 -159.211)" fill="#455a64"/>
        <path id="Trazado_638610" data-name="Trazado 638610" d="M93.566,350.269c.049.064-2.415,2.063-5.5,4.465s-5.634,4.3-5.683,4.237,2.415-2.062,5.505-4.466,5.633-4.3,5.682-4.236" transform="translate(-36.473 -155.081)" fill="#455a64"/>
        <path id="Trazado_638611" data-name="Trazado 638611" d="M93.566,340.942c.049.064-2.415,2.062-5.5,4.465s-5.634,4.3-5.683,4.236,2.415-2.062,5.505-4.465,5.633-4.3,5.682-4.236" transform="translate(-36.473 -150.952)" fill="#455a64"/>
        <path id="Trazado_638612" data-name="Trazado 638612" d="M91.3,334.782a55.29,55.29,0,0,1-4.369,3.583,55.138,55.138,0,0,1-4.548,3.353,54.992,54.992,0,0,1,4.37-3.583,55.174,55.174,0,0,1,4.547-3.354" transform="translate(-36.473 -148.224)" fill="#455a64"/>
        <path id="Trazado_638613" data-name="Trazado 638613" d="M84.736,334.605c.049.063-.439.525-1.091,1.032a3.985,3.985,0,0,1-1.268.8c-.05-.064.439-.526,1.09-1.032a3.984,3.984,0,0,1,1.269-.8" transform="translate(-36.471 -148.144)" fill="#455a64"/>
      </g>
    </g>
    <g id="Grupo_882508" data-name="Grupo 882508">
      <g id="Grupo_882507" data-name="Grupo 882507" clip-path="url(#clip-path)">
        <g id="Grupo_882497" data-name="Grupo 882497" transform="translate(150.649 123.579)" opacity="0.3">
          <g id="Grupo_882496" data-name="Grupo 882496">
            <g id="Grupo_882495" data-name="Grupo 882495" clip-path="url(#clip-path-9)">
              <path id="Trazado_638614" data-name="Trazado 638614" d="M324.9,221.914a3.331,3.331,0,0,0-1.633-.091c-17.032,1.888-35.893,3.175-52.925,5.063v.2A103.525,103.525,0,0,0,304.022,231c1.064-.052,2.28-.062,3,.72.789.854.578,2.2.318,3.329l-7.18,31.255c-.376,1.638-.639,3.65.645,4.734,1.77,1.5,4.381-.284,5.874-2.055,10.141-12.03,14.741-27.645,19.085-42.767.445-1.549.627-3.695-.864-4.306" transform="translate(-270.344 -221.766)"/>
            </g>
          </g>
        </g>
        <path id="Trazado_638615" data-name="Trazado 638615" d="M399.032,211.218a8.931,8.931,0,0,0-6.418-2.118l-3.924,12.474c2.877.126,5.745,1.61,8.523.85a6.078,6.078,0,0,0,4.231-5,7.224,7.224,0,0,0-2.411-6.21" transform="translate(-172.093 -92.572)" fill="#038a7b"/>
        <path id="Trazado_638616" data-name="Trazado 638616" d="M393.248,208.45c.008-.1.426-.179,1.189-.171a9.658,9.658,0,0,1,3.213.605,8.737,8.737,0,0,1,3.911,3.038,8.1,8.1,0,0,1,1.305,2.705,7.138,7.138,0,0,1,.1,3.272,6.61,6.61,0,0,1-1.427,2.978,6.224,6.224,0,0,1-2.532,1.756,9.051,9.051,0,0,1-4.938.319A15.366,15.366,0,0,1,390.99,222c-.692-.3-1.054-.518-1.024-.617s.454-.071,1.19.052,1.784.345,3.06.461a8.8,8.8,0,0,0,4.265-.552,5.033,5.033,0,0,0,1.92-1.416,5.368,5.368,0,0,0,1.08-2.33,6.432,6.432,0,0,0-1.063-4.876,8.39,8.39,0,0,0-3.2-2.856,14.52,14.52,0,0,0-2.863-1c-.714-.184-1.118-.3-1.11-.412" transform="translate(-172.657 -92.215)" fill="#e0e0e0"/>
        <path id="Trazado_638617" data-name="Trazado 638617" d="M325.789,290.9l-7.91,22.161,27.52,9.981c.793-2.687-11.531-13.129-11.531-13.129l5.651-13.991Z" transform="translate(-140.741 -128.795)" fill="#038a7b"/>
        <g id="Grupo_882500" data-name="Grupo 882500" transform="translate(183.801 176.826)" opacity="0.6">
          <g id="Grupo_882499" data-name="Grupo 882499">
            <g id="Grupo_882498" data-name="Grupo 882498" clip-path="url(#clip-path-10)">
              <path id="Trazado_638618" data-name="Trazado 638618" d="M331.085,317.33a1.2,1.2,0,0,0-1.242,1,1.15,1.15,0,0,0,.981,1.24,1.261,1.261,0,0,0,1.31-1.067c.006-.587-.582-1.261-1.164-1.176" transform="translate(-329.836 -317.319)" fill="#fff"/>
            </g>
          </g>
        </g>
        <path id="Trazado_638619" data-name="Trazado 638619" d="M317.879,328.887l.8-2.237,26.142,10.428s1.032.978.58,1.79Z" transform="translate(-140.741 -144.625)" fill="#f5f5f5"/>
        <path id="Trazado_638620" data-name="Trazado 638620" d="M345.033,324.733c-.053.133-.747-.05-1.566.142-.823.171-1.374.63-1.479.531-.114-.071.377-.8,1.372-1.017s1.746.231,1.672.344" transform="translate(-151.408 -143.597)" fill="#263238"/>
        <path id="Trazado_638621" data-name="Trazado 638621" d="M349.859,328.942c-.016.142-.681.159-1.344.562-.675.383-1.013.956-1.145.9-.134-.025.059-.845.892-1.331s1.639-.262,1.6-.133" transform="translate(-153.782 -145.565)" fill="#263238"/>
        <path id="Trazado_638622" data-name="Trazado 638622" d="M352.514,334.779c-.133-.016-.076-.755.536-1.366s1.347-.675,1.363-.543c.036.138-.515.385-1.01.894s-.751,1.05-.889,1.015" transform="translate(-156.05 -147.353)" fill="#263238"/>
        <path id="Trazado_638623" data-name="Trazado 638623" d="M346.824,318.183c-.1.1-.65-.307-1.428-.531-.774-.24-1.458-.2-1.486-.339-.042-.125.715-.413,1.628-.137s1.39.926,1.286,1.007" transform="translate(-152.266 -140.378)" fill="#263238"/>
        <path id="Trazado_638624" data-name="Trazado 638624" d="M347.2,309.986a2.746,2.746,0,0,1-1.376-.507,6.6,6.6,0,0,1-1.281-.966,6.946,6.946,0,0,1-.639-.707,1.79,1.79,0,0,1-.3-.475.623.623,0,0,1,.2-.737.784.784,0,0,1,.7-.094,1.9,1.9,0,0,1,.491.259,5.28,5.28,0,0,1,.751.6,5.171,5.171,0,0,1,.968,1.3,2.449,2.449,0,0,1,.4,1.413c-.077.022-.235-.511-.708-1.235a5.854,5.854,0,0,0-.978-1.138,5.474,5.474,0,0,0-.7-.531c-.264-.182-.511-.274-.633-.172-.045.04-.056.058-.026.166a1.481,1.481,0,0,0,.22.348,7.8,7.8,0,0,0,.577.68,8.105,8.105,0,0,0,1.147.994,10.107,10.107,0,0,1,1.185.8" transform="translate(-152.108 -135.684)" fill="#263238"/>
        <path id="Trazado_638625" data-name="Trazado 638625" d="M349.6,309.826a2.332,2.332,0,0,1,.119-1.463,4.757,4.757,0,0,1,1.389-2.15,1.213,1.213,0,0,1,1.132-.377.686.686,0,0,1,.436.593,2,2,0,0,1-.041.557,3.291,3.291,0,0,1-.336.929,3.373,3.373,0,0,1-1.105,1.21c-.8.518-1.416.475-1.41.426a12.3,12.3,0,0,0,1.2-.709,3.368,3.368,0,0,0,.906-1.137,3.036,3.036,0,0,0,.264-.805c.062-.308.038-.584-.082-.594a.838.838,0,0,0-.646.277,4.838,4.838,0,0,0-.612.623,5.264,5.264,0,0,0-.766,1.279c-.33.794-.369,1.349-.45,1.343" transform="translate(-154.759 -135.395)" fill="#263238"/>
        <path id="Trazado_638626" data-name="Trazado 638626" d="M261.913,177.422c-4.506.1-8.782.741-11.886,4.011-4.117,4.335-9.208,10.511-9.5,14.794-.432,6.4,3.43,8.3,6.25,9.865a7.826,7.826,0,0,0,4.094.946l52.089-.4,1.635-8.823-33.69-8.3,1.4-12.68Z" transform="translate(-106.48 -78.295)" fill="#263238"/>
        <path id="Trazado_638627" data-name="Trazado 638627" d="M296.47,176.237l16.386-.755s28.307,1.573,34.344,7.108,5.283,11.824,3.271,17.862-19.749,44.656-19.749,44.656a6.673,6.673,0,0,1,.629,4.906,6.474,6.474,0,0,1-4.626,4.405l-15.752-5.789s-2.138-.755-.629-2.768a6.96,6.96,0,0,1,2.515-2.389v-4.026S318.4,229.385,318.9,228s5.808-21.865,5.808-21.865l3.524-6.056s-8.523-4.007-15.909-6.912l-17.251-4.252Z" transform="translate(-130.643 -77.695)" fill="#263238"/>
        <path id="Trazado_638628" data-name="Trazado 638628" d="M337.035,302.279c-.032.038-.528-.355-1.382-.906a18.672,18.672,0,0,0-7.356-2.8c-1-.155-1.637-.192-1.635-.241a6.164,6.164,0,0,1,1.663.029,15.706,15.706,0,0,1,7.448,2.831,6.134,6.134,0,0,1,1.262,1.083" transform="translate(-144.63 -132.072)" fill="#455a64"/>
        <path id="Trazado_638629" data-name="Trazado 638629" d="M355.147,294.7a5.457,5.457,0,0,1-.915-.964c-.532-.624-1.239-1.508-1.98-2.515s-1.375-1.946-1.812-2.639a5.485,5.485,0,0,1-.648-1.16,6.15,6.15,0,0,1,.825,1.04l1.879,2.579,1.9,2.561a6.154,6.154,0,0,1,.748,1.1" transform="translate(-154.87 -127.254)" fill="#455a64"/>
        <path id="Trazado_638630" data-name="Trazado 638630" d="M362.7,209.694c.009.049-.578.174-1.492.478a15.688,15.688,0,0,0-6.31,3.94c-.674.688-1.044,1.161-1.084,1.131a5.405,5.405,0,0,1,.928-1.277,13.382,13.382,0,0,1,6.4-4,5.415,5.415,0,0,1,1.555-.273" transform="translate(-156.651 -92.838)" fill="#455a64"/>
        <path id="Trazado_638631" data-name="Trazado 638631" d="M340.846,234.74a1.477,1.477,0,0,1,.065-.341c.063-.251.143-.569.242-.96.233-.869.553-2.06.943-3.515.835-3,1.97-7.067,3.224-11.566.654-2.255,1.215-4.407,1.845-6.355a13.249,13.249,0,0,1,2.966-4.525,16.927,16.927,0,0,1,2.816-2.322c.364-.231.649-.406.85-.512a1.456,1.456,0,0,1,.31-.153c.014.023-.394.267-1.093.762a18.7,18.7,0,0,0-2.728,2.372,13.334,13.334,0,0,0-2.859,4.474c-.6,1.92-1.165,4.1-1.817,6.345L342.3,229.984l-1.036,3.488-.3.944a1.484,1.484,0,0,1-.123.324" transform="translate(-150.909 -90.539)" fill="#455a64"/>
        <path id="Trazado_638632" data-name="Trazado 638632" d="M313.84,194.94c-.083.007-.427-3.057-.769-6.842s-.552-6.863-.468-6.87.427,3.055.769,6.842.551,6.863.468,6.87" transform="translate(-138.397 -80.239)" fill="#455a64"/>
        <path id="Trazado_638633" data-name="Trazado 638633" d="M259.894,215.817c-.046.022-.3-.473-.812-1.2a11.786,11.786,0,0,0-5.382-4.2c-.829-.322-1.371-.447-1.36-.5a4.437,4.437,0,0,1,1.432.3,10.327,10.327,0,0,1,5.488,4.287,4.435,4.435,0,0,1,.634,1.318" transform="translate(-111.724 -92.937)" fill="#455a64"/>
        <path id="Trazado_638634" data-name="Trazado 638634" d="M272.7,198.287c-.029.046-.724-.4-1.927-.946A18.157,18.157,0,0,0,260.7,195.9c-1.309.187-2.1.419-2.115.366a2.115,2.115,0,0,1,.543-.206,11.887,11.887,0,0,1,1.539-.371,16.487,16.487,0,0,1,10.2,1.463,11.808,11.808,0,0,1,1.372.789,2.169,2.169,0,0,1,.463.351" transform="translate(-114.489 -86.528)" fill="#455a64"/>
        <path id="Trazado_638635" data-name="Trazado 638635" d="M322.677,208.208a2.14,2.14,0,0,1-.408-.067l-1.156-.251-4.246-.954c-3.585-.8-8.545-1.88-14.044-2.97s-10.5-1.982-14.117-2.606l-4.289-.736-1.165-.209a2.06,2.06,0,0,1-.4-.093,2.134,2.134,0,0,1,.412.033l1.174.153c1.019.138,2.49.356,4.305.641,3.632.57,8.637,1.432,14.142,2.52s10.458,2.2,14.033,3.058c1.788.428,3.231.787,4.225,1.048l1.143.306a2.126,2.126,0,0,1,.394.127" transform="translate(-125.232 -88.692)" fill="#455a64"/>
        <path id="Trazado_638636" data-name="Trazado 638636" d="M287.871,195.911a17.906,17.906,0,0,0-.721-1.664,7.313,7.313,0,0,0-1.191-1.541,19.174,19.174,0,0,0-1.824-1.577,27.509,27.509,0,0,0-3.731-2.318,12.121,12.121,0,0,1-1.594-.907,10.058,10.058,0,0,1,1.691.716,21.653,21.653,0,0,1,3.819,2.268,16.81,16.81,0,0,1,1.84,1.623,6.867,6.867,0,0,1,1.18,1.634,5.676,5.676,0,0,1,.465,1.274,1.409,1.409,0,0,1,.067.492" transform="translate(-123.442 -83.193)" fill="#455a64"/>
        <path id="Trazado_638637" data-name="Trazado 638637" d="M397.2,216.406c.067.065-.8.945-1.483,2.284s-.9,2.553-.992,2.536a6.634,6.634,0,0,1,2.475-4.82" transform="translate(-174.754 -95.813)" fill="#263238"/>
        <path id="Trazado_638638" data-name="Trazado 638638" d="M434.752,81.2a.305.305,0,0,1-.046.079l-.154.22-.614.845-2.358,3.181-8.457,11.284-.074.1-.1-.071-7.367-5.213.194-.031-5.547,7.489L404.2,107.2l-.075.1-.108-.064-9.053-5.3.157-.029-7.81,9.751-2.193,2.708-.584.706a1.93,1.93,0,0,1-.21.234,2.041,2.041,0,0,1,.181-.257l.556-.728,2.141-2.749,7.729-9.815.065-.082.091.053,9.071,5.27-.183.038L410,98.911l5.554-7.483.082-.111.112.08,7.351,5.235-.174.027,8.54-11.221,2.415-3.139.645-.821.169-.208c.038-.046.06-.069.062-.066" transform="translate(-170.16 -35.953)" fill="#263238"/>
        <path id="Trazado_638639" data-name="Trazado 638639" d="M467.871,89.3a2.8,2.8,0,0,1,.006-.653c.033-.479.074-1.07.122-1.768.116-1.492.3-3.552.513-5.824l0-.037.193.15c-2.143.767-4.086,1.446-5.5,1.923l-1.675.551a2.78,2.78,0,0,1-.627.165,2.786,2.786,0,0,1,.59-.271l1.644-.637c1.393-.527,3.325-1.235,5.468-2l.215-.077-.022.227,0,.037c-.217,2.273-.429,4.329-.6,5.817-.085.695-.157,1.283-.215,1.76a2.824,2.824,0,0,1-.118.641" transform="translate(-204.068 -35.783)" fill="#263238"/>
        <path id="Trazado_638640" data-name="Trazado 638640" d="M310.362,102.438c-.255-1.7-5.351-7.343-5.351-7.343s-4.426-10.845-5.19-13.86a45.936,45.936,0,0,0-2.088-5.594c-1.779-3.016-2.664-3.074-5.717-4.791L286.1,68.24l-.724-1.611a6.714,6.714,0,0,0-3.054-3.218l-14.855-7.632-4.595,8.106s-8.811,4.163-9.328,4.821c-1.811,2.306-.572,39.36-.572,39.36s-.888,14.438-1.873,18.491-1.561,7.045-1.561,7.045l4.405-5.062c2.582-3.24,8.252-4.729,12.324-4.672l34.8.154-2.122-10.379,28.874,6.1s4.841-9.44,5.224-9.63-22.678-7.677-22.678-7.677" transform="translate(-110.483 -24.696)" fill="#2b95f9"/>
        <path id="Trazado_638641" data-name="Trazado 638641" d="M280.4,75.529c-.245-.249,2.758,6.974,4.742,14.821,1.237,4.892,1.5,12.841,1.5,17.217l.748,12.34V130.7l16.685-1.133-2.494-18.136s-2.035-11.7-2.6-16.147c-.522-4.074-3-20.4-3-20.4s-8.589,7.761-15.575.646" transform="translate(-124.141 -33.154)" fill="#fff"/>
        <path id="Trazado_638642" data-name="Trazado 638642" d="M346.84,146.279a1.055,1.055,0,0,1,0-.42,6.275,6.275,0,0,1,.219-1.122,7.535,7.535,0,0,1,5.141-5.151,6.257,6.257,0,0,1,1.121-.222,1.053,1.053,0,0,1,.42,0c.007.052-.585.115-1.476.425a8.011,8.011,0,0,0-5,5.012c-.309.892-.37,1.484-.422,1.477" transform="translate(-153.556 -61.696)" fill="#263238"/>
        <path id="Trazado_638643" data-name="Trazado 638643" d="M348.394,139.325a6.68,6.68,0,0,1,5.181-.426c-.017.09-1.178-.135-2.608-.01s-2.54.522-2.572.436" transform="translate(-154.251 -61.348)" fill="#263238"/>
        <path id="Trazado_638644" data-name="Trazado 638644" d="M244.474,78.375A16.293,16.293,0,0,0,235.092,89.7c-1.564,6.366-8.253,32.382-6.878,36.275s28.123,7.71,28.123,7.71l3.169-13.373L245.924,116.6s.172-12.386.344-17.518-1.794-20.7-1.794-20.7" transform="translate(-100.96 -34.701)" fill="#2b95f9"/>
        <path id="Trazado_638645" data-name="Trazado 638645" d="M281.7,157l4.761,1.247-2.823,10.31-4.683-.207Z" transform="translate(-123.509 -69.512)" fill="#fff"/>
        <path id="Trazado_638646" data-name="Trazado 638646" d="M318.185,167.65l-4.29-4.556-8.824-2.233s-8.086,2.422-8.28,2.415-7.038-1.87-7.038-1.87l-2.392,8.773,12.326.845,14.074-.563s.734-.684.3-1.151,2.353.79,2.681.8.965.268,1.4-.259a1.857,1.857,0,0,0,.043-2.206" transform="translate(-127.23 -71.221)" fill="#c78976"/>
        <path id="Trazado_638647" data-name="Trazado 638647" d="M327.645,174.046a7.691,7.691,0,0,1-1.4-.4c-.855-.271-2.039-.634-3.362-.974s-2.537-.59-3.417-.766a7.5,7.5,0,0,1-1.42-.332,6.041,6.041,0,0,1,1.457.111,31.247,31.247,0,0,1,3.459.68,30.366,30.366,0,0,1,3.358,1.069,5.935,5.935,0,0,1,1.328.611" transform="translate(-140.814 -75.958)" fill="#8b5d54"/>
        <path id="Trazado_638648" data-name="Trazado 638648" d="M331.931,170.291a18.663,18.663,0,0,1-1.958-.631c-1.2-.406-2.88-.9-4.747-1.423a24.947,24.947,0,0,0-4.784-1.182,11.726,11.726,0,0,0-2.032.08,1.6,1.6,0,0,1,.528-.178,5.78,5.78,0,0,1,1.517-.125,20.708,20.708,0,0,1,4.858,1.1c1.867.521,3.547,1.054,4.735,1.516.6.228,1.069.43,1.393.579a1.865,1.865,0,0,1,.489.264" transform="translate(-140.977 -73.863)" fill="#8b5d54"/>
        <path id="Trazado_638649" data-name="Trazado 638649" d="M228.163,155.016c.022,0-.013.222.065.63a2.967,2.967,0,0,0,.933,1.518,12.864,12.864,0,0,0,6.2,2.49l.009,0,.011,0c1.287.423,2.752.758,4.319,1.113s3.254.711,5.034,1.072c3.559.728,7.5,1.493,11.669,2.274l-.182.118c.3-1.24.621-2.552.946-3.881l2.166-8.86.107.183-12.072-3.446-.007,0-.007,0a11.926,11.926,0,0,0-5.265-.922,11.634,11.634,0,0,0-3.974.933,13.415,13.415,0,0,0-2.283,1.264l-.553.4a1.106,1.106,0,0,1-.2.13,1.149,1.149,0,0,1,.173-.159c.119-.1.293-.251.533-.433a12.337,12.337,0,0,1,2.27-1.333,11.573,11.573,0,0,1,4.018-1,12.044,12.044,0,0,1,5.372.892l-.013-.005,12.088,3.39.142.04-.035.144-2.156,8.862-.947,3.881-.036.145-.147-.027c-4.174-.786-8.11-1.563-11.668-2.308-1.779-.371-3.463-.74-5.033-1.1s-3.028-.713-4.336-1.157l.02.006c-2.846-.542-5.072-1.48-6.245-2.618a2.954,2.954,0,0,1-.911-1.592,1.853,1.853,0,0,1-.006-.641" transform="translate(-101.009 -65.119)" fill="#263238"/>
        <path id="Trazado_638650" data-name="Trazado 638650" d="M253.4,145.946c-.037.04-.491-.376-1.307-.922a12.484,12.484,0,0,0-7.234-2.107c-.982.023-1.588.13-1.6.076a4.987,4.987,0,0,1,1.586-.3,11.064,11.064,0,0,1,7.374,2.148,4.988,4.988,0,0,1,1.177,1.105" transform="translate(-107.705 -63.164)" fill="#263238"/>
        <path id="Trazado_638651" data-name="Trazado 638651" d="M261.5,109.456a4.034,4.034,0,0,1,.009.816c-.012.524-.057,1.282-.128,2.217-.15,1.869-.428,4.447-.917,7.269a50.629,50.629,0,0,1-1.687,7.134c-.149.446-.3.843-.434,1.193l-.388.877a4.019,4.019,0,0,1-.417.7,4.057,4.057,0,0,1,.3-.755c.1-.262.21-.557.335-.888.114-.353.251-.752.386-1.2a62.877,62.877,0,0,0,1.589-7.121c.486-2.811.8-5.377,1.006-7.235.092-.883.168-1.622.229-2.2a4.03,4.03,0,0,1,.114-.807" transform="translate(-114.025 -48.462)" fill="#263238"/>
        <path id="Trazado_638652" data-name="Trazado 638652" d="M280.382,85.842c-.02.006-.06-.158-.2-.43a2.587,2.587,0,0,0-.873-.954,2.186,2.186,0,0,0-1.889-.276,2.435,2.435,0,0,0-1.594,1.8l-.081.413-.178-.382a40.532,40.532,0,0,1-1.775-4.485,23.564,23.564,0,0,1-1.312-7.924c0-.517.073-.982.1-1.39.07-.4.122-.755.185-1.036a4.921,4.921,0,0,1,.257-.858,20.2,20.2,0,0,0-.331,3.288,25.163,25.163,0,0,0,1.386,7.827,45.1,45.1,0,0,0,1.736,4.464l-.259.031a2.662,2.662,0,0,1,1.794-1.969,2.344,2.344,0,0,1,2.051.358,2.5,2.5,0,0,1,.859,1.052,1.748,1.748,0,0,1,.11.343c.016.08.02.122.013.124" transform="translate(-120.635 -31.136)" fill="#263238"/>
        <path id="Trazado_638653" data-name="Trazado 638653" d="M312.352,87.627a4.33,4.33,0,0,1-.127-.691,7.6,7.6,0,0,1-.116-1.947,4.15,4.15,0,0,1,1.325-2.573,2.439,2.439,0,0,1,1.6-.606,2.127,2.127,0,0,1,1.682.8l-.243.147-.521-1.388c-1.025-2.737-1.939-5.22-2.586-7.022l-.753-2.14a4.678,4.678,0,0,1-.24-.8,4.62,4.62,0,0,1,.344.758l.838,2.106c.7,1.783,1.639,4.254,2.664,6.991l.519,1.389.335.9-.578-.75a1.87,1.87,0,0,0-1.464-.7,2.2,2.2,0,0,0-1.44.528,4,4,0,0,0-1.294,2.391,8.7,8.7,0,0,0,.032,1.907,3.136,3.136,0,0,1,.025.7" transform="translate(-138.175 -31.614)" fill="#263238"/>
        <path id="Trazado_638654" data-name="Trazado 638654" d="M330.28,103.1c.079-.011,1.321,8.123,2.774,18.165s2.569,18.195,2.491,18.206-1.32-8.121-2.775-18.167-2.568-18.193-2.49-18.2" transform="translate(-146.23 -45.649)" fill="#263238"/>
        <g id="Grupo_882503" data-name="Grupo 882503" transform="translate(153.334 50.492)" opacity="0.3">
          <g id="Grupo_882502" data-name="Grupo 882502">
            <g id="Grupo_882501" data-name="Grupo 882501" clip-path="url(#clip-path-11)">
              <path id="Trazado_638655" data-name="Trazado 638655" d="M275.163,90.609a18.219,18.219,0,0,0,1.446,6.559,4.652,4.652,0,0,1,2.3-1.837,3.652,3.652,0,0,1,3.279,1.355,5.937,5.937,0,0,0-1.047-2.506,2.937,2.937,0,0,0-2.3-1.2,2.038,2.038,0,0,0-1.938,1.58l-1.666-3.91" transform="translate(-275.163 -90.609)"/>
            </g>
          </g>
        </g>
        <path id="Trazado_638656" data-name="Trazado 638656" d="M260.078,90.25c-.056,0-.037-.609-.213-1.558a9.49,9.49,0,0,0-1.413-3.454,10.173,10.173,0,0,0-1.327-1.578,8.984,8.984,0,0,0-1.331-1.036c-.816-.515-1.391-.713-1.371-.766.007-.02.154.017.417.1a3.083,3.083,0,0,1,.468.182,5.039,5.039,0,0,1,.6.3,7.92,7.92,0,0,1,1.41,1.015,9.342,9.342,0,0,1,1.39,1.615,8.627,8.627,0,0,1,1.372,3.588,6.07,6.07,0,0,1,.057,1.166,1.181,1.181,0,0,1-.055.425" transform="translate(-112.646 -36.24)" fill="#263238"/>
        <g id="Grupo_882506" data-name="Grupo 882506" transform="translate(184.549 61.07)" opacity="0.3">
          <g id="Grupo_882505" data-name="Grupo 882505">
            <g id="Grupo_882504" data-name="Grupo 882504" clip-path="url(#clip-path-12)">
              <path id="Trazado_638657" data-name="Trazado 638657" d="M331.179,109.592l3.728,26.265.187.42a56.355,56.355,0,0,0-3.915-26.685" transform="translate(-331.179 -109.592)"/>
            </g>
          </g>
        </g>
        <path id="Trazado_638658" data-name="Trazado 638658" d="M334.887,136.141l-12.124,21.2-29.873.649-.074,1.354,28.925-.215.917-.031,30.544.06,6.172-10.645,7.885-11.3a1.115,1.115,0,0,0-.919-1.753l-30.489.116a1.116,1.116,0,0,0-.964.562" transform="translate(-129.644 -59.976)" fill="#e0e0e0"/>
        <path id="Trazado_638659" data-name="Trazado 638659" d="M404.39,158.888s1.57,1.438,1.322,2.66-.165,2.131-1.322,2.214a1.759,1.759,0,0,1-1.57,1.817,1.937,1.937,0,0,1-1.876,2.247s-.684,2.049-2.089,1.553a12.39,12.39,0,0,1-2.313-1.074l-.413-.743s-2.069-.778-1.559-1.946c.309-.709,1.38-.893,1.38-.893a2.009,2.009,0,0,1,.132-1.817c.5-.667,2.111-.116,2.111-.116a2.277,2.277,0,0,1,.512-1.581c.55-.652,3.122,1.121,3.122,1.121l1.4-1.676Z" transform="translate(-174.66 -70.348)" fill="#c78976"/>
        <path id="Trazado_638660" data-name="Trazado 638660" d="M402.1,172.457a28.635,28.635,0,0,1-5-3.1,28.663,28.663,0,0,1,5,3.1" transform="translate(-175.819 -74.979)" fill="#8b5d54"/>
        <path id="Trazado_638661" data-name="Trazado 638661" d="M405.763,168.675a24.168,24.168,0,0,1-4.627-2.79,24.247,24.247,0,0,1,4.627,2.79" transform="translate(-177.603 -73.443)" fill="#8b5d54"/>
        <path id="Trazado_638662" data-name="Trazado 638662" d="M404.851,163.343a8.147,8.147,0,0,1,2.121,1.126,19.225,19.225,0,0,1,1.994,1.323,6.433,6.433,0,0,1-2.155-1.067,11.772,11.772,0,0,1-1.96-1.383" transform="translate(-179.248 -72.316)" fill="#8b5d54"/>
        <path id="Trazado_638663" data-name="Trazado 638663" d="M392.03,136.78a.536.536,0,0,1-.146.016l-.429.015-1.649.028-6.066.048-20.011.044h-1.457a1.2,1.2,0,0,0-1.111.524L359.8,139.9l-2.575,4.648-4.375,7.861L349.88,157.7l-.821,1.429-.22.368a.558.558,0,0,1-.084.12.541.541,0,0,1,.057-.135l.194-.383.772-1.458,2.889-5.334,4.319-7.893,2.559-4.656,1.365-2.469a1.506,1.506,0,0,1,1.361-.661h1.457l20.011.044,6.066.048,1.649.028.429.015a.538.538,0,0,1,.146.016" transform="translate(-154.411 -60.49)" fill="#263238"/>
        <path id="Trazado_638664" data-name="Trazado 638664" d="M387.514,155.616a1.289,1.289,0,1,0,1.925-.227,1.377,1.377,0,0,0-1.925.227" transform="translate(-171.389 -68.667)" fill="#fff"/>
        <path id="Trazado_638665" data-name="Trazado 638665" d="M294.5,42.481l-.168-4.807s6.389-1.4,6.071-7.854c-.154-3.117-.992-9.51-1.818-15.286A12.039,12.039,0,0,0,285.926,4.221l-.622.038c-6.685.8-9.737,6.933-8.747,13.593l1.565,25.418a8.2,8.2,0,0,0,16.376-.79" transform="translate(-122.365 -1.858)" fill="#c78976"/>
        <path id="Trazado_638666" data-name="Trazado 638666" d="M301.8,62.71a15.61,15.61,0,0,1-8.55-1.965s2.184,4.572,8.584,3.6Z" transform="translate(-129.839 -26.895)" fill="#8b5d54"/>
        <path id="Trazado_638667" data-name="Trazado 638667" d="M313.343,33a.923.923,0,0,1-.831.984.883.883,0,0,1-1-.772.923.923,0,0,1,.83-.984.883.883,0,0,1,1,.772" transform="translate(-137.92 -14.267)" fill="#263238"/>
        <path id="Trazado_638668" data-name="Trazado 638668" d="M311.2,27.875c-.107.127-.836-.346-1.827-.283s-1.687.6-1.8.489c-.056-.051.047-.275.349-.524a2.531,2.531,0,0,1,1.433-.541,2.429,2.429,0,0,1,1.463.375c.319.215.436.426.383.483" transform="translate(-136.17 -11.96)" fill="#263238"/>
        <path id="Trazado_638669" data-name="Trazado 638669" d="M295.987,33.71a.922.922,0,0,1-.831.984.882.882,0,0,1-1-.772.923.923,0,0,1,.83-.984.883.883,0,0,1,1,.772" transform="translate(-130.236 -14.58)" fill="#263238"/>
        <path id="Trazado_638670" data-name="Trazado 638670" d="M293.736,29.283c-.107.127-.838-.346-1.828-.283s-1.686.6-1.8.489c-.056-.05.046-.274.35-.524a2.53,2.53,0,0,1,1.433-.541,2.436,2.436,0,0,1,1.464.375c.318.215.435.426.383.483" transform="translate(-128.438 -12.583)" fill="#263238"/>
        <path id="Trazado_638671" data-name="Trazado 638671" d="M303.127,36.221a6.54,6.54,0,0,1,1.591-.39c.251-.042.488-.107.52-.283a1.289,1.289,0,0,0-.215-.739q-.413-.9-.867-1.881a33.2,33.2,0,0,1-1.991-4.937,33.239,33.239,0,0,1,2.384,4.765l.836,1.895a1.469,1.469,0,0,1,.192.985.636.636,0,0,1-.393.4,1.737,1.737,0,0,1-.426.086,6.511,6.511,0,0,1-1.632.1" transform="translate(-133.78 -12.393)" fill="#263238"/>
        <path id="Trazado_638672" data-name="Trazado 638672" d="M298.636,44.313c.161-.02.229,1.056,1.2,1.763s2.106.518,2.124.668c.019.067-.243.225-.726.268a2.689,2.689,0,0,1-1.769-.5,2.338,2.338,0,0,1-.934-1.483c-.069-.447.034-.721.109-.719" transform="translate(-132.163 -19.619)" fill="#263238"/>
        <path id="Trazado_638673" data-name="Trazado 638673" d="M293.089,22.468c-.081.275-1.079.209-2.232.421-1.159.188-2.075.586-2.245.354-.076-.111.072-.375.435-.659a3.95,3.95,0,0,1,3.41-.591c.437.146.665.344.631.475" transform="translate(-127.774 -9.667)" fill="#263238"/>
        <path id="Trazado_638674" data-name="Trazado 638674" d="M310.43,22.718c-.16.236-.858.044-1.679.084-.823.011-1.507.244-1.682.019-.077-.11.018-.343.309-.574a2.434,2.434,0,0,1,2.708-.083c.3.213.414.44.344.554" transform="translate(-135.944 -9.649)" fill="#263238"/>
        <path id="Trazado_638675" data-name="Trazado 638675" d="M296.514,10.946s-1.95-3.934-3.955-4.757c-2.428-1-3.283,1.655-5.569,1.165s-4.6-1.446-6.793.432c-2.4,2.056-1.136,3.317-1.116,6.188.085,11.64-1.831,15.051-2.771,9.624-.1-.595-1.794-.969-2.2-3.483-.522-3.26-.893-7.235-.3-9.608a9.2,9.2,0,0,1,3.445-5.042c3.021-2.554,7.367-2.873,10.339-2.757s8.876,3.163,8.918,8.237" transform="translate(-121.097 -1.191)" fill="#263238"/>
        <path id="Trazado_638676" data-name="Trazado 638676" d="M275.854,38.587a1.753,1.753,0,0,0-1.994-1.57c-1.2.188-2.492.953-2.26,3.434.412,4.4,4.745,3.078,4.741,2.952,0-.086-.3-2.976-.488-4.816" transform="translate(-120.239 -16.38)" fill="#c78976"/>
        <path id="Trazado_638677" data-name="Trazado 638677" d="M276.44,42.976c-.021-.012-.072.061-.2.133a.772.772,0,0,1-.572.065,1.905,1.905,0,0,1-1.037-1.619,2.544,2.544,0,0,1,.111-1.118.891.891,0,0,1,.522-.643.393.393,0,0,1,.472.168c.07.118.051.208.075.213s.087-.082.035-.261a.489.489,0,0,0-.2-.26.584.584,0,0,0-.434-.072,1.084,1.084,0,0,0-.737.757,2.615,2.615,0,0,0-.151,1.252,2,2,0,0,0,1.3,1.8.824.824,0,0,0,.69-.182c.126-.121.14-.222.124-.228" transform="translate(-121.451 -17.519)" fill="#8b5d54"/>
        <path id="Trazado_638678" data-name="Trazado 638678" d="M274.926,13.659a4.2,4.2,0,0,0,1.921.747,1.442,1.442,0,0,0,1.533-1.109c.033-.31-.064-.662.123-.912.223-.3.673-.236,1.045-.22a2.821,2.821,0,0,0,2.8-2.2,1.183,1.183,0,0,0,1.594.051,6.357,6.357,0,0,0,1.121-1.358,1.818,1.818,0,0,1,1.467-.85,4.347,4.347,0,0,0,.972.152c.576-.087.817-.782.869-1.362s.079-1.255.55-1.6a2.314,2.314,0,0,1,1.574-.14c.538.046,1.219-.122,1.323-.651a1.05,1.05,0,0,0-.246-.787,2.861,2.861,0,0,0-3.438-.873,3.877,3.877,0,0,0-7.157-.313,3.936,3.936,0,0,0-6.19,1.819,2.922,2.922,0,0,0-2.912,1.193,2.923,2.923,0,0,0-.043,3.147,2.709,2.709,0,0,0-1.355,2.245,1.551,1.551,0,0,0,1.851,1.473,1.58,1.58,0,0,0,2.824,1.4" transform="translate(-119.751 0)" fill="#263238"/>
        <path id="Trazado_638679" data-name="Trazado 638679" d="M288.88,6.868s.005.027,0,.081,0,.134-.013.237a2.784,2.784,0,0,1-.268.869,3.155,3.155,0,0,1-.913,1.1,2.943,2.943,0,0,1-1.774.626l.069-.1a1.6,1.6,0,0,1-.013,1.223,4.59,4.59,0,0,1-.688,1.131,3.314,3.314,0,0,1-.462.537,1.545,1.545,0,0,1-.683.3,1.613,1.613,0,0,1-1.45-.421l.162-.057a3.314,3.314,0,0,1-1.262,2.374,2.415,2.415,0,0,1-1.418.563,4.357,4.357,0,0,1-1.446-.225l.114-.059a3.473,3.473,0,0,1-.96,1.425,1.852,1.852,0,0,1-1.51.513A2.433,2.433,0,0,1,274.38,15.2l.1.04a2.277,2.277,0,0,1-1.5.316,2.475,2.475,0,0,1-1.085-.406,2.135,2.135,0,0,1-.526-.508,1.106,1.106,0,0,1-.126-.221,2.671,2.671,0,0,0,.693.668,2.45,2.45,0,0,0,1.057.362,2.179,2.179,0,0,0,1.415-.323l.08-.052.023.092a2.3,2.3,0,0,0,1.878,1.652,1.682,1.682,0,0,0,1.37-.481,3.317,3.317,0,0,0,.9-1.352l.03-.084.085.025a4.21,4.21,0,0,0,1.383.214,2.231,2.231,0,0,0,1.31-.524,3.136,3.136,0,0,0,1.193-2.238l.015-.21.147.153a1.434,1.434,0,0,0,1.281.372,1.373,1.373,0,0,0,.605-.262,3.214,3.214,0,0,0,.436-.5,4.456,4.456,0,0,0,.674-1.083,1.449,1.449,0,0,0,.028-1.107l-.043-.1h.111a2.839,2.839,0,0,0,1.7-.573,3.137,3.137,0,0,0,.911-1.046,3.428,3.428,0,0,0,.351-1.15" transform="translate(-120.093 -3.041)" fill="#455a64"/>
        <path id="Trazado_638680" data-name="Trazado 638680" d="M306.487,30.041a7.919,7.919,0,0,1-.288-1.031,4.348,4.348,0,0,1,.458-2.812,4.287,4.287,0,0,1,3.438-2.246,4.3,4.3,0,0,1,2.43.527,4.263,4.263,0,0,1,2.114,4.6,4.291,4.291,0,0,1-1.18,2.188,4.291,4.291,0,0,1-3.943,1.15,4.351,4.351,0,0,1-2.434-1.481,8.026,8.026,0,0,1-.6-.89,1.709,1.709,0,0,0,.114.255,1.968,1.968,0,0,0,.165.3,3.015,3.015,0,0,0,.265.381,4.4,4.4,0,0,0,4.5,1.544,4.437,4.437,0,0,0,2.042-1.141,4.437,4.437,0,0,0,1.234-2.267,4.416,4.416,0,0,0-2.2-4.777,4.429,4.429,0,0,0-2.524-.538,4.432,4.432,0,0,0-2.2.808,4.395,4.395,0,0,0-1.754,4.421,3.117,3.117,0,0,0,.117.449,2.038,2.038,0,0,0,.118.318,1.69,1.69,0,0,0,.12.252" transform="translate(-135.502 -10.526)" fill="#263238"/>
        <path id="Trazado_638681" data-name="Trazado 638681" d="M286.082,31.239a7.924,7.924,0,0,1-.289-1.031,4.352,4.352,0,0,1,.459-2.812,4.287,4.287,0,0,1,3.438-2.246,4.3,4.3,0,0,1,2.43.527,4.263,4.263,0,0,1,2.114,4.6,4.291,4.291,0,0,1-1.18,2.188,4.325,4.325,0,0,1-6.377-.332,8.017,8.017,0,0,1-.6-.89,1.621,1.621,0,0,0,.114.255,2,2,0,0,0,.165.3,3.072,3.072,0,0,0,.264.381,4.393,4.393,0,0,0,4.5,1.544,4.437,4.437,0,0,0,2.042-1.141,4.437,4.437,0,0,0,1.234-2.267,4.416,4.416,0,0,0-2.2-4.777,4.43,4.43,0,0,0-2.524-.538,4.437,4.437,0,0,0-2.2.808,4.392,4.392,0,0,0-1.754,4.421,3.02,3.02,0,0,0,.117.449,1.974,1.974,0,0,0,.118.318,1.65,1.65,0,0,0,.12.252" transform="translate(-126.468 -11.057)" fill="#263238"/>
        <path id="Trazado_638682" data-name="Trazado 638682" d="M301.336,30.791a2.989,2.989,0,0,1,2.7-.138c.011-.017-.111-.13-.354-.241a2.274,2.274,0,0,0-2.014.1c-.231.135-.341.26-.328.275" transform="translate(-133.416 -13.383)" fill="#263238"/>
        <path id="Trazado_638683" data-name="Trazado 638683" d="M278.533,36.107a14.942,14.942,0,0,0,2.05-.964,14.891,14.891,0,0,0,1.971-1.117,14.975,14.975,0,0,0-2.05.964,14.933,14.933,0,0,0-1.971,1.117" transform="translate(-123.32 -15.064)" fill="#263238"/>
      </g>
    </g>
    <g id="Grupo_882516" data-name="Grupo 882516">
      <g id="Grupo_882515" data-name="Grupo 882515" clip-path="url(#clip-path)">
        <path id="Trazado_638684" data-name="Trazado 638684" d="M137.693,336.315a18.155,18.155,0,1,1-9.945-23.639,18.136,18.136,0,0,1,9.945,23.639" transform="translate(-45.486 -137.835)" fill="#ffb338"/>
        <path id="Trazado_638685" data-name="Trazado 638685" d="M137.127,338.106a13.836,13.836,0,1,1-7.579-18.015,13.82,13.82,0,0,1,7.579,18.015" transform="translate(-48.918 -141.262)" fill="#ffb338"/>
        <path id="Trazado_638686" data-name="Trazado 638686" d="M137.014,338.005a1.379,1.379,0,0,1,.06-.217c.051-.154.118-.361.2-.625l.153-.458c.049-.171.085-.363.135-.568a10.043,10.043,0,0,0,.267-1.428,13.142,13.142,0,0,0-.043-3.964,13.736,13.736,0,0,0-13.036-11.63,14.288,14.288,0,0,0-1.949.049c-.327.035-.652.1-.981.148a6.888,6.888,0,0,0-.98.212,12.527,12.527,0,0,0-3.779,1.588,13.205,13.205,0,0,0-3.239,2.743,13.5,13.5,0,0,0-3.269,7.986,13.2,13.2,0,0,0,.388,4.228,12.5,12.5,0,0,0,1.582,3.782,12.639,12.639,0,0,0,2.5,3.033,13.8,13.8,0,0,0,6.429,3.279,13.805,13.805,0,0,0,11.021-2.436,13.168,13.168,0,0,0,2.809-2.8,10.03,10.03,0,0,0,.81-1.205c.109-.181.217-.343.3-.5l.212-.435.293-.588a1.369,1.369,0,0,1,.109-.2,1.28,1.28,0,0,1-.081.208l-.267.6-.2.443c-.082.159-.187.325-.291.509a9.771,9.771,0,0,1-.794,1.229,13.034,13.034,0,0,1-2.8,2.86,13.922,13.922,0,0,1-11.167,2.543,14.008,14.008,0,0,1-6.559-3.316,12.855,12.855,0,0,1-2.56-3.087,12.8,12.8,0,0,1-1.621-3.857,13.494,13.494,0,0,1-.4-4.316,13.767,13.767,0,0,1,3.338-8.155,13.46,13.46,0,0,1,3.311-2.8,12.744,12.744,0,0,1,3.858-1.614,7.077,7.077,0,0,1,1-.215c.335-.049.668-.114,1-.148a14.391,14.391,0,0,1,1.987-.045,14,14,0,0,1,7,2.232,13.923,13.923,0,0,1,6.183,9.64,13.045,13.045,0,0,1-.006,4,9.7,9.7,0,0,1-.3,1.433c-.054.205-.1.4-.149.567l-.168.456-.232.616a1.291,1.291,0,0,1-.088.206" transform="translate(-48.805 -141.161)" fill="#263238"/>
        <g id="Grupo_882511" data-name="Grupo 882511" transform="translate(62.363 177.847)" opacity="0.3">
          <g id="Grupo_882510" data-name="Grupo 882510">
            <g id="Grupo_882509" data-name="Grupo 882509" clip-path="url(#clip-path-14)">
              <path id="Trazado_638687" data-name="Trazado 638687" d="M137.6,338.241a8.276,8.276,0,0,1,.295-1.677,14.77,14.77,0,0,0,.143-4.523,14.167,14.167,0,0,0-.727-3.014,13.761,13.761,0,0,0-1.631-3.135,13.375,13.375,0,0,0-2.658-2.83,13.175,13.175,0,0,0-1.7-1.147,13.252,13.252,0,0,0-3.95-1.473,13.262,13.262,0,0,0-2.04-.247,13.394,13.394,0,0,0-3.865.4,13.793,13.793,0,0,0-3.287,1.3,14.211,14.211,0,0,0-2.524,1.8,14.784,14.784,0,0,0-2.855,3.512,8.173,8.173,0,0,1-.876,1.46,4.105,4.105,0,0,1,.513-1.649,12.907,12.907,0,0,1,2.71-3.867,13.837,13.837,0,0,1,6.076-3.5,13.225,13.225,0,0,1,2.012-.4,13.362,13.362,0,0,1,2.138-.095,13.854,13.854,0,0,1,2.2.25A13.914,13.914,0,0,1,131.84,321a13.834,13.834,0,0,1,1.829,1.252,13.91,13.91,0,0,1,2.814,3.088,13.813,13.813,0,0,1,2.3,6.623,12.9,12.9,0,0,1-.485,4.7,4.1,4.1,0,0,1-.693,1.583" transform="translate(-111.912 -319.151)"/>
            </g>
          </g>
        </g>
        <g id="Grupo_882514" data-name="Grupo 882514" transform="translate(67.342 182.463)" opacity="0.3">
          <g id="Grupo_882513" data-name="Grupo 882513">
            <g id="Grupo_882512" data-name="Grupo 882512" clip-path="url(#clip-path-15)">
              <path id="Trazado_638688" data-name="Trazado 638688" d="M127.232,344.809l-.88,2.243-2-.786.857-2.183a10.2,10.2,0,0,1-4.359-3.56l2.06-2.012a8.7,8.7,0,0,0,3.328,2.947l1.312-3.346c-2.012-1.413-4.2-3.128-3.08-5.993.833-2.123,3.09-3.341,6.4-2.46l.873-2.223,2,.786-.857,2.184a9.733,9.733,0,0,1,3.587,2.817l-1.968,2.071a8.816,8.816,0,0,0-2.656-2.245l-1.336,3.406c2.019,1.393,4.172,3.093,3.064,5.917-.817,2.083-3.047,3.289-6.341,2.436m1.471-9.64,1.116-2.844c-1.156-.176-1.8.24-2.064.9-.275.7.177,1.317.948,1.943m1.551,6.18c.275-.7-.157-1.31-.9-1.949l-1.084,2.764c1.088.173,1.733-.175,1.984-.816" transform="translate(-120.847 -327.436)"/>
            </g>
          </g>
        </g>
      </g>
    </g>
  </g>
</svg>
