<svg xmlns="http://www.w3.org/2000/svg" xmlns:xlink="http://www.w3.org/1999/xlink" width="352" height="359" viewBox="0 0 352 359">
  <defs>
    <clipPath id="clip-path">
      <rect id="Rectángulo_331300" data-name="Rectángulo 331300" width="352" height="359" transform="translate(16937 -6940)" fill="#fff" stroke="#707070" stroke-width="1"/>
    </clipPath>
    <clipPath id="clip-path-2">
      <rect id="Rectángulo_331299" data-name="Rectángulo 331299" width="334.339" height="512.402" fill="none"/>
    </clipPath>
    <clipPath id="clip-path-7">
      <path id="Trazado_643628" data-name="Trazado 643628" d="M206.558,26.4c-1.474,0-2.643,1.646-2.643,3.689v.88c0,4.785-2.6,4.8-5.846,4.8h-57.69c-3.212,0-5.83-.016-5.83-4.8v-.88c0-2.043-1.186-3.689-2.636-3.689H106.963c-6.984,0-12.632.749-12.632,16.114V64.825L66.26,48.489l-.049-.034v.008a3.725,3.725,0,0,0-1.087-.371c-3.277-.576-7.007,3.327-10.277,10-1.046-1.054-2.107-2.083-3.169-3.1-1.317-1.243-2.643-2.494-4-3.688s-2.734-2.405-4.158-3.533c1.194,1.376,2.454,2.684,3.722,3.986s2.56,2.568,3.87,3.828c1.127,1.071,2.264,2.141,3.425,3.17A67.321,67.321,0,0,0,51.6,66.076L49.15,64.208c-2.429-1.853-4.9-3.648-7.362-5.444-2.479-1.779-4.958-3.557-7.478-5.286s-5.031-3.467-7.6-5.114c2.371,1.927,4.8,3.78,7.229,5.624s4.9,3.648,7.362,5.443c2.479,1.779,4.957,3.557,7.477,5.287l2.668,1.836a100.529,100.529,0,0,0-3.426,13.619c-1.7-.371-3.409-.724-5.114-1.078-3.449-.717-6.916-1.359-10.375-2.043-3.466-.609-6.933-1.268-10.407-1.844L16.9,74.344c-1.737-.256-3.483-.536-5.228-.775,1.713.421,3.441.783,5.154,1.178l5.179,1.08c3.451.716,6.918,1.359,10.375,2.041,3.467.609,6.934,1.26,10.409,1.844,1.721.289,3.442.577,5.162.849-.008.04-.016.082-.024.123a101.447,101.447,0,0,0-1.425,12.162l-3.5-.008c-3.014-.008-6.02.05-9.033.108-3.006.074-6.011.148-9.017.3-3.015.131-6.019.279-9.026.511,3.015.107,6.028.114,9.033.114s6.019-.049,9.034-.1c3.006-.082,6.011-.156,9.017-.3l3.467-.174a76.294,76.294,0,0,0,.008,8.482c-1.68.238-3.343.527-5.015.807-2.017.362-4.035.716-6.036,1.144l-3.006.635c-1,.246-2,.461-2.989.725,1.02-.083,2.041-.214,3.055-.322l3.047-.411c2.033-.28,4.051-.618,6.069-.963,1.647-.288,3.286-.585,4.923-.915.627,8.383,2.866,14.081,6.407,14.707a3.775,3.775,0,0,0,1.144.024l.461-.082,39.781-7.156V309.361c0,7.543,5.648,13.644,12.632,13.644H231.5a11.719,11.719,0,0,0,4.644-.956,13.67,13.67,0,0,0,7.97-12.688v-44.4c.273-.478.421-.807.421-.807a9.519,9.519,0,0,0,5.188,2.075c3.047.132,5.83-4.323,5.83-4.323a8.427,8.427,0,0,0,5.715-1.055c2.89-1.861,4.315-11.074,4.265-16.262-.04-4.7-4.15-17.161-5.418-21.624v-.007c-.1-1.062-.238-2.24-.419-3.525l1.77-.139s-8.044-39.336-12.408-49.967a50.147,50.147,0,0,0-4.941-8.579V42.518c0-14.073-5.648-16.114-12.614-16.114Z" transform="translate(-11.675 -26.404)" fill="none"/>
    </clipPath>
    <clipPath id="clip-path-8">
      <rect id="Rectángulo_331294" data-name="Rectángulo 331294" width="14.637" height="13.13" fill="none"/>
    </clipPath>
    <clipPath id="clip-path-9">
      <rect id="Rectángulo_331296" data-name="Rectángulo 331296" width="21.158" height="61.423" fill="none"/>
    </clipPath>
    <clipPath id="clip-path-10">
      <rect id="Rectángulo_331297" data-name="Rectángulo 331297" width="29.902" height="39.326" fill="none"/>
    </clipPath>
    <clipPath id="clip-path-11">
      <rect id="Rectángulo_331298" data-name="Rectángulo 331298" width="14.249" height="59.21" fill="none"/>
    </clipPath>
  </defs>
  <g id="Enmascarar_grupo_878865" data-name="Enmascarar grupo 878865" transform="translate(-16937 6940)" clip-path="url(#clip-path)">
    <g id="Grupo_883844" data-name="Grupo 883844" transform="translate(16945.832 -6933)">
      <g id="Grupo_883843" data-name="Grupo 883843" clip-path="url(#clip-path-2)">
        <g id="Grupo_883822" data-name="Grupo 883822">
          <g id="Grupo_883821" data-name="Grupo 883821" clip-path="url(#clip-path-2)">
            <path id="Trazado_643511" data-name="Trazado 643511" d="M13.081,174.546A23.872,23.872,0,1,1,43.774,188.6a23.872,23.872,0,0,1-30.694-14.059" transform="translate(-2.044 -25.134)" fill="#ebebeb"/>
            <path id="Trazado_643512" data-name="Trazado 643512" d="M50.031,170.305c-2.739,7.643-10.759,12.926-10.759,12.926s-9.023-3.29-13.443-10.1c-3.687-5.677-2.558-12.411,1.984-14.384,6.512-2.831,9.618,8.723,9.618,8.723s.358-11.958,7.353-10.706c4.876.872,7.527,7.165,5.248,13.539" transform="translate(-4.171 -27.663)" fill="#fff"/>
            <path id="Trazado_643513" data-name="Trazado 643513" d="M363.948,251.865a23.868,23.868,0,0,1-25.013-2.159,23.87,23.87,0,1,1,25.013,2.159" transform="translate(-58.144 -36.493)" fill="#ebebeb"/>
            <path id="Trazado_643514" data-name="Trazado 643514" d="M364.261,231.441a7.264,7.264,0,1,1-6.615-7.86,7.264,7.264,0,0,1,6.615,7.86" transform="translate(-61.755 -39.472)" fill="#fff"/>
            <path id="Trazado_643515" data-name="Trazado 643515" d="M366.27,255l-.256,2.986A23.869,23.869,0,0,1,341,255.832l.255-2.976A12.553,12.553,0,0,1,366.27,255" transform="translate(-60.209 -42.619)" fill="#fff"/>
            <path id="Trazado_643516" data-name="Trazado 643516" d="M313.772,32.452a26.224,26.224,0,1,1,31.7,19.254,26.223,26.223,0,0,1-31.7-19.254" transform="translate(-55.268 0)" fill="#ebebeb"/>
            <path id="Trazado_643517" data-name="Trazado 643517" d="M339.991,38.506c-.693-.436-1.3-1.068-2.227-.98-.357.035-.277-.259-.28-.454q-.007-5.242-.007-10.478c0-.254.015-.463.292-.6,2.667-1.345,3.825-3.993,5.459-6.255a10.442,10.442,0,0,0,1.936-7.925c-.112-.786.254-1.139.963-1.3a1.752,1.752,0,0,1,1.994.627,14.09,14.09,0,0,1,1.524,4.578,16.447,16.447,0,0,1-.487,3.924c-.122.959-.345,1.907-.527,2.879.234.17.506.082.757.086q4.426.006,8.853,0c1.243,0,1.852.357,2.025,1.182a2.365,2.365,0,0,1-1.285,2.558c-.22.111-.618.011-.646.357s.385.315.589.458c1.068.733.87,2.244-.366,3.118-.3.208-.874.112-.888.548-.007.347.533.343.777.589a2,2,0,0,1-.855,3.085,3.936,3.936,0,0,0-.519.2c-.147.1-.29.208-.006.41,1.278.913,1.25,2.185-.036,3.111l-.385.276a2.5,2.5,0,0,1-1.554.34q-6.942.014-13.881,0a1.646,1.646,0,0,1-1.219-.338" transform="translate(-59.587 -1.845)" fill="#fff" fill-rule="evenodd"/>
            <path id="Trazado_643518" data-name="Trazado 643518" d="M324.548,35.471c0-2.218.01-4.44-.007-6.657,0-.452.043-.674.6-.667q4.061.049,8.119,0c.531-.006.613.177.61.649q-.022,6.7,0,13.4c0,.568-.152.729-.722.72-2.626-.03-5.251-.036-7.875,0-.653.011-.744-.219-.736-.79.033-2.219.012-4.438.012-6.659" transform="translate(-57.301 -4.97)" fill="#fff" fill-rule="evenodd"/>
            <path id="Trazado_643519" data-name="Trazado 643519" d="M60.143,328.75c1.356,8.79-3.607,18.067-3.607,18.067s-10.407,1.544-18.219-2.7c-6.517-3.54-8.947-10.614-5.6-14.886C37.5,323.1,46.53,332.6,46.53,332.6s-5.9-11.7,1.488-14.15c5.15-1.707,10.99,2.967,12.125,10.3" transform="translate(-5.512 -56.166)" fill="#ebebeb"/>
            <path id="Trazado_643520" data-name="Trazado 643520" d="M84.172,301.709c-3.934,5.231-11.372,7.384-11.372,7.384s-6.162-4.689-7.94-10.986c-1.483-5.252.995-10.168,4.964-10.6,5.689-.624,5.322,9.013,5.322,9.013s3.132-9.122,8.219-6.487c3.546,1.835,4.084,7.314.807,11.678" transform="translate(-11.375 -50.758)" fill="#ebebeb"/>
          </g>
        </g>
        <g id="Grupo_883824" data-name="Grupo 883824">
          <g id="Grupo_883823" data-name="Grupo 883823" clip-path="url(#clip-path-2)">
            <path id="Trazado_643521" data-name="Trazado 643521" d="M305.495,401.105c0,9.647-58.405,17.468-130.452,17.468S44.59,410.753,44.59,401.105,103,383.637,175.043,383.637s130.452,7.821,130.452,17.468" transform="translate(-7.873 -67.737)" fill="#ebebeb"/>
          </g>
        </g>
        <path id="Trazado_643522" data-name="Trazado 643522" d="M83.585,386.243l-41.793.072L0,386.515l41.792.2,41.793.072,83.585.138,83.585-.138,41.792-.072,41.793-.2-41.793-.2-41.792-.072-83.585-.137Z" transform="translate(0 -68.172)" fill="#263238"/>
        <g id="Grupo_883826" data-name="Grupo 883826">
          <g id="Grupo_883825" data-name="Grupo 883825" clip-path="url(#clip-path-2)">
            <path id="Trazado_643523" data-name="Trazado 643523" d="M254.663,15.364h-139.2A14.212,14.212,0,0,0,101.38,29.708V316.272a14.222,14.222,0,0,0,14.081,14.344h139.2a14.231,14.231,0,0,0,14.1-14.344V29.708a14.22,14.22,0,0,0-14.1-14.344m5.295,292.048c0,7.543-5.649,13.644-12.615,13.644H122.806c-6.983,0-12.632-6.1-12.632-13.644V40.569c0-15.365,5.649-16.115,12.632-16.115h24.942c1.449,0,2.635,1.647,2.635,3.689v.881c0,4.784,2.619,4.8,5.838,4.8h57.69c3.244,0,5.838-.016,5.838-4.8v-.881c0-2.042,1.169-3.689,2.643-3.689h24.95c6.966,0,12.615,2.042,12.615,16.115Z" transform="translate(-17.9 -2.713)" fill="#263238"/>
            <path id="Trazado_643524" data-name="Trazado 643524" d="M208.983,30.11H193.247a.972.972,0,1,1,0-1.944h15.736a.972.972,0,0,1,0,1.944" transform="translate(-33.949 -4.973)" fill="#fff"/>
            <path id="Trazado_643525" data-name="Trazado 643525" d="M261.843,42.519V309.361c0,7.543-5.649,13.644-12.615,13.644H124.692c-6.983,0-12.632-6.1-12.632-13.644V42.519c0-15.365,5.649-16.115,12.632-16.115h24.942c1.449,0,2.635,1.647,2.635,3.689v.881c0,4.784,2.619,4.8,5.838,4.8H215.8c3.244,0,5.838-.016,5.838-4.8v-.881c0-2.042,1.169-3.689,2.643-3.689h24.95c6.966,0,12.615,2.042,12.615,16.115" transform="translate(-19.786 -4.662)" fill="#fff"/>
            <path id="Trazado_643526" data-name="Trazado 643526" d="M261.838,42.519V62.429H112.055V42.519c0-15.365,5.649-16.115,12.632-16.115h24.95c1.449,0,2.635,1.647,2.635,3.689v.881c0,4.784,2.619,4.8,5.83,4.8h57.69c3.244,0,5.846-.016,5.846-4.8v-.881c0-2.042,1.169-3.689,2.643-3.689h24.942c6.966,0,12.615,2.042,12.615,16.115" transform="translate(-19.785 -4.662)" fill="#eb6f2d"/>
            <path id="Trazado_643527" data-name="Trazado 643527" d="M128.345,56.57l-4.425-4.146,4.425-4.146.687.731-3.644,3.415,3.644,3.415Z" transform="translate(-21.88 -8.524)" fill="#fff"/>
            <path id="Trazado_643528" data-name="Trazado 643528" d="M276.151,56.8h-2.962V55.772a.246.246,0,0,0-.139-.22,3.662,3.662,0,0,1-.33-.192.253.253,0,0,0-.261-.012l-.891.514L270.089,53.3l.891-.513a.248.248,0,0,0,.117-.232c0-.062,0-.125,0-.189s0-.127,0-.189a.252.252,0,0,0-.119-.233l-.89-.513,1.479-2.564.889.513a.249.249,0,0,0,.261-.011,3.7,3.7,0,0,1,.332-.193.245.245,0,0,0,.139-.219V47.928h2.962v1.026a.245.245,0,0,0,.139.219,3.7,3.7,0,0,1,.332.193.249.249,0,0,0,.261.011l.889-.513,1.479,2.564-.892.514a.249.249,0,0,0-.119.233c0,.064,0,.126,0,.189s0,.124,0,.185a.248.248,0,0,0,.116.234l.893.516-1.478,2.564-.892-.514a.252.252,0,0,0-.26.012,3.547,3.547,0,0,1-.33.192.246.246,0,0,0-.139.22Zm-2.344-.618h1.727v-.408a.863.863,0,0,1,.475-.77,2.924,2.924,0,0,0,.274-.159.861.861,0,0,1,.907-.029l.356.2.863-1.495-.359-.207a.86.86,0,0,1-.424-.8l0-.156,0-.16a.863.863,0,0,1,.427-.8l.356-.2-.862-1.495-.353.2a.863.863,0,0,1-.907-.028,2.827,2.827,0,0,0-.274-.159.86.86,0,0,1-.477-.77v-.408h-1.727v.408a.86.86,0,0,1-.477.77,2.732,2.732,0,0,0-.274.159.865.865,0,0,1-.907.028l-.353-.2-.862,1.495.355.205a.866.866,0,0,1,.427.8c0,.054,0,.105,0,.157s0,.1,0,.156a.865.865,0,0,1-.425.8l-.356.205.862,1.494.355-.2a.859.859,0,0,1,.907.03,2.873,2.873,0,0,0,.273.157.864.864,0,0,1,.476.771Zm.862-1.591a2.228,2.228,0,1,1,2.229-2.227,2.229,2.229,0,0,1-2.229,2.227m0-3.838a1.61,1.61,0,1,0,1.611,1.611,1.612,1.612,0,0,0-1.611-1.611" transform="translate(-47.688 -8.462)" fill="#fff"/>
            <path id="Trazado_643529" data-name="Trazado 643529" d="M151.305,33.441l-.241.24-.137.137a3.279,3.279,0,0,0-4.647,0c-.043-.045-.086-.091-.13-.137l-.238-.239-.007,0v-.006a.158.158,0,0,0,.018-.015c.1-.09.2-.183.3-.269a3.744,3.744,0,0,1,1.639-.763c.154-.029.31-.043.466-.062.054-.007.4-.008.409-.007.105.008.212.012.318.024a3.615,3.615,0,0,1,.857.205,3.786,3.786,0,0,1,.58.271,3.688,3.688,0,0,1,.553.388c.086.074.17.152.254.229Z" transform="translate(-25.762 -5.706)" fill="#fff"/>
            <path id="Trazado_643530" data-name="Trazado 643530" d="M147.208,34.805l-.381-.378a2.687,2.687,0,0,1,1.55-.778,2.717,2.717,0,0,1,2.331.773l-.382.38a2.206,2.206,0,0,0-3.118,0" transform="translate(-25.924 -5.936)" fill="#fff"/>
            <path id="Trazado_643531" data-name="Trazado 643531" d="M150.108,35.416l-.379.379a1.127,1.127,0,0,0-1.6,0l-.378-.378a1.655,1.655,0,0,1,2.354,0" transform="translate(-26.088 -6.167)" fill="#fff"/>
            <path id="Trazado_643532" data-name="Trazado 643532" d="M149.452,36.325a.342.342,0,1,1-.343-.342.342.342,0,0,1,.343.342" transform="translate(-26.267 -6.353)" fill="#fff"/>
            <path id="Trazado_643533" data-name="Trazado 643533" d="M123.919,34.354a.993.993,0,1,1,.992.993.992.992,0,0,1-.992-.993" transform="translate(-21.88 -5.891)" fill="#fff"/>
            <path id="Trazado_643534" data-name="Trazado 643534" d="M127.716,34.354a.993.993,0,1,1,.992.993.992.992,0,0,1-.992-.993" transform="translate(-22.55 -5.891)" fill="#fff"/>
            <path id="Trazado_643535" data-name="Trazado 643535" d="M131.514,34.354a.992.992,0,1,1,.991.993.992.992,0,0,1-.991-.993" transform="translate(-23.221 -5.891)" fill="#fff"/>
            <path id="Trazado_643536" data-name="Trazado 643536" d="M135.311,34.354a.993.993,0,1,1,.992.993.992.992,0,0,1-.992-.993" transform="translate(-23.891 -5.891)" fill="#fff"/>
            <path id="Trazado_643537" data-name="Trazado 643537" d="M139.108,34.354a.993.993,0,1,1,.993.993.992.992,0,0,1-.993-.993" transform="translate(-24.561 -5.891)" fill="#fff"/>
            <path id="Trazado_643538" data-name="Trazado 643538" d="M278.58,36.4H270.5V32.652h8.081Zm-7.669-.412h7.258v-2.92h-7.258Z" transform="translate(-47.76 -5.765)" fill="#fff"/>
            <rect id="Rectángulo_331273" data-name="Rectángulo 331273" width="5.209" height="2.472" transform="translate(223.409 27.523)" fill="#fff"/>
            <rect id="Rectángulo_331274" data-name="Rectángulo 331274" width="0.719" height="2.003" transform="translate(230.824 27.757)" fill="#fff"/>
            <path id="Trazado_643539" data-name="Trazado 643539" d="M137.489,365.652H136.35v5.23h-2.128v-2.665h-3.768v2.665h-2.128v-5.23h-1.139l5.151-5.323Z" transform="translate(-22.457 -63.621)" fill="#ebebeb"/>
            <rect id="Rectángulo_331275" data-name="Rectángulo 331275" width="12.415" height="1.774" transform="translate(217.194 296.708)" fill="#ebebeb"/>
            <rect id="Rectángulo_331276" data-name="Rectángulo 331276" width="12.415" height="1.774" transform="translate(217.194 301.098)" fill="#ebebeb"/>
            <rect id="Rectángulo_331277" data-name="Rectángulo 331277" width="12.415" height="1.774" transform="translate(217.194 305.486)" fill="#ebebeb"/>
            <path id="Trazado_643540" data-name="Trazado 643540" d="M136.67,98.651a8.353,8.353,0,0,1-8.789,0,8.356,8.356,0,1,1,8.789,0" transform="translate(-21.88 -14.687)" fill="#dbdbdb"/>
            <path id="Trazado_643541" data-name="Trazado 643541" d="M136.066,91.629a2.543,2.543,0,1,1-2.543-2.542,2.543,2.543,0,0,1,2.543,2.542" transform="translate(-23.126 -15.73)" fill="#fff"/>
            <path id="Trazado_643542" data-name="Trazado 643542" d="M137.52,99.751V100.8a8.353,8.353,0,0,1-8.789,0V99.751a4.394,4.394,0,0,1,8.789,0" transform="translate(-22.729 -16.837)" fill="#fff"/>
            <rect id="Rectángulo_331278" data-name="Rectángulo 331278" width="53.122" height="4.381" transform="translate(129.232 68.976)" fill="#ebebeb"/>
            <rect id="Rectángulo_331279" data-name="Rectángulo 331279" width="46.368" height="2.902" transform="translate(129.232 76.28)" fill="#ebebeb"/>
            <rect id="Rectángulo_331280" data-name="Rectángulo 331280" width="76.671" height="2.902" transform="translate(129.232 81.867)" fill="#ebebeb"/>
            <rect id="Rectángulo_331281" data-name="Rectángulo 331281" width="149.758" height="104.874" transform="translate(92.274 92.134)" fill="#ebebeb"/>
            <path id="Trazado_643543" data-name="Trazado 643543" d="M133.313,145.434a12.407,12.407,0,1,0,12.407-12.407,12.407,12.407,0,0,0-12.407,12.407" transform="translate(-23.538 -23.488)" fill="#dbdbdb"/>
            <path id="Trazado_643544" data-name="Trazado 643544" d="M192.816,199.441H276.1L234.457,143Z" transform="translate(-34.044 -25.248)" fill="#c7c7c7"/>
            <path id="Trazado_643545" data-name="Trazado 643545" d="M153.17,203.991h68.758l-34.379-36.755Z" transform="translate(-27.044 -29.528)" fill="#dbdbdb"/>
            <rect id="Rectángulo_331282" data-name="Rectángulo 331282" width="149.758" height="22.595" transform="translate(92.274 174.413)" fill="#dbdbdb"/>
            <path id="Trazado_643546" data-name="Trazado 643546" d="M136.67,303.093a8.227,8.227,0,0,1-2.409,1.009,8.357,8.357,0,1,1,2.409-1.009" transform="translate(-21.88 -50.784)" fill="#dbdbdb"/>
            <path id="Trazado_643547" data-name="Trazado 643547" d="M136.066,296.071a2.543,2.543,0,1,1-2.543-2.543,2.543,2.543,0,0,1,2.543,2.543" transform="translate(-23.126 -51.827)" fill="#fff"/>
            <path id="Trazado_643548" data-name="Trazado 643548" d="M137.52,304.193v1.049a8.353,8.353,0,0,1-8.789,0v-1.045a4.394,4.394,0,0,1,8.789,0" transform="translate(-22.729 -52.934)" fill="#fff"/>
            <rect id="Rectángulo_331283" data-name="Rectángulo 331283" width="68.32" height="4.381" transform="translate(129.232 237.321)" fill="#ebebeb"/>
            <rect id="Rectángulo_331284" data-name="Rectángulo 331284" width="87.213" height="2.902" transform="translate(129.232 244.625)" fill="#ebebeb"/>
            <rect id="Rectángulo_331285" data-name="Rectángulo 331285" width="29.71" height="2.902" transform="translate(129.232 250.212)" fill="#ebebeb"/>
            <rect id="Rectángulo_331286" data-name="Rectángulo 331286" width="149.758" height="25.617" transform="translate(92.274 260.48)" fill="#ebebeb"/>
            <path id="Trazado_643549" data-name="Trazado 643549" d="M157.553,345.684H134.2a12.408,12.408,0,0,1,23.353,0" transform="translate(-23.695 -59.586)" fill="#dbdbdb"/>
            <path id="Trazado_643550" data-name="Trazado 643550" d="M124.248,252.861a4.957,4.957,0,1,1,5.992,3.64,4.957,4.957,0,0,1-5.992-3.64" transform="translate(-21.913 -43.563)" fill="#ebebeb"/>
            <path id="Trazado_643551" data-name="Trazado 643551" d="M129.205,254.006c-.131-.082-.245-.2-.421-.185-.068.007-.053-.049-.053-.086,0-.661,0-1.321,0-1.981,0-.048,0-.087.055-.114.5-.254.723-.755,1.032-1.182a1.973,1.973,0,0,0,.366-1.5c-.021-.149.048-.216.182-.246a.332.332,0,0,1,.376.119,2.669,2.669,0,0,1,.288.865,3.067,3.067,0,0,1-.092.742c-.022.182-.065.361-.1.544.044.032.1.016.143.016h1.674c.235,0,.35.068.382.223a.446.446,0,0,1-.243.483c-.041.021-.117,0-.122.068s.072.06.111.086c.2.138.165.424-.069.59-.056.04-.166.021-.168.1,0,.066.1.065.147.111a.377.377,0,0,1-.161.583.865.865,0,0,0-.1.038c-.027.019-.054.04,0,.077a.329.329,0,0,1-.007.589l-.073.052a.467.467,0,0,1-.294.064q-1.312,0-2.623,0a.31.31,0,0,1-.231-.064" transform="translate(-22.729 -43.912)" fill="#fff" fill-rule="evenodd"/>
            <path id="Trazado_643552" data-name="Trazado 643552" d="M126.285,253.432c0-.419,0-.839,0-1.258,0-.086.008-.128.113-.127q.768.01,1.535,0c.1,0,.116.034.115.123q0,1.266,0,2.533c0,.107-.029.138-.137.136-.5-.006-.993-.007-1.489,0-.124,0-.141-.041-.139-.149.007-.42,0-.839,0-1.259" transform="translate(-22.297 -44.502)" fill="#fff" fill-rule="evenodd"/>
            <path id="Trazado_643553" data-name="Trazado 643553" d="M136.893,252.861a4.957,4.957,0,1,1,5.992,3.64,4.957,4.957,0,0,1-5.992-3.64" transform="translate(-24.145 -43.563)" fill="#ffc727"/>
            <path id="Trazado_643554" data-name="Trazado 643554" d="M144.7,252.863a6.358,6.358,0,0,1-2.53,2.407,6.348,6.348,0,0,1-2.53-2.407c-.624-1.26-.229-2.622.756-2.919,1.411-.427,1.774,2.031,1.774,2.031s.361-2.458,1.775-2.031c.985.3,1.38,1.659.756,2.919" transform="translate(-24.602 -44.122)" fill="#fff"/>
            <rect id="Rectángulo_331287" data-name="Rectángulo 331287" width="70.358" height="2.864" transform="translate(130.053 207.474)" fill="#ebebeb"/>
            <path id="Trazado_643555" data-name="Trazado 643555" d="M112.06,272.649l18.72-.15,18.719-.054,37.44-.1,37.439.1,18.72.054,18.72.151-18.72.152-18.72.053-37.439.1-37.44-.1L130.78,272.8Z" transform="translate(-19.786 -48.086)" fill="#ebebeb"/>
          </g>
        </g>
        <path id="Trazado_643631" data-name="Trazado 643631" d="M0,0H52.286V52.285H0Z" transform="matrix(0.966, -0.258, 0.258, 0.966, 12.587, 186.265)" fill="#2b95f9"/>
        <g id="Grupo_883828" data-name="Grupo 883828">
          <g id="Grupo_883827" data-name="Grupo 883827" clip-path="url(#clip-path-2)">
            <path id="Trazado_643556" data-name="Trazado 643556" d="M48.282,250.707l-6.774,1.806c-.706-2.647-1.371-5.142-2.074-7.778l6.644-1.771c-.128-.6-.217-1.068-.329-1.532-.5-2.055-1.128-4.087-1.478-6.166-.772-4.575,1.128-8.457,5.38-10.244,2.651-1.115,5.583-1.565,8.462-2.332.643,2.412,1.23,4.615,1.887,7.077-1.027.274-2.054.525-3.066.824a14.849,14.849,0,0,0-2.677.908,2.632,2.632,0,0,0-1.5,3.036c.451,2.008,1.041,3.984,1.615,6.137l7.725-2.059c.352,2.63.7,5.068.964,7.517.026.237-.486.682-.821.781-1.849.548-3.722,1.019-5.743,1.558l5.321,19.957-8.224,2.193-5.309-19.912" transform="translate(-6.963 -39.319)" fill="#fff"/>
            <rect id="Rectángulo_331290" data-name="Rectángulo 331290" width="52.429" height="52.429" transform="translate(255.309 279.585) rotate(-84.343)" fill="#fd4c1b"/>
            <path id="Trazado_643557" data-name="Trazado 643557" d="M360.762,297.924c.495-5.225-2.432-8.925-7.6-9.488q-10.734-1.172-21.493-2.129c-5.072-.448-8.687,2.582-9.264,7.632-.4,3.57-.717,7.153-1.071,10.728-.347,3.5-.716,7-1.036,10.5-.484,5.344,2.435,9.08,7.715,9.657q10.619,1.167,21.264,2.106c5.188.455,8.845-2.625,9.384-7.782q1.11-10.6,2.106-21.224m-5.535,20.947c-.363,3.3-2.322,4.95-5.631,4.644q-10.636-.986-21.259-2.106c-3.318-.347-4.933-2.348-4.625-5.638q1.015-10.729,2.124-21.447c.338-3.273,2.356-4.974,5.628-4.672q10.637.979,21.26,2.106c3.276.347,4.914,2.4,4.626,5.669-.314,3.579-.7,7.15-1.053,10.724s-.676,7.148-1.07,10.719" transform="translate(-56.543 -50.544)" fill="#fff"/>
            <path id="Trazado_643558" data-name="Trazado 643558" d="M343.741,298.75a10.08,10.08,0,1,0,8.959,11.165,10.064,10.064,0,0,0-8.959-11.165m-1.78,16.7a6.805,6.805,0,0,1-5.922-7.254,6.719,6.719,0,0,1,13.373,1.319,6.81,6.81,0,0,1-7.45,5.935" transform="translate(-58.742 -52.739)" fill="#fff"/>
            <path id="Trazado_643559" data-name="Trazado 643559" d="M360.959,299.443a2.09,2.09,0,0,1-2.6,1.837,2.111,2.111,0,0,1-1.934-2.716,2.23,2.23,0,0,1,2.63-1.892,2.258,2.258,0,0,1,1.9,2.771" transform="translate(-62.923 -52.381)" fill="#fff"/>
            <path id="Trazado_643630" data-name="Trazado 643630" d="M0,0H38.991V38.991H0Z" transform="translate(255.889 142.278) rotate(-70.413)" fill="#2b95f9"/>
            <path id="Trazado_643560" data-name="Trazado 643560" d="M320.08,159.374a13.424,13.424,0,0,0,9.059.389c-3.012-2.227-3.991-3.737-3.8-5.832l2.3.694a6.6,6.6,0,0,1-2.394-7.316l2.111,1.447c-1.35-3.947-1-6.508,1.256-8.215a17.881,17.881,0,0,0,9.844,10.25c.114-.39.194-.684.286-.975a5.843,5.843,0,0,1,5.179-4.4,5.913,5.913,0,0,1,6.089,3.032,1.241,1.241,0,0,0,1.191.72c1.031-.018,2.062-.021,3.2-.032a6.157,6.157,0,0,1-3.238,2.059c0,.063,0,.125.006.188l3.055.277.072.152c-.982.471-1.947.986-2.954,1.395a1.586,1.586,0,0,0-1.052,1.032,17.388,17.388,0,0,1-20.754,11.115,17.645,17.645,0,0,1-9.017-5.444c-.154-.173-.293-.357-.439-.537" transform="translate(-56.515 -24.814)" fill="#fff"/>
            <path id="Trazado_643629" data-name="Trazado 643629" d="M0,0H33.883V33.882H0Z" transform="matrix(0.949, -0.316, 0.316, 0.949, 255.449, 54.426)" fill="#617a0b"/>
            <path id="Trazado_643561" data-name="Trazado 643561" d="M325.554,92.294c-.1-2.018-.22-3.887-.281-5.758a2,2,0,0,0-.649-1.474A12.536,12.536,0,1,1,345.611,72.6,12.638,12.638,0,0,1,338.176,87.8a13.433,13.433,0,0,1-6.266.851,1.99,1.99,0,0,0-1.159.291c-1.7,1.056-3.369,2.162-5.2,3.347m1.949-3.758c1.074-.695,1.969-1.315,2.908-1.86a1.781,1.781,0,0,1,1.093-.214,11.143,11.143,0,0,0,5.209-.351,10.429,10.429,0,0,0,6.037-14.836,9.773,9.773,0,0,0-10.021-5.286,9.936,9.936,0,0,0-9.023,7.3c-1.353,4.219-.2,7.9,3.061,10.917a1.926,1.926,0,0,1,.537,1.112c.123,1.019.136,2.051.2,3.22" transform="translate(-56.69 -11.267)" fill="#fff"/>
            <path id="Trazado_643562" data-name="Trazado 643562" d="M327.951,75.026c.445-1.358,1.6-1.5,2.567-.491.378.4.483.536.879,1a1.53,1.53,0,0,1,.295,1.984c-.3.521-.147.842.294,1.182a8.8,8.8,0,0,0,4.62,1.843.838.838,0,0,0,1.012-.607c.627-1.595.647-1.588,2.352-1.385.2.023.393.049.589.073a1.455,1.455,0,0,1,1.2,2.33,3.494,3.494,0,0,1-3.056,1.918,12.757,12.757,0,0,1-9.045-3.078,4.828,4.828,0,0,1-1.8-2.388,4.21,4.21,0,0,1,.094-2.382" transform="translate(-57.866 -13.044)" fill="#fff"/>
          </g>
        </g>
        <g id="Grupo_883842" data-name="Grupo 883842" transform="translate(9.614 21.742)">
          <g id="Grupo_883841" data-name="Grupo 883841" clip-path="url(#clip-path-7)">
            <path id="Trazado_643563" data-name="Trazado 643563" d="M146.516,523.138h58.928s-11.866-137.633-11.4-140.037c.589-3.079,4.069-17.01,8.7-35.209,1.452-5.695,3.016-11.8,4.643-18.137,4.394-17.123,9.237-35.835,13.456-52.119,6.333-24.4,11.278-43.345,11.278-43.345H182.175s-5.82,18.449-13.154,42.456c-11.954,39.014-27.925,92.711-29.5,105.766-2.553,21.077,7,140.625,7,140.625" transform="translate(-34.171 -63.109)" fill="#455a64"/>
            <path id="Trazado_643564" data-name="Trazado 643564" d="M192.052,377.372c1.933-8.518,4.819-16.866,7.333-25.228q7.662-25.484,15.415-50.941,3.87-12.731,7.773-25.451c1.318-4.28,2.633-8.563,3.974-12.837,1.312-4.181,2.8-8.329,3.987-12.548.482-1.717.744-.773.128,1.406-1.243,4.395-2.47,8.8-3.752,13.179q-3.807,13.025-7.663,26.035-7.663,25.9-15.459,51.753-3.889,12.969-7.8,25.932a106.324,106.324,0,0,0-3.185,12.544,57.778,57.778,0,0,0-.52,13.421c.565,9.016,1.61,18.018,2.442,27.013l2.5,27.041q2.49,26.908,4.936,53.819c.205,2.273.4,4.548.579,6.825.058.761-1.093.7-1.173-.029-1.941-17.738-3.429-35.534-5.095-53.3q-2.486-26.516-4.967-53.033c-.414-4.438-.887-8.885-.89-13.347a55.087,55.087,0,0,1,1.434-12.256" transform="translate(-43.27 -65.792)" fill="#263238"/>
            <path id="Trazado_643565" data-name="Trazado 643565" d="M198.3,234.291c3.467,26.823,10.076,77.116,14.894,113.6,11.265-44.209,29.377-113.6,29.377-113.6Z" transform="translate(-44.626 -63.109)" fill="#263238"/>
            <path id="Trazado_643566" data-name="Trazado 643566" d="M193.376,234.291s1.152,23.894,6.621,42.819c.438,1.565.914,3.1,1.427,4.581a88.916,88.916,0,0,1,14.395,7.4s.576,19.226,1.151,40.667c.638,23.969,1.3,50.7,1.164,56.375-.5,21.216,2.653,137.871,2.653,137.871l58.916.238s-10.651-130.273-10.576-138.047c.113-12.492-2.854-67.7-5.144-107.969-1.4-24.808-2.553-43.934-2.553-43.934Z" transform="translate(-43.757 -63.109)" fill="#455a64"/>
            <path id="Trazado_643567" data-name="Trazado 643567" d="M269.921,244.614c1.084,32.87,2.233,65.743,3.7,98.6,1.475,32.968,3.463,65.924,6.221,98.811,1.541,18.374,2.994,44.219,4.977,62.551.013.123-.175.167-.191.041-4.29-32.606-6.681-72.924-8.791-105.736s-3.538-65.671-4.657-98.526c-.633-18.585-1.117-37.176-1.672-55.763-.008-.265.4-.241.41.021" transform="translate(-57.2 -64.895)" fill="#263238"/>
            <path id="Trazado_643568" data-name="Trazado 643568" d="M200.058,290.12a109.347,109.347,0,0,1,16.843,8.821.2.2,0,0,1-.177.347c-5.683-2.762-11.487-5.421-17.011-8.491a.38.38,0,0,1,.345-.678" transform="translate(-44.84 -72.961)" fill="#263238"/>
            <path id="Trazado_643569" data-name="Trazado 643569" d="M195.838,258.006c.469,2.526,1.082,5.026,1.628,7.537.511,2.355.888,4.759,1.511,7.087a12.06,12.06,0,0,0,3.3,5.941c.925.859,1.942,1.619,2.928,2.406.531.424,1.105.832,1.657,1.261-.072-.333-.129-.673-.189-1.016q-.252-1.436-.492-2.875-.536-3.192-1.024-6.392c-.641-4.19-1.231-8.426-2.1-12.576a.135.135,0,0,1,.261-.065c1.044,4.111,2.2,8.179,3.106,12.326.446,2.034,2.038,12.075,2.108,12.785.073.734.134,1.47.16,2.207a8.793,8.793,0,0,1,0,2.255c-.044.183-.264.153-.343.03l-.01.007a8.864,8.864,0,0,1-.639-2.182c-.184-.716-.347-1.444-.475-2.172-.046-.263-.083-.533-.12-.8-.989-.6-1.91-1.4-2.834-2.065-1-.721-2.012-1.425-2.954-2.217a11.317,11.317,0,0,1-3.607-5.635,41.143,41.143,0,0,1-1.182-7.217c-.319-2.852-.553-5.721-.95-8.565-.024-.168.229-.238.261-.065" transform="translate(-44.145 -67.279)" fill="#263238"/>
            <path id="Trazado_643570" data-name="Trazado 643570" d="M194.321,150.557c-3.376,26.909-9.275,72.042-18.816,75.693-1.653.632-8.68,2.026-13.483-3.381-8.1-9.116-22.1-39.838-26.007-49.721-1.734-4.382,26.836-18.682,29.282-14.276,3.426,6.168,7.023,15.455,7.7,15.145,1.138-.516,3.081-11.974,10.714-28.062,9.484-19.99,11.86-5.4,10.605,4.6" transform="translate(-33.616 -45.752)" fill="#ad6359"/>
            <path id="Trazado_643571" data-name="Trazado 643571" d="M125.888,162.007c2.813,6.042,13.4,16.148,16.89,17.6s21.271-15.97,20.818-19.825S152.1,136.322,146,133.3s-23.03,22.444-20.116,28.7" transform="translate(-31.782 -45.235)" fill="#ad6359"/>
            <path id="Trazado_643572" data-name="Trazado 643572" d="M167.607,154.116s-.586-8.649,1.47-16c1.729-6.184,5-15.172,1.706-16.227-6.756-2.165-14.9,20.253-14.9,20.253s-2,10.467,4.5,13.2a7.006,7.006,0,0,0,7.218-1.226" transform="translate(-37.086 -43.237)" fill="#ad6359"/>
            <path id="Trazado_643573" data-name="Trazado 643573" d="M146.055,163.142l-10.023-1.767,5.116-29.026,12.684,2.236Z" transform="translate(-33.632 -45.11)" fill="#ffc727"/>
            <path id="Trazado_643574" data-name="Trazado 643574" d="M153.829,134.584l-2.963,10.895-4.815,17.667-10.024-1.767,5.117-29.03Z" transform="translate(-33.631 -45.11)" fill="#ffc727"/>
            <g id="Grupo_883831" data-name="Grupo 883831" transform="translate(105.561 87.238)" opacity="0.1">
              <g id="Grupo_883830" data-name="Grupo 883830">
                <g id="Grupo_883829" data-name="Grupo 883829" clip-path="url(#clip-path-8)">
                  <path id="Trazado_643575" data-name="Trazado 643575" d="M154.507,134.584l-2.963,10.895-11.674-2.058,1.952-11.073Z" transform="translate(-139.871 -132.348)"/>
                </g>
              </g>
            </g>
            <rect id="Rectángulo_331295" data-name="Rectángulo 331295" width="12.173" height="16.025" transform="translate(104.843 91.186) rotate(-80.004)" fill="#ffc727"/>
            <path id="Trazado_643576" data-name="Trazado 643576" d="M171.825,118.544l-12.475-.936,3.42-19.4,12.043,3.386Z" transform="translate(-37.749 -39.082)" fill="#ffb338"/>
            <path id="Trazado_643577" data-name="Trazado 643577" d="M140.162,85.307l-5.046,28.629-21-1.162-50.928,9.165L75.3,53.186l44.723,26.031Z" transform="translate(-20.77 -31.133)" fill="#ffb338"/>
            <path id="Trazado_643578" data-name="Trazado 643578" d="M77.578,89.235c-3.363,19.08-11.061,33.671-17.193,32.59s-8.378-17.425-5.016-36.5,11.06-33.671,17.193-32.59,8.378,17.425,5.016,36.5" transform="translate(-19.114 -31.042)" fill="#ffb338"/>
            <g id="Grupo_883834" data-name="Grupo 883834" transform="translate(36.782 24.921)" opacity="0.2">
              <g id="Grupo_883833" data-name="Grupo 883833">
                <g id="Grupo_883832" data-name="Grupo 883832" clip-path="url(#clip-path-9)">
                  <path id="Trazado_643579" data-name="Trazado 643579" d="M75.441,88.87c-2.986,16.938-9.476,29.952-14.5,29.066S54.272,102.6,57.257,85.665s9.477-29.952,14.5-29.066,6.672,15.333,3.687,32.271" transform="translate(-55.771 -56.556)"/>
                </g>
              </g>
            </g>
            <path id="Trazado_643580" data-name="Trazado 643580" d="M75.346,93.388c-.4,2.257-.859,4.44-1.373,6.53a6.963,6.963,0,0,1-10.244-7.3l.571-3.242a6.959,6.959,0,0,1,12.077-3.4c-.238,2.391-.585,4.878-1.032,7.415" transform="translate(-20.847 -36.505)" fill="#ffb338"/>
            <path id="Trazado_643581" data-name="Trazado 643581" d="M158.5,122.83l-24.124-1.81L140.991,83.5l23.289,6.547Z" transform="translate(-33.34 -36.486)" fill="#ffb338"/>
            <g id="Grupo_883837" data-name="Grupo 883837" transform="translate(101.766 47.018)" opacity="0.2">
              <g id="Grupo_883836" data-name="Grupo 883836">
                <g id="Grupo_883835" data-name="Grupo 883835" clip-path="url(#clip-path-10)">
                  <path id="Trazado_643582" data-name="Trazado 643582" d="M158.5,122.83l-24.124-1.81L140.991,83.5l23.289,6.547Z" transform="translate(-134.378 -83.504)"/>
                </g>
              </g>
            </g>
            <g id="Grupo_883840" data-name="Grupo 883840" transform="translate(45.734 27.33)" opacity="0.2">
              <g id="Grupo_883839" data-name="Grupo 883839">
                <g id="Grupo_883838" data-name="Grupo 883838" clip-path="url(#clip-path-11)">
                  <path id="Trazado_643583" data-name="Trazado 643583" d="M78.4,59.594a21.793,21.793,0,0,1,2.434,7.462,49.675,49.675,0,0,1,.619,7.869c.038,1.317-.046,2.632-.082,3.948-.109,1.311-.179,2.627-.319,3.934-.162,1.305-.277,2.618-.478,3.917s-.383,2.6-.615,3.9a86.42,86.42,0,0,1-4.091,15.229,44.9,44.9,0,0,1-3.425,7.114,18.7,18.7,0,0,1-5.229,5.841,19.3,19.3,0,0,0,4.911-6.029,44.921,44.921,0,0,0,3.2-7.128A91.636,91.636,0,0,0,79.22,90.488a94.045,94.045,0,0,0,1.659-15.565,49.928,49.928,0,0,0-.406-7.811A22.689,22.689,0,0,0,78.4,59.594" transform="translate(-67.216 -59.594)"/>
                </g>
              </g>
            </g>
            <path id="Trazado_643584" data-name="Trazado 643584" d="M50.341,52.344c1.43,1.13,2.8,2.325,4.158,3.531s2.686,2.444,4.006,3.689,2.613,2.521,3.874,3.827l1.891,1.963c.609.676,1.238,1.331,1.831,2.026-.721-.559-1.4-1.157-2.109-1.733l-2.05-1.8c-1.364-1.2-2.685-2.444-4.005-3.691s-2.612-2.521-3.873-3.828-2.525-2.611-3.722-3.987" transform="translate(-18.502 -30.984)" fill="#263238"/>
            <path id="Trazado_643585" data-name="Trazado 643585" d="M57.455,116.865c-1.989.517-3.991.945-6,1.36s-4.019.785-6.033,1.145c-2.019.341-4.037.679-6.067.956l-3.044.412c-1.021.108-2.036.244-3.061.326.992-.267,1.994-.481,2.991-.724l3.006-.638c2.005-.423,4.02-.784,6.034-1.143,2.019-.34,4.037-.679,6.067-.955s4.059-.557,6.1-.739" transform="translate(-15.485 -42.376)" fill="#263238"/>
            <path id="Trazado_643586" data-name="Trazado 643586" d="M16.849,108c3-.237,6.011-.384,9.018-.516s6.015-.22,9.023-.3c3.009-.058,6.018-.114,9.027-.106l4.516.015c1.505.035,3.01.041,4.517.1-1.5.128-3,.2-4.507.3l-4.511.215c-3.006.142-6.014.22-9.023.3-3.008.057-6.017.114-9.027.105s-6.02-.012-9.032-.114" transform="translate(-12.589 -40.648)" fill="#263238"/>
            <path id="Trazado_643587" data-name="Trazado 643587" d="M29.934,53.073c2.572,1.651,5.09,3.376,7.6,5.112s4.994,3.508,7.474,5.289,4.932,3.594,7.362,5.444l3.641,2.777c1.2.949,2.409,1.877,3.59,2.847-1.291-.818-2.551-1.681-3.827-2.52L52,69.431c-2.516-1.728-4.994-3.509-7.473-5.291s-4.932-3.594-7.362-5.445-4.859-3.7-7.231-5.622" transform="translate(-14.899 -31.113)" fill="#263238"/>
            <path id="Trazado_643588" data-name="Trazado 643588" d="M53.243,91.46c-3.5-.481-6.974-1.05-10.45-1.633s-6.939-1.235-10.41-1.849c-3.458-.679-6.923-1.323-10.374-2.036l-5.175-1.084c-1.719-.391-3.444-.754-5.159-1.17,1.749.232,3.488.517,5.233.773l5.217.859c3.477.583,6.94,1.234,10.41,1.85,3.458.681,6.923,1.322,10.374,2.037s6.9,1.439,10.334,2.253" transform="translate(-11.675 -36.518)" fill="#263238"/>
            <path id="Trazado_643589" data-name="Trazado 643589" d="M153.663,138.211c-.381,3.51-4.3,1.052-4.3,1.052s4.788,4.9,3,8.366c-1.737,3.337-6.366.2-6.7-.021.251.262,4.533,4.878,2.373,8.176-2.248,3.427-6.354-.52-6.619-.777.16.321,2.2,4.6-.013,6.737-3.8,3.663-9.314-7.143-13.431-8.29,0,0-2.74,6.756-2.861,6.936,0,0-5.455-10.174-3.6-15.642a3.685,3.685,0,0,1,3.858-2.538s-2.121-3.086-.5-5.737c.835-1.359,3.75-1.232,3.75-1.232s-1.595-2.542-.008-4.811c1.261-1.814,3.99-1.4,3.99-1.4s-.4-3.151,1.49-4.586c3.805-2.9,20.387,6.254,19.577,13.771" transform="translate(-31 -43.616)" fill="#ad6359"/>
            <path id="Trazado_643590" data-name="Trazado 643590" d="M135.584,130.1a.05.05,0,0,1,.03-.095,32.854,32.854,0,0,1,16.521,10.444c.133.165-.077.452-.258.3A67.284,67.284,0,0,0,135.584,130.1" transform="translate(-33.547 -44.697)" fill="#263238"/>
            <path id="Trazado_643591" data-name="Trazado 643591" d="M130.135,137.551c-.068-.03-.018-.142.058-.121,6.366,1.766,13.328,6.177,17.314,12.513.137.217.042.55-.134.311-2.97-4.013-11.646-10.212-17.239-12.7" transform="translate(-32.585 -46.007)" fill="#263238"/>
            <path id="Trazado_643592" data-name="Trazado 643592" d="M142.5,159.456c-4.058-5.928-9.608-9.959-15.9-13.28-.082-.043-.012-.154.066-.137,3.523.785,7.315,3.32,10.1,5.543a18.944,18.944,0,0,1,5.946,7.733c.05.122-.121.268-.208.142" transform="translate(-31.959 -47.527)" fill="#263238"/>
            <path id="Trazado_643593" data-name="Trazado 643593" d="M150.951,142.551c.159.2-.305.212-.152.416.644.853,4.075,6.32,2.576,8.067-1.206,1.4-3.919.748-4.863.089l-2.375-1.655,1.655,2.381a11.841,11.841,0,0,1,1.682,3.449,4.238,4.238,0,0,1-.258,3.454,2.42,2.42,0,0,1-2.824,1.142,7.326,7.326,0,0,1-3.09-1.979l-2.417-2.435,1.481,3.077a11.142,11.142,0,0,1,.9,2.7,4.578,4.578,0,0,1-.156,2.642,2.18,2.18,0,0,1-1.87,1.336,4.835,4.835,0,0,1-2.519-.966,37.913,37.913,0,0,1-4.5-3.892c-.73-.688-1.463-1.382-2.23-2.039a7.153,7.153,0,0,0-2.558-1.586,7.729,7.729,0,0,1,2.371,1.79c.706.707,1.379,1.448,2.055,2.191a32.3,32.3,0,0,0,4.386,4.214,5.627,5.627,0,0,0,2.984,1.254,3.093,3.093,0,0,0,2.835-1.863,5.616,5.616,0,0,0,.282-3.272,12.205,12.205,0,0,0-.957-3.016l-.935.643a8.406,8.406,0,0,0,3.626,2.374,3.509,3.509,0,0,0,2.371-.129,3.967,3.967,0,0,0,1.747-1.565,5.344,5.344,0,0,0,.327-4.374,12.855,12.855,0,0,0-1.909-3.765l-.72.725c1.229.8,4.183,1.854,6.325-.08,2.414-2.936-2.334-8.389-3.273-9.325" transform="translate(-32.467 -46.911)" fill="#263238"/>
            <path id="Trazado_643594" data-name="Trazado 643594" d="M155.418,141.627a7.1,7.1,0,0,0,2.118.458,1.642,1.642,0,0,0,1.5-.716,3.341,3.341,0,0,0,.311-1.871c-.051-.71-.141-1.453-.264-2.217a5.632,5.632,0,0,1,1.027,2.1,3.306,3.306,0,0,1-.238,2.516,2.348,2.348,0,0,1-1.094.881,2.444,2.444,0,0,1-1.33.072,3.791,3.791,0,0,1-2.029-1.221" transform="translate(-37.055 -45.981)" fill="#263238"/>
            <path id="Trazado_643595" data-name="Trazado 643595" d="M133.313,182.5l31.231-25.118s7.574,15.644,8.018,15.581,5.4-20.822,13.615-33.755,10.2,1.1,8.454,11.781-9.967,69.813-17.354,75.233-14.329-1.363-17.316-4.244c-4.118-3.971-26.648-39.478-26.648-39.478" transform="translate(-33.152 -45.405)" fill="#2b95f9"/>
            <path id="Trazado_643596" data-name="Trazado 643596" d="M140.608,192.014c.978-1,10.8-8.656,12.964-10.272s4.342-3.23,6.516-4.841c2.246-1.665,4.456-3.47,6.829-4.951a.1.1,0,0,1,.121.153c-2.054,1.9-4.378,3.545-6.576,5.269q-3.253,2.552-6.514,5.1c-2.176,1.692-12.051,9.046-13.245,9.7-.1.055-.161-.09-.095-.158" transform="translate(-34.435 -52.099)" fill="#263238"/>
            <path id="Trazado_643597" data-name="Trazado 643597" d="M180.978,181.314c.865,1.844,1.616,3.734,2.339,5.635s1.379,3.826,2,5.762c.6,1.944,1.178,3.895,1.643,5.878a52.645,52.645,0,0,1,1.131,6c-.3-.974-.553-1.956-.867-2.922-.273-.976-.576-1.943-.875-2.911l-1.816-5.8-1.811-5.8-.893-2.91c-.275-.979-.581-1.947-.848-2.93" transform="translate(-41.568 -53.756)" fill="#263238"/>
            <path id="Trazado_643598" data-name="Trazado 643598" d="M181.126,236.293c1.352,1.339,84.39-3.053,84.79-3.592,1.089-1.464-28.608-89.842-48.075-103.825-4.187-3.006-15.43,1.021-18.318,3.919-1.811,1.817-5.756,13.3-8.336,22.8-5.165,19.017-11.237,79.517-10.061,80.693" transform="translate(-41.568 -44.309)" fill="#fff"/>
            <path id="Trazado_643599" data-name="Trazado 643599" d="M204.888,128.8c-3.289,2.442-5.819,15.075,1.711,16.787s14.513-10.183,15.54-14.025-10.132-8.047-17.251-2.762" transform="translate(-45.223 -44.044)" fill="#ffc727"/>
            <path id="Trazado_643600" data-name="Trazado 643600" d="M206.582,140.763c4.67.6,11.76-7.184,14.258-13.152.169-.409-.852-4.425-1.862-9.363-.6-3-1.2-6.353-1.525-9.453l-18.945,6.763a49.713,49.713,0,0,1,3.127,11.7,7.059,7.059,0,0,1,0,1.286c0,.059-.011.132-.007.213-.14,2.458.441,11.419,4.954,12" transform="translate(-44.663 -40.951)" fill="#ad6359"/>
            <path id="Trazado_643601" data-name="Trazado 643601" d="M216.555,109.185c-.2,3.934-1.691,18.11-12.922,19.544a13.564,13.564,0,0,1-2,.1.789.789,0,0,1,.009-.218,7.254,7.254,0,0,0,0-1.283,49.97,49.97,0,0,0-3.136-11.706Z" transform="translate(-44.662 -41.02)" fill="#263238"/>
            <path id="Trazado_643602" data-name="Trazado 643602" d="M215.182,78.508c2.763,6.7,1.018,26.978-3.466,31.89-6.5,7.121-18.09,8.846-24.379.816-6.1-7.785-3.355-34.173,1.742-38.734,7.507-6.718,22.021-3.868,26.1,6.028" transform="translate(-42.075 -33.894)" fill="#ad6359"/>
            <path id="Trazado_643603" data-name="Trazado 643603" d="M218.268,119.018a0,0,0,1,0,0-.007" transform="translate(-48.152 -42.755)" fill="none" stroke="#f4a69d" stroke-linecap="round" stroke-linejoin="round" stroke-width="0"/>
            <path id="Trazado_643604" data-name="Trazado 643604" d="M200.118,97.593c.015-.051.1.073.1.129-.154,1.363-.1,2.95,1.1,3.5.037.017.027.086-.018.076-1.491-.335-1.541-2.442-1.176-3.709" transform="translate(-44.914 -38.971)" fill="#263238"/>
            <path id="Trazado_643605" data-name="Trazado 643605" d="M201.468,95.984c2.211.012,2.026,4.433-.023,4.423-2.017-.011-1.83-4.433.023-4.423" transform="translate(-44.927 -38.689)" fill="#263238"/>
            <path id="Trazado_643606" data-name="Trazado 643606" d="M190.491,97.252c-.008-.052-.11.061-.11.117-.014,1.372-.261,2.94-1.519,3.343-.039.012-.038.082.008.076,1.521-.148,1.828-2.234,1.621-3.536" transform="translate(-42.955 -38.911)" fill="#263238"/>
            <path id="Trazado_643607" data-name="Trazado 643607" d="M189.034,95.454c-2.2-.259-2.553,4.152-.52,4.392,2,.237,2.36-4.175.52-4.392" transform="translate(-42.661 -38.594)" fill="#263238"/>
            <path id="Trazado_643608" data-name="Trazado 643608" d="M203.278,92.93a17.358,17.358,0,0,1-1.687-.675A2.94,2.94,0,0,1,200,91.238a.936.936,0,0,1,.2-1.126,2.32,2.32,0,0,1,2.347-.142,3.412,3.412,0,0,1,1.9,1.556,1,1,0,0,1-1.169,1.4" transform="translate(-44.907 -37.584)" fill="#263238"/>
            <path id="Trazado_643609" data-name="Trazado 643609" d="M187.228,92.049A17.079,17.079,0,0,0,189,91.667a2.937,2.937,0,0,0,1.738-.735.936.936,0,0,0-.007-1.143,2.32,2.32,0,0,0-2.29-.533,3.4,3.4,0,0,0-2.135,1.215,1,1,0,0,0,.917,1.579" transform="translate(-42.472 -37.488)" fill="#263238"/>
            <path id="Trazado_643610" data-name="Trazado 643610" d="M201.706,113.166c-.342.307-.688.735-1.186.756a3.615,3.615,0,0,1-1.458-.407.049.049,0,0,0-.063.068,1.846,1.846,0,0,0,1.708.816,1.46,1.46,0,0,0,1.128-1.166c.024-.078-.079-.112-.129-.068" transform="translate(-44.749 -41.72)" fill="#263238"/>
            <path id="Trazado_643611" data-name="Trazado 643611" d="M199.057,104.875a4.668,4.668,0,0,1-3.2,1.945,5.868,5.868,0,0,1-1.681.006,1.632,1.632,0,0,1-.319-.05c-.1-.016-.189-.031-.3-.058a.341.341,0,0,1-.262-.318v-.01a.579.579,0,0,1,.019-.14v-.011l.007-.119c.016-1.056.185-2.656.185-2.656-.394.177-2.4.978-2.341.428.464-4.549.979-9.609,2.4-14.039a.127.127,0,0,1,.249.045c-.273,4.391-1.316,8.7-1.66,13.109a8.172,8.172,0,0,1,2.229-.576c.148.049-.383,3.085-.352,3.56a.2.2,0,0,0,.007.051c1.763.3,3.121-.179,4.891-1.3.105-.074.209.023.123.128" transform="translate(-43.367 -37.591)" fill="#263238"/>
            <path id="Trazado_643612" data-name="Trazado 643612" d="M195.775,109.775a5.489,5.489,0,0,0,2.273,1.6,2.48,2.48,0,0,0,1.5.025c1.07-.334,1.052-1.331.814-2.172a5.922,5.922,0,0,0-.545-1.281,7.111,7.111,0,0,1-4.046,1.827" transform="translate(-44.18 -40.802)" fill="#263238"/>
            <path id="Trazado_643613" data-name="Trazado 643613" d="M198.535,111.651a2.471,2.471,0,0,0,1.5.025c1.071-.334,1.052-1.33.815-2.172a2.551,2.551,0,0,0-2.318,2.148" transform="translate(-44.668 -41.076)" fill="#f392b9"/>
            <path id="Trazado_643614" data-name="Trazado 643614" d="M215.978,94.034c.5-1.771,5.067-20.858,4.563-22.938-.459-1.895-2.531-1.119-2.562-1.228s-.095-1.835-1.164-2.48a2.9,2.9,0,0,0-2.316.042s-.325-1.821-1.471-2.315a2.312,2.312,0,0,0-2.237.483,3.045,3.045,0,0,0-1.83-2.171,1.979,1.979,0,0,0-2.21.84s-.486-1.737-1.681-2.072-2.227.949-2.227.949a2.622,2.622,0,0,0-2.106-1.6,2.288,2.288,0,0,0-2.014,1.565,3.123,3.123,0,0,0-2.222-1.569c-1.363-.039-1.835,1.659-1.835,1.659s-.557-1.516-1.838-1.416-1.586,1.894-1.586,1.894-.719-1.666-2.227-1.177c-2.316.75-2.605,11.818-3.134,16.627,0,0,.648-2.3,1.63-2.385s1.719,1.481,3.551,1.885c2.61.578,6.956-2.486,10.554-1.717,3.5.748,6.089,4.422,7.35,9.914,1.421,6.19,5.834,11.416,7.012,7.212" transform="translate(-42.434 -32.607)" fill="#263238"/>
            <path id="Trazado_643615" data-name="Trazado 643615" d="M200.195,103.418a5.641,5.641,0,1,1,1.4.077,5.652,5.652,0,0,1-1.4-.077M196.386,97a4.889,4.889,0,1,0,5.68-3.942,4.835,4.835,0,0,0-1.213-.066A4.9,4.9,0,0,0,196.386,97" transform="translate(-44.141 -38.025)" fill="#ffc727"/>
            <path id="Trazado_643616" data-name="Trazado 643616" d="M185.888,102.689c-2.314-.108-4.078-2.724-3.935-5.832a6.734,6.734,0,0,1,1.373-3.886,3.516,3.516,0,0,1,6.012.279,6.734,6.734,0,0,1,1.009,4c-.137,2.941-1.935,5.286-4.089,5.438a3.074,3.074,0,0,1-.37,0m-1.972-9.247a5.992,5.992,0,0,0-1.21,3.45c-.124,2.692,1.318,4.955,3.217,5.043s3.545-2.031,3.671-4.724a6,6,0,0,0-.886-3.547,3.008,3.008,0,0,0-2.333-1.5,2.359,2.359,0,0,0-.286,0,3.108,3.108,0,0,0-2.174,1.27" transform="translate(-41.739 -37.882)" fill="#ffc727"/>
            <path id="Trazado_643617" data-name="Trazado 643617" d="M195.066,98.3l.511-.555c-.822-.758-2.754-1.815-4.2-.405l.527.539c1.292-1.264,3.085.352,3.161.421" transform="translate(-43.404 -38.807)" fill="#ffc727"/>
            <path id="Trazado_643618" data-name="Trazado 643618" d="M223.147,101l.686-.315c-.148-.32-1.485-3.134-3.155-3.486-1.562-.324-11.708.155-12.139.175l.036.754c2.909-.141,10.742-.445,11.947-.19,1.1.231,2.268,2.288,2.624,3.061" transform="translate(-46.434 -38.884)" fill="#ffc727"/>
            <path id="Trazado_643619" data-name="Trazado 643619" d="M216.819,98.956s4.03-6.8,7.081-5.405.358,11-2.986,12.543a3.508,3.508,0,0,1-4.828-1.529Z" transform="translate(-47.767 -38.227)" fill="#ad6359"/>
            <path id="Trazado_643620" data-name="Trazado 643620" d="M223.465,96.914c.054-.009.071.068.025.091-2.339,1.158-3.441,3.49-4.156,5.875a1.937,1.937,0,0,1,2.85-.745c.066.04.014.143-.055.134a2.158,2.158,0,0,0-2.312.929,10.446,10.446,0,0,0-.991,2c-.1.224-.495.138-.431-.117.006-.018.011-.038.016-.057-.292-3.071,1.776-7.553,5.054-8.11" transform="translate(-48.172 -38.853)" fill="#263238"/>
            <path id="Trazado_643621" data-name="Trazado 643621" d="M238.119,135.557c26.872,18.478,46.267,47.448,48.134,53.569,4.517,14.81,11.265,40.924,12.3,52.651.385,4.336-33.03,3.527-33.587-1.094-1.742-14.472-7.967-45.958-8.125-46.5-1.113-3.807-10.592-20.3-20.348-38.246s-9.689-28.157,1.621-20.379" transform="translate(-50.116 -45.211)" fill="#ad6359"/>
            <path id="Trazado_643622" data-name="Trazado 643622" d="M274.069,309.483c3.413,1.165,5.626-1.844,5.626-1.844a7.692,7.692,0,0,0,4.491,2.683c3.136.455,5.226-4.261,5.226-4.261a9.483,9.483,0,0,0,5.188,2.074c3.045.135,5.832-4.324,5.832-4.324a8.408,8.408,0,0,0,5.711-1.049c2.889-1.865,4.314-11.076,4.265-16.262s-5.044-19.851-5.714-22.742l-33.287.026s-6.4,23.318-5.475,29.407c.777,5.13,4.306,14.982,8.137,16.291" transform="translate(-56.552 -68.312)" fill="#ad6359"/>
            <path id="Trazado_643623" data-name="Trazado 643623" d="M281.289,313.225c-2.136-5.256-2.6-10.857-3.383-16.421a.1.1,0,0,1,.193-.026c.714,5.543,2.518,10.873,3.45,16.376a.137.137,0,0,1-.26.07" transform="translate(-58.682 -74.128)" fill="#263238"/>
            <path id="Trazado_643624" data-name="Trazado 643624" d="M293.684,311.517a14.748,14.748,0,0,1-.61-3.819q-.184-2.048-.3-4.1c-.156-2.739-.249-5.482-.262-8.227,0-.121.185-.152.193-.025.161,2.73.361,5.458.636,8.178q.206,2.043.445,4.082a17.58,17.58,0,0,1,.27,3.861.2.2,0,0,1-.372.05" transform="translate(-61.261 -73.875)" fill="#263238"/>
            <path id="Trazado_643625" data-name="Trazado 643625" d="M307.63,309.083a10.3,10.3,0,0,1-.366-3.467q-.068-1.874-.156-3.748c-.118-2.5-.237-4.995-.441-7.487-.01-.124.182-.15.193-.025.221,2.531.476,5.058.674,7.592q.147,1.865.272,3.733a9.652,9.652,0,0,1-.05,3.4.069.069,0,0,1-.126,0" transform="translate(-63.76 -73.7)" fill="#263238"/>
            <path id="Trazado_643626" data-name="Trazado 643626" d="M262.747,240.661l36.521-2.946s-8.045-39.337-12.408-49.969-26.1-36.858-48.756-52.4c-15.414-10.571-14.469-1.531-7.345,12.473s23.889,46.035,24.678,48.568,7.309,44.271,7.309,44.271" transform="translate(-49.483 -44.825)" fill="#2b95f9"/>
            <path id="Trazado_643627" data-name="Trazado 643627" d="M271.43,254.507c1.365-.317,13.76-1.458,16.458-1.648s5.4-.375,8.1-.557c2.789-.189,5.622-.515,8.42-.481a.1.1,0,0,1,.02.194c-2.752.487-5.6.621-8.38.885q-4.117.392-8.234.772c-2.745.25-15.028,1.109-16.387,1.019-.115-.008-.088-.163,0-.184" transform="translate(-57.524 -66.204)" fill="#263238"/>
          </g>
        </g>
      </g>
    </g>
  </g>
</svg>
