<svg id="Grupo_882329" data-name="Grupo 882329" xmlns="http://www.w3.org/2000/svg" xmlns:xlink="http://www.w3.org/1999/xlink" width="505" height="307.844" viewBox="0 0 505 307.844">
  <defs>
    <clipPath id="clip-path">
      <rect id="Rectángulo_330433" data-name="Rectángulo 330433" width="505" height="307.844" fill="none"/>
    </clipPath>
    <clipPath id="clip-path-5">
      <rect id="Rectángulo_330429" data-name="Rectángulo 330429" width="28.551" height="20.021" fill="#eb6f2d"/>
    </clipPath>
  </defs>
  <g id="Grupo_882328" data-name="Grupo 882328" clip-path="url(#clip-path)">
    <g id="Grupo_882318" data-name="Grupo 882318">
      <g id="Grupo_882317" data-name="Grupo 882317" clip-path="url(#clip-path)">
        <path id="Trazado_637886" data-name="Trazado 637886" d="M300.335,45.3l46.208-6.843c3.873,24.566-13.8,47.869-39.147,51.622S258,76.708,254.127,52.142,267.926,4.273,293.275.52A48.241,48.241,0,0,1,305.468.274Z" transform="translate(-57.409 0)" fill="#f5f5f5"/>
        <path id="Trazado_637887" data-name="Trazado 637887" d="M331.751.556l-5.61,34.712,35.16-6.4S356.131,9.416,331.751.556" transform="translate(-73.832 -0.139)" fill="#e0e0e0"/>
        <path id="Trazado_637888" data-name="Trazado 637888" d="M32.158,67.969c-.223-13.518,10.893-24.692,24.778-24.91S82.3,53.663,82.522,67.181,71.63,91.874,57.745,92.091s-25.363-10.6-25.587-24.122m37.223-.582A12.046,12.046,0,1,0,57.534,79.3,11.912,11.912,0,0,0,69.381,67.387" transform="translate(-7.279 -10.777)" fill="#f5f5f5"/>
        <path id="Trazado_637889" data-name="Trazado 637889" d="M32.159,67.971c-.223-13.518,10.892-24.693,24.777-24.91l.211,12.794A11.728,11.728,0,1,0,57.535,79.3l.21,12.794c-13.885.217-25.363-10.6-25.586-24.122" transform="translate(-7.279 -10.778)" fill="#e0e0e0"/>
        <path id="Trazado_637890" data-name="Trazado 637890" d="M61.265,40.435c16.244-.254,29.2,11.964,29.465,27.779l-15.375.24c-.125-7.562-6.062-12.323-13.829-12.2Z" transform="translate(-13.869 -10.12)" fill="#ebebeb"/>
        <path id="Trazado_637891" data-name="Trazado 637891" d="M467.228,351.1c-.223-13.518,10.893-24.691,24.777-24.909s25.364,10.6,25.587,24.122S506.7,375,492.815,375.218s-25.363-10.6-25.587-24.122m37.223-.582A12.046,12.046,0,1,0,492.6,362.425a11.911,11.911,0,0,0,11.847-11.911" transform="translate(-105.771 -81.642)" fill="#f5f5f5"/>
        <path id="Trazado_637892" data-name="Trazado 637892" d="M467.229,351.1c-.223-13.518,10.892-24.693,24.777-24.91l.211,12.794a11.728,11.728,0,1,0,.387,23.444l.21,12.794c-13.885.217-25.363-10.6-25.586-24.122" transform="translate(-105.771 -81.643)" fill="#e0e0e0"/>
        <path id="Trazado_637893" data-name="Trazado 637893" d="M496.335,323.562c16.244-.254,29.2,11.964,29.465,27.779l-15.375.24c-.125-7.562-6.062-12.323-13.829-12.2Z" transform="translate(-112.361 -80.985)" fill="#ebebeb"/>
      </g>
    </g>
    <rect id="Rectángulo_330406" data-name="Rectángulo 330406" width="104.792" height="115.899" transform="translate(385.117 28.401)" fill="#fff"/>
    <g id="Grupo_882320" data-name="Grupo 882320">
      <g id="Grupo_882319" data-name="Grupo 882319" clip-path="url(#clip-path)">
        <path id="Trazado_637894" data-name="Trazado 637894" d="M602.547,153.719s-.006-.189-.01-.551-.005-.9-.01-1.61c0-1.422-.011-3.521-.02-6.256-.01-5.471-.026-13.479-.045-23.647-.022-20.321-.051-49.274-.087-83.834l.172.166-104.781.022h-.011l.2-.188c-.012,42.729-.022,82.576-.03,115.9l-.166-.16,76.007.082,21.251.041,5.6.018c1.269.006,1.932.018,1.932.018s-.639.012-1.9.018l-5.569.018-21.214.041-76.112.082h-.165v-.16c-.009-33.322-.019-73.169-.03-115.9v-.19h.206l104.781.022h.173v.167c-.036,34.6-.066,63.6-.087,83.941-.019,10.152-.035,18.147-.045,23.61-.009,2.72-.016,4.808-.021,6.223q-.006,1.048-.009,1.592c0,.356-.01.532-.01.532" transform="translate(-112.638 -9.419)" fill="#263238"/>
        <path id="Trazado_637895" data-name="Trazado 637895" d="M597.357,115.947c-.034.07-1.16-.562-3.369-1.241a22.322,22.322,0,0,0-9.664-.694A21.619,21.619,0,0,0,577.95,116a30.044,30.044,0,0,0-6.267,4.369c-2.055,1.757-4.095,3.752-6.447,5.6A22.469,22.469,0,0,1,557,130.279a12.85,12.85,0,0,1-4.8.281,15.962,15.962,0,0,1-4.452-1.332,78.461,78.461,0,0,1-7.458-4.3,23.663,23.663,0,0,0-7.015-3.049,21.5,21.5,0,0,0-6.672-.495,21.961,21.961,0,0,0-9.211,2.907c-1.976,1.17-2.908,2.051-2.961,1.989a4.579,4.579,0,0,1,.669-.638,16.018,16.018,0,0,1,2.144-1.58,21.427,21.427,0,0,1,9.311-3.165,21.684,21.684,0,0,1,6.86.424,24.024,24.024,0,0,1,7.22,3.061,80.3,80.3,0,0,0,7.409,4.227,13.054,13.054,0,0,0,8.787,1,21.946,21.946,0,0,0,7.966-4.174c2.316-1.8,4.366-3.786,6.45-5.546a30.185,30.185,0,0,1,6.436-4.4,21.957,21.957,0,0,1,16.392-1.032,17.314,17.314,0,0,1,2.475,1.032,4.767,4.767,0,0,1,.808.464" transform="translate(-116.457 -28.367)" fill="#3d672f"/>
        <rect id="Rectángulo_330407" data-name="Rectángulo 330407" width="8.909" height="23.35" transform="translate(413.961 103.147)" fill="#617a0b"/>
        <rect id="Rectángulo_330408" data-name="Rectángulo 330408" width="8.909" height="23.35" transform="translate(451.764 103.147)" fill="#617a0b"/>
        <rect id="Rectángulo_330409" data-name="Rectángulo 330409" width="8.909" height="37.062" transform="translate(464.366 89.435)" fill="#617a0b"/>
        <rect id="Rectángulo_330410" data-name="Rectángulo 330410" width="8.909" height="7.858" transform="translate(402.431 119.146)" fill="#617a0b"/>
        <rect id="Rectángulo_330411" data-name="Rectángulo 330411" width="8.909" height="12.806" transform="translate(426.562 113.691)" fill="#617a0b"/>
        <rect id="Rectángulo_330412" data-name="Rectángulo 330412" width="8.909" height="15.745" transform="translate(439.164 110.752)" fill="#617a0b"/>
        <path id="Trazado_637896" data-name="Trazado 637896" d="M544.259,172.284c0,.191-2.155.347-4.813.347s-4.813-.156-4.813-.347,2.155-.347,4.813-.347,4.813.155,4.813.347" transform="translate(-121.031 -43.035)" fill="#263238"/>
        <path id="Trazado_637897" data-name="Trazado 637897" d="M529.929,172.284c0,.191-2.155.347-4.813.347s-4.813-.156-4.813-.347,2.154-.347,4.813-.347,4.813.155,4.813.347" transform="translate(-117.786 -43.035)" fill="#263238"/>
        <path id="Trazado_637898" data-name="Trazado 637898" d="M610.853,172.284c0,.191-2.436.347-5.441.347s-5.441-.156-5.441-.347,2.435-.347,5.441-.347,5.441.155,5.441.347" transform="translate(-135.822 -43.035)" fill="#263238"/>
        <path id="Trazado_637899" data-name="Trazado 637899" d="M593.745,172.284c0,.191-2.436.347-5.441.347s-5.442-.156-5.442-.347,2.436-.347,5.442-.347,5.441.155,5.441.347" transform="translate(-131.949 -43.035)" fill="#263238"/>
        <path id="Trazado_637900" data-name="Trazado 637900" d="M576.373,172.284c0,.192-2.155.348-4.813.348s-4.813-.156-4.813-.348,2.154-.347,4.813-.347,4.813.156,4.813.347" transform="translate(-128.301 -43.035)" fill="#263238"/>
        <path id="Trazado_637901" data-name="Trazado 637901" d="M559.543,172.284c0,.192-2.155.348-4.813.348s-4.813-.156-4.813-.348,2.155-.347,4.813-.347,4.813.156,4.813.347" transform="translate(-124.49 -43.035)" fill="#263238"/>
        <path id="Trazado_638002" data-name="Trazado 638002" d="M0,0H72.808V29.3H0Z" transform="translate(402.222 45.297)" fill="#b6e1fd"/>
        <path id="Trazado_637902" data-name="Trazado 637902" d="M537.488,71.676a3.4,3.4,0,1,1-3.394-3.289,3.343,3.343,0,0,1,3.394,3.289" transform="translate(-120.14 -17.117)" fill="#2b95f9"/>
        <rect id="Rectángulo_330414" data-name="Rectángulo 330414" width="23.65" height="1.272" transform="translate(420.742 52.287)" fill="#2b95f9"/>
        <rect id="Rectángulo_330415" data-name="Rectángulo 330415" width="46.007" height="1.272" transform="translate(420.742 55.179)" fill="#fff"/>
        <path id="Trazado_637903" data-name="Trazado 637903" d="M537.488,85.164a3.4,3.4,0,1,1-3.394-3.289,3.342,3.342,0,0,1,3.394,3.289" transform="translate(-120.14 -20.493)" fill="#3d672f"/>
        <rect id="Rectángulo_330416" data-name="Rectángulo 330416" width="12.077" height="1.272" transform="translate(420.742 62.399)" fill="#3d672f"/>
        <rect id="Rectángulo_330417" data-name="Rectángulo 330417" width="46.007" height="1.272" transform="translate(420.742 65.291)" fill="#fff"/>
        <rect id="Rectángulo_330418" data-name="Rectángulo 330418" width="85.363" height="62.918" transform="matrix(0.009, -1, 1, 0.009, 441.147, 259.059)" fill="#fff"/>
        <path id="Trazado_637904" data-name="Trazado 637904" d="M570.236,316.995s-.006-.13-.007-.394,0-.668,0-1.184c0-1.058.011-2.609.019-4.625.025-4.063.06-9.992.106-17.492.111-15.053.269-36.4.456-61.65l0-.177h.183l62.886.506h.007l.2,0,0,.2c-.3,31.955-.572,61.513-.794,85.343v.159h-.164l-45.821-.465-12.648-.145-3.3-.046c-.744-.012-1.118-.026-1.118-.026s.4-.008,1.154-.008l3.335.01,12.686.065,45.72.3-.165.157c.2-23.831.45-53.389.719-85.344l.2.2h-.008l-62.885-.541.184-.176c-.26,25.2-.48,46.509-.636,61.532-.087,7.517-.157,13.459-.2,17.532-.028,2.031-.049,3.594-.063,4.66-.009.524-.016.924-.021,1.2s-.015.415-.015.415" transform="translate(-129.089 -57.937)" fill="#263238"/>
        <path id="Trazado_637905" data-name="Trazado 637905" d="M581.588,259.374c0-.2,10.417-.269,23.26-.162s23.257.352,23.256.549-10.414.269-23.262.162-23.255-.352-23.253-.549" transform="translate(-131.66 -64.867)" fill="#263238"/>
        <path id="Trazado_637906" data-name="Trazado 637906" d="M581.519,267.413c0-.2,10.417-.269,23.26-.162s23.257.352,23.256.549-10.414.269-23.262.162-23.255-.352-23.254-.549" transform="translate(-131.645 -66.879)" fill="#263238"/>
        <path id="Trazado_637907" data-name="Trazado 637907" d="M581.45,275.451c0-.2,10.417-.269,23.26-.162s23.257.353,23.256.549-10.414.269-23.262.162-23.255-.352-23.253-.549" transform="translate(-131.629 -68.891)" fill="#263238"/>
        <path id="Trazado_637908" data-name="Trazado 637908" d="M581.381,283.489c0-.2,10.417-.269,23.26-.162s23.257.352,23.256.549-10.414.269-23.262.162-23.255-.352-23.254-.549" transform="translate(-131.613 -70.903)" fill="#263238"/>
        <path id="Trazado_637909" data-name="Trazado 637909" d="M581.312,291.528c0-.2,10.417-.269,23.26-.162s23.257.353,23.256.55-10.415.268-23.262.161-23.255-.352-23.253-.549" transform="translate(-131.598 -72.915)" fill="#263238"/>
        <rect id="Rectángulo_330419" data-name="Rectángulo 330419" width="7.485" height="22.655" transform="translate(458.883 225.609)" fill="#eb6f2d"/>
        <rect id="Rectángulo_330420" data-name="Rectángulo 330420" width="7.485" height="17.48" transform="translate(470.059 230.784)" fill="#eb6f2d"/>
        <rect id="Rectángulo_330421" data-name="Rectángulo 330421" width="7.485" height="10.38" transform="translate(480.406 237.884)" fill="#eb6f2d"/>
        <path id="Trazado_637910" data-name="Trazado 637910" d="M440.5,212.192a3.515,3.515,0,0,1,.432-.02l1.266-.02,4.871-.036,17.913-.062,59.1-.057,52.811.044h.313l0,.151c-.057,4.569-.1,8.3-.136,10.923-.036,1.273-.063,2.276-.084,2.991-.018.323-.033.58-.045.78-.015.176-.03.267-.046.267s-.031-.091-.046-.267c-.012-.2-.026-.457-.045-.78-.02-.714-.048-1.718-.084-2.991-.032-2.622-.079-6.354-.136-10.923l.31.151-52.811.044-59.1-.057-17.913-.062-4.871-.037-1.266-.019a3.521,3.521,0,0,1-.432-.02" transform="translate(-99.721 -53.062)" fill="#263238"/>
        <path id="Trazado_637911" data-name="Trazado 637911" d="M478.824,63.846c0,.012-.482.025-1.4.036l-4.041.034-15,.058-50.6.065.576-.195c.035,1.267.071,2.6.108,3.952.189,7.67.222,14.614.108,19.64-.066,2.514-.162,4.547-.307,5.953a13.648,13.648,0,0,1-.248,1.619c-.118.37-.2.562-.238.56,0,0,.085-3.1-.032-8.131-.115-5.062-.273-11.986-.448-19.637-.033-1.353-.066-2.684-.1-3.951l0-.2h.581l50.6.065,15,.058,4.041.034c.921.012,1.4.024,1.4.036" transform="translate(-92.184 -15.932)" fill="#263238"/>
        <path id="Trazado_637912" data-name="Trazado 637912" d="M501.185,63.268a1.986,1.986,0,1,1-1.986-1.924,1.956,1.956,0,0,1,1.986,1.924" transform="translate(-112.56 -15.354)" fill="#263238"/>
        <path id="Trazado_637913" data-name="Trazado 637913" d="M619.128,231.57c0,1.063-1.42,1.924-3.172,1.924s-3.172-.861-3.172-1.924,1.42-1.924,3.172-1.924,3.172.861,3.172,1.924" transform="translate(-138.722 -57.479)" fill="#263238"/>
      </g>
    </g>
    <g id="Grupo_882325" data-name="Grupo 882325">
      <g id="Grupo_882324" data-name="Grupo 882324" clip-path="url(#clip-path)">
        <path id="Trazado_637914" data-name="Trazado 637914" d="M354.937,103.755H86.3a8.258,8.258,0,0,0-8.385,8.126V295.76a8.259,8.259,0,0,0,8.385,8.127H189.4s6.559,19.654-13.773,29.823h96.407s-22.955-7.626-17.053-29.823h99.955a8.259,8.259,0,0,0,8.385-8.126V111.881a8.259,8.259,0,0,0-8.386-8.126" transform="translate(-17.638 -25.969)" fill="#455a64"/>
        <path id="Trazado_637915" data-name="Trazado 637915" d="M264.413,344.39c3.655,5.061-2.065,10.6-7.289,7.063a1.819,1.819,0,0,1-.449-.436c-3.645-5.061,2.068-10.6,7.288-7.063a1.809,1.809,0,0,1,.449.436" transform="translate(-57.846 -85.811)" fill="#263238"/>
        <path id="Trazado_637916" data-name="Trazado 637916" d="M360.051,271.373H83.893V115.519a7.388,7.388,0,0,1,7.5-7.27H352.549a7.389,7.389,0,0,1,7.5,7.27Z" transform="translate(-18.992 -27.094)" fill="#fff"/>
        <path id="Trazado_637917" data-name="Trazado 637917" d="M360.051,121.8H83.893v-6.692a6.974,6.974,0,0,1,7.081-6.862H354.237a5.726,5.726,0,0,1,5.815,5.634Z" transform="translate(-18.992 -27.094)" fill="#ebebeb"/>
        <path id="Trazado_637918" data-name="Trazado 637918" d="M96.633,117.04a1.941,1.941,0,1,1-1.94-1.88,1.911,1.911,0,0,1,1.94,1.88" transform="translate(-20.997 -28.824)" fill="#e0e0e0"/>
        <path id="Trazado_637919" data-name="Trazado 637919" d="M104.109,117.04a1.941,1.941,0,1,1-1.94-1.88,1.911,1.911,0,0,1,1.94,1.88" transform="translate(-22.69 -28.824)" fill="#e0e0e0"/>
        <path id="Trazado_637920" data-name="Trazado 637920" d="M111.217,117.04a1.941,1.941,0,1,1-1.94-1.88,1.911,1.911,0,0,1,1.94,1.88" transform="translate(-24.299 -28.824)" fill="#e0e0e0"/>
        <path id="Trazado_637921" data-name="Trazado 637921" d="M323.952,370.686c0,.086-38.228.156-85.373.156-47.161,0-85.38-.07-85.38-.156s38.219-.156,85.38-.156c47.145,0,85.373.07,85.373.156" transform="translate(-34.681 -92.742)" fill="#263238"/>
        <path id="Trazado_637922" data-name="Trazado 637922" d="M176.363,249.576l-77.011.215.152,51.241,63.843-.178L172,300.83l4.511-.013Z" transform="translate(-22.491 -62.468)" fill="#f5f5f5"/>
        <path id="Trazado_637923" data-name="Trazado 637923" d="M106.942,297.917c-.093,0-.194-8.692-.226-19.412s.018-19.414.111-19.414.194,8.69.226,19.414-.018,19.413-.111,19.413" transform="translate(-24.156 -64.849)" fill="#263238"/>
        <path id="Trazado_637924" data-name="Trazado 637924" d="M173.748,303.467c0,.09-15.019.2-33.543.256s-33.546.021-33.546-.069,15.016-.205,33.546-.257,33.543-.02,33.543.07" transform="translate(-24.146 -75.933)" fill="#ebebeb"/>
        <path id="Trazado_637925" data-name="Trazado 637925" d="M173.726,295.869c0,.09-15.019.2-33.543.256s-33.546.021-33.546-.069,15.016-.205,33.546-.257,33.543-.02,33.543.07" transform="translate(-24.141 -74.031)" fill="#ebebeb"/>
        <path id="Trazado_637926" data-name="Trazado 637926" d="M173.7,288.271c0,.09-15.019.205-33.543.257s-33.546.02-33.546-.07,15.016-.205,33.546-.257,33.543-.02,33.543.07" transform="translate(-24.136 -72.129)" fill="#ebebeb"/>
        <path id="Trazado_637927" data-name="Trazado 637927" d="M173.682,280.673c0,.09-15.019.205-33.543.256s-33.546.021-33.546-.069,15.016-.205,33.546-.257,33.543-.02,33.543.07" transform="translate(-24.131 -70.228)" fill="#ebebeb"/>
        <path id="Trazado_637928" data-name="Trazado 637928" d="M173.66,273.075c0,.09-15.019.205-33.543.257s-33.546.02-33.546-.07,15.016-.205,33.546-.257,33.543-.02,33.543.07" transform="translate(-24.126 -68.326)" fill="#ebebeb"/>
        <path id="Trazado_637929" data-name="Trazado 637929" d="M173.638,265.477c0,.09-15.019.2-33.543.256s-33.546.021-33.546-.069,15.016-.205,33.546-.257,33.543-.02,33.543.07" transform="translate(-24.121 -66.424)" fill="#ebebeb"/>
        <path id="Trazado_637930" data-name="Trazado 637930" d="M173.616,257.879c0,.09-15.019.2-33.543.256s-33.546.021-33.546-.069,15.016-.205,33.546-.257,33.543-.02,33.543.07" transform="translate(-24.116 -64.522)" fill="#ebebeb"/>
        <rect id="Rectángulo_330423" data-name="Rectángulo 330423" width="4.811" height="8.878" transform="translate(87.041 224.18) rotate(-0.166)" fill="#2b95f9"/>
        <rect id="Rectángulo_330424" data-name="Rectángulo 330424" width="4.811" height="8.878" transform="translate(121.98 224.082) rotate(-0.166)" fill="#2b95f9"/>
        <rect id="Rectángulo_330425" data-name="Rectángulo 330425" width="4.811" height="15.406" transform="translate(96.458 217.625) rotate(-0.166)" fill="#2b95f9"/>
        <rect id="Rectángulo_330426" data-name="Rectángulo 330426" width="4.812" height="19.414" transform="translate(114.073 213.568) rotate(-0.166)" fill="#2b95f9"/>
        <rect id="Rectángulo_330427" data-name="Rectángulo 330427" width="4.813" height="31.209" transform="translate(105.336 201.797) rotate(-0.166)" fill="#2b95f9"/>
        <rect id="Rectángulo_330428" data-name="Rectángulo 330428" width="4.813" height="25.437" transform="translate(131.253 207.497) rotate(-0.166)" fill="#2b95f9"/>
        <path id="Trazado_637931" data-name="Trazado 637931" d="M166.133,310.627c0,.09-13.2.2-29.483.245s-29.486.01-29.486-.081,13.2-.2,29.486-.245,29.484-.009,29.484.081" transform="translate(-24.26 -77.723)" fill="#263238"/>
        <path id="Trazado_637932" data-name="Trazado 637932" d="M98.445,142.53v75.25h167.97V142.53Z" transform="translate(-22.286 -35.674)" fill="#f5f5f5"/>
        <path id="Trazado_637933" data-name="Trazado 637933" d="M113.477,211.861v2.376h-.253v-2.158h-.578v-.217Z" transform="translate(-25.501 -53.028)" fill="#263238"/>
        <path id="Trazado_637934" data-name="Trazado 637934" d="M114.479,213.044c0-.757.41-1.209.977-1.209s.981.451.981,1.209-.414,1.208-.981,1.208-.977-.451-.977-1.208m1.7,0c0-.635-.294-.984-.722-.984s-.722.349-.722.984.3.984.722.984.722-.349.722-.984" transform="translate(-25.916 -53.021)" fill="#263238"/>
        <path id="Trazado_637935" data-name="Trazado 637935" d="M114.481,194.309v.217h-1.72v-.173l1.019-.968c.277-.264.33-.424.33-.586,0-.275-.2-.445-.575-.445a.847.847,0,0,0-.668.265l-.179-.15a1.119,1.119,0,0,1,.868-.34c.5,0,.812.246.812.642a.968.968,0,0,1-.4.744l-.833.793Z" transform="translate(-25.51 -48.089)" fill="#263238"/>
        <path id="Trazado_637936" data-name="Trazado 637936" d="M115.4,193.34c0-.757.41-1.209.977-1.209s.981.451.981,1.209-.414,1.209-.981,1.209-.977-.452-.977-1.209m1.7,0c0-.635-.294-.984-.722-.984s-.721.349-.721.984.295.984.721.984.722-.35.722-.984" transform="translate(-26.124 -48.089)" fill="#263238"/>
        <path id="Trazado_637937" data-name="Trazado 637937" d="M114.419,174.147c0,.4-.3.7-.89.7a1.3,1.3,0,0,1-.883-.305l.123-.193a1.091,1.091,0,0,0,.76.274c.406,0,.631-.183.631-.478s-.207-.472-.662-.472h-.176v-.18l.68-.825h-1.254v-.217h1.577v.173l-.694.845c.526.027.788.3.788.675" transform="translate(-25.501 -43.164)" fill="#263238"/>
        <path id="Trazado_637938" data-name="Trazado 637938" d="M115.4,173.635c0-.756.41-1.209.977-1.209s.981.452.981,1.209-.414,1.209-.981,1.209-.977-.451-.977-1.209m1.7,0c0-.635-.294-.984-.722-.984s-.721.349-.721.984.295.984.721.984.722-.349.722-.984" transform="translate(-26.124 -43.157)" fill="#263238"/>
        <path id="Trazado_637939" data-name="Trazado 637939" d="M127.709,223.441c0-.756.41-1.209.977-1.209s.981.452.981,1.209-.414,1.208-.981,1.208-.977-.451-.977-1.208m1.7,0c0-.635-.294-.984-.722-.984s-.722.349-.722.984.3.984.722.984.722-.349.722-.984" transform="translate(-28.911 -55.624)" fill="#263238"/>
        <path id="Trazado_637940" data-name="Trazado 637940" d="M150.923,222.259v2.376h-.253v-2.158h-.578v-.217Z" transform="translate(-33.978 -55.63)" fill="#263238"/>
        <path id="Trazado_637941" data-name="Trazado 637941" d="M175.365,224.41v.217h-1.72v-.173l1.019-.968c.277-.264.33-.424.33-.586,0-.275-.2-.445-.575-.445a.842.842,0,0,0-.668.265l-.179-.15a1.12,1.12,0,0,1,.868-.34c.5,0,.813.244.813.642a.968.968,0,0,1-.4.744l-.833.794Z" transform="translate(-39.293 -55.623)" fill="#263238"/>
        <path id="Trazado_637942" data-name="Trazado 637942" d="M198.74,223.953c0,.4-.3.7-.89.7a1.3,1.3,0,0,1-.883-.305l.123-.193a1.091,1.091,0,0,0,.76.274c.407,0,.631-.183.631-.478s-.207-.472-.662-.472h-.176v-.18l.68-.825h-1.254v-.217h1.577v.173l-.694.845c.526.027.788.3.788.675" transform="translate(-44.59 -55.63)" fill="#263238"/>
        <path id="Trazado_637943" data-name="Trazado 637943" d="M222.672,224.01h-.49v.625h-.251v-.625h-1.383v-.176l1.3-1.576h.281l-1.254,1.535h1.064v-.55h.244v.55h.49Z" transform="translate(-49.928 -55.63)" fill="#263238"/>
        <path id="Trazado_637944" data-name="Trazado 637944" d="M245.671,223.935c0,.4-.291.72-.89.72a1.289,1.289,0,0,1-.88-.306l.123-.193a1.082,1.082,0,0,0,.754.275c.416,0,.637-.2.637-.485,0-.306-.2-.5-.82-.5h-.522l.127-1.192h1.341v.217h-1.121l-.084.757h.316c.738,0,1.019.282,1.019.7" transform="translate(-55.215 -55.63)" fill="#263238"/>
        <path id="Trazado_637945" data-name="Trazado 637945" d="M269.319,223.919a.755.755,0,0,1-.837.729c-.651,0-1-.438-1-1.188a1.081,1.081,0,0,1,1.12-1.229,1.159,1.159,0,0,1,.582.129l-.1.2a.878.878,0,0,0-.476-.112c-.528,0-.869.329-.869.975a1.839,1.839,0,0,0,.011.193.787.787,0,0,1,.749-.408.734.734,0,0,1,.827.713m-.249.007c0-.312-.238-.513-.617-.513a.562.562,0,0,0-.63.52c0,.262.224.51.648.51a.53.53,0,0,0,.6-.517" transform="translate(-60.552 -55.624)" fill="#263238"/>
        <path id="Trazado_637946" data-name="Trazado 637946" d="M292.624,222.259v.173l-1.026,2.2h-.274l1.01-2.158h-1.261v.445h-.249v-.662Z" transform="translate(-65.837 -55.63)" fill="#263238"/>
        <path id="Trazado_637947" data-name="Trazado 637947" d="M256.229,213.523c0,.127-28.376.231-63.373.231s-63.379-.1-63.379-.231,28.37-.231,63.379-.231,63.373.1,63.373.231" transform="translate(-29.311 -53.386)" fill="#263238"/>
        <path id="Trazado_637948" data-name="Trazado 637948" d="M256.229,193.717c0,.127-28.376.231-63.373.231s-63.379-.1-63.379-.231,28.37-.231,63.379-.231,63.373.1,63.373.231" transform="translate(-29.311 -48.429)" fill="#263238"/>
        <path id="Trazado_637949" data-name="Trazado 637949" d="M256.229,173.911c0,.127-28.376.231-63.373.231s-63.379-.1-63.379-.231,28.37-.231,63.379-.231,63.373.1,63.373.231" transform="translate(-29.311 -43.471)" fill="#263238"/>
        <path id="Trazado_637950" data-name="Trazado 637950" d="M129,213.047a.814.814,0,1,1-.814-.789.8.8,0,0,1,.814.789" transform="translate(-28.835 -53.127)" fill="#ff725e"/>
        <path id="Trazado_637951" data-name="Trazado 637951" d="M152.558,213.047a.814.814,0,1,1-.814-.789.8.8,0,0,1,.814.789" transform="translate(-34.168 -53.127)" fill="#ff725e"/>
        <path id="Trazado_637952" data-name="Trazado 637952" d="M176.114,213.047a.815.815,0,1,1-.814-.789.8.8,0,0,1,.814.789" transform="translate(-39.5 -53.127)" fill="#ff725e"/>
        <path id="Trazado_637953" data-name="Trazado 637953" d="M199.671,213.047a.814.814,0,1,1-.814-.789.8.8,0,0,1,.814.789" transform="translate(-44.833 -53.127)" fill="#ff725e"/>
        <path id="Trazado_637954" data-name="Trazado 637954" d="M223.227,213.047a.815.815,0,1,1-.814-.789.8.8,0,0,1,.814.789" transform="translate(-50.166 -53.127)" fill="#ff725e"/>
        <path id="Trazado_637955" data-name="Trazado 637955" d="M270.339,213.047a.815.815,0,1,1-.814-.789.8.8,0,0,1,.814.789" transform="translate(-60.831 -53.127)" fill="#ff725e"/>
        <path id="Trazado_637956" data-name="Trazado 637956" d="M246.784,213.047a.814.814,0,1,1-.814-.789.8.8,0,0,1,.814.789" transform="translate(-55.499 -53.127)" fill="#ff725e"/>
        <path id="Trazado_637957" data-name="Trazado 637957" d="M293.9,213.047a.814.814,0,1,1-.814-.789.8.8,0,0,1,.814.789" transform="translate(-66.164 -53.127)" fill="#ff725e"/>
        <path id="Trazado_637958" data-name="Trazado 637958" d="M139.9,213.427a.535.535,0,1,1-.535-.518.526.526,0,0,1,.535.518" transform="translate(-31.429 -53.29)" fill="#e0e0e0"/>
        <path id="Trazado_637959" data-name="Trazado 637959" d="M163.545,213.427a.535.535,0,1,1-.535-.518.526.526,0,0,1,.535.518" transform="translate(-36.781 -53.29)" fill="#e0e0e0"/>
        <path id="Trazado_637960" data-name="Trazado 637960" d="M187.19,213.427a.535.535,0,1,1-.535-.518.526.526,0,0,1,.535.518" transform="translate(-42.134 -53.29)" fill="#e0e0e0"/>
        <path id="Trazado_637961" data-name="Trazado 637961" d="M210.835,213.427a.535.535,0,1,1-.535-.518.526.526,0,0,1,.535.518" transform="translate(-47.487 -53.29)" fill="#e0e0e0"/>
        <path id="Trazado_637962" data-name="Trazado 637962" d="M234.48,213.427a.535.535,0,1,1-.535-.518.526.526,0,0,1,.535.518" transform="translate(-52.84 -53.29)" fill="#e0e0e0"/>
        <path id="Trazado_637963" data-name="Trazado 637963" d="M258.125,213.427a.535.535,0,1,1-.535-.518.526.526,0,0,1,.535.518" transform="translate(-58.193 -53.29)" fill="#e0e0e0"/>
        <path id="Trazado_637964" data-name="Trazado 637964" d="M281.77,213.427a.535.535,0,1,1-.535-.518.526.526,0,0,1,.535.518" transform="translate(-63.545 -53.29)" fill="#e0e0e0"/>
        <path id="Trazado_637965" data-name="Trazado 637965" d="M153.395,204.2a2,2,0,1,1-2-1.934,1.966,1.966,0,0,1,2,1.934" transform="translate(-33.822 -50.626)" fill="#ff725e"/>
        <path id="Trazado_637966" data-name="Trazado 637966" d="M173.947,192.07a2,2,0,1,1-2-1.935,1.966,1.966,0,0,1,2,1.935" transform="translate(-38.474 -47.59)" fill="#ff725e"/>
        <path id="Trazado_637967" data-name="Trazado 637967" d="M199.455,193.148a2,2,0,1,1-2-1.934,1.966,1.966,0,0,1,2,1.934" transform="translate(-44.249 -47.86)" fill="#ff725e"/>
        <path id="Trazado_637968" data-name="Trazado 637968" d="M224.359,171.1a2,2,0,1,1-2-1.934,1.967,1.967,0,0,1,2,1.934" transform="translate(-49.887 -42.342)" fill="#ff725e"/>
        <path id="Trazado_637969" data-name="Trazado 637969" d="M247.62,185.123a2,2,0,1,1-2-1.934,1.966,1.966,0,0,1,2,1.934" transform="translate(-55.152 -45.851)" fill="#ff725e"/>
        <path id="Trazado_637970" data-name="Trazado 637970" d="M271.177,188.856a2,2,0,1,1-2-1.934,1.966,1.966,0,0,1,2,1.934" transform="translate(-60.485 -46.786)" fill="#ff725e"/>
        <path id="Trazado_637971" data-name="Trazado 637971" d="M257.7,196.487a3.028,3.028,0,0,1-.468,0,9.967,9.967,0,0,1-1.362-.177,10.454,10.454,0,0,1-4.739-2.182,9.584,9.584,0,0,1-2.329-2.936,21.382,21.382,0,0,0-2.439-3.659,8.069,8.069,0,0,0-4.119-2.785,5.421,5.421,0,0,0-2.725.094,7.38,7.38,0,0,0-2.529,1.388c-1.552,1.257-2.7,3.044-4.2,4.665a8.3,8.3,0,0,1-2.736,2.062,5.677,5.677,0,0,1-3.6.287,4.465,4.465,0,0,1-2.738-2.437,16.521,16.521,0,0,1-1.181-3.526,19.871,19.871,0,0,0-1.086-3.579,2.837,2.837,0,0,0-1.167-1.355,3.9,3.9,0,0,0-1.841-.346,31.758,31.758,0,0,0-4.007.685,12.02,12.02,0,0,1-2.113.233,4.91,4.91,0,0,1-2.149-.4,4.357,4.357,0,0,1-1.707-1.384,10.274,10.274,0,0,1-1.044-1.88c-.578-1.307-.962-2.677-1.486-3.994a9.508,9.508,0,0,0-.964-1.871,3.492,3.492,0,0,0-1.581-1.277c-.166-.046-.33-.106-.5-.145l-.526-.047a1.955,1.955,0,0,0-.975.193,3.973,3.973,0,0,0-1.459,1.476,17.767,17.767,0,0,0-1.693,4.06c-.435,1.424-.8,2.883-1.153,4.354-.583,2.435-1.1,4.864-1.749,7.241a35.377,35.377,0,0,1-1.122,3.509,9.065,9.065,0,0,1-1.892,3.187,2.671,2.671,0,0,1-1.8.772,3.741,3.741,0,0,1-1.842-.541,8.619,8.619,0,0,1-2.589-2.538,30.432,30.432,0,0,1-3.126-6.15,14.237,14.237,0,0,0-3.49-5.442,6.687,6.687,0,0,0-5.859-1.385,10.031,10.031,0,0,0-2.788,1.189,18.952,18.952,0,0,0-2.434,1.706,31.959,31.959,0,0,0-4.063,3.961l-.009.009,0,0a43.515,43.515,0,0,1-6.02,4.846,29.64,29.64,0,0,1-6.165,3.237,13.949,13.949,0,0,1-6.035.975,21.743,21.743,0,0,1-5.027-1.179,48.031,48.031,0,0,1-6.529-2.893c-.723-.385-1.266-.692-1.628-.906s-.538-.339-.538-.339.195.094.566.292l1.652.857a51.539,51.539,0,0,0,6.547,2.793,21.709,21.709,0,0,0,4.977,1.123,13.736,13.736,0,0,0,5.906-1,29.454,29.454,0,0,0,6.078-3.236,43.416,43.416,0,0,0,5.942-4.827l-.011.012a32.2,32.2,0,0,1,4.1-4.029,19.289,19.289,0,0,1,2.478-1.748,10.414,10.414,0,0,1,2.9-1.244,7.117,7.117,0,0,1,6.246,1.46,14.606,14.606,0,0,1,3.621,5.594,30.075,30.075,0,0,0,3.09,6.063,8.2,8.2,0,0,0,2.445,2.4,3.273,3.273,0,0,0,1.612.478A2.2,2.2,0,0,0,192,195.61a8.679,8.679,0,0,0,1.776-3.021,34.911,34.911,0,0,0,1.1-3.464c.641-2.36,1.16-4.787,1.745-7.228.353-1.475.72-2.94,1.16-4.381a18.121,18.121,0,0,1,1.745-4.168,4.4,4.4,0,0,1,1.652-1.646,2.437,2.437,0,0,1,1.205-.241l.6.055c.194.044.384.112.576.168a3.958,3.958,0,0,1,1.8,1.445,9.946,9.946,0,0,1,1.013,1.965c.531,1.346.914,2.714,1.475,3.983a5.342,5.342,0,0,0,2.517,3.038,6.808,6.808,0,0,0,3.989.146,31.609,31.609,0,0,1,4.075-.684,4.329,4.329,0,0,1,2.066.4,3.241,3.241,0,0,1,1.345,1.547,20.055,20.055,0,0,1,1.1,3.661,16.227,16.227,0,0,0,1.14,3.444,4.061,4.061,0,0,0,2.484,2.246,5.288,5.288,0,0,0,3.333-.258,7.948,7.948,0,0,0,2.619-1.964c1.487-1.581,2.646-3.38,4.258-4.675a7.717,7.717,0,0,1,2.654-1.436,5.746,5.746,0,0,1,2.888-.082,8.319,8.319,0,0,1,4.254,2.907A21.448,21.448,0,0,1,249,191.092a9.421,9.421,0,0,0,2.249,2.9,10.556,10.556,0,0,0,4.638,2.227,11.99,11.99,0,0,0,1.346.22c.306.034.464.038.464.048" transform="translate(-29.968 -42.915)" fill="#fd4c1b"/>
        <path id="Trazado_637972" data-name="Trazado 637972" d="M145.564,160.339c0,.127-7.075.231-15.8.231s-15.8-.1-15.8-.231,7.073-.231,15.8-.231,15.8.1,15.8.231" transform="translate(-25.799 -40.074)" fill="#263238"/>
        <path id="Trazado_637973" data-name="Trazado 637973" d="M324.232,143.174v73.575h80.786V143.174Z" transform="translate(-73.4 -35.836)" fill="#f5f5f5"/>
        <path id="Trazado_637974" data-name="Trazado 637974" d="M368.687,154.3c-13.767,0-24.927,10.814-24.927,24.155s11.16,24.156,24.927,24.156,24.926-10.815,24.926-24.156S382.453,154.3,368.687,154.3m.376,38.63a14.846,14.846,0,1,1,15.312-14.839,15.081,15.081,0,0,1-15.312,14.839" transform="translate(-77.821 -38.62)" fill="#263238"/>
        <path id="Trazado_637975" data-name="Trazado 637975" d="M376.474,154.308c0,2.57,0,6.036,0,8.943A15.081,15.081,0,0,1,391.78,178.09a14.4,14.4,0,0,1-.719,4.5l9.034,2.374a23.453,23.453,0,0,0,.924-6.509c0-13.217-10.955-23.948-24.545-24.146" transform="translate(-85.226 -38.623)" fill="#ffb338"/>
        <path id="Trazado_637976" data-name="Trazado 637976" d="M353.751,178.72a14.827,14.827,0,0,1,9.077-13.552l-3.834-8.345a24.165,24.165,0,0,0-15.233,22.261c0,.34.012.677.027,1.014H353.82c-.043-.454-.068-.913-.068-1.378" transform="translate(-77.821 -39.252)" fill="#455a64"/>
        <path id="Trazado_637977" data-name="Trazado 637977" d="M375.026,202.371a15.826,15.826,0,0,1-3.239-.336c-.385,2.153-1.113,6.325-1.684,9.609a25.792,25.792,0,0,0,4.547.409,24.823,24.823,0,0,0,24-17.647l-9.034-2.374a15.274,15.274,0,0,1-14.594,10.339" transform="translate(-83.784 -48.065)" fill="#ff725e"/>
        <g id="Grupo_882323" data-name="Grupo 882323" transform="translate(286.319 143.967)" opacity="0.3">
          <g id="Grupo_882322" data-name="Grupo 882322">
            <g id="Grupo_882321" data-name="Grupo 882321" clip-path="url(#clip-path-5)">
              <path id="Trazado_637978" data-name="Trazado 637978" d="M375.026,202.371a15.826,15.826,0,0,1-3.239-.336c-.385,2.153-1.113,6.325-1.684,9.609a25.792,25.792,0,0,0,4.547.409,24.823,24.823,0,0,0,24-17.647l-9.034-2.374a15.274,15.274,0,0,1-14.594,10.339" transform="translate(-370.103 -192.032)" fill="#eb6f2d"/>
            </g>
          </g>
        </g>
        <path id="Trazado_637979" data-name="Trazado 637979" d="M370.655,186.185h-.923v1.153h-1.278v-1.153H365.4v-.855l2.671-3.482h1.375l-2.476,3.3h1.522v-1.027h1.238v1.027h.923Z" transform="translate(-82.72 -45.516)" fill="#263238"/>
        <path id="Trazado_637980" data-name="Trazado 637980" d="M372.692,184.561c0-1.811,1.036-2.838,2.428-2.838s2.428,1.027,2.428,2.838-1.027,2.839-2.428,2.839-2.428-1.027-2.428-2.839m3.536,0c0-1.247-.453-1.765-1.109-1.765s-1.1.518-1.1,1.765.453,1.765,1.1,1.765,1.109-.518,1.109-1.765" transform="translate(-84.37 -45.484)" fill="#263238"/>
        <path id="Trazado_637981" data-name="Trazado 637981" d="M379.668,183.278a1.408,1.408,0,1,1,1.408,1.514,1.384,1.384,0,0,1-1.408-1.514m2,0c0-.589-.235-.87-.591-.87s-.591.29-.591.87.243.87.591.87.591-.282.591-.87m2.783-1.451h.962l-3.867,5.489h-.963Zm-.931,4.039a1.408,1.408,0,1,1,1.4,1.514,1.382,1.382,0,0,1-1.4-1.514m1.991,0c0-.58-.234-.87-.591-.87s-.59.282-.59.87.242.87.59.87.591-.29.591-.87" transform="translate(-85.95 -45.495)" fill="#263238"/>
        <path id="Trazado_637982" data-name="Trazado 637982" d="M390.572,226.789c0,.127-9.236.229-20.625.229s-20.627-.1-20.627-.229,9.233-.229,20.627-.229,20.625.1,20.625.229" transform="translate(-79.079 -56.707)" fill="#263238"/>
        <path id="Trazado_637983" data-name="Trazado 637983" d="M384.074,231.685c0,.127-5.122.229-11.439.229s-11.44-.1-11.44-.229,5.121-.229,11.44-.229,11.439.1,11.439.229" transform="translate(-81.767 -57.932)" fill="#263238"/>
        <rect id="Rectángulo_330430" data-name="Rectángulo 330430" width="162.145" height="51.624" transform="translate(160.144 185.806)" fill="#fafafa"/>
        <path id="Trazado_637984" data-name="Trazado 637984" d="M362.9,264.071c0,.092-27.556.166-61.539.166s-61.544-.074-61.544-.166,27.549-.166,61.544-.166,61.539.074,61.539.166" transform="translate(-54.291 -66.054)" fill="#ebebeb"/>
        <path id="Trazado_637985" data-name="Trazado 637985" d="M362.9,272.219c0,.092-27.556.166-61.539.166s-61.544-.074-61.544-.166,27.549-.166,61.544-.166,61.539.074,61.539.166" transform="translate(-54.291 -68.094)" fill="#ebebeb"/>
        <path id="Trazado_637986" data-name="Trazado 637986" d="M362.9,280.367c0,.092-27.556.166-61.539.166s-61.544-.074-61.544-.166,27.549-.166,61.544-.166,61.539.075,61.539.166" transform="translate(-54.291 -70.133)" fill="#ebebeb"/>
        <path id="Trazado_637987" data-name="Trazado 637987" d="M362.9,288.515c0,.092-27.556.166-61.539.166s-61.544-.074-61.544-.166,27.549-.166,61.544-.166,61.539.074,61.539.166" transform="translate(-54.291 -72.172)" fill="#ebebeb"/>
        <path id="Trazado_637988" data-name="Trazado 637988" d="M362.9,296.662c0,.092-27.556.166-61.539.166s-61.544-.074-61.544-.166,27.549-.166,61.544-.166,61.539.074,61.539.166" transform="translate(-54.291 -74.212)" fill="#ebebeb"/>
        <path id="Trazado_637989" data-name="Trazado 637989" d="M351.9,283.235s-.085.094-.268.269a3.324,3.324,0,0,1-1.035.551,5.659,5.659,0,0,1-4.492-.693,7.3,7.3,0,0,1-2.114-2.24,33.885,33.885,0,0,1-1.611-3.114,9.722,9.722,0,0,0-2.409-3.25,5.6,5.6,0,0,0-2.09-1.071,6.535,6.535,0,0,0-2.574-.12,10.563,10.563,0,0,0-4.911,2.187c-1.466,1.112-2.755,2.482-4.332,3.722a10.743,10.743,0,0,1-5.944,2.455,6.262,6.262,0,0,1-3.4-.762,7.341,7.341,0,0,1-2.37-2.3c-1.224-1.775-1.844-3.839-3.434-5.459a5.689,5.689,0,0,0-2.981-1.732,4.737,4.737,0,0,0-3.5.706,6.9,6.9,0,0,0-2.3,2.572,14.3,14.3,0,0,0-1.089,3.216,17.473,17.473,0,0,1-1.079,3.338,7.652,7.652,0,0,1-.994,1.561,7.88,7.88,0,0,1-1.454,1.3,9.984,9.984,0,0,1-3.754,1.575,10.6,10.6,0,0,1-4.142.05,10.14,10.14,0,0,1-3.658-1.517c-1.08-.676-2.059-1.427-3.085-2.1a9.816,9.816,0,0,0-3.326-1.521,5.619,5.619,0,0,0-3.56.388,7.989,7.989,0,0,0-2.657,2.077,19.223,19.223,0,0,0-1.8,2.645,19.938,19.938,0,0,1-1.778,2.621,7.905,7.905,0,0,1-2.553,2.036,6,6,0,0,1-3.333.655,5.078,5.078,0,0,1-2.894-1.357,6.686,6.686,0,0,1-1.6-2.33,15.219,15.219,0,0,1-.729-2.5,10.561,10.561,0,0,0-1.711-4.5,6.031,6.031,0,0,0-3.956-2.472,5.176,5.176,0,0,0-2.278.238,6.24,6.24,0,0,0-1.83,1.012c-2.078,1.672-3.077,3.692-4.619,4.86a6.744,6.744,0,0,1-4.131,1.745,4.028,4.028,0,0,1-1.2-.179c-.255-.091-.379-.145-.379-.145a4.861,4.861,0,0,0,1.583.257,6.68,6.68,0,0,0,4.024-1.769c1.5-1.161,2.467-3.177,4.575-4.9a6.46,6.46,0,0,1,1.892-1.061,5.445,5.445,0,0,1,2.405-.263,6.3,6.3,0,0,1,4.155,2.555,7.39,7.39,0,0,1,1.15,2.17c.263.779.439,1.589.627,2.409a14.972,14.972,0,0,0,.727,2.459,6.441,6.441,0,0,0,1.54,2.233,4.733,4.733,0,0,0,2.695,1.26,5.6,5.6,0,0,0,3.11-.625,7.568,7.568,0,0,0,2.44-1.957,19.8,19.8,0,0,0,1.744-2.586,19.524,19.524,0,0,1,1.82-2.69,8.357,8.357,0,0,1,2.777-2.173,6.073,6.073,0,0,1,3.834-.422,10.206,10.206,0,0,1,3.472,1.577c1.041.681,2.021,1.43,3.081,2.092a9.711,9.711,0,0,0,3.511,1.457,10.131,10.131,0,0,0,3.962-.05,9.54,9.54,0,0,0,3.594-1.508,7.469,7.469,0,0,0,1.385-1.237,7.363,7.363,0,0,0,.95-1.493,17.278,17.278,0,0,0,1.061-3.283,14.534,14.534,0,0,1,1.117-3.282,7.237,7.237,0,0,1,2.422-2.7,5.187,5.187,0,0,1,3.822-.761,6.065,6.065,0,0,1,3.189,1.847c1.648,1.693,2.267,3.784,3.457,5.506a7.028,7.028,0,0,0,2.254,2.2,5.858,5.858,0,0,0,3.183.718,10.4,10.4,0,0,0,5.743-2.365c1.557-1.216,2.855-2.585,4.35-3.71a10.881,10.881,0,0,1,5.07-2.229,6.879,6.879,0,0,1,2.7.139,5.847,5.847,0,0,1,2.185,1.134,9.832,9.832,0,0,1,2.438,3.329,34.435,34.435,0,0,0,1.574,3.111,7.132,7.132,0,0,0,2.042,2.211,5.579,5.579,0,0,0,4.371.733,3.382,3.382,0,0,0,1.33-.757" transform="translate(-54.001 -67.898)" fill="#455a64"/>
        <path id="Trazado_637990" data-name="Trazado 637990" d="M359.388,280.235s-.142.014-.427.025c-.141,0-.315-.036-.523-.06a5.161,5.161,0,0,1-.687-.208,11.418,11.418,0,0,1-3.664-2.594c-.343-.331-.692-.691-1.049-1.074a12.7,12.7,0,0,0-1.137-1.179,6.6,6.6,0,0,0-3.623-1.387,6.027,6.027,0,0,0-2.21.235,5.846,5.846,0,0,0-1.97,1.116,40.85,40.85,0,0,0-3.241,3.521,9.09,9.09,0,0,1-2.076,1.694,7.2,7.2,0,0,1-2.838.892,14.849,14.849,0,0,1-6.248-.982c-2.042-.713-3.994-1.7-6.191-2.324a13.4,13.4,0,0,0-3.417-.575,8.64,8.64,0,0,0-3.45.633c-2.2.884-3.918,2.5-5.988,3.815a13.1,13.1,0,0,1-3.466,1.6,15.26,15.26,0,0,1-3.973.578,16.8,16.8,0,0,1-7.885-1.836,17.93,17.93,0,0,1-5.982-5.006c-1.605-2.018-2.483-4.309-3.641-6.4a12.958,12.958,0,0,0-2.117-2.911,9.19,9.19,0,0,0-3.12-2.023,6.545,6.545,0,0,0-3.76-.334,6.476,6.476,0,0,0-3.122,1.724,8.627,8.627,0,0,0-1.869,2.724,18.98,18.98,0,0,0-.966,3.012c-.257,1.012-.487,2.02-.817,3a12.018,12.018,0,0,1-1.339,2.794,13.7,13.7,0,0,1-4.517,4.284,14.767,14.767,0,0,1-5.894,2,14.572,14.572,0,0,1-5.827-.567,10.729,10.729,0,0,1-7.026-5.791c-.486-1.188-.731-2.332-1.082-3.351a7.2,7.2,0,0,0-1.4-2.619,5.385,5.385,0,0,0-4.064-1.751,3.5,3.5,0,0,0-1.541.472,2.805,2.805,0,0,1,1.534-.538,5.474,5.474,0,0,1,4.192,1.739,7.311,7.311,0,0,1,1.462,2.655c.364,1.025.62,2.168,1.109,3.333a10.551,10.551,0,0,0,6.913,5.631,13.989,13.989,0,0,0,11.434-1.44,13.4,13.4,0,0,0,4.4-4.2,17.168,17.168,0,0,0,2.105-5.717,19.113,19.113,0,0,1,.973-3.057,8.932,8.932,0,0,1,1.932-2.824,6.851,6.851,0,0,1,3.313-1.828,7.005,7.005,0,0,1,4.015.348,9.6,9.6,0,0,1,3.258,2.108,13.209,13.209,0,0,1,2.176,2.985c1.175,2.123,2.042,4.381,3.617,6.359a17.584,17.584,0,0,0,5.856,4.9,16.364,16.364,0,0,0,7.673,1.793,14.813,14.813,0,0,0,3.853-.557,12.671,12.671,0,0,0,3.364-1.545c2.036-1.286,3.768-2.916,6.058-3.837a9.067,9.067,0,0,1,3.616-.657,13.812,13.812,0,0,1,3.522.6c2.233.645,4.2,1.64,6.2,2.345a14.516,14.516,0,0,0,6.084.982,6.865,6.865,0,0,0,2.712-.842,8.859,8.859,0,0,0,2.02-1.637,40.42,40.42,0,0,1,3.283-3.526,6.107,6.107,0,0,1,2.065-1.152,6.293,6.293,0,0,1,2.313-.232,6.785,6.785,0,0,1,3.735,1.459,12.856,12.856,0,0,1,1.14,1.2q.527.579,1.03,1.08a11.537,11.537,0,0,0,3.58,2.617,3.7,3.7,0,0,0,1.6.3" transform="translate(-53.707 -66.324)" fill="#e44e00"/>
        <path id="Trazado_637991" data-name="Trazado 637991" d="M227.944,264.476a8.044,8.044,0,0,1-3.255,0,8.042,8.042,0,0,1,3.255,0" transform="translate(-50.865 -66.156)" fill="#e0e0e0"/>
        <path id="Trazado_637992" data-name="Trazado 637992" d="M227.944,272.219a8.042,8.042,0,0,1-3.255,0,8.044,8.044,0,0,1,3.255,0" transform="translate(-50.865 -68.094)" fill="#e0e0e0"/>
        <path id="Trazado_637993" data-name="Trazado 637993" d="M227.944,279.962a8.044,8.044,0,0,1-3.255,0,8.042,8.042,0,0,1,3.255,0" transform="translate(-50.865 -70.032)" fill="#e0e0e0"/>
        <path id="Trazado_637994" data-name="Trazado 637994" d="M227.944,287.705a8.041,8.041,0,0,1-3.255,0,8.044,8.044,0,0,1,3.255,0" transform="translate(-50.865 -71.97)" fill="#e0e0e0"/>
        <path id="Trazado_637995" data-name="Trazado 637995" d="M227.944,295.448a8.042,8.042,0,0,1-3.255,0,8.044,8.044,0,0,1,3.255,0" transform="translate(-50.865 -73.908)" fill="#e0e0e0"/>
        <path id="Trazado_637996" data-name="Trazado 637996" d="M246.33,305.4a31.911,31.911,0,0,1-6.51,0,31.917,31.917,0,0,1,6.51,0" transform="translate(-54.291 -76.399)" fill="#e0e0e0"/>
        <path id="Trazado_637997" data-name="Trazado 637997" d="M283.427,305.4a31.911,31.911,0,0,1-6.51,0,31.917,31.917,0,0,1,6.51,0" transform="translate(-62.689 -76.399)" fill="#e0e0e0"/>
        <path id="Trazado_637998" data-name="Trazado 637998" d="M320.523,305.4a31.911,31.911,0,0,1-6.51,0,31.917,31.917,0,0,1,6.51,0" transform="translate(-71.086 -76.399)" fill="#e0e0e0"/>
        <path id="Trazado_637999" data-name="Trazado 637999" d="M357.621,305.4a31.911,31.911,0,0,1-6.51,0,31.917,31.917,0,0,1,6.51,0" transform="translate(-79.485 -76.399)" fill="#e0e0e0"/>
        <path id="Trazado_638000" data-name="Trazado 638000" d="M394.717,305.4a31.919,31.919,0,0,1-6.511,0,31.925,31.925,0,0,1,6.511,0" transform="translate(-87.882 -76.399)" fill="#e0e0e0"/>
      </g>
    </g>
    <g id="Grupo_882327" data-name="Grupo 882327">
      <g id="Grupo_882326" data-name="Grupo 882326" clip-path="url(#clip-path)">
        <path id="Trazado_638001" data-name="Trazado 638001" d="M453.974,410.295c0,.108-101.633.195-226.976.195-125.386,0-227-.087-227-.195s101.612-.195,227-.195c125.343,0,226.976.087,226.976.195" transform="translate(0 -102.646)" fill="#263238"/>
      </g>
    </g>
  </g>
</svg>
