<svg id="Grupo_881500" data-name="Grupo 881500" xmlns="http://www.w3.org/2000/svg" xmlns:xlink="http://www.w3.org/1999/xlink" width="377.398" height="382.855" viewBox="0 0 377.398 382.855">
  <defs>
    <clipPath id="clip-path">
      <rect id="Rectángulo_329993" data-name="Rectángulo 329993" width="377.399" height="382.855" fill="none"/>
    </clipPath>
    <clipPath id="clip-path-4">
      <rect id="Rectángulo_329984" data-name="Rectángulo 329984" width="111.323" height="17.205" fill="none"/>
    </clipPath>
    <clipPath id="clip-path-5">
      <rect id="Rectángulo_329985" data-name="Rectángulo 329985" width="30.58" height="11.249" fill="none"/>
    </clipPath>
    <clipPath id="clip-path-6">
      <rect id="Rectángulo_329986" data-name="Rectángulo 329986" width="15.063" height="62.55" fill="none"/>
    </clipPath>
    <clipPath id="clip-path-9">
      <rect id="Rectángulo_329990" data-name="Rectángulo 329990" width="15.415" height="31.835" fill="none"/>
    </clipPath>
  </defs>
  <g id="Grupo_881499" data-name="Grupo 881499" clip-path="url(#clip-path)">
    <g id="Grupo_881478" data-name="Grupo 881478">
      <g id="Grupo_881477" data-name="Grupo 881477" clip-path="url(#clip-path)">
        <path id="Trazado_635358" data-name="Trazado 635358" d="M352.687,290.323a16.4,16.4,0,0,0,9.9-15.085c.114-9.057-6.678-16.489-15.17-16.6s-15.467,7.14-15.581,16.2a16.372,16.372,0,0,0,9.668,15.394c-23.693,3.363-22.838,29.09-22.838,29.09l55.953.733s1.5-25.987-21.93-29.729" transform="translate(-28.671 -23.271)" fill="#e0e0e0"/>
        <path id="Trazado_635359" data-name="Trazado 635359" d="M11.394,236.361l3.329-.705,5.118-11.662-1.408-6.644s5.078-1.406,6.316,7.421,1.423,6.475,1.423,6.475,10.932-2.272,12.041-1.516c.806.55,3.4,11.337,4.765,17.2a6.512,6.512,0,0,1-3.155,7.375,4.841,4.841,0,0,1-1.142.407c-2.724.578-17.114,1.312-17.114,1.312l-5.75,1.219Z" transform="translate(-1.025 -19.549)" fill="#e0e0e0"/>
        <path id="Trazado_635360" data-name="Trazado 635360" d="M.5,238.347,7.37,260.678l5.7-1.208L8.344,237.163Z" transform="translate(-0.045 -21.339)" fill="#e0e0e0"/>
        <path id="Trazado_635361" data-name="Trazado 635361" d="M143.612,100.41H104.137a3.111,3.111,0,0,0-3.111,3.111v26.157a3.111,3.111,0,0,0,3.111,3.111h20.788l9.881,9.881V132.79h8.805a2.307,2.307,0,0,0,2.307-2.307V102.717a2.307,2.307,0,0,0-2.307-2.307" transform="translate(-9.09 -9.034)" fill="#ebebeb"/>
        <path id="Trazado_635362" data-name="Trazado 635362" d="M133.43,118.574a2.323,2.323,0,1,0,2.322-2.322,2.322,2.322,0,0,0-2.322,2.322" transform="translate(-12.005 -10.46)" fill="#fafafa"/>
        <path id="Trazado_635363" data-name="Trazado 635363" d="M123.335,118.574a2.323,2.323,0,1,0,2.323-2.322,2.322,2.322,0,0,0-2.323,2.322" transform="translate(-11.097 -10.46)" fill="#fafafa"/>
        <path id="Trazado_635364" data-name="Trazado 635364" d="M113.239,118.574a2.323,2.323,0,1,0,2.322-2.322,2.322,2.322,0,0,0-2.322,2.322" transform="translate(-10.189 -10.46)" fill="#fafafa"/>
        <path id="Trazado_635365" data-name="Trazado 635365" d="M404.209,38.933a4.035,4.035,0,0,0-7.959.238A4.036,4.036,0,0,0,388.288,39a5.447,5.447,0,0,0,.978,3.93,16.22,16.22,0,0,0,2.846,3.009c1.449,1.289,2.787,2.5,4.237,3.791,1.437-1.3,2.66-2.526,4.1-3.828a16.135,16.135,0,0,0,2.82-3.034,5.448,5.448,0,0,0,.943-3.939" transform="translate(-34.93 -3.21)" fill="#e0e0e0"/>
      </g>
    </g>
    <g id="Grupo_881489" data-name="Grupo 881489">
      <g id="Grupo_881488" data-name="Grupo 881488" clip-path="url(#clip-path)">
        <path id="Trazado_635366" data-name="Trazado 635366" d="M258.1,410.251l-27.781-102.34-82.669-.8c-8.167,29.765-13.063,67.746-15.268,103.135" transform="translate(-11.911 -27.633)" fill="#ffb338"/>
        <path id="Trazado_635367" data-name="Trazado 635367" d="M169.7,389.336a9.862,9.862,0,0,0,2.612,1.013,6.106,6.106,0,0,0,6.644-8.559,9.869,9.869,0,0,0-1.628-2.279,2.056,2.056,0,0,1,.637.444,5.808,5.808,0,0,1,1.293,1.689,6.211,6.211,0,0,1,.682,3.092,6.334,6.334,0,0,1-4.529,5.834,6.213,6.213,0,0,1-3.165.106,5.813,5.813,0,0,1-1.957-.834c-.41-.289-.606-.487-.589-.508" transform="translate(-15.268 -34.146)" fill="#fafafa"/>
        <path id="Trazado_635368" data-name="Trazado 635368" d="M199.836,362.541a2.487,2.487,0,0,0-1.532-.356,1.689,1.689,0,0,0-1.248.973,1.635,1.635,0,0,0,2.162,2.162,1.689,1.689,0,0,0,.973-1.248,2.484,2.484,0,0,0-.356-1.532c.018-.019.17.064.358.312a1.844,1.844,0,0,1,.33,1.264,2,2,0,0,1-1.119,1.6,2.054,2.054,0,0,1-2.744-2.744,2,2,0,0,1,1.6-1.119,1.838,1.838,0,0,1,1.264.331c.248.187.332.339.312.357" transform="translate(-17.676 -32.557)" fill="#fafafa"/>
        <path id="Trazado_635369" data-name="Trazado 635369" d="M217.935,407.85a2.489,2.489,0,0,0-1.532-.356,1.689,1.689,0,0,0-1.248.973,1.635,1.635,0,0,0,2.162,2.162,1.689,1.689,0,0,0,.973-1.248,2.489,2.489,0,0,0-.356-1.532c.018-.019.17.064.357.312a1.838,1.838,0,0,1,.331,1.264,2,2,0,0,1-1.12,1.6,2.053,2.053,0,0,1-2.743-2.743,2,2,0,0,1,1.6-1.12,1.843,1.843,0,0,1,1.264.33c.248.187.331.339.312.358" transform="translate(-19.305 -36.633)" fill="#fafafa"/>
        <path id="Trazado_635370" data-name="Trazado 635370" d="M147.078,381.421c0,.045-.34.044-.912.209a3.816,3.816,0,0,0-1.995,1.4,3.621,3.621,0,1,0,5.813,0,3.817,3.817,0,0,0-2-1.4c-.571-.166-.913-.165-.911-.209a2.012,2.012,0,0,1,.956.03,3.809,3.809,0,0,1,2.217,1.379,3.977,3.977,0,0,1,.624,3.793,4.028,4.028,0,0,1-7.6,0,3.977,3.977,0,0,1,.624-3.793,3.809,3.809,0,0,1,2.217-1.379,2.012,2.012,0,0,1,.956-.03" transform="translate(-12.871 -34.315)" fill="#fafafa"/>
        <path id="Trazado_635371" data-name="Trazado 635371" d="M214.044,382.274c0,.045-.34.044-.911.209a3.814,3.814,0,0,0-2,1.4,3.621,3.621,0,1,0,5.813,0,3.817,3.817,0,0,0-2-1.4c-.571-.166-.913-.165-.911-.209a2.01,2.01,0,0,1,.956.03,3.809,3.809,0,0,1,2.217,1.379,3.977,3.977,0,0,1,.624,3.793,4.028,4.028,0,0,1-7.6,0,3.977,3.977,0,0,1,.624-3.793,3.809,3.809,0,0,1,2.217-1.379,2.01,2.01,0,0,1,.956-.03" transform="translate(-18.896 -34.392)" fill="#fafafa"/>
        <path id="Trazado_635372" data-name="Trazado 635372" d="M151.362,405.251a1.847,1.847,0,1,1,0,2.612,1.846,1.846,0,0,1,0-2.612" transform="translate(-13.57 -36.414)" fill="#fafafa"/>
        <path id="Trazado_635373" data-name="Trazado 635373" d="M188.3,347.423a1.847,1.847,0,1,1,0,2.612,1.846,1.846,0,0,1,0-2.612" transform="translate(-16.893 -31.211)" fill="#fafafa"/>
        <path id="Trazado_635374" data-name="Trazado 635374" d="M228.295,361.121a1.846,1.846,0,1,1,0,2.612,1.845,1.845,0,0,1,0-2.612" transform="translate(-20.492 -32.443)" fill="#fafafa"/>
        <path id="Trazado_635375" data-name="Trazado 635375" d="M179.756,359.867a2.921,2.921,0,0,1-.328.562l-1.023,1.542c-.945,1.379-2.236,3.262-3.8,5.538l-.147.216-.157-.212c-1.6-2.164-3.5-4.724-5.569-7.508l.372,0-2.953,3.96-2.676,3.575-.2.262-.183-.271c-1.866-2.775-3.588-5.335-5.082-7.555l.307.017-4.769,5.426L152.21,366.9a3.266,3.266,0,0,1-.5.5,3.252,3.252,0,0,1,.416-.572l1.264-1.553,4.643-5.534.162-.194.145.211,5.146,7.511-.379-.009c.863-1.156,1.756-2.353,2.67-3.579l2.961-3.953.188-.252.184.253,5.5,7.56-.3,0,3.93-5.445,1.106-1.482a2.894,2.894,0,0,1,.419-.5" transform="translate(-13.65 -32.344)" fill="#fafafa"/>
        <path id="Trazado_635376" data-name="Trazado 635376" d="M200.129,399.177a2.824,2.824,0,0,1-.19.622c-.167.454-.38,1.029-.642,1.735-.6,1.559-1.429,3.688-2.425,6.261l-.095.244-.2-.171-7.143-6.03.363-.084-1.967,4.531c-.612,1.4-1.209,2.772-1.785,4.093l-.131.3-.24-.222-6.679-6.189.3-.054-3.4,6.376-.967,1.753a3.316,3.316,0,0,1-.376.6,3.177,3.177,0,0,1,.273-.652l.875-1.8c.81-1.609,1.918-3.808,3.25-6.451l.114-.226.189.172,6.731,6.131-.37.079,1.778-4.1c.679-1.554,1.34-3.071,1.976-4.526l.126-.288.238.2,7.085,6.1-.3.074,2.576-6.2c.3-.69.543-1.253.736-1.7a2.913,2.913,0,0,1,.293-.582" transform="translate(-15.705 -35.916)" fill="#fafafa"/>
        <path id="Trazado_635377" data-name="Trazado 635377" d="M236.939,381.425a2.941,2.941,0,0,1,.545.357l1.487,1.1,5.335,4.076.207.158-.22.147-7.783,5.177.021-.372,3.8,3.152,3.433,2.857.252.21-.28.168-7.806,4.687.033-.3,5.174,5.041,1.413,1.419a3.249,3.249,0,0,1,.471.528,3.27,3.27,0,0,1-.55-.444l-1.487-1.342-5.288-4.921-.185-.172.217-.134,7.766-4.755-.028.379-3.438-2.85-3.8-3.161-.242-.2.262-.171,7.832-5.1-.012.3-5.235-4.2-1.424-1.179a2.872,2.872,0,0,1-.477-.444" transform="translate(-21.19 -34.318)" fill="#fafafa"/>
        <g id="Grupo_881481" data-name="Grupo 881481" transform="translate(123.389 331.423)" opacity="0.2">
          <g id="Grupo_881480" data-name="Grupo 881480">
            <g id="Grupo_881479" data-name="Grupo 881479" clip-path="url(#clip-path-4)">
              <path id="Trazado_635378" data-name="Trazado 635378" d="M135.588,381.4l111.323-8.3-2.417-8.907H137.722Z" transform="translate(-135.588 -364.191)"/>
            </g>
          </g>
        </g>
        <path id="Trazado_635379" data-name="Trazado 635379" d="M199.822,408.563c-.131,0-.153-7.7-.05-17.188s.293-17.185.424-17.184.153,7.7.05,17.189-.293,17.183-.424,17.182" transform="translate(-17.969 -33.668)" fill="#263238"/>
        <path id="Trazado_635380" data-name="Trazado 635380" d="M224.472,408.874a6.629,6.629,0,0,1-.4-1.219c-.247-.881-.561-2.009-.94-3.361-.784-2.838-1.879-6.757-3.15-11.066s-2.483-8.195-3.365-11l-1.037-3.332a6.664,6.664,0,0,1-.325-1.241,6.731,6.731,0,0,1,.5,1.182c.294.77.7,1.893,1.18,3.286.965,2.786,2.227,6.66,3.5,10.975s2.317,8.253,3.019,11.116c.352,1.431.623,2.594.794,3.4a6.662,6.662,0,0,1,.222,1.264" transform="translate(-19.367 -33.979)" fill="#263238"/>
        <path id="Trazado_635381" data-name="Trazado 635381" d="M325.588,248.271l-16.554,10.782V92.853h16.554Z" transform="translate(-27.805 -8.354)" fill="#f5f5f5"/>
        <path id="Trazado_635382" data-name="Trazado 635382" d="M308.868,244.263c7.594-23.322,4.2-49.311,12.567-72.437.8-2.224,1.733-4.5,1.5-6.818a10.337,10.337,0,0,0-2.554-5.394c-1.487-1.788-3.716-3.446-6.265-3.267a6.044,6.044,0,0,0-4.854,3.46,13.348,13.348,0,0,0-.941,5.608c-.139,7.068-.1,14.138-.064,21.208q.142,26.676.284,53.353" transform="translate(-27.732 -14.066)" fill="#e0e0e0"/>
        <path id="Trazado_635383" data-name="Trazado 635383" d="M308.865,138.412v-6.154l16.554-4.739v7.093Z" transform="translate(-27.79 -11.473)" fill="#e0e0e0"/>
        <path id="Trazado_635384" data-name="Trazado 635384" d="M85.984,164.875s-1.192-9.241-.652-12.508c.576-3.475,6.378-10.84,6.378-10.84-.081-.321-1.042-1.122-4.006,0s-4.007,3.2-6.811,5.207L66.5,137.8,61.745,152.91l12.231,19.254Z" transform="translate(-5.555 -12.399)" fill="#ffad9d"/>
        <path id="Trazado_635385" data-name="Trazado 635385" d="M155.975,128.71c-7.434,7.286-.291,18.606-5.056,25.921-2.888,4.434-9.072,6.577-10.4,11.7-.658,2.536.086,5.191.476,7.782s.3,5.567-1.589,7.387a27.209,27.209,0,0,1-3.012,2.048c-2.908,2.137-3.891,6.122-3.565,9.715s1.725,6.985,2.706,10.457a46.132,46.132,0,0,1-1.742,29.883,11.267,11.267,0,0,0,8.886-4.263l-.27,7.225a10.835,10.835,0,0,0,8.437-3.916,25.878,25.878,0,0,0,4.577-8.4,89.371,89.371,0,0,0,4.846-42.57" transform="translate(-11.946 -11.581)" fill="#263238"/>
        <path id="Trazado_635386" data-name="Trazado 635386" d="M223.721,105.847a30.958,30.958,0,0,1,5,21.475c-.594,4.231-2.058,8.631-.6,12.647,1.253,3.457,4.579,6.282,4.4,9.955-.208,4.187-4.928,7.017-5.354,11.187-.59,5.78,7.17,9.663,7.081,15.471-.046,2.993-2.188,5.467-3.671,8.067s-2.152,6.352.177,8.233L203.77,190.9l4.807-84.441Z" transform="translate(-18.334 -9.524)" fill="#263238"/>
        <path id="Trazado_635387" data-name="Trazado 635387" d="M309.861,182.206l-.3-.008,1.192-3.977,3.808-15.2a2.79,2.79,0,0,0-1.788-3.311l-2.741-.093-9.386-4.391a2.927,2.927,0,0,0-3.956,2.271c-.343,2.794-2.242,10.3-4.264,7.669-.047-.062-.1-.112-.146-.173-2.841-3.911-6.38-6.022-7.836-5.962a1.634,1.634,0,0,0-.995,2.807,1.754,1.754,0,0,0,.536.464c.095.051.207.143.308.207a24.261,24.261,0,0,1,3.378,3.707,12.855,12.855,0,0,1,2.068,3.956c.5,1.576.874,2.958,1.154,4.129l-.729,7.758" transform="translate(-25.46 -13.95)" fill="#ffad9d"/>
        <path id="Trazado_635388" data-name="Trazado 635388" d="M285,104.3s10.969-2.1,26.727-16.418,23.521-33.7,25.4-33.551,10.181-3.425,24.812,30.936,8.265,42.063,5.164,41.912-24-6.621-37.205-5.5-30.311,7.5-30.311,7.5Z" transform="translate(-25.643 -4.885)" fill="#eb6f2d"/>
        <path id="Trazado_635389" data-name="Trazado 635389" d="M258.885,126.458l3.518,7.176,1.576,3.215a9.233,9.233,0,0,0,11.913,4.428l23.594-7.479-12.725-31.45-23.7,11.778a9.233,9.233,0,0,0-4.181,12.332" transform="translate(-23.208 -9.209)" fill="#e44e00"/>
        <path id="Trazado_635390" data-name="Trazado 635390" d="M273.427,141.237l7.033,14.8,3.753-.929,23.754,20.468,7.172-13.11s-14.194-6.6-16.705-11.8.592-6.274.592-6.274l-6.545-7.877Z" transform="translate(-24.601 -12.283)" fill="#e44e00"/>
        <path id="Trazado_635391" data-name="Trazado 635391" d="M365.833,85.933c7.777,18.609,10.767,35.081,6.678,36.79s-13.708-11.992-21.486-30.6-10.767-35.081-6.678-36.79,13.709,11.992,21.486,30.6" transform="translate(-30.818 -4.966)" fill="#e44e00"/>
        <path id="Trazado_635392" data-name="Trazado 635392" d="M256.243,139.08l6.389-1.809-3.707-7.562-4.833,2.817Z" transform="translate(-22.862 -11.67)" fill="#fd4c1b"/>
        <path id="Trazado_635393" data-name="Trazado 635393" d="M294.918,139.488l-17.327,10.371-2-4.22Z" transform="translate(-24.796 -12.55)" fill="#fd4c1b"/>
        <path id="Trazado_635394" data-name="Trazado 635394" d="M259.345,129.708l3.707,7.562-1.313.372-2.973-7.6Z" transform="translate(-23.282 -11.67)" fill="#fd4c1b"/>
        <path id="Trazado_635395" data-name="Trazado 635395" d="M264.144,131.153c.087.207,3.282-.931,7.136-2.544s6.911-3.087,6.823-3.294-3.281.931-7.137,2.544-6.909,3.088-6.822,3.294" transform="translate(-23.766 -11.273)" fill="#fd4c1b"/>
        <path id="Trazado_635396" data-name="Trazado 635396" d="M262.142,126.224c.095.2,2.988-.919,6.465-2.511s6.219-3.047,6.125-3.252-2.986.92-6.464,2.512-6.219,3.047-6.126,3.251" transform="translate(-23.586 -10.836)" fill="#fd4c1b"/>
        <path id="Trazado_635397" data-name="Trazado 635397" d="M266.7,136.405c.03.109.787-.044,2-.38.6-.167,1.321-.382,2.116-.632s1.61-.648,2.49-1.017c3.511-1.51,6.2-3.009,6.119-3.2-.1-.224-2.959.955-6.437,2.45-.873.366-1.683.773-2.445,1.066s-1.451.551-2.024.785c-1.147.471-1.847.818-1.817.926" transform="translate(-23.996 -11.8)" fill="#fd4c1b"/>
        <path id="Trazado_635398" data-name="Trazado 635398" d="M349.675,83.837s9.641-5.606,14.461,7.341-5.207,14.77-5.207,14.77a85.309,85.309,0,0,1-9.254-22.111" transform="translate(-31.462 -7.435)" fill="#fd4c1b"/>
        <path id="Trazado_635399" data-name="Trazado 635399" d="M339.077,66.879a14.339,14.339,0,0,0,.3,2.456c.255,1.573.614,3.855,1.143,6.66.361,1.385.757,2.9,1.18,4.517l.665,2.515q.173.648.35,1.315c.128.441.3.875.453,1.322l1.984,5.584q.259.726.523,1.464c.17.494.418.962.625,1.45l1.326,2.943,1.33,2.943c.228.479.416.974.673,1.43s.5.911.752,1.361l2.875,5.184c.235.41.446.826.692,1.215s.507.762.755,1.135l1.449,2.168c.936,1.391,1.809,2.689,2.608,3.879,1.749,2.246,3.22,4.02,4.229,5.253a14.421,14.421,0,0,0,1.643,1.853,14.565,14.565,0,0,0-1.393-2.048l-4.023-5.41-2.506-3.906-1.4-2.17q-.363-.558-.734-1.133c-.238-.389-.444-.805-.673-1.215-.9-1.649-1.837-3.379-2.814-5.172l-.74-1.355c-.254-.453-.439-.946-.664-1.422l-1.316-2.923-1.32-2.921c-.207-.484-.455-.948-.626-1.438l-.526-1.451-2.015-5.53c-.156-.442-.332-.871-.467-1.308s-.244-.874-.364-1.3l-.7-2.489c-.456-1.6-.881-3.1-1.271-4.467l-1.391-6.582a14.622,14.622,0,0,0-.614-2.4" transform="translate(-30.507 -6.017)" fill="#fd4c1b"/>
        <path id="Trazado_635400" data-name="Trazado 635400" d="M283.171,181.31l-4.75,42.165-23.708-23.624s-12.688,26.383-12.864,27.456c-.118.722,13.306,13.984,23.28,21.646,5.4,4.148,12.687,10.558,19.411,9.481,11.215-1.8,17.874-9.207,18.848-20.524l4.3-55.951Z" transform="translate(-21.76 -16.313)" fill="#ffb338"/>
        <path id="Trazado_635401" data-name="Trazado 635401" d="M149.169,220.205l-17.382-11.52c4.755-26.724,43.357-29.4,43.357-29.4l29.393-.521s21.784-2.962,35.257,12.179c13.943,15.67,24.439,28.006,24.439,28.006l-19.078,20.879-18.7-14.679a25.563,25.563,0,0,1,4.593,14.11c.014,8.7-6.483,17.021-6.483,17.021l-1.628,14.862,7.124,28.805-83.266.22a151.9,151.9,0,0,0,14.793-30.088l-7.779-28.014Z" transform="translate(-11.857 -16.063)" fill="#ffb338"/>
        <path id="Trazado_635402" data-name="Trazado 635402" d="M144.756,186.192l-42.175,22.315L87.32,166.82,68.7,175.673l13.169,53.064c2.618,10.548,13.789,16.889,23.985,13.127q.515-.19,1.024-.41l45.694-19.782Z" transform="translate(-6.182 -15.01)" fill="#ffb338"/>
        <path id="Trazado_635403" data-name="Trazado 635403" d="M182.486,224.11a9.828,9.828,0,0,0-2.685.8,6.107,6.107,0,0,0,0,10.835,9.87,9.87,0,0,0,2.685.8,2.077,2.077,0,0,1-.776.039,5.778,5.778,0,0,1-2.057-.541,6.21,6.21,0,0,1-2.435-2.025,6.335,6.335,0,0,1,0-7.386,6.2,6.2,0,0,1,2.435-2.025,5.8,5.8,0,0,1,2.057-.541,2.062,2.062,0,0,1,.776.04" transform="translate(-15.838 -20.16)" fill="#fafafa"/>
        <path id="Trazado_635404" data-name="Trazado 635404" d="M215.721,239.642a9.855,9.855,0,0,0,1.629,2.28,6.107,6.107,0,0,0,10.25-3.513,9.878,9.878,0,0,0-.112-2.8,2.059,2.059,0,0,1,.288.722,5.8,5.8,0,0,1,.156,2.121,6.2,6.2,0,0,1-1.127,2.959,6.332,6.332,0,0,1-6.987,2.394,6.2,6.2,0,0,1-2.7-1.646,5.788,5.788,0,0,1-1.179-1.771,2.061,2.061,0,0,1-.214-.747" transform="translate(-19.409 -21.199)" fill="#fafafa"/>
        <path id="Trazado_635405" data-name="Trazado 635405" d="M192.344,291.236a9.864,9.864,0,0,0,2.612,1.013,6.106,6.106,0,0,0,6.644-8.558,9.864,9.864,0,0,0-1.628-2.28,2.05,2.05,0,0,1,.637.445,5.817,5.817,0,0,1,1.293,1.688,6.211,6.211,0,0,1,.682,3.092,6.334,6.334,0,0,1-4.529,5.834,6.2,6.2,0,0,1-3.165.106,5.787,5.787,0,0,1-1.957-.834c-.41-.289-.606-.487-.589-.508" transform="translate(-17.306 -25.32)" fill="#fafafa"/>
        <path id="Trazado_635406" data-name="Trazado 635406" d="M288.493,211.022a9.862,9.862,0,0,0,2.612,1.013,6.107,6.107,0,0,0,6.644-8.559,9.869,9.869,0,0,0-1.628-2.279,2.05,2.05,0,0,1,.637.445,5.8,5.8,0,0,1,1.293,1.688,6.211,6.211,0,0,1,.682,3.092,6.334,6.334,0,0,1-4.529,5.834,6.2,6.2,0,0,1-3.165.106,5.8,5.8,0,0,1-1.957-.834c-.41-.289-.606-.487-.589-.508" transform="translate(-25.957 -18.102)" fill="#fafafa"/>
        <path id="Trazado_635407" data-name="Trazado 635407" d="M295.936,258.171a9.8,9.8,0,0,0-.98-2.625,6.106,6.106,0,0,0-10.81.726,9.815,9.815,0,0,0-.62,2.732,2.07,2.07,0,0,1-.092-.773,5.808,5.808,0,0,1,.4-2.088,6.213,6.213,0,0,1,1.857-2.564,6.336,6.336,0,0,1,7.369-.5,6.208,6.208,0,0,1,2.182,2.293,5.793,5.793,0,0,1,.678,2.017,2.069,2.069,0,0,1,.013.777" transform="translate(-25.502 -22.686)" fill="#fafafa"/>
        <path id="Trazado_635408" data-name="Trazado 635408" d="M226.48,199.331a9.83,9.83,0,0,0,2.095,1.86,6.106,6.106,0,0,0,9.212-5.7,9.839,9.839,0,0,0-.732-2.7,2.054,2.054,0,0,1,.442.639,5.8,5.8,0,0,1,.622,2.034,6.206,6.206,0,0,1-.44,3.136,6.335,6.335,0,0,1-6.28,3.888,6.208,6.208,0,0,1-3-1,5.778,5.778,0,0,1-1.542-1.464,2.05,2.05,0,0,1-.375-.681" transform="translate(-20.377 -17.346)" fill="#fafafa"/>
        <path id="Trazado_635409" data-name="Trazado 635409" d="M135.639,224.277a9.83,9.83,0,0,0,2.095,1.86,6.106,6.106,0,0,0,9.212-5.7,9.852,9.852,0,0,0-.732-2.7,2.034,2.034,0,0,1,.442.64,5.771,5.771,0,0,1,.622,2.033,6.2,6.2,0,0,1-.44,3.136,6.335,6.335,0,0,1-6.28,3.888,6.207,6.207,0,0,1-3-1,5.791,5.791,0,0,1-1.542-1.463,2.08,2.08,0,0,1-.375-.682" transform="translate(-12.204 -19.59)" fill="#fafafa"/>
        <path id="Trazado_635410" data-name="Trazado 635410" d="M97.8,225.777a9.794,9.794,0,0,0,.888-2.657,6.106,6.106,0,0,0-8.862-6.233,9.806,9.806,0,0,0-2.2,1.735,2.036,2.036,0,0,1,.414-.658,5.8,5.8,0,0,1,1.625-1.371,6.2,6.2,0,0,1,3.057-.827,6.334,6.334,0,0,1,6.042,4.249,6.2,6.2,0,0,1,.255,3.156,5.792,5.792,0,0,1-.74,1.994c-.269.424-.458.629-.48.612" transform="translate(-7.884 -19.413)" fill="#fafafa"/>
        <path id="Trazado_635411" data-name="Trazado 635411" d="M201.812,232.97a2.487,2.487,0,0,0-1.532-.356,1.689,1.689,0,0,0-1.248.973,1.635,1.635,0,0,0,2.162,2.162,1.689,1.689,0,0,0,.973-1.248,2.489,2.489,0,0,0-.356-1.532c.018-.019.17.064.358.312a1.843,1.843,0,0,1,.33,1.264,2,2,0,0,1-1.119,1.6,2.053,2.053,0,0,1-2.744-2.743,2,2,0,0,1,1.6-1.12,1.844,1.844,0,0,1,1.264.33c.248.187.332.339.312.358" transform="translate(-17.854 -20.899)" fill="#fafafa"/>
        <path id="Trazado_635412" data-name="Trazado 635412" d="M233.9,217.315a2.489,2.489,0,0,0-1.532-.356,1.689,1.689,0,0,0-1.248.973,1.635,1.635,0,0,0,2.162,2.162,1.689,1.689,0,0,0,.973-1.248,2.5,2.5,0,0,0-.356-1.532c.018-.019.17.064.357.312a1.838,1.838,0,0,1,.331,1.264,2,2,0,0,1-1.12,1.6,2.053,2.053,0,0,1-2.743-2.743,2,2,0,0,1,1.6-1.12,1.838,1.838,0,0,1,1.264.331c.248.187.331.339.312.357" transform="translate(-20.741 -19.49)" fill="#fafafa"/>
        <path id="Trazado_635413" data-name="Trazado 635413" d="M303.6,191.28a2.487,2.487,0,0,0-1.532-.356,1.689,1.689,0,0,0-1.248.973,1.635,1.635,0,0,0,2.162,2.162,1.689,1.689,0,0,0,.973-1.248,2.487,2.487,0,0,0-.356-1.532c.018-.02.171.064.357.312a1.838,1.838,0,0,1,.331,1.264,2,2,0,0,1-1.119,1.6,2.054,2.054,0,0,1-2.744-2.744,2,2,0,0,1,1.6-1.119,1.843,1.843,0,0,1,1.264.33c.248.187.332.339.312.358" transform="translate(-27.012 -17.148)" fill="#fafafa"/>
        <path id="Trazado_635414" data-name="Trazado 635414" d="M224.967,266.592a2.489,2.489,0,0,0-1.532-.356,1.689,1.689,0,0,0-1.248.973,1.635,1.635,0,0,0,2.162,2.162,1.689,1.689,0,0,0,.973-1.248,2.489,2.489,0,0,0-.356-1.532c.018-.019.17.064.357.312a1.838,1.838,0,0,1,.331,1.264,2,2,0,0,1-1.12,1.6,2.053,2.053,0,0,1-2.743-2.743,2,2,0,0,1,1.6-1.12,1.843,1.843,0,0,1,1.264.33c.248.187.331.339.312.358" transform="translate(-19.937 -23.924)" fill="#fafafa"/>
        <path id="Trazado_635415" data-name="Trazado 635415" d="M116.637,232.97a2.49,2.49,0,0,0-1.532-.356,1.689,1.689,0,0,0-1.248.973,1.635,1.635,0,0,0,2.162,2.162,1.689,1.689,0,0,0,.973-1.248,2.489,2.489,0,0,0-.356-1.532c.018-.019.17.064.357.312a1.838,1.838,0,0,1,.331,1.264,2,2,0,0,1-1.12,1.6,2.053,2.053,0,0,1-2.743-2.743,2,2,0,0,1,1.6-1.12,1.844,1.844,0,0,1,1.264.33c.248.187.331.339.312.358" transform="translate(-10.19 -20.899)" fill="#fafafa"/>
        <path id="Trazado_635416" data-name="Trazado 635416" d="M175.892,279.427c0,.045-.34.044-.912.209a3.816,3.816,0,0,0-1.995,1.4,3.621,3.621,0,1,0,5.813,0,3.817,3.817,0,0,0-2-1.4c-.571-.166-.913-.165-.911-.209a2.024,2.024,0,0,1,.956.03,3.81,3.81,0,0,1,2.217,1.379,3.977,3.977,0,0,1,.624,3.793,4.028,4.028,0,0,1-7.6,0,3.977,3.977,0,0,1,.624-3.793,3.81,3.81,0,0,1,2.217-1.379,2.025,2.025,0,0,1,.956-.03" transform="translate(-15.463 -25.138)" fill="#fafafa"/>
        <path id="Trazado_635417" data-name="Trazado 635417" d="M270.5,224.111c0,.045-.34.043-.912.209a3.816,3.816,0,0,0-1.995,1.4,3.621,3.621,0,1,0,5.813,0,3.817,3.817,0,0,0-2-1.4c-.571-.167-.913-.165-.911-.209a2.011,2.011,0,0,1,.956.03,3.81,3.81,0,0,1,2.217,1.379,3.977,3.977,0,0,1,.624,3.793,4.028,4.028,0,0,1-7.6,0,3.977,3.977,0,0,1,.624-3.793,3.81,3.81,0,0,1,2.217-1.379,2.01,2.01,0,0,1,.956-.03" transform="translate(-23.976 -20.161)" fill="#fafafa"/>
        <path id="Trazado_635418" data-name="Trazado 635418" d="M169.372,249.142a1.847,1.847,0,1,1,0,2.612,1.846,1.846,0,0,1,0-2.612" transform="translate(-15.19 -22.368)" fill="#fafafa"/>
        <path id="Trazado_635419" data-name="Trazado 635419" d="M93.184,232.986a1.847,1.847,0,1,1,0,2.612,1.848,1.848,0,0,1,0-2.612" transform="translate(-8.336 -20.914)" fill="#fafafa"/>
        <path id="Trazado_635420" data-name="Trazado 635420" d="M302.106,219.36a1.847,1.847,0,1,1,0,2.612,1.848,1.848,0,0,1,0-2.612" transform="translate(-27.133 -19.688)" fill="#fafafa"/>
        <path id="Trazado_635421" data-name="Trazado 635421" d="M226.658,188.059a1.847,1.847,0,1,1,0,2.612,1.846,1.846,0,0,1,0-2.612" transform="translate(-20.345 -16.872)" fill="#fafafa"/>
        <path id="Trazado_635422" data-name="Trazado 635422" d="M180.176,303.258a1.847,1.847,0,1,1,0,2.612,1.846,1.846,0,0,1,0-2.612" transform="translate(-16.163 -27.237)" fill="#fafafa"/>
        <path id="Trazado_635423" data-name="Trazado 635423" d="M208.57,257.873a2.922,2.922,0,0,1-.328.562l-1.023,1.542c-.945,1.379-2.236,3.262-3.8,5.538l-.147.216-.157-.213-5.569-7.507h.372c-.949,1.274-1.938,2.6-2.953,3.96l-2.676,3.574-.2.263-.183-.271-5.082-7.556.307.017-4.769,5.426-1.344,1.484a3.172,3.172,0,0,1-.5.5,3.334,3.334,0,0,1,.416-.572l1.264-1.552,4.643-5.534.162-.194.145.211,5.146,7.511-.379-.009c.863-1.156,1.756-2.353,2.67-3.579l2.961-3.953.188-.252.184.253,5.5,7.56-.3,0,3.929-5.445,1.106-1.482a2.9,2.9,0,0,1,.419-.5" transform="translate(-16.242 -23.167)" fill="#fafafa"/>
        <path id="Trazado_635424" data-name="Trazado 635424" d="M228.942,291.99a2.824,2.824,0,0,1-.19.622c-.167.454-.38,1.029-.642,1.734-.6,1.559-1.429,3.688-2.425,6.261l-.095.244-.2-.171-7.143-6.03.363-.084c-.632,1.457-1.29,2.975-1.967,4.531l-1.785,4.093-.131.3-.24-.222-6.679-6.189.3-.054-3.4,6.375-.967,1.754a3.317,3.317,0,0,1-.376.6,3.176,3.176,0,0,1,.273-.652l.875-1.8c.81-1.609,1.918-3.808,3.25-6.451l.114-.226.189.172,6.731,6.131-.37.079,1.778-4.1c.679-1.554,1.34-3.071,1.976-4.527l.126-.288.238.2,7.085,6.1-.3.073,2.576-6.2c.3-.69.543-1.253.736-1.7a2.913,2.913,0,0,1,.293-.582" transform="translate(-18.298 -26.272)" fill="#fafafa"/>
        <path id="Trazado_635425" data-name="Trazado 635425" d="M248.14,203.392a2.912,2.912,0,0,1,.561.33l1.537,1.028,5.523,3.818.215.148-.213.157-7.529,5.54,0-.372,3.949,2.969,3.564,2.691.262.2-.272.181-7.575,5.052.018-.307,5.407,4.789,1.48,1.35a3.254,3.254,0,0,1,.5.505,3.3,3.3,0,0,1-.572-.418l-1.548-1.27-5.516-4.664-.193-.164.211-.143,7.531-5.118-.01.379-3.569-2.684-3.941-2.977-.251-.189.254-.183,7.581-5.469,0,.3-5.428-3.951-1.479-1.111a2.916,2.916,0,0,1-.5-.42" transform="translate(-22.287 -18.3)" fill="#fafafa"/>
        <path id="Trazado_635426" data-name="Trazado 635426" d="M273.055,248.422a2.892,2.892,0,0,1,.2-.619c.177-.45.4-1.021.677-1.721l2.553-6.21.1-.241.2.174,7.018,6.175-.365.076c.663-1.443,1.351-2.948,2.058-4.49l1.869-4.056.137-.3.235.228c2.406,2.321,4.626,4.465,6.551,6.324l-.3.046c1.444-2.582,2.646-4.732,3.526-6.3.409-.707.743-1.282,1-1.734a3.157,3.157,0,0,1,.388-.591,3.331,3.331,0,0,1-.287.646l-.911,1.784-3.381,6.383-.118.224-.186-.176-6.606-6.267.372-.071c-.6,1.31-1.223,2.669-1.861,4.06l-2.068,4.486-.132.286-.232-.209-6.96-6.24.3-.067-2.7,6.146-.771,1.682a2.9,2.9,0,0,1-.3.575" transform="translate(-24.568 -21.16)" fill="#fafafa"/>
        <path id="Trazado_635427" data-name="Trazado 635427" d="M114.567,219.307a2.889,2.889,0,0,1,.2-.619c.177-.45.4-1.021.677-1.721l2.553-6.21.1-.242.2.175,7.018,6.175-.365.076c.662-1.443,1.351-2.948,2.058-4.49l1.869-4.056.137-.3.235.227,6.551,6.324-.3.047,3.526-6.3c.409-.707.743-1.282,1-1.734a3.115,3.115,0,0,1,.388-.591,3.332,3.332,0,0,1-.287.646l-.911,1.784-3.381,6.383-.118.224-.186-.177-6.606-6.266.372-.071c-.6,1.31-1.223,2.669-1.861,4.059-.71,1.542-1.4,3.044-2.068,4.486l-.131.285-.233-.208-6.96-6.24.3-.067-2.7,6.146-.771,1.682a2.9,2.9,0,0,1-.3.575" transform="translate(-10.308 -18.541)" fill="#fafafa"/>
        <path id="Trazado_635428" data-name="Trazado 635428" d="M186.5,208.163a2.927,2.927,0,0,1,.538-.368l1.584-.953,5.806-3.373.226-.131.052.259c.521,2.643,1.137,5.77,1.807,9.171l-.336-.161,4.367-2.309,3.951-2.079.29-.153.048.323c.5,3.307.951,6.359,1.347,9.006l-.269-.147c2.718-1.168,4.981-2.141,6.636-2.854l1.852-.764a3.224,3.224,0,0,1,.667-.233,3.291,3.291,0,0,1-.621.339l-1.808.86-6.569,3.006-.23.1-.04-.252c-.419-2.643-.9-5.691-1.424-8.994l.339.17-3.948,2.088-4.372,2.3-.278.146-.057-.308c-.638-3.407-1.226-6.54-1.722-9.188l.277.128-5.886,3.23-1.634.865a2.919,2.919,0,0,1-.592.27" transform="translate(-16.781 -18.295)" fill="#fafafa"/>
        <path id="Trazado_635429" data-name="Trazado 635429" d="M208.429,177.573c.187-8.178.536-16.956.536-16.956s12.444-1.57,12.98-14.27c.409-9.669.581-24.869.639-31.576a4.526,4.526,0,0,0-3.2-4.367l-20.715-6.385L181.247,116.88l-.419,60.274c-.053,7.66,4.952,12.39,12.612,12.39,7.5,0,14.817-4.476,14.989-11.971" transform="translate(-16.27 -9.359)" fill="#ffad9d"/>
        <path id="Trazado_635430" data-name="Trazado 635430" d="M210.118,165.68a30.3,30.3,0,0,1-16.478-5.394s3.873,9.251,16.262,8.511Z" transform="translate(-17.423 -14.422)" fill="#e88b79"/>
        <path id="Trazado_635431" data-name="Trazado 635431" d="M209.885,149.539a1.493,1.493,0,0,0-1.516-2.108,2.351,2.351,0,0,0-2.38-2.078,2.659,2.659,0,0,0-2.406,2.162,3.067,3.067,0,0,0,1.357,3.009,3.63,3.63,0,0,0,3.35.245,2.647,2.647,0,0,0,1.689-1.995" transform="translate(-18.314 -13.078)" fill="#e88b79"/>
        <path id="Trazado_635432" data-name="Trazado 635432" d="M221.162,128.93a1.742,1.742,0,0,1-1.681,1.758,1.666,1.666,0,0,1-1.8-1.571,1.743,1.743,0,0,1,1.678-1.76,1.668,1.668,0,0,1,1.8,1.573" transform="translate(-19.586 -11.459)" fill="#263238"/>
        <path id="Trazado_635433" data-name="Trazado 635433" d="M223.154,127.3c-.217.228-1.537-.75-3.413-.745-1.874-.022-3.251.944-3.454.713-.1-.1.12-.511.719-.948a4.786,4.786,0,0,1,2.766-.852,4.587,4.587,0,0,1,2.715.876c.577.442.773.854.666.956" transform="translate(-19.458 -11.289)" fill="#263238"/>
        <path id="Trazado_635434" data-name="Trazado 635434" d="M210.968,141.607a12.4,12.4,0,0,1,3.047-.55c.479-.05.932-.145,1.013-.471a2.437,2.437,0,0,0-.319-1.42q-.676-1.739-1.417-3.647c-1.967-5.193-3.391-9.463-3.181-9.54s1.975,4.069,3.942,9.261q.71,1.921,1.357,3.669a2.777,2.777,0,0,1,.248,1.88,1.2,1.2,0,0,1-.788.7,3.216,3.216,0,0,1-.814.113,12.191,12.191,0,0,1-3.088,0" transform="translate(-18.903 -11.335)" fill="#263238"/>
        <path id="Trazado_635435" data-name="Trazado 635435" d="M204.959,144.578c.3-.017.309,2.018,2.051,3.464s3.91,1.221,3.926,1.505c.029.128-.483.4-1.4.42a5.068,5.068,0,0,1-3.277-1.141,4.411,4.411,0,0,1-1.59-2.9c-.078-.852.149-1.356.288-1.344" transform="translate(-18.414 -13.008)" fill="#263238"/>
        <path id="Trazado_635436" data-name="Trazado 635436" d="M203.893,126.291c-.2.5-1.773.131-3.667.25-1.9.074-3.456.6-3.669.124-.094-.228.207-.685.855-1.13a5.565,5.565,0,0,1,2.783-.9,5.27,5.27,0,0,1,2.807.612c.663.378.978.8.892,1.04" transform="translate(-17.684 -11.214)" fill="#263238"/>
        <path id="Trazado_635437" data-name="Trazado 635437" d="M223.523,122.242c-.4.426-1.967-.016-3.851-.036-1.884-.076-3.48.286-3.848-.16-.161-.217.09-.642.787-1.047a6.2,6.2,0,0,1,3.131-.7,6.084,6.084,0,0,1,3.072.856c.666.438.885.876.708,1.085" transform="translate(-19.414 -10.824)" fill="#263238"/>
        <path id="Trazado_635438" data-name="Trazado 635438" d="M203.381,130.286c-.067.039-.286-.334-.82-.71a3.729,3.729,0,0,0-2.389-.642,5.447,5.447,0,0,0-2.394.857c-.569.354-.9.627-.947.576s.2-.4.753-.85a4.751,4.751,0,0,1,2.551-1.056,3.579,3.579,0,0,1,2.635.852c.541.5.659.956.611.972" transform="translate(-17.709 -11.557)" fill="#263238"/>
        <path id="Trazado_635439" data-name="Trazado 635439" d="M196.891,135.118c-.068.112-.339.07-.6-.094s-.425-.386-.357-.5.339-.07.6.094.425.386.357.5" transform="translate(-17.627 -12.098)" fill="#e88b79"/>
        <path id="Trazado_635440" data-name="Trazado 635440" d="M200.534,135.335c-.13-.018-.2-.265-.163-.551s.178-.5.309-.484.2.265.161.551-.178.5-.308.484" transform="translate(-18.027 -12.083)" fill="#e88b79"/>
        <path id="Trazado_635441" data-name="Trazado 635441" d="M198.6,141.284c-.119-.055-.133-.28-.031-.5s.281-.363.4-.308.133.279.031.5-.281.363-.4.309" transform="translate(-17.86 -12.638)" fill="#e88b79"/>
        <path id="Trazado_635442" data-name="Trazado 635442" d="M221.438,134.818c-.073.109-.28.1-.464-.025s-.274-.31-.2-.419.28-.1.464.025.274.309.2.419" transform="translate(-19.862 -12.084)" fill="#e88b79"/>
        <path id="Trazado_635443" data-name="Trazado 635443" d="M223.759,134.446c-.114-.066-.092-.318.051-.563s.348-.391.46-.327.091.318-.051.563-.347.392-.46.327" transform="translate(-20.126 -12.015)" fill="#e88b79"/>
        <path id="Trazado_635444" data-name="Trazado 635444" d="M222.228,140.341c-.129-.022-.184-.337-.122-.7s.217-.647.346-.625.184.337.122.7-.217.647-.346.625" transform="translate(-19.982 -12.507)" fill="#e88b79"/>
        <path id="Trazado_635445" data-name="Trazado 635445" d="M221.5,160.772c.017-.035.389.147,1.1.349a8.124,8.124,0,0,0,3.071.268,8.433,8.433,0,0,0,4.18-1.708,8.136,8.136,0,0,0,2.96-4.593,9.437,9.437,0,0,0-.366-5.5,7.227,7.227,0,0,0-2.777-3.517,6.924,6.924,0,0,0-2.877-1.067c-.73-.092-1.144-.045-1.147-.088,0-.016.1-.04.3-.069a4.83,4.83,0,0,1,.867-.025,6.592,6.592,0,0,1,3.038.966,7.409,7.409,0,0,1,3.006,3.641,9.677,9.677,0,0,1,.42,5.768,8.441,8.441,0,0,1-3.157,4.83,8.538,8.538,0,0,1-4.413,1.694,7.6,7.6,0,0,1-3.159-.425,3.187,3.187,0,0,1-1.042-.525" transform="translate(-19.93 -13.03)" fill="#e8505b"/>
        <g id="Grupo_881484" data-name="Grupo 881484" transform="translate(153.641 232.247)" opacity="0.2">
          <g id="Grupo_881483" data-name="Grupo 881483">
            <g id="Grupo_881482" data-name="Grupo 881482" clip-path="url(#clip-path-5)">
              <path id="Trazado_635446" data-name="Trazado 635446" d="M199.357,255.224c.252.121-.344,2.149-2.54,4.694a18.833,18.833,0,0,1-4.511,3.757,19.175,19.175,0,0,1-14.028,2.357,18.8,18.8,0,0,1-5.491-2.077c-2.908-1.686-4.133-3.409-3.935-3.606.241-.28,1.824.931,4.672,2.1a20.587,20.587,0,0,0,22.1-3.715c2.311-2.037,3.41-3.7,3.729-3.513" transform="translate(-168.831 -255.209)"/>
            </g>
          </g>
        </g>
        <g id="Grupo_881487" data-name="Grupo 881487" transform="translate(138.566 210.051)" opacity="0.2">
          <g id="Grupo_881486" data-name="Grupo 881486">
            <g id="Grupo_881485" data-name="Grupo 881485" clip-path="url(#clip-path-6)">
              <path id="Trazado_635447" data-name="Trazado 635447" d="M152.266,230.819s15.874,37.062,15.03,41.917-11.965,20.633-11.965,20.633l8.1-18.586a445.744,445.744,0,0,1-11.164-43.963" transform="translate(-152.266 -230.819)"/>
            </g>
          </g>
        </g>
        <path id="Trazado_635448" data-name="Trazado 635448" d="M285.3,238.151a29.849,29.849,0,0,1-3.5-10.317c.134-.031.756,2.327,1.725,5.167s1.9,5.093,1.777,5.15" transform="translate(-25.353 -20.499)" fill="#263238"/>
        <path id="Trazado_635449" data-name="Trazado 635449" d="M287.265,235.516a28.188,28.188,0,0,1-5.485-8.481,49.657,49.657,0,0,1,2.757,4.231,49.715,49.715,0,0,1,2.727,4.25" transform="translate(-25.352 -20.427)" fill="#263238"/>
        <path id="Trazado_635450" data-name="Trazado 635450" d="M221.087,272.989a8.409,8.409,0,0,1-1.151.87l-3.23,2.235-10.678,7.332-10.643,7.388-3.233,2.228a8.449,8.449,0,0,1-1.222.768,8.344,8.344,0,0,1,1.114-.918c.735-.566,1.81-1.37,3.147-2.351,2.675-1.963,6.4-4.629,10.568-7.506s7.978-5.416,10.762-7.221c1.391-.9,2.524-1.623,3.313-2.109a8.427,8.427,0,0,1,1.253-.716" transform="translate(-17.179 -24.562)" fill="#263238"/>
        <path id="Trazado_635451" data-name="Trazado 635451" d="M101.145,222.252a31.057,31.057,0,0,1,4.131-9.766c.12.064-.915,2.2-2.048,4.89s-1.952,4.918-2.082,4.876" transform="translate(-9.099 -19.118)" fill="#263238"/>
        <path id="Trazado_635452" data-name="Trazado 635452" d="M104.44,226.287a8.3,8.3,0,0,1-.053-2.068c.04-1.275.16-3.036.391-4.97s.531-3.674.794-4.922a8.329,8.329,0,0,1,.54-2,9.749,9.749,0,0,1-.209,2.055c-.177,1.259-.422,3-.653,4.921s-.4,3.67-.527,4.935a9.827,9.827,0,0,1-.282,2.047" transform="translate(-9.391 -19.104)" fill="#263238"/>
        <path id="Trazado_635453" data-name="Trazado 635453" d="M195.448,95.46a17.4,17.4,0,0,1-2.975,20.729c-2.758,2.615-6.482,4.406-8.2,7.8-1.8,3.569-.847,7.878.457,11.659s2.948,7.668,2.4,11.63c-.683,4.919-4.624,8.886-5.463,13.781-1.605,9.364,8.473,17.63,7.3,27.059-.514,4.132-3.125,7.643-5.387,11.14s-4.322,7.561-3.544,11.652c.37,1.945,2.026,3.667,1.842,5.639-.743,7.966-12.011,9.039-13.639,7.643,2.061-3.922-.372-10.016-.614-10.32a8.461,8.461,0,0,1-7.311,6.684,20.55,20.55,0,0,0-.714-9.072,9.033,9.033,0,0,1-6.294,4.252,54.8,54.8,0,0,0-3.828-32.884c-1.627-3.593-3.7-7.311-3.171-11.22.687-5.058,5.433-8.493,7.676-13.079,2.525-5.159,1.676-11.243.985-16.945s-1.035-11.967,2.24-16.684c2-2.876,5.166-4.87,6.778-7.978,1.5-2.888,1.435-6.318,2.349-9.442,1.656-5.659,5.806-12.047,11.379-13.975s14.226-3.795,17.734,1.932" transform="translate(-13.156 -8.244)" fill="#263238"/>
        <path id="Trazado_635454" data-name="Trazado 635454" d="M156.3,212.57c-1.369,3.935-2.757,8.005-2.459,12.162s2.736,8.454,6.74,9.6c1.523.438,3.309.472,4.385,1.636a3.79,3.79,0,0,1,.586,3.7,11.171,11.171,0,0,1-2.036,3.336,14.531,14.531,0,0,0,6.094-5.4,9.963,9.963,0,0,1-2.522,9.042c3.071.119,5.748-2,7.917-4.173,4.951-4.967,9.117-11.524,8.5-18.509-.617-6.955-5.857-13-5.836-19.985.008-2.682.805-5.3.942-7.982s-.585-5.669-2.824-7.145" transform="translate(-13.838 -16.992)" fill="#263238"/>
        <path id="Trazado_635455" data-name="Trazado 635455" d="M198.18,95.969A12.478,12.478,0,0,1,209.2,91.7a16.954,16.954,0,0,1,10.57,5.8,26.731,26.731,0,0,1,5.529,10.9,9.685,9.685,0,0,1,.428,3.618,3.941,3.941,0,0,1-1.831,3.019,4.046,4.046,0,0,1-3.637-.087,11.967,11.967,0,0,1-2.98-2.3,5.663,5.663,0,0,1-10.959.416A8.153,8.153,0,0,1,190.8,111.53c-.632-3.168.67-6.43,2.5-9.094s4.177-4.932,6.047-7.565" transform="translate(-17.152 -8.244)" fill="#263238"/>
        <path id="Trazado_635456" data-name="Trazado 635456" d="M147.447,180.733a11.149,11.149,0,0,0,.682-.9,6.875,6.875,0,0,0,.957-3.048,22.512,22.512,0,0,0-.306-5.109,16.193,16.193,0,0,1-.112-3.238,8.686,8.686,0,0,1,1.074-3.484,19.794,19.794,0,0,1,5.828-5.884c1.192-.888,2.432-1.792,3.6-2.843a13.159,13.159,0,0,0,3-3.719,10.854,10.854,0,0,0,1.082-4.866,27.726,27.726,0,0,0-.6-5.266c-.341-1.778-.761-3.6-.944-5.486a14.991,14.991,0,0,1,.375-5.756,8.743,8.743,0,0,1,1.286-2.645,10.194,10.194,0,0,1,2.049-2.049,36.013,36.013,0,0,1,4.832-2.789,14.453,14.453,0,0,0,4.265-3.046,8.046,8.046,0,0,0,1.909-4.535c.207-1.635.148-3.266.193-4.856a16.118,16.118,0,0,1,.673-4.6A15.18,15.18,0,0,1,181.8,99.7a13.621,13.621,0,0,1,6.075-3.111,10.69,10.69,0,0,1,5.152.15,7.256,7.256,0,0,1,2.854,1.573,4.542,4.542,0,0,1,.585.617,1.289,1.289,0,0,1,.175.23c-.027.025-.255-.3-.823-.775a7.437,7.437,0,0,0-2.842-1.467,10.627,10.627,0,0,0-5.046-.068,13.426,13.426,0,0,0-5.909,3.1,14.893,14.893,0,0,0-4.358,6.787,15.746,15.746,0,0,0-.632,4.492,48.574,48.574,0,0,1-.177,4.9,8.487,8.487,0,0,1-2,4.778,14.813,14.813,0,0,1-4.388,3.157,36.021,36.021,0,0,0-4.766,2.756,9.75,9.75,0,0,0-1.949,1.95,8.3,8.3,0,0,0-1.216,2.5,14.55,14.55,0,0,0-.359,5.574c.177,1.854.589,3.652.93,5.446a27.914,27.914,0,0,1,.6,5.357,11.275,11.275,0,0,1-1.146,5.061,13.538,13.538,0,0,1-3.11,3.83c-1.192,1.066-2.447,1.968-3.643,2.848a19.591,19.591,0,0,0-5.77,5.732,8.391,8.391,0,0,0-1.066,3.348,16.078,16.078,0,0,0,.075,3.181,22.035,22.035,0,0,1,.227,5.157,6.752,6.752,0,0,1-1.061,3.08,3.653,3.653,0,0,1-.762.847" transform="translate(-13.266 -8.668)" fill="#455a64"/>
        <path id="Trazado_635457" data-name="Trazado 635457" d="M170.875,202.532a6.274,6.274,0,0,1-.349-1.077,7.493,7.493,0,0,1,.113-3.237,31.5,31.5,0,0,1,1.742-4.826c.718-1.826,1.62-4.025,1.265-6.489a9.655,9.655,0,0,0-1.415-3.577c-.711-1.158-1.592-2.275-2.488-3.453a20.442,20.442,0,0,1-2.464-3.9,15.945,15.945,0,0,1,.875-14.865c1.937-3.162,5.031-5.455,7.72-8.128a19.627,19.627,0,0,0,3.442-4.407,11.12,11.12,0,0,0,1.007-2.521,10.873,10.873,0,0,0,.3-2.649c-.1-3.575-1.522-6.857-2-10.181a11.986,11.986,0,0,1,.222-4.9,11.737,11.737,0,0,1,2.174-4.086,30.734,30.734,0,0,1,6.214-5.419,41.75,41.75,0,0,0,5.309-4.172,15.606,15.606,0,0,0,3.107-4,10.33,10.33,0,0,0,1.128-4.153,7.012,7.012,0,0,1-.031,1.13,9.2,9.2,0,0,1-.932,3.107,15.486,15.486,0,0,1-3.086,4.1,41.072,41.072,0,0,1-5.3,4.254,30.721,30.721,0,0,0-6.1,5.392,11.38,11.38,0,0,0-2.081,3.953,11.61,11.61,0,0,0-.191,4.727c.47,3.252,1.917,6.53,2.029,10.239a11.244,11.244,0,0,1-.313,2.771,11.552,11.552,0,0,1-1.047,2.63,20,20,0,0,1-3.521,4.517c-2.728,2.707-5.782,4.976-7.661,8.038a15.554,15.554,0,0,0-.89,14.447,20.185,20.185,0,0,0,2.4,3.836c.885,1.178,1.768,2.311,2.486,3.5a9.954,9.954,0,0,1,1.434,3.717,12.768,12.768,0,0,1-1.351,6.64,32.993,32.993,0,0,0-1.807,4.768,7.73,7.73,0,0,0-.2,3.177c.147.716.282,1.086.256,1.094" transform="translate(-14.923 -9.582)" fill="#455a64"/>
        <path id="Trazado_635458" data-name="Trazado 635458" d="M221.981,111.678c-.081.011-.256-1.5-.708-3.888a21.026,21.026,0,0,0-1.2-4.07,11.553,11.553,0,0,0-2.923-4.187,8.662,8.662,0,0,0-4.619-2.034,16.663,16.663,0,0,0-4.227.039c-2.41.313-3.889.666-3.9.582a4.366,4.366,0,0,1,1.016-.32c.663-.17,1.627-.4,2.843-.594a15.8,15.8,0,0,1,4.33-.139,8.918,8.918,0,0,1,4.873,2.109,11.638,11.638,0,0,1,3.015,4.376,19.529,19.529,0,0,1,1.122,4.179c.2,1.212.288,2.2.345,2.882a4.568,4.568,0,0,1,.034,1.065" transform="translate(-18.391 -8.725)" fill="#455a64"/>
        <path id="Trazado_635459" data-name="Trazado 635459" d="M209.9,114.506a24.189,24.189,0,0,1,.2-2.884,18.214,18.214,0,0,0-.553-6.823,9.556,9.556,0,0,0-1.76-3.282,7.815,7.815,0,0,0-2.373-1.9,9.336,9.336,0,0,0-2.72-.791,1.863,1.863,0,0,1,.784-.05,6.062,6.062,0,0,1,2.08.539,7.678,7.678,0,0,1,2.559,1.912A9.533,9.533,0,0,1,210,104.655a16.666,16.666,0,0,1,.436,7c-.111.891-.235,1.605-.332,2.1a2.469,2.469,0,0,1-.2.755" transform="translate(-18.237 -8.887)" fill="#455a64"/>
        <path id="Trazado_635460" data-name="Trazado 635460" d="M303.655,73.725V39.907H66.966V336.223H303.655V234.929l-16.554,10.9v38.451H84.372V73.363H287.1V90.879c4.916-3.226,12.112-11.029,16.554-17.154" transform="translate(-6.025 -3.591)" fill="#f5f5f5"/>
        <path id="Trazado_635461" data-name="Trazado 635461" d="M92.525,57.648a2.527,2.527,0,0,0,1.5-2.341,2.376,2.376,0,1,0-4.741-.013A2.524,2.524,0,0,0,90.8,57.652,3.794,3.794,0,0,0,87.6,60.416a5.374,5.374,0,0,0,3.293,1.766l1.461,0a5.375,5.375,0,0,0,3.336-1.794,3.733,3.733,0,0,0-3.161-2.745" transform="translate(-7.881 -4.748)" fill="#455a64"/>
        <path id="Trazado_635462" data-name="Trazado 635462" d="M91.49,62.089c0-.046.48-.027,1.3-.249a5.383,5.383,0,0,0,2.869-1.977,5.254,5.254,0,0,0,.705-4.946,5.144,5.144,0,0,0-1.823-2.4,5.177,5.177,0,0,0-6.134.012,5.153,5.153,0,0,0-1.813,2.411,5.253,5.253,0,0,0,.725,4.944,5.377,5.377,0,0,0,2.877,1.966c.816.218,1.3.2,1.3.244a1.066,1.066,0,0,1-.346.025,4.188,4.188,0,0,1-.99-.112,5.372,5.372,0,0,1-3.07-1.944,5.476,5.476,0,0,1-1.067-2.322,5.563,5.563,0,0,1,8.761-5.55,5.5,5.5,0,0,1,1.942,2.6,5.56,5.56,0,0,1,.228,2.928,5.468,5.468,0,0,1-1.058,2.327A5.368,5.368,0,0,1,92.826,62a4.192,4.192,0,0,1-.989.116,1.091,1.091,0,0,1-.347-.024" transform="translate(-7.73 -4.598)" fill="#455a64"/>
        <path id="Trazado_635463" data-name="Trazado 635463" d="M308.513,51.066a1.181,1.181,0,1,1-1.2-1.166,1.18,1.18,0,0,1,1.2,1.166" transform="translate(-27.546 -4.49)" fill="#455a64"/>
        <path id="Trazado_635464" data-name="Trazado 635464" d="M308.573,55.732a1.181,1.181,0,1,1-1.2-1.166,1.18,1.18,0,0,1,1.2,1.166" transform="translate(-27.551 -4.91)" fill="#455a64"/>
        <path id="Trazado_635465" data-name="Trazado 635465" d="M308.632,60.4a1.181,1.181,0,1,1-1.2-1.166,1.18,1.18,0,0,1,1.2,1.166" transform="translate(-27.556 -5.329)" fill="#455a64"/>
        <path id="Trazado_635466" data-name="Trazado 635466" d="M208.967,57.344c0,.131-23.329.237-52.1.237s-52.105-.106-52.105-.237,23.324-.237,52.105-.237,52.1.106,52.1.237" transform="translate(-9.426 -5.138)" fill="#263238"/>
        <path id="Trazado_635467" data-name="Trazado 635467" d="M125.314,335.744l-2.4-1.067a6.567,6.567,0,1,1,3.5-5.771,6.635,6.635,0,0,1-1.654,4.442ZM119.7,322.763a6.2,6.2,0,1,0,.111,12.405,6.393,6.393,0,0,0,2.986-.944l.1-.056,1.768.788-.4-1.737.081-.088a6.2,6.2,0,0,0-4.643-10.368" transform="translate(-10.175 -28.999)" fill="#263238"/>
        <path id="Trazado_635468" data-name="Trazado 635468" d="M142.677,334.79l-2.754-6.7-5.158-4.691,12.5-.111Zm-6.744-10.949,4.393,4.024,2.346,5.71,3.918-9.83Z" transform="translate(-12.125 -29.087)" fill="#263238"/>
        <rect id="Rectángulo_329987" data-name="Rectángulo 329987" width="8.131" height="0.456" transform="matrix(0.838, -0.546, 0.546, 0.838, 127.865, 298.676)" fill="#263238"/>
        <path id="Trazado_635469" data-name="Trazado 635469" d="M307.21,334.669l-5.218-5.126-4.865,4.956-.133-14.827,10.081-.09Zm-5.224-5.77.164.159,4.594,4.514-.121-13.529-9.169.082.118,13.269Z" transform="translate(-26.722 -28.754)" fill="#263238"/>
        <path id="Trazado_635470" data-name="Trazado 635470" d="M103.385,324.665a3.866,3.866,0,0,0-7.623.262,3.866,3.866,0,0,0-7.627-.126,5.217,5.217,0,0,0,.954,3.76,15.543,15.543,0,0,0,2.739,2.869c1.393,1.229,2.681,2.384,4.075,3.613,1.37-1.253,2.537-2.431,3.909-3.685a15.492,15.492,0,0,0,2.687-2.918,5.215,5.215,0,0,0,.886-3.777" transform="translate(-7.924 -28.932)" fill="#fd4c1b"/>
        <path id="Trazado_635471" data-name="Trazado 635471" d="M66.966,161.276c1,.717,1.438,1.157,2.423,1.9a3.383,3.383,0,0,0,3.45.634,3.306,3.306,0,0,0,1.378-3.431c-.173-1.3-.762-2.515-1.025-3.8a1.915,1.915,0,0,0,2.231-.649,3.138,3.138,0,0,0,.5-2.391,9.3,9.3,0,0,0-.819-2.366c.3.481,1.117.3,1.4-.191a2.265,2.265,0,0,0,.046-1.654,6.892,6.892,0,0,0-1.947-3.649,3.279,3.279,0,0,0-3.877-.445c-.921.639-2.586,1.577-2.857,2.665-.96,3.843-.632,9.5-.9,13.455" transform="translate(-6.025 -13.026)" fill="#e0e0e0"/>
        <path id="Trazado_635472" data-name="Trazado 635472" d="M305.218,152.12a2.114,2.114,0,0,1,1.177,2.687c-.754,2.043-1.973,5.25-2.886,7.192a5.376,5.376,0,0,1-1.119,1.731,1.734,1.734,0,0,1-3.048-1.226,5.519,5.519,0,0,1,.408-2.136c.643-1.91,1.753-4.769,2.7-7.094a2.114,2.114,0,0,1,2.766-1.155" transform="translate(-26.932 -13.672)" fill="#ffad9d"/>
        <path id="Trazado_635473" data-name="Trazado 635473" d="M308.494,156.261a2.114,2.114,0,0,1,1.177,2.687c-.754,2.043-1.973,5.249-2.886,7.192a5.377,5.377,0,0,1-1.119,1.731,1.734,1.734,0,0,1-3.048-1.226,5.519,5.519,0,0,1,.408-2.136c.643-1.911,1.753-4.769,2.7-7.094a2.113,2.113,0,0,1,2.766-1.155" transform="translate(-27.227 -14.045)" fill="#ffad9d"/>
        <path id="Trazado_635474" data-name="Trazado 635474" d="M311.657,158.89a1.831,1.831,0,0,1,1.019,2.327c-.653,1.769-1.708,4.546-2.5,6.227a4.662,4.662,0,0,1-.969,1.5,1.5,1.5,0,0,1-2.64-1.062,4.79,4.79,0,0,1,.354-1.849c.557-1.654,1.517-4.13,2.339-6.143a1.831,1.831,0,0,1,2.4-1" transform="translate(-27.583 -14.284)" fill="#ffad9d"/>
        <path id="Trazado_635475" data-name="Trazado 635475" d="M315.633,159.773a1.839,1.839,0,0,1,1.024,2.338c-.656,1.778-1.716,4.567-2.511,6.257a4.674,4.674,0,0,1-.974,1.506,1.509,1.509,0,0,1-2.652-1.067,4.818,4.818,0,0,1,.355-1.858c.56-1.663,1.525-4.149,2.351-6.172a1.84,1.84,0,0,1,2.407-1" transform="translate(-27.938 -14.363)" fill="#ffad9d"/>
        <path id="Trazado_635476" data-name="Trazado 635476" d="M302.91,164.247a17.613,17.613,0,0,1,1.411-3.82,17.559,17.559,0,0,1,1.845-3.631,17.693,17.693,0,0,1-1.411,3.82,17.674,17.674,0,0,1-1.845,3.631" transform="translate(-27.253 -14.108)" fill="#e88b79"/>
        <path id="Trazado_635477" data-name="Trazado 635477" d="M306.487,167.576a22.764,22.764,0,0,1,1.55-4.363,22.7,22.7,0,0,1,1.987-4.179,22.748,22.748,0,0,1-1.55,4.363,22.786,22.786,0,0,1-1.987,4.179" transform="translate(-27.575 -14.309)" fill="#e88b79"/>
        <path id="Trazado_635478" data-name="Trazado 635478" d="M310.229,168.133a26.276,26.276,0,0,1,1.493-3.79,26.432,26.432,0,0,1,1.641-3.729,21.221,21.221,0,0,1-3.134,7.52" transform="translate(-27.912 -14.451)" fill="#e88b79"/>
        <path id="Trazado_635479" data-name="Trazado 635479" d="M303.631,73.7s-.015-.724-.022-2.158-.012-3.58-.022-6.415c-.008-5.679-.023-14.133-.04-25.246l.084.084-236.689.125.209-.208c.008,70.24.017,151.932.027,238.686,0,19.526,0,38.8,0,57.63l-.236-.235,236.689.042-.193.193c.035-65.171.063-118.9.083-156.342.023-18.716.04-33.36.052-43.329.013-4.981.023-8.792.029-11.363s.029-3.889.029-3.889.02,1.321.029,3.889.016,6.383.028,11.363c.013,9.969.03,24.613.053,43.329.02,37.441.048,91.171.083,156.342v.194h-.193l-236.689.042h-.236V336.2c0-18.834,0-38.1,0-57.63.01-86.755.019-168.446.027-238.686v-.209h.209l236.689.125h.084v.084c-.018,11.113-.032,19.566-.041,25.246-.009,2.835-.016,4.977-.021,6.415s-.022,2.158-.022,2.158" transform="translate(-6.002 -3.57)" fill="#263238"/>
        <path id="Trazado_635480" data-name="Trazado 635480" d="M61.629,153.17a1.881,1.881,0,0,1,2.631-.674c1.538.971,3.207,2.006,4.655,2.938a4.909,4.909,0,0,1,1.668,1.449,1.494,1.494,0,0,1-.28,1.972,2.4,2.4,0,0,1-2.211-.053c-.225-.09-3.848-2.276-5.857-3.492a1.6,1.6,0,0,1-.605-2.14" transform="translate(-5.528 -13.695)" fill="#ffad9d"/>
        <path id="Trazado_635481" data-name="Trazado 635481" d="M61.154,147.652a2.059,2.059,0,0,1,3.019-.753c1.755,1.234,3.66,2.55,5.312,3.733a5.909,5.909,0,0,1,1.9,1.824,1.909,1.909,0,0,1-.335,2.41,2.6,2.6,0,0,1-2.534-.127c-.257-.116-4.392-2.9-6.686-4.445a2.053,2.053,0,0,1-.678-2.64" transform="translate(-5.482 -13.183)" fill="#ffad9d"/>
        <path id="Trazado_635482" data-name="Trazado 635482" d="M61.984,142.994a2.059,2.059,0,0,1,3.029-.713c1.738,1.257,3.626,2.6,5.262,3.8a5.923,5.923,0,0,1,1.876,1.849,1.909,1.909,0,0,1-.368,2.4,2.6,2.6,0,0,1-2.532-.161c-.255-.119-4.353-2.956-6.626-4.534a2.053,2.053,0,0,1-.642-2.649" transform="translate(-5.555 -12.767)" fill="#ffad9d"/>
        <path id="Trazado_635483" data-name="Trazado 635483" d="M62.438,137.62a2.278,2.278,0,0,1,3.392-.86c1.979,1.429,4.126,2.951,5.989,4.321a6.8,6.8,0,0,1,2.145,2.109,2.236,2.236,0,0,1-.367,2.777c-.807.6-1.938.271-2.849-.154-.288-.134-4.951-3.354-7.537-5.146A2.415,2.415,0,0,1,62.438,137.62Z" transform="translate(-5.595 -12.266)" fill="#ffad9d"/>
        <path id="Trazado_635484" data-name="Trazado 635484" d="M71.584,146.872a20.172,20.172,0,0,1-3.7-2.3,20.184,20.184,0,0,1-3.425-2.685,20.087,20.087,0,0,1,3.7,2.3,20.1,20.1,0,0,1,3.425,2.684" transform="translate(-5.8 -12.766)" fill="#e88b79"/>
        <path id="Trazado_635485" data-name="Trazado 635485" d="M70.343,151.094a17.658,17.658,0,0,1-3.524-2.045,17.658,17.658,0,0,1-3.263-2.441,17.678,17.678,0,0,1,3.525,2.045,17.668,17.668,0,0,1,3.262,2.441" transform="translate(-5.718 -13.19)" fill="#e88b79"/>
        <path id="Trazado_635486" data-name="Trazado 635486" d="M70.436,156.348a17.658,17.658,0,0,1-3.524-2.045,17.657,17.657,0,0,1-3.263-2.441,17.649,17.649,0,0,1,3.525,2.045,17.669,17.669,0,0,1,3.262,2.441" transform="translate(-5.727 -13.663)" fill="#e88b79"/>
        <path id="Trazado_635487" data-name="Trazado 635487" d="M288.8,94.164s-.013-.379-.019-1.128-.011-1.869-.019-3.34c-.008-2.954-.02-7.331-.036-13.048l.075.074L86.07,76.869l.22-.22c.005,38.371.011,80.493.016,124.542,0,29.844-.005,58.8-.007,86.378l-.229-.229,202.728.1-.129.129c.026-17.71.047-31.636.061-41.142.015-4.746.025-8.387.034-10.848.007-1.223.013-2.152.017-2.782s.017-.941.017-.941.012.317.017.941.01,1.559.017,2.782c.008,2.462.019,6.1.034,10.848.014,9.506.035,23.432.06,41.142v.128H288.8l-202.728.1h-.23v-.229c0-27.577,0-56.533-.007-86.378.005-44.049.011-86.17.016-124.542v-.221h.221l202.728.147h.075v.075c-.016,5.717-.028,10.094-.036,13.048q-.012,2.206-.019,3.34c-.006.748-.019,1.128-.019,1.128" transform="translate(-7.723 -6.877)" fill="#263238"/>
        <path id="Trazado_635488" data-name="Trazado 635488" d="M308.842,154.268c-.131,0-.237-4.548-.237-10.157s.106-10.158.237-10.158.237,4.546.237,10.158-.106,10.157-.237,10.157" transform="translate(-27.767 -12.052)" fill="#263238"/>
        <path id="Trazado_635489" data-name="Trazado 635489" d="M377.207,420.425c0,.131-84.336.237-188.344.237C84.817,420.661.5,420.556.5,420.425s84.318-.237,188.363-.237c104.009,0,188.344.106,188.344.237" transform="translate(-0.045 -37.806)" fill="#263238"/>
      </g>
    </g>
    <g id="Grupo_881491" data-name="Grupo 881491">
      <g id="Grupo_881490" data-name="Grupo 881490" clip-path="url(#clip-path)">
        <path id="Trazado_635490" data-name="Trazado 635490" d="M279.062,10.087a5.219,5.219,0,0,0,3.151-4.8,4.9,4.9,0,1,0-9.788-.128,5.212,5.212,0,0,0,3.077,4.9c-7.541,1.07-7.269,9.26-7.269,9.26l17.811.234s.476-8.272-6.981-9.463" transform="translate(-24.134 0)" fill="#0082ff"/>
        <path id="Trazado_635491" data-name="Trazado 635491" d="M397.047,244.634h1.692l3.692-5.144v-3.377s2.614-.16,2.307,4.261.025,3.3.025,3.3,5.552.021,6.013.5c.336.35.487,5.865.545,8.856a3.238,3.238,0,0,1-2.294,3.262,2.422,2.422,0,0,1-.6.08c-1.385,0-8.46-1.126-8.46-1.126h-2.922Z" transform="translate(-35.724 -21.244)" fill="#0082ff"/>
        <path id="Trazado_635492" data-name="Trazado 635492" d="M391.726,244.458l1.04,11.57h2.9V244.691Z" transform="translate(-35.245 -21.995)" fill="#455a64"/>
        <path id="Trazado_635493" data-name="Trazado 635493" d="M50.845,25.665a5.871,5.871,0,0,0-11.579.345,6.073,6.073,0,0,0-5.65-5.032,6.071,6.071,0,0,0-5.932,4.789,7.924,7.924,0,0,0,1.422,5.719,23.525,23.525,0,0,0,4.14,4.375c2.109,1.876,4.056,3.639,6.164,5.516,2.091-1.895,3.87-3.675,5.962-5.569a23.54,23.54,0,0,0,4.1-4.412,7.922,7.922,0,0,0,1.372-5.73" transform="translate(-2.482 -1.883)" fill="#0082ff"/>
      </g>
    </g>
    <g id="Grupo_881496" data-name="Grupo 881496">
      <g id="Grupo_881495" data-name="Grupo 881495" clip-path="url(#clip-path)">
        <path id="Trazado_635494" data-name="Trazado 635494" d="M369.644,369.089c-2.022,2.888-5.953,1.932-7.774.169s-2.593-4.318-3.294-6.754c-1.6-5.568-3.216-11.407-2.026-17.076a9.494,9.494,0,0,1,2.181-4.643,4.957,4.957,0,0,1,4.7-1.563c1.981.523,3.213,2.464,4.1,4.311A40.7,40.7,0,0,1,371.553,361c.01,2.814-.322,5.764-1.909,8.087" transform="translate(-32.043 -30.51)" fill="#5f914e"/>
        <g id="Grupo_881494" data-name="Grupo 881494" transform="translate(328.095 308.585)" opacity="0.2">
          <g id="Grupo_881493" data-name="Grupo 881493" transform="translate(-4)">
            <g id="Grupo_881492" data-name="Grupo 881492" clip-path="url(#clip-path-9)">
              <path id="Trazado_635495" data-name="Trazado 635495" d="M369.644,369.089c-2.022,2.888-5.953,1.932-7.774.169s-2.593-4.318-3.294-6.754c-1.6-5.568-3.216-11.407-2.026-17.076a9.494,9.494,0,0,1,2.181-4.643,4.957,4.957,0,0,1,4.7-1.563c1.981.523,3.213,2.464,4.1,4.311A40.7,40.7,0,0,1,371.553,361c.01,2.814-.322,5.764-1.909,8.087" transform="translate(-356.138 -339.095)"/>
            </g>
          </g>
        </g>
        <path id="Trazado_635496" data-name="Trazado 635496" d="M360.938,387.966a17.523,17.523,0,0,0-10.872-1.321,9.034,9.034,0,0,0-5.371,2.4c-1.341,1.482-1.6,4.089-.056,5.362a5.149,5.149,0,0,0,3.386.859c2.875-.034,6.064-.54,8.359,1.189,1.31.986,2.182,2.627,3.748,3.112a3.7,3.7,0,0,0,4.073-1.813,6.329,6.329,0,0,0,.461-4.67,7.13,7.13,0,0,0-3.73-5.116" transform="translate(-30.914 -34.761)" fill="#5f914e"/>
        <path id="Trazado_635497" data-name="Trazado 635497" d="M376.87,374.153a10.51,10.51,0,0,1-1.635-9.671,18.647,18.647,0,0,1,5.728-8.309,30.834,30.834,0,0,1,10.257-6.052,10.939,10.939,0,0,1,4.613-.784,4.841,4.841,0,0,1,3.871,2.342c1.079,2.058.044,4.556-1.076,6.592a78.1,78.1,0,0,1-6.736,10.259c-2.019,2.6-4.333,5.172-7.409,6.347s-6.275,1.038-7.905-1.1" transform="translate(-33.717 -31.429)" fill="#5f914e"/>
        <path id="Trazado_635498" data-name="Trazado 635498" d="M369.638,417.3a6.344,6.344,0,0,1-.183-1.312c-.093-.956-.209-2.155-.349-3.581a51.6,51.6,0,0,0-.805-5.254,40.677,40.677,0,0,0-1.909-6.2,22.862,22.862,0,0,0-3.167-5.609,11.814,11.814,0,0,0-4-3.328,11.227,11.227,0,0,0-3.371-1.05,6.3,6.3,0,0,1-1.307-.188,6.15,6.15,0,0,1,1.33-.021,10.218,10.218,0,0,1,3.515.915,11.788,11.788,0,0,1,4.222,3.356,22.307,22.307,0,0,1,3.282,5.723,37.879,37.879,0,0,1,1.9,6.3,44.4,44.4,0,0,1,.7,5.32c.114,1.521.157,2.753.177,3.6a6.12,6.12,0,0,1-.027,1.325" transform="translate(-31.9 -35.157)" fill="#263238"/>
        <path id="Trazado_635499" data-name="Trazado 635499" d="M370.195,411.048a2.594,2.594,0,0,1-.035-.609c0-.458,0-1.034,0-1.742,0-1.511,0-3.7-.077-6.4-.134-5.4-.6-12.857-1.5-21.052s-2.1-15.571-3.2-20.861c-.258-1.326-.519-2.519-.763-3.564s-.433-1.951-.625-2.681c-.166-.688-.3-1.249-.407-1.693a2.58,2.58,0,0,1-.107-.6,2.6,2.6,0,0,1,.211.571l.506,1.668c.224.724.454,1.622.716,2.665s.561,2.231.844,3.555a197.742,197.742,0,0,1,3.361,20.882c.9,8.212,1.3,15.689,1.341,21.1.032,2.707-.025,4.9-.095,6.411-.044.707-.078,1.283-.107,1.74a2.537,2.537,0,0,1-.074.605" transform="translate(-32.704 -31.657)" fill="#263238"/>
        <path id="Trazado_635500" data-name="Trazado 635500" d="M370.817,397.062a11.652,11.652,0,0,1,.013-1.819c.067-1.168.228-2.858.557-4.928a65.292,65.292,0,0,1,1.6-7.181,63.571,63.571,0,0,1,3-8.5,45.281,45.281,0,0,1,8.817-13.73,22.363,22.363,0,0,1,2.075-1.927c.319-.269.6-.538.886-.751l.8-.554a11.753,11.753,0,0,1,1.532-.981,54.254,54.254,0,0,0-5.02,4.478,47.7,47.7,0,0,0-8.6,13.681,67.839,67.839,0,0,0-3.019,8.418,73.088,73.088,0,0,0-1.705,7.109c-.376,2.048-.593,3.721-.724,4.88a11.748,11.748,0,0,1-.223,1.8" transform="translate(-33.362 -32.093)" fill="#263238"/>
        <path id="Trazado_635501" data-name="Trazado 635501" d="M32.284,356.846a11.18,11.18,0,0,1,7.378,4.716,19.75,19.75,0,0,1,3.189,8.337c.959,5.728-.59,12.231-2.714,17.636-5.84-2.739-8.951-9.544-10.312-13.1-2.152-5.613-2.634-17.064,2.459-17.594" transform="translate(-2.545 -32.107)" fill="#5f914e"/>
        <path id="Trazado_635502" data-name="Trazado 635502" d="M50.629,397.857a9.537,9.537,0,0,1-.225-9.577,12.668,12.668,0,0,1,7.771-5.955,5.332,5.332,0,0,1,4.485.319,4.081,4.081,0,0,1,1.482,3.861,8.269,8.269,0,0,1-1.837,3.884c-3.045,3.93-6.712,7.173-11.675,7.469" transform="translate(-4.429 -34.369)" fill="#5f914e"/>
        <path id="Trazado_635503" data-name="Trazado 635503" d="M49.094,416.6a4.413,4.413,0,0,1-.2-1.2c-.082-.779-.179-1.907-.258-3.307a40.983,40.983,0,0,1,.668-10.946,20.522,20.522,0,0,1,4.974-9.748,13.458,13.458,0,0,1,2.584-2.122,3.741,3.741,0,0,1,1.095-.549,28.336,28.336,0,0,0-3.341,2.983,21.521,21.521,0,0,0-4.678,9.578,47.378,47.378,0,0,0-.843,10.788,36.992,36.992,0,0,1-.007,4.527" transform="translate(-4.368 -34.975)" fill="#263238"/>
        <path id="Trazado_635504" data-name="Trazado 635504" d="M34.171,366.393a11.847,11.847,0,0,1,.736,1.873c.436,1.219,1.036,2.993,1.754,5.193,1.437,4.4,3.322,10.508,5.237,17.3s3.494,12.994,4.565,17.5c.536,2.251.95,4.077,1.215,5.344a11.88,11.88,0,0,1,.349,1.982,11.9,11.9,0,0,1-.6-1.922c-.363-1.36-.839-3.141-1.414-5.291-1.184-4.47-2.834-10.641-4.746-17.432s-3.727-12.913-5.05-17.344l-1.555-5.251a11.891,11.891,0,0,1-.5-1.951" transform="translate(-3.074 -32.966)" fill="#263238"/>
        <path id="Trazado_635505" data-name="Trazado 635505" d="M40.114,404.137a22.319,22.319,0,0,0-15.949-12.706c-1.768-.339-3.949-.29-4.931,1.219s-.142,3.534.918,4.992a19.067,19.067,0,0,0,19.972,6.983" transform="translate(-1.691 -35.203)" fill="#5f914e"/>
        <path id="Trazado_635506" data-name="Trazado 635506" d="M26.829,397.037a3.987,3.987,0,0,1,1.163.118,9.547,9.547,0,0,1,1.341.285,15.772,15.772,0,0,1,1.742.523,23.436,23.436,0,0,1,4.294,2,27.148,27.148,0,0,1,4.611,3.529,27.206,27.206,0,0,1,3.677,4.5,23.478,23.478,0,0,1,2.14,4.228,15.712,15.712,0,0,1,.578,1.724,9.3,9.3,0,0,1,.329,1.33,4.054,4.054,0,0,1,.157,1.158c-.125.029-.443-1.6-1.489-4.04a26.235,26.235,0,0,0-2.216-4.073,29.08,29.08,0,0,0-3.628-4.356,29.058,29.058,0,0,0-4.471-3.485,26.171,26.171,0,0,0-4.142-2.082c-2.467-.966-4.111-1.233-4.086-1.358" transform="translate(-2.414 -35.722)" fill="#263238"/>
      </g>
    </g>
    <g id="Grupo_881498" data-name="Grupo 881498">
      <g id="Grupo_881497" data-name="Grupo 881497" clip-path="url(#clip-path)">
        <path id="Trazado_635507" data-name="Trazado 635507" d="M367.357,188.237a1.145,1.145,0,0,1,.085.307,4.984,4.984,0,0,1,.07.924,7.015,7.015,0,0,1-1.006,3.333,17.717,17.717,0,0,1-3.573,4.031l-5.031,4.749-.137.13-.146-.129-4.916-4.374c-1.7-1.528-3.7-3.162-4.647-5.612a5.581,5.581,0,0,1,.122-4.683,5.433,5.433,0,0,1,3.562-2.713,4.927,4.927,0,0,1,4.089.966,5.253,5.253,0,0,1,2.007,3.335l-.391,0a5.3,5.3,0,0,1,3.674-4.184,4.83,4.83,0,0,1,4.247.772,5.037,5.037,0,0,1,1.747,2.19,3.132,3.132,0,0,1,.245.96c-.032.008-.087-.335-.354-.912a5.121,5.121,0,0,0-1.769-2.051,4.607,4.607,0,0,0-4.021-.652,4.976,4.976,0,0,0-3.377,3.932l-.191,1.319-.2-1.317a4.855,4.855,0,0,0-1.876-3.052,4.5,4.5,0,0,0-3.729-.864,4.988,4.988,0,0,0-3.248,2.491,5.125,5.125,0,0,0-.093,4.294c.883,2.294,2.807,3.9,4.512,5.437l4.891,4.4h-.283l5.079-4.694a18.032,18.032,0,0,0,3.592-3.9,7.179,7.179,0,0,0,1.088-3.211c.05-.794-.055-1.219-.021-1.224" transform="translate(-31.275 -16.563)" fill="#263238"/>
        <path id="Trazado_635508" data-name="Trazado 635508" d="M340.509,172.138s.012.228.018.655c0,.442.011,1.069.019,1.886.01,1.664.025,4.089.044,7.2.022,6.236.054,15.221.094,26.293l-.175-.175,23.136-.035h.209v.21c0,3.472.007,7.182.011,11l-.376-.156,10.989-11,.068-.067h.1L400,207.935h7.781l-.237.237c.007-12.738.013-24.87.019-36.034l.217.217-48.41-.106L345.5,172.19l-3.7-.026-.959-.013c-.217,0-.333-.013-.333-.013s.1-.009.308-.013l.935-.013,3.656-.026,13.823-.059,48.553-.106H408v.218c.006,11.164.012,23.3.019,36.034v.236H400l-25.361-.006.163-.067-11,10.989-.377.376v-.531c0-3.814.008-7.524.011-11l.209.209-23.136-.035h-.175v-.174c.04-11.117.072-20.139.094-26.4.019-3.1.034-5.506.044-7.162q.012-1.2.019-1.853c.006-.416.018-.62.018-.62" transform="translate(-30.621 -15.468)" fill="#263238"/>
        <path id="Trazado_635509" data-name="Trazado 635509" d="M380.66,192.276H377.82v2.765h-.672v-2.765h-2.839v-.642h2.839v-2.779h.672v2.779h2.839Z" transform="translate(-33.678 -16.992)" fill="#263238"/>
        <path id="Trazado_635510" data-name="Trazado 635510" d="M385.67,186.507v10.459h-.763v-9.772h-2.555v-.687Z" transform="translate(-34.402 -16.781)" fill="#263238"/>
        <path id="Trazado_635511" data-name="Trazado 635511" d="M388.905,191.729c0-3.272,1.688-5.3,4.093-5.3s4.094,2.032,4.094,5.3-1.689,5.3-4.094,5.3-4.093-2.032-4.093-5.3m7.426,0c0-2.914-1.36-4.6-3.333-4.6s-3.332,1.688-3.332,4.6,1.36,4.6,3.332,4.6,3.333-1.688,3.333-4.6" transform="translate(-34.992 -16.773)" fill="#263238"/>
        <path id="Trazado_635512" data-name="Trazado 635512" d="M399.706,191.729c0-3.272,1.687-5.3,4.093-5.3s4.094,2.032,4.094,5.3-1.688,5.3-4.094,5.3-4.093-2.032-4.093-5.3m7.426,0c0-2.914-1.36-4.6-3.332-4.6s-3.332,1.688-3.332,4.6,1.36,4.6,3.332,4.6,3.332-1.688,3.332-4.6" transform="translate(-35.963 -16.773)" fill="#263238"/>
        <path id="Trazado_635513" data-name="Trazado 635513" d="M0,79.188H73.576V118.6H37.33L25.3,130.624V118.6H0Z" transform="translate(0 -7.125)" fill="#0082ff"/>
        <path id="Trazado_635514" data-name="Trazado 635514" d="M13.7,98.781a6.824,6.824,0,0,1,.078.758c.038.529.09,1.224.154,2.09.119,1.838.286,4.395.488,7.508l-.187-.169,2.854-.166H17.1l.017,0c2.431.223,5.144.529,8.015.639a1.726,1.726,0,0,0,.5-.05,2.031,2.031,0,0,0,.483-.125,2.489,2.489,0,0,0,.845-.562,3.1,3.1,0,0,0,.865-1.884A6.413,6.413,0,0,0,27.8,105.7q-.045-.582-.089-1.168-.1-1.175-.2-2.372c-.085-.918-.173-1.826-.285-2.717-.056-.444-.117-.889-.207-1.307a2.747,2.747,0,0,0-.077-.291c-.018-.033-.008-.028-.017-.048-.027,0-.034-.014-.067-.027a3.676,3.676,0,0,0-.6-.1,45.712,45.712,0,0,0-5.055,0l.206-.17a.806.806,0,0,1-.035.106l-.036.07a.376.376,0,0,1-.066.071.225.225,0,0,1-.168.048.267.267,0,0,1-.116-.04.178.178,0,0,1-.032-.028.377.377,0,0,1-.046-.06.235.235,0,0,1-.035-.079.733.733,0,0,1-.027-.1c-.022-.119-.029-.221-.039-.328l-.028-.613q0-.6-.006-1.19a19.346,19.346,0,0,0-.034-2.254A4.124,4.124,0,0,0,20.1,91.17a1.883,1.883,0,0,0-1.553-.806l.161-.191c.054,1.2.1,2.29.148,3.3l0,.052-.027.041-3.414,5.169-.022.034h-.036l-1.227.022a3.266,3.266,0,0,1-.43-.009,1.876,1.876,0,0,1,.383-.051l1.265-.109-.058.034L18.562,93.4l-.025.094c-.06-1.009-.126-2.1-.2-3.3l-.011-.18L18.5,90a2.245,2.245,0,0,1,1.907.938,4.489,4.489,0,0,1,.732,2.109,19.223,19.223,0,0,1,.056,2.3q.007.582.015,1.177l.03.59c.01.095.018.194.035.275a.242.242,0,0,0,.011.045c.008,0,.008.015-.068.028-.05,0-.107.106-.1.076,0,.031-.031-.063-.075-.057a.6.6,0,0,0-.086-.054l.013-.039.052-.165.154-.005a44.624,44.624,0,0,1,5.123-.015,3.888,3.888,0,0,1,.7.121,1.238,1.238,0,0,1,.229.12.725.725,0,0,1,.147.236,3.052,3.052,0,0,1,.1.352c.1.453.158.9.217,1.35.115.9.2,1.813.288,2.735q.1,1.2.2,2.378.045.588.088,1.171a6.747,6.747,0,0,1,.03,1.2,3.561,3.561,0,0,1-1.006,2.166,2.963,2.963,0,0,1-1,.659,2.509,2.509,0,0,1-.581.149,2.162,2.162,0,0,1-.58.054c-2.93-.126-5.611-.452-8.054-.7h.031l-2.855.132-.18.008-.007-.177c-.126-3.162-.229-5.759-.3-7.626-.025-.852-.046-1.535-.062-2.056a4.541,4.541,0,0,1,0-.693" transform="translate(-1.232 -8.097)" fill="#fff"/>
        <path id="Trazado_635515" data-name="Trazado 635515" d="M8.45,98.913a5.933,5.933,0,0,1,.974-.064c.656-.024,1.641-.057,2.886-.07h.147l.011.153c.185,2.623.414,6.445.636,10.694l.02.376.012.238-.237.012-2.83.142-.211.011-.029-.209c-.458-3.275-.813-6.136-1.052-8.142-.106-.925-.2-1.7-.268-2.337a4.157,4.157,0,0,1-.058-.8,7.1,7.1,0,0,1,.186.9q.164.968.4,2.376c.334,2.008.782,4.769,1.246,7.938l-.241-.2,2.829-.154-.224.248-.02-.375c-.222-4.25-.392-8.076-.482-10.7l.158.152c-1.165-.029-2.109-.076-2.779-.109a9.8,9.8,0,0,1-1.077-.077" transform="translate(-0.76 -8.888)" fill="#fff"/>
        <path id="Trazado_635516" data-name="Trazado 635516" d="M43.893,101.187H40.788v3.023h-.735v-3.023H36.947v-.7h3.106v-3.04h.735v3.04h3.105Z" transform="translate(-3.324 -8.768)" fill="#fff"/>
        <path id="Trazado_635517" data-name="Trazado 635517" d="M49.372,94.876v11.441H48.54V95.628h-2.8v-.752Z" transform="translate(-4.116 -8.536)" fill="#fff"/>
        <path id="Trazado_635518" data-name="Trazado 635518" d="M52.908,100.588c0-3.58,1.847-5.8,4.478-5.8s4.478,2.222,4.478,5.8-1.846,5.8-4.478,5.8-4.478-2.222-4.478-5.8m8.123,0c0-3.187-1.487-5.034-3.645-5.034s-3.645,1.847-3.645,5.034,1.487,5.033,3.645,5.033,3.645-1.846,3.645-5.033" transform="translate(-4.76 -8.528)" fill="#fff"/>
        <path id="Trazado_635519" data-name="Trazado 635519" d="M64.722,100.588c0-3.58,1.847-5.8,4.478-5.8s4.478,2.222,4.478,5.8-1.846,5.8-4.478,5.8-4.478-2.222-4.478-5.8m8.123,0c0-3.187-1.487-5.034-3.645-5.034s-3.645,1.847-3.645,5.034,1.488,5.033,3.645,5.033,3.645-1.846,3.645-5.033" transform="translate(-5.823 -8.528)" fill="#fff"/>
      </g>
    </g>
  </g>
</svg>
