<svg id="Grupo_881571" data-name="Grupo 881571" xmlns="http://www.w3.org/2000/svg" xmlns:xlink="http://www.w3.org/1999/xlink" width="559.631" height="337.293" viewBox="0 0 559.631 337.293">
  <defs>
    <clipPath id="clip-path">
      <rect id="Rectángulo_330042" data-name="Rectángulo 330042" width="559.631" height="337.293" fill="none"/>
    </clipPath>
    <clipPath id="clip-path-5">
      <rect id="Rectángulo_330031" data-name="Rectángulo 330031" width="180.93" height="179.28" fill="none"/>
    </clipPath>
    <clipPath id="clip-path-12">
      <rect id="Rectángulo_330039" data-name="Rectángulo 330039" width="117.701" height="117.702" fill="none"/>
    </clipPath>
    <clipPath id="clip-path-13">
      <rect id="Rectángulo_330040" data-name="Rectángulo 330040" width="48.313" height="42.183" fill="none"/>
    </clipPath>
  </defs>
  <g id="Grupo_881570" data-name="Grupo 881570" clip-path="url(#clip-path)">
    <g id="Grupo_881544" data-name="Grupo 881544">
      <g id="Grupo_881543" data-name="Grupo 881543" clip-path="url(#clip-path)">
        <path id="Trazado_635782" data-name="Trazado 635782" d="M259.438,76.89h0A32.094,32.094,0,0,1,215.85,64.238h0A32.094,32.094,0,1,1,259.438,76.89" transform="translate(-39.098 -3.076)" fill="#fff"/>
        <path id="Trazado_635783" data-name="Trazado 635783" d="M259.395,76.844s.143-.105.432-.293l1.288-.82.95-.6c.339-.236.687-.528,1.076-.824l1.249-.97a17.615,17.615,0,0,0,1.331-1.211,30.614,30.614,0,0,0,5.745-7.217,31.893,31.893,0,0,0,4.023-11.49q.116-.843.236-1.706c.045-.578.054-1.167.082-1.76.008-.593.086-1.193.038-1.8s-.068-1.218-.1-1.836q-.027-.462-.056-.931-.071-.462-.144-.931-.144-.936-.292-1.889c-.117-.632-.311-1.254-.466-1.89a16.288,16.288,0,0,0-.548-1.9,29.719,29.719,0,0,0-1.536-3.761c-.311-.614-.586-1.254-.932-1.861l-1.114-1.8c-.192-.3-.362-.613-.574-.9l-.656-.853c-.445-.565-.866-1.158-1.34-1.712a33.754,33.754,0,0,0-3.144-3.125A33.25,33.25,0,0,0,261.334,22c-.645-.414-1.328-.775-2-1.169-.341-.185-.665-.4-1.021-.563l-1.069-.484a29.185,29.185,0,0,0-9.181-2.644l-1.213-.17-1.229-.057-1.234-.053a7.952,7.952,0,0,0-1.239,0L240.66,17l-2.486.38a31.594,31.594,0,0,0-17.631,9.7l-1.653,1.9-1.449,2.033-.358.507-.309.537-.616,1.071-.61,1.068L215.04,35.3a36.018,36.018,0,0,0-1.734,4.52,35.825,35.825,0,0,0-.951,4.652l-.164,1.162c-.057.386-.046.777-.071,1.164-.025.776-.087,1.546-.082,2.313a33.123,33.123,0,0,0,.4,4.527,33.669,33.669,0,0,0,.956,4.328c.214.7.49,1.37.729,2.049l.369,1.011c.13.333.3.645.453.967l.921,1.9c.328.617.721,1.192,1.073,1.784A29.614,29.614,0,0,0,219.3,69a16.071,16.071,0,0,0,1.315,1.482c.455.471.877.968,1.347,1.406l1.439,1.258.709.621.757.546,1.5,1.07c.486.364,1.034.62,1.54.93.516.293,1.018.6,1.531.872L231,77.9a31.884,31.884,0,0,0,11.858,2.753,30.6,30.6,0,0,0,9.171-.988,17.276,17.276,0,0,0,1.734-.475l1.488-.535c.459-.17.891-.308,1.272-.468l1.014-.482,1.382-.648c.312-.144.478-.208.478-.208s-.152.09-.457.246l-1.366.687-1.01.5c-.379.166-.811.311-1.269.488l-1.488.556a17.107,17.107,0,0,1-1.738.5,30.427,30.427,0,0,1-9.22,1.066,31.98,31.98,0,0,1-11.972-2.716l-1.584-.715c-.519-.272-1.027-.58-1.549-.873-.512-.312-1.066-.569-1.559-.935l-1.514-1.075-.767-.55-.718-.625-1.459-1.268c-.478-.44-.905-.941-1.367-1.416a16.442,16.442,0,0,1-1.333-1.495,30.047,30.047,0,0,1-2.389-3.342c-.358-.6-.756-1.178-1.089-1.8l-.938-1.923c-.151-.325-.328-.641-.46-.978l-.377-1.022c-.243-.687-.523-1.368-.741-2.072a34.154,34.154,0,0,1-.977-4.38,33.667,33.667,0,0,1-.415-4.583c-.006-.776.055-1.557.08-2.341.026-.391.014-.788.071-1.179l.164-1.176a36.068,36.068,0,0,1,.958-4.713,36.378,36.378,0,0,1,1.751-4.58l.512-1.13.617-1.083.624-1.085.313-.545.362-.515,1.467-2.061,1.674-1.922A31.982,31.982,0,0,1,238.1,16.966l2.52-.384,2.525-.135a8.173,8.173,0,0,1,1.256,0l1.25.055,1.245.059,1.229.173a29.54,29.54,0,0,1,9.3,2.688l1.081.492c.36.161.688.384,1.033.572.676.4,1.368.767,2.02,1.186a33.537,33.537,0,0,1,3.647,2.8,34.072,34.072,0,0,1,3.176,3.17c.478.562.9,1.162,1.353,1.735l.661.865c.214.292.386.61.58.913q.564.917,1.121,1.821c.349.614.626,1.262.939,1.885a29.94,29.94,0,0,1,1.543,3.807,16.455,16.455,0,0,1,.549,1.925c.154.644.347,1.274.464,1.912q.147.965.289,1.911.072.472.143.941.027.473.054.941.049.937.1,1.855c.045.612-.034,1.217-.045,1.816-.032.6-.043,1.193-.091,1.776q-.124.871-.245,1.721a31.984,31.984,0,0,1-4.116,11.566,30.426,30.426,0,0,1-5.837,7.218,17.21,17.21,0,0,1-1.35,1.2l-1.266.959c-.395.293-.748.58-1.092.811l-.965.584-1.312.786c-.3.175-.453.254-.453.254" transform="translate(-39.055 -3.03)" fill="#e0e0e0"/>
        <path id="Trazado_635784" data-name="Trazado 635784" d="M251,51.113a7.884,7.884,0,0,0,.6-8.654,7.408,7.408,0,1,0-12.989,7.066,7.869,7.869,0,0,0,7.675,4.179c-9.143,6.985-2.731,17.572-2.731,17.572l23.634-12.858S261.7,47.17,251,51.113" transform="translate(-43.845 -7.052)" fill="#e0e0e0"/>
        <path id="Trazado_635785" data-name="Trazado 635785" d="M28.586,24.988h0a13.291,13.291,0,1,1,18.2-4.692,13.291,13.291,0,0,1-18.2,4.692" transform="translate(-4.069 -0.046)" fill="#fff"/>
        <path id="Trazado_635786" data-name="Trazado 635786" d="M28.554,24.942a21.526,21.526,0,0,0,3.029,1.212,12.7,12.7,0,0,0,3.77.5A13.134,13.134,0,0,0,48.167,15.9a12.289,12.289,0,0,0,.145-3.758,14.825,14.825,0,0,0-.334-1.92,14.869,14.869,0,0,0-.656-1.875A13.029,13.029,0,0,0,34,.493a14.7,14.7,0,0,0-1.959.332A14.774,14.774,0,0,0,30.2,1.46,12.32,12.32,0,0,0,26.984,3.4a13.172,13.172,0,0,0-3.215,16.414,12.7,12.7,0,0,0,2.261,3.058,21.593,21.593,0,0,0,2.525,2.066.787.787,0,0,1-.191-.1l-.541-.332a6.058,6.058,0,0,1-.843-.594,9.408,9.408,0,0,1-1.067-.921,12.55,12.55,0,0,1-2.353-3.061,13.412,13.412,0,0,1-.908-11.019A13.484,13.484,0,0,1,26.734,3.1a12.662,12.662,0,0,1,3.312-2.016,15.283,15.283,0,0,1,1.9-.661A15.2,15.2,0,0,1,33.963.078,13.408,13.408,0,0,1,47.7,8.189a15.106,15.106,0,0,1,.672,1.935,15.205,15.205,0,0,1,.339,1.98,12.669,12.669,0,0,1-.164,3.873,13.476,13.476,0,0,1-3.114,6.382,13.409,13.409,0,0,1-10.083,4.533,12.584,12.584,0,0,1-3.817-.579,9.374,9.374,0,0,1-1.323-.488,6.167,6.167,0,0,1-.929-.451l-.551-.312a.787.787,0,0,1-.18-.119" transform="translate(-4.037 0)" fill="#e0e0e0"/>
        <path id="Trazado_635787" data-name="Trazado 635787" d="M37.672,15.676a3.263,3.263,0,0,0,3.209-1.612,3.068,3.068,0,1,0-5.259-3.137,3.259,3.259,0,0,0,.131,3.617c-4.418-1.783-6.836,2.736-6.836,2.736l9.569,5.707s2.85-4.329-.814-7.311" transform="translate(-5.336 -1.713)" fill="#e0e0e0"/>
        <path id="Trazado_635788" data-name="Trazado 635788" d="M679.154,28.618a15.708,15.708,0,1,1-15.708-15.707,15.708,15.708,0,0,1,15.708,15.707" transform="translate(-119.531 -2.383)" fill="#fff"/>
        <path id="Trazado_635789" data-name="Trazado 635789" d="M679.106,28.581a1.126,1.126,0,0,1-.035-.254c-.016-.191-.035-.435-.059-.744a7.934,7.934,0,0,0-.142-1.2,11.579,11.579,0,0,0-.337-1.615,15.016,15.016,0,0,0-1.751-4.146,15.547,15.547,0,0,0-18.668-6.609,14.559,14.559,0,0,0-3.922,2.114,17.524,17.524,0,0,0-1.758,1.5,17.726,17.726,0,0,0-1.518,1.8,15.431,15.431,0,0,0,0,18.322,17.424,17.424,0,0,0,1.518,1.8,17.532,17.532,0,0,0,1.758,1.5,14.556,14.556,0,0,0,3.922,2.114,15.587,15.587,0,0,0,18.669-6.609,15.019,15.019,0,0,0,1.75-4.145,11.489,11.489,0,0,0,.337-1.615,7.934,7.934,0,0,0,.142-1.2c.024-.308.043-.554.059-.745a1.123,1.123,0,0,1,.035-.254,1.216,1.216,0,0,1,.008.254c0,.192-.01.439-.016.749a7.3,7.3,0,0,1-.1,1.213,10.98,10.98,0,0,1-.3,1.637,14.857,14.857,0,0,1-1.707,4.227,15.835,15.835,0,0,1-10.657,7.521,15.906,15.906,0,0,1-8.35-.666,14.914,14.914,0,0,1-4.031-2.156,14.6,14.6,0,0,1-3.37-3.374,15.813,15.813,0,0,1,0-18.814,17.865,17.865,0,0,1,1.561-1.842A17.832,17.832,0,0,1,653.95,15.8a14.933,14.933,0,0,1,4.03-2.156,15.9,15.9,0,0,1,8.348-.665,15.83,15.83,0,0,1,10.658,7.52,14.838,14.838,0,0,1,1.708,4.227,10.98,10.98,0,0,1,.3,1.637,7.308,7.308,0,0,1,.1,1.214c.007.31.012.557.016.749a1.216,1.216,0,0,1-.008.254" transform="translate(-119.483 -2.345)" fill="#e0e0e0"/>
        <path id="Trazado_635790" data-name="Trazado 635790" d="M658.691,30.205a4.2,4.2,0,0,1,.935-2.349,4.047,4.047,0,0,1,2.022-1.427,3.266,3.266,0,0,1,3.692,1.452,3.28,3.28,0,0,1,.9-1.111,3.314,3.314,0,0,1,2.515-.659,4.044,4.044,0,0,1,2.185,1.162,4.209,4.209,0,0,1,1.221,2.214,5.122,5.122,0,0,1-.438,3.185,7.251,7.251,0,0,1-2.345,2.49c-1.566,1.083-3.633,2.446-3.633,2.446s-1.9-1.241-3.586-2.12a7.237,7.237,0,0,1-2.639-2.177,5.125,5.125,0,0,1-.833-3.105" transform="translate(-121.551 -4.812)" fill="#e0e0e0"/>
        <path id="Trazado_635791" data-name="Trazado 635791" d="M662.535,317.781c-21.892-7.721-40.988,1.557-40.988,1.557,16.4,10.807,40.988-1.557,40.988-1.557" transform="translate(-114.698 -58.076)" fill="#e0e0e0"/>
        <path id="Trazado_635792" data-name="Trazado 635792" d="M599.171,296.7c-1.854,14.125,6.354,25.14,6.354,25.14,4.469-11-6.354-25.14-6.354-25.14" transform="translate(-110.519 -54.753)" fill="#e0e0e0"/>
        <path id="Trazado_635793" data-name="Trazado 635793" d="M610.633,333.489c15.067,8.108,30.9,3.679,30.9,3.679-10.444-9.689-30.9-3.679-30.9-3.679" transform="translate(-112.684 -61.201)" fill="#e0e0e0"/>
        <path id="Trazado_635794" data-name="Trazado 635794" d="M623.33,307.088c-.234-.214-8.785,8.738-19.1,19.994s-18.484,20.558-18.25,20.772,8.783-8.736,19.1-20,18.482-20.556,18.248-20.771" transform="translate(-108.135 -56.668)" fill="#e0e0e0"/>
        <path id="Trazado_635795" data-name="Trazado 635795" d="M659.737,275.964s-25.9,5.5-32.095,28.332a47.684,47.684,0,0,0,32.095-28.332" transform="translate(-115.823 -50.925)" fill="#e0e0e0"/>
        <path id="Trazado_635796" data-name="Trazado 635796" d="M624.106,271.322s-15.019,17.021-7.614,35.9a40.88,40.88,0,0,0,7.614-35.9" transform="translate(-113.387 -50.069)" fill="#e0e0e0"/>
        <path id="Trazado_635797" data-name="Trazado 635797" d="M65.608,242.573c-5.42,24.923,7.31,44.471,7.31,44.471,9.536-19.358-7.31-44.471-7.31-44.471" transform="translate(-11.859 -44.764)" fill="#e0e0e0"/>
        <path id="Trazado_635798" data-name="Trazado 635798" d="M52.112,322.21c15.652.087,26.538-10.369,26.538-10.369-12.6-3.367-26.538,10.369-26.538,10.369" transform="translate(-9.617 -57.448)" fill="#e0e0e0"/>
        <path id="Trazado_635799" data-name="Trazado 635799" d="M90.153,299.418c6.776-17.537-.221-34.2-.221-34.2-9.132,12.712.221,34.2.221,34.2" transform="translate(-15.857 -48.943)" fill="#e0e0e0"/>
        <path id="Trazado_635800" data-name="Trazado 635800" d="M58.977,287.768c-.2.285,10.729,8.38,24.412,18.081s24.943,17.337,25.145,17.052-10.727-8.379-24.414-18.083-24.941-17.335-25.142-17.051" transform="translate(-10.883 -53.102)" fill="#e0e0e0"/>
        <path id="Trazado_635801" data-name="Trazado 635801" d="M20.224,253.637s9.54,27.485,35.281,31.11a52.394,52.394,0,0,0-35.281-31.11" transform="translate(-3.732 -46.805)" fill="#e0e0e0"/>
        <path id="Trazado_635802" data-name="Trazado 635802" d="M20.737,297.925s20.612,14.044,40.183,3.385a44.916,44.916,0,0,0-40.183-3.385" transform="translate(-3.827 -54.386)" fill="#e0e0e0"/>
        <path id="Trazado_635803" data-name="Trazado 635803" d="M662.744,84.691,618.793,95.676l11.8,10.935-30.571,16.956,52.12-10.431-12.173-11.28Z" transform="translate(-110.726 -15.629)" fill="#e0e0e0"/>
        <path id="Trazado_635804" data-name="Trazado 635804" d="M426.805,2.327l-9.124,23.438,8.742-1.839L424.3,43.218l12-26.962-9.017,1.9Z" transform="translate(-77.077 -0.429)" fill="#e0e0e0"/>
        <path id="Trazado_635805" data-name="Trazado 635805" d="M643.424,237.9l-24.557-5.435,3.153,8.358-19.389.847,28.478,7.735-3.252-8.621Z" transform="translate(-111.207 -42.898)" fill="#e0e0e0"/>
      </g>
    </g>
    <g id="Grupo_881546" data-name="Grupo 881546">
      <g id="Grupo_881545" data-name="Grupo 881545" clip-path="url(#clip-path)">
        <path id="Trazado_635806" data-name="Trazado 635806" d="M541.39,413.313c0,.117-117.149.212-261.625.212-144.527,0-261.651-.095-261.651-.212s117.124-.212,261.651-.212c144.476,0,261.625.095,261.625.212" transform="translate(-3.343 -76.232)" fill="#263238"/>
      </g>
    </g>
    <g id="Grupo_881551" data-name="Grupo 881551">
      <g id="Grupo_881550" data-name="Grupo 881550" clip-path="url(#clip-path)">
        <path id="Trazado_635807" data-name="Trazado 635807" d="M411.769,358.316H119.41a25.162,25.162,0,0,1-25.162-25.162V151.307a19.6,19.6,0,0,1,19.6-19.6h304.3a18.779,18.779,0,0,1,18.779,18.778V333.154a25.162,25.162,0,0,1-25.162,25.162" transform="translate(-17.392 -24.304)" fill="#263238"/>
        <path id="Trazado_635808" data-name="Trazado 635808" d="M436.756,408.874H87.863a11.189,11.189,0,0,1-11.189-11.189v-8.639H447.945v8.639a11.189,11.189,0,0,1-11.189,11.189" transform="translate(-14.149 -71.793)" fill="#263238"/>
        <path id="Trazado_635809" data-name="Trazado 635809" d="M416.325,334.115H118.058a12.531,12.531,0,0,1-12.53-12.53V155.275a12.531,12.531,0,0,1,12.53-12.53H416.325a12.53,12.53,0,0,1,12.53,12.53v166.31a12.53,12.53,0,0,1-12.53,12.53" transform="translate(-19.474 -26.342)" fill="#fff"/>
        <path id="Trazado_635810" data-name="Trazado 635810" d="M262.937,389.045l4.607,7.328h64.828l4.279-7.328Z" transform="translate(-48.522 -71.793)" fill="#455a64"/>
        <rect id="Rectángulo_330025" data-name="Rectángulo 330025" width="342.683" height="1.093" transform="translate(76.911 317.185)" fill="#455a64"/>
        <rect id="Rectángulo_330026" data-name="Rectángulo 330026" width="29.265" height="60.084" transform="translate(113.398 247.69)" fill="#ebebeb"/>
        <rect id="Rectángulo_330027" data-name="Rectángulo 330027" width="29.265" height="90.233" transform="translate(159.512 217.54)" fill="#ebebeb"/>
        <rect id="Rectángulo_330028" data-name="Rectángulo 330028" width="29.265" height="90.233" transform="translate(207.253 217.54)" fill="#ebebeb"/>
        <rect id="Rectángulo_330029" data-name="Rectángulo 330029" width="29.265" height="134.106" transform="translate(305.133 173.668)" fill="#ebebeb"/>
        <rect id="Rectángulo_330030" data-name="Rectángulo 330030" width="29.265" height="163.016" transform="translate(349.91 144.758)" fill="#ebebeb"/>
        <path id="Trazado_635811" data-name="Trazado 635811" d="M213.721,274.231l34.152-49.173,64.174-50.036,34.6,91.752s-39.224,25.112-49.426,27.635-17.65,2.259-28.946,18.78Z" transform="translate(-39.439 -32.298)" fill="#ffc09d"/>
        <path id="Trazado_635812" data-name="Trazado 635812" d="M384.9,156.593c.963-.051,12.711,8.428,6.093,15.332-7.033,7.338-32.122,28.761-32.122,28.761s-12.72-1.189-9.979-8.515c2.772-7.4,36.008-35.579,36.008-35.579" transform="translate(-64.312 -28.897)" fill="#ffc09d"/>
        <path id="Trazado_635813" data-name="Trazado 635813" d="M387.855,269.913a74.222,74.222,0,0,1-18.235-1.31,73.629,73.629,0,0,1-27.9-132.642l64.865-45.226,19.944,28.6L361.66,164.564a38.758,38.758,0,0,0,43.957,63.847l64.393-48.952,21.1,27.76-65.03,49.437-.315.219a73.071,73.071,0,0,1-37.913,13.039" transform="translate(-57.24 -16.744)" fill="#0082ff"/>
        <path id="Trazado_635814" data-name="Trazado 635814" d="M491.7,243.69l6.453,8.332,26.454-20.111-5.626-7.374Z" transform="translate(-90.737 -41.435)" fill="#e0e0e0"/>
        <path id="Trazado_635815" data-name="Trazado 635815" d="M412.817,135.751l5.366,7.382,27.282-19.022L440.1,116.6Z" transform="translate(-76.18 -21.517)" fill="#e0e0e0"/>
        <g id="Grupo_881549" data-name="Grupo 881549" transform="translate(252.865 73.99)" opacity="0.3">
          <g id="Grupo_881548" data-name="Grupo 881548">
            <g id="Grupo_881547" data-name="Grupo 881547" clip-path="url(#clip-path-5)">
              <path id="Trazado_635816" data-name="Trazado 635816" d="M387.931,270.02a74.222,74.222,0,0,1-18.235-1.31,73.63,73.63,0,0,1-27.9-132.642l64.866-45.226,19.944,28.6-64.865,45.226a38.758,38.758,0,0,0,43.957,63.847l64.392-48.952,21.1,27.76-65.03,49.437-.315.219a73.074,73.074,0,0,1-37.913,13.039" transform="translate(-310.258 -90.841)"/>
            </g>
          </g>
        </g>
        <path id="Trazado_635817" data-name="Trazado 635817" d="M381.21,260.8a74.222,74.222,0,0,1-18.235-1.31,73.63,73.63,0,0,1-27.9-132.642l64.866-45.226,19.944,28.6-64.865,45.226A38.758,38.758,0,0,0,398.972,219.3l64.393-48.952,21.12,28.085-65.047,49.111-.315.219A73.071,73.071,0,0,1,381.21,260.8" transform="translate(-56.014 -15.062)" fill="#0082ff"/>
        <path id="Trazado_635818" data-name="Trazado 635818" d="M353.811,223.209l2.088-1.6c4.726-5.175,3.885-10.151-.95-13.369a6.383,6.383,0,0,0-3.022-1.142c-5.267-.4-18.649,1.656-24.26,4.209s-8.27,9.013-4.534,13.559,8.566,3.614,16.323,2.755a44.359,44.359,0,0,0,14.355-4.412" transform="translate(-59.31 -38.208)" fill="#ffc09d"/>
        <path id="Trazado_635819" data-name="Trazado 635819" d="M338.188,236.595s-7.8,5.607-4.613,11.915,6.961,5.809,13.811,4.7,17.387-11.371,17.387-11.371,4.264-6.394.819-10.882c-4.665-6.077-8.505-3.567-12.512-2.145s-14.892,7.784-14.892,7.784" transform="translate(-61.416 -41.903)" fill="#ffc09d"/>
        <path id="Trazado_635820" data-name="Trazado 635820" d="M359.477,255.085s-5.61,10.2,1.69,13.736c6.48,3.135,12.233-3.034,15.721-7.964s6.572-9.126,1.623-12.919c-4.682-3.59-7.22-3.97-10.262-1.807-4.536,3.225-8.773,8.954-8.773,8.954" transform="translate(-65.957 -45.174)" fill="#ffc09d"/>
        <path id="Trazado_635821" data-name="Trazado 635821" d="M237.559,242.064s14.254-38.9,18.907-48.689,32.883-32.331,32.883-32.331l29.5-13.472s11.013,12.936-2.4,22.384a248.821,248.821,0,0,1-25.582,15.76l-2.778,18.658s8.656,44.521-26.5,71.407Z" transform="translate(-43.838 -27.232)" fill="#ffc09d"/>
        <path id="Trazado_635822" data-name="Trazado 635822" d="M299.516,194.288a.9.9,0,0,1-.06.214c-.057.161-.128.361-.215.611-.206.53-.472,1.324-.8,2.352a51.578,51.578,0,0,0-1.86,8.926,96.448,96.448,0,0,0-.532,13.526c.092,5.1.446,10.713.422,16.619a65.561,65.561,0,0,1-1.885,16.523,37.983,37.983,0,0,1-5.7,12.307,27.02,27.02,0,0,1-6.484,6.451l-1.21.78c-.356.217-.675.37-.925.508l-.575.3a.9.9,0,0,1-.2.089.85.85,0,0,1,.182-.127l.554-.335c.241-.149.553-.313.9-.541l1.182-.807a27.839,27.839,0,0,0,6.335-6.491,38.248,38.248,0,0,0,5.564-12.234,66.274,66.274,0,0,0,1.839-16.424c.024-5.887-.317-11.5-.389-16.609a93.056,93.056,0,0,1,.625-13.571,48.527,48.527,0,0,1,2-8.939c.353-1.024.644-1.812.877-2.333l.254-.6a.89.89,0,0,1,.1-.2" transform="translate(-51.577 -35.853)" fill="#ff9b6c"/>
        <path id="Trazado_635823" data-name="Trazado 635823" d="M387.554,101.109l20.6,28.129,27.281-19.154L415.583,81.305Z" transform="translate(-71.518 -15.004)" fill="#e0e0e0"/>
        <path id="Trazado_635824" data-name="Trazado 635824" d="M465.891,211.123l21.957,27.37,26.6-20L493.45,190.335Z" transform="translate(-85.974 -35.124)" fill="#e0e0e0"/>
        <path id="Trazado_635825" data-name="Trazado 635825" d="M353.879,207.081a5.115,5.115,0,0,1,.99-.09l.537-.026.643.042.743.053.827.157a8.856,8.856,0,0,1,6.75,6.138l0,.011,0,.02a8.8,8.8,0,0,1-.674,4.091,12.481,12.481,0,0,1-4.244,5.221,20.859,20.859,0,0,1-4.885,2.53c-1.465.548-2.682.891-3.521,1.125a8.065,8.065,0,0,1-1.32.309,8.706,8.706,0,0,1,1.272-.467c.823-.281,2.022-.669,3.461-1.247a21.643,21.643,0,0,0,4.762-2.566,12.314,12.314,0,0,0,4.083-5.066,8.491,8.491,0,0,0,.656-3.895l0,.03a8.687,8.687,0,0,0-2.778-4.191,8.907,8.907,0,0,0-3.63-1.785l-.8-.182-.727-.081-.63-.073-.532-.007a5.162,5.162,0,0,1-.99-.052" transform="translate(-64.538 -38.193)" fill="#ff9b6c"/>
        <path id="Trazado_635826" data-name="Trazado 635826" d="M370.331,242.508a2.577,2.577,0,0,1-.389.644c-.271.4-.687.961-1.224,1.637A40.454,40.454,0,0,1,364.1,249.7a28.449,28.449,0,0,1-5.505,3.909,15.931,15.931,0,0,1-1.857.864,2.541,2.541,0,0,1-.717.227c-.029-.068.952-.486,2.427-1.353a34.137,34.137,0,0,0,5.369-3.963,53.463,53.463,0,0,0,4.674-4.788,25.637,25.637,0,0,1,1.844-2.088" transform="translate(-65.698 -44.751)" fill="#ff9b6c"/>
        <path id="Trazado_635827" data-name="Trazado 635827" d="M123.878,360.684l72.36-73.966,64.924,52.569L244.449,360.8Z" transform="translate(-22.86 -52.91)" fill="#5f914e"/>
        <path id="Trazado_635828" data-name="Trazado 635828" d="M164.954,161.61a25.281,25.281,0,0,1,6.169-2.68l1.27-6.107,10.317-.18,1.484,6.057a25.285,25.285,0,0,1,6.26,2.462l5.214-3.418,7.423,7.168-3.232,5.33a25.277,25.277,0,0,1,2.681,6.171l6.105,1.27L208.828,188l-6.057,1.485a25.292,25.292,0,0,1-2.462,6.259l3.417,5.214-7.166,7.423-5.331-3.232a25.286,25.286,0,0,1-6.17,2.68l-1.27,6.106-10.316.181-1.485-6.058a25.28,25.28,0,0,1-6.26-2.462l-5.214,3.418-7.424-7.167,3.232-5.331a25.258,25.258,0,0,1-2.681-6.17l-6.106-1.27-.181-10.316,6.058-1.486a25.287,25.287,0,0,1,2.462-6.259l-3.417-5.214,7.166-7.423Zm5.5,13.744a11.069,11.069,0,1,0,15.651-.276,11.069,11.069,0,0,0-15.651.276" transform="translate(-27.192 -28.168)" fill="#e0e0e0"/>
        <path id="Trazado_635829" data-name="Trazado 635829" d="M142.088,236.465a18.407,18.407,0,0,1,4.49-1.951l.926-4.445,7.509-.131,1.081,4.408a18.43,18.43,0,0,1,4.556,1.792l3.8-2.487,5.4,5.217-2.353,3.88a18.365,18.365,0,0,1,1.951,4.491l4.444.926.132,7.509-4.409,1.081a18.38,18.38,0,0,1-1.792,4.556l2.487,3.8-5.216,5.4-3.88-2.353a18.388,18.388,0,0,1-4.492,1.951l-.925,4.444-7.51.132-1.08-4.409a18.417,18.417,0,0,1-4.556-1.792l-3.8,2.487-5.4-5.217,2.353-3.88a18.371,18.371,0,0,1-1.952-4.491l-4.444-.925-.131-7.51,4.409-1.08a18.386,18.386,0,0,1,1.792-4.556l-2.487-3.8,5.216-5.4Zm4,10a8.057,8.057,0,1,0,11.392-.2,8.058,8.058,0,0,0-11.392.2" transform="translate(-23.856 -42.432)" fill="#ebebeb"/>
        <path id="Trazado_635830" data-name="Trazado 635830" d="M236.815,160.909a12.436,12.436,0,0,1,3.03-1.317l.625-3,5.068-.088.73,2.976a12.444,12.444,0,0,1,3.075,1.209l2.561-1.679,3.647,3.521-1.588,2.618a12.425,12.425,0,0,1,1.317,3.031l3,.625.089,5.068-2.976.73a12.443,12.443,0,0,1-1.209,3.075l1.678,2.561-3.52,3.647-2.618-1.588a12.425,12.425,0,0,1-3.031,1.317l-.625,3L241,186.7l-.73-2.976a12.445,12.445,0,0,1-3.075-1.209l-2.561,1.679-3.647-3.521,1.588-2.618a12.424,12.424,0,0,1-1.317-3.031l-3-.625-.089-5.068,2.976-.73a12.427,12.427,0,0,1,1.209-3.074l-1.678-2.562,3.52-3.647Zm2.7,6.752a5.438,5.438,0,1,0,7.689-.135,5.437,5.437,0,0,0-7.689.135" transform="translate(-42.105 -28.881)" fill="#ebebeb"/>
        <rect id="Rectángulo_330032" data-name="Rectángulo 330032" width="29.265" height="40.886" transform="translate(255.353 266.888)" fill="#ebebeb"/>
      </g>
    </g>
    <g id="Grupo_881553" data-name="Grupo 881553">
      <g id="Grupo_881552" data-name="Grupo 881552" clip-path="url(#clip-path)">
        <path id="Trazado_635831" data-name="Trazado 635831" d="M141.9,230.619a10.294,10.294,0,0,0-11.087-.288,12.189,12.189,0,0,0-19.515-6.1,12.36,12.36,0,0,0-20.886,7.762c-4.875.259-9.909,3.471-10.925,8.948h66.477a10.294,10.294,0,0,0-4.064-10.32" transform="translate(-14.669 -40.746)" fill="#fff"/>
        <path id="Trazado_635832" data-name="Trazado 635832" d="M141.842,230.576s.223.14.634.449a9.98,9.98,0,0,1,1.583,1.631,10.613,10.613,0,0,1,1.685,3.273,10.146,10.146,0,0,1,.272,4.99l-.018.087h-.091l-66.477.1h-.268l.059-.251c.024-.1.051-.211.077-.321a10.632,10.632,0,0,1,4.123-6.311,12.846,12.846,0,0,1,6.923-2.485l-.2.189a12.555,12.555,0,0,1,21.218-7.872l-.237-.009a12.52,12.52,0,0,1,6.573-2.724,12.064,12.064,0,0,1,6.371,1,12.588,12.588,0,0,1,6.791,7.934l-.166-.064a10.148,10.148,0,0,1,4.783-1.452,10.633,10.633,0,0,1,3.652.463,9.986,9.986,0,0,1,2.074.93c.43.28.638.441.638.441a.972.972,0,0,1-.173-.093l-.495-.3a10.371,10.371,0,0,0-5.686-1.274,10.021,10.021,0,0,0-4.674,1.469l-.126.079-.04-.143a12.374,12.374,0,0,0-6.7-7.724,11.787,11.787,0,0,0-6.212-.945,12.2,12.2,0,0,0-6.381,2.673l-.123.1-.115-.11a12.175,12.175,0,0,0-20.555,7.654l-.017.179-.179.01a12.434,12.434,0,0,0-6.693,2.407,10.219,10.219,0,0,0-3.962,6.061c-.024.106-.05.212-.073.309l-.208-.251,66.477.1-.108.087a10.015,10.015,0,0,0-.219-4.894,10.66,10.66,0,0,0-1.615-3.253,10.78,10.78,0,0,0-1.527-1.655l-.449-.364a1,1,0,0,1-.147-.13" transform="translate(-14.608 -40.704)" fill="#263238"/>
        <path id="Trazado_635833" data-name="Trazado 635833" d="M276.191,340.254a10.067,10.067,0,0,0-10.843-.281A11.921,11.921,0,0,0,246.263,334a12.088,12.088,0,0,0-20.427,7.592c-4.767.254-9.69,3.395-10.683,8.751h65.013a10.065,10.065,0,0,0-3.975-10.092" transform="translate(-39.704 -61.018)" fill="#fff"/>
        <path id="Trazado_635834" data-name="Trazado 635834" d="M276.131,340.212s.218.137.62.438a9.791,9.791,0,0,1,1.549,1.594,10.4,10.4,0,0,1,1.649,3.2,9.927,9.927,0,0,1,.266,4.881l-.018.088h-.091l-65.013.1h-.268l.06-.252c.023-.1.048-.206.074-.315a10.406,10.406,0,0,1,4.034-6.174,12.571,12.571,0,0,1,6.773-2.431l-.2.189a12.282,12.282,0,0,1,20.758-7.7l-.237-.009a12.25,12.25,0,0,1,6.43-2.666,11.811,11.811,0,0,1,6.233.981,12.311,12.311,0,0,1,6.643,7.762l-.166-.064a9.921,9.921,0,0,1,4.678-1.421,10.41,10.41,0,0,1,3.573.453,9.826,9.826,0,0,1,2.027.91c.421.274.624.432.624.432a.976.976,0,0,1-.169-.091l-.485-.29a10.159,10.159,0,0,0-5.56-1.244,9.808,9.808,0,0,0-4.571,1.438l-.125.078-.041-.142a12.1,12.1,0,0,0-6.551-7.552,11.527,11.527,0,0,0-6.074-.923,11.923,11.923,0,0,0-6.239,2.613l-.123.1-.115-.11a11.9,11.9,0,0,0-20.095,7.483l-.017.179-.179.011a12.152,12.152,0,0,0-6.542,2.353,9.988,9.988,0,0,0-3.873,5.925l-.071.3-.209-.25,65.013.1-.108.088a9.789,9.789,0,0,0-.213-4.785,10.443,10.443,0,0,0-1.578-3.181,10.6,10.6,0,0,0-1.494-1.619l-.439-.356a.94.94,0,0,1-.143-.128" transform="translate(-39.643 -60.975)" fill="#263238"/>
        <path id="Trazado_635835" data-name="Trazado 635835" d="M453.888,337.423a10.067,10.067,0,0,0-10.843-.281,11.921,11.921,0,0,0-19.085-5.969,12.087,12.087,0,0,0-20.426,7.592c-4.768.254-9.691,3.395-10.684,8.751h65.013a10.065,10.065,0,0,0-3.975-10.092" transform="translate(-72.495 -60.495)" fill="#fff"/>
        <path id="Trazado_635836" data-name="Trazado 635836" d="M453.828,337.381s.219.137.62.438A9.792,9.792,0,0,1,456,339.413a10.4,10.4,0,0,1,1.649,3.2,9.928,9.928,0,0,1,.266,4.881l-.018.088H457.8l-65.013.1h-.268l.06-.252c.023-.1.049-.206.074-.315a10.406,10.406,0,0,1,4.034-6.174,12.571,12.571,0,0,1,6.773-2.431l-.2.189a12.282,12.282,0,0,1,20.758-7.7l-.237-.009a12.25,12.25,0,0,1,6.43-2.666,11.815,11.815,0,0,1,6.233.981,12.312,12.312,0,0,1,6.642,7.762l-.166-.064a9.922,9.922,0,0,1,4.678-1.421,10.389,10.389,0,0,1,3.573.454,9.791,9.791,0,0,1,2.027.909c.421.274.624.432.624.432a.906.906,0,0,1-.169-.091l-.484-.29a10.573,10.573,0,0,0-2.032-.849,10.439,10.439,0,0,0-3.529-.4,9.808,9.808,0,0,0-4.571,1.438l-.125.078-.04-.142a12.107,12.107,0,0,0-6.552-7.552,11.527,11.527,0,0,0-6.074-.923,11.923,11.923,0,0,0-6.239,2.613l-.123.1-.115-.11a11.9,11.9,0,0,0-20.095,7.483l-.017.179-.179.01a12.152,12.152,0,0,0-6.542,2.353,9.988,9.988,0,0,0-3.873,5.925l-.071.3-.209-.25,65.013.1-.109.088a9.788,9.788,0,0,0-.213-4.785,10.443,10.443,0,0,0-1.578-3.181,10.554,10.554,0,0,0-1.494-1.619l-.438-.356a.925.925,0,0,1-.144-.128" transform="translate(-72.435 -60.453)" fill="#263238"/>
        <path id="Trazado_635837" data-name="Trazado 635837" d="M227.3,201.88a6.572,6.572,0,0,0-7.078-.183,7.782,7.782,0,0,0-12.459-3.9,7.891,7.891,0,0,0-13.334,4.956,7.323,7.323,0,0,0-6.975,5.712h42.442a6.571,6.571,0,0,0-2.595-6.588" transform="translate(-34.591 -36.098)" fill="#fff"/>
        <path id="Trazado_635838" data-name="Trazado 635838" d="M227.236,201.837a4.851,4.851,0,0,1,1.432,1.315,6.772,6.772,0,0,1,1.089,2.094,6.5,6.5,0,0,1,.182,3.2l-.017.087h-.091c-8.638.06-24.417.1-42.442.1h-.267l.059-.252c.015-.065.033-.136.049-.207a6.869,6.869,0,0,1,2.662-4.074,8.279,8.279,0,0,1,4.462-1.6l-.2.189a8.084,8.084,0,0,1,13.666-5.066l-.237-.009a7.921,7.921,0,0,1,12.679,4l-.165-.064a6.5,6.5,0,0,1,3.073-.925,6.764,6.764,0,0,1,2.34.307,4.853,4.853,0,0,1,1.725.9,8.248,8.248,0,0,0-1.759-.784,6.844,6.844,0,0,0-2.3-.247,6.368,6.368,0,0,0-2.964.941l-.125.078-.041-.143a7.865,7.865,0,0,0-4.262-4.893,7.739,7.739,0,0,0-7.977,1.1l-.123.1-.114-.109a7.7,7.7,0,0,0-13,4.846l-.017.179-.179.01a7.876,7.876,0,0,0-4.231,1.523,6.449,6.449,0,0,0-2.5,3.825c-.015.066-.032.133-.046.194l-.209-.25c18.024,0,33.8.041,42.442.1l-.108.088a6.38,6.38,0,0,0-.13-3.108,6.853,6.853,0,0,0-1.018-2.073,8.243,8.243,0,0,0-1.338-1.385" transform="translate(-34.531 -36.055)" fill="#263238"/>
      </g>
    </g>
    <g id="Grupo_881555" data-name="Grupo 881555">
      <g id="Grupo_881554" data-name="Grupo 881554" clip-path="url(#clip-path)">
        <path id="Trazado_635839" data-name="Trazado 635839" d="M655.527,192.107h0a15.589,15.589,0,1,1,20.692-7.607,15.589,15.589,0,0,1-20.692,7.607" transform="translate(-119.299 -29.962)" fill="#fff"/>
        <path id="Trazado_635840" data-name="Trazado 635840" d="M655.493,192.062a1.152,1.152,0,0,1,.243.074l.7.258a7.842,7.842,0,0,0,1.142.372,11.341,11.341,0,0,0,1.594.369,14.871,14.871,0,0,0,4.464.149,15.427,15.427,0,0,0,13.727-14.064,14.458,14.458,0,0,0-.271-4.413,17.356,17.356,0,0,0-.615-2.206,17.556,17.556,0,0,0-.988-2.116,15.316,15.316,0,0,0-16.5-7.63,14.044,14.044,0,0,0-4.332,1.579,14.441,14.441,0,0,0-3.538,2.653,15.469,15.469,0,0,0-1.823,19.569,14.91,14.91,0,0,0,3,3.3,11.573,11.573,0,0,0,1.315.975,7.935,7.935,0,0,0,1.023.629l.646.363a1.127,1.127,0,0,1,.214.137,1.155,1.155,0,0,1-.233-.1l-.668-.327a7.206,7.206,0,0,1-1.05-.6,11.168,11.168,0,0,1-1.35-.952,14.769,14.769,0,0,1-3.1-3.3,15.714,15.714,0,0,1-2.337-12.734,15.8,15.8,0,0,1,4.077-7.245,14.83,14.83,0,0,1,3.622-2.733,14.432,14.432,0,0,1,4.443-1.631,15.7,15.7,0,0,1,16.949,7.837,14.436,14.436,0,0,1,1.635,4.441,14.814,14.814,0,0,1,.263,4.528,15.787,15.787,0,0,1-2.878,7.8,15.714,15.714,0,0,1-11.214,6.469,14.744,14.744,0,0,1-4.518-.223,11.065,11.065,0,0,1-1.6-.412,7.182,7.182,0,0,1-1.136-.413l-.682-.3a1.138,1.138,0,0,1-.226-.114" transform="translate(-119.265 -29.917)" fill="#263238"/>
        <path id="Trazado_635841" data-name="Trazado 635841" d="M664.916,180.291a3.829,3.829,0,0,0,3.558-2.258,3.6,3.6,0,1,0-6.506-3.044,3.825,3.825,0,0,0,.577,4.206c-5.365-1.564-7.659,3.993-7.659,3.993l11.837,5.539s2.818-5.386-1.807-8.436" transform="translate(-120.85 -31.873)" fill="#0082ff"/>
        <path id="Trazado_635842" data-name="Trazado 635842" d="M471.783,179.445h0A18.9,18.9,0,1,1,473.9,152.8a18.9,18.9,0,0,1-2.119,26.644" transform="translate(-81.311 -26.973)" fill="#fff"/>
        <path id="Trazado_635843" data-name="Trazado 635843" d="M471.74,179.4a1.642,1.642,0,0,1,.209-.227l.639-.632.474-.461c.166-.178.331-.387.519-.606a13.8,13.8,0,0,0,1.22-1.566,18.066,18.066,0,0,0,2.438-4.841,18.73,18.73,0,0,0-8.527-22.294,17.154,17.154,0,0,0-5.008-1.947,17.089,17.089,0,0,0-5.585-.431,18.1,18.1,0,0,0-5.651,1.309,18.536,18.536,0,0,0-8.976,7.652,18.121,18.121,0,0,0-2.187,5.375,17.1,17.1,0,0,0-.458,5.584,17.151,17.151,0,0,0,1.13,5.253,18.777,18.777,0,0,0,20.667,11.943,18.063,18.063,0,0,0,5.165-1.642,13.851,13.851,0,0,0,1.74-.957c.245-.152.479-.281.679-.418l.53-.395.725-.531a1.689,1.689,0,0,1,.257-.17,1.611,1.611,0,0,1-.229.2l-.7.565-.52.413c-.2.143-.43.279-.673.436a13.261,13.261,0,0,1-1.734,1,17.864,17.864,0,0,1-5.2,1.728,19.023,19.023,0,0,1-15.18-3.891,19.112,19.112,0,0,1-5.894-8.15,17.548,17.548,0,0,1-1.169-5.362,17.5,17.5,0,0,1,.458-5.707,18.49,18.49,0,0,1,2.23-5.5,18.913,18.913,0,0,1,9.179-7.824,18.46,18.46,0,0,1,5.78-1.332,17.431,17.431,0,0,1,5.707.449,17.58,17.58,0,0,1,5.11,2,19.113,19.113,0,0,1,7.116,7.108,19.03,19.03,0,0,1,1.443,15.6,17.886,17.886,0,0,1-2.528,4.86,13.29,13.29,0,0,1-1.261,1.555c-.194.215-.365.422-.537.6l-.491.449-.669.6a1.634,1.634,0,0,1-.237.194" transform="translate(-81.268 -26.929)" fill="#263238"/>
        <path id="Trazado_635844" data-name="Trazado 635844" d="M463.253,166.319a4.641,4.641,0,0,0-.682-5.062,4.363,4.363,0,1,0-6.652,5.619,4.635,4.635,0,0,0,4.924,1.5c-4.444,5.115.512,10.459.512,10.459l12.1-10.224s-4.5-5.835-10.206-2.29" transform="translate(-83.921 -29.441)" fill="#0082ff"/>
        <path id="Trazado_635845" data-name="Trazado 635845" d="M571.531,249.911a11.605,11.605,0,1,1-11.6-11.6,11.6,11.6,0,0,1,11.6,11.6" transform="translate(-101.185 -43.976)" fill="#fff"/>
        <path id="Trazado_635846" data-name="Trazado 635846" d="M571.483,249.872a20.264,20.264,0,0,0-.443-2.813,11.569,11.569,0,0,0-4.232-6.292,11.417,11.417,0,0,0-10.816-1.611,11.436,11.436,0,0,0-5.292,3.979,11.353,11.353,0,0,0,0,13.472,11.438,11.438,0,0,0,5.292,3.98,11.508,11.508,0,0,0,15.049-7.9,20.264,20.264,0,0,0,.443-2.813.621.621,0,0,1,.012.188c0,.15,0,.332-.007.554a5.271,5.271,0,0,1-.07.9,8.13,8.13,0,0,1-.218,1.213,10.939,10.939,0,0,1-1.255,3.133,11.715,11.715,0,0,1-7.893,5.586,11.789,11.789,0,0,1-6.194-.488,11.787,11.787,0,0,1-5.494-4.1,11.734,11.734,0,0,1,0-13.965,11.793,11.793,0,0,1,5.494-4.1,11.788,11.788,0,0,1,6.194-.488,11.712,11.712,0,0,1,7.892,5.585,10.961,10.961,0,0,1,1.256,3.133,8.157,8.157,0,0,1,.218,1.213,5.271,5.271,0,0,1,.07.9c0,.222.006.4.007.554a.621.621,0,0,1-.012.188" transform="translate(-101.137 -43.938)" fill="#263238"/>
        <path id="Trazado_635847" data-name="Trazado 635847" d="M556.412,251.083a3.1,3.1,0,0,1,.691-1.735,2.987,2.987,0,0,1,1.495-1.054,1.787,1.787,0,0,0,3.395.251,2.456,2.456,0,0,1,1.858-.487,2.985,2.985,0,0,1,1.614.86,3.108,3.108,0,0,1,.9,1.635,3.786,3.786,0,0,1-.324,2.353,5.36,5.36,0,0,1-1.733,1.84c-1.157.8-2.684,1.806-2.684,1.806s-1.4-.917-2.65-1.566a5.345,5.345,0,0,1-1.949-1.61,3.782,3.782,0,0,1-.616-2.294" transform="translate(-102.677 -45.771)" fill="#fd4c1b"/>
        <path id="Trazado_635848" data-name="Trazado 635848" d="M43.683,202.148a21.711,21.711,0,1,1-21.711-21.711,21.711,21.711,0,0,1,21.711,21.711" transform="translate(-0.048 -33.297)" fill="#fff"/>
        <path id="Trazado_635849" data-name="Trazado 635849" d="M43.635,202.112a2.2,2.2,0,0,1-.039-.351c-.018-.251-.042-.593-.073-1.029l-.049-.758c-.03-.278-.091-.578-.14-.906a15.814,15.814,0,0,0-.457-2.236,20.726,20.726,0,0,0-2.411-5.745,21.535,21.535,0,0,0-25.87-9.181,22.429,22.429,0,0,0-2.805,1.234,22.424,22.424,0,0,0-2.636,1.7,24.3,24.3,0,0,0-2.439,2.074A24.252,24.252,0,0,0,4.607,189.4a20.8,20.8,0,0,0-3.073,5.924,21.32,21.32,0,0,0,0,13.568,20.84,20.84,0,0,0,3.073,5.926,24.256,24.256,0,0,0,2.106,2.494,24.329,24.329,0,0,0,2.44,2.075,22.361,22.361,0,0,0,2.637,1.7,22.438,22.438,0,0,0,2.805,1.235,21.59,21.59,0,0,0,25.87-9.182,20.722,20.722,0,0,0,2.411-5.745,15.791,15.791,0,0,0,.457-2.236c.05-.327.11-.628.14-.905l.049-.758c.031-.436.055-.778.073-1.029a2.2,2.2,0,0,1,.039-.351,2.213,2.213,0,0,1,0,.352c-.007.252-.018.6-.031,1.034-.009.229-.018.484-.029.762s-.077.583-.122.913a15.432,15.432,0,0,1-.422,2.259,20.583,20.583,0,0,1-2.367,5.826,21.849,21.849,0,0,1-14.705,10.353,21.925,21.925,0,0,1-11.5-.925,22.682,22.682,0,0,1-2.861-1.25,22.877,22.877,0,0,1-2.69-1.721,24.532,24.532,0,0,1-2.489-2.11,24.616,24.616,0,0,1-2.151-2.539,21.182,21.182,0,0,1-3.139-6.038,21.7,21.7,0,0,1,0-13.836,21.246,21.246,0,0,1,3.139-6.037,24.8,24.8,0,0,1,2.151-2.537,24.51,24.51,0,0,1,2.489-2.11,22.764,22.764,0,0,1,2.689-1.721,22.849,22.849,0,0,1,2.861-1.25,21.922,21.922,0,0,1,11.5-.925,21.853,21.853,0,0,1,14.705,10.352,20.6,20.6,0,0,1,2.368,5.827,15.5,15.5,0,0,1,.422,2.259c.044.33.1.633.122.913s.02.533.029.763c.013.439.024.782.031,1.034a2.213,2.213,0,0,1,0,.352" transform="translate(0 -33.262)" fill="#263238"/>
        <path id="Trazado_635850" data-name="Trazado 635850" d="M15.4,204.341a5.823,5.823,0,0,1,1.293-3.247,5.588,5.588,0,0,1,2.8-1.972,4.509,4.509,0,0,1,5.1,2.005,4.509,4.509,0,0,1,4.726-2.446,5.592,5.592,0,0,1,3.02,1.607,5.822,5.822,0,0,1,1.688,3.06,7.081,7.081,0,0,1-.606,4.4,10.017,10.017,0,0,1-3.241,3.443c-2.165,1.5-5.021,3.38-5.021,3.38s-2.623-1.716-4.958-2.93a10.012,10.012,0,0,1-3.647-3.011,7.076,7.076,0,0,1-1.151-4.292" transform="translate(-2.84 -36.655)" fill="#fd4c1b"/>
        <path id="Trazado_635851" data-name="Trazado 635851" d="M340.865,84.5h0a12.025,12.025,0,1,1,12.222-20.713h0A12.025,12.025,0,0,1,340.865,84.5" transform="translate(-61.81 -11.463)" fill="#fff"/>
        <path id="Trazado_635852" data-name="Trazado 635852" d="M340.833,84.453a20.462,20.462,0,0,0,2.743,1.089,11.982,11.982,0,0,0,7.846-.461,11.832,11.832,0,0,0,7.138-8.809,11.856,11.856,0,0,0-.764-6.822,11.771,11.771,0,0,0-12.03-7.1,11.854,11.854,0,0,0-6.343,2.629,11.927,11.927,0,0,0-.87,17.6,20.493,20.493,0,0,0,2.279,1.875.637.637,0,0,1-.174-.089l-.491-.3a5.535,5.535,0,0,1-.764-.537,8.5,8.5,0,0,1-.966-.833,11.327,11.327,0,0,1-2.133-2.77,12.134,12.134,0,0,1-.827-9.98,12.217,12.217,0,0,1,3.7-5.267,12.216,12.216,0,0,1,6.55-2.742,12.153,12.153,0,0,1,12.455,7.351,12.2,12.2,0,0,1,.767,7.057,12.207,12.207,0,0,1-2.823,5.782,12.142,12.142,0,0,1-9.136,4.1,11.349,11.349,0,0,1-3.457-.528,8.53,8.53,0,0,1-1.2-.444,5.494,5.494,0,0,1-.839-.41l-.5-.285c-.111-.066-.166-.1-.162-.109" transform="translate(-61.778 -11.416)" fill="#263238"/>
        <path id="Trazado_635853" data-name="Trazado 635853" d="M349.085,76.074a2.954,2.954,0,0,0,2.9-1.459,2.776,2.776,0,1,0-4.758-2.838,2.948,2.948,0,0,0,.118,3.272c-4-1.613-6.186,2.475-6.186,2.475l8.659,5.164s2.578-3.917-.737-6.614" transform="translate(-62.957 -12.971)" fill="#0082ff"/>
      </g>
    </g>
    <g id="Grupo_881557" data-name="Grupo 881557">
      <g id="Grupo_881556" data-name="Grupo 881556" clip-path="url(#clip-path)">
        <path id="Trazado_635854" data-name="Trazado 635854" d="M606.279,51.081a29.057,29.057,0,1,1-18.227-36.829,29.057,29.057,0,0,1,18.227,36.829" transform="translate(-101.437 -2.347)" fill="#fff"/>
        <path id="Trazado_635855" data-name="Trazado 635855" d="M594.5,35.263a7.819,7.819,0,0,0-2.557-5.47,9.865,9.865,0,0,0-6.269-2.3,20.877,20.877,0,0,0-6.7,1.085,10.227,10.227,0,0,0-3.453,1.588,14.551,14.551,0,0,0-4.574,6.252,25.693,25.693,0,0,0-.538,8.385,4.227,4.227,0,0,0,1.38,2,15.981,15.981,0,0,0,2.278,5.159q1.07-1.69,2.139-3.383Z" transform="translate(-105.233 -5.072)" fill="#263238"/>
        <path id="Trazado_635856" data-name="Trazado 635856" d="M598.3,33.617l-3.45-1.493c.864,5.154-1.13,16-1.173,21.23,1.782-1.614,6.249-6.755,6.634-9.128s2.363-10-2.011-10.608" transform="translate(-109.555 -5.928)" fill="#263238"/>
        <path id="Trazado_635857" data-name="Trazado 635857" d="M575.033,37.519A6.321,6.321,0,0,1,581,32.944l8.795-.161c3.677.457,5.031,5.433,4.418,9.086a58.554,58.554,0,0,1-2.686,11.191c-2.353,5.779-7.132,5.47-7.132,5.47s-.674,2.853-1.089,4.6l-3.4,7.439-9.782-7.56,4.879-25.426c.022-.1,0,.067.038-.068" transform="translate(-105.207 -6.05)" fill="#ffc09d"/>
        <path id="Trazado_635858" data-name="Trazado 635858" d="M595.486,49.211a.79.79,0,0,1-.924.6.756.756,0,0,1-.631-.879.791.791,0,0,1,.922-.6.757.757,0,0,1,.633.88" transform="translate(-109.6 -8.917)" fill="#263238"/>
        <path id="Trazado_635859" data-name="Trazado 635859" d="M597.193,46.272c-.119.078-.6-.489-1.43-.681s-1.532.082-1.6-.041c-.034-.055.106-.214.415-.344a2.163,2.163,0,0,1,1.309-.091,2.08,2.08,0,0,1,1.109.667c.21.254.253.456.2.49" transform="translate(-109.644 -8.314)" fill="#263238"/>
        <path id="Trazado_635860" data-name="Trazado 635860" d="M586.411,46.8a.791.791,0,0,1-.924.6.757.757,0,0,1-.631-.879.791.791,0,0,1,.923-.6.756.756,0,0,1,.632.88" transform="translate(-107.925 -8.471)" fill="#263238"/>
        <path id="Trazado_635861" data-name="Trazado 635861" d="M587.55,44c-.119.078-.6-.49-1.43-.681s-1.533.082-1.6-.041c-.033-.055.105-.214.416-.344a2.169,2.169,0,0,1,1.309-.092,2.088,2.088,0,0,1,1.109.667c.209.255.253.457.2.491" transform="translate(-107.865 -7.895)" fill="#263238"/>
        <path id="Trazado_635862" data-name="Trazado 635862" d="M589.532,51.415a5.657,5.657,0,0,1,1.4.071c.217.028.427.033.5-.1a1.106,1.106,0,0,0,.006-.66q-.12-.838-.25-1.757a28.571,28.571,0,0,1-.422-4.541,28.415,28.415,0,0,1,.786,4.5q.116.921.222,1.76a1.261,1.261,0,0,1-.084.856.549.549,0,0,1-.42.228,1.477,1.477,0,0,1-.371-.034,5.512,5.512,0,0,1-1.364-.316" transform="translate(-108.79 -8.198)" fill="#263238"/>
        <path id="Trazado_635863" data-name="Trazado 635863" d="M578.482,59.439s.981,4.58,7.12,5.42l.334-1.41a15.535,15.535,0,0,1-7.454-4.01" transform="translate(-106.751 -10.969)" fill="#ff9b6c"/>
        <path id="Trazado_635864" data-name="Trazado 635864" d="M587.908,40.285c-.134.206-.936-.094-1.935-.2-1-.13-1.847-.029-1.929-.26-.035-.11.152-.29.519-.435a3.385,3.385,0,0,1,2.945.353c.323.228.462.446.4.545" transform="translate(-107.777 -7.234)" fill="#263238"/>
        <path id="Trazado_635865" data-name="Trazado 635865" d="M597.648,43.081c-.189.154-.714-.175-1.4-.343-.678-.194-1.3-.17-1.385-.4-.037-.109.1-.276.395-.395a2.085,2.085,0,0,1,2.242.6c.2.25.232.462.146.539" transform="translate(-109.773 -7.719)" fill="#263238"/>
        <path id="Trazado_635866" data-name="Trazado 635866" d="M594.458,35.315a2.712,2.712,0,0,0-1.978-2.044,5.271,5.271,0,0,0-2.958.155c-4.059,1.223-7.071,5.778-11.1,7.083-.992.32-2.008-.427-2.911.1a2.615,2.615,0,0,0-1.454,2.547,8.637,8.637,0,0,1-.737-2.361,2.914,2.914,0,0,1,.65-2.315c.431-.457,1.065-.734,1.353-1.292a8.238,8.238,0,0,0,.325-1.617,3.583,3.583,0,0,1,.91-1.4,15.994,15.994,0,0,1,7.156-4.682,10.432,10.432,0,0,1,5.586-.122,7.984,7.984,0,0,1,4.541,3.169c.616.922,1.266,1.88.621,2.782" transform="translate(-105.793 -5.359)" fill="#263238"/>
        <path id="Trazado_635867" data-name="Trazado 635867" d="M575.03,44c-.023-.187-2.886-2.054-3.712,1.262-.8,3.222,2.609,3.354,2.638,3.263S575.03,44,575.03,44" transform="translate(-105.407 -7.992)" fill="#ffc09d"/>
        <path id="Trazado_635868" data-name="Trazado 635868" d="M573.456,47.3c-.011-.014-.066.025-.171.046a.579.579,0,0,1-.422-.095,1.431,1.431,0,0,1-.337-1.405,1.917,1.917,0,0,1,.355-.765.67.67,0,0,1,.528-.328.3.3,0,0,1,.294.236c.021.1-.015.16,0,.17s.082-.037.089-.176a.367.367,0,0,0-.077-.233.436.436,0,0,0-.291-.159.815.815,0,0,0-.709.356,1.968,1.968,0,0,0-.415.851,1.5,1.5,0,0,0,.477,1.593.623.623,0,0,0,.535.042c.119-.055.154-.124.144-.132" transform="translate(-105.602 -8.227)" fill="#ff9b6c"/>
        <path id="Trazado_635869" data-name="Trazado 635869" d="M574.8,39.954a1.362,1.362,0,0,0,.221-.063c.142-.05.357-.109.623-.217a11.406,11.406,0,0,0,2.119-1.177,32.061,32.061,0,0,0,2.786-2.269A26.147,26.147,0,0,1,584,33.537a10.374,10.374,0,0,1,2.041-.954,8.586,8.586,0,0,1,2.057-.405,9.445,9.445,0,0,1,3.522.386,9.068,9.068,0,0,1,2.187.99c.247.144.422.279.546.363a1.332,1.332,0,0,0,.194.125,1.289,1.289,0,0,0-.175-.149,5.756,5.756,0,0,0-.533-.388,8.606,8.606,0,0,0-2.186-1.042,9.383,9.383,0,0,0-3.565-.423,8.59,8.59,0,0,0-2.092.4,10.443,10.443,0,0,0-2.075.966,25.375,25.375,0,0,0-3.462,2.717A34.235,34.235,0,0,1,577.7,38.41a12.319,12.319,0,0,1-2.08,1.21c-.26.115-.471.183-.609.241a1.34,1.34,0,0,0-.211.092" transform="translate(-106.072 -5.907)" fill="#fff"/>
        <path id="Trazado_635870" data-name="Trazado 635870" d="M575.447,42.293a5.12,5.12,0,0,0-.3,2.673,1.761,1.761,0,0,0,2,1.4c.71-.21,1.087-.968,1.361-1.655.791-1.986,1.422-4.034,2.231-6.012Z" transform="translate(-106.121 -7.141)" fill="#263238"/>
        <path id="Trazado_635871" data-name="Trazado 635871" d="M594.426,34.5c-.008.018-.273-.121-.787-.259a5.68,5.68,0,0,0-2.23-.113,7.18,7.18,0,0,0-1.5.374,14.835,14.835,0,0,0-1.631.729,17.118,17.118,0,0,0-3.394,2.279c-.546.48-1.05.987-1.572,1.443A8.42,8.42,0,0,1,581.67,40.1a14.787,14.787,0,0,1-3.161,1.183c-.93.242-1.694.386-2.22.484l-.608.105a1,1,0,0,1-.214.024.937.937,0,0,1,.207-.061l.6-.139c.521-.121,1.279-.284,2.2-.541a15.292,15.292,0,0,0,3.115-1.208,8.426,8.426,0,0,0,1.6-1.137c.515-.452,1.018-.96,1.57-1.445a16.723,16.723,0,0,1,3.439-2.292,14.5,14.5,0,0,1,1.657-.722,7.182,7.182,0,0,1,1.537-.36,5.49,5.49,0,0,1,2.267.175,3.85,3.85,0,0,1,.578.224.96.96,0,0,1,.189.105" transform="translate(-106.195 -6.264)" fill="#455a64"/>
        <path id="Trazado_635872" data-name="Trazado 635872" d="M575.229,39.613a1.489,1.489,0,0,1-.331.126l-.932.287-.312.093a.886.886,0,0,1-.382.034.353.353,0,0,1-.206-.1.289.289,0,0,1-.071-.242.742.742,0,0,1,.25-.373l1.308-1.3.1.149a3.477,3.477,0,0,1-2.349.137,1.015,1.015,0,0,1-.281-.12.407.407,0,0,1-.2-.277.361.361,0,0,1,.13-.314,1.452,1.452,0,0,1,.232-.158,6.992,6.992,0,0,0,1.427-1.129,11.947,11.947,0,0,0,1.051-1.323,1.764,1.764,0,0,1-.2.411,6.208,6.208,0,0,1-.75,1,6.719,6.719,0,0,1-1.434,1.186c-.148.086-.3.189-.276.3s.187.2.356.245a3.35,3.35,0,0,0,2.225-.13l.453-.192-.352.341-1.325,1.28a.63.63,0,0,0-.211.283c-.018.093.048.165.153.182a1.7,1.7,0,0,0,.637-.1l.947-.235a1.5,1.5,0,0,1,.348-.064" transform="translate(-105.522 -6.478)" fill="#fff"/>
        <path id="Trazado_635873" data-name="Trazado 635873" d="M585.205,53.821a1.109,1.109,0,0,1,1.31-.557,1.16,1.16,0,0,1,.722.822,1.426,1.426,0,0,1-.206,1.092l-.035.073a1.264,1.264,0,0,1-1.454-.031,1.181,1.181,0,0,1-.338-1.4" transform="translate(-107.973 -9.82)" fill="#ff9b6c"/>
        <path id="Trazado_635874" data-name="Trazado 635874" d="M587.719,55.259c.031-.126-.815-.283-1.284-1.118s-.21-1.72-.327-1.748c-.051-.022-.2.17-.281.55a2.144,2.144,0,0,0,.224,1.451,1.862,1.862,0,0,0,1.087.883c.348.1.575.042.581-.017" transform="translate(-108.099 -9.668)" fill="#263238"/>
        <path id="Trazado_635875" data-name="Trazado 635875" d="M589.887,73.412a17.231,17.231,0,0,0-3.61-3.249l-5.557-2.787a6.518,6.518,0,0,1-7.289,2.088,8.445,8.445,0,0,1-5.4-5.7s-7.873-1.024-13.625,2.028a29.172,29.172,0,0,0,38.047,11.519,34.206,34.206,0,0,0-2.568-3.9" transform="translate(-102.309 -11.736)" fill="#455a64"/>
        <path id="Trazado_635876" data-name="Trazado 635876" d="M550.838,49.11s.061.15.16.447l.429,1.322.31.974c.13.353.307.726.479,1.137a21.222,21.222,0,0,0,1.33,2.772,27.855,27.855,0,0,0,5.039,6.714,29.189,29.189,0,0,0,22.375,8.434,27.023,27.023,0,0,0,3.662-.49c.612-.133,1.239-.228,1.853-.394l1.838-.568c.307-.1.622-.179.924-.3l.9-.382c.6-.263,1.218-.5,1.815-.787a31.792,31.792,0,0,0,6.732-4.592c.512-.472.987-.992,1.487-1.489a14.846,14.846,0,0,0,1.4-1.6,32.761,32.761,0,0,0,2.5-3.519,32.947,32.947,0,0,0,1.931-3.957,28.1,28.1,0,0,0,2.059-8.763,30.974,30.974,0,0,0-.793-9.238,31.006,31.006,0,0,0-3.695-8.507l-1.289-1.89-1.457-1.742a7.2,7.2,0,0,0-.766-.827l-.8-.789-.8-.782-.866-.7a26.541,26.541,0,0,0-7.457-4.468,14.7,14.7,0,0,0-1.993-.74c-.677-.2-1.341-.431-2.017-.6a30.294,30.294,0,0,0-4.077-.685,30.85,30.85,0,0,0-4.03-.152c-.663.029-1.318.117-1.971.171l-.974.093c-.323.038-.638.12-.956.177l-1.887.375c-.619.146-1.215.36-1.817.534a27,27,0,0,0-3.455,1.312A29.186,29.186,0,0,0,551.295,33.67a27.886,27.886,0,0,0-1.238,8.3,21.184,21.184,0,0,0,.148,3.069c.044.444.066.856.119,1.228q.105.553.19,1c.109.589.192,1.042.252,1.366s.072.47.072.47-.046-.154-.114-.46c-.069-.322-.166-.773-.294-1.36q-.094-.451-.211-1c-.06-.373-.088-.786-.139-1.231a20.776,20.776,0,0,1-.188-3.083,27.723,27.723,0,0,1,1.176-8.37,29.366,29.366,0,0,1,15.751-18.314,27.264,27.264,0,0,1,3.493-1.339c.608-.178,1.213-.4,1.838-.546l1.91-.385c.321-.059.641-.142.967-.181l.988-.1c.661-.057,1.325-.147,2-.178a30.967,30.967,0,0,1,4.085.146,30.592,30.592,0,0,1,4.134.687c.685.174,1.359.406,2.045.608a15.113,15.113,0,0,1,2.022.748,26.9,26.9,0,0,1,7.568,4.523l.879.711.812.793.814.8a7.5,7.5,0,0,1,.778.838l1.479,1.766,1.31,1.917a31.4,31.4,0,0,1,3.75,8.631,31.381,31.381,0,0,1,.8,9.373,28.447,28.447,0,0,1-2.1,8.889A33.268,33.268,0,0,1,604.431,57a32.9,32.9,0,0,1-2.543,3.565,15.167,15.167,0,0,1-1.423,1.619c-.507.5-.99,1.03-1.51,1.508a30.475,30.475,0,0,1-3.309,2.57,31.058,31.058,0,0,1-3.524,2.07c-.605.293-1.232.529-1.841.793l-.914.384c-.306.121-.626.2-.937.3l-1.863.57c-.622.166-1.257.262-1.876.394a27.2,27.2,0,0,1-3.71.484,29.363,29.363,0,0,1-22.565-8.617,27.7,27.7,0,0,1-5.016-6.8,20.9,20.9,0,0,1-1.3-2.8c-.166-.416-.338-.793-.462-1.149q-.16-.542-.292-.984l-.389-1.337c-.085-.3-.118-.458-.118-.458" transform="translate(-101.473 -2.318)" fill="#263238"/>
      </g>
    </g>
    <g id="Grupo_881559" data-name="Grupo 881559">
      <g id="Grupo_881558" data-name="Grupo 881558" clip-path="url(#clip-path)">
        <path id="Trazado_635877" data-name="Trazado 635877" d="M614.779,153.625A42.3,42.3,0,1,1,569.6,114.416a42.3,42.3,0,0,1,45.177,39.209" transform="translate(-97.857 -21.094)" fill="#fff"/>
        <path id="Trazado_635878" data-name="Trazado 635878" d="M602.937,157.013c-.235-4.006.113-8.038-.323-12.026s-1.783-8.08-4.776-10.751-7.917-3.424-11.017-.878l-.43,3.453q3.566,23.01,7.13,46.02a15.856,15.856,0,0,0,1.695,5.835,5.4,5.4,0,0,0,5.027,2.846c2.645-.351,4.2-3.167,4.845-5.756,2.345-9.384-1.584-19.088-2.15-28.743" transform="translate(-108.211 -24.321)" fill="#263238"/>
        <path id="Trazado_635879" data-name="Trazado 635879" d="M591.571,137.309a11.19,11.19,0,0,0-2.229-2.614,3.826,3.826,0,0,0-3.224-.829,1.585,1.585,0,0,0-1.184,1c-.143.522.287,1.176.822,1.094l.121.09q1.909,1.463,3.877,2.849a3.148,3.148,0,0,0,1.066.559,1.087,1.087,0,0,0,1.1-.317c.406-.529.029-1.283-.35-1.832" transform="translate(-107.936 -24.686)" fill="#ffb338"/>
        <path id="Trazado_635880" data-name="Trazado 635880" d="M588.735,141.212a20.242,20.242,0,0,0-16.192-6.679c-3.557.192-4.975,1.035-7.485,1.906a11.244,11.244,0,0,0-6.094,4.682,18.852,18.852,0,0,0-3.072,8.844,52.846,52.846,0,0,0,.222,9.706,17.71,17.71,0,0,0,3.66,8.875l8.3.846c4.541-.166,9.145-.342,13.486-1.688s8.461-4.024,10.552-8.059c2.9-5.606.951-13.839-3.382-18.432" transform="translate(-102.561 -24.821)" fill="#263238"/>
        <path id="Trazado_635881" data-name="Trazado 635881" d="M569.42,184.771c-.148-2.883-.307-6.5-.306-6.485s-6.742-.263-9.2-8.707c-1.221-4.2-1.892-11.251-2.254-17.038-.326-5.21,3.607-12.614,10.034-13.091l2.834-.534,11.244,3.573a3.054,3.054,0,0,1,3.1,2.733l3.08,37.672-6.18,12.2-13.226-8.827Z" transform="translate(-102.906 -25.635)" fill="#cc6760"/>
        <path id="Trazado_635882" data-name="Trazado 635882" d="M575.164,172.614a1.829,1.829,0,0,0-.711-1.081,1.869,1.869,0,0,0-2.271.031,2.506,2.506,0,0,0-.784,2.413,2.278,2.278,0,0,0,1.692.828,2.747,2.747,0,0,0,.306-.012,2.043,2.043,0,0,0,1.337-.642,1.822,1.822,0,0,0,.431-1.536" transform="translate(-105.434 -31.586)" fill="#9d4941"/>
        <path id="Trazado_635883" data-name="Trazado 635883" d="M562.479,163.261a1.113,1.113,0,0,0,1.206.98A1.065,1.065,0,0,0,564.7,163.1a1.114,1.114,0,0,0-1.205-.981,1.065,1.065,0,0,0-1.014,1.14" transform="translate(-103.797 -29.917)" fill="#263238"/>
        <path id="Trazado_635884" data-name="Trazado 635884" d="M560.317,158.67c.155.127.914-.6,2.1-.745,1.186-.164,2.136.338,2.246.176.055-.073-.117-.315-.532-.543a3.057,3.057,0,0,0-1.821-.32,2.941,2.941,0,0,0-1.651.773c-.33.326-.421.6-.346.659" transform="translate(-103.395 -29.011)" fill="#263238"/>
        <path id="Trazado_635885" data-name="Trazado 635885" d="M569.829,167.557a7.927,7.927,0,0,0-1.975-.105c-.307.007-.6-.017-.68-.218a1.562,1.562,0,0,1,.09-.926q.289-1.156.606-2.425a40.036,40.036,0,0,0,1.254-6.3,40.063,40.063,0,0,0-1.758,6.186q-.3,1.273-.567,2.433a1.772,1.772,0,0,0-.007,1.212.768.768,0,0,0,.555.381,2.033,2.033,0,0,0,.524.007,7.749,7.749,0,0,0,1.958-.244" transform="translate(-104.573 -29.08)" fill="#263238"/>
        <path id="Trazado_635886" data-name="Trazado 635886" d="M571.71,186.169a22.093,22.093,0,0,0,11.15-4.532s-2.321,6.359-11.045,6.64Z" transform="translate(-105.501 -33.519)" fill="#9d4941"/>
        <path id="Trazado_635887" data-name="Trazado 635887" d="M574.191,170.282c-.195.013-.034,1.3-1.023,2.359s-2.381,1.087-2.368,1.268c-.008.084.338.212.921.155a3.237,3.237,0,0,0,1.986-.986,2.819,2.819,0,0,0,.776-1.968c-.019-.546-.2-.847-.29-.829" transform="translate(-105.334 -31.423)" fill="#263238"/>
        <path id="Trazado_635888" data-name="Trazado 635888" d="M560.451,153.543c.237.265,1.122-.044,2.2-.09,1.073-.08,1.991.123,2.192-.167.088-.141-.064-.409-.469-.655a3.408,3.408,0,0,0-3.537.207c-.372.291-.488.575-.383.7" transform="translate(-103.417 -28.092)" fill="#263238"/>
        <path id="Trazado_635889" data-name="Trazado 635889" d="M578.611,161.78a1.113,1.113,0,0,1-.971,1.213,1.064,1.064,0,0,1-1.231-.9,1.114,1.114,0,0,1,.97-1.214,1.066,1.066,0,0,1,1.233.9" transform="translate(-106.367 -29.686)" fill="#263238"/>
        <path id="Trazado_635890" data-name="Trazado 635890" d="M579.1,156.81c-.125.157-1.02-.391-2.214-.282-1.193.091-2.015.782-2.158.647-.069-.059.048-.333.4-.644a3.058,3.058,0,0,1,1.712-.7,2.931,2.931,0,0,1,1.779.405c.391.25.539.5.477.571" transform="translate(-106.055 -28.755)" fill="#263238"/>
        <path id="Trazado_635891" data-name="Trazado 635891" d="M577.845,152.168c-.211.292-1.157.092-2.265.176-1.111.05-2.03.363-2.27.1-.107-.129.017-.413.4-.706a3.424,3.424,0,0,1,1.8-.607,3.387,3.387,0,0,1,1.854.386c.416.244.569.511.477.653" transform="translate(-105.79 -27.888)" fill="#263238"/>
        <path id="Trazado_635892" data-name="Trazado 635892" d="M590.473,163.994c-.079-.642.471-2.248,1.093-2.427,1.659-.477,4.726-.726,5.3,3.568.78,5.869-5.274,5.442-5.306,5.274-.026-.13-.808-4.2-1.082-6.415" transform="translate(-108.963 -29.768)" fill="#cc6760"/>
        <path id="Trazado_635893" data-name="Trazado 635893" d="M593.4,168.488c.024-.022.112.058.3.114a1.033,1.033,0,0,0,.767-.086,2.551,2.551,0,0,0,.868-2.425,3.4,3.4,0,0,0-.48-1.426,1.192,1.192,0,0,0-.873-.683.526.526,0,0,0-.566.36c-.057.175,0,.287-.034.3-.014.017-.139-.082-.124-.33a.66.66,0,0,1,.183-.4.781.781,0,0,1,.546-.224,1.451,1.451,0,0,1,1.189.768,3.5,3.5,0,0,1,.572,1.589,2.679,2.679,0,0,1-1.155,2.733,1.1,1.1,0,0,1-.956-.032c-.2-.12-.25-.248-.231-.261" transform="translate(-109.477 -30.207)" fill="#9d4941"/>
        <path id="Trazado_635894" data-name="Trazado 635894" d="M587.294,157.2l-1.388,1.659c-6.905-5.734-20.642-20.34-19.87-19.467a18.872,18.872,0,0,1,9.169-1.656c4.867.479,14.159,2.241,14.42,7.923a29.662,29.662,0,0,1-2.331,11.54" transform="translate(-104.449 -25.405)" fill="#263238"/>
        <path id="Trazado_635895" data-name="Trazado 635895" d="M595.99,155.363a1.518,1.518,0,0,0-.114-.335,6.009,6.009,0,0,0-.468-.9,8.589,8.589,0,0,0-2.659-2.6,16.169,16.169,0,0,0-5.129-2.035c-2.017-.5-4.275-.844-6.523-1.627a28.91,28.91,0,0,1-6.055-2.85,30.241,30.241,0,0,1-4.365-3.3,32.124,32.124,0,0,1-2.576-2.653l-.649-.771a1.494,1.494,0,0,0-.241-.258,1.6,1.6,0,0,0,.193.3c.137.186.332.466.606.809a27.2,27.2,0,0,0,2.522,2.734,28.881,28.881,0,0,0,4.362,3.383,28.334,28.334,0,0,0,6.106,2.9,65.1,65.1,0,0,0,6.555,1.611,16.39,16.39,0,0,1,5.079,1.944,8.9,8.9,0,0,1,2.676,2.482c.485.723.65,1.185.68,1.171" transform="translate(-104.671 -25.472)" fill="#455a64"/>
        <path id="Trazado_635896" data-name="Trazado 635896" d="M594.42,156.694a3.111,3.111,0,0,0-.32-1.272,6.042,6.042,0,0,0-2.411-2.618,13.384,13.384,0,0,0-5.056-1.581,29.151,29.151,0,0,1-6.25-1.507,25.977,25.977,0,0,1-5.687-2.979,26.647,26.647,0,0,1-4-3.408,28.312,28.312,0,0,1-2.286-2.715l-.558-.79a1.417,1.417,0,0,0-.212-.265,1.424,1.424,0,0,0,.161.3l.513.825a24.069,24.069,0,0,0,2.226,2.795A25.442,25.442,0,0,0,580.277,150a28.476,28.476,0,0,0,6.313,1.5,13.5,13.5,0,0,1,4.987,1.488,6.1,6.1,0,0,1,2.416,2.486,6.99,6.99,0,0,1,.426,1.222" transform="translate(-104.751 -25.753)" fill="#455a64"/>
        <path id="Trazado_635897" data-name="Trazado 635897" d="M592.448,167.386c-.008-.039.492-.14,1.349-.431a8.476,8.476,0,0,0,3.169-2.077,11.9,11.9,0,0,0,2.733-4.906,20.692,20.692,0,0,0,.8-6.891,15.984,15.984,0,0,0-1.741-6.68,17.146,17.146,0,0,0-3.39-4.54,27.832,27.832,0,0,0-4.2-3.169,1.32,1.32,0,0,1,.338.147c.213.113.539.26.93.5a18.113,18.113,0,0,1,3.121,2.322,16.843,16.843,0,0,1,3.52,4.576,16.058,16.058,0,0,1,1.811,6.826,20.524,20.524,0,0,1-.844,7.016,11.9,11.9,0,0,1-2.879,4.992,8.187,8.187,0,0,1-3.316,2.027,7.354,7.354,0,0,1-1.032.241,1.325,1.325,0,0,1-.365.047" transform="translate(-109.091 -25.594)" fill="#455a64"/>
        <path id="Trazado_635898" data-name="Trazado 635898" d="M603.384,194.3c-2.83-1.615-7.456-1.662-7.456-1.662l-9.029-.62s-4.439,7.174-11.176,7.145-7.786-4.476-7.786-4.476-11.253,2.662-17.261,9.994c7.649,5.489,16.425,9.026,27.521,8.544,9.913-.135,22.441-5.233,30.044-14.461a15.615,15.615,0,0,0-4.858-4.463" transform="translate(-101.62 -35.434)" fill="#ffb338"/>
        <path id="Trazado_635899" data-name="Trazado 635899" d="M614.737,153.59s-.042-.23-.1-.679-.149-1.126-.264-1.995q-.084-.659-.189-1.469c-.094-.537-.25-1.114-.389-1.744s-.3-1.308-.469-2.032a7.16,7.16,0,0,0-.32-1.1q-.19-.563-.391-1.158a40.3,40.3,0,0,0-5.459-10.874,42.051,42.051,0,0,0-11.533-11.177l-1.913-1.226c-.668-.373-1.368-.709-2.062-1.072-.705-.338-1.381-.762-2.133-1.041l-2.256-.893c-.381-.148-.76-.307-1.147-.448l-1.2-.342-2.425-.7c-.822-.209-1.675-.32-2.523-.488a21.5,21.5,0,0,0-2.583-.4,39.157,39.157,0,0,0-5.355-.24c-.908.033-1.827.008-2.746.087l-2.769.34c-.464.065-.935.1-1.4.19l-1.385.314c-.924.221-1.867.4-2.794.658a44.628,44.628,0,0,0-5.484,2.039l-1.357.609c-.226.1-.457.2-.679.312l-.65.372-2.621,1.5c-.853.543-1.664,1.164-2.5,1.747-.411.3-.853.572-1.24.912l-1.171,1.013a47.452,47.452,0,0,0-4.477,4.385l-1.969,2.5-.495.63-.437.672-.87,1.354-.874,1.36-.748,1.441-.746,1.451-.374.727c-.11.25-.2.506-.307.76q-.607,1.524-1.217,3.062-.459,1.589-.92,3.189a41.721,41.721,0,0,0,1.871,26.5l1.359,3.029,1.636,2.861.41.709.473.667.943,1.331.943,1.323,1.057,1.224L541.538,185l.527.605.579.553,2.3,2.2A47.434,47.434,0,0,0,550,192.067l1.3.838c.431.282.907.484,1.356.728.915.459,1.805.959,2.726,1.377l2.806,1.117.7.277c.236.08.478.141.716.212l1.43.413a44.6,44.6,0,0,0,5.718,1.247c.953.127,1.912.17,2.858.258l1.416.116c.471.029.942-.007,1.41-.008l2.791-.054c.921-.051,1.827-.2,2.731-.3a39.131,39.131,0,0,0,5.269-.992,21.359,21.359,0,0,0,2.5-.757c.815-.285,1.644-.515,2.428-.838l2.3-1.03,1.136-.507,1.072-.605,2.107-1.2c.7-.382,1.315-.9,1.966-1.332.636-.457,1.282-.888,1.89-1.352l1.721-1.483a42.037,42.037,0,0,0,9.844-12.689,40.314,40.314,0,0,0,3.873-11.533l.224-1.2a7.258,7.258,0,0,0,.161-1.138q.1-1.111.178-2.078c.049-.643.122-1.237.139-1.781q-.011-.817-.02-1.482-.012-1.314-.02-2.012c0-.453.008-.687.008-.687s.02.232.036.684.034,1.137.061,2.013q.018.667.04,1.485c-.011.546-.078,1.142-.119,1.787s-.1,1.342-.16,2.086a7.194,7.194,0,0,1-.152,1.144L614.228,164a40.145,40.145,0,0,1-3.824,11.611,42.14,42.14,0,0,1-9.858,12.808l-1.729,1.5c-.611.47-1.26.906-1.9,1.368-.655.44-1.269.959-1.977,1.346l-2.121,1.217-1.08.612-1.143.515-2.32,1.044c-.79.327-1.625.562-2.446.851a21.874,21.874,0,0,1-2.521.768A39.494,39.494,0,0,1,578,198.649c-.911.1-1.825.254-2.754.307l-2.814.06c-.473,0-.948.038-1.423.011l-1.429-.114c-.954-.088-1.922-.13-2.885-.257a45.01,45.01,0,0,1-5.772-1.249l-1.443-.415c-.24-.072-.484-.134-.723-.214l-.7-.279-2.834-1.125c-.93-.421-1.829-.924-2.754-1.386-.453-.246-.934-.45-1.369-.734l-1.315-.845a47.819,47.819,0,0,1-5.1-3.744l-2.325-2.22-.585-.559-.533-.61-1.063-1.23-1.068-1.235-.954-1.334-.953-1.345-.478-.674-.415-.716-1.653-2.889q-.685-1.524-1.374-3.06a42.088,42.088,0,0,1-1.89-26.761l.93-3.222,1.23-3.092c.1-.255.2-.515.311-.767l.378-.735.754-1.464.757-1.455.884-1.374.879-1.367.443-.678.5-.634,1.99-2.525a47.864,47.864,0,0,1,4.524-4.423l1.183-1.021c.391-.342.838-.612,1.253-.92.85-.587,1.669-1.212,2.53-1.76l2.648-1.512.656-.375c.225-.113.458-.208.686-.313l1.371-.613a44.777,44.777,0,0,1,5.538-2.049c.935-.262,1.887-.439,2.82-.66l1.4-.315c.466-.095.942-.125,1.41-.189l2.794-.338c.927-.078,1.854-.052,2.77-.083a39.532,39.532,0,0,1,5.4.253,21.859,21.859,0,0,1,2.6.405c.855.171,1.713.286,2.542.5l2.444.706,1.2.348c.391.144.771.3,1.155.454l2.271.907c.756.283,1.437.712,2.147,1.054.7.368,1.4.709,2.073,1.087l1.924,1.241A42.145,42.145,0,0,1,607.347,132.4a40.142,40.142,0,0,1,5.421,10.958q.2.6.384,1.165a7.4,7.4,0,0,1,.311,1.111q.241,1.092.451,2.043c.133.634.282,1.214.37,1.753q.093.813.169,1.476.145,1.308.223,2c.047.451.061.683.061.683" transform="translate(-97.816 -21.059)" fill="#263238"/>
      </g>
    </g>
    <g id="Grupo_881561" data-name="Grupo 881561">
      <g id="Grupo_881560" data-name="Grupo 881560" clip-path="url(#clip-path)">
        <path id="Trazado_635900" data-name="Trazado 635900" d="M515.251,68.434A27.226,27.226,0,1,1,489.85,39.5a27.226,27.226,0,0,1,25.4,28.937" transform="translate(-85.045 -7.278)" fill="#fff"/>
        <path id="Trazado_635901" data-name="Trazado 635901" d="M485.823,82.378c0-1.7,0-3.112-.01-3.285,0,0-5.738-.543-6.149-6.222-.2-2.744-.148-8.429-.043-13.573a10.607,10.607,0,0,1,9.971-10.363l.548-.033c5.933-.01,9.256,5.024,9.1,10.956l-.209,22.263-9.6,7.708-.7-.062Z" transform="translate(-88.491 -9.024)" fill="#ffc09d"/>
        <path id="Trazado_635902" data-name="Trazado 635902" d="M487.234,85.329A13.752,13.752,0,0,0,494.5,82.7s-1.556,4.26-7.258,4.089Z" transform="translate(-89.913 -15.261)" fill="#ff9b6c"/>
        <path id="Trazado_635903" data-name="Trazado 635903" d="M491.495,64.433c.111.117.773-.4,1.724-.416s1.655.462,1.756.341c.05-.054-.064-.265-.372-.486a2.374,2.374,0,0,0-1.407-.419,2.291,2.291,0,0,0-1.37.479c-.289.234-.385.449-.33.5" transform="translate(-90.696 -11.709)" fill="#263238"/>
        <path id="Trazado_635904" data-name="Trazado 635904" d="M492.359,67.673a.768.768,0,0,0,.787.73.735.735,0,0,0,.749-.74.769.769,0,0,0-.786-.731.736.736,0,0,0-.75.74" transform="translate(-90.858 -12.352)" fill="#263238"/>
        <path id="Trazado_635905" data-name="Trazado 635905" d="M487.962,71.072a5.794,5.794,0,0,0-1.434-.17c-.224-.01-.438-.042-.485-.192a1.14,1.14,0,0,1,.109-.669l.558-1.738a29.258,29.258,0,0,0,1.214-4.532,29.384,29.384,0,0,0-1.576,4.423q-.276.914-.529,1.746a1.293,1.293,0,0,0-.063.882.561.561,0,0,0,.386.3,1.517,1.517,0,0,0,.382.029,5.67,5.67,0,0,0,1.438-.084" transform="translate(-89.629 -11.768)" fill="#263238"/>
        <path id="Trazado_635906" data-name="Trazado 635906" d="M492.078,60.758c.089.212.852.063,1.762.122.912.039,1.657.269,1.765.068.047-.1-.091-.292-.4-.484a2.882,2.882,0,0,0-1.329-.392,2.849,2.849,0,0,0-1.359.249c-.323.158-.48.338-.441.439" transform="translate(-90.805 -11.085)" fill="#263238"/>
        <path id="Trazado_635907" data-name="Trazado 635907" d="M481.143,61.416c.1.173.842-.008,1.74-.024.9-.032,1.644.108,1.741-.069.043-.086-.1-.241-.415-.382a3.13,3.13,0,0,0-1.326-.237,3.242,3.242,0,0,0-1.326.309c-.312.157-.457.32-.414.4" transform="translate(-88.787 -11.202)" fill="#263238"/>
        <path id="Trazado_635908" data-name="Trazado 635908" d="M503.444,67.472c.095-.047,3.835-1.39,3.944,2.5s-3.821,3.2-3.831,3.088-.113-5.592-.113-5.592" transform="translate(-92.904 -12.403)" fill="#ffc09d"/>
        <path id="Trazado_635909" data-name="Trazado 635909" d="M504.989,71.836c.017-.013.069.046.185.1a.683.683,0,0,0,.507,0,1.681,1.681,0,0,0,.735-1.527,2.233,2.233,0,0,0-.218-.966.783.783,0,0,0-.524-.506.347.347,0,0,0-.4.2c-.049.11-.022.187-.042.194s-.086-.063-.058-.224a.428.428,0,0,1,.146-.248.51.51,0,0,1,.372-.11.955.955,0,0,1,.726.584,2.3,2.3,0,0,1,.265,1.078,1.76,1.76,0,0,1-.942,1.709.726.726,0,0,1-.623-.086c-.123-.093-.146-.179-.133-.187" transform="translate(-93.188 -12.684)" fill="#ff9b6c"/>
        <path id="Trazado_635910" data-name="Trazado 635910" d="M489.954,76.221c-.042-.1.724-.317,1.269-1.026a4.373,4.373,0,0,0,.552-1.009c.117-.281.205-.457.247-.444s.027.2-.039.51a2.881,2.881,0,0,1-.515,1.132,2.328,2.328,0,0,1-1,.748c-.3.117-.5.121-.51.088" transform="translate(-90.414 -13.608)" fill="#263238"/>
        <path id="Trazado_635911" data-name="Trazado 635911" d="M503.61,57.087a19.038,19.038,0,0,1-1.384-4.559c-.423-1.537-1.256-3.134-2.751-3.688l-.034.014a4.094,4.094,0,0,0-4.121.333,5.325,5.325,0,0,0-3.967-4.193,13.177,13.177,0,0,0-7.04.462,14.455,14.455,0,0,0-4.644,3.51,19.091,19.091,0,0,0-2.016,2.38l-1.785,5.278,1.434,2.8c.086.19.174.38.282.569v-.013l1.25,5.874c.1-1.6.06-7.153.165-8.75a8.906,8.906,0,0,0,6.386-2.85c.885-.955,1.586-2.156,2.76-2.719,1.514-.725,3.3-.16,4.878.411l-.066-.061a7.125,7.125,0,0,1,2.177,1.615,22.128,22.128,0,0,0,.837,9.384c.143.455.537,1.394.979,1.571.869.349,1.116-.537,1.648-1a2.311,2.311,0,0,1,1.594-.371,34.924,34.924,0,0,0,1.12-4.023,3.548,3.548,0,0,0,1.632.13l-.487-1.209a1.865,1.865,0,0,0,.695.325.635.635,0,0,0,.667-.281c.152-.3-.046-.643-.211-.932" transform="translate(-87.815 -8.25)" fill="#263238"/>
        <path id="Trazado_635912" data-name="Trazado 635912" d="M497.522,50.971a5.008,5.008,0,0,1,.562.528,4.083,4.083,0,0,1,.847,1.9,7.119,7.119,0,0,1,.126,1.444c0,.523-.054,1.082-.1,1.671a15.152,15.152,0,0,0-.067,1.861,6.518,6.518,0,0,0,.116.983,2.059,2.059,0,0,0,.387.957.858.858,0,0,0,.8.279,1.279,1.279,0,0,0,.727-.4,2.949,2.949,0,0,0,.566-1.436l-.119.013a4.712,4.712,0,0,0,.674,1.2,1.685,1.685,0,0,0,1.1.616,1.09,1.09,0,0,0,.586-.095.949.949,0,0,0,.4-.387.972.972,0,0,0,.127-.5.7.7,0,0,0-.177-.444l-.061.053a3.653,3.653,0,0,0,1.208.93,3.116,3.116,0,0,0,.376.152.655.655,0,0,0,.135.036.636.636,0,0,0-.127-.056c-.084-.036-.208-.088-.365-.17a3.783,3.783,0,0,1-1.164-.943l-.06.053a.729.729,0,0,1,.026.844.85.85,0,0,1-.363.342,1,1,0,0,1-.532.08,1.589,1.589,0,0,1-1.018-.585,4.721,4.721,0,0,1-.65-1.172l-.078-.183-.042.2a2.835,2.835,0,0,1-.538,1.372,1.144,1.144,0,0,1-.65.356.722.722,0,0,1-.677-.236,1.936,1.936,0,0,1-.358-.9,6.294,6.294,0,0,1-.115-.963,15.163,15.163,0,0,1,.059-1.845c.044-.589.089-1.151.089-1.68a7.018,7.018,0,0,0-.144-1.463,4.01,4.01,0,0,0-.9-1.911,2.309,2.309,0,0,0-.6-.494" transform="translate(-91.811 -9.406)" fill="#455a64"/>
        <path id="Trazado_635913" data-name="Trazado 635913" d="M475.907,55.535s.014.015.045.039l.14.105a1.867,1.867,0,0,0,.239.157,3.061,3.061,0,0,0,.342.187,5.047,5.047,0,0,0,2.424.468,6.437,6.437,0,0,0,3.441-1.221,11.131,11.131,0,0,0,2.985-3.353c.422-.682.767-1.381,1.147-2.027a7.515,7.515,0,0,1,1.29-1.712,3.888,3.888,0,0,1,1.648-.971,2.8,2.8,0,0,1,.864-.088,3.043,3.043,0,0,1,.788.162,3.284,3.284,0,0,1,1.8,1.567,3.866,3.866,0,0,1,.282.855.193.193,0,0,0,0-.06l-.024-.175a2.8,2.8,0,0,0-.207-.643,3.216,3.216,0,0,0-.624-.869,3.33,3.33,0,0,0-1.194-.763,3.138,3.138,0,0,0-.813-.175,2.858,2.858,0,0,0-.9.084,3.967,3.967,0,0,0-1.7.988,7.6,7.6,0,0,0-1.318,1.734c-.384.651-.73,1.349-1.147,2.024a11.14,11.14,0,0,1-2.944,3.323,6.4,6.4,0,0,1-3.375,1.226,5.113,5.113,0,0,1-2.4-.422,8.119,8.119,0,0,1-.789-.441" transform="translate(-87.822 -8.676)" fill="#455a64"/>
        <path id="Trazado_635914" data-name="Trazado 635914" d="M480.864,64.735c.111.117.773-.4,1.724-.416s1.655.462,1.756.341c.05-.054-.064-.265-.372-.486a2.374,2.374,0,0,0-1.408-.419,2.291,2.291,0,0,0-1.37.479c-.289.234-.385.449-.33.5" transform="translate(-88.734 -11.765)" fill="#263238"/>
        <path id="Trazado_635915" data-name="Trazado 635915" d="M482.649,67.813a.769.769,0,0,0,.787.73.736.736,0,0,0,.749-.74.769.769,0,0,0-.786-.731.736.736,0,0,0-.75.74" transform="translate(-89.066 -12.377)" fill="#263238"/>
        <path id="Trazado_635916" data-name="Trazado 635916" d="M477.5,52.053a2.43,2.43,0,0,1-2.022,1.133,5.951,5.951,0,0,1-.846-.249c-.278.169-.213,1.12-.022,1.382a5.085,5.085,0,0,0,.6.617,3.148,3.148,0,0,1-2.777-.11,4.878,4.878,0,0,0,2.895,3.912,1.71,1.71,0,0,0,1.567.031,1.969,1.969,0,0,0,.689-1.222,21.335,21.335,0,0,0,.7-5.217Z" transform="translate(-87.181 -9.606)" fill="#263238"/>
        <path id="Trazado_635917" data-name="Trazado 635917" d="M508.491,91.841a12.975,12.975,0,0,0-5-1.854l-6.186-1.28s-3.748,4.543-8.4,3.887-4.963-3.83-4.963-3.83-8.8,1.456-13.649,5.959a28.051,28.051,0,0,0,17.766,8.2c6.869.842,16.134-2.588,22.269-9.254,0,0,.143-.317-1.833-1.832" transform="translate(-86.786 -16.37)" fill="#455a64"/>
        <path id="Trazado_635918" data-name="Trazado 635918" d="M515.207,68.4s-.012-.151-.016-.443c0-.308,0-.739,0-1.294q0-.429,0-.953c-.015-.35-.065-.731-.1-1.146a19.794,19.794,0,0,0-.385-2.838,25.994,25.994,0,0,0-2.544-7.4,27.193,27.193,0,0,0-17.417-13.888,25.283,25.283,0,0,0-3.387-.616c-.581-.058-1.163-.152-1.755-.182l-1.792-.023c-.3,0-.6-.02-.905,0L486,39.7c-.607.06-1.222.091-1.834.177a28.725,28.725,0,0,0-3.666.822,28.345,28.345,0,0,0-3.617,1.318c-.59.272-1.159.6-1.744.895a13.64,13.64,0,0,0-1.7,1.015,30.332,30.332,0,0,0-3.228,2.4,30.663,30.663,0,0,0-2.845,2.953,26.161,26.161,0,0,0-4.337,7.177,28.88,28.88,0,0,0-1.944,8.414,28.877,28.877,0,0,0,.835,8.6,26.169,26.169,0,0,0,3.37,7.68,24.686,24.686,0,0,0,5.328,6.1,13.8,13.8,0,0,0,1.554,1.228c.542.371,1.065.767,1.614,1.113a28.235,28.235,0,0,0,3.418,1.775,28.574,28.574,0,0,0,3.528,1.291c.6.164,1.2.275,1.8.413l.891.2c.3.059.6.077.9.117l1.78.21c.59.047,1.181.029,1.764.047a25.2,25.2,0,0,0,3.438-.172,27.2,27.2,0,0,0,19.071-11.514,25.973,25.973,0,0,0,3.48-7,19.7,19.7,0,0,0,.75-2.764c.088-.406.188-.777.247-1.123q.066-.519.121-.945.109-.826.17-1.283c.041-.289.073-.437.073-.437s0,.149-.029.44c-.03.307-.073.736-.128,1.291l-.1.951c-.053.348-.146.722-.228,1.132A19.384,19.384,0,0,1,514,75a25.821,25.821,0,0,1-3.441,7.087,27.374,27.374,0,0,1-19.225,11.73,25.462,25.462,0,0,1-3.484.185c-.59-.016-1.189,0-1.787-.043l-1.8-.206c-.3-.04-.609-.058-.911-.117l-.9-.2c-.6-.139-1.217-.25-1.822-.415a28.911,28.911,0,0,1-3.582-1.3,28.58,28.58,0,0,1-3.471-1.8c-.558-.35-1.089-.75-1.64-1.126a14.033,14.033,0,0,1-1.58-1.244,30.656,30.656,0,0,1-2.937-2.839,31.036,31.036,0,0,1-2.48-3.345,26.555,26.555,0,0,1-3.428-7.8,29.262,29.262,0,0,1-.851-8.734,29.255,29.255,0,0,1,1.977-8.546,26.558,26.558,0,0,1,4.41-7.285,31.023,31.023,0,0,1,2.892-2.994,30.634,30.634,0,0,1,3.28-2.433,14.1,14.1,0,0,1,1.727-1.028c.594-.3,1.173-.629,1.772-.9a28.377,28.377,0,0,1,3.673-1.33,29.015,29.015,0,0,1,3.72-.826c.621-.086,1.245-.115,1.86-.175l.922-.078c.306-.02.612,0,.917,0l1.816.029c.6.032,1.19.129,1.778.189a25.388,25.388,0,0,1,3.43.635,27.369,27.369,0,0,1,17.542,14.121,25.819,25.819,0,0,1,2.495,7.474,19.4,19.4,0,0,1,.349,2.859c.029.416.072.8.08,1.151q-.013.526-.024.957c-.017.556-.03.988-.04,1.3-.011.292-.028.44-.028.44" transform="translate(-85.001 -7.24)" fill="#263238"/>
      </g>
    </g>
    <g id="Grupo_881569" data-name="Grupo 881569">
      <g id="Grupo_881568" data-name="Grupo 881568" clip-path="url(#clip-path)">
        <path id="Trazado_635919" data-name="Trazado 635919" d="M146.062,94.828a58.85,58.85,0,1,1-58.85-58.85,58.851,58.851,0,0,1,58.85,58.85" transform="translate(-5.234 -6.639)" fill="#ff725e"/>
        <g id="Grupo_881564" data-name="Grupo 881564" transform="translate(23.127 29.339)" opacity="0.3">
          <g id="Grupo_881563" data-name="Grupo 881563">
            <g id="Grupo_881562" data-name="Grupo 881562" clip-path="url(#clip-path-12)">
              <path id="Trazado_635920" data-name="Trazado 635920" d="M146.062,94.828a58.85,58.85,0,1,1-58.85-58.85,58.851,58.851,0,0,1,58.85,58.85" transform="translate(-28.36 -35.978)"/>
            </g>
          </g>
        </g>
        <path id="Trazado_635921" data-name="Trazado 635921" d="M144.118,90.215a58.851,58.851,0,1,1-58.85-58.85,58.851,58.851,0,0,1,58.85,58.85" transform="translate(-4.875 -5.788)" fill="#ffb338"/>
        <path id="Trazado_635922" data-name="Trazado 635922" d="M134.006,93.173A45.781,45.781,0,1,1,88.225,47.392a45.781,45.781,0,0,1,45.781,45.781" transform="translate(-7.832 -8.746)" fill="#fff"/>
        <path id="Trazado_635923" data-name="Trazado 635923" d="M123.507,96.244A32.211,32.211,0,1,1,91.3,64.032a32.211,32.211,0,0,1,32.212,32.212" transform="translate(-10.903 -11.816)" fill="#ffb338"/>
        <path id="Trazado_635924" data-name="Trazado 635924" d="M111.735,99.687a17,17,0,1,1-17-17,17,17,0,0,1,17,17" transform="translate(-14.347 -15.26)" fill="#fff"/>
        <path id="Trazado_635925" data-name="Trazado 635925" d="M154.056,39.145l-1.6-12.556,12.781-13.678.919,13.549Z" transform="translate(-28.134 -2.383)" fill="#455a64"/>
        <path id="Trazado_635926" data-name="Trazado 635926" d="M182.181,32.59l-12.966-1.055-13,12.5,13,1.39Z" transform="translate(-28.828 -5.819)" fill="#455a64"/>
        <g id="Grupo_881567" data-name="Grupo 881567" transform="translate(80.392 43.233)" opacity="0.3">
          <g id="Grupo_881566" data-name="Grupo 881566">
            <g id="Grupo_881565" data-name="Grupo 881565" clip-path="url(#clip-path-13)">
              <path id="Trazado_635927" data-name="Trazado 635927" d="M98.585,95.2,146.9,60.6a65.742,65.742,0,0,0-6.134-7.583L99.378,93.033Z" transform="translate(-98.585 -53.016)"/>
            </g>
          </g>
        </g>
        <path id="Trazado_635928" data-name="Trazado 635928" d="M157.717,26.21l-6.064,6.144L137.094,47.107,119.556,64.879,104.32,80.317c-2.467,2.5-5.045,4.927-7.418,7.516-.034.037-.071.072-.106.108-1.433,1.452.8,3.692,2.238,2.238l6.064-6.144,14.559-14.753L137.2,51.511l15.236-15.438c2.467-2.5,5.045-4.927,7.418-7.516.033-.037.071-.072.106-.108,1.432-1.452-.8-3.692-2.238-2.238" transform="translate(-17.777 -4.75)" fill="#263238"/>
      </g>
    </g>
  </g>
</svg>
