<svg xmlns="http://www.w3.org/2000/svg" xmlns:xlink="http://www.w3.org/1999/xlink" width="150" height="150" viewBox="0 0 150 150">
  <defs>
    <filter id="Elipse_6993" x="0" y="0" width="150" height="150" filterUnits="userSpaceOnUse">
      <feOffset dy="3" input="SourceAlpha"/>
      <feGaussianBlur stdDeviation="3" result="blur"/>
      <feFlood flood-opacity="0.161"/>
      <feComposite operator="in" in2="blur"/>
      <feComposite in="SourceGraphic"/>
    </filter>
  </defs>
  <g id="Grupo_1034490" data-name="Grupo 1034490" transform="translate(-368.743 -4691.854)">
    <g transform="matrix(1, 0, 0, 1, 368.74, 4691.85)" filter="url(#Elipse_6993)">
      <circle id="Elipse_6993-2" data-name="Elipse 6993" cx="66" cy="66" r="66" transform="translate(9 6)" fill="#b6e1fd"/>
    </g>
    <g id="Grupo_883448" data-name="Grupo 883448" transform="translate(409.011 4725.331)">
      <ellipse id="Elipse_6995" data-name="Elipse 6995" cx="19" cy="18.5" rx="19" ry="18.5" transform="translate(15.732 0.481)" fill="#12263f"/>
      <path id="Trazado_642516" data-name="Trazado 642516" d="M47.1,13.249,44.477,36.487l-6-17.991,3.748-4.872C42.978,12.5,41.854,11,40.354,11h-7.5a2,2,0,0,0-1.874,2.624L34.358,18.5l-6,17.991-3-24.362C11.12,16.622,1,29.365,1,44.732H68.465A34.039,34.039,0,0,0,47.1,13.249ZM19.74,37.236h-7.5V31.614a1.771,1.771,0,0,1,1.874-1.874h3.748a1.771,1.771,0,0,1,1.874,1.874Z" transform="translate(0 30.229)" fill="#12263f"/>
    </g>
  </g>
</svg>
