<svg xmlns="http://www.w3.org/2000/svg" xmlns:xlink="http://www.w3.org/1999/xlink" width="610" height="353" viewBox="0 0 610 353">
  <defs>
    <clipPath id="clip-path">
      <rect id="Rectángulo_329758" data-name="Rectángulo 329758" width="520.874" height="352.569" fill="none"/>
    </clipPath>
  </defs>
  <g id="Grupo_1034558" data-name="Grupo 1034558" transform="translate(-810 -1734.344)">
    <path id="Trazado_634276" data-name="Trazado 634276" d="M566.631,442.688s-.471.009-1.388,0l-4.075-.027-15.665-.149-57.615-.451c-24.326-.165-53.29-.246-85.453-.312l-104.636.054-190.122.676-57.614.2-15.663.027-4.074,0c-.918,0-1.388-.016-1.388-.016s.471-.016,1.388-.028l4.073-.039,15.664-.108,57.613-.332c48.652-.265,115.867-.633,190.123-.8,37.115-.077,72.475-.08,104.638-.021,32.163.088,61.129.2,85.454.4l32.829.295,24.787.293,15.665.229,4.073.07c.918.018,1.388.039,1.388.039" transform="translate(828.369 1616.077)" fill="#263238"/>
    <g id="Grupo_1034307" data-name="Grupo 1034307" transform="translate(0 35.344)">
      <g id="Grupo_881085" data-name="Grupo 881085" transform="translate(837.44 1699.201)">
        <rect id="Rectángulo_329750" data-name="Rectángulo 329750" width="51.618" height="35.298" transform="translate(231.576 309.012)" fill="#f3f9ff"/>
        <rect id="Rectángulo_329751" data-name="Rectángulo 329751" width="25.165" height="31.863" transform="translate(258.029 309.012)" fill="#f5f5f5"/>
        <g id="Grupo_881084" data-name="Grupo 881084">
          <g id="Grupo_881083" data-name="Grupo 881083" clip-path="url(#clip-path)">
            <path id="Trazado_634556" data-name="Trazado 634556" d="M382.692,495.695H319.331a2.715,2.715,0,0,1-1.822-4.727L325.2,484H376.82l7.694,6.967a2.715,2.715,0,0,1-1.822,4.727" transform="translate(-93.626 -143.125)" fill="#e6e7e8"/>
            <path id="Trazado_634557" data-name="Trazado 634557" d="M416.287,387.371H224.351a11.532,11.532,0,0,1-11.532-11.532V241.985a11.532,11.532,0,0,1,11.532-11.532H416.287a11.531,11.531,0,0,1,11.531,11.532V375.839a11.531,11.531,0,0,1-11.531,11.532" transform="translate(-62.933 -68.148)" fill="#e6e7e8"/>
            <path id="Trazado_634558" data-name="Trazado 634558" d="M416.287,230.453H224.351a11.532,11.532,0,0,0-11.532,11.532v111h215v-111a11.531,11.531,0,0,0-11.531-11.532" transform="translate(-62.933 -68.148)" fill="#404041"/>
            <rect id="Rectángulo_329752" data-name="Rectángulo 329752" width="196.008" height="109.026" transform="translate(159.381 168.865)" fill="#fff"/>
            <path id="Trazado_634559" data-name="Trazado 634559" d="M342.466,412.2h0Z" transform="translate(-101.272 -121.894)" fill="#fff"/>
            <path id="Trazado_634560" data-name="Trazado 634560" d="M368.162,427.684a4.667,4.667,0,1,1-4.667-4.667,4.667,4.667,0,0,1,4.667,4.667" transform="translate(-106.111 -125.092)" fill="#404041"/>
            <path id="Trazado_634561" data-name="Trazado 634561" d="M407.857,263.787a71.822,71.822,0,1,1-71.822-71.822,71.822,71.822,0,0,1,71.822,71.822" transform="translate(-78.131 -56.767)" fill="#eb6f2d"/>
            <path id="Trazado_634562" data-name="Trazado 634562" d="M341.19,328.488a59.545,59.545,0,1,1,59.545-59.545,59.612,59.612,0,0,1-59.545,59.545" transform="translate(-83.286 -61.922)" fill="#ffe3bb"/>
            <path id="Trazado_634563" data-name="Trazado 634563" d="M346.344,321.365A47.267,47.267,0,1,1,393.612,274.1a47.321,47.321,0,0,1-47.268,47.267" transform="translate(-88.441 -67.077)" fill="#eb6f2d"/>
            <path id="Trazado_634564" data-name="Trazado 634564" d="M351.5,314.243a34.99,34.99,0,1,1,34.99-34.99,35.03,35.03,0,0,1-34.99,34.99" transform="translate(-93.596 -72.232)" fill="#ffe3bb"/>
            <path id="Trazado_634565" data-name="Trazado 634565" d="M356.654,307.121a22.713,22.713,0,1,1,22.713-22.713,22.739,22.739,0,0,1-22.713,22.713" transform="translate(-98.751 -77.387)" fill="#eb6f2d"/>
            <path id="Trazado_634566" data-name="Trazado 634566" d="M361.809,300a10.436,10.436,0,1,1,10.435-10.435A10.447,10.447,0,0,1,361.809,300" transform="translate(-103.906 -82.542)" fill="#ffe3bb"/>
            <path id="Trazado_634567" data-name="Trazado 634567" d="M361.518,262.364h0a3.729,3.729,0,0,1,1.059-2.143l68.553-68.553,2.635,2.635,2.635,2.636-68.553,68.553a3.728,3.728,0,0,1-6.33-3.128" transform="translate(-106.896 -56.679)" fill="#fff"/>
            <path id="Trazado_634568" data-name="Trazado 634568" d="M368.307,266.6a3.726,3.726,0,0,1-5.271,0l71.189-71.189,2.635,2.635Z" transform="translate(-107.355 -57.786)" fill="#e6e7e8"/>
            <path id="Trazado_634569" data-name="Trazado 634569" d="M447.233,181.008l-.967-25.39-30.328,30.329.966,25.39Z" transform="translate(-122.998 -46.018)" fill="#038a7b"/>
            <path id="Trazado_634570" data-name="Trazado 634570" d="M455.123,199.153l25.39.967-30.329,30.328-25.39-.966Z" transform="translate(-125.617 -58.892)" fill="#038a7b"/>
            <path id="Trazado_634571" data-name="Trazado 634571" d="M557.536,227.005c-16.528,0-29.927,8.148-29.927,18.2,0,5.771,4.422,10.91,11.311,14.244l-2.807,13.467,13.983-10.08a48.517,48.517,0,0,0,7.441.568c16.528,0,29.927-8.148,29.927-18.2s-13.4-18.2-29.927-18.2" transform="translate(-156.021 -67.128)" fill="#f6f6f6"/>
            <path id="Trazado_634572" data-name="Trazado 634572" d="M621.724,259.852c0-8.43-9.428-15.519-22.22-17.587a14.441,14.441,0,0,1,2.124,7.452c0,5.741-3.527,11.047-9.931,14.941-6.027,3.665-13.991,5.684-22.423,5.684-.659,0-1.316-.015-1.971-.039,5.415,4.684,14.363,7.748,24.494,7.748a48.512,48.512,0,0,0,7.441-.567l13.065,6.434-1.889-9.821c6.889-3.334,11.311-8.474,11.311-14.244" transform="translate(-167.759 -71.641)" fill="#2b95f9"/>
            <path id="Trazado_634573" data-name="Trazado 634573" d="M209.543,187.036h53.8v-61h-53.8Zm7.259-4.3a1.508,1.508,0,0,1-1.508,1.508h-1.833a1.507,1.507,0,0,1-1.508-1.508v-3.522a1.508,1.508,0,0,1,1.508-1.509h1.833a1.508,1.508,0,0,1,1.508,1.509Zm0-9.775a1.508,1.508,0,0,1-1.508,1.508h-1.833a1.507,1.507,0,0,1-1.508-1.508v-3.522a1.508,1.508,0,0,1,1.508-1.509h1.833a1.508,1.508,0,0,1,1.508,1.509Zm0-9.775a1.508,1.508,0,0,1-1.508,1.508h-1.833a1.507,1.507,0,0,1-1.508-1.508v-3.522a1.508,1.508,0,0,1,1.508-1.509h1.833a1.508,1.508,0,0,1,1.508,1.509Zm0-9.775a1.508,1.508,0,0,1-1.508,1.508h-1.833a1.507,1.507,0,0,1-1.508-1.508v-3.522a1.508,1.508,0,0,1,1.508-1.509h1.833a1.508,1.508,0,0,1,1.508,1.509Zm0-9.776a1.508,1.508,0,0,1-1.508,1.508h-1.833a1.507,1.507,0,0,1-1.508-1.508v-3.522a1.508,1.508,0,0,1,1.508-1.509h1.833a1.508,1.508,0,0,1,1.508,1.509Zm0-9.775a1.508,1.508,0,0,1-1.508,1.508h-1.833a1.507,1.507,0,0,1-1.508-1.508v-3.522a1.508,1.508,0,0,1,1.508-1.509h1.833a1.508,1.508,0,0,1,1.508,1.509Zm44.127,48.877a1.508,1.508,0,0,1-1.508,1.508h-1.833a1.508,1.508,0,0,1-1.508-1.508v-3.522a1.508,1.508,0,0,1,1.508-1.509h1.833a1.508,1.508,0,0,1,1.508,1.509Zm0-9.775a1.508,1.508,0,0,1-1.508,1.508h-1.833a1.508,1.508,0,0,1-1.508-1.508v-3.522a1.508,1.508,0,0,1,1.508-1.509h1.833a1.508,1.508,0,0,1,1.508,1.509Zm0-9.775a1.508,1.508,0,0,1-1.508,1.508h-1.833a1.508,1.508,0,0,1-1.508-1.508v-3.522a1.508,1.508,0,0,1,1.508-1.509h1.833a1.508,1.508,0,0,1,1.508,1.509Zm0-9.775a1.508,1.508,0,0,1-1.508,1.508h-1.833a1.508,1.508,0,0,1-1.508-1.508v-3.522a1.508,1.508,0,0,1,1.508-1.509h1.833a1.508,1.508,0,0,1,1.508,1.509Zm0-9.776a1.508,1.508,0,0,1-1.508,1.508h-1.833a1.508,1.508,0,0,1-1.508-1.508v-3.522a1.508,1.508,0,0,1,1.508-1.509h1.833a1.508,1.508,0,0,1,1.508,1.509Zm0-9.775a1.508,1.508,0,0,1-1.508,1.508h-1.833a1.508,1.508,0,0,1-1.508-1.508v-3.522a1.508,1.508,0,0,1,1.508-1.509h1.833a1.508,1.508,0,0,1,1.508,1.509Z" transform="translate(-61.965 -37.271)" fill="#617a0b"/>
            <path id="Trazado_634574" data-name="Trazado 634574" d="M274.633,126.038h-26.9v61h26.9Zm-2.41,56.7a1.508,1.508,0,0,1-1.508,1.508h-1.833a1.508,1.508,0,0,1-1.508-1.508v-3.522a1.508,1.508,0,0,1,1.508-1.509h1.833a1.508,1.508,0,0,1,1.508,1.509Zm0-9.775a1.508,1.508,0,0,1-1.508,1.508h-1.833a1.508,1.508,0,0,1-1.508-1.508v-3.522a1.508,1.508,0,0,1,1.508-1.509h1.833a1.508,1.508,0,0,1,1.508,1.509Zm0-9.775a1.508,1.508,0,0,1-1.508,1.508h-1.833a1.508,1.508,0,0,1-1.508-1.508v-3.522a1.508,1.508,0,0,1,1.508-1.509h1.833a1.508,1.508,0,0,1,1.508,1.509Zm0-9.775a1.508,1.508,0,0,1-1.508,1.508h-1.833a1.508,1.508,0,0,1-1.508-1.508v-3.522a1.508,1.508,0,0,1,1.508-1.509h1.833a1.508,1.508,0,0,1,1.508,1.509Zm0-9.776a1.508,1.508,0,0,1-1.508,1.508h-1.833a1.508,1.508,0,0,1-1.508-1.508v-3.522a1.508,1.508,0,0,1,1.508-1.509h1.833a1.508,1.508,0,0,1,1.508,1.509Zm0-9.775a1.508,1.508,0,0,1-1.508,1.508h-1.833a1.508,1.508,0,0,1-1.508-1.508v-3.522a1.508,1.508,0,0,1,1.508-1.509h1.833a1.508,1.508,0,0,1,1.508,1.509Z" transform="translate(-73.259 -37.271)" fill="#3d672f"/>
            <path id="Trazado_634575" data-name="Trazado 634575" d="M232.873,155.972v16.563a3.834,3.834,0,0,0,5.865,3.252L252,167.506A3.835,3.835,0,0,0,252,161l-13.265-8.281a3.834,3.834,0,0,0-5.865,3.252" transform="translate(-68.864 -44.987)" fill="#ffecbe"/>
            <path id="Trazado_634576" data-name="Trazado 634576" d="M110.612,201.38,88.817,216.927l1.1-23,20.69-25.134Z" transform="translate(-26.265 -49.913)" fill="#eb6f2d"/>
            <path id="Trazado_634577" data-name="Trazado 634577" d="M158.2,201.38l21.794,15.547-1.1-23L158.2,168.788Z" transform="translate(-46.782 -49.913)" fill="#eb6f2d"/>
            <path id="Trazado_634578" data-name="Trazado 634578" d="M88.817,225.09l21.794-15.547v-13.15L89.47,211.474Z" transform="translate(-26.264 -58.076)" fill="#e44e00"/>
            <path id="Trazado_634579" data-name="Trazado 634579" d="M158.2,196.394v13.15l21.794,15.547-.654-13.616Z" transform="translate(-46.782 -58.076)" fill="#e44e00"/>
            <rect id="Rectángulo_329753" data-name="Rectángulo 329753" width="35.606" height="79.134" transform="translate(79.708 76.876)" fill="#b6e1fd"/>
            <rect id="Rectángulo_329754" data-name="Rectángulo 329754" width="17.803" height="79.134" transform="translate(97.511 76.876)" fill="#8ac5ff"/>
            <path id="Trazado_634580" data-name="Trazado 634580" d="M148.288,228.171H111.344a3.327,3.327,0,1,1,0-6.655h36.944a3.327,3.327,0,1,1,0,6.655" transform="translate(-31.942 -65.505)" fill="#e44e00"/>
            <path id="Trazado_634581" data-name="Trazado 634581" d="M112.392,229.568h34.846c2.417,0,4.376-1.49,4.376-3.328h-43.6c0,1.838,1.959,3.328,4.376,3.328" transform="translate(-31.942 -66.902)" fill="#b8404c"/>
            <path id="Trazado_634582" data-name="Trazado 634582" d="M153.018,237.077h-48.4l5.72-6.862H147.3Z" transform="translate(-30.938 -68.078)" fill="#2b95f9"/>
            <path id="Trazado_634583" data-name="Trazado 634583" d="M107.366,235.286l-2.743,3.29h48.4l-2.742-3.29Z" transform="translate(-30.939 -69.577)" fill="#038a7b"/>
            <path id="Trazado_634584" data-name="Trazado 634584" d="M113.175,98.589h35.606L133.949,74.852c-1.19-1.9-4.753-1.9-5.943,0Z" transform="translate(-33.467 -21.712)" fill="#eb6f2d"/>
            <path id="Trazado_634585" data-name="Trazado 634585" d="M146.441,134.858A12.859,12.859,0,1,1,133.581,122a12.86,12.86,0,0,1,12.86,12.86" transform="translate(-35.699 -36.076)" fill="#038a7b"/>
            <path id="Trazado_634586" data-name="Trazado 634586" d="M135.218,145.457a8.962,8.962,0,1,1,8.963-8.963,8.973,8.973,0,0,1-8.963,8.963" transform="translate(-37.335 -37.713)" fill="#ffe3bb"/>
            <path id="Trazado_634587" data-name="Trazado 634587" d="M143.979,239.958H116.354s-11.881,8.456-5.079,25.684l3.147-6.2s2.681,22.74,15.744,28.942c13.062-6.2,15.744-28.942,15.744-28.942l3.147,6.2c6.8-17.228-5.079-25.684-5.079-25.684" transform="translate(-32.284 -70.959)" fill="#e37430"/>
            <path id="Trazado_634588" data-name="Trazado 634588" d="M142.506,239.958H123.021s-8.38,5.965-3.582,18.116l2.22-4.374s1.892,16.039,11.1,20.413c9.213-4.374,11.105-20.413,11.105-20.413l2.22,4.374c4.8-12.151-3.583-18.116-3.583-18.116" transform="translate(-34.881 -70.959)" fill="#ffce6b"/>
            <path id="Trazado_634589" data-name="Trazado 634589" d="M608.094,361.515a34.365,34.365,0,1,1-34.366-34.366,34.366,34.366,0,0,1,34.366,34.366" transform="translate(-159.497 -96.742)" fill="#fd4c1b"/>
            <path id="Trazado_634590" data-name="Trazado 634590" d="M605.748,363.212a30.322,30.322,0,1,1-30.322-30.322,30.322,30.322,0,0,1,30.322,30.322" transform="translate(-161.194 -98.44)" fill="#ffef94"/>
            <path id="Trazado_634591" data-name="Trazado 634591" d="M618.479,363.212a30.322,30.322,0,0,0-30.322-30.322v60.645a30.322,30.322,0,0,0,30.322-30.322" transform="translate(-173.926 -98.44)" fill="#f7e477"/>
            <path id="Trazado_634592" data-name="Trazado 634592" d="M595.021,373.805a7.473,7.473,0,0,1-2.71,6.022,13.469,13.469,0,0,1-7.59,2.722v4.832h-3.229v-4.738a26.2,26.2,0,0,1-10.088-2.027v-6.222a27.164,27.164,0,0,0,4.938,1.791,26.445,26.445,0,0,0,5.15.919V369.8l-1.579-.613a17.619,17.619,0,0,1-6.611-3.995,7.679,7.679,0,0,1-1.945-5.339,6.964,6.964,0,0,1,2.675-5.621,13.6,13.6,0,0,1,7.46-2.676v-3.606h3.229v3.512a26.772,26.772,0,0,1,9.759,2.168l-2.216,5.515a25.5,25.5,0,0,0-7.543-1.838v6.953a36.305,36.305,0,0,1,6.541,3.064,8.955,8.955,0,0,1,2.852,2.852,7.075,7.075,0,0,1,.907,3.63m-16.569-13.954a2.236,2.236,0,0,0,.718,1.709,8.542,8.542,0,0,0,2.321,1.379V357.4q-3.04.448-3.04,2.451m9.475,14.308a2.118,2.118,0,0,0-.8-1.673,10.515,10.515,0,0,0-2.4-1.414v5.869q3.206-.542,3.206-2.781" transform="translate(-168.958 -102.893)" fill="#eb6f2d"/>
            <path id="Trazado_634593" data-name="Trazado 634593" d="M376.906,76.614a27.029,27.029,0,1,0-48.584,16.31,33.615,33.615,0,0,1,6.881,20.295v.755h29.348v-.754a34.023,34.023,0,0,1,6.958-20.4,26.906,26.906,0,0,0,5.4-16.208" transform="translate(-95.47 -14.663)" fill="#ffef94"/>
            <path id="Trazado_634594" data-name="Trazado 634594" d="M375.738,113.22a34.019,34.019,0,0,1,6.958-20.4,27.03,27.03,0,0,0-22.017-43.235v64.386h15.059Z" transform="translate(-106.658 -14.663)" fill="#f7e477"/>
            <path id="Trazado_634595" data-name="Trazado 634595" d="M362.09,128.424a1.136,1.136,0,0,1-.194-.017,1.115,1.115,0,0,1-.906-1.29l4.734-27.057-2.91,2.5a1.115,1.115,0,0,1-1.48-.025l-5.355-4.914-5.355,4.914a1.114,1.114,0,0,1-1.479.025l-2.911-2.5,4.734,27.057a1.115,1.115,0,0,1-2.2.385l-5.27-30.12a1.115,1.115,0,0,1,1.824-1.038l4.519,3.877,5.379-4.936a1.114,1.114,0,0,1,1.507,0l5.379,4.936,4.52-3.877a1.115,1.115,0,0,1,1.823,1.038l-5.27,30.12a1.115,1.115,0,0,1-1.1.923" transform="translate(-101.574 -28.09)" fill="#ffb23d"/>
            <path id="Trazado_634596" data-name="Trazado 634596" d="M355.065,168.906h0a14.674,14.674,0,0,1-14.674-14.674V141.009h29.348v13.224a14.674,14.674,0,0,1-14.674,14.674" transform="translate(-100.658 -41.698)" fill="#2b7cc8"/>
            <path id="Trazado_634597" data-name="Trazado 634597" d="M368.6,150.66H339.78a2.344,2.344,0,0,1,0-4.687H368.6a2.344,2.344,0,0,1,0,4.687" transform="translate(-99.785 -43.166)" fill="#004761"/>
            <path id="Trazado_634598" data-name="Trazado 634598" d="M368.6,160.955H339.78a2.343,2.343,0,0,1,0-4.686H368.6a2.343,2.343,0,1,1,0,4.686" transform="translate(-99.785 -46.211)" fill="#004761"/>
            <path id="Trazado_634599" data-name="Trazado 634599" d="M368.6,171.25H339.78a2.344,2.344,0,0,1,0-4.687H368.6a2.344,2.344,0,0,1,0,4.687" transform="translate(-99.785 -49.255)" fill="#004761"/>
            <path id="Trazado_634600" data-name="Trazado 634600" d="M454.456,39.245a37.8,37.8,0,1,0,37.8,37.8,37.843,37.843,0,0,0-37.8-37.8m-33.487,39.92h12.221a51.032,51.032,0,0,0,2.75,14.621H425.387a33.316,33.316,0,0,1-4.418-14.621m35.607-23.1V43.558c.484.03.966.066,1.444.117l-.217.218a46.959,46.959,0,0,1,8.787,12.173ZM468.456,60.3a46.715,46.715,0,0,1,3.027,14.621H456.576V60.3Zm-16.12-4.239H442.323a46.958,46.958,0,0,1,8.787-12.173l-.218-.218c.478-.051.961-.087,1.444-.117Zm0,4.239V74.926H437.43A46.734,46.734,0,0,1,440.456,60.3ZM433.191,74.926H420.969A33.319,33.319,0,0,1,425.387,60.3H435.94a51.057,51.057,0,0,0-2.75,14.621m4.239,4.239h14.907V93.786H440.456a46.73,46.73,0,0,1-3.026-14.621m14.907,18.86v12.507c-.484-.03-.966-.066-1.444-.117l.218-.218a46.958,46.958,0,0,1-8.787-12.173Zm4.239,0H466.59A46.959,46.959,0,0,1,457.8,110.2l.218.218c-.478.051-.961.087-1.444.117Zm0-4.239V79.165h14.908a46.711,46.711,0,0,1-3.027,14.621Zm19.147-14.621h12.221a33.307,33.307,0,0,1-4.418,14.621H472.972a51.055,51.055,0,0,0,2.75-14.621m0-4.239a51.055,51.055,0,0,0-2.75-14.621h10.553a33.31,33.31,0,0,1,4.418,14.621Zm4.9-18.86h-9.339A50.781,50.781,0,0,0,464.5,45.019a33.674,33.674,0,0,1,16.128,11.046M444.417,45.019a50.78,50.78,0,0,0-6.789,11.046h-9.339a33.666,33.666,0,0,1,16.128-11.046M428.289,98.025h9.339a50.78,50.78,0,0,0,6.789,11.046,33.666,33.666,0,0,1-16.128-11.046M464.5,109.071a50.781,50.781,0,0,0,6.789-11.046h9.339A33.669,33.669,0,0,1,464.5,109.071" transform="translate(-123.211 -11.605)" fill="#2b95f9"/>
            <path id="Trazado_634601" data-name="Trazado 634601" d="M150.3,355.556H109.469V336.83a20.413,20.413,0,1,1,40.827,0Zm-34.924-5.9h29.021V336.83a14.51,14.51,0,0,0-29.021,0Z" transform="translate(-32.371 -93.569)" fill="#fff"/>
            <path id="Trazado_634602" data-name="Trazado 634602" d="M148.217,413.8h-43.2a6.588,6.588,0,0,1-6.588-6.589V368.232a6.55,6.55,0,0,1,6.55-6.55h43.276a6.55,6.55,0,0,1,6.55,6.55v38.979a6.588,6.588,0,0,1-6.589,6.589" transform="translate(-29.107 -106.954)" fill="#2b95f9"/>
            <path id="Trazado_634603" data-name="Trazado 634603" d="M166.641,407.211V368.232a6.55,6.55,0,0,0-6.55-6.55H138.453V413.8h21.6a6.589,6.589,0,0,0,6.589-6.589" transform="translate(-40.942 -106.954)" fill="#0467c5"/>
            <path id="Trazado_634604" data-name="Trazado 634604" d="M142.156,401.291l-2.893-12.1a5.754,5.754,0,0,0,2.208-4.752,5.831,5.831,0,0,0-5.6-5.55,5.765,5.765,0,0,0-3.724,10.3l-2.893,12.1a3.3,3.3,0,0,0,3.214,4.073h6.47a3.3,3.3,0,0,0,3.214-4.073" transform="translate(-38.196 -112.04)" fill="#004761"/>
            <path id="Trazado_634605" data-name="Trazado 634605" d="M599.685,178.212h-60.68l2.1-63.109h56.473Z" transform="translate(-159.391 -34.037)" fill="#e44e00"/>
            <rect id="Rectángulo_329755" data-name="Rectángulo 329755" width="52.265" height="11.247" transform="translate(383.822 69.819)" fill="#fd4c1b"/>
            <path id="Trazado_634606" data-name="Trazado 634606" d="M596.361,99.134H544.1l3.335,5.624-5.439,5.623h56.473l-5.438-5.623Z" transform="translate(-160.274 -29.315)" fill="#fff"/>
            <path id="Trazado_634607" data-name="Trazado 634607" d="M567.341,99.134H544.979l3.335,5.624h45.6l3.334-5.624Z" transform="translate(-161.158 -29.315)" fill="#e6e7e8"/>
            <path id="Trazado_634608" data-name="Trazado 634608" d="M547.431,107.118v5.624h-5.438Z" transform="translate(-160.275 -31.676)" fill="#e44e00"/>
            <path id="Trazado_634609" data-name="Trazado 634609" d="M614.455,107.118v5.624h5.438Z" transform="translate(-181.703 -31.676)" fill="#e44e00"/>
            <path id="Trazado_634610" data-name="Trazado 634610" d="M610.321,115.1H582.084v63.109h30.34Z" transform="translate(-172.13 -34.037)" fill="#fd4c1b"/>
            <path id="Trazado_634611" data-name="Trazado 634611" d="M576.343,142.079a13.431,13.431,0,0,1-13.415-13.415v-5.669a1.052,1.052,0,1,1,2.1,0v5.669a11.312,11.312,0,1,0,22.623,0v-5.669a1.052,1.052,0,1,1,2.1,0v5.669a13.431,13.431,0,0,1-13.415,13.415" transform="translate(-166.465 -36.06)" fill="#ffef94"/>
            <path id="Trazado_634612" data-name="Trazado 634612" d="M278.493,24.818V8.42h-37v16.4c0,5.049,3.347,9.7,8.746,12.16l9.754,4.44,9.754-4.44c5.4-2.457,8.747-7.111,8.747-12.16" transform="translate(-71.413 -2.49)" fill="#fff"/>
            <path id="Trazado_634613" data-name="Trazado 634613" d="M241.493,71.873v16.4h37v-16.4c0-5.049-3.347-9.7-8.747-12.16l-9.754-4.44-9.754,4.44c-5.4,2.457-8.747,7.111-8.747,12.16" transform="translate(-71.413 -16.345)" fill="#fff"/>
            <path id="Trazado_634614" data-name="Trazado 634614" d="M286.261,24.818V8.42h-18.5v33l9.754-4.44c5.4-2.457,8.747-7.111,8.747-12.16" transform="translate(-79.181 -2.49)" fill="#e6e7e8"/>
            <path id="Trazado_634615" data-name="Trazado 634615" d="M286.261,71.873c0-5.049-3.347-9.7-8.747-12.16l-9.754-4.44v33h18.5Z" transform="translate(-79.181 -16.345)" fill="#e6e7e8"/>
            <path id="Trazado_634616" data-name="Trazado 634616" d="M266.8,66.224l-4.96-3.576-4.96,3.576a22.024,22.024,0,0,0-9.144,17.865v7.277h28.207V84.089A22.023,22.023,0,0,0,266.8,66.224" transform="translate(-73.259 -18.526)" fill="#ffb338"/>
            <path id="Trazado_634617" data-name="Trazado 634617" d="M267.761,62.648V91.366h14.1V84.089a22.023,22.023,0,0,0-9.144-17.865Z" transform="translate(-79.181 -18.526)" fill="#eb6f2d"/>
            <path id="Trazado_634618" data-name="Trazado 634618" d="M277.112,5.93H240.583a2.965,2.965,0,1,1,0-5.93h36.529a2.965,2.965,0,0,1,0,5.93" transform="translate(-70.267 0)" fill="#004761"/>
            <path id="Trazado_634619" data-name="Trazado 634619" d="M277.112,102.126H240.583a2.965,2.965,0,1,0,0,5.93h36.529a2.965,2.965,0,0,0,0-5.93" transform="translate(-70.267 -30.2)" fill="#004761"/>
            <path id="Trazado_634620" data-name="Trazado 634620" d="M69.236,306.763s-15.451,19.878-34.512,19.878S.211,306.763.211,306.763s15.452-19.878,34.513-19.878,34.512,19.878,34.512,19.878" transform="translate(-0.062 -84.836)" fill="#fff"/>
            <path id="Trazado_634621" data-name="Trazado 634621" d="M34.724,334.987c19.061,0,34.512-19.878,34.512-19.878H.212s15.451,19.878,34.512,19.878" transform="translate(-0.063 -93.182)" fill="#e6e7e8"/>
            <path id="Trazado_634622" data-name="Trazado 634622" d="M68.977,283.608a1.021,1.021,0,0,0-1.442.09l-3.84,4.35c-1.4-1.195-2.835-2.328-4.3-3.39l3.325-4.753a1.022,1.022,0,0,0-1.675-1.171l-3.325,4.753q-2.314-1.562-4.642-2.84l2.693-5.139a1.022,1.022,0,1,0-1.81-.949L51.264,279.7q-1.8-.9-3.58-1.613c-.449-.18-.9-.349-1.345-.511l1.84-5.506a1.022,1.022,0,0,0-1.938-.648l-1.84,5.505c-1.023-.313-2.039-.581-3.041-.8-.7-.151-1.39-.276-2.082-.381l.687-5.767a1.022,1.022,0,0,0-2.029-.242l-.687,5.763c-.872-.076-1.736-.116-2.588-.116s-1.716.04-2.588.116l-.687-5.763a1.022,1.022,0,0,0-2.03.242l.688,5.767c-.692.1-1.385.23-2.082.381-1,.217-2.018.485-3.041.8l-1.841-5.505a1.021,1.021,0,1,0-1.937.648l1.84,5.506c-.448.162-.9.331-1.345.511q-1.782.714-3.58,1.612l-2.693-5.14a1.022,1.022,0,1,0-1.81.949l2.693,5.139q-2.325,1.275-4.642,2.84l-3.326-4.753a1.022,1.022,0,1,0-1.674,1.171l3.325,4.753c-1.468,1.061-2.907,2.2-4.3,3.39L1.787,283.7a1.022,1.022,0,1,0-1.532,1.352L4.1,289.4c-.6.542-1.048.974-1.337,1.256-.394.382-.6.588-.6.588a1.022,1.022,0,0,0,1.456,1.433c0-.006.2-.2.565-.557.339-.331.905-.87,1.675-1.559a64.735,64.735,0,0,1,6.477-5.1A52.155,52.155,0,0,1,22.4,279.986a37.675,37.675,0,0,1,6-1.857c.964-.209,1.923-.368,2.873-.484l.031,0,.042-.007a27.27,27.27,0,0,1,6.64,0l.042.007.03,0c.95.116,1.909.275,2.873.484a37.69,37.69,0,0,1,6,1.857,52.114,52.114,0,0,1,10.063,5.477,64.663,64.663,0,0,1,6.477,5.1c.769.688,1.335,1.228,1.677,1.561.367.356.557.549.562.554a1.022,1.022,0,0,0,1.457-1.433s-.2-.2-.594-.586c-.292-.285-.745-.718-1.34-1.259l3.84-4.349a1.022,1.022,0,0,0-.09-1.442" transform="translate(0 -79.5)" fill="#004761"/>
            <path id="Trazado_634623" data-name="Trazado 634623" d="M58.335,308.508a15.72,15.72,0,1,1-15.72-15.72,15.72,15.72,0,0,1,15.72,15.72" transform="translate(-7.953 -86.581)" fill="#004761"/>
            <path id="Trazado_634624" data-name="Trazado 634624" d="M57,309.477a13.412,13.412,0,1,1-13.412-13.412A13.412,13.412,0,0,1,57,309.477" transform="translate(-8.922 -87.55)" fill="#e44e00"/>
            <path id="Trazado_634625" data-name="Trazado 634625" d="M53.677,311.88a7.691,7.691,0,1,1-7.691-7.691,7.691,7.691,0,0,1,7.691,7.691" transform="translate(-11.324 -89.953)" fill="#004761"/>
            <path id="Trazado_634626" data-name="Trazado 634626" d="M718.227,307.039a4.749,4.749,0,0,0,0-9.5,4.752,4.752,0,0,0,4.619-5.1,4.859,4.859,0,0,0-4.9-4.4h-14.42c2.492-5.324,7.077-16.3-.649-20.91-.23-.137-.511-.284-.81-.429a2.242,2.242,0,0,0-3.112,1.356c-1.018,3.257-2.233,6.844-3.767,11-1.727,4.681-4.315,8.436-6.244,9.3a8.093,8.093,0,0,0-1.155.43l-.036.01.012,0a8.14,8.14,0,0,0-4.723,7.385v21.7a8.147,8.147,0,0,0,8.147,8.147h25.094a4.974,4.974,0,0,0,4.908-4.545c.148-2.679-1.032-4.889-3.67-4.957a4.751,4.751,0,0,0,4.632-4.748c0-2.585-1.359-4.683-3.928-4.748" transform="translate(-201.985 -78.801)" fill="#e8e8e8"/>
            <path id="Trazado_634628" data-name="Trazado 634628" d="M0,0H30.111V38H0Z" transform="translate(454.255 209.239)" fill="#026cd1"/>
            <rect id="Rectángulo_329757" data-name="Rectángulo 329757" width="30.111" height="18.998" transform="translate(454.255 228.238)" fill="#2b95f9"/>
            <path id="Trazado_634627" data-name="Trazado 634627" d="M678.475,335.822a3.331,3.331,0,1,1-3.33-3.331,3.33,3.33,0,0,1,3.33,3.331" transform="translate(-198.665 -98.322)" fill="#004761"/>
          </g>
        </g>
      </g>
      <rect id="Rectángulo_349406" data-name="Rectángulo 349406" width="610" height="353" transform="translate(810 1699)" fill="none"/>
    </g>
  </g>
</svg>
