<svg xmlns="http://www.w3.org/2000/svg" xmlns:xlink="http://www.w3.org/1999/xlink" width="150" height="150" viewBox="0 0 150 150">
  <defs>
    <filter id="Elipse_6940" x="0" y="0" width="150" height="150" filterUnits="userSpaceOnUse">
      <feOffset dy="3" input="SourceAlpha"/>
      <feGaussianBlur stdDeviation="3" result="blur"/>
      <feFlood flood-opacity="0.161"/>
      <feComposite operator="in" in2="blur"/>
      <feComposite in="SourceGraphic"/>
    </filter>
  </defs>
  <g id="Grupo_1034547" data-name="Grupo 1034547" transform="translate(-2991.46 7272.184)">
    <g transform="matrix(1, 0, 0, 1, 2991.46, -7272.18)" filter="url(#Elipse_6940)">
      <circle id="Elipse_6940-2" data-name="Elipse 6940" cx="66" cy="66" r="66" transform="translate(9 6)" fill="#b6e1fd"/>
    </g>
    <path id="Trazado_640162" data-name="Trazado 640162" d="M41.077,72.743A15.536,15.536,0,1,0,56,92.614h5.224A20.609,20.609,0,0,1,32.2,106.877l-4.529,7.579.287.171A1.879,1.879,0,0,1,28.6,117.2l-8.088,13.535a1.879,1.879,0,0,1-2.569.647l-5.036-3.01a1.879,1.879,0,0,1-.647-2.569l8.088-13.535a1.879,1.879,0,0,1,2.569-.647l.287.171,4.617-7.726A20.606,20.606,0,1,1,60.978,82.949q.133.5.24,1H56a15.543,15.543,0,0,0-14.923-11.2ZM98.7,86.834h-.318a3.433,3.433,0,0,0-6.227,0h-6.8a3.433,3.433,0,0,0-6.227,0h-6.8a3.419,3.419,0,0,0-.308-.532l3.4-5.884q.153.014.309.014a3.432,3.432,0,0,0,2.806-5.409l3.4-5.884q.153.014.309.014a3.432,3.432,0,0,0,2.806-5.409l.158-.273a1.442,1.442,0,1,0-2.495-1.445l-.16.277c-.1-.009-.2-.014-.309-.014A3.432,3.432,0,0,0,79.442,67.7l-3.4,5.884c-.1-.009-.2-.014-.309-.014a3.432,3.432,0,0,0-2.806,5.409l-3.4,5.884c-.1-.009-.2-.014-.309-.014a3.432,3.432,0,0,0-3.114,1.987H52.035V86.8l-1.816-.7a9.347,9.347,0,0,0-1.135-2.739l.79-1.779-2.1-2.1L46,80.272a9.357,9.357,0,0,0-2.738-1.135l-.7-1.816H39.595l-.7,1.816a9.348,9.348,0,0,0-2.738,1.135l-1.779-.79-2.1,2.1.79,1.779A9.349,9.349,0,0,0,31.936,86.1l-1.816.7v2.966l1.815.7A9.352,9.352,0,0,0,33.071,93.2l-.79,1.779,2.1,2.1,1.779-.79A9.351,9.351,0,0,0,38.9,97.421l.7,1.816H42.56l.7-1.815A9.352,9.352,0,0,0,46,96.286l1.779.79,2.1-2.1-.79-1.779a9.357,9.357,0,0,0,1.135-2.738l1.816-.7v-.038H66.11a3.432,3.432,0,0,0,3.114,1.987q.158,0,.312-.014l3.4,5.882a3.432,3.432,0,0,0,2.8,5.411c.105,0,.209-.005.312-.014l3.4,5.882a3.432,3.432,0,0,0,2.8,5.411c.105,0,.209-.005.312-.014l.157.271a1.439,1.439,0,0,0,2.5-1.434l-.159-.276a3.432,3.432,0,0,0-2.8-5.411c-.105,0-.209.005-.312.014l-3.4-5.882a3.432,3.432,0,0,0-2.8-5.411c-.105,0-.209.005-.312.014l-3.4-5.882a3.439,3.439,0,0,0,.31-.534h6.8a3.433,3.433,0,0,0,6.227,0h6.8a3.433,3.433,0,0,0,6.227,0H98.7a1.445,1.445,0,0,0,0-2.89ZM41.077,93.452a5.172,5.172,0,1,1,5.172-5.172A5.172,5.172,0,0,1,41.077,93.452Z" transform="translate(3014.386 -7296.659)" fill="#12263f" fill-rule="evenodd"/>
  </g>
</svg>
