<svg id="Grupo_881525" data-name="Grupo 881525" xmlns="http://www.w3.org/2000/svg" xmlns:xlink="http://www.w3.org/1999/xlink" width="385.219" height="373.434" viewBox="0 0 385.219 373.434">
  <defs>
    <clipPath id="clip-path">
      <rect id="Rectángulo_330014" data-name="Rectángulo 330014" width="385.219" height="373.434" fill="none"/>
    </clipPath>
    <clipPath id="clip-path-6">
      <rect id="Rectángulo_330002" data-name="Rectángulo 330002" width="31.073" height="30.601" fill="none"/>
    </clipPath>
    <clipPath id="clip-path-7">
      <rect id="Rectángulo_330003" data-name="Rectángulo 330003" width="6.623" height="8.412" fill="none"/>
    </clipPath>
    <clipPath id="clip-path-8">
      <rect id="Rectángulo_330004" data-name="Rectángulo 330004" width="25.099" height="12.504" fill="none"/>
    </clipPath>
    <clipPath id="clip-path-9">
      <rect id="Rectángulo_330009" data-name="Rectángulo 330009" width="39.121" height="21.169" fill="none"/>
    </clipPath>
    <clipPath id="clip-path-10">
      <rect id="Rectángulo_330010" data-name="Rectángulo 330010" width="17.473" height="28.462" fill="#eb6f2d"/>
    </clipPath>
  </defs>
  <g id="Grupo_881524" data-name="Grupo 881524" clip-path="url(#clip-path)">
    <rect id="Rectángulo_329994" data-name="Rectángulo 329994" width="77.486" height="69.767" transform="translate(9.154 237.394)" fill="#f5f5f5"/>
    <g id="Grupo_881502" data-name="Grupo 881502">
      <g id="Grupo_881501" data-name="Grupo 881501" clip-path="url(#clip-path)">
        <path id="Trazado_635520" data-name="Trazado 635520" d="M74.278,343.684h-44.8a6.239,6.239,0,0,1-6.24-6.239v-8.861a6.24,6.24,0,0,1,6.24-6.24h44.8a6.239,6.239,0,0,1,6.239,6.24v8.861a6.239,6.239,0,0,1-6.239,6.239" transform="translate(-3.982 -55.225)" fill="#e0e0e0"/>
        <path id="Trazado_635521" data-name="Trazado 635521" d="M88.263,302.414c0,.116-17.079.21-38.143.21s-38.147-.094-38.147-.21,17.076-.21,38.147-.21,38.143.094,38.143.21" transform="translate(-2.051 -51.775)" fill="#e0e0e0"/>
        <path id="Trazado_635522" data-name="Trazado 635522" d="M20.689,295.787a1.921,1.921,0,1,1-1.921-1.922,1.921,1.921,0,0,1,1.921,1.922" transform="translate(-2.886 -50.346)" fill="#e0e0e0"/>
        <path id="Trazado_635523" data-name="Trazado 635523" d="M27.543,295.787a1.921,1.921,0,1,1-1.921-1.922,1.921,1.921,0,0,1,1.921,1.922" transform="translate(-4.06 -50.346)" fill="#e0e0e0"/>
        <path id="Trazado_635524" data-name="Trazado 635524" d="M34.4,295.787a1.921,1.921,0,1,1-1.921-1.922,1.921,1.921,0,0,1,1.921,1.922" transform="translate(-5.235 -50.346)" fill="#e0e0e0"/>
        <path id="Trazado_635525" data-name="Trazado 635525" d="M40.541,334.987v.942c0,1.135-.568,1.784-1.662,1.784s-1.662-.649-1.662-1.784v-3.69c0-1.135.568-1.783,1.662-1.783s1.662.648,1.662,1.783v.69H39.487v-.761c0-.506-.223-.7-.578-.7s-.578.193-.578.7V336c0,.507.222.689.578.689s.578-.182.578-.689v-1.013Z" transform="translate(-6.376 -56.615)" fill="#fff"/>
        <path id="Trazado_635526" data-name="Trazado 635526" d="M42.048,330.554h1.115v6.081H45v1.014H42.048Z" transform="translate(-7.204 -56.632)" fill="#fff"/>
        <rect id="Rectángulo_329995" data-name="Rectángulo 329995" width="1.115" height="7.095" transform="translate(38.28 273.922)" fill="#fff"/>
        <path id="Trazado_635527" data-name="Trazado 635527" d="M51.733,334.987v.942c0,1.135-.568,1.784-1.662,1.784s-1.662-.649-1.662-1.784v-3.69c0-1.135.568-1.783,1.662-1.783s1.662.648,1.662,1.783v.69H50.679v-.761c0-.506-.223-.7-.578-.7s-.578.193-.578.7V336c0,.507.223.689.578.689s.578-.182.578-.689v-1.013Z" transform="translate(-8.293 -56.615)" fill="#fff"/>
        <path id="Trazado_635528" data-name="Trazado 635528" d="M54.7,334.821l-.345.649v2.179H53.239v-7.094h1.115v3.091l1.46-3.091h1.115l-1.551,3.161,1.551,3.933H55.783Z" transform="translate(-9.121 -56.632)" fill="#fff"/>
        <path id="Trazado_635529" data-name="Trazado 635529" d="M61.313,337.649H60.2v-7.1h1.115v3.04H62.58v-3.04h1.135v7.1H62.58v-3.04H61.313Z" transform="translate(-10.313 -56.632)" fill="#fff"/>
        <path id="Trazado_635530" data-name="Trazado 635530" d="M66.536,333.544h1.531v1.013H66.536v2.077h1.926v1.013H65.421v-7.094h3.041v1.013H66.536Z" transform="translate(-11.208 -56.632)" fill="#fff"/>
        <path id="Trazado_635531" data-name="Trazado 635531" d="M72.253,337.649a2.188,2.188,0,0,1-.1-.872v-1.115c0-.658-.224-.9-.73-.9h-.385v2.889H69.922v-7.1H71.6c1.156,0,1.652.537,1.652,1.632v.557a1.414,1.414,0,0,1-.73,1.44c.558.233.74.77.74,1.51v1.1a2.082,2.082,0,0,0,.122.861Zm-1.216-6.082v2.179h.436c.416,0,.669-.183.669-.751v-.7c0-.507-.172-.73-.568-.73Z" transform="translate(-11.979 -56.632)" fill="#fff"/>
        <path id="Trazado_635532" data-name="Trazado 635532" d="M75.954,333.544h1.531v1.013H75.954v2.077H77.88v1.013H74.839v-7.094H77.88v1.013H75.954Z" transform="translate(-12.822 -56.632)" fill="#fff"/>
        <path id="Trazado_635533" data-name="Trazado 635533" d="M112.393,80.383H31.775A10.494,10.494,0,0,1,21.281,69.89V53.021A10.494,10.494,0,0,1,31.775,42.527h80.619a10.493,10.493,0,0,1,10.494,10.494V69.89a10.493,10.493,0,0,1-10.494,10.494" transform="translate(-3.646 -7.286)" fill="#e0e0e0"/>
        <path id="Trazado_635534" data-name="Trazado 635534" d="M51.97,64.955v1.672c0,2.014-1.007,3.165-2.949,3.165s-2.948-1.151-2.948-3.165V60.081c0-2.014,1.007-3.165,2.948-3.165s2.949,1.151,2.949,3.165V61.3H50.1v-1.35c0-.9-.4-1.24-1.025-1.24s-1.024.342-1.024,1.24v6.8c0,.9.4,1.223,1.024,1.223s1.025-.323,1.025-1.223v-1.8Z" transform="translate(-7.893 -9.751)" fill="#fff"/>
        <path id="Trazado_635535" data-name="Trazado 635535" d="M54.643,57.091h1.978V67.879h3.254v1.8H54.643Z" transform="translate(-9.362 -9.781)" fill="#fff"/>
        <rect id="Rectángulo_329996" data-name="Rectángulo 329996" width="1.978" height="12.586" transform="translate(51.377 47.31)" fill="#fff"/>
        <path id="Trazado_635536" data-name="Trazado 635536" d="M71.824,64.955v1.672c0,2.014-1.007,3.165-2.949,3.165s-2.948-1.151-2.948-3.165V60.081c0-2.014,1.007-3.165,2.948-3.165s2.949,1.151,2.949,3.165V61.3h-1.87v-1.35c0-.9-.4-1.24-1.025-1.24s-1.024.342-1.024,1.24v6.8c0,.9.4,1.223,1.024,1.223s1.025-.323,1.025-1.223v-1.8Z" transform="translate(-11.295 -9.751)" fill="#fff"/>
        <path id="Trazado_635537" data-name="Trazado 635537" d="M77.086,64.661l-.612,1.151v3.866H74.5V57.091h1.978v5.483l2.59-5.483h1.978L78.291,62.7l2.751,6.977H79.01Z" transform="translate(-12.763 -9.781)" fill="#fff"/>
        <path id="Trazado_635538" data-name="Trazado 635538" d="M88.82,69.677H86.843V57.091H88.82v5.393h2.248V57.091h2.014V69.677H91.069V64.284H88.82Z" transform="translate(-14.878 -9.781)" fill="#fff"/>
        <path id="Trazado_635539" data-name="Trazado 635539" d="M98.086,62.4H100.8v1.8H98.086v3.686H101.5v1.8H96.108V57.091H101.5v1.8H98.086Z" transform="translate(-16.466 -9.781)" fill="#fff"/>
        <path id="Trazado_635540" data-name="Trazado 635540" d="M108.228,69.678a3.877,3.877,0,0,1-.18-1.546V66.153c0-1.168-.4-1.6-1.294-1.6h-.684v5.125h-1.978V57.091h2.985c2.05,0,2.932.952,2.932,2.894v.989a2.51,2.51,0,0,1-1.3,2.555c.989.414,1.313,1.366,1.313,2.678V68.15a3.721,3.721,0,0,0,.215,1.528ZM106.07,58.888v3.866h.774c.737,0,1.186-.324,1.186-1.331V60.183c0-.9-.3-1.294-1.007-1.294Z" transform="translate(-17.833 -9.781)" fill="#fff"/>
        <path id="Trazado_635541" data-name="Trazado 635541" d="M114.793,62.4h2.715v1.8h-2.715v3.686h3.416v1.8h-5.394V57.091h5.394v1.8h-3.416Z" transform="translate(-19.328 -9.781)" fill="#fff"/>
        <path id="Trazado_635542" data-name="Trazado 635542" d="M323.169,42.337v95.539L338.559,121.9h72.982V42.337Z" transform="translate(-55.366 -7.253)" fill="#f5f5f5"/>
        <path id="Trazado_635543" data-name="Trazado 635543" d="M411.233,60.514c0,.133-19.479.239-43.5.239s-43.506-.107-43.506-.239,19.475-.239,43.506-.239,43.5.107,43.5.239" transform="translate(-55.547 -10.326)" fill="#e0e0e0"/>
        <path id="Trazado_635544" data-name="Trazado 635544" d="M334.165,52.958a2.191,2.191,0,1,1-2.191-2.191,2.191,2.191,0,0,1,2.191,2.191" transform="translate(-56.499 -8.698)" fill="#e0e0e0"/>
        <path id="Trazado_635545" data-name="Trazado 635545" d="M341.983,52.958a2.191,2.191,0,1,1-2.191-2.191,2.191,2.191,0,0,1,2.191,2.191" transform="translate(-57.839 -8.698)" fill="#e0e0e0"/>
        <path id="Trazado_635546" data-name="Trazado 635546" d="M349.8,52.958a2.191,2.191,0,1,1-2.191-2.191,2.191,2.191,0,0,1,2.191,2.191" transform="translate(-59.178 -8.698)" fill="#e0e0e0"/>
        <path id="Trazado_635547" data-name="Trazado 635547" d="M359.458,100.378H353.6l-1.087,2.69h-4l6.111-13.843h3.856l6.131,13.843h-4.074Zm-1.148-2.887-1.779-4.43-1.78,4.43Z" transform="translate(-59.71 -15.286)" fill="#e0e0e0"/>
        <path id="Trazado_635548" data-name="Trazado 635548" d="M369.283,89.225h6.545c4.589,0,7.733,2.67,7.733,6.922s-3.144,6.922-7.733,6.922h-6.545Zm6.387,10.719a3.8,3.8,0,1,0,0-7.594H373.2v7.594Z" transform="translate(-63.267 -15.286)" fill="#e0e0e0"/>
        <path id="Trazado_635549" data-name="Trazado 635549" d="M387.824,101.765l1.286-2.887a8.73,8.73,0,0,0,4.568,1.365c1.622,0,2.255-.456,2.255-1.128,0-2.2-7.872-.593-7.872-5.735,0-2.472,2.018-4.489,6.131-4.489a10.362,10.362,0,0,1,5.023,1.207L398.009,93a8.187,8.187,0,0,0-3.837-1.068c-1.642,0-2.235.554-2.235,1.246,0,2.116,7.851.534,7.851,5.636,0,2.412-2.017,4.469-6.131,4.469a10.9,10.9,0,0,1-5.834-1.522" transform="translate(-66.443 -15.229)" fill="#e0e0e0"/>
        <path id="Trazado_635550" data-name="Trazado 635550" d="M422.915,351.776a19.472,19.472,0,1,1-8.749-26.078,19.451,19.451,0,0,1,8.749,26.078" transform="translate(-66.135 -55.447)" fill="#f5f5f5"/>
        <path id="Trazado_635551" data-name="Trazado 635551" d="M419.727,350.663a14.839,14.839,0,1,1-6.668-19.873,14.823,14.823,0,0,1,6.668,19.873" transform="translate(-67.092 -56.403)" fill="#ebebeb"/>
        <path id="Trazado_635552" data-name="Trazado 635552" d="M420.21,350.134a8.789,8.789,0,0,1,.446-1.772,15.743,15.743,0,0,0,.5-4.834,15.158,15.158,0,0,0-.554-3.291,14.879,14.879,0,0,0-1.519-3.5,13.916,13.916,0,0,0-1.18-1.69,13.73,13.73,0,0,0-1.471-1.565,14.486,14.486,0,0,0-1.749-1.373,14.54,14.54,0,0,0-4.148-1.91,14.459,14.459,0,0,0-2.181-.437,14.529,14.529,0,0,0-4.2.1,14.811,14.811,0,0,0-3.644,1.12,15.2,15.2,0,0,0-2.86,1.718,15.747,15.747,0,0,0-3.346,3.523c-.662.954-.975,1.529-1.056,1.491a4.356,4.356,0,0,1,.679-1.724,13.732,13.732,0,0,1,3.218-3.915,14.865,14.865,0,0,1,6.82-3.242,14.231,14.231,0,0,1,2.2-.257,14.488,14.488,0,0,1,2.313.078,15.087,15.087,0,0,1,2.357.454,15.206,15.206,0,0,1,4.474,2.06,15.173,15.173,0,0,1,1.877,1.5,15.137,15.137,0,0,1,2.8,3.544,14.875,14.875,0,0,1,1.972,7.29,13.746,13.746,0,0,1-.882,4.991,4.352,4.352,0,0,1-.868,1.637" transform="translate(-67.371 -56.292)" fill="#e0e0e0"/>
        <path id="Trazado_635553" data-name="Trazado 635553" d="M405.219,353.794l-1.121,2.33-2.079-1,1.091-2.266a10.945,10.945,0,0,1-4.378-4.155l2.364-1.988a9.324,9.324,0,0,0,3.325,3.418l1.671-3.474c-2.039-1.671-4.247-3.682-2.816-6.656,1.061-2.2,3.572-3.326,7.038-2.12l1.111-2.309,2.08,1-1.091,2.267a10.434,10.434,0,0,1,3.611,3.3l-2.271,2.058a9.448,9.448,0,0,0-2.662-2.614l-1.7,3.537c2.048,1.65,4.215,3.641,2.8,6.573-1.041,2.164-3.522,3.274-6.977,2.1m2.343-10.193,1.42-2.953c-1.221-.281-1.949.113-2.279.8-.35.728.084,1.423.859,2.154m1.166,6.734c.351-.728-.063-1.413-.807-2.156l-1.381,2.871c1.15.272,1.868-.049,2.188-.714" transform="translate(-68.312 -57.492)" fill="#e0e0e0"/>
      </g>
    </g>
    <g id="Grupo_881504" data-name="Grupo 881504">
      <g id="Grupo_881503" data-name="Grupo 881503" clip-path="url(#clip-path)">
        <path id="Trazado_635554" data-name="Trazado 635554" d="M372.751,447.93c0,.119-80.427.215-179.617.215-99.224,0-179.634-.1-179.634-.215s80.41-.216,179.634-.216c99.189,0,179.617.1,179.617.216" transform="translate(-2.313 -76.704)" fill="#263238"/>
      </g>
    </g>
    <g id="Grupo_881506" data-name="Grupo 881506">
      <g id="Grupo_881505" data-name="Grupo 881505" clip-path="url(#clip-path)">
        <path id="Trazado_635555" data-name="Trazado 635555" d="M255.188,179l-1.876,76.338c-.319,12.981-3.44,31.985-23.942,30.545-17.693-2.591-21.783-19.583-21.474-31.7.148-5.746.258-10.539.235-11.13,0,0-19.388-2.306-20.318-21.575-.45-9.311.186-28.565.963-45.978a35.93,35.93,0,0,1,34.617-34.286l1.86-.067c20.1.451,30.943,17.773,29.936,37.851" transform="translate(-32.151 -24.182)" fill="#ffbe9d"/>
        <path id="Trazado_635556" data-name="Trazado 635556" d="M212.346,262.4s12.177.276,24.832-8.322c0,0-5.618,14.3-24.915,13.255Z" transform="translate(-36.366 -43.53)" fill="#eb996e"/>
        <path id="Trazado_635557" data-name="Trazado 635557" d="M228.271,192.91c.367.4,2.651-1.3,5.873-1.268,3.219-.015,5.566,1.7,5.919,1.3.173-.178-.2-.9-1.22-1.678a8.061,8.061,0,0,0-4.734-1.535,7.782,7.782,0,0,0-4.679,1.509c-1,.771-1.34,1.493-1.159,1.673" transform="translate(-39.1 -32.505)" fill="#263238"/>
        <path id="Trazado_635558" data-name="Trazado 635558" d="M227.522,201.91a2.606,2.606,0,0,0,2.605,2.537,2.492,2.492,0,0,0,2.6-2.445,2.607,2.607,0,0,0-2.6-2.539,2.494,2.494,0,0,0-2.6,2.446" transform="translate(-38.98 -34.173)" fill="#263238"/>
        <path id="Trazado_635559" data-name="Trazado 635559" d="M215.976,215.109c.008-.169-1.845-.421-4.843-.7-.759-.051-1.48-.176-1.626-.687a3.847,3.847,0,0,1,.424-2.261q.968-2.783,2.03-5.841c2.812-8.312,4.818-15.137,4.482-15.247s-2.887,6.537-5.7,14.851q-1.012,3.073-1.935,5.871a4.383,4.383,0,0,0-.285,2.983,1.9,1.9,0,0,0,1.283,1.061,5.131,5.131,0,0,0,1.292.133c3.008.054,4.872,0,4.877-.168" transform="translate(-35.695 -32.616)" fill="#263238"/>
        <path id="Trazado_635560" data-name="Trazado 635560" d="M230.47,178.571c.284.726,2.88.283,5.959.556,3.085.207,5.59,1.047,5.973.374.17-.322-.285-1-1.31-1.673a9.745,9.745,0,0,0-4.47-1.438,9.632,9.632,0,0,0-4.621.73c-1.109.509-1.655,1.106-1.531,1.451" transform="translate(-39.482 -30.214)" fill="#263238"/>
        <path id="Trazado_635561" data-name="Trazado 635561" d="M192.808,179.328c.316.594,2.851.041,5.9.06,3.049-.036,5.558.5,5.9-.094.152-.284-.331-.825-1.374-1.326a10.64,10.64,0,0,0-4.474-.911,10.979,10.979,0,0,0-4.515.937c-1.067.507-1.574,1.051-1.436,1.334" transform="translate(-33.029 -30.334)" fill="#263238"/>
        <path id="Trazado_635562" data-name="Trazado 635562" d="M267.851,203.956c.324-.154,13.1-4.393,13.157,8.8s-13.2,10.525-13.229,10.147.072-18.948.072-18.948" transform="translate(-45.876 -34.811)" fill="#ffbe9d"/>
        <path id="Trazado_635563" data-name="Trazado 635563" d="M272.616,218.768c.058-.042.231.16.62.336a2.3,2.3,0,0,0,1.719.029c1.391-.517,2.556-2.735,2.611-5.114a7.6,7.6,0,0,0-.656-3.287,2.655,2.655,0,0,0-1.736-1.758,1.17,1.17,0,0,0-1.354.635c-.176.37-.09.633-.161.656-.036.032-.284-.22-.179-.766a1.462,1.462,0,0,1,.515-.829,1.738,1.738,0,0,1,1.27-.341,3.232,3.232,0,0,1,2.409,2.036,7.807,7.807,0,0,1,.812,3.675c-.075,2.659-1.426,5.152-3.331,5.711a2.462,2.462,0,0,1-2.1-.341c-.41-.324-.481-.619-.435-.643" transform="translate(-46.703 -35.69)" fill="#eb996e"/>
        <path id="Trazado_635564" data-name="Trazado 635564" d="M270.54,170.237c-2.573-4.747-3.008-10.315-4.316-15.556s-5.149-11.891-10.166-13.89c-4.433-2.744-10.381-2.608-14.246.422-.676-6.881-5.184-10.938-11.8-12.939s-17.376-1.352-23.882.991c-5.029,1.811-9.971,5.72-16.016,11.508a64.764,64.764,0,0,0-7.024,7.9L176.613,166.4,181.244,176c.273.652.559,1.3.907,1.951l.006-.043,3.755,20c.484-5.4.786-24.226,1.271-29.624a30.179,30.179,0,0,0,21.861-9.133c3.075-3.162,5.55-7.176,9.572-8.985,5.188-2.332,11.191-.273,16.491,1.791l-.22-.214a24.108,24.108,0,0,1,7.242,5.646,75.016,75.016,0,0,0,2.073,31.853c.447,1.553,1.7,4.762,3.188,5.4,2.917,1.253,3.824-1.729,5.664-3.264,1.354-1.13,3.3-1.21,5.43-1.125A118.028,118.028,0,0,0,262.6,176.71a12.013,12.013,0,0,0,5.517.573q-.776-2.067-1.55-4.135a6.3,6.3,0,0,0,2.327,1.159,2.145,2.145,0,0,0,2.281-.895c.539-.992-.1-2.182-.638-3.175" transform="translate(-30.258 -21.772)" fill="#263238"/>
        <path id="Trazado_635565" data-name="Trazado 635565" d="M249.457,148.441a16.5,16.5,0,0,1,1.862,1.834,13.785,13.785,0,0,1,2.713,6.489,24.212,24.212,0,0,1,.31,4.9c-.057,1.77-.269,3.659-.479,5.651a50.608,50.608,0,0,0-.377,6.3,22.068,22.068,0,0,0,.31,3.34,6.928,6.928,0,0,0,1.236,3.274,2.9,2.9,0,0,0,2.678,1.013,4.321,4.321,0,0,0,2.49-1.288,9.961,9.961,0,0,0,2.033-4.817l-.405.033a16.106,16.106,0,0,0,2.189,4.112,5.727,5.727,0,0,0,3.663,2.174,3.7,3.7,0,0,0,1.994-.274,3.2,3.2,0,0,0,1.4-1.275,3.3,3.3,0,0,0,.471-1.688,2.387,2.387,0,0,0-.562-1.517l-.21.174a12.4,12.4,0,0,0,4.013,3.249,11.174,11.174,0,0,0,1.26.544,2.122,2.122,0,0,0,.455.13,2.43,2.43,0,0,0-.427-.2c-.282-.128-.7-.315-1.22-.6a12.79,12.79,0,0,1-3.867-3.29l-.21.174a2.465,2.465,0,0,1,.022,2.86,2.878,2.878,0,0,1-1.26,1.129,3.358,3.358,0,0,1-1.807.225,5.363,5.363,0,0,1-3.4-2.063,15.882,15.882,0,0,1-2.106-4.022l-.254-.626-.152.661a9.638,9.638,0,0,1-1.936,4.6,3.891,3.891,0,0,1-2.229,1.152,2.447,2.447,0,0,1-2.276-.858,6.561,6.561,0,0,1-1.14-3.063,22.036,22.036,0,0,1-.31-3.272,51.584,51.584,0,0,1,.349-6.244c.2-1.991.4-3.89.44-5.683a24.132,24.132,0,0,0-.37-4.967,13.6,13.6,0,0,0-2.892-6.545,7.8,7.8,0,0,0-2-1.722" transform="translate(-42.737 -25.431)" fill="#455a64"/>
        <path id="Trazado_635566" data-name="Trazado 635566" d="M192.814,193.062c.367.4,2.65-1.3,5.872-1.268,3.219-.016,5.566,1.7,5.919,1.3.173-.178-.2-.9-1.219-1.678a8.066,8.066,0,0,0-4.735-1.535,7.776,7.776,0,0,0-4.679,1.509c-1,.771-1.34,1.493-1.158,1.673" transform="translate(-33.026 -32.531)" fill="#263238"/>
        <path id="Trazado_635567" data-name="Trazado 635567" d="M195.155,200.739a2.606,2.606,0,0,0,2.605,2.537,2.492,2.492,0,0,0,2.6-2.444,2.608,2.608,0,0,0-2.6-2.539,2.494,2.494,0,0,0-2.6,2.446" transform="translate(-33.435 -33.972)" fill="#263238"/>
        <path id="Trazado_635568" data-name="Trazado 635568" d="M182.871,150.535c-1.69,2.12-4.254,4.027-6.942,3.673a20.213,20.213,0,0,1-2.846-.912c-.955.547-.812,3.775-.186,4.68a17.255,17.255,0,0,0,1.968,2.139c-3.2,1.621-6.059.714-9.4-.6A16.533,16.533,0,0,0,174.957,173c1.681.757,3.732,1.2,5.3.232,1.384-.848,1.984-2.522,2.434-4.08a72.367,72.367,0,0,0,2.793-17.615Z" transform="translate(-28.349 -25.79)" fill="#263238"/>
        <path id="Trazado_635569" data-name="Trazado 635569" d="M220.824,227.738a2.653,2.653,0,0,1,2.3-1.391,2.94,2.94,0,0,1,2.316.535,4.191,4.191,0,0,1,.918,4.738,3.481,3.481,0,0,1-4.37,1.641c-1.561-.726-2.181-4.76-1.1-6.1" transform="translate(-37.75 -38.777)" fill="#eb996e"/>
        <path id="Trazado_635570" data-name="Trazado 635570" d="M220.243,230.572a7.219,7.219,0,0,1,.344.76,2.734,2.734,0,0,0,1.592,1.415,4.026,4.026,0,0,0,3.128-.378,3.261,3.261,0,0,0-1.6-5.853,3.181,3.181,0,0,0-2.845,1.168,3.217,3.217,0,0,0-.664,2.056,8.175,8.175,0,0,1,.048.833c-.014,0-.044-.065-.087-.2a2.916,2.916,0,0,1-.129-.62,3.236,3.236,0,0,1,.588-2.249,3.467,3.467,0,0,1,3.134-1.379,3.64,3.64,0,0,1,1.763,6.59,4.257,4.257,0,0,1-3.435.324,2.811,2.811,0,0,1-1.643-1.633,2.485,2.485,0,0,1-.172-.609c-.027-.142-.033-.216-.018-.22" transform="translate(-37.692 -38.736)" fill="#263238"/>
        <path id="Trazado_635571" data-name="Trazado 635571" d="M235.437,147.033a12.475,12.475,0,0,0-1.961-2.465,12.831,12.831,0,0,0-7.735-3.319,15.954,15.954,0,0,0-5.841.691,23.3,23.3,0,0,0-6.1,2.968c-4.024,2.66-7.577,6.655-11.467,10.649A51.652,51.652,0,0,1,196.24,161a24.448,24.448,0,0,1-6.718,3.592,22.115,22.115,0,0,1-12.76.207,21.724,21.724,0,0,1-7.712-3.911l-1.031-.892c-.294-.263-.514-.518-.7-.708l-.42-.447c-.093-.1-.138-.157-.132-.162a.762.762,0,0,1,.163.132l.449.415c.2.18.427.423.728.675l1.049.855a22.23,22.23,0,0,0,7.689,3.749,21.994,21.994,0,0,0,12.554-.29,24.227,24.227,0,0,0,6.592-3.555,52.026,52.026,0,0,0,6.039-5.4c3.876-3.979,7.461-8,11.555-10.678a23.47,23.47,0,0,1,6.215-2.98,16.133,16.133,0,0,1,5.971-.651,12.81,12.81,0,0,1,7.824,3.5,9.9,9.9,0,0,1,1.469,1.852l.289.542a.76.76,0,0,1,.085.191" transform="translate(-28.57 -24.138)" fill="#455a64"/>
        <path id="Trazado_635572" data-name="Trazado 635572" d="M203.441,270.954l7.311-1.457,45.212-2.789,9.635,2.624-1.262,23.475L242.548,306.7l-21.13-.421-13.289-12.105-2.948-12Z" transform="translate(-34.854 -45.693)" fill="#ffbe9d"/>
        <path id="Trazado_635573" data-name="Trazado 635573" d="M311.493,307.908a142.377,142.377,0,0,0-8.69-15.53,38.683,38.683,0,0,0-22.289-16.228l-34.834-9.442s-1.808,34.8-25.764,34.8-28.623-32.621-28.623-32.621L150.977,284.97c-1.385.538-10.734,3.771-21.611,27.1-10.36,22.216-14.894,33.583-14.894,33.583L156,357.64l2.595,37.348-.883,21.325,126.033-.278-.7-24.383.532-37.379,1.577,2.547L327.1,339.995s-5.4-11.082-15.6-32.086" transform="translate(-19.612 -45.693)" fill="#eb6f2d"/>
        <path id="Trazado_635574" data-name="Trazado 635574" d="M319.046,343.661c.185,0,.071,13.508-.252,30.16s-.736,30.154-.92,30.15-.072-13.5.252-30.162.736-30.151.92-30.147" transform="translate(-54.444 -58.877)" fill="#263238"/>
        <path id="Trazado_635575" data-name="Trazado 635575" d="M157,334.447a6.14,6.14,0,0,1,.46,1.386c.256.9.594,2.217.987,3.847.787,3.259,1.769,7.789,2.677,12.825s1.564,9.627,1.961,12.956c.2,1.665.341,3.015.416,3.949a6.155,6.155,0,0,1,.052,1.459,6.085,6.085,0,0,1-.31-1.427q-.256-1.6-.626-3.917c-.517-3.308-1.248-7.874-2.152-12.9s-1.811-9.56-2.479-12.84q-.46-2.3-.779-3.89a6.179,6.179,0,0,1-.207-1.446" transform="translate(-26.896 -57.298)" fill="#263238"/>
        <path id="Trazado_635576" data-name="Trazado 635576" d="M114.778,363.223l-16.889,33.9A24.706,24.706,0,0,0,120,432.848l48.43-2.805,2.116-22.1L133.7,399.062l13.97-26.406Z" transform="translate(-16.327 -62.228)" fill="#ffbe9d"/>
        <path id="Trazado_635577" data-name="Trazado 635577" d="M136.073,406.323c-.026.151-1.677-.124-4.348-.108a33.553,33.553,0,0,0-10.213,1.8,31.158,31.158,0,0,0-9.149,4.856c-2.095,1.655-3.082,3.012-3.2,2.923-.047-.033.17-.392.609-1.019a16.636,16.636,0,0,1,2.212-2.357,27.591,27.591,0,0,1,9.259-5.194,29.371,29.371,0,0,1,10.491-1.6,20.453,20.453,0,0,1,3.2.377c.746.154,1.15.266,1.139.322" transform="translate(-18.701 -69.489)" fill="#eb996e"/>
        <path id="Trazado_635578" data-name="Trazado 635578" d="M157.371,374.29a9.522,9.522,0,0,1-.8,2.588,50.041,50.041,0,0,1-6.3,11.4,9.549,9.549,0,0,1-1.769,2.049c-.161-.121,2.272-3.437,4.709-7.866,2.455-4.416,3.972-8.24,4.159-8.169" transform="translate(-25.441 -64.124)" fill="#eb996e"/>
        <path id="Trazado_635579" data-name="Trazado 635579" d="M357.219,431.759H300.351V410.3l32.932-13.957-12.212-25.6,32.966-13.224,16.09,35.8c3.74,10.4,7.555,15.343,4.3,24.8-1.695,4.928-8.676,13.643-17.21,13.643" transform="translate(-51.457 -61.251)" fill="#ffbe9d"/>
        <path id="Trazado_635580" data-name="Trazado 635580" d="M173.615,414.19H183.1s21.394-7.73,25.793-6.992c3.962.665,18.467,10.3,21.309,12.209a1.809,1.809,0,0,1,.688.876,3.11,3.11,0,0,1-1.73,3.953l-.3.124.13.432a5.18,5.18,0,0,1,.218,1.731,2.091,2.091,0,0,1-3.886.9l.547.971a2.379,2.379,0,0,1,.3,1.3l-.049.882a2.38,2.38,0,0,1-4.129,1.478c-1.84-2.024-5.814-6.077-8.5-6.525a63.11,63.11,0,0,0-8.781-.44,2.977,2.977,0,0,0-2.761,1.9c1.6.114,12.712,5.911,16.646,7.986a4.208,4.208,0,0,1,2.287,3.166c.144,1.231-.478,2.522-2.914,1.952-5.226-1.221-14.633-5.545-14.633-5.545s-4.852-1.386-8,.832c-4.421,3.119-6.447,4.263-10.244,3a32.177,32.177,0,0,1-6.6-3.065l-7.48-.747s-7.073-17.677,2.6-20.386" transform="translate(-28.872 -69.754)" fill="#ffbe9d"/>
        <path id="Trazado_635581" data-name="Trazado 635581" d="M208.759,419.814c.018.081,1.518-.4,4.019-.558a20.749,20.749,0,0,1,17.292,7.379c1.616,1.915,2.306,3.33,2.377,3.287a4.871,4.871,0,0,0-.476-.989,17.973,17.973,0,0,0-1.682-2.479,20.111,20.111,0,0,0-17.533-7.482,17.924,17.924,0,0,0-2.953.5,4.872,4.872,0,0,0-1.044.341" transform="translate(-35.765 -71.765)" fill="#eb996e"/>
        <path id="Trazado_635582" data-name="Trazado 635582" d="M211.493,413.52a17.563,17.563,0,0,1,4.184-.73,18.247,18.247,0,0,1,9.73,2.756,39.2,39.2,0,0,1,7.841,6.634l2.149,2.283a6.41,6.41,0,0,0,.82.811,6.222,6.222,0,0,0-.7-.915c-.473-.571-1.168-1.388-2.058-2.374a36.019,36.019,0,0,0-7.842-6.785,17.806,17.806,0,0,0-9.95-2.694,11.889,11.889,0,0,0-3.106.568,7.069,7.069,0,0,0-.8.307c-.18.078-.271.125-.266.138" transform="translate(-36.234 -70.667)" fill="#eb996e"/>
        <path id="Trazado_635583" data-name="Trazado 635583" d="M305.228,415h-9.481s-21.394-7.73-25.793-6.992c-3.962.665-18.467,10.3-21.309,12.209a1.808,1.808,0,0,0-.688.877,3.11,3.11,0,0,0,1.73,3.952l.3.124-.13.433a5.177,5.177,0,0,0-.218,1.731,2.091,2.091,0,0,0,3.887.9l-.548.972a2.385,2.385,0,0,0-.3,1.3l.049.883a2.38,2.38,0,0,0,4.129,1.478c1.84-2.024,5.814-6.077,8.5-6.525a63.1,63.1,0,0,1,8.781-.44,2.976,2.976,0,0,1,2.76,1.9c-1.6.114-12.712,5.911-16.646,7.986a4.208,4.208,0,0,0-2.287,3.166c-.144,1.231.478,2.522,2.914,1.952,5.226-1.22,14.633-5.545,14.633-5.545s4.852-1.386,8,.832c4.421,3.119,6.447,4.263,10.244,3a32.149,32.149,0,0,0,6.6-3.065l7.48-.747s7.073-17.677-2.6-20.386" transform="translate(-42.448 -69.892)" fill="#ffbe9d"/>
        <path id="Trazado_635584" data-name="Trazado 635584" d="M278.119,420.621c-.018.081-1.518-.4-4.019-.558a20.749,20.749,0,0,0-17.292,7.379c-1.616,1.915-2.306,3.33-2.377,3.287a4.87,4.87,0,0,1,.476-.989,18.105,18.105,0,0,1,1.682-2.479,20.111,20.111,0,0,1,17.533-7.482,17.918,17.918,0,0,1,2.953.5,4.93,4.93,0,0,1,1.044.341" transform="translate(-43.589 -71.904)" fill="#eb996e"/>
        <path id="Trazado_635585" data-name="Trazado 635585" d="M275.171,414.327a17.555,17.555,0,0,0-4.184-.73,18.255,18.255,0,0,0-9.73,2.756,39.205,39.205,0,0,0-7.841,6.634l-2.149,2.284a6.374,6.374,0,0,1-.82.81,6.219,6.219,0,0,1,.7-.915c.473-.571,1.168-1.389,2.058-2.373a36,36,0,0,1,7.843-6.786A17.81,17.81,0,0,1,271,413.312a11.877,11.877,0,0,1,3.106.569,7.058,7.058,0,0,1,.8.307c.18.078.272.125.266.138" transform="translate(-42.907 -70.805)" fill="#eb996e"/>
        <path id="Trazado_635586" data-name="Trazado 635586" d="M365.387,405.263c-.051.076-1.29-.832-3.522-1.857a19.5,19.5,0,0,0-1.856-.754c-.67-.268-1.415-.465-2.191-.694a26.067,26.067,0,0,0-10.446-.6c-.8.138-1.56.249-2.256.438a19.751,19.751,0,0,0-1.931.536c-2.334.762-3.669,1.523-3.711,1.441a5.039,5.039,0,0,1,.923-.553,9.564,9.564,0,0,1,1.135-.554,15.713,15.713,0,0,1,1.555-.623,18.034,18.034,0,0,1,1.942-.595c.7-.207,1.475-.332,2.284-.483a24.913,24.913,0,0,1,10.609.611c.786.243,1.539.456,2.213.742a18.093,18.093,0,0,1,1.862.814,16.091,16.091,0,0,1,1.473.8,9.85,9.85,0,0,1,1.065.68,5.113,5.113,0,0,1,.854.655" transform="translate(-58.16 -68.643)" fill="#eb996e"/>
        <path id="Trazado_635587" data-name="Trazado 635587" d="M286.019,430.957H167.6a6.286,6.286,0,0,1-6.28-6.012l-3.554-81.506a6.286,6.286,0,0,1,6.28-6.56H289.339a6.286,6.286,0,0,1,6.281,6.542L292.3,424.927a6.286,6.286,0,0,1-6.281,6.03" transform="translate(-27.028 -57.715)" fill="#e0e0e0"/>
        <path id="Trazado_635588" data-name="Trazado 635588" d="M285.976,430.912c0-.027.394.012,1.142-.13a6.233,6.233,0,0,0,2.977-1.474,6.332,6.332,0,0,0,2.115-4.847c.083-2.174.178-4.68.286-7.5.444-11.292,1.086-27.619,1.879-47.792q.3-7.566.631-15.836.165-4.129.336-8.423c.02-.711.08-1.446.055-2.14a6.269,6.269,0,0,0-.486-2.048,6.067,6.067,0,0,0-2.88-3.055,6.13,6.13,0,0,0-2.069-.615c-.716-.059-1.484-.027-2.234-.035l-4.564,0-9.346.005-19.508.009-86.86.017h-2.885a6.838,6.838,0,0,0-2.745.414,6.073,6.073,0,0,0-3.625,3.916,6.512,6.512,0,0,0-.246,1.352c-.015.452,0,.921.026,1.4q.062,1.421.123,2.837.123,2.832.245,5.643.489,11.244.962,22.141c.629,14.516,1.236,28.518,1.813,41.857q.108,2.5.215,4.97.053,1.236.106,2.462a8.636,8.636,0,0,0,.3,2.369,6.108,6.108,0,0,0,2.887,3.554,6.039,6.039,0,0,0,2.2.708c.757.08,1.57.038,2.355.05l18.4.011,33.03.027,47.826.069,13,.041,3.382.021c.762.007,1.152.022,1.152.022s-.39.015-1.152.022l-3.382.021-13,.041-47.826.069-33.03.026-18.4.011c-.793-.012-1.574.035-2.4-.051a6.41,6.41,0,0,1-2.338-.75,6.491,6.491,0,0,1-3.074-3.776,9.013,9.013,0,0,1-.322-2.467q-.055-1.227-.109-2.461-.109-2.47-.219-4.97c-.586-13.338-1.2-27.341-1.838-41.856q-.476-10.888-.969-22.141-.123-2.812-.247-5.642-.062-1.416-.123-2.837c-.027-.469-.042-.949-.026-1.445a6.989,6.989,0,0,1,.264-1.448,6.506,6.506,0,0,1,3.882-4.2,7.312,7.312,0,0,1,2.9-.443h2.885l86.86.017,19.508.009,9.346.006,4.564,0c.758.009,1.495-.024,2.272.04a6.5,6.5,0,0,1,2.192.654,6.429,6.429,0,0,1,3.044,3.237,6.621,6.621,0,0,1,.51,2.167c.026.752-.036,1.454-.057,2.174q-.178,4.292-.35,8.424-.343,8.259-.659,15.834c-.851,20.171-1.54,36.5-2.016,47.786-.122,2.82-.23,5.325-.325,7.5a6.42,6.42,0,0,1-2.185,4.907,6.217,6.217,0,0,1-3.026,1.453,5.288,5.288,0,0,1-.859.083c-.193.006-.291,0-.291,0" transform="translate(-26.985 -57.67)" fill="#263238"/>
        <path id="Trazado_635589" data-name="Trazado 635589" d="M246.078,394.038a6.486,6.486,0,1,1-6.485-6.485,6.485,6.485,0,0,1,6.485,6.485" transform="translate(-39.937 -66.397)" fill="#fff"/>
      </g>
    </g>
    <path id="Trazado_635590" data-name="Trazado 635590" d="M.207,134.1V234.3H108.764l16.25,16.249V234.031h-.087V134.1Z" transform="translate(-0.035 -22.975)" fill="#fff"/>
    <g id="Grupo_881523" data-name="Grupo 881523">
      <g id="Grupo_881522" data-name="Grupo 881522" clip-path="url(#clip-path)">
        <path id="Trazado_635591" data-name="Trazado 635591" d="M124.978,234s.008.356.012,1.066.008,1.774.015,3.165c.007,2.8.02,6.935.036,12.288v.152l-.109-.108-16.27-16.225.066.027L.172,234.426H.012v-.16c0-27.212-.008-57.11-.012-88.428V133.9H.172l124.72.031h.14v.14c-.025,30.207-.046,55.129-.06,72.532-.017,8.7-.029,15.515-.038,20.179-.008,2.327-.016,4.115-.02,5.334q-.007.906-.011,1.386c0,.315-.007.482-.011.5h0c0-.015-.007-.182-.011-.5s-.006-.782-.01-1.386c0-1.219-.012-3.007-.021-5.334-.009-4.664-.022-11.481-.038-20.179-.014-17.4-.035-42.326-.06-72.532l.14.141-124.72.031.172-.172v11.771c0,31.318-.008,61.216-.012,88.428l-.159-.159,108.557.065h.04l.027.028,16.226,16.27-.108.045c.041-10.642.061-16.076.063-16.519" transform="translate(0 -22.939)" fill="#263238"/>
        <path id="Trazado_635592" data-name="Trazado 635592" d="M124.927,147.514c0,.1-27.921.172-62.357.172S.207,147.609.207,147.514s27.916-.172,62.363-.172,62.357.076,62.357.172" transform="translate(-0.035 -25.243)" fill="#263238"/>
        <path id="Trazado_635593" data-name="Trazado 635593" d="M8.3,140.7a1.572,1.572,0,1,1-1.572-1.572A1.572,1.572,0,0,1,8.3,140.7" transform="translate(-0.882 -23.835)" fill="#e0e0e0"/>
        <path id="Trazado_635594" data-name="Trazado 635594" d="M13.9,140.7a1.572,1.572,0,1,1-1.572-1.572A1.572,1.572,0,0,1,13.9,140.7" transform="translate(-1.843 -23.835)" fill="#e0e0e0"/>
        <path id="Trazado_635595" data-name="Trazado 635595" d="M19.514,140.7a1.572,1.572,0,1,1-1.572-1.572,1.572,1.572,0,0,1,1.572,1.572" transform="translate(-2.805 -23.835)" fill="#e0e0e0"/>
        <path id="Trazado_635596" data-name="Trazado 635596" d="M160.175,135.461a11.8,11.8,0,1,1-11.8-11.8,11.8,11.8,0,0,1,11.8,11.8" transform="translate(-23.399 -21.186)" fill="#fd4c1b"/>
        <rect id="Rectángulo_330000" data-name="Rectángulo 330000" width="10.636" height="2.373" transform="translate(120.379 117.196) rotate(-45)" fill="#fff"/>
        <rect id="Rectángulo_330001" data-name="Rectángulo 330001" width="2.373" height="10.636" transform="translate(120.379 111.353) rotate(-45)" fill="#fff"/>
        <path id="Trazado_635597" data-name="Trazado 635597" d="M61.493,150.377l9.225,9.512,12.9-3.015,2.618,12.99L98.724,174.3,93.9,186.647l8.1,10.484-10.728,7.777,1.148,13.2-13.23.742-6.171,11.726L61.493,224.05l-11.531,6.527-6.171-11.726-13.23-.742,1.148-13.2-10.728-7.777,8.1-10.484L24.263,174.3l12.484-4.439,2.618-12.99,12.9,3.015Z" transform="translate(-3.594 -25.763)" fill="#5f914e"/>
        <g id="Grupo_881509" data-name="Grupo 881509" transform="translate(43.514 146.552)" opacity="0.3">
          <g id="Grupo_881508" data-name="Grupo 881508">
            <g id="Grupo_881507" data-name="Grupo 881507" clip-path="url(#clip-path-6)">
              <path id="Trazado_635598" data-name="Trazado 635598" d="M61.827,184.544c0-2.692-.941-3.419-2.436-3.419s-2.436.812-2.436,2.949V186H52.509v-1.624c0-4.786,2.394-7.522,7.01-7.522s7.009,2.735,7.009,7.522v.769c0,3.205-1.026,5.214-3.291,6.155,2.35,1.026,3.291,3.248,3.291,6.283v2.35c0,4.786-2.393,7.522-7.009,7.522s-7.01-2.735-7.01-7.522v-2.479h4.445v2.778c0,2.137.941,2.948,2.436,2.948s2.436-.726,2.436-3.376v-2.35c0-2.779-.941-3.8-3.078-3.8H57.168v-4.273h1.838c1.752,0,2.821-.77,2.821-3.163Z" transform="translate(-52.51 -176.851)"/>
              <path id="Trazado_635599" data-name="Trazado 635599" d="M72.781,184.373c0-4.786,2.522-7.522,7.137-7.522s7.137,2.735,7.137,7.522V199.93c0,4.786-2.522,7.522-7.137,7.522s-7.137-2.735-7.137-7.522Zm4.7,15.856c0,2.137.941,2.949,2.436,2.949s2.435-.812,2.435-2.949V184.074c0-2.137-.94-2.949-2.435-2.949s-2.436.812-2.436,2.949Z" transform="translate(-55.983 -176.851)"/>
            </g>
          </g>
        </g>
        <g id="Grupo_881512" data-name="Grupo 881512" transform="translate(75.831 145.327)" opacity="0.3">
          <g id="Grupo_881511" data-name="Grupo 881511">
            <g id="Grupo_881510" data-name="Grupo 881510" clip-path="url(#clip-path-7)">
              <path id="Trazado_635600" data-name="Trazado 635600" d="M91.508,176.7a1.258,1.258,0,1,1,2.512,0v2.726a1.258,1.258,0,1,1-2.512,0Zm.829,2.784c0,.367.155.521.427.521s.427-.154.427-.521V176.64c0-.368-.166-.522-.427-.522s-.427.154-.427.522Zm3.7-4.052H96.8l-3.27,8.293h-.771Zm-.414,4.3a1.258,1.258,0,1,1,2.512,0v2.726a1.258,1.258,0,1,1-2.512,0Zm.83,2.784c0,.367.154.521.427.521s.426-.154.426-.521v-2.843c0-.368-.166-.521-.426-.521s-.427.153-.427.521Z" transform="translate(-91.508 -175.372)"/>
            </g>
          </g>
        </g>
        <g id="Grupo_881515" data-name="Grupo 881515" transform="translate(46.517 178.654)" opacity="0.3">
          <g id="Grupo_881514" data-name="Grupo 881514">
            <g id="Grupo_881513" data-name="Grupo 881513" clip-path="url(#clip-path-8)">
              <path id="Trazado_635601" data-name="Trazado 635601" d="M59.015,215.59c1.869,0,2.829,1.118,2.829,3.074v.384H60.028v-.505c0-.873-.349-1.206-.96-1.206s-.961.332-.961,1.206c0,2.514,3.755,2.986,3.755,6.478,0,1.956-.978,3.074-2.864,3.074s-2.864-1.118-2.864-3.074v-.751H57.95v.873c0,.873.384,1.187,1,1.187s1-.313,1-1.187c0-2.515-3.755-2.987-3.755-6.479,0-1.956.961-3.074,2.829-3.074" transform="translate(-56.134 -215.59)"/>
              <path id="Trazado_635602" data-name="Trazado 635602" d="M70.488,227.983H68.55l-.331-2.218H65.861l-.332,2.218H63.765l1.956-12.223h2.812Zm-4.383-3.877h1.85l-.925-6.182Z" transform="translate(-57.442 -215.619)"/>
              <path id="Trazado_635603" data-name="Trazado 635603" d="M72.955,215.759h1.921v10.477h3.161v1.747H72.955Z" transform="translate(-59.016 -215.619)"/>
              <path id="Trazado_635604" data-name="Trazado 635604" d="M82.022,220.911h2.637v1.746H82.022v3.58H85.34v1.746H80.1V215.76H85.34v1.746H82.022Z" transform="translate(-60.24 -215.619)"/>
            </g>
          </g>
        </g>
        <path id="Trazado_635605" data-name="Trazado 635605" d="M59.713,185.588c0-2.692-.94-3.419-2.435-3.419s-2.436.812-2.436,2.949v1.923H50.4v-1.623c0-4.786,2.393-7.522,7.009-7.522s7.009,2.735,7.009,7.522v.769c0,3.205-1.025,5.214-3.291,6.155,2.351,1.026,3.291,3.248,3.291,6.282v2.351c0,4.786-2.393,7.522-7.009,7.522S50.4,205.76,50.4,200.974V198.5h4.445v2.778c0,2.137.94,2.948,2.436,2.948s2.435-.726,2.435-3.376V198.5c0-2.779-.94-3.8-3.077-3.8H55.054v-4.273h1.838c1.753,0,2.821-.77,2.821-3.163Z" transform="translate(-8.634 -30.478)" fill="#fff"/>
        <path id="Trazado_635606" data-name="Trazado 635606" d="M70.667,185.417c0-4.786,2.522-7.522,7.137-7.522s7.137,2.735,7.137,7.522v15.557c0,4.786-2.522,7.522-7.137,7.522s-7.137-2.735-7.137-7.522Zm4.7,15.856c0,2.137.941,2.949,2.436,2.949s2.435-.812,2.435-2.949V185.118c0-2.137-.94-2.949-2.435-2.949s-2.436.812-2.436,2.949Z" transform="translate(-12.107 -30.478)" fill="#fff"/>
        <path id="Trazado_635607" data-name="Trazado 635607" d="M89.389,176.7a1.258,1.258,0,1,1,2.512,0v2.726a1.258,1.258,0,1,1-2.512,0Zm.83,2.784c0,.367.154.521.426.521s.427-.154.427-.521V176.64c0-.368-.166-.522-.427-.522s-.426.154-.426.522Zm3.7-4.052h.771l-3.27,8.293h-.771Zm-.414,4.3a1.258,1.258,0,1,1,2.513,0v2.726a1.258,1.258,0,1,1-2.513,0Zm.83,2.784c0,.367.153.521.427.521s.426-.154.426-.521v-2.843c0-.368-.167-.521-.426-.521s-.427.153-.427.521Z" transform="translate(-15.314 -30.045)" fill="#fff"/>
        <path id="Trazado_635608" data-name="Trazado 635608" d="M56.9,215.59c1.869,0,2.829,1.118,2.829,3.074v.384H57.909v-.505c0-.873-.349-1.206-.96-1.206s-.961.332-.961,1.206c0,2.514,3.755,2.986,3.755,6.478,0,1.956-.978,3.074-2.864,3.074s-2.864-1.118-2.864-3.074v-.751h1.816v.873c0,.873.384,1.187,1,1.187s1-.313,1-1.187c0-2.515-3.754-2.987-3.754-6.479,0-1.956.96-3.074,2.828-3.074" transform="translate(-9.254 -36.936)" fill="#fff"/>
        <path id="Trazado_635609" data-name="Trazado 635609" d="M68.369,227.983H66.431l-.331-2.218H63.741l-.331,2.218H61.646L63.6,215.76h2.812Zm-4.383-3.877h1.85l-.925-6.182Z" transform="translate(-10.561 -36.965)" fill="#fff"/>
        <path id="Trazado_635610" data-name="Trazado 635610" d="M70.837,215.759h1.921v10.477h3.161v1.747H70.837Z" transform="translate(-12.136 -36.965)" fill="#fff"/>
        <path id="Trazado_635611" data-name="Trazado 635611" d="M79.9,220.911H82.54v1.746H79.9v3.58h3.318v1.746H77.982V215.76h5.239v1.746H79.9Z" transform="translate(-13.36 -36.965)" fill="#fff"/>
        <path id="Trazado_635612" data-name="Trazado 635612" d="M99.812,157.85l.543-1.219a3.681,3.681,0,0,0,1.927.577c.684,0,.951-.192.951-.476,0-.926-3.321-.25-3.321-2.42,0-1.043.851-1.894,2.587-1.894a4.375,4.375,0,0,1,2.12.509l-.509,1.227a3.45,3.45,0,0,0-1.619-.451c-.693,0-.943.233-.943.525,0,.893,3.313.225,3.313,2.378,0,1.018-.852,1.886-2.587,1.886a4.6,4.6,0,0,1-2.462-.642" transform="translate(-17.1 -26.113)" fill="#e0e0e0"/>
        <path id="Trazado_635613" data-name="Trazado 635613" d="M108.785,156.741l-.467.476v1.11h-1.585v-6.193h1.585v3.246l1.619-1.577h1.878l-1.878,1.937,2.036,2.587h-1.919Z" transform="translate(-18.286 -26.064)" fill="#e0e0e0"/>
        <path id="Trazado_635614" data-name="Trazado 635614" d="M113.41,152.353a.877.877,0,0,1,.969-.843.859.859,0,0,1,.968.818.976.976,0,0,1-1.937.025m.176,1.343h1.586v4.523h-1.586Z" transform="translate(-19.43 -25.957)" fill="#e0e0e0"/>
        <path id="Trazado_635615" data-name="Trazado 635615" d="M121.841,156.395a2.194,2.194,0,0,1-2.221,2.337,1.687,1.687,0,0,1-1.26-.476v2.02h-1.586v-6.142h1.511v.45a1.633,1.633,0,0,1,1.335-.525,2.194,2.194,0,0,1,2.221,2.337m-1.6,0a.959.959,0,1,0-.951,1.076.963.963,0,0,0,.951-1.076" transform="translate(-20.006 -26.394)" fill="#e0e0e0"/>
        <path id="Trazado_635616" data-name="Trazado 635616" d="M130.566,157.264h-2.471l-.459,1.135h-1.685l2.577-5.841h1.628l2.587,5.841h-1.719Zm-.484-1.218-.752-1.869-.751,1.869Z" transform="translate(-21.578 -26.137)" fill="#e0e0e0"/>
        <path id="Trazado_635617" data-name="Trazado 635617" d="M139.326,152.135v6.192h-1.51v-.451a1.627,1.627,0,0,1-1.328.526,2.34,2.34,0,0,1,0-4.674,1.652,1.652,0,0,1,1.252.467v-2.061Zm-1.56,3.922a.954.954,0,1,0-1.894,0,.956.956,0,1,0,1.894,0" transform="translate(-23.002 -26.064)" fill="#e0e0e0"/>
        <path id="Trazado_635618" data-name="Trazado 635618" d="M141.17,158.264l.476-1.085a3.176,3.176,0,0,0,1.578.417c.534,0,.709-.117.709-.309,0-.608-2.67.084-2.67-1.727,0-.851.785-1.5,2.2-1.5a3.981,3.981,0,0,1,1.786.384l-.476,1.077a2.644,2.644,0,0,0-1.3-.334c-.535,0-.727.15-.727.317,0,.626,2.663-.051,2.663,1.744,0,.834-.768,1.486-2.237,1.486a4.156,4.156,0,0,1-2-.467" transform="translate(-24.186 -26.394)" fill="#e0e0e0"/>
        <path id="Trazado_635619" data-name="Trazado 635619" d="M427.327,179.023H307.186l.612,84.16h13.128v19.464l17.768-19.464h89.244Z" transform="translate(-52.628 -30.671)" fill="#fff"/>
        <path id="Trazado_635620" data-name="Trazado 635620" d="M427.287,178.983s.016.5.029,1.487.029,2.469.051,4.391c.038,3.872.094,9.559.166,16.849.128,14.627.312,35.682.536,61.431l0,.172H427.9l-89.244.041.156-.069-17.767,19.466-.374.41v-.555c0-5.907,0-12.2,0-18.556v-.908l.216.215H307.544v-.214c-.212-30.312-.412-58.885-.589-84.16v-.195h.194l86.942.1,24.52.051,6.47.023,1.656.012c.37,0,.553.011.553.011s-.2.007-.575.011l-1.676.012-6.507.022-24.564.051-86.818.1.192-.194c.191,25.275.406,53.849.634,84.16l-.215-.214H321.1v1.124c0,6.356,0,12.649,0,18.556l-.374-.145C326.835,275.774,332.835,269.2,338.5,263l.063-.069h.094l89.244.041-.17.171c-.149-25.706-.272-46.726-.356-61.328-.034-7.306-.061-13.006-.08-16.887-.006-1.937-.01-3.417-.013-4.423s.007-1.523.007-1.523" transform="translate(-52.588 -30.631)" fill="#263238"/>
        <path id="Trazado_635621" data-name="Trazado 635621" d="M426.842,193.307c0,.105-26.623.191-59.456.191s-59.462-.085-59.462-.191,26.617-.191,59.462-.191,59.456.085,59.456.191" transform="translate(-52.754 -33.085)" fill="#263238"/>
        <path id="Trazado_635622" data-name="Trazado 635622" d="M315.137,187.3a1.6,1.6,0,1,1-1.59-1.742,1.671,1.671,0,0,1,1.59,1.742" transform="translate(-53.445 -31.79)" fill="#e0e0e0"/>
        <path id="Trazado_635623" data-name="Trazado 635623" d="M320.809,187.3a1.6,1.6,0,1,1-1.59-1.742,1.671,1.671,0,0,1,1.59,1.742" transform="translate(-54.417 -31.79)" fill="#e0e0e0"/>
        <path id="Trazado_635624" data-name="Trazado 635624" d="M326.482,187.3a1.6,1.6,0,1,1-1.59-1.742,1.671,1.671,0,0,1,1.59,1.742" transform="translate(-55.389 -31.79)" fill="#e0e0e0"/>
        <path id="Trazado_635625" data-name="Trazado 635625" d="M395.115,226.264a16.946,16.946,0,1,1-16.946-16.946,16.947,16.947,0,0,1,16.946,16.946" transform="translate(-61.886 -35.861)" fill="#0082ff"/>
        <path id="Trazado_635626" data-name="Trazado 635626" d="M376.746,233.551v-10a.636.636,0,0,1,.949-.554l8.936,5.038a.637.637,0,0,1,0,1.111l-8.936,4.96a.636.636,0,0,1-.946-.556" transform="translate(-64.545 -38.19)" fill="#fff"/>
        <rect id="Rectángulo_330005" data-name="Rectángulo 330005" width="103.743" height="0.517" transform="translate(262.507 221.822)" fill="#263238"/>
        <rect id="Rectángulo_330006" data-name="Rectángulo 330006" width="32.42" height="1.378" transform="translate(262.429 221.266)" fill="#038a7b"/>
        <path id="Trazado_635627" data-name="Trazado 635627" d="M356.416,267.638a1.584,1.584,0,1,1-1.579-1.724,1.656,1.656,0,0,1,1.579,1.724" transform="translate(-60.522 -45.557)" fill="#038a7b"/>
        <path id="Trazado_635628" data-name="Trazado 635628" d="M460.132,181.084A11.435,11.435,0,1,1,448.7,169.649a11.435,11.435,0,0,1,11.435,11.435" transform="translate(-74.913 -29.065)" fill="#fd4c1b"/>
        <rect id="Rectángulo_330007" data-name="Rectángulo 330007" width="10.308" height="2.3" transform="matrix(0.707, -0.707, 0.707, 0.707, 369.326, 154.85)" fill="#fff"/>
        <rect id="Rectángulo_330008" data-name="Rectángulo 330008" width="2.3" height="10.309" transform="translate(369.326 149.187) rotate(-45)" fill="#fff"/>
        <path id="Trazado_635629" data-name="Trazado 635629" d="M178.649,14.9V97.2h75.164l16.238,12.559V14.9Z" transform="translate(-30.607 -2.553)" fill="#fff"/>
        <path id="Trazado_635630" data-name="Trazado 635630" d="M178.612,14.863s.136-.007.413-.011l1.246-.011,4.876-.022,18.552-.049,66.315-.1h.186v.187c.009,26.387.018,57.513.029,90.712v4.583l-.347-.269-16.237-12.56.131.045-75.164-.034h-.181v-.181c.039-24.828.071-45.418.094-59.812.02-7.171.036-12.8.046-16.639.009-1.906.016-3.368.021-4.363s.02-1.482.02-1.482.013.524.02,1.521.012,2.476.021,4.4c.011,3.853.027,9.492.046,16.68.022,14.366.055,34.917.094,59.7l-.181-.18,75.164-.033h.073l.058.046,16.239,12.557-.347.171q0-2.065,0-4.143c.011-33.2.021-64.325.029-90.712l.187.186-66.2-.094-18.595-.049-4.912-.022-1.265-.01c-.285,0-.435-.011-.435-.011" transform="translate(-30.569 -2.514)" fill="#263238"/>
        <path id="Trazado_635631" data-name="Trazado 635631" d="M269.734,33.7c0,.137-20.147.248-44.994.248s-45-.111-45-.248,20.143-.248,45-.248,44.994.111,44.994.248" transform="translate(-30.794 -5.732)" fill="#263238"/>
        <path id="Trazado_635632" data-name="Trazado 635632" d="M190.022,25.887a2.266,2.266,0,1,1-2.266-2.266,2.267,2.267,0,0,1,2.266,2.266" transform="translate(-31.779 -4.047)" fill="#e0e0e0"/>
        <path id="Trazado_635633" data-name="Trazado 635633" d="M198.108,25.887a2.266,2.266,0,1,1-2.266-2.266,2.267,2.267,0,0,1,2.266,2.266" transform="translate(-33.164 -4.047)" fill="#e0e0e0"/>
        <path id="Trazado_635634" data-name="Trazado 635634" d="M206.194,25.887a2.266,2.266,0,1,1-2.266-2.266,2.267,2.267,0,0,1,2.266,2.266" transform="translate(-34.549 -4.047)" fill="#e0e0e0"/>
        <path id="Trazado_635635" data-name="Trazado 635635" d="M258.077,64.7a25.462,25.462,0,1,1-26.064-24.785A25.435,25.435,0,0,1,258.077,64.7" transform="translate(-35.491 -6.838)" fill="#ffb338"/>
        <path id="Trazado_635636" data-name="Trazado 635636" d="M253.273,66.1A19.4,19.4,0,1,1,233.41,47.211,19.381,19.381,0,0,1,253.273,66.1" transform="translate(-36.744 -8.087)" fill="#ffb338"/>
        <g id="Grupo_881518" data-name="Grupo 881518" transform="translate(177.493 38.382)" opacity="0.3">
          <g id="Grupo_881517" data-name="Grupo 881517">
            <g id="Grupo_881516" data-name="Grupo 881516" clip-path="url(#clip-path-9)">
              <path id="Trazado_635637" data-name="Trazado 635637" d="M253.205,65.34a11.472,11.472,0,0,1-.568-2.32,20.6,20.6,0,0,0-2.381-5.892,19.879,19.879,0,0,0-2.652-3.464,19.458,19.458,0,0,0-3.895-3.111,19.006,19.006,0,0,0-5.055-2.14,18.835,18.835,0,0,0-2.861-.517,18.963,18.963,0,0,0-5.962.33,18.882,18.882,0,0,0-2.787.83,19.005,19.005,0,0,0-4.787,2.687,19.375,19.375,0,0,0-3.526,3.523A19.873,19.873,0,0,0,216.478,59a20.588,20.588,0,0,0-1.712,6.117,11.371,11.371,0,0,1-.308,2.368,5.69,5.69,0,0,1-.269-2.406,17.948,17.948,0,0,1,1.323-6.493,19.432,19.432,0,0,1,5.9-7.919,19.745,19.745,0,0,1,5.105-2.967,19.763,19.763,0,0,1,3-.917,19.9,19.9,0,0,1,6.431-.356,19.814,19.814,0,0,1,3.084.581,19.732,19.732,0,0,1,5.4,2.384,19.446,19.446,0,0,1,6.738,7.218,17.986,17.986,0,0,1,2.035,6.307,5.7,5.7,0,0,1,0,2.423" transform="translate(-214.188 -46.317)"/>
            </g>
          </g>
        </g>
        <g id="Grupo_881521" data-name="Grupo 881521" transform="translate(188.914 45.026)" opacity="0.3">
          <g id="Grupo_881520" data-name="Grupo 881520">
            <g id="Grupo_881519" data-name="Grupo 881519" clip-path="url(#clip-path-10)">
              <path id="Trazado_635638" data-name="Trazado 635638" d="M238.659,79.3l.13,3.378-3.016.115-.126-3.287a14.312,14.312,0,0,1-7.6-2.124l1.516-3.743a12.2,12.2,0,0,0,5.933,1.916l-.194-5.036c-3.379-.684-7.161-1.657-7.326-5.97-.123-3.2,2.093-6.029,6.837-6.755l-.128-3.348,3.016-.116.126,3.288a13.639,13.639,0,0,1,6.192,1.6l-1.365,3.767a12.39,12.39,0,0,0-4.675-1.391l.2,5.127c3.377.655,7.1,1.63,7.263,5.881.121,3.137-2.067,5.939-6.779,6.694M235.132,66.09l-.166-4.282c-1.584.423-2.184,1.323-2.145,2.318.041,1.055.968,1.594,2.311,1.964m5.466,7.069c-.041-1.057-.937-1.594-2.252-2l.16,4.162c1.5-.389,2.128-1.2,2.092-2.164" transform="translate(-227.971 -54.335)" fill="#eb6f2d"/>
            </g>
          </g>
        </g>
        <path id="Trazado_635639" data-name="Trazado 635639" d="M253.51,65.54a1.682,1.682,0,0,1-.046-.318c-.022-.232-.053-.541-.092-.935q-.027-.311-.061-.688c-.035-.252-.1-.524-.149-.82a14.324,14.324,0,0,0-.468-2.022,18.818,18.818,0,0,0-2.327-5.165,19.622,19.622,0,0,0-23.719-7.756,18.075,18.075,0,0,0-4.884,2.774,17.93,17.93,0,0,0-4.035,4.241,18.878,18.878,0,0,0-2.669,5.444,19.308,19.308,0,0,0,.293,12.322,18.892,18.892,0,0,0,2.929,5.311,17.845,17.845,0,0,0,4.235,4.044,20.068,20.068,0,0,0,2.434,1.479,20.543,20.543,0,0,0,2.576,1.058,19.723,19.723,0,0,0,10.292.612,19.72,19.72,0,0,0,13.032-9.5,18.873,18.873,0,0,0,2.076-5.27,14.43,14.43,0,0,0,.37-2.042c.039-.3.087-.573.109-.826s.021-.481.029-.689c.021-.4.035-.705.046-.937a1.756,1.756,0,0,1,.031-.321,1.955,1.955,0,0,1,.012.32c0,.234,0,.544,0,.941,0,.21-.006.441-.009.694s-.057.532-.09.833a14.041,14.041,0,0,1-.333,2.064,18.677,18.677,0,0,1-2.031,5.352,19.9,19.9,0,0,1-13.168,9.728,20.027,20.027,0,0,1-10.49-.585,18.4,18.4,0,0,1-5.122-2.577,18.248,18.248,0,0,1-4.332-4.123,19.253,19.253,0,0,1-3-5.425,19.692,19.692,0,0,1-.3-12.593,19.236,19.236,0,0,1,2.734-5.56,18.2,18.2,0,0,1,4.13-4.324,18.4,18.4,0,0,1,4.991-2.818,20.015,20.015,0,0,1,10.45-1.087,19.894,19.894,0,0,1,13.618,9.085,18.651,18.651,0,0,1,2.285,5.248,14.063,14.063,0,0,1,.433,2.046c.046.3.1.574.129.828s.029.485.042.694c.02.4.036.707.048.941a1.831,1.831,0,0,1,0,.32" transform="translate(-36.622 -7.903)" fill="#263238"/>
        <path id="Trazado_635640" data-name="Trazado 635640" d="M298.134,12.349A12.349,12.349,0,1,1,285.785,0a12.349,12.349,0,0,1,12.349,12.349" transform="translate(-46.846)" fill="#fd4c1b"/>
        <rect id="Rectángulo_330011" data-name="Rectángulo 330011" width="11.132" height="2.484" transform="translate(234.125 15.406) rotate(-45)" fill="#fff"/>
        <rect id="Rectángulo_330012" data-name="Rectángulo 330012" width="2.484" height="11.132" transform="translate(234.125 9.292) rotate(-45)" fill="#fff"/>
      </g>
    </g>
  </g>
</svg>
