<svg xmlns="http://www.w3.org/2000/svg" xmlns:xlink="http://www.w3.org/1999/xlink" width="610" height="420.183" viewBox="0 0 610 420.183">
  <defs>
    <clipPath id="clip-path">
      <rect id="Rectángulo_330764" data-name="Rectángulo 330764" width="456.268" height="419.785" fill="none"/>
    </clipPath>
    <clipPath id="clip-path-6">
      <rect id="Rectángulo_330752" data-name="Rectángulo 330752" width="17.775" height="13.707" fill="none"/>
    </clipPath>
    <clipPath id="clip-path-9">
      <rect id="Rectángulo_330761" data-name="Rectángulo 330761" width="456.268" height="419.785" fill="#eb6f2d"/>
    </clipPath>
    <clipPath id="clip-path-10">
      <rect id="Rectángulo_330756" data-name="Rectángulo 330756" width="24.243" height="37.27" fill="none"/>
    </clipPath>
    <clipPath id="clip-path-12">
      <rect id="Rectángulo_330762" data-name="Rectángulo 330762" width="36.579" height="31.261" fill="none"/>
    </clipPath>
    <clipPath id="clip-path-13">
      <rect id="Rectángulo_330766" data-name="Rectángulo 330766" width="545.572" height="3.518" fill="none"/>
    </clipPath>
  </defs>
  <g id="Grupo_1034448" data-name="Grupo 1034448" transform="translate(-810 -1123)">
    <g id="Grupo_882784" data-name="Grupo 882784">
      <g id="Grupo_882783" data-name="Grupo 882783" transform="translate(899.655 1123.398)">
        <g id="Grupo_882779" data-name="Grupo 882779">
          <g id="Grupo_882778" data-name="Grupo 882778" clip-path="url(#clip-path)">
            <g id="Grupo_882754" data-name="Grupo 882754">
              <g id="Grupo_882753" data-name="Grupo 882753" clip-path="url(#clip-path)">
                <path id="Trazado_639811" data-name="Trazado 639811" d="M380.162,78.254c-2.847-19.015,10.9-36.7,30.633-39.417s38.112,10.536,40.959,29.551-10.9,36.7-30.633,39.417-38.112-10.537-40.959-29.551m52.911-7.292c-1.36-9.091-10.147-15.43-19.584-14.129s-16.008,9.755-14.647,18.847,10.147,15.43,19.584,14.13,16.008-9.756,14.647-18.848" transform="translate(-4.009 -1.971)" fill="#f5f5f5"/>
                <path id="Trazado_639812" data-name="Trazado 639812" d="M380.163,78.273c-2.847-19.015,10.895-36.7,30.633-39.417l2.694,18c-9.437,1.3-16.008,9.755-14.648,18.848s10.147,15.429,19.584,14.128l2.694,18c-19.737,2.719-38.111-10.536-40.958-29.551" transform="translate(-4.009 -1.99)" fill="#e0e0e0"/>
                <path id="Trazado_639813" data-name="Trazado 639813" d="M407.5,36.324c23.091-3.182,43.835,11.785,47.166,34.03l-21.854,3.011c-1.592-10.636-10.94-16.314-21.982-14.793Z" transform="translate(-4.302 -1.838)" fill="#ebebeb"/>
                <path id="Trazado_639814" data-name="Trazado 639814" d="M125.176,223.377a15.927,15.927,0,0,1,3.791-1.6l.767-3.608,6.351-.133.929,3.572a15.985,15.985,0,0,1,3.861,1.438l3.2-2.03,4.589,4.213-1.976,3.154a14.616,14.616,0,0,1,1.667,3.637l3.762.734.139,6.09-3.725.892a14.583,14.583,0,0,1-1.5,3.7l2.117,3.07-4.392,4.4-3.291-1.9a15.865,15.865,0,0,1-3.792,1.6l-.766,3.608-6.351.132-.93-3.572a15.993,15.993,0,0,1-3.86-1.438l-3.2,2.031-4.589-4.213,1.976-3.155a14.609,14.609,0,0,1-1.667-3.636l-3.763-.735-.138-6.09,3.725-.892a14.581,14.581,0,0,1,1.5-3.7l-2.118-3.069,4.393-4.4Zm3.421,8.1a6.347,6.347,0,0,0,.211,9.239,7.023,7.023,0,0,0,9.635-.2,6.346,6.346,0,0,0-.211-9.238,7.023,7.023,0,0,0-9.635.2" transform="translate(-1.208 -11.166)" fill="#ebebeb"/>
                <path id="Trazado_639815" data-name="Trazado 639815" d="M128.728,232.087a5.076,5.076,0,0,1,1.264-1.073,7.13,7.13,0,0,1,7.467-.009,6.784,6.784,0,0,1,2.455,2.63,6.136,6.136,0,0,1,.628,1.831,6.058,6.058,0,0,1,.047,2.011,6.618,6.618,0,0,1-1.875,3.775,7.114,7.114,0,0,1-3.852,1.962,7.25,7.25,0,0,1-4.035-.478,6.932,6.932,0,0,1-2.848-2.238,6.438,6.438,0,0,1-1.191-2.855,6.288,6.288,0,0,1,.876-4.3,5,5,0,0,1,1.063-1.258c.038.029-.41.431-.93,1.33a6.265,6.265,0,0,0,.447,6.9,6.627,6.627,0,0,0,2.729,2.1,6.917,6.917,0,0,0,3.823.434,6.748,6.748,0,0,0,3.635-1.86,6.279,6.279,0,0,0,1.778-3.564,5.7,5.7,0,0,0-.036-1.9,5.775,5.775,0,0,0-.583-1.739,6.516,6.516,0,0,0-2.309-2.523,6.851,6.851,0,0,0-2.88-1.014,7.028,7.028,0,0,0-4.33.886c-.914.539-1.312.984-1.345.95" transform="translate(-1.338 -11.776)" fill="#ebebeb"/>
                <path id="Trazado_639816" data-name="Trazado 639816" d="M125.174,223.371a1.393,1.393,0,0,1-.212-.106l-.631-.346-2.48-1.391.077-.009-4.366,4.424.011-.119,2.13,3.062.039.055-.034.059a14.587,14.587,0,0,0-1.475,3.678l-.018.072-.075.018-3.723.9.1-.132c.048,1.917.1,3.953.153,6.089l-.123-.141,3.764.728.1.019.027.09a14.54,14.54,0,0,0,1.655,3.594l.053.083-.052.084c-.611.978-1.284,2.058-1.971,3.157l-.029-.206,4.594,4.207-.227-.019,3.2-2.034.093-.06.1.052a15.9,15.9,0,0,0,3.814,1.418l.111.025.029.107.932,3.572-.19-.139,6.351-.135-.186.148c.241-1.139.5-2.369.766-3.607l.023-.112.114-.031a15.672,15.672,0,0,0,3.74-1.576l0,0,.1-.058.1.057,3.29,1.9-.241.03,4.394-4.4-.022.231-2.115-3.07-.064-.093.056-.1a14.4,14.4,0,0,0,1.483-3.656l.028-.107.111-.026,3.726-.889-.141.176q-.067-3.118-.132-6.09l.143.165-3.761-.739-.1-.021-.029-.1a14.466,14.466,0,0,0-1.642-3.6l-.053-.084.052-.083,1.981-3.152.028.193-4.58-4.221.186.016-3.206,2.023-.071.045-.074-.039a15.909,15.909,0,0,0-3.823-1.436l-.075-.018-.019-.072c-.333-1.3-.634-2.469-.917-3.574l.114.083-6.351.106.084-.067-.791,3.6-.008.036-.037.01a16.555,16.555,0,0,0-2.9,1.083l-.682.345a1.53,1.53,0,0,1-.228.112,1.891,1.891,0,0,1,.211-.139c.145-.086.365-.216.669-.373a15.328,15.328,0,0,1,2.894-1.144l-.044.046c.2-.986.445-2.17.741-3.613l.014-.065.07,0,6.35-.159.092,0,.023.086c.292,1.1.6,2.272.943,3.569l-.1-.09a16.085,16.085,0,0,1,3.9,1.44l-.145.006,3.2-2.038.1-.064.087.08,4.6,4.2.094.085-.067.107-1.97,3.159v-.168a14.816,14.816,0,0,1,1.691,3.674l-.134-.118,3.763.73.142.028,0,.139q.071,2.97.145,6.089l0,.142-.144.035-3.724.894.138-.133a14.757,14.757,0,0,1-1.516,3.748l-.008-.191q1.049,1.52,2.118,3.069l.086.123-.107.107-4.392,4.4-.107.108-.134-.078-3.291-1.894h.2l0,0a16.162,16.162,0,0,1-3.836,1.616l.138-.142c-.264,1.239-.525,2.469-.768,3.608l-.031.146-.155,0-6.351.13-.152,0-.037-.142c-.321-1.232-.637-2.454-.928-3.573l.139.133a16.259,16.259,0,0,1-3.9-1.458l.192-.008-3.2,2.028-.122.077-.1-.1-4.584-4.218-.1-.092.071-.115,1.981-3.152v.167a14.771,14.771,0,0,1-1.678-3.677l.123.108-3.761-.742-.121-.024,0-.117c-.043-2.138-.084-4.173-.124-6.09l0-.107.108-.026,3.728-.882-.094.091a14.733,14.733,0,0,1,1.524-3.726l0,.114-2.1-3.078-.044-.064.055-.055,4.419-4.376.035-.034.043.025,2.423,1.433.623.376a2.011,2.011,0,0,1,.212.138" transform="translate(-1.206 -11.16)" fill="#ebebeb"/>
                <path id="Trazado_639817" data-name="Trazado 639817" d="M138.6,155.671a23.983,23.983,0,0,1,5.726-2.414l1.157-5.45,9.593-.2,1.4,5.395a24.118,24.118,0,0,1,5.831,2.173l4.834-3.067,6.93,6.363-2.983,4.765a22.093,22.093,0,0,1,2.517,5.492l5.681,1.109.21,9.2-5.627,1.347a21.983,21.983,0,0,1-2.265,5.59l3.2,4.637-6.634,6.645-4.969-2.862a24.015,24.015,0,0,1-5.726,2.414l-1.159,5.45-9.592.2-1.4-5.395a24.1,24.1,0,0,1-5.83-2.173l-4.835,3.067-6.93-6.363,2.984-4.765a22.035,22.035,0,0,1-2.517-5.491l-5.682-1.11-.21-9.2,5.627-1.347a22.019,22.019,0,0,1,2.265-5.59l-3.2-4.636,6.634-6.646Zm5.168,12.233a9.586,9.586,0,0,0,.318,13.955,10.607,10.607,0,0,0,14.552-.306,9.586,9.586,0,0,0-.318-13.954,10.606,10.606,0,0,0-14.552.3" transform="translate(-1.291 -7.559)" fill="#ebebeb"/>
                <path id="Trazado_639818" data-name="Trazado 639818" d="M143.96,168.825a7.666,7.666,0,0,1,1.91-1.621,10.766,10.766,0,0,1,11.278-.013,10.258,10.258,0,0,1,3.708,3.973,9.245,9.245,0,0,1,.949,2.766,9.132,9.132,0,0,1,.07,3.038,9.989,9.989,0,0,1-2.831,5.7,10.746,10.746,0,0,1-5.818,2.964,10.346,10.346,0,0,1-3.169.065,10.222,10.222,0,0,1-2.924-.788,10.455,10.455,0,0,1-4.3-3.38,9.73,9.73,0,0,1-1.8-4.311,9.5,9.5,0,0,1,1.323-6.493,7.55,7.55,0,0,1,1.6-1.9c.056.046-.618.65-1.405,2.009a9.466,9.466,0,0,0,.675,10.422,10.036,10.036,0,0,0,4.123,3.176,10.438,10.438,0,0,0,5.773.655,10.205,10.205,0,0,0,5.491-2.808A9.49,9.49,0,0,0,161.3,176.9a9.293,9.293,0,0,0-.934-5.5,9.831,9.831,0,0,0-3.488-3.81,10.324,10.324,0,0,0-4.35-1.531,10.606,10.606,0,0,0-6.539,1.339c-1.381.813-1.982,1.486-2.031,1.434" transform="translate(-1.488 -8.481)" fill="#ebebeb"/>
                <path id="Trazado_639819" data-name="Trazado 639819" d="M138.593,155.661a2.207,2.207,0,0,1-.321-.16l-.953-.523-3.745-2.1.117-.015-6.595,6.682.017-.178,3.218,4.623.058.083-.05.089a21.911,21.911,0,0,0-2.228,5.553l-.027.109-.115.028-5.623,1.362.159-.2c.073,2.9.15,5.97.232,9.2l-.186-.213,5.684,1.1.144.028.042.137a22,22,0,0,0,2.5,5.428l.081.125-.079.128c-.923,1.477-1.94,3.108-2.977,4.769l-.044-.312,6.939,6.354-.341-.029,4.831-3.071.142-.09.148.079a23.99,23.99,0,0,0,5.762,2.141l.167.039.043.161c.44,1.689.922,3.532,1.408,5.394l-.287-.21,9.593-.2-.281.226,1.156-5.45.036-.168.171-.047a23.846,23.846,0,0,0,5.65-2.381l0,0,.154-.088.151.087L168.317,197l-.364.046,6.635-6.644-.033.348-3.195-4.638-.1-.14.085-.146a21.8,21.8,0,0,0,2.24-5.521l.042-.161.167-.04,5.628-1.343-.214.268q-.1-4.709-.2-9.2l.218.25-5.68-1.117-.157-.031-.045-.147a21.87,21.87,0,0,0-2.481-5.434l-.08-.127.079-.127,2.992-4.759.041.29-6.916-6.375.281.024-4.843,3.055-.107.068-.112-.06a24.018,24.018,0,0,0-5.773-2.169l-.115-.027-.028-.109c-.5-1.962-.958-3.73-1.386-5.4l.173.127-9.593.159.127-.1c-.477,2.174-.868,3.956-1.194,5.442l-.012.054-.054.015a25,25,0,0,0-4.379,1.636l-1.03.522a2.388,2.388,0,0,1-.343.169,2.962,2.962,0,0,1,.32-.21c.218-.131.55-.326,1.008-.564a23.321,23.321,0,0,1,4.371-1.728l-.066.069c.307-1.49.673-3.277,1.121-5.456l.02-.1.107,0,9.591-.241.14,0,.035.13c.439,1.667.905,3.432,1.423,5.39l-.142-.136a24.329,24.329,0,0,1,5.886,2.176l-.219.009,4.827-3.079.149-.095.131.12,6.944,6.348.141.13-.1.161-2.975,4.77V163.1a22.4,22.4,0,0,1,2.553,5.549l-.2-.178,5.684,1.1.212.041,0,.209q.107,4.486.22,9.2l0,.214-.219.053-5.625,1.351.208-.2a22.274,22.274,0,0,1-2.289,5.66l-.012-.287,3.2,4.635.129.187-.161.162-6.632,6.647-.163.163-.2-.117-4.969-2.861h.3l0,0a24.39,24.39,0,0,1-5.793,2.441l.207-.215L156.6,202.3l-.046.22-.234,0-9.593.2-.231,0-.056-.214c-.484-1.862-.962-3.706-1.4-5.4l.21.2a24.456,24.456,0,0,1-5.9-2.2l.289-.011-4.837,3.063-.183.117-.158-.146-6.922-6.37-.152-.139.108-.173c1.042-1.658,2.064-3.285,2.992-4.76v.252a22.34,22.34,0,0,1-2.535-5.553l.186.164-5.68-1.121-.182-.036,0-.177c-.065-3.228-.128-6.3-.187-9.2l0-.161.162-.039,5.631-1.331-.141.137a22.224,22.224,0,0,1,2.3-5.627l.008.172-3.179-4.648-.066-.1.083-.082,6.675-6.609.052-.052.063.037,3.661,2.164.942.568a2.879,2.879,0,0,1,.319.207" transform="translate(-1.289 -7.55)" fill="#ebebeb"/>
                <path id="Trazado_639820" data-name="Trazado 639820" d="M288.325,118.885a21.077,21.077,0,0,1,5.04-2.1L294.4,112l8.429-.142,1.213,4.746a21.2,21.2,0,0,1,5.114,1.929l4.26-2.677,6.065,5.615-2.641,4.177a19.358,19.358,0,0,1,2.191,4.834l4.988,1,.148,8.083-4.949,1.163a19.336,19.336,0,0,1-2.012,4.9L320,149.711l-5.855,5.816-4.355-2.532a21.121,21.121,0,0,1-5.041,2.1l-1.039,4.784-8.428.142-1.213-4.746a21.2,21.2,0,0,1-5.114-1.93l-4.26,2.678-6.065-5.616,2.641-4.176a19.368,19.368,0,0,1-2.191-4.833l-4.989-1-.147-8.082,4.948-1.164a19.336,19.336,0,0,1,2.013-4.9l-2.792-4.085,5.855-5.815Zm4.493,10.767a8.422,8.422,0,0,0,.225,12.262,9.32,9.32,0,0,0,12.788-.215,8.422,8.422,0,0,0-.225-12.262,9.32,9.32,0,0,0-12.788.215" transform="translate(-2.892 -5.728)" fill="#e0e0e0"/>
                <path id="Trazado_639821" data-name="Trazado 639821" d="M292.99,130.461a6.72,6.72,0,0,1,1.684-1.417,9.461,9.461,0,0,1,9.909.028,9.019,9.019,0,0,1,3.243,3.5,8.125,8.125,0,0,1,.822,2.435,8.037,8.037,0,0,1,.051,2.669,8.787,8.787,0,0,1-2.511,5,9.443,9.443,0,0,1-5.123,2.583,9.629,9.629,0,0,1-5.351-.658,9.178,9.178,0,0,1-3.765-2.985,8.527,8.527,0,0,1-1.564-3.8,8.344,8.344,0,0,1,1.186-5.7,6.622,6.622,0,0,1,1.418-1.663c.048.04-.546.569-1.243,1.759a8.317,8.317,0,0,0,.553,9.161,8.8,8.8,0,0,0,3.609,2.806,9.175,9.175,0,0,0,5.071.6,8.968,8.968,0,0,0,4.835-2.448,8.347,8.347,0,0,0,2.381-4.719,7.589,7.589,0,0,0-.037-2.527,7.669,7.669,0,0,0-.763-2.311,8.63,8.63,0,0,0-3.05-3.361,9.071,9.071,0,0,0-3.815-1.361,9.323,9.323,0,0,0-5.752,1.153c-1.216.71-1.747,1.3-1.79,1.252" transform="translate(-3.065 -6.538)" fill="#e0e0e0"/>
                <path id="Trazado_639822" data-name="Trazado 639822" d="M288.322,118.876a2.032,2.032,0,0,1-.281-.142l-.835-.463-3.282-1.859.1-.013-5.82,5.848.016-.157,2.809,4.074.05.073-.045.078a19.294,19.294,0,0,0-1.98,4.872l-.024.1-.1.024-4.946,1.176.142-.175c.052,2.545.109,5.246.167,8.082l-.162-.188,4.99.986.127.026.037.12a19.288,19.288,0,0,0,2.175,4.779l.07.11-.07.112-2.634,4.179-.037-.274c1.907,1.762,3.964,3.66,6.071,5.608l-.3-.028,4.258-2.681.125-.079.131.069a21.045,21.045,0,0,0,5.053,1.9l.148.035.037.141,1.216,4.745-.25-.185,8.428-.145-.247.2,1.037-4.784.033-.148.15-.041a20.917,20.917,0,0,0,4.973-2.071l0,0,.137-.077.133.077,4.355,2.532-.321.04q2.97-2.946,5.857-5.814l-.03.306-2.79-4.086-.084-.124.075-.128a19.091,19.091,0,0,0,1.99-4.843l.038-.142.147-.034,4.949-1.159-.188.233q-.071-4.139-.14-8.082l.19.22-4.988-1-.138-.027-.039-.13a19.217,19.217,0,0,0-2.158-4.783l-.07-.112.07-.111q1.361-2.146,2.648-4.172l.035.256-6.053-5.627.247.023-4.266,2.667-.1.059-.1-.052A21.1,21.1,0,0,0,304,116.753l-.1-.024-.025-.1c-.434-1.726-.826-3.28-1.2-4.749l.151.112-8.429.106.111-.089-1.07,4.777-.011.048-.048.012a21.893,21.893,0,0,0-3.854,1.422l-.906.454a2.2,2.2,0,0,1-.3.147,2.423,2.423,0,0,1,.281-.183c.193-.114.485-.285.889-.491a20.507,20.507,0,0,1,3.848-1.5l-.058.061c.274-1.307.6-2.877,1.005-4.79l.019-.086.094,0,8.428-.177.122,0,.03.115c.38,1.466.783,3.018,1.23,4.741l-.125-.12a21.393,21.393,0,0,1,5.164,1.932l-.193.008,4.254-2.688.132-.083.115.106c1.922,1.77,3.939,3.632,6.076,5.6l.125.115-.09.141-2.633,4.18v-.223a19.628,19.628,0,0,1,2.221,4.884l-.176-.158,4.99.99.187.037,0,.183q.077,3.942.156,8.083l0,.189-.192.046-4.948,1.166.184-.176a19.572,19.572,0,0,1-2.033,4.965l-.01-.252q1.383,2.022,2.794,4.084l.113.164-.143.142-5.854,5.817-.143.142-.177-.1q-2.159-1.257-4.356-2.531h.268l0,0a21.412,21.412,0,0,1-5.1,2.124l.182-.189c-.356,1.642-.71,3.273-1.039,4.784l-.043.194-.2,0-8.429.139-.2,0-.048-.19-1.21-4.746.183.176a21.477,21.477,0,0,1-5.173-1.956l.254-.009-4.262,2.674-.162.1-.138-.128-6.058-5.623-.133-.123.1-.151,2.647-4.172v.221a19.627,19.627,0,0,1-2.206-4.888l.162.145-4.987-1-.159-.032,0-.157c-.046-2.836-.088-5.537-.129-8.083l0-.141.143-.033,4.952-1.151-.125.12a19.509,19.509,0,0,1,2.044-4.935l.006.15L278,122.229l-.057-.085.073-.072,5.89-5.783.046-.046.055.033,3.209,1.914.824.5a2.543,2.543,0,0,1,.28.183" transform="translate(-2.89 -5.72)" fill="#e0e0e0"/>
                <path id="Trazado_639823" data-name="Trazado 639823" d="M302.908,204.053a21.077,21.077,0,0,1,5.04-2.1l1.038-4.784,8.429-.142,1.213,4.746a21.2,21.2,0,0,1,5.114,1.929l4.26-2.677,6.065,5.615-2.641,4.177a19.358,19.358,0,0,1,2.191,4.834l4.988,1,.148,8.083L333.8,225.89a19.3,19.3,0,0,1-2.012,4.9l2.792,4.085-5.856,5.816-4.355-2.532a21.12,21.12,0,0,1-5.041,2.1l-1.039,4.784-8.428.142-1.213-4.746a21.2,21.2,0,0,1-5.115-1.93l-4.26,2.678-6.065-5.616,2.641-4.176a19.359,19.359,0,0,1-2.191-4.834l-4.989-1-.147-8.082,4.948-1.164a19.337,19.337,0,0,1,2.013-4.9l-2.792-4.085,5.856-5.815ZM307.4,214.82a8.422,8.422,0,0,0,.225,12.262,9.32,9.32,0,0,0,12.788-.215,8.422,8.422,0,0,0-.225-12.262,9.32,9.32,0,0,0-12.788.215" transform="translate(-3.046 -10.09)" fill="#e0e0e0"/>
                <path id="Trazado_639824" data-name="Trazado 639824" d="M307.573,215.629a6.733,6.733,0,0,1,1.684-1.417,9.463,9.463,0,0,1,9.909.028,9.018,9.018,0,0,1,3.243,3.5,8.125,8.125,0,0,1,.822,2.435,8.014,8.014,0,0,1,.051,2.669,8.787,8.787,0,0,1-2.511,5,9.443,9.443,0,0,1-5.123,2.583,9.09,9.09,0,0,1-2.784.046,8.984,8.984,0,0,1-2.566-.7,9.174,9.174,0,0,1-3.766-2.985,8.527,8.527,0,0,1-1.564-3.8,8.344,8.344,0,0,1,1.186-5.7,6.623,6.623,0,0,1,1.418-1.663c.049.04-.546.569-1.243,1.759a8.317,8.317,0,0,0,.553,9.161,8.812,8.812,0,0,0,3.609,2.806,9.175,9.175,0,0,0,5.071.6A8.971,8.971,0,0,0,320.4,227.5a8.341,8.341,0,0,0,2.381-4.719,7.587,7.587,0,0,0-.037-2.527,7.67,7.67,0,0,0-.763-2.311,8.63,8.63,0,0,0-3.05-3.361,9.07,9.07,0,0,0-3.815-1.361,9.318,9.318,0,0,0-5.751,1.153c-1.217.71-1.747,1.3-1.791,1.252" transform="translate(-3.219 -10.899)" fill="#e0e0e0"/>
                <path id="Trazado_639825" data-name="Trazado 639825" d="M302.906,204.044a2.029,2.029,0,0,1-.281-.142l-.835-.462-3.282-1.859.1-.014-5.82,5.848.016-.157,2.809,4.074.05.073-.045.078a19.288,19.288,0,0,0-1.98,4.873l-.025.094-.1.025c-1.542.368-3.21.765-4.946,1.176l.142-.175c.052,2.545.108,5.246.167,8.082l-.162-.187c1.544.3,3.246.64,4.99.986l.127.025.036.12a19.337,19.337,0,0,0,2.176,4.778l.07.111-.07.111-2.634,4.179-.037-.274,6.071,5.607-.3-.027,4.258-2.681.125-.079.131.07a21.068,21.068,0,0,0,5.053,1.9l.147.035.037.141,1.216,4.745-.25-.185,8.428-.145-.247.2,1.037-4.784.033-.148.15-.041a20.932,20.932,0,0,0,4.973-2.071l0,0,.137-.077.133.077,4.355,2.532-.321.04q2.97-2.946,5.857-5.813l-.03.305-2.79-4.086-.084-.124.075-.127a19.115,19.115,0,0,0,1.99-4.844l.038-.142.147-.034,4.949-1.159-.188.233q-.071-4.139-.14-8.082l.19.219-4.988-1-.138-.027-.039-.13a19.218,19.218,0,0,0-2.158-4.783l-.07-.111.07-.112,2.648-4.172.035.256-6.053-5.627.247.024c-1.5.936-2.909,1.818-4.266,2.666l-.095.06-.1-.053a21.18,21.18,0,0,0-5.065-1.927l-.1-.024-.025-.1c-.434-1.726-.826-3.28-1.2-4.749l.151.112c-3.265.042-6.048.076-8.429.107l.111-.09c-.427,1.908-.778,3.473-1.07,4.777l-.011.048-.048.012a21.879,21.879,0,0,0-3.854,1.423l-.907.454a2.165,2.165,0,0,1-.3.147,2.419,2.419,0,0,1,.281-.183c.193-.114.485-.285.889-.491a20.44,20.44,0,0,1,3.848-1.5l-.058.062c.274-1.308.6-2.877,1.005-4.791l.019-.085.094,0,8.427-.178.123,0,.03.116c.38,1.466.783,3.018,1.23,4.74l-.125-.12a21.391,21.391,0,0,1,5.164,1.932l-.193.008,4.254-2.687.132-.084.115.106,6.076,5.6.125.115-.09.141-2.633,4.18v-.223a19.664,19.664,0,0,1,2.221,4.884l-.176-.158,4.99.99.187.037,0,.184q.076,3.941.156,8.082l0,.189-.192.046-4.948,1.167.184-.176a19.589,19.589,0,0,1-2.033,4.966l-.01-.253,2.794,4.084.113.164-.143.142-5.854,5.817-.143.142-.177-.1-4.355-2.531h.268l0,0a21.412,21.412,0,0,1-5.1,2.124l.182-.189c-.356,1.642-.711,3.273-1.039,4.784l-.043.194-.206,0-8.428.139-.2,0-.048-.19-1.21-4.746.183.176a21.474,21.474,0,0,1-5.173-1.956l.254-.009c-1.477.928-2.935,1.841-4.262,2.674l-.162.1-.138-.128-6.057-5.623-.133-.123.1-.151,2.647-4.172v.222a19.65,19.65,0,0,1-2.205-4.889l.162.145-4.987-1-.159-.032,0-.156c-.045-2.837-.088-5.538-.129-8.084l0-.14.142-.034,4.953-1.15-.125.119a19.51,19.51,0,0,1,2.044-4.935l.006.15c-1-1.474-1.934-2.854-2.775-4.095l-.057-.085.073-.072,5.89-5.783.046-.046.055.033,3.209,1.914.824.5a2.545,2.545,0,0,1,.28.183" transform="translate(-3.044 -10.082)" fill="#e0e0e0"/>
                <path id="Trazado_639826" data-name="Trazado 639826" d="M75.907,196.037a9.622,9.622,0,0,1,2.06-1.472l-.059-2.283,3.819-.926,1.079,2.035a9.989,9.989,0,0,1,2.542.355l1.641-1.654,3.384,1.935-.737,2.17a9.282,9.282,0,0,1,1.535,1.975l2.381-.057.966,3.662-2.122,1.035a8.892,8.892,0,0,1-.37,2.437l1.725,1.573-2.017,3.245-2.263-.707a9.621,9.621,0,0,1-2.06,1.472l.059,2.283-3.819.926-1.079-2.035a10.068,10.068,0,0,1-2.542-.355l-1.64,1.654L75,211.372l.737-2.17a9.282,9.282,0,0,1-1.535-1.975l-2.381.057-.966-3.662,2.122-1.036a8.929,8.929,0,0,1,.37-2.436l-1.725-1.573,2.017-3.245Zm3.242,4.439a3.96,3.96,0,0,0,1.465,5.556,4.33,4.33,0,0,0,5.8-1.405,3.961,3.961,0,0,0-1.466-5.556,4.329,4.329,0,0,0-5.794,1.405" transform="translate(-0.748 -9.8)" fill="#ebebeb"/>
                <path id="Trazado_639827" data-name="Trazado 639827" d="M79.231,200.858a3.08,3.08,0,0,1,.609-.817,4.269,4.269,0,0,1,2.536-1.212,4.429,4.429,0,0,1,1.976.212,4.325,4.325,0,0,1,1.865,1.262,3.865,3.865,0,0,1,.645,1.024,3.791,3.791,0,0,1,.321,1.21,4.032,4.032,0,0,1-.587,2.531,4.309,4.309,0,0,1-2.044,1.7,4.209,4.209,0,0,1-1.262.305,4.254,4.254,0,0,1-1.246-.058A4.4,4.4,0,0,1,80,206.042a4.083,4.083,0,0,1-1.134-1.567,3.877,3.877,0,0,1-.094-2.715,3.027,3.027,0,0,1,.46-.9c.027.013-.185.315-.37.928a3.892,3.892,0,0,0,.162,2.628,3.965,3.965,0,0,0,1.108,1.483,4.222,4.222,0,0,0,1.954.908,4.3,4.3,0,0,0,2.374-.248,4.086,4.086,0,0,0,1.928-1.608,3.837,3.837,0,0,0,.558-2.391,3.569,3.569,0,0,0-.3-1.146,3.667,3.667,0,0,0-.6-.973,4.146,4.146,0,0,0-1.761-1.217,4.336,4.336,0,0,0-4.376.883c-.474.448-.65.769-.675.753" transform="translate(-0.829 -10.181)" fill="#ebebeb"/>
                <path id="Trazado_639828" data-name="Trazado 639828" d="M75.906,196.033a.923.923,0,0,1-.143-.036l-.431-.125-1.7-.51.046-.016-2,3.256-.011-.073,1.732,1.566.032.028-.012.04a8.9,8.9,0,0,0-.359,2.419v.046l-.044.021L70.9,203.691l.045-.094c.307,1.153.633,2.376.975,3.66l-.094-.068,2.38-.062h.061l.029.05a9.259,9.259,0,0,0,1.522,1.952l.045.044-.02.058L75.1,211.4l-.048-.12,3.387,1.931-.14.018c.511-.515,1.072-1.082,1.639-1.656l.048-.048.067.018a9.994,9.994,0,0,0,2.511.349h.07l.033.061c.338.638.707,1.332,1.081,2.034l-.136-.059L87.437,213l-.091.115c-.019-.721-.04-1.5-.06-2.283l0-.07.064-.034a9.539,9.539,0,0,0,2.032-1.451l0,0,.053-.048.068.021,2.264.707-.141.051,2.018-3.245.02.142-1.724-1.574-.052-.047.02-.066a8.792,8.792,0,0,0,.367-2.407v-.067l.063-.031,2.123-1.033-.059.125q-.493-1.876-.963-3.663l.111.081-2.381.054-.065,0-.032-.055a9.218,9.218,0,0,0-1.515-1.956l-.044-.044.019-.057.741-2.169.045.113-3.38-1.941.115-.015L85.41,193.8l-.036.036-.05-.013a9.966,9.966,0,0,0-2.519-.359h-.048l-.022-.041c-.389-.741-.74-1.409-1.073-2.039l.082.035-3.824.911.042-.052c.017.912.032,1.66.044,2.284v.023l-.021.01a10.018,10.018,0,0,0-1.6,1.041l-.362.3a.919.919,0,0,1-.121.1,1.187,1.187,0,0,1,.108-.112c.074-.071.189-.179.349-.314a9.33,9.33,0,0,1,1.584-1.078l-.02.034c-.021-.623-.046-1.371-.075-2.283l0-.042.043-.01,3.815-.942.055-.014.027.049,1.086,2.032-.07-.042a10.093,10.093,0,0,1,2.565.351l-.087.023,1.637-1.658.05-.052.064.037,3.388,1.928.069.039-.025.074c-.238.7-.482,1.426-.733,2.171l-.025-.1a9.427,9.427,0,0,1,1.553,2l-.1-.053,2.381-.06.089,0,.022.083q.473,1.786.97,3.661l.023.085-.082.041-2.121,1.036.063-.1a9,9,0,0,1-.373,2.467l-.032-.114,1.725,1.573.07.063-.049.08q-.994,1.6-2.016,3.245l-.049.08-.092-.028-2.263-.707.122-.028,0,0a9.731,9.731,0,0,1-2.084,1.488l.062-.1c.02.784.04,1.562.058,2.283l0,.092-.093.023-3.82.925-.092.022-.043-.081c-.373-.7-.741-1.4-1.078-2.036l.1.062a10.184,10.184,0,0,1-2.572-.361l.115-.029-1.642,1.652-.062.063-.077-.045-3.381-1.938-.074-.042.027-.079c.257-.755.511-1.5.74-2.169l.025.1a9.388,9.388,0,0,1-1.547-2l.09.049-2.381.053h-.076l-.019-.07c-.335-1.286-.655-2.51-.957-3.664l-.017-.064.061-.03,2.125-1.029-.044.067a9,9,0,0,1,.382-2.455l.019.067-1.718-1.58-.036-.032.025-.041,2.037-3.233.016-.026.03.009,1.672.543.431.144a1.243,1.243,0,0,1,.147.055" transform="translate(-0.747 -9.795)" fill="#ebebeb"/>
                <path id="Trazado_639829" data-name="Trazado 639829" d="M451.508,437.325h-98.5l8.972-87.023h80.276Z" transform="translate(-3.727 -17.94)" fill="#f5f5f5"/>
                <path id="Trazado_639830" data-name="Trazado 639830" d="M381.492,359.493a2.272,2.272,0,1,1-2.27-2.177,2.225,2.225,0,0,1,2.27,2.177" transform="translate(-3.979 -18.299)" fill="#e0e0e0"/>
                <path id="Trazado_639831" data-name="Trazado 639831" d="M426.978,359.493a2.272,2.272,0,1,1-2.27-2.177,2.225,2.225,0,0,1,2.27,2.177" transform="translate(-4.46 -18.299)" fill="#e0e0e0"/>
                <path id="Trazado_639832" data-name="Trazado 639832" d="M378.664,357.207V334.938c0-12.3,10.4-22.269,23.222-22.269s23.223,9.97,23.223,22.269v22.269" transform="translate(-3.998 -16.012)" fill="none" stroke="#e0e0e0" stroke-miterlimit="10" stroke-width="1"/>
                <path id="Trazado_639833" data-name="Trazado 639833" d="M161.629,435.719H29.467L41.506,318.95H149.222Z" transform="translate(-0.311 -16.334)" fill="#f5f5f5"/>
                <path id="Trazado_639834" data-name="Trazado 639834" d="M67.681,331.283a3.049,3.049,0,1,1-3.046-2.92,2.986,2.986,0,0,1,3.046,2.92" transform="translate(-0.65 -16.816)" fill="#e0e0e0"/>
                <path id="Trazado_639835" data-name="Trazado 639835" d="M128.714,331.283a3.049,3.049,0,1,1-3.046-2.92,2.986,2.986,0,0,1,3.046,2.92" transform="translate(-1.295 -16.816)" fill="#e0e0e0"/>
                <path id="Trazado_639836" data-name="Trazado 639836" d="M63.885,328.215V298.334c0-16.5,13.951-29.881,31.162-29.881s31.162,13.379,31.162,29.881v29.881" transform="translate(-0.674 -13.748)" fill="none" stroke="#e0e0e0" stroke-miterlimit="10" stroke-width="1"/>
                <path id="Trazado_639837" data-name="Trazado 639837" d="M87.73,438.288H9.426L16.558,369.1H80.379Z" transform="translate(-0.1 -18.903)" fill="#ebebeb"/>
                <path id="Trazado_639838" data-name="Trazado 639838" d="M32.066,376.411a1.806,1.806,0,1,1-1.8-1.731,1.769,1.769,0,0,1,1.8,1.731" transform="translate(-0.3 -19.188)" fill="#e0e0e0"/>
                <path id="Trazado_639839" data-name="Trazado 639839" d="M68.227,376.411a1.806,1.806,0,1,1-1.8-1.731,1.769,1.769,0,0,1,1.8,1.731" transform="translate(-0.682 -19.188)" fill="#e0e0e0"/>
                <path id="Trazado_639840" data-name="Trazado 639840" d="M29.817,374.593v-17.7c0-9.777,8.266-17.7,18.463-17.7s18.463,7.927,18.463,17.7v17.7" transform="translate(-0.315 -17.37)" fill="none" stroke="#e0e0e0" stroke-miterlimit="10" stroke-width="1"/>
                <path id="Trazado_639841" data-name="Trazado 639841" d="M71.18,404.215s-5.935-11.54-6.848-12.415a8.824,8.824,0,0,0-2.171-1.272,11.5,11.5,0,0,0-1.367-.569l-.1-.037h0c-2.562-.907-6.577-1.842-6.577-1.842s-1.024,3.343-5.887,3.583c-4.863-.24-5.887-3.583-5.887-3.583s-4.016.935-6.577,1.842h0l-.1.037a11.527,11.527,0,0,0-1.368.569,8.805,8.805,0,0,0-2.171,1.272c-.912.875-6.847,12.415-6.847,12.415l8.682,4.162,2.638-5.759-.6,20.855H60.594l-.735-20.855,2.639,5.759Z" transform="translate(-0.267 -19.874)" fill="#e0e0e0"/>
                <rect id="Rectángulo_330746" data-name="Rectángulo 330746" width="17.046" height="51.052" transform="translate(4.106 25.399)" fill="#ebebeb"/>
                <rect id="Rectángulo_330747" data-name="Rectángulo 330747" width="17.046" height="39.391" transform="translate(29.558 37.061)" fill="#ebebeb"/>
                <rect id="Rectángulo_330748" data-name="Rectángulo 330748" width="17.046" height="23.392" transform="translate(53.121 53.059)" fill="#ebebeb"/>
                <path id="Trazado_639842" data-name="Trazado 639842" d="M350.163,30.082c2.892,13.463-6.171,26.632-20.243,29.412S302.093,53.614,299.2,40.15s6.17-26.631,20.243-29.411,27.826,5.881,30.718,19.343" transform="translate(-3.153 -0.523)" fill="#f5f5f5"/>
                <path id="Trazado_639843" data-name="Trazado 639843" d="M344.166,31.6c2.2,10.259-4.7,20.295-15.427,22.413s-21.2-4.481-23.408-14.74,4.7-20.3,15.426-22.413,21.2,4.48,23.409,14.74" transform="translate(-3.219 -0.843)" fill="#ebebeb"/>
                <path id="Trazado_639844" data-name="Trazado 639844" d="M344.031,30.978a10.966,10.966,0,0,1-.994-2.138,19.717,19.717,0,0,0-11.246-10.458,18.991,18.991,0,0,0-2.635-.769,19.222,19.222,0,0,0-2.837-.413,20.026,20.026,0,0,0-2.97,0,20.109,20.109,0,0,0-5.934,1.359,19.737,19.737,0,0,0-2.652,1.286,18.622,18.622,0,0,0-2.336,1.6,18.078,18.078,0,0,0-1.988,1.828,18.64,18.64,0,0,0-4.488,8.007,19.373,19.373,0,0,0-.608,6.2,10.845,10.845,0,0,1,.122,2.338,5.422,5.422,0,0,1-.709-2.273,16.884,16.884,0,0,1,.147-6.491,18.765,18.765,0,0,1,1.5-4.3,19.355,19.355,0,0,1,2.985-4.367,18.971,18.971,0,0,1,2.1-2,19.321,19.321,0,0,1,2.494-1.751,20.492,20.492,0,0,1,2.851-1.41,21.08,21.08,0,0,1,6.4-1.465,20.883,20.883,0,0,1,3.207.021,20.077,20.077,0,0,1,3.051.481,19.862,19.862,0,0,1,2.815.873,20.483,20.483,0,0,1,4.723,2.6,19.774,19.774,0,0,1,3.367,3.182,17.379,17.379,0,0,1,3.195,5.725,5.367,5.367,0,0,1,.439,2.335" transform="translate(-3.215 -0.804)" fill="#e0e0e0"/>
                <path id="Trazado_639845" data-name="Trazado 639845" d="M329.446,46.418l.746,3.234-3.011.638-.725-3.146a15.21,15.21,0,0,1-8.029-.72l.843-3.874a12.945,12.945,0,0,0,6.315.811l-1.112-4.822c-3.522-.069-7.5-.346-8.453-4.475-.706-3.06,1.006-6.179,5.643-7.706l-.738-3.205,3.011-.639.725,3.147a14.512,14.512,0,0,1,6.517.465L330.491,30a13.149,13.149,0,0,0-4.952-.525l1.131,4.908c3.515.042,7.435.332,8.373,4.4.694,3-1,6.086-5.6,7.637M323.495,34.3l-.948-4.1c-1.515.685-1.954,1.657-1.733,2.609.233,1.01,1.263,1.368,2.681,1.491m6.783,5.86c-.235-1.011-1.233-1.374-2.628-1.533l.918,3.984c1.433-.636,1.923-1.527,1.71-2.451" transform="translate(-3.335 -1.153)" fill="#e0e0e0"/>
                <path id="Trazado_639846" data-name="Trazado 639846" d="M451.2,257.871c-6.418,12.292-22.036,17.256-34.884,11.089s-18.061-21.132-11.644-33.425,22.035-17.256,34.883-11.089,18.061,21.132,11.645,33.424" transform="translate(-4.243 -11.359)" fill="#f5f5f5"/>
                <path id="Trazado_639847" data-name="Trazado 639847" d="M445.726,255.534c-4.89,9.366-16.792,13.15-26.583,8.45s-13.764-16.1-8.873-25.471,16.793-13.15,26.583-8.45,13.763,16.1,8.873,25.471" transform="translate(-4.309 -11.679)" fill="#ebebeb"/>
                <path id="Trazado_639848" data-name="Trazado 639848" d="M446.02,254.962a10.859,10.859,0,0,1,.6-2.27,19.394,19.394,0,0,0,.676-6.192,18.331,18.331,0,0,0-2.759-8.7,17.682,17.682,0,0,0-1.573-2.167A18.025,18.025,0,0,0,441,233.628a19.1,19.1,0,0,0-2.334-1.762A21.4,21.4,0,0,0,436,230.429a21.937,21.937,0,0,0-2.871-1.017,20.128,20.128,0,0,0-2.912-.563,20.272,20.272,0,0,0-5.608.125,20.176,20.176,0,0,0-13.17,8.133c-.887,1.22-1.3,1.957-1.413,1.907a5.454,5.454,0,0,1,.91-2.207,17.741,17.741,0,0,1,4.306-5.01,20.145,20.145,0,0,1,3.954-2.484,20.843,20.843,0,0,1,5.163-1.658,19.912,19.912,0,0,1,2.94-.325,20.41,20.41,0,0,1,3.089.1,20.993,20.993,0,0,1,3.148.585,22.575,22.575,0,0,1,3.1,1.09,22.264,22.264,0,0,1,2.874,1.557,20.076,20.076,0,0,1,2.5,1.919,18.747,18.747,0,0,1,2.085,2.188,18.441,18.441,0,0,1,1.649,2.358,18.964,18.964,0,0,1,2.03,4.845,18.546,18.546,0,0,1,.592,4.5,16.976,16.976,0,0,1-1.185,6.393,5.54,5.54,0,0,1-1.163,2.1" transform="translate(-4.329 -11.641)" fill="#e0e0e0"/>
                <path id="Trazado_639849" data-name="Trazado 639849" d="M424.794,258.491l-1.5,2.983-2.776-1.287,1.46-2.9a14.36,14.36,0,0,1-5.842-5.33l3.162-2.543a12.178,12.178,0,0,0,4.436,4.384l2.238-4.447c-2.721-2.145-5.668-4.724-3.751-8.532,1.421-2.822,4.778-4.255,9.407-2.7l1.488-2.955,2.777,1.285-1.461,2.9a13.731,13.731,0,0,1,4.819,4.233l-3.037,2.633a12.39,12.39,0,0,0-3.551-3.351l-2.279,4.528c2.734,2.118,5.625,4.672,3.736,8.426-1.394,2.77-4.712,4.189-9.326,2.677m3.148-13.054,1.9-3.782c-1.632-.362-2.6.141-3.046,1.02-.468.932.11,1.825,1.145,2.762m1.546,8.628c.469-.933-.081-1.81-1.075-2.764l-1.849,3.675c1.536.35,2.494-.059,2.924-.911" transform="translate(-4.393 -12.043)" fill="#e0e0e0"/>
                <path id="Trazado_639850" data-name="Trazado 639850" d="M460.468,302.524c1.768,8.233-3.774,16.284-12.378,17.984s-17.013-3.6-18.783-11.828S433.08,292.4,441.685,290.7s17.013,3.595,18.783,11.827" transform="translate(-4.529 -14.871)" fill="#f5f5f5"/>
                <path id="Trazado_639851" data-name="Trazado 639851" d="M456.8,303.452a11.632,11.632,0,0,1-9.433,13.7,12.108,12.108,0,0,1-14.313-9.013,11.633,11.633,0,0,1,9.432-13.705,12.109,12.109,0,0,1,14.314,9.013" transform="translate(-4.569 -15.066)" fill="#ebebeb"/>
                <path id="Trazado_639852" data-name="Trazado 639852" d="M456.719,303.072a6.738,6.738,0,0,1-.608-1.307,12.052,12.052,0,0,0-6.877-6.395,12.327,12.327,0,0,0-3.346-.722,12.207,12.207,0,0,0-1.816,0,12.25,12.25,0,0,0-3.628.83,12.108,12.108,0,0,0-1.622.787,11.429,11.429,0,0,0-1.428.978,11.064,11.064,0,0,0-1.216,1.118,11.4,11.4,0,0,0-2.745,4.9,11.838,11.838,0,0,0-.371,3.789,6.5,6.5,0,0,1,.074,1.43,3.333,3.333,0,0,1-.433-1.391,10.321,10.321,0,0,1,.09-3.969,11.459,11.459,0,0,1,.919-2.627,11.814,11.814,0,0,1,1.826-2.67,11.362,11.362,0,0,1,1.283-1.223,11.885,11.885,0,0,1,1.525-1.071,12.575,12.575,0,0,1,1.743-.861,13.628,13.628,0,0,1,1.919-.6,13.937,13.937,0,0,1,1.995-.3,12.852,12.852,0,0,1,1.96.013,12.216,12.216,0,0,1,1.865.294,12.033,12.033,0,0,1,1.722.534,12.5,12.5,0,0,1,2.887,1.59,12.06,12.06,0,0,1,2.059,1.945,10.6,10.6,0,0,1,1.953,3.5,3.279,3.279,0,0,1,.269,1.428" transform="translate(-4.567 -15.043)" fill="#e0e0e0"/>
                <path id="Trazado_639853" data-name="Trazado 639853" d="M447.8,312.513l.456,1.977-1.841.39-.443-1.924a9.3,9.3,0,0,1-4.91-.44l.516-2.368a7.918,7.918,0,0,0,3.861.5l-.68-2.949c-2.154-.043-4.587-.212-5.169-2.736-.431-1.871.615-3.778,3.451-4.713l-.452-1.959,1.841-.391.443,1.925a8.872,8.872,0,0,1,3.984.284l-.419,2.367a8.047,8.047,0,0,0-3.029-.322l.692,3c2.149.025,4.546.2,5.12,2.691.424,1.836-.609,3.721-3.422,4.67m-3.64-7.413-.579-2.506c-.926.418-1.194,1.012-1.061,1.595.143.618.773.837,1.639.911m4.148,3.584c-.143-.619-.754-.84-1.607-.937l.562,2.436c.876-.39,1.175-.935,1.045-1.5" transform="translate(-4.64 -15.256)" fill="#e0e0e0"/>
              </g>
            </g>
            <g id="Grupo_882756" data-name="Grupo 882756">
              <g id="Grupo_882755" data-name="Grupo 882755" clip-path="url(#clip-path)">
                <path id="Trazado_639854" data-name="Trazado 639854" d="M449.916,442.169c0,.137-97.808.247-218.434.247-120.668,0-218.455-.11-218.455-.247s97.788-.247,218.455-.247c120.626,0,218.434.11,218.434.247" transform="translate(-0.138 -22.632)" fill="#263238"/>
              </g>
            </g>
            <g id="Grupo_882758" data-name="Grupo 882758">
              <g id="Grupo_882757" data-name="Grupo 882757" clip-path="url(#clip-path)">
                <path id="Trazado_639855" data-name="Trazado 639855" d="M119.188,86.742c0,17.146-14.5,31.046-32.377,31.046s-32.378-13.9-32.378-31.046S68.93,55.7,86.812,55.7s32.377,13.9,32.377,31.046" transform="translate(-0.575 -2.852)" fill="#fafafa"/>
                <path id="Trazado_639856" data-name="Trazado 639856" d="M119.185,86.731s-.027-.171-.052-.5l-.1-1.473q-.031-.488-.069-1.084c-.045-.4-.134-.828-.207-1.3a21.778,21.778,0,0,0-.678-3.2,28.945,28.945,0,0,0-3.591-8.227,31.307,31.307,0,0,0-8.2-8.755,32.653,32.653,0,0,0-13.542-5.755,31.111,31.111,0,0,0-4.067-.45c-.694-.023-1.392-.087-2.1-.077l-2.128.106c-.356.024-.716.022-1.074.067l-1.073.158c-.714.114-1.443.194-2.162.337a35.243,35.243,0,0,0-4.285,1.207,34.243,34.243,0,0,0-4.19,1.768c-.679.353-1.33.764-2,1.146a16.476,16.476,0,0,0-1.939,1.282,35.9,35.9,0,0,0-3.644,2.971,35.279,35.279,0,0,0-3.147,3.571,29.4,29.4,0,0,0-4.592,8.486,29.345,29.345,0,0,0,0,19.439,29.391,29.391,0,0,0,4.592,8.489,35.292,35.292,0,0,0,3.147,3.572,35.8,35.8,0,0,0,3.645,2.972,16.476,16.476,0,0,0,1.939,1.282c.672.382,1.322.793,2,1.147a34.252,34.252,0,0,0,4.191,1.767,35.1,35.1,0,0,0,4.286,1.208c.719.142,1.447.223,2.162.337l1.073.158c.357.046.717.044,1.075.067l2.127.106c.7.01,1.4-.054,2.1-.077a31.111,31.111,0,0,0,4.067-.45,32.655,32.655,0,0,0,13.542-5.757,31.321,31.321,0,0,0,8.2-8.755,28.957,28.957,0,0,0,3.589-8.226,21.651,21.651,0,0,0,.678-3.2c.073-.468.162-.9.207-1.3q.039-.6.069-1.084c.045-.632.079-1.121.1-1.473.026-.332.052-.5.052-.5s.009.17,0,.5c-.013.353-.03.844-.052,1.478q-.021.491-.045,1.09c-.037.4-.118.833-.184,1.3a21.326,21.326,0,0,1-.634,3.227,28.768,28.768,0,0,1-3.536,8.321,31.422,31.422,0,0,1-8.224,8.892,32.924,32.924,0,0,1-13.685,5.882,31.4,31.4,0,0,1-4.12.469c-.7.026-1.411.093-2.124.084l-2.158-.1c-.361-.024-.727-.021-1.089-.065l-1.087-.158c-.726-.114-1.464-.195-2.195-.338A35.32,35.32,0,0,1,75.7,116.1a34.743,34.743,0,0,1-4.258-1.786c-.69-.358-1.351-.773-2.033-1.16a16.777,16.777,0,0,1-1.971-1.3,36.167,36.167,0,0,1-3.7-3.013,35.61,35.61,0,0,1-3.2-3.623A29.865,29.865,0,0,1,55.858,96.6a29.776,29.776,0,0,1,0-19.749,29.881,29.881,0,0,1,4.672-8.617,35.712,35.712,0,0,1,3.2-3.622,36.389,36.389,0,0,1,3.7-3.012,16.858,16.858,0,0,1,1.971-1.3c.683-.387,1.344-.8,2.033-1.159A34.818,34.818,0,0,1,75.7,57.358a35.519,35.519,0,0,1,4.352-1.214c.73-.143,1.468-.224,2.195-.338l1.087-.157c.362-.045.728-.042,1.089-.065l2.158-.1c.713-.009,1.422.059,2.124.083a31.732,31.732,0,0,1,4.119.469,32.941,32.941,0,0,1,13.685,5.881,31.427,31.427,0,0,1,8.225,8.892,28.767,28.767,0,0,1,3.537,8.322,21.326,21.326,0,0,1,.634,3.227c.065.472.147.905.183,1.3q.025.6.046,1.09c.023.635.04,1.126.052,1.479.009.332,0,.5,0,.5" transform="translate(-0.572 -2.841)" fill="#263238"/>
                <path id="Trazado_639857" data-name="Trazado 639857" d="M99.862,84.461a4.8,4.8,0,0,0-.215-.862,8.6,8.6,0,0,0-5.528-5.375,6.747,6.747,0,0,0-5.051.659,6.335,6.335,0,0,0-2.176,2.1A6.245,6.245,0,0,0,85.111,78.9a6.71,6.71,0,0,0-4.936-1.219,8.717,8.717,0,0,0-6.138,4.7,4.887,4.887,0,0,0-.323.841,9.341,9.341,0,0,0,.694,6.817,13.887,13.887,0,0,0,4.62,4.665c3.08,2.024,7.144,4.57,7.144,4.57s3.709-2.349,7.016-4.015a14.084,14.084,0,0,0,5.155-4.116,9.384,9.384,0,0,0,1.52-6.686" transform="translate(-0.775 -3.975)" fill="#fd4c1b"/>
              </g>
            </g>
            <g id="Grupo_882763" data-name="Grupo 882763">
              <g id="Grupo_882762" data-name="Grupo 882762" clip-path="url(#clip-path)">
                <path id="Trazado_639858" data-name="Trazado 639858" d="M65.014,172.472c0,17.147-14.5,31.046-32.377,31.046S.26,189.619.26,172.472s14.5-31.046,32.378-31.046,32.377,13.9,32.377,31.046" transform="translate(-0.003 -7.243)" fill="#fafafa"/>
                <path id="Trazado_639859" data-name="Trazado 639859" d="M65.011,172.461s-.027-.17-.052-.5l-.1-1.473q-.031-.488-.069-1.084c-.045-.4-.134-.828-.207-1.3a21.779,21.779,0,0,0-.678-3.2,28.952,28.952,0,0,0-3.59-8.226,31.316,31.316,0,0,0-8.2-8.756,32.653,32.653,0,0,0-13.543-5.755,31.113,31.113,0,0,0-4.067-.45c-.694-.023-1.392-.087-2.1-.077l-2.128.106c-.356.024-.716.022-1.074.067l-1.073.158c-.715.114-1.443.195-2.162.337a35.079,35.079,0,0,0-4.285,1.208,34.089,34.089,0,0,0-4.19,1.767c-.679.353-1.33.765-2,1.146a16.475,16.475,0,0,0-1.939,1.282,35.9,35.9,0,0,0-3.644,2.971,35.28,35.28,0,0,0-3.147,3.571,29.4,29.4,0,0,0-4.592,8.486,29.345,29.345,0,0,0,0,19.439,29.39,29.39,0,0,0,4.592,8.489,35.291,35.291,0,0,0,3.147,3.572,35.8,35.8,0,0,0,3.645,2.972,16.475,16.475,0,0,0,1.939,1.282c.672.382,1.322.793,2,1.147a34.406,34.406,0,0,0,4.191,1.768,35.253,35.253,0,0,0,4.286,1.207c.719.142,1.447.223,2.162.337l1.073.159c.357.045.717.043,1.075.066l2.127.106c.7.01,1.4-.054,2.1-.077a31.108,31.108,0,0,0,4.067-.45A32.655,32.655,0,0,0,52.115,197a31.322,31.322,0,0,0,8.2-8.755,28.957,28.957,0,0,0,3.589-8.226,21.65,21.65,0,0,0,.678-3.2c.073-.468.162-.9.207-1.3q.039-.6.069-1.084c.045-.632.079-1.121.1-1.473.026-.331.052-.5.052-.5s.009.171,0,.5c-.013.353-.03.844-.052,1.478q-.021.491-.045,1.09c-.037.4-.118.833-.184,1.3a21.326,21.326,0,0,1-.634,3.227,28.768,28.768,0,0,1-3.536,8.321,31.409,31.409,0,0,1-8.224,8.892,32.924,32.924,0,0,1-13.685,5.882,31.564,31.564,0,0,1-4.12.47c-.7.025-1.411.092-2.124.083l-2.158-.1c-.361-.024-.727-.021-1.089-.065l-1.087-.158c-.726-.114-1.464-.195-2.195-.338a35.477,35.477,0,0,1-4.353-1.214,34.9,34.9,0,0,1-4.258-1.787c-.69-.358-1.351-.773-2.033-1.16a16.777,16.777,0,0,1-1.971-1.3,36.165,36.165,0,0,1-3.7-3.013,35.609,35.609,0,0,1-3.2-3.623,29.865,29.865,0,0,1-4.672-8.621,29.773,29.773,0,0,1,0-19.748,29.874,29.874,0,0,1,4.672-8.618,35.712,35.712,0,0,1,3.2-3.622,36.389,36.389,0,0,1,3.7-3.012,16.856,16.856,0,0,1,1.971-1.3c.683-.387,1.344-.8,2.033-1.159a34.814,34.814,0,0,1,4.257-1.787,35.636,35.636,0,0,1,4.352-1.214c.73-.143,1.468-.224,2.195-.338l1.087-.158c.362-.045.728-.042,1.089-.065l2.158-.1c.713-.009,1.422.059,2.124.083a31.73,31.73,0,0,1,4.119.469,32.93,32.93,0,0,1,13.685,5.882,31.411,31.411,0,0,1,8.225,8.891,28.768,28.768,0,0,1,3.537,8.322,21.327,21.327,0,0,1,.634,3.227c.065.472.147.905.183,1.3q.025.6.046,1.09c.023.635.04,1.126.052,1.479.009.332,0,.5,0,.5" transform="translate(0 -7.232)" fill="#263238"/>
                <path id="Trazado_639860" data-name="Trazado 639860" d="M48,189.728H17.643l2.765-26.82H45.149Z" transform="translate(-0.186 -8.343)" fill="#2b95f9"/>
                <path id="Trazado_639861" data-name="Trazado 639861" d="M26.533,165.642a1,1,0,1,1-1-.955.977.977,0,0,1,1,.955" transform="translate(-0.259 -8.434)" fill="#263238"/>
                <path id="Trazado_639862" data-name="Trazado 639862" d="M41.029,165.642a1,1,0,1,1-1-.955.977.977,0,0,1,1,.955" transform="translate(-0.412 -8.434)" fill="#263238"/>
                <path id="Trazado_639863" data-name="Trazado 639863" d="M39.857,165.423a.485.485,0,0,1-.495-.474v-6.664a6.447,6.447,0,0,0-6.663-6.191,6.447,6.447,0,0,0-6.663,6.191v6.664a.5.5,0,0,1-.989,0v-6.664a7.418,7.418,0,0,1,7.652-7.14,7.418,7.418,0,0,1,7.652,7.14v6.664a.485.485,0,0,1-.495.474" transform="translate(-0.264 -7.74)" fill="#e0e0e0"/>
                <g id="Grupo_882761" data-name="Grupo 882761" transform="translate(23.747 161.815)" opacity="0.3">
                  <g id="Grupo_882760" data-name="Grupo 882760">
                    <g id="Grupo_882759" data-name="Grupo 882759" clip-path="url(#clip-path-6)">
                      <path id="Trazado_639864" data-name="Trazado 639864" d="M41.775,176.8s-2.3-4.47-2.652-4.808a3.432,3.432,0,0,0-.841-.492,4.582,4.582,0,0,0-.529-.221l-.038-.014h0c-.992-.351-2.548-.713-2.548-.713a2.568,2.568,0,0,1-4.56,0s-1.554.362-2.547.713h0l-.038.014a4.509,4.509,0,0,0-.529.221,3.413,3.413,0,0,0-.841.492C26.3,172.328,24,176.8,24,176.8l3.362,1.612,1.022-2.231-.233,8.077h9.522l-.284-8.077,1.022,2.231Z" transform="translate(-24 -170.549)"/>
                    </g>
                  </g>
                </g>
              </g>
            </g>
            <g id="Grupo_882765" data-name="Grupo 882765">
              <g id="Grupo_882764" data-name="Grupo 882764" clip-path="url(#clip-path)">
                <path id="Trazado_639865" data-name="Trazado 639865" d="M69.363,281.214c0,17.146-14.5,31.046-32.377,31.046s-32.378-13.9-32.378-31.046,14.5-31.046,32.378-31.046,32.377,13.9,32.377,31.046" transform="translate(-0.049 -12.812)" fill="#fafafa"/>
                <path id="Trazado_639866" data-name="Trazado 639866" d="M69.36,281.2s-.027-.171-.052-.5c-.025-.352-.059-.842-.1-1.473q-.031-.488-.069-1.085c-.045-.4-.134-.828-.207-1.3a21.8,21.8,0,0,0-.678-3.2,28.952,28.952,0,0,0-3.59-8.226,31.315,31.315,0,0,0-8.2-8.756,32.653,32.653,0,0,0-13.543-5.755,31.113,31.113,0,0,0-4.067-.45c-.694-.023-1.392-.087-2.1-.077l-2.128.106c-.356.024-.716.022-1.074.067l-1.072.158c-.715.114-1.444.194-2.163.337a35.084,35.084,0,0,0-4.285,1.208,34.089,34.089,0,0,0-4.19,1.767c-.679.353-1.33.765-2,1.146a16.481,16.481,0,0,0-1.939,1.282,35.909,35.909,0,0,0-3.644,2.971,35.285,35.285,0,0,0-3.147,3.571,29.4,29.4,0,0,0-4.592,8.486,29.345,29.345,0,0,0,0,19.439,29.4,29.4,0,0,0,4.592,8.489,35.293,35.293,0,0,0,3.147,3.572,35.794,35.794,0,0,0,3.645,2.972,16.473,16.473,0,0,0,1.939,1.282c.672.382,1.322.793,2,1.147a34.409,34.409,0,0,0,4.191,1.768,35.263,35.263,0,0,0,4.286,1.207c.719.142,1.447.223,2.162.337l1.073.158c.357.046.717.044,1.075.067l2.127.106c.7.01,1.4-.054,2.1-.077a31.108,31.108,0,0,0,4.067-.45,32.655,32.655,0,0,0,13.543-5.757,31.322,31.322,0,0,0,8.2-8.755,28.957,28.957,0,0,0,3.589-8.226,21.651,21.651,0,0,0,.678-3.2c.073-.468.162-.9.207-1.3q.039-.6.069-1.084c.045-.632.079-1.121.1-1.473.026-.331.052-.5.052-.5s.009.171,0,.5c-.013.353-.03.844-.052,1.478q-.021.491-.045,1.09c-.037.4-.118.833-.184,1.3a21.328,21.328,0,0,1-.634,3.227,28.768,28.768,0,0,1-3.536,8.321,31.422,31.422,0,0,1-8.224,8.892A32.925,32.925,0,0,1,43,311.9a31.392,31.392,0,0,1-4.12.469c-.7.026-1.411.093-2.124.084l-2.158-.1c-.361-.024-.727-.021-1.089-.065l-1.087-.158c-.726-.114-1.464-.194-2.195-.338a35.479,35.479,0,0,1-4.353-1.214,34.893,34.893,0,0,1-4.258-1.787c-.69-.358-1.351-.773-2.033-1.16a16.779,16.779,0,0,1-1.971-1.3,36.162,36.162,0,0,1-3.7-3.013,35.606,35.606,0,0,1-3.2-3.623,29.865,29.865,0,0,1-4.672-8.621,29.773,29.773,0,0,1,0-19.748,29.873,29.873,0,0,1,4.672-8.618,35.706,35.706,0,0,1,3.2-3.622,36.391,36.391,0,0,1,3.7-3.012,16.854,16.854,0,0,1,1.971-1.3c.683-.387,1.344-.8,2.033-1.159a34.814,34.814,0,0,1,4.257-1.787,35.465,35.465,0,0,1,4.352-1.214c.73-.143,1.468-.224,2.195-.338l1.087-.158c.362-.045.728-.042,1.089-.065l2.158-.1c.713-.009,1.422.059,2.124.083a31.564,31.564,0,0,1,4.119.469,32.929,32.929,0,0,1,13.685,5.882,31.411,31.411,0,0,1,8.225,8.891,28.767,28.767,0,0,1,3.537,8.322,21.326,21.326,0,0,1,.634,3.227c.066.472.147.905.184,1.3q.024.6.045,1.09c.023.635.04,1.126.052,1.479.009.332,0,.5,0,.5" transform="translate(-0.046 -12.801)" fill="#263238"/>
                <path id="Trazado_639867" data-name="Trazado 639867" d="M50.383,278.683c0-7.709-7.192-13.807-15.494-12.461a12.917,12.917,0,0,0-10.614,9.866,12.173,12.173,0,0,0,1.546,8.987h-.008l.038.047c.507.817,1.14,1.4,1.78,2.26l7.659,9.729a2.443,2.443,0,0,0,3.8,0l7.532-9.569a27.322,27.322,0,0,0,1.916-2.434l.028-.034h-.006a12.175,12.175,0,0,0,1.822-6.391M38.52,284.05a5.59,5.59,0,1,1,4.329-4.152,5.7,5.7,0,0,1-4.329,4.152" transform="translate(-0.253 -13.624)" fill="#fd4c1b"/>
              </g>
            </g>
            <g id="Grupo_882767" data-name="Grupo 882767">
              <g id="Grupo_882766" data-name="Grupo 882766" clip-path="url(#clip-path)">
                <path id="Trazado_639868" data-name="Trazado 639868" d="M286.237,389.463l-110.125,7.732C147.924,400.9,74.8,414.473,49.985,439.483l363.752-.494c-17.19-24.516-92.26-46.76-127.5-49.526" transform="translate(-0.528 -19.945)" fill="#617a0b"/>
                <path id="Trazado_639869" data-name="Trazado 639869" d="M288.636,285.288c6.054-17.828,12.035-35.791,14.8-54.353s2.189-37.912-4.613-55.491c-1.031-2.664-9.825-20.543-12.776-20.265-2.108.2,3.306,16.875,2.238,18.63-10.184,16.749-12.962,36.9-11.348,56.223s5.8,36.711,11.7,55.256" transform="translate(-2.919 -7.947)" fill="#263238"/>
                <path id="Trazado_639870" data-name="Trazado 639870" d="M214.693,124.877l-4.533.231c-45.635,2.32-81.752,37.855-83.006,81.659-1.167,40.734-1.911,85.745-.427,107.49,3.073,45.027,50.458,49.643,50.458,49.643.106,0-.343,12.049-.207,25.291l1.265.643a111.986,111.986,0,0,0,108.628-4.107L289.286,212.2c1.619-47-25.553-87.076-74.593-87.327" transform="translate(-1.329 -6.395)" fill="#ffc09d"/>
                <path id="Trazado_639871" data-name="Trazado 639871" d="M177.458,375.695s29.71.159,60.22-20.457c0,0-13.1,33.527-60.215,31.857Z" transform="translate(-1.873 -18.192)" fill="#ff9b6c"/>
                <path id="Trazado_639872" data-name="Trazado 639872" d="M142.391,252.426a6.6,6.6,0,0,0,6.829,6.163,6.306,6.306,0,0,0,6.6-6.154,6.607,6.607,0,0,0-6.822-6.168,6.313,6.313,0,0,0-6.6,6.159" transform="translate(-1.503 -12.612)" fill="#263238"/>
                <path id="Trazado_639873" data-name="Trazado 639873" d="M138.089,229.915c.879.8,5.763-3.07,12.984-3.419,7.208-.447,12.705,2.845,13.441,1.957.364-.395-.567-1.867-2.963-3.361a19.054,19.054,0,0,0-10.819-2.6,18.138,18.138,0,0,0-10.276,3.769c-2.129,1.748-2.8,3.3-2.367,3.659" transform="translate(-1.457 -11.393)" fill="#263238"/>
                <path id="Trazado_639874" data-name="Trazado 639874" d="M204.4,252.426a6.6,6.6,0,0,0,6.829,6.161,6.3,6.3,0,0,0,6.6-6.153A6.608,6.608,0,0,0,211,246.268a6.308,6.308,0,0,0-6.6,6.158" transform="translate(-2.158 -12.612)" fill="#263238"/>
                <path id="Trazado_639875" data-name="Trazado 639875" d="M209.73,229.076c.88.8,5.771-3.068,12.987-3.418,7.208-.448,12.7,2.844,13.442,1.956.362-.4-.56-1.866-2.965-3.359a19.045,19.045,0,0,0-10.817-2.606,18.157,18.157,0,0,0-10.278,3.769c-2.124,1.748-2.8,3.3-2.369,3.658" transform="translate(-2.213 -11.35)" fill="#263238"/>
                <path id="Trazado_639876" data-name="Trazado 639876" d="M186.328,283.82c.012-.395-4.518-.911-11.84-1.433-1.854-.087-3.619-.35-4-1.542-.5-1.254.161-3.2.941-5.3q2.245-6.549,4.708-13.74c6.513-19.555,11.122-35.595,10.3-35.84s-6.771,15.407-13.282,34.961q-2.342,7.231-4.474,13.811c-.586,2.045-1.661,4.384-.573,6.988a4.6,4.6,0,0,0,3.174,2.431,12.955,12.955,0,0,0,3.155.258c7.341.006,11.882-.194,11.888-.589" transform="translate(-1.77 -11.572)" fill="#263238"/>
                <path id="Trazado_639877" data-name="Trazado 639877" d="M206.7,204.587c.812,1.848,7.974.6,16.5,1.165,8.538.4,15.5,2.442,16.53.7.459-.834-.827-2.547-3.687-4.233a29.858,29.858,0,0,0-25.163-1.42c-3.047,1.354-4.535,2.911-4.179,3.789" transform="translate(-2.182 -10.175)" fill="#263238"/>
                <path id="Trazado_639878" data-name="Trazado 639878" d="M139.728,205.217c1.322,1.536,6.249-.244,12.234-.5,5.973-.453,11.09.734,12.2-.947.486-.813-.362-2.367-2.625-3.792a18.358,18.358,0,0,0-19.692,1.162c-2.063,1.679-2.706,3.321-2.121,4.073" transform="translate(-1.473 -10.123)" fill="#263238"/>
                <path id="Trazado_639879" data-name="Trazado 639879" d="M288.741,252.178c.783-.373,31.78-10.8,32.459,20.056s-31.769,25.144-31.844,24.261-.614-44.318-.614-44.318" transform="translate(-3.048 -12.813)" fill="#ffc09d"/>
                <path id="Trazado_639880" data-name="Trazado 639880" d="M299.037,285.14c.139-.1.569.364,1.526.762a5.824,5.824,0,0,0,4.192,0c3.372-1.265,6.121-6.5,6.155-12.063a17.162,17.162,0,0,0-1.738-7.664c-1.032-2.237-2.589-3.784-4.307-4.041a2.884,2.884,0,0,0-3.276,1.54c-.413.871-.194,1.483-.364,1.54-.088.08-.7-.5-.471-1.783a3.4,3.4,0,0,1,1.224-1.958,4.356,4.356,0,0,1,3.082-.848c2.485.114,4.768,2.258,5.961,4.665a17.648,17.648,0,0,1,2.133,8.561c-.07,6.222-3.261,12.108-7.885,13.492a6.226,6.226,0,0,1-5.145-.713c-1.012-.743-1.2-1.428-1.087-1.487" transform="translate(-3.157 -13.346)" fill="#ff9b6c"/>
                <path id="Trazado_639881" data-name="Trazado 639881" d="M147.267,155.06c-5.244-2.7,10.18-19.054,22.91-24.772,19.238-8.643,48.712-14.174,66.61-9.532,21.55,5.586,39.523,15.623,50.544,34.239s15.353,40.406,15,61.81c-.107,6.531-.726,13.344-4.292,18.907-4.409,6.877-12.979,11.275-12.481,20.683a12.584,12.584,0,0,1-3.223,9.46c-5.811,6.077-13.087.517-16.471-5.1-7.228-12.005-8.2-26.427-9-40.267-.568-9.837-1.113-19.887,1.66-29.374,1.509-5.162,3.977-10.052,5.185-15.288s.967-11.157-2.478-15.38a19.646,19.646,0,0,0-2.646-2.5,34.691,34.691,0,0,0-33.376-5.688c-18.044,6.362-48.878,15.907-57.036,10.1-11.738-8.348-14.589-13.849-14.589-13.849Z" transform="translate(-1.544 -6.098)" fill="#263238"/>
                <path id="Trazado_639882" data-name="Trazado 639882" d="M177.537,309.455c-.179.518,1.205,1.589,3.921,2.2a19.324,19.324,0,0,0,10.685-.945,18.462,18.462,0,0,0,8.48-6.308c1.546-2.227,1.8-3.915,1.3-4.176-1.107-.584-4.748,4.129-11.4,6.531-6.57,2.6-12.589,1.545-12.98,2.7" transform="translate(-1.874 -15.373)" fill="#263238"/>
                <path id="Trazado_639883" data-name="Trazado 639883" d="M239.686,121.378a22.215,22.215,0,0,0-21.359-8.754c-3.4.57-6.9,1.928-10.183.9-2.81-.876-4.753-3.306-7.286-4.765-6.328-3.645-15.883.85-16.75,7.881-3.707-2.455-7.6-4.952-12.057-5.586s-9.631,1.186-11.271,5.21c-1.252,3.073-.4,7.054-2.9,9.323-3.375,3.066-8.8-.065-13.448.115-5.572.215-9.724,5.789-9.692,11.136S138,147.073,141.9,150.9a45.6,45.6,0,0,0,36.927,12.3l32.994-21.479,22.6-7.842c2.662-.924,5.582-2.066,6.782-4.525,1.251-2.563.128-5.629-1.514-7.98" transform="translate(-1.422 -5.504)" fill="#263238"/>
                <path id="Trazado_639884" data-name="Trazado 639884" d="M278.013,160.2c-2.592-6.895-9.818-11.117-16.915-13.84a87.211,87.211,0,0,0-27.633-5.688l-21.388,17.307a33.294,33.294,0,0,1,31.9,2.287c9.181,6.126,12.1,16.211,13.319,27.889.279,2.682-.328,13.335-.043,16.016s2.7,1.048,5.371,1.891c2.416.763,3.612-3.85,5.39-5.594a17.964,17.964,0,0,0,3.71-6.333,142.534,142.534,0,0,0,5.81-17.645c1.382-5.353,2.43-11.1.48-16.29" transform="translate(-2.239 -7.204)" fill="#263238"/>
              </g>
            </g>
            <g id="Grupo_882772" data-name="Grupo 882772">
              <g id="Grupo_882771" data-name="Grupo 882771" clip-path="url(#clip-path-9)">
                <path id="Trazado_639885" data-name="Trazado 639885" d="M290.689,139.529,376.5,211.014a9.5,9.5,0,0,0,13.035-.9,8.594,8.594,0,0,0-.955-12.464l-84.705-70.219Z" transform="translate(-3.069 -6.526)" fill="#455a64"/>
                <path id="Trazado_639886" data-name="Trazado 639886" d="M254.893,150.534c-31.02,0-56.258-24.2-56.258-53.946s25.238-53.945,56.258-53.945,56.258,24.2,56.258,53.946-25.238,53.945-56.258,53.945m0-100.771c-26.926,0-48.832,21.006-48.832,46.825s21.906,46.826,48.832,46.826,48.832-21.005,48.832-46.825-21.906-46.826-48.832-46.826" transform="translate(-2.097 -2.184)" fill="#455a64"/>
                <path id="Trazado_639887" data-name="Trazado 639887" d="M254.97,50.148s.268,0,.792.013l2.323.088,1.713.071c.628.056,1.308.176,2.049.272l2.389.34c.859.092,1.731.387,2.678.592a47.481,47.481,0,0,1,13.056,5.138A48.219,48.219,0,0,1,293.913,68.55q.784,1,1.586,2.027c.493.711.942,1.461,1.423,2.2.453.757,1,1.475,1.391,2.287q.61,1.205,1.231,2.436l.618,1.238q.249.649.5,1.3l1.014,2.642c.315.9.517,1.837.784,2.767a23.215,23.215,0,0,1,.682,2.844,41.938,41.938,0,0,1,.735,5.943c.039,1.014.144,2.036.13,3.066q-.08,1.544-.161,3.112c-.037.522-.032,1.049-.1,1.571s-.165,1.044-.249,1.568c-.179,1.047-.3,2.112-.532,3.165A48.1,48.1,0,0,1,301.047,113l-.6,1.561c-.1.26-.193.525-.307.781l-.378.755-1.528,3.04c-.563.993-1.214,1.947-1.823,2.931-.322.482-.6,1-.959,1.454l-1.079,1.386a53.709,53.709,0,0,1-4.727,5.34l-2.745,2.395-.69.6c-.242.187-.5.36-.745.541l-1.5,1.08-1.509,1.083-1.613.951-1.624.948-.815.475c-.28.144-.572.269-.857.4l-3.46,1.6-3.633,1.282a50.393,50.393,0,0,1-30.969,0l-3.634-1.282-3.461-1.6c-.286-.136-.577-.261-.858-.4l-.815-.475L229.1,136.9l-1.613-.95-1.51-1.084-1.5-1.079-.745-.542-.691-.6-2.745-2.395a53.6,53.6,0,0,1-4.728-5.341l-1.08-1.387c-.364-.457-.637-.972-.959-1.454-.608-.984-1.26-1.938-1.823-2.932q-.769-1.528-1.528-3.041l-.379-.754c-.114-.256-.2-.522-.307-.782l-.6-1.561a48.075,48.075,0,0,1-1.914-6.275c-.228-1.053-.353-2.119-.533-3.165q-.125-.787-.248-1.569c-.072-.522-.067-1.049-.1-1.571q-.082-1.568-.161-3.113c-.014-1.029.091-2.051.13-3.065a42.094,42.094,0,0,1,.735-5.944,23.232,23.232,0,0,1,.682-2.844c.268-.93.469-1.87.785-2.767q.512-1.334,1.014-2.643.252-.653.5-1.3.312-.622.619-1.239l1.23-2.436c.391-.811.938-1.53,1.392-2.287.481-.742.93-1.492,1.423-2.2l1.586-2.026A48.218,48.218,0,0,1,229.973,56.66a47.5,47.5,0,0,1,13.055-5.137c.947-.2,1.82-.5,2.677-.591l2.389-.34c.741-.1,1.421-.216,2.049-.272l1.713-.071,2.323-.088c.522-.017.791-.013.791-.013s-.268.03-.791.064l-2.317.138-1.707.095c-.624.063-1.3.19-2.039.294l-2.377.361c-.854.1-1.721.4-2.663.612a49.092,49.092,0,0,0-26.759,17.048l-1.568,2.016c-.486.707-.929,1.454-1.4,2.191-.447.752-.989,1.466-1.374,2.272s-.8,1.605-1.213,2.42q-.3.611-.611,1.23l-.493,1.293-1,2.622c-.31.89-.507,1.823-.77,2.745a23.206,23.206,0,0,0-.67,2.821,41.678,41.678,0,0,0-.714,5.893c-.037,1-.14,2.017-.124,3.037q.083,1.531.166,3.085c.039.516.034,1.039.106,1.556s.166,1.034.25,1.554c.18,1.037.306,2.092.532,3.135a47.672,47.672,0,0,0,1.906,6.212l.592,1.545c.1.257.191.52.3.773l.376.747,1.517,3.01c.558.983,1.205,1.926,1.809,2.9.319.476.59.986.95,1.438l1.072,1.372a53.259,53.259,0,0,0,4.686,5.283l2.719,2.368.684.6.738.536,1.488,1.066,1.5,1.072,1.6.938,1.608.937.806.471c.278.141.567.265.85.4l3.424,1.584,3.6,1.267a49.894,49.894,0,0,0,30.644,0l3.6-1.267,3.424-1.584c.283-.134.572-.257.849-.4l.806-.47,1.608-.937,1.6-.939,1.494-1.071,1.488-1.067c.245-.178.5-.35.738-.535l.683-.6q1.367-1.188,2.719-2.367a53.247,53.247,0,0,0,4.684-5.283l1.072-1.372c.36-.453.631-.962.95-1.438.6-.973,1.25-1.917,1.809-2.9q.761-1.513,1.516-3.009l.377-.747c.113-.253.2-.516.3-.773l.592-1.545a47.659,47.659,0,0,0,1.906-6.211c.227-1.043.352-2.1.532-3.134q.126-.78.25-1.554c.072-.517.067-1.04.106-1.557q.083-1.553.165-3.084c.017-1.02-.086-2.032-.123-3.037a41.53,41.53,0,0,0-.714-5.892,23.018,23.018,0,0,0-.669-2.821c-.263-.922-.46-1.855-.77-2.745q-.5-1.324-1-2.622l-.493-1.293q-.306-.618-.611-1.23-.613-1.223-1.213-2.419c-.384-.807-.926-1.521-1.373-2.273-.475-.737-.918-1.484-1.4-2.191l-1.567-2.016a49.11,49.11,0,0,0-26.76-17.051c-.941-.211-1.809-.512-2.663-.611l-2.377-.361c-.737-.105-1.415-.232-2.04-.3l-1.707-.095-2.317-.138c-.522-.033-.791-.064-.791-.064" transform="translate(-2.174 -2.568)" fill="#263238"/>
                <path id="Trazado_639888" data-name="Trazado 639888" d="M254.891,150.521s.309-.032.91-.069l2.671-.155,1.967-.107c.72-.073,1.5-.218,2.351-.339l2.74-.414a10.114,10.114,0,0,0,1.5-.308l1.573-.395a56.56,56.56,0,0,0,30.847-19.642l1.808-2.323c.56-.815,1.072-1.676,1.619-2.526l.815-1.288a10.6,10.6,0,0,0,.769-1.33l1.4-2.789.7-1.417.567-1.491q.571-1.5,1.153-3.023c.357-1.026.585-2.1.887-3.164q.215-.8.431-1.609c.068-.269.151-.538.209-.811l.132-.83a47.764,47.764,0,0,0,.825-6.792c.043-1.158.161-2.325.141-3.5q-.094-1.765-.191-3.555c-.044-.595-.038-1.2-.122-1.794s-.191-1.192-.287-1.79c-.208-1.2-.352-2.412-.614-3.613a54.737,54.737,0,0,0-2.2-7.16q-.34-.888-.682-1.781c-.118-.3-.221-.6-.35-.892l-.434-.861-1.747-3.469c-.644-1.133-1.39-2.22-2.085-3.343-.368-.549-.68-1.137-1.1-1.658L299.866,64.7a61.3,61.3,0,0,0-5.4-6.091q-1.56-1.358-3.134-2.73l-.789-.687c-.276-.213-.567-.411-.851-.617l-1.715-1.23-1.723-1.236c-.6-.372-1.227-.72-1.841-1.083l-1.853-1.081-.93-.542c-.32-.164-.652-.306-.979-.46l-3.947-1.825-4.146-1.461a57.531,57.531,0,0,0-35.329,0l-4.147,1.46-3.949,1.826c-.326.154-.658.3-.979.46l-.93.542-1.854,1.081-1.842,1.083-1.723,1.236-1.716,1.23-.851.617-.789.687-3.135,2.731a61.435,61.435,0,0,0-5.4,6.091l-1.235,1.582c-.416.522-.727,1.109-1.1,1.658-.7,1.122-1.441,2.211-2.085,3.344q-.88,1.745-1.748,3.469l-.433.861c-.131.292-.234.595-.351.892l-.682,1.781a54.955,54.955,0,0,0-2.2,7.161c-.261,1.2-.406,2.418-.613,3.613q-.144.9-.288,1.791c-.083.6-.078,1.2-.122,1.794q-.095,1.792-.191,3.555c-.018,1.177.1,2.344.142,3.5a47.93,47.93,0,0,0,.825,6.792l.132.83c.058.273.141.542.21.812l.431,1.609c.3,1.063.53,2.139.889,3.164q.58,1.526,1.152,3.023l.568,1.491.7,1.417,1.4,2.788a10.621,10.621,0,0,0,.77,1.331l.815,1.288c.547.85,1.059,1.711,1.619,2.525l1.808,2.324a56.569,56.569,0,0,0,30.847,19.639l1.573.395a9.959,9.959,0,0,0,1.5.307l2.739.414c.85.121,1.631.266,2.351.339l1.966.107,2.671.155c.6.037.91.069.91.069s-.309,0-.911-.019L251.3,150.4l-1.973-.084c-.723-.065-1.507-.2-2.36-.315l-2.751-.393a10.058,10.058,0,0,1-1.5-.3l-1.581-.385A54.681,54.681,0,0,1,226.1,143a55.537,55.537,0,0,1-16.056-13.692l-1.826-2.333c-.567-.819-1.084-1.683-1.638-2.538l-.824-1.3a10.762,10.762,0,0,1-.779-1.338q-.7-1.389-1.415-2.806l-.713-1.426-.576-1.5q-.577-1.507-1.168-3.043c-.363-1.033-.595-2.116-.9-3.186q-.218-.807-.437-1.621c-.07-.272-.153-.542-.213-.818l-.135-.836a48.182,48.182,0,0,1-.845-6.844c-.046-1.167-.166-2.344-.149-3.529q.092-1.779.186-3.584c.043-.6.037-1.208.12-1.809s.191-1.2.287-1.806c.207-1.2.351-2.432.613-3.644a55.244,55.244,0,0,1,2.2-7.224q.341-.9.686-1.8c.119-.3.222-.605.353-.9l.436-.868q.874-1.741,1.759-3.5c.648-1.143,1.4-2.242,2.1-3.375.371-.554.685-1.147,1.1-1.675l1.244-1.6a61.551,61.551,0,0,1,5.444-6.149l3.16-2.756.795-.694.858-.623,1.731-1.242,1.737-1.248,1.858-1.094,1.87-1.091.939-.547c.323-.164.658-.309.987-.465l3.983-1.843,4.184-1.475a58.011,58.011,0,0,1,35.654,0l4.183,1.476,3.982,1.843c.329.156.665.3.987.466l.938.547,1.87,1.091c.619.366,1.248.718,1.856,1.094l1.737,1.248,1.73,1.242c.286.208.579.408.858.623l.794.693,3.16,2.757a61.665,61.665,0,0,1,5.442,6.148l1.244,1.595c.418.528.733,1.121,1.1,1.675.7,1.133,1.451,2.231,2.1,3.374l1.758,3.5.436.869c.132.3.235.6.353.9l.686,1.8a55.118,55.118,0,0,1,2.2,7.223c.263,1.213.408,2.438.614,3.644q.144.907.286,1.806c.084.6.078,1.209.121,1.809q.094,1.8.186,3.584c.017,1.185-.1,2.362-.148,3.529a48.331,48.331,0,0,1-.845,6.844l-.135.836c-.058.275-.142.546-.213.817q-.22.814-.437,1.621c-.308,1.07-.539,2.153-.9,3.186q-.589,1.536-1.168,3.043l-.576,1.5-.712,1.426L304.8,121.8a10.5,10.5,0,0,1-.778,1.338l-.824,1.3c-.553.854-1.071,1.718-1.637,2.537l-1.827,2.334A55.54,55.54,0,0,1,283.679,143a54.7,54.7,0,0,1-15.033,5.923l-1.582.385a10.166,10.166,0,0,1-1.5.3l-2.752.393c-.853.113-1.637.25-2.36.315l-1.973.084-2.676.105c-.6.021-.911.019-.911.019" transform="translate(-2.095 -2.171)" fill="#263238"/>
                <path id="Trazado_639889" data-name="Trazado 639889" d="M230.161,133.6a2.242,2.242,0,0,1-.456-.294l-1.248-.921-.894-.676c-.319-.257-.642-.56-1-.874a31.991,31.991,0,0,1-2.363-2.214l-1.309-1.351c-.45-.474-.864-1.013-1.322-1.547-.937-1.052-1.786-2.287-2.711-3.563a51.529,51.529,0,0,1-4.819-8.98,50.576,50.576,0,0,1-2.756-9.749c-.214-1.542-.454-3-.5-4.385-.037-.69-.11-1.355-.11-2s.011-1.255.016-1.844a29.931,29.931,0,0,1,.189-3.162c.045-.464.071-.9.126-1.293s.129-.748.186-1.078c.11-.6.2-1.093.273-1.487a2.067,2.067,0,0,1,.13-.511,2.031,2.031,0,0,1-.027.528c-.048.4-.106.892-.178,1.5q-.064.5-.14,1.078c-.04.4-.051.827-.083,1.289-.043.926-.16,1.977-.112,3.144q.007.877.017,1.829c.011.636.094,1.3.14,1.978.065,1.37.321,2.815.545,4.34A52.26,52.26,0,0,0,214.518,113a53.27,53.27,0,0,0,4.736,8.911c.906,1.27,1.735,2.5,2.65,3.557.446.534.848,1.074,1.287,1.55l1.273,1.362c.785.894,1.611,1.594,2.294,2.25.347.322.661.633.968.9l.861.706c.479.4.87.728,1.183.99a2.223,2.223,0,0,1,.392.373" transform="translate(-2.224 -4.49)" fill="#fff"/>
                <path id="Trazado_639890" data-name="Trazado 639890" d="M298.619,110.4a8.621,8.621,0,0,1-.281,1.481,15.316,15.316,0,0,1-.458,1.711c-.211.658-.415,1.421-.753,2.227a28.133,28.133,0,0,1-1.115,2.63c-.411.944-.962,1.9-1.52,2.917a42.912,42.912,0,0,1-4.414,6.152,43.831,43.831,0,0,1-5.545,5.245c-.947.7-1.832,1.393-2.73,1.946-.868.594-1.721,1.079-2.505,1.513-.768.46-1.516.786-2.155,1.1a16.881,16.881,0,0,1-1.676.731,9.459,9.459,0,0,1-1.471.524,9.183,9.183,0,0,1,1.388-.7c.456-.2,1.009-.46,1.628-.8s1.352-.68,2.1-1.156c.765-.45,1.6-.946,2.447-1.549.878-.561,1.743-1.253,2.671-1.96a46.339,46.339,0,0,0,5.453-5.211,45.329,45.329,0,0,0,4.4-6.059c.563-1,1.122-1.937,1.546-2.864.47-.906.834-1.78,1.162-2.582.357-.79.583-1.539.819-2.185s.411-1.212.539-1.677a8.441,8.441,0,0,1,.475-1.433" transform="translate(-2.893 -5.654)" fill="#fff"/>
                <path id="Trazado_639891" data-name="Trazado 639891" d="M299.586,88.9a18.7,18.7,0,0,1,.712,5.943,18.743,18.743,0,0,1-.71,5.945c-.152-.022.2-2.668.195-5.944.008-3.276-.349-5.922-.2-5.944" transform="translate(-3.162 -4.553)" fill="#fff"/>
                <path id="Trazado_639892" data-name="Trazado 639892" d="M395.913,130.509c-.049-2.613-.1-4.792-.12-5.061,0,0-9.232-.662-10.072-9.4-.406-4.22-.5-12.98-.5-20.906.007-8.513,6.841-15.588,15.69-16.264l.88-.067c9.531-.194,15.028,7.459,14.966,16.6l.28,30.974-15.09,15.487-1.119-.074Z" transform="translate(-4.067 -4.036)" fill="#ffc09d"/>
                <path id="Trazado_639893" data-name="Trazado 639893" d="M395.906,127.735a22.73,22.73,0,0,0,11.592-4.273s-2.365,6.607-11.529,6.516Z" transform="translate(-4.18 -6.323)" fill="#ff9b6c"/>
                <path id="Trazado_639894" data-name="Trazado 639894" d="M401,99.612c.182.176,1.229-.643,2.756-.693,1.525-.071,2.672.662,2.832.472.078-.084-.113-.406-.612-.738a3.944,3.944,0,0,0-2.275-.6,3.779,3.779,0,0,0-2.186.779c-.457.37-.6.7-.514.783" transform="translate(-4.233 -5.021)" fill="#263238"/>
                <path id="Trazado_639895" data-name="Trazado 639895" d="M400.8,103.706a1.217,1.217,0,0,0,1.287,1.1,1.156,1.156,0,0,0,1.18-1.161,1.217,1.217,0,0,0-1.285-1.1,1.157,1.157,0,0,0-1.182,1.162" transform="translate(-4.231 -5.251)" fill="#263238"/>
                <path id="Trazado_639896" data-name="Trazado 639896" d="M397.165,109.851a9.68,9.68,0,0,0-2.308-.22c-.361-.008-.705-.049-.785-.279a1.688,1.688,0,0,1,.154-1.036q.4-1.284.84-2.694c1.161-3.831,1.97-6.972,1.809-7.015s-1.233,3.028-2.392,6.86q-.417,1.416-.8,2.706a1.915,1.915,0,0,0-.073,1.361.9.9,0,0,0,.629.456,2.541,2.541,0,0,0,.615.035,9.492,9.492,0,0,0,2.306-.174" transform="translate(-4.154 -5.05)" fill="#263238"/>
                <path id="Trazado_639897" data-name="Trazado 639897" d="M401.67,94.67c.149.324,1.37.072,2.835.136,1.465.032,2.669.364,2.838.05.073-.149-.156-.447-.656-.733a4.976,4.976,0,0,0-4.321-.141c-.516.253-.761.536-.7.689" transform="translate(-4.24 -4.791)" fill="#263238"/>
                <path id="Trazado_639898" data-name="Trazado 639898" d="M387.213,95.829c.162.264,1.352-.038,2.8-.09,1.444-.077,2.644.118,2.794-.159.066-.133-.174-.368-.679-.576a5.24,5.24,0,0,0-2.138-.324,5.379,5.379,0,0,0-2.119.515c-.5.251-.724.509-.653.635" transform="translate(-4.088 -4.848)" fill="#263238"/>
                <path id="Trazado_639899" data-name="Trazado 639899" d="M416.888,103.17c.15-.075,6.118-2.256,6.416,3.738s-6.038,5.043-6.057,4.871-.358-8.609-.358-8.609" transform="translate(-4.401 -5.261)" fill="#ffc09d"/>
                <path id="Trazado_639900" data-name="Trazado 639900" d="M419.065,109.524c.027-.02.113.068.3.14a1.129,1.129,0,0,0,.814-.021,2.552,2.552,0,0,0,1.132-2.375,3.37,3.37,0,0,0-.379-1.481,1.248,1.248,0,0,0-.86-.764.56.56,0,0,0-.628.316c-.075.171-.03.289-.062.3-.017.016-.139-.094-.1-.344a.657.657,0,0,1,.228-.386.845.845,0,0,1,.595-.18,1.528,1.528,0,0,1,1.183.878,3.431,3.431,0,0,1,.46,1.653,2.689,2.689,0,0,1-1.459,2.66,1.209,1.209,0,0,1-1-.113c-.2-.139-.24-.271-.22-.284" transform="translate(-4.424 -5.363)" fill="#ff9b6c"/>
                <path id="Trazado_639901" data-name="Trazado 639901" d="M398.433,114.362c-.045-.159,1.221-.334,2.242-1.3a6.727,6.727,0,0,0,1.1-1.426c.247-.405.426-.656.49-.626s0,.317-.172.771a4.427,4.427,0,0,1-1.066,1.621,3.8,3.8,0,0,1-1.76.934c-.5.116-.822.082-.83.028" transform="translate(-4.206 -5.685)" fill="#263238"/>
                <path id="Trazado_639902" data-name="Trazado 639902" d="M398.433,114.362c-.045-.159,1.221-.334,2.242-1.3a6.727,6.727,0,0,0,1.1-1.426c.247-.405.426-.656.49-.626s0,.317-.172.771a4.427,4.427,0,0,1-1.066,1.621,3.8,3.8,0,0,1-1.76.934C398.762,114.449,398.441,114.415,398.433,114.362Z" transform="translate(-4.206 -5.685)" fill="none" stroke="#263238" stroke-miterlimit="10" stroke-width="0.25"/>
                <path id="Trazado_639903" data-name="Trazado 639903" d="M424.745,91.9c-1.318-2.105-1.639-4.626-2.367-6.981s-2.116-4.789-4.535-5.6l-.053.023c-2.172-.822-4.842-.816-6.61.637-.463-3.112-3.328-5.561-6.506-6.339a22.023,22.023,0,0,0-11.294.924c-2.345.923-4.6,2.8-7.349,5.547a29.745,29.745,0,0,0-3.164,3.727l-2.7,8.183,2.393,4.267a9.564,9.564,0,0,0,.47.868l0-.02,2.194,9.011c.117-2.462-.13-11.021-.012-13.482a14.566,14.566,0,0,0,10.168-4.584c1.391-1.5,2.481-3.37,4.349-4.271,2.409-1.162,5.3-.346,7.849.486l-.108-.092a11.44,11.44,0,0,1,3.547,2.42,32.791,32.791,0,0,0,1.642,14.429c.244.7.906,2.13,1.623,2.39,1.407.511,1.775-.862,2.615-1.595a3.834,3.834,0,0,1,2.55-.62A51.984,51.984,0,0,0,421.12,95a5.931,5.931,0,0,0,2.625.152q-.41-.925-.82-1.848a3.06,3.06,0,0,0,1.127.48,1.034,1.034,0,0,0,1.062-.452c.234-.462-.093-.99-.368-1.43" transform="translate(-4.013 -3.753)" fill="#263238"/>
                <path id="Trazado_639904" data-name="Trazado 639904" d="M408.618,81.424a7.727,7.727,0,0,1,.92.8,6.173,6.173,0,0,1,1.42,2.894,10.557,10.557,0,0,1,.248,2.22c.009.806-.052,1.668-.11,2.577a21.911,21.911,0,0,0-.048,2.867,9.679,9.679,0,0,0,.216,1.511,3.093,3.093,0,0,0,.654,1.463,1.411,1.411,0,0,0,1.289.407,2.075,2.075,0,0,0,1.154-.635,4.423,4.423,0,0,0,.863-2.229l-.191.024a7.3,7.3,0,0,0,1.122,1.825,2.753,2.753,0,0,0,1.78.915,1.824,1.824,0,0,0,.939-.164,1.49,1.49,0,0,0,.635-.607,1.46,1.46,0,0,0,.188-.776,1.067,1.067,0,0,0-.3-.678l-.1.084a5.9,5.9,0,0,0,1.968,1.4,5.476,5.476,0,0,0,.608.222,1.053,1.053,0,0,0,.219.05,1.212,1.212,0,0,0-.207-.083c-.137-.053-.338-.129-.591-.25a6.028,6.028,0,0,1-1.9-1.417l-.1.083a1.086,1.086,0,0,1,.069,1.3,1.338,1.338,0,0,1-.574.537,1.646,1.646,0,0,1-.851.139,2.575,2.575,0,0,1-1.652-.869,7.172,7.172,0,0,1-1.081-1.786l-.133-.28-.058.3a4.275,4.275,0,0,1-.821,2.129,1.856,1.856,0,0,1-1.033.567,1.191,1.191,0,0,1-1.1-.343,2.934,2.934,0,0,1-.6-1.369,9.74,9.74,0,0,1-.215-1.48,22.525,22.525,0,0,1,.037-2.844c.052-.909.108-1.775.091-2.59a10.562,10.562,0,0,0-.279-2.25,6.085,6.085,0,0,0-1.505-2.916,3.709,3.709,0,0,0-.981-.743" transform="translate(-4.314 -4.17)" fill="#455a64"/>
                <path id="Trazado_639905" data-name="Trazado 639905" d="M380.171,89.849s.023.023.073.059l.23.158a2.97,2.97,0,0,0,.388.235,4.84,4.84,0,0,0,.556.276,8.386,8.386,0,0,0,3.907.648,10.61,10.61,0,0,0,5.489-1.984,17.381,17.381,0,0,0,4.691-5.255c.655-1.063,1.188-2.151,1.777-3.158a11.6,11.6,0,0,1,2.02-2.675,6.265,6.265,0,0,1,2.616-1.546,4.642,4.642,0,0,1,1.384-.162,5.072,5.072,0,0,1,1.27.226,5.3,5.3,0,0,1,1.909,1.085,5.073,5.073,0,0,1,1.038,1.273A5.879,5.879,0,0,1,408,80.338a.279.279,0,0,0-.008-.092c-.012-.072-.027-.159-.045-.267a4.249,4.249,0,0,0-.353-.986,5.011,5.011,0,0,0-1.03-1.32,5.379,5.379,0,0,0-1.942-1.139,5.21,5.21,0,0,0-1.31-.246,4.784,4.784,0,0,0-1.441.157,6.436,6.436,0,0,0-2.706,1.574,11.72,11.72,0,0,0-2.063,2.712c-.6,1.013-1.129,2.1-1.779,3.152A17.384,17.384,0,0,1,390.7,89.09a10.532,10.532,0,0,1-5.383,1.992,8.522,8.522,0,0,1-3.864-.577,12.989,12.989,0,0,1-1.28-.656" transform="translate(-4.013 -3.907)" fill="#455a64"/>
                <path id="Trazado_639906" data-name="Trazado 639906" d="M386.932,100.288c.182.176,1.229-.643,2.757-.693,1.524-.071,2.671.661,2.831.473.078-.084-.113-.406-.613-.738a3.943,3.943,0,0,0-2.275-.6,3.779,3.779,0,0,0-2.186.779c-.457.37-.6.7-.515.783" transform="translate(-4.085 -5.056)" fill="#263238"/>
                <path id="Trazado_639907" data-name="Trazado 639907" d="M387.734,104.274a1.218,1.218,0,0,0,1.287,1.1,1.156,1.156,0,0,0,1.18-1.162,1.218,1.218,0,0,0-1.285-1.1,1.158,1.158,0,0,0-1.182,1.163" transform="translate(-4.093 -5.28)" fill="#263238"/>
                <path id="Trazado_639908" data-name="Trazado 639908" d="M383.576,83.347a3.941,3.941,0,0,1-3.212,1.806A9.9,9.9,0,0,1,379,84.8c-.441.268-.307,1.731.009,2.129a8,8,0,0,0,.977.933c-1.483.8-2.856.445-4.464-.086a7.574,7.574,0,0,0,4.774,5.939,2.858,2.858,0,0,0,2.518,0,3,3,0,0,0,1.069-1.9,31.629,31.629,0,0,0,.959-8.057Z" transform="translate(-3.964 -4.268)" fill="#263238"/>
                <path id="Trazado_639909" data-name="Trazado 639909" d="M348.067,317.152l7.532,16.319s-19.826,7.542-19.985,11.126l38.581-.678-.047-3.131-8.509-26.92Z" transform="translate(-3.543 -16.074)" fill="#455a64"/>
                <path id="Trazado_639910" data-name="Trazado 639910" d="M367.217,331.437a1.447,1.447,0,1,1-.631,2.824,1.613,1.613,0,0,1-1.178-1.836,1.583,1.583,0,0,1,1.954-.943" transform="translate(-3.857 -16.971)" fill="#e0e0e0"/>
                <path id="Trazado_639911" data-name="Trazado 639911" d="M374.2,345.373l-.047-3.131-37.046,1.88s-1.7.756-1.488,1.929Z" transform="translate(-3.543 -17.527)" fill="#263238"/>
                <path id="Trazado_639912" data-name="Trazado 639912" d="M355.176,334.33c.01.183.954.25,1.891.822.954.548,1.447,1.333,1.619,1.258.172-.039-.129-1.128-1.276-1.8s-2.277-.444-2.233-.277" transform="translate(-3.75 -17.112)" fill="#263238"/>
                <path id="Trazado_639913" data-name="Trazado 639913" d="M351.117,336.125c-.04.178.782.475,1.436,1.238.678.745.855,1.579,1.043,1.567.177.026.288-1.048-.545-1.983s-1.932-1-1.933-.823" transform="translate(-3.707 -17.21)" fill="#263238"/>
                <path id="Trazado_639914" data-name="Trazado 639914" d="M348.866,340.963c.172.036.417-.883-.085-1.878s-1.391-1.378-1.468-1.223c-.1.152.479.68.878,1.5.419.813.488,1.583.676,1.6" transform="translate(-3.666 -17.301)" fill="#263238"/>
                <path id="Trazado_639915" data-name="Trazado 639915" d="M353.755,329.818c.082.165.942-.1,2.008-.051,1.068.031,1.9.363,2,.2.107-.135-.715-.8-1.972-.842s-2.128.546-2.033.688" transform="translate(-3.735 -16.855)" fill="#263238"/>
                <path id="Trazado_639916" data-name="Trazado 639916" d="M415.324,373.764l.859,31.119-16.84-.046-.9-30.365Z" transform="translate(-4.206 -19.141)" fill="#455a64"/>
                <path id="Trazado_639917" data-name="Trazado 639917" d="M407.915,403.3c-.14,0-.352-6.633-.473-14.818s-.1-14.824.037-14.827.352,6.632.473,14.82.1,14.823-.037,14.825" transform="translate(-4.3 -19.136)" fill="#263238"/>
                <path id="Trazado_639918" data-name="Trazado 639918" d="M399.061,396.014a2.176,2.176,0,0,1,.415-.672,11.943,11.943,0,0,1,4.141-3.424,9.165,9.165,0,0,1,10.529,1.657,7.48,7.48,0,0,1,1.273,1.751,2.088,2.088,0,0,1,.286.734,17.2,17.2,0,0,0-1.815-2.24,9.115,9.115,0,0,0-6.366-2.377,10.448,10.448,0,0,0-6.344,2.568c-1.382,1.146-2.047,2.057-2.118,2" transform="translate(-4.213 -20.021)" fill="#263238"/>
                <path id="Trazado_639919" data-name="Trazado 639919" d="M416.129,406.392l-16.763-.075-.124-3.678,16.9.075Z" transform="translate(-4.215 -20.62)" fill="#263238"/>
                <path id="Trazado_639920" data-name="Trazado 639920" d="M417.186,222.955l-36.832-6.182-.145,3.843c-8.892,6.925-32.589,26.72-46.9,40.278,0,0-5.311,6.836-3.2,13.142l22.088,53.138,21.941-3.823-15.3-46.789,42.758-19.4c8.314-2.989,13.327-12.4,15.1-18.243,1.513-5,.72-9.557.5-15.959" transform="translate(-3.48 -11.101)" fill="#263238"/>
                <path id="Trazado_639921" data-name="Trazado 639921" d="M388.485,263.872l8.769,114.283,21.766.537s1.859-31.158,2.222-54.717c.331-21.56.562-74.988.562-74.988Z" transform="translate(-4.101 -12.751)" fill="#263238"/>
                <path id="Trazado_639922" data-name="Trazado 639922" d="M417.816,223.289l11.509,2.022s0,15.887-.977,24.089c-.477,3.992-7.1,16.719-7.1,16.719l-31.94,5.932V247.522Z" transform="translate(-4.11 -11.435)" fill="#263238"/>
                <path id="Trazado_639923" data-name="Trazado 639923" d="M414.545,246.762a3.465,3.465,0,0,1-.276.585,15.807,15.807,0,0,1-.917,1.619,22.938,22.938,0,0,1-4.46,5.229,40.29,40.29,0,0,1-8.6,5.619c-3.461,1.766-7.412,3.385-11.484,5.228l-20.93,9.318-6.365,2.776-1.741.733a3.534,3.534,0,0,1-.62.229,3.565,3.565,0,0,1,.581-.311l1.7-.811,6.3-2.907,20.877-9.44c4.076-1.844,8.028-3.451,11.479-5.185a41.221,41.221,0,0,0,8.581-5.487,24.2,24.2,0,0,0,4.528-5.084c.894-1.338,1.3-2.135,1.347-2.11" transform="translate(-3.791 -12.637)" fill="#455a64"/>
                <path id="Trazado_639924" data-name="Trazado 639924" d="M422.512,266.823a144.255,144.255,0,0,1-13.881,8.424,144.545,144.545,0,0,1,13.881-8.424" transform="translate(-4.314 -13.664)" fill="#455a64"/>
                <path id="Trazado_639925" data-name="Trazado 639925" d="M344.165,277.775a9.594,9.594,0,0,1,2.414-.453,27.2,27.2,0,0,1,5.938-.008,25.1,25.1,0,0,1,5.784,1.315,9.394,9.394,0,0,1,2.222,1.025,21.056,21.056,0,0,1-2.329-.721,31.575,31.575,0,0,0-5.729-1.167,35.1,35.1,0,0,0-5.857-.124,20.644,20.644,0,0,1-2.443.133" transform="translate(-3.633 -14.194)" fill="#455a64"/>
                <path id="Trazado_639926" data-name="Trazado 639926" d="M387.012,221.047c-.128-.02-.134-.622-.014-1.345s.321-1.293.448-1.273.134.621.014,1.345-.321,1.293-.448,1.273" transform="translate(-4.085 -11.186)" fill="#455a64"/>
                <path id="Trazado_639927" data-name="Trazado 639927" d="M388.826,221.6c-.127-.022-.1-.723.05-1.566s.384-1.509.511-1.487.1.724-.05,1.566-.384,1.509-.511,1.487" transform="translate(-4.104 -11.192)" fill="#455a64"/>
                <path id="Trazado_639928" data-name="Trazado 639928" d="M403.883,224.134c-.128-.018-.135-.669-.016-1.452s.32-1.4.447-1.386.135.669.015,1.453-.319,1.4-.446,1.385" transform="translate(-4.263 -11.333)" fill="#455a64"/>
                <path id="Trazado_639929" data-name="Trazado 639929" d="M405.6,224.911c-.128-.016-.132-.785-.009-1.719s.327-1.677.454-1.66.133.786.009,1.718-.327,1.678-.454,1.661" transform="translate(-4.281 -11.345)" fill="#455a64"/>
                <path id="Trazado_639930" data-name="Trazado 639930" d="M420.12,227.446c-.129-.012-.156-.755-.062-1.658s.273-1.625.4-1.613.156.754.062,1.658-.273,1.624-.4,1.612" transform="translate(-4.434 -11.48)" fill="#455a64"/>
                <path id="Trazado_639931" data-name="Trazado 639931" d="M422.317,228a7.505,7.505,0,0,1,.223-3.707,7.5,7.5,0,0,1-.223,3.707" transform="translate(-4.457 -11.487)" fill="#455a64"/>
                <path id="Trazado_639932" data-name="Trazado 639932" d="M385.494,138.73l-8.59,66.7a6.485,6.485,0,0,0,4.98,7.081l44.321,7.46a4.307,4.307,0,0,0,5.082-4.105c.11-9.187.5-29.06,1.84-41.445,1.48-13.652,1.416-26.438-3.826-32.947a39.736,39.736,0,0,0-10.562-9.413l-1.477-5.212s-18.619,1.182-21.917,3.961l-2.029,3.418Z" transform="translate(-3.978 -6.496)" fill="#eb6f2d"/>
                <path id="Trazado_639933" data-name="Trazado 639933" d="M418.914,132.34a4.294,4.294,0,0,1-1,.1l-2.728.131c-2.3.109-5.478.3-8.977.618s-6.665.671-8.955.928l-2.714.3a4.3,4.3,0,0,1-1,.052,4.262,4.262,0,0,1,.978-.228c.635-.118,1.556-.269,2.7-.439,2.282-.339,5.445-.75,8.956-1.063s6.7-.459,9.01-.487c1.155-.016,2.09-.009,2.736.014a4.278,4.278,0,0,1,1,.079" transform="translate(-4.155 -6.772)" fill="#263238"/>
                <g id="Grupo_882770" data-name="Grupo 882770" transform="translate(373.684 155.989)" opacity="0.3">
                  <g id="Grupo_882769" data-name="Grupo 882769">
                    <g id="Grupo_882768" data-name="Grupo 882768" clip-path="url(#clip-path-10)">
                      <path id="Trazado_639934" data-name="Trazado 639934" d="M401.914,164.409l-3.932,25.5-4.975-.811s-3.53,14.516-15.336,12.367l7.3-13.572,3.66-13.922Z" transform="translate(-377.671 -164.409)"/>
                    </g>
                  </g>
                </g>
                <path id="Trazado_639935" data-name="Trazado 639935" d="M369.254,175.67l27.34,7.675s4.169-14.988,6.172-23.826c2.193-9.673.433-14.7-6.2-19.185a11.435,11.435,0,0,0-5.041-1.891,12.059,12.059,0,0,0-12.375,7.009,101.838,101.838,0,0,0-4.419,12.2c-2.616,8.58-5.479,18.015-5.479,18.015" transform="translate(-3.898 -7.085)" fill="#eb6f2d"/>
                <path id="Trazado_639936" data-name="Trazado 639936" d="M402.764,159.9a2.3,2.3,0,0,1-.07.456c-.068.33-.157.765-.27,1.312-.251,1.143-.631,2.814-1.146,4.92-1.024,4.214-2.56,10.173-4.481,17.191l-.055.2-.209-.059-17.212-4.81-10.132-2.851-.22-.063.065-.212c2.7-8.748,4.968-16.363,6.752-21.748.91-2.686,1.735-4.8,2.344-6.23.3-.716.555-1.264.73-1.63a3.548,3.548,0,0,1,.288-.548,3.681,3.681,0,0,1-.215.579q-.243.613-.659,1.655c-.562,1.447-1.343,3.568-2.213,6.261-1.7,5.394-3.921,13.034-6.593,21.786l-.154-.273,10.136,2.838,17.2,4.85-.263.144c1.955-7,3.547-12.948,4.642-17.142.534-2.07.96-3.719,1.262-4.891.139-.541.251-.971.335-1.3a2.272,2.272,0,0,1,.138-.441" transform="translate(-3.895 -7.468)" fill="#263238"/>
                <path id="Trazado_639937" data-name="Trazado 639937" d="M401.1,144.945c-.065.045-.609-.75-1.727-1.81a14.763,14.763,0,0,0-5.086-3.143,15.1,15.1,0,0,0-5.967-.834c-1.558.1-2.5.356-2.524.28a1.89,1.89,0,0,1,.645-.247,11.221,11.221,0,0,1,1.85-.353,13.871,13.871,0,0,1,6.158.728,13.527,13.527,0,0,1,5.159,3.345,10.8,10.8,0,0,1,1.168,1.439c.24.364.348.58.324.6" transform="translate(-4.073 -7.106)" fill="#263238"/>
                <path id="Trazado_639938" data-name="Trazado 639938" d="M371.671,178.239l-1.38,4.461-26.155-11-5.652,8.438s20.535,14.813,26.968,19.545,13.879,3.074,18.207-2.454c4.444-5.677,6.163-13.824,6.163-13.824Z" transform="translate(-3.573 -8.793)" fill="#ffc09d"/>
                <path id="Trazado_639939" data-name="Trazado 639939" d="M373.416,188.857c-.137.025-.448-1.338-1.227-2.855s-1.687-2.595-1.584-2.686a5.84,5.84,0,0,1,2,2.485,5.657,5.657,0,0,1,.808,3.056" transform="translate(-3.912 -9.388)" fill="#ff9b6c"/>
                <path id="Trazado_639940" data-name="Trazado 639940" d="M348.03,172.924l-3.455-2.32c-1.839-5.306-5.255-14.929-6.265-14.641-1.112.318-1.573,1.266-1.255,3.311.764,4.9-.488,7.057-3.432,6.41-1.012-.222-9.084-2.327-9.084-2.327s-5.289.846-.723,4.4a2.677,2.677,0,0,0,2.055,3.748s-.558,1.781,4.2,4.223a49.392,49.392,0,0,0,6.713,2.712L341.167,181Z" transform="translate(-3.399 -7.987)" fill="#ffc09d"/>
                <path id="Trazado_639941" data-name="Trazado 639941" d="M330.505,170.278c-.031.164-1.749-.207-3.749-.883-.721-.23-1.393-.448-1.946-.579l.069-.377.334.069-.074.345a4.088,4.088,0,0,1-1.355-.514,4.14,4.14,0,0,1,1.444.172l-.074.345-.339-.04.068-.377a14.331,14.331,0,0,1,2.019.523,30.235,30.235,0,0,1,3.6,1.315" transform="translate(-3.418 -8.62)" fill="#ff9b6c"/>
                <path id="Trazado_639942" data-name="Trazado 639942" d="M331.188,174.34a7.14,7.14,0,0,1-2.774-.709,7.032,7.032,0,0,1-2.528-1.316,31.325,31.325,0,0,1,5.3,2.025" transform="translate(-3.44 -8.824)" fill="#ff9b6c"/>
                <path id="Trazado_639943" data-name="Trazado 639943" d="M368.868,352.727c0,1.986,27.969,84.119,27.969,84.119h11.252L380.2,352.727Z" transform="translate(-3.894 -18.064)" fill="#455a64"/>
                <rect id="Rectángulo_330757" data-name="Rectángulo 330757" width="11.216" height="87.565" transform="translate(324.928 331.217)" fill="#455a64"/>
                <rect id="Rectángulo_330758" data-name="Rectángulo 330758" width="35.706" height="7.623" transform="translate(362.441 357.755)" fill="#455a64"/>
                <rect id="Rectángulo_330759" data-name="Rectángulo 330759" width="62.088" height="7.623" transform="translate(324.805 327.747)" fill="#455a64"/>
                <rect id="Rectángulo_330760" data-name="Rectángulo 330760" width="36.954" height="7.623" transform="translate(372.339 385.646)" fill="#455a64"/>
                <path id="Trazado_639944" data-name="Trazado 639944" d="M390.718,353.717c0,.123-14.007.224-31.28.224s-31.284-.1-31.284-.224,14-.224,31.284-.224,31.28.1,31.28.224" transform="translate(-3.464 -18.103)" fill="#263238"/>
                <path id="Trazado_639945" data-name="Trazado 639945" d="M339.953,437.062c-.129,0-.234-17.936-.234-40.057s.106-40.06.234-40.06.233,17.932.233,40.06-.1,40.057-.233,40.057" transform="translate(-3.586 -18.28)" fill="#263238"/>
                <path id="Trazado_639946" data-name="Trazado 639946" d="M396.846,437.014c-.121.049-6.286-18.044-13.767-40.408s-13.451-40.541-13.331-40.59,6.285,18.04,13.769,40.412,13.45,40.537,13.329,40.586" transform="translate(-3.903 -18.232)" fill="#263238"/>
                <path id="Trazado_639947" data-name="Trazado 639947" d="M408.393,437.014c-.121.049-6.286-18.044-13.767-40.408s-13.451-40.541-13.331-40.59,6.285,18.04,13.769,40.412,13.45,40.537,13.329,40.586" transform="translate(-4.025 -18.232)" fill="#263238"/>
              </g>
            </g>
            <g id="Grupo_882777" data-name="Grupo 882777">
              <g id="Grupo_882776" data-name="Grupo 882776" clip-path="url(#clip-path)">
                <path id="Trazado_639948" data-name="Trazado 639948" d="M225.57,36.538a57.936,57.936,0,0,1-5.678-5.1A57.332,57.332,0,0,1,214.577,26a57.947,57.947,0,0,1,5.678,5.1,57.342,57.342,0,0,1,5.314,5.445" transform="translate(-2.265 -1.331)" fill="#263238"/>
                <path id="Trazado_639949" data-name="Trazado 639949" d="M255.237,25.509c-.142,0-.257-5.711-.257-12.754S255.095,0,255.237,0s.257,5.71.257,12.756-.115,12.754-.257,12.754" transform="translate(-2.692 0)" fill="#263238"/>
                <path id="Trazado_639950" data-name="Trazado 639950" d="M235.789,22.52a34.914,34.914,0,0,1-2.048-5.607,34.544,34.544,0,0,1-1.554-5.753,35.052,35.052,0,0,1,2.047,5.608,34.71,34.71,0,0,1,1.555,5.752" transform="translate(-2.451 -0.572)" fill="#263238"/>
                <path id="Trazado_639951" data-name="Trazado 639951" d="M285.517,36.538a57.382,57.382,0,0,1,5.313-5.445A58,58,0,0,1,296.51,26a57.353,57.353,0,0,1-5.314,5.445,57.946,57.946,0,0,1-5.678,5.1" transform="translate(-3.014 -1.331)" fill="#263238"/>
                <path id="Trazado_639952" data-name="Trazado 639952" d="M275.377,22.52a34.6,34.6,0,0,1,1.555-5.752,35.06,35.06,0,0,1,2.047-5.608,34.543,34.543,0,0,1-1.554,5.753,34.9,34.9,0,0,1-2.048,5.607" transform="translate(-2.907 -0.571)" fill="#263238"/>
                <path id="Trazado_639953" data-name="Trazado 639953" d="M212.5,49.684a14.153,14.153,0,0,1-2.511-.868c-1.527-.6-3.623-1.449-5.925-2.42s-4.376-1.876-5.865-2.552a13.849,13.849,0,0,1-2.365-1.189,14.273,14.273,0,0,1,2.516.871c1.528.595,3.621,1.448,5.921,2.418s4.37,1.873,5.859,2.55a14.015,14.015,0,0,1,2.37,1.19" transform="translate(-2.067 -2.184)" fill="#263238"/>
                <path id="Trazado_639954" data-name="Trazado 639954" d="M309.659,45.448a81.361,81.361,0,0,1-8.411,3.145,81.789,81.789,0,0,1-8.586,2.68,81.07,81.07,0,0,1,8.412-3.145,81.728,81.728,0,0,1,8.585-2.68" transform="translate(-3.09 -2.327)" fill="#263238"/>
                <path id="Trazado_639955" data-name="Trazado 639955" d="M290.73,68.271c-.579-19.752-17.747-35.315-38.345-34.76s-36.828,17.017-36.25,36.769c.42,14.3,9.537,26.4,22.354,31.782.125,4.238.264,9.023.264,9.023l32.69-.88s.048-5.069-.011-9.592c11.838-6.264,19.7-18.489,19.3-32.341" transform="translate(-2.282 -1.715)" fill="#ffb338"/>
                <path id="Trazado_639956" data-name="Trazado 639956" d="M259.806,112.32s0-.151.024-.442c.028-.309.065-.739.115-1.294.111-1.137.272-2.814.538-4.968s.632-4.788,1.256-7.814a51.432,51.432,0,0,1,3.093-10.044,33.519,33.519,0,0,1,2.911-5.435,6.759,6.759,0,0,1,2.485-2.265,3.992,3.992,0,0,1,3.544.015A2.474,2.474,0,0,1,275,81.457a2.4,2.4,0,0,1-.1,1.84,5.224,5.224,0,0,1-2.811,2.458,10.608,10.608,0,0,1-7.769-.317,10.076,10.076,0,0,1-5.441-5.826,7.208,7.208,0,0,1-.341-4.12,3.323,3.323,0,0,1,3.317-2.577,2.417,2.417,0,0,1,1.935,1.21,3.129,3.129,0,0,1,.364,2.2,6.986,6.986,0,0,1-2.518,3.624A11.442,11.442,0,0,1,253,82.6a9.694,9.694,0,0,1-7.363-4.961,5.21,5.21,0,0,1-.379-4.326,2.788,2.788,0,0,1,1.59-1.625,2.9,2.9,0,0,1,2.3.14,3.648,3.648,0,0,1,1.621,1.527A5.422,5.422,0,0,1,251.4,75.4a9.9,9.9,0,0,1-.447,4.1,10.741,10.741,0,0,1-5.082,6.14,11.738,11.738,0,0,1-7.688,1.226,6.028,6.028,0,0,1-3.408-1.618,2.685,2.685,0,0,1-.308-3.439,2.471,2.471,0,0,1,1.653-.831,3.645,3.645,0,0,1,1.789.284,5.272,5.272,0,0,1,2.355,2.393c.994,1.915,1.8,3.779,2.617,5.558,3.193,7.128,5.483,13.011,7.021,17.089.769,2.039,1.339,3.632,1.722,4.712l.424,1.233c.093.279.13.425.13.425s-.066-.137-.174-.41c-.111-.291-.267-.7-.467-1.219l-1.8-4.682c-1.589-4.057-3.923-9.92-7.152-17.023-.818-1.766-1.649-3.651-2.63-5.521a4.947,4.947,0,0,0-2.195-2.232,2.613,2.613,0,0,0-2.993.451,2.334,2.334,0,0,0,.3,2.966,5.643,5.643,0,0,0,3.19,1.487,11.318,11.318,0,0,0,7.4-1.2,10.334,10.334,0,0,0,4.872-5.912,9.494,9.494,0,0,0,.424-3.931,3.866,3.866,0,0,0-2.008-3.233,2.437,2.437,0,0,0-1.937-.124,2.342,2.342,0,0,0-1.333,1.38,4.8,4.8,0,0,0,.366,3.975,9.244,9.244,0,0,0,7.013,4.718,10.985,10.985,0,0,0,8.263-2.546,6.593,6.593,0,0,0,2.374-3.377,2.706,2.706,0,0,0-.311-1.9,1.96,1.96,0,0,0-1.576-1,2.691,2.691,0,0,0-1.837.623,3.063,3.063,0,0,0-1.016,1.63,6.818,6.818,0,0,0,.326,3.879,9.662,9.662,0,0,0,5.2,5.592,10.2,10.2,0,0,0,7.437.329,4.86,4.86,0,0,0,2.608-2.251,2.073,2.073,0,0,0-.946-2.757,3.619,3.619,0,0,0-3.194-.019,6.434,6.434,0,0,0-2.359,2.142,33.5,33.5,0,0,0-2.9,5.363,51.842,51.842,0,0,0-3.141,9.974c-.645,3.011-1.034,5.639-1.33,7.786-.269,2.138-.479,3.8-.623,4.956-.069.553-.123.982-.16,1.29-.039.29-.07.437-.07.437" transform="translate(-2.47 -3.662)" fill="#263238"/>
                <path id="Trazado_639957" data-name="Trazado 639957" d="M269.339,120.314l-28.068.756a2.023,2.023,0,1,1-.118-4.04l28.067-.756a2.023,2.023,0,1,1,.119,4.04" transform="translate(-2.524 -5.955)" fill="#e0e0e0"/>
                <path id="Trazado_639958" data-name="Trazado 639958" d="M269.393,122.391l-28.068.757a2.023,2.023,0,1,0,.119,4.04l3.08-.084,4.307,7.35a2.729,2.729,0,0,0,2.435,1.324l10.03-.27a2.714,2.714,0,0,0,2.366-1.476l3.755-7.544,2.095-.055a2.023,2.023,0,1,0-.119-4.041" transform="translate(-2.526 -6.268)" fill="#e0e0e0"/>
                <path id="Trazado_639959" data-name="Trazado 639959" d="M263.272,135.268c-.032.068-.746-.222-1.945-.516a16.253,16.253,0,0,0-9.473.517c-1.156.424-1.831.791-1.87.728a5.728,5.728,0,0,1,1.746-1.014,14.21,14.21,0,0,1,9.687-.529,5.869,5.869,0,0,1,1.855.815" transform="translate(-2.639 -6.855)" fill="#455a64"/>
                <path id="Trazado_639960" data-name="Trazado 639960" d="M267.539,126.8c0,.121-5.068.357-11.326.525s-11.336.207-11.339.086,5.066-.357,11.326-.526,11.335-.207,11.339-.085" transform="translate(-2.585 -6.49)" fill="#455a64"/>
                <path id="Trazado_639961" data-name="Trazado 639961" d="M265.9,130.216a16.427,16.427,0,0,1-2.756.343c-1.709.15-4.072.307-6.687.414s-4.986.139-6.7.129a16.424,16.424,0,0,1-2.776-.121,18.375,18.375,0,0,1,2.77-.19l6.687-.258,6.685-.284a18.29,18.29,0,0,1,2.777-.034" transform="translate(-2.607 -6.667)" fill="#455a64"/>
                <g id="Grupo_882775" data-name="Grupo 882775" transform="translate(219.221 35.746)" opacity="0.3">
                  <g id="Grupo_882774" data-name="Grupo 882774">
                    <g id="Grupo_882773" data-name="Grupo 882773" clip-path="url(#clip-path-12)">
                      <path id="Trazado_639962" data-name="Trazado 639962" d="M253.334,38.208c-2.984-.938-7.915-.55-10.865.485C232,42.369,225.453,49.3,221.916,60.219c-1.411,5.087,1.65,8.875,4.5,8.711s5.152-2.36,6.572-4.739,2.257-5.061,3.831-7.348a14.614,14.614,0,0,1,8.008-5.68c2.474-.7,5.1-.756,7.584-1.439s4.957-2.232,5.583-4.631c.763-2.922-1.68-5.944-4.664-6.883" transform="translate(-221.56 -37.675)" fill="#fff"/>
                    </g>
                  </g>
                </g>
                <path id="Trazado_639963" data-name="Trazado 639963" d="M288.406,65.391a1.486,1.486,0,0,1,.132.421c.06.28.177.691.261,1.231a26.7,26.7,0,0,1,.409,4.606,29.866,29.866,0,0,1-3.821,14.7,31.45,31.45,0,0,1-10.743,11.112,29.525,29.525,0,0,1-4.246,2.193c-.516.228-.939.359-1.217.463a1.593,1.593,0,0,1-.439.124,14.862,14.862,0,0,1,1.573-.762,35.16,35.16,0,0,0,4.126-2.309,32.386,32.386,0,0,0,10.494-11.056,30.782,30.782,0,0,0,3.908-14.468,32.1,32.1,0,0,0-.241-4.577,13.2,13.2,0,0,1-.195-1.679" transform="translate(-2.837 -3.349)" fill="#fff"/>
                <path id="Trazado_639964" data-name="Trazado 639964" d="M230.292,93.871a6.411,6.411,0,0,1-1.058-.762,11.981,11.981,0,0,1-1.16-.99,19.672,19.672,0,0,1-1.438-1.413,22.2,22.2,0,0,1-1.591-1.844c-.567-.671-1.076-1.452-1.632-2.261a32.176,32.176,0,0,1-2.858-5.669,31.636,31.636,0,0,1-1.565-6.117c-.11-.963-.236-1.877-.246-2.739a20.74,20.74,0,0,1,0-2.395,18.412,18.412,0,0,1,.168-1.967,11.26,11.26,0,0,1,.236-1.472,6.033,6.033,0,0,1,.309-1.232c.109.017-.293,1.787-.348,4.681a22.728,22.728,0,0,0,.061,2.362c.028.85.169,1.749.29,2.7a33.343,33.343,0,0,0,1.58,6.014,33.913,33.913,0,0,0,2.779,5.6c.536.8,1.025,1.583,1.569,2.254a23.976,23.976,0,0,0,1.522,1.859c1.967,2.2,3.453,3.315,3.381,3.394" transform="translate(-2.309 -3.329)" fill="#fff"/>
                <path id="Trazado_639965" data-name="Trazado 639965" d="M258.765,36.2a54.544,54.544,0,0,0-8.247.083,54.261,54.261,0,0,0-8.025,1.831,8.738,8.738,0,0,1,2.215-1,27.051,27.051,0,0,1,11.656-1.371,8.833,8.833,0,0,1,2.4.454" transform="translate(-2.56 -1.824)" fill="#fff"/>
              </g>
            </g>
          </g>
        </g>
      </g>
      <g id="Grupo_882781" data-name="Grupo 882781" transform="translate(874.428 1539.186)">
        <g id="Grupo_882780" data-name="Grupo 882780" clip-path="url(#clip-path-13)">
          <path id="Trazado_639966" data-name="Trazado 639966" d="M545.572,2.784c0,.169-122.139.3-272.773.3C122.114,3.089,0,2.953,0,2.784s122.114-.3,272.8-.3c150.633,0,272.773.136,272.773.3" transform="translate(0 0.428)" fill="#263238"/>
        </g>
      </g>
    </g>
    <rect id="Rectángulo_349416" data-name="Rectángulo 349416" width="610" height="420" transform="translate(810 1123)" fill="none"/>
  </g>
</svg>
