<svg id="Grupo_883272" data-name="Grupo 883272" xmlns="http://www.w3.org/2000/svg" xmlns:xlink="http://www.w3.org/1999/xlink" width="403.782" height="611.512" viewBox="0 0 403.782 611.512">
  <defs>
    <clipPath id="clip-path">
      <rect id="Rectángulo_331073" data-name="Rectángulo 331073" width="403.782" height="611.512" fill="none"/>
    </clipPath>
    <clipPath id="clip-path-5">
      <rect id="Rectángulo_331063" data-name="Rectángulo 331063" width="170.413" height="21.145" fill="#f9d9a2"/>
    </clipPath>
    <clipPath id="clip-path-6">
      <rect id="Rectángulo_331065" data-name="Rectángulo 331065" width="134.412" height="21.145" fill="#f9d9a2"/>
    </clipPath>
    <clipPath id="clip-path-9">
      <rect id="Rectángulo_331071" data-name="Rectángulo 331071" width="33.779" height="24.311" fill="none"/>
    </clipPath>
  </defs>
  <g id="Grupo_883271" data-name="Grupo 883271" clip-path="url(#clip-path)">
    <g id="Grupo_883253" data-name="Grupo 883253">
      <g id="Grupo_883252" data-name="Grupo 883252" clip-path="url(#clip-path)">
        <path id="Trazado_642045" data-name="Trazado 642045" d="M253.176,370.039c-1.526,6.483-3.136,12.863-3.45,19.515.177.327.141,1.532-.053,1.2-.04,1.073-1.67.877-1.672-.18.018-.69.034-1.38.068-2.049-3.813-4.734-9.35-7.734-13.825-11.847a25.882,25.882,0,0,1-7.576-12.058c-3.712-12.794-.233-26.348-4.7-39.108-3.847-11-10.751-20.566-16.594-30.534-6.163-10.542-10.714-21.619-11.169-33.966-.365-9.454.764-22.052,7.963-29.134,7.632-7.516,17.092-1.884,22.941,4.818,16.945,19.447,24.785,44.022,27.954,69.15,1.748,13.908,3.563,27.9,3.144,41.938a112.943,112.943,0,0,1-3.033,22.249" transform="translate(91.58 107.692)" fill="#617a0b"/>
        <path id="Trazado_642046" data-name="Trazado 642046" d="M244.064,383.726a239.561,239.561,0,0,0-.465-39.4c.022-.049.063-.079.065-.144.213-10.649,1.06-21.257.642-31.918a189.7,189.7,0,0,0-4.689-34.239c-.029-.13-.233-.1-.208.034a223.219,223.219,0,0,1,3.706,33.483q.325,9.025-.143,18.051c-.1,1.956-.286,3.927-.415,5.9l0-.018a210.726,210.726,0,0,0-31.686-83.85c-.222-.346-.836.025-.618.38a219.033,219.033,0,0,1,25.79,62.172c-8.149-15.1-20.455-27.511-29.586-42.017-.05-.078-.181,0-.14.085,8.2,16.149,21.755,28.884,30.392,44.8q2.249,9.727,3.64,19.616a219.687,219.687,0,0,1,1.965,27.252c-4.963-9.278-10.115-18.152-14.175-27.964-.107-.26-.483-.082-.394.178,3.454,10.192,8.1,21.17,14.6,29.862.035,6.45-.156,12.9-.536,19.347-1.014,17.2-3.952,34.173-5.31,51.318a.4.4,0,0,0,.787.085,394.183,394.183,0,0,0,6.785-53.008" transform="translate(97.316 118.627)" fill="#263238"/>
        <path id="Trazado_642047" data-name="Trazado 642047" d="M219.614,251.224c-.053-.125-.235-.04-.191.085,3.142,8.689,4.917,17.49,7.186,26.4a.329.329,0,0,0,.649-.106c-.924-9.035-4.149-18.048-7.644-26.376" transform="translate(103.5 118.475)" fill="#263238"/>
        <path id="Trazado_642048" data-name="Trazado 642048" d="M293.643,279.078a131.106,131.106,0,0,1-7.226,14.845c-5.657,10.274-11.559,19.687-12.627,31.651-.477,5.341-.646,10.708-2.274,15.853a47.511,47.511,0,0,1-6.32,12.411c-6.131,8.932-13.8,16.629-19.477,25.9a108.982,108.982,0,0,0-12.942,31.208c-.141.6-1.089.439-.948-.16a.506.506,0,0,0,.035-.137.208.208,0,0,1-.056-.128c-.9-25.649,1.146-51.5,8.971-76.075a263.055,263.055,0,0,1,12.43-31.645c4.191-8.91,9.416-17.477,16.773-24.133,4.773-4.3,15.129-12.451,21.926-8.137,3.261,2.075,3.018,5.35,1.734,8.551" transform="translate(109.253 127.032)" fill="#617a0b"/>
        <path id="Trazado_642049" data-name="Trazado 642049" d="M269.936,330.209a209.921,209.921,0,0,1-14.907,21.428c-2.483,3.242-5,6.458-7.481,9.7-1.171,1.534-2.484,3.061-3.56,4.708.678-2.7,1.338-5.4,2.027-8.093,3.308-12.96,6.492-26.034,11.42-38.5,4.818-12.181,11.228-23.619,17.811-34.915.174-.3-.306-.512-.481-.225-5.42,8.914-10.922,17.816-15.478,27.213a143.331,143.331,0,0,0-6.57,16.148,248.669,248.669,0,0,1,8.746-34.5c.034-.1-.112-.174-.155-.071a117.983,117.983,0,0,0-9.076,35.885.1.1,0,0,0,.018.059q-1.667,5-3.088,10.084c-4.041,14.349-7.59,28.85-10.879,43.4a155.442,155.442,0,0,1,2.475-28.525c.041-.218-.284-.268-.336-.057a90.431,90.431,0,0,0-2.477,30.07q-1.868,8.3-3.637,16.616c-2.521,11.824-5.619,23.858-7.092,35.864a.241.241,0,0,0,.474.081c1.759-6.473,2.821-13.181,4.259-19.733q2.166-9.859,4.461-19.689c2.228-9.542,4.561-19.062,6.938-28.569,1.589-3.486,4.661-6.581,6.963-9.5,2.525-3.208,5.051-6.418,7.509-9.679a144.089,144.089,0,0,0,12.342-19.1c.077-.144-.146-.243-.227-.106" transform="translate(107.179 134.052)" fill="#263238"/>
        <path id="Trazado_642050" data-name="Trazado 642050" d="M261.666,308.018A133.836,133.836,0,0,0,247.078,331.2c-.05.106.112.213.177.112,4.91-7.694,9.737-15.447,14.638-23.146.082-.131-.134-.263-.227-.146" transform="translate(116.544 145.272)" fill="#263238"/>
        <path id="Trazado_642051" data-name="Trazado 642051" d="M185.175,301.716c3.325,5.726,7.119,12.6,5.691,19.475-.905,4.35-4.09,7.884-4.664,12.323-1.288,9.8,8.476,16.273,15.541,20.9,17.613,11.557,41.77,21.859,44.972,45.459.121.836,1.566.627,1.461-.191a.5.5,0,0,0-.035-.156c.035-.053.087-.071.087-.14a90.4,90.4,0,0,0-.33-36.044c-2.628-12.165-7.937-23.1-14.2-33.782-10.6-18.083-21.824-36.6-37.854-50.453-4.437-3.829-13.522-10.721-17.056-2.072-3.429,8.406,2.315,17.7,6.387,24.679" transform="translate(83.841 128.714)" fill="#617a0b"/>
        <path id="Trazado_642052" data-name="Trazado 642052" d="M193.823,326.554c11.675,12.642,30.242,19.728,40.294,33.891-5.956-21.7-15.815-41.221-30.969-58.174a.456.456,0,0,1,.643-.645A114.669,114.669,0,0,1,229.1,338.28a163.682,163.682,0,0,0-10.9-27.87c-.165-.343.321-.639.518-.3a106.277,106.277,0,0,1,11.747,31.327c13.242,32.064,14.473,69.671,11.7,103.467-.041.481-.777.5-.762,0,.762-26.634.33-53.734-6.052-79.743-.132-.545-.283-1.079-.421-1.619-10.933-15.244-29.419-22.31-41.306-36.785-.115-.14.075-.338.2-.2" transform="translate(91.315 142.216)" fill="#263238"/>
        <path id="Trazado_642053" data-name="Trazado 642053" d="M192.045,311.168c6.131,5.623,12.165,11.376,18.307,17,.062.056-.021.165-.091.118a89.664,89.664,0,0,1-18.58-16.75.258.258,0,0,1,.365-.365" transform="translate(90.386 146.744)" fill="#263238"/>
        <path id="Trazado_642054" data-name="Trazado 642054" d="M191.361,294.617a192.6,192.6,0,0,0,18.34,25.229.108.108,0,0,1-.153.153,88.828,88.828,0,0,1-18.516-25.19.19.19,0,0,1,.328-.193" transform="translate(90.101 138.929)" fill="#263238"/>
        <path id="Trazado_642055" data-name="Trazado 642055" d="M210,438.289h53.7l-7.236-72.245H218.272Z" transform="translate(99.06 172.666)" fill="#fd4c1b"/>
        <path id="Trazado_642056" data-name="Trazado 642056" d="M214.706,377.788h40.719l-1.179-11.743h-38.2Z" transform="translate(101.278 172.666)" fill="#e44e00"/>
        <rect id="Rectángulo_331057" data-name="Rectángulo 331057" width="50.334" height="11.535" transform="translate(310.743 530.706)" fill="#fd4c1b"/>
      </g>
    </g>
    <g id="Grupo_883255" data-name="Grupo 883255">
      <g id="Grupo_883254" data-name="Grupo 883254" clip-path="url(#clip-path)">
        <path id="Trazado_642057" data-name="Trazado 642057" d="M0,415.313c129.342-.74,274.439-.745,403.782,0-129.344.745-274.439.74-403.782,0" transform="translate(0 195.643)" fill="#263238"/>
      </g>
    </g>
    <rect id="Rectángulo_331060" data-name="Rectángulo 331060" width="291.049" height="209.396" transform="translate(99.661 45.833)" fill="#fff"/>
    <rect id="Rectángulo_331061" data-name="Rectángulo 331061" width="291.049" height="209.396" transform="translate(99.661 45.833)" fill="none" stroke="#c7c7c7" stroke-miterlimit="10" stroke-width="1"/>
    <g id="Grupo_883263" data-name="Grupo 883263">
      <g id="Grupo_883262" data-name="Grupo 883262" clip-path="url(#clip-path)">
        <g id="Grupo_883258" data-name="Grupo 883258" transform="translate(195.579 123.731)" opacity="0.3">
          <g id="Grupo_883257" data-name="Grupo 883257">
            <g id="Grupo_883256" data-name="Grupo 883256" clip-path="url(#clip-path-5)">
              <rect id="Rectángulo_331062" data-name="Rectángulo 331062" width="170.415" height="21.145" transform="translate(-0.001 0)" fill="#f9d9a2"/>
            </g>
          </g>
        </g>
        <g id="Grupo_883261" data-name="Grupo 883261" transform="translate(124.379 153.018)" opacity="0.3">
          <g id="Grupo_883260" data-name="Grupo 883260">
            <g id="Grupo_883259" data-name="Grupo 883259" clip-path="url(#clip-path-6)">
              <rect id="Rectángulo_331064" data-name="Rectángulo 331064" width="134.412" height="21.145" transform="translate(-0.001)" fill="#f9d9a2"/>
            </g>
          </g>
        </g>
      </g>
    </g>
    <rect id="Rectángulo_331067" data-name="Rectángulo 331067" width="291.048" height="45.833" transform="translate(99.662)" fill="#ffb338"/>
    <rect id="Rectángulo_331068" data-name="Rectángulo 331068" width="27.21" height="21.145" transform="translate(195.579 123.731)" fill="#ffb338"/>
    <rect id="Rectángulo_331069" data-name="Rectángulo 331069" width="27.21" height="21.145" transform="translate(231.58 153.018)" fill="#ffb338"/>
    <g id="Grupo_883265" data-name="Grupo 883265">
      <g id="Grupo_883264" data-name="Grupo 883264" clip-path="url(#clip-path)">
        <path id="Trazado_642058" data-name="Trazado 642058" d="M91.385,56.01a.912.912,0,0,1,1.279-.122,5.731,5.731,0,0,0,3.354,1.351,3.8,3.8,0,0,0,2.2-.649,1.585,1.585,0,0,0,.752-1.264,1.009,1.009,0,0,0-.156-.562,1.669,1.669,0,0,0-.528-.527,7.027,7.027,0,0,0-2.4-.824h-.034a9.58,9.58,0,0,1-2.265-.684,3.773,3.773,0,0,1-1.632-1.37,2.691,2.691,0,0,1-.4-1.438,3.245,3.245,0,0,1,1.4-2.564,5.2,5.2,0,0,1,3.039-.93,6.879,6.879,0,0,1,3.826,1.4.906.906,0,0,1,.246,1.247.888.888,0,0,1-1.247.263,5.1,5.1,0,0,0-2.826-1.124,3.353,3.353,0,0,0-1.968.6,1.4,1.4,0,0,0-.665,1.107.846.846,0,0,0,.122.49,1.671,1.671,0,0,0,.472.456,6.032,6.032,0,0,0,2.194.773h.035a10.266,10.266,0,0,1,2.422.737,4.1,4.1,0,0,1,1.756,1.457,2.844,2.844,0,0,1,.421,1.492,3.393,3.393,0,0,1-1.51,2.72,5.479,5.479,0,0,1-3.247,1,7.551,7.551,0,0,1-4.493-1.754.932.932,0,0,1-.14-1.282" transform="translate(43.016 21.899)" fill="#ffc727"/>
        <path id="Trazado_642059" data-name="Trazado 642059" d="M125.016,47.63V57.987a.99.99,0,0,1-.985.965.963.963,0,0,1-.965-.965V50.6l-2.525,3.51a.961.961,0,0,1-.792.4h-.035a.985.985,0,0,1-.805-.4L116.4,50.6v7.389a.974.974,0,0,1-1.947,0V47.63a.972.972,0,0,1,.964-.965h.053a.953.953,0,0,1,.773.4l3.492,4.845,3.494-4.845a.961.961,0,0,1,.79-.4h.016a1,1,0,0,1,.985.965" transform="translate(53.986 22.012)" fill="#ffc727"/>
        <path id="Trazado_642060" data-name="Trazado 642060" d="M148.04,48.614h-2.79v9.373a.951.951,0,0,1-.965.965.962.962,0,0,1-.965-.965V48.614h-2.774a.978.978,0,0,1-.965-.983.952.952,0,0,1,.965-.965h7.5a.962.962,0,0,1,.965.965.989.989,0,0,1-.965.983" transform="translate(65.84 22.012)" fill="#ffc727"/>
        <path id="Trazado_642061" data-name="Trazado 642061" d="M177.232,48.08l-4.3,10.233a.463.463,0,0,1-.088.159l-.018.018a.488.488,0,0,1-.087.1c0,.035-.018.035-.018.053a.537.537,0,0,0-.124.088h-.018c-.051.034-.087.087-.157.1h-.018a.017.017,0,0,0-.018.018.524.524,0,0,0-.14.035h-.035a.535.535,0,0,1-.175.018.489.489,0,0,1-.159-.018h-.053a.428.428,0,0,0-.122-.035c-.018-.018-.018-.018-.035-.018a.374.374,0,0,1-.157-.1h-.018c-.053-.035-.088-.071-.124-.088a.155.155,0,0,1-.034-.053c-.018-.035-.053-.071-.071-.1-.035,0-.035-.018-.035-.018a.436.436,0,0,1-.071-.159l-2.3-5.441-2.3,5.441c-.018.053-.053.124-.069.159a.017.017,0,0,0-.018.018l-.106.1c0,.035-.018.035-.018.053a.463.463,0,0,0-.1.088h-.035c-.053.034-.106.087-.141.1h-.016a.017.017,0,0,0-.018.018.274.274,0,0,0-.141.035h-.053a.476.476,0,0,1-.157.018.586.586,0,0,1-.175-.018h-.053a.449.449,0,0,0-.124-.035c-.018-.018-.018-.018-.034-.018a.523.523,0,0,1-.159-.1h-.018c-.053-.035-.069-.071-.122-.088a.136.136,0,0,1-.035-.053c-.035-.035-.053-.071-.088-.1v-.018a1.288,1.288,0,0,1-.087-.159L160.47,48.08A.949.949,0,0,1,161,46.833a.939.939,0,0,1,1.245.509l3.441,8.127,2.265-5.389a.968.968,0,0,1,.912-.6,1,1,0,0,1,.912.6l2.265,5.389,3.423-8.127a.972.972,0,0,1,1.28-.509.948.948,0,0,1,.492,1.247" transform="translate(75.661 22.055)" fill="#ffc727"/>
        <path id="Trazado_642062" data-name="Trazado 642062" d="M196.139,48.614h-2.79v9.373a.951.951,0,0,1-.965.965.962.962,0,0,1-.965-.965V48.614h-2.774a.977.977,0,0,1-.965-.983.951.951,0,0,1,.965-.965h7.5a.962.962,0,0,1,.965.965.989.989,0,0,1-.965.983" transform="translate(88.529 22.012)" fill="#ffc727"/>
        <path id="Trazado_642063" data-name="Trazado 642063" d="M212.757,57.987V47.63a.962.962,0,0,1,.965-.965h5.741a.974.974,0,0,1,0,1.949h-4.758v3.213h4.09a.974.974,0,0,1,0,1.949h-4.09v4.212a.977.977,0,0,1-.983.965.962.962,0,0,1-.965-.965" transform="translate(100.359 22.012)" fill="#ffc727"/>
        <path id="Trazado_642064" data-name="Trazado 642064" d="M236.345,56.01a.916.916,0,0,1,1.282-.122,5.727,5.727,0,0,0,3.353,1.351,3.789,3.789,0,0,0,2.194-.649,1.582,1.582,0,0,0,.755-1.264,1,1,0,0,0-.159-.562,1.655,1.655,0,0,0-.525-.527,7.037,7.037,0,0,0-2.406-.824H240.8a9.581,9.581,0,0,1-2.265-.684,3.773,3.773,0,0,1-1.632-1.37,2.69,2.69,0,0,1-.4-1.438,3.241,3.241,0,0,1,1.4-2.564,5.182,5.182,0,0,1,3.036-.93,6.87,6.87,0,0,1,3.826,1.4.9.9,0,0,1,.246,1.247.886.886,0,0,1-1.247.263,5.084,5.084,0,0,0-2.826-1.124,3.348,3.348,0,0,0-1.966.6,1.4,1.4,0,0,0-.667,1.107.857.857,0,0,0,.122.49,1.668,1.668,0,0,0,.475.456,6.021,6.021,0,0,0,2.194.773h.035a10.275,10.275,0,0,1,2.421.737,4.107,4.107,0,0,1,1.756,1.457,2.845,2.845,0,0,1,.422,1.492,3.4,3.4,0,0,1-1.51,2.72,5.487,5.487,0,0,1-3.248,1,7.563,7.563,0,0,1-4.495-1.754.935.935,0,0,1-.14-1.282" transform="translate(111.395 21.899)" fill="#ffc727"/>
        <path id="Trazado_642065" data-name="Trazado 642065" d="M92.281,95.94a.269.269,0,0,1,0-.39.283.283,0,0,1,.4,0,2.09,2.09,0,0,0,1.469.6,2.093,2.093,0,0,0,2.082-2.084,2.051,2.051,0,0,0-2.071-2.081,2.059,2.059,0,0,0-1.481.612.269.269,0,0,1-.39,0,.175.175,0,0,1-.068-.09V92.5a.044.044,0,0,1-.01-.034.2.2,0,0,1-.012-.088.5.5,0,0,0,.012-.056l.378-3.141a.231.231,0,0,1,.112-.2.247.247,0,0,1,.178-.068h3.629a.276.276,0,0,1,.278.278.269.269,0,0,1-.278.28h-3.4l-.278,2.316a2.62,2.62,0,0,1,1.325-.356,2.62,2.62,0,0,1,2.627,2.637,2.61,2.61,0,0,1-.768,1.872,2.708,2.708,0,0,1-1.871.768,2.639,2.639,0,0,1-1.871-.768" transform="translate(43.49 41.941)" fill="#263238"/>
        <path id="Trazado_642066" data-name="Trazado 642066" d="M116.951,90.614a3.165,3.165,0,0,1,2.729-1.692.268.268,0,0,1,.278.256.289.289,0,0,1-.266.288,2.644,2.644,0,0,0-2.272,1.416,5.1,5.1,0,0,0-.556,1.559,2.563,2.563,0,1,1-.646,1.781,3.888,3.888,0,0,1-.022-.512,6.44,6.44,0,0,1,.756-3.1m-.188,3.563a.541.541,0,0,0,.022.146.162.162,0,0,1-.012.078,2.081,2.081,0,1,0-.01-.268Z" transform="translate(54.81 41.944)" fill="#263238"/>
        <path id="Trazado_642067" data-name="Trazado 642067" d="M141.776,96.317l2.885-6.836H140.9a.268.268,0,0,1,0-.536h4.121a.252.252,0,0,1,.311.18.239.239,0,0,1,.024.088.226.226,0,0,1-.046.146l-3.017,7.17a.28.28,0,0,1-.246.168.189.189,0,0,1-.11-.024.3.3,0,0,1-.156-.356" transform="translate(66.336 41.953)" fill="#263238"/>
        <path id="Trazado_642068" data-name="Trazado 642068" d="M166.951,88.913a1.619,1.619,0,0,1,.958,2.929,2.523,2.523,0,1,1-1.926,0,1.647,1.647,0,0,1-.646-1.314,1.608,1.608,0,0,1,1.614-1.614m0,7.26a1.993,1.993,0,1,0-1.993-1.994,1.983,1.983,0,0,0,1.993,1.994m0-4.543a1.111,1.111,0,0,0,1.091-1.1,1.085,1.085,0,0,0-2.171,0,1.1,1.1,0,0,0,1.08,1.1" transform="translate(77.559 41.941)" fill="#263238"/>
        <path id="Trazado_642069" data-name="Trazado 642069" d="M191.566,88.913a2.561,2.561,0,0,1,2.561,2.272c.012.021.012.032.024.054.01.212.022.434.022.668a6.487,6.487,0,0,1-.745,3.107,3.226,3.226,0,0,1-2.73,1.692h-.01a.265.265,0,0,1-.278-.256.283.283,0,0,1,.266-.29,2.642,2.642,0,0,0,2.272-1.413,4.906,4.906,0,0,0,.556-1.56,2.586,2.586,0,0,1-4.509-1.715,2.571,2.571,0,0,1,2.571-2.561m2.04,2.561a2.032,2.032,0,1,0-2.04,2.027,2.02,2.02,0,0,0,2.04-2.027" transform="translate(89.15 41.941)" fill="#263238"/>
        <path id="Trazado_642070" data-name="Trazado 642070" d="M213.726,89.692l-1.1.646a.28.28,0,0,1-.134.046.273.273,0,0,1-.234-.135.257.257,0,0,1,.1-.366l1.5-.914a.282.282,0,0,1,.366.1.325.325,0,0,1,.034.2v7.161a.264.264,0,0,1-.268.266.27.27,0,0,1-.266-.266Z" transform="translate(100.105 41.952)" fill="#263238"/>
        <path id="Trazado_642071" data-name="Trazado 642071" d="M214.992,92.81a4.973,4.973,0,0,1,.746-2.729,2.21,2.21,0,0,1,3.9,0,5.078,5.078,0,0,1,.756,2.729,5.006,5.006,0,0,1-.756,2.717,2.2,2.2,0,0,1-3.9,0,4.9,4.9,0,0,1-.746-2.717m.546,0a4.414,4.414,0,0,0,.658,2.417,1.874,1.874,0,0,0,1.491.935,1.893,1.893,0,0,0,1.492-.935,4.7,4.7,0,0,0,0-4.833,1.656,1.656,0,0,0-2.983,0,4.414,4.414,0,0,0-.658,2.417" transform="translate(101.413 41.941)" fill="#263238"/>
        <path id="Trazado_642072" data-name="Trazado 642072" d="M238.859,89.692l-1.1.646a.28.28,0,0,1-.134.046.273.273,0,0,1-.234-.135.256.256,0,0,1,.1-.366l1.5-.914a.283.283,0,0,1,.368.1.325.325,0,0,1,.034.2v7.161a.264.264,0,0,1-.268.266.27.27,0,0,1-.266-.266Z" transform="translate(111.959 41.952)" fill="#263238"/>
        <path id="Trazado_642073" data-name="Trazado 642073" d="M241.393,89.692l-1.1.646a.28.28,0,0,1-.134.046.273.273,0,0,1-.234-.135.257.257,0,0,1,.1-.366l1.5-.914a.282.282,0,0,1,.366.1.325.325,0,0,1,.034.2v7.161a.264.264,0,0,1-.268.266.27.27,0,0,1-.266-.266Z" transform="translate(113.155 41.952)" fill="#263238"/>
        <path id="Trazado_642074" data-name="Trazado 642074" d="M166.953,69.446l-1.1.646a.255.255,0,0,1-.368-.09.256.256,0,0,1,.1-.366l1.5-.914a.282.282,0,0,1,.366.1.315.315,0,0,1,.034.2v7.16a.263.263,0,0,1-.266.268.271.271,0,0,1-.268-.268Z" transform="translate(78.042 32.402)" fill="#263238"/>
        <path id="Trazado_642075" data-name="Trazado 642075" d="M189.164,75.983l3.641-3.285a2.025,2.025,0,0,0,.668-1.492,2.007,2.007,0,0,0-2-1.993,2.024,2.024,0,0,0-1.358.512l-.378.344a.268.268,0,0,1-.368-.39l.38-.356a2.608,2.608,0,0,1,1.725-.656,2.562,2.562,0,0,1,2.54,2.539,2.565,2.565,0,0,1-.836,1.893l-3.119,2.817h3.687a.275.275,0,0,1,.268.278.272.272,0,0,1-.268.268h-4.387a.251.251,0,0,1-.2-.078.29.29,0,0,1,.01-.4" transform="translate(89.19 32.391)" fill="#263238"/>
        <path id="Trazado_642076" data-name="Trazado 642076" d="M218.383,69.157l-2.015,2.071a2.6,2.6,0,0,1,1.335.714,2.631,2.631,0,0,1,.77,1.871,2.6,2.6,0,0,1-.78,1.871,2.648,2.648,0,0,1-1.871.78,2.6,2.6,0,0,1-1.859-.78.276.276,0,0,1,.39-.39,2.09,2.09,0,0,0,1.469.6,2.118,2.118,0,0,0,1.481-.6,2.076,2.076,0,0,0,.614-1.481,2.093,2.093,0,0,0-2.082-2.082.29.29,0,0,1-.224-.112h-.01a.281.281,0,0,1,0-.4l1.937-1.994h-2.983a.278.278,0,0,1,0-.556H218.2a.275.275,0,0,1,.278.278.22.22,0,0,1-.034.122.233.233,0,0,1-.056.09" transform="translate(100.889 32.391)" fill="#263238"/>
        <path id="Trazado_642077" data-name="Trazado 642077" d="M241.84,74.848h-4.253a.233.233,0,0,1-.166-.056.256.256,0,0,1-.034-.378L241.9,68.8l.012-.012a.255.255,0,0,1,.377-.034.347.347,0,0,1,.09.134c0,.022.012.034.012.044v5.379h.522a.267.267,0,1,1,0,.534h-.522v1.336a.273.273,0,0,1-.546,0Zm0-.534V69.748l-3.685,4.565Z" transform="translate(111.945 32.401)" fill="#263238"/>
        <path id="Trazado_642078" data-name="Trazado 642078" d="M91.881,129.3l-1.1.648a.289.289,0,0,1-.134.044.272.272,0,0,1-.234-.134.257.257,0,0,1,.1-.366l1.5-.914a.28.28,0,0,1,.366.1.317.317,0,0,1,.034.2v7.161a.263.263,0,0,1-.266.266.27.27,0,0,1-.268-.266Z" transform="translate(42.63 60.636)" fill="#263238"/>
        <path id="Trazado_642079" data-name="Trazado 642079" d="M95.726,128.522a2.562,2.562,0,0,1,2.561,2.272c.012.022.012.034.024.056.01.212.022.434.022.668a6.471,6.471,0,0,1-.746,3.107,3.221,3.221,0,0,1-2.729,1.692h-.01a.265.265,0,0,1-.278-.256.283.283,0,0,1,.266-.29,2.64,2.64,0,0,0,2.272-1.414,4.921,4.921,0,0,0,.556-1.559,2.586,2.586,0,0,1-4.509-1.715,2.572,2.572,0,0,1,2.571-2.562m2.038,2.562a2.032,2.032,0,1,0-2.038,2.027,2.02,2.02,0,0,0,2.038-2.027" transform="translate(43.942 60.625)" fill="#263238"/>
        <path id="Trazado_642080" data-name="Trazado 642080" d="M113.816,135.837l3.641-3.283a2.023,2.023,0,0,0,.668-1.492,2.007,2.007,0,0,0-2-1.993,2.024,2.024,0,0,0-1.358.512l-.378.346a.268.268,0,0,1-.366-.39l.378-.356a2.6,2.6,0,0,1,1.725-.658,2.562,2.562,0,0,1,2.54,2.539,2.564,2.564,0,0,1-.836,1.893l-3.119,2.817h3.687a.275.275,0,0,1,.268.28.271.271,0,0,1-.268.266h-4.387a.251.251,0,0,1-.2-.078.292.292,0,0,1,.01-.4" transform="translate(53.648 60.625)" fill="#263238"/>
        <path id="Trazado_642081" data-name="Trazado 642081" d="M118.339,132.421a4.981,4.981,0,0,1,.745-2.729,2.208,2.208,0,0,1,3.9,0,5.049,5.049,0,0,1,.758,2.729,4.982,4.982,0,0,1-.758,2.717,2.2,2.2,0,0,1-3.9,0,4.915,4.915,0,0,1-.745-2.717m.546,0a4.414,4.414,0,0,0,.656,2.417,1.871,1.871,0,0,0,1.492.935,1.89,1.89,0,0,0,1.492-.935,4.713,4.713,0,0,0,0-4.833,1.658,1.658,0,0,0-2.985,0,4.414,4.414,0,0,0-.656,2.417" transform="translate(55.821 60.625)" fill="#263238"/>
        <path id="Trazado_642082" data-name="Trazado 642082" d="M139.438,135.837l3.641-3.283a2.023,2.023,0,0,0,.668-1.492,2.007,2.007,0,0,0-2-1.993,2.024,2.024,0,0,0-1.358.512l-.378.346a.268.268,0,0,1-.368-.39l.38-.356a2.6,2.6,0,0,1,1.725-.658,2.559,2.559,0,0,1,2.539,2.539,2.563,2.563,0,0,1-.834,1.893l-3.119,2.817h3.687a.274.274,0,0,1,.266.28.27.27,0,0,1-.266.266h-4.387a.251.251,0,0,1-.2-.078.292.292,0,0,1,.01-.4" transform="translate(65.734 60.625)" fill="#263238"/>
        <path id="Trazado_642083" data-name="Trazado 642083" d="M145.231,129.3l-1.1.648a.3.3,0,0,1-.134.044.272.272,0,0,1-.234-.134.257.257,0,0,1,.1-.366l1.5-.914a.28.28,0,0,1,.366.1.317.317,0,0,1,.034.2v7.161a.263.263,0,0,1-.266.266.269.269,0,0,1-.268-.266Z" transform="translate(67.795 60.636)" fill="#263238"/>
        <path id="Trazado_642084" data-name="Trazado 642084" d="M162.317,135.837l3.641-3.283a2.023,2.023,0,0,0,.668-1.492,2.007,2.007,0,0,0-2-1.993,2.024,2.024,0,0,0-1.358.512l-.378.346a.268.268,0,0,1-.368-.39l.38-.356a2.6,2.6,0,0,1,1.725-.658,2.562,2.562,0,0,1,2.54,2.539,2.565,2.565,0,0,1-.836,1.893l-3.119,2.817h3.687a.275.275,0,0,1,.268.28.271.271,0,0,1-.268.266h-4.387a.251.251,0,0,1-.2-.078.3.3,0,0,1,.01-.4" transform="translate(76.526 60.625)" fill="#263238"/>
        <path id="Trazado_642085" data-name="Trazado 642085" d="M166.784,135.837l3.641-3.283a2.023,2.023,0,0,0,.668-1.492,2.007,2.007,0,0,0-2-1.993,2.024,2.024,0,0,0-1.358.512l-.378.346a.268.268,0,0,1-.368-.39l.38-.356a2.6,2.6,0,0,1,1.725-.658,2.559,2.559,0,0,1,2.539,2.539,2.563,2.563,0,0,1-.834,1.893l-3.119,2.817h3.687a.274.274,0,0,1,.266.28.27.27,0,0,1-.266.266h-4.387a.251.251,0,0,1-.2-.078.3.3,0,0,1,.01-.4" transform="translate(78.633 60.625)" fill="#263238"/>
        <path id="Trazado_642086" data-name="Trazado 642086" d="M186.942,135.837l3.641-3.283a2.023,2.023,0,0,0,.668-1.492,2.007,2.007,0,0,0-2-1.993,2.024,2.024,0,0,0-1.358.512l-.378.346a.268.268,0,0,1-.366-.39l.378-.356a2.6,2.6,0,0,1,1.725-.658,2.556,2.556,0,0,1,2.539,2.539,2.563,2.563,0,0,1-.834,1.893l-3.119,2.817h3.687a.274.274,0,0,1,.266.28.27.27,0,0,1-.266.266h-4.387a.251.251,0,0,1-.2-.078.3.3,0,0,1,.01-.4" transform="translate(88.142 60.625)" fill="#263238"/>
        <path id="Trazado_642087" data-name="Trazado 642087" d="M196.034,129.013l-2.016,2.071a2.609,2.609,0,0,1,2.1,2.583,2.6,2.6,0,0,1-.779,1.871,2.651,2.651,0,0,1-1.871.78,2.6,2.6,0,0,1-1.86-.78.276.276,0,0,1,.39-.39,2.092,2.092,0,0,0,1.47.6,2.115,2.115,0,0,0,1.481-.6,2.076,2.076,0,0,0,.612-1.481,2.093,2.093,0,0,0-2.082-2.082.292.292,0,0,1-.222-.11h-.012a.283.283,0,0,1,0-.4l1.938-1.994H192.2a.278.278,0,0,1,0-.556h3.641a.275.275,0,0,1,.278.278.226.226,0,0,1-.032.122.266.266,0,0,1-.056.09" transform="translate(90.346 60.625)" fill="#263238"/>
        <path id="Trazado_642088" data-name="Trazado 642088" d="M211.4,135.837l3.641-3.283a2.023,2.023,0,0,0,.668-1.492,2.007,2.007,0,0,0-2-1.993,2.024,2.024,0,0,0-1.358.512l-.378.346a.268.268,0,0,1-.368-.39l.38-.356a2.6,2.6,0,0,1,1.725-.658,2.559,2.559,0,0,1,2.54,2.539,2.559,2.559,0,0,1-.836,1.893l-3.117,2.817h3.685a.275.275,0,0,1,.268.28.271.271,0,0,1-.268.266h-4.387a.251.251,0,0,1-.2-.078.292.292,0,0,1,.01-.4" transform="translate(99.678 60.625)" fill="#263238"/>
        <path id="Trazado_642089" data-name="Trazado 642089" d="M220.1,134.7h-4.253a.234.234,0,0,1-.166-.056.255.255,0,0,1-.034-.378l4.509-5.612.012-.012a.256.256,0,0,1,.378-.032.344.344,0,0,1,.088.132c0,.024.012.034.012.044v5.379h.522a.267.267,0,1,1,0,.534h-.522v1.336a.273.273,0,0,1-.546,0Zm0-.534V129.6l-3.685,4.565Z" transform="translate(101.69 60.635)" fill="#263238"/>
        <path id="Trazado_642090" data-name="Trazado 642090" d="M235.542,135.837l3.641-3.283a2.023,2.023,0,0,0,.668-1.492,2.007,2.007,0,0,0-2-1.993,2.024,2.024,0,0,0-1.358.512l-.378.346a.268.268,0,0,1-.368-.39l.38-.356a2.6,2.6,0,0,1,1.725-.658,2.559,2.559,0,0,1,2.54,2.539,2.564,2.564,0,0,1-.836,1.893l-3.119,2.817h3.687a.275.275,0,0,1,.268.28.271.271,0,0,1-.268.266h-4.387a.256.256,0,0,1-.2-.078.294.294,0,0,1,.012-.4" transform="translate(111.067 60.625)" fill="#263238"/>
        <path id="Trazado_642091" data-name="Trazado 642091" d="M240.13,135.549a.269.269,0,0,1,0-.39.281.281,0,0,1,.4,0,2.094,2.094,0,0,0,1.47.6,2.093,2.093,0,0,0,2.082-2.084,2.053,2.053,0,0,0-2.072-2.081,2.061,2.061,0,0,0-1.481.612.271.271,0,0,1-.39,0,.18.18,0,0,1-.066-.09v-.01a.042.042,0,0,1-.012-.034.231.231,0,0,1-.01-.088.568.568,0,0,0,.01-.056l.38-3.141a.234.234,0,0,1,.11-.2.258.258,0,0,1,.178-.068h3.631a.275.275,0,0,1,.278.278.269.269,0,0,1-.278.28h-3.4l-.278,2.316a2.624,2.624,0,0,1,1.325-.356,2.62,2.62,0,0,1,2.628,2.637,2.616,2.616,0,0,1-.768,1.872,2.708,2.708,0,0,1-1.871.768,2.639,2.639,0,0,1-1.871-.768" transform="translate(113.231 60.625)" fill="#263238"/>
        <path id="Trazado_642092" data-name="Trazado 642092" d="M89.783,155.5l3.641-3.285a2.023,2.023,0,0,0,.668-1.492,2.007,2.007,0,0,0-2-1.993,2.024,2.024,0,0,0-1.358.512l-.378.346a.269.269,0,0,1-.368-.391l.38-.355a2.6,2.6,0,0,1,1.725-.658,2.559,2.559,0,0,1,2.539,2.539,2.563,2.563,0,0,1-.834,1.893l-3.119,2.817H94.36a.274.274,0,0,1,.266.28.27.27,0,0,1-.266.266H89.973a.251.251,0,0,1-.2-.078.29.29,0,0,1,.01-.4" transform="translate(42.311 69.902)" fill="#263238"/>
        <path id="Trazado_642093" data-name="Trazado 642093" d="M95.055,149.889a3.169,3.169,0,0,1,2.729-1.694.271.271,0,0,1,.278.258.289.289,0,0,1-.266.288,2.644,2.644,0,0,0-2.272,1.414,5.121,5.121,0,0,0-.556,1.56,2.563,2.563,0,1,1-.646,1.781,3.885,3.885,0,0,1-.022-.512,6.44,6.44,0,0,1,.756-3.1m-.188,3.563a.551.551,0,0,0,.022.146.162.162,0,0,1-.012.078,2.081,2.081,0,1,0-.01-.268Z" transform="translate(44.481 69.904)" fill="#263238"/>
        <path id="Trazado_642094" data-name="Trazado 642094" d="M114.276,155.5l3.641-3.285a2.023,2.023,0,0,0,.668-1.492,2.007,2.007,0,0,0-2-1.993,2.024,2.024,0,0,0-1.358.512l-.378.346a.269.269,0,0,1-.368-.391l.38-.355a2.6,2.6,0,0,1,1.725-.658,2.562,2.562,0,0,1,2.54,2.539,2.564,2.564,0,0,1-.836,1.893l-3.119,2.817h3.687a.275.275,0,0,1,.268.28.271.271,0,0,1-.268.266h-4.387a.251.251,0,0,1-.2-.078.29.29,0,0,1,.01-.4" transform="translate(53.865 69.902)" fill="#263238"/>
        <path id="Trazado_642095" data-name="Trazado 642095" d="M119.824,155.592l2.885-6.836h-3.765a.268.268,0,0,1,0-.536h4.121a.294.294,0,0,1,.166.012.3.3,0,0,1,.144.168.239.239,0,0,1,.024.088.226.226,0,0,1-.046.146l-3.017,7.17a.278.278,0,0,1-.246.168.188.188,0,0,1-.11-.024.3.3,0,0,1-.156-.356" transform="translate(55.981 69.913)" fill="#263238"/>
        <path id="Trazado_642096" data-name="Trazado 642096" d="M138.334,155.5l3.641-3.285a2.023,2.023,0,0,0,.668-1.492,2.007,2.007,0,0,0-2-1.993,2.024,2.024,0,0,0-1.358.512l-.378.346a.269.269,0,0,1-.368-.391l.38-.355a2.6,2.6,0,0,1,1.725-.658,2.559,2.559,0,0,1,2.539,2.539,2.563,2.563,0,0,1-.834,1.893l-3.119,2.817h3.687a.274.274,0,0,1,.266.28.27.27,0,0,1-.266.266h-4.387a.251.251,0,0,1-.2-.078.293.293,0,0,1,.01-.4" transform="translate(65.213 69.902)" fill="#263238"/>
        <path id="Trazado_642097" data-name="Trazado 642097" d="M145.309,148.189a1.619,1.619,0,0,1,.958,2.929,2.523,2.523,0,1,1-1.926,0,1.645,1.645,0,0,1-.646-1.314,1.608,1.608,0,0,1,1.614-1.614m0,7.26a1.993,1.993,0,1,0-1.993-1.994,1.983,1.983,0,0,0,1.993,1.994m0-4.543a1.111,1.111,0,0,0,1.092-1.1,1.086,1.086,0,0,0-2.172,0,1.1,1.1,0,0,0,1.08,1.1" transform="translate(67.351 69.902)" fill="#263238"/>
        <path id="Trazado_642098" data-name="Trazado 642098" d="M162.158,155.5l3.641-3.285a2.023,2.023,0,0,0,.668-1.492,2.007,2.007,0,0,0-2-1.993,2.024,2.024,0,0,0-1.358.512l-.378.346a.269.269,0,0,1-.368-.391l.38-.355a2.6,2.6,0,0,1,1.725-.658,2.562,2.562,0,0,1,2.54,2.539,2.564,2.564,0,0,1-.836,1.893l-3.119,2.817h3.687a.275.275,0,0,1,.268.28.271.271,0,0,1-.268.266h-4.387a.251.251,0,0,1-.2-.078.29.29,0,0,1,.01-.4" transform="translate(76.451 69.902)" fill="#263238"/>
        <path id="Trazado_642099" data-name="Trazado 642099" d="M169.26,148.188a2.562,2.562,0,0,1,2.561,2.272c.012.022.012.034.024.056.01.212.022.434.022.668a6.471,6.471,0,0,1-.746,3.107,3.221,3.221,0,0,1-2.729,1.692h-.01a.265.265,0,0,1-.278-.256.283.283,0,0,1,.266-.29,2.64,2.64,0,0,0,2.272-1.414,4.92,4.92,0,0,0,.556-1.559,2.576,2.576,0,1,1-1.938-4.277m2.038,2.562a2.032,2.032,0,1,0-2.038,2.027,2.02,2.02,0,0,0,2.038-2.027" transform="translate(78.628 69.901)" fill="#263238"/>
        <path id="Trazado_642100" data-name="Trazado 642100" d="M191.273,148.679l-2.016,2.071a2.646,2.646,0,0,1-.545,5.233,2.6,2.6,0,0,1-1.86-.78.276.276,0,0,1,.39-.39,2.09,2.09,0,0,0,1.47.6,2.114,2.114,0,0,0,1.481-.6,2.076,2.076,0,0,0,.612-1.481,2.093,2.093,0,0,0-2.082-2.082.292.292,0,0,1-.222-.11h-.012a.283.283,0,0,1,0-.4l1.938-1.994h-2.985a.278.278,0,0,1,0-.556h3.641a.275.275,0,0,1,.278.278.226.226,0,0,1-.032.122.251.251,0,0,1-.056.09" transform="translate(88.1 69.902)" fill="#263238"/>
        <path id="Trazado_642101" data-name="Trazado 642101" d="M191.322,152.087a4.973,4.973,0,0,1,.746-2.729,2.209,2.209,0,0,1,3.9,0,5.078,5.078,0,0,1,.756,2.729,5.006,5.006,0,0,1-.756,2.717,2.2,2.2,0,0,1-3.9,0,4.9,4.9,0,0,1-.746-2.717m.546,0a4.414,4.414,0,0,0,.658,2.417,1.658,1.658,0,0,0,2.983,0,4.7,4.7,0,0,0,0-4.833,1.656,1.656,0,0,0-2.983,0,4.414,4.414,0,0,0-.658,2.417" transform="translate(90.248 69.901)" fill="#263238"/>
        <path id="Trazado_642102" data-name="Trazado 642102" d="M92.367,109.428l-1.1.646a.28.28,0,0,1-.134.046.275.275,0,0,1-.234-.135.257.257,0,0,1,.1-.366l1.5-.914a.282.282,0,0,1,.366.1.315.315,0,0,1,.034.2v7.161a.264.264,0,0,1-.266.266.27.27,0,0,1-.268-.266Z" transform="translate(42.859 51.262)" fill="#263238"/>
        <path id="Trazado_642103" data-name="Trazado 642103" d="M93.577,115.965l3.641-3.285a2.023,2.023,0,0,0,.668-1.492,2.007,2.007,0,0,0-2-1.993,2.024,2.024,0,0,0-1.358.512l-.378.344a.268.268,0,0,1-.368-.389l.38-.358a2.608,2.608,0,0,1,1.725-.656,2.562,2.562,0,0,1,2.54,2.539,2.564,2.564,0,0,1-.836,1.893L94.467,115.9h3.687a.273.273,0,0,1,0,.546H93.767a.251.251,0,0,1-.2-.078.293.293,0,0,1,.01-.4" transform="translate(44.101 51.25)" fill="#263238"/>
        <path id="Trazado_642104" data-name="Trazado 642104" d="M116.567,109.428l-1.1.646a.251.251,0,0,1-.368-.09.257.257,0,0,1,.1-.366l1.5-.914a.282.282,0,0,1,.366.1.315.315,0,0,1,.034.2v7.161a.264.264,0,0,1-.266.266.27.27,0,0,1-.268-.266Z" transform="translate(54.274 51.262)" fill="#263238"/>
        <path id="Trazado_642105" data-name="Trazado 642105" d="M122.4,109.139l-2.016,2.071a2.616,2.616,0,0,1,1.338.714,2.646,2.646,0,0,1,.767,1.871,2.6,2.6,0,0,1-.779,1.869,2.651,2.651,0,0,1-1.871.78,2.6,2.6,0,0,1-1.86-.78.275.275,0,1,1,.39-.389,2.1,2.1,0,0,0,1.47.6,2.12,2.12,0,0,0,1.481-.6,2.081,2.081,0,0,0,.612-1.481,2.093,2.093,0,0,0-2.082-2.084.3.3,0,0,1-.222-.109h-.012a.283.283,0,0,1,0-.4l1.938-2h-2.985a.277.277,0,1,1,0-.555h3.641a.274.274,0,0,1,.278.278.233.233,0,0,1-.032.122.259.259,0,0,1-.056.088" transform="translate(55.613 51.251)" fill="#263238"/>
        <path id="Trazado_642106" data-name="Trazado 642106" d="M140.417,109.428l-1.1.646a.28.28,0,0,1-.134.046.273.273,0,0,1-.234-.135.257.257,0,0,1,.1-.366l1.5-.914a.282.282,0,0,1,.366.1.315.315,0,0,1,.034.2v7.161a.264.264,0,0,1-.266.266.27.27,0,0,1-.268-.266Z" transform="translate(65.524 51.262)" fill="#263238"/>
        <path id="Trazado_642107" data-name="Trazado 642107" d="M146.091,114.83h-4.253a.237.237,0,0,1-.168-.056.256.256,0,0,1-.032-.378l4.509-5.612.012-.012a.257.257,0,0,1,.378-.034.36.36,0,0,1,.088.134c0,.024.012.034.012.044V114.3h.522a.267.267,0,1,1,0,.534h-.522v1.336a.273.273,0,0,1-.546,0Zm0-.534V109.73l-3.685,4.565Z" transform="translate(66.779 51.261)" fill="#263238"/>
        <path id="Trazado_642108" data-name="Trazado 642108" d="M164.71,109.428l-1.1.646a.251.251,0,0,1-.368-.09.257.257,0,0,1,.1-.366l1.5-.914a.282.282,0,0,1,.366.1.315.315,0,0,1,.034.2v7.161a.264.264,0,0,1-.266.266.27.27,0,0,1-.268-.266Z" transform="translate(76.983 51.262)" fill="#263238"/>
        <path id="Trazado_642109" data-name="Trazado 642109" d="M166.041,115.676a.271.271,0,0,1,0-.39.282.282,0,0,1,.4,0,2.09,2.09,0,0,0,1.469.6,2.093,2.093,0,0,0,2.082-2.084,2.051,2.051,0,0,0-2.071-2.081,2.059,2.059,0,0,0-1.481.612.268.268,0,0,1-.39,0,.164.164,0,0,1-.066-.09v-.01a.04.04,0,0,1-.012-.034.2.2,0,0,1-.012-.088.5.5,0,0,0,.012-.056l.378-3.141a.232.232,0,0,1,.112-.2.253.253,0,0,1,.178-.068h3.629a.276.276,0,0,1,.278.28.269.269,0,0,1-.278.278h-3.4l-.28,2.316a2.63,2.63,0,0,1,1.326-.356,2.623,2.623,0,0,1,2.627,2.637,2.608,2.608,0,0,1-.768,1.872,2.705,2.705,0,0,1-1.871.768,2.639,2.639,0,0,1-1.871-.768" transform="translate(78.283 51.25)" fill="#263238"/>
        <path id="Trazado_642110" data-name="Trazado 642110" d="M189.12,109.428l-1.1.646a.28.28,0,0,1-.134.046.273.273,0,0,1-.234-.135.257.257,0,0,1,.1-.366l1.5-.914a.282.282,0,0,1,.366.1.315.315,0,0,1,.034.2v7.161a.264.264,0,0,1-.266.266.27.27,0,0,1-.268-.266Z" transform="translate(88.498 51.262)" fill="#263238"/>
        <path id="Trazado_642111" data-name="Trazado 642111" d="M191.136,110.35a3.161,3.161,0,0,1,2.727-1.692.268.268,0,0,1,.278.256.289.289,0,0,1-.266.288,2.646,2.646,0,0,0-2.272,1.414,5.122,5.122,0,0,0-.556,1.56,2.563,2.563,0,1,1-.646,1.781,3.882,3.882,0,0,1-.022-.512,6.425,6.425,0,0,1,.758-3.1m-.19,3.563a.549.549,0,0,0,.022.146.161.161,0,0,1-.012.078,2.081,2.081,0,1,0-.01-.268Z" transform="translate(89.803 51.254)" fill="#263238"/>
        <path id="Trazado_642112" data-name="Trazado 642112" d="M213.961,109.428l-1.1.646a.28.28,0,0,1-.134.046.275.275,0,0,1-.234-.135.257.257,0,0,1,.1-.366l1.5-.914a.283.283,0,0,1,.368.1.325.325,0,0,1,.034.2v7.161a.264.264,0,0,1-.268.266.27.27,0,0,1-.266-.266Z" transform="translate(100.216 51.262)" fill="#263238"/>
        <path id="Trazado_642113" data-name="Trazado 642113" d="M216.367,116.053l2.883-6.836h-3.765a.268.268,0,0,1,0-.536h4.122a.287.287,0,0,1,.165.012.3.3,0,0,1,.146.168.268.268,0,0,1,.022.088.226.226,0,0,1-.046.146l-3.017,7.17a.276.276,0,0,1-.244.168.193.193,0,0,1-.112-.024.3.3,0,0,1-.155-.356" transform="translate(101.52 51.262)" fill="#263238"/>
        <path id="Trazado_642114" data-name="Trazado 642114" d="M237.754,109.428l-1.1.646a.28.28,0,0,1-.134.046.273.273,0,0,1-.234-.135.257.257,0,0,1,.1-.366l1.5-.914a.283.283,0,0,1,.368.1.325.325,0,0,1,.034.2v7.161a.264.264,0,0,1-.268.266.27.27,0,0,1-.266-.266Z" transform="translate(111.439 51.262)" fill="#263238"/>
        <path id="Trazado_642115" data-name="Trazado 642115" d="M241.472,108.65a1.618,1.618,0,0,1,.958,2.927,2.523,2.523,0,1,1-1.926,0,1.64,1.64,0,0,1-.646-1.313,1.609,1.609,0,0,1,1.614-1.614m0,7.26a1.993,1.993,0,1,0-1.993-1.994,1.985,1.985,0,0,0,1.993,1.994m0-4.543a1.111,1.111,0,0,0,1.092-1.1,1.086,1.086,0,0,0-2.172,0,1.1,1.1,0,0,0,1.08,1.1" transform="translate(112.711 51.251)" fill="#263238"/>
        <path id="Trazado_642116" data-name="Trazado 642116" d="M89.048,20.612V13.054l-4.534,3.778Z" transform="translate(39.866 6.158)" fill="#fff"/>
        <path id="Trazado_642117" data-name="Trazado 642117" d="M245.605,13.054v7.557l4.534-3.778Z" transform="translate(115.854 6.158)" fill="#fff"/>
        <path id="Trazado_642118" data-name="Trazado 642118" d="M157.31,18.975a2.367,2.367,0,0,0,4.615-.721v-6.81a.951.951,0,0,1,1.9,0v6.81a4.263,4.263,0,0,1-8.32,1.3.922.922,0,0,1,.6-1.183.934.934,0,0,1,1.2.6" transform="translate(73.331 4.953)" fill="#fff"/>
        <path id="Trazado_642119" data-name="Trazado 642119" d="M166.349,21.409a3.587,3.587,0,0,1-3.567-3.567v-4.1a.926.926,0,0,1,.908-.91.916.916,0,0,1,.91.91v4.1a1.735,1.735,0,0,0,1.75,1.748,1.777,1.777,0,0,0,1.8-1.748v-4.1a.9.9,0,0,1,.893-.91.955.955,0,0,1,.926.91v4.1a3.621,3.621,0,0,1-3.619,3.567" transform="translate(76.785 6.053)" fill="#fff"/>
        <path id="Trazado_642120" data-name="Trazado 642120" d="M170.711,10.5a.955.955,0,0,1,.96.943V21.565a.952.952,0,0,1-1.9,0V11.444a.952.952,0,0,1,.945-.943" transform="translate(80.08 4.953)" fill="#fff"/>
        <path id="Trazado_642121" data-name="Trazado 642121" d="M180.039,13.742v6.483a4.053,4.053,0,0,1-5.866,3.672.9.9,0,0,1-.446-1.219.943.943,0,0,1,1.219-.377,2.234,2.234,0,0,0,3.138-1.322,3.321,3.321,0,0,1-1.629.412,3.609,3.609,0,0,1-3.585-3.6V13.742a.912.912,0,0,1,.892-.91.883.883,0,0,1,.91.91v4.047a1.775,1.775,0,0,0,3.55,0V13.742a.88.88,0,0,1,.893-.91.918.918,0,0,1,.926.91" transform="translate(81.543 6.053)" fill="#fff"/>
      </g>
    </g>
    <g id="Grupo_883270" data-name="Grupo 883270">
      <g id="Grupo_883269" data-name="Grupo 883269" clip-path="url(#clip-path)">
        <path id="Trazado_642122" data-name="Trazado 642122" d="M94.868,131.031c-21.94,24.354-40.339,52.44-37.692,62.115,3.562,13.016,25,36.619,37.258,47.841,3.6,3.3,28.7-25.254,24.853-28.785-4.649-4.265-29.054-25.949-29.372-26.5-.68-1.174,10.913-37.06,13.888-45.567,4.973-14.206.8-19.915-8.935-9.105" transform="translate(26.851 59.154)" fill="#ad6359"/>
        <path id="Trazado_642123" data-name="Trazado 642123" d="M102.629,229.5c-7.473-3.182-20.211-15.668-22.124-19.862s18.592-26.554,23.307-26.16,29.044,13.058,32.966,20.36S110.372,232.8,102.629,229.5" transform="translate(37.916 86.545)" fill="#ad6359"/>
        <path id="Trazado_642124" data-name="Trazado 642124" d="M122.371,190.522c-4.261.606-1.107,5.28-1.107,5.28s-6.161-5.635-10.312-3.311c-3.994,2.25.013,7.762.3,8.161-.328-.294-6.124-5.325-10.055-2.559-4.083,2.876.89,7.719,1.214,8.03-.4-.181-5.7-2.49-8.206.29-4.308,4.777,9.077,11.055,10.642,16.024,0,0-8.119,3.612-8.333,3.766,0,0,12.613,6.234,19.2,3.75a4.492,4.492,0,0,0,2.936-4.8s3.846,2.459,7.008.381c1.62-1.071,1.35-4.618,1.35-4.618s3.16,1.841,5.859-.184c2.159-1.609,1.55-4.915,1.55-4.915s3.856.359,5.526-2c3.382-4.752-8.44-24.58-17.565-23.29" transform="translate(44.034 89.842)" fill="#ad6359"/>
        <path id="Trazado_642125" data-name="Trazado 642125" d="M125.625,213.666a.061.061,0,0,0,.115-.041c-2.3-7.469-7.11-14.972-13.39-19.7-.2-.155-.546.112-.353.327a81.978,81.978,0,0,1,13.628,19.418" transform="translate(52.803 91.452)" fill="#263238"/>
        <path id="Trazado_642126" data-name="Trazado 642126" d="M121.5,217.849c.04.081.174.016.144-.075-2.408-7.685-8.061-15.986-15.94-20.586-.271-.157-.671-.028-.374.177,5.008,3.456,12.91,13.772,16.17,20.485" transform="translate(49.635 92.982)" fill="#263238"/>
        <path id="Trazado_642127" data-name="Trazado 642127" d="M99.075,201.1c7.385,4.7,12.518,11.3,16.819,18.835.056.1.188.009.165-.087-1.1-4.258-4.34-8.774-7.16-12.075a23.065,23.065,0,0,0-9.659-6.93c-.152-.057-.322.157-.165.258" transform="translate(46.705 94.734)" fill="#263238"/>
        <path id="Trazado_642128" data-name="Trazado 642128" d="M121.425,195.508a26.215,26.215,0,0,0-4.084-2.545,8.815,8.815,0,0,0-4.465-1.1,2.9,2.9,0,0,0-1.878.89,4.217,4.217,0,0,0-1.008,1.884,5.146,5.146,0,0,0,1.095,4.044L113.2,201.5l-2.968-1.921a14.442,14.442,0,0,0-4.268-1.909,5.17,5.17,0,0,0-4.2.453,2.948,2.948,0,0,0-1.276,3.485,8.907,8.907,0,0,0,2.534,3.684l3.063,2.845-3.807-1.679a13.6,13.6,0,0,0-3.319-.986,5.588,5.588,0,0,0-3.211.3,2.656,2.656,0,0,0-1.551,2.333,5.874,5.874,0,0,0,1.277,3.029,46.246,46.246,0,0,0,4.921,5.32c.87.862,1.743,1.726,2.574,2.633A8.731,8.731,0,0,1,105,222.143a9.4,9.4,0,0,0-2.277-2.815c-.889-.832-1.819-1.622-2.751-2.415a39.307,39.307,0,0,1-5.311-5.173,6.875,6.875,0,0,1-1.648-3.584,3.768,3.768,0,0,1,2.156-3.529,6.841,6.841,0,0,1,3.975-.477,14.952,14.952,0,0,1,3.712,1.043l-.746,1.166a10.233,10.233,0,0,1-3.038-4.321,4.284,4.284,0,0,1,.062-2.893,4.844,4.844,0,0,1,1.837-2.19,6.519,6.519,0,0,1,5.314-.575,15.674,15.674,0,0,1,4.662,2.174l-.855.905a6.147,6.147,0,0,1-1.089-5.072,5.182,5.182,0,0,1,1.367-2.262,3.739,3.739,0,0,1,2.442-1.033,9.029,9.029,0,0,1,4.727,1.5,21.585,21.585,0,0,1,3.882,2.92" transform="translate(43.873 90.137)" fill="#263238"/>
        <path id="Trazado_642129" data-name="Trazado 642129" d="M100.005,184.446s34.46-.068,27.886,13.413c-1.953,4.007-14.755,18.127-17.641,15.61-3.726-3.25.518-10.14,3.869-14.045,0,0-11.719,1.673-15.316-6.137a8.54,8.54,0,0,1,1.2-8.842" transform="translate(46.246 87.004)" fill="#ad6359"/>
        <path id="Trazado_642130" data-name="Trazado 642130" d="M127.814,193.349A18.011,18.011,0,0,1,125.379,198a39.046,39.046,0,0,1-3.27,4.137,60.449,60.449,0,0,1-7.64,7.3,9.91,9.91,0,0,1-2.415,1.42,3.707,3.707,0,0,1-1.579.262,2.579,2.579,0,0,1-.862-.191,2.71,2.71,0,0,1-.739-.468,4.432,4.432,0,0,1-1.426-2.724,8.329,8.329,0,0,1,.18-2.871,15.964,15.964,0,0,1,2.246-4.957,36.191,36.191,0,0,1,3.226-4.237l.564,1a21.375,21.375,0,0,1-4.044.044,19.677,19.677,0,0,1-3.949-.711,13.627,13.627,0,0,1-3.626-1.688,10.319,10.319,0,0,1-2.83-2.755,11.611,11.611,0,0,0,3.049,2.39,14.143,14.143,0,0,0,3.6,1.307,18.8,18.8,0,0,0,3.8.462,20.368,20.368,0,0,0,3.8-.253l1.544-.263-.982,1.26a38.35,38.35,0,0,0-2.979,4.178,15.491,15.491,0,0,0-2,4.552c-.347,1.532-.255,3.286.77,4.161.834.848,2.512-.077,3.837-1.033a50.114,50.114,0,0,0,3.982-3.269c1.3-1.149,2.584-2.315,3.8-3.542,2.383-2.489,4.839-5.016,6.371-8.162" transform="translate(46.8 90.361)" fill="#263238"/>
        <path id="Trazado_642131" data-name="Trazado 642131" d="M89.968,177.558l-27.78-11.131S82.146,135.6,95.151,126.485s10.889,3.628,8.28,13.01-13.463,38.063-13.463,38.063" transform="translate(29.334 58.186)" fill="#2b95f9"/>
        <path id="Trazado_642132" data-name="Trazado 642132" d="M101.124,139.5c-2.614,9.375-13.468,38.061-13.468,38.061l-20.57-8.239L95.54,124.785c9.977-5.5,7.993,6.035,5.584,14.713" transform="translate(31.645 58.187)" fill="#2b95f9"/>
        <path id="Trazado_642133" data-name="Trazado 642133" d="M89.582,158.707c-3.729-1.9-7.737-3.35-11.619-4.9-3.988-1.591-8.068-2.905-12.084-4.412-.113-.043-.2.149-.082.2,3.875,1.647,7.669,3.451,11.607,4.955a119.777,119.777,0,0,0,12.137,4.256c.057.016.1-.071.041-.1" transform="translate(31.011 70.469)" fill="#263238"/>
        <path id="Trazado_642134" data-name="Trazado 642134" d="M97.582,356.564S93.7,410.431,93.7,410.47c-.053,10.549.088,19.8.608,24.578a.16.16,0,0,0,.009.078c.194,1.8.442,2.954.762,3.261.025.026.037.053.062.068,3.129,2.143,87.424,5.029,90.4,4.138s.673-9.434-2.509-12.155c-3.207-2.724-34.974-18.262-34.974-18.262l3.361-53.842Z" transform="translate(44.192 168.194)" fill="#ad6359"/>
        <path id="Trazado_642135" data-name="Trazado 642135" d="M93.7,385.5s0,11.286,0,11.325c-.054,10.551.087,19.8.606,24.579a.175.175,0,0,0,.01.077,14.284,14.284,0,0,0,.762,3.263c.024.026.037.053.06.066,3.129,2.143,87.424,5.029,90.4,4.14s.674-9.434-2.508-12.156c-3.207-2.723-34.974-18.261-34.974-18.261l.156-11.494Z" transform="translate(44.192 181.841)" fill="#fff"/>
        <path id="Trazado_642136" data-name="Trazado 642136" d="M185.533,425.467c-2.979.892-87.265-1.993-90.4-4.143-1.207-.8-1.5-13.1-1.432-27.982,0-.156,0-.312.006-.466l54.4,1.254-.051.923s31.768,15.534,34.972,18.261c3.174,2.717,5.487,11.275,2.509,12.153" transform="translate(44.194 185.322)" fill="#727997"/>
        <path id="Trazado_642137" data-name="Trazado 642137" d="M183,413.622c-14.2-.834-71.534-2.864-85.63-2.611-.115,0-.118.079,0,.09,14.052,1.135,71.4,2.7,85.625,2.754.3,0,.308-.215.007-.232" transform="translate(45.887 193.866)" fill="#263238"/>
        <path id="Trazado_642138" data-name="Trazado 642138" d="M139.144,394.756c-5.557-1.235-12.424-.611-16.833,3.226-.171.149.043.39.227.338a78.651,78.651,0,0,1,16.56-2.859.357.357,0,0,0,.047-.7" transform="translate(57.665 185.939)" fill="#263238"/>
        <path id="Trazado_642139" data-name="Trazado 642139" d="M141.829,396.5c-5.556-1.235-12.423-.611-16.832,3.226-.171.149.043.39.227.339a78.738,78.738,0,0,1,16.56-2.859.357.357,0,0,0,.046-.7" transform="translate(58.932 186.762)" fill="#263238"/>
        <path id="Trazado_642140" data-name="Trazado 642140" d="M144.515,398.249c-5.556-1.235-12.423-.611-16.832,3.227-.171.147.043.389.227.337a78.72,78.72,0,0,1,16.558-2.86.357.357,0,0,0,.047-.7" transform="translate(60.199 187.586)" fill="#263238"/>
        <path id="Trazado_642141" data-name="Trazado 642141" d="M92.432,489.517l59-1.179s7.2-106.173,5.854-141.572c-1.456-38.447-17.972-152.853-17.972-152.853H89.486s12.738,114.85,13.007,153.318c.252,35.658-10.061,142.286-10.061,142.286" transform="translate(42.211 91.47)" fill="#263238"/>
        <path id="Trazado_642142" data-name="Trazado 642142" d="M129.528,193.913,99.595,297.474c-3.544-49.009-10.108-103.561-10.108-103.561Z" transform="translate(42.212 91.47)" fill="#37474f"/>
        <path id="Trazado_642143" data-name="Trazado 642143" d="M95.913,197.744l3.166,34.151,2.93,34.172c1.876,22.788,3.657,45.582,5.014,68.42.331,5.707.534,11.443.453,17.181-.124,5.726-.353,11.443-.643,17.156q-.881,17.135-2.2,34.235-1.3,17.1-2.767,34.188L98.68,471.395l2.55-34.2q1.278-17.1,2.4-34.207c.72-11.406,1.492-22.81,2.018-34.223.271-5.706.48-11.412.583-17.116.062-5.694-.162-11.388-.508-17.092-1.245-22.814-3.046-45.613-4.709-68.411Z" transform="translate(45.243 93.277)" fill="#37474f"/>
        <path id="Trazado_642144" data-name="Trazado 642144" d="M147.271,387.336c-9.211-.079-6.567-.187-15.78-.163-4.508.01-34.133.112-38.336.859a.1.1,0,0,0,0,.188c4.221.646,33.839.029,38.345-.069,9.21-.2,6.564-.243,15.771-.547a.134.134,0,0,0,0-.268" transform="translate(43.91 182.631)" fill="#37474f"/>
        <path id="Trazado_642145" data-name="Trazado 642145" d="M43.786,336.931s-28.463,46.262-28.48,46.3C10.683,392.709,6.8,401.1,5.2,405.636a.175.175,0,0,0-.025.074c-.606,1.709-.883,2.854-.728,3.27a.358.358,0,0,0,.026.087c1.891,3.288,76.595,42.441,79.661,42.93,3.07.5,4.7-8.209,3.011-12.042-1.71-3.844-23.6-31.621-23.6-31.621l27.982-46.466Z" transform="translate(2.075 158.933)" fill="#ad6359"/>
        <path id="Trazado_642146" data-name="Trazado 642146" d="M4.447,396.779a.18.18,0,0,0,.013.082c1.9,3.288,76.6,42.44,79.669,42.931s4.693-8.214,3.016-12.046c-1.719-3.847-23.6-31.623-23.6-31.623l4.993-8.294c-12.209-6.506-34.406-17.939-48.184-25.019-3,4.87-5.046,8.2-5.046,8.212-4.626,9.482-8.514,17.871-10.109,22.4a.2.2,0,0,0-.028.081c-.614,1.706-.886,2.852-.723,3.275" transform="translate(2.076 171.14)" fill="#fff"/>
        <path id="Trazado_642147" data-name="Trazado 642147" d="M84.131,437.293c-3.07-.487-77.769-39.638-79.663-42.936C3.725,393.119,8.8,381.9,15.311,368.523c.071-.138.14-.278.209-.417l48.474,24.719-.447.808s21.89,27.774,23.593,31.621c1.684,3.825.057,12.539-3.008,12.039" transform="translate(2.073 173.638)" fill="#727997"/>
        <path id="Trazado_642148" data-name="Trazado 642148" d="M83.431,425.51C71,418.6,20.216,391.909,7.4,386.025c-.1-.049-.14.021-.041.079,12.171,7.116,63.172,33.395,75.962,39.611.269.131.369-.06.107-.206" transform="translate(3.445 182.083)" fill="#263238"/>
        <path id="Trazado_642149" data-name="Trazado 642149" d="M52.638,388.552c-4.47-3.522-10.929-5.937-16.566-4.392-.219.06-.13.369.057.4a78.67,78.67,0,0,1,16.161,4.6.357.357,0,0,0,.347-.615" transform="translate(16.955 180.986)" fill="#263238"/>
        <path id="Trazado_642150" data-name="Trazado 642150" d="M54.3,391.291c-4.47-3.522-10.929-5.937-16.566-4.392-.219.06-.131.369.057.4a78.766,78.766,0,0,1,16.161,4.6.357.357,0,0,0,.347-.615" transform="translate(17.739 182.279)" fill="#263238"/>
        <path id="Trazado_642151" data-name="Trazado 642151" d="M55.963,394.029c-4.471-3.522-10.929-5.938-16.566-4.392-.219.06-.131.369.056.4a78.661,78.661,0,0,1,16.162,4.6.357.357,0,0,0,.347-.615" transform="translate(18.523 183.57)" fill="#263238"/>
        <path id="Trazado_642152" data-name="Trazado 642152" d="M171.564,193.881a.2.2,0,0,1-.013.052c-.218,1.024-3.7,17.191-7.314,31.077-2.626,10.146-5.329,19.062-6.879,19.984-1.756,1.038-10.312,4.829-13.181,6.021,0,0-19.246,96.069-29.406,125.859C105.4,404.363,66.6,477.839,66.6,477.839L10.316,449.4s43.955-74.57,48.578-87.952C66.058,340.707,92.9,239.432,92.9,239.432s-.2-31.708,10.473-45.551Z" transform="translate(4.866 91.455)" fill="#263238"/>
        <path id="Trazado_642153" data-name="Trazado 642153" d="M63.359,387.5c-8.043-4.493-5.67-3.317-13.763-7.721-3.96-2.155-29.995-16.289-34.042-17.65-.088-.031-.162.107-.088.165,3.392,2.593,29.67,16.273,33.671,18.351,8.175,4.246,5.874,2.938,14.1,7.092a.134.134,0,0,0,.127-.237" transform="translate(7.281 170.818)" fill="#37474f"/>
        <path id="Trazado_642154" data-name="Trazado 642154" d="M76.295,225.286c1.541-.4,3.189-.521,4.761-.77,1.27-.2,2.534-.425,3.79-.7A16.536,16.536,0,0,0,91.534,221c2.177-1.7,3.285-4.266,4.337-6.737q.938-2.2,1.924-4.38c.316-.7.636-1.408.964-2.109a24.271,24.271,0,0,0,1.188-2.533c.041-.125.241-.059.191.057a16.864,16.864,0,0,0-.534,1.823c-.215.706-.416,1.417-.636,2.124-.39,1.258-.771,2.524-1.188,3.775a29.967,29.967,0,0,1-2.68,6.629c-2.324,3.7-6.478,5.191-10.633,5.715-1.191.15-2.392.235-3.589.3a25.675,25.675,0,0,1-4.537.034.211.211,0,0,1-.046-.414" transform="translate(35.916 96.781)" fill="#37474f"/>
        <path id="Trazado_642155" data-name="Trazado 642155" d="M119.012,227.077a111.9,111.9,0,0,0-17.64,8.215.2.2,0,0,0,.163.364c5.943-2.552,12-4.993,17.8-7.869a.39.39,0,0,0-.321-.709" transform="translate(47.766 107.102)" fill="#37474f"/>
        <path id="Trazado_642156" data-name="Trazado 642156" d="M118.423,199.469c-.016-.206-.377-.25-.375-.029a198.019,198.019,0,0,1-1,19.855c-.277,3.061-2.739,19.977-8.046,18.744-.889-.206-1.342-1.082-1.482-2.421-.168-1.61.439-3.587.7-5.188.589-3.541,1.063-7.094,1.366-10.671a96.95,96.95,0,0,0-.216-20.011.171.171,0,0,0-.341.019,183.627,183.627,0,0,1-1.616,27.625c-.664,4.4-2.88,11.023,1.722,11.7,4.687.69,7.719-10.4,8.29-13.441a101.29,101.29,0,0,0,.99-26.182" transform="translate(50.144 94.008)" fill="#37474f"/>
        <path id="Trazado_642157" data-name="Trazado 642157" d="M108.783,226.048a28.579,28.579,0,0,0-1.194,3.506,7.946,7.946,0,0,0-.5,2.883c.021.187.268.2.368.078a10.2,10.2,0,0,0,1.233-2.805c.4-1.083.83-2.16,1.2-3.255a.593.593,0,0,0-1.114-.406" transform="translate(50.507 106.453)" fill="#37474f"/>
        <path id="Trazado_642158" data-name="Trazado 642158" d="M20.645,438.7c8.012-15.083,16.27-30.029,24.56-44.959,4.087-7.36,8.352-14.638,12.252-22.1,3.854-7.37,6.467-15.114,8.907-23.041q7.433-24.164,14.081-48.559t12.482-48.995c.979-4.1,2.05-8.2,2.839-12.34a37.88,37.88,0,0,0-.019-12.633,40.512,40.512,0,0,1-.091-11.765,78.259,78.259,0,0,1,2.751-11.494c.621-1.981,1.3-3.946,1.975-5.907a.181.181,0,0,1,.347.1c-2.425,7.94-4.908,15.968-4.386,24.377.25,4.043,1.32,8.012,1.249,12.08-.068,4.047-1.133,8.016-2.041,11.936q-5.737,24.745-12.331,49.279-6.565,24.537-13.933,48.849c-2.389,7.88-4.623,15.884-8.012,23.406s-7.7,14.655-11.741,21.852c-8.361,14.873-16.792,29.709-25.412,44.434-1.092,1.866-2.2,3.725-3.3,5.587-.071.119-.244.009-.181-.112" transform="translate(9.732 92.824)" fill="#37474f"/>
        <path id="Trazado_642159" data-name="Trazado 642159" d="M68.665,241.01c.233.212,82.3-9.083,83.02-10.093,1-1.42-19.248-86.371-35.92-104.185-4.168-4.453-20.854-4.967-24.694,1.258C68.23,165.023,67.835,240.247,68.665,241.01" transform="translate(32.286 58.186)" fill="#2b95f9"/>
        <path id="Trazado_642160" data-name="Trazado 642160" d="M115.835,126.206l-25.84,2.985q.514-.925,1.068-1.807c.04-.054.068-.109.109-.163l22.473-2.587a7.352,7.352,0,0,1,2.121,1.492.375.375,0,0,1,.069.081m2.736,3.478-30.779,3.544c-.315.643-.643,1.286-.958,1.944l32.86-3.791c-.383-.589-.752-1.164-1.123-1.7m3.176,5.269-36.734,4.228c-.274.63-.534,1.273-.808,1.916l38.459-4.42c-.3-.589-.6-1.164-.917-1.725m2.709,5.31-41.8,4.817c-.234.63-.467,1.26-.7,1.9l43.29-4.995c-.274-.589-.534-1.164-.795-1.725m2.381,5.338-46.2,5.338c-.2.615-.411,1.245-.6,1.888l47.546-5.475c-.234-.589-.493-1.177-.74-1.751m2.218,5.379-50.2,5.788q-.267.945-.533,1.89l51.418-5.94c-.233-.589-.452-1.164-.684-1.738m2.066,5.392-53.828,6.2c-.163.617-.315,1.245-.465,1.875l54.936-6.322c-.219-.589-.424-1.177-.643-1.751m1.957,5.392-57.167,6.583-.411,1.888,58.193-6.707q-.307-.883-.615-1.765m1.862,5.419-60.247,6.939c-.137.615-.246,1.232-.369,1.862l61.191-7.048c-.191-.589-.383-1.177-.574-1.753m1.765,5.406L73.6,179.871c-.109.63-.218,1.245-.315,1.862l64-7.378Zm1.725,5.434L72.64,185.6c-.1.63-.191,1.247-.287,1.862l66.611-7.678Zm1.656,5.434-68.293,7.871c-.1.615-.178,1.245-.247,1.86l69.047-7.965c-.163-.589-.341-1.177-.506-1.766m1.588,5.447-70.635,8.144c-.081.615-.15,1.232-.218,1.847l71.359-8.225c-.163-.589-.328-1.177-.506-1.766m1.547,5.448-72.838,8.389c-.054.617-.124,1.232-.178,1.848l73.509-8.473Zm1.506,5.447L69.835,208.42c-.054.628-.11,1.245-.165,1.86l75.521-8.7c-.15-.589-.315-1.177-.465-1.779m1.436,5.46-76.807,8.855c-.041.63-.1,1.247-.137,1.848l77.41-8.924c-.152-.587-.3-1.176-.467-1.779m1.4,5.475-78.586,9.047c-.041.63-.068,1.232-.1,1.834L148,212.5c-.137-.575-.287-1.164-.437-1.766m1.341,5.462-80.214,9.238c-.028.63-.054,1.245-.069,1.847l80.708-9.306c-.137-.575-.274-1.177-.425-1.779m1.26,5.475-81.665,9.416c-.015.643-.028,1.258-.028,1.834l82.089-9.47c-.122-.562-.246-1.151-.4-1.779m1.149,5.5-82.856,9.553c0,.7.013,1.3.026,1.807l83.131-9.581c-.069-.48-.178-1.082-.3-1.779" transform="translate(32.29 58.79)" fill="#37474f"/>
        <path id="Trazado_642161" data-name="Trazado 642161" d="M102.93,144.321c-3.772.546-12.349-5.751-16.015-11.415-.249-.389.056-4.7.181-9.953.062-3.189.056-6.742-.182-9.984l20.692,3.439A51.816,51.816,0,0,0,106.56,129a7.25,7.25,0,0,0,.238,1.32c.01.06.034.132.046.218.6,2.5,1.991,12.929-3.915,13.784" transform="translate(40.953 53.288)" fill="#ad6359"/>
        <path id="Trazado_642162" data-name="Trazado 642162" d="M87.078,122.037c4.553,5.828,11.3,11.356,19.99,9.759-.093-.533-.172-.958-.25-1.263a1.4,1.4,0,0,1-.046-.213,6.009,6.009,0,0,1-.235-1.325,51.837,51.837,0,0,1,1.036-12.589l-20.692-3.434c.228,2.924.244,6.124.2,9.064" transform="translate(40.982 53.29)" fill="#263238"/>
        <path id="Trazado_642163" data-name="Trazado 642163" d="M82.7,101.71c-1.89,7.317,2.832,28.011,8.169,32.438,7.738,6.418,19.956,6.533,25.3-2.665,5.176-8.919-1.454-35.779-7.375-39.755-8.72-5.857-23.3-.826-26.09,9.983" transform="translate(38.808 42.102)" fill="#ad6359"/>
        <path id="Trazado_642164" data-name="Trazado 642164" d="M87.051,121.385c3.141-.412,2.839-9.987,2.839-9.987s8.046,1.591,7.339-8.97c0,0,9.491,2.325,14.969-1.233,4.682-3.041,6.621-11.569,2.627-16.218-2.252-2.621-8.13-4.717-15.987,4.175,0,0-11.662-6.724-14.716,6.935,0,0-5.663,1.154-5.9,6.77-.375,8.861,5.361,18.984,8.829,18.529" transform="translate(36.89 39.015)" fill="#263238"/>
        <path id="Trazado_642165" data-name="Trazado 642165" d="M93.676,95.621a.086.086,0,0,0-.162.057c.7,2.531,1.426,5.285-.44,7.52a6.187,6.187,0,0,1-7.286,1.885c-.153-.066-.268.166-.115.23a6.741,6.741,0,0,0,7.347-1.4c2.34-2.293,1.91-5.567.656-8.3" transform="translate(40.379 45.08)" fill="#263238"/>
        <path id="Trazado_642166" data-name="Trazado 642166" d="M86.78,114.83c-4.4-2.21-7.85-6.028-8.465-11.506a11.4,11.4,0,0,1,1.4-7.5c1.283-1.968,3.3-2.762,5.083-4.015.05-.035.013-.125-.046-.106-11.234,3.71-8.13,20.31,1.819,23.712.313.107.506-.439.2-.59" transform="translate(36.612 43.258)" fill="#263238"/>
        <path id="Trazado_642167" data-name="Trazado 642167" d="M109.766,85.172c-5.372-6.446-14.521-1.067-17.738,4.752-.012.021.022.044.035.024,2.985-4.421,9.575-9.055,14.923-6.183,6.459,3.469,4.82,14.8-2.178,16.448-.21.049-.14.409.077.375,6.489-1.029,8.874-10.624,4.882-15.416" transform="translate(43.409 38.795)" fill="#263238"/>
        <g id="Grupo_883268" data-name="Grupo 883268" transform="translate(123.051 156.501)" opacity="0.3">
          <g id="Grupo_883267" data-name="Grupo 883267">
            <g id="Grupo_883266" data-name="Grupo 883266" clip-path="url(#clip-path-9)">
              <path id="Trazado_642168" data-name="Trazado 642168" d="M115.528,123.421c-5.339,9.2-17.559,9.088-25.294,2.668-2.573-2.134-5.008-8.089-6.624-14.479l2.52-5.27s4.571,5.721,6.679,7.144c2.67,1.821,8.2,2.737,15.082-2.7l2.531-.233s4.86,3.148,6.679-1.943c.028.26.041.52.069.78.068.9.138,1.807.18,2.724.012.218.025.437.025.656.11,4.352-.411,8.184-1.846,10.648" transform="translate(-83.611 -106.34)"/>
            </g>
          </g>
        </g>
        <path id="Trazado_642169" data-name="Trazado 642169" d="M89.007,110.71s-5.141-6.439-8.091-4.564,1.214,11.417,4.889,12.526a3.659,3.659,0,0,0,4.767-2.275Z" transform="translate(37.697 49.909)" fill="#ad6359"/>
        <path id="Trazado_642170" data-name="Trazado 642170" d="M81.467,107.875c-.057,0-.063.079-.013.1,2.583.859,4.056,3.108,5.138,5.47a2.018,2.018,0,0,0-3.051-.359c-.062.05.007.149.078.13a2.249,2.249,0,0,1,2.521.627,10.839,10.839,0,0,1,1.31,1.924c.132.218.531.071.428-.182l-.024-.057c-.141-3.213-2.921-7.545-6.387-7.648" transform="translate(38.406 50.885)" fill="#263238"/>
        <path id="Trazado_642171" data-name="Trazado 642171" d="M96.716,104.9c-.024-.05-.094.091-.079.149.362,1.383.542,3.029-.614,3.778-.037.024-.016.093.029.077,1.489-.567,1.227-2.749.664-4" transform="translate(45.286 49.475)" fill="#263238"/>
        <path id="Trazado_642172" data-name="Trazado 642172" d="M95.852,104.1c-2.281.34-1.435,4.876.678,4.562,2.081-.311,1.233-4.846-.678-4.562" transform="translate(44.574 49.098)" fill="#263238"/>
        <path id="Trazado_642173" data-name="Trazado 642173" d="M102.1,103.648c0-.056.122.046.131.1.218,1.414.7,3,2.063,3.226.043.007.052.078,0,.081-1.592.071-2.218-2.035-2.2-3.41" transform="translate(48.161 48.884)" fill="#263238"/>
        <path id="Trazado_642174" data-name="Trazado 642174" d="M103.081,102.5c2.228-.593,3.251,3.907,1.186,4.456-2.031.542-3.054-3.959-1.186-4.456" transform="translate(48.161 48.326)" fill="#263238"/>
        <path id="Trazado_642175" data-name="Trazado 642175" d="M94.415,104.072a17.969,17.969,0,0,0,1.641-.946,3.066,3.066,0,0,0,1.491-1.285.978.978,0,0,0-.371-1.133,2.422,2.422,0,0,0-2.445.2A3.551,3.551,0,0,0,93,102.8a1.041,1.041,0,0,0,1.414,1.275" transform="translate(43.834 47.385)" fill="#263238"/>
        <path id="Trazado_642176" data-name="Trazado 642176" d="M104.924,101.953a18.065,18.065,0,0,1-1.891-.131,3.068,3.068,0,0,1-1.9-.5.975.975,0,0,1-.163-1.18,2.418,2.418,0,0,1,2.286-.889,3.551,3.551,0,0,1,2.383.936,1.041,1.041,0,0,1-.712,1.766" transform="translate(47.567 46.815)" fill="#263238"/>
        <path id="Trazado_642177" data-name="Trazado 642177" d="M97.3,113.932c.4.266.818.656,1.336.6a3.776,3.776,0,0,0,1.445-.636.05.05,0,0,1,.074.06,1.923,1.923,0,0,1-1.641,1.1,1.523,1.523,0,0,1-1.338-1.038c-.037-.077.066-.127.124-.088" transform="translate(45.836 53.724)" fill="#263238"/>
        <path id="Trazado_642178" data-name="Trazado 642178" d="M97.744,116.129a4.865,4.865,0,0,0,3.591,1.534,6.132,6.132,0,0,0,1.737-.243,1.789,1.789,0,0,0,.322-.1c.1-.032.19-.062.3-.1a.358.358,0,0,0,.222-.368v-.01a.671.671,0,0,0-.04-.141v-.01l-.026-.122c-.172-1.088-.584-2.714-.584-2.714.433.124,2.617.655,2.48.1-1.152-4.629-2.434-9.775-4.559-14.137a.133.133,0,0,0-.25.084c.933,4.492,2.648,8.789,3.656,13.287a8.522,8.522,0,0,0-2.387-.265c-.144.074.854,3.129.892,3.623a.169.169,0,0,1,0,.053c-1.775.572-3.248.278-5.241-.612-.119-.062-.213.054-.107.15" transform="translate(46.085 47.044)" fill="#263238"/>
        <path id="Trazado_642179" data-name="Trazado 642179" d="M102.4,111.747a5.78,5.78,0,0,1-1.944,2.187,2.6,2.6,0,0,1-1.534.387c-1.177-.087-1.4-1.111-1.357-2.031a6.272,6.272,0,0,1,.252-1.444,7.463,7.463,0,0,0,4.583.9" transform="translate(46.019 52.287)" fill="#263238"/>
        <path id="Trazado_642180" data-name="Trazado 642180" d="M100.453,113.474a2.6,2.6,0,0,1-1.534.386c-1.177-.085-1.4-1.11-1.355-2.029a2.683,2.683,0,0,1,2.889,1.644" transform="translate(46.019 52.746)" fill="#ff99ba"/>
        <path id="Trazado_642181" data-name="Trazado 642181" d="M108.827,126.82a.033.033,0,0,0-.063.018c.993,3.925,3.036,13.073-3.3,13.685-2.55.247-5.133-.887-7.332-2.062a35.626,35.626,0,0,1-6.293-4.364,52.349,52.349,0,0,1-6.216-5.952c-.078-.093-.213.044-.131.137,1.934,2.147,3.64,4.437,5.781,6.4a31,31,0,0,0,6.818,4.857c2.341,1.191,5.071,2.294,7.749,1.906a5.111,5.111,0,0,0,4.393-4.748,22.572,22.572,0,0,0-1.41-9.88" transform="translate(40.317 59.811)" fill="#263238"/>
        <path id="Trazado_642182" data-name="Trazado 642182" d="M98.557,143.529c7.863,8.2,37.545,37.986,43.867,40.581,5.631,2.312,29.174-3.81,35.58-5.444,5.21-1.329,14.917,37.215,9.859,37.913-7.971,1.1-45.417,10.149-57.508,5.228-9.644-3.924-35.1-48.868-44.76-69.275-8.289-17.51-2.263-24.876,12.963-9" transform="translate(38.614 63.577)" fill="#ad6359"/>
        <path id="Trazado_642183" data-name="Trazado 642183" d="M101.887,186.111,128.169,171.8s-23.44-28.274-37.424-35.8-10.389,4.882-6.7,13.893,17.839,36.219,17.839,36.219" transform="translate(38.074 63.057)" fill="#2b95f9"/>
        <path id="Trazado_642184" data-name="Trazado 642184" d="M93.713,168.836c3.481-2.319,7.291-4.236,10.964-6.228,3.773-2.047,7.672-3.831,11.482-5.8.107-.056.212.125.106.187-3.656,2.09-7.211,4.327-10.945,6.283a120.1,120.1,0,0,1-11.554,5.651c-.056.022-.106-.057-.053-.093" transform="translate(44.195 73.962)" fill="#263238"/>
        <path id="Trazado_642185" data-name="Trazado 642185" d="M87,156.274q1.539,2.263,3.117,4.495c-1.61-3.378-3.189-6.774-4.633-10.218-.038-.088.1-.156.152-.072,2.54,4.548,4.936,9.2,7.286,13.85,2.259,4.471,4.683,8.951,6.624,13.574.353-.128.706-.255,1.054-.394.16-.065.277.184.13.272-.4.235-.787.487-1.179.736a.3.3,0,0,1-.4-.087c-2.712-4.427-4.964-9.236-7.236-13.9-.372-.764-.73-1.538-1.1-2.3a63.336,63.336,0,0,1-4.046-5.8.139.139,0,0,1,.234-.152" transform="translate(40.319 70.964)" fill="#263238"/>
        <path id="Trazado_642186" data-name="Trazado 642186" d="M118.016,166.872l.921-.6-.024.138c-1.694-1.647-3.316-3.357-4.948-5.057q-2.417-2.576-4.76-5.222c-1.556-1.769-3.11-3.538-4.6-5.363s-2.995-3.638-4.409-5.534c1.719,1.625,3.36,3.316,4.985,5.023s3.214,3.445,4.79,5.2,3.114,3.535,4.631,5.336c1.5,1.819,3.008,3.628,4.446,5.5l.072.094-.1.044Z" transform="translate(47.262 68.507)" fill="#263238"/>
        <path id="Trazado_642187" data-name="Trazado 642187" d="M102.514,146.051a15.45,15.45,0,0,1,1.885,2.84,15.251,15.251,0,0,1,1.28,3.16,15.279,15.279,0,0,1-1.885-2.84,15.449,15.449,0,0,1-1.28-3.16" transform="translate(48.357 68.893)" fill="#263238"/>
        <path id="Trazado_642188" data-name="Trazado 642188" d="M207.509,161.668c.312,4.658-11.237,4.453-11.237,4.453a8.621,8.621,0,0,1,3.788,4.47c1.079,3.379-3.747,6.554-3.747,6.554a10.632,10.632,0,0,1,3.245,5.35c.708,3.339-3.706,7.238-3.706,7.238a9.317,9.317,0,0,1-.11,6.5c-2.4,5.478-11.581,6.156-17.179,7.7-6,1.653-16.165,2.84-21.516,3.785L147.188,169.8s23.7-16.131,30.6-16.23c5.81-.084,29.246.976,29.724,8.094" transform="translate(69.43 72.439)" fill="#ad6359"/>
        <path id="Trazado_642189" data-name="Trazado 642189" d="M186.594,162.406c-6.2-1.394-12.717-1.3-19.007-1.142a.109.109,0,0,0,.007.218c6.253-.231,12.72,1.205,18.97,1.224a.153.153,0,0,0,.029-.3" transform="translate(79.004 76.028)" fill="#263238"/>
        <path id="Trazado_642190" data-name="Trazado 642190" d="M186.252,169.319a16.606,16.606,0,0,0-4.331.026q-2.3.174-4.583.424c-3.055.331-6.1.731-9.136,1.223-.134.021-.135.233.007.218,3.045-.325,6.1-.6,9.151-.8q2.294-.148,4.59-.259a19.7,19.7,0,0,0,4.315-.412.219.219,0,0,0-.013-.419" transform="translate(79.294 79.803)" fill="#263238"/>
        <path id="Trazado_642191" data-name="Trazado 642191" d="M185.462,178.181a11.5,11.5,0,0,0-3.9.233q-2.084.269-4.169.517c-2.78.33-5.562.656-8.352.889-.138.01-.132.228.007.218,2.837-.222,5.676-.4,8.511-.65q2.088-.181,4.174-.386a10.826,10.826,0,0,0,3.748-.681.077.077,0,0,0-.022-.138" transform="translate(79.691 83.999)" fill="#263238"/>
      </g>
    </g>
  </g>
</svg>
