<svg id="Grupo_882927" data-name="Grupo 882927" xmlns="http://www.w3.org/2000/svg" xmlns:xlink="http://www.w3.org/1999/xlink" width="525.567" height="541.44" viewBox="0 0 525.567 541.44">
  <defs>
    <clipPath id="clip-path">
      <rect id="Rectángulo_330809" data-name="Rectángulo 330809" width="525.567" height="541.44" fill="none"/>
    </clipPath>
    <clipPath id="clip-path-4">
      <rect id="Rectángulo_330784" data-name="Rectángulo 330784" width="66.187" height="123.097" fill="#ffb338"/>
    </clipPath>
    <clipPath id="clip-path-5">
      <rect id="Rectángulo_330785" data-name="Rectángulo 330785" width="56.033" height="35.958" fill="none"/>
    </clipPath>
    <clipPath id="clip-path-7">
      <rect id="Rectángulo_330789" data-name="Rectángulo 330789" width="70.208" height="56.689" fill="none"/>
    </clipPath>
    <clipPath id="clip-path-9">
      <rect id="Rectángulo_330791" data-name="Rectángulo 330791" width="58.993" height="80.076" fill="#ffb338"/>
    </clipPath>
    <clipPath id="clip-path-11">
      <rect id="Rectángulo_330793" data-name="Rectángulo 330793" width="302.63" height="279.589" fill="#ffb338"/>
    </clipPath>
    <clipPath id="clip-path-12">
      <rect id="Rectángulo_330794" data-name="Rectángulo 330794" width="291.924" height="77.072" fill="none"/>
    </clipPath>
    <clipPath id="clip-path-13">
      <rect id="Rectángulo_330795" data-name="Rectángulo 330795" width="80.144" height="249.611" fill="none"/>
    </clipPath>
    <clipPath id="clip-path-14">
      <rect id="Rectángulo_330796" data-name="Rectángulo 330796" width="49.812" height="69.447" fill="none"/>
    </clipPath>
    <clipPath id="clip-path-15">
      <rect id="Rectángulo_330797" data-name="Rectángulo 330797" width="114.085" height="154.853" fill="none"/>
    </clipPath>
    <clipPath id="clip-path-16">
      <rect id="Rectángulo_330798" data-name="Rectángulo 330798" width="51.218" height="262.816" fill="none"/>
    </clipPath>
    <clipPath id="clip-path-17">
      <rect id="Rectángulo_330799" data-name="Rectángulo 330799" width="69.29" height="86.12" fill="none"/>
    </clipPath>
    <clipPath id="clip-path-19">
      <rect id="Rectángulo_330804" data-name="Rectángulo 330804" width="20.877" height="20.691" fill="none"/>
    </clipPath>
    <clipPath id="clip-path-20">
      <rect id="Rectángulo_330803" data-name="Rectángulo 330803" width="88.622" height="67.038" fill="none"/>
    </clipPath>
    <clipPath id="clip-path-21">
      <rect id="Rectángulo_330805" data-name="Rectángulo 330805" width="71.804" height="77.403" fill="none"/>
    </clipPath>
    <clipPath id="clip-path-22">
      <rect id="Rectángulo_330806" data-name="Rectángulo 330806" width="122.365" height="38.004" fill="none"/>
    </clipPath>
  </defs>
  <g id="Grupo_882926" data-name="Grupo 882926" clip-path="url(#clip-path)">
    <g id="Grupo_882868" data-name="Grupo 882868">
      <g id="Grupo_882867" data-name="Grupo 882867" clip-path="url(#clip-path)">
        <path id="Trazado_640172" data-name="Trazado 640172" d="M0,109.621c-.208,32.038,25.285,58.43,56.942,58.948s57.487-25.034,57.695-57.073S89.352,53.066,57.7,52.548.21,77.582,0,109.621" transform="translate(0 13.832)" fill="#ebebeb"/>
        <path id="Trazado_640173" data-name="Trazado 640173" d="M9.981,107.167C9.82,132.158,29.706,152.744,54.4,153.148a44.452,44.452,0,0,0,45-44.519c.163-24.991-19.723-45.579-44.416-45.982A44.454,44.454,0,0,0,9.981,107.167" transform="translate(2.627 16.491)" fill="#fff"/>
        <path id="Trazado_640174" data-name="Trazado 640174" d="M19.857,104.739a32.822,32.822,0,0,0,32.024,33.152,32.05,32.05,0,0,0,32.446-32.1A32.822,32.822,0,0,0,52.3,72.642a32.048,32.048,0,0,0-32.447,32.1" transform="translate(5.227 19.123)" fill="#ebebeb"/>
        <path id="Trazado_640175" data-name="Trazado 640175" d="M29.839,102.285a19.984,19.984,0,0,0,19.5,20.184A19.515,19.515,0,0,0,69.09,102.928a19.987,19.987,0,0,0-19.5-20.184,19.515,19.515,0,0,0-19.754,19.541" transform="translate(7.855 21.783)" fill="#fff"/>
        <path id="Trazado_640176" data-name="Trazado 640176" d="M38.458,100.167a8.9,8.9,0,0,0,8.679,8.984,8.686,8.686,0,0,0,8.795-8.7,8.9,8.9,0,0,0-8.68-8.986,8.687,8.687,0,0,0-8.794,8.7" transform="translate(10.125 24.08)" fill="#ebebeb"/>
        <path id="Trazado_640177" data-name="Trazado 640177" d="M45.831,105.375,105.84,73.82l-.457-.874L45.374,104.5Z" transform="translate(11.945 19.204)" fill="#ebebeb"/>
        <path id="Trazado_640178" data-name="Trazado 640178" d="M96.894,75.945l-.217-.086-3.849-1.187,7.586-3.965,4.108,1.251Z" transform="translate(24.438 18.614)" fill="#ebebeb"/>
        <path id="Trazado_640179" data-name="Trazado 640179" d="M101.42,66.858l-1.366,4L92.47,74.82a18.464,18.464,0,0,0,1.345-3.986Z" transform="translate(24.344 17.601)" fill="#ebebeb"/>
        <path id="Trazado_640180" data-name="Trazado 640180" d="M43.921,98.39l1.583,2.842,4.217-.359-2.768-2.265-.282-3.556Z" transform="translate(11.563 25.024)" fill="#ebebeb"/>
        <rect id="Rectángulo_330781" data-name="Rectángulo 330781" width="94.005" height="59.616" transform="translate(14.606 453.196) rotate(-20.245)" fill="#ebebeb"/>
        <path id="Trazado_640181" data-name="Trazado 640181" d="M99.76,333c-2.307,4.721-4.732,9.322-7.086,14-2.405,4.615-4.824,9.233-7.27,13.82q-3.828,7.187-7.715,14.293c-.08.152-.145.3-.224.451q-3.441,6.276-6.909,12.561l-.35.6-.643-.235q-6.712-2.53-13.4-5.09c-.153-.047-.312-.11-.47-.174q-7.587-2.884-15.167-5.873c-4.819-1.889-9.658-3.83-14.485-5.778-4.826-2.029-9.658-3.953-14.477-6.045,4.865,1.522,9.717,3.214,14.569,4.824,4.859,1.668,9.717,3.336,14.569,5.069q8.093,2.852,16.225,5.85c.014,0,.014,0,.034.009q6.073,2.213,12.163,4.462c2.1-3.764,4.21-7.553,6.339-11.286,0-.04,0-.04.014-.046q4.245-7.525,8.541-14.986,3.858-6.676,7.782-13.293c2.658-4.379,5.25-8.816,7.961-13.133" transform="translate(3.044 87.667)" fill="#fff"/>
        <path id="Trazado_640182" data-name="Trazado 640182" d="M53.324,372.184c-.03.042-.042.091-.072.131-.317.568-.634,1.137-.956,1.692-1.522,2.684-3.128,5.307-4.793,7.893-2.016,3.181-4.133,6.294-6.268,9.4-2.163,3.07-4.344,6.131-6.621,9.137s-4.594,5.983-7.077,8.839c1.81-3.331,3.786-6.542,5.807-9.711,2.03-3.186,4.147-6.3,6.268-9.4,2.172-3.087,4.353-6.148,6.63-9.155,1.809-2.4,3.667-4.784,5.614-7.1.447-.542.9-1.07,1.364-1.6.03-.042.073-.087.1-.129" transform="translate(7.249 97.982)" fill="#fff"/>
        <path id="Trazado_640183" data-name="Trazado 640183" d="M106.124,378.308c-3.743-.561-7.451-1.314-11.122-2.127s-7.329-1.721-10.982-2.645c-3.639-.975-7.27-1.968-10.87-3.077-2.931-.891-5.85-1.83-8.738-2.887-.623-.221-1.233-.448-1.843-.675-.049-.011-.091-.042-.14-.053a.691.691,0,0,0,.157.018c.7.116,1.392.224,2.083.345,2.981.5,5.931,1.108,8.877,1.751,3.684.809,7.329,1.721,10.973,2.664,3.639.975,7.271,1.968,10.87,3.077,3.608,1.093,7.2,2.251,10.735,3.609" transform="translate(16.435 96.577)" fill="#fff"/>
        <rect id="Rectángulo_330782" data-name="Rectángulo 330782" width="59.616" height="94.004" transform="matrix(0.162, -0.987, 0.987, 0.162, 423.144, 244.427)" fill="#ebebeb"/>
        <path id="Trazado_640184" data-name="Trazado 640184" d="M435.37,162.156c-4.336,2.967-8.717,5.772-13.07,8.679-4.371,2.826-8.753,5.649-13.146,8.432q-6.875,4.36-13.762,8.623c-.144.092-.274.188-.418.282q-6.09,3.759-12.207,7.515l-.6.349-.443-.52q-4.588-5.512-9.145-11.041c-.11-.116-.217-.25-.323-.384q-5.175-6.253-10.292-12.593c-3.26-4.02-6.511-8.1-9.747-12.173-3.2-4.146-6.449-8.2-9.607-12.4,3.479,3.725,6.865,7.591,10.289,11.386,3.4,3.849,6.805,7.7,10.169,11.6q5.634,6.475,11.225,13.1c.014,0,.014,0,.025.024q4.192,4.923,8.377,9.884c3.686-2.237,7.39-4.491,11.084-6.688.02-.035.02-.035.034-.033q7.4-4.449,14.824-8.819,6.649-3.9,13.327-7.721c4.473-2.5,8.917-5.077,13.406-7.494" transform="translate(90.196 38.679)" fill="#fff"/>
        <path id="Trazado_640185" data-name="Trazado 640185" d="M376.115,176.562c-.047.02-.081.058-.128.08-.556.337-1.112.675-1.666,1-2.649,1.582-5.34,3.071-8.063,4.5-3.324,1.771-6.7,3.434-10.09,5.081-3.4,1.6-6.805,3.188-10.269,4.679s-6.948,2.937-10.517,4.2c3.219-2,6.522-3.82,9.843-5.579,3.338-1.77,6.715-3.432,10.091-5.081,3.412-1.614,6.82-3.2,10.283-4.692,2.758-1.193,5.551-2.351,8.384-3.4.657-.25,1.31-.486,1.978-.72.047-.021.106-.04.153-.061" transform="translate(88.294 46.482)" fill="#fff"/>
        <path id="Trazado_640186" data-name="Trazado 640186" d="M415.2,210.6c-2.979-2.335-5.832-4.821-8.623-7.338s-5.527-5.114-8.245-7.721c-2.684-2.644-5.354-5.3-7.936-8.041-2.11-2.221-4.185-4.48-6.175-6.823-.433-.5-.853-1-1.272-1.5-.037-.035-.058-.082-.095-.116a.648.648,0,0,0,.128.092c.556.448,1.1.882,1.642,1.329,2.348,1.9,4.611,3.89,6.856,5.9,2.8,2.521,5.527,5.114,8.229,7.732,2.684,2.644,5.352,5.3,7.936,8.042,2.6,2.73,5.147,5.508,7.556,8.436" transform="translate(100.792 47.141)" fill="#fff"/>
      </g>
    </g>
    <path id="Trazado_640187" data-name="Trazado 640187" d="M100.6,337.541l25.422,116.7,40.76-5.04-14.6-118.039Z" transform="translate(26.484 87.183)" fill="#ffc727"/>
    <path id="Trazado_640188" data-name="Trazado 640188" d="M100.607,337.54l9.682,44.52,15.742,72.2,40.763-5.042-14.6-118.055Z" transform="translate(26.486 87.183)" fill="#ffc727"/>
    <g id="Grupo_882876" data-name="Grupo 882876">
      <g id="Grupo_882875" data-name="Grupo 882875" clip-path="url(#clip-path)">
        <g id="Grupo_882871" data-name="Grupo 882871" transform="translate(127.093 418.343)" opacity="0.2">
          <g id="Grupo_882870" data-name="Grupo 882870">
            <g id="Grupo_882869" data-name="Grupo 882869" clip-path="url(#clip-path-4)">
              <path id="Trazado_640189" data-name="Trazado 640189" d="M100.607,337.54l9.682,44.52,15.742,72.2,40.763-5.042-14.6-118.055Z" transform="translate(-100.607 -331.161)" fill="#ffb338"/>
            </g>
          </g>
        </g>
        <g id="Grupo_882874" data-name="Grupo 882874" transform="translate(127.093 418.343)" opacity="0.1">
          <g id="Grupo_882873" data-name="Grupo 882873">
            <g id="Grupo_882872" data-name="Grupo 882872" clip-path="url(#clip-path-5)">
              <path id="Trazado_640190" data-name="Trazado 640190" d="M100.607,337.54l6.383,29.352,49.649.226-4.448-35.958Z" transform="translate(-100.607 -331.161)"/>
            </g>
          </g>
        </g>
      </g>
    </g>
    <rect id="Rectángulo_330787" data-name="Rectángulo 330787" width="64.667" height="49.123" transform="translate(118.178 394.629) rotate(-7.05)" fill="#ffb338"/>
    <g id="Grupo_882881" data-name="Grupo 882881" transform="translate(13.969)">
      <g id="Grupo_882880" data-name="Grupo 882880" clip-path="url(#clip-path)">
        <g id="Grupo_882879" data-name="Grupo 882879" transform="translate(104.209 386.693)" opacity="0.2">
          <g id="Grupo_882878" data-name="Grupo 882878">
            <g id="Grupo_882877" data-name="Grupo 882877" clip-path="url(#clip-path-7)">
              <rect id="Rectángulo_330788" data-name="Rectángulo 330788" width="64.667" height="49.123" transform="translate(0.001 7.937) rotate(-7.05)"/>
            </g>
          </g>
        </g>
      </g>
    </g>
    <path id="Trazado_640191" data-name="Trazado 640191" d="M59.567,319.184,110.036,318l-9.757-78.891L51.043,250.256Z" transform="translate(13.438 62.949)" fill="#ffc727"/>
    <g id="Grupo_882886" data-name="Grupo 882886">
      <g id="Grupo_882885" data-name="Grupo 882885" clip-path="url(#clip-path)">
        <g id="Grupo_882884" data-name="Grupo 882884" transform="translate(64.48 302.058)" opacity="0.2">
          <g id="Grupo_882883" data-name="Grupo 882883">
            <g id="Grupo_882882" data-name="Grupo 882882" clip-path="url(#clip-path-9)">
              <path id="Trazado_640192" data-name="Trazado 640192" d="M59.567,319.184,110.036,318l-9.757-78.891L51.043,250.256Z" transform="translate(-51.042 -239.109)" fill="#ffb338"/>
            </g>
          </g>
        </g>
      </g>
    </g>
    <path id="Trazado_640193" data-name="Trazado 640193" d="M108.786,248.408l14.4,116.422,84.889-.327L411.415,412,376.836,132.409,191.2,228.043Z" transform="translate(28.64 34.858)" fill="#ffc727"/>
    <g id="Grupo_882909" data-name="Grupo 882909">
      <g id="Grupo_882908" data-name="Grupo 882908" clip-path="url(#clip-path)">
        <g id="Grupo_882889" data-name="Grupo 882889" transform="translate(137.425 167.267)" opacity="0.2">
          <g id="Grupo_882888" data-name="Grupo 882888">
            <g id="Grupo_882887" data-name="Grupo 882887" clip-path="url(#clip-path-11)">
              <path id="Trazado_640194" data-name="Trazado 640194" d="M108.786,248.408l14.4,116.422,84.889-.327L411.415,412,376.836,132.409,191.2,228.043Z" transform="translate(-108.786 -132.409)" fill="#ffb338"/>
            </g>
          </g>
        </g>
        <g id="Grupo_882892" data-name="Grupo 882892" transform="translate(148.137 369.801)" opacity="0.1">
          <g id="Grupo_882891" data-name="Grupo 882891">
            <g id="Grupo_882890" data-name="Grupo 882890" clip-path="url(#clip-path-12)">
              <path id="Trazado_640195" data-name="Trazado 640195" d="M409.188,369.807,205.852,322.3l-84.894.328-3.693-29.891c25.091,2.405,90.961,8.7,92.305,9.152,1.617.553,199.617,67.921,199.617,67.921" transform="translate(-117.265 -292.735)"/>
            </g>
          </g>
        </g>
        <path id="Trazado_640196" data-name="Trazado 640196" d="M303.174,277.521c9.6,77.592,37.593,137.99,62.534,134.905s37.379-68.484,27.782-146.075S355.9,128.36,330.956,131.445s-37.379,68.485-27.782,146.076" transform="translate(78.962 34.575)" fill="#ffb338"/>
        <g id="Grupo_882895" data-name="Grupo 882895" transform="translate(389.263 178.999)" opacity="0.2">
          <g id="Grupo_882894" data-name="Grupo 882894">
            <g id="Grupo_882893" data-name="Grupo 882893" clip-path="url(#clip-path-13)">
              <path id="Trazado_640197" data-name="Trazado 640197" d="M311.24,271.074c8.518,68.881,31.978,122.673,52.4,120.148S393.7,330.81,385.185,261.928s-31.978-122.672-52.4-120.146S302.72,202.194,311.24,271.074" transform="translate(-308.141 -141.696)"/>
            </g>
          </g>
        </g>
        <path id="Trazado_640198" data-name="Trazado 640198" d="M315.909,251.565c1.134,9.174,2.542,18.068,4.178,26.6a28.1,28.1,0,0,0,42.8-27.292l-1.631-13.187a28.082,28.082,0,0,0-47.965-16.219c.462,9.685,1.343,19.78,2.62,30.1" transform="translate(82.478 56.076)" fill="#ffc727"/>
        <g id="Grupo_882898" data-name="Grupo 882898" transform="translate(395.767 269.08)" opacity="0.2">
          <g id="Grupo_882897" data-name="Grupo 882897">
            <g id="Grupo_882896" data-name="Grupo 882896" clip-path="url(#clip-path-14)">
              <path id="Trazado_640199" data-name="Trazado 640199" d="M315.909,251.565c1.134,9.174,2.542,18.068,4.178,26.6a28.1,28.1,0,0,0,42.8-27.292l-1.631-13.187a28.082,28.082,0,0,0-47.965-16.219c.462,9.685,1.343,19.78,2.62,30.1" transform="translate(-313.289 -213.004)" fill="#fff"/>
            </g>
          </g>
        </g>
        <path id="Trazado_640200" data-name="Trazado 640200" d="M88.533,358.187l97.6-2.29L167.262,203.334,72.046,224.89Z" transform="translate(18.967 53.53)" fill="#ffb338"/>
        <g id="Grupo_882901" data-name="Grupo 882901" transform="translate(91.013 256.864)" opacity="0.1">
          <g id="Grupo_882900" data-name="Grupo 882900">
            <g id="Grupo_882899" data-name="Grupo 882899" clip-path="url(#clip-path-15)">
              <path id="Trazado_640201" data-name="Trazado 640201" d="M88.533,358.187l97.6-2.29L167.262,203.334,72.046,224.89Z" transform="translate(-72.046 -203.334)"/>
            </g>
          </g>
        </g>
        <g id="Grupo_882904" data-name="Grupo 882904" transform="translate(377.66 177.107)" opacity="0.2">
          <g id="Grupo_882903" data-name="Grupo 882903">
            <g id="Grupo_882902" data-name="Grupo 882902" clip-path="url(#clip-path-16)">
              <path id="Trazado_640202" data-name="Trazado 640202" d="M317.247,140.2c-6.606,9.538-9.953,20.9-12.713,32.073a218.463,218.463,0,0,0-4.865,34.352c-.523,5.769-.513,11.561-.714,17.346.119,5.781.068,11.572.327,17.347.356,5.769.5,11.559,1.03,17.316.553,5.752.97,11.522,1.636,17.263,2.784,22.932,6.863,45.81,13.792,67.926a197.556,197.556,0,0,0,13.086,32.144c5.577,10.071,12.031,20.1,21.348,27.05-8.81-7.509-14.851-17.562-19.9-27.788a197.271,197.271,0,0,1-12.095-32.149,402.424,402.424,0,0,1-12.943-67.567c-2.695-22.8-4.166-45.815-3.033-68.74a219.373,219.373,0,0,1,3.91-34.159c2.217-11.209,5.186-22.51,11.136-32.413" transform="translate(-298.956 -140.198)"/>
            </g>
          </g>
        </g>
        <path id="Trazado_640203" data-name="Trazado 640203" d="M235.387,152.378c-2.714,14.837-22.141,18.039-25.12,14.855-12.049-12.883-24.838-37.911-38.7-65.839-10.836-21.834-3.866-22.528,5.558-16.7,21.916,13.55,59.72,59.712,58.262,67.684" transform="translate(43.721 21.477)" fill="#2b95f9"/>
        <g id="Grupo_882907" data-name="Grupo 882907" transform="translate(209.881 103.71)" opacity="0.1">
          <g id="Grupo_882906" data-name="Grupo 882906">
            <g id="Grupo_882905" data-name="Grupo 882905" clip-path="url(#clip-path-17)">
              <path id="Trazado_640204" data-name="Trazado 640204" d="M235.369,152.245c-2.712,14.833-22.139,18.037-25.119,14.852-12.049-12.881-24.837-37.913-38.7-65.84-5.248-10.577-6.536-17.2-4.471-19.16l68.013,67.2a6.858,6.858,0,0,1,.277,2.95" transform="translate(-166.142 -82.097)"/>
            </g>
          </g>
        </g>
        <path id="Trazado_640205" data-name="Trazado 640205" d="M194.912,150.486c-2.683-9.418,5.187-23.613,23.446-57.871,2.527-4.741,40.744,7.938,38.306,13.139-3.071,6.551-19.078,31.112-22.2,34.458-15.3,16.382-37.73,16.662-39.549,10.274" transform="translate(51.178 24.108)" fill="#eb9481"/>
        <path id="Trazado_640206" data-name="Trazado 640206" d="M237.643,124.717s13.56-5.2,22.269-9.022c4.857-2.13,12.861-6.527,15.714-9.725,4.267-4.783,19.06-27.514,13.626-31.219C284.333,71.4,274.1,92.539,274.1,92.539s12.208-20.422,5.543-23.372S264.6,91.642,264.6,91.642s12.073-21.263,4.718-23.218c-5.558-1.477-14.447,21.123-14.447,21.123s10.25-18.349,4.6-20.114c-6.243-1.95-15.757,18.4-15.757,18.4-15.117-2.069-26.808,5-31.009,12.471-.815,1.448,24.938,24.416,24.938,24.416" transform="translate(55.992 17.995)" fill="#eb9481"/>
        <path id="Trazado_640207" data-name="Trazado 640207" d="M258.774,97.577c10.14-14.356,10.715-24.5,10.646-24.237-1.651,6.295-6.192,15.225-7.5,17.7s-1.938,4.02-3.242,6.491c-.033.063.058.1.1.047" transform="translate(68.099 19.306)" fill="#263238"/>
        <path id="Trazado_640208" data-name="Trazado 640208" d="M251.2,93.646a59.8,59.8,0,0,0,9.824-18.766c.066-.267-.059-.227-.182.019-1.577,3.192-8,15.609-9.72,18.709-.027.049.043.08.077.038" transform="translate(66.109 19.665)" fill="#263238"/>
        <path id="Trazado_640209" data-name="Trazado 640209" d="M244.531,90.811a44.387,44.387,0,0,0,7.178-14.752c.08-.26-.117-.2-.235.053-2.294,4.949-4.058,8.848-7.1,14.6-.048.088.093.2.159.1" transform="translate(64.332 19.979)" fill="#263238"/>
        <path id="Trazado_640210" data-name="Trazado 640210" d="M248.793,121.422l-40.614-19.48S189,140.892,193.461,149.505c1.992,3.849,8.972,13.825,16.8,14.1,18.005.622,38.532-42.179,38.532-42.179" transform="translate(50.754 26.838)" fill="#2b95f9"/>
        <path id="Trazado_640211" data-name="Trazado 640211" d="M203.122,110.007c4.492,2.366,9.1,4.488,13.713,6.6s9.229,4.232,13.9,6.227c2.636,1.127,5.268,2.27,7.941,3.3.069.028.13-.083.061-.12-4.483-2.364-9.088-4.509-13.68-6.645s-9.232-4.237-13.874-6.287c-2.625-1.158-5.269-2.269-7.942-3.3-.131-.052-.245.158-.114.227" transform="translate(53.459 28.899)" fill="#263238"/>
        <path id="Trazado_640212" data-name="Trazado 640212" d="M207.749,102.008c-.4-.279-.96-.622-1.008-.526-1.268,2.528-2.366,5.346-3.413,7.971-1.035,2.592-2.01,5.207-2.947,7.836-.5,1.415-.982,2.839-1.412,4.271a15.972,15.972,0,0,0-2.62,5.39c-.025.1.141.149.173.051a19.793,19.793,0,0,1,2.278-4.86,36.548,36.548,0,0,0-1.662,10.8c0,.024.035.019.037,0,.054-5.467,2.391-10.759,4.209-15.821.912-2.538,1.876-5.054,2.859-7.564s2.055-4.973,3-7.489c0,0,.432.216.524.251s.057-.258-.018-.311" transform="translate(51.69 26.712)" fill="#263238"/>
        <path id="Trazado_640213" data-name="Trazado 640213" d="M171.774,83.1c7.631,4.6,21.071,24.853,27.548,48.9a207.538,207.538,0,0,1,3.9,20.4c3.837,25.111,8.877,53.271,9.36,62.64.646,12.492-21.126,34.183-31.843,31.482s-28.351,1.938-9.579-69.269c4.934-18.717,10.424-59.735,4.2-82.241C172.536,84.8,171.774,83.1,171.774,83.1" transform="translate(42.886 21.878)" fill="#2b95f9"/>
        <path id="Trazado_640214" data-name="Trazado 640214" d="M276.837,356.6c-3.5-.744-87.245-50.057-89.251-53.956-.768-1.474,5.7-14.089,13.954-29.111,1.781-3.244,3.641-6.583,5.55-9.963,12.357-21.961,25.982-44.973,25.982-44.973l56.115,32.825-27.528,44.07-6.035,9.679s23.617,33.221,25.358,37.734c1.723,4.5-.643,14.44-4.145,13.7" transform="translate(49.368 57.549)" fill="#eb9481"/>
        <path id="Trazado_640215" data-name="Trazado 640215" d="M276.832,344.065c-3.5-.74-87.238-50.049-89.245-53.948-.677-1.3,4.275-11.265,11.107-23.907l.011,0c3.259,4.979,51.877,47.053,67.991,51.061,6.59,1.64-3.619-13.994-4.055-14.658l.03.027c7.1,10.174,17.2,24.842,18.307,27.736,1.722,4.5-.635,14.439-4.147,13.691" transform="translate(49.369 70.083)" fill="#263238"/>
        <path id="Trazado_640216" data-name="Trazado 640216" d="M252.19,296.7s-7.309-6.46-21.359-.784" transform="translate(60.769 77.288)" fill="#263238"/>
        <path id="Trazado_640217" data-name="Trazado 640217" d="M343.532,200.527c-5.27,26.15-59.891,113.447-59.891,113.447l-59.893-36.208L264,215.055s-82.067,9.85-113.349-3.3c-33.4-14.036-28.536-54.04-28.536-54.04l81.3-9.668s2.149,7.649,11.285,6.942c31.489-2.449,74.423-1.254,90.954.537,21.324,2.329,42.717,21.007,37.883,45" transform="translate(32.082 38.976)" fill="#37474f"/>
        <path id="Trazado_640218" data-name="Trazado 640218" d="M253.482,183.76a63.329,63.329,0,0,0-5.31,5.931c-1.823,2.082-3.672,4.14-5.493,6.224l-.053.062c.34-.623.675-1.251,1.026-1.867,1.2-2.113,2.2-4.314,3.59-6.319a.116.116,0,0,0-.189-.134c-1.422,1.988-3.044,3.858-4.29,5.969q-.879,1.489-1.674,3.024c-.288.561-.584,1.123-.848,1.7a8.406,8.406,0,0,0-.365.825c-.817.968-1.627,1.943-2.417,2.935-1.752,2.2-3.325,4.549-5.095,6.732-.095.116.092.244.188.133,1.781-2.044,3.751-3.927,5.556-5.954,1.837-2.063,3.593-4.193,5.328-6.34,1.7-2.1,3.359-4.214,5.051-6.313a65.988,65.988,0,0,0,5.12-6.488c.049-.08-.049-.184-.126-.116" transform="translate(61.166 48.371)" fill="#263238"/>
        <path id="Trazado_640219" data-name="Trazado 640219" d="M263.732,275.14c-1.558-1.189-3.236-2.273-4.864-3.378q-2.414-1.637-4.843-3.255c-3.316-2.2-6.678-4.344-10.032-6.5-6.731-4.317-13.526-8.549-20.315-12.787-3.8-2.375-7.658-4.675-11.481-7.022-.069-.043-.164.075-.1.123q9.762,6.7,19.64,13.244,10.018,6.6,20.244,12.914,2.842,1.749,5.726,3.435c1.945,1.141,3.883,2.345,5.9,3.377.091.047.2-.088.12-.153" transform="translate(55.833 63.76)" fill="#263238"/>
        <path id="Trazado_640220" data-name="Trazado 640220" d="M130.942,157.69a41.9,41.9,0,0,0,9.185,29.495,40.8,40.8,0,0,0,12.173,9.847c4.577,2.58,9.778,3.806,14.927,4.831a198.967,198.967,0,0,0,31.513,2.793c10.565.192,21.141-.141,31.676-.939a250.213,250.213,0,0,0,31.392-4.113c2.581-.539,5.149-1.137,7.683-1.847,1.267-.356,2.525-.736,3.77-1.156a19.66,19.66,0,0,1,3.893-1.138,5.242,5.242,0,0,1,2.177.1,2.4,2.4,0,0,1,1.664,1.67,3.683,3.683,0,0,1,.129,1.128,3.21,3.21,0,0,1-.265,1.118c-.254.649-.548,1.248-.851,1.847-1.229,2.372-2.581,4.65-3.939,6.926-11.017,18.1-22.811,35.685-34.63,53.249q8.652-13.314,17.149-26.724c5.677-8.93,11.352-17.868,16.727-26.972,1.332-2.28,2.658-4.57,3.842-6.909.288-.585.579-1.175.8-1.76a2.281,2.281,0,0,0,.2-.8,2.7,2.7,0,0,0-.092-.835c-.237-1.062-1.566-1.258-2.782-1.073a18.891,18.891,0,0,0-3.7,1.108c-1.262.43-2.535.819-3.815,1.184-2.561.725-5.148,1.337-7.745,1.887a249.374,249.374,0,0,1-31.52,4.231c-10.575.766-21.181,1.066-31.782.839a190.065,190.065,0,0,1-31.657-2.975c-5.178-1.085-10.44-2.376-15.1-5.058a41.112,41.112,0,0,1-12.254-10.123,39.731,39.731,0,0,1-7.235-14.1,43.26,43.26,0,0,1-1.53-15.736" transform="translate(34.426 41.514)" fill="#263238"/>
        <path id="Trazado_640221" data-name="Trazado 640221" d="M212.632,362.511c-3.271-1.457-74.91-67.125-76.061-71.357-.445-1.6,8.512-12.594,19.709-25.567,2.418-2.8,4.932-5.68,7.5-8.59,16.66-18.906,34.778-38.579,34.778-38.579l48.049,43.79-36.1,37.374-7.918,8.21s16.184,37.41,16.945,42.187c.748,4.761-3.634,13.989-6.9,12.533" transform="translate(35.95 57.501)" fill="#eb9481"/>
        <path id="Trazado_640222" data-name="Trazado 640222" d="M212.628,351.739c-3.267-1.452-74.906-67.115-76.056-71.347-.392-1.417,6.526-10.128,15.84-21.071h.011c2.151,5.548,40.944,56.823,55.87,64.1,6.1,2.976-.627-14.442-.913-15.181l.023.033c4.826,11.43,11.647,27.879,12.131,30.94.749,4.757-3.628,13.991-6.906,12.528" transform="translate(35.95 68.27)" fill="#263238"/>
        <path id="Trazado_640223" data-name="Trazado 640223" d="M197.463,300.4s-5.8-7.841-20.728-5.215" transform="translate(46.528 77.569)" fill="#263238"/>
        <path id="Trazado_640224" data-name="Trazado 640224" d="M307.513,206.173c-5.269,26.15-75.456,97.909-83.561,106.136l-1.847,1.873L171.121,269.2l.673-.757,38.668-42.578s-59.546,20.154-85.053-16.65c-10.147-14.641-2.817-51.954-2.817-51.954l65.311-7.492s1.11,11.177,10.246,10.47c31.489-2.451,56.246-4.775,72.777-2.984,21.324,2.329,41.421,24.924,36.587,48.916" transform="translate(31.6 39.429)" fill="#37474f"/>
        <path id="Trazado_640225" data-name="Trazado 640225" d="M183.276,158.7c20.253-1.934,40.56-3.612,60.949-3.581,2.549.021,5.1.088,7.65.244a49.5,49.5,0,0,1,7.642.968,24.27,24.27,0,0,1,3.681,1.251q1.785.726,3.509,1.588a51.808,51.808,0,0,1,6.622,3.925A46.841,46.841,0,0,1,284.4,173.743a39.333,39.333,0,0,1,6.579,13.9,39.924,39.924,0,0,1,1.1,7.648c.053.643.039,1.287.049,1.932s0,1.292-.043,1.948a28.015,28.015,0,0,1-.584,3.849,60.222,60.222,0,0,1-5.71,14.26,190.012,190.012,0,0,1-16.92,25.461c-6.214,8.074-12.768,15.874-19.506,23.5-6.766,7.606-13.729,15.03-20.788,22.357,6.924-7.454,13.749-15,20.37-22.722,6.646-7.7,13.117-15.548,19.229-23.666,6.066-8.139,11.954-16.46,16.7-25.414a59.288,59.288,0,0,0,5.563-14.013,26.991,26.991,0,0,0,.548-3.689,35.68,35.68,0,0,0-.02-3.747,39.336,39.336,0,0,0-1.086-7.433,38.228,38.228,0,0,0-6.352-13.53,45.816,45.816,0,0,0-10.788-10.45,51.027,51.027,0,0,0-6.482-3.871c-1.123-.57-2.271-1.09-3.435-1.569a23.211,23.211,0,0,0-3.531-1.215,50.285,50.285,0,0,0-7.48-.978c-2.525-.179-5.061-.272-7.6-.32-10.155-.169-20.327.232-30.483.739s-20.313,1.156-30.455,1.974" transform="translate(48.25 40.836)" fill="#263238"/>
        <path id="Trazado_640226" data-name="Trazado 640226" d="M212.667,190.072A63.331,63.331,0,0,0,207.358,196c-1.823,2.082-3.672,4.14-5.493,6.224l-.053.062c.34-.623.675-1.249,1.026-1.867,1.2-2.113,2.2-4.314,3.59-6.319a.116.116,0,0,0-.189-.134c-1.422,1.988-3.044,3.859-4.29,5.969q-.879,1.489-1.674,3.024c-.288.561-.584,1.123-.848,1.7a8.54,8.54,0,0,0-.365.825c-.817.968-1.627,1.943-2.417,2.935-1.752,2.2-3.325,4.549-5.095,6.732-.095.116.092.244.188.133,1.781-2.044,3.751-3.927,5.556-5.954,1.837-2.063,3.593-4.193,5.33-6.34,1.694-2.094,3.358-4.214,5.049-6.313a66,66,0,0,0,5.12-6.488c.049-.08-.049-.184-.126-.116" transform="translate(50.421 50.033)" fill="#263238"/>
        <path id="Trazado_640227" data-name="Trazado 640227" d="M215.445,279.113c-1.335-1.434-2.807-2.786-4.227-4.149q-2.1-2.02-4.226-4.024c-2.9-2.73-5.851-5.407-8.8-8.092-5.907-5.388-11.892-10.7-17.871-16.023-3.349-2.981-6.762-5.9-10.135-8.854-.062-.054-.176.045-.115.1,5.663,5.5,11.354,10.963,17.131,16.361q8.764,8.186,17.782,16.136,2.507,2.2,5.067,4.349c1.724,1.453,3.432,2.965,5.246,4.322.082.062.216-.053.144-.13" transform="translate(44.77 62.645)" fill="#263238"/>
        <path id="Trazado_640228" data-name="Trazado 640228" d="M129.419,158.551a66.091,66.091,0,0,0-1.249,17.371,46.352,46.352,0,0,0,4.04,16.806A30.736,30.736,0,0,0,143.394,205.6c4.826,3.181,10.544,4.658,16.263,5.363a89.256,89.256,0,0,0,17.361.157,163.712,163.712,0,0,0,17.264-2.356,251.737,251.737,0,0,0,33.748-8.777l.418-.14.186.365a12.481,12.481,0,0,1,1.235,4.468,14.576,14.576,0,0,1-.274,4.577,17.437,17.437,0,0,1-1.58,4.29,32.564,32.564,0,0,1-2.592,3.711c-3.714,4.669-7.7,9.073-11.7,13.47s-8.076,8.713-12.192,13-8.248,8.546-12.415,12.777q6.115-6.477,12.14-13.036t11.968-13.187c3.936-4.437,7.873-8.891,11.5-13.561a31.9,31.9,0,0,0,2.463-3.61,17.24,17.24,0,0,0,1.462-4.051,13.03,13.03,0,0,0-.886-8.344l.6.225a249.27,249.27,0,0,1-33.877,8.938,164.809,164.809,0,0,1-17.389,2.3,90.275,90.275,0,0,1-17.563-.23c-5.8-.719-11.686-2.285-16.609-5.63a31.513,31.513,0,0,1-11.307-13.314,45.257,45.257,0,0,1-3.807-17.064,66.227,66.227,0,0,1,1.608-17.39" transform="translate(33.635 41.741)" fill="#263238"/>
        <path id="Trazado_640229" data-name="Trazado 640229" d="M155.569,157.938c-.6,3.071-1.379,6.11-2.236,9.121a21.81,21.81,0,0,1-3.386,7.66,17.308,17.308,0,0,1-6.324,4.666,39.155,39.155,0,0,1-4.3,1.724,31.185,31.185,0,0,0-4.4,1.6.308.308,0,0,0,.112.577,20.223,20.223,0,0,0,4.909-.691,28.986,28.986,0,0,0,4.567-1.416,17.083,17.083,0,0,0,6.9-5.134c1.894-2.41,2.682-5.375,3.354-8.311a50.485,50.485,0,0,0,1.205-9.761.2.2,0,0,0-.406-.032" transform="translate(35.478 41.532)" fill="#263238"/>
        <path id="Trazado_640230" data-name="Trazado 640230" d="M121.088,178.22l86.042-3.013-6.35-32.213s7.121-9.308,5.364-19.068c-1.924-10.7-22.247-37.25-23.931-38.728-6.767-5.923-12.85-8.12-18.507-3.948-19.7,14.53-42.617,96.969-42.617,96.969" transform="translate(31.878 20.823)" fill="#2b95f9"/>
        <path id="Trazado_640231" data-name="Trazado 640231" d="M179.761,127.092A78.428,78.428,0,0,0,168.4,129.38c-1.844.544-3.651,1.17-5.455,1.834-.9.332-1.8.634-2.712.931a12.263,12.263,0,0,1-2.924.661.069.069,0,0,0,.008.138,21.242,21.242,0,0,0,2.834-.153,20.2,20.2,0,0,0,2.684-.606c1.876-.533,3.725-1.153,5.6-1.707,3.773-1.114,7.544-2.228,11.39-3.07.177-.038.121-.34-.059-.316" transform="translate(41.397 33.458)" fill="#263238"/>
        <path id="Trazado_640232" data-name="Trazado 640232" d="M186.677,129.571a84.744,84.744,0,0,0-9.563-.121c-1.6.076-3.173.244-4.756.454q-1.133.152-2.261.339c-.827.135-1.638.382-2.467.505-.086.013-.082.149.008.138.784-.092,1.589-.056,2.379-.1s1.587-.1,2.38-.148c1.588-.095,3.177-.173,4.765-.283,3.178-.221,6.345-.408,9.53-.519.172-.005.15-.25-.014-.262" transform="translate(44.115 34.057)" fill="#263238"/>
        <path id="Trazado_640233" data-name="Trazado 640233" d="M154.331,91.8c-21.285,26.6-45.587,80.181-38.66,89.673,7.716,10.571,37.329-26.689,36.959-28.623-.279-1.46,7.841-33.24,14.117-56.4,6.271-23.134-7.153-11.232-12.417-4.654" transform="translate(30.135 21.806)" fill="#eb9481"/>
        <path id="Trazado_640234" data-name="Trazado 640234" d="M154.377,153.03c.63-3.37,11.836-45.333,14.89-58.546,2.741-11.861-.011-16.28-8.9-8.1-16.366,15.066-47.036,58.988-51.094,80.341-3.91,20.57,13.25,20.23,26.023,9.48,10.457-8.8,19.08-23.178,19.08-23.178" transform="translate(28.618 21.642)" fill="#2b95f9"/>
        <path id="Trazado_640235" data-name="Trazado 640235" d="M143.733,152.39q5.141-23.807,12.134-47.166-5.133,23.811-12.134,47.166" transform="translate(37.84 27.702)" fill="#263238"/>
        <path id="Trazado_640236" data-name="Trazado 640236" d="M151.611,113.675a12.083,12.083,0,0,1,2.893-5.739,9.8,9.8,0,0,1-2.893,5.739" transform="translate(39.914 28.416)" fill="#263238"/>
        <rect id="Rectángulo_330800" data-name="Rectángulo 330800" width="87.9" height="4.221" transform="translate(228.067 193.632)" fill="#455a64"/>
        <rect id="Rectángulo_330801" data-name="Rectángulo 330801" width="41.157" height="4.221" transform="translate(228.067 193.632)" fill="#a6a6a6"/>
        <path id="Trazado_640237" data-name="Trazado 640237" d="M211.727,169.6h91.718l12.96-62.293H224.686Z" transform="translate(55.74 28.25)" fill="#a6a6a6"/>
        <path id="Trazado_640238" data-name="Trazado 640238" d="M215.019,169.6h91.718l12.96-62.293H227.978Z" transform="translate(56.607 28.25)" fill="#c7c7c7"/>
        <path id="Trazado_640239" data-name="Trazado 640239" d="M251.619,134.337a5.4,5.4,0,0,0,5.47,6.113,6.956,6.956,0,0,0,6.756-6.113,5.4,5.4,0,0,0-5.47-6.113,6.956,6.956,0,0,0-6.756,6.113" transform="translate(66.233 33.757)" fill="#ebebeb"/>
        <path id="Trazado_640240" data-name="Trazado 640240" d="M115.674,168.47c7.907,5.316,22.3,1.348,59.495-5.24,5.147-.911,8.484-38.96,2.938-38.269-6.985.87-33.9,5.76-35.827,6.367-16.223,5.114-31.968,33.537-26.606,37.142" transform="translate(30.171 32.895)" fill="#eb9481"/>
        <path id="Trazado_640241" data-name="Trazado 640241" d="M161.156,129.027s12.943-7.208,20.915-8.89c10.676-2.252,20.819.2,25.008,1.482,8.744,2.679,28.032,15.2,25.4,21.388-2.389,5.6-21.458-8.2-21.458-8.2s21.765,10.859,17.65,17.072-25.341-11.064-25.341-11.064,22.112,11.659,16.856,17.394c-3.972,4.334-24.078-10.23-24.078-10.23s18.936,10.153,15.043,14.786c-4.3,5.12-23.7-7.159-23.7-7.159-11.88,10.111-21.671,10.066-28.633,9.205-1.685-.208,2.347-35.787,2.347-35.787" transform="translate(41.7 31.386)" fill="#eb9481"/>
        <path id="Trazado_640242" data-name="Trazado 640242" d="M194.3,128.206c2.6,1.182,5.245,2.362,7.734,3.773s4.931,2.908,7.276,4.544a48.842,48.842,0,0,1,8.523,7.233c-4.89-4.511-13.72-9.7-16.21-11.108s-4.9-2.941-7.38-4.351c-.063-.035-.005-.12.057-.092" transform="translate(51.13 33.751)" fill="#263238"/>
        <path id="Trazado_640243" data-name="Trazado 640243" d="M190.135,135.247c3.258,1.655,6.553,3.177,9.74,4.976,3.17,1.79,6.021,3.767,9.06,5.771.234.154.073.229-.168.083-3.115-1.881-6.142-3.379-9.28-5.222s-6.206-3.811-9.4-5.533c-.051-.027,0-.1.045-.075" transform="translate(50.038 35.604)" fill="#263238"/>
        <path id="Trazado_640244" data-name="Trazado 640244" d="M185.489,140.648A81.717,81.717,0,0,1,199.8,149.4c.225.163.008.238-.232.085-4.7-3-8.369-5.383-14.157-8.655-.091-.052-.028-.226.08-.178" transform="translate(48.8 37.025)" fill="#263238"/>
        <path id="Trazado_640245" data-name="Trazado 640245" d="M171.444,122.73l-15.307,53.224s-38.053.668-44.217-5.812c-4.406-4.632,12.755-32.02,30.539-38.264Z" transform="translate(29.281 32.31)" fill="#2b95f9"/>
        <path id="Trazado_640246" data-name="Trazado 640246" d="M121.43,144.779c1.674-3.32,8.133-11.078,18.356-14.836.09-.033.163.1.075.145-7.345,3.536-16.422,11.718-18.306,14.776-.049.081-.167,0-.125-.086" transform="translate(31.966 34.208)" fill="#263238"/>
        <path id="Trazado_640247" data-name="Trazado 640247" d="M140.753,167.24c1.07-5.244,2.419-10.426,3.782-15.6s2.719-10.366,4.212-15.514c.844-2.908,1.67-5.822,2.615-8.7.025-.076.157-.053.14.028-1.066,5.235-2.4,10.43-3.722,15.606s-2.715,10.371-4.147,15.537c-.81,2.918-1.673,5.821-2.616,8.7-.047.143-.3.1-.264-.053" transform="translate(37.054 33.533)" fill="#263238"/>
        <path id="Trazado_640248" data-name="Trazado 640248" d="M165.257,122.38a46.187,46.187,0,0,0-6.043,1.563c-2,.6-3.984,1.234-5.964,1.885-3.939,1.3-12.433,3.594-19.14,7.083-.075.038.493.2.563.16,3.109-1.825,28.382-9.108,30.333-9.947a3.3,3.3,0,0,0-.005.488c.009.112.164.184.229.067.154-.28.22-.566.351-.854a.3.3,0,0,0-.325-.445" transform="translate(35.305 32.217)" fill="#263238"/>
        <path id="Trazado_640249" data-name="Trazado 640249" d="M156.941,157.72c-.788,3.129-1.635,6.241-2.519,9.341-3.056.049-6.108-.019-9.16-.1-8.893-.3-17.869-.692-26.6-2.549,10.029,1.187,25.3,1.534,35.518,2.011l-.311.226q1.469-4.483,3.068-8.929" transform="translate(31.24 41.522)" fill="#263238"/>
        <path id="Trazado_640250" data-name="Trazado 640250" d="M156.328,90.427c.457,1.6,8.685,11.709,16.049,11,2.4-.237,1.691-13.4,1.691-13.4l.171-.983L176.6,73.273,160.12,63.805l-2.376-1.244s-.4,3.81-.849,8.559c-.021.22-.044.44-.064.676-.033.268-.066.52-.085.772-.077.709-.152,1.433-.211,2.155-.047.55-.1,1.084-.125,1.662-.044.581-.075,1.145-.119,1.726a90.091,90.091,0,0,0,.037,12.317" transform="translate(41.1 16.47)" fill="#eb9481"/>
        <path id="Trazado_640251" data-name="Trazado 640251" d="M156.733,71.12a28,28,0,0,0,17.343,15.922l2.365-13.768-16.484-9.468-2.375-1.244s-.4,3.81-.849,8.559" transform="translate(41.262 16.47)" fill="#263238"/>
        <path id="Trazado_640252" data-name="Trazado 640252" d="M159.2,62.349c-5.577-.2-18.658,6.147-21.963,14.141s-.8,19.5,1.786,20.191,12.625-2.043,18.921-7.189,4-27.043,1.256-27.142" transform="translate(35.715 16.413)" fill="#263238"/>
        <path id="Trazado_640253" data-name="Trazado 640253" d="M159.753,62.442c.172-.071.139-.373-.069-.34-4.711.742-9.445,3.243-13.679,5.349-3.416,1.7-6.892,3.612-9.358,6.6a12.8,12.8,0,0,0-2.84,10.335c.609,4.164,2.113,9.055,4.814,12.348.08.095.28.028.216-.107-3.59-7.418-7.228-16.618-.438-23.363,5.764-5.728,14.1-7.8,21.354-10.822" transform="translate(35.185 16.349)" fill="#263238"/>
        <path id="Trazado_640254" data-name="Trazado 640254" d="M141.884,87.8c-4.579,1.463-15.124,12.61-15.533,21.9s9.231,21.134,11.7,21.669,11.266-9.907,13.493-16.8c1.488-4.606-1.189-9.169-3.1-13.844-2.823-6.9-5.848-13.154-6.559-12.927" transform="translate(33.26 23.114)" fill="#263238"/>
        <path id="Trazado_640255" data-name="Trazado 640255" d="M151.559,112.921c-.269-9.337-7.06-17.386-11.656-25.023-.049-.081-.187-.015-.149.073,3.154,7.556,9.185,13.756,10.821,21.963.971,4.871.149,9.976-3.327,13.709-3.014,3.235-7.179,5.224-10.96,7.4-.25.144,0,.505.245.37,7.583-4.112,15.3-8.853,15.027-18.489" transform="translate(35.852 23.131)" fill="#263238"/>
        <path id="Trazado_640256" data-name="Trazado 640256" d="M141.4,88.694c.214-.158-.011-.5-.23-.345-6.088,4.373-13.268,10.447-15.6,17.85-2.525,8.02,2.75,14.967,7.394,20.939.058.075.182-.005.124-.082-4.617-6.079-9.722-13.739-6.632-21.667,2.657-6.819,9.222-12.461,14.943-16.694" transform="translate(32.886 23.249)" fill="#263238"/>
        <path id="Trazado_640257" data-name="Trazado 640257" d="M137.791,122.024c3.322,1.331,8.46,6.311,10.125,12.569,2.849,10.712,6.745,8.175,18.907,9.932,10.278,1.484,13.488,12.524,8.662,18.588,0,0,2.446-7.227-4.649-9.976-8.478-3.284-26.166,6.985-36.484-3.565-13.353-13.647,3.439-27.548,3.439-27.548" transform="translate(34.012 32.124)" fill="#263238"/>
        <path id="Trazado_640258" data-name="Trazado 640258" d="M139.771,125.745c-.145-.136.083-.392.236-.262a16.045,16.045,0,0,1,3.723,4.42c1.238,2.207,1.523,4.694,2.6,6.958,2.735,5.763,9.92,4.866,15.181,4.738,7.052-.172,13.095,3.567,14.232,10.9a.084.084,0,0,1-.165.028,12.526,12.526,0,0,0-8.442-9.866c-4.26-1.338-8.791.016-13.138-.6-2.975-.423-5.987-1.382-7.606-4.087a24.778,24.778,0,0,1-1.781-4.861,17.445,17.445,0,0,0-4.836-7.367" transform="translate(36.784 33.026)" fill="#263238"/>
        <path id="Trazado_640259" data-name="Trazado 640259" d="M136.324,123.211c.059-.058.163.034.109.1-3.593,4.3-7.419,8.631-8.013,14.468-.639,6.281,3.129,12.15,8.329,15.409,5.822,3.651,11.448,1.1,17.394-.658,4.3-1.273,8.723-2.22,13.168-1.133.136.033.083.256-.054.239-7.081-.945-13.225,1.724-19.927,3.475-5.475,1.43-10.032-.083-14.022-4.059-8.8-8.768-5.008-20.107,3.017-27.84" transform="translate(33.765 32.432)" fill="#263238"/>
        <path id="Trazado_640260" data-name="Trazado 640260" d="M150.985,59.156c-1.834-1.618-4.312,1.263-2.475,2.884s4.311-1.263,2.475-2.884" transform="translate(38.927 15.448)" fill="#ffc727"/>
        <path id="Trazado_640261" data-name="Trazado 640261" d="M152.589,61.449c-1.833-1.618-4.31,1.263-2.473,2.883s4.31-1.262,2.473-2.883" transform="translate(39.35 16.051)" fill="#ffc727"/>
        <path id="Trazado_640262" data-name="Trazado 640262" d="M154.583,63.449c-1.834-1.618-4.31,1.262-2.473,2.883s4.31-1.262,2.473-2.883" transform="translate(39.875 16.578)" fill="#ffc727"/>
        <path id="Trazado_640263" data-name="Trazado 640263" d="M156.763,65.122c-1.834-1.618-4.312,1.263-2.475,2.884s4.312-1.263,2.475-2.884" transform="translate(40.448 17.018)" fill="#ffc727"/>
        <path id="Trazado_640264" data-name="Trazado 640264" d="M159.252,66.423c-1.834-1.617-4.31,1.263-2.473,2.885s4.31-1.263,2.473-2.885" transform="translate(41.104 17.361)" fill="#ffc727"/>
        <path id="Trazado_640265" data-name="Trazado 640265" d="M161.835,67.229c-1.834-1.618-4.312,1.262-2.473,2.884s4.31-1.263,2.473-2.884" transform="translate(41.784 17.573)" fill="#ffc727"/>
        <path id="Trazado_640266" data-name="Trazado 640266" d="M194.287,56.57c5.912,23.792-7.653,30.027-12.778,31.3-4.654,1.155-20.643,4.493-28.979-18.56s.844-33.329,11.345-36.532,24.5,0,30.412,23.795" transform="translate(39.303 8.355)" fill="#eb9481"/>
        <path id="Trazado_640267" data-name="Trazado 640267" d="M156.31,71.4c4.934-1.5,1.86-12.914,1.86-12.914s7.912-4,9.721-10.7c0,0-.882,5.6-3.571,8.588-.452.5,16.046-6.171,13.859-19.677,0,0,6.241,12.139,14.761,12.514.407.018-4.205-9.384-8.282-12.429a37.9,37.9,0,0,0-5.642-3.756,25.334,25.334,0,0,0-19.173.579c-10,4.567-13.636,17.538-13.119,22.275,1.018,9.314,7.244,16.237,9.586,15.524" transform="translate(38.615 8.268)" fill="#263238"/>
        <path id="Trazado_640268" data-name="Trazado 640268" d="M161.173,55.666c9.15-3.108,14.805-11.182,12.822-20.888a.217.217,0,0,1,.411-.12c4.051,9.25-4.286,19.329-13.269,21.2-.217.045-.178-.116.037-.189" transform="translate(42.383 9.092)" fill="#263238"/>
        <path id="Trazado_640269" data-name="Trazado 640269" d="M154.214,65.713c4.272-4.045,3.6-9.33,2.486-14.57-.033-.154.224-.235.27-.08,1.542,5.009,2.418,11.441-2.452,15.02a.24.24,0,0,1-.3-.37" transform="translate(40.577 13.421)" fill="#263238"/>
        <path id="Trazado_640270" data-name="Trazado 640270" d="M171.227,34.031a.051.051,0,0,1,.1-.029c2.673,4.986,5.51,13.886,12.7,13.248a.148.148,0,0,1,.045.292c-6.848,1.228-11.963-7.806-12.844-13.511" transform="translate(45.078 8.944)" fill="#263238"/>
        <path id="Trazado_640271" data-name="Trazado 640271" d="M180.092,49.639a15.579,15.579,0,0,1-1.683.02,2.722,2.722,0,0,1-1.721-.307.868.868,0,0,1-.229-1.033,2.149,2.149,0,0,1,1.958-.951,3.154,3.154,0,0,1,2.178.658.924.924,0,0,1-.5,1.613" transform="translate(46.434 12.469)" fill="#263238"/>
        <path id="Trazado_640272" data-name="Trazado 640272" d="M166.674,52.7A15.768,15.768,0,0,0,168.2,52a2.717,2.717,0,0,0,1.426-1.009.867.867,0,0,0-.232-1.032,2.147,2.147,0,0,0-2.177-.028,3.159,3.159,0,0,0-1.692,1.521.925.925,0,0,0,1.143,1.247" transform="translate(43.552 13.069)" fill="#263238"/>
        <path id="Trazado_640273" data-name="Trazado 640273" d="M170.582,56.016c-.028-.058-.107.107-.088.173.45,1.6.7,3.5-.627,4.4-.042.028-.016.107.035.086,1.715-.691,1.362-3.216.68-4.658" transform="translate(44.714 14.744)" fill="#263238"/>
        <path id="Trazado_640274" data-name="Trazado 640274" d="M169.28,54.968c-2.639.446-1.554,5.69.892,5.277,2.405-.407,1.32-5.651-.892-5.277" transform="translate(44.162 14.466)" fill="#263238"/>
        <path id="Trazado_640275" data-name="Trazado 640275" d="M168.838,55.362c-.4.392-.736,1.008-1.278,1.177-.625.195-1.222-.254-1.748-.7-.054-.045-.09.01-.077.08.193,1.008.793,1.958,1.9,1.885,1.011-.066,1.532-1.1,1.574-2.164.008-.2-.212-.44-.371-.282" transform="translate(43.631 14.561)" fill="#263238"/>
        <path id="Trazado_640276" data-name="Trazado 640276" d="M177.508,54.215c0-.064.143.052.154.119.272,1.637.859,3.466,2.438,3.714.048.008.061.091,0,.093-1.846.1-2.6-2.332-2.6-3.926" transform="translate(46.731 14.268)" fill="#263238"/>
        <path id="Trazado_640277" data-name="Trazado 640277" d="M178.623,52.651c2.577-.719,3.826,4.488,1.439,5.154-2.351.656-3.6-4.552-1.439-5.154" transform="translate(46.731 13.843)" fill="#263238"/>
        <path id="Trazado_640278" data-name="Trazado 640278" d="M179.361,52.9c.478.177,1,.581,1.5.5.579-.1.864-.763,1.1-1.39.024-.066.076-.032.095.037.265.989.184,2.1-.725,2.524-.83.384-1.676-.316-2.151-1.251-.088-.173-.014-.488.178-.416" transform="translate(47.163 13.681)" fill="#263238"/>
        <path id="Trazado_640279" data-name="Trazado 640279" d="M172.9,66.425c.454.321.93.787,1.532.742a4.405,4.405,0,0,0,1.694-.694.058.058,0,0,1,.085.072,2.234,2.234,0,0,1-1.937,1.222,1.763,1.763,0,0,1-1.52-1.242c-.042-.091.078-.147.145-.1" transform="translate(45.478 17.483)" fill="#263238"/>
        <path id="Trazado_640280" data-name="Trazado 640280" d="M178.538,63.356a6.77,6.77,0,0,1-2.028,2.762,3.041,3.041,0,0,1-1.746.618c-1.383.029-1.752-1.142-1.8-2.218a7.3,7.3,0,0,1,.135-1.71,8.763,8.763,0,0,0,5.442.55" transform="translate(45.532 16.535)" fill="#263238"/>
        <path id="Trazado_640281" data-name="Trazado 640281" d="M176.508,65.773a3.041,3.041,0,0,1-1.746.618c-1.382.029-1.751-1.142-1.8-2.218a3.143,3.143,0,0,1,3.548,1.6" transform="translate(45.534 16.879)" fill="#ff9cbd"/>
        <path id="Trazado_640282" data-name="Trazado 640282" d="M178.322,63.868s.864,2.347,1.115,3.489c.023.106-.243.217-.625.326-.016.009-.025.019-.044.01a5.555,5.555,0,0,1-5.715-.872c-.1-.093.016-.244.135-.195a8.382,8.382,0,0,0,5.267.333c.013-.333-1.614-3.97-1.436-4.023a10.134,10.134,0,0,1,2.72.019c-1.66-4.941-4.1-9.576-5.677-14.52a.159.159,0,0,1,.282-.139c2.9,4.677,4.936,10.321,6.78,15.379.236.628-2.3.287-2.8.192" transform="translate(45.548 12.697)" fill="#263238"/>
        <path id="Trazado_640283" data-name="Trazado 640283" d="M157.767,63.046s-6.477-6.719-9.6-4.29S150.742,71.51,155,72.371a4.143,4.143,0,0,0,5.131-3.072Z" transform="translate(38.77 15.329)" fill="#eb9481"/>
        <path id="Trazado_640284" data-name="Trazado 640284" d="M149.34,60.958a.056.056,0,0,0,0,.111c3,.7,4.9,3.077,6.369,5.627-1-.911-2.237-1.3-3.477-.081-.064.064.024.168.1.139a2.541,2.541,0,0,1,2.907.438,12.315,12.315,0,0,1,1.681,2.031c.172.232.606.025.464-.25-.01-.021-.023-.042-.033-.062-.5-3.612-4.092-8.2-8.009-7.953" transform="translate(39.303 16.045)" fill="#263238"/>
      </g>
    </g>
    <g id="Grupo_882923" data-name="Grupo 882923">
      <g id="Grupo_882922" data-name="Grupo 882922" clip-path="url(#clip-path)">
        <path id="Trazado_640285" data-name="Trazado 640285" d="M103.328,264.339l-1.521-.005.008-.947,1.513.005q1.747,0,3.528-.028l.015.947q-1.791.027-3.543.028m-7.85-.143q-2.573-.1-5.058-.254l.059-.946q2.471.157,5.034.253Zm17.719-.071-.039-.947q2.486-.1,5.035-.264l.059.945q-2.558.161-5.056.267m-29.09-.695c-1.719-.171-3.413-.364-5.035-.576l.124-.94c1.612.212,3.3.4,5.006.574Zm40.456-.044-.081-.945q2.482-.212,5.02-.483l.1.942q-2.547.269-5.039.485m11.323-1.217-.121-.94q2.477-.316,5-.681l.135.937q-2.53.366-5.014.683M72.807,261.9c-1.689-.293-3.364-.619-4.977-.965l.2-.927c1.6.345,3.264.668,4.942.96Zm74.343-1.386-.155-.935q2.465-.409,4.972-.864l.168.932q-2.513.457-4.985.867m-85.483-1.078c-1.67-.457-3.306-.95-4.862-1.464l.3-.9c1.54.509,3.159,1,4.814,1.449Zm96.68-.98-.187-.93q2.452-.493,4.939-1.033l.2.926q-2.5.542-4.953,1.037m11.12-2.434-.217-.922q2.437-.572,4.9-1.191l.231.92q-2.477.62-4.918,1.194m-118.613-.27c-1.616-.68-3.167-1.4-4.611-2.151l.435-.841c1.422.735,2.951,1.449,4.544,2.118Zm129.651-2.513-.245-.915q2.418-.65,4.865-1.34l.258.911q-2.452.694-4.877,1.344M40.775,250.332a35.546,35.546,0,0,1-3.989-3.2l.648-.691a34.592,34.592,0,0,0,3.883,3.115Zm150.681-.2-.272-.907q2.4-.72,4.824-1.482l.283.9q-2.429.764-4.836,1.484m10.854-3.425-.3-.9q2.38-.786,4.781-1.614l.31.9q-2.408.83-4.794,1.618m10.758-3.72-.322-.891q2.359-.853,4.739-1.741l.332.887q-2.386.892-4.749,1.745m-180.393-.777a17.174,17.174,0,0,1-2.057-4.74l.917-.236a16.217,16.217,0,0,0,1.945,4.478Zm191.046-3.221-.344-.884q2.336-.91,4.693-1.86l.354.879q-2.361.951-4.7,1.865m10.551-4.269-.365-.873q2.316-.968,4.646-1.974l.374.869q-2.335,1.008-4.655,1.978M31.226,231.156l-.939-.126a23.249,23.249,0,0,1,1.28-4.963l.888.33a22.332,22.332,0,0,0-1.229,4.76m213.49-.959-.388-.865.835-.374q1.882-.847,3.754-1.723l.4.859q-1.88.877-3.767,1.728Zm10.307-4.851-.421-.849q2.261-1.12,4.506-2.281l.436.841q-2.253,1.165-4.521,2.289M35.195,220.82l-.812-.488c.829-1.378,1.789-2.8,2.855-4.227l.758.568c-1.046,1.4-1.988,2.8-2.8,4.146m229.944-.731-.451-.832q2.219-1.207,4.418-2.448l.466.825q-2.206,1.245-4.433,2.456m9.913-5.622-.481-.816q2.173-1.283,4.327-2.6l.494.809q-2.16,1.317-4.339,2.6M41.985,211.825l-.706-.633c1.081-1.206,2.257-2.448,3.5-3.691l.671.67c-1.227,1.23-2.391,2.46-3.461,3.655m242.773-3.3-.509-.8q2.132-1.351,4.238-2.729l.518.793q-2.111,1.381-4.247,2.736M50.014,203.832l-.634-.7c1.222-1.1,2.509-2.225,3.826-3.334l.611.725c-1.31,1.1-2.59,2.217-3.8,3.312m244.243-1.544-.531-.784q2.086-1.412,4.149-2.849l.541.778q-2.067,1.438-4.159,2.855M58.715,196.543l-.585-.745q1.976-1.55,4.031-3.08l.566.76q-2.043,1.522-4.012,3.065m244.866-.763-.552-.769q2.056-1.478,4.082-2.972l.562.763q-2.031,1.5-4.092,2.979m-235.741-6L67.3,189q2.062-1.453,4.17-2.88l.532.785q-2.1,1.421-4.157,2.87m244.9-.764-.572-.755q2.018-1.531,4-3.076l.582.748q-1.993,1.548-4.015,3.084M77.264,183.424l-.514-.8q2.136-1.379,4.288-2.722l.5.8q-2.145,1.34-4.275,2.716m244.458-1.411-.591-.74q1.982-1.582,3.93-3.173l.6.734q-1.954,1.594-3.939,3.18m-234.793-4.6-.488-.814q2.187-1.309,4.365-2.575l.476.82q-2.172,1.26-4.353,2.568m243.6-2.61-.606-.728q1.946-1.63,3.857-3.262l.615.72q-1.916,1.635-3.866,3.269M96.774,171.719l-.462-.827q2.242-1.251,4.44-2.441l.451.832q-2.191,1.188-4.429,2.436m242.41-4.322-.624-.714q1.912-1.673,3.786-3.345l.632.707q-1.878,1.675-3.794,3.351m-232.4-1.074-.436-.841q2.3-1.194,4.514-2.3l.424.846q-2.2,1.107-4.5,2.3m10.181-5.078-.409-.855q2.386-1.137,4.6-2.144l.392.862q-2.2,1-4.581,2.137m230.7-1.438-.638-.7q1.882-1.715,3.718-3.422l.644.695q-1.838,1.709-3.724,3.428m-220.337-3.231-.365-.875c1.451-.606,2.806-1.15,4.05-1.625l.339.886c-1.235.472-2.582,1.011-4.023,1.614m228.675-4.53-.654-.687Q357.2,149.6,359,147.865l.659.681q-1.8,1.741-3.653,3.5m8.178-7.922-.667-.675q1.823-1.8,3.583-3.565l.671.668q-1.764,1.772-3.586,3.571m8.027-8.076-.678-.662q1.793-1.836,3.516-3.632l.683.656q-1.726,1.8-3.521,3.638m7.88-8.225-.69-.649q1.762-1.878,3.446-3.7l.7.644q-1.686,1.821-3.453,3.7m7.73-8.372-.7-.635q1.743-1.925,3.378-3.761l.707.63q-1.637,1.836-3.382,3.766m7.568-8.516-.714-.623q1.73-1.986,3.307-3.826l.72.616q-1.578,1.842-3.314,3.833m7.408-8.669-.728-.608q1.755-2.1,3.228-3.9l.733.6q-1.474,1.8-3.233,3.906m7.214-8.842-.743-.589c2.045-2.578,3.118-4,3.12-4.007l.757.57s-1.076,1.433-3.134,4.026" transform="translate(7.973 23.386)" fill="#263238"/>
        <path id="Trazado_640286" data-name="Trazado 640286" d="M335.891,75.426l-3.617,29.034,16.817-20.691,71.8-46.347Z" transform="translate(87.476 9.852)" fill="#2b95f9"/>
        <path id="Trazado_640288" data-name="Trazado 640288" d="M353.151,79.751,332.274,94.8,349.091,74.11Z" transform="translate(87.476 19.51)" fill="#2b95f9"/>
        <g id="Grupo_882915" data-name="Grupo 882915" transform="translate(419.75 93.62)" opacity="0.3">
          <g id="Grupo_882914" data-name="Grupo 882914" transform="translate(0 0)">
            <g id="Grupo_882913" data-name="Grupo 882913" clip-path="url(#clip-path-19)">
              <path id="Trazado_640289" data-name="Trazado 640289" d="M353.151,79.751,332.274,94.8,349.091,74.11Z" transform="translate(-332.274 -74.11)" fill="#fff"/>
            </g>
          </g>
        </g>
        <path id="Trazado_640290" data-name="Trazado 640290" d="M345.587,83.769l71.8-46.347-49.869,77.4Z" transform="translate(90.98 9.852)" fill="#2b95f9"/>
        <path id="Trazado_640292" data-name="Trazado 640292" d="M342.923,75.426l-37.36-13.554,122.364-24.45Z" transform="translate(80.444 9.852)" fill="#2b95f9"/>
        <g id="Grupo_882928" data-name="Grupo 882928" transform="translate(386.357 47.273)">
          <g id="Grupo_882912" data-name="Grupo 882912" transform="translate(33.743)" opacity="0.4">
            <g id="Grupo_882911" data-name="Grupo 882911">
              <g id="Grupo_882910" data-name="Grupo 882910" clip-path="url(#clip-path-20)">
                <path id="Trazado_640287" data-name="Trazado 640287" d="M335.891,75.426l-3.617,29.034,16.817-20.691,71.8-46.347Z" transform="translate(-332.274 -37.422)" fill="#fff"/>
              </g>
            </g>
          </g>
          <g id="Grupo_882918" data-name="Grupo 882918" transform="translate(50.561)" opacity="0.7">
            <g id="Grupo_882917" data-name="Grupo 882917">
              <g id="Grupo_882916" data-name="Grupo 882916" clip-path="url(#clip-path-21)">
                <path id="Trazado_640291" data-name="Trazado 640291" d="M345.587,83.769l71.8-46.347-49.869,77.4Z" transform="translate(-345.587 -37.422)" fill="#fff"/>
              </g>
            </g>
          </g>
          <g id="Grupo_882921" data-name="Grupo 882921" opacity="0.7">
            <g id="Grupo_882920" data-name="Grupo 882920">
              <g id="Grupo_882919" data-name="Grupo 882919" clip-path="url(#clip-path-22)">
                <path id="Trazado_640293" data-name="Trazado 640293" d="M342.923,75.426l-37.36-13.554,122.364-24.45Z" transform="translate(-305.563 -37.422)" fill="#fff"/>
              </g>
            </g>
          </g>
        </g>
      </g>
    </g>
    <g id="Grupo_882925" data-name="Grupo 882925">
      <g id="Grupo_882924" data-name="Grupo 882924" clip-path="url(#clip-path)">
        <path id="Trazado_640294" data-name="Trazado 640294" d="M87.712,34.835a34.616,34.616,0,0,0,55.26,27.8l16.964,4.33-7.063-15.8A34.629,34.629,0,1,0,87.712,34.835" transform="translate(23.091 0.054)" fill="#fff"/>
        <path id="Trazado_640295" data-name="Trazado 640295" d="M87.712,34.889C88.257,63.762,119.948,79,143.083,62.252l16.99,4.231-.643.763-7.111-15.773-.123-.27c10.688-19.24-.162-44.21-21.523-49.534-21.407-5.832-43.08,11.079-42.961,33.22m0,0c.09-29.474,34.466-45.605,57.227-26.837,12.568,10.172,16.43,29.3,8.47,43.46l.019-.536,7.014,15.817.469,1.055-1.112-.291-16.938-4.433c-21.685,16.436-54.965.988-55.149-28.236" transform="translate(23.091 0)" fill="#263238"/>
        <path id="Trazado_640296" data-name="Trazado 640296" d="M113.97,53.016,98.451,37.307l5.215-5.15,9.065,9.175,18.834-29.526,6.18,3.941Z" transform="translate(25.919 3.108)" fill="#fd4c1b"/>
      </g>
    </g>
  </g>
</svg>
