<svg xmlns="http://www.w3.org/2000/svg" width="103.574" height="116.776" viewBox="0 0 103.574 116.776">
  <g id="Grupo_882935" data-name="Grupo 882935" transform="translate(-28.947 0)">
    <g id="Grupo_882933" data-name="Grupo 882933" transform="translate(31.228 1.286)">
      <path id="Trazado_640297" data-name="Trazado 640297" d="M137.414,187.692v3.9a4.889,4.889,0,0,0,9.722.417c.368-4.283,8.958-.737,12.648-7.126a10.687,10.687,0,0,0,11.421-2.667,8.906,8.906,0,0,0,3.277.618,8.326,8.326,0,0,0,8.536-8.1,7.711,7.711,0,0,0-.292-2.1,7.756,7.756,0,0,0,2.611-5.773,7.919,7.919,0,0,0-4.445-7.029,6.167,6.167,0,0,0,.641-2.74,6.651,6.651,0,0,0-6.82-6.469,6.993,6.993,0,0,0-4.74,1.819,6.528,6.528,0,0,0-4.26-1.555,6.66,6.66,0,0,0-2.076.329,6.345,6.345,0,0,0-6-4.026,6.549,6.549,0,0,0-3.882,1.256,8.7,8.7,0,0,0-6.045-2.4,8.469,8.469,0,0,0-8.041,5.463,6.614,6.614,0,0,0-2.815-.623,6.2,6.2,0,0,0-6.356,6.029,5.744,5.744,0,0,0,.35,1.977,7.781,7.781,0,0,0-4.8,7.089,7.6,7.6,0,0,0,2.667,5.745,12.11,12.11,0,0,0-.626,3.849A12.863,12.863,0,0,0,137.414,187.692Z" transform="translate(-106.186 -114.029)" fill="#febbac" fill-rule="evenodd"/>
      <circle id="Elipse_6950" data-name="Elipse 6950" cx="6.841" cy="6.841" r="6.841" transform="matrix(0.987, -0.16, 0.16, 0.987, 41.653, 2.189)" fill="#ffc144"/>
      <circle id="Elipse_6951" data-name="Elipse 6951" cx="6.841" cy="6.841" r="6.841" transform="translate(0 25.628)" fill="#60a4ff"/>
      <circle id="Elipse_6952" data-name="Elipse 6952" cx="6.841" cy="6.841" r="6.841" transform="translate(0 74.894)" fill="#88df8e"/>
      <circle id="Elipse_6953" data-name="Elipse 6953" cx="6.841" cy="6.841" r="6.841" transform="translate(40.596 110.096) rotate(-67.486)" fill="#ffc144"/>
      <circle id="Elipse_6954" data-name="Elipse 6954" cx="6.841" cy="6.841" r="6.841" transform="translate(83.272 85.45) rotate(-67.486)" fill="#60a4ff"/>
      <circle id="Elipse_6955" data-name="Elipse 6955" cx="6.841" cy="6.841" r="6.841" transform="translate(85.33 25.628)" fill="#88df8e"/>
    </g>
    <g id="Grupo_882934" data-name="Grupo 882934" transform="translate(28.947 0)">
      <path id="Trazado_640298" data-name="Trazado 640298" d="M125.679,74.188v-31.6a9.12,9.12,0,1,0-8.785-15.221l-27.372-15.8a9.122,9.122,0,1,0-17.579,0l-4.814,2.78a2.28,2.28,0,0,0,2.28,3.95l4.819-2.782a9.154,9.154,0,0,0,13.009,0l27.371,15.8a9.18,9.18,0,0,0,6.509,11.274v31.6a9.18,9.18,0,0,0-6.509,11.274l-27.371,15.8a9.154,9.154,0,0,0-13.009,0l-27.371-15.8a9.18,9.18,0,0,0-6.509-11.274v-31.6a9.18,9.18,0,0,0,6.509-11.274l4.776-2.758a2.28,2.28,0,1,0-2.28-3.95l-4.781,2.76a9.12,9.12,0,1,0-8.785,15.221v31.6A9.12,9.12,0,1,0,44.573,89.41l27.371,15.8a9.122,9.122,0,1,0,17.579,0l27.372-15.8a9.12,9.12,0,1,0,8.785-15.221Zm-44.946-60.5a4.561,4.561,0,1,1,4.561-4.561A4.566,4.566,0,0,1,80.734,13.683ZM33.508,33.756a4.561,4.561,0,1,1,4.561,4.561A4.566,4.566,0,0,1,33.508,33.756Zm4.561,53.826a4.561,4.561,0,1,1,4.561-4.561A4.566,4.566,0,0,1,38.069,87.582Zm42.665,24.633a4.561,4.561,0,1,1,4.561-4.561A4.566,4.566,0,0,1,80.734,112.215Zm38.1-78.459a4.561,4.561,0,1,1,4.561,4.561A4.566,4.566,0,0,1,118.838,33.756ZM123.4,87.582a4.561,4.561,0,1,1,4.561-4.561A4.566,4.566,0,0,1,123.4,87.582Z" transform="translate(-28.947 0)"/>
      <path id="Trazado_640299" data-name="Trazado 640299" d="M116.046,158.313a9.849,9.849,0,0,0,2.4,6.406,14.984,14.984,0,0,0,8.969,16.937v2.269c.337,8.786,13.11,9.3,14.275.612v-.015a10.57,10.57,0,0,1,2.553-.6c2.528-.411,6.186-1.007,8.757-4.075a13.164,13.164,0,0,0,11.1-2.716c7.164,1.869,14.5-4.2,13.386-11.447A10.018,10.018,0,0,0,175.9,151.2c1.626-7.611-7.129-13.21-13.711-9.215a8.943,8.943,0,0,0-5.062-1.008,8.909,8.909,0,0,0-10.875-2.957c-4.88-3.506-12.435-2.011-15.486,3.064-5.481-1.1-10.865,3.494-10.231,8.964a9.982,9.982,0,0,0-4.493,8.262Zm7.927-4.968.063-.026a6.348,6.348,0,0,1,2.5-.515,2.28,2.28,0,0,0,0-4.561,11.014,11.014,0,0,0-1.353.083,4.2,4.2,0,0,1,5.8-2.421,2.28,2.28,0,0,0,3.116-1.3c1.431-4.125,7.247-5.273,10.358-2.188l.023.022a5.537,5.537,0,0,1,1.722,3.988,2.28,2.28,0,0,0,4.561,0,9.954,9.954,0,0,0-1.13-4.62,4.1,4.1,0,0,1,4.146,2.53,2.281,2.281,0,0,0,2.848,1.373,4.354,4.354,0,0,1,4.141.79l.02.016,0,0a3.628,3.628,0,0,1,1.277,2.723,2.28,2.28,0,0,0,4.561,0,8.066,8.066,0,0,0-.972-3.828c3.54-1.06,7.125,2.354,5.47,5.735a2.28,2.28,0,0,0,1.014,3.043,5.565,5.565,0,0,1,3.025,6.34,10.521,10.521,0,0,0-.8-.847A2.28,2.28,0,1,0,171.227,163a5.741,5.741,0,0,1,1.583,2.59l.016.055c1.3,4.756-3.988,8.642-8.5,6.785a2.28,2.28,0,0,0-2.536.6,8.375,8.375,0,0,1-8.945,2.044,2.281,2.281,0,0,0-2.751,1c-1.449,2.509-3.941,2.915-6.579,3.344a13.939,13.939,0,0,0-3.658.926,4.436,4.436,0,0,0-2.706,3.779,2.615,2.615,0,0,1-5.172-.2v-3.9a2.28,2.28,0,0,0-1.689-2.2c-5.438-1.427-9.031-7.69-7.128-13.038a2.28,2.28,0,0,0-.667-2.444A5.331,5.331,0,0,1,123.973,153.345Z" transform="translate(-96.184 -105.074)"/>
      <path id="Trazado_640300" data-name="Trazado 640300" d="M185.472,245.972c1.645-1.616,4.925-.638,4.94,1.8a2.28,2.28,0,0,0,4.561,0,7.082,7.082,0,0,0-2.219-5.108,7.662,7.662,0,0,0-10.42,0A2.28,2.28,0,0,0,185.472,245.972Z" transform="translate(-146.799 -185.749)"/>
      <path id="Trazado_640301" data-name="Trazado 640301" d="M274.5,223.225a2.914,2.914,0,0,1,2.775,0,2.35,2.35,0,0,1,1.268,2.442,2.28,2.28,0,0,0,4.5.754,6.942,6.942,0,0,0-3.575-7.2,7.516,7.516,0,0,0-7.157,0,2.281,2.281,0,0,0,2.191,4Z" transform="translate(-215.898 -168.533)"/>
      <path id="Trazado_640302" data-name="Trazado 640302" d="M154.735,88.622a2.28,2.28,0,0,0,0-4.561h0A2.28,2.28,0,0,0,154.735,88.622Z" transform="translate(-124.299 -64.892)"/>
    </g>
  </g>
</svg>
