<svg id="Grupo_882063" data-name="Grupo 882063" xmlns="http://www.w3.org/2000/svg" xmlns:xlink="http://www.w3.org/1999/xlink" width="375.979" height="402.682" viewBox="0 0 375.979 402.682">
  <defs>
    <clipPath id="clip-path">
      <rect id="Rectángulo_330285" data-name="Rectángulo 330285" width="375.979" height="402.682" fill="none"/>
    </clipPath>
    <clipPath id="clip-path-6">
      <rect id="Rectángulo_330277" data-name="Rectángulo 330277" width="115.719" height="299.943" fill="none"/>
    </clipPath>
    <clipPath id="clip-path-7">
      <rect id="Rectángulo_330278" data-name="Rectángulo 330278" width="105.537" height="281.729" fill="none"/>
    </clipPath>
    <clipPath id="clip-path-9">
      <rect id="Rectángulo_330280" data-name="Rectángulo 330280" width="14.53" height="17.316" fill="none"/>
    </clipPath>
    <clipPath id="clip-path-11">
      <rect id="Rectángulo_330282" data-name="Rectángulo 330282" width="25.981" height="27.806" fill="none"/>
    </clipPath>
    <clipPath id="clip-path-12">
      <rect id="Rectángulo_330283" data-name="Rectángulo 330283" width="4.035" height="14.951" fill="none"/>
    </clipPath>
  </defs>
  <g id="Grupo_882062" data-name="Grupo 882062" clip-path="url(#clip-path)">
    <g id="Grupo_882036" data-name="Grupo 882036">
      <g id="Grupo_882035" data-name="Grupo 882035" clip-path="url(#clip-path)">
        <path id="Trazado_636920" data-name="Trazado 636920" d="M399.567,141.795H296.355s10.233-27.952,25.983-27.952,20.682,19.294,20.682,19.294,10.626-10.483,19.354-10.483,16.319,13.852,16.319,13.852,12.334-7.449,20.873,5.289" transform="translate(-23.588 -9.061)" fill="#ebebeb"/>
        <path id="Trazado_636921" data-name="Trazado 636921" d="M341.556,37.944H293.322s10.778-15.615,19.27-15.615,11,10.41,11,10.41,5.992-4.858,11.544-3.991,6.42,9.2,6.42,9.2" transform="translate(-23.346 -1.777)" fill="#ebebeb"/>
        <path id="Trazado_636922" data-name="Trazado 636922" d="M99.863,254.732H51.629s10.778-15.615,19.27-15.615,11,10.41,11,10.41,5.992-4.858,11.544-3.991,6.42,9.2,6.42,9.2" transform="translate(-4.109 -19.032)" fill="#ebebeb"/>
        <path id="Trazado_636923" data-name="Trazado 636923" d="M93.951,132.519H0S12.865,103.8,26.629,102s20.346,21.343,20.346,21.343,8.876-8.179,15.859-8.179S75.2,125.937,75.2,125.937s13.963-7.38,18.751,6.583" transform="translate(0 -8.111)" fill="#ebebeb"/>
        <path id="Trazado_636924" data-name="Trazado 636924" d="M168.334,56.139H104.869s10.9-20.81,22.729-21.114,18.043,15.75,18.043,15.75,18.4-14.764,22.694,5.364" transform="translate(-8.347 -2.787)" fill="#ebebeb"/>
        <path id="Trazado_636925" data-name="Trazado 636925" d="M332.487,272.334H269.022s10.9-20.81,22.729-21.114,18.043,15.75,18.043,15.75,18.4-14.764,22.694,5.364" transform="translate(-21.412 -19.995)" fill="#ebebeb"/>
      </g>
    </g>
    <g id="Grupo_882038" data-name="Grupo 882038">
      <g id="Grupo_882037" data-name="Grupo 882037" clip-path="url(#clip-path)">
        <path id="Trazado_636926" data-name="Trazado 636926" d="M312.845,422.557c0,7.038-53.224,12.743-118.879,12.743S75.087,429.6,75.087,422.557s53.223-12.743,118.879-12.743,118.879,5.706,118.879,12.743" transform="translate(-5.976 -32.618)" fill="#ebebeb"/>
      </g>
    </g>
    <g id="Grupo_882040" data-name="Grupo 882040">
      <g id="Grupo_882039" data-name="Grupo 882039" clip-path="url(#clip-path)">
        <path id="Trazado_636927" data-name="Trazado 636927" d="M129.63,333.57c-4.608.163-9.749.425-13.565-2.563-3.522-2.758-6.667-6.87-6.2-11.591.135-1.346.444-2.177,1.886-1.6,2.2.876,3.893,3.3,5.416,5a46.583,46.583,0,0,0,6.392,6.063c1.638,1.257,3.406,2.344,5.078,3.562q.319.222.627.466c.078.056.16.115.238.178.042,0,.088,0,.132,0a.229.229,0,0,1,.225.178.241.241,0,0,1-.227.3" transform="translate(-8.741 -25.281)" fill="#617a0b"/>
        <path id="Trazado_636928" data-name="Trazado 636928" d="M130.132,333.633c-4.05-.07-8.424.114-11.663-2.635a18.8,18.8,0,0,1-3.762-4.572c-.468-.762-1.873-3.035-1.291-3.939,1.054-1.637,5.88,5.035,6.549,5.674a19.778,19.778,0,0,0,8.946,4.646q.319.222.627.466a22.1,22.1,0,0,1-6.718-2.581c-2.875-1.716-4.475-4.25-6.724-6.619-.486-.514-1.951-2.235-2.5-1.162-.364.706.991,2.931,1.284,3.408a18.688,18.688,0,0,0,3.556,4.343c3.231,2.822,7.583,2.724,11.665,2.891a.215.215,0,0,1,.036.079" transform="translate(-9.016 -25.647)" fill="#fff"/>
        <path id="Trazado_636929" data-name="Trazado 636929" d="M133.646,335.577c-.04.177-.074.353-.11.534,0,.006,0,.009-.007.017a.121.121,0,0,1-.082.094.194.194,0,0,1-.242-.093.14.14,0,0,1,0-.111.714.714,0,0,1,.023-.072l.05-.157a.038.038,0,0,1-.009-.013c0-.017-.01-.036-.013-.052-.817-3.048-1.135-6.219-1.995-9.271-.821-2.911-1.842-5.768-2.434-8.74-.374-1.873-1.676-11.276,2.467-10.1,1.836.52,3.094,3.178,3.791,4.768a19.4,19.4,0,0,1,1.525,6.756c.3,5.733-1.8,10.95-2.961,16.447" transform="translate(-10.214 -24.475)" fill="#37474f"/>
        <path id="Trazado_636930" data-name="Trazado 636930" d="M135.206,324.377a22.526,22.526,0,0,0-.665-6.379c-.185-.722-1.085-4.18-2.257-4.093-.758.05-.886,1.543-.95,2.035-.265,2.094.414,4.229.821,6.265a86.437,86.437,0,0,1,1.521,12.559c-.035.264-.078.536-.107.8-.036.222-.057.444-.086.665-.007.079-.021.15-.029.229-.007.057-.015.114-.022.179a.2.2,0,0,0,.243.093c.022-.172.051-.343.072-.515.007.143.007.278.014.422,0-.007.007-.007.007-.015.029-.15.057-.293.086-.435.007-.036.015-.064.022-.1,0-.236-.007-.471-.015-.7a94,94,0,0,0,1.343-11.008m-1.4,9.494c-.114-2.465-.357-4.922-.707-7.365-.279-1.972-.651-3.922-1.065-5.865a20.187,20.187,0,0,1-.528-3.329c-.036-.858.086-4.03,1.721-2.064,1.179,1.428,1.465,4.465,1.608,6.215a31.879,31.879,0,0,1-.115,5.836c-.221,2.2-.585,4.387-.914,6.573" transform="translate(-10.449 -24.985)" fill="#fff"/>
        <path id="Trazado_636931" data-name="Trazado 636931" d="M135.247,350.559h0a1.052,1.052,0,0,1-.17.02c-4.214-.213-9.827.182-13.332-2.6-2.589-2.06-5.132-6.129-4.314-9.581.931-3.891,6.187.779,7.579,1.9a128.657,128.657,0,0,1,10.325,10.046c.016.028.038.049.053.075l.008.014c.038.068-.052.1-.146.126" transform="translate(-9.334 -26.813)" fill="#617a0b"/>
        <path id="Trazado_636932" data-name="Trazado 636932" d="M135.663,350.78c-.243-.15-.486-.3-.729-.457-2.772-1.743-5.472-3.607-8.066-5.6-.657-.5-5.4-4.722-6.115-3.215-.428.915,1.136,2.772,1.636,3.4a13.014,13.014,0,0,0,3.2,2.858c2.807,1.75,6.215,2.128,9.394,2.971.15.029.3.072.45.115a.531.531,0,0,0,.079.05h.006c.093-.021.179-.057.144-.121m-8.337-2.4a13.074,13.074,0,0,1-3.637-2.458c-.707-.672-3.2-3.193-2.536-4.229.35-.549.643-.257,1.314.072a8.409,8.409,0,0,1,.893.514c.708.464,1.358,1.007,2.015,1.529,1.157.929,2.329,1.822,3.529,2.693,1.958,1.428,3.972,2.771,6.03,4.051-2.528-.779-5.2-1.086-7.608-2.172" transform="translate(-9.605 -27.156)" fill="#fff"/>
        <path id="Trazado_636933" data-name="Trazado 636933" d="M144.511,341.121a24.92,24.92,0,0,1-7.222,12.613.2.2,0,0,1-.079.046.192.192,0,0,1-.216-.08.179.179,0,0,1,.021-.242c.073-.069.142-.144.214-.215.7-5.729,1.467-11.424,2.056-17.169.138-1.353,1.2-9.97,3.845-8.567,1.635.867,1.744,4.4,1.884,5.984a25.091,25.091,0,0,1-.5,7.63" transform="translate(-10.901 -26.055)" fill="#617a0b"/>
        <path id="Trazado_636934" data-name="Trazado 636934" d="M142.984,333.9c-.144-.479-.393-.971-.929-.636-1.029.643-1.436,4.694-1.608,5.815-.707,4.622-1.8,9.066-2.915,13.588-.092.378-.185.764-.278,1.15-.086.114-.171.229-.258.343a.188.188,0,0,0,.214.078c.015-.036.022-.078.036-.114.114-.15.236-.307.343-.464v-.007a29.434,29.434,0,0,0,4.171-8.13,27.91,27.91,0,0,0,1.229-5.665c.2-1.772.529-4.222-.006-5.958m-5.408,19.445c-.05.078-.107.15-.157.228.051-.156.1-.306.144-.464A82.97,82.97,0,0,0,140.14,342.6c.307-1.808.5-3.629.872-5.422.157-.757.529-2.922,1.158-3.272.607-.35.614.493.678.978.043.351.043.987.05,1.315a29.04,29.04,0,0,1-5.322,17.152" transform="translate(-10.904 -26.517)" fill="#fff"/>
        <path id="Trazado_636935" data-name="Trazado 636935" d="M136.053,364.362h-.843c-.014-.743-.029-1.486-.05-2.222-.1-2.993-.222-5.986-.4-8.979-.1-1.707-.221-3.4-.4-5.08a1.341,1.341,0,0,1-.015-.171c-.021-.135-.036-.271-.05-.414s-.036-.293-.057-.443a36.222,36.222,0,0,0-2.894-11c-.536-1.164-1.121-2.3-1.736-3.429-.057-.107-.121-.214-.179-.321a.514.514,0,0,0-.05-.086c-.057-.114-.122-.222-.186-.336-.05-.086-.093-.164-.143-.249-1.95-3.429-4.18-6.708-6.294-10.008-.607-.943-1.215-1.893-1.808-2.843a1.215,1.215,0,0,1-.107-.172,2.011,2.011,0,0,1-.136-.207c-2.657-4.193-5.272-8.423-8.03-12.537-.107-.15.143-.286.243-.136,1.865,2.729,3.794,5.416,5.708,8.115.257.357.507.722.764,1.079.507.715,1.007,1.422,1.508,2.136,1,1.428,1.985,2.858,2.95,4.308a120.952,120.952,0,0,1,7.758,12.552c.165.329.321.657.479.993.1.207.2.414.286.621.114.236.221.479.329.722a38.878,38.878,0,0,1,2.836,13.273c.021.315.043.636.057.957.007.143.022.293.029.443,0,.079.007.157.015.237,0,.1.007.2.014.307v.007c0,.072.007.15.007.228.015.272.021.543.036.822.122,2.993.2,5.986.264,8.973.021.95.057,1.907.093,2.864" transform="translate(-8.966 -24.328)" fill="#3d672f"/>
        <path id="Trazado_636936" data-name="Trazado 636936" d="M110.455,309.319c-2.307-3.1-5.264-9.5-1.864-12.83a3.622,3.622,0,0,1,4.82-.356c1.8,1.3,2.6,3.755,3.184,5.788,1.558,5.428,2.59,10.958,4.537,16.277.034.032.165.455.211.571s-.136.157-.177.05c-.064-.173-.127-.347-.192-.52-3.674-2.665-7.784-5.3-10.518-8.979" transform="translate(-8.52 -23.51)" fill="#617a0b"/>
        <path id="Trazado_636937" data-name="Trazado 636937" d="M121.493,318.617c-.021-.029-.036-.064-.057-.094a37.87,37.87,0,0,1-2.157-4.015,77.093,77.093,0,0,1-3.315-8.886c-.371-1.164-2.029-6.865-4.065-4.594-.857.957-.735,2.65-.6,3.822a14.359,14.359,0,0,0,1.772,5.343,26.159,26.159,0,0,0,7.659,8c.135.107.271.207.407.307.029.05.057.092.086.143a.713.713,0,0,0,.057.092.1.1,0,0,0,.05.044.129.129,0,0,0,.179-.08.092.092,0,0,0-.014-.085m-.9-.63a30.472,30.472,0,0,1-6.493-6.514,16.2,16.2,0,0,1-2.115-4.316,13.019,13.019,0,0,1-.457-2.092,9.128,9.128,0,0,1-.093-1.6c.036-1.171.521-2.449,1.214-2.571.858-.157,1.143.341,1.707,1.327a9.209,9.209,0,0,1,.507,1.03,27.847,27.847,0,0,1,.957,2.7c.479,1.508.965,3.006,1.508,4.492.364,1.007.757,2.007,1.185,2.987a39.883,39.883,0,0,0,2.529,4.914c-.15-.113-.3-.236-.45-.357" transform="translate(-8.851 -23.918)" fill="#fff"/>
        <path id="Trazado_636938" data-name="Trazado 636938" d="M276.95,318.935c-.381,3.075-.969,6.12-1.591,9.153-.349,1.721-.722,3.438-1.069,5.164-.384,1.9-.947,3.831-.434,5.746l.01,0a1.086,1.086,0,0,1,.02.265.122.122,0,0,1-.021.033.231.231,0,0,1-.4-.07c-.013-.044-.021-.086-.033-.128-.01-.013-.022-.027-.031-.04a7.487,7.487,0,0,1-.663-1.6,40.259,40.259,0,0,1-1.528-4.446,38.363,38.363,0,0,1-1.495-9.485,32.421,32.421,0,0,1,.893-8.543c.549-2.235,1.328-5.565,2.992-7.274,1.51-1.544,2.766.931,3.2,2.183.978,2.845.507,6.122.146,9.032" transform="translate(-21.467 -24.453)" fill="#617a0b"/>
        <path id="Trazado_636939" data-name="Trazado 636939" d="M274.3,312.857c-1.122,0-1.936,3.622-2.336,5.186a31.214,31.214,0,0,0-.957,7.544,40.389,40.389,0,0,0,2.322,13.4c.057.171.114.35.179.521.006.015.021.029.029.043.014.036.021.078.035.121a.231.231,0,0,0,.4.072c-.072-.379-.129-.75-.171-1.129-.043-.342-.079-.678-.1-1.014a53.525,53.525,0,0,1,.686-11.095c.543-4.285,1.4-13.644-.086-13.651m-.807,25.468c.057.5.135.993.228,1.479-.114-.357-.228-.714-.335-1.072a44.674,44.674,0,0,1-2.115-11.823,32,32,0,0,1,.493-6.758,29.548,29.548,0,0,1,.872-3.536c.156-.486.971-3.515,1.664-3.365.486.107.6,2.836.607,2.893.029.543.029,1.093.021,1.644-.014,1.128-.093,2.257-.186,3.379-.214,2.435-.564,4.864-.857,7.293a42.264,42.264,0,0,0-.393,9.866" transform="translate(-21.57 -24.901)" fill="#fff"/>
        <path id="Trazado_636940" data-name="Trazado 636940" d="M294.9,328.866c-2.06,4.017-5.527,7.092-9.108,9.729-1.921,1.41-3.9,2.732-5.855,4.1a31.529,31.529,0,0,0-5.056,3.891c-.065.064-.132.134-.193.208a8.183,8.183,0,0,0-1.048,1.447.122.122,0,0,1-.1.062c-.022.061-.041.118-.069.178a.041.041,0,0,1-.079-.017c.006-.064.018-.135.023-.2l0-.017a.128.128,0,0,1-.012-.154.422.422,0,0,1,.037-.064c.007-.064.015-.132.026-.2.586-4.7,3.869-9.439,6.645-13.053,2.761-3.6,6.2-6.809,10.49-8.461,1.079-.413,3.527-1.557,4.623-.68,1,.8.108,2.383-.33,3.233" transform="translate(-21.76 -25.892)" fill="#617a0b"/>
        <path id="Trazado_636941" data-name="Trazado 636941" d="M291.72,329.175c-.979-.978-3.857,1.436-4.579,2a48.018,48.018,0,0,0-5.958,5.794,42.891,42.891,0,0,0-7.608,11.008v.007c-.036.042-.064.086-.1.129-.015.071-.021.135-.029.2a.284.284,0,0,0-.036.064.128.128,0,0,0,.015.157c.05-.058.093-.115.143-.165.357-.443.735-.872,1.121-1.293.064-.071.129-.143.193-.207a92.475,92.475,0,0,1,8.909-7.865,44.386,44.386,0,0,0,5.929-5.765c.45-.543,2.821-3.243,2-4.065m-.9,2.15c-2.429,4.03-6.637,6.972-10.208,9.908a48.656,48.656,0,0,0-6.78,6.436,45.627,45.627,0,0,1,7.037-9.9,61.3,61.3,0,0,1,4.837-4.979,25.108,25.108,0,0,1,2.936-2.35,9.857,9.857,0,0,1,1.985-1.072c1.365-.4.607,1.265.193,1.958" transform="translate(-21.76 -26.182)" fill="#fff"/>
        <path id="Trazado_636942" data-name="Trazado 636942" d="M272,358.322a.248.248,0,0,1-.21.118l.054.073a.071.071,0,0,1-.013.1.066.066,0,0,1-.1,0c-3.806-3.872-7.473-8.576-9.369-13.706a21.239,21.239,0,0,1-1.359-6.754c-.042-1.579-.126-4.76,1.224-5.912,2.721-2.312,5.2,7.5,5.568,8.983.675,2.7,1.118,5.447,1.74,8.157.682,2.966,1.578,5.876,2.47,8.783a.205.205,0,0,1-.006.158" transform="translate(-20.773 -26.416)" fill="#617a0b"/>
        <path id="Trazado_636943" data-name="Trazado 636943" d="M272.163,358.644c-.15-.249-.294-.5-.429-.757a45.736,45.736,0,0,1-4.9-13.188,42.038,42.038,0,0,0-1.808-6.865c-.222-.543-.9-2.636-1.8-1.578-.465.549-.079,4.515.107,5.536a29,29,0,0,0,2.208,6.744,47.709,47.709,0,0,0,6.236,10.13c.072.092.144.185.214.272a.069.069,0,0,0,.015-.1.514.514,0,0,1-.05-.072.253.253,0,0,0,.207-.121m-5.522-8.436a33.653,33.653,0,0,1-2.615-6.544,23.84,23.84,0,0,1-.572-2.75,15.322,15.322,0,0,1-.186-2.192c.015-1.794.157-2.258.457-2.322.186-.036.443.157.972,1.229a11.721,11.721,0,0,1,.764,2.179c.279,1.058.522,2.122.75,3.194.465,2.135.9,4.286,1.521,6.379a35.385,35.385,0,0,0,3.779,8.579,54.592,54.592,0,0,1-4.872-7.751" transform="translate(-20.933 -26.74)" fill="#fff"/>
        <path id="Trazado_636944" data-name="Trazado 636944" d="M285.22,350.023a13.464,13.464,0,0,1-2.5,5.189c-2.258,3.119-5.147,5.712-7.614,8.661-.368.44-.728.888-1.076,1.349-.036.052-.32.7-.317.648,0-.013.044-.26.125-.679l0,0c.4-2.066,1.694-8.3,3.313-11.495a27.581,27.581,0,0,1,3.6-5.64c.7-.791,2.341-2.5,3.579-2.128,1.331.4,1.07,3.106.878,4.1" transform="translate(-21.786 -27.529)" fill="#617a0b"/>
        <path id="Trazado_636945" data-name="Trazado 636945" d="M283.209,349c-1.322-.821-4.729,5.266-5.186,6.051a38.76,38.76,0,0,0-3.887,9.28c-.107.364-.2.728-.293,1.1-.078.422-.129.665-.129.678.022,0,.286-.593.322-.65.057-.079.121-.157.179-.236.293-.379.593-.75.893-1.107,1.478-2.214,3-4.408,4.436-6.658a35.762,35.762,0,0,0,2.75-5.058c.171-.4,1.493-3.044.914-3.4m-.378,1.715c-1.879,5.293-5.715,9.465-8.644,14.166-.051.079-.093.15-.144.229.043-.136.079-.279.122-.415a44.231,44.231,0,0,1,3.107-7.73,42.248,42.248,0,0,1,2.615-4.357,21.054,21.054,0,0,1,1.629-2.265c.271-.3,1.05-1.093,1.314-.957.378.186.122.979,0,1.329" transform="translate(-21.786 -27.772)" fill="#fff"/>
        <path id="Trazado_636946" data-name="Trazado 636946" d="M298.949,302.507c-3.926,9.021-14.231,13.223-18.7,21.92-.008.018-.016.031-.021.045-.137.265-.266.535-.391.809a.183.183,0,0,1-.3.046.133.133,0,0,1-.018-.15c.027-.065.06-.132.093-.2a47,47,0,0,1,5.514-15.793c2.257-4.159,5.346-8.048,9.626-10.239,1.054-.542,3.111-1.685,4.293-.789,1.253.946.384,3.234-.1,4.345" transform="translate(-22.247 -23.705)" fill="#617a0b"/>
        <path id="Trazado_636947" data-name="Trazado 636947" d="M295.417,303.322c-.5-.372-1.257.078-1.686.3a15.107,15.107,0,0,0-2.978,2.036,24.861,24.861,0,0,0-4.751,5.65,51.352,51.352,0,0,0-5.6,11.351c-.3.908-.564,1.822-.779,2.75-.029.114-.05.229-.078.343a.187.187,0,0,0,.3-.043c.114-.272.243-.521.371-.785a.734.734,0,0,1,.036-.072,30.131,30.131,0,0,1,2.8-5.143,71.026,71.026,0,0,1,5.879-6.973c.8-.885,8.216-8.151,6.487-9.415m-.629,2.086a33.806,33.806,0,0,1-4.658,5.65c-1.628,1.822-3.278,3.622-4.879,5.465a34.205,34.205,0,0,0-3.436,4.693,26.657,26.657,0,0,0-2.15,4.343,37.293,37.293,0,0,1,1.535-4.515.119.119,0,0,1,.029-.05,67.285,67.285,0,0,1,3.808-7.587c.015-.029.036-.064.051-.093a31.025,31.025,0,0,1,4.343-6.065,17.8,17.8,0,0,1,3.093-2.63c1.293-.836,2.423-1.379,2.744-.965.214.286-.122,1.129-.479,1.751" transform="translate(-22.25 -24.131)" fill="#fff"/>
        <path id="Trazado_636948" data-name="Trazado 636948" d="M284.665,314.388c-1.179,2.543-2.307,5.122-3.422,7.708-.528,1.214-1.05,2.429-1.565,3.636a.621.621,0,0,0-.035.072c-.186.435-.379.879-.564,1.314a80.577,80.577,0,0,0-4.608,12.2,36.742,36.742,0,0,0-.943,6.78c-.007.236-.022.471-.036.707v.007c0,.128-.007.257-.007.386a2.082,2.082,0,0,0-.007.214c-.071,1.979-.042,3.964-.006,5.893.05,2.693.278,5.365.536,8.03a1.358,1.358,0,0,0,.021.236c.007.122.021.243.029.365.007.064.015.121.021.186.007.114.022.228.029.342.086.858.165,1.715.237,2.579h-.822a53.529,53.529,0,0,1-.993-7.944,1.222,1.222,0,0,1-.007-.164c-.021-.258-.035-.522-.042-.779-.021-.322-.036-.636-.043-.957q-.043-1.158-.064-2.294a56.456,56.456,0,0,1,.943-13.3c.029-.122.057-.236.086-.357a1.144,1.144,0,0,1,.036-.15c.014-.086.036-.171.057-.257l.107-.408c.064-.242.136-.485.208-.721l.064-.214a86.422,86.422,0,0,1,4.537-10.952c.3-.65.6-1.293.908-1.936l.514-1.071c.265-.537.537-1.079.8-1.614a.114.114,0,0,1,.029-.051c1.257-2.536,2.564-5.043,3.808-7.587.057-.114.257-.021.2.1" transform="translate(-21.677 -25.011)" fill="#37474f"/>
        <path id="Trazado_636949" data-name="Trazado 636949" d="M110.865,367.055H53.2s.133-8.582,5.8-10.859a7.722,7.722,0,0,1,9.039,2.166s2.312-15.779,12.876-15.779S96.538,356.2,96.538,356.2s2.366-4.115,8.23-3.349,6.1,14.208,6.1,14.208" transform="translate(-4.235 -27.267)" fill="#3d672f"/>
        <path id="Trazado_636950" data-name="Trazado 636950" d="M396.73,367.022s-1.768-8.248-5.3-9.518-5.679,2.43-5.679,2.43-.831-7.881-5.837-10.239-8.762,2.471-8.762,2.471-3.841-10-10.7-10S350.127,356.8,350.127,356.8s-4.049-4.36-8.2-1.9-4.152,12.123-4.152,12.123Z" transform="translate(-26.884 -27.234)" fill="#617a0b"/>
        <path id="Trazado_636951" data-name="Trazado 636951" d="M59.834,367.654H6.664s1.752-7.5,5.278-8.027,5.165,2.945,5.165,2.945-.159-10.455,6.425-12.236,12.107,7.456,12.107,7.456,4.129-5.267,9.755-4.93S52.45,361.9,52.45,361.9s5.121-3.021,7.384,5.752" transform="translate(-0.53 -27.866)" fill="#617a0b"/>
        <path id="Trazado_636952" data-name="Trazado 636952" d="M339.09,367.972H306.423s.075-4.863,3.287-6.152a4.373,4.373,0,0,1,5.12,1.227s1.31-8.94,7.294-8.94,8.849,7.713,8.849,7.713a4.588,4.588,0,0,1,4.663-1.9c3.323.434,3.454,8.05,3.454,8.05" transform="translate(-24.389 -28.184)" fill="#3d672f"/>
      </g>
    </g>
    <g id="Grupo_882048" data-name="Grupo 882048">
      <g id="Grupo_882047" data-name="Grupo 882047" clip-path="url(#clip-path)">
        <path id="Trazado_636953" data-name="Trazado 636953" d="M141.383,108.264c0,8.815,0,50.908,39.6,57.768,0,0,.65,4.443,1.9,11.391,1.515,8.429,3.923,20.547,7.118,32.866a.25.25,0,0,0,.019.088c1.107,4.24,2.3,8.5,3.592,12.644a.324.324,0,0,0,.02.1c.126.395.242.781.369,1.166a215.816,215.816,0,0,1,6.165,24.078c12.167,62.956-13.758,95.139-13.758,95.139H240.9s13.507-58.916-15.156-118.026c-5.3-10.944,15.779-19.838,25-40.191,7.816-17.244,7.592-102.079,3.8-107.546s-9.846-4.11-9.846,3.417,0,77.973-5.311,91.651-27.965,30.1-27.965,30.1-11.642-19.057-18.167-60.791v-.017c-3.059-19.618-4.99-44.24-4.049-74.258-.009-.009-.009-.017,0-.017q.291-9.517,1-19.768c.543-7.834-7.593-4.4-10.3,2.454s-6.516,46.5-1.088,99.861c0,0-27.129-3.821-27.129-46.509,0-7.834-10.3-4.408-10.3,4.407" transform="translate(-11.253 -3.467)" fill="#ffc727"/>
        <g id="Grupo_882043" data-name="Grupo 882043" transform="translate(130.13 40.091)" opacity="0.5">
          <g id="Grupo_882042" data-name="Grupo 882042">
            <g id="Grupo_882041" data-name="Grupo 882041" clip-path="url(#clip-path-6)">
              <path id="Trazado_636954" data-name="Trazado 636954" d="M141.383,108.264c0,8.815,0,50.908,39.6,57.768,0,0,.65,4.443,1.9,11.391,1.515,8.429,3.923,20.547,7.118,32.866a.25.25,0,0,0,.019.088c1.107,4.24,2.3,8.5,3.592,12.644a.324.324,0,0,0,.02.1c.126.395.242.781.369,1.166a215.816,215.816,0,0,1,6.165,24.078c12.167,62.956-13.758,95.139-13.758,95.139H240.9s13.507-58.916-15.156-118.026c-5.3-10.944,15.779-19.838,25-40.191,7.816-17.244,7.592-102.079,3.8-107.546s-9.846-4.11-9.846,3.417,0,77.973-5.311,91.651-27.965,30.1-27.965,30.1-11.642-19.057-18.167-60.791v-.017c-3.059-19.618-4.99-44.24-4.049-74.258-.009-.009-.009-.017,0-.017q.291-9.517,1-19.768c.543-7.834-7.593-4.4-10.3,2.454s-6.516,46.5-1.088,99.861c0,0-27.129-3.821-27.129-46.509,0-7.834-10.3-4.408-10.3,4.407" transform="translate(-141.383 -43.558)"/>
            </g>
          </g>
        </g>
        <g id="Grupo_882046" data-name="Grupo 882046" transform="translate(138.094 58.304)" opacity="0.1">
          <g id="Grupo_882045" data-name="Grupo 882045">
            <g id="Grupo_882044" data-name="Grupo 882044" clip-path="url(#clip-path-7)">
              <path id="Trazado_636955" data-name="Trazado 636955" d="M220.142,240.5c3.127,10.664,7.408,21.047,10.516,31.737a217.333,217.333,0,0,1,7.011,32.831,168.652,168.652,0,0,1,1.068,32.219c-.476,7.369-2.165,14.571-3.447,21.817h4.962c5.893-16.876,5.1-35.9,2.068-52.932a241.188,241.188,0,0,0-8.729-32.954c-3.641-11.067-7.146-22.37-11.8-33.129-.4-.9-1.932-.57-1.65.411" transform="translate(-155.613 -77.371)"/>
              <path id="Trazado_636956" data-name="Trazado 636956" d="M196.234,171.452c2.18,22.491,12.138,44.332,19.272,65.808a176.951,176.951,0,0,1,8.567,67.059c-.032.538-.923.546-.933,0-.224-12.286-.434-24.655-2.966-36.77-2.288-10.943-5.9-21.687-9.539-32.316-3.566-10.427-7.524-20.775-10.46-31.367a145.662,145.662,0,0,1-4.987-32.415c-.029-.614.989-.6,1.046,0" transform="translate(-153.63 -71.914)"/>
              <path id="Trazado_636957" data-name="Trazado 636957" d="M196.44,361.367h5.486c1.525-3.076,2.894-6.2,4.2-9.209a131.461,131.461,0,0,0,8.574-27.846c3.544-18.769,2.728-37.38-1.524-55.981-.126-.526-.971-.289-.884.219a141.991,141.991,0,0,1-1.991,56.2,156.566,156.566,0,0,1-8.622,26.3,113.638,113.638,0,0,1-5.233,10.313" transform="translate(-153.729 -79.638)"/>
              <path id="Trazado_636958" data-name="Trazado 636958" d="M218.5,341.706c1.257-4.137,2.025-9.229,4.154-13.079a4.873,4.873,0,0,1,3.9-2.627.961.961,0,0,1,.382-.05,4.69,4.69,0,0,1,.562.074,5.325,5.325,0,0,1,1.029.234c.67.229,1.427.685,1.544,1.394.006.035.011.075.017.11,2.423,3.451,1.523,10.839,1.19,13.549-.52,4.231-1.79,15.33-9.153,14.336-7.148-.965-4.844-9.924-3.623-13.941" transform="translate(-155.378 -84.247)"/>
              <path id="Trazado_636959" data-name="Trazado 636959" d="M186.471,189c1.515,8.429,3.923,20.547,7.118,32.867a.231.231,0,0,0,.019.087c.408,1.4.826,2.8,1.243,4.206.845,2.812,1.641,5.625,2.35,8.437a.36.36,0,0,0,.019.1c.126.394.243.78.369,1.165a215.68,215.68,0,0,1,6.166,24.078c1.253-10.567-.767-21.064-3.874-31.587-3.933-13.318-8.36-26.383-13.409-39.35" transform="translate(-152.936 -73.347)"/>
              <path id="Trazado_636960" data-name="Trazado 636960" d="M258.794,159.2a4.474,4.474,0,0,1,.522-2.23,1.81,1.81,0,0,1,1.758-.76,1.773,1.773,0,0,1,1.466,1.14c.032.076.05.154.076.23a1.241,1.241,0,0,1,.245.517,3.375,3.375,0,0,1,.04,1.023,2.2,2.2,0,0,1-.633,2.6,2.026,2.026,0,0,1-2.946-.342,2.778,2.778,0,0,1-.527-2.177" transform="translate(-158.689 -70.736)"/>
              <path id="Trazado_636961" data-name="Trazado 636961" d="M225.256,215.054c12.838-13.713,27.948-29.8,27.9-48.793,0-.476.734-.445.8,0,2.915,20.874-11.887,36.363-27.6,49.78-.734.626-1.73-.308-1.094-.988" transform="translate(-156.007 -71.51)"/>
              <path id="Trazado_636962" data-name="Trazado 636962" d="M227.4,227.629c.633-3.414,3.593-6.34,6.09-8.836,3.361-3.36,7.011-6.427,9.869-10.176.377-.5,1.233-.063.9.477a59.828,59.828,0,0,1-7.462,9.315c-2.915,3.139-5.291,6.786-8.355,9.77a.627.627,0,0,1-1.046-.549" transform="translate(-156.193 -74.891)"/>
              <path id="Trazado_636963" data-name="Trazado 636963" d="M261.827,93.851c0-.382.584-.354.637,0,2.465,16.672,2.867,34.479-.533,51.1-.11.533-1.028.4-1.028-.125,0-16.969.9-33.981.924-50.97" transform="translate(-158.86 -65.752)"/>
              <path id="Trazado_636964" data-name="Trazado 636964" d="M257.226,121.905c.016-.128.226-.135.227,0,.1,11.01.106,22.934-2.6,33.715a.653.653,0,0,1-1.252-.153c.092-11.1,2.273-22.527,3.621-33.562" transform="translate(-158.279 -67.999)"/>
              <path id="Trazado_636965" data-name="Trazado 636965" d="M151.51,140.838c2.8,7.308,5.863,13.87,12.392,19.167a48.113,48.113,0,0,0,9.848,6.226c3.423,1.605,7.258,2.339,10.613,4.017.5.249.212.829-.265.881-8.024.862-17.192-5.016-22.4-10.009-5.647-5.41-10.7-12.553-11.258-20.15-.042-.582.882-.63,1.073-.131" transform="translate(-150.068 -69.487)"/>
              <path id="Trazado_636966" data-name="Trazado 636966" d="M150.286,122.914c1.623,13.628,9.628,25.145,20.08,34.686.292.266-.09.75-.455.532-13.025-7.8-19.4-21.529-19.875-35.218-.006-.148.234-.142.25,0" transform="translate(-150.036 -68.079)"/>
              <path id="Trazado_636967" data-name="Trazado 636967" d="M183.648,90.477c.052-.5.9-.524.887,0-.6,30.291,5.926,60.06,8.472,90.158.042.5-.883.623-.983.12-2.943-14.771-5.211-29.753-7.045-44.671-1.863-15.16-2.879-30.389-1.332-45.606" transform="translate(-152.651 -65.475)"/>
              <path id="Trazado_636968" data-name="Trazado 636968" d="M188.16,106.474a120.518,120.518,0,0,0,8.8,37.721c-3.059-19.618-4.991-44.24-4.049-74.258a104.022,104.022,0,0,0-3.428,12.784,93.725,93.725,0,0,0-1.321,23.754" transform="translate(-153.052 -63.871)"/>
              <path id="Trazado_636969" data-name="Trazado 636969" d="M184.07,71.618c.452-2.7,1.728-5.172,2.3-7.845.12-.56,1.17-.578,1.273,0,.414,2.33-.4,4.281-1.066,6.527a63.912,63.912,0,0,0-1.583,9.6.54.54,0,0,1-1.07,0,32.279,32.279,0,0,1,.146-8.283" transform="translate(-152.718 -63.346)"/>
              <path id="Trazado_636970" data-name="Trazado 636970" d="M223.227,232.6a111.753,111.753,0,0,1,15.05,37.574c.114.53-.708.741-.9.224-4.684-12.586-10.022-24.984-14.96-37.489-.172-.434.562-.693.811-.308" transform="translate(-155.795 -76.803)"/>
              <path id="Trazado_636971" data-name="Trazado 636971" d="M208.508,244.081c2.427,4.52,5.164,11.164,4.063,16.249a.144.144,0,0,1-.249.029c-1.318-2.26-1.659-4.9-2.318-7.366-.763-2.862-1.741-5.672-2.494-8.532a.549.549,0,0,1,1-.38" transform="translate(-154.609 -77.711)"/>
              <path id="Trazado_636972" data-name="Trazado 636972" d="M226.694,361.355a32.9,32.9,0,0,0,6.683-14.893c1.258-6.468,2.622-13.419,1.314-19.955-1.072-5.359-3.134-10.425-3.929-15.856a75.511,75.511,0,0,1-.254-19.47c.045-.412.745-.431.728,0a74.446,74.446,0,0,0,2.4,22.386c1.64,6.062,4.281,11.917,4.246,18.238-.052,9.645-1.676,23.449-10.222,30.222-.491.388-1.4-.13-.966-.672" transform="translate(-156.128 -81.455)"/>
              <path id="Trazado_636973" data-name="Trazado 636973" d="M214,367.969h3.233a11.329,11.329,0,0,0-.427-4.837c-1.078-3.759-3.224-7.9-2.583-11.872.039-.219-.32-.412-.437-.167-2.67,5.572-.525,11.207.214,16.876" transform="translate(-155.007 -86.24)"/>
              <path id="Trazado_636974" data-name="Trazado 636974" d="M215.013,347.394c.007-.011.027,0,.019.01a2.528,2.528,0,0,0-.4,1.567c0,.013-.022.013-.023,0a2.526,2.526,0,0,1,.408-1.578" transform="translate(-155.175 -85.954)"/>
            </g>
          </g>
        </g>
      </g>
    </g>
    <path id="Trazado_636975" data-name="Trazado 636975" d="M93.995,369.093l-47,.081L0,369.4l47,.225,47,.081,93.995.155,93.995-.154,47-.081,47-.226-47-.225-47-.081-93.995-.153Z" transform="translate(0 -29.365)" fill="#263238"/>
    <g id="Grupo_882053" data-name="Grupo 882053">
      <g id="Grupo_882052" data-name="Grupo 882052" clip-path="url(#clip-path)">
        <path id="Trazado_636976" data-name="Trazado 636976" d="M356.736,216.733a20.719,20.719,0,1,1-20.718-20.719,20.718,20.718,0,0,1,20.718,20.719" transform="translate(-25.096 -15.601)" fill="#e44e00"/>
        <path id="Trazado_636977" data-name="Trazado 636977" d="M347.008,211.571c-.5-5.041-3.975-10.058-10.081-10.058s-9.571,5.017-10.073,10.058c-.772,7.78,4.477,14.828,10.073,21.258,5.6-6.43,10.853-13.478,10.081-21.258m-10.081,5.6a5.519,5.519,0,1,1,5.527-5.519,5.518,5.518,0,0,1-5.527,5.519" transform="translate(-26.009 -16.039)" fill="#fff"/>
        <path id="Trazado_636978" data-name="Trazado 636978" d="M241.334,43.721A43.721,43.721,0,1,1,197.614,0a43.72,43.72,0,0,1,43.72,43.72" transform="translate(-12.249 0)" fill="#2b95f9"/>
        <path id="Trazado_636979" data-name="Trazado 636979" d="M198.427,33.143c-.1,2.781-.033,5.6-.033,8.609h10.861c-.463,3.577-.861,6.887-1.391,10.166-.033.331-.861.729-1.324.762-2.616.066-5.232.033-8.079.033V88.94a42.76,42.76,0,0,1-11.523-1.788V52.779h-9.5V41.852h9.305c.033-.827.1-1.49.1-2.12.066-2.881-.033-5.762.232-8.609.6-6.258,4.437-10.662,10.629-11.523,3.842-.529,7.848-.1,11.888-.1v9.935c-1.424,0-2.881-.033-4.3,0a18.319,18.319,0,0,0-3.808.264,3.578,3.578,0,0,0-3.047,3.444" transform="translate(-14.122 -1.539)" fill="#fff"/>
        <path id="Trazado_636980" data-name="Trazado 636980" d="M154.765,173.42a43.721,43.721,0,1,1-43.72-43.72,43.72,43.72,0,0,1,43.72,43.72" transform="translate(-5.359 -10.323)" fill="#2b95f9"/>
        <path id="Trazado_636981" data-name="Trazado 636981" d="M88.889,196.06A24.4,24.4,0,0,0,104.64,191.2c-6.516-1.978-9.113-3.968-10.061-7.673q2.191-.108,4.371-.215c-5.142-1.974-8.163-5.429-8.559-11.072l4.5,1.191c-4.719-5.936-5.673-10.54-2.856-14.837a32.5,32.5,0,0,0,23.106,11.557c-.042-.737-.084-1.289-.1-1.844-.186-4.865,1.855-8.543,6.191-10.687a10.75,10.75,0,0,1,12.275,1.482,2.256,2.256,0,0,0,2.478.507c1.754-.659,3.519-1.294,5.453-2a11.2,11.2,0,0,1-4.289,5.5c.041.106.083.212.123.318l5.4-1.387.215.214c-1.4,1.405-2.734,2.877-4.21,4.19a2.887,2.887,0,0,0-1.174,2.409,31.609,31.609,0,0,1-28.771,31.686,32.079,32.079,0,0,1-18.762-3.83c-.368-.2-.72-.433-1.079-.652" transform="translate(-7.075 -12.444)" fill="#fff"/>
        <path id="Trazado_636982" data-name="Trazado 636982" d="M241.816,224.884a30.662,30.662,0,1,1-30.662-30.662,30.662,30.662,0,0,1,30.662,30.662" transform="translate(-14.366 -15.459)" fill="#2b95f9"/>
        <path id="Trazado_636983" data-name="Trazado 636983" d="M200.4,210.072a.551.551,0,0,0,.128.039,3.824,3.824,0,0,1,3.516,3.243,3.789,3.789,0,0,1-1.3,3.566,3.717,3.717,0,0,1-1.827.869,3.888,3.888,0,0,1-1.068.048,3.841,3.841,0,0,1-3.346-2.744,3.532,3.532,0,0,1-.141-.808c0-.052.008-.116-.064-.139v-.335c.068-.026.058-.087.064-.142.012-.11.017-.222.034-.331a3.808,3.808,0,0,1,3.538-3.227.636.636,0,0,0,.131-.038Z" transform="translate(-15.624 -16.72)" fill="#fff"/>
        <path id="Trazado_636984" data-name="Trazado 636984" d="M215.168,224.467c.032-.043.067-.085.1-.13a7.552,7.552,0,0,1,1.128-1.324,7,7,0,0,1,3.122-1.675,9.6,9.6,0,0,1,1.737-.237,9.937,9.937,0,0,1,4.476.833,5.716,5.716,0,0,1,2.466,2.349,8.8,8.8,0,0,1,.817,2.067,11.146,11.146,0,0,1,.3,1.5c.033.253.048.508.064.763.029.472.052.945.079,1.418,0,.014,0,.028,0,.041.012.451.03.9.034,1.352q.015,2.266.021,4.532.005,3.423,0,6.847c0,.255-.011.266-.269.266h-2.9q-1.353,0-2.705,0c-.144,0-.288.013-.432.019h-.07c-.32-.017-.324-.091-.324-.329q0-2.839,0-5.677c0-1.878,0-3.756-.007-5.635a7.237,7.237,0,0,0-.275-2.1,4.141,4.141,0,0,0-.515-1.139,2.652,2.652,0,0,0-1.7-1.124,3.392,3.392,0,0,0-.8-.085c-.287.006-.577,0-.861.032A3.183,3.183,0,0,0,215.939,229a5.99,5.99,0,0,0-.43,1.6,12.565,12.565,0,0,0-.109,1.764v10.321c0,.078,0,.158,0,.237-.009.106-.055.147-.161.154-.06,0-.121,0-.181,0h-3.29c-.693,0-1.385,0-2.078,0-.2,0-.409.013-.612.019a.637.637,0,0,1-.084,0c-.271-.028-.293-.1-.29-.3,0-.1,0-.2,0-.307q0-6.8,0-13.6,0-3.431,0-6.862c0-.061,0-.122,0-.181.006-.152.061-.205.214-.215.037,0,.075,0,.111,0H214.8c.037,0,.075,0,.111,0,.147.008.2.057.205.206,0,.26-.011.52-.011.781,0,.381,0,.762.007,1.143,0,.181,0,.362.005.543,0,.05,0,.1.006.148l.041.011" transform="translate(-16.611 -17.597)" fill="#fff"/>
        <path id="Trazado_636985" data-name="Trazado 636985" d="M196.917,232.39q0-5.2,0-10.4a1.48,1.48,0,0,1,.007-.18.123.123,0,0,1,.131-.119c.051,0,.1,0,.153,0l6.094,0h.042c.234,0,.295.061.295.3q0,1.178,0,2.356v18.41a1.365,1.365,0,0,1-.016.221.165.165,0,0,1-.158.151c-.157.008-.314.013-.471.015-.06,0-.121-.011-.18-.011H197.7c-.134,0-.269.013-.4.019a.51.51,0,0,1-.084,0c-.225-.025-.294-.05-.294-.307q0-5.223,0-10.446Z" transform="translate(-15.673 -17.644)" fill="#fff"/>
        <path id="Trazado_636986" data-name="Trazado 636986" d="M350.012,146.9a43.68,43.68,0,1,1-43.68-43.68,43.679,43.679,0,0,1,43.68,43.68" transform="translate(-20.905 -8.215)" fill="#fd4c1b"/>
        <path id="Trazado_636987" data-name="Trazado 636987" d="M333.9,134.017c-.03-7.09-4.456-11.674-11.485-11.741q-14.583-.146-29.172,0c-6.877.073-11.334,4.627-11.438,11.491-.067,4.852-.012,9.71-.012,14.562,0,4.748-.03,9.5.006,14.252.06,7.247,4.48,11.882,11.655,11.954q14.429.156,28.862,0c7.036-.079,11.541-4.707,11.577-11.71q.081-14.4.006-28.808m-4.65,28.892c-.051,4.481-2.464,6.963-6.951,6.992q-14.429.091-28.857,0c-4.5-.024-6.944-2.5-6.967-6.962q-.065-14.554,0-29.111c.019-4.445,2.5-7,6.943-7.029q14.43-.1,28.858,0c4.451.03,6.924,2.571,6.975,7,.053,4.853.011,9.7.011,14.556s.042,9.7-.011,14.55" transform="translate(-22.427 -9.726)" fill="#fff"/>
        <path id="Trazado_636988" data-name="Trazado 636988" d="M308.968,135.82A13.615,13.615,0,1,0,322.5,149.633a13.594,13.594,0,0,0-13.528-13.813M308.8,158.5a9.192,9.192,0,0,1-8.926-8.962,9.075,9.075,0,0,1,18.15-.006A9.2,9.2,0,0,1,308.8,158.5" transform="translate(-23.511 -10.81)" fill="#fff"/>
        <path id="Trazado_636989" data-name="Trazado 636989" d="M328.795,135.168a2.822,2.822,0,0,1-3.246,2.816,2.851,2.851,0,0,1-2.962-3.392c.141-1.9,1.381-2.786,3.284-2.895,1.934.328,3.077,1.429,2.924,3.471" transform="translate(-25.675 -10.482)" fill="#fff"/>
        <path id="Trazado_636990" data-name="Trazado 636990" d="M307.549,226.292a29.535,29.535,0,1,1-29.535-29.534,29.536,29.536,0,0,1,29.535,29.534" transform="translate(-19.777 -15.661)" fill="#ffb338"/>
        <path id="Trazado_636991" data-name="Trazado 636991" d="M268.6,239.205V216.526l27.042,11.339Z" transform="translate(-21.379 -17.234)" fill="#fff"/>
        <path id="Trazado_636992" data-name="Trazado 636992" d="M175.293,234.688a20.946,20.946,0,1,1-20.946-20.946,20.946,20.946,0,0,1,20.946,20.946" transform="translate(-10.618 -17.012)" fill="#fd4c1b"/>
        <path id="Trazado_636993" data-name="Trazado 636993" d="M166.706,238.215c-3.457,6.971-11.68,11.108-11.68,11.108s-8.223-4.137-11.674-11.108c-2.879-5.814-1.055-12.1,3.488-13.472,6.514-1.97,8.185,9.373,8.185,9.373s1.671-11.343,8.191-9.373c4.544,1.372,6.368,7.658,3.489,13.472" transform="translate(-11.3 -17.87)" fill="#fff"/>
        <path id="Trazado_636994" data-name="Trazado 636994" d="M312.095,62.68a30.662,30.662,0,1,1-30.662-30.662A30.662,30.662,0,0,1,312.095,62.68" transform="translate(-19.96 -2.548)" fill="#12263f"/>
        <path id="Trazado_636995" data-name="Trazado 636995" d="M291.74,51.279a7.5,7.5,0,0,0,.531.843s.03.022.047.039a7.92,7.92,0,0,1-.578-.882m.589.9v0h0l.319.227c-.108-.076-.215-.157-.321-.233m5.2,5.575V55.339a7.957,7.957,0,0,1-.946-.218,8.512,8.512,0,0,1-1.555-.612,7.746,7.746,0,0,1-1.377-.906,7.12,7.12,0,0,1-.646-.589l-.091-.1-.078-.087a5.189,5.189,0,0,1-.506-.65.766.766,0,0,1-.226-.153,8.01,8.01,0,0,1-.962-.974,8.486,8.486,0,0,1-1.125-1.766,9.907,9.907,0,0,1-.7-1.975c-.06-.249-.111-.5-.165-.747v-.006l0-.016v-.015c0-.021,0-.044,0-.065h-4.071l-.6,0c-.109,0-.128.031-.128.133q0,11.089,0,22.179c0,.648,0,1.3,0,1.945,0,.369-.038.737-.077,1.1a8.723,8.723,0,0,1-.251,1.378,2.544,2.544,0,0,1-.28.571,5.23,5.23,0,0,1-1,1.249,4.668,4.668,0,0,1-.946.683,5.043,5.043,0,0,1-1.5.543c-.188.035-.377.059-.567.078a5.078,5.078,0,0,1-.567.016,5.291,5.291,0,0,1-1.906-.391,4.63,4.63,0,0,1-1.218-.715,3.738,3.738,0,0,1-.985-1.2,8.429,8.429,0,0,1-.4-1.065,4.915,4.915,0,0,0,.382,1.015.058.058,0,0,1,0,.041l0,.013a2.359,2.359,0,0,1-.388-.263l-.024-.018a3.832,3.832,0,0,1-1.279-1.765,6.112,6.112,0,0,1-.26-.917,5.433,5.433,0,0,1-.094-.745c-.008-.151-.021-.3-.017-.451a5.956,5.956,0,0,1,.246-1.577,4.9,4.9,0,0,1,.734-1.469,4.541,4.541,0,0,1,1.333-1.21,5.226,5.226,0,0,1,1.544-.613,6.938,6.938,0,0,1,.718-.114,7.353,7.353,0,0,1,1.129-.035,4.554,4.554,0,0,1,.789.077c.107.024.127.006.127-.11q0-2.549,0-5.1c-.389,0-.78-.018-1.169,0a11.348,11.348,0,0,0-1.351.154,11.105,11.105,0,0,0-1.489.37,9.6,9.6,0,0,0-1.022.4,10.187,10.187,0,0,0-1.478.826,11.623,11.623,0,0,0-.968.742,10.431,10.431,0,0,0-.884.851,10.673,10.673,0,0,0-.975,1.216,12.1,12.1,0,0,0-.937,1.6,12.523,12.523,0,0,0-.531,1.279,13.023,13.023,0,0,0-.507,1.877c-.059.3-.095.607-.133.911a12.354,12.354,0,0,0-.077,1.8c.007.349.04.7.077,1.044a11.5,11.5,0,0,0,.3,1.628,11.361,11.361,0,0,0,.575,1.655,11,11,0,0,0,.945,1.717,4.069,4.069,0,0,1,.253.4c-.012.019.479.568.748.859-.2-.215-.388-.443-.574-.671a.038.038,0,0,1,0-.051.723.723,0,0,1,.085.052c.077.055.145.122.217.182l.022.017a11.774,11.774,0,0,0,.985.707,11.94,11.94,0,0,0,1.349.744,13.379,13.379,0,0,0,1.807.7c.308.094.63.135.946.2.282.056.565.09.848.138.129.022.261.033.393.043a11.223,11.223,0,0,0,1.279.063c.367-.013.734-.034,1.1-.077a12.667,12.667,0,0,0,1.276-.213,9.884,9.884,0,0,0,1.847-.606,10.075,10.075,0,0,0,1.959-1.151,10.509,10.509,0,0,0,1.353-1.236,9.789,9.789,0,0,0,.873-1.093,11.758,11.758,0,0,0,.975-1.681,12.79,12.79,0,0,0,.759-2.041c.109-.387.2-.78.272-1.175.056-.288.094-.579.139-.868.026-.16.034-.324.044-.487.132-2.218.043-4.439.059-6.658s0-4.447,0-6.671V57.1l.23.194a9.055,9.055,0,0,0,1.141.815,11.278,11.278,0,0,0,1.109.6,14.261,14.261,0,0,0,2.038.767c.505.149,1.016.272,1.532.376q.59.117,1.185.2c.241.032.485.054.73.071.161.011.321,0,.481.017.087.006.1-.027.1-.1,0-.762,0-1.524,0-2.286M270.286,78.256a.044.044,0,0,1-.015-.007l.005-.006.017.008-.007.006m.081.072a.179.179,0,0,1-.018-.011c.006,0,.01-.011.016-.011a.021.021,0,0,1,.016.007c0,.009,0,.022-.014.015m.6.73.052.055-.052-.055m15.273-32.6,2.9,0h-2.9m2.9,0s0,.034,0,.065c0-.021,0-.044,0-.065Z" transform="translate(-21.336 -3.698)" fill="#fefefe"/>
        <path id="Trazado_636996" data-name="Trazado 636996" d="M299.186,62.367c0,.089-.018.115-.111.113-.347-.01-.692-.045-1.037-.081-.276-.029-.55-.068-.824-.111-.311-.049-.62-.117-.929-.184a15.682,15.682,0,0,1-1.779-.5,14.711,14.711,0,0,1-1.379-.555,10.882,10.882,0,0,1-1.611-.912,8.1,8.1,0,0,1-.841-.653c-.028.008-.014.033-.014.051.014.933-.025,1.866-.023,2.8q.007,4.9,0,9.806a7.721,7.721,0,0,1-.075,1.007c-.029.221-.05.443-.085.664-.051.318-.113.634-.182.95a12.672,12.672,0,0,1-.357,1.287,13.022,13.022,0,0,1-.606,1.488,11.874,11.874,0,0,1-.99,1.681c-.174.249-.365.487-.561.721-.173.206-.356.406-.546.6a9.543,9.543,0,0,1-.843.757c-.272.213-.548.415-.837.6a9.628,9.628,0,0,1-1.543.8,10.114,10.114,0,0,1-1.458.479c-.3.074-.6.13-.909.18s-.617.078-.924.121c-.086.012-.176-.024-.259.021h-1.22c-.019-.039-.055-.019-.083-.02a9.633,9.633,0,0,1-1-.1c-.263-.037-.525-.087-.788-.124a8.251,8.251,0,0,1-1.7-.467c-.329-.123-.652-.264-.972-.411a11.75,11.75,0,0,1-1.578-.887,10.519,10.519,0,0,1-.852-.632,11.034,11.034,0,0,1-1.017-.939l-.011-.011-.023-.025-.052-.056c-.271-.29-.76-.838-.748-.858a1.832,1.832,0,0,1,.257.189c.083.068.163.138.217.183l.022.017a11.7,11.7,0,0,0,2.334,1.451,13.379,13.379,0,0,0,1.807.7c.308.093.63.135.946.2.281.055.565.09.848.138.129.022.261.033.393.043a11.436,11.436,0,0,0,1.279.062c.367-.012.734-.033,1.1-.076a12.67,12.67,0,0,0,1.276-.214,9.816,9.816,0,0,0,1.847-.606,9.983,9.983,0,0,0,1.959-1.151,10.443,10.443,0,0,0,1.353-1.236,9.707,9.707,0,0,0,.873-1.093,11.708,11.708,0,0,0,.975-1.681,12.666,12.666,0,0,0,.758-2.041c.11-.387.2-.78.272-1.175.056-.287.094-.578.139-.867.025-.161.034-.325.044-.488.132-2.218.043-4.438.059-6.657s0-4.448,0-6.672v-.12l.231.2a9.138,9.138,0,0,0,1.14.815,11.39,11.39,0,0,0,1.11.6,14.261,14.261,0,0,0,2.038.767c.505.149,1.016.273,1.532.376q.59.119,1.184.2c.242.032.486.055.731.071.161.011.321.006.481.017.087.007.1-.027.1-.1,0-.761,0-1.524,0-2.285V56.107a.057.057,0,0,1,.017,0,2.755,2.755,0,0,0,.433.08c.223.034.449.059.674.083.095.01.191,0,.285.019.051.009.064.024.06.069a.313.313,0,0,0,0,.041q0,2.985,0,5.969" transform="translate(-21.523 -4.466)" fill="#455a64"/>
        <path id="Trazado_636997" data-name="Trazado 636997" d="M279.487,60.733l-.02.006c-.389,0-.78-.019-1.168,0a11.165,11.165,0,0,0-2.841.523,9.6,9.6,0,0,0-1.022.4,10.193,10.193,0,0,0-1.478.827,11.417,11.417,0,0,0-.968.741,10.587,10.587,0,0,0-.884.852,10.715,10.715,0,0,0-.975,1.216,12.039,12.039,0,0,0-.937,1.6,12.734,12.734,0,0,0-.531,1.279,12.891,12.891,0,0,0-.506,1.876c-.06.3-.1.607-.134.911a12.5,12.5,0,0,0-.077,1.8c.007.349.04.7.077,1.043a11.475,11.475,0,0,0,.3,1.628A11.323,11.323,0,0,0,268.9,77.1a10.969,10.969,0,0,0,.945,1.717,3.861,3.861,0,0,1,.253.4c-.082-.071-.168-.138-.246-.214a10.925,10.925,0,0,1-2.026-2.665,10.955,10.955,0,0,1-.817-1.949,11.1,11.1,0,0,1-.364-1.532c-.05-.3-.084-.6-.114-.9a1.27,1.27,0,0,0-.036-.373V70.129c.026-.016.021-.041.021-.064a7.867,7.867,0,0,1,.079-.857,11.5,11.5,0,0,1,.34-1.7,11.768,11.768,0,0,1,.513-1.494,11.966,11.966,0,0,1,1.239-2.268c.217-.312.453-.609.7-.9A10.59,10.59,0,0,1,272,60.631a10.007,10.007,0,0,1,2.085-.938,9.726,9.726,0,0,1,1.562-.367c.291-.041.581-.075.873-.1a10.627,10.627,0,0,1,1.4-.032,8.7,8.7,0,0,1,1.1.1c.121.02.243.032.366.042.074.006.1.039.1.111,0,.431,0,.862,0,1.293" transform="translate(-21.211 -4.71)" fill="#fd4c1b"/>
        <path id="Trazado_636998" data-name="Trazado 636998" d="M289.754,46.329h-4.069l-.6,0c-.109,0-.128.032-.128.134q0,11.088,0,22.177c0,.65,0,1.3,0,1.945,0,.371-.038.737-.077,1.106a8.75,8.75,0,0,1-.251,1.377,2.584,2.584,0,0,1-.28.571,5.235,5.235,0,0,1-1,1.25,4.7,4.7,0,0,1-.946.683,5.067,5.067,0,0,1-1.5.542c-.188.034-.377.06-.567.077a4.867,4.867,0,0,1-.567.016,5.251,5.251,0,0,1-1.906-.39,4.7,4.7,0,0,1-1.218-.714,3.732,3.732,0,0,1-.985-1.2c.093.05.163.085.231.122a5.189,5.189,0,0,0,1.359.512,5.313,5.313,0,0,0,1.594.115,4.988,4.988,0,0,0,2.9-1.182,5.5,5.5,0,0,0,1.082-1.271,3.267,3.267,0,0,0,.476-1.266c.047-.313.094-.627.136-.942a4.414,4.414,0,0,0,.041-.572c0-.326.026-.653.026-.979q0-11.735,0-23.471c0-.031,0-.063,0-.095,0-.052.016-.076.071-.072.024,0,.048,0,.072,0h5.823c.153,0,.159,0,.157.155a6.9,6.9,0,0,0,.121,1.254.775.775,0,0,1,0,.122" transform="translate(-21.941 -3.565)" fill="#fd4c1b"/>
        <path id="Trazado_636999" data-name="Trazado 636999" d="M281.5,62.275V67.54c0,.134,0,.128-.131.1s-.275-.037-.413-.05c-.2-.017-.4-.017-.606-.023a6.529,6.529,0,0,0-1.582.144,5.123,5.123,0,0,0-1.411.516,4.843,4.843,0,0,0-.842.59,4.564,4.564,0,0,0-1.033,1.308,5.038,5.038,0,0,0-.5,1.394c-.041.2-.064.4-.087.6a6.153,6.153,0,0,0-.014.781,4.7,4.7,0,0,0,.129.974c.017.079.037.157.057.233a8.49,8.49,0,0,0,.4,1.065l-.017-.009a2.749,2.749,0,0,1-.416-.269,4.033,4.033,0,0,1-.42-.374,3.973,3.973,0,0,1-.859-1.391,5.932,5.932,0,0,1-.26-.917,5.326,5.326,0,0,1-.095-.746c-.007-.15-.021-.3-.017-.45a5.912,5.912,0,0,1,.246-1.577,4.9,4.9,0,0,1,.733-1.469,4.544,4.544,0,0,1,1.334-1.21,5.206,5.206,0,0,1,1.544-.613,7,7,0,0,1,.719-.115A7.34,7.34,0,0,1,279.1,66a4.458,4.458,0,0,1,.789.077c.108.023.128.006.128-.11v-5.1l.02-.006a.359.359,0,0,0,.149.025,8.263,8.263,0,0,1,1.054.1.788.788,0,0,0,.191.023c.071-.007.077.025.076.083,0,.393,0,.786,0,1.179" transform="translate(-21.76 -4.845)" fill="#455a64"/>
        <path id="Trazado_637000" data-name="Trazado 637000" d="M294.152,52.179h0a.754.754,0,0,1-.226-.153,7.946,7.946,0,0,1-.962-.974,8.486,8.486,0,0,1-1.125-1.766,9.909,9.909,0,0,1-.7-1.975c-.059-.248-.111-.5-.164-.747v-.006l0-.016v0a.634.634,0,0,1,0-.075h0c.416,0,.833,0,1.249,0,.061,0,.075.018.074.075a7.41,7.41,0,0,0,.086,1.088,11.147,11.147,0,0,0,.379,1.74,10.362,10.362,0,0,0,.566,1.46c.076.164.156.316.233.454l0,0a7.682,7.682,0,0,0,.578.881l.008.013,0,0v0" transform="translate(-23.159 -3.698)" fill="#263238"/>
        <path id="Trazado_637001" data-name="Trazado 637001" d="M299.647,54.539q0,.646,0,1.292l-.017,0a7.957,7.957,0,0,1-.946-.218A8.512,8.512,0,0,1,297.125,55a7.746,7.746,0,0,1-1.377-.906,7.12,7.12,0,0,1-.646-.589l-.091-.1a5.649,5.649,0,0,1-.583-.735l0,0h0v0h0c.106.075.214.156.321.233l.049.034a7.62,7.62,0,0,0,1.214.687,8.179,8.179,0,0,0,.849.337,9.849,9.849,0,0,0,1.61.385,10.976,10.976,0,0,0,1.109.12c.056,0,.069.025.069.075" transform="translate(-23.434 -4.192)" fill="#fd4c1b"/>
        <path id="Trazado_637002" data-name="Trazado 637002" d="M251.016,140.4a43.721,43.721,0,1,1-43.72-43.72,43.72,43.72,0,0,1,43.72,43.72" transform="translate(-13.019 -7.695)" fill="#617a0b"/>
        <path id="Trazado_637003" data-name="Trazado 637003" d="M180.777,169.644c1.21-4.357,2.284-8.407,3.481-12.422a4.491,4.491,0,0,0-.335-3.59c-8.437-17.007,2.757-37.562,21.663-39.873,17.381-2.123,32.086,10.984,31.714,28.271-.3,14.167-12.328,26.381-26.548,27.018a30.064,30.064,0,0,1-13.906-2.629,4.446,4.446,0,0,0-2.666-.2c-4.357,1.04-8.683,2.205-13.4,3.426m6.8-6.6c2.771-.716,5.112-1.4,7.491-1.891a3.988,3.988,0,0,1,2.471.319,24.955,24.955,0,0,0,11.306,2.943c14.438.254,26.068-13.157,23.319-27.222-1.9-9.726-7.881-16.107-17.534-18.316-9.9-2.268-18.331.922-24.322,9.1-5.857,8-6.013,16.62-1.229,25.342a4.319,4.319,0,0,1,.352,2.742c-.462,2.25-1.165,4.45-1.855,6.977" transform="translate(-14.389 -9.036)" fill="#fff"/>
        <path id="Trazado_637004" data-name="Trazado 637004" d="M198.079,131.366c1.906-2.566,4.462-2.059,5.8.775.522,1.109.645,1.482,1.159,2.746.769,1.907.6,3.189-.779,4.422-1,.9-.908,1.686-.214,2.717a19.686,19.686,0,0,0,8.5,7.184,1.876,1.876,0,0,0,2.577-.572c2.461-2.943,2.5-2.912,5.974-1.276.4.189.8.382,1.2.572,2.671,1.281,3.075,3.683.9,5.8a7.821,7.821,0,0,1-7.846,1.907c-7.5-1.9-12.873-6.623-17.023-12.937a10.807,10.807,0,0,1-2.134-6.344,9.42,9.42,0,0,1,1.886-4.992" transform="translate(-15.615 -10.323)" fill="#fff"/>
        <path id="Trazado_637005" data-name="Trazado 637005" d="M86.252,117.955A20.719,20.719,0,1,1,65.533,97.238a20.718,20.718,0,0,1,20.718,20.717" transform="translate(-3.567 -7.739)" fill="#2b95f9"/>
        <path id="Trazado_637006" data-name="Trazado 637006" d="M63.711,127.573c-.619-.386-1.157-.947-1.984-.865-.317.032-.248-.23-.25-.4q-.022-4.665-.038-9.325c0-.226.013-.412.259-.538,2.37-1.2,3.392-3.564,4.839-5.581a9.3,9.3,0,0,0,1.7-7.06c-.1-.7.224-1.013.853-1.159a1.559,1.559,0,0,1,1.776.552,12.548,12.548,0,0,1,1.37,4.069,14.607,14.607,0,0,1-.422,3.495c-.106.854-.3,1.7-.46,2.562.208.151.45.072.674.075q3.939-.007,7.878-.024c1.107,0,1.65.312,1.806,1.047a2.1,2.1,0,0,1-1.136,2.281c-.2.1-.551.011-.574.318s.343.28.525.406c.953.649.781,1.995-.317,2.776-.264.186-.777.1-.789.491,0,.309.475.3.693.522a1.778,1.778,0,0,1-.751,2.748,3.45,3.45,0,0,0-.461.179c-.13.088-.258.186,0,.364a1.547,1.547,0,0,1-.022,2.769c-.112.082-.226.165-.341.247a2.217,2.217,0,0,1-1.382.307q-6.177.033-12.354.044a1.464,1.464,0,0,1-1.085-.3" transform="translate(-4.89 -8.165)" fill="#fff" fill-rule="evenodd"/>
        <path id="Trazado_637007" data-name="Trazado 637007" d="M51.164,123.254c-.006-1.974,0-3.951-.027-5.925,0-.4.036-.6.528-.6q3.616.032,7.226-.022c.472-.006.546.156.545.576q0,5.961.042,11.923c0,.505-.133.65-.64.642-2.337-.018-4.674-.017-7.009.029-.582.011-.663-.192-.658-.7.023-1.975,0-3.95-.008-5.927" transform="translate(-4.07 -9.289)" fill="#fff" fill-rule="evenodd"/>
        <path id="Trazado_637008" data-name="Trazado 637008" d="M183.855,198.276A10.377,10.377,0,1,1,173.479,187.9a10.377,10.377,0,0,1,10.377,10.377" transform="translate(-12.982 -14.955)" fill="#ffb338"/>
        <path id="Trazado_637009" data-name="Trazado 637009" d="M173.558,191.34a4.259,4.259,0,0,1,2.67.758,3.759,3.759,0,0,1,1.38,1.917,3.563,3.563,0,0,1,.133.842,11.03,11.03,0,0,1,0,1.27c-.015.351-.04.7-.063,1.052-.009.146,0,.167.141.225a.876.876,0,0,0,.616,0,2.4,2.4,0,0,0,.313-.123.712.712,0,0,1,.779.165.338.338,0,0,1,0,.482,1.491,1.491,0,0,1-.6.368c-.177.069-.362.115-.537.191a1.407,1.407,0,0,0-.307.174.665.665,0,0,0-.252.788,3.98,3.98,0,0,0,.508,1,4.813,4.813,0,0,0,1.472,1.476,3.659,3.659,0,0,0,1.256.489.171.171,0,0,1,.139.261.618.618,0,0,1-.292.283,3.488,3.488,0,0,1-.976.339c-.188.042-.377.076-.568.106a.236.236,0,0,0-.205.169c-.069.2-.1.408-.152.611s-.114.255-.337.229c-.268-.031-.531-.094-.8-.116a2.522,2.522,0,0,0-1.835.5,7.754,7.754,0,0,1-.855.585,2.892,2.892,0,0,1-1.565.376,2.964,2.964,0,0,1-1.661-.578c-.284-.2-.557-.41-.853-.59a2.174,2.174,0,0,0-.947-.294,4.513,4.513,0,0,0-1.3.114l-.008,0c-.3.038-.341,0-.4-.25-.045-.175-.084-.353-.124-.528a.281.281,0,0,0-.263-.238,4.9,4.9,0,0,1-1.417-.391,1.2,1.2,0,0,1-.234-.146.447.447,0,0,1-.156-.214.165.165,0,0,1,.135-.232,3.633,3.633,0,0,0,.963-.319,4.428,4.428,0,0,0,1.5-1.265,5.493,5.493,0,0,0,.723-1.2,1.089,1.089,0,0,0,.094-.322.692.692,0,0,0-.329-.677,2.079,2.079,0,0,0-.571-.26,2.358,2.358,0,0,1-.685-.322.78.78,0,0,1-.145-.136.342.342,0,0,1,.057-.517.614.614,0,0,1,.7-.09,1.364,1.364,0,0,0,.664.165.731.731,0,0,0,.37-.1.113.113,0,0,0,.059-.113c-.029-.48-.058-.96-.08-1.44a8.277,8.277,0,0,1,.022-1.079,3,3,0,0,1,.155-.829,3.787,3.787,0,0,1,2.322-2.313,4.07,4.07,0,0,1,1.357-.246" transform="translate(-13.231 -15.229)" fill="#fff"/>
        <path id="Trazado_637010" data-name="Trazado 637010" d="M269.367,105.153a10.377,10.377,0,1,1-10.377-10.377,10.377,10.377,0,0,1,10.377,10.377" transform="translate(-19.788 -7.544)" fill="#2b95f9"/>
        <path id="Trazado_637011" data-name="Trazado 637011" d="M263.049,101.49a3.456,3.456,0,1,1-3.456-3.455,3.455,3.455,0,0,1,3.456,3.455" transform="translate(-20.387 -7.803)" fill="#fff"/>
        <path id="Trazado_637012" data-name="Trazado 637012" d="M265.347,111.621v1.264H253.4v-1.264a5.976,5.976,0,0,1,11.952,0" transform="translate(-20.168 -8.41)" fill="#fff"/>
        <path id="Trazado_637013" data-name="Trazado 637013" d="M90.671,91.765a32.058,32.058,0,0,0,53.576,20.282l16.043,2.355-8.027-13.869a32.069,32.069,0,1,0-61.592-8.769" transform="translate(-7.203 -4.486)" fill="#455a64"/>
        <path id="Trazado_637014" data-name="Trazado 637014" d="M100.268,65.259a32.015,32.015,0,0,1,26.867-8.922,32.339,32.339,0,0,1,13.686,5.135,32.788,32.788,0,0,1,10.043,10.694,32.422,32.422,0,0,1,1.975,28.58l-.037-.549,7.979,13.9.589,1.024-1.163-.179-16.026-2.46.379-.117a32.348,32.348,0,0,1-15.864,7.833,28.089,28.089,0,0,1-4.438.462,31.436,31.436,0,0,1-4.455-.085,31.958,31.958,0,0,1-8.633-2.059,31.583,31.583,0,0,1-7.735-4.307A29.007,29.007,0,0,1,97.142,108a32.25,32.25,0,0,1,3.126-42.737" transform="translate(-7.202 -4.461)" fill="#ffb338"/>
        <path id="Trazado_637015" data-name="Trazado 637015" d="M105.916,91.924a3.881,3.881,0,1,0,3.881-3.881,3.881,3.881,0,0,0-3.881,3.881" transform="translate(-8.43 -7.008)" fill="#263238"/>
        <path id="Trazado_637016" data-name="Trazado 637016" d="M121.031,91.924a3.881,3.881,0,1,0,3.881-3.881,3.881,3.881,0,0,0-3.881,3.881" transform="translate(-9.633 -7.008)" fill="#263238"/>
        <path id="Trazado_637017" data-name="Trazado 637017" d="M136.145,91.924a3.881,3.881,0,1,0,3.881-3.881,3.881,3.881,0,0,0-3.881,3.881" transform="translate(-10.836 -7.008)" fill="#263238"/>
        <path id="Trazado_637018" data-name="Trazado 637018" d="M359.683,81.259A20.606,20.606,0,0,1,325.247,94.3l-10.311,1.513,5.159-8.914a20.613,20.613,0,1,1,39.589-5.636" transform="translate(-25.067 -4.656)" fill="#455a64"/>
        <path id="Trazado_637019" data-name="Trazado 637019" d="M359.623,81.243a20.759,20.759,0,0,1-4.16,10.448,23.012,23.012,0,0,1-1.867,2.15,23.293,23.293,0,0,1-2.176,1.842,20.311,20.311,0,0,1-4.972,2.769,20.546,20.546,0,0,1-5.548,1.323,20.246,20.246,0,0,1-2.864.054,18,18,0,0,1-2.852-.3,20.788,20.788,0,0,1-10.2-5.035l.243.075-10.3,1.582-.747.115.379-.659,5.129-8.933-.024.353a20.838,20.838,0,0,1,1.269-18.369,21.066,21.066,0,0,1,6.456-6.874,20.967,20.967,0,0,1,18.116-2.44,21.058,21.058,0,0,1,7.949,4.874,20.733,20.733,0,0,1,6.169,17.021" transform="translate(-25.007 -4.64)" fill="#2b95f9"/>
        <path id="Trazado_637020" data-name="Trazado 637020" d="M353.332,81.362a2.495,2.495,0,1,1-2.494-2.494,2.495,2.495,0,0,1,2.494,2.494" transform="translate(-27.726 -6.277)" fill="#fff"/>
        <path id="Trazado_637021" data-name="Trazado 637021" d="M343.618,81.362a2.495,2.495,0,1,1-2.494-2.494,2.494,2.494,0,0,1,2.494,2.494" transform="translate(-26.952 -6.277)" fill="#fff"/>
        <path id="Trazado_637022" data-name="Trazado 637022" d="M333.9,81.362a2.495,2.495,0,1,1-2.494-2.494,2.495,2.495,0,0,1,2.494,2.494" transform="translate(-26.179 -6.277)" fill="#fff"/>
        <path id="Trazado_637023" data-name="Trazado 637023" d="M151.167,28.947A20.719,20.719,0,1,1,130.448,8.229a20.718,20.718,0,0,1,20.718,20.718" transform="translate(-8.734 -0.655)" fill="#ffb338"/>
        <g id="Grupo_882051" data-name="Grupo 882051" transform="translate(119.83 18.369)" opacity="0.5">
          <g id="Grupo_882050" data-name="Grupo 882050">
            <g id="Grupo_882049" data-name="Grupo 882049" clip-path="url(#clip-path-9)">
              <path id="Trazado_637024" data-name="Trazado 637024" d="M141.928,24.158a4.2,4.2,0,1,1-4.2-4.2,4.2,4.2,0,0,1,4.2,4.2" transform="translate(-130.457 -19.957)"/>
              <path id="Trazado_637025" data-name="Trazado 637025" d="M144.721,36.474V38.01h-14.53V36.474a7.265,7.265,0,0,1,14.53,0" transform="translate(-130.192 -20.695)"/>
            </g>
          </g>
        </g>
        <path id="Trazado_637026" data-name="Trazado 637026" d="M130.236,26.909a4.2,4.2,0,1,1-4.2-4.2,4.2,4.2,0,0,1,4.2,4.2" transform="translate(-9.697 -1.807)" fill="#fff"/>
        <path id="Trazado_637027" data-name="Trazado 637027" d="M133.031,39.225v1.536H118.5V39.225a7.265,7.265,0,0,1,14.53,0" transform="translate(-9.432 -2.545)" fill="#fff"/>
        <path id="Trazado_637028" data-name="Trazado 637028" d="M259.9,188.133a10.377,10.377,0,1,1-10.377-10.377A10.377,10.377,0,0,1,259.9,188.133" transform="translate(-19.035 -14.148)" fill="#2b95f9"/>
        <path id="Trazado_637029" data-name="Trazado 637029" d="M245.914,191.94h-.843a.948.948,0,0,1-.956-.956.959.959,0,0,1,.956-.955h1.175l.552-3.195H245.73a.956.956,0,0,1,0-1.912h1.4l.363-2.186a.939.939,0,0,1,.956-.79.981.981,0,0,1,.955,1.122l-.327,1.854h2.881l.367-2.186a.944.944,0,0,1,.974-.79.971.971,0,0,1,.938,1.122l-.314,1.854h.849a.958.958,0,0,1,.951.955.971.971,0,0,1-.951.956H253.6l-.551,3.195h1.045a.948.948,0,0,1,.956.955.96.96,0,0,1-.956.956h-1.377l-.387,2.257a.945.945,0,0,1-.955.79.971.971,0,0,1-.956-1.117l.351-1.929H247.88l-.387,2.257a.957.957,0,0,1-.969.79.939.939,0,0,1-.938-1.117Zm5.165-1.912.552-3.195h-2.868l-.551,3.195Z" transform="translate(-19.43 -14.482)" fill="#fff"/>
        <path id="Trazado_637030" data-name="Trazado 637030" d="M106.9,42.4a10.377,10.377,0,1,1-13.115-6.586A10.378,10.378,0,0,1,106.9,42.4" transform="translate(-6.898 -2.808)" fill="#2b95f9"/>
        <path id="Trazado_637031" data-name="Trazado 637031" d="M96.553,39.159a6.856,6.856,0,1,0,1.613,13.617,6.565,6.565,0,0,0,1.632-.407.552.552,0,0,0,.362-.316.544.544,0,0,0-.009-.453.465.465,0,0,0-.23-.31.628.628,0,0,0-.523-.03,4.984,4.984,0,0,1-1.374.312,5.643,5.643,0,1,1,4.931-6.276,5.338,5.338,0,0,1-.316,2.631,1.867,1.867,0,0,1-.888,1.023l-.135.017c-.173.02-.224-.029-.229-.033a1.558,1.558,0,0,1-.164-.361c-.161-.665-.326-2.756-.327-2.781l-.029-.249a3.553,3.553,0,1,0-7.049.834A3.674,3.674,0,0,0,97.8,49.693a3.34,3.34,0,0,0,2.21-1.219l.038.311a1.775,1.775,0,0,0,.448.956,1.431,1.431,0,0,0,1.261.428,1.457,1.457,0,0,0,.412-.092,3.2,3.2,0,0,0,1.593-1.643c.014-.027.022-.047.025-.051l.02-.038a6.9,6.9,0,0,0-7.255-9.188m1.1,9.272a2.371,2.371,0,0,1-2.573-2.2,2.411,2.411,0,0,1,1.986-2.76,2.451,2.451,0,0,1,2.6,2.217,2.412,2.412,0,0,1-2.01,2.746" transform="translate(-7.202 -3.113)" fill="#fff"/>
      </g>
    </g>
    <g id="Grupo_882061" data-name="Grupo 882061">
      <g id="Grupo_882060" data-name="Grupo 882060" clip-path="url(#clip-path)">
        <path id="Trazado_637032" data-name="Trazado 637032" d="M104.167,422.754c.676-1.914,35.736-46.287,38.085-47.107.269-.109,15.3,11.063,15.3,11.063.611.853,29.733-4.67,29.733-4.67l-.44,34.982L134.049,414.8s-7.221,4.046-13.817,7.326c-.01,0-.016.007-.021,0a78.8,78.8,0,0,1-8.672,3.985c-2.654.622-8.061-1.456-7.372-3.359" transform="translate(-8.286 -29.899)" fill="#ad6359"/>
        <path id="Trazado_637033" data-name="Trazado 637033" d="M111.538,426.113a76.8,76.8,0,0,0,8.669-3.986c.008.008.017,0,.025,0,6.592-3.281,13.814-7.331,13.814-7.331l11.75.5,19.019-29.31c-4.053.631-7.075,1-7.271.724,0,0-15.02-11.172-15.292-11.06-2.349.818-37.406,45.191-38.086,47.1s4.715,3.987,7.372,3.36" transform="translate(-8.286 -29.899)" fill="#fff"/>
        <path id="Trazado_637034" data-name="Trazado 637034" d="M103.826,422.807c.711-1.96,35.925-46.306,38.337-47.148.913-.325,8.279,4.439,15.357,11.05l-22.737,28.563s-20.644,10.391-23.388,11.031-8.28-1.536-7.569-3.5" transform="translate(-8.259 -29.899)" fill="#eb6f2d"/>
        <path id="Trazado_637035" data-name="Trazado 637035" d="M106.292,423.834c6.086-7.289,29.942-37.26,35.4-44.928.044-.062,0-.094-.047-.037-6.189,7.093-29.8,37.257-35.479,44.868-.12.161-.006.25.122.1" transform="translate(-8.446 -30.153)" fill="#263238"/>
        <path id="Trazado_637036" data-name="Trazado 637036" d="M116.161,428.036a7.627,7.627,0,0,0,1.717-5.889,7.391,7.391,0,0,0-2.65-4.813c-.046-.033-.111.047-.071.09a8.812,8.812,0,0,1,.911,10.538.059.059,0,0,0,.093.074" transform="translate(-9.165 -33.216)" fill="#263238"/>
        <path id="Trazado_637037" data-name="Trazado 637037" d="M134.607,419.631c2.4-2.943,4.093-7.226,3.128-11.007-.037-.146-.245-.091-.27.033a52.506,52.506,0,0,1-3.265,10.735.239.239,0,0,0,.407.239" transform="translate(-10.68 -32.517)" fill="#263238"/>
        <path id="Trazado_637038" data-name="Trazado 637038" d="M131.653,421.354c2.4-2.943,4.093-7.226,3.128-11.007-.037-.146-.245-.091-.27.033a52.507,52.507,0,0,1-3.265,10.735.239.239,0,0,0,.407.239" transform="translate(-10.445 -32.654)" fill="#263238"/>
        <path id="Trazado_637039" data-name="Trazado 637039" d="M128.7,423.076c2.4-2.943,4.093-7.226,3.128-11.007-.037-.146-.245-.091-.27.033a52.506,52.506,0,0,1-3.265,10.735.239.239,0,0,0,.407.239" transform="translate(-10.209 -32.791)" fill="#263238"/>
        <path id="Trazado_637040" data-name="Trazado 637040" d="M125.744,424.8c2.4-2.943,4.093-7.226,3.128-11.007-.037-.146-.245-.091-.27.033a52.5,52.5,0,0,1-3.265,10.735.239.239,0,0,0,.407.239" transform="translate(-9.974 -32.928)" fill="#263238"/>
        <path id="Trazado_637041" data-name="Trazado 637041" d="M150.3,386.6c2.641-3.346-2.554-7.456-5.2-4.105s2.554,7.456,5.2,4.105" transform="translate(-11.491 -30.345)" fill="#263238"/>
        <path id="Trazado_637042" data-name="Trazado 637042" d="M140.1,429.713c2.445-.515,2.731-3.381,2.172-5.339a19.948,19.948,0,0,0-5.462-8.746.1.1,0,0,0-.159.026.463.463,0,0,0-.665.344c-.217,3.282-.856,6.763-.059,10.014.465,1.9,1.86,4.187,4.172,3.7m-3.425-8.672c.067-1.617.214-3.221.222-4.839a59.5,59.5,0,0,1,3.077,5.177,21.533,21.533,0,0,1,1.144,2.68c.469,1.427.637,6.322-2.835,4.048-1.914-1.255-1.688-5.14-1.608-7.067" transform="translate(-10.788 -33.079)" fill="#263238"/>
        <path id="Trazado_637043" data-name="Trazado 637043" d="M141.624,406.507c-2.456,2.274-3.84,5.532-5.466,8.39a.464.464,0,0,0,.365.654.1.1,0,0,0,.119.108,19.934,19.934,0,0,0,9.374-4.291c1.545-1.327,2.885-3.878,1.128-5.653-1.663-1.679-4.088-.537-5.521.792m3.119-.452c4.151.014,1.315,4.007.137,4.94a21.468,21.468,0,0,1-2.431,1.607,59.732,59.732,0,0,1-5.42,2.627c.885-1.356,1.647-2.774,2.48-4.161.994-1.652,2.945-5.02,5.233-5.013" transform="translate(-10.833 -32.225)" fill="#263238"/>
        <path id="Trazado_637044" data-name="Trazado 637044" d="M192.628,372.849l23.81-1.878s34.385-9.967,54.26-4.749c22.782,5.982,26,32.6,2.833,43.271-22.915,10.553-123.8,6.664-123.8,6.664l21.627-32.031s33.216-7.8,62.295-6.218l-41.171,4.742Z" transform="translate(-11.917 -29.028)" fill="#37474f"/>
        <path id="Trazado_637045" data-name="Trazado 637045" d="M196.576,380.622c3.543-.584,7.126-.873,10.7-1.2,3.6-.335,7.215-.595,10.827-.822a214.854,214.854,0,0,1,21.655-.329c.676.026,1.351.066,2.027.1.144-.045.3-.068.446-.1.348-.076.694-.155,1.046-.214.653-.112,1.312-.193,1.97-.28,1.37-.18,2.743-.3,4.106-.523.083-.014.113.111.029.128-1.372.275-2.723.642-4.1.912-.4.077-.792.155-1.188.225,2.643.194,5.281.454,7.917.747.083.009.083.139,0,.132-3.59-.286-7.21-.388-10.811-.4-3.576-.014-7.15-.009-10.724.121-7.228.264-14.456.761-21.663,1.364-4.044.338-8.1.755-12.157.84-.394.008-.481-.633-.082-.7" transform="translate(-15.625 -30.027)" fill="#263238"/>
        <path id="Trazado_637046" data-name="Trazado 637046" d="M160.95,417.037c1.335-2.039,2.481-4.221,3.707-6.327s2.461-4.224,3.7-6.334c2.461-4.209,11.279-18.355,12.141-19.34.055-.063.162.012.134.086-.424,1.1-5.939,10.473-7.207,12.562-2.537,4.179-5.195,8.27-7.817,12.393-.749,1.177-1.522,2.339-2.282,3.51s-1.564,2.318-2.263,3.522c-.042.073-.157,0-.11-.072" transform="translate(-12.81 -30.644)" fill="#263238"/>
        <path id="Trazado_637047" data-name="Trazado 637047" d="M282.52,429.613c-.586-1.944-33.506-47.927-35.813-48.858-.263-.121-15.8,10.328-15.8,10.328-.652.822-29.478-6.073-29.478-6.073l-1.218,34.964,52.837.279s7.022,4.383,13.455,7.972c.011,0,.016.008.022,0A78.731,78.731,0,0,0,275,432.619c2.623.747,8.122-1.072,7.523-3.006" transform="translate(-15.935 -30.305)" fill="#ad6359"/>
        <path id="Trazado_637048" data-name="Trazado 637048" d="M277.026,432.619a76.91,76.91,0,0,1-8.471-4.392c-.009.008-.017,0-.026,0-6.429-3.589-13.452-7.976-13.452-7.976l-11.759-.06-17.611-30.177c4.019.823,7.02,1.332,7.229,1.068,0,0,15.532-10.448,15.8-10.323,2.307.929,35.226,46.91,35.814,48.854s-4.9,3.759-7.522,3.008" transform="translate(-17.965 -30.306)" fill="#fff"/>
        <path id="Trazado_637049" data-name="Trazado 637049" d="M285.485,429.681c-.618-1.992-33.693-47.954-36.062-48.91-.9-.367-8.479,4.043-15.862,10.312l21.359,29.607s20.129,11.357,22.84,12.126,8.344-1.143,7.726-3.135" transform="translate(-18.59 -30.305)" fill="#eb6f2d"/>
        <path id="Trazado_637050" data-name="Trazado 637050" d="M284.586,430.6c-5.733-7.568-28.144-38.636-33.237-46.552-.041-.064,0-.1.049-.035,5.846,7.377,28.005,38.625,33.315,46.5.111.166-.006.25-.127.09" transform="translate(-20.004 -30.562)" fill="#263238"/>
        <path id="Trazado_637051" data-name="Trazado 637051" d="M277.338,434.478a7.629,7.629,0,0,1-1.436-5.963,7.39,7.39,0,0,1,2.875-4.682c.047-.031.109.052.066.094a8.81,8.81,0,0,0-1.409,10.483.059.059,0,0,1-.1.069" transform="translate(-21.95 -33.734)" fill="#263238"/>
        <path id="Trazado_637052" data-name="Trazado 637052" d="M259.235,425.194c-2.261-3.053-3.746-7.412-2.6-11.142.044-.144.249-.08.268.046a52.5,52.5,0,0,0,2.753,10.876.239.239,0,0,1-.418.22" transform="translate(-20.395 -32.949)" fill="#263238"/>
        <path id="Trazado_637053" data-name="Trazado 637053" d="M262.1,427.055c-2.262-3.053-3.746-7.411-2.6-11.143.044-.144.249-.079.268.047a52.494,52.494,0,0,0,2.753,10.876.239.239,0,0,1-.418.22" transform="translate(-20.623 -33.097)" fill="#263238"/>
        <path id="Trazado_637054" data-name="Trazado 637054" d="M264.974,428.916c-2.262-3.053-3.746-7.412-2.6-11.143.044-.145.249-.079.268.047a52.491,52.491,0,0,0,2.753,10.876.239.239,0,0,1-.418.22" transform="translate(-20.851 -33.245)" fill="#263238"/>
        <path id="Trazado_637055" data-name="Trazado 637055" d="M267.844,430.776c-2.262-3.053-3.746-7.412-2.6-11.142.044-.144.249-.08.268.046a52.479,52.479,0,0,0,2.753,10.876.239.239,0,0,1-.418.22" transform="translate(-21.08 -33.393)" fill="#263238"/>
        <path id="Trazado_637056" data-name="Trazado 637056" d="M244.879,391.458c-2.48-3.467,2.9-7.326,5.388-3.854s-2.9,7.326-5.388,3.854" transform="translate(-19.44 -30.742)" fill="#263238"/>
        <path id="Trazado_637057" data-name="Trazado 637057" d="M257.308,431.515c.95-3.208.477-6.717.415-10.006a.464.464,0,0,0-.648-.375.1.1,0,0,0-.157-.032,19.932,19.932,0,0,0-5.869,8.477c-.651,1.929-.5,4.806,1.917,5.436,2.286.6,3.788-1.625,4.342-3.5m-2.452,1.982c-3.576,2.108-3.176-2.774-2.64-4.177a21.389,21.389,0,0,1,1.269-2.624,59.839,59.839,0,0,1,3.319-5.025c-.069,1.617,0,3.226-.007,4.844-.012,1.928.03,5.821-1.941,6.982" transform="translate(-19.955 -33.515)" fill="#263238"/>
        <path id="Trazado_637058" data-name="Trazado 637058" d="M246.675,410.678c-1.839,1.691-.622,4.3.859,5.7a19.931,19.931,0,0,0,9.161,4.731.1.1,0,0,0,.123-.1.463.463,0,0,0,.4-.635c-1.489-2.932-2.718-6.252-5.062-8.641-1.369-1.394-3.738-2.65-5.477-1.051m7.372,5.707c.768,1.425,1.461,2.878,2.281,4.273a59.864,59.864,0,0,1-5.291-2.88,21.5,21.5,0,0,1-2.352-1.721c-1.132-.987-3.776-5.11.371-4.927,2.286.1,4.076,3.556,4.99,5.255" transform="translate(-19.56 -32.628)" fill="#263238"/>
        <path id="Trazado_637059" data-name="Trazado 637059" d="M192.443,372.833l-23.7-.63s-24.475-12.576-44.573-8.3c-23.041,4.9-26.73,33.576-9.888,44.2,21.34,13.458,117.887,13.525,117.887,13.525l-19.919-35.905s-31.9-7.605-61.026-7.4L192.12,385Z" transform="translate(-8.264 -28.893)" fill="#37474f"/>
        <path id="Trazado_637060" data-name="Trazado 637060" d="M216.414,389.134a.73.73,0,0,1-.039-.181l-.033-.148c-.025-.115-.052-.23-.082-.344a6.928,6.928,0,0,0-.224-.7c-.084-.232-.176-.456-.275-.681a5.14,5.14,0,0,0-.374-.634c-.014-.023-.037-.027-.054-.042a.29.29,0,0,0-.037-.027.257.257,0,0,0-.052-.022.383.383,0,0,0-.052-.023c-3.511-.75-27.395-4.818-30.95-5.318-3.583-.505-7.179-.937-10.775-1.335a215.04,215.04,0,0,0-21.616-1.352c-.676-.006-1.353,0-2.029.008-.141-.052-.295-.082-.441-.121-.344-.093-.687-.187-1.035-.263-.647-.144-1.3-.255-1.954-.374-1.359-.245-2.725-.425-4.076-.717-.083-.017-.118.108-.036.128,1.358.339,2.689.77,4.049,1.1.391.1.783.191,1.176.282-2.649.069-5.3.2-7.944.372-.083.006-.089.134,0,.132,3.6-.117,7.221-.047,10.818.11,3.573.155,7.142.328,10.706.627,7.207.607,14.4,1.445,21.574,2.388,4.023.529,28.373,4.745,32.421,5.024a.3.3,0,0,0,.051-.007,2.392,2.392,0,0,0,.1.28c.1.223.212.444.326.663s.219.417.345.62l.191.3c.033.049.065.1.1.148a.784.784,0,0,1,.1.155.066.066,0,1,0,.121-.051" transform="translate(-11.103 -29.995)" fill="#263238"/>
        <path id="Trazado_637061" data-name="Trazado 637061" d="M233.582,421.291c-1.236-2.1-2.279-4.333-3.4-6.5s-2.259-4.336-3.392-6.5c-2.261-4.321-10.4-18.868-11.213-19.894-.052-.064-.162.006-.137.08.371,1.118,5.436,10.742,6.6,12.888,2.335,4.294,4.8,8.507,7.221,12.749.693,1.211,1.411,2.408,2.113,3.613s1.452,2.39,2.095,3.626c.039.075.156.007.113-.066" transform="translate(-17.147 -30.912)" fill="#263238"/>
        <path id="Trazado_637062" data-name="Trazado 637062" d="M149.215,266.544l3.63,27.234c.194.808-.27,1.4-1.032,1.307l-13.659-1.567a2.226,2.226,0,0,1-1.732-1.625l-3.63-27.233c-.194-.811.268-1.4,1.032-1.308l13.657,1.567a2.225,2.225,0,0,1,1.734,1.625" transform="translate(-10.566 -20.96)" fill="#37474f"/>
        <path id="Trazado_637063" data-name="Trazado 637063" d="M147.455,266.327l3.63,27.234c.194.809-.269,1.4-1.032,1.308L136.4,293.3a2.228,2.228,0,0,1-1.733-1.625l-3.63-27.233c-.194-.811.269-1.4,1.031-1.308l13.658,1.567a2.223,2.223,0,0,1,1.734,1.625" transform="translate(-10.426 -20.943)" fill="#455a64"/>
        <path id="Trazado_637064" data-name="Trazado 637064" d="M144.66,267.358a1.168,1.168,0,1,0,1.27-1.056,1.167,1.167,0,0,0-1.27,1.056" transform="translate(-11.513 -21.195)" fill="#263238"/>
        <path id="Trazado_637065" data-name="Trazado 637065" d="M187.9,312.887c-9.48,15.656-29.343,35.065-36.48,35.753-3.423.33-9.584.473-13.655-3.93-8.884-9.61-15.332-26.873-16.008-36.437-.24-3.4,16.768-8.916,18.878-5.943,4.943,6.961,10.15,20.145,11.153,20.175,3.707.11,17.553-9.522,28.845-16.333,13.333-8.043,11.046.475,7.268,6.714" transform="translate(-9.691 -23.996)" fill="#ad6359"/>
        <path id="Trazado_637066" data-name="Trazado 637066" d="M123.3,288.395c2.436-6.6,4.075-7.916,3.174-14.575-.591-4.37,1.946-6.622,4.6-2.885,4.346,6.113,2.99,15.283,1.605,18.328Z" transform="translate(-9.814 -21.414)" fill="#ad6359"/>
        <path id="Trazado_637067" data-name="Trazado 637067" d="M122.2,308.88s-2.027-9.766-.125-17.053c1.314-5.038,5.4-15.682,20.343-19.945,3.545-1.012,9.315.063,4.124,3.817-3.687,2.666-6.831,3.244-8.693,5.186,0,0,7.175,2.237,8.05,5.828a68,68,0,0,1,1.616,9.547,14.232,14.232,0,0,1-1.76.462s.713,3.388-2.207,7.778Z" transform="translate(-9.652 -21.611)" fill="#ad6359"/>
        <path id="Trazado_637068" data-name="Trazado 637068" d="M124.346,287.953c2.256-1.536,7.091-4.712,11.951-5.936,5.4-1.358,16.161-2.519,17.122,1.475.705,2.93-3.366,3.734-3.366,3.734s4.55.457,4.608,3.244c.052,2.538-3.134,2.972-3.134,2.972s2.712.752,2.293,3.206c-.505,2.953-6.107.892-9.2,3.44-.695.572-20.272-12.136-20.272-12.136" transform="translate(-9.897 -22.345)" fill="#ad6359"/>
        <path id="Trazado_637069" data-name="Trazado 637069" d="M137.854,288.457a22.175,22.175,0,0,1,13.194-.818c.11.032.145.132.039.124a54.639,54.639,0,0,0-13.22.745c-.03.006-.04-.039-.013-.051" transform="translate(-10.971 -22.842)" fill="#263238"/>
        <path id="Trazado_637070" data-name="Trazado 637070" d="M139.515,294.381a24.892,24.892,0,0,1,13.22-.029c.109.036.136.138.03.126a58.52,58.52,0,0,0-13.241-.045c-.029,0-.037-.042-.009-.052" transform="translate(-11.103 -23.358)" fill="#263238"/>
        <path id="Trazado_637071" data-name="Trazado 637071" d="M178.891,330.087,158.822,320.2s19.16-12.557,28.074-16.294c9.291-3.9,12.4-1.766,4.8,9.2-7.641,11.033-12.806,16.982-12.806,16.982" transform="translate(-12.641 -24.045)" fill="#ffb338"/>
        <path id="Trazado_637072" data-name="Trazado 637072" d="M182.881,326.317l-.083.11a41.306,41.306,0,0,0-3.645-2.025,19.876,19.876,0,0,0-3.792-1.445c-.092-.028-.193-.046-.295-.074-.129-.037-.267-.064-.4-.092a12.043,12.043,0,0,0-4.731-.11,13.714,13.714,0,0,0-3.718,1.325l-.267-.138a14.433,14.433,0,0,1,3.949-1.4,12.114,12.114,0,0,1,4.814.138c.175.037.359.083.534.129.1.028.193.055.295.074a20.93,20.93,0,0,1,3.691,1.454,40.725,40.725,0,0,1,3.654,2.053m12.278-18.362a16.646,16.646,0,0,0-3.884,2.853,17.163,17.163,0,0,0-2.89,3.866,29.243,29.243,0,0,0-2.006,4.611.981.981,0,0,0-.064.175c-.479,1.371-.9,2.77-1.344,4.151.156-.212.322-.423.479-.644.368-1.16.727-2.319,1.132-3.461a1.28,1.28,0,0,1,.055-.175,29.046,29.046,0,0,1,1.97-4.528,16.489,16.489,0,0,1,6.655-6.664c.11-.064.221-.12.331-.175.046-.1.092-.212.138-.313-.193.1-.387.2-.571.3m-8.523,11.376a.216.216,0,0,0-.074-.018l-.184-.028a12.243,12.243,0,0,0-4.63.092,15.5,15.5,0,0,0-4.436,1.887,17.215,17.215,0,0,0-2.071,1.473c-.055.046-.12.092-.175.147a18.108,18.108,0,0,0-1.509,1.408,21.565,21.565,0,0,0-1.933,2.375l.2.1a21.7,21.7,0,0,1,1.905-2.31,19.286,19.286,0,0,1,1.629-1.5,1.346,1.346,0,0,1,.175-.147,18.224,18.224,0,0,1,1.905-1.344,15.016,15.016,0,0,1,4.363-1.878,11.975,11.975,0,0,1,4.51-.129c.074.009.147.028.221.037.018,0,.028.009.046.009.414.074.828.156,1.243.267a1.772,1.772,0,0,0,.12-.156c-.433-.11-.865-.212-1.307-.285" transform="translate(-13.208 -24.487)" fill="#fff"/>
        <path id="Trazado_637073" data-name="Trazado 637073" d="M179.68,327.38c-.449-.289-.943-.518-1.417-.765s-.974-.51-1.461-.766c-.986-.518-1.982-1.018-2.979-1.514-1.994-.99-3.984-1.989-5.994-2.945-.552-.263-1.106-.525-1.665-.773-.588-.261-1.2-.48-1.782-.742-.037-.017-.056.038-.023.056.486.26.952.56,1.438.824s1,.533,1.5.789q1.49.755,2.99,1.488c1.97.961,3.938,1.93,5.927,2.85.556.256,1.114.507,1.67.764.581.268,1.161.573,1.764.787.031.011.06-.033.029-.052" transform="translate(-13.08 -25.46)" fill="#263238"/>
        <g id="Grupo_882056" data-name="Grupo 882056" transform="translate(157.349 278.24)" opacity="0.1">
          <g id="Grupo_882055" data-name="Grupo 882055">
            <g id="Grupo_882054" data-name="Grupo 882054" clip-path="url(#clip-path-11)">
              <path id="Trazado_637074" data-name="Trazado 637074" d="M192.659,313.116c-7.639,11.036-12.8,16.991-12.8,16.991l-8.9-4.39L195.687,302.3c2.255.773,1.583,4.169-3.028,10.815" transform="translate(-170.956 -302.301)"/>
            </g>
          </g>
        </g>
        <path id="Trazado_637075" data-name="Trazado 637075" d="M169.246,367.624c.815.973,55.779.338,56.077,0,.815-.906-8.8-48.311-18.452-62.773-3.26-4.882-13.618-5.876-17.237-1.141-10.38,13.581-21.1,63.055-20.387,63.909" transform="translate(-13.468 -23.928)" fill="#ffb338"/>
        <path id="Trazado_637076" data-name="Trazado 637076" d="M217.772,332.7q-.014.028-.028.028a17.324,17.324,0,0,1-3.5,2.5,18.748,18.748,0,0,1-4.492,1.73,14.552,14.552,0,0,1-4.8.341,18.647,18.647,0,0,1-4.694-1.049,31.742,31.742,0,0,1-4.381-1.979c-1.555-.847-3.056-1.786-4.538-2.761-.083-.046-.156-.1-.239-.156-1.123-.736-2.227-1.491-3.341-2.237-1.1-.746-2.2-1.491-3.323-2.218-.074-.037-.138-.092-.221-.138-1.252-.8-2.522-1.565-3.847-2.246a.9.9,0,0,1,.046-.147c1.325.69,2.6,1.454,3.847,2.264.074.046.147.1.221.147,1.132.727,2.237,1.491,3.341,2.246s2.218,1.528,3.35,2.264a1.772,1.772,0,0,0,.239.156c.129.092.267.184.4.267,1.344.865,2.715,1.694,4.114,2.457a29.991,29.991,0,0,0,4.381,1.951,17.636,17.636,0,0,0,4.666,1.022,14.421,14.421,0,0,0,4.74-.359,18.4,18.4,0,0,0,4.436-1.749,16.339,16.339,0,0,0,3.249-2.319.862.862,0,0,0,.166-.156.589.589,0,0,0,.138-.129c.009.046.028.083.037.129s.028.092.037.138M207.6,306.043a18.525,18.525,0,0,0-2.743-.451,4.215,4.215,0,0,0-.488-.028,2.171,2.171,0,0,0-.35-.018,13.641,13.641,0,0,0-3.958.377,18.252,18.252,0,0,0-4.492,1.74,16.646,16.646,0,0,0-3.884,2.853,17.163,17.163,0,0,0-2.89,3.866,29.243,29.243,0,0,0-2.006,4.611.981.981,0,0,0-.064.175c-.488,1.39-.911,2.807-1.362,4.206-.341,1.086-.7,2.181-1.1,3.258a.533.533,0,0,0-.046.129,22.113,22.113,0,0,1-2.8,5.274,14.72,14.72,0,0,1-2.66,2.743c-.074.064-.147.12-.23.184-.166.129-.341.258-.515.377a14.214,14.214,0,0,1-1.289.792c-.037.129-.074.258-.11.4a16.928,16.928,0,0,0,1.565-.957c.249-.175.488-.35.718-.543.083-.064.166-.129.239-.193a15.4,15.4,0,0,0,2.5-2.632,21.984,21.984,0,0,0,2.8-5.3c.018-.037.028-.074.046-.12.423-1.1.782-2.218,1.141-3.323.451-1.417.874-2.844,1.371-4.243a1.28,1.28,0,0,1,.055-.175,29.046,29.046,0,0,1,1.97-4.528,16.489,16.489,0,0,1,6.655-6.664,17.866,17.866,0,0,1,4.436-1.74,13.492,13.492,0,0,1,3.746-.414c.12,0,.239.009.35.009.221.009.433.018.644.037a17.868,17.868,0,0,1,2.862.479c-.037-.064-.074-.12-.11-.175m-1.555-2.062a15.047,15.047,0,0,0-2.025,1.565c-.055.046-.11.092-.166.147q-.428.4-.828.828a17.279,17.279,0,0,0-2.724,3.985,48.536,48.536,0,0,0-3.037,9.13c-.3,1.1-.617,2.209-.985,3.3a.527.527,0,0,1-.037.129,21.337,21.337,0,0,1-2.559,5.394,15.068,15.068,0,0,1-2.513,2.835.249.249,0,0,1-.074.064c-.221.193-.442.377-.672.552a18.566,18.566,0,0,1-4.151,2.319,12.558,12.558,0,0,1-4.657.828,18.743,18.743,0,0,1-2.485-.221c-.129-.009-.249-.037-.377-.055q-.773-.124-1.546-.3c-.018.064-.037.129-.055.2.451.1.911.2,1.371.285.12.018.239.046.368.064a19.235,19.235,0,0,0,2.724.267,12.688,12.688,0,0,0,4.749-.819,18.074,18.074,0,0,0,4.225-2.347c.258-.193.506-.4.746-.617a.526.526,0,0,0,.074-.064,15.222,15.222,0,0,0,2.494-2.835,21.588,21.588,0,0,0,2.577-5.4c.009-.037.028-.083.037-.129.377-1.114.69-2.246,1-3.369a47.584,47.584,0,0,1,3.01-9.084,17.112,17.112,0,0,1,2.678-3.939,11.147,11.147,0,0,1,.994-.985.732.732,0,0,1,.166-.138,14.364,14.364,0,0,1,1.841-1.436,1.192,1.192,0,0,0-.166-.147M217.772,332.7c-.009-.046-.028-.092-.037-.138a.558.558,0,0,1-.175,0h-.129a18.138,18.138,0,0,1-4.7-.819,32,32,0,0,1-4.455-1.758q-2.154-1.063-4.225-2.283c-1.381-.819-2.734-1.666-4.1-2.522-1.132-.709-2.273-1.417-3.433-2.1a2.078,2.078,0,0,0-.239-.147,46.678,46.678,0,0,0-4.712-2.457,19.572,19.572,0,0,0-4.519-1.436.216.216,0,0,0-.074-.018l-.184-.028a12.186,12.186,0,0,0-4.473.064c-.028.083-.064.156-.092.239a11.933,11.933,0,0,1,4.5-.129c.074.009.147.028.221.037.018,0,.028.009.046.009a20.029,20.029,0,0,1,4.51,1.408,46.061,46.061,0,0,1,4.74,2.439c.083.046.166.1.239.147,1.151.672,2.283,1.362,3.415,2.062,2.724,1.675,5.44,3.387,8.33,4.8a30.757,30.757,0,0,0,4.464,1.795,18.175,18.175,0,0,0,4.7.847h.028c.11,0,.212.009.322.009h.037a.034.034,0,0,0-.009-.028m3.6,13.769a17.015,17.015,0,0,0-4.151,2.126,48.023,48.023,0,0,0-7.069,6.526c-.792.819-1.6,1.638-2.448,2.421-.037.037-.074.064-.1.092a21.7,21.7,0,0,1-4.851,3.488,15.025,15.025,0,0,1-4.51,1.445c-.037.009-.074.009-.11.018a18.7,18.7,0,0,1-4.648.009,12.037,12.037,0,0,1-3.6-1.077,3.262,3.262,0,0,1-.313-.147c-.184-.092-.377-.193-.561-.295a21.8,21.8,0,0,1-3.829-2.853c-2.043-1.841-3.9-3.884-6.01-5.67-.046-.046-.1-.083-.147-.129-.295-.249-.6-.488-.9-.727a18.363,18.363,0,0,0-4.133-2.457c-.193-.083-.4-.156-.6-.23a.462.462,0,0,0-.12-.046c-.009.028-.009.046-.018.074.009.009.028.009.037.018.221.083.442.175.663.267a18.728,18.728,0,0,1,4.087,2.485c.295.23.58.46.865.7a1.852,1.852,0,0,0,.147.129c2.089,1.8,3.949,3.866,5.992,5.743a21.951,21.951,0,0,0,3.847,2.9l.414.221c.1.055.212.11.313.156a12.221,12.221,0,0,0,3.829,1.206,18.072,18.072,0,0,0,4.832-.018h.018c.037-.009.064-.009.1-.018a15.429,15.429,0,0,0,4.482-1.463,21.71,21.71,0,0,0,4.86-3.488,1.011,1.011,0,0,0,.1-.092c.865-.8,1.694-1.638,2.494-2.476a48.317,48.317,0,0,1,7.023-6.5,17.249,17.249,0,0,1,4.077-2.089,2.469,2.469,0,0,0-.064-.249M212.2,365.455c-.819-1.381-1.592-2.78-2.375-4.179-.653-1.169-1.307-2.347-1.988-3.5-.046-.083-.092-.156-.138-.239a45.83,45.83,0,0,0-2.954-4.436,19.342,19.342,0,0,0-2.789-3.028,1.105,1.105,0,0,0-.193-.175c-.11-.1-.221-.193-.331-.285a12.2,12.2,0,0,0-4.243-2.264,15.33,15.33,0,0,0-4.8-.488,17.7,17.7,0,0,0-4.749.847,15.969,15.969,0,0,0-1.565.58,1,1,0,0,0-.258.1,34.512,34.512,0,0,0-6.627,3.9c-.055.046-.12.083-.175.129-.037.028-.083.055-.12.083a70.484,70.484,0,0,1-7.649,5.163c-.018.009-.028.018-.046.028a.6.6,0,0,1-.037.12.157.157,0,0,1-.009.064c.018-.009.028-.018.046-.028l.11-.055a71.962,71.962,0,0,0,7.731-5.163c.037-.028.083-.055.12-.083s.092-.064.138-.1a34.116,34.116,0,0,1,6.8-3.93c.083-.037.166-.074.249-.1.442-.175.893-.341,1.353-.479a18.563,18.563,0,0,1,4.694-.838,15.066,15.066,0,0,1,4.722.451,11.984,11.984,0,0,1,4.188,2.209,4.028,4.028,0,0,1,.313.267,1.144,1.144,0,0,1,.2.175,19.239,19.239,0,0,1,2.8,3,46.447,46.447,0,0,1,2.973,4.427c.046.074.092.156.138.239.681,1.141,1.344,2.3,2,3.452,1.316,2.319,2.614,4.657,4.068,6.894h.129c-.6-.911-1.178-1.832-1.73-2.761m-12.435-.46c-.469-.718-.92-1.445-1.371-2.172a2.4,2.4,0,0,1-.156-.258c-.35-.552-.681-1.1-1.022-1.648-.709-1.141-1.408-2.283-2.135-3.406-.055-.074-.1-.156-.156-.23a45.817,45.817,0,0,0-3.129-4.307,19.248,19.248,0,0,0-3.47-3.341,13.482,13.482,0,0,0-1.97-1.215c-.092-.046-.184-.083-.276-.129a11.27,11.27,0,0,0-2.089-.736,15.369,15.369,0,0,0-4.814-.285,17.572,17.572,0,0,0-4.7,1.04q-.594.221-1.16.469c-.018.064-.028.12-.046.184-.009.028-.009.046-.018.074,0,.009-.009.028-.009.037.018-.009.028-.018.046-.018a.249.249,0,0,1,.1-.046c.387-.175.773-.331,1.169-.469a18.185,18.185,0,0,1,4.648-1.031,14.9,14.9,0,0,1,4.74.249,11.271,11.271,0,0,1,1.878.635c.092.037.193.083.285.129a12.9,12.9,0,0,1,2.108,1.261,19.5,19.5,0,0,1,3.452,3.3,47.068,47.068,0,0,1,3.175,4.3c.046.074.092.156.147.23.727,1.114,1.436,2.246,2.135,3.369.331.534.672,1.077,1,1.611.055.092.11.175.166.258,1.169,1.878,2.365,3.737,3.691,5.513h.129q-1.229-1.643-2.347-3.359m21.464-19.117a13.788,13.788,0,0,0-3.442-1.1,18.366,18.366,0,0,0-4.814-.23,16.55,16.55,0,0,0-4.712,1.031,17.181,17.181,0,0,0-4.206,2.356,24.612,24.612,0,0,0-2.292,1.97,1.762,1.762,0,0,0-.138.129c-1.546,1.491-2.936,3.129-4.354,4.731-.764.856-1.537,1.712-2.347,2.522-.028.028-.055.064-.083.092a21.905,21.905,0,0,1-4.7,3.691c-.184.1-.377.2-.571.3a2.388,2.388,0,0,1-.267.129A14.729,14.729,0,0,1,185.7,362.7a18.257,18.257,0,0,1-4.749.23,12.289,12.289,0,0,1-4.538-1.325,21.656,21.656,0,0,1-3.949-2.688c-.423-.35-.838-.709-1.252-1.068-.009-.018-.028-.028-.037-.037a.157.157,0,0,1-.009.064.779.779,0,0,1-.037.156c.4.35.8.7,1.206,1.04a21.9,21.9,0,0,0,3.967,2.743,12.678,12.678,0,0,0,4.62,1.381,18.026,18.026,0,0,0,4.823-.221,15.193,15.193,0,0,0,3.875-1.325c.092-.046.175-.092.267-.138.138-.064.267-.138.4-.212a21.675,21.675,0,0,0,4.712-3.7.868.868,0,0,0,.092-.092c.828-.838,1.62-1.7,2.384-2.577,1.427-1.611,2.826-3.258,4.363-4.731a.852.852,0,0,1,.129-.129,24.983,24.983,0,0,1,2.255-1.933,16.888,16.888,0,0,1,4.142-2.338A16.646,16.646,0,0,1,213,344.755a18.316,18.316,0,0,1,4.758.2,13.576,13.576,0,0,1,3.525,1.123,1.6,1.6,0,0,0-.046-.2" transform="translate(-13.62 -24.195)" fill="#fff"/>
        <path id="Trazado_637077" data-name="Trazado 637077" d="M215.688,307.814c22.778,19.349,42.887,45.089,40.436,52.843-2.591,8.2-19.635,16.536-34.305,17.566-3.005.212-10.923-22.2-7.81-23.026,2.426-.641,13.431-3.07,14.813-4.478.961-.977-15.134-23.414-19.861-36.074-4.946-13.248.628-12.012,6.726-6.832" transform="translate(-16.48 -24.209)" fill="#ad6359"/>
        <path id="Trazado_637078" data-name="Trazado 637078" d="M217.764,359.288s-9.155.372-15.131.9c-3.334.293-9.005,1.3-11.356,2.64-3.516,2-16.947,12.6-14.448,15.909,2.263,3,6.206-1.3,6.206-1.3s-4.75,4.29-1.592,6.574c3.187,2.3,7.778-3.791,7.778-3.791s-5.359,4.2-1.755,6.32c3.128,1.837,9.178-4.608,9.178-4.608s-6.11,3.8-3.089,5.993c3.338,2.426,13.623-6.1,13.623-6.1,7.738,1.335,12.565,1.091,18.146-.121,1.023-.223-7.56-22.418-7.56-22.418" transform="translate(-14.05 -28.597)" fill="#ad6359"/>
        <path id="Trazado_637079" data-name="Trazado 637079" d="M188.653,382.86c.381-.463.774-.917,1.156-1.378a29.305,29.305,0,0,1,2.342-2.6c.824-.786,1.68-1.533,2.56-2.256.931-.764,1.943-1.436,2.852-2.221a.067.067,0,1,1,.085.1,31.223,31.223,0,0,0-2.585,2.451c-.828.818-1.646,1.648-2.463,2.479-.8.812-1.646,1.564-2.467,2.352-.41.391-.8.8-1.193,1.213a9.41,9.41,0,0,1-1.142,1.148c-.042.031-.092-.026-.071-.066a7.39,7.39,0,0,1,.926-1.224" transform="translate(-14.941 -29.798)" fill="#263238"/>
        <path id="Trazado_637080" data-name="Trazado 637080" d="M182.542,379.216a46.652,46.652,0,0,1,4.238-4.925,32.663,32.663,0,0,1,5.064-4.09.068.068,0,0,1,.084.1c-1.544,1.531-3.114,3.042-4.68,4.552-.766.739-4.141,4.2-4.539,4.516-.1.076-.219-.062-.166-.157" transform="translate(-14.528 -29.465)" fill="#263238"/>
        <path id="Trazado_637081" data-name="Trazado 637081" d="M194.462,386.421a46.146,46.146,0,0,1,4.068-4.558,41.944,41.944,0,0,1,5.12-3.586c.068-.033.143.055.084.1-1.608,1.322-3.234,2.61-4.779,4.007-.753.679-3.6,3.566-4.371,4.153-.07.052-.167-.045-.122-.118" transform="translate(-15.477 -30.108)" fill="#263238"/>
        <path id="Trazado_637082" data-name="Trazado 637082" d="M217.238,333.805l21.654-5.628s-16.226-16.171-24.2-21.633c-8.31-5.692-11.782-4.235-6.561,8.041,5.253,12.351,9.108,19.221,9.108,19.221" transform="translate(-16.369 -24.144)" fill="#ffb338"/>
        <path id="Trazado_637083" data-name="Trazado 637083" d="M219.372,310.167q-1.312-.828-2.678-1.574a30.741,30.741,0,0,0-4.381-1.988,18.31,18.31,0,0,0-4.7-1.04,4.215,4.215,0,0,0-.488-.028,2.171,2.171,0,0,0-.35-.018c-.359-.018-.727-.018-1.086-.009a1.056,1.056,0,0,0-.009.175c.313-.018.626-.028.93-.018.12,0,.239.009.35.009.221.009.433.018.644.037a18.479,18.479,0,0,1,4.666,1.022,31.979,31.979,0,0,1,4.372,1.951c1.1.6,2.172,1.233,3.231,1.887-.166-.138-.331-.276-.5-.4m-10.1-6.526a16.016,16.016,0,0,0-2.5,1.878c-.055.046-.11.092-.166.147q-.428.4-.828.828c-.028.028-.055.064-.083.092.009.11.018.23.037.35a3.05,3.05,0,0,1,.23-.276,11.147,11.147,0,0,1,.994-.985.732.732,0,0,1,.166-.138,15.827,15.827,0,0,1,2.411-1.8c-.092-.037-.175-.064-.258-.092m25.67,20.691a16.134,16.134,0,0,1-5.688,5.707,16.5,16.5,0,0,1-2.8,1.39l1.261-.322c.561-.267,1.114-.561,1.648-.884a17.013,17.013,0,0,0,3.764-3.019,16.283,16.283,0,0,0,2-2.688c-.064-.055-.12-.12-.184-.184" transform="translate(-16.37 -24.168)" fill="#fff"/>
        <path id="Trazado_637084" data-name="Trazado 637084" d="M228.732,318.794c-.221.626-.423,1.252-.626,1.887a48.027,48.027,0,0,1-3.424,8.983,16.961,16.961,0,0,1-2.89,3.866,2.2,2.2,0,0,1-.221.2,14.312,14.312,0,0,0,1.887-.092l-.93.239c-.368.018-.746.018-1.123.009a5.7,5.7,0,0,1-.442.4l-.543.147a5.929,5.929,0,0,0,.635-.552,18.707,18.707,0,0,1-3.847-.6,1.388,1.388,0,0,0-.083-.166,18.148,18.148,0,0,0,3.967.607h.129a4.939,4.939,0,0,0,.4-.368,16.892,16.892,0,0,0,2.835-3.811,47.927,47.927,0,0,0,3.405-8.946c.212-.663.423-1.335.663-2,.074.064.138.129.212.193" transform="translate(-17.282 -25.358)" fill="#fff"/>
        <path id="Trazado_637085" data-name="Trazado 637085" d="M218.771,331.608c.5-.192,1.029-.317,1.543-.463.529-.149,1.057-.3,1.585-.454,1.071-.308,2.147-.6,3.225-.881,2.152-.567,4.3-1.142,6.464-1.673.595-.145,1.19-.29,1.787-.421.63-.137,1.268-.228,1.9-.366.039-.008.047.049.01.06-.528.156-1.045.357-1.574.516s-1.086.319-1.632.468q-1.611.439-3.229.853c-2.124.543-4.247,1.094-6.382,1.592-.6.138-1.193.272-1.788.411-.623.145-1.253.328-1.887.414-.033,0-.052-.044-.018-.057" transform="translate(-17.411 -26.055)" fill="#263238"/>
        <path id="Trazado_637086" data-name="Trazado 637086" d="M210.058,321.87c-.026-.039.036-.078.065-.045a16.9,16.9,0,0,1,1.569,2.081c-.165-.364-.337-.724-.5-1.088-.522-1.174-1.023-2.359-1.547-3.533a.037.037,0,0,1,.066-.032c1.054,1.982,2.191,3.924,3.182,5.938s1.988,4.028,2.949,6.057c.53,1.119,1.1,2.542,1.626,3.661.65-.073,1.446-.312,2.143-.4.062-.008.067.093.007.109-.712.189-1.53.546-2.3.674-.1.017-3.677-7.151-5.275-10.609-.688-.919-1.359-1.852-1.99-2.809" transform="translate(-16.686 -25.409)" fill="#263238"/>
        <path id="Trazado_637087" data-name="Trazado 637087" d="M194.634,311.685c3.1.917,8.76-3.586,11.106-7.359.16-.259-.094-3.094-.238-6.552-.079-2.1-.119-4.439,0-6.576.027-.438-13.586,2.514-13.586,2.514a34.136,34.136,0,0,1,.84,8.278,4.735,4.735,0,0,1-.141.873c-.006.04-.021.087-.027.145-.364,1.651-.951,7.79,2.046,8.678" transform="translate(-15.275 -23.174)" fill="#ad6359"/>
        <path id="Trazado_637088" data-name="Trazado 637088" d="M204.674,291.212c-.822,3.579-3.554,12.185-10.715,11.951a8.092,8.092,0,0,1-1.368-.15.608.608,0,0,1,.026-.146,5.471,5.471,0,0,0,.143-.869,34.109,34.109,0,0,0-.844-8.285s9.82-2.13,12.759-2.5" transform="translate(-15.275 -23.178)" fill="#263238"/>
        <path id="Trazado_637089" data-name="Trazado 637089" d="M206.594,273.339c1.228,4.823-1.929,18.442-5.455,21.346-5.112,4.21-13.16,4.257-16.656-1.814-3.388-5.885,1.04-23.561,4.949-26.167,5.757-3.837,15.349-.49,17.162,6.635" transform="translate(-14.588 -21.1)" fill="#ad6359"/>
        <path id="Trazado_637090" data-name="Trazado 637090" d="M206.594,273.339c1.228,4.823-1.929,18.442-5.455,21.346-5.112,4.21-13.16,4.257-16.656-1.814-3.388-5.885,1.04-23.561,4.949-26.167,5.757-3.837,15.349-.49,17.162,6.635" transform="translate(-14.588 -21.1)" fill="#ad6359"/>
        <path id="Trazado_637091" data-name="Trazado 637091" d="M193.312,282.661c.015-.033.062.06.052.1-.237.911-.355,2,.406,2.489.024.015.011.061-.019.05-.981-.373-.81-1.81-.439-2.636" transform="translate(-15.363 -22.497)" fill="#263238"/>
        <path id="Trazado_637092" data-name="Trazado 637092" d="M194.357,281.821c1.5.223.946,3.211-.445,3.005-1.37-.2-.814-3.192.445-3.005" transform="translate(-15.371 -22.43)" fill="#263238"/>
        <path id="Trazado_637093" data-name="Trazado 637093" d="M187.575,281.644c0-.037-.081.03-.087.068-.143.931-.463,1.973-1.358,2.125-.028,0-.034.052,0,.053,1.048.046,1.46-1.342,1.446-2.247" transform="translate(-14.813 -22.416)" fill="#263238"/>
        <path id="Trazado_637094" data-name="Trazado 637094" d="M186.868,280.424c-1.468-.389-2.14,2.574-.781,2.936,1.339.355,2.011-2.609.781-2.936" transform="translate(-14.753 -22.317)" fill="#263238"/>
        <path id="Trazado_637095" data-name="Trazado 637095" d="M196.223,279.074a11.515,11.515,0,0,1-1.174-.423,2.018,2.018,0,0,1-1.116-.659.645.645,0,0,1,.109-.778,1.594,1.594,0,0,1,1.608-.153,2.339,2.339,0,0,1,1.342,1.023.685.685,0,0,1-.769.99" transform="translate(-15.429 -22.041)" fill="#263238"/>
        <path id="Trazado_637096" data-name="Trazado 637096" d="M185.931,278.572a11.979,11.979,0,0,0,1.245-.087,2.014,2.014,0,0,0,1.253-.331.643.643,0,0,0,.107-.778,1.6,1.6,0,0,0-1.506-.584,2.339,2.339,0,0,0-1.569.619.686.686,0,0,0,.47,1.162" transform="translate(-14.745 -22.03)" fill="#263238"/>
        <path id="Trazado_637097" data-name="Trazado 637097" d="M193.116,292.318c-.263.176-.539.433-.881.4a2.5,2.5,0,0,1-.952-.418.033.033,0,0,0-.049.04,1.268,1.268,0,0,0,1.081.721,1,1,0,0,0,.881-.683c.024-.052-.043-.085-.081-.059" transform="translate(-15.221 -23.265)" fill="#263238"/>
        <path id="Trazado_637098" data-name="Trazado 637098" d="M192.325,288.178a3.206,3.206,0,0,1-2.365,1.012,4.039,4.039,0,0,1-1.144-.159,1.159,1.159,0,0,1-.212-.065c-.066-.02-.125-.04-.2-.069a.234.234,0,0,1-.147-.241l0-.007a.423.423,0,0,1,.026-.093l0-.006.017-.081c.113-.716.384-1.787.384-1.787-.284.082-1.724.433-1.634.064a48.188,48.188,0,0,1,3-9.312.087.087,0,0,1,.164.054c-.612,2.959-1.74,5.79-2.4,8.752a5.644,5.644,0,0,1,1.572-.175c.1.048-.56,2.061-.584,2.387a.1.1,0,0,0,0,.035,4.442,4.442,0,0,0,3.452-.406c.078-.04.14.036.071.1" transform="translate(-14.888 -22.077)" fill="#263238"/>
        <path id="Trazado_637099" data-name="Trazado 637099" d="M189.5,289.679a3.808,3.808,0,0,0,1.281,1.44,1.707,1.707,0,0,0,1.011.253c.775-.056.919-.732.892-1.337a4.1,4.1,0,0,0-.166-.95,4.923,4.923,0,0,1-3.018.595" transform="translate(-15.083 -23.009)" fill="#263238"/>
        <path id="Trazado_637100" data-name="Trazado 637100" d="M190.892,291.2a1.713,1.713,0,0,0,1.01.254c.776-.057.92-.733.893-1.338a1.768,1.768,0,0,0-1.9,1.084" transform="translate(-15.194 -23.091)" fill="#ff97b8"/>
        <g id="Grupo_882059" data-name="Grupo 882059" transform="translate(188.305 247.348)" opacity="0.2">
          <g id="Grupo_882058" data-name="Grupo 882058">
            <g id="Grupo_882057" data-name="Grupo 882057" clip-path="url(#clip-path-12)">
              <path id="Trazado_637101" data-name="Trazado 637101" d="M207.733,283.689c-.873-.362-2.3-3.939-2.93-5.376-.665-1.492.4-8.079.671-9.575a10.077,10.077,0,0,1,2.868,4.8c.565,2.187.238,6.156-.609,10.151" transform="translate(-204.589 -268.738)" fill="#263238"/>
            </g>
          </g>
        </g>
        <path id="Trazado_637102" data-name="Trazado 637102" d="M191.96,271.658a4.8,4.8,0,0,0,3.964,2.479,4.9,4.9,0,0,0,4.281-2.1.039.039,0,0,1,.065.041,4.848,4.848,0,0,1-4.358,2.449,4.945,4.945,0,0,1-4.056-2.812.059.059,0,0,1,.1-.057" transform="translate(-15.27 -21.62)" fill="#263238"/>
        <path id="Trazado_637103" data-name="Trazado 637103" d="M199.331,260.129a7.557,7.557,0,0,1,5.514,4.705,5.385,5.385,0,0,1-.2,3.542c-.017.045-.112.016-.1-.031a5.91,5.91,0,0,0-1.652-5.795,7.615,7.615,0,0,0-6.435-2.153,4.817,4.817,0,0,0-2.955,1.512c-.074.087-.264-.018-.2-.11,1.089-1.548,3.567-2.232,6.021-1.67" transform="translate(-15.385 -20.689)" fill="#263238"/>
        <path id="Trazado_637104" data-name="Trazado 637104" d="M181.282,262.756a6.131,6.131,0,0,1,3.225-2.7c1.884-.69,3.742-.148,5.578.429a.04.04,0,0,1-.024.077,8.455,8.455,0,0,0-4.8-.439,6.035,6.035,0,0,0-3.324,2.31,5.877,5.877,0,0,0,.911,7.639,5.964,5.964,0,0,0,4.513,1.419c.064-.006.089.09.024.1a6,6,0,0,1-6.1-8.833" transform="translate(-14.37 -20.673)" fill="#263238"/>
        <path id="Trazado_637105" data-name="Trazado 637105" d="M206.866,275.7s3.572-4.353,1.977-7.613c-.9-1.847-5.015-2.457-5.015-2.457a7.482,7.482,0,0,0-4.054-4.053c-3.25-1.465-7.7-.292-7.7-.292s-2.862-2.5-6.239-1.382c-4.711,1.564-5.478,8.105-1.642,11.029,2.693,2.053,7.279.227,7.279.227.379.131,3.887,3.341,7.622.387,0,0,2.014,2.674,4.523,1.59a3.626,3.626,0,0,0,3.249,2.563" transform="translate(-14.466 -20.664)" fill="#263238"/>
        <path id="Trazado_637106" data-name="Trazado 637106" d="M204.758,285.787s3.4-4.228,5.339-2.987-.826,7.517-3.248,8.238a2.41,2.41,0,0,1-3.135-1.509Z" transform="translate(-16.214 -22.491)" fill="#ad6359"/>
        <path id="Trazado_637107" data-name="Trazado 637107" d="M209.372,284.753a.033.033,0,0,1,.008.064,6.086,6.086,0,0,0-3.4,3.591,1.33,1.33,0,0,1,2.01-.229c.041.033,0,.1-.051.086a1.48,1.48,0,0,0-1.662.407,7.118,7.118,0,0,0-.868,1.264c-.087.143-.35.046-.282-.121,0-.012.011-.025.016-.037.1-2.116,1.942-4.963,4.225-5.024" transform="translate(-16.326 -22.664)" fill="#263238"/>
        <path id="Trazado_637108" data-name="Trazado 637108" d="M207.277,306.426a62.443,62.443,0,0,1-4.786,5.114,10.261,10.261,0,0,1-5.774,2.959c-2.128.175-4.249-.278-5.009-2.887a15.7,15.7,0,0,1-.091-6.828.081.081,0,1,0-.157-.027c-.514,3.4-1.073,8.666,2.009,9.87,3.447,1.348,6.858-.4,9.312-2.769a32.074,32.074,0,0,0,4.558-5.38c.026-.039-.03-.087-.062-.052" transform="translate(-15.207 -24.25)" fill="#263238"/>
      </g>
    </g>
  </g>
</svg>
