<svg xmlns="http://www.w3.org/2000/svg" xmlns:xlink="http://www.w3.org/1999/xlink" width="150" height="150" viewBox="0 0 150 150">
  <defs>
    <filter id="Elipse_6969" x="0" y="0" width="150" height="150" filterUnits="userSpaceOnUse">
      <feOffset dy="3" input="SourceAlpha"/>
      <feGaussianBlur stdDeviation="3" result="blur"/>
      <feFlood flood-opacity="0.161"/>
      <feComposite operator="in" in2="blur"/>
      <feComposite in="SourceGraphic"/>
    </filter>
  </defs>
  <g id="Grupo_1034478" data-name="Grupo 1034478" transform="translate(-1080.257 -9167.289)">
    <g transform="matrix(1, 0, 0, 1, 1080.26, 9167.29)" filter="url(#Elipse_6969)">
      <circle id="Elipse_6969-2" data-name="Elipse 6969" cx="66" cy="66" r="66" transform="translate(9 6)" fill="#b6e1fd"/>
    </g>
    <g id="Grupo_883291" data-name="Grupo 883291" transform="translate(1122 9198.842)">
      <path id="Trazado_642201" data-name="Trazado 642201" d="M19.206,30.413A15.206,15.206,0,1,1,34.413,15.206,15.224,15.224,0,0,1,19.206,30.413Z" transform="translate(8.165)" fill="#12263f"/>
      <path id="Trazado_642202" data-name="Trazado 642202" d="M14.446,12.032A14.459,14.459,0,0,0,0,26.478V37.122A2.3,2.3,0,0,0,2.281,39.4H30.413V29.519a11.423,11.423,0,0,1,9.762-11.253,11.7,11.7,0,0,1,4.2-5.657c-3.041-.87-3.205-.578-29.926-.578Z" transform="translate(0 24.464)" fill="#12263f"/>
      <path id="Trazado_642203" data-name="Trazado 642203" d="M42.158,21.1h-3.8V18.822A5.328,5.328,0,0,0,33.035,13.5h-7.6a5.328,5.328,0,0,0-5.322,5.322V21.1h-3.8A5.29,5.29,0,0,0,12.5,22.724l16.736,8.731,16.736-8.731A5.29,5.29,0,0,0,42.158,21.1Zm-17.487,0V18.822a.761.761,0,0,1,.76-.76h7.6a.761.761,0,0,1,.76.76V21.1Z" transform="translate(25.51 27.557)" fill="#12263f"/>
      <path id="Trazado_642204" data-name="Trazado 642204" d="M31.3,26.937a2.283,2.283,0,0,1-2.108,0L12,17.965V31a5.328,5.328,0,0,0,5.322,5.322H43.173A5.328,5.328,0,0,0,48.5,31V17.965Z" transform="translate(24.495 36.671)" fill="#12263f"/>
    </g>
  </g>
</svg>
