<svg id="Grupo_882184" data-name="Grupo 882184" xmlns="http://www.w3.org/2000/svg" xmlns:xlink="http://www.w3.org/1999/xlink" width="428.466" height="366.821" viewBox="0 0 428.466 366.821">
  <defs>
    <clipPath id="clip-path">
      <rect id="Rectángulo_330327" data-name="Rectángulo 330327" width="428.466" height="366.821" fill="none"/>
    </clipPath>
    <clipPath id="clip-path-5">
      <rect id="Rectángulo_330288" data-name="Rectángulo 330288" width="106.876" height="104.861" fill="none"/>
    </clipPath>
    <clipPath id="clip-path-6">
      <rect id="Rectángulo_330289" data-name="Rectángulo 330289" width="7.16" height="12.247" fill="none"/>
    </clipPath>
    <clipPath id="clip-path-7">
      <rect id="Rectángulo_330290" data-name="Rectángulo 330290" width="26.066" height="63.296" fill="none"/>
    </clipPath>
    <clipPath id="clip-path-8">
      <rect id="Rectángulo_330291" data-name="Rectángulo 330291" width="9.435" height="9.876" fill="none"/>
    </clipPath>
    <clipPath id="clip-path-9">
      <rect id="Rectángulo_330292" data-name="Rectángulo 330292" width="5.968" height="5.968" fill="none"/>
    </clipPath>
    <clipPath id="clip-path-11">
      <rect id="Rectángulo_330294" data-name="Rectángulo 330294" width="5.916" height="24.096" fill="none"/>
    </clipPath>
    <clipPath id="clip-path-12">
      <rect id="Rectángulo_330295" data-name="Rectángulo 330295" width="162.173" height="287.699" fill="none"/>
    </clipPath>
    <clipPath id="clip-path-13">
      <rect id="Rectángulo_330296" data-name="Rectángulo 330296" width="21.339" height="4.226" fill="none"/>
    </clipPath>
    <clipPath id="clip-path-14">
      <rect id="Rectángulo_330297" data-name="Rectángulo 330297" width="155.975" height="287.699" fill="none"/>
    </clipPath>
    <clipPath id="clip-path-16">
      <rect id="Rectángulo_330299" data-name="Rectángulo 330299" width="51.117" height="38.981" fill="none"/>
    </clipPath>
    <clipPath id="clip-path-17">
      <rect id="Rectángulo_330300" data-name="Rectángulo 330300" width="15.012" height="39.008" fill="none"/>
    </clipPath>
    <clipPath id="clip-path-18">
      <rect id="Rectángulo_330301" data-name="Rectángulo 330301" width="7.107" height="7.43" fill="none"/>
    </clipPath>
    <clipPath id="clip-path-19">
      <rect id="Rectángulo_330302" data-name="Rectángulo 330302" width="4.252" height="7.37" fill="none"/>
    </clipPath>
    <clipPath id="clip-path-20">
      <rect id="Rectángulo_330303" data-name="Rectángulo 330303" width="18.22" height="17.522" fill="none"/>
    </clipPath>
    <clipPath id="clip-path-21">
      <rect id="Rectángulo_330304" data-name="Rectángulo 330304" width="14.25" height="66.515" fill="none"/>
    </clipPath>
    <clipPath id="clip-path-22">
      <rect id="Rectángulo_330305" data-name="Rectángulo 330305" width="8.125" height="7.806" fill="none"/>
    </clipPath>
    <clipPath id="clip-path-23">
      <rect id="Rectángulo_330306" data-name="Rectángulo 330306" width="17.323" height="23.949" fill="none"/>
    </clipPath>
    <clipPath id="clip-path-24">
      <rect id="Rectángulo_330307" data-name="Rectángulo 330307" width="32.173" height="8.627" fill="none"/>
    </clipPath>
    <clipPath id="clip-path-25">
      <rect id="Rectángulo_330308" data-name="Rectángulo 330308" width="32.531" height="9.26" fill="none"/>
    </clipPath>
    <clipPath id="clip-path-26">
      <rect id="Rectángulo_330309" data-name="Rectángulo 330309" width="17.029" height="5.551" fill="none"/>
    </clipPath>
    <clipPath id="clip-path-28">
      <rect id="Rectángulo_330311" data-name="Rectángulo 330311" width="100.548" height="98.652" fill="none"/>
    </clipPath>
    <clipPath id="clip-path-29">
      <rect id="Rectángulo_330312" data-name="Rectángulo 330312" width="15.412" height="29.04" fill="none"/>
    </clipPath>
    <clipPath id="clip-path-30">
      <rect id="Rectángulo_330313" data-name="Rectángulo 330313" width="26.749" height="12.817" fill="none"/>
    </clipPath>
    <clipPath id="clip-path-31">
      <rect id="Rectángulo_330314" data-name="Rectángulo 330314" width="10.24" height="35.652" fill="none"/>
    </clipPath>
    <clipPath id="clip-path-32">
      <rect id="Rectángulo_330315" data-name="Rectángulo 330315" width="13.231" height="17.021" fill="none"/>
    </clipPath>
    <clipPath id="clip-path-35">
      <rect id="Rectángulo_330318" data-name="Rectángulo 330318" width="45.143" height="52.095" fill="none"/>
    </clipPath>
    <clipPath id="clip-path-36">
      <rect id="Rectángulo_330319" data-name="Rectángulo 330319" width="4.89" height="9.49" fill="none"/>
    </clipPath>
    <clipPath id="clip-path-37">
      <rect id="Rectángulo_330320" data-name="Rectángulo 330320" width="24.798" height="13.03" fill="none"/>
    </clipPath>
    <clipPath id="clip-path-38">
      <rect id="Rectángulo_330321" data-name="Rectángulo 330321" width="1.646" height="11.724" fill="none"/>
    </clipPath>
    <clipPath id="clip-path-39">
      <rect id="Rectángulo_330322" data-name="Rectángulo 330322" width="5.068" height="7.918" fill="none"/>
    </clipPath>
    <clipPath id="clip-path-41">
      <rect id="Rectángulo_330324" data-name="Rectángulo 330324" width="40.884" height="36.432" fill="none"/>
    </clipPath>
    <clipPath id="clip-path-42">
      <rect id="Rectángulo_330325" data-name="Rectángulo 330325" width="31.349" height="27.935" fill="none"/>
    </clipPath>
  </defs>
  <g id="Grupo_882183" data-name="Grupo 882183" clip-path="url(#clip-path)">
    <g id="Grupo_882069" data-name="Grupo 882069">
      <g id="Grupo_882068" data-name="Grupo 882068" clip-path="url(#clip-path)">
        <path id="Trazado_637111" data-name="Trazado 637111" d="M355.527,73.081H311.848a7.523,7.523,0,0,0-7.523,7.523v28.134a7.524,7.524,0,0,0,7.523,7.525h12.56l5.609,7.336a4.622,4.622,0,0,0,7.342,0l5.609-7.336h12.56a7.524,7.524,0,0,0,7.523-7.525V80.6a7.523,7.523,0,0,0-7.523-7.523" transform="translate(31.932 7.668)" fill="#e0e0e0"/>
        <path id="Trazado_637112" data-name="Trazado 637112" d="M322.7,96.535a9.361,9.361,0,0,1-3.13-6.586,5.652,5.652,0,0,1,6.012-5.972c3.377,0,4.529,1.566,6.506,3.83,1.977-2.264,3.13-3.83,6.506-3.83a5.652,5.652,0,0,1,6.012,5.972,9.361,9.361,0,0,1-3.13,6.586l-9.387,9.349Z" transform="translate(33.531 8.811)" fill="#fff"/>
        <path id="Trazado_637113" data-name="Trazado 637113" d="M45.1,274.694a11.033,11.033,0,0,1-3.687-7.762A6.659,6.659,0,0,1,48.5,259.9c3.978,0,5.337,1.845,7.666,4.511,2.328-2.666,3.687-4.511,7.665-4.511a6.66,6.66,0,0,1,7.084,7.036,11.031,11.031,0,0,1-3.688,7.762l-11.06,11.014Z" transform="translate(4.345 27.27)" fill="#e0e0e0"/>
        <path id="Trazado_637114" data-name="Trazado 637114" d="M67.575,285.4a6.742,6.742,0,0,1-2.254-4.746,4.07,4.07,0,0,1,4.329-4.3c2.432,0,3.263,1.127,4.687,2.758,1.423-1.631,2.254-2.758,4.686-2.758a4.071,4.071,0,0,1,4.33,4.3A6.744,6.744,0,0,1,81.1,285.4l-6.761,6.733Z" transform="translate(6.854 28.997)" fill="#ebebeb"/>
        <path id="Trazado_637115" data-name="Trazado 637115" d="M329.686.551H279.572a8.632,8.632,0,0,0-8.632,8.632V41.462a8.632,8.632,0,0,0,8.632,8.632h14.41l6.435,8.416a5.3,5.3,0,0,0,8.423,0l6.435-8.416h14.41a8.632,8.632,0,0,0,8.632-8.632V9.183A8.632,8.632,0,0,0,329.686.551" transform="translate(28.429 0.058)" fill="#f5f5f5"/>
        <path id="Trazado_637116" data-name="Trazado 637116" d="M287.278,36.633h5.677V16.448h-6.623Z" transform="translate(30.044 1.726)" fill="#e0e0e0"/>
        <path id="Trazado_637117" data-name="Trazado 637117" d="M318.42,20.547c-.288-.895-1.192-2.769-2.05-3.153-2.489-1.117-7.938-.76-12.759-.126a9.8,9.8,0,0,0,.465-.98,14.62,14.62,0,0,0,1-4.55c-.072-1.067-.569-3.444-1.473-4.015a2.542,2.542,0,0,0-2.275,0c-.954,1-.289,4.159-.668,5.487-.349,1.221-1.939,3.371-3.3,5.057-1.684.313-2.759.546-2.759.546V36.631s14.554,3.961,19.238,2.681c1.8-.492,2.651-3.614,3.311-5.361,1.188-3.138,2.29-10.211,1.262-13.4" transform="translate(30.912 0.782)" fill="#e0e0e0"/>
        <path id="Trazado_637118" data-name="Trazado 637118" d="M212.716,27.031a12.631,12.631,0,0,0-12.59-11.611H191.05a12.631,12.631,0,0,0-12.59,11.611l-.762,7.7h35.781Z" transform="translate(18.645 1.618)" fill="#ebebeb"/>
        <path id="Trazado_637119" data-name="Trazado 637119" d="M203.218,8.519a8.52,8.52,0,1,0-8.52,8.519,8.52,8.52,0,0,0,8.52-8.519" transform="translate(19.535)" fill="#ebebeb"/>
        <path id="Trazado_637120" data-name="Trazado 637120" d="M42.919,134.6a5.674,5.674,0,0,0-3.593,1.277l-6.839-5.514A5.69,5.69,0,1,0,31,132.213l6.839,5.514a5.66,5.66,0,0,0,0,5.142L31,148.383a5.726,5.726,0,1,0,1.488,1.85l6.839-5.512A5.7,5.7,0,1,0,42.919,134.6" transform="translate(2.278 12.811)" fill="#e0e0e0"/>
      </g>
    </g>
    <g id="Grupo_882071" data-name="Grupo 882071">
      <g id="Grupo_882070" data-name="Grupo 882070" clip-path="url(#clip-path)">
        <path id="Trazado_637121" data-name="Trazado 637121" d="M428.466,321.852c0,6.91-95.915,12.511-214.233,12.511S0,328.762,0,321.852s95.915-12.511,214.233-12.511,214.233,5.6,214.233,12.511" transform="translate(0 32.458)" fill="#f5f5f5"/>
      </g>
    </g>
    <g id="Grupo_882088" data-name="Grupo 882088">
      <g id="Grupo_882087" data-name="Grupo 882087" clip-path="url(#clip-path)">
        <path id="Trazado_637122" data-name="Trazado 637122" d="M291.855,180.361h83.624a11.626,11.626,0,0,1,11.626,11.626v63.564a11.626,11.626,0,0,1-11.626,11.626H312.336a20.543,20.543,0,0,1-20.384,18.045c-.465,0-.92-.039-1.378-.07,3.267-4.3,5.935-10.542,7.68-17.975h-6.4a11.626,11.626,0,0,1-11.626-11.626V191.987a11.626,11.626,0,0,1,11.626-11.626" transform="translate(29.403 18.925)" fill="#407bff"/>
        <g id="Grupo_882074" data-name="Grupo 882074" transform="translate(309.632 199.725)" opacity="0.4">
          <g id="Grupo_882073" data-name="Grupo 882073">
            <g id="Grupo_882072" data-name="Grupo 882072" clip-path="url(#clip-path-5)">
              <path id="Trazado_637123" data-name="Trazado 637123" d="M291.855,180.361h83.624a11.626,11.626,0,0,1,11.626,11.626v63.564a11.626,11.626,0,0,1-11.626,11.626H312.336a20.543,20.543,0,0,1-20.384,18.045c-.465,0-.92-.039-1.378-.07,3.267-4.3,5.935-10.542,7.68-17.975h-6.4a11.626,11.626,0,0,1-11.626-11.626V191.987a11.626,11.626,0,0,1,11.626-11.626" transform="translate(-280.229 -180.361)" fill="#fff"/>
            </g>
          </g>
        </g>
        <path id="Trazado_637124" data-name="Trazado 637124" d="M288.2,204.192l-4.134-6.988,2.583-4.462a2.237,2.237,0,0,0,.154-1.916l-.192-.5a2.235,2.235,0,0,0-2.028-1.436l-4.055-.106a2.231,2.231,0,0,0-2.018,1.161l-.822,1.5a2.636,2.636,0,0,0-.08,2.372l1.748,3.77,3.232,8.668Z" transform="translate(29.103 19.808)" fill="#7f3e3b"/>
        <path id="Trazado_637125" data-name="Trazado 637125" d="M320.847,201.957,297.24,219.141,286.15,198.4l-6.3,2.725s9.71,31.448,15.352,30.18,21.579-9.148,26.767-14.557c2.614-2.726,4.606-7.728,2.021-13.919a2.082,2.082,0,0,0-3.145-.867" transform="translate(29.364 20.817)" fill="#ffb338"/>
        <path id="Trazado_637126" data-name="Trazado 637126" d="M325.465,164.6s-8.34,2.187-4.476,12.246c0,0,4.149-1.092,4.826-3.782s1.312-6.452,1.312-6.452Z" transform="translate(33.573 17.271)" fill="#263238"/>
        <g id="Grupo_882077" data-name="Grupo 882077" transform="translate(353.54 181.868)" opacity="0.3">
          <g id="Grupo_882076" data-name="Grupo 882076">
            <g id="Grupo_882075" data-name="Grupo 882075" clip-path="url(#clip-path-6)">
              <path id="Trazado_637127" data-name="Trazado 637127" d="M325.465,164.6s-8.34,2.187-4.476,12.246c0,0,4.149-1.092,4.826-3.782s1.312-6.452,1.312-6.452Z" transform="translate(-319.967 -164.597)"/>
            </g>
          </g>
        </g>
        <path id="Trazado_637128" data-name="Trazado 637128" d="M344.892,200.768l-15.226-.5-6.3.913-.853,11.481,12.268,4.082,13.092-2.61.685-11.063-.933-2.211Z" transform="translate(33.84 21.013)" fill="#7f3e3b"/>
        <path id="Trazado_637129" data-name="Trazado 637129" d="M324.117,264.944h21.544c.218-7.59,1.338-47,1.1-46.764-.263.263,2.274-8.4,2.274-8.4v-3.5l-2.274-3.762s-4.89,7.455-12.933,7.086c-7.624-.35-8.937-7.96-8.937-7.96l-.961,11.634-.962,28.167,1.224,11.939Z" transform="translate(33.888 21.158)" fill="#ffb338"/>
        <g id="Grupo_882080" data-name="Grupo 882080" transform="translate(356.289 226.065)" opacity="0.6">
          <g id="Grupo_882079" data-name="Grupo 882079">
            <g id="Grupo_882078" data-name="Grupo 882078" clip-path="url(#clip-path-7)">
              <path id="Trazado_637130" data-name="Trazado 637130" d="M324.117,264.944h21.544c.218-7.59,1.338-47,1.1-46.764-.263.263,2.274-8.4,2.274-8.4v-3.5l-2.274-3.762s-4.89,7.455-12.933,7.086c-7.624-.35-8.937-7.96-8.937-7.96l-.961,11.634-.962,28.167,1.224,11.939Z" transform="translate(-322.969 -201.647)" fill="#fff"/>
            </g>
          </g>
        </g>
        <path id="Trazado_637131" data-name="Trazado 637131" d="M316.692,265.138h11.675c2.294-15.2,2.6-43,2.6-43a144.715,144.715,0,0,1-3.262-16.166c-.7-6.37,8.4-5.527,16.358-4.477s-6.192,21.169-6.192,21.169-1,27.2,1.329,42.477h28.784c-1.439-4.05-5.678-16.508-6.691-25.333-1.224-10.671,6.124-26.242,5.072-33.836s-26.22-6.048-26.22-6.048-16.122-.106-19.715.056c-4.205.189-5.877,11.25-7.864,19.988s1.666,17.392,3.658,28.389a56.127,56.127,0,0,1,.465,16.784" transform="translate(32.736 20.963)" fill="#263238"/>
        <path id="Trazado_637132" data-name="Trazado 637132" d="M328.407,199.887c5.243,0,10.637.034,10.637.034s3.221-.2,7.4-.1c1.664,1.14,3.864,3.776,2.111,9.371l-3.646,1.4.666,3.587s-4.2,6.655-8.832,9.179c.014-.446.023-.694.023-.694s14.154-20.118,6.192-21.168S325.9,199.6,326.6,205.97a144.666,144.666,0,0,0,3.263,16.166s0,.106,0,.3c-2.244-2-4.153-5.541-5.538-9.744l1.487-4.134-3.3-1.814a8.841,8.841,0,0,1,5.894-6.854" transform="translate(33.84 20.964)" fill="#ffb338"/>
        <path id="Trazado_637133" data-name="Trazado 637133" d="M327.722,207.632a3.788,3.788,0,0,1,.327-3.646c5.985-2.029,5.437-6.523,4.058-10.693l9.648-9.84c-.572,5.242-.784,17.291,2.642,21.49v.96a13.087,13.087,0,0,1-12.865,4.792,5.023,5.023,0,0,1-3.811-3.062" transform="translate(34.355 19.249)" fill="#7f3e3b"/>
        <g id="Grupo_882083" data-name="Grupo 882083" transform="translate(366.462 204.726)" opacity="0.1">
          <g id="Grupo_882082" data-name="Grupo 882082">
            <g id="Grupo_882081" data-name="Grupo 882081" clip-path="url(#clip-path-8)">
              <path id="Trazado_637134" data-name="Trazado 637134" d="M331.662,193.1l7.663-7.815,1.772.635c-.054.944-.092,1.971-.107,3.054-.969,1.988-3.3,4.783-8.748,6.186-.156-.687-.355-1.379-.58-2.061" transform="translate(-331.662 -185.285)"/>
            </g>
          </g>
        </g>
        <path id="Trazado_637135" data-name="Trazado 637135" d="M347.465,177.1c-2.334,8.918-3.125,12.743-8.593,16.477-8.228,5.621-18.668.811-19.053-8.624-.346-8.492,3.52-21.641,13.057-23.5A12.57,12.57,0,0,1,347.465,177.1" transform="translate(33.555 16.915)" fill="#7f3e3b"/>
        <path id="Trazado_637136" data-name="Trazado 637136" d="M326,177.675a19.968,19.968,0,0,1-3.541,4.18,3.207,3.207,0,0,0,2.517,1.014Z" transform="translate(33.834 18.643)" fill="#630f0f"/>
        <path id="Trazado_637137" data-name="Trazado 637137" d="M334.586,174.956a.407.407,0,0,0,.182-.051.364.364,0,0,0,.126-.5l0-.007a4.267,4.267,0,0,0-3.307-2.14.375.375,0,0,0-.376.355.366.366,0,0,0,.345.376,3.579,3.579,0,0,1,2.719,1.8.367.367,0,0,0,.315.172" transform="translate(34.752 18.074)" fill="#263238"/>
        <path id="Trazado_637138" data-name="Trazado 637138" d="M320.933,172.379a.4.4,0,0,0,.182-.05,3.574,3.574,0,0,1,3.236-.214.364.364,0,0,0,.495-.147l0,0a.374.374,0,0,0-.162-.5,4.305,4.305,0,0,0-3.936.222.365.365,0,0,0,.182.689" transform="translate(33.634 17.952)" fill="#263238"/>
        <path id="Trazado_637139" data-name="Trazado 637139" d="M328.252,184.791a7.188,7.188,0,0,1-1.278-.112.222.222,0,0,1-.183-.256v-.008a.223.223,0,0,1,.253-.182,6.088,6.088,0,0,0,5.266-1.471.226.226,0,1,1,.335.3,6.31,6.31,0,0,1-4.393,1.725" transform="translate(34.289 19.169)" fill="#263238"/>
        <path id="Trazado_637140" data-name="Trazado 637140" d="M344.182,184.265a11.332,11.332,0,0,1-2.711-9.064s-3.587-3.671-3.412-7.607c0,0-1.062,3.135-.006,5.373,0,0-9.309-.678-9.091-5.373,0,0-.612,2.362.787,3.587,0,0-8.271.35-7.153-3.936s7.6-6.386,7.6-6.386,6.178-5.248,14.718,4.024c0,0,10.058,6.279,2.928,16.75Z" transform="translate(33.838 16.723)" fill="#263238"/>
        <path id="Trazado_637141" data-name="Trazado 637141" d="M346.16,182.868a6.716,6.716,0,0,1-3.957,3.287c-2.263.68-3.44-1.329-2.851-3.49.527-1.937,2.344-4.636,4.636-4.372a3.042,3.042,0,0,1,2.171,4.576" transform="translate(35.591 18.706)" fill="#7f3e3b"/>
        <path id="Trazado_637142" data-name="Trazado 637142" d="M331.9,176.665c-.078.766-.554,1.346-1.063,1.3s-.845-.715-.757-1.492.554-1.346,1.053-1.3.844.714.767,1.491" transform="translate(34.632 18.38)" fill="#2e353a"/>
        <path id="Trazado_637143" data-name="Trazado 637143" d="M324.012,175.84c-.078.766-.554,1.346-1.053,1.3s-.844-.714-.767-1.491.554-1.346,1.053-1.3.855.714.767,1.491" transform="translate(33.805 18.294)" fill="#2e353a"/>
        <path id="Trazado_637144" data-name="Trazado 637144" d="M323.51,174.477l-1.793-.724s.8,1.54,1.793.724" transform="translate(33.757 18.231)" fill="#2e353a"/>
        <path id="Trazado_637145" data-name="Trazado 637145" d="M331.4,175.3l-1.793-.724s.8,1.54,1.793.724" transform="translate(34.584 18.318)" fill="#2e353a"/>
        <path id="Trazado_637146" data-name="Trazado 637146" d="M341.7,189.755a2.983,2.983,0,0,0,2.2-5l-.387.356a2.453,2.453,0,1,1-.805-.581l.215-.48a2.984,2.984,0,1,0-1.22,5.708" transform="translate(35.541 19.284)" fill="#407bff"/>
        <g id="Grupo_882086" data-name="Grupo 882086" transform="translate(374.258 203.071)" opacity="0.6">
          <g id="Grupo_882085" data-name="Grupo 882085">
            <g id="Grupo_882084" data-name="Grupo 882084" clip-path="url(#clip-path-9)">
              <path id="Trazado_637147" data-name="Trazado 637147" d="M341.7,189.755a2.983,2.983,0,0,0,2.2-5l-.387.356a2.453,2.453,0,1,1-.805-.581l.215-.48a2.984,2.984,0,1,0-1.22,5.708" transform="translate(-338.718 -183.787)" fill="#fff"/>
            </g>
          </g>
        </g>
        <path id="Trazado_637148" data-name="Trazado 637148" d="M341.218,230.51l-8.111.352-2.718-4.381a2.234,2.234,0,0,0-1.617-1.039l-.535-.067a2.235,2.235,0,0,0-2.222,1.112l-2,3.527a2.232,2.232,0,0,0,.073,2.327l.938,1.433a2.637,2.637,0,0,0,2.055,1.188l4.149.235,9.169,1.234Z" transform="translate(33.967 23.646)" fill="#7f3e3b"/>
        <path id="Trazado_637149" data-name="Trazado 637149" d="M354.517,203.455l4.031,28.919-23.524,0-.564,6.84s32.312,6.257,33.853.683,2.1-23.344-.225-30.469c-1.171-3.59-4.645-7.7-11.324-8.341a2.082,2.082,0,0,0-2.246,2.365" transform="translate(35.094 21.099)" fill="#ffb338"/>
      </g>
    </g>
    <g id="Grupo_882102" data-name="Grupo 882102">
      <g id="Grupo_882101" data-name="Grupo 882101" clip-path="url(#clip-path)">
        <path id="Trazado_637150" data-name="Trazado 637150" d="M264.509,52.291H238.687L212.646,349.935h25.822a24.127,24.127,0,0,0,23.568-21.672l22.249-254.3a19.542,19.542,0,0,0-19.776-21.672" transform="translate(22.312 5.487)" fill="#263238"/>
        <path id="Trazado_637151" data-name="Trazado 637151" d="M274.223,79.505a2.313,2.313,0,0,1,2.258-2.077,1.873,1.873,0,0,1,1.9,2.077l-1.745,19.942a2.313,2.313,0,0,1-2.26,2.077,1.873,1.873,0,0,1-1.895-2.077Z" transform="translate(28.589 8.124)" fill="#407bff"/>
        <g id="Grupo_882091" data-name="Grupo 882091" transform="translate(301.059 85.552)" opacity="0.3">
          <g id="Grupo_882090" data-name="Grupo 882090">
            <g id="Grupo_882089" data-name="Grupo 882089" clip-path="url(#clip-path-11)">
              <path id="Trazado_637152" data-name="Trazado 637152" d="M274.223,79.505a2.313,2.313,0,0,1,2.258-2.077,1.873,1.873,0,0,1,1.9,2.077l-1.745,19.942a2.313,2.313,0,0,1-2.26,2.077,1.873,1.873,0,0,1-1.895-2.077Z" transform="translate(-272.47 -77.428)" fill="#fff"/>
            </g>
          </g>
        </g>
        <path id="Trazado_637153" data-name="Trazado 637153" d="M243.221,349.935h-106.4a19.541,19.541,0,0,1-19.776-21.672L139.3,73.963a24.128,24.128,0,0,1,23.569-21.672h106.4a19.543,19.543,0,0,1,19.776,21.672l-22.249,254.3a24.127,24.127,0,0,1-23.568,21.672" transform="translate(12.273 5.487)" fill="#2b95f9"/>
        <path id="Trazado_637154" data-name="Trazado 637154" d="M268.352,56.791H240.7a4.014,4.014,0,0,0-3.845,3.144l-.187.866a9.8,9.8,0,0,1-9.389,7.675H200.987a7.893,7.893,0,0,1-8.046-7.675l-.035-.866a3.232,3.232,0,0,0-3.295-3.144H161.957a18.591,18.591,0,0,0-18.161,16.7l-22.249,254.3a15.058,15.058,0,0,0,15.239,16.7h106.4a18.591,18.591,0,0,0,18.161-16.7l22.249-254.3a15.059,15.059,0,0,0-15.239-16.7" transform="translate(12.747 5.959)" fill="#407bff"/>
        <g id="Grupo_882094" data-name="Grupo 882094" transform="translate(134.229 62.75)" opacity="0.7">
          <g id="Grupo_882093" data-name="Grupo 882093">
            <g id="Grupo_882092" data-name="Grupo 882092" clip-path="url(#clip-path-12)">
              <path id="Trazado_637155" data-name="Trazado 637155" d="M268.352,56.791H240.7a4.014,4.014,0,0,0-3.845,3.144l-.187.866a9.8,9.8,0,0,1-9.389,7.675H200.987a7.893,7.893,0,0,1-8.046-7.675l-.035-.866a3.232,3.232,0,0,0-3.295-3.144H161.957a18.591,18.591,0,0,0-18.161,16.7l-22.249,254.3a15.058,15.058,0,0,0,15.239,16.7h106.4a18.591,18.591,0,0,0,18.161-16.7l22.249-254.3a15.059,15.059,0,0,0-15.239-16.7" transform="translate(-121.482 -56.791)" fill="#fff"/>
            </g>
          </g>
        </g>
        <g id="Grupo_882097" data-name="Grupo 882097" transform="translate(216.984 63.455)" opacity="0.2">
          <g id="Grupo_882096" data-name="Grupo 882096">
            <g id="Grupo_882095" data-name="Grupo 882095" clip-path="url(#clip-path-13)">
              <path id="Trazado_637156" data-name="Trazado 637156" d="M200.614,59.542a2.353,2.353,0,0,1-2.3,2.114,1.906,1.906,0,0,1-1.928-2.114,2.353,2.353,0,0,1,2.3-2.114,1.906,1.906,0,0,1,1.928,2.114" transform="translate(-196.379 -57.429)"/>
              <path id="Trazado_637157" data-name="Trazado 637157" d="M214.846,57.429H207.6a2.352,2.352,0,0,0-2.3,2.114,1.9,1.9,0,0,0,1.928,2.113h7.245a2.352,2.352,0,0,0,2.3-2.113,1.905,1.905,0,0,0-1.928-2.114" transform="translate(-195.444 -57.429)"/>
            </g>
          </g>
        </g>
        <path id="Trazado_637158" data-name="Trazado 637158" d="M152.557,67.541h2.237l.2-2.237h-2.237Z" transform="translate(16.007 6.852)" fill="#407bff"/>
        <path id="Trazado_637159" data-name="Trazado 637159" d="M156.8,65.516l-.2,2.238h2.237l.2-2.238.2-2.237H157Z" transform="translate(16.432 6.64)" fill="#407bff"/>
        <path id="Trazado_637160" data-name="Trazado 637160" d="M161.244,61.254l-.2,2.238-.2,2.237-.2,2.237H162.9l.2-2.237.2-2.237.2-2.238Z" transform="translate(16.857 6.427)" fill="#407bff"/>
        <path id="Trazado_637161" data-name="Trazado 637161" d="M248.4,61.389l-.144,1.641h-1.094l-.287,3.282h1.094l-.144,1.641h9.845l.575-6.563Zm3.945,4.922h-3.282l.287-3.282h3.282Z" transform="translate(25.904 6.441)" fill="#407bff"/>
        <g id="Grupo_882100" data-name="Grupo 882100" transform="translate(140.365 62.75)" opacity="0.4">
          <g id="Grupo_882099" data-name="Grupo 882099">
            <g id="Grupo_882098" data-name="Grupo 882098" clip-path="url(#clip-path-14)">
              <path id="Trazado_637162" data-name="Trazado 637162" d="M200.482,67.366l-73.446,273.1a15.451,15.451,0,0,0,9.168,2.916h5.742L216.175,67.366Z" transform="translate(-127.036 -55.681)" fill="#fff"/>
              <path id="Trazado_637163" data-name="Trazado 637163" d="M265.323,56.791H237.667a4.015,4.015,0,0,0-3.844,3.144l-.187.866a9.813,9.813,0,0,1-9.049,7.659L150.354,344.491h56.621L280.564,70.852a14.983,14.983,0,0,0-15.241-14.061" transform="translate(-124.589 -56.791)" fill="#fff"/>
            </g>
          </g>
        </g>
      </g>
    </g>
    <g id="Grupo_882137" data-name="Grupo 882137">
      <g id="Grupo_882136" data-name="Grupo 882136" clip-path="url(#clip-path)">
        <path id="Trazado_637164" data-name="Trazado 637164" d="M154.227,125.284l-3.315-.72a1.5,1.5,0,0,1-1.082-2l4.623-12.092,5.3,1.152-3.768,12.625a1.5,1.5,0,0,1-1.756,1.036" transform="translate(15.711 11.591)" fill="#eb6f2d"/>
        <path id="Trazado_637165" data-name="Trazado 637165" d="M165.55,110.39h0a1.7,1.7,0,0,1-1.3-2.026l.45-2.07a1.7,1.7,0,0,1,3.329.724l-.45,2.07a1.7,1.7,0,0,1-2.026,1.3" transform="translate(17.23 11.012)" fill="#eb6f2d"/>
        <path id="Trazado_637166" data-name="Trazado 637166" d="M167.315,102.667s-12.6-1.435-17-3.7c-10.372-5.326-20.273-18.029-22.376-18.487-3.423-.745-8.092,7.363-10.429,18.109s-1.456,20.06,1.967,20.8c2.1.457,16.386-6.988,28.033-7.523,4.949-.229,17,3.7,17,3.7Z" transform="translate(12.192 8.44)" fill="#eb6f2d"/>
        <g id="Grupo_882105" data-name="Grupo 882105" transform="translate(129.512 89.595)" opacity="0.3">
          <g id="Grupo_882104" data-name="Grupo 882104">
            <g id="Grupo_882103" data-name="Grupo 882103" clip-path="url(#clip-path-16)">
              <path id="Trazado_637167" data-name="Trazado 637167" d="M167.315,102.667s-12.6-1.435-17-3.7c-10.372-5.326-20.273-18.029-22.376-18.487-3.423-.745-8.092,7.363-10.429,18.109s-1.456,20.06,1.967,20.8c2.1.457,16.386-6.988,28.033-7.523,4.949-.229,17,3.7,17,3.7Z" transform="translate(-116.198 -80.436)" fill="#fff"/>
            </g>
          </g>
        </g>
        <path id="Trazado_637168" data-name="Trazado 637168" d="M129.9,101.288c-2.337,10.745-7.006,18.853-10.429,18.109s-4.3-10.059-1.967-20.8,7.005-18.853,10.429-18.109,4.3,10.059,1.967,20.8" transform="translate(12.192 8.44)" fill="#eb6f2d"/>
        <g id="Grupo_882108" data-name="Grupo 882108" transform="translate(128.16 88.805)" opacity="0.4">
          <g id="Grupo_882107" data-name="Grupo 882107">
            <g id="Grupo_882106" data-name="Grupo 882106" clip-path="url(#clip-path-17)">
              <path id="Trazado_637169" data-name="Trazado 637169" d="M129.9,101.288c-2.337,10.745-7.006,18.853-10.429,18.109s-4.3-10.059-1.967-20.8,7.005-18.853,10.429-18.109,4.3,10.059,1.967,20.8" transform="translate(-116.198 -80.436)"/>
            </g>
          </g>
        </g>
        <path id="Trazado_637170" data-name="Trazado 637170" d="M161.679,99.359l-5.841-1.27a2.806,2.806,0,0,0-3.384,2.331c-.2,1.466-.473,2.982-.81,4.53s-.721,3.039-1.145,4.457a2.806,2.806,0,0,0,2.11,3.526l6.931,1.508c4.153.9,7.142-2.019,7.991-6.2a7.586,7.586,0,0,0-5.853-8.879" transform="translate(15.779 10.285)" fill="#e44e00"/>
        <path id="Trazado_637171" data-name="Trazado 637171" d="M123.2,97.482l-.366,1.682a2.071,2.071,0,0,0,1.229,2.351l4.25,1.766c.328-1.162.632-2.367.9-3.61s.494-2.465.678-3.66l-4.6-.158a2.068,2.068,0,0,0-2.094,1.629" transform="translate(12.883 10.057)" fill="#eb6f2d"/>
        <g id="Grupo_882111" data-name="Grupo 882111" transform="translate(135.666 105.908)" opacity="0.8">
          <g id="Grupo_882110" data-name="Grupo 882110">
            <g id="Grupo_882109" data-name="Grupo 882109" clip-path="url(#clip-path-18)">
              <path id="Trazado_637172" data-name="Trazado 637172" d="M123.2,97.482l-.366,1.682a2.071,2.071,0,0,0,1.229,2.351l4.25,1.766c.328-1.162.632-2.367.9-3.61s.494-2.465.678-3.66l-4.6-.158a2.068,2.068,0,0,0-2.094,1.629" transform="translate(-122.783 -95.852)" fill="#fff"/>
            </g>
          </g>
        </g>
        <g id="Grupo_882114" data-name="Grupo 882114" transform="translate(138.521 105.969)" opacity="0.2">
          <g id="Grupo_882113" data-name="Grupo 882113">
            <g id="Grupo_882112" data-name="Grupo 882112" clip-path="url(#clip-path-19)">
              <path id="Trazado_637173" data-name="Trazado 637173" d="M126.135,99.055c-.232,1.068-.493,2.1-.768,3.11l2.672,1.11c.327-1.163.632-2.367.9-3.611s.494-2.465.678-3.66l-2.89-.1c-.17,1.033-.361,2.081-.593,3.149" transform="translate(-125.367 -95.906)"/>
            </g>
          </g>
        </g>
        <path id="Trazado_637174" data-name="Trazado 637174" d="M218.871,99.491a7.14,7.14,0,0,0,6.455-.7c3.391-2.222,9.765.575,7.838,9.618-3.315,15.561-10.235,26.726-5.749,31.436,0,0-14.935.683-12.725-12.509,1.657-9.894,12.9-21.125,10.185-23.36-.9-.745-2.216-.359-6.461-.359Z" transform="translate(22.503 10.29)" fill="#263238"/>
        <path id="Trazado_637175" data-name="Trazado 637175" d="M218.04,103.617a20.109,20.109,0,0,1,6.065.728,15.157,15.157,0,0,0,.791-6.24,33.529,33.529,0,0,0-6.4,1.381Z" transform="translate(22.878 10.294)" fill="#407bff"/>
        <path id="Trazado_637176" data-name="Trazado 637176" d="M205.643,89.789s-6.211-1.775-2.116-5.78c5.348-5.231,12.96,4.558,12.96,4.558s17.817,7.79,3.108,25.855c0,0-5.308,9.5-6.417,5.809s6.279-14.193,6.279-14.193l-.441-9.389-2.045-3.663-6.42-3.661Z" transform="translate(21.209 8.653)" fill="#263238"/>
        <path id="Trazado_637177" data-name="Trazado 637177" d="M186.777,138.454a6.145,6.145,0,0,0-8.449-2.033l-.094.057c-1.926,1.179-3.985,2.5-6.02,3.71l-6.135,3.683q-4.3,2.539-8.664,4.914a55.611,55.611,0,0,1-.1-6.627c.078-2.586.259-5.222.462-7.87.176-2.647.456-5.338.683-7.963l.007-.07a3.067,3.067,0,0,0-5.933-1.318c-.978,2.662-1.752,5.291-2.521,7.984-.734,2.692-1.367,5.42-1.886,8.225a51.616,51.616,0,0,0-.929,8.864,18.623,18.623,0,0,0,.723,5.543,8.761,8.761,0,0,0,2.655,4.136,7.581,7.581,0,0,0,3.355,1.626,8.376,8.376,0,0,0,3.225-.022,4.094,4.094,0,0,0,.752-.224l.362-.149c2.352-.968,4.7-1.949,6.977-3.044q3.441-1.6,6.773-3.38c2.231-1.17,4.421-2.408,6.583-3.694,2.165-1.321,4.268-2.583,6.441-4.093a6.163,6.163,0,0,0,1.735-8.255" transform="translate(15.445 12.898)" fill="#ce7a63"/>
        <path id="Trazado_637178" data-name="Trazado 637178" d="M189.971,129.7c3.72,7.5-1.635,14.012-11.457,24.438a29.466,29.466,0,0,1-10.174-16.357s11.321-9.372,21.631-8.08" transform="translate(17.663 13.596)" fill="#ffb338"/>
        <g id="Grupo_882117" data-name="Grupo 882117" transform="translate(189.773 150.207)" opacity="0.2">
          <g id="Grupo_882116" data-name="Grupo 882116">
            <g id="Grupo_882115" data-name="Grupo 882115" clip-path="url(#clip-path-20)">
              <path id="Trazado_637179" data-name="Trazado 637179" d="M189.972,137.931c-3.641-2.215-7.712-3.209-10.581.41a44.326,44.326,0,0,1-7.639,7.814,31.188,31.188,0,0,0,6.4,7.31c5.866-6.227,10.118-11.055,11.816-15.534" transform="translate(-171.752 -135.943)"/>
            </g>
          </g>
        </g>
        <path id="Trazado_637180" data-name="Trazado 637180" d="M155.619,113.3l2.525,1.666a3.519,3.519,0,0,1,1.58,2.811l.193,5.315a6.568,6.568,0,0,1-2.567,5.448l-1.045.8c-4.378-2.477-7.285-8.38-7.285-8.38L148,119.366a2.928,2.928,0,0,1,.8-4.088l3.126-2.052a3.375,3.375,0,0,1,3.685.07" transform="translate(15.477 11.826)" fill="#ce7a63"/>
        <path id="Trazado_637181" data-name="Trazado 637181" d="M182.124,331.564c5.729-17.719,9.631-37.31,5.746-51.642,23.65-69.452,12.984-89.673,12.984-89.673L172.71,179.985s-4.023,62.552-5.234,92.8c-.678,16.926-3.566,38.916-6.89,58.783Z" transform="translate(16.85 18.885)" fill="#263238"/>
        <g id="Grupo_882120" data-name="Grupo 882120" transform="translate(203.441 225.622)" opacity="0.5">
          <g id="Grupo_882119" data-name="Grupo 882119">
            <g id="Grupo_882118" data-name="Grupo 882118" clip-path="url(#clip-path-21)">
              <path id="Trazado_637182" data-name="Trazado 637182" d="M194.252,213.4l-5.709-9.207-3.5,7.182a220.583,220.583,0,0,0,2.57,59.332A310.662,310.662,0,0,0,198.372,228.9Z" transform="translate(-184.122 -204.196)"/>
            </g>
          </g>
        </g>
        <path id="Trazado_637183" data-name="Trazado 637183" d="M197.348,331.085h21.329c2.179-18.366,2.2-38.134-4.3-51.353,9.91-72.7-4.432-90.5-4.432-90.5l-29.589-4.684s8.033,62.163,12.637,92.08c2.383,15.488,3.74,35.589,4.359,54.455" transform="translate(18.924 19.364)" fill="#263238"/>
        <path id="Trazado_637184" data-name="Trazado 637184" d="M176.466,143.676A122.478,122.478,0,0,0,173.811,160c-.949,8.007-1.643,15.924-2.559,29.152L211.31,195.5c.982-11.412,4.332-24.063,15.545-48.314a9.459,9.459,0,0,0-6.067-13.408c-1.562-.412-3.224-.813-4.939-1.17a129.178,129.178,0,0,0-18.189-2.879c-2.005-.134-4.094-.209-6.1-.247-7.225-.137-13.763,7.175-15.1,14.2" transform="translate(17.969 13.585)" fill="#ffb338"/>
        <path id="Trazado_637185" data-name="Trazado 637185" d="M215.524,113.586c-2.51,5.6-6.152,16.018-2.967,20.525,0,0-5.412-1.709-18.334,3.706-2.634-5.427.145-6.585.145-6.585,6.889-.506,7.848-5.318,7.77-9.992Z" transform="translate(20.26 11.918)" fill="#ce7a63"/>
        <path id="Trazado_637186" data-name="Trazado 637186" d="M196.566,135a5.169,5.169,0,0,1,3.057,3.013,3.9,3.9,0,0,0,5.479,1.8c3.272-1.866,7.494-4.53,9.577-6.894a38.833,38.833,0,0,1-3.057-2.7s-12.44,2.894-15.057,4.773" transform="translate(20.625 13.664)" fill="#fff"/>
        <path id="Trazado_637187" data-name="Trazado 637187" d="M193.757,133.917a5.919,5.919,0,0,0-2.61,1.161,1.245,1.245,0,0,1-1.92-1.393c1.381-3.91,3.761-4.374,3.761-4.374a5.023,5.023,0,0,1,3.586.049,4.2,4.2,0,0,0-2.816,4.558" transform="translate(19.847 13.538)" fill="#fff"/>
        <g id="Grupo_882123" data-name="Grupo 882123" transform="translate(222.214 128.628)" opacity="0.2">
          <g id="Grupo_882122" data-name="Grupo 882122">
            <g id="Grupo_882121" data-name="Grupo 882121" clip-path="url(#clip-path-22)">
              <path id="Trazado_637188" data-name="Trazado 637188" d="M209.224,116.413l-7.922,4.526a18.311,18.311,0,0,1-.19,3.279c2.577.039,6.639-2.124,7.511-4.662a8.845,8.845,0,0,0,.6-3.144" transform="translate(-201.112 -116.413)"/>
            </g>
          </g>
        </g>
        <path id="Trazado_637189" data-name="Trazado 637189" d="M222.438,105.28c-3.272,9.169-4.461,13.109-10.571,16.787-9.191,5.535-19.764.164-19.3-9.639.414-8.824,5.695-22.336,15.928-23.915a12.47,12.47,0,0,1,13.947,16.767" transform="translate(20.203 9.269)" fill="#ce7a63"/>
        <path id="Trazado_637190" data-name="Trazado 637190" d="M208.634,103.523c-.241.781-.847,1.318-1.354,1.2s-.72-.849-.478-1.63.846-1.319,1.352-1.2.72.849.48,1.63" transform="translate(21.689 10.69)" fill="#263238"/>
        <path id="Trazado_637191" data-name="Trazado 637191" d="M199.781,101.155c-.241.781-.847,1.318-1.354,1.2s-.72-.849-.478-1.63.846-1.319,1.352-1.2.72.849.48,1.63" transform="translate(20.76 10.441)" fill="#263238"/>
        <path id="Trazado_637192" data-name="Trazado 637192" d="M199.516,99.7l-1.693-.978s.5,1.691,1.693.978" transform="translate(20.757 10.359)" fill="#263238"/>
        <path id="Trazado_637193" data-name="Trazado 637193" d="M202.573,102.459a23.979,23.979,0,0,1-4.3,4.339c.724,1.2,2.6,1.171,2.6,1.171Z" transform="translate(20.804 10.751)" fill="#ba4d3c"/>
        <path id="Trazado_637194" data-name="Trazado 637194" d="M211.482,99.509a.435.435,0,0,1-.306-.193,3.5,3.5,0,0,0-2.873-1.658.436.436,0,0,1-.461-.451.518.518,0,0,1,.492-.491,4.364,4.364,0,0,1,3.656,2.053.487.487,0,0,1-.16.657.5.5,0,0,1-.348.083" transform="translate(21.808 10.148)" fill="#263238"/>
        <path id="Trazado_637195" data-name="Trazado 637195" d="M197.723,95.181a.441.441,0,0,1-.241-.245.471.471,0,0,1,.294-.6,5,5,0,0,1,4.424.27.434.434,0,0,1,.094.639.516.516,0,0,1-.682.118,4,4,0,0,0-3.507-.177.513.513,0,0,1-.382-.006" transform="translate(20.718 9.859)" fill="#263238"/>
        <path id="Trazado_637196" data-name="Trazado 637196" d="M208.369,102.071l-1.692-.978s.5,1.691,1.692.978" transform="translate(21.686 10.607)" fill="#263238"/>
        <path id="Trazado_637197" data-name="Trazado 637197" d="M176.754,171.859H167.2a2.132,2.132,0,0,1-1.982-1.633l-4.427-20.683a1.28,1.28,0,0,1,1.283-1.633h9.555a2.133,2.133,0,0,1,1.983,1.633l4.426,20.683a1.28,1.28,0,0,1-1.283,1.633" transform="translate(16.867 15.52)" fill="#263238"/>
        <path id="Trazado_637198" data-name="Trazado 637198" d="M175.754,171.859H166.2a2.132,2.132,0,0,1-1.982-1.633l-4.427-20.683a1.28,1.28,0,0,1,1.283-1.633h9.555a2.133,2.133,0,0,1,1.983,1.633l4.426,20.683a1.28,1.28,0,0,1-1.283,1.633" transform="translate(16.762 15.52)" fill="#263238"/>
        <g id="Grupo_882126" data-name="Grupo 882126" transform="translate(176.513 163.43)" opacity="0.2">
          <g id="Grupo_882125" data-name="Grupo 882125">
            <g id="Grupo_882124" data-name="Grupo 882124" clip-path="url(#clip-path-23)">
              <path id="Trazado_637199" data-name="Trazado 637199" d="M175.754,171.859H166.2a2.132,2.132,0,0,1-1.982-1.633l-4.427-20.683a1.28,1.28,0,0,1,1.283-1.633h9.555a2.133,2.133,0,0,1,1.983,1.633l4.426,20.683a1.28,1.28,0,0,1-1.283,1.633" transform="translate(-159.751 -147.91)" fill="#fff"/>
            </g>
          </g>
        </g>
        <path id="Trazado_637200" data-name="Trazado 637200" d="M171.453,158.626l2.953-.656a3.519,3.519,0,0,1,3.119.819l3.953,3.557a6.563,6.563,0,0,1,2.13,5.634l-.15,1.307c-4.825,1.424-11.088-.591-11.088-.591l-1.85-.377a2.928,2.928,0,0,1-2.379-3.42l.7-3.674a3.376,3.376,0,0,1,2.612-2.6" transform="translate(17.637 16.566)" fill="#ce7a63"/>
        <path id="Trazado_637201" data-name="Trazado 637201" d="M221.379,139.082a6.142,6.142,0,0,0-6.691,5.54l-.019.189c-.1,1.1-.25,2.453-.392,3.7-.147,1.272-.323,2.547-.516,3.816-.372,2.545-.829,5.069-1.329,7.569s-1.14,4.942-1.825,7.346c-.582,1.925-1.254,3.779-1.981,5.589a12.9,12.9,0,0,1-2.658-.165,61,61,0,0,1-8.439-1.874c-2.6-.812-5.216-1.761-7.836-2.755-2.623-.965-5.264-2.063-7.832-3.1l-.074-.031a3.063,3.063,0,0,0-2.967,5.3c2.428,1.793,4.878,3.35,7.41,4.913,2.538,1.526,5.151,2.951,7.885,4.263a61.554,61.554,0,0,0,9.719,3.349,22.356,22.356,0,0,0,5.516.792,11.883,11.883,0,0,0,3.69-.537,9.265,9.265,0,0,0,4.327-2.846,5.038,5.038,0,0,0,.53-.782l.109-.2a62.3,62.3,0,0,0,3.713-8.169,79.954,79.954,0,0,0,2.573-8.351c.708-2.8,1.271-5.617,1.717-8.448.211-1.417.4-2.835.565-4.264.177-1.452.285-2.805.366-4.417a6.156,6.156,0,0,0-5.559-6.424" transform="translate(18.632 14.59)" fill="#ce7a63"/>
        <path id="Trazado_637202" data-name="Trazado 637202" d="M220.164,134.658c6.836,4.833,7.16,12.058,3.468,25.9-4.937,2.474-16.937-.657-16.937-.657s3.782-21.48,13.469-25.24" transform="translate(21.688 14.129)" fill="#ffb338"/>
        <path id="Trazado_637203" data-name="Trazado 637203" d="M196.645,109.885s3.261-.649,12.32-.372c-1.133,2.7-3.179,4.835-7.826,4.694a4.22,4.22,0,0,1-4.486-3.937c-.009-.128-.011-.256-.008-.385" transform="translate(20.633 11.484)" fill="#263238"/>
        <path id="Trazado_637204" data-name="Trazado 637204" d="M203.192,111.845a8.508,8.508,0,0,0-5.1,1.182,5.025,5.025,0,0,0,2.879.9,8.4,8.4,0,0,0,5.088-1.181,4.841,4.841,0,0,0-2.868-.9" transform="translate(20.785 11.732)" fill="#ba4d3c"/>
        <path id="Trazado_637205" data-name="Trazado 637205" d="M197.021,109.829a1.889,1.889,0,0,0,1.381,1.391,48.985,48.985,0,0,0,8.046-.459,2.6,2.6,0,0,0,2.072-1.284,74.569,74.569,0,0,0-11.5.351" transform="translate(20.673 11.479)" fill="#fff"/>
        <path id="Trazado_637206" data-name="Trazado 637206" d="M207.215,87.958a12.7,12.7,0,0,0-1.717.39v.525a13.919,13.919,0,0,1,4.289.633c7.643,2.335,8.875,6.588,6.278,12.985-1.229,3.027-1.891,9.448-.475,10.65.366.312,1.471.266,2.9.032.947-2.18,1.853-4.78,3.014-8.033a12.779,12.779,0,0,0-14.293-17.183" transform="translate(21.562 9.21)" fill="#263238"/>
        <path id="Trazado_637207" data-name="Trazado 637207" d="M221.143,111.857a7.806,7.806,0,0,1-5.476,2.378c-2.645-.015-3.069-2.741-1.581-5.013,1.339-2.046,4.33-4.5,6.623-3.392,2.26,1.093,2.268,4.151.434,6.027" transform="translate(22.374 11.075)" fill="#ce7a63"/>
        <g id="Grupo_882129" data-name="Grupo 882129" transform="translate(196.221 161.256)" opacity="0.9">
          <g id="Grupo_882128" data-name="Grupo 882128">
            <g id="Grupo_882127" data-name="Grupo 882127" clip-path="url(#clip-path-24)">
              <path id="Trazado_637208" data-name="Trazado 637208" d="M208.579,154.568c-18.6-1.15-27-4.583-30.353-6.525a1.838,1.838,0,0,1-.288-.207c-.965-.845.249-2.381,1.36-1.741,2.929,1.689,11,5.127,29.416,6.268a1.1,1.1,0,1,1-.135,2.2" transform="translate(-177.587 -145.943)" fill="#fff"/>
            </g>
          </g>
        </g>
        <g id="Grupo_882132" data-name="Grupo 882132" transform="translate(193.718 172.206)" opacity="0.9">
          <g id="Grupo_882131" data-name="Grupo 882131">
            <g id="Grupo_882130" data-name="Grupo 882130" clip-path="url(#clip-path-25)">
              <path id="Trazado_637209" data-name="Trazado 637209" d="M207.853,164.042a1.115,1.115,0,0,1-1.161,1.071c-16.216-.758-27.4-5.543-30.75-7.157a1.108,1.108,0,0,1,.969-1.993,81.047,81.047,0,0,0,29.883,6.943,1.1,1.1,0,0,1,1.06,1.136" transform="translate(-175.322 -155.853)" fill="#fff"/>
            </g>
          </g>
        </g>
        <g id="Grupo_882135" data-name="Grupo 882135" transform="translate(191.813 193.296)" opacity="0.9">
          <g id="Grupo_882134" data-name="Grupo 882134">
            <g id="Grupo_882133" data-name="Grupo 882133" clip-path="url(#clip-path-26)">
              <path id="Trazado_637210" data-name="Trazado 637210" d="M189.307,180.47c-8.612-1.685-13.045-2.832-14.91-3.36a1.106,1.106,0,0,1,.6-2.128c1.8.507,6.213,1.652,14.731,3.32a1.1,1.1,0,1,1-.422,2.168" transform="translate(-173.598 -174.94)" fill="#fff"/>
            </g>
          </g>
        </g>
        <path id="Trazado_637211" data-name="Trazado 637211" d="M205.825,91.746a1.552,1.552,0,0,1-2.012-.785,2.342,2.342,0,0,1,.314-2.283,5,5,0,0,1,1.882-1.477,5.88,5.88,0,0,0-1.272,2.581c.02.8.325,2.2,1.088,1.963" transform="translate(21.367 9.15)" fill="#263238"/>
        <path id="Trazado_637212" data-name="Trazado 637212" d="M214.139,112.258a.71.71,0,0,1-.821.691,1.132,1.132,0,0,1-.842-.819,3.048,3.048,0,0,1-.045-1.23,8.483,8.483,0,0,1,.676-2.732,3.815,3.815,0,0,1,1.95-1.958,1.251,1.251,0,0,1,.166,1.346,7.421,7.421,0,0,1-.768,1.123,3.916,3.916,0,0,0-.48,3.4c.14.009.023.167.164.176" transform="translate(22.285 11.144)" fill="#263238"/>
      </g>
    </g>
    <g id="Grupo_882154" data-name="Grupo 882154">
      <g id="Grupo_882153" data-name="Grupo 882153" clip-path="url(#clip-path)">
        <path id="Trazado_637213" data-name="Trazado 637213" d="M109.809,175.111H31.136A10.938,10.938,0,0,0,20.2,186.049v59.8a10.938,10.938,0,0,0,10.938,10.938H90.541a19.326,19.326,0,0,0,19.176,16.976c.438,0,.866-.036,1.3-.065-3.074-4.05-5.582-9.918-7.225-16.911h6.021a10.938,10.938,0,0,0,10.938-10.938v-59.8a10.938,10.938,0,0,0-10.938-10.938" transform="translate(2.119 18.374)" fill="#407bff"/>
        <g id="Grupo_882140" data-name="Grupo 882140" transform="translate(22.318 193.485)" opacity="0.4">
          <g id="Grupo_882139" data-name="Grupo 882139">
            <g id="Grupo_882138" data-name="Grupo 882138" clip-path="url(#clip-path-28)">
              <path id="Trazado_637214" data-name="Trazado 637214" d="M109.809,175.111H31.136A10.938,10.938,0,0,0,20.2,186.049v59.8a10.938,10.938,0,0,0,10.938,10.938H90.541a19.326,19.326,0,0,0,19.176,16.976c.438,0,.866-.036,1.3-.065-3.074-4.05-5.582-9.918-7.225-16.911h6.021a10.938,10.938,0,0,0,10.938-10.938v-59.8a10.938,10.938,0,0,0-10.938-10.938" transform="translate(-20.198 -175.111)" fill="#fff"/>
            </g>
          </g>
        </g>
        <path id="Trazado_637215" data-name="Trazado 637215" d="M115.56,198.646l6.126-5.662,5.226,9.684s-6.059,4.638-9.655,1.789Z" transform="translate(12.125 20.249)" fill="#ff8b7b"/>
        <path id="Trazado_637216" data-name="Trazado 637216" d="M115.955,198.108l-4.166,8.857,5.717,4.726,4.992-8.09Z" transform="translate(11.73 20.787)" fill="#ff8b7b"/>
        <path id="Trazado_637217" data-name="Trazado 637217" d="M127.231,194.413l1.009,3.663a4.329,4.329,0,0,1-1.6,4.713l-2.247,1.471-6.257-10.974,5.361-1.354a3.115,3.115,0,0,1,3.732,2.482" transform="translate(12.396 20.128)" fill="#ff8b7b"/>
        <path id="Trazado_637218" data-name="Trazado 637218" d="M115.56,199.045s2.181-6.826,1.861-8.916c-.191-1.247,1.084-1.042,2.141-.674a2.1,2.1,0,0,1,1.413,1.908c.088,2.235.031,6.518-1.693,6.8a22.286,22.286,0,0,0-3.723.885" transform="translate(12.125 19.849)" fill="#ff8b7b"/>
        <path id="Trazado_637219" data-name="Trazado 637219" d="M127.38,206.238a12.023,12.023,0,0,0-6.528-3.758l-1.863-.388c-1.06-.221-1.312.032-1.446.319l-.53.828-1.087,1.653c-.738,1.1-1.463,2.2-2.22,3.275-1.468,2.176-3.007,4.282-4.558,6.285a48.367,48.367,0,0,1-4.76,5.417c-.154.147-.306.286-.459.424-.567-.626-1.127-1.271-1.672-1.947a74.766,74.766,0,0,1-4.524-6.381c-1.425-2.251-6.044-8.9-7.3-11.306q-.95-1.8-1.83-3.629l-.851-1.826c-.262-.58-.565-1.268-.744-1.713-.034-.082-.084-.2-.12-.282a8.288,8.288,0,0,0-15.132,6.769c.4.9.715,1.539,1.077,2.283l1.071,2.121q1.091,2.1,2.257,4.143c1.562,2.729,6.561,9.686,8.393,12.3a74.4,74.4,0,0,0,6.086,7.6,52.432,52.432,0,0,0,7.636,6.912l.35.255a6.906,6.906,0,0,0,5.961,1.044,17.767,17.767,0,0,0,6.172-3.226,30.3,30.3,0,0,0,3.884-3.658,59.819,59.819,0,0,0,5.646-7.445c1.628-2.51,3.053-5.067,4.4-7.639.652-1.3,1.293-2.594,1.887-3.915l.881-1.989.431-1.005c.181-.326.245-.687-.507-1.526" transform="translate(7.453 19.758)" fill="#617a0b"/>
        <g id="Grupo_882143" data-name="Grupo 882143" transform="translate(86.002 222.485)" opacity="0.4">
          <g id="Grupo_882142" data-name="Grupo 882142">
            <g id="Grupo_882141" data-name="Grupo 882141" clip-path="url(#clip-path-29)">
              <path id="Trazado_637220" data-name="Trazado 637220" d="M85.715,201.357l-6.077,4.289-1.8,4.161c.3.549.589,1.107.9,1.651,1.562,2.729,3.273,5.385,5.1,8a74.252,74.252,0,0,0,6.086,7.6q1.573,1.705,3.323,3.336c-2.935-7-7.531-29.04-7.531-29.04" transform="translate(-77.835 -201.357)"/>
            </g>
          </g>
        </g>
        <path id="Trazado_637221" data-name="Trazado 637221" d="M36.058,236.487c.48,11.015-1.271,10.54-1.313,19.087H88.593c2.925-26.086,1.555-30.1,1.609-47.409.03-9.75-1.495-19.693-11.193-20.707a165.7,165.7,0,0,0-34.255.222,12.889,12.889,0,0,0-11.2,14.637c2.171,14.733.989,23.076,2.5,34.171" transform="translate(3.506 19.587)" fill="#617a0b"/>
        <g id="Grupo_882146" data-name="Grupo 882146" transform="translate(56.054 206.268)" opacity="0.9">
          <g id="Grupo_882145" data-name="Grupo 882145">
            <g id="Grupo_882144" data-name="Grupo 882144" clip-path="url(#clip-path-30)">
              <path id="Trazado_637222" data-name="Trazado 637222" d="M72.28,187.042a175.1,175.1,0,0,0-21.549-.06c.154,2.2,1.835,7.778,14.066,12.514,0,0,2.724-5.922,5.025-3.252,0,0,1.842-3.406,5.8,2.854,0,0,5.9-6.315-3.342-12.057" transform="translate(-50.731 -186.68)" fill="#fff"/>
            </g>
          </g>
        </g>
        <g id="Grupo_882149" data-name="Grupo 882149" transform="translate(38.407 222.298)" opacity="0.4">
          <g id="Grupo_882148" data-name="Grupo 882148">
            <g id="Grupo_882147" data-name="Grupo 882147" clip-path="url(#clip-path-31)">
              <path id="Trazado_637223" data-name="Trazado 637223" d="M44.859,201.188c1.181,10.244-5.364,27.372-8.879,35.652-.009-.581-.029-1.21-.057-1.878-.949-6.923-.843-12.772-1.162-19.763Z" transform="translate(-34.76 -201.188)"/>
            </g>
          </g>
        </g>
        <path id="Trazado_637224" data-name="Trazado 637224" d="M55.884,169.235a46.037,46.037,0,0,1-3.8,19.555,1.232,1.232,0,0,0,.3,1.388c3.528,3.18,8.92,5.779,16.242,5.877,7.236.1,6.821-2.165,5.108-4.709a2.966,2.966,0,0,0-.95-.88c-4.95-2.937-5.127-6.868-3.745-9.24Z" transform="translate(5.455 17.757)" fill="#ff8b7b"/>
        <g id="Grupo_882152" data-name="Grupo 882152" transform="translate(61.261 186.996)" opacity="0.2">
          <g id="Grupo_882151" data-name="Grupo 882151">
            <g id="Grupo_882150" data-name="Grupo 882150" clip-path="url(#clip-path-32)">
              <path id="Trazado_637225" data-name="Trazado 637225" d="M55.524,169.238l13.151,11.99a5.566,5.566,0,0,0-.277,5.025,11,11,0,0,1-7.568-2.714c-3.388-2.881-4.543-6.285-5.385-11.088.057-1.014.077-2.079.08-3.213" transform="translate(-55.444 -169.238)"/>
            </g>
          </g>
        </g>
        <path id="Trazado_637226" data-name="Trazado 637226" d="M51.967,164.883c.585,8.831-.672,10.246,3.818,14.722,6.754,6.732,17.743,8.018,19.3-.936,1.4-8.062,2.174-22.66-6.5-26.06a12.2,12.2,0,0,0-16.613,12.274" transform="translate(5.45 15.921)" fill="#ff8b7b"/>
        <path id="Trazado_637227" data-name="Trazado 637227" d="M72.52,172.367s-3.107-.984-11.907-1.358c.936,3.167,2.782,5.8,7.29,5.939s4.616-4.581,4.616-4.581" transform="translate(6.36 17.943)" fill="#263238"/>
        <path id="Trazado_637228" data-name="Trazado 637228" d="M65.656,174.082a7.4,7.4,0,0,1,4.863,1.718,4.22,4.22,0,0,1-2.844.82,7.3,7.3,0,0,1-4.852-1.717,4.192,4.192,0,0,1,2.833-.821" transform="translate(6.592 18.266)" fill="#ff5652"/>
        <path id="Trazado_637229" data-name="Trazado 637229" d="M72.087,172.26c-.27.655-.538,1.312-1.425,1.491a40.047,40.047,0,0,1-7.763-1.108,2.527,2.527,0,0,1-1.941-1.618,61.43,61.43,0,0,1,11.13,1.235" transform="translate(6.396 17.945)" fill="#fff"/>
        <path id="Trazado_637230" data-name="Trazado 637230" d="M68.259,164.8a20.509,20.509,0,0,0,3.434,4.489,3.355,3.355,0,0,1-2.665.928Z" transform="translate(7.162 17.292)" fill="#ff5652"/>
        <path id="Trazado_637231" data-name="Trazado 637231" d="M60.4,161.57a.439.439,0,0,1-.231-.727,4.442,4.442,0,0,1,3.76-1.535.438.438,0,0,1,.368.5.447.447,0,0,1-.506.371,3.552,3.552,0,0,0-2.963,1.249.447.447,0,0,1-.428.138" transform="translate(6.301 16.713)" fill="#263238"/>
        <path id="Trazado_637232" data-name="Trazado 637232" d="M74.013,162.984a.436.436,0,0,1-.4-.134,3.482,3.482,0,0,0-2.97-1.169.438.438,0,0,1-.507-.361.447.447,0,0,1,.361-.513,4.361,4.361,0,0,1,3.766,1.435.446.446,0,0,1-.254.741" transform="translate(7.359 16.869)" fill="#263238"/>
        <path id="Trazado_637233" data-name="Trazado 637233" d="M20.974,237.841a5.525,5.525,0,0,0,.183,1.243,64.331,64.331,0,0,0,3.878,10.289c.8,1.757,1.635,3.472,2.482,5.166a10.9,10.9,0,0,0,3.538.6H42.965q-.59-1.323-1.181-2.641c-1.306-2.885-2.527-5.78-3.627-8.639a60.3,60.3,0,0,1-2.321-7.115A21.34,21.34,0,0,1,36.39,234c.352-1.335.812-2.769,1.342-4.224,1.057-2.909,2.32-5.9,3.651-8.883s2.79-5.961,4.269-8.932c1.465-2.953,3.029-5.98,4.562-8.782l.053-.1c.03-.055.059-.11.087-.166A8.289,8.289,0,0,0,35.6,195.364c-1.664,3.25-3.157,6.349-4.648,9.568q-2.209,4.808-4.2,9.774c-1.331,3.321-2.579,6.707-3.651,10.3-.541,1.8-1.035,3.652-1.444,5.654a29.984,29.984,0,0,0-.693,6.939Z" transform="translate(2.199 20.026)" fill="#617a0b"/>
        <path id="Trazado_637234" data-name="Trazado 637234" d="M48.371,169.493a8.055,8.055,0,0,0,4.08,4.3c2.366,1.017,3.666-1.3,3.107-3.947-.5-2.383-2.339-5.784-4.761-5.667-2.386.115-3.427,2.895-2.426,5.317" transform="translate(5.036 17.226)" fill="#ff8b7b"/>
        <path id="Trazado_637235" data-name="Trazado 637235" d="M62.258,164.2c-.048.769.327,1.419.839,1.453s.949-.567.989-1.348-.327-1.419-.829-1.451-.949.568-1,1.346" transform="translate(6.532 17.087)" fill="#2e353a"/>
        <path id="Trazado_637236" data-name="Trazado 637236" d="M70.173,164.665c-.046.769.327,1.419.829,1.451s.949-.568,1-1.347-.328-1.418-.829-1.45-.959.565-1,1.346" transform="translate(7.363 17.136)" fill="#2e353a"/>
      </g>
    </g>
    <g id="Grupo_882174" data-name="Grupo 882174">
      <g id="Grupo_882173" data-name="Grupo 882173" clip-path="url(#clip-path)">
        <path id="Trazado_637237" data-name="Trazado 637237" d="M101.556,34.846H22.883A10.938,10.938,0,0,0,11.945,45.784v59.8a10.938,10.938,0,0,0,10.938,10.938H82.288A19.326,19.326,0,0,0,101.464,133.5c.438,0,.866-.036,1.3-.065-3.074-4.05-5.582-9.918-7.225-16.911h6.021a10.938,10.938,0,0,0,10.938-10.938v-59.8a10.938,10.938,0,0,0-10.938-10.938" transform="translate(1.253 3.656)" fill="#407bff"/>
        <g id="Grupo_882157" data-name="Grupo 882157" transform="translate(13.198 38.502)" opacity="0.4">
          <g id="Grupo_882156" data-name="Grupo 882156">
            <g id="Grupo_882155" data-name="Grupo 882155" clip-path="url(#clip-path-28)">
              <path id="Trazado_637238" data-name="Trazado 637238" d="M101.556,34.846H22.883A10.938,10.938,0,0,0,11.945,45.784v59.8a10.938,10.938,0,0,0,10.938,10.938H82.288A19.326,19.326,0,0,0,101.464,133.5c.438,0,.866-.036,1.3-.065-3.074-4.05-5.582-9.918-7.225-16.911h6.021a10.938,10.938,0,0,0,10.938-10.938v-59.8a10.938,10.938,0,0,0-10.938-10.938" transform="translate(-11.945 -34.846)" fill="#fff"/>
            </g>
          </g>
        </g>
        <path id="Trazado_637239" data-name="Trazado 637239" d="M76.975,113.4a137.745,137.745,0,0,1,.048-19.3C77.7,82.794,74.33,70.565,71.772,68.47c-3.677-3.03-7.1-5.891-8.32-2.074-.7,2.193-.916,5.854-.87,9.933.112,9.874,2.156,22.2,3.2,27.887.37,2.018,1.285,9.187,1.285,9.187Z" transform="translate(6.566 6.774)" fill="#eb6f2d"/>
        <path id="Trazado_637240" data-name="Trazado 637240" d="M73.51,69.265a4.262,4.262,0,0,0-3.075-3.452c-2.771-.741-7.536-1.945-11.887-2.723a111.241,111.241,0,0,0-15.424-1.41c-3.269-.134-6.49-.036-9.043.109a4.5,4.5,0,0,0-.9.158,4.268,4.268,0,0,0-2.941,5.263c6.552,23.391,7.909,34.591,8.259,46.5H70.477c1.488-10.811,4.42-19.678,4.686-26.034A74.915,74.915,0,0,0,73.51,69.265" transform="translate(3.156 6.465)" fill="#eb6f2d"/>
        <g id="Grupo_882160" data-name="Grupo 882160" transform="translate(32.98 68.083)" opacity="0.8">
          <g id="Grupo_882159" data-name="Grupo 882159">
            <g id="Grupo_882158" data-name="Grupo 882158" clip-path="url(#clip-path-35)">
              <path id="Trazado_637241" data-name="Trazado 637241" d="M73.51,69.265a4.262,4.262,0,0,0-3.075-3.452c-2.771-.741-7.536-1.945-11.887-2.723a111.241,111.241,0,0,0-15.424-1.41c-3.269-.134-6.49-.036-9.043.109a4.5,4.5,0,0,0-.9.158,4.268,4.268,0,0,0-2.941,5.263c6.552,23.391,7.909,34.591,8.259,46.5H70.477c1.488-10.811,4.42-19.678,4.686-26.034A74.915,74.915,0,0,0,73.51,69.265" transform="translate(-30.079 -61.618)" fill="#fff"/>
            </g>
          </g>
        </g>
        <path id="Trazado_637242" data-name="Trazado 637242" d="M58.729,59.225c-2.1,2.841-3.642,6.2-.344,9.955a4.523,4.523,0,0,1,1.186,2.843c.038,1.688-.944,3.331-6.446.088-7.975-4.694-7.309-10-7.309-10,4.194-1.271,6.7-10.075,7.672-15.112Z" transform="translate(4.806 4.932)" fill="#ffb573"/>
        <g id="Grupo_882163" data-name="Grupo 882163" transform="translate(58.637 56.924)" opacity="0.2" style="isolation: isolate">
          <g id="Grupo_882162" data-name="Grupo 882162">
            <g id="Grupo_882161" data-name="Grupo 882161" clip-path="url(#clip-path-36)">
              <path id="Trazado_637243" data-name="Trazado 637243" d="M53.172,54.088c-.615,2.145,1.656,5.563,3.379,6.921a14.377,14.377,0,0,1,1.408-2.262l-3.1-7.23a7.569,7.569,0,0,0-1.686,2.57" transform="translate(-53.068 -51.518)"/>
            </g>
          </g>
        </g>
        <path id="Trazado_637244" data-name="Trazado 637244" d="M72.818,34.511c2.8,3.557-3.518,14.27-4.2,12.034-1.106-3.656-2.719-11.038-2.695-14.1.036-4.794,4.094-1.493,6.895,2.064" transform="translate(6.917 3.153)" fill="#263238"/>
        <path id="Trazado_637245" data-name="Trazado 637245" d="M51.285,35.62a11.2,11.2,0,0,1,15.324-3.984c7.52,4.356,6.95,16.553,4.189,23.6-3.024,7.843-13.25,8.839-18.551,1.716-3.555-4.752-3.109-8.206-2.481-16.394a11.2,11.2,0,0,1,1.518-4.938" transform="translate(5.177 3.157)" fill="#ffb573"/>
        <path id="Trazado_637246" data-name="Trazado 637246" d="M60.151,43.423c-.059.666.242,1.243.671,1.289s.845-.468.916-1.131-.242-1.243-.672-1.289-.818.5-.915,1.131" transform="translate(6.311 4.437)" fill="#263238"/>
        <path id="Trazado_637247" data-name="Trazado 637247" d="M60.782,42.4l1.644-.3s-.927,1.127-1.644.3" transform="translate(6.378 4.416)" fill="#263238"/>
        <path id="Trazado_637248" data-name="Trazado 637248" d="M67.73,45.113c-.059.666.242,1.243.671,1.289s.845-.468.916-1.131-.242-1.243-.672-1.289-.818.5-.915,1.131" transform="translate(7.106 4.615)" fill="#263238"/>
        <path id="Trazado_637249" data-name="Trazado 637249" d="M68.362,44.086l1.644-.3s-.927,1.127-1.644.3" transform="translate(7.173 4.594)" fill="#263238"/>
        <path id="Trazado_637250" data-name="Trazado 637250" d="M64.857,50.015a2.893,2.893,0,0,0,2.419-.115,17.693,17.693,0,0,1-1.767-4.551Z" transform="translate(6.805 4.758)" fill="#ed893e"/>
        <path id="Trazado_637251" data-name="Trazado 637251" d="M59.181,49.345a.2.2,0,1,1,.357-.169,5.236,5.236,0,0,0,3.981,2.641.2.2,0,0,1,.161.22v.01a.183.183,0,0,1-.21.156,5.831,5.831,0,0,1-.935-.186,5.554,5.554,0,0,1-3.353-2.672" transform="translate(6.208 5.148)" fill="#263238"/>
        <path id="Trazado_637252" data-name="Trazado 637252" d="M59.925,39.545v0A.388.388,0,0,1,60.006,39c1.782-1.348,4.316-.571,4.423-.53a.39.39,0,1,1-.24.743c-.019-.008-2.222-.726-3.7.4a.378.378,0,0,1-.453.011Z" transform="translate(6.28 4.009)" fill="#263238"/>
        <path id="Trazado_637253" data-name="Trazado 637253" d="M71.075,41.937a3.075,3.075,0,0,0-2.456-1.408.393.393,0,0,1-.018-.786,3.9,3.9,0,0,1,3.126,1.745l0,.006a.389.389,0,0,1-.108.539.381.381,0,0,1-.385.033.547.547,0,0,1-.164-.129" transform="translate(7.158 4.17)" fill="#263238"/>
        <path id="Trazado_637254" data-name="Trazado 637254" d="M63.413,34.159a8.478,8.478,0,0,0-5.877,4.261c-.562,1.044-4.19,3.332-4.8,4.347-1.952,3.23.172,12.453-.745,13.146s-.591-2.039-1.467-2.559a17.171,17.171,0,0,1-2.657-1.5c-1.057-.92-4.931-10.923-.208-16.982a16.149,16.149,0,0,1,9.679-6.228A15.042,15.042,0,0,1,68.56,31.2c1.034.739,2.826,2.768-.046,3.672-.766.241-.8-.377-1.61-.579a8.358,8.358,0,0,0-3.49-.129" transform="translate(4.76 2.983)" fill="#263238"/>
        <path id="Trazado_637255" data-name="Trazado 637255" d="M44.714,42.643c2.725-2.653,6.128-2.654,9.134-2.651a11.158,11.158,0,0,0,4.23-.476c3.028-1.321,4.889-5.635,5.225-7.057a3.582,3.582,0,0,1,2.526-2.382A3.112,3.112,0,0,1,68.358,31.2c.539.785.485,1.915-.164,3.359l.421.19c.72-1.6.761-2.884.124-3.812A3.618,3.618,0,0,0,65.8,29.615a3.994,3.994,0,0,0-2.951,2.738c-.308,1.307-2.128,5.5-4.959,6.739a10.915,10.915,0,0,1-4.044.438c-2.946,0-6.6,0-9.459,2.782Z" transform="translate(4.658 3.107)" fill="#263238"/>
        <g id="Grupo_882166" data-name="Grupo 882166" transform="translate(49.048 32.72)" opacity="0.1">
          <g id="Grupo_882165" data-name="Grupo 882165">
            <g id="Grupo_882164" data-name="Grupo 882164" clip-path="url(#clip-path-37)">
              <path id="Trazado_637256" data-name="Trazado 637256" d="M44.714,42.643c2.725-2.653,6.128-2.654,9.134-2.651a11.158,11.158,0,0,0,4.23-.476c3.028-1.321,4.889-5.635,5.225-7.057a3.582,3.582,0,0,1,2.526-2.382A3.112,3.112,0,0,1,68.358,31.2c.539.785.485,1.915-.164,3.359l.421.19c.72-1.6.761-2.884.124-3.812A3.618,3.618,0,0,0,65.8,29.615a3.994,3.994,0,0,0-2.951,2.738c-.308,1.307-2.128,5.5-4.959,6.739a10.915,10.915,0,0,1-4.044.438c-2.946,0-6.6,0-9.459,2.782Z" transform="translate(-44.391 -29.613)" fill="#fff"/>
            </g>
          </g>
        </g>
        <path id="Trazado_637257" data-name="Trazado 637257" d="M46.8,44.43a2.692,2.692,0,0,1,3.022-2.316c2.035.307,2.96,3.047,2.961,4.84-.027,1.983-1.476,3.447-3.264,2.335a6.036,6.036,0,0,1-2.635-3.755,2.68,2.68,0,0,1-.084-1.1" transform="translate(4.908 4.416)" fill="#ffb573"/>
        <path id="Trazado_637258" data-name="Trazado 637258" d="M52.586,72.29c-.438,5.652-5.664,27.019-16.979,27.614a7.221,7.221,0,0,1-4.935-1.75c-.012,0-.035-.024-.049-.036-9.128-5.494-1.957-32.148-.122-33.7a6.265,6.265,0,0,1,10.1,3.014,22.985,22.985,0,0,0,.571-2.565c.474-2.893,2.042-9.6,4.935-10.088,1.75-.3,5.336-.462,6.381.972s.814,7.2.1,16.542" transform="translate(2.737 5.726)" fill="#eb6f2d"/>
        <g id="Grupo_882169" data-name="Grupo 882169" transform="translate(54.728 46.531)" opacity="0.2" style="isolation: isolate">
          <g id="Grupo_882168" data-name="Grupo 882168">
            <g id="Grupo_882167" data-name="Grupo 882167" clip-path="url(#clip-path-38)">
              <path id="Trazado_637259" data-name="Trazado 637259" d="M49.531,42.112l.053.5.518,4.9v6.322l.86-3.756a8.525,8.525,0,0,0,.146-2.989l-.605-4.7Z" transform="translate(-49.531 -42.112)"/>
            </g>
          </g>
        </g>
        <path id="Trazado_637260" data-name="Trazado 637260" d="M44.52,56.754l-1.356-9.848,8.2-.064s-.676,7.394-2.73,9.912Z" transform="translate(4.529 4.915)" fill="#ffb573"/>
        <path id="Trazado_637261" data-name="Trazado 637261" d="M44.6,40.811l6.077,1.072.656,5.569-8.173.086Z" transform="translate(4.529 4.282)" fill="#ffb573"/>
        <g id="Grupo_882172" data-name="Grupo 882172" transform="translate(35.808 82.139)" opacity="0.2">
          <g id="Grupo_882171" data-name="Grupo 882171">
            <g id="Grupo_882170" data-name="Grupo 882170" clip-path="url(#clip-path-39)">
              <path id="Trazado_637262" data-name="Trazado 637262" d="M37.475,74.339S32.561,85.7,32.411,81.2c-.162-4.889,5.064-6.864,5.064-6.864" transform="translate(-32.408 -74.339)"/>
            </g>
          </g>
        </g>
      </g>
    </g>
    <g id="Grupo_882182" data-name="Grupo 882182">
      <g id="Grupo_882181" data-name="Grupo 882181" clip-path="url(#clip-path)">
        <path id="Trazado_637263" data-name="Trazado 637263" d="M314.66,134.457H284.251a5.237,5.237,0,0,0-5.237,5.237V159.28a5.237,5.237,0,0,0,5.237,5.238H293l3.9,5.107a3.217,3.217,0,0,0,5.111,0l3.9-5.107h8.743a5.237,5.237,0,0,0,5.237-5.237V139.694a5.237,5.237,0,0,0-5.237-5.237" transform="translate(29.276 14.108)" fill="#fd4c1b"/>
        <g id="Grupo_882177" data-name="Grupo 882177" transform="translate(308.289 148.565)" opacity="0.7">
          <g id="Grupo_882176" data-name="Grupo 882176">
            <g id="Grupo_882175" data-name="Grupo 882175" clip-path="url(#clip-path-41)">
              <path id="Trazado_637264" data-name="Trazado 637264" d="M314.66,134.457H284.251a5.237,5.237,0,0,0-5.237,5.237V159.28a5.237,5.237,0,0,0,5.237,5.238H293l3.9,5.107a3.217,3.217,0,0,0,5.111,0l3.9-5.107h8.743a5.237,5.237,0,0,0,5.237-5.237V139.694a5.237,5.237,0,0,0-5.237-5.237" transform="translate(-279.014 -134.457)" fill="#fff"/>
            </g>
          </g>
        </g>
        <path id="Trazado_637265" data-name="Trazado 637265" d="M312.052,147.2l-9.733-5.94v3.561H297.86a10.758,10.758,0,0,0-10.51,13.161,10.779,10.779,0,0,1,10.51-8.4h4.458v3.561Z" transform="translate(30.122 14.822)" fill="#eb6f2d"/>
        <path id="Trazado_637266" data-name="Trazado 637266" d="M118.021,25.994h23.316a4.016,4.016,0,0,1,4.016,4.016V45.029a4.016,4.016,0,0,1-4.016,4.016h-6.7l-2.993,3.916a2.466,2.466,0,0,1-3.919,0l-2.994-3.916h-6.7A4.016,4.016,0,0,1,114,45.029V30.01a4.016,4.016,0,0,1,4.016-4.016" transform="translate(11.962 2.727)" fill="#fd4c1b"/>
        <g id="Grupo_882180" data-name="Grupo 882180" transform="translate(125.967 28.721)" opacity="0.7">
          <g id="Grupo_882179" data-name="Grupo 882179">
            <g id="Grupo_882178" data-name="Grupo 882178" clip-path="url(#clip-path-42)">
              <path id="Trazado_637267" data-name="Trazado 637267" d="M118.021,25.994h23.316a4.016,4.016,0,0,1,4.016,4.016V45.029a4.016,4.016,0,0,1-4.016,4.016h-6.7l-2.993,3.916a2.466,2.466,0,0,1-3.919,0l-2.994-3.916h-6.7A4.016,4.016,0,0,1,114,45.029V30.01a4.016,4.016,0,0,1,4.016-4.016" transform="translate(-114.005 -25.994)" fill="#fff"/>
            </g>
          </g>
        </g>
        <path id="Trazado_637268" data-name="Trazado 637268" d="M118.863,35.764l7.463-4.555v2.73h3.419A8.248,8.248,0,0,1,137.8,44.032a8.265,8.265,0,0,0-8.059-6.444h-3.419v2.73Z" transform="translate(12.472 3.275)" fill="#eb6f2d"/>
      </g>
    </g>
  </g>
</svg>
