<svg xmlns="http://www.w3.org/2000/svg" width="86" height="85.625" viewBox="0 0 86 85.625">
  <g id="Grupo_881182" data-name="Grupo 881182" transform="translate(0 0)">
    <path id="Trazado_634691" data-name="Trazado 634691" d="M96.562,181.77a5.375,5.375,0,0,1,5.375,5.375v45.687H24V187.145a5.375,5.375,0,0,1,5.375-5.375Zm0,0" transform="translate(-19.969 -151.238)" fill="#e0e0e0"/>
    <path id="Trazado_634692" data-name="Trazado 634692" d="M64,229.77h64.5v32.25H64Zm0,0" transform="translate(-53.25 -191.176)" fill="#a6e7ff"/>
    <path id="Trazado_634693" data-name="Trazado 634693" d="M56.375,453.77a2.688,2.688,0,0,1-2.687,2.688H45.625a2.688,2.688,0,0,1-2.687-2.687H8v2.688a5.375,5.375,0,0,0,5.375,5.375H85.937a5.375,5.375,0,0,0,5.375-5.375V453.77Zm0,0" transform="translate(-6.656 -377.551)" fill="#eee"/>
    <path id="Trazado_634694" data-name="Trazado 634694" d="M149.749,12.457,145.91,9.77l-3.839,2.687L138.232,9.77l-3.838,2.687-3.84-2.687-3.839,2.687L122.877,9.77l-3.839,2.687L115.2,9.77l-3.84,2.687L107.52,9.77l-3.84,2.687L99.84,9.77,96,12.457V78.972h53.75Zm0,0" transform="translate(-79.875 -8.128)" fill="#ffb338"/>
    <path id="Trazado_634695" data-name="Trazado 634695" d="M150.793,247.655l5.7-5.7,7.6,7.6-5.7,5.7Zm0,0" transform="translate(-125.465 -201.313)" fill="#fd4c1b"/>
    <path id="Trazado_634696" data-name="Trazado 634696" d="M184.734,166.651l7.6,7.6,2.85-2.85,12.352-4.751-15.2-15.2L187.584,163.8Zm0,0" transform="translate(-153.705 -126.01)" fill="#fd4c1b"/>
    <path id="Trazado_634697" data-name="Trazado 634697" d="M207.363,291.011l3.8-3.8,5.7,5.7a2.687,2.687,0,0,1-3.8,3.8Zm0,0" transform="translate(-172.533 -238.968)" fill="#90a4ae"/>
    <g id="Grupo_881181" data-name="Grupo 881181" transform="translate(21.5 10.376)">
      <path id="Trazado_634698" data-name="Trazado 634698" d="M297.879,134.524l5.7-5.7,1.9,1.9-5.7,5.7Zm0,0" transform="translate(-269.345 -117.561)" fill="#fff"/>
      <path id="Trazado_634699" data-name="Trazado 634699" d="M329.742,189.954l7.789-2.087.7,2.6-7.789,2.086Zm0,0" transform="translate(-295.856 -166.687)" fill="#fff"/>
      <path id="Trazado_634700" data-name="Trazado 634700" d="M256.2,99.49,258.29,91.7l2.6.7-2.086,7.788Zm0,0" transform="translate(-234.669 -86.675)" fill="#fff"/>
      <path id="Trazado_634701" data-name="Trazado 634701" d="M128,61.77h2.687V77.894H128Zm0,0" transform="translate(-128 -61.77)" fill="#fff"/>
      <path id="Trazado_634702" data-name="Trazado 634702" d="M160,61.77h2.687v10.75H160Zm0,0" transform="translate(-154.625 -61.77)" fill="#fff"/>
      <path id="Trazado_634703" data-name="Trazado 634703" d="M192,61.77h2.688v5.375H192Zm0,0" transform="translate(-181.25 -61.77)" fill="#fff"/>
      <path id="Trazado_634704" data-name="Trazado 634704" d="M368,301.77h2.688v16.125H368Zm0,0" transform="translate(-327.688 -261.458)" fill="#fff"/>
      <path id="Trazado_634705" data-name="Trazado 634705" d="M336,333.77h2.687v10.75H336Zm0,0" transform="translate(-301.063 -288.083)" fill="#fff"/>
      <path id="Trazado_634706" data-name="Trazado 634706" d="M304,365.77h2.687v5.375H304Zm0,0" transform="translate(-274.438 -314.708)" fill="#fff"/>
    </g>
    <path id="Trazado_634707" data-name="Trazado 634707" d="M83.312,74.875V35.907a6.726,6.726,0,0,0-6.719-6.719H71.218V3.629L66.035,0,62.2,2.688,58.359,0,54.518,2.688,50.68,0,46.841,2.688,43,0,39.162,2.688,35.322,0,31.483,2.688,27.642,0,23.8,2.688,19.961,0l-5.18,3.628V29.188H9.406a6.726,6.726,0,0,0-6.719,6.719V74.875H0v4.031a6.727,6.727,0,0,0,6.719,6.719H79.281A6.727,6.727,0,0,0,86,78.907V74.875ZM71.218,39.938h2.687V69.5H71.218ZM17.468,5.029l2.5-1.747,3.842,2.687,3.84-2.687,3.84,2.687,3.839-2.687,3.84,2.687L43,3.282l3.839,2.687L50.68,3.282l3.838,2.687,3.841-2.687L62.2,5.969l3.839-2.687,2.5,1.747V69.5H17.469ZM5.375,35.907a4.031,4.031,0,0,1,4.031-4.031h5.375v5.375H9.406V72.188H76.593V37.251H71.218V31.876h5.375a4.031,4.031,0,0,1,4.031,4.031V74.875H48.375v1.344a1.344,1.344,0,0,1-1.344,1.344H38.968a1.344,1.344,0,0,1-1.344-1.344V74.875H5.375Zm9.406,4.031V69.5H12.093V39.938ZM83.312,78.907a4.031,4.031,0,0,1-4.031,4.031H6.719a4.031,4.031,0,0,1-4.031-4.031V77.563H35.167a4.04,4.04,0,0,0,3.8,2.687h8.062a4.04,4.04,0,0,0,3.8-2.687H83.312Zm0,0"/>
    <path id="Trazado_634708" data-name="Trazado 634708" d="M172.3,155.21l-18.125-18.12-5.393,14.016-2.647,2.647-6.65,6.652,9.5,9.5,1.9-1.9,4.752,4.75a4.032,4.032,0,0,0,5.7-5.7l-4.75-4.75,1.7-1.7Zm-23.315,10.9-5.7-5.7,3.8-3.8,5.7,5.7Zm10.452,2.85a1.344,1.344,0,1,1-1.9,1.9l-4.752-4.75,1.9-1.894Zm-4.75-8.552-5.7-5.7,2.1-2.1,4.112-10.688,12.279,12.279L156.79,158.3Zm0,0" transform="translate(-116.059 -114.063)"/>
    <path id="Trazado_634709" data-name="Trazado 634709" d="M128.168,300.428l1.9-1.9,5.7,5.7-1.9,1.9Zm0,0" transform="translate(-106.64 -248.384)"/>
  </g>
</svg>
