<svg xmlns="http://www.w3.org/2000/svg" xmlns:xlink="http://www.w3.org/1999/xlink" width="476.423" height="817.147" viewBox="0 0 476.423 817.147">
  <defs>
    <clipPath id="clip-path">
      <rect id="Rectángulo_330398" data-name="Rectángulo 330398" width="109.66" height="104.976" fill="#eb6f2d"/>
    </clipPath>
    <clipPath id="clip-path-2">
      <rect id="Rectángulo_330399" data-name="Rectángulo 330399" width="87.608" height="175.261" fill="none"/>
    </clipPath>
    <clipPath id="clip-path-3">
      <rect id="Rectángulo_330400" data-name="Rectángulo 330400" width="11.761" height="20.601" fill="none"/>
    </clipPath>
    <clipPath id="clip-path-4">
      <rect id="Rectángulo_330401" data-name="Rectángulo 330401" width="71.178" height="146.45" fill="none"/>
    </clipPath>
    <clipPath id="clip-path-5">
      <rect id="Rectángulo_330402" data-name="Rectángulo 330402" width="55.185" height="50.792" fill="none"/>
    </clipPath>
  </defs>
  <g id="Grupo_1034356" data-name="Grupo 1034356" transform="translate(7432.424 -4303.683)">
    <path id="Trazado_637712" data-name="Trazado 637712" d="M224.626,231.458h0A40.776,40.776,0,1,1,265.4,190.682a40.775,40.775,0,0,1-40.776,40.776" transform="translate(-7449.08 4480.326)" fill="#b6e1fd"/>
    <rect id="Rectángulo_330389" data-name="Rectángulo 330389" width="8.439" height="27.263" transform="translate(-7242.944 4661.917)" fill="#fff"/>
    <path id="Trazado_637713" data-name="Trazado 637713" d="M206.883,175.137a5.031,5.031,0,1,0-4.991-5.032,5.012,5.012,0,0,0,4.991,5.032" transform="translate(-7445.648 4483.21)" fill="#fff"/>
    <path id="Trazado_637714" data-name="Trazado 637714" d="M222.292,189.613c0-3.832,1.764-6.117,5.142-6.117,3.1,0,4.594,2.192,4.594,6.117v14.311h8.4V186.662c0-7.3-4.14-10.833-9.919-10.833a9.505,9.505,0,0,0-8.216,4.5v-3.672h-8.1v27.263h8.1Z" transform="translate(-7443.307 4485.256)" fill="#fff"/>
    <path id="Trazado_637715" data-name="Trazado 637715" d="M266.547,115.94l5.583,10.21,10.21,5.583-10.21,5.583-5.583,10.21-5.583-10.21-10.21-5.583,10.21-5.583Z" transform="translate(-7436.354 4473.864)" fill="#b6e1fd"/>
    <path id="Trazado_645910" data-name="Trazado 645910" d="M266.547,115.94l5.583,10.21,10.21,5.583-10.21,5.583-5.583,10.21-5.583-10.21-10.21-5.583,10.21-5.583Z" transform="translate(-7489.683 4325.735)" fill="#b6e1fd"/>
    <path id="Trazado_637716" data-name="Trazado 637716" d="M231.37,119.166l1.89,3.455,3.454,1.889L233.26,126.4l-1.89,3.455-1.889-3.455-3.455-1.889,3.455-1.889Z" transform="translate(-7441.057 4474.478)" fill="#b6e1fd"/>
    <path id="Trazado_645911" data-name="Trazado 645911" d="M231.37,119.166l1.89,3.455,3.454,1.889L233.26,126.4l-1.89,3.455-1.889-3.455-3.455-1.889,3.455-1.889Z" transform="translate(-7494.387 4326.349)" fill="#b6e1fd"/>
    <path id="Trazado_637717" data-name="Trazado 637717" d="M154.956,392.609a12.342,12.342,0,0,0,7.207-11.514c-.061-6.819-5.292-12.3-11.687-12.25s-11.526,5.624-11.467,12.443a12.328,12.328,0,0,0,7.526,11.431c-17.779,2.914-16.72,22.264-16.72,22.264l42.126-.351s.708-19.584-16.986-22.022" transform="translate(-7459.36 4521.97)" fill="#b6e1fd"/>
    <path id="Trazado_637718" data-name="Trazado 637718" d="M410.789,125.131a6.557,6.557,0,0,0-12.932.386,6.557,6.557,0,0,0-12.935-.271,8.85,8.85,0,0,0,1.589,6.385,26.2,26.2,0,0,0,4.624,4.887c2.354,2.1,4.529,4.065,6.883,6.161,2.335-2.116,4.323-4.1,6.658-6.22a26.3,26.3,0,0,0,4.581-4.927,8.853,8.853,0,0,0,1.532-6.4" transform="translate(-7410.854 4474.605)" fill="#b6e1fd"/>
    <path id="Trazado_637719" data-name="Trazado 637719" d="M199.667,23.184h4.6l10.043-14V0s7.113-.438,6.276,11.59.068,8.966.068,8.966,15.1.058,16.359,1.371c.913.953,1.325,15.956,1.483,24.092.079,4.1-2.433,7.907-6.243,8.874a6.6,6.6,0,0,1-1.626.219c-3.766,0-23.014-3.064-23.014-3.064h-7.949Z" transform="translate(-7446.071 4451.811)" fill="#b6e1fd"/>
    <path id="Trazado_645902" data-name="Trazado 645902" d="M199.667,23.184h4.6l10.043-14V0s7.113-.438,6.276,11.59.068,8.966.068,8.966,15.1.058,16.359,1.371c.913.953,1.325,15.956,1.483,24.092.079,4.1-2.433,7.907-6.243,8.874a6.6,6.6,0,0,1-1.626.219c-3.766,0-23.014-3.064-23.014-3.064h-7.949Z" transform="translate(-7499.4 4303.682)" fill="#b6e1fd"/>
    <path id="Trazado_637720" data-name="Trazado 637720" d="M188.6,17.361l2.83,31.475h7.882V17.994Z" transform="translate(-7448.176 4455.113)" fill="#b6e1fd"/>
    <path id="Trazado_645903" data-name="Trazado 645903" d="M188.6,17.361l2.83,31.475h7.882V17.994Z" transform="translate(-7501.506 4306.984)" fill="#b6e1fd"/>
    <path id="Trazado_637721" data-name="Trazado 637721" d="M476.423,561.5c0,.214-106.659.387-238.2.387C106.637,561.89,0,561.717,0,561.5s106.637-.387,238.224-.387c131.541,0,238.2.173,238.2.387" transform="translate(-7432.424 4558.25)" fill="#263238"/>
    <path id="Trazado_637722" data-name="Trazado 637722" d="M144.047,163.189h0a48.359,48.359,0,1,1,42.2-53.814,48.359,48.359,0,0,1-42.2,53.814" transform="translate(-7466.954 4464.521)" fill="#fd4c1b"/>
    <path id="Trazado_645900" data-name="Trazado 645900" d="M124.3,128.049h0a30.726,30.726,0,1,1,26.815-34.192A30.726,30.726,0,0,1,124.3,128.049" transform="translate(-7485.015 4351.66)" fill="#fd4c1b"/>
    <path id="Trazado_637723" data-name="Trazado 637723" d="M119.391,118.38a1.136,1.136,0,0,0,1.541-1.015c.08-.593.263-2.088.35-2.711a1.594,1.594,0,0,0-.693-1.766,9.523,9.523,0,0,1-2.936-6.164c-1-8.277,4.294-16.434,14.228-17.635,8.794-1.064,14.277,3.727,15.144,10.9,1.143,9.443-2.073,17.917-8.278,18.667a5.106,5.106,0,0,1-5.933-5.681c.486-4.269,1.85-8.978,1.488-11.974-.325-2.68-2.034-4.743-5.012-4.384-3.5.424-5.878,4.388-5.292,9.242a12.682,12.682,0,0,0,1.672,5.056s-1.748,15.622-2.056,18.357c-.612,5.448,1.237,11.813,1.407,12.457a.439.439,0,0,0,.8.1c.273-.462,3.822-6.117,4.616-11.434.227-1.5,1.218-9.28,1.218-9.28,1.4,2.034,4.957,3.541,8.492,3.114,10.53-1.272,16.512-11.733,14.959-24.581-1.175-9.715-10.5-17.768-23-16.256-15.561,1.882-22.058,13.987-20.933,23.29.681,5.633,3.419,10.387,8.22,11.7" transform="translate(-7462.928 4467.638)" fill="#fff"/>
    <path id="Trazado_637724" data-name="Trazado 637724" d="M285.711,69.992h0a33.353,33.353,0,0,1-26.226-39.2h0a33.353,33.353,0,0,1,65.431,12.979h0a33.354,33.354,0,0,1-39.206,26.225" transform="translate(-7434.815 4452.556)" fill="#617a0b"/>
    <path id="Trazado_645905" data-name="Trazado 645905" d="M297.834,99.8h0A48.4,48.4,0,0,1,259.775,42.91l0,0a48.4,48.4,0,0,1,94.95,18.835v0A48.4,48.4,0,0,1,297.834,99.8" transform="translate(-7629.373 4319.783)" fill="#617a0b"/>
    <path id="Trazado_637725" data-name="Trazado 637725" d="M308.423,37.508A17.966,17.966,0,0,0,273.275,30.2c-.059.254-.118.507-.169.763a17.7,17.7,0,0,0,.732,9.532L268.8,49.247l10.373-1.166a17.986,17.986,0,0,0,29.169-10.125c.029-.149.058-.3.08-.448M287.809,49.159a15.039,15.039,0,0,1-7.666-4.05l-6.051.686,2.93-5.093a14.839,14.839,0,0,1-1.112-9.18,14.312,14.312,0,0,1,.357-1.412,15.109,15.109,0,0,1,29.449,6.133c-.043.386-.1.769-.179,1.156a15.06,15.06,0,0,1-17.729,11.76" transform="translate(-7432.92 4454.974)" fill="#fff" fill-rule="evenodd"/>
    <path id="Trazado_645907" data-name="Trazado 645907" d="M326.3,46.93a26.071,26.071,0,0,0-51.005-10.6c-.086.368-.171.736-.245,1.107a25.684,25.684,0,0,0,1.062,13.833l-7.308,12.7,15.052-1.693a26.1,26.1,0,0,0,42.328-14.693c.042-.216.085-.432.116-.649M296.383,63.837a21.824,21.824,0,0,1-11.125-5.878l-8.781.995,4.252-7.391a21.534,21.534,0,0,1-1.613-13.322,20.758,20.758,0,0,1,.518-2.048,21.926,21.926,0,0,1,42.736,8.9c-.062.56-.147,1.116-.259,1.677a21.854,21.854,0,0,1-25.728,17.066" transform="translate(-7622.13 4329.024)" fill="#fff" fill-rule="evenodd"/>
    <path id="Trazado_637726" data-name="Trazado 637726" d="M295.861,38.211c-.4-.3-2.309-1.762-2.677-1.979s-.642-.35-1.015.021-1.4,1.171-1.7,1.4-.567.223-.962-.079a11.925,11.925,0,0,1-3.051-2.817,13.091,13.091,0,0,1-1.813-3.437c-.162-.478.106-.665.363-.837.237-.158.53-.418.8-.621.073-.063.134-.119.2-.175a5,5,0,0,0,.374-.458.785.785,0,0,0,.115-.757c-.064-.236-.512-2.518-.7-3.448s-.576-.852-.832-.9-.528-.148-.816-.2a1.631,1.631,0,0,0-1.262.307,4.9,4.9,0,0,0-2.22,3.281,5.588,5.588,0,0,0-.067,1.5,9.922,9.922,0,0,0,.953,3.275c.158.324,2.044,5.344,6.089,7.938s4.171,2.01,4.977,2.094a4.392,4.392,0,0,0,3.316-1.46,3.612,3.612,0,0,0,.659-1.986c-.073-.194-.34-.358-.726-.658" transform="translate(-7430.682 4456.356)" fill="#fff" fill-rule="evenodd"/>
    <path id="Trazado_645908" data-name="Trazado 645908" d="M302.759,44.671c-.573-.437-3.351-2.556-3.884-2.872s-.931-.508-1.473.031-2.029,1.7-2.47,2.035-.822.323-1.4-.114a17.305,17.305,0,0,1-4.427-4.088,19,19,0,0,1-2.631-4.988c-.235-.694.154-.965.527-1.214.344-.23.769-.606,1.162-.9.105-.092.2-.173.287-.254A7.255,7.255,0,0,0,289,31.64a1.139,1.139,0,0,0,.167-1.1c-.093-.342-.743-3.655-1.023-5s-.836-1.237-1.207-1.311-.767-.214-1.185-.3a2.367,2.367,0,0,0-1.831.446,7.106,7.106,0,0,0-3.221,4.762,8.11,8.11,0,0,0-.1,2.181,14.4,14.4,0,0,0,1.383,4.753c.23.47,2.966,7.755,8.836,11.519,5.888,3.745,6.052,2.917,7.223,3.038s4.009-.76,4.812-2.119a5.241,5.241,0,0,0,.957-2.883c-.105-.282-.494-.52-1.054-.955" transform="translate(-7613.573 4334.309)" fill="#fff" fill-rule="evenodd"/>
    <path id="Trazado_637727" data-name="Trazado 637727" d="M155.5,268.423h0a25.433,25.433,0,1,1,25.432-25.432A25.433,25.433,0,0,1,155.5,268.423" transform="translate(-7459.31 4493.193)" fill="#2b95f9"/>
    <path id="Trazado_637728" data-name="Trazado 637728" d="M140.048,249.2a15.813,15.813,0,0,0,24.327-14.042,11.252,11.252,0,0,0,2.774-2.878,11.1,11.1,0,0,1-3.193.875,5.57,5.57,0,0,0,2.445-3.076,11.171,11.171,0,0,1-3.53,1.35A5.564,5.564,0,0,0,153.4,236.5a15.782,15.782,0,0,1-11.459-5.809,5.566,5.566,0,0,0,1.72,7.423,5.529,5.529,0,0,1-2.518-.7,5.567,5.567,0,0,0,4.459,5.524,5.559,5.559,0,0,1-2.509.094,5.564,5.564,0,0,0,5.193,3.862,11.178,11.178,0,0,1-8.232,2.3" transform="translate(-7457.411 4495.498)" fill="#fff"/>
    <path id="Trazado_637729" data-name="Trazado 637729" d="M198.458,513.479h0a43.8,43.8,0,1,1,32.461-52.763,43.805,43.805,0,0,1-32.461,52.763" transform="translate(-7456.565 4533.042)" fill="#fd4c1b"/>
    <path id="Trazado_637730" data-name="Trazado 637730" d="M180.885,448.854c6.239-1.487,6.984-1.639,9.474-2.113a13.283,13.283,0,0,1,4.53-.23,7.956,7.956,0,0,1,5.49,3.378,13.275,13.275,0,0,1,1.838,4.148c.7,2.436.9,3.17,2.386,9.409s1.638,6.983,2.113,9.473a13.306,13.306,0,0,1,.229,4.53,7.956,7.956,0,0,1-3.378,5.49,13.3,13.3,0,0,1-4.147,1.839c-2.436.7-3.17.9-9.409,2.384s-6.983,1.639-9.473,2.114a13.3,13.3,0,0,1-4.53.229,7.949,7.949,0,0,1-5.49-3.378,13.273,13.273,0,0,1-1.839-4.147c-.7-2.436-.9-3.17-2.385-9.409s-1.638-6.983-2.113-9.473a13.322,13.322,0,0,1-.23-4.531,7.953,7.953,0,0,1,3.379-5.489,13.245,13.245,0,0,1,4.147-1.839c2.436-.7,3.17-.9,9.407-2.385m-1-4.21c-6.345,1.512-7.134,1.728-9.6,2.435a17.649,17.649,0,0,0-5.412,2.438,12.27,12.27,0,0,0-5.2,8.461,17.6,17.6,0,0,0,.265,5.93c.48,2.52.642,3.321,2.153,9.667s1.728,7.134,2.436,9.6a17.6,17.6,0,0,0,2.436,5.413,12.288,12.288,0,0,0,8.461,5.2,17.6,17.6,0,0,0,5.93-.266c2.52-.48,3.322-.643,9.667-2.154s7.134-1.727,9.6-2.435a17.66,17.66,0,0,0,5.413-2.436,12.288,12.288,0,0,0,5.2-8.461,17.629,17.629,0,0,0-.264-5.93c-.481-2.52-.644-3.322-2.155-9.667s-1.728-7.134-2.435-9.6a17.652,17.652,0,0,0-2.436-5.412,12.277,12.277,0,0,0-8.461-5.2,17.636,17.636,0,0,0-5.931.264c-2.518.481-3.321.643-9.666,2.154" transform="translate(-7453.707 4535.901)" fill="#fff"/>
    <path id="Trazado_637731" data-name="Trazado 637731" d="M180.419,453.839a12.334,12.334,0,1,0,14.855,9.14,12.334,12.334,0,0,0-14.855-9.14m4.713,19.786a8.006,8.006,0,1,1,5.932-9.643,8.006,8.006,0,0,1-5.932,9.643" transform="translate(-7451.535 4538.073)" fill="#fff"/>
    <path id="Trazado_637732" data-name="Trazado 637732" d="M192.552,450.683a2.883,2.883,0,1,1-3.472-2.136,2.882,2.882,0,0,1,3.472,2.136" transform="translate(-7448.506 4537.116)" fill="#fff"/>
    <path id="Trazado_637733" data-name="Trazado 637733" d="M344.446,110.686h0a20.428,20.428,0,1,1,20.428-20.428,20.427,20.427,0,0,1-20.428,20.428" transform="translate(-7422.417 4465.094)" fill="#2b95f9"/>
    <path id="Trazado_645912" data-name="Trazado 645912" d="M344.446,110.686h0a20.428,20.428,0,1,1,20.428-20.428,20.427,20.427,0,0,1-20.428,20.428" transform="translate(-7475.747 4316.965)" fill="#2b95f9"/>
    <path id="Trazado_637734" data-name="Trazado 637734" d="M338.978,101.315h4.973V88.863h3.469l.37-4.169h-3.84V82.318c0-.982.2-1.371,1.149-1.371h2.691V76.619h-3.443c-3.7,0-5.369,1.631-5.369,4.75v3.324h-2.586v4.22h2.586Z" transform="translate(-7420.064 4466.385)" fill="#fff"/>
    <path id="Trazado_645913" data-name="Trazado 645913" d="M338.978,101.315h4.973V88.863h3.469l.37-4.169h-3.84V82.318c0-.982.2-1.371,1.149-1.371h2.691V76.619h-3.443c-3.7,0-5.369,1.631-5.369,4.75v3.324h-2.586v4.22h2.586Z" transform="translate(-7473.394 4318.256)" fill="#fff"/>
    <path id="Trazado_637735" data-name="Trazado 637735" d="M442.011,639.3,277.9,639.2a35.746,35.746,0,0,1-35.728-35.755L242.248,192a35.751,35.751,0,0,1,35.771-35.743l164.115.1a35.75,35.75,0,0,1,35.728,35.756l-.081,411.44A35.748,35.748,0,0,1,442.011,639.3" transform="translate(-7437.986 4481.534)" fill="#263238"/>
    <path id="Trazado_637736" data-name="Trazado 637736" d="M440.222,168.584l-31.819-.019a7.9,7.9,0,0,0-7.727,8.073l0,5.771a7.9,7.9,0,0,1-7.728,8.073l-62.022-.037a7.911,7.911,0,0,1-7.724-8.082v-5.771a7.912,7.912,0,0,0-7.726-8.082l-11.19-.007-27.85-.017a25.037,25.037,0,0,0-25.05,25.033L251.3,595.115a25.036,25.036,0,0,0,25.022,25.042l163.786.1a25.037,25.037,0,0,0,25.052-25.031l.079-401.6a25.037,25.037,0,0,0-25.022-25.041" transform="translate(-7436.249 4483.86)" fill="#fff"/>
    <path id="Trazado_637737" data-name="Trazado 637737" d="M415,196c0,.108-4.137.23-9.241.271s-9.244-.011-9.244-.119,4.136-.229,9.241-.271S415,195.894,415,196" transform="translate(-7408.628 4489.068)" fill="#263238"/>
    <path id="Trazado_637738" data-name="Trazado 637738" d="M415.029,199.975c0,.107-4.137.23-9.241.271s-9.244-.011-9.244-.119,4.136-.229,9.241-.271,9.243.012,9.244.119" transform="translate(-7408.622 4489.824)" fill="#263238"/>
    <path id="Trazado_637739" data-name="Trazado 637739" d="M415.062,203.949c0,.108-4.137.23-9.241.271s-9.244-.011-9.244-.119,4.136-.229,9.241-.271,9.243.012,9.244.119" transform="translate(-7408.616 4490.58)" fill="#263238"/>
    <path id="Trazado_637740" data-name="Trazado 637740" d="M265.862,210.92a3.8,3.8,0,0,1,.484-.032l1.347-.045,4.974-.118-.138.139c-.018-1.1-.037-2.307-.058-3.606.007-.67-.057-1.3.008-2.077a1.912,1.912,0,0,1,1.669-1.533c.8-.015,1.508-.052,2.377-.012a1.932,1.932,0,0,1,1.632,1.921c.019,1.682.038,3.439.059,5.261l-.231-.227,6.275-.063-.238.243c-.023-2.528-.046-5.142-.07-7.819q-.009-1-.017-1.991a2.031,2.031,0,0,0-.882-1.483q-1.394-1.373-2.743-2.7l-2.647-2.611-1.282-1.266c-.442-.425-.787-.864-1.3-.969a1.684,1.684,0,0,0-1.439.275c-.38.321-.785.776-1.169,1.149l-2.251,2.271c-1.416,1.471-2.892,2.815-3.963,4.086a4.446,4.446,0,0,0-.317,2.341q0,1.168,0,2.211-.012,2.034-.021,3.561c-.011.911-.019,1.663-.026,2.278a7.919,7.919,0,0,1-.03.821,5.69,5.69,0,0,1-.043-.755c-.018-.607-.038-1.346-.063-2.242q-.036-1.539-.081-3.591-.02-1.064-.042-2.254c-.006-.4-.013-.812-.019-1.233a2.6,2.6,0,0,1,.345-1.314c1.162-1.422,2.547-2.682,3.974-4.2l2.234-2.289c.4-.4.732-.788,1.21-1.2a2.135,2.135,0,0,1,1.82-.358,3.388,3.388,0,0,1,1.507,1.077q.636.625,1.288,1.262l2.654,2.6q1.353,1.326,2.749,2.7a5.154,5.154,0,0,1,.7.759,2.042,2.042,0,0,1,.33,1.058q.009.994.018,2c.02,2.678.04,5.292.06,7.819v.242h-.24l-6.275.04h-.23v-.229c-.01-1.822-.019-3.579-.027-5.261a1.513,1.513,0,0,0-1.269-1.523c-.721-.038-1.572-.013-2.276-.007a1.539,1.539,0,0,0-1.352,1.22c-.061.631-.014,1.366-.027,2.006q0,1.95,0,3.608V211h-.138l-5.057-.035-1.318-.023a2.445,2.445,0,0,1-.433-.025" transform="translate(-7433.527 4488.222)" fill="#263238"/>
    <path id="Trazado_637741" data-name="Trazado 637741" d="M363.776,471.509a9.189,9.189,0,0,1-1.72.12l-4.689.1c-3.96.056-9.429.09-15.47.09s-11.514-.035-15.474-.09l-4.689-.1a9.166,9.166,0,0,1-1.719-.12,9.19,9.19,0,0,1,1.719-.12l4.689-.1c3.96-.056,9.43-.09,15.474-.09s11.511.035,15.47.09l4.689.1a9.213,9.213,0,0,1,1.72.12" transform="translate(-7423.179 4541.439)" fill="#455a64"/>
    <path id="Trazado_637742" data-name="Trazado 637742" d="M432.56,480.554c0,.171-25.2.309-56.271.309s-56.276-.138-56.276-.309,25.191-.309,56.276-.309,56.271.138,56.271.309" transform="translate(-7423.18 4543.16)" fill="#455a64"/>
    <path id="Trazado_637743" data-name="Trazado 637743" d="M397.389,489.064c0,.171-17.322.309-38.685.309s-38.69-.138-38.69-.309,17.319-.309,38.69-.309,38.685.138,38.685.309" transform="translate(-7423.18 4544.779)" fill="#455a64"/>
    <path id="Trazado_637744" data-name="Trazado 637744" d="M417.533,507.213l-3.5-3.506-3.329,3.32.015-10.038,6.826.011Zm-3.5-3.943.109.108,3.078,3.09.014-9.161-6.208-.01-.014,8.985Z" transform="translate(-7405.928 4546.345)" fill="#263238"/>
    <path id="Trazado_637745" data-name="Trazado 637745" d="M339.216,505.589l-1.234-.55a3.38,3.38,0,1,1,1.8-2.97,3.413,3.413,0,0,1-.853,2.285Zm-2.885-6.684a3.193,3.193,0,0,0,.051,6.385,3.315,3.315,0,0,0,1.538-.484l.051-.03.909.407-.206-.9.042-.045a3.189,3.189,0,0,0-2.385-5.338" transform="translate(-7420.723 4546.665)" fill="#263238"/>
    <path id="Trazado_637746" data-name="Trazado 637746" d="M345.526,504.984l-1.414-3.453-2.653-2.416,6.433-.052Zm-3.466-5.639,2.259,2.073,1.2,2.94,2.021-5.057Z" transform="translate(-7419.1 4546.739)" fill="#263238"/>
    <path id="Trazado_637747" data-name="Trazado 637747" d="M343.937,501.542l-.129-.2,3.509-2.282.127.2Z" transform="translate(-7418.653 4546.74)" fill="#263238"/>
    <path id="Trazado_637748" data-name="Trazado 637748" d="M330.966,499.968a1.99,1.99,0,0,0-3.924.131,1.989,1.989,0,0,0-3.924-.068,2.685,2.685,0,0,0,.488,1.936,7.993,7.993,0,0,0,1.409,1.477c.717.633,1.378,1.228,2.095,1.861.707-.644,1.308-1.25,2.014-1.895a7.906,7.906,0,0,0,1.384-1.5,2.681,2.681,0,0,0,.458-1.944" transform="translate(-7422.595 4546.608)" fill="#e8505b"/>
    <path id="Trazado_637749" data-name="Trazado 637749" d="M452.934,523.28s-.014-.386-.021-1.12-.012-1.832-.021-3.256c-.011-2.872-.029-7.095-.05-12.566-.026-10.939-.064-26.854-.112-46.816l.2.2-190.334.106h-.013l.311-.309c0,22.157-.007,43.652-.011,63.759l-.3-.3,136.2.139,39.76.084,10.669.038,2.766.019c.624.006.951.019.951.019s-.3.013-.914.019l-2.729.019-10.606.038-39.691.084-136.407.139h-.3v-.3c0-20.106-.006-41.6-.01-63.759v-.311h.323l190.334.106h.2v.2c-.048,20.015-.086,35.971-.112,46.938-.023,5.451-.039,9.66-.05,12.52q-.014,2.114-.023,3.221c-.006.723-.02,1.08-.02,1.08" transform="translate(-7434.162 4539.159)" fill="#263238"/>
    <rect id="Rectángulo_330393" data-name="Rectángulo 330393" width="42.153" height="52.726" transform="translate(-7163.898 5051.487) rotate(-89.675)" fill="#ebebeb"/>
    <path id="Trazado_637750" data-name="Trazado 637750" d="M322,468.767a1.829,1.829,0,0,1-.264.014l-.747.012-2.878.017-10.811.012-38.026-.077.278-.275c-.062,12.55-.132,26.93-.207,42.148.065.075-.577-.587-.3-.307h.444l.456,0,.913,0,1.817.011,3.609.021,7.1.043,13.679.088c8.856.064,17.158.125,24.693.179l-.259.257c.127-12.658.233-23.158.307-30.53.05-3.667.088-6.553.115-8.559.018-.969.032-1.722.042-2.266.013-.516.033-.8.033-.8s.018.243.024.74c0,.533.01,1.271.017,2.219,0,1.992.011,4.86.019,8.5-.011,7.411-.025,17.967-.042,30.693v.257h-.259l-24.692-.1-13.68-.068-7.1-.038-3.609-.019-1.818-.011-.913,0-.456,0h-.444c.271.277-.387-.377-.318-.317.1-15.218.192-29.6.273-42.148v-.279l.277,0,38.2.356,10.748.135,2.823.05.716.019a1.13,1.13,0,0,1,.232.018" transform="translate(-7432.936 4540.867)" fill="#263238"/>
    <rect id="Rectángulo_330394" data-name="Rectángulo 330394" width="36.846" height="49.022" transform="matrix(0.006, -1, 1, 0.006, -7162.065, 5048.843)" fill="#e0e0e0"/>
    <path id="Trazado_637751" data-name="Trazado 637751" d="M270.527,505.262l17.252-22.806,10.524,14.39,7.238-7.62,14.008,16.314Z" transform="translate(-7432.592 4543.581)" fill="#f5f5f5"/>
    <path id="Trazado_637752" data-name="Trazado 637752" d="M298.963,480.792a3.86,3.86,0,1,1-3.837-3.881,3.86,3.86,0,0,1,3.837,3.881" transform="translate(-7428.652 4542.526)" fill="#f5f5f5"/>
    <path id="Trazado_637753" data-name="Trazado 637753" d="M352.746,238.975a1.982,1.982,0,0,1-.563.062l-1.614.058-5.939.1c-5.013.056-11.94.09-19.591.09s-14.58-.035-19.594-.09l-5.938-.1-1.614-.058a1.982,1.982,0,0,1-.563-.062,1.928,1.928,0,0,1,.563-.062l1.614-.058,5.938-.1c5.014-.056,11.941-.09,19.594-.09s14.578.035,19.591.09l5.939.1,1.614.058a1.929,1.929,0,0,1,.563.062" transform="translate(-7427.494 4497.208)" fill="#263238"/>
    <path id="Trazado_637754" data-name="Trazado 637754" d="M410.956,437.135l-5.2-5.212-4.948,4.935.023-14.919,10.144.015Zm-5.2-5.861.163.162,4.574,4.591.021-13.615-9.227-.014-.02,13.353Z" transform="translate(-7407.81 4532.069)" fill="#263238"/>
    <path id="Trazado_637755" data-name="Trazado 637755" d="M300.455,435.564l-2.43-1.083a6.653,6.653,0,1,1,3.547-5.844,6.718,6.718,0,0,1-1.679,4.5Zm-5.678-13.157a6.284,6.284,0,1,0,.1,12.567,6.485,6.485,0,0,0,3.026-.953l.1-.057,1.79.8-.4-1.76.081-.088a6.277,6.277,0,0,0-4.693-10.508" transform="translate(-7429.254 4532.071)" fill="#263238"/>
    <path id="Trazado_637756" data-name="Trazado 637756" d="M312.875,434.374l-2.784-6.794-5.22-4.757,12.662-.1Zm-6.822-11.1,4.447,4.081,2.371,5.787,3.978-9.955Z" transform="translate(-7426.06 4532.218)" fill="#263238"/>
    <rect id="Rectángulo_330395" data-name="Rectángulo 330395" width="8.237" height="0.463" transform="matrix(0.838, -0.545, 0.545, 0.838, -7115.684, 4959.43)" fill="#263238"/>
    <path id="Trazado_637757" data-name="Trazado 637757" d="M284.216,424.5a3.917,3.917,0,0,0-7.724.258,3.916,3.916,0,0,0-7.726-.135,5.281,5.281,0,0,0,.962,3.811,15.684,15.684,0,0,0,2.773,2.909c1.41,1.246,2.714,2.417,4.124,3.665,1.39-1.269,2.573-2.46,3.963-3.73a15.7,15.7,0,0,0,2.726-2.953,5.3,5.3,0,0,0,.9-3.825" transform="translate(-7432.94 4531.958)" fill="#fd4c1b"/>
    <path id="Trazado_637758" data-name="Trazado 637758" d="M290.727,240.3a8.589,8.589,0,1,1-8.589-8.589,8.588,8.588,0,0,1,8.589,8.589" transform="translate(-7432.018 4495.886)" fill="#ebebeb"/>
    <path id="Trazado_637759" data-name="Trazado 637759" d="M432.319,393.357c0,.171-36.016.309-80.433.309-44.433,0-80.441-.138-80.441-.309s36.008-.309,80.441-.309c44.418,0,80.433.138,80.433.309" transform="translate(-7432.418 4526.574)" fill="#455a64"/>
    <path id="Trazado_637760" data-name="Trazado 637760" d="M432.319,382.1c0,.171-36.016.309-80.433.309-44.433,0-80.441-.138-80.441-.309s36.008-.309,80.441-.309c44.418,0,80.433.138,80.433.309" transform="translate(-7432.418 4524.433)" fill="#455a64"/>
    <path id="Trazado_637761" data-name="Trazado 637761" d="M359.01,404.763c0,.171-19.6.309-43.781.309s-43.784-.138-43.784-.309,19.6-.309,43.784-.309,43.781.138,43.781.309" transform="translate(-7432.418 4528.744)" fill="#455a64"/>
    <path id="Trazado_637762" data-name="Trazado 637762" d="M337.031,527.9a3.419,3.419,0,1,1-3.4-3.484,3.443,3.443,0,0,1,3.4,3.484" transform="translate(-7421.243 4551.562)" fill="#263238"/>
    <path id="Trazado_637763" data-name="Trazado 637763" d="M345.928,527.941a3.418,3.418,0,1,1-3.4-3.484,3.443,3.443,0,0,1,3.4,3.484" transform="translate(-7419.55 4551.57)" fill="#263238"/>
    <path id="Trazado_637764" data-name="Trazado 637764" d="M354.825,527.982a3.418,3.418,0,1,1-3.4-3.484,3.441,3.441,0,0,1,3.4,3.484" transform="translate(-7417.858 4551.578)" fill="#263238"/>
    <rect id="Rectángulo_330396" data-name="Rectángulo 330396" width="190.347" height="116.408" transform="translate(-7170.435 4753.182)" fill="#e0e0e0"/>
    <path id="Trazado_637765" data-name="Trazado 637765" d="M278.259,362.7,332.8,289.691l33.814,45.655,22.919-24.418,44.95,51.723Z" transform="translate(-7431.122 4506.914)" fill="#f5f5f5"/>
    <path id="Trazado_637766" data-name="Trazado 637766" d="M368.472,284.132a12.3,12.3,0,1,1-12.3-12.3,12.3,12.3,0,0,1,12.3,12.3" transform="translate(-7418.642 4503.518)" fill="#f5f5f5"/>
    <path id="Trazado_637767" data-name="Trazado 637767" d="M453.462,484.039c0-2.49-.115-107.649-.281-263.323l.281.281-190.325.029h-.021l.309-.309c-.021,98.477-.042,189.614-.058,263.323l-.251-.252,190.346.252-190.346.252h-.252v-.252c-.017-73.709-.037-164.846-.058-263.323v-.309h.332l190.325.029h.281v.281c-.057,77.914-.1,143.773-.139,190.163-.032,23.161-.057,41.461-.075,53.98-.014,6.242-.026,11.039-.033,14.286-.007,1.61-.013,2.835-.017,3.665s-.017,1.23-.017,1.23" transform="translate(-7434.061 4493.735)" fill="#263238"/>
    <path id="Trazado_637768" data-name="Trazado 637768" d="M360.17,479.677l4.211-14.149c.734-3.067,1.71-6.687,3.023-10.817,1.18-3.712,4.207-7.613,6.97-10.422,4.3-4.372,6.343-4.4,9.231-6.721.263-.169.557-.411.8-.544a4.549,4.549,0,0,0,1.406-1.216c2.489-2.692.1-6.86-4.958-6.464-3.806.3-10.014,1.388-20.11,11.8-.125.157-.258.29-.382.452-5.3,6.887-10.273-12.773-11.171-20.091-.582-4.749-5.718-7.666-10.364-5.949l-24.591,11.5a11.473,11.473,0,0,0-7.179.243,7.309,7.309,0,0,0-4.685,8.674l9.974,39.815-29.294,97.47h63.138Z" transform="translate(-7430.209 4530.762)" fill="#ffbe9d"/>
    <path id="Trazado_637769" data-name="Trazado 637769" d="M406.307,396.337,386.79,434.582l-9.759-2.711-49.056,39.9a9.937,9.937,0,0,1-13.8-1.227l-18.677-21.7s37.66-16.223,44.625-29.652-1.083-16.475-1.083-16.475l17.725-20.141Z" transform="translate(-7427.843 4524.582)" fill="#eb6f2d"/>
    <path id="Trazado_637770" data-name="Trazado 637770" d="M403.568,350.065s-28.57-6.319-68.774-44.981-59.094-90-64.016-89.75-26.408-9.725-67.276,79.173-24.77,109.543-16.637,109.376,63.35-15.555,97.84-11.634,78.823,21.9,78.823,21.9Z" transform="translate(-7450.418 4492.728)" fill="#ffb338"/>
    <path id="Trazado_637771" data-name="Trazado 637771" d="M435.4,379.629l-9.747,18.532-4.367,8.3a24.185,24.185,0,0,1-31.526,10.71l-61.235-21.336,35.662-81.415,61.179,32.6a24.189,24.189,0,0,1,10.034,32.6" transform="translate(-7421.56 4511.618)" fill="#e8505b"/>
    <g id="Grupo_882271" data-name="Grupo 882271" transform="translate(-7093.033 4826.039)" opacity="0.4">
      <g id="Grupo_882270" data-name="Grupo 882270">
        <g id="Grupo_882269" data-name="Grupo 882269" clip-path="url(#clip-path)">
          <path id="Trazado_637772" data-name="Trazado 637772" d="M435.4,379.629l-9.747,18.532-4.367,8.3a24.185,24.185,0,0,1-31.526,10.71l-61.235-21.336,35.662-81.415,61.179,32.6a24.189,24.189,0,0,1,10.034,32.6" transform="translate(-328.527 -314.421)" fill="#eb6f2d"/>
        </g>
      </g>
    </g>
    <path id="Trazado_637773" data-name="Trazado 637773" d="M205.951,295.8c-21.75,48.157-30.8,91.07-20.222,95.849s36.79-30.387,58.539-78.543,30.8-91.069,20.223-95.848S227.7,247.641,205.951,295.8" transform="translate(-7449.563 4493.054)" fill="#ffb338"/>
    <g id="Grupo_882274" data-name="Grupo 882274" transform="translate(-7273.385 4714.363)" opacity="0.5">
      <g id="Grupo_882273" data-name="Grupo 882273" transform="translate(0 0)">
        <g id="Grupo_882272" data-name="Grupo 882272" clip-path="url(#clip-path-2)">
          <path id="Trazado_637774" data-name="Trazado 637774" d="M205.951,295.8c-21.75,48.157-30.8,91.07-20.222,95.849s36.79-30.387,58.539-78.543,30.8-91.069,20.223-95.848S227.7,247.641,205.951,295.8" transform="translate(-181.305 -216.822)"/>
        </g>
      </g>
    </g>
    <path id="Trazado_637775" data-name="Trazado 637775" d="M425.39,395.66l-16.6-5.213,10.27-19.529,12.448,7.739Z" transform="translate(-7406.292 4522.364)" fill="#ffb338"/>
    <g id="Grupo_882277" data-name="Grupo 882277" transform="translate(-6997.5 4893.283)" opacity="0.6">
      <g id="Grupo_882276" data-name="Grupo 882276">
        <g id="Grupo_882275" data-name="Grupo 882275" clip-path="url(#clip-path-3)">
          <path id="Trazado_637776" data-name="Trazado 637776" d="M419.064,370.918l-10.27,19.529,3.41,1.072,8.35-19.675Z" transform="translate(-408.793 -370.918)"/>
        </g>
      </g>
    </g>
    <path id="Trazado_637777" data-name="Trazado 637777" d="M413.588,377.321c-.244.537-8.527-2.683-18.5-7.191s-17.867-8.6-17.625-9.135,8.523,2.684,18.5,7.192,17.865,8.6,17.623,9.134" transform="translate(-7412.252 4520.466)" fill="#7e581b"/>
    <path id="Trazado_637778" data-name="Trazado 637778" d="M417.305,367.5c-.262.53-7.758-2.63-16.744-7.054S384.5,352,384.76,351.475s7.753,2.632,16.744,7.058,16.06,8.441,15.8,8.968" transform="translate(-7410.865 4518.655)" fill="#7e581b"/>
    <path id="Trazado_637779" data-name="Trazado 637779" d="M407.668,387.3c-.088.283-2.059-.171-5.2-1.144-1.571-.484-3.433-1.1-5.493-1.813-2.046-.741-4.17-1.815-6.447-2.847-9.08-4.215-16.013-8.342-15.786-8.83.268-.578,7.679,2.72,16.675,6.894,2.257,1.021,4.35,2.148,6.324,2.972,1.98.8,3.758,1.548,5.241,2.207,2.97,1.319,4.778,2.281,4.692,2.561" transform="translate(-7412.771 4522.685)" fill="#7e581b"/>
    <path id="Trazado_637780" data-name="Trazado 637780" d="M246.032,274.744s-24.831-15.4-38.418,18.151,12.541,39.065,12.541,39.065a223.483,223.483,0,0,0,25.876-57.216" transform="translate(-7445.304 4503.4)" fill="#eb6f2d"/>
    <g id="Grupo_882280" data-name="Grupo 882280" transform="translate(-7244.009 4738.161)" opacity="0.5">
      <g id="Grupo_882279" data-name="Grupo 882279">
        <g id="Grupo_882278" data-name="Grupo 882278" clip-path="url(#clip-path-4)">
          <path id="Trazado_637781" data-name="Trazado 637781" d="M272.826,240.587c.144.025-.209,2.3-.974,6.409-.786,4.1-1.895,10.05-3.489,17.357-1.049,3.6-2.2,7.528-3.428,11.74q-.932,3.167-1.929,6.539-.5,1.687-1.014,3.418c-.369,1.146-.853,2.27-1.287,3.428-1.788,4.617-3.663,9.459-5.608,14.475q-.734,1.882-1.479,3.8c-.482,1.282-1.165,2.489-1.745,3.75q-1.819,3.753-3.691,7.61t-3.7,7.608c-.633,1.237-1.162,2.52-1.867,3.692s-1.388,2.351-2.072,3.511l-7.911,13.36c-.646,1.056-1.228,2.13-1.9,3.131q-1.046,1.478-2.065,2.916-2.039,2.869-3.953,5.568c-2.554,3.574-4.938,6.909-7.12,9.963-4.749,5.752-8.73,10.291-11.464,13.441-2.753,3.136-4.328,4.826-4.443,4.732s1.247-1.961,3.8-5.26l10.938-13.87c2.1-3.078,4.394-6.439,6.853-10.041l3.83-5.579q.989-1.434,2.006-2.912c.655-1,1.224-2.078,1.852-3.133,2.471-4.253,5.064-8.712,7.752-13.334l2.04-3.494c.7-1.168,1.218-2.442,1.844-3.674q1.809-3.728,3.666-7.558t3.675-7.552c.578-1.252,1.263-2.448,1.745-3.719q.75-1.894,1.485-3.761c1.972-4.968,3.873-9.762,5.687-14.333.442-1.146.936-2.258,1.319-3.391q.534-1.714,1.051-3.383,1.039-3.331,2.019-6.466c1.314-4.163,2.538-8.048,3.659-11.6l4.131-17.135c1.014-4.044,1.645-6.272,1.789-6.247" transform="translate(-201.679 -240.587)"/>
        </g>
      </g>
    </g>
    <g id="Grupo_882283" data-name="Grupo 882283" transform="translate(-7126.397 4936.748)" opacity="0.4">
      <g id="Grupo_882282" data-name="Grupo 882282">
        <g id="Grupo_882281" data-name="Grupo 882281" clip-path="url(#clip-path-5)">
          <path id="Trazado_637782" data-name="Trazado 637782" d="M300.495,441.45c2.265,4.112,4.576,8.289,7.929,11.575s7.955,5.614,12.626,5.144,9.1-4.35,9.147-9.044c2.242,1.685,5.678.772,7.535-1.329s2.46-5.02,2.683-7.816c3.044,1.8,7.279.371,9.311-2.521s2.158-6.789,1.174-10.185-2.951-6.407-4.889-9.362c2.345.189,4.829.353,6.926-.711s3.513-3.837,2.29-5.845a5.821,5.821,0,0,0-3.414-2.178c-3.674-1.15-6.252-2.071-10.076-1.626-.889.008,1.529,10.087-22.476,23.873-14.172,8.139-18.765,10.025-18.765,10.025" transform="translate(-300.495 -407.437)"/>
        </g>
      </g>
    </g>
    <path id="Trazado_637783" data-name="Trazado 637783" d="M349.813,448.341c-.015.111-1.614-.2-4.2-.126a23.766,23.766,0,0,0-17.644,8.459c-1.677,1.976-2.439,3.414-2.535,3.358a3.718,3.718,0,0,1,.47-1.043,19.3,19.3,0,0,1,1.726-2.592,22.5,22.5,0,0,1,17.978-8.62,19.121,19.121,0,0,1,3.1.279,3.689,3.689,0,0,1,1.107.286" transform="translate(-7422.15 4536.983)" fill="#eb996e"/>
    <path id="Trazado_637784" data-name="Trazado 637784" d="M301.81,434.021c3.867,3.715,6.512,7.815,10.568,11.556,1.842,1.7,4.706,4.92,7.177,5.349s4.054.1,5.031-2.208c.791-1.871-.63-4.425-1.613-5.967-2.583-4.054-5.055-7.223-6.99-10.374-.906-1.476.268-1.782.7-1.1,1.862,1.929,4.638,3.6,6.3,5.7,2.284,2.877,2.7,6.687,8.671,5.481a5.345,5.345,0,0,0,2.217-.921c2.248-1.72,2.344-4.713,1.4-7.11a19.5,19.5,0,0,0-3.325-5.031c2.541,2.871,5.318,5.9,9.36,6.22a5.568,5.568,0,0,0,5.661-3.062c1.2-2.716-.519-5.342-2.24-7.465a77.84,77.84,0,0,0-10.151-10.372,7.735,7.735,0,0,0-4.935-1.829c-2.09-.013-4.707.38-6,2.2a8.117,8.117,0,0,0-1.623,6.221s-5.243-2.658-9.457.123a13.36,13.36,0,0,0-5.256,7.56Z" transform="translate(-7426.642 4530.349)" fill="#ffbe9d"/>
    <path id="Trazado_637785" data-name="Trazado 637785" d="M325.494,413.734a6.28,6.28,0,0,1-.743-7.093c.893-1.748,2.017-3.447,3.159-3.831,4.988-1.683,26.782,2.088,26.583,6.925-.2,4.967-1.79,7.153-13.618,5.444-2.08-.3-5.345-.71-5.345-.71l-2.855,4.286Z" transform="translate(-7422.42 4528.354)" fill="#ffbe9d"/>
    <path id="Trazado_637786" data-name="Trazado 637786" d="M330.455,430.682c-.173.106-1.832-3.278-5.218-6.312-3.35-3.074-6.881-4.394-6.793-4.576a6.975,6.975,0,0,1,2.308.813,20.7,20.7,0,0,1,8.668,7.858,7,7,0,0,1,1.034,2.217" transform="translate(-7423.478 4531.659)" fill="#eb996e"/>
    <path id="Trazado_637787" data-name="Trazado 637787" d="M332.764,417.133c-.108.1-1.547-1.072-3.51-2.273a24.555,24.555,0,0,0-2.558-1.41c-.672-.317-1.12-.4-1.118-.5s.512-.143,1.269.086a11.712,11.712,0,0,1,2.733,1.294c2.013,1.229,3.329,2.67,3.184,2.8" transform="translate(-7422.121 4530.346)" fill="#eb996e"/>
    <path id="Trazado_637788" data-name="Trazado 637788" d="M335.917,413.134a9.407,9.407,0,0,1-4.2-.474,7.674,7.674,0,0,1-2.686-1.407c-.6-.509-.847-.934-.788-.985a17.542,17.542,0,0,0,3.658,1.8c2.161.627,4.047.859,4.015,1.065" transform="translate(-7421.615 4529.848)" fill="#eb996e"/>
    <path id="Trazado_637789" data-name="Trazado 637789" d="M319.662,435.707a15.213,15.213,0,0,1-1.988-2.583,23.428,23.428,0,0,0-5.087-5.782,10.255,10.255,0,0,0-7.206-1.909,13.125,13.125,0,0,0-3.036.965c-.02-.027.208-.249.7-.55a6.8,6.8,0,0,1,2.27-.847,10.127,10.127,0,0,1,7.639,1.838,20.692,20.692,0,0,1,5.091,6.043,19.283,19.283,0,0,1,1.622,2.826" transform="translate(-7426.541 4532.623)" fill="#eb996e"/>
    <path id="Trazado_637790" data-name="Trazado 637790" d="M333.76,474.48c.019.17-3.971.744-8.908,1.281s-8.958.834-8.975.664,3.969-.744,8.909-1.281,8.955-.834,8.974-.664" transform="translate(-7423.966 4542.054)" fill="#eb996e"/>
    <path id="Trazado_637791" data-name="Trazado 637791" d="M263.719,57.716l1.344,2.457,2.457,1.344-2.457,1.344-1.344,2.457-1.344-2.457-2.457-1.344,2.457-1.344Z" transform="translate(-7434.61 4462.79)" fill="#2b95f9"/>
    <path id="Trazado_645906" data-name="Trazado 645906" d="M265.434,57.716l1.95,3.565,3.565,1.95-3.565,1.95-1.95,3.565-1.95-3.565-3.565-1.95,3.565-1.95Z" transform="translate(-7628.589 4358.905)" fill="#2b95f9"/>
    <path id="Trazado_637792" data-name="Trazado 637792" d="M287.324,108.886l1.344,2.457,2.457,1.344-2.457,1.344-1.344,2.457-1.344-2.457-2.457-1.344,2.457-1.344Z" transform="translate(-7430.12 4472.522)" fill="#2b95f9"/>
    <path id="Trazado_645909" data-name="Trazado 645909" d="M287.324,108.886l1.344,2.457,2.457,1.344-2.457,1.344-1.344,2.457-1.344-2.457-2.457-1.344,2.457-1.344Z" transform="translate(-7483.45 4324.394)" fill="#2b95f9"/>
    <path id="Trazado_637793" data-name="Trazado 637793" d="M118.459,197.191l1.344,2.457,2.457,1.344-2.457,1.344-1.344,2.457-1.344-2.457-2.457-1.344,2.457-1.344Z" transform="translate(-7462.241 4489.319)" fill="#2b95f9"/>
    <path id="Trazado_637794" data-name="Trazado 637794" d="M233.545,70.434l3.1,5.673,5.673,3.1-5.673,3.1-3.1,5.674-3.1-5.674-5.673-3.1,5.673-3.1Z" transform="translate(-7441.296 4465.208)" fill="#2b95f9"/>
    <path id="Trazado_645904" data-name="Trazado 645904" d="M233.545,70.434l3.1,5.673,5.673,3.1-5.673,3.1-3.1,5.674-3.1-5.674-5.673-3.1,5.673-3.1Z" transform="translate(-7494.625 4317.08)" fill="#2b95f9"/>
    <path id="Trazado_637795" data-name="Trazado 637795" d="M140.409,164.754l3.1,5.661,5.661,3.1-5.661,3.1-3.1,5.661-3.1-5.661-5.661-3.1,5.661-3.1Z" transform="translate(-7459.008 4483.149)" fill="#2b95f9"/>
    <path id="Trazado_637796" data-name="Trazado 637796" d="M294.538,326.438l3.1,5.661,5.661,3.1-5.661,3.1-3.1,5.661-3.1-5.661-5.661-3.1,5.661-3.1Z" transform="translate(-7429.69 4513.904)" fill="#2b95f9"/>
  </g>
</svg>
