<svg xmlns="http://www.w3.org/2000/svg" xmlns:xlink="http://www.w3.org/1999/xlink" width="150" height="150" viewBox="0 0 150 150">
  <defs>
    <filter id="Elipse_6971" x="0" y="0" width="150" height="150" filterUnits="userSpaceOnUse">
      <feOffset dy="3" input="SourceAlpha"/>
      <feGaussianBlur stdDeviation="3" result="blur"/>
      <feFlood flood-opacity="0.161"/>
      <feComposite operator="in" in2="blur"/>
      <feComposite in="SourceGraphic"/>
    </filter>
  </defs>
  <g id="Grupo_1034477" data-name="Grupo 1034477" transform="translate(-6704.346 1932.953)">
    <g transform="matrix(1, 0, 0, 1, 6704.35, -1932.95)" filter="url(#Elipse_6971)">
      <circle id="Elipse_6971-2" data-name="Elipse 6971" cx="66" cy="66" r="66" transform="translate(9 6)" fill="#b6e1fd"/>
    </g>
    <path id="Trazado_642211" data-name="Trazado 642211" d="M56.376,22.15a30.3,30.3,0,0,1,13.685,4.906,2.815,2.815,0,0,0-.418,1.48v3.15A2.825,2.825,0,0,0,67.5,30.7H65.164A37.167,37.167,0,0,0,56.376,22.15ZM54.792,37.871h3.867a.448.448,0,0,1,.447.447v8.24a.448.448,0,0,1-.447.447H54.792a.448.448,0,0,1-.447-.447v-8.24A.448.448,0,0,1,54.792,37.871ZM83.605,17.2l4.845,6.527a.446.446,0,0,1-.359.713H85.627v22.12A.448.448,0,0,1,85.18,47H81.313a.448.448,0,0,1-.447-.447V24.438H78.4a.446.446,0,0,1-.359-.713L82.888,17.2a.447.447,0,0,1,.718,0ZM76.34,28.088H72.473a.448.448,0,0,0-.447.447V46.558a.448.448,0,0,0,.447.447H76.34a.448.448,0,0,0,.447-.447V28.535A.448.448,0,0,0,76.34,28.088Zm-8.84,5H63.632a.448.448,0,0,0-.447.447V46.558a.448.448,0,0,0,.447.447H67.5a.448.448,0,0,0,.447-.447V33.532A.448.448,0,0,0,67.5,33.085ZM31.479,60.214a14,14,0,1,1-14,14A14,14,0,0,1,31.479,60.214ZM36.7,69.5a5.365,5.365,0,0,0-4.029-3.248v-.9a1.192,1.192,0,0,0-2.383,0v.916a4.655,4.655,0,0,0-4.02,4.706c.137,2.819,2.585,3.958,5.034,4.36,1.408.231,3.441.728,3.482,2.5.036,1.505-1.933,2.037-3.149,2.066a3.292,3.292,0,0,1-3.492-2.21,1.189,1.189,0,0,0-2.309.568,5.339,5.339,0,0,0,4.454,3.91v.9a1.192,1.192,0,0,0,2.383,0V82.2c2.327-.359,4.548-1.809,4.486-4.412-.075-3.141-2.765-4.35-5.474-4.795-1.2-.2-2.969-.639-3.041-2.126a2.329,2.329,0,0,1,2.125-2.27A3.228,3.228,0,0,1,34.5,70.422a1.191,1.191,0,0,0,2.2-.922ZM60.8,35.128v-1.6a2.832,2.832,0,0,1,1.586-2.542A34.761,34.761,0,0,0,54.421,23.7V35.512l3.425-.024q1.491-.135,2.956-.359Zm-8.765.553A48.108,48.108,0,0,1,41.7,34.344,34.752,34.752,0,0,1,52.037,23.7Zm-12.715-2A37.14,37.14,0,0,1,50.082,22.15a30.37,30.37,0,0,0-17.946,8.32A31.5,31.5,0,0,0,39.322,33.68Zm44.23,15.707q.094.935.131,1.886H72.262q-.029-.958-.107-1.9a2.877,2.877,0,0,0,.318.018H76.34A2.828,2.828,0,0,0,78.647,48.2h.359a2.828,2.828,0,0,0,2.307,1.192ZM69.877,51.273H54.421v-1.91a2.855,2.855,0,0,0,.371.024h3.867A2.828,2.828,0,0,0,60.966,48.2h.359a2.828,2.828,0,0,0,2.307,1.192H67.5a2.825,2.825,0,0,0,2.162-1q.168,1.428.216,2.89Zm13.8,2.383A30.354,30.354,0,0,1,76,72.723c-1.269-1.171-5.948-3.029-7.691-3.6a36.926,36.926,0,0,0,3.953-15.469ZM65.98,68.442a34.538,34.538,0,0,0,3.894-14.786H54.421V66.864A50.157,50.157,0,0,1,65.98,68.442ZM52.037,66.864V53.657H36.585a34.9,34.9,0,0,0,.573,5.185A16.439,16.439,0,0,1,46.336,67.3,52.509,52.509,0,0,1,52.037,66.864ZM23.647,59.82a30.455,30.455,0,0,1-.871-6.163H34.2a37.292,37.292,0,0,0,.42,4.475A16.43,16.43,0,0,0,23.647,59.82Zm-.872-8.547a30.354,30.354,0,0,1,7.686-19.066c1.267,1.169,5.949,3.03,7.69,3.6A36.5,36.5,0,0,0,34.2,51.273Zm17.7-14.786a34.133,34.133,0,0,0-3.9,14.786H52.037L52.011,48.2a1.192,1.192,0,0,1-.05-2.382l.011-7.749a50.132,50.132,0,0,1-11.5-1.577ZM74.323,74.461a31.5,31.5,0,0,0-7.183-3.21A36.838,36.838,0,0,1,56.379,82.78,30.371,30.371,0,0,0,74.323,74.461Zm-19.9,6.773V69.248a48.108,48.108,0,0,1,10.339,1.338A34.5,34.5,0,0,1,54.421,81.234ZM50.079,82.78a30.377,30.377,0,0,1-4.205-.733,16.314,16.314,0,0,0,.869-1.866A37.166,37.166,0,0,0,50.079,82.78ZM47.2,69.591a16.469,16.469,0,0,1,.3,8.068,34.78,34.78,0,0,0,4.537,3.575V69.248C50.413,69.286,48.795,69.4,47.2,69.591Z" transform="translate(6726.337 -1914.871)" fill="#12263f" fill-rule="evenodd"/>
  </g>
</svg>
