<svg xmlns="http://www.w3.org/2000/svg" xmlns:xlink="http://www.w3.org/1999/xlink" width="150" height="150" viewBox="0 0 150 150">
  <defs>
    <filter id="Elipse_6974" x="0" y="0" width="150" height="150" filterUnits="userSpaceOnUse">
      <feOffset dy="3" input="SourceAlpha"/>
      <feGaussianBlur stdDeviation="3" result="blur"/>
      <feFlood flood-opacity="0.161"/>
      <feComposite operator="in" in2="blur"/>
      <feComposite in="SourceGraphic"/>
    </filter>
  </defs>
  <g id="Grupo_1034493" data-name="Grupo 1034493" transform="translate(-382.07 -2836.818)">
    <g transform="matrix(1, 0, 0, 1, 382.07, 2836.82)" filter="url(#Elipse_6974)">
      <circle id="Elipse_6974-2" data-name="Elipse 6974" cx="66" cy="66" r="66" transform="translate(9 6)" fill="#b6e1fd"/>
    </g>
    <g id="Grupo_883414" data-name="Grupo 883414" transform="translate(423.498 2870.771)">
      <path id="Trazado_642442" data-name="Trazado 642442" d="M9,24.126V28.5c.114-.041.223-.089.341-.12l.171-.512a5.841,5.841,0,0,1,4.77-3.941,17.814,17.814,0,0,0,7.838-2.665,3.438,3.438,0,0,1,3.988-.014,17.788,17.788,0,0,0,7.849,2.676,5.954,5.954,0,0,1,1.169.289V13.766A15.111,15.111,0,0,0,9,24.126Z" transform="translate(2.625 2.625)" fill="#12263f"/>
      <path id="Trazado_642443" data-name="Trazado 642443" d="M2,63.681a1.375,1.375,0,0,0,1.375,1.375H50.127A1.375,1.375,0,0,0,51.5,63.681V56.805A17.111,17.111,0,0,0,37.786,40.064l-4.377-.876a6.842,6.842,0,0,1-13.313,0l-4.38.876A17.111,17.111,0,0,0,2,56.805Z" transform="translate(0 13.948)" fill="#12263f"/>
      <path id="Trazado_642444" data-name="Trazado 642444" d="M65.752,2h-33A2.75,2.75,0,0,0,30,4.75v27.5A2.75,2.75,0,0,0,32.75,35h4.125a1.375,1.375,0,0,1,1.375,1.375V41.3a.582.582,0,0,0,.857.509l12.238-6.637A1.383,1.383,0,0,1,52,35H65.752a2.75,2.75,0,0,0,2.75-2.75V4.75A2.75,2.75,0,0,0,65.752,2ZM50.626,30.876h-16.5a1.375,1.375,0,0,1,0-2.75h16.5a1.375,1.375,0,0,1,0,2.75ZM32.75,24a1.375,1.375,0,0,1,1.375-1.375h2.75a1.375,1.375,0,0,1,0,2.75h-2.75A1.375,1.375,0,0,1,32.75,24Zm31.627,1.375h-22a1.375,1.375,0,0,1,0-2.75h22a1.375,1.375,0,0,1,0,2.75Zm0-5.5H34.125a1.375,1.375,0,0,1,0-2.75H64.377a1.375,1.375,0,0,1,0,2.75ZM32.75,13a1.375,1.375,0,0,1,1.375-1.375H53.376a1.375,1.375,0,0,1,0,2.75H34.125A1.375,1.375,0,0,1,32.75,13Zm31.627,1.375h-5.5a1.375,1.375,0,0,1,0-2.75h5.5a1.375,1.375,0,0,1,0,2.75Zm0-5.5H34.125a1.375,1.375,0,0,1,0-2.75H64.377a1.375,1.375,0,0,1,0,2.75Z" transform="translate(10.502)" fill="#12263f"/>
      <path id="Trazado_642445" data-name="Trazado 642445" d="M17.031,38.313a4.1,4.1,0,0,0,8.164,0,11.5,11.5,0,0,1-4.081.945A11.541,11.541,0,0,1,17.031,38.313Z" transform="translate(5.638 13.62)" fill="#12263f"/>
      <path id="Trazado_642446" data-name="Trazado 642446" d="M35.037,36.258a39.327,39.327,0,0,0,1.486-5.29,1.357,1.357,0,0,1,.718-.963,5.473,5.473,0,0,1-2.115-4.3V23.381a3.046,3.046,0,0,0-1.513-.644,20.066,20.066,0,0,1-9.1-3.163.679.679,0,0,0-.8.014,20.087,20.087,0,0,1-9.092,3.152,3.076,3.076,0,0,0-2.5,2.078l-.443,1.323a1.375,1.375,0,0,1-1.3.941,1.375,1.375,0,1,0,0,2.75,1.375,1.375,0,0,1,1.354,1.137,38.87,38.87,0,0,0,1.485,5.288c1.064,3.082,7.387,7.325,10.911,7.325S33.973,39.339,35.037,36.258Z" transform="translate(2.625 6.545)" fill="#12263f"/>
    </g>
  </g>
</svg>
