<svg id="Grupo_883820" data-name="Grupo 883820" xmlns="http://www.w3.org/2000/svg" xmlns:xlink="http://www.w3.org/1999/xlink" width="360.219" height="318.73" viewBox="0 0 360.219 318.73">
  <defs>
    <clipPath id="clip-path">
      <rect id="Rectángulo_331270" data-name="Rectángulo 331270" width="360.22" height="318.73" fill="none"/>
    </clipPath>
    <clipPath id="clip-path-5">
      <rect id="Rectángulo_331225" data-name="Rectángulo 331225" width="100.051" height="60.229" fill="none"/>
    </clipPath>
    <clipPath id="clip-path-6">
      <rect id="Rectángulo_331226" data-name="Rectángulo 331226" width="59.643" height="12.251" fill="none"/>
    </clipPath>
    <clipPath id="clip-path-7">
      <rect id="Rectángulo_331227" data-name="Rectángulo 331227" width="249.347" height="26.48" fill="none"/>
    </clipPath>
    <clipPath id="clip-path-8">
      <rect id="Rectángulo_331228" data-name="Rectángulo 331228" width="251.8" height="147.027" fill="#b4e6ff"/>
    </clipPath>
    <clipPath id="clip-path-9">
      <rect id="Rectángulo_331229" data-name="Rectángulo 331229" width="28.91" height="183.696" fill="none"/>
    </clipPath>
    <clipPath id="clip-path-10">
      <rect id="Rectángulo_331230" data-name="Rectángulo 331230" width="134.732" height="75.681" fill="none"/>
    </clipPath>
    <clipPath id="clip-path-11">
      <rect id="Rectángulo_331231" data-name="Rectángulo 331231" width="17.142" height="55.836" fill="none"/>
    </clipPath>
    <clipPath id="clip-path-12">
      <rect id="Rectángulo_331232" data-name="Rectángulo 331232" width="82.4" height="147.027" fill="none"/>
    </clipPath>
    <clipPath id="clip-path-13">
      <rect id="Rectángulo_331233" data-name="Rectángulo 331233" width="83.588" height="7.239" fill="none"/>
    </clipPath>
    <clipPath id="clip-path-14">
      <rect id="Rectángulo_331234" data-name="Rectángulo 331234" width="72.933" height="4.143" fill="none"/>
    </clipPath>
    <clipPath id="clip-path-16">
      <rect id="Rectángulo_331236" data-name="Rectángulo 331236" width="99.13" height="91.156" fill="none"/>
    </clipPath>
    <clipPath id="clip-path-17">
      <rect id="Rectángulo_331237" data-name="Rectángulo 331237" width="32.653" height="28.565" fill="none"/>
    </clipPath>
    <clipPath id="clip-path-18">
      <rect id="Rectángulo_331238" data-name="Rectángulo 331238" width="23.305" height="19.364" fill="none"/>
    </clipPath>
    <clipPath id="clip-path-19">
      <rect id="Rectángulo_331239" data-name="Rectángulo 331239" width="9.13" height="14.803" fill="none"/>
    </clipPath>
    <clipPath id="clip-path-21">
      <rect id="Rectángulo_331241" data-name="Rectángulo 331241" width="92.755" height="85.292" fill="none"/>
    </clipPath>
    <clipPath id="clip-path-23">
      <rect id="Rectángulo_331243" data-name="Rectángulo 331243" width="7.28" height="8.467" fill="none"/>
    </clipPath>
    <clipPath id="clip-path-24">
      <rect id="Rectángulo_331244" data-name="Rectángulo 331244" width="1.439" height="5.928" fill="none"/>
    </clipPath>
    <clipPath id="clip-path-26">
      <rect id="Rectángulo_331246" data-name="Rectángulo 331246" width="108.746" height="143.389" fill="none"/>
    </clipPath>
    <clipPath id="clip-path-31">
      <rect id="Rectángulo_331251" data-name="Rectángulo 331251" width="139.365" height="21.508" fill="none"/>
    </clipPath>
    <clipPath id="clip-path-34">
      <rect id="Rectángulo_331255" data-name="Rectángulo 331255" width="47.84" height="31.001" fill="none"/>
    </clipPath>
    <clipPath id="clip-path-35">
      <rect id="Rectángulo_331256" data-name="Rectángulo 331256" width="46.903" height="20.29" fill="none"/>
    </clipPath>
    <clipPath id="clip-path-36">
      <rect id="Rectángulo_331257" data-name="Rectángulo 331257" width="20.643" height="31.001" fill="none"/>
    </clipPath>
    <clipPath id="clip-path-37">
      <rect id="Rectángulo_331258" data-name="Rectángulo 331258" width="32.364" height="20.972" fill="none"/>
    </clipPath>
    <clipPath id="clip-path-38">
      <rect id="Rectángulo_331259" data-name="Rectángulo 331259" width="31.73" height="13.727" fill="none"/>
    </clipPath>
    <clipPath id="clip-path-39">
      <rect id="Rectángulo_331260" data-name="Rectángulo 331260" width="13.965" height="20.972" fill="none"/>
    </clipPath>
    <clipPath id="clip-path-41">
      <rect id="Rectángulo_331262" data-name="Rectángulo 331262" width="9.781" height="10.64" fill="none"/>
    </clipPath>
    <clipPath id="clip-path-42">
      <rect id="Rectángulo_331263" data-name="Rectángulo 331263" width="74.209" height="56.512" fill="none"/>
    </clipPath>
    <clipPath id="clip-path-43">
      <rect id="Rectángulo_331264" data-name="Rectángulo 331264" width="109.969" height="46.417" fill="none"/>
    </clipPath>
    <clipPath id="clip-path-44">
      <rect id="Rectángulo_331265" data-name="Rectángulo 331265" width="10.976" height="10.327" fill="none"/>
    </clipPath>
    <clipPath id="clip-path-45">
      <rect id="Rectángulo_331267" data-name="Rectángulo 331267" width="63.171" height="4.292" fill="none"/>
    </clipPath>
    <clipPath id="clip-path-46">
      <rect id="Rectángulo_331268" data-name="Rectángulo 331268" width="5.054" height="2.068" fill="none"/>
    </clipPath>
  </defs>
  <g id="Grupo_883819" data-name="Grupo 883819" clip-path="url(#clip-path)">
    <g id="Grupo_883691" data-name="Grupo 883691">
      <g id="Grupo_883690" data-name="Grupo 883690" clip-path="url(#clip-path)">
        <path id="Trazado_643316" data-name="Trazado 643316" d="M350.291,26.866A24.845,24.845,0,1,1,325.447,2.022a24.844,24.844,0,0,1,24.844,24.844" transform="translate(-26.879 -0.181)" fill="#f0f0f0"/>
        <path id="Trazado_643317" data-name="Trazado 643317" d="M325.469,52.21a25.4,25.4,0,0,1,0-50.808V2.519a24.286,24.286,0,0,0,0,48.572Z" transform="translate(-26.832 -0.125)" fill="#fff"/>
        <path id="Trazado_643318" data-name="Trazado 643318" d="M327.964,52.21V51.092a24.286,24.286,0,1,0,0-48.572V1.4a25.4,25.4,0,1,1,0,50.808" transform="translate(-29.326 -0.125)" fill="#fff"/>
        <path id="Trazado_643319" data-name="Trazado 643319" d="M340.916,26.82H339.8c0-8.234-4.178-19.251-12.164-24.374l.6-.941c8.325,5.341,12.68,16.777,12.68,25.315" transform="translate(-29.297 -0.135)" fill="#fff"/>
        <path id="Trazado_643320" data-name="Trazado 643320" d="M328.236,53.789l-.6-.942c7.987-5.124,12.165-16.14,12.165-24.374h1.117c0,8.537-4.355,19.975-12.68,25.315" transform="translate(-29.297 -2.546)" fill="#fff"/>
        <path id="Trazado_643321" data-name="Trazado 643321" d="M314.826,26.814h-1.118c0-8.538,4.355-19.975,12.678-25.316l.6.942C319,7.563,314.826,18.581,314.826,26.814" transform="translate(-28.051 -0.134)" fill="#fff"/>
        <path id="Trazado_643322" data-name="Trazado 643322" d="M326.387,53.783C318.064,48.442,313.709,37,313.709,28.468h1.118c0,8.233,4.178,19.25,12.164,24.374Z" transform="translate(-28.052 -2.546)" fill="#fff"/>
        <rect id="Rectángulo_331212" data-name="Rectángulo 331212" width="1.118" height="49.69" transform="translate(298.079 1.835)" fill="#fff"/>
        <rect id="Rectángulo_331213" data-name="Rectángulo 331213" width="42.06" height="1.118" transform="translate(277.609 12.887)" fill="#fff"/>
        <rect id="Rectángulo_331214" data-name="Rectángulo 331214" width="49.668" height="1.118" transform="translate(273.804 26.544)" fill="#fff"/>
        <rect id="Rectángulo_331215" data-name="Rectángulo 331215" width="40.948" height="1.118" transform="translate(278.164 40.19)" fill="#fff"/>
        <rect id="Rectángulo_331216" data-name="Rectángulo 331216" width="12.547" height="3.298" transform="translate(1.665 260.621)" fill="#e6e6e6"/>
        <rect id="Rectángulo_331217" data-name="Rectángulo 331217" width="12.547" height="3.298" transform="translate(99.027 260.621)" fill="#e6e6e6"/>
        <rect id="Rectángulo_331218" data-name="Rectángulo 331218" width="3.298" height="19.394" transform="translate(21.597 262.27)" fill="#e0e0e0"/>
        <rect id="Rectángulo_331219" data-name="Rectángulo 331219" width="89.905" height="7.026" transform="translate(12.348 171.23)" fill="#e6e6e6"/>
        <rect id="Rectángulo_331220" data-name="Rectángulo 331220" width="89.905" height="7.026" transform="translate(12.348 258.758)" fill="#e6e6e6"/>
        <path id="Trazado_643323" data-name="Trazado 643323" d="M16.781,289.246l-.278.29a2.583,2.583,0,0,1-3.725,0l-.279-.29a4.671,4.671,0,0,1-1.3-3.233V189.683a4.669,4.669,0,0,1,1.3-3.233l.279-.29a2.583,2.583,0,0,1,3.725,0l.278.29a4.666,4.666,0,0,1,1.3,3.233v96.329a4.668,4.668,0,0,1-1.3,3.233" transform="translate(-1.001 -16.575)" fill="#f0f0f0"/>
        <path id="Trazado_643324" data-name="Trazado 643324" d="M27.331,289.246l-.278.29a2.583,2.583,0,0,1-3.725,0l-.279-.29a4.671,4.671,0,0,1-1.3-3.233V189.683a4.669,4.669,0,0,1,1.3-3.233l.279-.29a2.583,2.583,0,0,1,3.725,0l.278.29a4.665,4.665,0,0,1,1.3,3.233v96.329a4.667,4.667,0,0,1-1.3,3.233" transform="translate(-1.945 -16.575)" fill="#f0f0f0"/>
        <path id="Trazado_643325" data-name="Trazado 643325" d="M37.882,289.246l-.278.29a2.583,2.583,0,0,1-3.725,0l-.279-.29a4.671,4.671,0,0,1-1.3-3.233V189.683a4.669,4.669,0,0,1,1.3-3.233l.279-.29a2.583,2.583,0,0,1,3.725,0l.278.29a4.665,4.665,0,0,1,1.3,3.233v96.329a4.667,4.667,0,0,1-1.3,3.233" transform="translate(-2.888 -16.575)" fill="#f0f0f0"/>
        <path id="Trazado_643326" data-name="Trazado 643326" d="M48.433,289.246l-.278.29a2.583,2.583,0,0,1-3.725,0l-.279-.29a4.671,4.671,0,0,1-1.3-3.233V189.683a4.669,4.669,0,0,1,1.3-3.233l.279-.29a2.583,2.583,0,0,1,3.725,0l.278.29a4.665,4.665,0,0,1,1.3,3.233v96.329a4.667,4.667,0,0,1-1.3,3.233" transform="translate(-3.832 -16.575)" fill="#f0f0f0"/>
        <path id="Trazado_643327" data-name="Trazado 643327" d="M58.983,289.246l-.278.29a2.583,2.583,0,0,1-3.725,0l-.279-.29a4.671,4.671,0,0,1-1.3-3.233V189.683a4.669,4.669,0,0,1,1.3-3.233l.279-.29a2.583,2.583,0,0,1,3.725,0l.278.29a4.665,4.665,0,0,1,1.3,3.233v96.329a4.667,4.667,0,0,1-1.3,3.233" transform="translate(-4.775 -16.575)" fill="#f0f0f0"/>
        <path id="Trazado_643328" data-name="Trazado 643328" d="M69.534,289.246l-.278.29a2.583,2.583,0,0,1-3.725,0l-.279-.29a4.671,4.671,0,0,1-1.3-3.233V189.683a4.669,4.669,0,0,1,1.3-3.233l.279-.29a2.583,2.583,0,0,1,3.725,0l.278.29a4.665,4.665,0,0,1,1.3,3.233v96.329a4.667,4.667,0,0,1-1.3,3.233" transform="translate(-5.719 -16.575)" fill="#f0f0f0"/>
        <path id="Trazado_643329" data-name="Trazado 643329" d="M80.084,289.246l-.279.29a2.582,2.582,0,0,1-3.724,0l-.279-.29a4.671,4.671,0,0,1-1.3-3.233V189.683a4.669,4.669,0,0,1,1.3-3.233l.279-.29a2.582,2.582,0,0,1,3.724,0l.279.29a4.669,4.669,0,0,1,1.3,3.233v96.329a4.671,4.671,0,0,1-1.3,3.233" transform="translate(-6.662 -16.575)" fill="#f0f0f0"/>
        <path id="Trazado_643330" data-name="Trazado 643330" d="M90.635,289.246l-.278.29a2.583,2.583,0,0,1-3.725,0l-.279-.29a4.671,4.671,0,0,1-1.3-3.233V189.683a4.669,4.669,0,0,1,1.3-3.233l.279-.29a2.583,2.583,0,0,1,3.725,0l.278.29a4.665,4.665,0,0,1,1.3,3.233v96.329a4.667,4.667,0,0,1-1.3,3.233" transform="translate(-7.605 -16.575)" fill="#f0f0f0"/>
        <rect id="Rectángulo_331221" data-name="Rectángulo 331221" width="3.298" height="19.394" transform="translate(87.054 262.27)" fill="#e0e0e0"/>
        <path id="Trazado_643331" data-name="Trazado 643331" d="M101.185,289.246l-.278.29a2.583,2.583,0,0,1-3.725,0l-.279-.29a4.671,4.671,0,0,1-1.3-3.233V189.683a4.669,4.669,0,0,1,1.3-3.233l.279-.29a2.583,2.583,0,0,1,3.725,0l.278.29a4.665,4.665,0,0,1,1.3,3.233v96.329a4.667,4.667,0,0,1-1.3,3.233" transform="translate(-8.549 -16.575)" fill="#f0f0f0"/>
        <path id="Trazado_643332" data-name="Trazado 643332" d="M111.736,289.246l-.278.29a2.583,2.583,0,0,1-3.725,0l-.279-.29a4.671,4.671,0,0,1-1.3-3.233V189.683a4.669,4.669,0,0,1,1.3-3.233l.279-.29a2.583,2.583,0,0,1,3.725,0l.278.29a4.665,4.665,0,0,1,1.3,3.233v96.329a4.667,4.667,0,0,1-1.3,3.233" transform="translate(-9.492 -16.575)" fill="#f0f0f0"/>
        <rect id="Rectángulo_331222" data-name="Rectángulo 331222" width="3.298" height="30.112" transform="translate(108.993 251.385)" fill="#f5f5f5"/>
        <path id="Trazado_643333" data-name="Trazado 643333" d="M334.731,245.443s-4.237-47.614-26.358-93.341c0,0,32.656,30.481,33.8,93.341Z" transform="translate(-27.574 -13.601)" fill="#f5f5f5"/>
        <path id="Trazado_643334" data-name="Trazado 643334" d="M341.506,250.255s-17.769-82.892-14.61-126.787c0,0,23.772,48.865,22.626,122.726Z" transform="translate(-29.197 -11.04)" fill="#f5f5f5"/>
        <path id="Trazado_643335" data-name="Trazado 643335" d="M357.394,249.019s1.694-54.115,10.382-80.842c0,0,7.245,33.938-4.79,79.554Z" transform="translate(-31.958 -15.038)" fill="#e6e6e6"/>
        <path id="Trazado_643336" data-name="Trazado 643336" d="M351.683,247.984s-5.726-72.162,10.306-104.5c0,0,1.718,65.569-2.29,104.5Z" transform="translate(-31.358 -12.83)" fill="#e6e6e6"/>
        <path id="Trazado_643337" data-name="Trazado 643337" d="M367.816,303.676H331.573L326.39,250.2H373Z" transform="translate(-29.185 -22.372)" fill="#f0f0f0"/>
        <path id="Trazado_643338" data-name="Trazado 643338" d="M365.916,249.53s4.237-47.614,26.358-93.341c0,0-32.656,30.481-33.8,93.341Z" transform="translate(-32.054 -13.966)" fill="#f5f5f5"/>
      </g>
    </g>
    <g id="Grupo_883693" data-name="Grupo 883693">
      <g id="Grupo_883692" data-name="Grupo 883692" clip-path="url(#clip-path)">
        <path id="Trazado_643339" data-name="Trazado 643339" d="M353.1,337.693c0,5.695-79.045,10.311-176.552,10.311S0,343.388,0,337.693s79.045-10.311,176.552-10.311S353.1,332,353.1,337.693" transform="translate(0 -29.274)" fill="#f5f5f5"/>
      </g>
    </g>
    <g id="Grupo_883726" data-name="Grupo 883726">
      <g id="Grupo_883725" data-name="Grupo 883725" clip-path="url(#clip-path)">
        <path id="Trazado_643340" data-name="Trazado 643340" d="M112.6,321.628v2.656a2.491,2.491,0,0,0,2.491,2.49h95.261a2.294,2.294,0,0,0,2.295-2.295v-2.557a2.294,2.294,0,0,0-2.295-2.295h-23.69a4.337,4.337,0,0,1-4.274-5.076l8.309-48.009H136.6l-23.168,51.264a9.282,9.282,0,0,0-.823,3.822" transform="translate(-10.069 -23.834)" fill="#eb6f2d"/>
        <g id="Grupo_883696" data-name="Grupo 883696" transform="translate(102.472 242.711)" opacity="0.2">
          <g id="Grupo_883695" data-name="Grupo 883695">
            <g id="Grupo_883694" data-name="Grupo 883694" clip-path="url(#clip-path-5)">
              <path id="Trazado_643341" data-name="Trazado 643341" d="M212.649,321.917v2.568a2.282,2.282,0,0,1-2.289,2.289H115.1a2.505,2.505,0,0,1-2.5-2.489v-2.66a9.268,9.268,0,0,1,.239-2.091,9.9,9.9,0,0,1,.582-1.734l23.173-51.257h54.115l-8.312,48a3.8,3.8,0,0,0-.066.847,4.337,4.337,0,0,0,3.441,4.142,3.968,3.968,0,0,0,.9.093h23.69a2.29,2.29,0,0,1,2.289,2.289" transform="translate(-112.598 -266.546)" fill="#fff"/>
            </g>
          </g>
        </g>
        <path id="Trazado_643342" data-name="Trazado 643342" d="M110.064,317.806l23.168-51.265h3.062l-23.168,51.265a9.278,9.278,0,0,0-.823,3.822v2.655a2.491,2.491,0,0,0,2.491,2.491h-3.063a2.491,2.491,0,0,1-2.49-2.491v-2.655a9.279,9.279,0,0,1,.823-3.822" transform="translate(-9.768 -23.834)" fill="#263238"/>
        <g id="Grupo_883699" data-name="Grupo 883699" transform="translate(120.99 242.708)" opacity="0.3">
          <g id="Grupo_883698" data-name="Grupo 883698">
            <g id="Grupo_883697" data-name="Grupo 883697" clip-path="url(#clip-path-6)">
              <path id="Trazado_643343" data-name="Trazado 643343" d="M138.407,266.542h54.107l-2.12,12.251H132.871Z" transform="translate(-132.871 -266.542)"/>
            </g>
          </g>
        </g>
        <path id="Trazado_643344" data-name="Trazado 643344" d="M276.436,254.416H45.585a9.4,9.4,0,0,1-9.179-8.441L21.81,79.156a7.611,7.611,0,0,1,7.7-8.441H260.364a9.391,9.391,0,0,1,9.179,8.441l14.6,166.818a7.611,7.611,0,0,1-7.7,8.441" transform="translate(-1.947 -6.323)" fill="#263238"/>
        <path id="Trazado_643345" data-name="Trazado 643345" d="M283.842,243.371l1.578,18.04a7.61,7.61,0,0,1-7.7,8.439H46.863a9.4,9.4,0,0,1-9.178-8.439l-1.578-18.04Z" transform="translate(-3.229 -21.762)" fill="#eb6f2d"/>
        <g id="Grupo_883702" data-name="Grupo 883702" transform="translate(32.878 216.353)" opacity="0.6">
          <g id="Grupo_883701" data-name="Grupo 883701" transform="translate(0 6)">
            <g id="Grupo_883700" data-name="Grupo 883700" clip-path="url(#clip-path-7)">
              <path id="Trazado_643346" data-name="Trazado 643346" d="M283.842,243.371l1.578,18.04a7.61,7.61,0,0,1-7.7,8.439H46.863a9.4,9.4,0,0,1-9.178-8.439l-1.578-18.04Z" transform="translate(-36.107 -243.371)" fill="#fff"/>
            </g>
          </g>
        </g>
        <path id="Trazado_643347" data-name="Trazado 643347" d="M43.379,223.338h230.55a4.127,4.127,0,0,0,4.176-4.577L266.043,80.888a5.1,5.1,0,0,0-4.977-4.577H30.516a4.126,4.126,0,0,0-4.176,4.577L38.4,218.761a5.1,5.1,0,0,0,4.976,4.577" transform="translate(-2.354 -6.824)" fill="#407bff"/>
        <g id="Grupo_883705" data-name="Grupo 883705" transform="translate(23.969 69.487)" opacity="0.6">
          <g id="Grupo_883704" data-name="Grupo 883704">
            <g id="Grupo_883703" data-name="Grupo 883703" clip-path="url(#clip-path-8)">
              <path id="Trazado_643348" data-name="Trazado 643348" d="M43.379,223.338h230.55a4.127,4.127,0,0,0,4.176-4.577L266.043,80.888a5.1,5.1,0,0,0-4.977-4.577H30.516a4.126,4.126,0,0,0-4.176,4.577L38.4,218.761a5.1,5.1,0,0,0,4.976,4.577" transform="translate(-26.322 -76.311)" fill="#b4e6ff"/>
            </g>
          </g>
        </g>
        <path id="Trazado_643349" data-name="Trazado 643349" d="M23.9,70.716h5.1a7.61,7.61,0,0,0-7.7,8.439L35.9,245.973a9.4,9.4,0,0,0,9.178,8.439h-5.1a9.4,9.4,0,0,1-9.179-8.439L16.2,79.155a7.61,7.61,0,0,1,7.7-8.439" transform="translate(-1.446 -6.323)" fill="#eb6f2d"/>
        <g id="Grupo_883708" data-name="Grupo 883708" transform="translate(14.725 64.393)" opacity="0.3">
          <g id="Grupo_883707" data-name="Grupo 883707">
            <g id="Grupo_883706" data-name="Grupo 883706" clip-path="url(#clip-path-9)">
              <path id="Trazado_643350" data-name="Trazado 643350" d="M23.9,70.716h5.1a7.61,7.61,0,0,0-7.7,8.439L35.9,245.973a9.4,9.4,0,0,0,9.178,8.439h-5.1a9.4,9.4,0,0,1-9.179-8.439L16.2,79.155a7.61,7.61,0,0,1,7.7-8.439" transform="translate(-16.171 -70.716)" fill="#fff"/>
            </g>
          </g>
        </g>
        <g id="Grupo_883711" data-name="Grupo 883711" transform="translate(92.019 110.628)" opacity="0.2">
          <g id="Grupo_883710" data-name="Grupo 883710">
            <g id="Grupo_883709" data-name="Grupo 883709" clip-path="url(#clip-path-10)">
              <path id="Trazado_643351" data-name="Trazado 643351" d="M235.787,197.173H107.676l-6.621-75.681h128.11Z" transform="translate(-101.055 -121.492)" fill="#263238"/>
            </g>
          </g>
        </g>
        <path id="Trazado_643352" data-name="Trazado 643352" d="M188.488,152.31a14.372,14.372,0,0,1-14.544,15.939,17.744,17.744,0,0,1-17.333-15.939,14.371,14.371,0,0,1,14.544-15.938,17.744,17.744,0,0,1,17.333,15.938" transform="translate(-13.998 -12.194)" fill="#fff"/>
        <path id="Trazado_643353" data-name="Trazado 643353" d="M182.353,153.769l-13.937-7.66,1.34,15.32Z" transform="translate(-15.059 -13.065)" fill="#fd4c1b"/>
        <path id="Trazado_643354" data-name="Trazado 643354" d="M233.46,188.053H108.741l-.215-2.454h124.72Z" transform="translate(-9.704 -16.596)" fill="#fff"/>
        <path id="Trazado_643355" data-name="Trazado 643355" d="M178.652,188.053H108.741l-.215-2.454h69.912Z" transform="translate(-9.704 -16.596)" fill="#407bff"/>
        <path id="Trazado_643356" data-name="Trazado 643356" d="M110.954,197.82h-1.2l-.413-4.727h1.2Z" transform="translate(-9.777 -17.266)" fill="#fff"/>
        <path id="Trazado_643357" data-name="Trazado 643357" d="M113.264,197.82h-1.2l-.413-4.727h1.2Z" transform="translate(-9.983 -17.266)" fill="#fff"/>
        <path id="Trazado_643358" data-name="Trazado 643358" d="M124.787,197.82h-4.727l-.413-4.727h4.727Z" transform="translate(-10.699 -17.266)" fill="#fff"/>
        <path id="Trazado_643359" data-name="Trazado 643359" d="M132.181,195.456l3.886-2.363.413,4.726Z" transform="translate(-11.82 -17.266)" fill="#fff"/>
        <path id="Trazado_643360" data-name="Trazado 643360" d="M132.25,197.82h-1.2l-.413-4.727h1.2Z" transform="translate(-11.681 -17.266)" fill="#fff"/>
        <path id="Trazado_643361" data-name="Trazado 643361" d="M146.334,195.456l-4.3-2.363.413,4.726Z" transform="translate(-12.701 -17.266)" fill="#fff"/>
        <path id="Trazado_643362" data-name="Trazado 643362" d="M146.943,197.82h1.2l-.413-4.727h-1.2Z" transform="translate(-13.103 -17.266)" fill="#fff"/>
        <path id="Trazado_643363" data-name="Trazado 643363" d="M156.206,193l-2.113,2.85h4.726Z" transform="translate(-13.779 -17.257)" fill="#fff"/>
        <path id="Trazado_643364" data-name="Trazado 643364" d="M159.084,198.263l-.106-1.2h-4.9l.106,1.2Z" transform="translate(-13.777 -17.621)" fill="#fff"/>
        <path id="Trazado_643365" data-name="Trazado 643365" d="M245.758,198.159h-9.127l-.49-5.587h9.124Zm-8.42-.773h7.574l-.353-4.041h-7.571Z" transform="translate(-21.115 -17.22)" fill="#fff"/>
        <path id="Trazado_643366" data-name="Trazado 643366" d="M229.11,198.54h-1.845l-.146-1.638.774-.066.078.932h1.138Z" transform="translate(-20.309 -17.601)" fill="#fff"/>
        <path id="Trazado_643367" data-name="Trazado 643367" d="M233.621,198.54h-1.857v-.773h1.012l-.076-.865.774-.066Z" transform="translate(-20.724 -17.601)" fill="#fff"/>
        <path id="Trazado_643368" data-name="Trazado 643368" d="M232.468,194.351l-.085-1.005H231.3v-.773h1.787l.151,1.712Z" transform="translate(-20.683 -17.22)" fill="#fff"/>
        <path id="Trazado_643369" data-name="Trazado 643369" d="M226.9,194.353l-.16-1.78h1.918v.773h-1.072l.082.937Z" transform="translate(-20.275 -17.22)" fill="#fff"/>
        <g id="Grupo_883714" data-name="Grupo 883714" transform="translate(205.26 130.929)" opacity="0.1">
          <g id="Grupo_883713" data-name="Grupo 883713">
            <g id="Grupo_883712" data-name="Grupo 883712" clip-path="url(#clip-path-11)">
              <path id="Trazado_643370" data-name="Trazado 643370" d="M229.879,181.905l-.562,2.455-.98,4.282-.9,3.944-1.517,6.626h3.772l2.4-10.57.969-4.282.558-2.455,8.534-37.62" transform="translate(-225.461 -143.831)" fill="#fff"/>
              <path id="Trazado_643371" data-name="Trazado 643371" d="M229.879,181.905l-.562,2.455-.98,4.282-.9,3.944-1.517,6.626h3.772l2.4-10.57.969-4.282.558-2.455,8.534-37.62" transform="translate(-225.461 -143.831)" fill="none" stroke="#263238" stroke-linecap="round" stroke-linejoin="round" stroke-width="1"/>
            </g>
          </g>
        </g>
        <path id="Trazado_643372" data-name="Trazado 643372" d="M229.108,120.82H101l-.6-6.843H228.509Z" transform="translate(-8.977 -10.192)" fill="#fd4c1b"/>
        <path id="Trazado_643373" data-name="Trazado 643373" d="M110.608,117.58a1.906,1.906,0,0,1-1.929,2.114,2.354,2.354,0,0,1-2.3-2.114,1.906,1.906,0,0,1,1.929-2.114,2.354,2.354,0,0,1,2.3,2.114" transform="translate(-9.512 -10.325)" fill="#fff"/>
        <path id="Trazado_643374" data-name="Trazado 643374" d="M117.56,117.58a1.906,1.906,0,0,1-1.929,2.114,2.355,2.355,0,0,1-2.3-2.114,1.907,1.907,0,0,1,1.93-2.114,2.354,2.354,0,0,1,2.3,2.114" transform="translate(-10.133 -10.325)" fill="#fff"/>
        <path id="Trazado_643375" data-name="Trazado 643375" d="M124.512,117.58a1.907,1.907,0,0,1-1.93,2.114,2.353,2.353,0,0,1-2.3-2.114,1.906,1.906,0,0,1,1.929-2.114,2.354,2.354,0,0,1,2.3,2.114" transform="translate(-10.755 -10.325)" fill="#fff"/>
        <g id="Grupo_883718" data-name="Grupo 883718" transform="translate(40.806 69.487)" opacity="0.1">
          <g id="Grupo_883717" data-name="Grupo 883717">
            <g id="Grupo_883716" data-name="Grupo 883716" clip-path="url(#clip-path-12)">
              <path id="Trazado_643376" data-name="Trazado 643376" d="M131.364,76.311H122.5L91.245,223.338h8.868Z" transform="translate(-48.965 -76.311)" fill="#fff"/>
              <path id="Trazado_643377" data-name="Trazado 643377" d="M78.13,223.338,109.382,76.311H76.064L44.812,223.338Z" transform="translate(-44.813 -76.311)" fill="#fff"/>
            </g>
          </g>
        </g>
        <g id="Grupo_883721" data-name="Grupo 883721" transform="translate(118.996 295.701)" opacity="0.2">
          <g id="Grupo_883720" data-name="Grupo 883720">
            <g id="Grupo_883719" data-name="Grupo 883719" clip-path="url(#clip-path-13)">
              <path id="Trazado_643378" data-name="Trazado 643378" d="M130.681,327.139v2.439a2.4,2.4,0,0,0,2.4,2.4h78.895a2.293,2.293,0,0,0,2.294-2.293v-2.558a2.294,2.294,0,0,0-2.294-2.294H188.282a4.057,4.057,0,0,1-.888-.095H133.081a2.4,2.4,0,0,0-2.4,2.4" transform="translate(-130.681 -324.739)" fill="#fff"/>
            </g>
          </g>
        </g>
        <g id="Grupo_883724" data-name="Grupo 883724" transform="translate(102.775 291.558)" opacity="0.2">
          <g id="Grupo_883723" data-name="Grupo 883723">
            <g id="Grupo_883722" data-name="Grupo 883722" clip-path="url(#clip-path-14)">
              <path id="Trazado_643379" data-name="Trazado 643379" d="M112.867,324.332H185.8a4.325,4.325,0,0,1-3.446-4.143H114.727Z" transform="translate(-112.867 -320.189)"/>
            </g>
          </g>
        </g>
      </g>
    </g>
    <path id="Trazado_643380" data-name="Trazado 643380" d="M271.761,152.954H180.605l-.639-7.314h91.155Z" transform="translate(-16.092 -13.023)" fill="#263238"/>
    <g id="Grupo_883740" data-name="Grupo 883740">
      <g id="Grupo_883739" data-name="Grupo 883739" clip-path="url(#clip-path)">
        <path id="Trazado_643381" data-name="Trazado 643381" d="M190.877,149.491a2.037,2.037,0,0,1-2.062,2.259,2.515,2.515,0,0,1-2.457-2.259,2.037,2.037,0,0,1,2.062-2.259,2.515,2.515,0,0,1,2.457,2.259" transform="translate(-16.663 -13.165)" fill="#fff"/>
        <path id="Trazado_643382" data-name="Trazado 643382" d="M198.307,149.491a2.037,2.037,0,0,1-2.062,2.259,2.516,2.516,0,0,1-2.458-2.259,2.037,2.037,0,0,1,2.062-2.259,2.516,2.516,0,0,1,2.458,2.259" transform="translate(-17.328 -13.165)" fill="#fff"/>
        <path id="Trazado_643383" data-name="Trazado 643383" d="M205.737,149.491a2.037,2.037,0,0,1-2.062,2.259,2.516,2.516,0,0,1-2.458-2.259,2.037,2.037,0,0,1,2.062-2.259,2.516,2.516,0,0,1,2.458,2.259" transform="translate(-17.992 -13.165)" fill="#fff"/>
        <g id="Grupo_883729" data-name="Grupo 883729" transform="translate(159.399 138.609)" opacity="0.2">
          <g id="Grupo_883728" data-name="Grupo 883728">
            <g id="Grupo_883727" data-name="Grupo 883727" clip-path="url(#clip-path-16)">
              <path id="Trazado_643384" data-name="Trazado 643384" d="M183.027,243.376l-7.975-91.156h91.156l7.975,91.156Z" transform="translate(-175.052 -152.22)"/>
            </g>
          </g>
        </g>
        <path id="Trazado_643385" data-name="Trazado 643385" d="M279.1,236.8H187.94l-7.975-91.156h91.156Z" transform="translate(-16.092 -13.023)" fill="#f9d9a2"/>
        <path id="Trazado_643386" data-name="Trazado 643386" d="M255.038,201.221c1.375,15.719-7.96,22.1-20.164,22.1a24.6,24.6,0,0,1-24.031-22.1c-1.067-12.2,7.464-27.774,19.668-27.774,0,0,23.268,13.384,24.527,27.774" transform="translate(-18.845 -15.509)" fill="#f9d9a2"/>
        <path id="Trazado_643387" data-name="Trazado 643387" d="M242.154,205.361c.278,3.175-2.091,5.3-6.049,5.633l-.3,2.627h-2.388l.3-2.627a12.267,12.267,0,0,1-5.652-1.838l1.34-2.96a10.1,10.1,0,0,0,4.661,1.7l.459-4.035c-2.279-.668-4.792-1.552-5.045-4.442-.279-3.175,2.137-5.322,6.17-5.611l.3-2.626h2.387l-.293,2.652a11.124,11.124,0,0,1,4.512,1.36l-1.2,2.96a8.58,8.58,0,0,0-3.666-1.241l-.468,4.2c2.253.645,4.691,1.5,4.932,4.251m-7.258-4.919.391-3.438c-1.338.263-2.037,1-1.981,1.91.065.74.7,1.169,1.59,1.528m3.445,5.539c-.06-.692-.647-1.123-1.51-1.432l-.359,3.27c1.266-.262,1.948-.93,1.869-1.838" transform="translate(-20.393 -17.095)" fill="#407bff"/>
        <path id="Trazado_643388" data-name="Trazado 643388" d="M221.6,205.951c4.1,7.068,13.929,9.962,21.959,6.464s11.217-12.064,7.119-19.132-13.929-9.962-21.959-6.463S217.5,198.884,221.6,205.951" transform="translate(-19.656 -16.572)" fill="#263238"/>
        <path id="Trazado_643389" data-name="Trazado 643389" d="M219.811,202.861c4.1,7.068,13.929,9.962,21.959,6.464s11.217-12.063,7.119-19.132-13.929-9.962-21.959-6.463-11.217,12.063-7.119,19.131" transform="translate(-19.495 -16.296)" fill="#ffb338"/>
        <g id="Grupo_883732" data-name="Grupo 883732" transform="translate(198.527 165.949)" opacity="0.4">
          <g id="Grupo_883731" data-name="Grupo 883731">
            <g id="Grupo_883730" data-name="Grupo 883730" clip-path="url(#clip-path-17)">
              <path id="Trazado_643390" data-name="Trazado 643390" d="M219.811,202.861c4.1,7.068,13.929,9.962,21.959,6.464s11.217-12.063,7.119-19.132-13.929-9.962-21.959-6.463-11.217,12.063-7.119,19.131" transform="translate(-218.024 -182.245)" fill="#fff"/>
            </g>
          </g>
        </g>
        <path id="Trazado_643391" data-name="Trazado 643391" d="M223.71,201.378c.195.337.415.664.619.964.039.015.03.052.046.077,3.422,4.549,10.2,6.242,15.785,3.807,5.613-2.445,8.089-8.167,5.92-13.263-.015-.025-.055-.041-.046-.077-.157-.321-.328-.669-.523-1.006-3.067-5.289-10.452-7.462-16.474-4.839-6,2.613-8.394,9.048-5.327,14.336" transform="translate(-19.884 -16.626)" fill="#ffb338"/>
        <g id="Grupo_883735" data-name="Grupo 883735" transform="translate(203.67 170.88)" opacity="0.3">
          <g id="Grupo_883734" data-name="Grupo 883734">
            <g id="Grupo_883733" data-name="Grupo 883733" clip-path="url(#clip-path-18)">
              <path id="Trazado_643392" data-name="Trazado 643392" d="M224.445,202.543c.039.015.03.052.046.077,3.422,4.549,10.2,6.242,15.785,3.807,5.613-2.445,8.089-8.167,5.92-13.263-.015-.025-.055-.041-.046-.077-3.407-4.524-10.2-6.242-15.81-3.8-5.589,2.435-8.05,8.183-5.9,13.253" transform="translate(-223.67 -188.177)" fill="#fff"/>
            </g>
          </g>
        </g>
        <g id="Grupo_883738" data-name="Grupo 883738" transform="translate(210.049 173.404)" opacity="0.4">
          <g id="Grupo_883737" data-name="Grupo 883737">
            <g id="Grupo_883736" data-name="Grupo 883736" clip-path="url(#clip-path-19)">
              <path id="Trazado_643393" data-name="Trazado 643393" d="M239.75,199.787c.366,2.094-1.074,3.495-3.665,3.715l-.043,1.733h-1.575l.044-1.733a8.745,8.745,0,0,1-3.834-1.212l.714-1.953a7.212,7.212,0,0,0,3.172,1.118l.07-2.661c-1.542-.441-3.25-1.023-3.584-2.929-.366-2.094,1.1-3.511,3.747-3.7l.043-1.732h1.575l-.041,1.749a7.892,7.892,0,0,1,3.055.9l-.619,1.952a6.117,6.117,0,0,0-2.49-.819l-.066,2.772c1.523.425,3.182.993,3.5,2.8m-5.071-3.244.059-2.268c-.867.174-1.286.661-1.2,1.26.086.488.528.771,1.137,1.008m2.592,3.653c-.08-.456-.492-.74-1.079-.945l-.047,2.157c.82-.173,1.231-.613,1.126-1.212" transform="translate(-230.676 -190.432)" fill="#fff"/>
            </g>
          </g>
        </g>
        <text id="Only" transform="translate(196.49 155.653) rotate(-4.981)" fill="#fff" font-size="11" font-family="Montserrat-ExtraBold, Montserrat" font-weight="800"><tspan x="0" y="0">Only</tspan></text>
        <text id="_1_month_" data-name="1$/month !!!" transform="translate(190.166 210.702) rotate(-4.982)" fill="#fff" font-size="8" font-family="Montserrat-ExtraBold, Montserrat" font-weight="800"><tspan x="0" y="0">1$</tspan><tspan y="0" letter-spacing="-0.062em">/</tspan><tspan y="0" letter-spacing="0.008em">m</tspan><tspan y="0">onth !!!</tspan></text>
        <path id="Trazado_643394" data-name="Trazado 643394" d="M271.761,152.4H180.605l-.639-7.314h91.155Z" transform="translate(-16.092 -12.974)" fill="#263238"/>
        <path id="Trazado_643395" data-name="Trazado 643395" d="M190.877,148.94a2.037,2.037,0,0,1-2.062,2.259,2.515,2.515,0,0,1-2.457-2.259,2.037,2.037,0,0,1,2.062-2.259,2.515,2.515,0,0,1,2.457,2.259" transform="translate(-16.663 -13.116)" fill="#fff"/>
        <path id="Trazado_643396" data-name="Trazado 643396" d="M198.307,148.94a2.037,2.037,0,0,1-2.062,2.259,2.516,2.516,0,0,1-2.458-2.259,2.037,2.037,0,0,1,2.062-2.259,2.516,2.516,0,0,1,2.458,2.259" transform="translate(-17.328 -13.116)" fill="#fff"/>
        <path id="Trazado_643397" data-name="Trazado 643397" d="M205.737,148.94a2.037,2.037,0,0,1-2.062,2.259,2.516,2.516,0,0,1-2.458-2.259,2.037,2.037,0,0,1,2.062-2.259,2.516,2.516,0,0,1,2.458,2.259" transform="translate(-17.992 -13.116)" fill="#fff"/>
      </g>
    </g>
    <g id="Grupo_883745" data-name="Grupo 883745">
      <g id="Grupo_883744" data-name="Grupo 883744" clip-path="url(#clip-path)">
        <g id="Grupo_883743" data-name="Grupo 883743" transform="translate(161.192 35.505)" opacity="0.2">
          <g id="Grupo_883742" data-name="Grupo 883742">
            <g id="Grupo_883741" data-name="Grupo 883741" clip-path="url(#clip-path-21)">
              <path id="Trazado_643398" data-name="Trazado 643398" d="M184.484,124.284l-7.462-85.291h85.291l7.462,85.291Z" transform="translate(-177.021 -38.992)"/>
            </g>
          </g>
        </g>
      </g>
    </g>
    <path id="Trazado_643399" data-name="Trazado 643399" d="M274.372,118.127H189.081l-7.462-85.291H266.91Z" transform="translate(-16.24 -2.936)" fill="#ffb338"/>
    <g id="Grupo_883753" data-name="Grupo 883753">
      <g id="Grupo_883752" data-name="Grupo 883752" clip-path="url(#clip-path)">
        <path id="Trazado_643400" data-name="Trazado 643400" d="M223.5,59.384l-4.058-6.6s2.252-4.812,5.444-4.99,6.828,2.673,6.828,2.673l3.949-1.713-2.07,11.589s-5.238,4.578-10.094-.956" transform="translate(-19.622 -4.273)" fill="#fff"/>
        <path id="Trazado_643401" data-name="Trazado 643401" d="M251.863,84.841c1.286,14.708-7.448,20.676-18.867,20.676A23.02,23.02,0,0,1,210.51,84.841c-1-11.419,6.984-25.987,18.4-25.987,0,0,21.77,12.522,22.949,25.987" transform="translate(-18.816 -5.263)" fill="#407bff"/>
        <path id="Trazado_643402" data-name="Trazado 643402" d="M251.863,84.841c1.286,14.708-7.448,20.676-18.867,20.676A23.02,23.02,0,0,1,210.51,84.841c-1-11.419,6.984-25.987,18.4-25.987,0,0,21.77,12.522,22.949,25.987" transform="translate(-18.816 -5.263)" fill="#fff"/>
        <path id="Trazado_643403" data-name="Trazado 643403" d="M240.389,87.716c1.04,2.97-.655,4.958-4.276,5.27l.369,2.458h-2.234l-.369-2.458a14.354,14.354,0,0,1-5.74-1.72l.527-2.77a12.007,12.007,0,0,0,4.778,1.587l-.562-3.775c-2.3-.626-4.864-1.451-5.81-4.156-1.04-2.97.692-4.981,4.4-5.25l-.369-2.457h2.234l.377,2.48a12.852,12.852,0,0,1,4.556,1.273l-.392,2.77a10.1,10.1,0,0,0-3.735-1.162l.594,3.932c2.267.6,4.76,1.408,5.658,3.977m-8-4.6-.478-3.216c-1.187.246-1.66.937-1.385,1.787.243.693.942,1.095,1.863,1.43m4.584,5.183a2.5,2.5,0,0,0-1.765-1.34l.468,3.06c1.119-.247,1.594-.871,1.3-1.72" transform="translate(-20.278 -6.657)" fill="#ffb338"/>
        <g id="Grupo_883748" data-name="Grupo 883748" transform="translate(204.218 47.148)" opacity="0.1">
          <g id="Grupo_883747" data-name="Grupo 883747">
            <g id="Grupo_883746" data-name="Grupo 883746" clip-path="url(#clip-path-23)">
              <path id="Trazado_643404" data-name="Trazado 643404" d="M231.552,60.245c-.768-2.52-1.459-5.074-2.226-7.594a3.618,3.618,0,0,0-3.006-.806,2.789,2.789,0,0,0-2.047,1.9,28.185,28.185,0,0,0,2.83,6.115,2.266,2.266,0,0,1,2.1-.89,3.236,3.236,0,0,1,2.348,1.271" transform="translate(-224.272 -51.778)"/>
            </g>
          </g>
        </g>
        <g id="Grupo_883751" data-name="Grupo 883751" transform="translate(211.918 48.794)" opacity="0.1">
          <g id="Grupo_883750" data-name="Grupo 883750">
            <g id="Grupo_883749" data-name="Grupo 883749" clip-path="url(#clip-path-24)">
              <path id="Trazado_643405" data-name="Trazado 643405" d="M233.324,59.514c.339-1.941.5-3.987.843-5.928-.414.217-.718.426-1.131.643-.053,1.489-.393,5.057-.287,5.276" transform="translate(-232.728 -53.586)"/>
            </g>
          </g>
        </g>
        <path id="Trazado_643406" data-name="Trazado 643406" d="M267.509,39.679H182.218l-.6-6.844H266.91Z" transform="translate(-16.24 -2.936)" fill="#263238"/>
        <path id="Trazado_643407" data-name="Trazado 643407" d="M191.829,36.439a1.906,1.906,0,0,1-1.929,2.114,2.354,2.354,0,0,1-2.3-2.114,1.906,1.906,0,0,1,1.929-2.114,2.353,2.353,0,0,1,2.3,2.114" transform="translate(-16.774 -3.069)" fill="#fff"/>
        <path id="Trazado_643408" data-name="Trazado 643408" d="M198.781,36.439a1.907,1.907,0,0,1-1.93,2.114,2.355,2.355,0,0,1-2.3-2.114,1.907,1.907,0,0,1,1.93-2.114,2.354,2.354,0,0,1,2.3,2.114" transform="translate(-17.396 -3.069)" fill="#fff"/>
        <path id="Trazado_643409" data-name="Trazado 643409" d="M205.733,36.439a1.906,1.906,0,0,1-1.929,2.114,2.354,2.354,0,0,1-2.3-2.114,1.906,1.906,0,0,1,1.929-2.114,2.354,2.354,0,0,1,2.3,2.114" transform="translate(-18.018 -3.069)" fill="#fff"/>
      </g>
    </g>
    <g id="Grupo_883758" data-name="Grupo 883758">
      <g id="Grupo_883757" data-name="Grupo 883757" clip-path="url(#clip-path)">
        <g id="Grupo_883756" data-name="Grupo 883756" transform="translate(36.592 105.044)" opacity="0.2">
          <g id="Grupo_883755" data-name="Grupo 883755">
            <g id="Grupo_883754" data-name="Grupo 883754" clip-path="url(#clip-path-26)">
              <path id="Trazado_643410" data-name="Trazado 643410" d="M148.931,258.748H52.73L40.185,115.359h96.2Z" transform="translate(-40.185 -115.359)"/>
            </g>
          </g>
        </g>
      </g>
    </g>
    <path id="Trazado_643411" data-name="Trazado 643411" d="M155.474,250.4h-96.2L46.727,107.007h96.2Z" transform="translate(-4.178 -9.568)" fill="#617a0b"/>
    <g id="Grupo_883763" data-name="Grupo 883763" transform="translate(-24.234)">
      <g id="Grupo_883762" data-name="Grupo 883762" clip-path="url(#clip-path)">
        <g id="Grupo_883761" data-name="Grupo 883761" transform="translate(42.549 97.438)" opacity="0.1">
          <g id="Grupo_883760" data-name="Grupo 883760" transform="translate(26)">
            <g id="Grupo_883759" data-name="Grupo 883759" clip-path="url(#clip-path-26)">
              <path id="Trazado_643412" data-name="Trazado 643412" d="M155.474,250.4h-96.2L46.727,107.007h96.2Z" transform="translate(-46.727 -107.006)" fill="#fff"/>
            </g>
          </g>
        </g>
      </g>
    </g>
    <path id="Trazado_643413" data-name="Trazado 643413" d="M100.081,150.341l10.142-11.468,5.284,15.512,15-4.351-3,15.4,15.834,3.933-10.475,11.162,12.429,11.161-15.147,3.933,5.692,15.4-15.759-4.352-2.57,15.514-12.149-11.469L95.221,222.186l-5.284-15.514-15,4.352,3-15.4L62.1,191.69l10.475-11.161L60.149,169.367,75.3,165.435l-5.692-15.4,15.759,4.351,2.57-15.512Z" transform="translate(-5.378 -12.418)" fill="#f5f5f5"/>
    <g id="Grupo_883765" data-name="Grupo 883765">
      <g id="Grupo_883764" data-name="Grupo 883764" clip-path="url(#clip-path)">
        <path id="Trazado_643414" data-name="Trazado 643414" d="M94.085,174.944a3.731,3.731,0,0,1,1.212,3.231,4.752,4.752,0,0,1-.823,2.38,5.06,5.06,0,0,1-2.114,1.717,7.907,7.907,0,0,1-3.347.644,10.9,10.9,0,0,1-2.947-.4,7.067,7.067,0,0,1-2.4-1.135l1.488-2.535a5.789,5.789,0,0,0,1.814.952,6.953,6.953,0,0,0,2.163.336,3.6,3.6,0,0,0,2-.491,1.7,1.7,0,0,0,.812-1.37,1.425,1.425,0,0,0-.647-1.39,4.965,4.965,0,0,0-2.552-.469h-3.66l1.307-8.056h8.729l-.188,2.659H88.955l-.418,2.718H89.7a6.51,6.51,0,0,1,4.382,1.207" transform="translate(-7.481 -15.055)" fill="#407bff"/>
        <path id="Trazado_643415" data-name="Trazado 643415" d="M100.626,182.014a5.317,5.317,0,0,1-2-2.545,8.92,8.92,0,0,1-.506-3.976,9.683,9.683,0,0,1,1.07-3.977,6.537,6.537,0,0,1,2.357-2.545,6.121,6.121,0,0,1,3.23-.879,5.5,5.5,0,0,1,3.107.879,5.342,5.342,0,0,1,2,2.545,8.94,8.94,0,0,1,.5,3.977,9.675,9.675,0,0,1-1.068,3.976,6.538,6.538,0,0,1-2.357,2.545,6.125,6.125,0,0,1-3.232.879,5.5,5.5,0,0,1-3.106-.879m5.439-3.046a6.718,6.718,0,0,0,.993-3.475,6.15,6.15,0,0,0-.5-3.476,2.158,2.158,0,0,0-1.975-1.125,2.523,2.523,0,0,0-2.113,1.125,6.733,6.733,0,0,0-.993,3.476,6.145,6.145,0,0,0,.5,3.475,2.138,2.138,0,0,0,1.954,1.125,2.536,2.536,0,0,0,2.134-1.125" transform="translate(-8.771 -15.031)" fill="#407bff"/>
        <path id="Trazado_643416" data-name="Trazado 643416" d="M114.149,175a3.833,3.833,0,0,1-.787-2.871,4.356,4.356,0,0,1,1.194-2.874,3.582,3.582,0,0,1,2.643-1.073,3.074,3.074,0,0,1,2.48,1.073,3.869,3.869,0,0,1,.777,2.874A4.374,4.374,0,0,1,119.27,175a3.543,3.543,0,0,1-2.631,1.074,3.1,3.1,0,0,1-2.49-1.074m3.743-1.175a3.142,3.142,0,0,0,.519-1.7,2.853,2.853,0,0,0-.279-1.7,1.165,1.165,0,0,0-1.053-.572,1.368,1.368,0,0,0-1.125.582,3.078,3.078,0,0,0-.528,1.687,2.794,2.794,0,0,0,.289,1.685,1.166,1.166,0,0,0,1.043.585,1.368,1.368,0,0,0,1.135-.573m7.819-5.48h2.433l-10.787,14.311h-2.432Zm-1.636,13.995a2.939,2.939,0,0,1-1.159-1.381,4.421,4.421,0,0,1-.3-2.084,4.855,4.855,0,0,1,.6-2.086,3.607,3.607,0,0,1,1.356-1.379,3.7,3.7,0,0,1,1.863-.481,3.1,3.1,0,0,1,2.49,1.073,3.843,3.843,0,0,1,.788,2.873,4.357,4.357,0,0,1-1.195,2.871,3.579,3.579,0,0,1-2.643,1.074,3.348,3.348,0,0,1-1.8-.479m3.05-1.78a3.147,3.147,0,0,0,.518-1.685,2.849,2.849,0,0,0-.28-1.687,1.156,1.156,0,0,0-1.052-.582,1.374,1.374,0,0,0-1.124.573,3.062,3.062,0,0,0-.53,1.7,2.8,2.8,0,0,0,.289,1.7,1.174,1.174,0,0,0,1.043.572,1.362,1.362,0,0,0,1.135-.584" transform="translate(-10.135 -15.039)" fill="#407bff"/>
        <path id="Trazado_643417" data-name="Trazado 643417" d="M86.805,205.13a6.429,6.429,0,0,1-2.613-2.647,6.9,6.9,0,0,1-.743-3.793,7.657,7.657,0,0,1,1.28-3.792,7.927,7.927,0,0,1,2.989-2.649,8.774,8.774,0,0,1,4.084-.96,7.927,7.927,0,0,1,3.939.96,6.531,6.531,0,0,1,2.612,2.649,6.848,6.848,0,0,1,.754,3.792,7.6,7.6,0,0,1-1.291,3.793,8.029,8.029,0,0,1-2.989,2.647,8.694,8.694,0,0,1-4.075.96,7.963,7.963,0,0,1-3.948-.96m6.48-2.442A4.649,4.649,0,0,0,95,201.062a5.047,5.047,0,0,0,.751-2.372,4.594,4.594,0,0,0-.414-2.371,3.774,3.774,0,0,0-1.49-1.625,4.315,4.315,0,0,0-2.248-.582,4.762,4.762,0,0,0-2.33.582,4.625,4.625,0,0,0-1.721,1.625,5.046,5.046,0,0,0-.75,2.371,4.578,4.578,0,0,0,.414,2.372,3.773,3.773,0,0,0,1.49,1.625,4.321,4.321,0,0,0,2.248.582,4.778,4.778,0,0,0,2.331-.582" transform="translate(-7.46 -17.105)" fill="#407bff"/>
        <path id="Trazado_643418" data-name="Trazado 643418" d="M106.967,194.218,106.7,198h6.624l-.188,2.658H106.51l-.37,5.212h-3.312l1.014-14.311h10.815l-.188,2.659Z" transform="translate(-9.195 -17.129)" fill="#407bff"/>
        <path id="Trazado_643419" data-name="Trazado 643419" d="M121.312,194.218,121.045,198h6.624l-.188,2.658h-6.624l-.37,5.212h-3.312l1.014-14.311H129l-.188,2.659Z" transform="translate(-10.478 -17.129)" fill="#407bff"/>
        <path id="Trazado_643420" data-name="Trazado 643420" d="M143.767,116.6H47.547l-.839-9.595h96.219Z" transform="translate(-4.177 -9.568)" fill="#263238"/>
        <path id="Trazado_643421" data-name="Trazado 643421" d="M61.023,112.059a2.672,2.672,0,0,1-2.7,2.964,3.3,3.3,0,0,1-3.223-2.964,2.673,2.673,0,0,1,2.7-2.964,3.3,3.3,0,0,1,3.223,2.964" transform="translate(-4.925 -9.755)" fill="#fff"/>
        <path id="Trazado_643422" data-name="Trazado 643422" d="M70.77,112.059a2.673,2.673,0,0,1-2.7,2.964,3.3,3.3,0,0,1-3.224-2.964,2.673,2.673,0,0,1,2.705-2.964,3.3,3.3,0,0,1,3.223,2.964" transform="translate(-5.797 -9.755)" fill="#fff"/>
        <path id="Trazado_643423" data-name="Trazado 643423" d="M80.516,112.059a2.672,2.672,0,0,1-2.7,2.964,3.3,3.3,0,0,1-3.223-2.964,2.672,2.672,0,0,1,2.7-2.964,3.3,3.3,0,0,1,3.223,2.964" transform="translate(-6.669 -9.755)" fill="#fff"/>
      </g>
    </g>
    <g id="Grupo_883770" data-name="Grupo 883770">
      <g id="Grupo_883769" data-name="Grupo 883769" clip-path="url(#clip-path)">
        <g id="Grupo_883768" data-name="Grupo 883768" transform="translate(33.257 64.392)" opacity="0.2">
          <g id="Grupo_883767" data-name="Grupo 883767">
            <g id="Grupo_883766" data-name="Grupo 883766" clip-path="url(#clip-path-31)">
              <path id="Trazado_643424" data-name="Trazado 643424" d="M175.887,92.223H38.4L36.523,70.715H174.011Z" transform="translate(-36.523 -70.715)"/>
            </g>
          </g>
        </g>
      </g>
    </g>
    <path id="Trazado_643425" data-name="Trazado 643425" d="M35.962,0l7.021,80.322H180.477L173.455,0Z" transform="translate(-3.216 0)" fill="#febbac"/>
    <path id="Trazado_643427" data-name="Trazado 643427" d="M35.962,0l.563,6.437H174.018L173.455,0Z" transform="translate(-3.216 0)" fill="#263238"/>
    <g id="Grupo_883795" data-name="Grupo 883795">
      <g id="Grupo_883794" data-name="Grupo 883794" clip-path="url(#clip-path)">
        <path id="Trazado_643428" data-name="Trazado 643428" d="M45.566,3.39a1.793,1.793,0,0,1-1.815,1.989A2.213,2.213,0,0,1,41.589,3.39,1.793,1.793,0,0,1,43.4,1.4,2.214,2.214,0,0,1,45.566,3.39" transform="translate(-3.718 -0.125)" fill="#fff"/>
        <path id="Trazado_643429" data-name="Trazado 643429" d="M52.1,3.39A1.794,1.794,0,0,1,50.29,5.378,2.215,2.215,0,0,1,48.127,3.39,1.794,1.794,0,0,1,49.942,1.4,2.215,2.215,0,0,1,52.1,3.39" transform="translate(-4.303 -0.125)" fill="#fff"/>
        <path id="Trazado_643430" data-name="Trazado 643430" d="M58.643,3.39a1.793,1.793,0,0,1-1.815,1.989A2.213,2.213,0,0,1,54.666,3.39,1.793,1.793,0,0,1,56.48,1.4,2.215,2.215,0,0,1,58.643,3.39" transform="translate(-4.887 -0.125)" fill="#fff"/>
        <path id="Trazado_643431" data-name="Trazado 643431" d="M144.022,19.593l5.51-6.23,2.87,8.427,8.147-2.364-1.628,8.366,8.6,2.135-5.69,6.064,6.751,6.064-8.228,2.136,3.092,8.366-8.56-2.364-1.4,8.427-6.6-6.229-5.509,6.229-2.871-8.427-8.147,2.364,1.628-8.366-8.6-2.136,5.69-6.064-6.751-6.064,8.228-2.135-3.092-8.366,8.56,2.364,1.4-8.427Z" transform="translate(-10.939 -1.195)" fill="#f5f5f5"/>
        <path id="Trazado_643432" data-name="Trazado 643432" d="M141.435,38.129h1.456l.209,2.412a4.045,4.045,0,0,1-2.38.74,3.347,3.347,0,0,1-3.476-3.028,2.733,2.733,0,0,1,2.979-3.028,3.474,3.474,0,0,1,2.638,1.064l-.965.948a1.991,1.991,0,0,0-1.471-.648,1.419,1.419,0,0,0-1.517,1.664,1.749,1.749,0,0,0,1.792,1.664,1.988,1.988,0,0,0,.873-.191Z" transform="translate(-12.271 -3.15)" fill="#407bff"/>
        <path id="Trazado_643433" data-name="Trazado 643433" d="M149.406,39.9l.111,1.272h-4.674l-.51-5.822H148.9l.111,1.273h-2.936l.086.982h2.587l.107,1.231h-2.586l.093,1.064Z" transform="translate(-12.906 -3.161)" fill="#407bff"/>
        <path id="Trazado_643434" data-name="Trazado 643434" d="M151.774,36.66h-1.788l-.114-1.306h5.215l.114,1.306h-1.779l.4,4.517h-1.647Z" transform="translate(-13.401 -3.161)" fill="#407bff"/>
        <path id="Trazado_643435" data-name="Trazado 643435" d="M150.655,48.237l.114,1.306h-4.533l-.09-1.032,2-2.038c.428-.433.471-.7.45-.94-.033-.374-.3-.6-.8-.6a1.076,1.076,0,0,0-.991.566l-1.282-.683A2.418,2.418,0,0,1,147.83,43.6c1.339,0,2.323.69,2.418,1.772a2.122,2.122,0,0,1-.829,1.846l-1.009,1.015Z" transform="translate(-13.013 -3.899)" fill="#407bff"/>
        <path id="Trazado_643436" data-name="Trazado 643436" d="M141.579,31.158c.067.776-.534,1.231-1.739,1.231h-2.424l-.392-4.488h2.3c1.18,0,1.8.481,1.859,1.173a.96.96,0,0,1-.517.975,1.266,1.266,0,0,1,.918,1.109m-3.219-2.34.076.865h.872c.423,0,.628-.148.6-.435s-.255-.43-.678-.43Zm1.924,2.2c-.027-.308-.27-.455-.707-.455h-1.065l.08.911h1.064c.436,0,.655-.148.627-.455" transform="translate(-12.252 -2.495)" fill="#407bff"/>
        <path id="Trazado_643437" data-name="Trazado 643437" d="M142.61,30.389l-.218-2.488h1.27l.214,2.449c.067.769.414,1.077.947,1.077s.82-.308.752-1.077l-.214-2.449h1.25l.218,2.488a1.737,1.737,0,0,1-1.927,2.091,2.116,2.116,0,0,1-2.293-2.091" transform="translate(-12.733 -2.495)" fill="#407bff"/>
        <path id="Trazado_643438" data-name="Trazado 643438" d="M150.5,30.78l.141,1.61h-1.27l-.142-1.629-1.962-2.86h1.34l1.22,1.783.908-1.783h1.232Z" transform="translate(-13.168 -2.495)" fill="#407bff"/>
        <path id="Trazado_643439" data-name="Trazado 643439" d="M156.473,27.9l.392,4.489H155.6l-.307-3.508h-.833l-.087-.981Z" transform="translate(-13.804 -2.495)" fill="#407bff"/>
        <path id="Trazado_643440" data-name="Trazado 643440" d="M90.557,43.593,89.6,41.548c-10.355.479-11.864-3.437-12.079-4.684-.4-2.312,1.507-4.417,4.248-4.694,3.778-.391,6.615,3.024,8.107,5.274a11.561,11.561,0,0,1,8.243-4.315h0a4.428,4.428,0,0,1,4.54,3.117,3.287,3.287,0,0,1-.453,3.356c-2.179,2.725-9.2,2.2-11.315,1.98Zm.868-4.143c3.183.278,7.756.071,8.92-1.385.186-.232.377-.471.126-1.216a1.919,1.919,0,0,0-2.145-1.405h0a9.378,9.378,0,0,0-6.9,4.006M82.56,34.456c-.118,0-.238.006-.358.018-1.558.158-2.547,1.288-2.39,2.194.177,1.021,2.245,2.757,8.658,2.6-.932-1.6-3.145-4.809-5.91-4.809" transform="translate(-6.927 -2.874)" fill="#263238"/>
        <path id="Trazado_643441" data-name="Trazado 643441" d="M114.341,72.139H69.213l-2.712-31h45.127Z" transform="translate(-5.947 -3.678)" fill="#407bff"/>
        <g id="Grupo_883778" data-name="Grupo 883778" transform="translate(60.555 37.459)" opacity="0.1">
          <g id="Grupo_883777" data-name="Grupo 883777">
            <g id="Grupo_883776" data-name="Grupo 883776" clip-path="url(#clip-path-34)">
              <path id="Trazado_643442" data-name="Trazado 643442" d="M114.341,72.139H69.213l-2.712-31h45.127Z" transform="translate(-66.502 -41.138)" fill="#fff"/>
            </g>
          </g>
        </g>
        <g id="Grupo_883781" data-name="Grupo 883781" transform="translate(61.492 48.171)" opacity="0.2" style="isolation: isolate">
          <g id="Grupo_883780" data-name="Grupo 883780">
            <g id="Grupo_883779" data-name="Grupo 883779" clip-path="url(#clip-path-35)">
              <path id="Trazado_643443" data-name="Trazado 643443" d="M114.433,73.19H69.305L67.531,52.9h45.127Z" transform="translate(-67.531 -52.901)"/>
            </g>
          </g>
        </g>
        <path id="Trazado_643444" data-name="Trazado 643444" d="M103.2,41.138H99.529l2.713,31h3.667Z" transform="translate(-8.9 -3.679)" fill="#263238"/>
        <path id="Trazado_643445" data-name="Trazado 643445" d="M78.865,72.139H76.172l-2.713-31h2.693Z" transform="translate(-6.569 -3.678)" fill="#263238"/>
        <g id="Grupo_883784" data-name="Grupo 883784" transform="translate(60.555 37.459)" opacity="0.2" style="isolation: isolate">
          <g id="Grupo_883783" data-name="Grupo 883783">
            <g id="Grupo_883782" data-name="Grupo 883782" clip-path="url(#clip-path-36)">
              <path id="Trazado_643446" data-name="Trazado 643446" d="M87.144,72.139H69.214l-2.713-31h17.93Z" transform="translate(-66.502 -41.138)"/>
            </g>
          </g>
        </g>
        <path id="Trazado_643447" data-name="Trazado 643447" d="M132.469,52.45c-1.406.148-6.091.5-7.888-1.339a2.5,2.5,0,0,1-.7-2.275,2.435,2.435,0,0,1,2.7-2.112h0a9.549,9.549,0,0,1,6.086,2.922c.743-1.522,2.26-3.83,4.861-3.566,1.888.187,3.427,1.613,3.43,3.177,0,.844-.554,3.493-7.617,3.169l-.405,1.384Zm-5.753-4.182h0c-.767,0-1.168.25-1.283.966a.8.8,0,0,0,.229.83c.961.984,4.077,1.114,6.2.925a7.848,7.848,0,0,0-5.142-2.721m7.122,2.614c4.357.109,5.55-1.066,5.549-1.757,0-.613-.8-1.378-1.876-1.485-.084-.007-.165-.012-.245-.012-1.87,0-2.989,2.171-3.428,3.254" transform="translate(-11.073 -4.119)" fill="#263238"/>
        <path id="Trazado_643448" data-name="Trazado 643448" d="M118.859,73.123h30.53l-1.835-20.972h-30.53Z" transform="translate(-10.464 -4.663)" fill="#407bff"/>
        <g id="Grupo_883787" data-name="Grupo 883787" transform="translate(106.56 47.488)" opacity="0.6">
          <g id="Grupo_883786" data-name="Grupo 883786">
            <g id="Grupo_883785" data-name="Grupo 883785" clip-path="url(#clip-path-37)">
              <path id="Trazado_643449" data-name="Trazado 643449" d="M118.859,73.123h30.53l-1.835-20.972h-30.53Z" transform="translate(-117.024 -52.151)" fill="#fff"/>
            </g>
          </g>
        </g>
        <g id="Grupo_883790" data-name="Grupo 883790" transform="translate(107.194 54.733)" opacity="0.1" style="isolation: isolate">
          <g id="Grupo_883789" data-name="Grupo 883789">
            <g id="Grupo_883788" data-name="Grupo 883788" clip-path="url(#clip-path-38)">
              <path id="Trazado_643450" data-name="Trazado 643450" d="M118.921,73.835h30.53l-1.2-13.726H117.72Z" transform="translate(-117.72 -60.108)"/>
            </g>
          </g>
        </g>
        <g id="Grupo_883793" data-name="Grupo 883793" transform="translate(124.959 47.488)" opacity="0.2">
          <g id="Grupo_883792" data-name="Grupo 883792">
            <g id="Grupo_883791" data-name="Grupo 883791" clip-path="url(#clip-path-39)">
              <path id="Trazado_643451" data-name="Trazado 643451" d="M139.065,73.123H151.2L149.36,52.151H137.23Z" transform="translate(-137.23 -52.151)" fill="#fff"/>
            </g>
          </g>
        </g>
        <path id="Trazado_643452" data-name="Trazado 643452" d="M125.483,52.151h2.48L129.8,73.123h-2.48Z" transform="translate(-11.221 -4.663)" fill="#263238"/>
        <path id="Trazado_643453" data-name="Trazado 643453" d="M145.678,73.123H147.5l-1.835-20.972h-1.822Z" transform="translate(-12.862 -4.663)" fill="#263238"/>
      </g>
    </g>
    <path id="Trazado_643454" data-name="Trazado 643454" d="M295.562,320.389l-6.569-6.45-8.2,18.144,4.8,3.121Z" transform="translate(-25.108 -28.072)" fill="#ff8b7b"/>
    <g id="Grupo_883818" data-name="Grupo 883818">
      <g id="Grupo_883817" data-name="Grupo 883817" clip-path="url(#clip-path)">
        <g id="Grupo_883798" data-name="Grupo 883798" transform="translate(259.349 288.418)" opacity="0.2" style="isolation: isolate">
          <g id="Grupo_883797" data-name="Grupo 883797">
            <g id="Grupo_883796" data-name="Grupo 883796" clip-path="url(#clip-path-41)">
              <path id="Trazado_643455" data-name="Trazado 643455" d="M294.6,322.583l-3.224,4.8-6.557-3.189,3.37-7.451Z" transform="translate(-284.817 -316.741)"/>
            </g>
          </g>
        </g>
        <path id="Trazado_643456" data-name="Trazado 643456" d="M330.4,336.39l-.137-.011a9.113,9.113,0,0,1-6.46-3.43c-6.654-8.494-10.525-21.339-14.761-29.771a21.608,21.608,0,0,0-1.689-2.881,18.76,18.76,0,0,1-.586,1.967,58.283,58.283,0,0,1-11.98,19.8l-8.429-5.624s10.538-25.933,11.674-28.483c9.22-20.749,31.427,4.458,39.665,19.259a51.594,51.594,0,0,1,2.952,6.065l19.706.65c1.4,11.314-3.655,24.524-29.955,22.457" transform="translate(-25.606 -25.046)" fill="#407bff"/>
        <g id="Grupo_883801" data-name="Grupo 883801" transform="translate(260.755 255.047)" opacity="0.4" style="isolation: isolate">
          <g id="Grupo_883800" data-name="Grupo 883800">
            <g id="Grupo_883799" data-name="Grupo 883799" clip-path="url(#clip-path-42)">
              <path id="Trazado_643457" data-name="Trazado 643457" d="M330.4,336.39l-.037,0a9.3,9.3,0,0,1-6.621-3.518c-6.615-8.494-10.477-21.285-14.7-29.691a21.608,21.608,0,0,0-1.689-2.881,18.76,18.76,0,0,1-.586,1.967,58.283,58.283,0,0,1-11.98,19.8l-8.429-5.624s10.538-25.933,11.674-28.483c9.22-20.749,31.427,4.458,39.665,19.259a51.594,51.594,0,0,1,2.952,6.065l19.706.65c1.4,11.314-3.655,24.524-29.955,22.457" transform="translate(-286.361 -280.093)"/>
            </g>
          </g>
        </g>
        <path id="Trazado_643458" data-name="Trazado 643458" d="M299.282,322.58l-12.308-6.835-1.555,4.284,10.61,6.372Z" transform="translate(-25.522 -28.234)" fill="#263238"/>
        <path id="Trazado_643459" data-name="Trazado 643459" d="M280.251,328.335c-2.856.927-6.1,1.767-12.99.57-1.531-.278-2.836,3.323.547,4.7s17.786,5.736,17.837,5.75a1.4,1.4,0,0,0,1.73-.962l1.889-7.593a.728.728,0,0,0-.453-.827l-7.045-1.594a2.283,2.283,0,0,0-1.515-.043" transform="translate(-23.757 -29.35)" fill="#263238"/>
        <path id="Trazado_643460" data-name="Trazado 643460" d="M280.91,328.67a.22.22,0,0,0,.04-.239.2.2,0,0,0-.209-.113c-.445.047-4.316.523-4.872,1.609a.677.677,0,0,0,.02.648,1.117,1.117,0,0,0,.87.626,3.229,3.229,0,0,0,2.053-.743,15.006,15.006,0,0,0,2.1-1.788m-4.411,1.145a11.182,11.182,0,0,1,3.677-1c-1.422,1.343-2.651,2.078-3.362,1.981a.73.73,0,0,1-.564-.41.265.265,0,0,1-.013-.265.819.819,0,0,1,.278-.278Z" transform="translate(-24.661 -29.358)" fill="#407bff"/>
        <path id="Trazado_643461" data-name="Trazado 643461" d="M281.039,328.376a.2.2,0,0,0-.03-.2c-.064-.081-1.546-1.911-2.968-2.052a1.493,1.493,0,0,0-1.14.348c-.446.367-.451.723-.319.916.417.907,3.174,1.309,4.3,1.115a.2.2,0,0,0,.073-.049.241.241,0,0,0,.087-.078m-3.815-1.665a1.083,1.083,0,0,1,.766-.2,4.735,4.735,0,0,1,2.422,1.6c-1.233.057-3.218-.378-3.471-.93-.019-.04-.087-.178.2-.423l.1-.07Z" transform="translate(-24.725 -29.161)" fill="#407bff"/>
        <path id="Trazado_643462" data-name="Trazado 643462" d="M329.942,337.735c-1.172-.09-2.4-.211-3.661-.341-26.891-2.959-71.36-16.148-76.76-31.366,0,0-6.378-18.2,16.6-13.825,6.966,1.328,19.231,3.969,30.269,7.107,4.791,1.343,22.118,8.519,23.018,10.122l15.413.685,22.529,1.012a30.768,30.768,0,0,1,1.125,5.217c1.336,10.777-3.48,23.359-28.533,21.39" transform="translate(-22.239 -26.068)" fill="#407bff"/>
        <g id="Grupo_883804" data-name="Grupo 883804" transform="translate(226.47 265.455)" opacity="0.3">
          <g id="Grupo_883803" data-name="Grupo 883803">
            <g id="Grupo_883802" data-name="Grupo 883802" clip-path="url(#clip-path-43)">
              <path id="Trazado_643463" data-name="Trazado 643463" d="M329.942,337.735c-1.172-.09-2.4-.211-3.661-.341-26.891-2.959-71.36-16.148-76.76-31.366,0,0-6.378-18.2,16.6-13.825,6.966,1.328,19.231,3.969,30.269,7.107,4.791,1.343,22.118,8.519,23.018,10.122l15.413.685,22.529,1.012a30.768,30.768,0,0,1,1.125,5.217c1.336,10.777-3.48,23.359-28.533,21.39" transform="translate(-248.709 -291.523)"/>
            </g>
          </g>
        </g>
        <path id="Trazado_643464" data-name="Trazado 643464" d="M354.841,208.2c7.365,30.382,2.008,27.88.177,28.826.8,1.447,3.13,2.225,4.451,1.229a5.323,5.323,0,0,0,1.8-4.425c-.04-1.655-1.075-19.041-3.61-25.537a2.4,2.4,0,0,0-1.051-1.407c-.545-.253-1.906.73-1.765,1.314" transform="translate(-31.729 -18.496)" fill="#263238"/>
        <path id="Trazado_643465" data-name="Trazado 643465" d="M346.957,236.775c1.334,3.872,1.68,6.166-3.905,8.02,0,0-6.333,9,2.758,21.425a113.868,113.868,0,0,0,13.138-22.8c-3.866-3.1-3.507-10.632-2.948-15.828Z" transform="translate(-30.483 -20.351)" fill="#ff8b7b"/>
        <path id="Trazado_643466" data-name="Trazado 643466" d="M337.4,247a8.457,8.457,0,0,1,4.812-3.54c3.391-.986,16.29-.411,17.5.585a6.986,6.986,0,0,1,2.572,3.774Z" transform="translate(-30.17 -21.724)" fill="#263238"/>
        <g id="Grupo_883807" data-name="Grupo 883807" transform="translate(331.839 239.997)" opacity="0.2" style="isolation: isolate">
          <g id="Grupo_883806" data-name="Grupo 883806">
            <g id="Grupo_883805" data-name="Grupo 883805" clip-path="url(#clip-path-44)">
              <path id="Trazado_643467" data-name="Trazado 643467" d="M364.425,265.115a49.632,49.632,0,0,0,4.438,8.776l6.538-4.307a22.319,22.319,0,0,0-2.094-3.459c-2.887-3.56-6.246-2.923-8.882-1.01" transform="translate(-364.425 -263.565)"/>
            </g>
          </g>
        </g>
        <path id="Trazado_643468" data-name="Trazado 643468" d="M364.514,282.582s.322-4.075.487-6.566.323-4.992.413-7.495.146-5.03.218-7.53c.02-.671.034-1.348.044-2.024a5.756,5.756,0,1,1,11.488.577c-.351,3.938-.819,8.336-.924,9.864-.183,2.621-.49,5.239-.8,7.866s-.751,5.25-1.248,7.876l-.219.846Z" transform="translate(-32.594 -22.648)" fill="#ff8b7b"/>
        <path id="Trazado_643469" data-name="Trazado 643469" d="M334.8,289.175l-7.6-3.55a2.262,2.262,0,0,0-2,.039l-7,3.613a2.262,2.262,0,0,0,.917,4.268l6.726.362,10.12,1.936s3.441-4.512-1.171-6.667" transform="translate(-28.344 -25.521)" fill="#ff8b7b"/>
        <path id="Trazado_643470" data-name="Trazado 643470" d="M362.79,284.135l-26.244,4.926s.282,7.133,1.171,6.667c.6-.314,15.893-.577,25.794-.715a8.643,8.643,0,0,0,8.52-8.426Z" transform="translate(-30.094 -25.407)" fill="#ff8b7b"/>
        <path id="Trazado_643471" data-name="Trazado 643471" d="M363.9,254.7c-3.1,4.05-.595,16.073-.595,16.073l15.5-3.383s.291-14.428-2.741-17.1c-3.463-3.045-8.977.2-12.167,4.411" transform="translate(-32.4 -22.273)" fill="#3d672f"/>
        <path id="Trazado_643473" data-name="Trazado 643473" d="M330.648,298.055h2.826a.518.518,0,0,0,.54-.493v-2.726a.518.518,0,0,0-.54-.493h-2.029a.534.534,0,0,0-.521.366l-.8,2.726a.5.5,0,0,0,.522.619" transform="translate(-29.518 -26.32)" fill="#263238"/>
        <path id="Trazado_643474" data-name="Trazado 643474" d="M326.36,298.055h2.826a.518.518,0,0,0,.54-.493v-2.726a.518.518,0,0,0-.54-.493h-2.029a.533.533,0,0,0-.521.366l-.8,2.726a.5.5,0,0,0,.522.619" transform="translate(-29.134 -26.32)" fill="#263238"/>
        <path id="Trazado_643475" data-name="Trazado 643475" d="M322.072,298.055H324.9a.517.517,0,0,0,.539-.493v-2.726a.517.517,0,0,0-.539-.493h-2.029a.535.535,0,0,0-.522.366l-.8,2.726a.506.506,0,0,0,.523.619" transform="translate(-28.751 -26.32)" fill="#263238"/>
        <path id="Trazado_643476" data-name="Trazado 643476" d="M317.783,298.055h2.826a.518.518,0,0,0,.54-.493v-2.726a.518.518,0,0,0-.54-.493H318.58a.534.534,0,0,0-.521.366l-.8,2.726a.5.5,0,0,0,.521.619" transform="translate(-28.368 -26.32)" fill="#263238"/>
        <path id="Trazado_643477" data-name="Trazado 643477" d="M313.5,298.055h2.826a.518.518,0,0,0,.54-.493v-2.726a.518.518,0,0,0-.54-.493h-2.029a.534.534,0,0,0-.521.366l-.8,2.726a.5.5,0,0,0,.521.619" transform="translate(-27.984 -26.32)" fill="#263238"/>
        <path id="Trazado_643478" data-name="Trazado 643478" d="M309.206,298.055h2.826a.517.517,0,0,0,.539-.493v-2.726a.517.517,0,0,0-.539-.493H310a.534.534,0,0,0-.521.366l-.8,2.726a.5.5,0,0,0,.522.619" transform="translate(-27.601 -26.32)" fill="#263238"/>
        <path id="Trazado_643479" data-name="Trazado 643479" d="M304.918,298.055h2.826a.518.518,0,0,0,.54-.493v-2.726a.518.518,0,0,0-.54-.493h-2.029a.534.534,0,0,0-.521.366l-.8,2.726a.5.5,0,0,0,.521.619" transform="translate(-27.217 -26.32)" fill="#263238"/>
        <path id="Trazado_643480" data-name="Trazado 643480" d="M300.629,298.055h2.826a.518.518,0,0,0,.54-.493v-2.726a.518.518,0,0,0-.54-.493h-2.029a.534.534,0,0,0-.521.366l-.8,2.726a.5.5,0,0,0,.521.619" transform="translate(-26.834 -26.32)" fill="#263238"/>
        <path id="Trazado_643481" data-name="Trazado 643481" d="M296.341,298.055h2.826a.518.518,0,0,0,.54-.493v-2.726a.518.518,0,0,0-.54-.493h-2.029a.534.534,0,0,0-.521.366l-.8,2.726a.5.5,0,0,0,.521.619" transform="translate(-26.45 -26.32)" fill="#263238"/>
        <path id="Trazado_643482" data-name="Trazado 643482" d="M292.053,298.055h2.826a.518.518,0,0,0,.54-.493v-2.726a.518.518,0,0,0-.54-.493H292.85a.534.534,0,0,0-.521.366l-.8,2.726a.5.5,0,0,0,.522.619" transform="translate(-26.067 -26.32)" fill="#263238"/>
        <path id="Trazado_643483" data-name="Trazado 643483" d="M287.764,298.055h2.826a.517.517,0,0,0,.539-.493v-2.726a.517.517,0,0,0-.539-.493h-2.029a.534.534,0,0,0-.521.366l-.8,2.726a.5.5,0,0,0,.522.619" transform="translate(-25.683 -26.32)" fill="#263238"/>
        <path id="Trazado_643484" data-name="Trazado 643484" d="M283.476,298.055H286.3a.518.518,0,0,0,.54-.493v-2.726a.518.518,0,0,0-.54-.493h-2.029a.533.533,0,0,0-.521.366l-.8,2.726a.5.5,0,0,0,.522.619" transform="translate(-25.3 -26.32)" fill="#263238"/>
        <path id="Trazado_643485" data-name="Trazado 643485" d="M279.188,298.055h2.826a.518.518,0,0,0,.54-.493v-2.726a.518.518,0,0,0-.54-.493h-2.029a.534.534,0,0,0-.521.366l-.8,2.726a.5.5,0,0,0,.521.619" transform="translate(-24.916 -26.32)" fill="#263238"/>
        <path id="Trazado_643486" data-name="Trazado 643486" d="M274.9,298.055h2.826a.517.517,0,0,0,.539-.493v-2.726a.517.517,0,0,0-.539-.493H275.7a.533.533,0,0,0-.521.366l-.8,2.726a.5.5,0,0,0,.521.619" transform="translate(-24.533 -26.32)" fill="#263238"/>
        <path id="Trazado_643487" data-name="Trazado 643487" d="M270.611,298.055h2.826a.518.518,0,0,0,.54-.493v-2.726a.518.518,0,0,0-.54-.493h-2.029a.534.534,0,0,0-.521.366l-.8,2.726a.5.5,0,0,0,.521.619" transform="translate(-24.15 -26.32)" fill="#263238"/>
        <path id="Trazado_643488" data-name="Trazado 643488" d="M267.541,298.533a2.26,2.26,0,0,0,2.352,2.146H328.36a2.253,2.253,0,0,0,2.352-2.146,2.057,2.057,0,0,0-.685-1.521,2.455,2.455,0,0,0-1.61-.626H269.893a2.607,2.607,0,0,0-.651.084,2.188,2.188,0,0,0-1.7,2.062" transform="translate(-23.923 -26.503)" fill="#263238"/>
        <g id="Grupo_883813" data-name="Grupo 883813" transform="translate(243.618 269.884)" opacity="0.2">
          <g id="Grupo_883812" data-name="Grupo 883812">
            <g id="Grupo_883811" data-name="Grupo 883811" clip-path="url(#clip-path-45)">
              <path id="Trazado_643489" data-name="Trazado 643489" d="M267.541,298.533a2.26,2.26,0,0,0,2.352,2.146H328.36a2.253,2.253,0,0,0,2.352-2.146,2.057,2.057,0,0,0-.685-1.521,2.455,2.455,0,0,0-1.61-.626H269.893a2.607,2.607,0,0,0-.651.084,2.188,2.188,0,0,0-1.7,2.062" transform="translate(-267.541 -296.387)" fill="#fff"/>
            </g>
          </g>
        </g>
        <path id="Trazado_643490" data-name="Trazado 643490" d="M267.541,298.541a2.26,2.26,0,0,0,2.352,2.146h19.8a2.189,2.189,0,0,0,1.634-2.052,2.112,2.112,0,0,0-.035-.385,2.067,2.067,0,0,0-.662-1.135,2.752,2.752,0,0,0-.5-.354l-.274-.126a2.6,2.6,0,0,0-.9-.156H269.242a2.188,2.188,0,0,0-1.7,2.062" transform="translate(-23.923 -26.511)" fill="#263238"/>
        <path id="Trazado_643491" data-name="Trazado 643491" d="M340.355,245.271a121.206,121.206,0,0,1,17.227.984,101.415,101.415,0,0,1,10.6,1.753c.107.024.215.05.321.08a5.175,5.175,0,0,1,3.559,6.395c-7.748,27.175-8.227,36.467-8.461,51.052l-37.913-2.184c-.637-6.111,1.981-12.34,1.233-21.483-1.908-23.34-4.223-22.65-3.588-27.192-.6-6.35,12.389-9.251,17.026-9.4" transform="translate(-28.902 -21.928)" fill="#617a0b"/>
        <path id="Trazado_643492" data-name="Trazado 643492" d="M337.546,216.2c-.451-.039-.871.492-.926,1.188s.272,1.285.723,1.324.871-.463.926-1.187c.056-.69-.272-1.286-.723-1.325" transform="translate(-30.1 -19.332)" fill="#263238"/>
        <path id="Trazado_643493" data-name="Trazado 643493" d="M336.072,215.58l1.624.62c-.875.756-1.624-.62-1.624-.62" transform="translate(-30.051 -19.277)" fill="#263238"/>
        <path id="Trazado_643494" data-name="Trazado 643494" d="M337.144,223.73a3,3,0,0,1-2.295-1.068,18.2,18.2,0,0,0,3.51-3.678Z" transform="translate(-29.942 -19.581)" fill="#a02724"/>
        <path id="Trazado_643495" data-name="Trazado 643495" d="M338.013,213.164a3.252,3.252,0,0,1,2.566,1.466.476.476,0,0,0,.038.07.41.41,0,1,0,.677-.462,4.056,4.056,0,0,0-3.22-1.894.417.417,0,0,0-.441.379.411.411,0,0,0,.176.366.389.389,0,0,0,.2.075" transform="translate(-30.191 -18.988)" fill="#263238"/>
        <path id="Trazado_643496" data-name="Trazado 643496" d="M361.926,215.719c-1.238,8.481-1.57,12.1-6.235,16.124a12.094,12.094,0,0,1-8.894,3.039c-.018,0-.046-.008-.064-.007a10.678,10.678,0,0,1-2.805-.62,11.01,11.01,0,0,1-2.22-1.119v-.009a10.366,10.366,0,0,1-4.539-7.265c-1.2-7.826,1.009-20.39,9.638-23.092a11.7,11.7,0,0,1,15.118,12.95" transform="translate(-30.122 -18.081)" fill="#ff8b7b"/>
        <path id="Trazado_643497" data-name="Trazado 643497" d="M352.571,232.658a2.538,2.538,0,0,0,3.22.02c3.29-2.663,10.554-9.212,11.562-16,1.315-8.812-2.205-14.451-8.7-16.211s-16.579-.246-19.781,4.521.046,5.692,5.9,13.571c-1.29,5.677,4.791,11.579,7.8,14.1" transform="translate(-30.189 -17.862)" fill="#263238"/>
        <path id="Trazado_643498" data-name="Trazado 643498" d="M345.222,217.042c-2.1.409-2.965,3.308-2.887,5.179.077,2.084,1.686,3.542,3.5,2.3a6.252,6.252,0,0,0,2.6-4.022,2.808,2.808,0,0,0-3.213-3.457" transform="translate(-30.611 -19.403)" fill="#ff8b7b"/>
        <path id="Trazado_643499" data-name="Trazado 643499" d="M363.713,308.427l-37.847-2.174c-.372-.02-.688.166-.667.4l-.541,3.118c0,.571.222.758.564.78l39.246,2.162c.433.022.766-.226.643-.5l-.78-3.465a.7.7,0,0,0-.616-.316" transform="translate(-29.03 -27.385)" fill="#263238"/>
        <path id="Trazado_643500" data-name="Trazado 643500" d="M362.826,312.676l-.227-4.442c-.011-.128.157-.2.359-.218l1.032.059c.2.013.372.127.383.263l.227,4.434c.011.135-.158.2-.36.219l-1.031-.059a.345.345,0,0,1-.383-.256" transform="translate(-32.423 -27.543)" fill="#407bff"/>
        <path id="Trazado_643501" data-name="Trazado 643501" d="M329.011,310.651l.35-4.451a.422.422,0,0,1,.406-.321l.991.088a.434.434,0,0,1,.352.358l-.309,4.448c0,.128-.187.275-.39.268l-1.051-.083c-.2-.038-.355-.171-.35-.307" transform="translate(-29.42 -27.351)" fill="#407bff"/>
        <path id="Trazado_643502" data-name="Trazado 643502" d="M345.82,311.684l.08-4.693c0-.136.17-.191.373-.194l1.018.128c.2.026.363.152.365.28l-.027,4.651c-.005.128-.17.183-.373.187l-1.071-.071c-.2-.027-.371-.137-.365-.288" transform="translate(-30.923 -27.433)" fill="#407bff"/>
        <path id="Trazado_643503" data-name="Trazado 643503" d="M323.355,279.709s-.016-4.238-.06-6.827-.094-5.186-.216-7.78-.281-5.21-.421-7.8c-.038-.7-.081-1.4-.129-2.1a5.968,5.968,0,1,1,11.92-.388c-.026,4.1-.13,8.683-.109,10.272.036,2.724-.056,5.456-.151,8.2s-.326,5.49-.615,8.245l-.153.892Z" transform="translate(-28.839 -22.249)" fill="#ff8b7b"/>
        <path id="Trazado_643504" data-name="Trazado 643504" d="M293.747,288.555l-7.01-2.593a2.017,2.017,0,0,0-1.769.182l-5.949,3.724a2.016,2.016,0,0,0,1.128,3.723l6-.175,9.131.973s2.723-4.261-1.532-5.835" transform="translate(-24.865 -25.559)" fill="#ff8b7b"/>
        <path id="Trazado_643505" data-name="Trazado 643505" d="M321.584,281.3l-26.7,7.341s1.015,5.9,1.893,5.343c.593-.377,16.262-.514,26.481-1.5a8.963,8.963,0,0,0,8.082-9.438Z" transform="translate(-26.369 -25.154)" fill="#ff8b7b"/>
        <path id="Trazado_643506" data-name="Trazado 643506" d="M326.355,248.494c-5.775,2.287-7.625,13.433-4.81,19.471,11.471-2.318,15.686.158,15.564.458a27.2,27.2,0,0,0,.407-8.171,14.166,14.166,0,0,0-3.722-9.259c-2.41-2.4-4.346-3.917-7.439-2.5" transform="translate(-28.636 -22.171)" fill="#263238"/>
        <path id="Trazado_643507" data-name="Trazado 643507" d="M326.355,248.494c-5.775,2.287-7.625,13.433-4.81,19.471,11.471-2.318,15.686.158,15.564.458a27.2,27.2,0,0,0,.407-8.171,14.166,14.166,0,0,0-3.722-9.259c-2.41-2.4-4.346-3.917-7.439-2.5" transform="translate(-28.636 -22.171)" fill="#617a0b"/>
        <g id="Grupo_883816" data-name="Grupo 883816" transform="translate(311.558 214.725)" opacity="0.2" style="isolation: isolate">
          <g id="Grupo_883815" data-name="Grupo 883815">
            <g id="Grupo_883814" data-name="Grupo 883814" clip-path="url(#clip-path-46)">
              <path id="Trazado_643508" data-name="Trazado 643508" d="M347.207,237.879a10.714,10.714,0,0,1-2.805-.619,11.005,11.005,0,0,1-2.219-1.12v-.009a.422.422,0,0,0-.028-.063,5.257,5.257,0,0,0,3.3-.078,1.247,1.247,0,0,1,.926-.127,1.14,1.14,0,0,1,.526.86c.1.38.2.778.3,1.157" transform="translate(-342.153 -235.811)"/>
            </g>
          </g>
        </g>
        <path id="Trazado_643509" data-name="Trazado 643509" d="M339.283,207.565c7.366,30.382,2.008,27.88.177,28.826.8,1.447,3.13,2.225,4.451,1.229a5.32,5.32,0,0,0,1.8-4.425c-.04-1.655-1.075-19.041-3.61-25.537a2.4,2.4,0,0,0-1.051-1.407c-.544-.253-1.906.73-1.765,1.314" transform="translate(-30.337 -18.439)" fill="#263238"/>
        <path id="Trazado_643510" data-name="Trazado 643510" d="M368.933,209.665c-1.246,1.251-3.329.84-5.013.307a19.022,19.022,0,0,1-5.12-2.237,7.083,7.083,0,0,1-3.129-4.474,5.519,5.519,0,0,1,4.3-6.11,5.6,5.6,0,0,1,3.949-5.046,5.8,5.8,0,0,1,6.112,2.3c6.3,1.342,4.6,7.563,4.343,8.372a2.156,2.156,0,0,1-1.778,1.594c.277,1.9-1.768,5-3.661,5.294" transform="translate(-31.798 -17.162)" fill="#263238"/>
      </g>
    </g>
  </g>
</svg>
