<svg xmlns="http://www.w3.org/2000/svg" width="483.648" height="47.415" viewBox="0 0 483.648 47.415">
  <g id="Grupo_1034551" data-name="Grupo 1034551" transform="translate(-180 -2276.202)">
    <path id="Trazado_194608" data-name="Trazado 194608" d="M0,0H483.648V36.871H0Z" transform="translate(180 2286.745)" fill="#b5ccad"/>
    <path id="Trazado_646305" data-name="Trazado 646305" d="M12.578,16.186a5.193,5.193,0,0,1-.8,2.622A4.833,4.833,0,0,1,9.722,20.57,7,7,0,0,1,6.7,21.2a5.584,5.584,0,0,1-4.414-1.826A7.54,7.54,0,0,1,.674,14.213v-.7A8.607,8.607,0,0,1,1.4,9.853,5.513,5.513,0,0,1,3.5,7.431,5.844,5.844,0,0,1,6.66,6.576a6.129,6.129,0,0,1,4.16,1.362,5.383,5.383,0,0,1,1.787,3.755H9.189a2.547,2.547,0,0,0-.654-1.865A2.691,2.691,0,0,0,6.66,9.262a2.048,2.048,0,0,0-1.875.957,6.151,6.151,0,0,0-.625,3.057v1.006a6.806,6.806,0,0,0,.571,3.252A2.091,2.091,0,0,0,6.7,18.51a2.632,2.632,0,0,0,1.807-.557,2.363,2.363,0,0,0,.664-1.768Zm7.764,3.672A3.393,3.393,0,0,1,17.52,21.2a3.328,3.328,0,0,1-2.632-1.011,4.251,4.251,0,0,1-.894-2.905V10.434h3.291V17.3A1.183,1.183,0,0,0,18.6,18.656a1.72,1.72,0,0,0,1.611-.811V10.434h3.311V21H20.439ZM31.279,21a3.716,3.716,0,0,1-.312-.947A3.06,3.06,0,0,1,28.428,21.2a3.749,3.749,0,0,1-2.539-.9,2.875,2.875,0,0,1-1.045-2.271,2.955,2.955,0,0,1,1.27-2.6,6.468,6.468,0,0,1,3.691-.879H30.82v-.559q0-1.462-1.26-1.462a1.03,1.03,0,0,0-1.172,1.158H25.1a2.95,2.95,0,0,1,1.3-2.487,5.479,5.479,0,0,1,3.325-.956,4.8,4.8,0,0,1,3.193.986,3.429,3.429,0,0,1,1.2,2.705v4.678a4.79,4.79,0,0,0,.449,2.227V21Zm-2.061-2.148a1.836,1.836,0,0,0,1.021-.264,1.653,1.653,0,0,0,.581-.6V16.3h-.957q-1.719,0-1.719,1.543a.942.942,0,0,0,.3.728A1.1,1.1,0,0,0,29.219,18.852Zm6.309-3.213a6.455,6.455,0,0,1,1.084-3.955,3.568,3.568,0,0,1,3.027-1.445,3.035,3.035,0,0,1,2.383,1.113V6h3.3V21H42.363L42.2,19.867A3.116,3.116,0,0,1,39.619,21.2a3.562,3.562,0,0,1-2.988-1.445A6.659,6.659,0,0,1,35.527,15.639Zm3.291.205q0,2.813,1.641,2.813a1.62,1.62,0,0,0,1.563-.918V13.715a1.576,1.576,0,0,0-1.543-.937q-1.523,0-1.65,2.461Zm14.766-2.432L52.5,13.334a1.947,1.947,0,0,0-1.992.977V21H47.217V10.434H50.3l.107,1.357a2.548,2.548,0,0,1,2.314-1.553,3.209,3.209,0,0,1,.918.117ZM54,15.619a6.236,6.236,0,0,1,.615-2.817,4.4,4.4,0,0,1,1.768-1.9,5.323,5.323,0,0,1,2.705-.664,4.858,4.858,0,0,1,3.74,1.47,5.64,5.64,0,0,1,1.367,4v.117a5.472,5.472,0,0,1-1.372,3.921,4.871,4.871,0,0,1-3.716,1.45,4.927,4.927,0,0,1-3.623-1.353,5.29,5.29,0,0,1-1.475-3.667Zm3.291.205a3.932,3.932,0,0,0,.459,2.148,1.529,1.529,0,0,0,1.357.684q1.758,0,1.8-2.705v-.332q0-2.842-1.816-2.842-1.65,0-1.787,2.451Zm12.92-.186A6.455,6.455,0,0,1,71.3,11.684a3.568,3.568,0,0,1,3.027-1.445,3.035,3.035,0,0,1,2.383,1.113V6h3.3V21H77.051l-.166-1.133A3.116,3.116,0,0,1,74.307,21.2a3.562,3.562,0,0,1-2.988-1.445A6.659,6.659,0,0,1,70.215,15.639Zm3.291.205q0,2.813,1.641,2.813a1.62,1.62,0,0,0,1.563-.918V13.715a1.576,1.576,0,0,0-1.543-.937q-1.523,0-1.65,2.461ZM86.992,21.2a5.432,5.432,0,0,1-3.936-1.45,5.008,5.008,0,0,1-1.5-3.774V15.7a6.489,6.489,0,0,1,.6-2.861,4.395,4.395,0,0,1,1.753-1.919,5.292,5.292,0,0,1,2.734-.679,4.574,4.574,0,0,1,3.516,1.382,5.43,5.43,0,0,1,1.289,3.853v1.279H84.9a2.372,2.372,0,0,0,.771,1.4,2.3,2.3,0,0,0,1.543.508,2.958,2.958,0,0,0,2.441-1.094l1.5,1.777a4.2,4.2,0,0,1-1.743,1.353A5.891,5.891,0,0,1,86.992,21.2Zm-.371-8.418q-1.445,0-1.719,1.914h3.32v-.254a1.63,1.63,0,0,0-.4-1.226A1.593,1.593,0,0,0,86.621,12.777Zm15.781-6,3.174,9.893,3.164-9.893h4.512V21h-3.437V17.68l.332-6.8L106.709,21h-2.266L101,10.873l.332,6.807V21H97.9V6.781ZM121.23,21a3.716,3.716,0,0,1-.312-.947,3.06,3.06,0,0,1-2.539,1.143,3.749,3.749,0,0,1-2.539-.9,2.875,2.875,0,0,1-1.045-2.271,2.955,2.955,0,0,1,1.27-2.6,6.468,6.468,0,0,1,3.691-.879h1.016v-.559q0-1.462-1.26-1.462a1.03,1.03,0,0,0-1.172,1.158h-3.291a2.95,2.95,0,0,1,1.3-2.487,5.479,5.479,0,0,1,3.325-.956,4.8,4.8,0,0,1,3.193.986,3.429,3.429,0,0,1,1.2,2.705v4.678a4.79,4.79,0,0,0,.449,2.227V21Zm-2.061-2.148a1.836,1.836,0,0,0,1.021-.264,1.653,1.653,0,0,0,.581-.6V16.3h-.957q-1.719,0-1.719,1.543a.942.942,0,0,0,.3.728A1.1,1.1,0,0,0,119.17,18.852Zm9.746-8.418.107,1.24a3.583,3.583,0,0,1,3.018-1.436,3.015,3.015,0,0,1,2.466.986,4.7,4.7,0,0,1,.845,2.969V21h-3.3V14.33a1.783,1.783,0,0,0-.322-1.177,1.491,1.491,0,0,0-1.172-.376,1.569,1.569,0,0,0-1.436.762V21H125.83V10.434Zm7.842,5.205a6.455,6.455,0,0,1,1.084-3.955,3.568,3.568,0,0,1,3.027-1.445,3.035,3.035,0,0,1,2.383,1.113V6h3.3V21h-2.959l-.166-1.133A3.116,3.116,0,0,1,140.85,21.2a3.562,3.562,0,0,1-2.988-1.445A6.659,6.659,0,0,1,136.758,15.639Zm3.291.205q0,2.813,1.641,2.813a1.62,1.62,0,0,0,1.563-.918V13.715a1.576,1.576,0,0,0-1.543-.937q-1.523,0-1.65,2.461Zm7.959-.225a6.236,6.236,0,0,1,.615-2.817,4.4,4.4,0,0,1,1.768-1.9,5.323,5.323,0,0,1,2.705-.664,4.858,4.858,0,0,1,3.74,1.47,5.64,5.64,0,0,1,1.367,4v.117a5.472,5.472,0,0,1-1.372,3.921,4.871,4.871,0,0,1-3.716,1.45,4.927,4.927,0,0,1-3.623-1.353,5.29,5.29,0,0,1-1.475-3.667Zm3.291.205a3.932,3.932,0,0,0,.459,2.148,1.529,1.529,0,0,0,1.357.684q1.758,0,1.8-2.705v-.332q0-2.842-1.816-2.842-1.65,0-1.787,2.451Zm12.92-.186a6.455,6.455,0,0,1,1.084-3.955,3.568,3.568,0,0,1,3.027-1.445,3.035,3.035,0,0,1,2.383,1.113V6h3.3V21h-2.959l-.166-1.133a3.116,3.116,0,0,1-2.578,1.328,3.562,3.562,0,0,1-2.988-1.445A6.659,6.659,0,0,1,164.219,15.639Zm3.291.205q0,2.813,1.641,2.813a1.62,1.62,0,0,0,1.563-.918V13.715a1.576,1.576,0,0,0-1.543-.937q-1.523,0-1.65,2.461ZM181,21.2a5.432,5.432,0,0,1-3.936-1.45,5.008,5.008,0,0,1-1.5-3.774V15.7a6.489,6.489,0,0,1,.6-2.861,4.395,4.395,0,0,1,1.753-1.919,5.292,5.292,0,0,1,2.734-.679,4.574,4.574,0,0,1,3.516,1.382,5.43,5.43,0,0,1,1.289,3.853v1.279h-6.543a2.372,2.372,0,0,0,.771,1.4,2.3,2.3,0,0,0,1.543.508,2.958,2.958,0,0,0,2.441-1.094l1.5,1.777a4.2,4.2,0,0,1-1.743,1.353A5.891,5.891,0,0,1,181,21.2Zm-.371-8.418q-1.445,0-1.719,1.914h3.32v-.254a1.63,1.63,0,0,0-.4-1.226A1.593,1.593,0,0,0,180.625,12.777ZM190.244,21h-3.3V6h3.3Zm12.9-14.219,1.357,9.863,4.766-9.863h4.453L211.26,21H207.9l.605-3.486,1.445-6.426L204.971,21h-2.217l-1.611-10.283-.9,7.129L199.688,21h-3.34l2.461-14.219ZM219.258,21a2.865,2.865,0,0,1-.137-.957,3.259,3.259,0,0,1-2.588,1.152,3.184,3.184,0,0,1-2.285-.918,2.759,2.759,0,0,1-.85-2.178,3.1,3.1,0,0,1,1.436-2.642,6.768,6.768,0,0,1,3.789-.923l1.074.02.117-.6.039-.518a.839.839,0,0,0-.889-.918,1.235,1.235,0,0,0-1.3,1.162l-3.223.01a3.06,3.06,0,0,1,.693-1.851,4.109,4.109,0,0,1,1.753-1.211,6.125,6.125,0,0,1,2.358-.4,4.723,4.723,0,0,1,2.1.5,3.133,3.133,0,0,1,1.353,1.318,3.368,3.368,0,0,1,.342,1.948l-.791,4.971-.049.605a2.669,2.669,0,0,0,.186,1.23l-.01.186Zm-1.836-2.129A2.072,2.072,0,0,0,219.15,18l.322-1.7-.83-.01a2.188,2.188,0,0,0-1.328.454,1.722,1.722,0,0,0-.654,1.187.865.865,0,0,0,.151.659A.773.773,0,0,0,217.422,18.871Zm13.9-5.459a9.192,9.192,0,0,0-1-.1,2.481,2.481,0,0,0-2.207,1L226.924,21h-3.213l1.836-10.566,3-.01-.244,1.387a2.933,2.933,0,0,1,2.441-1.6,4.6,4.6,0,0,1,1,.137Zm4.727,3.691-1.172,1.016-.5,2.881h-3.213L233.77,5.99h3.213L235.5,14l.391-.469,2.92-3.1h4.072l-4.492,4.492L241.113,21h-3.525ZM247.1,21.2a4.912,4.912,0,0,1-2.524-.669A4.215,4.215,0,0,1,242.9,18.69a4.933,4.933,0,0,1-.449-2.593l.029-.273a6.477,6.477,0,0,1,1.812-4.126,5.011,5.011,0,0,1,3.794-1.46,4.086,4.086,0,0,1,2.324.689,3.853,3.853,0,0,1,1.416,1.848,5.661,5.661,0,0,1,.293,2.646l-.186,1.34h-6.289a2.06,2.06,0,0,0,.469,1.348,1.722,1.722,0,0,0,1.309.547,3.325,3.325,0,0,0,2.51-1.074l1.348,1.782a3.976,3.976,0,0,1-1.665,1.329,5.848,5.848,0,0,1-2.339.5Zm.781-8.418a1.653,1.653,0,0,0-1.187.427,3.588,3.588,0,0,0-.874,1.5h3.213l.059-.282a2.143,2.143,0,0,0,.02-.641A1.131,1.131,0,0,0,247.881,12.777Zm10.654-4.971-.459,2.627h1.689l-.4,2.285h-1.689l-.82,4.854a1.294,1.294,0,0,0,.063.752q.132.254.659.273a7.637,7.637,0,0,0,.84-.049l-.234,2.383a5.192,5.192,0,0,1-1.729.244,2.847,2.847,0,0,1-2.236-.879,3,3,0,0,1-.605-2.334l.859-5.244h-1.309l.391-2.285h1.309l.459-2.627ZM262.656,21h-3.223l1.836-10.566h3.223Zm-1.1-13.232a1.49,1.49,0,0,1,.5-1.191A1.806,1.806,0,0,1,263.32,6.1a1.864,1.864,0,0,1,1.255.43A1.464,1.464,0,0,1,265.1,7.65a1.493,1.493,0,0,1-.5,1.2,1.811,1.811,0,0,1-1.27.474,1.887,1.887,0,0,1-1.245-.425A1.447,1.447,0,0,1,261.553,7.768Zm7.91,2.656-.225,1.27a3.756,3.756,0,0,1,3.057-1.465,2.523,2.523,0,0,1,2.183,1.089A4.557,4.557,0,0,1,275,14.35L273.887,21h-3.223l1.123-6.678a3.454,3.454,0,0,0,.02-.626q-.068-.929-1.094-.929a2.008,2.008,0,0,0-1.553.753L267.842,21h-3.213l1.836-10.566Zm6.816,5.273a8.028,8.028,0,0,1,.874-2.881,5.072,5.072,0,0,1,1.724-1.948,4.15,4.15,0,0,1,2.344-.64,2.885,2.885,0,0,1,2.4,1.143l.342-.947,2.969.01L285.205,20.59a4.964,4.964,0,0,1-1.885,3.389,6,6,0,0,1-3.965,1.182,5.661,5.661,0,0,1-2.041-.42,4.4,4.4,0,0,1-1.689-1.211l1.523-1.895a2.766,2.766,0,0,0,2.207,1.1,2.582,2.582,0,0,0,2.715-2.275l.078-.322a3.3,3.3,0,0,1-2.412,1.055,3.258,3.258,0,0,1-1.787-.513,3.371,3.371,0,0,1-1.211-1.45,5.64,5.64,0,0,1-.5-2.109A9.17,9.17,0,0,1,276.279,15.7Zm3.174,1.045a2.562,2.562,0,0,0,.322,1.4,1.093,1.093,0,0,0,.938.518,2.147,2.147,0,0,0,1.65-.7l.83-4.482a1.424,1.424,0,0,0-1.309-.7,1.87,1.87,0,0,0-1.572.8,4.291,4.291,0,0,0-.8,2.144Q279.453,16.322,279.453,16.742Zm13.77-1.523a14.924,14.924,0,0,1,.635-4.434,10.7,10.7,0,0,1,1.753-3.477A6.225,6.225,0,0,1,298.1,5.316l.625,1.621a6.367,6.367,0,0,0-2.114,3.14,15.313,15.313,0,0,0-.757,5v.43a15.612,15.612,0,0,0,.747,5.1,6.34,6.34,0,0,0,2.124,3.164l-.625,1.621a6.163,6.163,0,0,1-2.485-2,10.538,10.538,0,0,1-1.753-3.462,15,15,0,0,1-.635-4.277Zm18.467.967a5.193,5.193,0,0,1-.8,2.622,4.833,4.833,0,0,1-2.056,1.763,7,7,0,0,1-3.022.625,5.584,5.584,0,0,1-4.414-1.826,7.54,7.54,0,0,1-1.611-5.156v-.7a8.607,8.607,0,0,1,.728-3.657,5.512,5.512,0,0,1,2.095-2.422,5.844,5.844,0,0,1,3.164-.854,6.129,6.129,0,0,1,4.16,1.362,5.383,5.383,0,0,1,1.787,3.755H308.3a2.547,2.547,0,0,0-.654-1.865,2.691,2.691,0,0,0-1.875-.566,2.047,2.047,0,0,0-1.875.957,6.151,6.151,0,0,0-.625,3.057v1.006a6.806,6.806,0,0,0,.571,3.252,2.091,2.091,0,0,0,1.968.977,2.632,2.632,0,0,0,1.807-.557,2.363,2.363,0,0,0,.664-1.768Zm6.123-9.4,3.174,9.893,3.164-9.893h4.512V21h-3.437V17.68l.332-6.8L322.119,21h-2.266l-3.447-10.127.332,6.807V21h-3.428V6.781Zm17.529,0,3.174,9.893,3.164-9.893h4.512V21h-3.437V17.68l.332-6.8L339.648,21h-2.266l-3.447-10.127.332,6.807V21H330.84V6.781ZM353.2,15.707,351.8,17.25V21h-3.428V6.781H351.8v6.27l1.191-1.807,3.066-4.463h4.238l-4.8,6.289,4.8,7.93H356.23Zm13-.215a13.925,13.925,0,0,1-.674,4.355,11.12,11.12,0,0,1-1.86,3.54,6.193,6.193,0,0,1-2.563,2.007l-.625-1.621a6.43,6.43,0,0,0,2.1-3.125,15.085,15.085,0,0,0,.771-4.854v-.6a15.612,15.612,0,0,0-.747-5.1,6.34,6.34,0,0,0-2.124-3.164l.625-1.621A6.307,6.307,0,0,1,363.647,7.3,10.984,10.984,0,0,1,365.5,10.79a13.807,13.807,0,0,1,.7,4.272Z" transform="translate(264.683 2292.182)" fill="#12263f"/>
    <path id="Trazado_194609" data-name="Trazado 194609" d="M0,0,78.227,36.813H0Z" transform="translate(180 2286.804)" fill="#617a0b"/>
    <g id="Grupo_883933" data-name="Grupo 883933" transform="translate(196.352 2249.01)">
      <g id="Grupo_883904" data-name="Grupo 883904" transform="translate(21.096 27.969)">
        <path id="Trazado_643882" data-name="Trazado 643882" d="M214.459,41.408V40.122a5.429,5.429,0,0,0-10.859,0v1.286Z" transform="translate(-203.6 -34.693)" fill="#ffd15b"/>
      </g>
      <g id="Grupo_883905" data-name="Grupo 883905" transform="translate(21.096 27.969)">
        <path id="Trazado_643883" data-name="Trazado 643883" d="M207.081,41.408V40.122a5.449,5.449,0,0,1,3.689-5.14,5.38,5.38,0,0,0-1.741-.29,5.445,5.445,0,0,0-5.429,5.429v1.286Z" transform="translate(-203.6 -34.693)" fill="#ffc344"/>
      </g>
      <path id="Trazado_643884" data-name="Trazado 643884" d="M57.959,111.321H52.9v26.952H49.4V111.321H44.032v3.8A1.036,1.036,0,0,1,43,116.155H23.5a1.036,1.036,0,0,1-1.036-1.036v-3.8H8.536A1.036,1.036,0,0,0,7.5,112.357v35.849a1.036,1.036,0,0,0,1.036,1.036H57.959A1.036,1.036,0,0,0,59,148.206V112.357A1.036,1.036,0,0,0,57.959,111.321Z" transform="translate(-6.723 -75.412)" fill="#e44e00"/>
      <path id="Trazado_643885" data-name="Trazado 643885" d="M15.012,148.206v-2.158h-3.8a.518.518,0,0,1-.518-.518v-30.5a.518.518,0,0,1,.518-.518h3.8v-2.158a1.036,1.036,0,0,1,1.036-1.036H8.536A1.036,1.036,0,0,0,7.5,112.357v35.849a1.036,1.036,0,0,0,1.036,1.036h7.512A1.036,1.036,0,0,1,15.012,148.206Z" transform="translate(-6.723 -75.412)" fill="#e44e00"/>
      <path id="Trazado_643886" data-name="Trazado 643886" d="M82.92,142.152H80.534v23.757h-3.5V142.152H71.668v.6a1.036,1.036,0,0,1-1.036,1.036h-19.5a1.036,1.036,0,0,1-1.036-1.036v-.6H38.849a.518.518,0,0,0-.518.518v30.5a.518.518,0,0,0,.518.518H82.92a.518.518,0,0,0,.518-.518v-30.5A.518.518,0,0,0,82.92,142.152Z" transform="translate(-34.359 -103.049)" fill="#fff"/>
      <g id="Grupo_883906" data-name="Grupo 883906" transform="translate(3.972 39.103)">
        <path id="Trazado_643887" data-name="Trazado 643887" d="M38.849,142.152a.518.518,0,0,0-.518.518v30.5a.518.518,0,0,0,.518.518h3.8V142.152Z" transform="translate(-38.331 -142.152)" fill="#eaf9fa"/>
      </g>
      <g id="Grupo_883907" data-name="Grupo 883907" transform="translate(15.741 34.581)">
        <path id="Trazado_643888" data-name="Trazado 643888" d="M151.923,103.628v-4.09a1.036,1.036,0,0,1,1.036-1.036h19.5a1.036,1.036,0,0,1,1.036,1.036v4.09a1.036,1.036,0,0,1-1.036,1.036h-19.5A1.036,1.036,0,0,1,151.923,103.628Z" transform="translate(-151.923 -98.502)" fill="#ffe177"/>
      </g>
      <g id="Grupo_883908" data-name="Grupo 883908" transform="translate(15.741 34.581)">
        <path id="Trazado_643889" data-name="Trazado 643889" d="M156.283,103.628v-4.09a1.036,1.036,0,0,1,1.036-1.036h-4.36a1.036,1.036,0,0,0-1.036,1.036v4.09a1.036,1.036,0,0,0,1.036,1.036h4.36A1.036,1.036,0,0,1,156.283,103.628Z" transform="translate(-151.923 -98.502)" fill="#ffd15b"/>
      </g>
      <g id="Grupo_883911" data-name="Grupo 883911" transform="translate(20.308 52.273)">
        <g id="Grupo_883909" data-name="Grupo 883909">
          <path id="Trazado_643890" data-name="Trazado 643890" d="M207.915,274.744h-11.4a.518.518,0,0,1-.518-.518v-4.455a.518.518,0,0,1,.518-.518h11.4a.518.518,0,0,1,.518.518v4.455A.518.518,0,0,1,207.915,274.744Z" transform="translate(-196 -269.253)" fill="#cb97e7"/>
        </g>
        <g id="Grupo_883910" data-name="Grupo 883910">
          <path id="Trazado_643891" data-name="Trazado 643891" d="M199.316,274.226v-4.455a.518.518,0,0,1,.518-.518h-3.316a.518.518,0,0,0-.518.518v4.455a.518.518,0,0,0,.518.518h3.316A.518.518,0,0,1,199.316,274.226Z" transform="translate(-196 -269.253)" fill="#bd80e1"/>
        </g>
      </g>
      <g id="Grupo_883918" data-name="Grupo 883918" transform="translate(7.564 44.264)">
        <g id="Grupo_883912" data-name="Grupo 883912">
          <path id="Trazado_643892" data-name="Trazado 643892" d="M82.562,198H73.525a.518.518,0,0,1-.518-.518v-5.007a.518.518,0,0,1,.518-.518h9.037a.518.518,0,0,1,.518.518v5.007A.518.518,0,0,1,82.562,198Z" transform="translate(-73.007 -191.955)" fill="#05e39c"/>
        </g>
        <g id="Grupo_883913" data-name="Grupo 883913">
          <path id="Trazado_643893" data-name="Trazado 643893" d="M76.529,197.481v-5.007a.518.518,0,0,1,.518-.518H73.525a.518.518,0,0,0-.518.518v5.007a.518.518,0,0,0,.518.518h3.522A.518.518,0,0,1,76.529,197.481Z" transform="translate(-73.007 -191.955)" fill="#0ed290"/>
        </g>
        <g id="Grupo_883914" data-name="Grupo 883914" transform="translate(15.904 1.188)">
          <path id="Trazado_643894" data-name="Trazado 643894" d="M232.1,207.088h-5.077a.518.518,0,0,1-.518-.518v-2.632a.518.518,0,0,1,.518-.518H232.1a.518.518,0,0,1,.518.518v2.632A.518.518,0,0,1,232.1,207.088Z" transform="translate(-226.5 -203.42)" fill="#a6e7f0"/>
        </g>
        <g id="Grupo_883915" data-name="Grupo 883915" transform="translate(15.904 1.188)">
          <path id="Trazado_643895" data-name="Trazado 643895" d="M229.039,206.57v-2.632a.518.518,0,0,1,.518-.518h-2.539a.518.518,0,0,0-.518.518v2.632a.518.518,0,0,0,.518.518h2.539A.518.518,0,0,1,229.039,206.57Z" transform="translate(-226.5 -203.42)" fill="#6bd9e7"/>
        </g>
        <g id="Grupo_883917" data-name="Grupo 883917" transform="translate(27.848)">
          <path id="Trazado_643896" data-name="Trazado 643896" d="M349.039,191.955H342.3a.518.518,0,0,0-.518.518v5.007a.518.518,0,0,0,.518.518h6.743Z" transform="translate(-341.778 -191.955)" fill="#05e39c"/>
          <g id="Grupo_883916" data-name="Grupo 883916">
            <path id="Trazado_643897" data-name="Trazado 643897" d="M345.22,197.481v-5.007a.518.518,0,0,1,.518-.518H342.3a.518.518,0,0,0-.518.518v5.007a.518.518,0,0,0,.518.518h3.442A.518.518,0,0,1,345.22,197.481Z" transform="translate(-341.778 -191.955)" fill="#0ed290"/>
          </g>
        </g>
      </g>
      <path id="Trazado_643898" data-name="Trazado 643898" d="M361.342,348.955v-1.7a3.5,3.5,0,1,0,.826,4.069Z" transform="translate(-318.668 -286.095)" fill="#fe646f"/>
      <g id="Grupo_883919" data-name="Grupo 883919" transform="translate(36.835 60.261)">
        <path id="Trazado_643899" data-name="Trazado 643899" d="M358.1,349.851a3.5,3.5,0,0,1,2.2-3.247,3.5,3.5,0,1,0,0,6.493A3.5,3.5,0,0,1,358.1,349.851Z" transform="translate(-355.503 -346.355)" fill="#fb2b3a"/>
      </g>
      <g id="Grupo_883927" data-name="Grupo 883927" transform="translate(42.674 28.204)">
        <g id="Grupo_883921" data-name="Grupo 883921" transform="translate(0 0)">
          <g id="Grupo_883920" data-name="Grupo 883920">
            <path id="Trazado_643900" data-name="Trazado 643900" d="M415.359,38a1.036,1.036,0,0,0-1.036-1.036H412.9A1.036,1.036,0,0,0,411.859,38v4.4h3.5Z" transform="translate(-411.859 -36.959)" fill="#fe99a0"/>
          </g>
        </g>
        <g id="Grupo_883922" data-name="Grupo 883922" transform="translate(0 0)">
          <path id="Trazado_643901" data-name="Trazado 643901" d="M414.457,36.969a1.048,1.048,0,0,0-.133-.01H412.9A1.036,1.036,0,0,0,411.859,38v4.4h1.695V38A1.036,1.036,0,0,1,414.457,36.969Z" transform="translate(-411.859 -36.959)" fill="#fd8087"/>
        </g>
        <g id="Grupo_883923" data-name="Grupo 883923" transform="translate(0 5.439)">
          <path id="Trazado_643902" data-name="Trazado 643902" d="M411.859,89.457h3.5v29.217h-3.5Z" transform="translate(-411.859 -89.457)" fill="#ffe177"/>
        </g>
        <g id="Grupo_883924" data-name="Grupo 883924" transform="translate(0 5.439)">
          <path id="Trazado_643903" data-name="Trazado 643903" d="M411.859,89.457h1.695v29.217h-1.695Z" transform="translate(-411.859 -89.457)" fill="#ffd15b"/>
        </g>
        <g id="Grupo_883925" data-name="Grupo 883925" transform="translate(0 34.656)">
          <path id="Trazado_643904" data-name="Trazado 643904" d="M413.9,375.623l1.457-4.184h-3.5l1.457,4.184A.311.311,0,0,0,413.9,375.623Z" transform="translate(-411.859 -371.439)" fill="#ffcebf"/>
        </g>
        <g id="Grupo_883926" data-name="Grupo 883926" transform="translate(0 34.656)">
          <path id="Trazado_643905" data-name="Trazado 643905" d="M413.554,371.439h-1.695l1.457,4.184a.311.311,0,0,0,.587,0l.554-1.591Z" transform="translate(-411.859 -371.439)" fill="#ffb09e"/>
        </g>
      </g>
      <g id="Grupo_883928" data-name="Grupo 883928" transform="translate(9.935 61.091)">
        <circle id="Elipse_7003" data-name="Elipse 7003" cx="2.666" cy="2.666" r="2.666" fill="#ffe177"/>
      </g>
      <g id="Grupo_883929" data-name="Grupo 883929" transform="translate(9.935 61.091)">
        <path id="Trazado_643906" data-name="Trazado 643906" d="M97.966,357.027a2.667,2.667,0,0,1,1.624-2.455,2.666,2.666,0,1,0,0,4.909A2.666,2.666,0,0,1,97.966,357.027Z" transform="translate(-95.881 -354.361)" fill="#ffd15b"/>
      </g>
      <g id="Grupo_883930" data-name="Grupo 883930" transform="translate(20.007 61.091)">
        <circle id="Elipse_7004" data-name="Elipse 7004" cx="2.666" cy="2.666" r="2.666" fill="#fe9738"/>
      </g>
      <g id="Grupo_883931" data-name="Grupo 883931" transform="translate(20.007 61.091)">
        <path id="Trazado_643907" data-name="Trazado 643907" d="M195.214,357.027a2.667,2.667,0,0,1,1.608-2.447,2.666,2.666,0,1,0,0,4.894A2.666,2.666,0,0,1,195.214,357.027Z" transform="translate(-193.096 -354.361)" fill="#fe860a"/>
      </g>
      <g id="Grupo_883932" data-name="Grupo 883932" transform="translate(0 27.192)">
        <path id="Trazado_643908" data-name="Trazado 643908" d="M51.237,35.132H46.951V29.24a1.815,1.815,0,0,0-1.813-1.813H43.71A1.815,1.815,0,0,0,41.9,29.24v5.892H38.018A1.815,1.815,0,0,0,36.273,33.8H32.731V33.4a6.206,6.206,0,1,0-12.413,0V33.8H16.777a1.815,1.815,0,0,0-1.745,1.328H1.813A1.815,1.815,0,0,0,0,36.945V72.794a1.815,1.815,0,0,0,1.813,1.813H51.237a1.815,1.815,0,0,0,1.813-1.813V36.945A1.815,1.815,0,0,0,51.237,35.132ZM43.451,29.24a.259.259,0,0,1,.259-.259h1.428a.259.259,0,0,1,.259.259v3.626H43.451Zm.316,34.4h1.314l-.493,1.416H44.26Zm-1.827-.522.713,2.05a2.721,2.721,0,1,1-.757-3.628v1.322a.773.773,0,0,0,.044.255ZM38.13,48.063H41.9V49.53H36.19V45.041H41.9v1.468H38.13a.777.777,0,1,0,0,1.554Zm3.1,3.022H41.9v3.8l-.671.671Zm-3.14-14.4H41.9v1.64H38.086ZM16.518,35.617a.259.259,0,0,1,.259-.259h9.644a.777.777,0,0,0,0-1.554H21.873V33.4a4.652,4.652,0,1,1,9.3,0V33.8H30.048a.777.777,0,0,0,0,1.554h6.225a.259.259,0,0,1,.259.259v4.09a.259.259,0,0,1-.259.259h-19.5a.259.259,0,0,1-.259-.259ZM51.5,72.794a.259.259,0,0,1-.259.259H1.813a.259.259,0,0,1-.259-.259V36.945a.259.259,0,0,1,.259-.259H14.964v1.64H4.49a1.3,1.3,0,0,0-1.3,1.3v30.5a1.3,1.3,0,0,0,1.3,1.3h5.872a.777.777,0,1,0,0-1.554H4.749V39.88H14.973a1.815,1.815,0,0,0,1.8,1.639h19.5a1.815,1.815,0,0,0,1.8-1.639H41.9v3.606H35.931a1.3,1.3,0,0,0-1.3,1.3v1.727H30.359V45.97a1.3,1.3,0,0,0-1.3-1.3H23.986a1.3,1.3,0,0,0-1.3,1.3v.539H18.414V44.782a1.3,1.3,0,0,0-1.3-1.3H8.083a1.3,1.3,0,0,0-1.3,1.3v5.008a1.3,1.3,0,0,0,1.3,1.3h3.741v5.407l-.833-.833a.777.777,0,0,0-1.1,1.1l2.16,2.16a.777.777,0,0,0,1.1,0l2.16-2.16a.777.777,0,0,0-1.1-1.1l-.833.833V51.084h3.741a1.3,1.3,0,0,0,1.3-1.3V48.063h4.277V48.6a1.3,1.3,0,0,0,1.3,1.3h5.077a1.3,1.3,0,0,0,1.3-1.3v-.539h4.277v1.727a1.3,1.3,0,0,0,1.3,1.3h3.741v4.474l-.833-.833a.777.777,0,0,0-1.1,1.1l2.16,2.16a.777.777,0,0,0,1.1,0l.9-.9v2.7a4.274,4.274,0,1,0,1.351,7.09l.149.427a1.088,1.088,0,0,0,2.055,0l1.456-4.184a.773.773,0,0,0,.044-.256V54.733a.777.777,0,1,0-1.554,0v7.35H43.451V34.421H45.4V51.107a.777.777,0,1,0,1.554,0V39.88H48.3V69.858H13.988a.777.777,0,0,0,0,1.554H48.56a1.3,1.3,0,0,0,1.3-1.3v-30.5a1.3,1.3,0,0,0-1.3-1.3H46.951v-1.64h4.285a.259.259,0,0,1,.259.259ZM28.8,46.229v2.114H24.245V46.229ZM16.86,45.041V49.53H8.342V45.041Z" transform="translate(0 -27.192)"/>
        <path id="Trazado_643909" data-name="Trazado 643909" d="M189.8,268.8h11.4a1.3,1.3,0,0,0,1.3-1.3v-4.455a1.3,1.3,0,0,0-1.3-1.3H189.8a1.3,1.3,0,0,0-1.3,1.3V267.5A1.3,1.3,0,0,0,189.8,268.8Zm.259-5.491h10.879v3.937H190.054Z" transform="translate(-168.969 -237.449)"/>
        <path id="Trazado_643910" data-name="Trazado 643910" d="M222.719,288.253h-6.942a.777.777,0,0,0,0,1.554h6.942a.777.777,0,0,0,0-1.554Z" transform="translate(-192.723 -261.204)"/>
        <path id="Trazado_643911" data-name="Trazado 643911" d="M247.334,63.424a.777.777,0,0,0-.777-.777h-.711a.777.777,0,1,0,0,1.554h.711A.777.777,0,0,0,247.334,63.424Z" transform="translate(-219.677 -58.973)"/>
        <path id="Trazado_643912" data-name="Trazado 643912" d="M95.179,351.082h3.365a3.443,3.443,0,0,0,6.708,0h6.206l-.833.833a.777.777,0,1,0,1.1,1.1l2.16-2.16a.777.777,0,0,0,0-1.1l-2.16-2.16a.777.777,0,0,0-1.1,1.1l.833.833h-6.206a3.443,3.443,0,0,0-6.708,0H95.179a3.443,3.443,0,1,0,0,1.554Zm6.719-2.666a1.889,1.889,0,1,1-1.889,1.889A1.891,1.891,0,0,1,101.9,348.416Zm-10.073,3.778a1.889,1.889,0,1,1,1.889-1.889A1.891,1.891,0,0,1,91.825,352.195Z" transform="translate(-79.225 -313.74)"/>
        <path id="Trazado_643913" data-name="Trazado 643913" d="M188.277,122.292h12.641a.777.777,0,0,0,0-1.554H188.277a.777.777,0,0,0,0,1.554Z" transform="translate(-168.073 -111.045)"/>
        <path id="Trazado_643914" data-name="Trazado 643914" d="M92.391,215.174h4.663a.777.777,0,0,0,0-1.554H92.391a.777.777,0,0,0,0,1.554Z" transform="translate(-82.122 -194.304)"/>
      </g>
    </g>
  </g>
</svg>
